  0
SECTION
  2
HEADER
  9
$ANGBASE
  50
0.0
  9
$ANGDIR
  70
1
  9
$MEASUREMENT
  70
0
  0
ENDSEC
  0
SECTION
  2
TABLES
  0
TABLE
  2
LTYPE
  70
4
  0
LTYPE
  5
40F
  2
CONTINUOUS
  70
0
  3
Solid line
  72
65
  73
0
  40
0.0
  0
LTYPE
  5
410
  2
DASHDOT
 70
0
  3
Dash Dot ____ _ ____ _
 72
65
 73
4
 40
2.0
 49
1.25
 49
-0.25
 49
0.25
 49
-0.25
  0
LTYPE
  5
411
  2
DASHED
 70
0
  3
Dashed __ __ __ __ __
 72
65
 73
2
 40
0.75
 49
0.5
 49
-0.25
  0
LTYPE
  5
43B
  2
DOTTED
 70
0
  3
Dotted .  .  .  .
 72
65
 73
2
 40
0.2
 49
0.0
 49
-0.2
  0
ENDTAB
  0
TABLE
  2
STYLE
  70
4
  0
STYLE
  2
KICAD
  70
0
  40
0
  41
1
  42
1
  50
0
  71
0
  3
isocp.shx
  0
STYLE
  2
KICADB
  70
0
  40
0
  41
1
  42
1
  50
0
  71
0
  3
isocp.shx
  0
STYLE
  2
KICADI
  70
0
  40
0
  41
1
  42
1
  50
15
  71
0
  3
isocp.shx
  0
STYLE
  2
KICADBI
  70
0
  40
0
  41
1
  42
1
  50
15
  71
0
  3
isocp.shx
  0
ENDTAB
  0
TABLE
  2
LAYER
  70
1
  0
LAYER
  2
BLACK
  70
0
  62
7
  6
CONTINUOUS
  0
ENDTAB
  0
ENDSEC
  0
SECTION
  2
ENTITIES
0
LINE
8
BLACK
6
CONTINUOUS
10
6.5198323228346453
20
-3.3560518503937007
11
6.5199615748031494
21
-3.3560290944881888
0
LINE
8
BLACK
6
CONTINUOUS
10
6.5199615748031494
20
-3.3560290944881888
11
6.5200751574803144
21
-3.3560946850393698
0
LINE
8
BLACK
6
CONTINUOUS
10
6.5200751574803144
20
-3.3560946850393698
11
6.5204587401574798
21
-3.3561623228346456
0
LINE
8
BLACK
6
CONTINUOUS
10
6.5204587401574798
20
-3.3561623228346456
11
6.5210464173228342
21
-3.3566554330708662
0
LINE
8
BLACK
6
CONTINUOUS
10
6.5210464173228342
20
-3.3566554330708662
11
6.521710748031496
21
-3.3570390157480312
0
LINE
8
BLACK
6
CONTINUOUS
10
6.521710748031496
20
-3.3570390157480312
11
6.5218018503937003
21
-3.3572893307086615
0
LINE
8
BLACK
6
CONTINUOUS
10
6.5218018503937003
20
-3.3572893307086615
11
6.522005984251968
21
-3.3574606299212597
0
LINE
8
BLACK
6
CONTINUOUS
10
6.522005984251968
20
-3.3574606299212597
11
6.5221392125984252
21
-3.3582161811023621
0
LINE
8
BLACK
6
CONTINUOUS
10
6.5221392125984252
20
-3.3582161811023621
11
6.5224015748031494
21
-3.3589370078740157
0
LINE
8
BLACK
6
CONTINUOUS
10
6.5224015748031494
20
-3.3589370078740157
11
6.5224015748031494
21
-4.5400393700787403
0
LINE
8
BLACK
6
CONTINUOUS
10
6.5224015748031494
20
-4.5400393700787403
11
6.5223339370078737
21
-4.5404228740157482
0
LINE
8
BLACK
6
CONTINUOUS
10
6.5223339370078737
20
-4.5404228740157482
11
6.5223567322834644
21
-4.5405521259842523
0
LINE
8
BLACK
6
CONTINUOUS
10
6.5223567322834644
20
-4.5405521259842523
11
6.522291102362205
21
-4.5406657086614173
0
LINE
8
BLACK
6
CONTINUOUS
10
6.522291102362205
20
-4.5406657086614173
11
6.522223503937008
21
-4.5410492913385827
0
LINE
8
BLACK
6
CONTINUOUS
10
6.522223503937008
20
-4.5410492913385827
11
6.5217303543307086
21
-4.5416369685039371
0
LINE
8
BLACK
6
CONTINUOUS
10
6.5217303543307086
20
-4.5416369685039371
11
6.5213468110236219
21
-4.542301299212598
0
LINE
8
BLACK
6
CONTINUOUS
10
6.5213468110236219
20
-4.542301299212598
11
6.5210964566929128
21
-4.5423924015748032
0
LINE
8
BLACK
6
CONTINUOUS
10
6.5210964566929128
20
-4.5423924015748032
11
6.5209251968503938
21
-4.5425965354330708
0
LINE
8
BLACK
6
CONTINUOUS
10
6.5209251968503938
20
-4.5425965354330708
11
6.5201696062992127
21
-4.5427297637795272
0
LINE
8
BLACK
6
CONTINUOUS
10
6.5201696062992127
20
-4.5427297637795272
11
6.5194488188976374
21
-4.5429921259842523
0
LINE
8
BLACK
6
CONTINUOUS
10
6.5194488188976374
20
-4.5429921259842523
11
5.3383464566929133
21
-4.5429921259842523
0
LINE
8
BLACK
6
CONTINUOUS
10
5.3383464566929133
20
-4.5429921259842523
11
5.3379629133858266
21
-4.5429244881889765
0
LINE
8
BLACK
6
CONTINUOUS
10
5.3379629133858266
20
-4.5429244881889765
11
5.3378337007874013
21
-4.5429472834645672
0
LINE
8
BLACK
6
CONTINUOUS
10
5.3378337007874013
20
-4.5429472834645672
11
5.3377200787401575
21
-4.542881653543307
0
LINE
8
BLACK
6
CONTINUOUS
10
5.3377200787401575
20
-4.542881653543307
11
5.3373365354330708
21
-4.54281405511811
0
LINE
8
BLACK
6
CONTINUOUS
10
5.3373365354330708
20
-4.54281405511811
11
5.3367488188976377
21
-4.5423209055118106
0
LINE
8
BLACK
6
CONTINUOUS
10
5.3367488188976377
20
-4.5423209055118106
11
5.3360845275590547
21
-4.5419373622047239
0
LINE
8
BLACK
6
CONTINUOUS
10
5.3360845275590547
20
-4.5419373622047239
11
5.3359933858267716
21
-4.5416870078740157
0
LINE
8
BLACK
6
CONTINUOUS
10
5.3359933858267716
20
-4.5416870078740157
11
5.3357892913385827
21
-4.5415157480314958
0
LINE
8
BLACK
6
CONTINUOUS
10
5.3357892913385827
20
-4.5415157480314958
11
5.3356560236220467
21
-4.5407601574803147
0
LINE
8
BLACK
6
CONTINUOUS
10
5.3356560236220467
20
-4.5407601574803147
11
5.3353937007874013
21
-4.5400393700787403
0
LINE
8
BLACK
6
CONTINUOUS
10
5.3353937007874013
20
-4.5400393700787403
11
5.3353937007874013
21
-3.3589370078740157
0
LINE
8
BLACK
6
CONTINUOUS
10
5.3353937007874013
20
-3.3589370078740157
11
5.3354612992125983
21
-3.358553464566929
0
LINE
8
BLACK
6
CONTINUOUS
10
5.3354612992125983
20
-3.358553464566929
11
5.3354385433070863
21
-3.3584242519685037
0
LINE
8
BLACK
6
CONTINUOUS
10
5.3354385433070863
20
-3.3584242519685037
11
5.3355041338582678
21
-3.3583106299212599
0
LINE
8
BLACK
6
CONTINUOUS
10
5.3355041338582678
20
-3.3583106299212599
11
5.3355717716535436
21
-3.3579270866141733
0
LINE
8
BLACK
6
CONTINUOUS
10
5.3355717716535436
20
-3.3579270866141733
11
5.3360648818897634
21
-3.3573393700787402
0
LINE
8
BLACK
6
CONTINUOUS
10
5.3360648818897634
20
-3.3573393700787402
11
5.3364484645669288
21
-3.3566750787401576
0
LINE
8
BLACK
6
CONTINUOUS
10
5.3364484645669288
20
-3.3566750787401576
11
5.3366987795275591
21
-3.3565839370078741
0
LINE
8
BLACK
6
CONTINUOUS
10
5.3366987795275591
20
-3.3565839370078741
11
5.3368700787401577
21
-3.3563798425196851
0
LINE
8
BLACK
6
CONTINUOUS
10
5.3368700787401577
20
-3.3563798425196851
11
5.3376256299212601
21
-3.3562465748031496
0
LINE
8
BLACK
6
CONTINUOUS
10
5.3376256299212601
20
-3.3562465748031496
11
5.3383464566929133
21
-3.3559842519685037
0
LINE
8
BLACK
6
CONTINUOUS
10
5.3383464566929133
20
-3.3559842519685037
11
6.5194488188976374
21
-3.3559842519685037
0
LINE
8
BLACK
6
CONTINUOUS
10
6.5194488188976374
20
-3.3559842519685037
11
6.5198323228346453
21
-3.3560518503937007
0
LINE
8
BLACK
6
CONTINUOUS
10
5.3412992125984253
20
-3.3618897637795273
11
5.3412992125984253
21
-4.5370866141732282
0
LINE
8
BLACK
6
CONTINUOUS
10
5.3412992125984253
20
-4.5370866141732282
11
6.5164960629921262
21
-4.5370866141732282
0
LINE
8
BLACK
6
CONTINUOUS
10
6.5164960629921262
20
-4.5370866141732282
11
6.5164960629921262
21
-3.3618897637795273
0
LINE
8
BLACK
6
CONTINUOUS
10
6.5164960629921262
20
-3.3618897637795273
11
5.3412992125984253
21
-3.3618897637795273
  0
ENDSEC
  0
EOF
