  0
SECTION
  2
HEADER
  9
$ANGBASE
  50
0.0
  9
$ANGDIR
  70
1
  9
$MEASUREMENT
  70
0
  0
ENDSEC
  0
SECTION
  2
TABLES
  0
TABLE
  2
LTYPE
  70
4
  0
LTYPE
  5
40F
  2
CONTINUOUS
  70
0
  3
Solid line
  72
65
  73
0
  40
0.0
  0
LTYPE
  5
410
  2
DASHDOT
 70
0
  3
Dash Dot ____ _ ____ _
 72
65
 73
4
 40
2.0
 49
1.25
 49
-0.25
 49
0.25
 49
-0.25
  0
LTYPE
  5
411
  2
DASHED
 70
0
  3
Dashed __ __ __ __ __
 72
65
 73
2
 40
0.75
 49
0.5
 49
-0.25
  0
LTYPE
  5
43B
  2
DOTTED
 70
0
  3
Dotted .  .  .  .
 72
65
 73
2
 40
0.2
 49
0.0
 49
-0.2
  0
ENDTAB
  0
TABLE
  2
STYLE
  70
4
  0
STYLE
  2
KICAD
  70
0
  40
0
  41
1
  42
1
  50
0
  71
0
  3
isocp.shx
  0
STYLE
  2
KICADB
  70
0
  40
0
  41
1
  42
1
  50
0
  71
0
  3
isocp.shx
  0
STYLE
  2
KICADI
  70
0
  40
0
  41
1
  42
1
  50
15
  71
0
  3
isocp.shx
  0
STYLE
  2
KICADBI
  70
0
  40
0
  41
1
  42
1
  50
15
  71
0
  3
isocp.shx
  0
ENDTAB
  0
TABLE
  2
LAYER
  70
1
  0
LAYER
  2
BLACK
  70
0
  62
7
  6
CONTINUOUS
  0
ENDTAB
  0
ENDSEC
  0
SECTION
  2
ENTITIES
0
LINE
8
BLACK
6
CONTINUOUS
10
6.51933
20
-4.02343
11
6.52003
21
-4.02371
0
LINE
8
BLACK
6
CONTINUOUS
10
6.52003
20
-4.02371
11
6.52031
21
-4.02441
0
LINE
8
BLACK
6
CONTINUOUS
10
6.52031
20
-4.02441
11
6.52031
21
-4.49528
0
LINE
8
BLACK
6
CONTINUOUS
10
6.52031
20
-4.49528
11
6.52003
21
-4.49597
0
LINE
8
BLACK
6
CONTINUOUS
10
6.52003
20
-4.49597
11
6.51933
21
-4.49626
0
LINE
8
BLACK
6
CONTINUOUS
10
6.51933
20
-4.49626
11
6.26736
21
-4.49626
0
LINE
8
BLACK
6
CONTINUOUS
10
6.26736
20
-4.49626
11
6.26667
21
-4.49597
0
LINE
8
BLACK
6
CONTINUOUS
10
6.26667
20
-4.49597
11
6.26638
21
-4.49528
0
LINE
8
BLACK
6
CONTINUOUS
10
6.26638
20
-4.49528
11
6.26638
21
-4.49528
0
LINE
8
BLACK
6
CONTINUOUS
10
6.26638
20
-4.49528
11
6.26638
21
-4.02441
0
LINE
8
BLACK
6
CONTINUOUS
10
6.26638
20
-4.02441
11
6.26667
21
-4.02371
0
LINE
8
BLACK
6
CONTINUOUS
10
6.26667
20
-4.02371
11
6.26736
21
-4.02343
0
LINE
8
BLACK
6
CONTINUOUS
10
6.26736
20
-4.02343
11
6.51933
21
-4.02343
0
LINE
8
BLACK
6
CONTINUOUS
10
6.26835
20
-4.02539
11
6.26835
21
-4.49429
0
LINE
8
BLACK
6
CONTINUOUS
10
6.26835
20
-4.49429
11
6.51835
21
-4.49429
0
LINE
8
BLACK
6
CONTINUOUS
10
6.51835
20
-4.49429
11
6.51835
21
-4.02539
0
LINE
8
BLACK
6
CONTINUOUS
10
6.51835
20
-4.02539
11
6.26835
21
-4.02539
0
LINE
8
BLACK
6
CONTINUOUS
10
5.6311
20
-4.35118
11
5.6318
21
-4.35147
0
LINE
8
BLACK
6
CONTINUOUS
10
5.6318
20
-4.35147
11
5.63209
21
-4.35217
0
LINE
8
BLACK
6
CONTINUOUS
10
5.63209
20
-4.35217
11
5.63209
21
-4.4687
0
LINE
8
BLACK
6
CONTINUOUS
10
5.63209
20
-4.4687
11
5.6318
21
-4.4694
0
LINE
8
BLACK
6
CONTINUOUS
10
5.6318
20
-4.4694
11
5.6311
21
-4.46969
0
LINE
8
BLACK
6
CONTINUOUS
10
5.6311
20
-4.46969
11
5.57362
21
-4.46969
0
LINE
8
BLACK
6
CONTINUOUS
10
5.57362
20
-4.46969
11
5.57293
21
-4.4694
0
LINE
8
BLACK
6
CONTINUOUS
10
5.57293
20
-4.4694
11
5.57264
21
-4.4687
0
LINE
8
BLACK
6
CONTINUOUS
10
5.57264
20
-4.4687
11
5.57264
21
-4.35217
0
LINE
8
BLACK
6
CONTINUOUS
10
5.57264
20
-4.35217
11
5.57293
21
-4.35147
0
LINE
8
BLACK
6
CONTINUOUS
10
5.57293
20
-4.35147
11
5.57362
21
-4.35118
0
LINE
8
BLACK
6
CONTINUOUS
10
5.57362
20
-4.35118
11
5.6311
21
-4.35118
0
LINE
8
BLACK
6
CONTINUOUS
10
5.57461
20
-4.35315
11
5.57461
21
-4.46772
0
LINE
8
BLACK
6
CONTINUOUS
10
5.57461
20
-4.46772
11
5.63012
21
-4.46772
0
LINE
8
BLACK
6
CONTINUOUS
10
5.63012
20
-4.46772
11
5.63012
21
-4.35315
0
LINE
8
BLACK
6
CONTINUOUS
10
5.63012
20
-4.35315
11
5.57461
21
-4.35315
0
LINE
8
BLACK
6
CONTINUOUS
10
5.56417
20
-4.3502
11
5.56487
21
-4.35049
0
LINE
8
BLACK
6
CONTINUOUS
10
5.56487
20
-4.35049
11
5.56516
21
-4.35118
0
LINE
8
BLACK
6
CONTINUOUS
10
5.56516
20
-4.35118
11
5.56516
21
-4.46772
0
LINE
8
BLACK
6
CONTINUOUS
10
5.56516
20
-4.46772
11
5.56487
21
-4.46841
0
LINE
8
BLACK
6
CONTINUOUS
10
5.56487
20
-4.46841
11
5.56417
21
-4.4687
0
LINE
8
BLACK
6
CONTINUOUS
10
5.56417
20
-4.4687
11
5.50669
21
-4.4687
0
LINE
8
BLACK
6
CONTINUOUS
10
5.50669
20
-4.4687
11
5.506
21
-4.46841
0
LINE
8
BLACK
6
CONTINUOUS
10
5.506
20
-4.46841
11
5.50571
21
-4.46772
0
LINE
8
BLACK
6
CONTINUOUS
10
5.50571
20
-4.46772
11
5.50571
21
-4.35118
0
LINE
8
BLACK
6
CONTINUOUS
10
5.50571
20
-4.35118
11
5.506
21
-4.35049
0
LINE
8
BLACK
6
CONTINUOUS
10
5.506
20
-4.35049
11
5.50669
21
-4.3502
0
LINE
8
BLACK
6
CONTINUOUS
10
5.50669
20
-4.3502
11
5.56417
21
-4.3502
0
LINE
8
BLACK
6
CONTINUOUS
10
5.50768
20
-4.35217
11
5.50768
21
-4.46673
0
LINE
8
BLACK
6
CONTINUOUS
10
5.50768
20
-4.46673
11
5.56319
21
-4.46673
0
LINE
8
BLACK
6
CONTINUOUS
10
5.56319
20
-4.46673
11
5.56319
21
-4.35217
0
LINE
8
BLACK
6
CONTINUOUS
10
5.56319
20
-4.35217
11
5.50768
21
-4.35217
0
LINE
8
BLACK
6
CONTINUOUS
10
5.89061
20
-4.22616
11
5.89906
21
-4.22842
0
LINE
8
BLACK
6
CONTINUOUS
10
5.89906
20
-4.22842
11
5.90699
21
-4.23212
0
LINE
8
BLACK
6
CONTINUOUS
10
5.90699
20
-4.23212
11
5.91416
21
-4.23714
0
LINE
8
BLACK
6
CONTINUOUS
10
5.91416
20
-4.23714
11
5.92034
21
-4.24332
0
LINE
8
BLACK
6
CONTINUOUS
10
5.92034
20
-4.24332
11
5.92536
21
-4.25049
0
LINE
8
BLACK
6
CONTINUOUS
10
5.92536
20
-4.25049
11
5.92906
21
-4.25842
0
LINE
8
BLACK
6
CONTINUOUS
10
5.92906
20
-4.25842
11
5.93132
21
-4.26687
0
LINE
8
BLACK
6
CONTINUOUS
10
5.93132
20
-4.26687
11
5.93209
21
-4.27559
0
LINE
8
BLACK
6
CONTINUOUS
10
5.93209
20
-4.27559
11
5.93132
21
-4.28431
0
LINE
8
BLACK
6
CONTINUOUS
10
5.93132
20
-4.28431
11
5.92906
21
-4.29276
0
LINE
8
BLACK
6
CONTINUOUS
10
5.92906
20
-4.29276
11
5.92536
21
-4.30069
0
LINE
8
BLACK
6
CONTINUOUS
10
5.92536
20
-4.30069
11
5.92034
21
-4.30786
0
LINE
8
BLACK
6
CONTINUOUS
10
5.92034
20
-4.30786
11
5.91416
21
-4.31404
0
LINE
8
BLACK
6
CONTINUOUS
10
5.91416
20
-4.31404
11
5.90699
21
-4.31906
0
LINE
8
BLACK
6
CONTINUOUS
10
5.90699
20
-4.31906
11
5.89906
21
-4.32276
0
LINE
8
BLACK
6
CONTINUOUS
10
5.89906
20
-4.32276
11
5.89061
21
-4.32502
0
LINE
8
BLACK
6
CONTINUOUS
10
5.89061
20
-4.32502
11
5.88189
21
-4.32579
0
LINE
8
BLACK
6
CONTINUOUS
10
5.88189
20
-4.32579
11
5.87317
21
-4.32502
0
LINE
8
BLACK
6
CONTINUOUS
10
5.87317
20
-4.32502
11
5.86472
21
-4.32276
0
LINE
8
BLACK
6
CONTINUOUS
10
5.86472
20
-4.32276
11
5.85679
21
-4.31906
0
LINE
8
BLACK
6
CONTINUOUS
10
5.85679
20
-4.31906
11
5.84962
21
-4.31404
0
LINE
8
BLACK
6
CONTINUOUS
10
5.84962
20
-4.31404
11
5.84344
21
-4.30786
0
LINE
8
BLACK
6
CONTINUOUS
10
5.84344
20
-4.30786
11
5.83842
21
-4.30069
0
LINE
8
BLACK
6
CONTINUOUS
10
5.83842
20
-4.30069
11
5.83472
21
-4.29276
0
LINE
8
BLACK
6
CONTINUOUS
10
5.83472
20
-4.29276
11
5.83246
21
-4.28431
0
LINE
8
BLACK
6
CONTINUOUS
10
5.83246
20
-4.28431
11
5.83169
21
-4.27559
0
LINE
8
BLACK
6
CONTINUOUS
10
5.83169
20
-4.27559
11
5.83246
21
-4.26687
0
LINE
8
BLACK
6
CONTINUOUS
10
5.83246
20
-4.26687
11
5.83472
21
-4.25842
0
LINE
8
BLACK
6
CONTINUOUS
10
5.83472
20
-4.25842
11
5.83842
21
-4.25049
0
LINE
8
BLACK
6
CONTINUOUS
10
5.83842
20
-4.25049
11
5.84344
21
-4.24332
0
LINE
8
BLACK
6
CONTINUOUS
10
5.84344
20
-4.24332
11
5.84962
21
-4.23714
0
LINE
8
BLACK
6
CONTINUOUS
10
5.84962
20
-4.23714
11
5.85679
21
-4.23212
0
LINE
8
BLACK
6
CONTINUOUS
10
5.85679
20
-4.23212
11
5.86472
21
-4.22842
0
LINE
8
BLACK
6
CONTINUOUS
10
5.86472
20
-4.22842
11
5.87317
21
-4.22616
0
LINE
8
BLACK
6
CONTINUOUS
10
5.87317
20
-4.22616
11
5.88189
21
-4.22539
0
LINE
8
BLACK
6
CONTINUOUS
10
5.88189
20
-4.22539
11
5.89061
21
-4.22616
0
LINE
8
BLACK
6
CONTINUOUS
10
5.83421
20
-4.284
11
5.8364
21
-4.29215
0
LINE
8
BLACK
6
CONTINUOUS
10
5.8364
20
-4.29215
11
5.83996
21
-4.2998
0
LINE
8
BLACK
6
CONTINUOUS
10
5.83996
20
-4.2998
11
5.8448
21
-4.30671
0
LINE
8
BLACK
6
CONTINUOUS
10
5.8448
20
-4.30671
11
5.85077
21
-4.31268
0
LINE
8
BLACK
6
CONTINUOUS
10
5.85077
20
-4.31268
11
5.85768
21
-4.31752
0
LINE
8
BLACK
6
CONTINUOUS
10
5.85768
20
-4.31752
11
5.86533
21
-4.32108
0
LINE
8
BLACK
6
CONTINUOUS
10
5.86533
20
-4.32108
11
5.87348
21
-4.32327
0
LINE
8
BLACK
6
CONTINUOUS
10
5.87348
20
-4.32327
11
5.88189
21
-4.324
0
LINE
8
BLACK
6
CONTINUOUS
10
5.88189
20
-4.324
11
5.8903
21
-4.32327
0
LINE
8
BLACK
6
CONTINUOUS
10
5.8903
20
-4.32327
11
5.89845
21
-4.32108
0
LINE
8
BLACK
6
CONTINUOUS
10
5.89845
20
-4.32108
11
5.9061
21
-4.31752
0
LINE
8
BLACK
6
CONTINUOUS
10
5.9061
20
-4.31752
11
5.91301
21
-4.31268
0
LINE
8
BLACK
6
CONTINUOUS
10
5.91301
20
-4.31268
11
5.91898
21
-4.30671
0
LINE
8
BLACK
6
CONTINUOUS
10
5.91898
20
-4.30671
11
5.92382
21
-4.2998
0
LINE
8
BLACK
6
CONTINUOUS
10
5.92382
20
-4.2998
11
5.92738
21
-4.29215
0
LINE
8
BLACK
6
CONTINUOUS
10
5.92738
20
-4.29215
11
5.92957
21
-4.284
0
LINE
8
BLACK
6
CONTINUOUS
10
5.92957
20
-4.284
11
5.9303
21
-4.27559
0
LINE
8
BLACK
6
CONTINUOUS
10
5.9303
20
-4.27559
11
5.92957
21
-4.26718
0
LINE
8
BLACK
6
CONTINUOUS
10
5.92957
20
-4.26718
11
5.92738
21
-4.25903
0
LINE
8
BLACK
6
CONTINUOUS
10
5.92738
20
-4.25903
11
5.92382
21
-4.25138
0
LINE
8
BLACK
6
CONTINUOUS
10
5.92382
20
-4.25138
11
5.91898
21
-4.24447
0
LINE
8
BLACK
6
CONTINUOUS
10
5.91898
20
-4.24447
11
5.91301
21
-4.2385
0
LINE
8
BLACK
6
CONTINUOUS
10
5.91301
20
-4.2385
11
5.9061
21
-4.23366
0
LINE
8
BLACK
6
CONTINUOUS
10
5.9061
20
-4.23366
11
5.89845
21
-4.2301
0
LINE
8
BLACK
6
CONTINUOUS
10
5.89845
20
-4.2301
11
5.8903
21
-4.22791
0
LINE
8
BLACK
6
CONTINUOUS
10
5.8903
20
-4.22791
11
5.88189
21
-4.22718
0
LINE
8
BLACK
6
CONTINUOUS
10
5.88189
20
-4.22718
11
5.87348
21
-4.22791
0
LINE
8
BLACK
6
CONTINUOUS
10
5.87348
20
-4.22791
11
5.86533
21
-4.2301
0
LINE
8
BLACK
6
CONTINUOUS
10
5.86533
20
-4.2301
11
5.85768
21
-4.23366
0
LINE
8
BLACK
6
CONTINUOUS
10
5.85768
20
-4.23366
11
5.85077
21
-4.2385
0
LINE
8
BLACK
6
CONTINUOUS
10
5.85077
20
-4.2385
11
5.8448
21
-4.24447
0
LINE
8
BLACK
6
CONTINUOUS
10
5.8448
20
-4.24447
11
5.83996
21
-4.25138
0
LINE
8
BLACK
6
CONTINUOUS
10
5.83996
20
-4.25138
11
5.8364
21
-4.25903
0
LINE
8
BLACK
6
CONTINUOUS
10
5.8364
20
-4.25903
11
5.83421
21
-4.26718
0
LINE
8
BLACK
6
CONTINUOUS
10
5.83421
20
-4.26718
11
5.83348
21
-4.27559
0
LINE
8
BLACK
6
CONTINUOUS
10
5.83348
20
-4.27559
11
5.83421
21
-4.284
0
LINE
8
BLACK
6
CONTINUOUS
10
5.72953
20
-4.1563
11
5.73022
21
-4.15659
0
LINE
8
BLACK
6
CONTINUOUS
10
5.73022
20
-4.15659
11
5.73051
21
-4.15728
0
LINE
8
BLACK
6
CONTINUOUS
10
5.73051
20
-4.15728
11
5.73051
21
-4.27382
0
LINE
8
BLACK
6
CONTINUOUS
10
5.73051
20
-4.27382
11
5.73022
21
-4.27451
0
LINE
8
BLACK
6
CONTINUOUS
10
5.73022
20
-4.27451
11
5.72953
21
-4.2748
0
LINE
8
BLACK
6
CONTINUOUS
10
5.72953
20
-4.2748
11
5.67205
21
-4.2748
0
LINE
8
BLACK
6
CONTINUOUS
10
5.67205
20
-4.2748
11
5.67135
21
-4.27451
0
LINE
8
BLACK
6
CONTINUOUS
10
5.67135
20
-4.27451
11
5.67106
21
-4.27382
0
LINE
8
BLACK
6
CONTINUOUS
10
5.67106
20
-4.27382
11
5.67106
21
-4.15728
0
LINE
8
BLACK
6
CONTINUOUS
10
5.67106
20
-4.15728
11
5.67135
21
-4.15659
0
LINE
8
BLACK
6
CONTINUOUS
10
5.67135
20
-4.15659
11
5.67205
21
-4.1563
0
LINE
8
BLACK
6
CONTINUOUS
10
5.67205
20
-4.1563
11
5.72953
21
-4.1563
0
LINE
8
BLACK
6
CONTINUOUS
10
5.67303
20
-4.15827
11
5.67303
21
-4.27283
0
LINE
8
BLACK
6
CONTINUOUS
10
5.67303
20
-4.27283
11
5.72854
21
-4.27283
0
LINE
8
BLACK
6
CONTINUOUS
10
5.72854
20
-4.27283
11
5.72854
21
-4.15827
0
LINE
8
BLACK
6
CONTINUOUS
10
5.72854
20
-4.15827
11
5.67303
21
-4.15827
0
LINE
8
BLACK
6
CONTINUOUS
10
5.80181
20
-4.10728
11
5.80251
21
-4.10757
0
LINE
8
BLACK
6
CONTINUOUS
10
5.80251
20
-4.10757
11
5.8028
21
-4.10827
0
LINE
8
BLACK
6
CONTINUOUS
10
5.8028
20
-4.10827
11
5.8028
21
-4.24606
0
LINE
8
BLACK
6
CONTINUOUS
10
5.8028
20
-4.24606
11
5.80251
21
-4.24676
0
LINE
8
BLACK
6
CONTINUOUS
10
5.80251
20
-4.24676
11
5.80181
21
-4.24705
0
LINE
8
BLACK
6
CONTINUOUS
10
5.80181
20
-4.24705
11
5.73488
21
-4.24705
0
LINE
8
BLACK
6
CONTINUOUS
10
5.73488
20
-4.24705
11
5.73419
21
-4.24676
0
LINE
8
BLACK
6
CONTINUOUS
10
5.73419
20
-4.24676
11
5.7339
21
-4.24606
0
LINE
8
BLACK
6
CONTINUOUS
10
5.7339
20
-4.24606
11
5.7339
21
-4.10827
0
LINE
8
BLACK
6
CONTINUOUS
10
5.7339
20
-4.10827
11
5.73419
21
-4.10757
0
LINE
8
BLACK
6
CONTINUOUS
10
5.73419
20
-4.10757
11
5.73488
21
-4.10728
0
LINE
8
BLACK
6
CONTINUOUS
10
5.73488
20
-4.10728
11
5.80181
21
-4.10728
0
LINE
8
BLACK
6
CONTINUOUS
10
5.73587
20
-4.10925
11
5.73587
21
-4.24508
0
LINE
8
BLACK
6
CONTINUOUS
10
5.73587
20
-4.24508
11
5.80083
21
-4.24508
0
LINE
8
BLACK
6
CONTINUOUS
10
5.80083
20
-4.24508
11
5.80083
21
-4.10925
0
LINE
8
BLACK
6
CONTINUOUS
10
5.80083
20
-4.10925
11
5.73587
21
-4.10925
0
LINE
8
BLACK
6
CONTINUOUS
10
6.07992
20
-4.12185
11
6.08062
21
-4.12214
0
LINE
8
BLACK
6
CONTINUOUS
10
6.08062
20
-4.12214
11
6.08091
21
-4.12283
0
LINE
8
BLACK
6
CONTINUOUS
10
6.08091
20
-4.12283
11
6.08091
21
-4.23937
0
LINE
8
BLACK
6
CONTINUOUS
10
6.08091
20
-4.23937
11
6.08062
21
-4.24007
0
LINE
8
BLACK
6
CONTINUOUS
10
6.08062
20
-4.24007
11
6.07992
21
-4.24035
0
LINE
8
BLACK
6
CONTINUOUS
10
6.07992
20
-4.24035
11
6.02244
21
-4.24035
0
LINE
8
BLACK
6
CONTINUOUS
10
6.02244
20
-4.24035
11
6.02174
21
-4.24007
0
LINE
8
BLACK
6
CONTINUOUS
10
6.02174
20
-4.24007
11
6.02146
21
-4.23937
0
LINE
8
BLACK
6
CONTINUOUS
10
6.02146
20
-4.23937
11
6.02146
21
-4.12283
0
LINE
8
BLACK
6
CONTINUOUS
10
6.02146
20
-4.12283
11
6.02174
21
-4.12214
0
LINE
8
BLACK
6
CONTINUOUS
10
6.02174
20
-4.12214
11
6.02244
21
-4.12185
0
LINE
8
BLACK
6
CONTINUOUS
10
6.02244
20
-4.12185
11
6.07992
21
-4.12185
0
LINE
8
BLACK
6
CONTINUOUS
10
6.02343
20
-4.12382
11
6.02343
21
-4.23839
0
LINE
8
BLACK
6
CONTINUOUS
10
6.02343
20
-4.23839
11
6.07894
21
-4.23839
0
LINE
8
BLACK
6
CONTINUOUS
10
6.07894
20
-4.23839
11
6.07894
21
-4.12382
0
LINE
8
BLACK
6
CONTINUOUS
10
6.07894
20
-4.12382
11
6.02343
21
-4.12382
0
LINE
8
BLACK
6
CONTINUOUS
10
5.93819
20
-4.07953
11
5.93888
21
-4.07982
0
LINE
8
BLACK
6
CONTINUOUS
10
5.93888
20
-4.07982
11
5.93917
21
-4.08051
0
LINE
8
BLACK
6
CONTINUOUS
10
5.93917
20
-4.08051
11
5.93917
21
-4.19705
0
LINE
8
BLACK
6
CONTINUOUS
10
5.93917
20
-4.19705
11
5.93888
21
-4.19774
0
LINE
8
BLACK
6
CONTINUOUS
10
5.93888
20
-4.19774
11
5.93819
21
-4.19803
0
LINE
8
BLACK
6
CONTINUOUS
10
5.93819
20
-4.19803
11
5.88071
21
-4.19803
0
LINE
8
BLACK
6
CONTINUOUS
10
5.88071
20
-4.19803
11
5.88001
21
-4.19774
0
LINE
8
BLACK
6
CONTINUOUS
10
5.88001
20
-4.19774
11
5.87972
21
-4.19705
0
LINE
8
BLACK
6
CONTINUOUS
10
5.87972
20
-4.19705
11
5.87972
21
-4.08051
0
LINE
8
BLACK
6
CONTINUOUS
10
5.87972
20
-4.08051
11
5.88001
21
-4.07982
0
LINE
8
BLACK
6
CONTINUOUS
10
5.88001
20
-4.07982
11
5.88071
21
-4.07953
0
LINE
8
BLACK
6
CONTINUOUS
10
5.88071
20
-4.07953
11
5.93819
21
-4.07953
0
LINE
8
BLACK
6
CONTINUOUS
10
5.88169
20
-4.0815
11
5.88169
21
-4.19606
0
LINE
8
BLACK
6
CONTINUOUS
10
5.88169
20
-4.19606
11
5.9372
21
-4.19606
0
LINE
8
BLACK
6
CONTINUOUS
10
5.9372
20
-4.19606
11
5.9372
21
-4.0815
0
LINE
8
BLACK
6
CONTINUOUS
10
5.9372
20
-4.0815
11
5.88169
21
-4.0815
0
LINE
8
BLACK
6
CONTINUOUS
10
6.20197
20
-3.96142
11
6.20266
21
-3.96171
0
LINE
8
BLACK
6
CONTINUOUS
10
6.20266
20
-3.96171
11
6.20295
21
-3.9624
0
LINE
8
BLACK
6
CONTINUOUS
10
6.20295
20
-3.9624
11
6.20295
21
-4.07894
0
LINE
8
BLACK
6
CONTINUOUS
10
6.20295
20
-4.07894
11
6.20266
21
-4.07963
0
LINE
8
BLACK
6
CONTINUOUS
10
6.20266
20
-4.07963
11
6.20197
21
-4.07992
0
LINE
8
BLACK
6
CONTINUOUS
10
6.20197
20
-4.07992
11
6.14449
21
-4.07992
0
LINE
8
BLACK
6
CONTINUOUS
10
6.14449
20
-4.07992
11
6.1439
21
-4.07968
0
LINE
8
BLACK
6
CONTINUOUS
10
6.1439
20
-4.07968
11
6.1439
21
-4.19606
0
LINE
8
BLACK
6
CONTINUOUS
10
6.1439
20
-4.19606
11
6.14361
21
-4.19676
0
LINE
8
BLACK
6
CONTINUOUS
10
6.14361
20
-4.19676
11
6.14291
21
-4.19705
0
LINE
8
BLACK
6
CONTINUOUS
10
6.14291
20
-4.19705
11
6.08543
21
-4.19705
0
LINE
8
BLACK
6
CONTINUOUS
10
6.08543
20
-4.19705
11
6.08474
21
-4.19676
0
LINE
8
BLACK
6
CONTINUOUS
10
6.08474
20
-4.19676
11
6.08445
21
-4.19606
0
LINE
8
BLACK
6
CONTINUOUS
10
6.08445
20
-4.19606
11
6.08445
21
-4.07953
0
LINE
8
BLACK
6
CONTINUOUS
10
6.08445
20
-4.07953
11
6.08474
21
-4.07883
0
LINE
8
BLACK
6
CONTINUOUS
10
6.08474
20
-4.07883
11
6.08543
21
-4.07854
0
LINE
8
BLACK
6
CONTINUOUS
10
6.08543
20
-4.07854
11
6.14291
21
-4.07854
0
LINE
8
BLACK
6
CONTINUOUS
10
6.14291
20
-4.07854
11
6.1435
21
-4.07879
0
LINE
8
BLACK
6
CONTINUOUS
10
6.1435
20
-4.07879
11
6.1435
21
-3.9624
0
LINE
8
BLACK
6
CONTINUOUS
10
6.1435
20
-3.9624
11
6.14379
21
-3.96171
0
LINE
8
BLACK
6
CONTINUOUS
10
6.14379
20
-3.96171
11
6.14449
21
-3.96142
0
LINE
8
BLACK
6
CONTINUOUS
10
6.14449
20
-3.96142
11
6.20197
21
-3.96142
0
LINE
8
BLACK
6
CONTINUOUS
10
6.08642
20
-4.08051
11
6.08642
21
-4.19508
0
LINE
8
BLACK
6
CONTINUOUS
10
6.08642
20
-4.19508
11
6.14193
21
-4.19508
0
LINE
8
BLACK
6
CONTINUOUS
10
6.14193
20
-4.19508
11
6.14193
21
-4.08051
0
LINE
8
BLACK
6
CONTINUOUS
10
6.14193
20
-4.08051
11
6.08642
21
-4.08051
0
LINE
8
BLACK
6
CONTINUOUS
10
6.14547
20
-3.96339
11
6.14547
21
-4.07795
0
LINE
8
BLACK
6
CONTINUOUS
10
6.14547
20
-4.07795
11
6.20098
21
-4.07795
0
LINE
8
BLACK
6
CONTINUOUS
10
6.20098
20
-4.07795
11
6.20098
21
-3.96339
0
LINE
8
BLACK
6
CONTINUOUS
10
6.20098
20
-3.96339
11
6.14547
21
-3.96339
0
LINE
8
BLACK
6
CONTINUOUS
10
5.86339
20
-4.07559
11
5.86408
21
-4.07588
0
LINE
8
BLACK
6
CONTINUOUS
10
5.86408
20
-4.07588
11
5.86437
21
-4.07657
0
LINE
8
BLACK
6
CONTINUOUS
10
5.86437
20
-4.07657
11
5.86437
21
-4.19311
0
LINE
8
BLACK
6
CONTINUOUS
10
5.86437
20
-4.19311
11
5.86408
21
-4.19381
0
LINE
8
BLACK
6
CONTINUOUS
10
5.86408
20
-4.19381
11
5.86339
21
-4.19409
0
LINE
8
BLACK
6
CONTINUOUS
10
5.86339
20
-4.19409
11
5.80591
21
-4.19409
0
LINE
8
BLACK
6
CONTINUOUS
10
5.80591
20
-4.19409
11
5.80521
21
-4.19381
0
LINE
8
BLACK
6
CONTINUOUS
10
5.80521
20
-4.19381
11
5.80492
21
-4.19311
0
LINE
8
BLACK
6
CONTINUOUS
10
5.80492
20
-4.19311
11
5.80492
21
-4.07657
0
LINE
8
BLACK
6
CONTINUOUS
10
5.80492
20
-4.07657
11
5.80521
21
-4.07588
0
LINE
8
BLACK
6
CONTINUOUS
10
5.80521
20
-4.07588
11
5.80591
21
-4.07559
0
LINE
8
BLACK
6
CONTINUOUS
10
5.80591
20
-4.07559
11
5.86339
21
-4.07559
0
LINE
8
BLACK
6
CONTINUOUS
10
5.80689
20
-4.07756
11
5.80689
21
-4.19213
0
LINE
8
BLACK
6
CONTINUOUS
10
5.80689
20
-4.19213
11
5.8624
21
-4.19213
0
LINE
8
BLACK
6
CONTINUOUS
10
5.8624
20
-4.19213
11
5.8624
21
-4.07756
0
LINE
8
BLACK
6
CONTINUOUS
10
5.8624
20
-4.07756
11
5.80689
21
-4.07756
0
LINE
8
BLACK
6
CONTINUOUS
10
5.67603
20
-3.74772
11
5.67673
21
-3.748
0
LINE
8
BLACK
6
CONTINUOUS
10
5.67673
20
-3.748
11
5.67702
21
-3.7487
0
LINE
8
BLACK
6
CONTINUOUS
10
5.67702
20
-3.7487
11
5.67702
21
-4.15028
0
LINE
8
BLACK
6
CONTINUOUS
10
5.67702
20
-4.15028
11
5.67673
21
-4.15097
0
LINE
8
BLACK
6
CONTINUOUS
10
5.67673
20
-4.15097
11
5.67603
21
-4.15126
0
LINE
8
BLACK
6
CONTINUOUS
10
5.67603
20
-4.15126
11
5.34414
21
-4.15126
0
LINE
8
BLACK
6
CONTINUOUS
10
5.34414
20
-4.15126
11
5.34345
21
-4.15097
0
LINE
8
BLACK
6
CONTINUOUS
10
5.34345
20
-4.15097
11
5.34316
21
-4.15028
0
LINE
8
BLACK
6
CONTINUOUS
10
5.34316
20
-4.15028
11
5.34316
21
-3.7487
0
LINE
8
BLACK
6
CONTINUOUS
10
5.34316
20
-3.7487
11
5.34345
21
-3.748
0
LINE
8
BLACK
6
CONTINUOUS
10
5.34345
20
-3.748
11
5.34414
21
-3.74772
0
LINE
8
BLACK
6
CONTINUOUS
10
5.34414
20
-3.74772
11
5.67603
21
-3.74772
0
LINE
8
BLACK
6
CONTINUOUS
10
5.34513
20
-3.74969
11
5.34513
21
-4.14929
0
LINE
8
BLACK
6
CONTINUOUS
10
5.34513
20
-4.14929
11
5.67505
21
-4.14929
0
LINE
8
BLACK
6
CONTINUOUS
10
5.67505
20
-4.14929
11
5.67505
21
-3.74969
0
LINE
8
BLACK
6
CONTINUOUS
10
5.67505
20
-3.74969
11
5.34513
21
-3.74969
0
LINE
8
BLACK
6
CONTINUOUS
10
6.14173
20
-3.86122
11
6.14243
21
-3.86151
0
LINE
8
BLACK
6
CONTINUOUS
10
6.14243
20
-3.86151
11
6.14272
21
-3.8622
0
LINE
8
BLACK
6
CONTINUOUS
10
6.14272
20
-3.8622
11
6.14272
21
-4.06693
0
LINE
8
BLACK
6
CONTINUOUS
10
6.14272
20
-4.06693
11
6.14243
21
-4.06763
0
LINE
8
BLACK
6
CONTINUOUS
10
6.14243
20
-4.06763
11
6.14173
21
-4.06791
0
LINE
8
BLACK
6
CONTINUOUS
10
6.14173
20
-4.06791
11
5.93701
21
-4.06791
0
LINE
8
BLACK
6
CONTINUOUS
10
5.93701
20
-4.06791
11
5.93631
21
-4.06763
0
LINE
8
BLACK
6
CONTINUOUS
10
5.93631
20
-4.06763
11
5.93602
21
-4.06693
0
LINE
8
BLACK
6
CONTINUOUS
10
5.93602
20
-4.06693
11
5.93602
21
-3.8622
0
LINE
8
BLACK
6
CONTINUOUS
10
5.93602
20
-3.8622
11
5.93631
21
-3.86151
0
LINE
8
BLACK
6
CONTINUOUS
10
5.93631
20
-3.86151
11
5.93701
21
-3.86122
0
LINE
8
BLACK
6
CONTINUOUS
10
5.93701
20
-3.86122
11
6.14173
21
-3.86122
0
LINE
8
BLACK
6
CONTINUOUS
10
5.93799
20
-3.86319
11
5.93799
21
-4.06594
0
LINE
8
BLACK
6
CONTINUOUS
10
5.93799
20
-4.06594
11
6.14075
21
-4.06594
0
LINE
8
BLACK
6
CONTINUOUS
10
6.14075
20
-4.06594
11
6.14075
21
-3.86319
0
LINE
8
BLACK
6
CONTINUOUS
10
6.14075
20
-3.86319
11
5.93799
21
-3.86319
0
LINE
8
BLACK
6
CONTINUOUS
10
6.5
20
-3.87894
11
6.5007
21
-3.87923
0
LINE
8
BLACK
6
CONTINUOUS
10
6.5007
20
-3.87923
11
6.50098
21
-3.87992
0
LINE
8
BLACK
6
CONTINUOUS
10
6.50098
20
-3.87992
11
6.50098
21
-4.01772
0
LINE
8
BLACK
6
CONTINUOUS
10
6.50098
20
-4.01772
11
6.5007
21
-4.01841
0
LINE
8
BLACK
6
CONTINUOUS
10
6.5007
20
-4.01841
11
6.5
21
-4.0187
0
LINE
8
BLACK
6
CONTINUOUS
10
6.5
20
-4.0187
11
6.22441
21
-4.0187
0
LINE
8
BLACK
6
CONTINUOUS
10
6.22441
20
-4.0187
11
6.22371
21
-4.01841
0
LINE
8
BLACK
6
CONTINUOUS
10
6.22371
20
-4.01841
11
6.22343
21
-4.01772
0
LINE
8
BLACK
6
CONTINUOUS
10
6.22343
20
-4.01772
11
6.22343
21
-4.01772
0
LINE
8
BLACK
6
CONTINUOUS
10
6.22343
20
-4.01772
11
6.22343
21
-3.87992
0
LINE
8
BLACK
6
CONTINUOUS
10
6.22343
20
-3.87992
11
6.22371
21
-3.87923
0
LINE
8
BLACK
6
CONTINUOUS
10
6.22371
20
-3.87923
11
6.22441
21
-3.87894
0
LINE
8
BLACK
6
CONTINUOUS
10
6.22441
20
-3.87894
11
6.5
21
-3.87894
0
LINE
8
BLACK
6
CONTINUOUS
10
6.22539
20
-3.88091
11
6.22539
21
-4.01673
0
LINE
8
BLACK
6
CONTINUOUS
10
6.22539
20
-4.01673
11
6.49902
21
-4.01673
0
LINE
8
BLACK
6
CONTINUOUS
10
6.49902
20
-4.01673
11
6.49902
21
-3.88091
0
LINE
8
BLACK
6
CONTINUOUS
10
6.49902
20
-3.88091
11
6.22539
21
-3.88091
0
LINE
8
BLACK
6
CONTINUOUS
10
5.90896
20
-3.88157
11
5.90965
21
-3.88186
0
LINE
8
BLACK
6
CONTINUOUS
10
5.90965
20
-3.88186
11
5.90994
21
-3.88256
0
LINE
8
BLACK
6
CONTINUOUS
10
5.90994
20
-3.88256
11
5.90994
21
-4.01642
0
LINE
8
BLACK
6
CONTINUOUS
10
5.90994
20
-4.01642
11
5.90965
21
-4.01711
0
LINE
8
BLACK
6
CONTINUOUS
10
5.90965
20
-4.01711
11
5.90896
21
-4.0174
0
LINE
8
BLACK
6
CONTINUOUS
10
5.90896
20
-4.0174
11
5.74754
21
-4.0174
0
LINE
8
BLACK
6
CONTINUOUS
10
5.74754
20
-4.0174
11
5.74684
21
-4.01711
0
LINE
8
BLACK
6
CONTINUOUS
10
5.74684
20
-4.01711
11
5.74656
21
-4.01642
0
LINE
8
BLACK
6
CONTINUOUS
10
5.74656
20
-4.01642
11
5.74656
21
-4.01642
0
LINE
8
BLACK
6
CONTINUOUS
10
5.74656
20
-4.01642
11
5.74656
21
-3.88256
0
LINE
8
BLACK
6
CONTINUOUS
10
5.74656
20
-3.88256
11
5.74684
21
-3.88186
0
LINE
8
BLACK
6
CONTINUOUS
10
5.74684
20
-3.88186
11
5.74754
21
-3.88157
0
LINE
8
BLACK
6
CONTINUOUS
10
5.74754
20
-3.88157
11
5.90896
21
-3.88157
0
LINE
8
BLACK
6
CONTINUOUS
10
5.74852
20
-3.88354
11
5.74852
21
-4.01543
0
LINE
8
BLACK
6
CONTINUOUS
10
5.74852
20
-4.01543
11
5.90797
21
-4.01543
0
LINE
8
BLACK
6
CONTINUOUS
10
5.90797
20
-4.01543
11
5.90797
21
-3.88354
0
LINE
8
BLACK
6
CONTINUOUS
10
5.90797
20
-3.88354
11
5.74852
21
-3.88354
0
LINE
8
BLACK
6
CONTINUOUS
10
6.51933
20
-3.40138
11
6.52003
21
-3.40167
0
LINE
8
BLACK
6
CONTINUOUS
10
6.52003
20
-3.40167
11
6.52031
21
-3.40236
0
LINE
8
BLACK
6
CONTINUOUS
10
6.52031
20
-3.40236
11
6.52031
21
-3.87323
0
LINE
8
BLACK
6
CONTINUOUS
10
6.52031
20
-3.87323
11
6.52003
21
-3.87392
0
LINE
8
BLACK
6
CONTINUOUS
10
6.52003
20
-3.87392
11
6.51933
21
-3.87421
0
LINE
8
BLACK
6
CONTINUOUS
10
6.51933
20
-3.87421
11
6.26736
21
-3.87421
0
LINE
8
BLACK
6
CONTINUOUS
10
6.26736
20
-3.87421
11
6.26667
21
-3.87392
0
LINE
8
BLACK
6
CONTINUOUS
10
6.26667
20
-3.87392
11
6.26638
21
-3.87323
0
LINE
8
BLACK
6
CONTINUOUS
10
6.26638
20
-3.87323
11
6.26638
21
-3.87323
0
LINE
8
BLACK
6
CONTINUOUS
10
6.26638
20
-3.87323
11
6.26638
21
-3.40236
0
LINE
8
BLACK
6
CONTINUOUS
10
6.26638
20
-3.40236
11
6.26667
21
-3.40167
0
LINE
8
BLACK
6
CONTINUOUS
10
6.26667
20
-3.40167
11
6.26736
21
-3.40138
0
LINE
8
BLACK
6
CONTINUOUS
10
6.26736
20
-3.40138
11
6.51933
21
-3.40138
0
LINE
8
BLACK
6
CONTINUOUS
10
6.26835
20
-3.40335
11
6.26835
21
-3.87224
0
LINE
8
BLACK
6
CONTINUOUS
10
6.26835
20
-3.87224
11
6.51835
21
-3.87224
0
LINE
8
BLACK
6
CONTINUOUS
10
6.51835
20
-3.87224
11
6.51835
21
-3.40335
0
LINE
8
BLACK
6
CONTINUOUS
10
6.51835
20
-3.40335
11
6.26835
21
-3.40335
0
LINE
8
BLACK
6
CONTINUOUS
10
5.99331
20
-3.73996
11
5.994
21
-3.74025
0
LINE
8
BLACK
6
CONTINUOUS
10
5.994
20
-3.74025
11
5.99429
21
-3.74094
0
LINE
8
BLACK
6
CONTINUOUS
10
5.99429
20
-3.74094
11
5.99429
21
-3.85748
0
LINE
8
BLACK
6
CONTINUOUS
10
5.99429
20
-3.85748
11
5.994
21
-3.85818
0
LINE
8
BLACK
6
CONTINUOUS
10
5.994
20
-3.85818
11
5.99331
21
-3.85846
0
LINE
8
BLACK
6
CONTINUOUS
10
5.99331
20
-3.85846
11
5.93583
21
-3.85846
0
LINE
8
BLACK
6
CONTINUOUS
10
5.93583
20
-3.85846
11
5.93513
21
-3.85818
0
LINE
8
BLACK
6
CONTINUOUS
10
5.93513
20
-3.85818
11
5.93484
21
-3.85748
0
LINE
8
BLACK
6
CONTINUOUS
10
5.93484
20
-3.85748
11
5.93484
21
-3.74094
0
LINE
8
BLACK
6
CONTINUOUS
10
5.93484
20
-3.74094
11
5.93513
21
-3.74025
0
LINE
8
BLACK
6
CONTINUOUS
10
5.93513
20
-3.74025
11
5.93583
21
-3.73996
0
LINE
8
BLACK
6
CONTINUOUS
10
5.93583
20
-3.73996
11
5.99331
21
-3.73996
0
LINE
8
BLACK
6
CONTINUOUS
10
5.93681
20
-3.74193
11
5.93681
21
-3.8565
0
LINE
8
BLACK
6
CONTINUOUS
10
5.93681
20
-3.8565
11
5.99232
21
-3.8565
0
LINE
8
BLACK
6
CONTINUOUS
10
5.99232
20
-3.8565
11
5.99232
21
-3.74193
0
LINE
8
BLACK
6
CONTINUOUS
10
5.99232
20
-3.74193
11
5.93681
21
-3.74193
0
LINE
8
BLACK
6
CONTINUOUS
10
6.18228
20
-3.73898
11
6.18298
21
-3.73926
0
LINE
8
BLACK
6
CONTINUOUS
10
6.18298
20
-3.73926
11
6.18327
21
-3.73996
0
LINE
8
BLACK
6
CONTINUOUS
10
6.18327
20
-3.73996
11
6.18327
21
-3.8565
0
LINE
8
BLACK
6
CONTINUOUS
10
6.18327
20
-3.8565
11
6.18298
21
-3.85719
0
LINE
8
BLACK
6
CONTINUOUS
10
6.18298
20
-3.85719
11
6.18228
21
-3.85748
0
LINE
8
BLACK
6
CONTINUOUS
10
6.18228
20
-3.85748
11
6.1248
21
-3.85748
0
LINE
8
BLACK
6
CONTINUOUS
10
6.1248
20
-3.85748
11
6.12411
21
-3.85719
0
LINE
8
BLACK
6
CONTINUOUS
10
6.12411
20
-3.85719
11
6.12382
21
-3.8565
0
LINE
8
BLACK
6
CONTINUOUS
10
6.12382
20
-3.8565
11
6.12382
21
-3.73996
0
LINE
8
BLACK
6
CONTINUOUS
10
6.12382
20
-3.73996
11
6.12411
21
-3.73926
0
LINE
8
BLACK
6
CONTINUOUS
10
6.12411
20
-3.73926
11
6.1248
21
-3.73898
0
LINE
8
BLACK
6
CONTINUOUS
10
6.1248
20
-3.73898
11
6.18228
21
-3.73898
0
LINE
8
BLACK
6
CONTINUOUS
10
6.12579
20
-3.74094
11
6.12579
21
-3.85551
0
LINE
8
BLACK
6
CONTINUOUS
10
6.12579
20
-3.85551
11
6.1813
21
-3.85551
0
LINE
8
BLACK
6
CONTINUOUS
10
6.1813
20
-3.85551
11
6.1813
21
-3.74094
0
LINE
8
BLACK
6
CONTINUOUS
10
6.1813
20
-3.74094
11
6.12579
21
-3.74094
0
LINE
8
BLACK
6
CONTINUOUS
10
6.02661
20
-3.66319
11
6.02731
21
-3.66348
0
LINE
8
BLACK
6
CONTINUOUS
10
6.02731
20
-3.66348
11
6.0276
21
-3.66417
0
LINE
8
BLACK
6
CONTINUOUS
10
6.0276
20
-3.66417
11
6.0276
21
-3.71732
0
LINE
8
BLACK
6
CONTINUOUS
10
6.0276
20
-3.71732
11
6.06811
21
-3.71732
0
LINE
8
BLACK
6
CONTINUOUS
10
6.06811
20
-3.71732
11
6.06881
21
-3.71761
0
LINE
8
BLACK
6
CONTINUOUS
10
6.06881
20
-3.71761
11
6.06909
21
-3.71831
0
LINE
8
BLACK
6
CONTINUOUS
10
6.06909
20
-3.71831
11
6.06909
21
-3.83484
0
LINE
8
BLACK
6
CONTINUOUS
10
6.06909
20
-3.83484
11
6.06881
21
-3.83554
0
LINE
8
BLACK
6
CONTINUOUS
10
6.06881
20
-3.83554
11
6.06811
21
-3.83583
0
LINE
8
BLACK
6
CONTINUOUS
10
6.06811
20
-3.83583
11
6.01063
21
-3.83583
0
LINE
8
BLACK
6
CONTINUOUS
10
6.01063
20
-3.83583
11
6.00993
21
-3.83554
0
LINE
8
BLACK
6
CONTINUOUS
10
6.00993
20
-3.83554
11
6.00965
21
-3.83484
0
LINE
8
BLACK
6
CONTINUOUS
10
6.00965
20
-3.83484
11
6.00965
21
-3.72264
0
LINE
8
BLACK
6
CONTINUOUS
10
6.00965
20
-3.72264
11
5.91008
21
-3.72264
0
LINE
8
BLACK
6
CONTINUOUS
10
5.91008
20
-3.72264
11
5.90938
21
-3.72235
0
LINE
8
BLACK
6
CONTINUOUS
10
5.90938
20
-3.72235
11
5.90909
21
-3.72165
0
LINE
8
BLACK
6
CONTINUOUS
10
5.90909
20
-3.72165
11
5.90909
21
-3.66417
0
LINE
8
BLACK
6
CONTINUOUS
10
5.90909
20
-3.66417
11
5.90938
21
-3.66348
0
LINE
8
BLACK
6
CONTINUOUS
10
5.90938
20
-3.66348
11
5.91008
21
-3.66319
0
LINE
8
BLACK
6
CONTINUOUS
10
5.91008
20
-3.66319
11
6.02661
21
-3.66319
0
LINE
8
BLACK
6
CONTINUOUS
10
6.0276
20
-3.71929
11
6.0276
21
-3.72165
0
LINE
8
BLACK
6
CONTINUOUS
10
6.0276
20
-3.72165
11
6.02731
21
-3.72235
0
LINE
8
BLACK
6
CONTINUOUS
10
6.02731
20
-3.72235
11
6.02661
21
-3.72264
0
LINE
8
BLACK
6
CONTINUOUS
10
6.02661
20
-3.72264
11
6.01161
21
-3.72264
0
LINE
8
BLACK
6
CONTINUOUS
10
6.01161
20
-3.72264
11
6.01161
21
-3.83386
0
LINE
8
BLACK
6
CONTINUOUS
10
6.01161
20
-3.83386
11
6.06713
21
-3.83386
0
LINE
8
BLACK
6
CONTINUOUS
10
6.06713
20
-3.83386
11
6.06713
21
-3.71929
0
LINE
8
BLACK
6
CONTINUOUS
10
6.06713
20
-3.71929
11
6.0276
21
-3.71929
0
LINE
8
BLACK
6
CONTINUOUS
10
5.91106
20
-3.66516
11
5.91106
21
-3.72067
0
LINE
8
BLACK
6
CONTINUOUS
10
5.91106
20
-3.72067
11
6.00965
21
-3.72067
0
LINE
8
BLACK
6
CONTINUOUS
10
6.00965
20
-3.72067
11
6.00965
21
-3.71831
0
LINE
8
BLACK
6
CONTINUOUS
10
6.00965
20
-3.71831
11
6.00993
21
-3.71761
0
LINE
8
BLACK
6
CONTINUOUS
10
6.00993
20
-3.71761
11
6.01063
21
-3.71732
0
LINE
8
BLACK
6
CONTINUOUS
10
6.01063
20
-3.71732
11
6.02563
21
-3.71732
0
LINE
8
BLACK
6
CONTINUOUS
10
6.02563
20
-3.71732
11
6.02563
21
-3.66516
0
LINE
8
BLACK
6
CONTINUOUS
10
6.02563
20
-3.66516
11
5.91106
21
-3.66516
0
LINE
8
BLACK
6
CONTINUOUS
10
6.01161
20
-3.71929
11
6.01161
21
-3.72067
0
LINE
8
BLACK
6
CONTINUOUS
10
6.01161
20
-3.72067
11
6.02563
21
-3.72067
0
LINE
8
BLACK
6
CONTINUOUS
10
6.02563
20
-3.72067
11
6.02563
21
-3.71929
0
LINE
8
BLACK
6
CONTINUOUS
10
6.02563
20
-3.71929
11
6.01161
21
-3.71929
0
LINE
8
BLACK
6
CONTINUOUS
10
5.72709
20
-3.57831
11
5.72778
21
-3.5786
0
LINE
8
BLACK
6
CONTINUOUS
10
5.72778
20
-3.5786
11
5.72807
21
-3.57929
0
LINE
8
BLACK
6
CONTINUOUS
10
5.72807
20
-3.57929
11
5.72807
21
-3.69583
0
LINE
8
BLACK
6
CONTINUOUS
10
5.72807
20
-3.69583
11
5.72778
21
-3.69652
0
LINE
8
BLACK
6
CONTINUOUS
10
5.72778
20
-3.69652
11
5.72709
21
-3.69681
0
LINE
8
BLACK
6
CONTINUOUS
10
5.72709
20
-3.69681
11
5.66961
21
-3.69681
0
LINE
8
BLACK
6
CONTINUOUS
10
5.66961
20
-3.69681
11
5.66891
21
-3.69652
0
LINE
8
BLACK
6
CONTINUOUS
10
5.66891
20
-3.69652
11
5.66862
21
-3.69583
0
LINE
8
BLACK
6
CONTINUOUS
10
5.66862
20
-3.69583
11
5.66862
21
-3.57929
0
LINE
8
BLACK
6
CONTINUOUS
10
5.66862
20
-3.57929
11
5.66891
21
-3.5786
0
LINE
8
BLACK
6
CONTINUOUS
10
5.66891
20
-3.5786
11
5.66961
21
-3.57831
0
LINE
8
BLACK
6
CONTINUOUS
10
5.66961
20
-3.57831
11
5.72709
21
-3.57831
0
LINE
8
BLACK
6
CONTINUOUS
10
5.67059
20
-3.58028
11
5.67059
21
-3.69484
0
LINE
8
BLACK
6
CONTINUOUS
10
5.67059
20
-3.69484
11
5.7261
21
-3.69484
0
LINE
8
BLACK
6
CONTINUOUS
10
5.7261
20
-3.69484
11
5.7261
21
-3.58028
0
LINE
8
BLACK
6
CONTINUOUS
10
5.7261
20
-3.58028
11
5.67059
21
-3.58028
0
LINE
8
BLACK
6
CONTINUOUS
10
5.53209
20
-3.57827
11
5.53278
21
-3.57856
0
LINE
8
BLACK
6
CONTINUOUS
10
5.53278
20
-3.57856
11
5.53307
21
-3.57925
0
LINE
8
BLACK
6
CONTINUOUS
10
5.53307
20
-3.57925
11
5.53307
21
-3.69579
0
LINE
8
BLACK
6
CONTINUOUS
10
5.53307
20
-3.69579
11
5.53278
21
-3.69648
0
LINE
8
BLACK
6
CONTINUOUS
10
5.53278
20
-3.69648
11
5.53209
21
-3.69677
0
LINE
8
BLACK
6
CONTINUOUS
10
5.53209
20
-3.69677
11
5.47461
21
-3.69677
0
LINE
8
BLACK
6
CONTINUOUS
10
5.47461
20
-3.69677
11
5.47391
21
-3.69648
0
LINE
8
BLACK
6
CONTINUOUS
10
5.47391
20
-3.69648
11
5.47362
21
-3.69579
0
LINE
8
BLACK
6
CONTINUOUS
10
5.47362
20
-3.69579
11
5.47362
21
-3.57925
0
LINE
8
BLACK
6
CONTINUOUS
10
5.47362
20
-3.57925
11
5.47391
21
-3.57856
0
LINE
8
BLACK
6
CONTINUOUS
10
5.47391
20
-3.57856
11
5.47461
21
-3.57827
0
LINE
8
BLACK
6
CONTINUOUS
10
5.47461
20
-3.57827
11
5.53209
21
-3.57827
0
LINE
8
BLACK
6
CONTINUOUS
10
5.47559
20
-3.58024
11
5.47559
21
-3.6948
0
LINE
8
BLACK
6
CONTINUOUS
10
5.47559
20
-3.6948
11
5.5311
21
-3.6948
0
LINE
8
BLACK
6
CONTINUOUS
10
5.5311
20
-3.6948
11
5.5311
21
-3.58024
0
LINE
8
BLACK
6
CONTINUOUS
10
5.5311
20
-3.58024
11
5.47559
21
-3.58024
0
LINE
8
BLACK
6
CONTINUOUS
10
5.61709
20
-3.57827
11
5.61778
21
-3.57856
0
LINE
8
BLACK
6
CONTINUOUS
10
5.61778
20
-3.57856
11
5.61807
21
-3.57925
0
LINE
8
BLACK
6
CONTINUOUS
10
5.61807
20
-3.57925
11
5.61807
21
-3.69579
0
LINE
8
BLACK
6
CONTINUOUS
10
5.61807
20
-3.69579
11
5.61778
21
-3.69648
0
LINE
8
BLACK
6
CONTINUOUS
10
5.61778
20
-3.69648
11
5.61709
21
-3.69677
0
LINE
8
BLACK
6
CONTINUOUS
10
5.61709
20
-3.69677
11
5.55961
21
-3.69677
0
LINE
8
BLACK
6
CONTINUOUS
10
5.55961
20
-3.69677
11
5.55891
21
-3.69648
0
LINE
8
BLACK
6
CONTINUOUS
10
5.55891
20
-3.69648
11
5.55862
21
-3.69579
0
LINE
8
BLACK
6
CONTINUOUS
10
5.55862
20
-3.69579
11
5.55862
21
-3.57925
0
LINE
8
BLACK
6
CONTINUOUS
10
5.55862
20
-3.57925
11
5.55891
21
-3.57856
0
LINE
8
BLACK
6
CONTINUOUS
10
5.55891
20
-3.57856
11
5.55961
21
-3.57827
0
LINE
8
BLACK
6
CONTINUOUS
10
5.55961
20
-3.57827
11
5.61709
21
-3.57827
0
LINE
8
BLACK
6
CONTINUOUS
10
5.56059
20
-3.58024
11
5.56059
21
-3.6948
0
LINE
8
BLACK
6
CONTINUOUS
10
5.56059
20
-3.6948
11
5.6161
21
-3.6948
0
LINE
8
BLACK
6
CONTINUOUS
10
5.6161
20
-3.6948
11
5.6161
21
-3.58024
0
LINE
8
BLACK
6
CONTINUOUS
10
5.6161
20
-3.58024
11
5.56059
21
-3.58024
0
LINE
8
BLACK
6
CONTINUOUS
10
5.83209
20
-3.57827
11
5.83278
21
-3.57856
0
LINE
8
BLACK
6
CONTINUOUS
10
5.83278
20
-3.57856
11
5.83307
21
-3.57925
0
LINE
8
BLACK
6
CONTINUOUS
10
5.83307
20
-3.57925
11
5.83307
21
-3.69579
0
LINE
8
BLACK
6
CONTINUOUS
10
5.83307
20
-3.69579
11
5.83278
21
-3.69648
0
LINE
8
BLACK
6
CONTINUOUS
10
5.83278
20
-3.69648
11
5.83209
21
-3.69677
0
LINE
8
BLACK
6
CONTINUOUS
10
5.83209
20
-3.69677
11
5.77461
21
-3.69677
0
LINE
8
BLACK
6
CONTINUOUS
10
5.77461
20
-3.69677
11
5.77391
21
-3.69648
0
LINE
8
BLACK
6
CONTINUOUS
10
5.77391
20
-3.69648
11
5.77362
21
-3.69579
0
LINE
8
BLACK
6
CONTINUOUS
10
5.77362
20
-3.69579
11
5.77362
21
-3.57925
0
LINE
8
BLACK
6
CONTINUOUS
10
5.77362
20
-3.57925
11
5.77391
21
-3.57856
0
LINE
8
BLACK
6
CONTINUOUS
10
5.77391
20
-3.57856
11
5.77461
21
-3.57827
0
LINE
8
BLACK
6
CONTINUOUS
10
5.77461
20
-3.57827
11
5.83209
21
-3.57827
0
LINE
8
BLACK
6
CONTINUOUS
10
5.77559
20
-3.58024
11
5.77559
21
-3.6948
0
LINE
8
BLACK
6
CONTINUOUS
10
5.77559
20
-3.6948
11
5.8311
21
-3.6948
0
LINE
8
BLACK
6
CONTINUOUS
10
5.8311
20
-3.6948
11
5.8311
21
-3.58024
0
LINE
8
BLACK
6
CONTINUOUS
10
5.8311
20
-3.58024
11
5.77559
21
-3.58024
0
LINE
8
BLACK
6
CONTINUOUS
10
6.02661
20
-3.60031
11
6.02731
21
-3.6006
0
LINE
8
BLACK
6
CONTINUOUS
10
6.02731
20
-3.6006
11
6.0276
21
-3.6013
0
LINE
8
BLACK
6
CONTINUOUS
10
6.0276
20
-3.6013
11
6.0276
21
-3.65878
0
LINE
8
BLACK
6
CONTINUOUS
10
6.0276
20
-3.65878
11
6.02731
21
-3.65948
0
LINE
8
BLACK
6
CONTINUOUS
10
6.02731
20
-3.65948
11
6.02661
21
-3.65976
0
LINE
8
BLACK
6
CONTINUOUS
10
6.02661
20
-3.65976
11
5.91008
21
-3.65976
0
LINE
8
BLACK
6
CONTINUOUS
10
5.91008
20
-3.65976
11
5.90938
21
-3.65948
0
LINE
8
BLACK
6
CONTINUOUS
10
5.90938
20
-3.65948
11
5.90909
21
-3.65878
0
LINE
8
BLACK
6
CONTINUOUS
10
5.90909
20
-3.65878
11
5.90909
21
-3.6013
0
LINE
8
BLACK
6
CONTINUOUS
10
5.90909
20
-3.6013
11
5.90938
21
-3.6006
0
LINE
8
BLACK
6
CONTINUOUS
10
5.90938
20
-3.6006
11
5.91008
21
-3.60031
0
LINE
8
BLACK
6
CONTINUOUS
10
5.91008
20
-3.60031
11
6.02661
21
-3.60031
0
LINE
8
BLACK
6
CONTINUOUS
10
5.91106
20
-3.60228
11
5.91106
21
-3.6578
0
LINE
8
BLACK
6
CONTINUOUS
10
5.91106
20
-3.6578
11
6.02563
21
-3.6578
0
LINE
8
BLACK
6
CONTINUOUS
10
6.02563
20
-3.6578
11
6.02563
21
-3.60228
0
LINE
8
BLACK
6
CONTINUOUS
10
6.02563
20
-3.60228
11
5.91106
21
-3.60228
0
LINE
8
BLACK
6
CONTINUOUS
10
6.18278
20
-3.48524
11
6.18347
21
-3.48552
0
LINE
8
BLACK
6
CONTINUOUS
10
6.18347
20
-3.48552
11
6.18376
21
-3.48622
0
LINE
8
BLACK
6
CONTINUOUS
10
6.18376
20
-3.48622
11
6.18376
21
-3.56102
0
LINE
8
BLACK
6
CONTINUOUS
10
6.18376
20
-3.56102
11
6.18347
21
-3.56172
0
LINE
8
BLACK
6
CONTINUOUS
10
6.18347
20
-3.56172
11
6.18278
21
-3.56201
0
LINE
8
BLACK
6
CONTINUOUS
10
6.18278
20
-3.56201
11
6.16901
21
-3.56201
0
LINE
8
BLACK
6
CONTINUOUS
10
6.16901
20
-3.56201
11
6.17077
21
-3.56283
0
LINE
8
BLACK
6
CONTINUOUS
10
6.17077
20
-3.56283
11
6.17794
21
-3.56785
0
LINE
8
BLACK
6
CONTINUOUS
10
6.17794
20
-3.56785
11
6.18412
21
-3.57403
0
LINE
8
BLACK
6
CONTINUOUS
10
6.18412
20
-3.57403
11
6.18914
21
-3.5812
0
LINE
8
BLACK
6
CONTINUOUS
10
6.18914
20
-3.5812
11
6.19284
21
-3.58913
0
LINE
8
BLACK
6
CONTINUOUS
10
6.19284
20
-3.58913
11
6.1951
21
-3.59758
0
LINE
8
BLACK
6
CONTINUOUS
10
6.1951
20
-3.59758
11
6.19587
21
-3.6063
0
LINE
8
BLACK
6
CONTINUOUS
10
6.19587
20
-3.6063
11
6.1951
21
-3.61502
0
LINE
8
BLACK
6
CONTINUOUS
10
6.1951
20
-3.61502
11
6.19284
21
-3.62347
0
LINE
8
BLACK
6
CONTINUOUS
10
6.19284
20
-3.62347
11
6.18914
21
-3.6314
0
LINE
8
BLACK
6
CONTINUOUS
10
6.18914
20
-3.6314
11
6.18412
21
-3.63857
0
LINE
8
BLACK
6
CONTINUOUS
10
6.18412
20
-3.63857
11
6.17794
21
-3.64475
0
LINE
8
BLACK
6
CONTINUOUS
10
6.17794
20
-3.64475
11
6.17077
21
-3.64977
0
LINE
8
BLACK
6
CONTINUOUS
10
6.17077
20
-3.64977
11
6.16284
21
-3.65347
0
LINE
8
BLACK
6
CONTINUOUS
10
6.16284
20
-3.65347
11
6.15439
21
-3.65573
0
LINE
8
BLACK
6
CONTINUOUS
10
6.15439
20
-3.65573
11
6.14567
21
-3.6565
0
LINE
8
BLACK
6
CONTINUOUS
10
6.14567
20
-3.6565
11
6.13695
21
-3.65573
0
LINE
8
BLACK
6
CONTINUOUS
10
6.13695
20
-3.65573
11
6.1285
21
-3.65347
0
LINE
8
BLACK
6
CONTINUOUS
10
6.1285
20
-3.65347
11
6.12057
21
-3.64977
0
LINE
8
BLACK
6
CONTINUOUS
10
6.12057
20
-3.64977
11
6.1134
21
-3.64475
0
LINE
8
BLACK
6
CONTINUOUS
10
6.1134
20
-3.64475
11
6.10722
21
-3.63857
0
LINE
8
BLACK
6
CONTINUOUS
10
6.10722
20
-3.63857
11
6.1022
21
-3.6314
0
LINE
8
BLACK
6
CONTINUOUS
10
6.1022
20
-3.6314
11
6.0985
21
-3.62347
0
LINE
8
BLACK
6
CONTINUOUS
10
6.0985
20
-3.62347
11
6.09624
21
-3.61502
0
LINE
8
BLACK
6
CONTINUOUS
10
6.09624
20
-3.61502
11
6.09547
21
-3.6063
0
LINE
8
BLACK
6
CONTINUOUS
10
6.09547
20
-3.6063
11
6.09624
21
-3.59758
0
LINE
8
BLACK
6
CONTINUOUS
10
6.09624
20
-3.59758
11
6.0985
21
-3.58913
0
LINE
8
BLACK
6
CONTINUOUS
10
6.0985
20
-3.58913
11
6.1022
21
-3.5812
0
LINE
8
BLACK
6
CONTINUOUS
10
6.1022
20
-3.5812
11
6.10722
21
-3.57403
0
LINE
8
BLACK
6
CONTINUOUS
10
6.10722
20
-3.57403
11
6.1134
21
-3.56785
0
LINE
8
BLACK
6
CONTINUOUS
10
6.1134
20
-3.56785
11
6.12057
21
-3.56283
0
LINE
8
BLACK
6
CONTINUOUS
10
6.12057
20
-3.56283
11
6.12233
21
-3.56201
0
LINE
8
BLACK
6
CONTINUOUS
10
6.12233
20
-3.56201
11
6.05049
21
-3.56201
0
LINE
8
BLACK
6
CONTINUOUS
10
6.05049
20
-3.56201
11
6.0498
21
-3.56172
0
LINE
8
BLACK
6
CONTINUOUS
10
6.0498
20
-3.56172
11
6.04951
21
-3.56102
0
LINE
8
BLACK
6
CONTINUOUS
10
6.04951
20
-3.56102
11
6.04951
21
-3.48622
0
LINE
8
BLACK
6
CONTINUOUS
10
6.04951
20
-3.48622
11
6.0498
21
-3.48552
0
LINE
8
BLACK
6
CONTINUOUS
10
6.0498
20
-3.48552
11
6.05049
21
-3.48524
0
LINE
8
BLACK
6
CONTINUOUS
10
6.05049
20
-3.48524
11
6.18278
21
-3.48524
0
LINE
8
BLACK
6
CONTINUOUS
10
6.05148
20
-3.4872
11
6.05148
21
-3.56004
0
LINE
8
BLACK
6
CONTINUOUS
10
6.05148
20
-3.56004
11
6.12655
21
-3.56004
0
LINE
8
BLACK
6
CONTINUOUS
10
6.12655
20
-3.56004
11
6.1285
21
-3.55913
0
LINE
8
BLACK
6
CONTINUOUS
10
6.1285
20
-3.55913
11
6.13695
21
-3.55686
0
LINE
8
BLACK
6
CONTINUOUS
10
6.13695
20
-3.55686
11
6.14567
21
-3.5561
0
LINE
8
BLACK
6
CONTINUOUS
10
6.14567
20
-3.5561
11
6.15439
21
-3.55686
0
LINE
8
BLACK
6
CONTINUOUS
10
6.15439
20
-3.55686
11
6.16284
21
-3.55913
0
LINE
8
BLACK
6
CONTINUOUS
10
6.16284
20
-3.55913
11
6.16479
21
-3.56004
0
LINE
8
BLACK
6
CONTINUOUS
10
6.16479
20
-3.56004
11
6.18179
21
-3.56004
0
LINE
8
BLACK
6
CONTINUOUS
10
6.18179
20
-3.56004
11
6.18179
21
-3.4872
0
LINE
8
BLACK
6
CONTINUOUS
10
6.18179
20
-3.4872
11
6.05148
21
-3.4872
0
LINE
8
BLACK
6
CONTINUOUS
10
6.13726
20
-3.55862
11
6.13197
21
-3.56004
0
LINE
8
BLACK
6
CONTINUOUS
10
6.13197
20
-3.56004
11
6.15937
21
-3.56004
0
LINE
8
BLACK
6
CONTINUOUS
10
6.15937
20
-3.56004
11
6.15408
21
-3.55862
0
LINE
8
BLACK
6
CONTINUOUS
10
6.15408
20
-3.55862
11
6.14567
21
-3.55789
0
LINE
8
BLACK
6
CONTINUOUS
10
6.14567
20
-3.55789
11
6.13726
21
-3.55862
0
LINE
8
BLACK
6
CONTINUOUS
10
6.09799
20
-3.61471
11
6.10018
21
-3.62286
0
LINE
8
BLACK
6
CONTINUOUS
10
6.10018
20
-3.62286
11
6.10374
21
-3.63051
0
LINE
8
BLACK
6
CONTINUOUS
10
6.10374
20
-3.63051
11
6.10858
21
-3.63742
0
LINE
8
BLACK
6
CONTINUOUS
10
6.10858
20
-3.63742
11
6.11455
21
-3.64339
0
LINE
8
BLACK
6
CONTINUOUS
10
6.11455
20
-3.64339
11
6.12146
21
-3.64823
0
LINE
8
BLACK
6
CONTINUOUS
10
6.12146
20
-3.64823
11
6.12911
21
-3.65179
0
LINE
8
BLACK
6
CONTINUOUS
10
6.12911
20
-3.65179
11
6.13726
21
-3.65398
0
LINE
8
BLACK
6
CONTINUOUS
10
6.13726
20
-3.65398
11
6.14567
21
-3.65471
0
LINE
8
BLACK
6
CONTINUOUS
10
6.14567
20
-3.65471
11
6.15408
21
-3.65398
0
LINE
8
BLACK
6
CONTINUOUS
10
6.15408
20
-3.65398
11
6.16223
21
-3.65179
0
LINE
8
BLACK
6
CONTINUOUS
10
6.16223
20
-3.65179
11
6.16988
21
-3.64823
0
LINE
8
BLACK
6
CONTINUOUS
10
6.16988
20
-3.64823
11
6.17679
21
-3.64339
0
LINE
8
BLACK
6
CONTINUOUS
10
6.17679
20
-3.64339
11
6.18276
21
-3.63742
0
LINE
8
BLACK
6
CONTINUOUS
10
6.18276
20
-3.63742
11
6.1876
21
-3.63051
0
LINE
8
BLACK
6
CONTINUOUS
10
6.1876
20
-3.63051
11
6.19116
21
-3.62286
0
LINE
8
BLACK
6
CONTINUOUS
10
6.19116
20
-3.62286
11
6.19335
21
-3.61471
0
LINE
8
BLACK
6
CONTINUOUS
10
6.19335
20
-3.61471
11
6.19408
21
-3.6063
0
LINE
8
BLACK
6
CONTINUOUS
10
6.19408
20
-3.6063
11
6.19335
21
-3.59789
0
LINE
8
BLACK
6
CONTINUOUS
10
6.19335
20
-3.59789
11
6.19116
21
-3.58974
0
LINE
8
BLACK
6
CONTINUOUS
10
6.19116
20
-3.58974
11
6.1876
21
-3.58209
0
LINE
8
BLACK
6
CONTINUOUS
10
6.1876
20
-3.58209
11
6.18276
21
-3.57518
0
LINE
8
BLACK
6
CONTINUOUS
10
6.18276
20
-3.57518
11
6.17679
21
-3.56921
0
LINE
8
BLACK
6
CONTINUOUS
10
6.17679
20
-3.56921
11
6.16988
21
-3.56437
0
LINE
8
BLACK
6
CONTINUOUS
10
6.16988
20
-3.56437
11
6.1648
21
-3.56201
0
LINE
8
BLACK
6
CONTINUOUS
10
6.1648
20
-3.56201
11
6.12653
21
-3.56201
0
LINE
8
BLACK
6
CONTINUOUS
10
6.12653
20
-3.56201
11
6.12146
21
-3.56437
0
LINE
8
BLACK
6
CONTINUOUS
10
6.12146
20
-3.56437
11
6.11455
21
-3.56921
0
LINE
8
BLACK
6
CONTINUOUS
10
6.11455
20
-3.56921
11
6.10858
21
-3.57518
0
LINE
8
BLACK
6
CONTINUOUS
10
6.10858
20
-3.57518
11
6.10374
21
-3.58209
0
LINE
8
BLACK
6
CONTINUOUS
10
6.10374
20
-3.58209
11
6.10018
21
-3.58974
0
LINE
8
BLACK
6
CONTINUOUS
10
6.10018
20
-3.58974
11
6.09799
21
-3.59789
0
LINE
8
BLACK
6
CONTINUOUS
10
6.09799
20
-3.59789
11
6.09726
21
-3.6063
0
LINE
8
BLACK
6
CONTINUOUS
10
6.09726
20
-3.6063
11
6.09799
21
-3.61471
0
LINE
8
BLACK
6
CONTINUOUS
10
5.56394
20
-3.4178
11
5.56463
21
-3.41808
0
LINE
8
BLACK
6
CONTINUOUS
10
5.56463
20
-3.41808
11
5.56492
21
-3.41878
0
LINE
8
BLACK
6
CONTINUOUS
10
5.56492
20
-3.41878
11
5.56492
21
-3.53531
0
LINE
8
BLACK
6
CONTINUOUS
10
5.56492
20
-3.53531
11
5.56463
21
-3.53601
0
LINE
8
BLACK
6
CONTINUOUS
10
5.56463
20
-3.53601
11
5.56394
21
-3.5363
0
LINE
8
BLACK
6
CONTINUOUS
10
5.56394
20
-3.5363
11
5.50646
21
-3.5363
0
LINE
8
BLACK
6
CONTINUOUS
10
5.50646
20
-3.5363
11
5.50576
21
-3.53601
0
LINE
8
BLACK
6
CONTINUOUS
10
5.50576
20
-3.53601
11
5.50547
21
-3.53531
0
LINE
8
BLACK
6
CONTINUOUS
10
5.50547
20
-3.53531
11
5.50547
21
-3.41878
0
LINE
8
BLACK
6
CONTINUOUS
10
5.50547
20
-3.41878
11
5.50576
21
-3.41808
0
LINE
8
BLACK
6
CONTINUOUS
10
5.50576
20
-3.41808
11
5.50646
21
-3.4178
0
LINE
8
BLACK
6
CONTINUOUS
10
5.50646
20
-3.4178
11
5.56394
21
-3.4178
0
LINE
8
BLACK
6
CONTINUOUS
10
5.50744
20
-3.41976
11
5.50744
21
-3.53433
0
LINE
8
BLACK
6
CONTINUOUS
10
5.50744
20
-3.53433
11
5.56295
21
-3.53433
0
LINE
8
BLACK
6
CONTINUOUS
10
5.56295
20
-3.53433
11
5.56295
21
-3.41976
0
LINE
8
BLACK
6
CONTINUOUS
10
5.56295
20
-3.41976
11
5.50744
21
-3.41976
0
LINE
8
BLACK
6
CONTINUOUS
10
5.68205
20
-3.4178
11
5.68274
21
-3.41808
0
LINE
8
BLACK
6
CONTINUOUS
10
5.68274
20
-3.41808
11
5.68303
21
-3.41878
0
LINE
8
BLACK
6
CONTINUOUS
10
5.68303
20
-3.41878
11
5.68303
21
-3.53531
0
LINE
8
BLACK
6
CONTINUOUS
10
5.68303
20
-3.53531
11
5.68274
21
-3.53601
0
LINE
8
BLACK
6
CONTINUOUS
10
5.68274
20
-3.53601
11
5.68205
21
-3.5363
0
LINE
8
BLACK
6
CONTINUOUS
10
5.68205
20
-3.5363
11
5.62457
21
-3.5363
0
LINE
8
BLACK
6
CONTINUOUS
10
5.62457
20
-3.5363
11
5.62387
21
-3.53601
0
LINE
8
BLACK
6
CONTINUOUS
10
5.62387
20
-3.53601
11
5.62358
21
-3.53531
0
LINE
8
BLACK
6
CONTINUOUS
10
5.62358
20
-3.53531
11
5.62358
21
-3.41878
0
LINE
8
BLACK
6
CONTINUOUS
10
5.62358
20
-3.41878
11
5.62387
21
-3.41808
0
LINE
8
BLACK
6
CONTINUOUS
10
5.62387
20
-3.41808
11
5.62457
21
-3.4178
0
LINE
8
BLACK
6
CONTINUOUS
10
5.62457
20
-3.4178
11
5.68205
21
-3.4178
0
LINE
8
BLACK
6
CONTINUOUS
10
5.62555
20
-3.41976
11
5.62555
21
-3.53433
0
LINE
8
BLACK
6
CONTINUOUS
10
5.62555
20
-3.53433
11
5.68106
21
-3.53433
0
LINE
8
BLACK
6
CONTINUOUS
10
5.68106
20
-3.53433
11
5.68106
21
-3.41976
0
LINE
8
BLACK
6
CONTINUOUS
10
5.68106
20
-3.41976
11
5.62555
21
-3.41976
  0
ENDSEC
  0
EOF
