  0
SECTION
  2
HEADER
  9
$ANGBASE
  50
0.0
  9
$ANGDIR
  70
1
  9
$MEASUREMENT
  70
0
  0
ENDSEC
  0
SECTION
  2
TABLES
  0
TABLE
  2
LTYPE
  70
4
  0
LTYPE
  5
40F
  2
CONTINUOUS
  70
0
  3
Solid line
  72
65
  73
0
  40
0.0
  0
LTYPE
  5
410
  2
DASHDOT
 70
0
  3
Dash Dot ____ _ ____ _
 72
65
 73
4
 40
2.0
 49
1.25
 49
-0.25
 49
0.25
 49
-0.25
  0
LTYPE
  5
411
  2
DASHED
 70
0
  3
Dashed __ __ __ __ __
 72
65
 73
2
 40
0.75
 49
0.5
 49
-0.25
  0
LTYPE
  5
43B
  2
DOTTED
 70
0
  3
Dotted .  .  .  .
 72
65
 73
2
 40
0.2
 49
0.0
 49
-0.2
  0
ENDTAB
  0
TABLE
  2
STYLE
  70
4
  0
STYLE
  2
KICAD
  70
0
  40
0
  41
1
  42
1
  50
0
  71
0
  3
isocp.shx
  0
STYLE
  2
KICADB
  70
0
  40
0
  41
1
  42
1
  50
0
  71
0
  3
isocp.shx
  0
STYLE
  2
KICADI
  70
0
  40
0
  41
1
  42
1
  50
15
  71
0
  3
isocp.shx
  0
STYLE
  2
KICADBI
  70
0
  40
0
  41
1
  42
1
  50
15
  71
0
  3
isocp.shx
  0
ENDTAB
  0
TABLE
  2
LAYER
  70
1
  0
LAYER
  2
BLACK
  70
0
  62
7
  6
CONTINUOUS
  0
ENDTAB
  0
ENDSEC
  0
SECTION
  2
ENTITIES
0
LINE
8
BLACK
6
CONTINUOUS
10
5.45127
20
-4.48279
11
5.46049
21
-4.48596
0
LINE
8
BLACK
6
CONTINUOUS
10
5.46049
20
-4.48596
11
5.46907
21
-4.4906
0
LINE
8
BLACK
6
CONTINUOUS
10
5.46907
20
-4.4906
11
5.47677
21
-4.49659
0
LINE
8
BLACK
6
CONTINUOUS
10
5.47677
20
-4.49659
11
5.48337
21
-4.50377
0
LINE
8
BLACK
6
CONTINUOUS
10
5.48337
20
-4.50377
11
5.48871
21
-4.51193
0
LINE
8
BLACK
6
CONTINUOUS
10
5.48871
20
-4.51193
11
5.49263
21
-4.52086
0
LINE
8
BLACK
6
CONTINUOUS
10
5.49263
20
-4.52086
11
5.49502
21
-4.53032
0
LINE
8
BLACK
6
CONTINUOUS
10
5.49502
20
-4.53032
11
5.49583
21
-4.54004
0
LINE
8
BLACK
6
CONTINUOUS
10
5.49583
20
-4.54004
11
5.49502
21
-4.54976
0
LINE
8
BLACK
6
CONTINUOUS
10
5.49502
20
-4.54976
11
5.49263
21
-4.55921
0
LINE
8
BLACK
6
CONTINUOUS
10
5.49263
20
-4.55921
11
5.48871
21
-4.56815
0
LINE
8
BLACK
6
CONTINUOUS
10
5.48871
20
-4.56815
11
5.48337
21
-4.57631
0
LINE
8
BLACK
6
CONTINUOUS
10
5.48337
20
-4.57631
11
5.47677
21
-4.58349
0
LINE
8
BLACK
6
CONTINUOUS
10
5.47677
20
-4.58349
11
5.46907
21
-4.58948
0
LINE
8
BLACK
6
CONTINUOUS
10
5.46907
20
-4.58948
11
5.46049
21
-4.59412
0
LINE
8
BLACK
6
CONTINUOUS
10
5.46049
20
-4.59412
11
5.45127
21
-4.59729
0
LINE
8
BLACK
6
CONTINUOUS
10
5.45127
20
-4.59729
11
5.44165
21
-4.59889
0
LINE
8
BLACK
6
CONTINUOUS
10
5.44165
20
-4.59889
11
5.43189
21
-4.59889
0
LINE
8
BLACK
6
CONTINUOUS
10
5.43189
20
-4.59889
11
5.42227
21
-4.59729
0
LINE
8
BLACK
6
CONTINUOUS
10
5.42227
20
-4.59729
11
5.41305
21
-4.59412
0
LINE
8
BLACK
6
CONTINUOUS
10
5.41305
20
-4.59412
11
5.40447
21
-4.58948
0
LINE
8
BLACK
6
CONTINUOUS
10
5.40447
20
-4.58948
11
5.39677
21
-4.58349
0
LINE
8
BLACK
6
CONTINUOUS
10
5.39677
20
-4.58349
11
5.39017
21
-4.57631
0
LINE
8
BLACK
6
CONTINUOUS
10
5.39017
20
-4.57631
11
5.38483
21
-4.56815
0
LINE
8
BLACK
6
CONTINUOUS
10
5.38483
20
-4.56815
11
5.38092
21
-4.55921
0
LINE
8
BLACK
6
CONTINUOUS
10
5.38092
20
-4.55921
11
5.37852
21
-4.54976
0
LINE
8
BLACK
6
CONTINUOUS
10
5.37852
20
-4.54976
11
5.37772
21
-4.54004
0
LINE
8
BLACK
6
CONTINUOUS
10
5.37772
20
-4.54004
11
5.37852
21
-4.53032
0
LINE
8
BLACK
6
CONTINUOUS
10
5.37852
20
-4.53032
11
5.38092
21
-4.52086
0
LINE
8
BLACK
6
CONTINUOUS
10
5.38092
20
-4.52086
11
5.38483
21
-4.51193
0
LINE
8
BLACK
6
CONTINUOUS
10
5.38483
20
-4.51193
11
5.39017
21
-4.50377
0
LINE
8
BLACK
6
CONTINUOUS
10
5.39017
20
-4.50377
11
5.39677
21
-4.49659
0
LINE
8
BLACK
6
CONTINUOUS
10
5.39677
20
-4.49659
11
5.40447
21
-4.4906
0
LINE
8
BLACK
6
CONTINUOUS
10
5.40447
20
-4.4906
11
5.41305
21
-4.48596
0
LINE
8
BLACK
6
CONTINUOUS
10
5.41305
20
-4.48596
11
5.42227
21
-4.48279
0
LINE
8
BLACK
6
CONTINUOUS
10
5.42227
20
-4.48279
11
5.43189
21
-4.48119
0
LINE
8
BLACK
6
CONTINUOUS
10
5.43189
20
-4.48119
11
5.44165
21
-4.48119
0
LINE
8
BLACK
6
CONTINUOUS
10
5.44165
20
-4.48119
11
5.45127
21
-4.48279
0
LINE
8
BLACK
6
CONTINUOUS
10
5.84497
20
-4.48279
11
5.85419
21
-4.48596
0
LINE
8
BLACK
6
CONTINUOUS
10
5.85419
20
-4.48596
11
5.86277
21
-4.4906
0
LINE
8
BLACK
6
CONTINUOUS
10
5.86277
20
-4.4906
11
5.87047
21
-4.49659
0
LINE
8
BLACK
6
CONTINUOUS
10
5.87047
20
-4.49659
11
5.87708
21
-4.50377
0
LINE
8
BLACK
6
CONTINUOUS
10
5.87708
20
-4.50377
11
5.88241
21
-4.51193
0
LINE
8
BLACK
6
CONTINUOUS
10
5.88241
20
-4.51193
11
5.88633
21
-4.52086
0
LINE
8
BLACK
6
CONTINUOUS
10
5.88633
20
-4.52086
11
5.88872
21
-4.53032
0
LINE
8
BLACK
6
CONTINUOUS
10
5.88872
20
-4.53032
11
5.88953
21
-4.54004
0
LINE
8
BLACK
6
CONTINUOUS
10
5.88953
20
-4.54004
11
5.88872
21
-4.54976
0
LINE
8
BLACK
6
CONTINUOUS
10
5.88872
20
-4.54976
11
5.88633
21
-4.55921
0
LINE
8
BLACK
6
CONTINUOUS
10
5.88633
20
-4.55921
11
5.88241
21
-4.56815
0
LINE
8
BLACK
6
CONTINUOUS
10
5.88241
20
-4.56815
11
5.87708
21
-4.57631
0
LINE
8
BLACK
6
CONTINUOUS
10
5.87708
20
-4.57631
11
5.87047
21
-4.58349
0
LINE
8
BLACK
6
CONTINUOUS
10
5.87047
20
-4.58349
11
5.86277
21
-4.58948
0
LINE
8
BLACK
6
CONTINUOUS
10
5.86277
20
-4.58948
11
5.85419
21
-4.59412
0
LINE
8
BLACK
6
CONTINUOUS
10
5.85419
20
-4.59412
11
5.84497
21
-4.59729
0
LINE
8
BLACK
6
CONTINUOUS
10
5.84497
20
-4.59729
11
5.83535
21
-4.59889
0
LINE
8
BLACK
6
CONTINUOUS
10
5.83535
20
-4.59889
11
5.8256
21
-4.59889
0
LINE
8
BLACK
6
CONTINUOUS
10
5.8256
20
-4.59889
11
5.81598
21
-4.59729
0
LINE
8
BLACK
6
CONTINUOUS
10
5.81598
20
-4.59729
11
5.80675
21
-4.59412
0
LINE
8
BLACK
6
CONTINUOUS
10
5.80675
20
-4.59412
11
5.79817
21
-4.58948
0
LINE
8
BLACK
6
CONTINUOUS
10
5.79817
20
-4.58948
11
5.79048
21
-4.58349
0
LINE
8
BLACK
6
CONTINUOUS
10
5.79048
20
-4.58349
11
5.78387
21
-4.57631
0
LINE
8
BLACK
6
CONTINUOUS
10
5.78387
20
-4.57631
11
5.77853
21
-4.56815
0
LINE
8
BLACK
6
CONTINUOUS
10
5.77853
20
-4.56815
11
5.77462
21
-4.55921
0
LINE
8
BLACK
6
CONTINUOUS
10
5.77462
20
-4.55921
11
5.77222
21
-4.54976
0
LINE
8
BLACK
6
CONTINUOUS
10
5.77222
20
-4.54976
11
5.77142
21
-4.54004
0
LINE
8
BLACK
6
CONTINUOUS
10
5.77142
20
-4.54004
11
5.77222
21
-4.53032
0
LINE
8
BLACK
6
CONTINUOUS
10
5.77222
20
-4.53032
11
5.77462
21
-4.52086
0
LINE
8
BLACK
6
CONTINUOUS
10
5.77462
20
-4.52086
11
5.77853
21
-4.51193
0
LINE
8
BLACK
6
CONTINUOUS
10
5.77853
20
-4.51193
11
5.78387
21
-4.50377
0
LINE
8
BLACK
6
CONTINUOUS
10
5.78387
20
-4.50377
11
5.79048
21
-4.49659
0
LINE
8
BLACK
6
CONTINUOUS
10
5.79048
20
-4.49659
11
5.79817
21
-4.4906
0
LINE
8
BLACK
6
CONTINUOUS
10
5.79817
20
-4.4906
11
5.80675
21
-4.48596
0
LINE
8
BLACK
6
CONTINUOUS
10
5.80675
20
-4.48596
11
5.81598
21
-4.48279
0
LINE
8
BLACK
6
CONTINUOUS
10
5.81598
20
-4.48279
11
5.8256
21
-4.48119
0
LINE
8
BLACK
6
CONTINUOUS
10
5.8256
20
-4.48119
11
5.83535
21
-4.48119
0
LINE
8
BLACK
6
CONTINUOUS
10
5.83535
20
-4.48119
11
5.84497
21
-4.48279
0
LINE
8
BLACK
6
CONTINUOUS
10
6.23867
20
-4.48279
11
6.2479
21
-4.48596
0
LINE
8
BLACK
6
CONTINUOUS
10
6.2479
20
-4.48596
11
6.25647
21
-4.4906
0
LINE
8
BLACK
6
CONTINUOUS
10
6.25647
20
-4.4906
11
6.26417
21
-4.49659
0
LINE
8
BLACK
6
CONTINUOUS
10
6.26417
20
-4.49659
11
6.27078
21
-4.50377
0
LINE
8
BLACK
6
CONTINUOUS
10
6.27078
20
-4.50377
11
6.27611
21
-4.51193
0
LINE
8
BLACK
6
CONTINUOUS
10
6.27611
20
-4.51193
11
6.28003
21
-4.52086
0
LINE
8
BLACK
6
CONTINUOUS
10
6.28003
20
-4.52086
11
6.28242
21
-4.53032
0
LINE
8
BLACK
6
CONTINUOUS
10
6.28242
20
-4.53032
11
6.28323
21
-4.54004
0
LINE
8
BLACK
6
CONTINUOUS
10
6.28323
20
-4.54004
11
6.28242
21
-4.54976
0
LINE
8
BLACK
6
CONTINUOUS
10
6.28242
20
-4.54976
11
6.28003
21
-4.55921
0
LINE
8
BLACK
6
CONTINUOUS
10
6.28003
20
-4.55921
11
6.27611
21
-4.56815
0
LINE
8
BLACK
6
CONTINUOUS
10
6.27611
20
-4.56815
11
6.27078
21
-4.57631
0
LINE
8
BLACK
6
CONTINUOUS
10
6.27078
20
-4.57631
11
6.26417
21
-4.58349
0
LINE
8
BLACK
6
CONTINUOUS
10
6.26417
20
-4.58349
11
6.25647
21
-4.58948
0
LINE
8
BLACK
6
CONTINUOUS
10
6.25647
20
-4.58948
11
6.2479
21
-4.59412
0
LINE
8
BLACK
6
CONTINUOUS
10
6.2479
20
-4.59412
11
6.23867
21
-4.59729
0
LINE
8
BLACK
6
CONTINUOUS
10
6.23867
20
-4.59729
11
6.22905
21
-4.59889
0
LINE
8
BLACK
6
CONTINUOUS
10
6.22905
20
-4.59889
11
6.2193
21
-4.59889
0
LINE
8
BLACK
6
CONTINUOUS
10
6.2193
20
-4.59889
11
6.20968
21
-4.59729
0
LINE
8
BLACK
6
CONTINUOUS
10
6.20968
20
-4.59729
11
6.20045
21
-4.59412
0
LINE
8
BLACK
6
CONTINUOUS
10
6.20045
20
-4.59412
11
6.19187
21
-4.58948
0
LINE
8
BLACK
6
CONTINUOUS
10
6.19187
20
-4.58948
11
6.18418
21
-4.58349
0
LINE
8
BLACK
6
CONTINUOUS
10
6.18418
20
-4.58349
11
6.17757
21
-4.57631
0
LINE
8
BLACK
6
CONTINUOUS
10
6.17757
20
-4.57631
11
6.17224
21
-4.56815
0
LINE
8
BLACK
6
CONTINUOUS
10
6.17224
20
-4.56815
11
6.16832
21
-4.55921
0
LINE
8
BLACK
6
CONTINUOUS
10
6.16832
20
-4.55921
11
6.16592
21
-4.54976
0
LINE
8
BLACK
6
CONTINUOUS
10
6.16592
20
-4.54976
11
6.16512
21
-4.54004
0
LINE
8
BLACK
6
CONTINUOUS
10
6.16512
20
-4.54004
11
6.16592
21
-4.53032
0
LINE
8
BLACK
6
CONTINUOUS
10
6.16592
20
-4.53032
11
6.16832
21
-4.52086
0
LINE
8
BLACK
6
CONTINUOUS
10
6.16832
20
-4.52086
11
6.17224
21
-4.51193
0
LINE
8
BLACK
6
CONTINUOUS
10
6.17224
20
-4.51193
11
6.17757
21
-4.50377
0
LINE
8
BLACK
6
CONTINUOUS
10
6.17757
20
-4.50377
11
6.18418
21
-4.49659
0
LINE
8
BLACK
6
CONTINUOUS
10
6.18418
20
-4.49659
11
6.19187
21
-4.4906
0
LINE
8
BLACK
6
CONTINUOUS
10
6.19187
20
-4.4906
11
6.20045
21
-4.48596
0
LINE
8
BLACK
6
CONTINUOUS
10
6.20045
20
-4.48596
11
6.20968
21
-4.48279
0
LINE
8
BLACK
6
CONTINUOUS
10
6.20968
20
-4.48279
11
6.2193
21
-4.48119
0
LINE
8
BLACK
6
CONTINUOUS
10
6.2193
20
-4.48119
11
6.22905
21
-4.48119
0
LINE
8
BLACK
6
CONTINUOUS
10
6.22905
20
-4.48119
11
6.23867
21
-4.48279
0
LINE
8
BLACK
6
CONTINUOUS
10
6.49373
20
-4.43266
11
6.49781
21
-4.43465
0
LINE
8
BLACK
6
CONTINUOUS
10
6.49781
20
-4.43465
11
6.50102
21
-4.43786
0
LINE
8
BLACK
6
CONTINUOUS
10
6.50102
20
-4.43786
11
6.50301
21
-4.44193
0
LINE
8
BLACK
6
CONTINUOUS
10
6.50301
20
-4.44193
11
6.50358
21
-4.44587
0
LINE
8
BLACK
6
CONTINUOUS
10
6.50358
20
-4.44587
11
6.50358
21
-4.46555
0
LINE
8
BLACK
6
CONTINUOUS
10
6.50358
20
-4.46555
11
6.50301
21
-4.46948
0
LINE
8
BLACK
6
CONTINUOUS
10
6.50301
20
-4.46948
11
6.50102
21
-4.47356
0
LINE
8
BLACK
6
CONTINUOUS
10
6.50102
20
-4.47356
11
6.49781
21
-4.47677
0
LINE
8
BLACK
6
CONTINUOUS
10
6.49781
20
-4.47677
11
6.49373
21
-4.47876
0
LINE
8
BLACK
6
CONTINUOUS
10
6.49373
20
-4.47876
11
6.4898
21
-4.47933
0
LINE
8
BLACK
6
CONTINUOUS
10
6.4898
20
-4.47933
11
6.40319
21
-4.47933
0
LINE
8
BLACK
6
CONTINUOUS
10
6.40319
20
-4.47933
11
6.39926
21
-4.47876
0
LINE
8
BLACK
6
CONTINUOUS
10
6.39926
20
-4.47876
11
6.39518
21
-4.47677
0
LINE
8
BLACK
6
CONTINUOUS
10
6.39518
20
-4.47677
11
6.39197
21
-4.47356
0
LINE
8
BLACK
6
CONTINUOUS
10
6.39197
20
-4.47356
11
6.38998
21
-4.46948
0
LINE
8
BLACK
6
CONTINUOUS
10
6.38998
20
-4.46948
11
6.38941
21
-4.46555
0
LINE
8
BLACK
6
CONTINUOUS
10
6.38941
20
-4.46555
11
6.38941
21
-4.44587
0
LINE
8
BLACK
6
CONTINUOUS
10
6.38941
20
-4.44587
11
6.38998
21
-4.44193
0
LINE
8
BLACK
6
CONTINUOUS
10
6.38998
20
-4.44193
11
6.39197
21
-4.43786
0
LINE
8
BLACK
6
CONTINUOUS
10
6.39197
20
-4.43786
11
6.39518
21
-4.43465
0
LINE
8
BLACK
6
CONTINUOUS
10
6.39518
20
-4.43465
11
6.39926
21
-4.43266
0
LINE
8
BLACK
6
CONTINUOUS
10
6.39926
20
-4.43266
11
6.40319
21
-4.43209
0
LINE
8
BLACK
6
CONTINUOUS
10
6.40319
20
-4.43209
11
6.4898
21
-4.43209
0
LINE
8
BLACK
6
CONTINUOUS
10
6.4898
20
-4.43209
11
6.49373
21
-4.43266
0
LINE
8
BLACK
6
CONTINUOUS
10
5.61589
20
-4.42354
11
5.61986
21
-4.4253
0
LINE
8
BLACK
6
CONTINUOUS
10
5.61986
20
-4.4253
11
5.62293
21
-4.42836
0
LINE
8
BLACK
6
CONTINUOUS
10
5.62293
20
-4.42836
11
5.62469
21
-4.43234
0
LINE
8
BLACK
6
CONTINUOUS
10
5.62469
20
-4.43234
11
5.625
21
-4.43504
0
LINE
8
BLACK
6
CONTINUOUS
10
5.625
20
-4.43504
11
5.625
21
-4.45079
0
LINE
8
BLACK
6
CONTINUOUS
10
5.625
20
-4.45079
11
5.62469
21
-4.45349
0
LINE
8
BLACK
6
CONTINUOUS
10
5.62469
20
-4.45349
11
5.62293
21
-4.45746
0
LINE
8
BLACK
6
CONTINUOUS
10
5.62293
20
-4.45746
11
5.61986
21
-4.46053
0
LINE
8
BLACK
6
CONTINUOUS
10
5.61986
20
-4.46053
11
5.61589
21
-4.46228
0
LINE
8
BLACK
6
CONTINUOUS
10
5.61589
20
-4.46228
11
5.61319
21
-4.4626
0
LINE
8
BLACK
6
CONTINUOUS
10
5.61319
20
-4.4626
11
5.59154
21
-4.4626
0
LINE
8
BLACK
6
CONTINUOUS
10
5.59154
20
-4.4626
11
5.58883
21
-4.46228
0
LINE
8
BLACK
6
CONTINUOUS
10
5.58883
20
-4.46228
11
5.58486
21
-4.46053
0
LINE
8
BLACK
6
CONTINUOUS
10
5.58486
20
-4.46053
11
5.58179
21
-4.45746
0
LINE
8
BLACK
6
CONTINUOUS
10
5.58179
20
-4.45746
11
5.58004
21
-4.45349
0
LINE
8
BLACK
6
CONTINUOUS
10
5.58004
20
-4.45349
11
5.57972
21
-4.45079
0
LINE
8
BLACK
6
CONTINUOUS
10
5.57972
20
-4.45079
11
5.57972
21
-4.43504
0
LINE
8
BLACK
6
CONTINUOUS
10
5.57972
20
-4.43504
11
5.58004
21
-4.43234
0
LINE
8
BLACK
6
CONTINUOUS
10
5.58004
20
-4.43234
11
5.58179
21
-4.42836
0
LINE
8
BLACK
6
CONTINUOUS
10
5.58179
20
-4.42836
11
5.58486
21
-4.4253
0
LINE
8
BLACK
6
CONTINUOUS
10
5.58486
20
-4.4253
11
5.58883
21
-4.42354
0
LINE
8
BLACK
6
CONTINUOUS
10
5.58883
20
-4.42354
11
5.59154
21
-4.42323
0
LINE
8
BLACK
6
CONTINUOUS
10
5.59154
20
-4.42323
11
5.61319
21
-4.42323
0
LINE
8
BLACK
6
CONTINUOUS
10
5.61319
20
-4.42323
11
5.61589
21
-4.42354
0
LINE
8
BLACK
6
CONTINUOUS
10
5.54877
20
-4.41972
11
5.55272
21
-4.42156
0
LINE
8
BLACK
6
CONTINUOUS
10
5.55272
20
-4.42156
11
5.5558
21
-4.42464
0
LINE
8
BLACK
6
CONTINUOUS
10
5.5558
20
-4.42464
11
5.55764
21
-4.42859
0
LINE
8
BLACK
6
CONTINUOUS
10
5.55764
20
-4.42859
11
5.55807
21
-4.43184
0
LINE
8
BLACK
6
CONTINUOUS
10
5.55807
20
-4.43184
11
5.55807
21
-4.44906
0
LINE
8
BLACK
6
CONTINUOUS
10
5.55807
20
-4.44906
11
5.55764
21
-4.45231
0
LINE
8
BLACK
6
CONTINUOUS
10
5.55764
20
-4.45231
11
5.5558
21
-4.45626
0
LINE
8
BLACK
6
CONTINUOUS
10
5.5558
20
-4.45626
11
5.55272
21
-4.45934
0
LINE
8
BLACK
6
CONTINUOUS
10
5.55272
20
-4.45934
11
5.54877
21
-4.46119
0
LINE
8
BLACK
6
CONTINUOUS
10
5.54877
20
-4.46119
11
5.54552
21
-4.46161
0
LINE
8
BLACK
6
CONTINUOUS
10
5.54552
20
-4.46161
11
5.52534
21
-4.46161
0
LINE
8
BLACK
6
CONTINUOUS
10
5.52534
20
-4.46161
11
5.5221
21
-4.46119
0
LINE
8
BLACK
6
CONTINUOUS
10
5.5221
20
-4.46119
11
5.51815
21
-4.45934
0
LINE
8
BLACK
6
CONTINUOUS
10
5.51815
20
-4.45934
11
5.51506
21
-4.45626
0
LINE
8
BLACK
6
CONTINUOUS
10
5.51506
20
-4.45626
11
5.51322
21
-4.45231
0
LINE
8
BLACK
6
CONTINUOUS
10
5.51322
20
-4.45231
11
5.5128
21
-4.44906
0
LINE
8
BLACK
6
CONTINUOUS
10
5.5128
20
-4.44906
11
5.5128
21
-4.43184
0
LINE
8
BLACK
6
CONTINUOUS
10
5.5128
20
-4.43184
11
5.51322
21
-4.42859
0
LINE
8
BLACK
6
CONTINUOUS
10
5.51322
20
-4.42859
11
5.51506
21
-4.42464
0
LINE
8
BLACK
6
CONTINUOUS
10
5.51506
20
-4.42464
11
5.51815
21
-4.42156
0
LINE
8
BLACK
6
CONTINUOUS
10
5.51815
20
-4.42156
11
5.5221
21
-4.41972
0
LINE
8
BLACK
6
CONTINUOUS
10
5.5221
20
-4.41972
11
5.52534
21
-4.41929
0
LINE
8
BLACK
6
CONTINUOUS
10
5.52534
20
-4.41929
11
5.54552
21
-4.41929
0
LINE
8
BLACK
6
CONTINUOUS
10
5.54552
20
-4.41929
11
5.54877
21
-4.41972
0
LINE
8
BLACK
6
CONTINUOUS
10
5.54877
20
-4.35771
11
5.55272
21
-4.35955
0
LINE
8
BLACK
6
CONTINUOUS
10
5.55272
20
-4.35955
11
5.5558
21
-4.36263
0
LINE
8
BLACK
6
CONTINUOUS
10
5.5558
20
-4.36263
11
5.55764
21
-4.36658
0
LINE
8
BLACK
6
CONTINUOUS
10
5.55764
20
-4.36658
11
5.55807
21
-4.36983
0
LINE
8
BLACK
6
CONTINUOUS
10
5.55807
20
-4.36983
11
5.55807
21
-4.38706
0
LINE
8
BLACK
6
CONTINUOUS
10
5.55807
20
-4.38706
11
5.55764
21
-4.39031
0
LINE
8
BLACK
6
CONTINUOUS
10
5.55764
20
-4.39031
11
5.5558
21
-4.39426
0
LINE
8
BLACK
6
CONTINUOUS
10
5.5558
20
-4.39426
11
5.55272
21
-4.39734
0
LINE
8
BLACK
6
CONTINUOUS
10
5.55272
20
-4.39734
11
5.54877
21
-4.39918
0
LINE
8
BLACK
6
CONTINUOUS
10
5.54877
20
-4.39918
11
5.54552
21
-4.39961
0
LINE
8
BLACK
6
CONTINUOUS
10
5.54552
20
-4.39961
11
5.52534
21
-4.39961
0
LINE
8
BLACK
6
CONTINUOUS
10
5.52534
20
-4.39961
11
5.5221
21
-4.39918
0
LINE
8
BLACK
6
CONTINUOUS
10
5.5221
20
-4.39918
11
5.51815
21
-4.39734
0
LINE
8
BLACK
6
CONTINUOUS
10
5.51815
20
-4.39734
11
5.51506
21
-4.39426
0
LINE
8
BLACK
6
CONTINUOUS
10
5.51506
20
-4.39426
11
5.51322
21
-4.39031
0
LINE
8
BLACK
6
CONTINUOUS
10
5.51322
20
-4.39031
11
5.5128
21
-4.38706
0
LINE
8
BLACK
6
CONTINUOUS
10
5.5128
20
-4.38706
11
5.5128
21
-4.36983
0
LINE
8
BLACK
6
CONTINUOUS
10
5.5128
20
-4.36983
11
5.51322
21
-4.36658
0
LINE
8
BLACK
6
CONTINUOUS
10
5.51322
20
-4.36658
11
5.51506
21
-4.36263
0
LINE
8
BLACK
6
CONTINUOUS
10
5.51506
20
-4.36263
11
5.51815
21
-4.35955
0
LINE
8
BLACK
6
CONTINUOUS
10
5.51815
20
-4.35955
11
5.5221
21
-4.35771
0
LINE
8
BLACK
6
CONTINUOUS
10
5.5221
20
-4.35771
11
5.52534
21
-4.35728
0
LINE
8
BLACK
6
CONTINUOUS
10
5.52534
20
-4.35728
11
5.54552
21
-4.35728
0
LINE
8
BLACK
6
CONTINUOUS
10
5.54552
20
-4.35728
11
5.54877
21
-4.35771
0
LINE
8
BLACK
6
CONTINUOUS
10
6.35184
20
-4.36788
11
6.35503
21
-4.37001
0
LINE
8
BLACK
6
CONTINUOUS
10
6.35503
20
-4.37001
11
6.35716
21
-4.3732
0
LINE
8
BLACK
6
CONTINUOUS
10
6.35716
20
-4.3732
11
6.35791
21
-4.37697
0
LINE
8
BLACK
6
CONTINUOUS
10
6.35791
20
-4.37697
11
6.35791
21
-4.38878
0
LINE
8
BLACK
6
CONTINUOUS
10
6.35791
20
-4.38878
11
6.35716
21
-4.39255
0
LINE
8
BLACK
6
CONTINUOUS
10
6.35716
20
-4.39255
11
6.35503
21
-4.39574
0
LINE
8
BLACK
6
CONTINUOUS
10
6.35503
20
-4.39574
11
6.35184
21
-4.39787
0
LINE
8
BLACK
6
CONTINUOUS
10
6.35184
20
-4.39787
11
6.34807
21
-4.39862
0
LINE
8
BLACK
6
CONTINUOUS
10
6.34807
20
-4.39862
11
6.29295
21
-4.39862
0
LINE
8
BLACK
6
CONTINUOUS
10
6.29295
20
-4.39862
11
6.28919
21
-4.39787
0
LINE
8
BLACK
6
CONTINUOUS
10
6.28919
20
-4.39787
11
6.28599
21
-4.39574
0
LINE
8
BLACK
6
CONTINUOUS
10
6.28599
20
-4.39574
11
6.28386
21
-4.39255
0
LINE
8
BLACK
6
CONTINUOUS
10
6.28386
20
-4.39255
11
6.28311
21
-4.38878
0
LINE
8
BLACK
6
CONTINUOUS
10
6.28311
20
-4.38878
11
6.28311
21
-4.37697
0
LINE
8
BLACK
6
CONTINUOUS
10
6.28311
20
-4.37697
11
6.28386
21
-4.3732
0
LINE
8
BLACK
6
CONTINUOUS
10
6.28386
20
-4.3732
11
6.28599
21
-4.37001
0
LINE
8
BLACK
6
CONTINUOUS
10
6.28599
20
-4.37001
11
6.28919
21
-4.36788
0
LINE
8
BLACK
6
CONTINUOUS
10
6.28919
20
-4.36788
11
6.29295
21
-4.36713
0
LINE
8
BLACK
6
CONTINUOUS
10
6.29295
20
-4.36713
11
6.34807
21
-4.36713
0
LINE
8
BLACK
6
CONTINUOUS
10
6.34807
20
-4.36713
11
6.35184
21
-4.36788
0
LINE
8
BLACK
6
CONTINUOUS
10
5.61589
20
-4.35858
11
5.61986
21
-4.36033
0
LINE
8
BLACK
6
CONTINUOUS
10
5.61986
20
-4.36033
11
5.62293
21
-4.3634
0
LINE
8
BLACK
6
CONTINUOUS
10
5.62293
20
-4.3634
11
5.62469
21
-4.36737
0
LINE
8
BLACK
6
CONTINUOUS
10
5.62469
20
-4.36737
11
5.625
21
-4.37008
0
LINE
8
BLACK
6
CONTINUOUS
10
5.625
20
-4.37008
11
5.625
21
-4.38583
0
LINE
8
BLACK
6
CONTINUOUS
10
5.625
20
-4.38583
11
5.62469
21
-4.38853
0
LINE
8
BLACK
6
CONTINUOUS
10
5.62469
20
-4.38853
11
5.62293
21
-4.3925
0
LINE
8
BLACK
6
CONTINUOUS
10
5.62293
20
-4.3925
11
5.61986
21
-4.39557
0
LINE
8
BLACK
6
CONTINUOUS
10
5.61986
20
-4.39557
11
5.61589
21
-4.39732
0
LINE
8
BLACK
6
CONTINUOUS
10
5.61589
20
-4.39732
11
5.61319
21
-4.39764
0
LINE
8
BLACK
6
CONTINUOUS
10
5.61319
20
-4.39764
11
5.59154
21
-4.39764
0
LINE
8
BLACK
6
CONTINUOUS
10
5.59154
20
-4.39764
11
5.58883
21
-4.39732
0
LINE
8
BLACK
6
CONTINUOUS
10
5.58883
20
-4.39732
11
5.58486
21
-4.39557
0
LINE
8
BLACK
6
CONTINUOUS
10
5.58486
20
-4.39557
11
5.58179
21
-4.3925
0
LINE
8
BLACK
6
CONTINUOUS
10
5.58179
20
-4.3925
11
5.58004
21
-4.38853
0
LINE
8
BLACK
6
CONTINUOUS
10
5.58004
20
-4.38853
11
5.57972
21
-4.38583
0
LINE
8
BLACK
6
CONTINUOUS
10
5.57972
20
-4.38583
11
5.57972
21
-4.37008
0
LINE
8
BLACK
6
CONTINUOUS
10
5.57972
20
-4.37008
11
5.58004
21
-4.36737
0
LINE
8
BLACK
6
CONTINUOUS
10
5.58004
20
-4.36737
11
5.58179
21
-4.3634
0
LINE
8
BLACK
6
CONTINUOUS
10
5.58179
20
-4.3634
11
5.58486
21
-4.36033
0
LINE
8
BLACK
6
CONTINUOUS
10
5.58486
20
-4.36033
11
5.58883
21
-4.35858
0
LINE
8
BLACK
6
CONTINUOUS
10
5.58883
20
-4.35858
11
5.59154
21
-4.35827
0
LINE
8
BLACK
6
CONTINUOUS
10
5.59154
20
-4.35827
11
5.61319
21
-4.35827
0
LINE
8
BLACK
6
CONTINUOUS
10
5.61319
20
-4.35827
11
5.61589
21
-4.35858
0
LINE
8
BLACK
6
CONTINUOUS
10
6.35184
20
-4.31866
11
6.35503
21
-4.3208
0
LINE
8
BLACK
6
CONTINUOUS
10
6.35503
20
-4.3208
11
6.35716
21
-4.32399
0
LINE
8
BLACK
6
CONTINUOUS
10
6.35716
20
-4.32399
11
6.35791
21
-4.32776
0
LINE
8
BLACK
6
CONTINUOUS
10
6.35791
20
-4.32776
11
6.35791
21
-4.33957
0
LINE
8
BLACK
6
CONTINUOUS
10
6.35791
20
-4.33957
11
6.35716
21
-4.34333
0
LINE
8
BLACK
6
CONTINUOUS
10
6.35716
20
-4.34333
11
6.35503
21
-4.34653
0
LINE
8
BLACK
6
CONTINUOUS
10
6.35503
20
-4.34653
11
6.35184
21
-4.34866
0
LINE
8
BLACK
6
CONTINUOUS
10
6.35184
20
-4.34866
11
6.34807
21
-4.34941
0
LINE
8
BLACK
6
CONTINUOUS
10
6.34807
20
-4.34941
11
6.29295
21
-4.34941
0
LINE
8
BLACK
6
CONTINUOUS
10
6.29295
20
-4.34941
11
6.28919
21
-4.34866
0
LINE
8
BLACK
6
CONTINUOUS
10
6.28919
20
-4.34866
11
6.28599
21
-4.34653
0
LINE
8
BLACK
6
CONTINUOUS
10
6.28599
20
-4.34653
11
6.28386
21
-4.34333
0
LINE
8
BLACK
6
CONTINUOUS
10
6.28386
20
-4.34333
11
6.28311
21
-4.33957
0
LINE
8
BLACK
6
CONTINUOUS
10
6.28311
20
-4.33957
11
6.28311
21
-4.32776
0
LINE
8
BLACK
6
CONTINUOUS
10
6.28311
20
-4.32776
11
6.28386
21
-4.32399
0
LINE
8
BLACK
6
CONTINUOUS
10
6.28386
20
-4.32399
11
6.28599
21
-4.3208
0
LINE
8
BLACK
6
CONTINUOUS
10
6.28599
20
-4.3208
11
6.28919
21
-4.31866
0
LINE
8
BLACK
6
CONTINUOUS
10
6.28919
20
-4.31866
11
6.29295
21
-4.31791
0
LINE
8
BLACK
6
CONTINUOUS
10
6.29295
20
-4.31791
11
6.34807
21
-4.31791
0
LINE
8
BLACK
6
CONTINUOUS
10
6.34807
20
-4.31791
11
6.35184
21
-4.31866
0
LINE
8
BLACK
6
CONTINUOUS
10
6.35184
20
-4.26945
11
6.35503
21
-4.27158
0
LINE
8
BLACK
6
CONTINUOUS
10
6.35503
20
-4.27158
11
6.35716
21
-4.27478
0
LINE
8
BLACK
6
CONTINUOUS
10
6.35716
20
-4.27478
11
6.35791
21
-4.27854
0
LINE
8
BLACK
6
CONTINUOUS
10
6.35791
20
-4.27854
11
6.35791
21
-4.29035
0
LINE
8
BLACK
6
CONTINUOUS
10
6.35791
20
-4.29035
11
6.35716
21
-4.29412
0
LINE
8
BLACK
6
CONTINUOUS
10
6.35716
20
-4.29412
11
6.35503
21
-4.29731
0
LINE
8
BLACK
6
CONTINUOUS
10
6.35503
20
-4.29731
11
6.35184
21
-4.29945
0
LINE
8
BLACK
6
CONTINUOUS
10
6.35184
20
-4.29945
11
6.34807
21
-4.3002
0
LINE
8
BLACK
6
CONTINUOUS
10
6.34807
20
-4.3002
11
6.29295
21
-4.3002
0
LINE
8
BLACK
6
CONTINUOUS
10
6.29295
20
-4.3002
11
6.28919
21
-4.29945
0
LINE
8
BLACK
6
CONTINUOUS
10
6.28919
20
-4.29945
11
6.28599
21
-4.29731
0
LINE
8
BLACK
6
CONTINUOUS
10
6.28599
20
-4.29731
11
6.28386
21
-4.29412
0
LINE
8
BLACK
6
CONTINUOUS
10
6.28386
20
-4.29412
11
6.28311
21
-4.29035
0
LINE
8
BLACK
6
CONTINUOUS
10
6.28311
20
-4.29035
11
6.28311
21
-4.27854
0
LINE
8
BLACK
6
CONTINUOUS
10
6.28311
20
-4.27854
11
6.28386
21
-4.27478
0
LINE
8
BLACK
6
CONTINUOUS
10
6.28386
20
-4.27478
11
6.28599
21
-4.27158
0
LINE
8
BLACK
6
CONTINUOUS
10
6.28599
20
-4.27158
11
6.28919
21
-4.26945
0
LINE
8
BLACK
6
CONTINUOUS
10
6.28919
20
-4.26945
11
6.29295
21
-4.2687
0
LINE
8
BLACK
6
CONTINUOUS
10
6.29295
20
-4.2687
11
6.34807
21
-4.2687
0
LINE
8
BLACK
6
CONTINUOUS
10
6.34807
20
-4.2687
11
6.35184
21
-4.26945
0
LINE
8
BLACK
6
CONTINUOUS
10
5.89007
20
-4.25768
11
5.89478
21
-4.26071
0
LINE
8
BLACK
6
CONTINUOUS
10
5.89478
20
-4.26071
11
5.89845
21
-4.26495
0
LINE
8
BLACK
6
CONTINUOUS
10
5.89845
20
-4.26495
11
5.90078
21
-4.27004
0
LINE
8
BLACK
6
CONTINUOUS
10
5.90078
20
-4.27004
11
5.90157
21
-4.27559
0
LINE
8
BLACK
6
CONTINUOUS
10
5.90157
20
-4.27559
11
5.90078
21
-4.28114
0
LINE
8
BLACK
6
CONTINUOUS
10
5.90078
20
-4.28114
11
5.89845
21
-4.28623
0
LINE
8
BLACK
6
CONTINUOUS
10
5.89845
20
-4.28623
11
5.89478
21
-4.29047
0
LINE
8
BLACK
6
CONTINUOUS
10
5.89478
20
-4.29047
11
5.89007
21
-4.2935
0
LINE
8
BLACK
6
CONTINUOUS
10
5.89007
20
-4.2935
11
5.88469
21
-4.29508
0
LINE
8
BLACK
6
CONTINUOUS
10
5.88469
20
-4.29508
11
5.87909
21
-4.29508
0
LINE
8
BLACK
6
CONTINUOUS
10
5.87909
20
-4.29508
11
5.87371
21
-4.2935
0
LINE
8
BLACK
6
CONTINUOUS
10
5.87371
20
-4.2935
11
5.869
21
-4.29047
0
LINE
8
BLACK
6
CONTINUOUS
10
5.869
20
-4.29047
11
5.86533
21
-4.28623
0
LINE
8
BLACK
6
CONTINUOUS
10
5.86533
20
-4.28623
11
5.863
21
-4.28114
0
LINE
8
BLACK
6
CONTINUOUS
10
5.863
20
-4.28114
11
5.8622
21
-4.27559
0
LINE
8
BLACK
6
CONTINUOUS
10
5.8622
20
-4.27559
11
5.863
21
-4.27004
0
LINE
8
BLACK
6
CONTINUOUS
10
5.863
20
-4.27004
11
5.86533
21
-4.26495
0
LINE
8
BLACK
6
CONTINUOUS
10
5.86533
20
-4.26495
11
5.869
21
-4.26071
0
LINE
8
BLACK
6
CONTINUOUS
10
5.869
20
-4.26071
11
5.87371
21
-4.25768
0
LINE
8
BLACK
6
CONTINUOUS
10
5.87371
20
-4.25768
11
5.87909
21
-4.25611
0
LINE
8
BLACK
6
CONTINUOUS
10
5.87909
20
-4.25611
11
5.88469
21
-4.25611
0
LINE
8
BLACK
6
CONTINUOUS
10
5.88469
20
-4.25611
11
5.89007
21
-4.25768
0
LINE
8
BLACK
6
CONTINUOUS
10
5.71394
20
-4.22485
11
5.71797
21
-4.22672
0
LINE
8
BLACK
6
CONTINUOUS
10
5.71797
20
-4.22672
11
5.72111
21
-4.22987
0
LINE
8
BLACK
6
CONTINUOUS
10
5.72111
20
-4.22987
11
5.72299
21
-4.23389
0
LINE
8
BLACK
6
CONTINUOUS
10
5.72299
20
-4.23389
11
5.72343
21
-4.2372
0
LINE
8
BLACK
6
CONTINUOUS
10
5.72343
20
-4.2372
11
5.72343
21
-4.25492
0
LINE
8
BLACK
6
CONTINUOUS
10
5.72343
20
-4.25492
11
5.72299
21
-4.25823
0
LINE
8
BLACK
6
CONTINUOUS
10
5.72299
20
-4.25823
11
5.72111
21
-4.26226
0
LINE
8
BLACK
6
CONTINUOUS
10
5.72111
20
-4.26226
11
5.71797
21
-4.2654
0
LINE
8
BLACK
6
CONTINUOUS
10
5.71797
20
-4.2654
11
5.71394
21
-4.26728
0
LINE
8
BLACK
6
CONTINUOUS
10
5.71394
20
-4.26728
11
5.71063
21
-4.26772
0
LINE
8
BLACK
6
CONTINUOUS
10
5.71063
20
-4.26772
11
5.69094
21
-4.26772
0
LINE
8
BLACK
6
CONTINUOUS
10
5.69094
20
-4.26772
11
5.68763
21
-4.26728
0
LINE
8
BLACK
6
CONTINUOUS
10
5.68763
20
-4.26728
11
5.68361
21
-4.2654
0
LINE
8
BLACK
6
CONTINUOUS
10
5.68361
20
-4.2654
11
5.68046
21
-4.26226
0
LINE
8
BLACK
6
CONTINUOUS
10
5.68046
20
-4.26226
11
5.67859
21
-4.25823
0
LINE
8
BLACK
6
CONTINUOUS
10
5.67859
20
-4.25823
11
5.67815
21
-4.25492
0
LINE
8
BLACK
6
CONTINUOUS
10
5.67815
20
-4.25492
11
5.67815
21
-4.2372
0
LINE
8
BLACK
6
CONTINUOUS
10
5.67815
20
-4.2372
11
5.67859
21
-4.23389
0
LINE
8
BLACK
6
CONTINUOUS
10
5.67859
20
-4.23389
11
5.68046
21
-4.22987
0
LINE
8
BLACK
6
CONTINUOUS
10
5.68046
20
-4.22987
11
5.68361
21
-4.22672
0
LINE
8
BLACK
6
CONTINUOUS
10
5.68361
20
-4.22672
11
5.68763
21
-4.22485
0
LINE
8
BLACK
6
CONTINUOUS
10
5.68763
20
-4.22485
11
5.69094
21
-4.22441
0
LINE
8
BLACK
6
CONTINUOUS
10
5.69094
20
-4.22441
11
5.71063
21
-4.22441
0
LINE
8
BLACK
6
CONTINUOUS
10
5.71063
20
-4.22441
11
5.71394
21
-4.22485
0
LINE
8
BLACK
6
CONTINUOUS
10
6.35184
20
-4.22024
11
6.35503
21
-4.22237
0
LINE
8
BLACK
6
CONTINUOUS
10
6.35503
20
-4.22237
11
6.35716
21
-4.22556
0
LINE
8
BLACK
6
CONTINUOUS
10
6.35716
20
-4.22556
11
6.35791
21
-4.22933
0
LINE
8
BLACK
6
CONTINUOUS
10
6.35791
20
-4.22933
11
6.35791
21
-4.24114
0
LINE
8
BLACK
6
CONTINUOUS
10
6.35791
20
-4.24114
11
6.35716
21
-4.24491
0
LINE
8
BLACK
6
CONTINUOUS
10
6.35716
20
-4.24491
11
6.35503
21
-4.2481
0
LINE
8
BLACK
6
CONTINUOUS
10
6.35503
20
-4.2481
11
6.35184
21
-4.25024
0
LINE
8
BLACK
6
CONTINUOUS
10
6.35184
20
-4.25024
11
6.34807
21
-4.25098
0
LINE
8
BLACK
6
CONTINUOUS
10
6.34807
20
-4.25098
11
6.29295
21
-4.25098
0
LINE
8
BLACK
6
CONTINUOUS
10
6.29295
20
-4.25098
11
6.28919
21
-4.25024
0
LINE
8
BLACK
6
CONTINUOUS
10
6.28919
20
-4.25024
11
6.28599
21
-4.2481
0
LINE
8
BLACK
6
CONTINUOUS
10
6.28599
20
-4.2481
11
6.28386
21
-4.24491
0
LINE
8
BLACK
6
CONTINUOUS
10
6.28386
20
-4.24491
11
6.28311
21
-4.24114
0
LINE
8
BLACK
6
CONTINUOUS
10
6.28311
20
-4.24114
11
6.28311
21
-4.22933
0
LINE
8
BLACK
6
CONTINUOUS
10
6.28311
20
-4.22933
11
6.28386
21
-4.22556
0
LINE
8
BLACK
6
CONTINUOUS
10
6.28386
20
-4.22556
11
6.28599
21
-4.22237
0
LINE
8
BLACK
6
CONTINUOUS
10
6.28599
20
-4.22237
11
6.28919
21
-4.22024
0
LINE
8
BLACK
6
CONTINUOUS
10
6.28919
20
-4.22024
11
6.29295
21
-4.21949
0
LINE
8
BLACK
6
CONTINUOUS
10
6.29295
20
-4.21949
11
6.34807
21
-4.21949
0
LINE
8
BLACK
6
CONTINUOUS
10
6.34807
20
-4.21949
11
6.35184
21
-4.22024
0
LINE
8
BLACK
6
CONTINUOUS
10
5.7866
20
-4.19826
11
5.79055
21
-4.2001
0
LINE
8
BLACK
6
CONTINUOUS
10
5.79055
20
-4.2001
11
5.79364
21
-4.20319
0
LINE
8
BLACK
6
CONTINUOUS
10
5.79364
20
-4.20319
11
5.79548
21
-4.20714
0
LINE
8
BLACK
6
CONTINUOUS
10
5.79548
20
-4.20714
11
5.79591
21
-4.21038
0
LINE
8
BLACK
6
CONTINUOUS
10
5.79591
20
-4.21038
11
5.79591
21
-4.22761
0
LINE
8
BLACK
6
CONTINUOUS
10
5.79591
20
-4.22761
11
5.79548
21
-4.23086
0
LINE
8
BLACK
6
CONTINUOUS
10
5.79548
20
-4.23086
11
5.79364
21
-4.23481
0
LINE
8
BLACK
6
CONTINUOUS
10
5.79364
20
-4.23481
11
5.79055
21
-4.23789
0
LINE
8
BLACK
6
CONTINUOUS
10
5.79055
20
-4.23789
11
5.7866
21
-4.23973
0
LINE
8
BLACK
6
CONTINUOUS
10
5.7866
20
-4.23973
11
5.78336
21
-4.24016
0
LINE
8
BLACK
6
CONTINUOUS
10
5.78336
20
-4.24016
11
5.75334
21
-4.24016
0
LINE
8
BLACK
6
CONTINUOUS
10
5.75334
20
-4.24016
11
5.75009
21
-4.23973
0
LINE
8
BLACK
6
CONTINUOUS
10
5.75009
20
-4.23973
11
5.74614
21
-4.23789
0
LINE
8
BLACK
6
CONTINUOUS
10
5.74614
20
-4.23789
11
5.74306
21
-4.23481
0
LINE
8
BLACK
6
CONTINUOUS
10
5.74306
20
-4.23481
11
5.74121
21
-4.23086
0
LINE
8
BLACK
6
CONTINUOUS
10
5.74121
20
-4.23086
11
5.74079
21
-4.22761
0
LINE
8
BLACK
6
CONTINUOUS
10
5.74079
20
-4.22761
11
5.74079
21
-4.21038
0
LINE
8
BLACK
6
CONTINUOUS
10
5.74079
20
-4.21038
11
5.74121
21
-4.20714
0
LINE
8
BLACK
6
CONTINUOUS
10
5.74121
20
-4.20714
11
5.74306
21
-4.20319
0
LINE
8
BLACK
6
CONTINUOUS
10
5.74306
20
-4.20319
11
5.74614
21
-4.2001
0
LINE
8
BLACK
6
CONTINUOUS
10
5.74614
20
-4.2001
11
5.75009
21
-4.19826
0
LINE
8
BLACK
6
CONTINUOUS
10
5.75009
20
-4.19826
11
5.75334
21
-4.19783
0
LINE
8
BLACK
6
CONTINUOUS
10
5.75334
20
-4.19783
11
5.78336
21
-4.19783
0
LINE
8
BLACK
6
CONTINUOUS
10
5.78336
20
-4.19783
11
5.7866
21
-4.19826
0
LINE
8
BLACK
6
CONTINUOUS
10
6.06471
20
-4.19421
11
6.06868
21
-4.19596
0
LINE
8
BLACK
6
CONTINUOUS
10
6.06868
20
-4.19596
11
6.07175
21
-4.19903
0
LINE
8
BLACK
6
CONTINUOUS
10
6.07175
20
-4.19903
11
6.07351
21
-4.203
0
LINE
8
BLACK
6
CONTINUOUS
10
6.07351
20
-4.203
11
6.07382
21
-4.20571
0
LINE
8
BLACK
6
CONTINUOUS
10
6.07382
20
-4.20571
11
6.07382
21
-4.22146
0
LINE
8
BLACK
6
CONTINUOUS
10
6.07382
20
-4.22146
11
6.07351
21
-4.22416
0
LINE
8
BLACK
6
CONTINUOUS
10
6.07351
20
-4.22416
11
6.07175
21
-4.22813
0
LINE
8
BLACK
6
CONTINUOUS
10
6.07175
20
-4.22813
11
6.06868
21
-4.2312
0
LINE
8
BLACK
6
CONTINUOUS
10
6.06868
20
-4.2312
11
6.06471
21
-4.23295
0
LINE
8
BLACK
6
CONTINUOUS
10
6.06471
20
-4.23295
11
6.06201
21
-4.23327
0
LINE
8
BLACK
6
CONTINUOUS
10
6.06201
20
-4.23327
11
6.04035
21
-4.23327
0
LINE
8
BLACK
6
CONTINUOUS
10
6.04035
20
-4.23327
11
6.03765
21
-4.23295
0
LINE
8
BLACK
6
CONTINUOUS
10
6.03765
20
-4.23295
11
6.03368
21
-4.2312
0
LINE
8
BLACK
6
CONTINUOUS
10
6.03368
20
-4.2312
11
6.03061
21
-4.22813
0
LINE
8
BLACK
6
CONTINUOUS
10
6.03061
20
-4.22813
11
6.02886
21
-4.22416
0
LINE
8
BLACK
6
CONTINUOUS
10
6.02886
20
-4.22416
11
6.02854
21
-4.22146
0
LINE
8
BLACK
6
CONTINUOUS
10
6.02854
20
-4.22146
11
6.02854
21
-4.20571
0
LINE
8
BLACK
6
CONTINUOUS
10
6.02854
20
-4.20571
11
6.02886
21
-4.203
0
LINE
8
BLACK
6
CONTINUOUS
10
6.02886
20
-4.203
11
6.03061
21
-4.19903
0
LINE
8
BLACK
6
CONTINUOUS
10
6.03061
20
-4.19903
11
6.03368
21
-4.19596
0
LINE
8
BLACK
6
CONTINUOUS
10
6.03368
20
-4.19596
11
6.03765
21
-4.19421
0
LINE
8
BLACK
6
CONTINUOUS
10
6.03765
20
-4.19421
11
6.04035
21
-4.1939
0
LINE
8
BLACK
6
CONTINUOUS
10
6.04035
20
-4.1939
11
6.06201
21
-4.1939
0
LINE
8
BLACK
6
CONTINUOUS
10
6.06201
20
-4.1939
11
6.06471
21
-4.19421
0
LINE
8
BLACK
6
CONTINUOUS
10
5.8478
20
-4.17859
11
5.85183
21
-4.18046
0
LINE
8
BLACK
6
CONTINUOUS
10
5.85183
20
-4.18046
11
5.85497
21
-4.18361
0
LINE
8
BLACK
6
CONTINUOUS
10
5.85497
20
-4.18361
11
5.85685
21
-4.18763
0
LINE
8
BLACK
6
CONTINUOUS
10
5.85685
20
-4.18763
11
5.85728
21
-4.19094
0
LINE
8
BLACK
6
CONTINUOUS
10
5.85728
20
-4.19094
11
5.85728
21
-4.20866
0
LINE
8
BLACK
6
CONTINUOUS
10
5.85728
20
-4.20866
11
5.85685
21
-4.21197
0
LINE
8
BLACK
6
CONTINUOUS
10
5.85685
20
-4.21197
11
5.85497
21
-4.216
0
LINE
8
BLACK
6
CONTINUOUS
10
5.85497
20
-4.216
11
5.85183
21
-4.21914
0
LINE
8
BLACK
6
CONTINUOUS
10
5.85183
20
-4.21914
11
5.8478
21
-4.22102
0
LINE
8
BLACK
6
CONTINUOUS
10
5.8478
20
-4.22102
11
5.84449
21
-4.22146
0
LINE
8
BLACK
6
CONTINUOUS
10
5.84449
20
-4.22146
11
5.8248
21
-4.22146
0
LINE
8
BLACK
6
CONTINUOUS
10
5.8248
20
-4.22146
11
5.82149
21
-4.22102
0
LINE
8
BLACK
6
CONTINUOUS
10
5.82149
20
-4.22102
11
5.81746
21
-4.21914
0
LINE
8
BLACK
6
CONTINUOUS
10
5.81746
20
-4.21914
11
5.81432
21
-4.216
0
LINE
8
BLACK
6
CONTINUOUS
10
5.81432
20
-4.216
11
5.81244
21
-4.21197
0
LINE
8
BLACK
6
CONTINUOUS
10
5.81244
20
-4.21197
11
5.81201
21
-4.20866
0
LINE
8
BLACK
6
CONTINUOUS
10
5.81201
20
-4.20866
11
5.81201
21
-4.19094
0
LINE
8
BLACK
6
CONTINUOUS
10
5.81201
20
-4.19094
11
5.81244
21
-4.18763
0
LINE
8
BLACK
6
CONTINUOUS
10
5.81244
20
-4.18763
11
5.81432
21
-4.18361
0
LINE
8
BLACK
6
CONTINUOUS
10
5.81432
20
-4.18361
11
5.81746
21
-4.18046
0
LINE
8
BLACK
6
CONTINUOUS
10
5.81746
20
-4.18046
11
5.82149
21
-4.17859
0
LINE
8
BLACK
6
CONTINUOUS
10
5.82149
20
-4.17859
11
5.8248
21
-4.17815
0
LINE
8
BLACK
6
CONTINUOUS
10
5.8248
20
-4.17815
11
5.84449
21
-4.17815
0
LINE
8
BLACK
6
CONTINUOUS
10
5.84449
20
-4.17815
11
5.8478
21
-4.17859
0
LINE
8
BLACK
6
CONTINUOUS
10
5.90723
20
-4.1824
11
5.9112
21
-4.18415
0
LINE
8
BLACK
6
CONTINUOUS
10
5.9112
20
-4.18415
11
5.91427
21
-4.18722
0
LINE
8
BLACK
6
CONTINUOUS
10
5.91427
20
-4.18722
11
5.91602
21
-4.19119
0
LINE
8
BLACK
6
CONTINUOUS
10
5.91602
20
-4.19119
11
5.91634
21
-4.1939
0
LINE
8
BLACK
6
CONTINUOUS
10
5.91634
20
-4.1939
11
5.91634
21
-4.20965
0
LINE
8
BLACK
6
CONTINUOUS
10
5.91634
20
-4.20965
11
5.91602
21
-4.21235
0
LINE
8
BLACK
6
CONTINUOUS
10
5.91602
20
-4.21235
11
5.91427
21
-4.21632
0
LINE
8
BLACK
6
CONTINUOUS
10
5.91427
20
-4.21632
11
5.9112
21
-4.21939
0
LINE
8
BLACK
6
CONTINUOUS
10
5.9112
20
-4.21939
11
5.90723
21
-4.22114
0
LINE
8
BLACK
6
CONTINUOUS
10
5.90723
20
-4.22114
11
5.90453
21
-4.22146
0
LINE
8
BLACK
6
CONTINUOUS
10
5.90453
20
-4.22146
11
5.88287
21
-4.22146
0
LINE
8
BLACK
6
CONTINUOUS
10
5.88287
20
-4.22146
11
5.88017
21
-4.22114
0
LINE
8
BLACK
6
CONTINUOUS
10
5.88017
20
-4.22114
11
5.8762
21
-4.21939
0
LINE
8
BLACK
6
CONTINUOUS
10
5.8762
20
-4.21939
11
5.87313
21
-4.21632
0
LINE
8
BLACK
6
CONTINUOUS
10
5.87313
20
-4.21632
11
5.87138
21
-4.21235
0
LINE
8
BLACK
6
CONTINUOUS
10
5.87138
20
-4.21235
11
5.87106
21
-4.20965
0
LINE
8
BLACK
6
CONTINUOUS
10
5.87106
20
-4.20965
11
5.87106
21
-4.1939
0
LINE
8
BLACK
6
CONTINUOUS
10
5.87106
20
-4.1939
11
5.87138
21
-4.19119
0
LINE
8
BLACK
6
CONTINUOUS
10
5.87138
20
-4.19119
11
5.87313
21
-4.18722
0
LINE
8
BLACK
6
CONTINUOUS
10
5.87313
20
-4.18722
11
5.8762
21
-4.18415
0
LINE
8
BLACK
6
CONTINUOUS
10
5.8762
20
-4.18415
11
5.88017
21
-4.1824
0
LINE
8
BLACK
6
CONTINUOUS
10
5.88017
20
-4.1824
11
5.88287
21
-4.18209
0
LINE
8
BLACK
6
CONTINUOUS
10
5.88287
20
-4.18209
11
5.90453
21
-4.18209
0
LINE
8
BLACK
6
CONTINUOUS
10
5.90453
20
-4.18209
11
5.90723
21
-4.1824
0
LINE
8
BLACK
6
CONTINUOUS
10
5.71394
20
-4.16382
11
5.71797
21
-4.1657
0
LINE
8
BLACK
6
CONTINUOUS
10
5.71797
20
-4.1657
11
5.72111
21
-4.16884
0
LINE
8
BLACK
6
CONTINUOUS
10
5.72111
20
-4.16884
11
5.72299
21
-4.17287
0
LINE
8
BLACK
6
CONTINUOUS
10
5.72299
20
-4.17287
11
5.72343
21
-4.17618
0
LINE
8
BLACK
6
CONTINUOUS
10
5.72343
20
-4.17618
11
5.72343
21
-4.1939
0
LINE
8
BLACK
6
CONTINUOUS
10
5.72343
20
-4.1939
11
5.72299
21
-4.19721
0
LINE
8
BLACK
6
CONTINUOUS
10
5.72299
20
-4.19721
11
5.72111
21
-4.20124
0
LINE
8
BLACK
6
CONTINUOUS
10
5.72111
20
-4.20124
11
5.71797
21
-4.20438
0
LINE
8
BLACK
6
CONTINUOUS
10
5.71797
20
-4.20438
11
5.71394
21
-4.20626
0
LINE
8
BLACK
6
CONTINUOUS
10
5.71394
20
-4.20626
11
5.71063
21
-4.20669
0
LINE
8
BLACK
6
CONTINUOUS
10
5.71063
20
-4.20669
11
5.69094
21
-4.20669
0
LINE
8
BLACK
6
CONTINUOUS
10
5.69094
20
-4.20669
11
5.68763
21
-4.20626
0
LINE
8
BLACK
6
CONTINUOUS
10
5.68763
20
-4.20626
11
5.68361
21
-4.20438
0
LINE
8
BLACK
6
CONTINUOUS
10
5.68361
20
-4.20438
11
5.68046
21
-4.20124
0
LINE
8
BLACK
6
CONTINUOUS
10
5.68046
20
-4.20124
11
5.67859
21
-4.19721
0
LINE
8
BLACK
6
CONTINUOUS
10
5.67859
20
-4.19721
11
5.67815
21
-4.1939
0
LINE
8
BLACK
6
CONTINUOUS
10
5.67815
20
-4.1939
11
5.67815
21
-4.17618
0
LINE
8
BLACK
6
CONTINUOUS
10
5.67815
20
-4.17618
11
5.67859
21
-4.17287
0
LINE
8
BLACK
6
CONTINUOUS
10
5.67859
20
-4.17287
11
5.68046
21
-4.16884
0
LINE
8
BLACK
6
CONTINUOUS
10
5.68046
20
-4.16884
11
5.68361
21
-4.1657
0
LINE
8
BLACK
6
CONTINUOUS
10
5.68361
20
-4.1657
11
5.68763
21
-4.16382
0
LINE
8
BLACK
6
CONTINUOUS
10
5.68763
20
-4.16382
11
5.69094
21
-4.16339
0
LINE
8
BLACK
6
CONTINUOUS
10
5.69094
20
-4.16339
11
5.71063
21
-4.16339
0
LINE
8
BLACK
6
CONTINUOUS
10
5.71063
20
-4.16339
11
5.71394
21
-4.16382
0
LINE
8
BLACK
6
CONTINUOUS
10
6.35184
20
-4.17102
11
6.35503
21
-4.17316
0
LINE
8
BLACK
6
CONTINUOUS
10
6.35503
20
-4.17316
11
6.35716
21
-4.17635
0
LINE
8
BLACK
6
CONTINUOUS
10
6.35716
20
-4.17635
11
6.35791
21
-4.18012
0
LINE
8
BLACK
6
CONTINUOUS
10
6.35791
20
-4.18012
11
6.35791
21
-4.19193
0
LINE
8
BLACK
6
CONTINUOUS
10
6.35791
20
-4.19193
11
6.35716
21
-4.1957
0
LINE
8
BLACK
6
CONTINUOUS
10
6.35716
20
-4.1957
11
6.35503
21
-4.19889
0
LINE
8
BLACK
6
CONTINUOUS
10
6.35503
20
-4.19889
11
6.35184
21
-4.20102
0
LINE
8
BLACK
6
CONTINUOUS
10
6.35184
20
-4.20102
11
6.34807
21
-4.20177
0
LINE
8
BLACK
6
CONTINUOUS
10
6.34807
20
-4.20177
11
6.29295
21
-4.20177
0
LINE
8
BLACK
6
CONTINUOUS
10
6.29295
20
-4.20177
11
6.28919
21
-4.20102
0
LINE
8
BLACK
6
CONTINUOUS
10
6.28919
20
-4.20102
11
6.28599
21
-4.19889
0
LINE
8
BLACK
6
CONTINUOUS
10
6.28599
20
-4.19889
11
6.28386
21
-4.1957
0
LINE
8
BLACK
6
CONTINUOUS
10
6.28386
20
-4.1957
11
6.28311
21
-4.19193
0
LINE
8
BLACK
6
CONTINUOUS
10
6.28311
20
-4.19193
11
6.28311
21
-4.18012
0
LINE
8
BLACK
6
CONTINUOUS
10
6.28311
20
-4.18012
11
6.28386
21
-4.17635
0
LINE
8
BLACK
6
CONTINUOUS
10
6.28386
20
-4.17635
11
6.28599
21
-4.17316
0
LINE
8
BLACK
6
CONTINUOUS
10
6.28599
20
-4.17316
11
6.28919
21
-4.17102
0
LINE
8
BLACK
6
CONTINUOUS
10
6.28919
20
-4.17102
11
6.29295
21
-4.17028
0
LINE
8
BLACK
6
CONTINUOUS
10
6.29295
20
-4.17028
11
6.34807
21
-4.17028
0
LINE
8
BLACK
6
CONTINUOUS
10
6.34807
20
-4.17028
11
6.35184
21
-4.17102
0
LINE
8
BLACK
6
CONTINUOUS
10
6.12733
20
-4.14709
11
6.13135
21
-4.14897
0
LINE
8
BLACK
6
CONTINUOUS
10
6.13135
20
-4.14897
11
6.1345
21
-4.15211
0
LINE
8
BLACK
6
CONTINUOUS
10
6.1345
20
-4.15211
11
6.13638
21
-4.15614
0
LINE
8
BLACK
6
CONTINUOUS
10
6.13638
20
-4.15614
11
6.13681
21
-4.15945
0
LINE
8
BLACK
6
CONTINUOUS
10
6.13681
20
-4.15945
11
6.13681
21
-4.17717
0
LINE
8
BLACK
6
CONTINUOUS
10
6.13681
20
-4.17717
11
6.13638
21
-4.18048
0
LINE
8
BLACK
6
CONTINUOUS
10
6.13638
20
-4.18048
11
6.1345
21
-4.1845
0
LINE
8
BLACK
6
CONTINUOUS
10
6.1345
20
-4.1845
11
6.13135
21
-4.18765
0
LINE
8
BLACK
6
CONTINUOUS
10
6.13135
20
-4.18765
11
6.12733
21
-4.18952
0
LINE
8
BLACK
6
CONTINUOUS
10
6.12733
20
-4.18952
11
6.12402
21
-4.18996
0
LINE
8
BLACK
6
CONTINUOUS
10
6.12402
20
-4.18996
11
6.10433
21
-4.18996
0
LINE
8
BLACK
6
CONTINUOUS
10
6.10433
20
-4.18996
11
6.10102
21
-4.18952
0
LINE
8
BLACK
6
CONTINUOUS
10
6.10102
20
-4.18952
11
6.09699
21
-4.18765
0
LINE
8
BLACK
6
CONTINUOUS
10
6.09699
20
-4.18765
11
6.09385
21
-4.1845
0
LINE
8
BLACK
6
CONTINUOUS
10
6.09385
20
-4.1845
11
6.09197
21
-4.18048
0
LINE
8
BLACK
6
CONTINUOUS
10
6.09197
20
-4.18048
11
6.09154
21
-4.17717
0
LINE
8
BLACK
6
CONTINUOUS
10
6.09154
20
-4.17717
11
6.09154
21
-4.15945
0
LINE
8
BLACK
6
CONTINUOUS
10
6.09154
20
-4.15945
11
6.09197
21
-4.15614
0
LINE
8
BLACK
6
CONTINUOUS
10
6.09197
20
-4.15614
11
6.09385
21
-4.15211
0
LINE
8
BLACK
6
CONTINUOUS
10
6.09385
20
-4.15211
11
6.09699
21
-4.14897
0
LINE
8
BLACK
6
CONTINUOUS
10
6.09699
20
-4.14897
11
6.10102
21
-4.14709
0
LINE
8
BLACK
6
CONTINUOUS
10
6.10102
20
-4.14709
11
6.10433
21
-4.14665
0
LINE
8
BLACK
6
CONTINUOUS
10
6.10433
20
-4.14665
11
6.12402
21
-4.14665
0
LINE
8
BLACK
6
CONTINUOUS
10
6.12402
20
-4.14665
11
6.12733
21
-4.14709
0
LINE
8
BLACK
6
CONTINUOUS
10
6.06471
20
-4.12925
11
6.06868
21
-4.131
0
LINE
8
BLACK
6
CONTINUOUS
10
6.06868
20
-4.131
11
6.07175
21
-4.13407
0
LINE
8
BLACK
6
CONTINUOUS
10
6.07175
20
-4.13407
11
6.07351
21
-4.13804
0
LINE
8
BLACK
6
CONTINUOUS
10
6.07351
20
-4.13804
11
6.07382
21
-4.14075
0
LINE
8
BLACK
6
CONTINUOUS
10
6.07382
20
-4.14075
11
6.07382
21
-4.1565
0
LINE
8
BLACK
6
CONTINUOUS
10
6.07382
20
-4.1565
11
6.07351
21
-4.1592
0
LINE
8
BLACK
6
CONTINUOUS
10
6.07351
20
-4.1592
11
6.07175
21
-4.16317
0
LINE
8
BLACK
6
CONTINUOUS
10
6.07175
20
-4.16317
11
6.06868
21
-4.16624
0
LINE
8
BLACK
6
CONTINUOUS
10
6.06868
20
-4.16624
11
6.06471
21
-4.16799
0
LINE
8
BLACK
6
CONTINUOUS
10
6.06471
20
-4.16799
11
6.06201
21
-4.16831
0
LINE
8
BLACK
6
CONTINUOUS
10
6.06201
20
-4.16831
11
6.04035
21
-4.16831
0
LINE
8
BLACK
6
CONTINUOUS
10
6.04035
20
-4.16831
11
6.03765
21
-4.16799
0
LINE
8
BLACK
6
CONTINUOUS
10
6.03765
20
-4.16799
11
6.03368
21
-4.16624
0
LINE
8
BLACK
6
CONTINUOUS
10
6.03368
20
-4.16624
11
6.03061
21
-4.16317
0
LINE
8
BLACK
6
CONTINUOUS
10
6.03061
20
-4.16317
11
6.02886
21
-4.1592
0
LINE
8
BLACK
6
CONTINUOUS
10
6.02886
20
-4.1592
11
6.02854
21
-4.1565
0
LINE
8
BLACK
6
CONTINUOUS
10
6.02854
20
-4.1565
11
6.02854
21
-4.14075
0
LINE
8
BLACK
6
CONTINUOUS
10
6.02854
20
-4.14075
11
6.02886
21
-4.13804
0
LINE
8
BLACK
6
CONTINUOUS
10
6.02886
20
-4.13804
11
6.03061
21
-4.13407
0
LINE
8
BLACK
6
CONTINUOUS
10
6.03061
20
-4.13407
11
6.03368
21
-4.131
0
LINE
8
BLACK
6
CONTINUOUS
10
6.03368
20
-4.131
11
6.03765
21
-4.12925
0
LINE
8
BLACK
6
CONTINUOUS
10
6.03765
20
-4.12925
11
6.04035
21
-4.12894
0
LINE
8
BLACK
6
CONTINUOUS
10
6.04035
20
-4.12894
11
6.06201
21
-4.12894
0
LINE
8
BLACK
6
CONTINUOUS
10
6.06201
20
-4.12894
11
6.06471
21
-4.12925
0
LINE
8
BLACK
6
CONTINUOUS
10
5.8478
20
-4.11756
11
5.85183
21
-4.11944
0
LINE
8
BLACK
6
CONTINUOUS
10
5.85183
20
-4.11944
11
5.85497
21
-4.12258
0
LINE
8
BLACK
6
CONTINUOUS
10
5.85497
20
-4.12258
11
5.85685
21
-4.12661
0
LINE
8
BLACK
6
CONTINUOUS
10
5.85685
20
-4.12661
11
5.85728
21
-4.12992
0
LINE
8
BLACK
6
CONTINUOUS
10
5.85728
20
-4.12992
11
5.85728
21
-4.14764
0
LINE
8
BLACK
6
CONTINUOUS
10
5.85728
20
-4.14764
11
5.85685
21
-4.15095
0
LINE
8
BLACK
6
CONTINUOUS
10
5.85685
20
-4.15095
11
5.85497
21
-4.15498
0
LINE
8
BLACK
6
CONTINUOUS
10
5.85497
20
-4.15498
11
5.85183
21
-4.15812
0
LINE
8
BLACK
6
CONTINUOUS
10
5.85183
20
-4.15812
11
5.8478
21
-4.16
0
LINE
8
BLACK
6
CONTINUOUS
10
5.8478
20
-4.16
11
5.84449
21
-4.16043
0
LINE
8
BLACK
6
CONTINUOUS
10
5.84449
20
-4.16043
11
5.8248
21
-4.16043
0
LINE
8
BLACK
6
CONTINUOUS
10
5.8248
20
-4.16043
11
5.82149
21
-4.16
0
LINE
8
BLACK
6
CONTINUOUS
10
5.82149
20
-4.16
11
5.81746
21
-4.15812
0
LINE
8
BLACK
6
CONTINUOUS
10
5.81746
20
-4.15812
11
5.81432
21
-4.15498
0
LINE
8
BLACK
6
CONTINUOUS
10
5.81432
20
-4.15498
11
5.81244
21
-4.15095
0
LINE
8
BLACK
6
CONTINUOUS
10
5.81244
20
-4.15095
11
5.81201
21
-4.14764
0
LINE
8
BLACK
6
CONTINUOUS
10
5.81201
20
-4.14764
11
5.81201
21
-4.12992
0
LINE
8
BLACK
6
CONTINUOUS
10
5.81201
20
-4.12992
11
5.81244
21
-4.12661
0
LINE
8
BLACK
6
CONTINUOUS
10
5.81244
20
-4.12661
11
5.81432
21
-4.12258
0
LINE
8
BLACK
6
CONTINUOUS
10
5.81432
20
-4.12258
11
5.81746
21
-4.11944
0
LINE
8
BLACK
6
CONTINUOUS
10
5.81746
20
-4.11944
11
5.82149
21
-4.11756
0
LINE
8
BLACK
6
CONTINUOUS
10
5.82149
20
-4.11756
11
5.8248
21
-4.11713
0
LINE
8
BLACK
6
CONTINUOUS
10
5.8248
20
-4.11713
11
5.84449
21
-4.11713
0
LINE
8
BLACK
6
CONTINUOUS
10
5.84449
20
-4.11713
11
5.8478
21
-4.11756
0
LINE
8
BLACK
6
CONTINUOUS
10
5.7866
20
-4.1146
11
5.79055
21
-4.11644
0
LINE
8
BLACK
6
CONTINUOUS
10
5.79055
20
-4.11644
11
5.79364
21
-4.11952
0
LINE
8
BLACK
6
CONTINUOUS
10
5.79364
20
-4.11952
11
5.79548
21
-4.12347
0
LINE
8
BLACK
6
CONTINUOUS
10
5.79548
20
-4.12347
11
5.79591
21
-4.12672
0
LINE
8
BLACK
6
CONTINUOUS
10
5.79591
20
-4.12672
11
5.79591
21
-4.14395
0
LINE
8
BLACK
6
CONTINUOUS
10
5.79591
20
-4.14395
11
5.79548
21
-4.14719
0
LINE
8
BLACK
6
CONTINUOUS
10
5.79548
20
-4.14719
11
5.79364
21
-4.15114
0
LINE
8
BLACK
6
CONTINUOUS
10
5.79364
20
-4.15114
11
5.79055
21
-4.15423
0
LINE
8
BLACK
6
CONTINUOUS
10
5.79055
20
-4.15423
11
5.7866
21
-4.15607
0
LINE
8
BLACK
6
CONTINUOUS
10
5.7866
20
-4.15607
11
5.78336
21
-4.1565
0
LINE
8
BLACK
6
CONTINUOUS
10
5.78336
20
-4.1565
11
5.75334
21
-4.1565
0
LINE
8
BLACK
6
CONTINUOUS
10
5.75334
20
-4.1565
11
5.75009
21
-4.15607
0
LINE
8
BLACK
6
CONTINUOUS
10
5.75009
20
-4.15607
11
5.74614
21
-4.15423
0
LINE
8
BLACK
6
CONTINUOUS
10
5.74614
20
-4.15423
11
5.74306
21
-4.15114
0
LINE
8
BLACK
6
CONTINUOUS
10
5.74306
20
-4.15114
11
5.74121
21
-4.14719
0
LINE
8
BLACK
6
CONTINUOUS
10
5.74121
20
-4.14719
11
5.74079
21
-4.14395
0
LINE
8
BLACK
6
CONTINUOUS
10
5.74079
20
-4.14395
11
5.74079
21
-4.12672
0
LINE
8
BLACK
6
CONTINUOUS
10
5.74079
20
-4.12672
11
5.74121
21
-4.12347
0
LINE
8
BLACK
6
CONTINUOUS
10
5.74121
20
-4.12347
11
5.74306
21
-4.11952
0
LINE
8
BLACK
6
CONTINUOUS
10
5.74306
20
-4.11952
11
5.74614
21
-4.11644
0
LINE
8
BLACK
6
CONTINUOUS
10
5.74614
20
-4.11644
11
5.75009
21
-4.1146
0
LINE
8
BLACK
6
CONTINUOUS
10
5.75009
20
-4.1146
11
5.75334
21
-4.11417
0
LINE
8
BLACK
6
CONTINUOUS
10
5.75334
20
-4.11417
11
5.78336
21
-4.11417
0
LINE
8
BLACK
6
CONTINUOUS
10
5.78336
20
-4.11417
11
5.7866
21
-4.1146
0
LINE
8
BLACK
6
CONTINUOUS
10
5.90723
20
-4.11744
11
5.9112
21
-4.11919
0
LINE
8
BLACK
6
CONTINUOUS
10
5.9112
20
-4.11919
11
5.91427
21
-4.12226
0
LINE
8
BLACK
6
CONTINUOUS
10
5.91427
20
-4.12226
11
5.91602
21
-4.12623
0
LINE
8
BLACK
6
CONTINUOUS
10
5.91602
20
-4.12623
11
5.91634
21
-4.12894
0
LINE
8
BLACK
6
CONTINUOUS
10
5.91634
20
-4.12894
11
5.91634
21
-4.14469
0
LINE
8
BLACK
6
CONTINUOUS
10
5.91634
20
-4.14469
11
5.91602
21
-4.14739
0
LINE
8
BLACK
6
CONTINUOUS
10
5.91602
20
-4.14739
11
5.91427
21
-4.15136
0
LINE
8
BLACK
6
CONTINUOUS
10
5.91427
20
-4.15136
11
5.9112
21
-4.15443
0
LINE
8
BLACK
6
CONTINUOUS
10
5.9112
20
-4.15443
11
5.90723
21
-4.15618
0
LINE
8
BLACK
6
CONTINUOUS
10
5.90723
20
-4.15618
11
5.90453
21
-4.1565
0
LINE
8
BLACK
6
CONTINUOUS
10
5.90453
20
-4.1565
11
5.88287
21
-4.1565
0
LINE
8
BLACK
6
CONTINUOUS
10
5.88287
20
-4.1565
11
5.88017
21
-4.15618
0
LINE
8
BLACK
6
CONTINUOUS
10
5.88017
20
-4.15618
11
5.8762
21
-4.15443
0
LINE
8
BLACK
6
CONTINUOUS
10
5.8762
20
-4.15443
11
5.87313
21
-4.15136
0
LINE
8
BLACK
6
CONTINUOUS
10
5.87313
20
-4.15136
11
5.87138
21
-4.14739
0
LINE
8
BLACK
6
CONTINUOUS
10
5.87138
20
-4.14739
11
5.87106
21
-4.14469
0
LINE
8
BLACK
6
CONTINUOUS
10
5.87106
20
-4.14469
11
5.87106
21
-4.12894
0
LINE
8
BLACK
6
CONTINUOUS
10
5.87106
20
-4.12894
11
5.87138
21
-4.12623
0
LINE
8
BLACK
6
CONTINUOUS
10
5.87138
20
-4.12623
11
5.87313
21
-4.12226
0
LINE
8
BLACK
6
CONTINUOUS
10
5.87313
20
-4.12226
11
5.8762
21
-4.11919
0
LINE
8
BLACK
6
CONTINUOUS
10
5.8762
20
-4.11919
11
5.88017
21
-4.11744
0
LINE
8
BLACK
6
CONTINUOUS
10
5.88017
20
-4.11744
11
5.88287
21
-4.11713
0
LINE
8
BLACK
6
CONTINUOUS
10
5.88287
20
-4.11713
11
5.90453
21
-4.11713
0
LINE
8
BLACK
6
CONTINUOUS
10
5.90453
20
-4.11713
11
5.90723
21
-4.11744
0
LINE
8
BLACK
6
CONTINUOUS
10
6.35184
20
-4.12181
11
6.35503
21
-4.12395
0
LINE
8
BLACK
6
CONTINUOUS
10
6.35503
20
-4.12395
11
6.35716
21
-4.12714
0
LINE
8
BLACK
6
CONTINUOUS
10
6.35716
20
-4.12714
11
6.35791
21
-4.13091
0
LINE
8
BLACK
6
CONTINUOUS
10
6.35791
20
-4.13091
11
6.35791
21
-4.14272
0
LINE
8
BLACK
6
CONTINUOUS
10
6.35791
20
-4.14272
11
6.35716
21
-4.14648
0
LINE
8
BLACK
6
CONTINUOUS
10
6.35716
20
-4.14648
11
6.35503
21
-4.14968
0
LINE
8
BLACK
6
CONTINUOUS
10
6.35503
20
-4.14968
11
6.35184
21
-4.15181
0
LINE
8
BLACK
6
CONTINUOUS
10
6.35184
20
-4.15181
11
6.34807
21
-4.15256
0
LINE
8
BLACK
6
CONTINUOUS
10
6.34807
20
-4.15256
11
6.29295
21
-4.15256
0
LINE
8
BLACK
6
CONTINUOUS
10
6.29295
20
-4.15256
11
6.28919
21
-4.15181
0
LINE
8
BLACK
6
CONTINUOUS
10
6.28919
20
-4.15181
11
6.28599
21
-4.14968
0
LINE
8
BLACK
6
CONTINUOUS
10
6.28599
20
-4.14968
11
6.28386
21
-4.14648
0
LINE
8
BLACK
6
CONTINUOUS
10
6.28386
20
-4.14648
11
6.28311
21
-4.14272
0
LINE
8
BLACK
6
CONTINUOUS
10
6.28311
20
-4.14272
11
6.28311
21
-4.13091
0
LINE
8
BLACK
6
CONTINUOUS
10
6.28311
20
-4.13091
11
6.28386
21
-4.12714
0
LINE
8
BLACK
6
CONTINUOUS
10
6.28386
20
-4.12714
11
6.28599
21
-4.12395
0
LINE
8
BLACK
6
CONTINUOUS
10
6.28599
20
-4.12395
11
6.28919
21
-4.12181
0
LINE
8
BLACK
6
CONTINUOUS
10
6.28919
20
-4.12181
11
6.29295
21
-4.12106
0
LINE
8
BLACK
6
CONTINUOUS
10
6.29295
20
-4.12106
11
6.34807
21
-4.12106
0
LINE
8
BLACK
6
CONTINUOUS
10
6.34807
20
-4.12106
11
6.35184
21
-4.12181
0
LINE
8
BLACK
6
CONTINUOUS
10
5.64467
20
-4.09515
11
5.65064
21
-4.09669
0
LINE
8
BLACK
6
CONTINUOUS
10
5.65064
20
-4.09669
11
5.65605
21
-4.09966
0
LINE
8
BLACK
6
CONTINUOUS
10
5.65605
20
-4.09966
11
5.66054
21
-4.10388
0
LINE
8
BLACK
6
CONTINUOUS
10
5.66054
20
-4.10388
11
5.66385
21
-4.10909
0
LINE
8
BLACK
6
CONTINUOUS
10
5.66385
20
-4.10909
11
5.66575
21
-4.11496
0
LINE
8
BLACK
6
CONTINUOUS
10
5.66575
20
-4.11496
11
5.66614
21
-4.12111
0
LINE
8
BLACK
6
CONTINUOUS
10
5.66614
20
-4.12111
11
5.66498
21
-4.12717
0
LINE
8
BLACK
6
CONTINUOUS
10
5.66498
20
-4.12717
11
5.66236
21
-4.13275
0
LINE
8
BLACK
6
CONTINUOUS
10
5.66236
20
-4.13275
11
5.65843
21
-4.1375
0
LINE
8
BLACK
6
CONTINUOUS
10
5.65843
20
-4.1375
11
5.65344
21
-4.14113
0
LINE
8
BLACK
6
CONTINUOUS
10
5.65344
20
-4.14113
11
5.6477
21
-4.1434
0
LINE
8
BLACK
6
CONTINUOUS
10
5.6477
20
-4.1434
11
5.64158
21
-4.14417
0
LINE
8
BLACK
6
CONTINUOUS
10
5.64158
20
-4.14417
11
5.60024
21
-4.14417
0
LINE
8
BLACK
6
CONTINUOUS
10
5.60024
20
-4.14417
11
5.59716
21
-4.14398
0
LINE
8
BLACK
6
CONTINUOUS
10
5.59716
20
-4.14398
11
5.59119
21
-4.14245
0
LINE
8
BLACK
6
CONTINUOUS
10
5.59119
20
-4.14245
11
5.58578
21
-4.13947
0
LINE
8
BLACK
6
CONTINUOUS
10
5.58578
20
-4.13947
11
5.58128
21
-4.13525
0
LINE
8
BLACK
6
CONTINUOUS
10
5.58128
20
-4.13525
11
5.57798
21
-4.13004
0
LINE
8
BLACK
6
CONTINUOUS
10
5.57798
20
-4.13004
11
5.57607
21
-4.12418
0
LINE
8
BLACK
6
CONTINUOUS
10
5.57607
20
-4.12418
11
5.57569
21
-4.11802
0
LINE
8
BLACK
6
CONTINUOUS
10
5.57569
20
-4.11802
11
5.57684
21
-4.11196
0
LINE
8
BLACK
6
CONTINUOUS
10
5.57684
20
-4.11196
11
5.57947
21
-4.10638
0
LINE
8
BLACK
6
CONTINUOUS
10
5.57947
20
-4.10638
11
5.5834
21
-4.10163
0
LINE
8
BLACK
6
CONTINUOUS
10
5.5834
20
-4.10163
11
5.58839
21
-4.098
0
LINE
8
BLACK
6
CONTINUOUS
10
5.58839
20
-4.098
11
5.59412
21
-4.09573
0
LINE
8
BLACK
6
CONTINUOUS
10
5.59412
20
-4.09573
11
5.60024
21
-4.09496
0
LINE
8
BLACK
6
CONTINUOUS
10
5.60024
20
-4.09496
11
5.64158
21
-4.09496
0
LINE
8
BLACK
6
CONTINUOUS
10
5.64158
20
-4.09496
11
5.64467
21
-4.09515
0
LINE
8
BLACK
6
CONTINUOUS
10
5.48215
20
-4.09675
11
5.48784
21
-4.09911
0
LINE
8
BLACK
6
CONTINUOUS
10
5.48784
20
-4.09911
11
5.49273
21
-4.10286
0
LINE
8
BLACK
6
CONTINUOUS
10
5.49273
20
-4.10286
11
5.49649
21
-4.10776
0
LINE
8
BLACK
6
CONTINUOUS
10
5.49649
20
-4.10776
11
5.49885
21
-4.11345
0
LINE
8
BLACK
6
CONTINUOUS
10
5.49885
20
-4.11345
11
5.49965
21
-4.11957
0
LINE
8
BLACK
6
CONTINUOUS
10
5.49965
20
-4.11957
11
5.49885
21
-4.12568
0
LINE
8
BLACK
6
CONTINUOUS
10
5.49885
20
-4.12568
11
5.49649
21
-4.13138
0
LINE
8
BLACK
6
CONTINUOUS
10
5.49649
20
-4.13138
11
5.49273
21
-4.13627
0
LINE
8
BLACK
6
CONTINUOUS
10
5.49273
20
-4.13627
11
5.48784
21
-4.14002
0
LINE
8
BLACK
6
CONTINUOUS
10
5.48784
20
-4.14002
11
5.48215
21
-4.14238
0
LINE
8
BLACK
6
CONTINUOUS
10
5.48215
20
-4.14238
11
5.47603
21
-4.14319
0
LINE
8
BLACK
6
CONTINUOUS
10
5.47603
20
-4.14319
11
5.43666
21
-4.14319
0
LINE
8
BLACK
6
CONTINUOUS
10
5.43666
20
-4.14319
11
5.43055
21
-4.14238
0
LINE
8
BLACK
6
CONTINUOUS
10
5.43055
20
-4.14238
11
5.42485
21
-4.14002
0
LINE
8
BLACK
6
CONTINUOUS
10
5.42485
20
-4.14002
11
5.41996
21
-4.13627
0
LINE
8
BLACK
6
CONTINUOUS
10
5.41996
20
-4.13627
11
5.4162
21
-4.13138
0
LINE
8
BLACK
6
CONTINUOUS
10
5.4162
20
-4.13138
11
5.41384
21
-4.12568
0
LINE
8
BLACK
6
CONTINUOUS
10
5.41384
20
-4.12568
11
5.41304
21
-4.11957
0
LINE
8
BLACK
6
CONTINUOUS
10
5.41304
20
-4.11957
11
5.41384
21
-4.11345
0
LINE
8
BLACK
6
CONTINUOUS
10
5.41384
20
-4.11345
11
5.4162
21
-4.10776
0
LINE
8
BLACK
6
CONTINUOUS
10
5.4162
20
-4.10776
11
5.41996
21
-4.10286
0
LINE
8
BLACK
6
CONTINUOUS
10
5.41996
20
-4.10286
11
5.42485
21
-4.09911
0
LINE
8
BLACK
6
CONTINUOUS
10
5.42485
20
-4.09911
11
5.43055
21
-4.09675
0
LINE
8
BLACK
6
CONTINUOUS
10
5.43055
20
-4.09675
11
5.43666
21
-4.09594
0
LINE
8
BLACK
6
CONTINUOUS
10
5.43666
20
-4.09594
11
5.47603
21
-4.09594
0
LINE
8
BLACK
6
CONTINUOUS
10
5.47603
20
-4.09594
11
5.48215
21
-4.09675
0
LINE
8
BLACK
6
CONTINUOUS
10
6.12733
20
-4.08607
11
6.13135
21
-4.08794
0
LINE
8
BLACK
6
CONTINUOUS
10
6.13135
20
-4.08794
11
6.1345
21
-4.09109
0
LINE
8
BLACK
6
CONTINUOUS
10
6.1345
20
-4.09109
11
6.13638
21
-4.09511
0
LINE
8
BLACK
6
CONTINUOUS
10
6.13638
20
-4.09511
11
6.13681
21
-4.09843
0
LINE
8
BLACK
6
CONTINUOUS
10
6.13681
20
-4.09843
11
6.13681
21
-4.11614
0
LINE
8
BLACK
6
CONTINUOUS
10
6.13681
20
-4.11614
11
6.13638
21
-4.11945
0
LINE
8
BLACK
6
CONTINUOUS
10
6.13638
20
-4.11945
11
6.1345
21
-4.12348
0
LINE
8
BLACK
6
CONTINUOUS
10
6.1345
20
-4.12348
11
6.13135
21
-4.12662
0
LINE
8
BLACK
6
CONTINUOUS
10
6.13135
20
-4.12662
11
6.12733
21
-4.1285
0
LINE
8
BLACK
6
CONTINUOUS
10
6.12733
20
-4.1285
11
6.12402
21
-4.12894
0
LINE
8
BLACK
6
CONTINUOUS
10
6.12402
20
-4.12894
11
6.10433
21
-4.12894
0
LINE
8
BLACK
6
CONTINUOUS
10
6.10433
20
-4.12894
11
6.10102
21
-4.1285
0
LINE
8
BLACK
6
CONTINUOUS
10
6.10102
20
-4.1285
11
6.09699
21
-4.12662
0
LINE
8
BLACK
6
CONTINUOUS
10
6.09699
20
-4.12662
11
6.09385
21
-4.12348
0
LINE
8
BLACK
6
CONTINUOUS
10
6.09385
20
-4.12348
11
6.09197
21
-4.11945
0
LINE
8
BLACK
6
CONTINUOUS
10
6.09197
20
-4.11945
11
6.09154
21
-4.11614
0
LINE
8
BLACK
6
CONTINUOUS
10
6.09154
20
-4.11614
11
6.09154
21
-4.09843
0
LINE
8
BLACK
6
CONTINUOUS
10
6.09154
20
-4.09843
11
6.09197
21
-4.09511
0
LINE
8
BLACK
6
CONTINUOUS
10
6.09197
20
-4.09511
11
6.09385
21
-4.09109
0
LINE
8
BLACK
6
CONTINUOUS
10
6.09385
20
-4.09109
11
6.09699
21
-4.08794
0
LINE
8
BLACK
6
CONTINUOUS
10
6.09699
20
-4.08794
11
6.10102
21
-4.08607
0
LINE
8
BLACK
6
CONTINUOUS
10
6.10102
20
-4.08607
11
6.10433
21
-4.08563
0
LINE
8
BLACK
6
CONTINUOUS
10
6.10433
20
-4.08563
11
6.12402
21
-4.08563
0
LINE
8
BLACK
6
CONTINUOUS
10
6.12402
20
-4.08563
11
6.12733
21
-4.08607
0
LINE
8
BLACK
6
CONTINUOUS
10
5.6064
20
-4.04735
11
5.61106
21
-4.04973
0
LINE
8
BLACK
6
CONTINUOUS
10
5.61106
20
-4.04973
11
5.61477
21
-4.05343
0
LINE
8
BLACK
6
CONTINUOUS
10
5.61477
20
-4.05343
11
5.61714
21
-4.0581
0
LINE
8
BLACK
6
CONTINUOUS
10
5.61714
20
-4.0581
11
5.61769
21
-4.06154
0
LINE
8
BLACK
6
CONTINUOUS
10
5.61769
20
-4.06154
11
5.61813
21
-4.06088
0
LINE
8
BLACK
6
CONTINUOUS
10
5.61813
20
-4.06088
11
5.61941
21
-4.06002
0
LINE
8
BLACK
6
CONTINUOUS
10
5.61941
20
-4.06002
11
5.62091
21
-4.05972
0
LINE
8
BLACK
6
CONTINUOUS
10
5.62091
20
-4.05972
11
5.61941
21
-4.05942
0
LINE
8
BLACK
6
CONTINUOUS
10
5.61941
20
-4.05942
11
5.61813
21
-4.05857
0
LINE
8
BLACK
6
CONTINUOUS
10
5.61813
20
-4.05857
11
5.61728
21
-4.05729
0
LINE
8
BLACK
6
CONTINUOUS
10
5.61728
20
-4.05729
11
5.61698
21
-4.05579
0
LINE
8
BLACK
6
CONTINUOUS
10
5.61698
20
-4.05579
11
5.61698
21
-4.03217
0
LINE
8
BLACK
6
CONTINUOUS
10
5.61698
20
-4.03217
11
5.61728
21
-4.03066
0
LINE
8
BLACK
6
CONTINUOUS
10
5.61728
20
-4.03066
11
5.61813
21
-4.02938
0
LINE
8
BLACK
6
CONTINUOUS
10
5.61813
20
-4.02938
11
5.61941
21
-4.02853
0
LINE
8
BLACK
6
CONTINUOUS
10
5.61941
20
-4.02853
11
5.62091
21
-4.02823
0
LINE
8
BLACK
6
CONTINUOUS
10
5.62091
20
-4.02823
11
5.61941
21
-4.02793
0
LINE
8
BLACK
6
CONTINUOUS
10
5.61941
20
-4.02793
11
5.61813
21
-4.02708
0
LINE
8
BLACK
6
CONTINUOUS
10
5.61813
20
-4.02708
11
5.61728
21
-4.0258
0
LINE
8
BLACK
6
CONTINUOUS
10
5.61728
20
-4.0258
11
5.61698
21
-4.02429
0
LINE
8
BLACK
6
CONTINUOUS
10
5.61698
20
-4.02429
11
5.61698
21
-4.01248
0
LINE
8
BLACK
6
CONTINUOUS
10
5.61698
20
-4.01248
11
5.61728
21
-4.01097
0
LINE
8
BLACK
6
CONTINUOUS
10
5.61728
20
-4.01097
11
5.61813
21
-4.0097
0
LINE
8
BLACK
6
CONTINUOUS
10
5.61813
20
-4.0097
11
5.61941
21
-4.00884
0
LINE
8
BLACK
6
CONTINUOUS
10
5.61941
20
-4.00884
11
5.62091
21
-4.00854
0
LINE
8
BLACK
6
CONTINUOUS
10
5.62091
20
-4.00854
11
5.61941
21
-4.00824
0
LINE
8
BLACK
6
CONTINUOUS
10
5.61941
20
-4.00824
11
5.61813
21
-4.00739
0
LINE
8
BLACK
6
CONTINUOUS
10
5.61813
20
-4.00739
11
5.61728
21
-4.00611
0
LINE
8
BLACK
6
CONTINUOUS
10
5.61728
20
-4.00611
11
5.61698
21
-4.00461
0
LINE
8
BLACK
6
CONTINUOUS
10
5.61698
20
-4.00461
11
5.61698
21
-3.9928
0
LINE
8
BLACK
6
CONTINUOUS
10
5.61698
20
-3.9928
11
5.61728
21
-3.99129
0
LINE
8
BLACK
6
CONTINUOUS
10
5.61728
20
-3.99129
11
5.61813
21
-3.99001
0
LINE
8
BLACK
6
CONTINUOUS
10
5.61813
20
-3.99001
11
5.61941
21
-3.98916
0
LINE
8
BLACK
6
CONTINUOUS
10
5.61941
20
-3.98916
11
5.62091
21
-3.98886
0
LINE
8
BLACK
6
CONTINUOUS
10
5.62091
20
-3.98886
11
5.61941
21
-3.98856
0
LINE
8
BLACK
6
CONTINUOUS
10
5.61941
20
-3.98856
11
5.61813
21
-3.98771
0
LINE
8
BLACK
6
CONTINUOUS
10
5.61813
20
-3.98771
11
5.61728
21
-3.98643
0
LINE
8
BLACK
6
CONTINUOUS
10
5.61728
20
-3.98643
11
5.61698
21
-3.98492
0
LINE
8
BLACK
6
CONTINUOUS
10
5.61698
20
-3.98492
11
5.61698
21
-3.97311
0
LINE
8
BLACK
6
CONTINUOUS
10
5.61698
20
-3.97311
11
5.61728
21
-3.9716
0
LINE
8
BLACK
6
CONTINUOUS
10
5.61728
20
-3.9716
11
5.61813
21
-3.97033
0
LINE
8
BLACK
6
CONTINUOUS
10
5.61813
20
-3.97033
11
5.61941
21
-3.96947
0
LINE
8
BLACK
6
CONTINUOUS
10
5.61941
20
-3.96947
11
5.62091
21
-3.96917
0
LINE
8
BLACK
6
CONTINUOUS
10
5.62091
20
-3.96917
11
5.61941
21
-3.96887
0
LINE
8
BLACK
6
CONTINUOUS
10
5.61941
20
-3.96887
11
5.61813
21
-3.96802
0
LINE
8
BLACK
6
CONTINUOUS
10
5.61813
20
-3.96802
11
5.61728
21
-3.96674
0
LINE
8
BLACK
6
CONTINUOUS
10
5.61728
20
-3.96674
11
5.61698
21
-3.96524
0
LINE
8
BLACK
6
CONTINUOUS
10
5.61698
20
-3.96524
11
5.61698
21
-3.95343
0
LINE
8
BLACK
6
CONTINUOUS
10
5.61698
20
-3.95343
11
5.61728
21
-3.95192
0
LINE
8
BLACK
6
CONTINUOUS
10
5.61728
20
-3.95192
11
5.61813
21
-3.95064
0
LINE
8
BLACK
6
CONTINUOUS
10
5.61813
20
-3.95064
11
5.61941
21
-3.94979
0
LINE
8
BLACK
6
CONTINUOUS
10
5.61941
20
-3.94979
11
5.62091
21
-3.94949
0
LINE
8
BLACK
6
CONTINUOUS
10
5.62091
20
-3.94949
11
5.61941
21
-3.94919
0
LINE
8
BLACK
6
CONTINUOUS
10
5.61941
20
-3.94919
11
5.61813
21
-3.94834
0
LINE
8
BLACK
6
CONTINUOUS
10
5.61813
20
-3.94834
11
5.61728
21
-3.94706
0
LINE
8
BLACK
6
CONTINUOUS
10
5.61728
20
-3.94706
11
5.61698
21
-3.94555
0
LINE
8
BLACK
6
CONTINUOUS
10
5.61698
20
-3.94555
11
5.61698
21
-3.93374
0
LINE
8
BLACK
6
CONTINUOUS
10
5.61698
20
-3.93374
11
5.61728
21
-3.93223
0
LINE
8
BLACK
6
CONTINUOUS
10
5.61728
20
-3.93223
11
5.61813
21
-3.93096
0
LINE
8
BLACK
6
CONTINUOUS
10
5.61813
20
-3.93096
11
5.61941
21
-3.9301
0
LINE
8
BLACK
6
CONTINUOUS
10
5.61941
20
-3.9301
11
5.62091
21
-3.9298
0
LINE
8
BLACK
6
CONTINUOUS
10
5.62091
20
-3.9298
11
5.61941
21
-3.9295
0
LINE
8
BLACK
6
CONTINUOUS
10
5.61941
20
-3.9295
11
5.61813
21
-3.92865
0
LINE
8
BLACK
6
CONTINUOUS
10
5.61813
20
-3.92865
11
5.61728
21
-3.92737
0
LINE
8
BLACK
6
CONTINUOUS
10
5.61728
20
-3.92737
11
5.61698
21
-3.92587
0
LINE
8
BLACK
6
CONTINUOUS
10
5.61698
20
-3.92587
11
5.61698
21
-3.91406
0
LINE
8
BLACK
6
CONTINUOUS
10
5.61698
20
-3.91406
11
5.61728
21
-3.91255
0
LINE
8
BLACK
6
CONTINUOUS
10
5.61728
20
-3.91255
11
5.61813
21
-3.91127
0
LINE
8
BLACK
6
CONTINUOUS
10
5.61813
20
-3.91127
11
5.61941
21
-3.91042
0
LINE
8
BLACK
6
CONTINUOUS
10
5.61941
20
-3.91042
11
5.62091
21
-3.91012
0
LINE
8
BLACK
6
CONTINUOUS
10
5.62091
20
-3.91012
11
5.61941
21
-3.90982
0
LINE
8
BLACK
6
CONTINUOUS
10
5.61941
20
-3.90982
11
5.61813
21
-3.90896
0
LINE
8
BLACK
6
CONTINUOUS
10
5.61813
20
-3.90896
11
5.61728
21
-3.90769
0
LINE
8
BLACK
6
CONTINUOUS
10
5.61728
20
-3.90769
11
5.61698
21
-3.90618
0
LINE
8
BLACK
6
CONTINUOUS
10
5.61698
20
-3.90618
11
5.61698
21
-3.89437
0
LINE
8
BLACK
6
CONTINUOUS
10
5.61698
20
-3.89437
11
5.61728
21
-3.89286
0
LINE
8
BLACK
6
CONTINUOUS
10
5.61728
20
-3.89286
11
5.61813
21
-3.89159
0
LINE
8
BLACK
6
CONTINUOUS
10
5.61813
20
-3.89159
11
5.61941
21
-3.89073
0
LINE
8
BLACK
6
CONTINUOUS
10
5.61941
20
-3.89073
11
5.62091
21
-3.89043
0
LINE
8
BLACK
6
CONTINUOUS
10
5.62091
20
-3.89043
11
5.61941
21
-3.89013
0
LINE
8
BLACK
6
CONTINUOUS
10
5.61941
20
-3.89013
11
5.61813
21
-3.88928
0
LINE
8
BLACK
6
CONTINUOUS
10
5.61813
20
-3.88928
11
5.61728
21
-3.888
0
LINE
8
BLACK
6
CONTINUOUS
10
5.61728
20
-3.888
11
5.61698
21
-3.8865
0
LINE
8
BLACK
6
CONTINUOUS
10
5.61698
20
-3.8865
11
5.61698
21
-3.87469
0
LINE
8
BLACK
6
CONTINUOUS
10
5.61698
20
-3.87469
11
5.61728
21
-3.87318
0
LINE
8
BLACK
6
CONTINUOUS
10
5.61728
20
-3.87318
11
5.61813
21
-3.8719
0
LINE
8
BLACK
6
CONTINUOUS
10
5.61813
20
-3.8719
11
5.61941
21
-3.87105
0
LINE
8
BLACK
6
CONTINUOUS
10
5.61941
20
-3.87105
11
5.62091
21
-3.87075
0
LINE
8
BLACK
6
CONTINUOUS
10
5.62091
20
-3.87075
11
5.61941
21
-3.87045
0
LINE
8
BLACK
6
CONTINUOUS
10
5.61941
20
-3.87045
11
5.61813
21
-3.86959
0
LINE
8
BLACK
6
CONTINUOUS
10
5.61813
20
-3.86959
11
5.61728
21
-3.86832
0
LINE
8
BLACK
6
CONTINUOUS
10
5.61728
20
-3.86832
11
5.61698
21
-3.86681
0
LINE
8
BLACK
6
CONTINUOUS
10
5.61698
20
-3.86681
11
5.61698
21
-3.84319
0
LINE
8
BLACK
6
CONTINUOUS
10
5.61698
20
-3.84319
11
5.61728
21
-3.84168
0
LINE
8
BLACK
6
CONTINUOUS
10
5.61728
20
-3.84168
11
5.61813
21
-3.84041
0
LINE
8
BLACK
6
CONTINUOUS
10
5.61813
20
-3.84041
11
5.61941
21
-3.83955
0
LINE
8
BLACK
6
CONTINUOUS
10
5.61941
20
-3.83955
11
5.62091
21
-3.83925
0
LINE
8
BLACK
6
CONTINUOUS
10
5.62091
20
-3.83925
11
5.61941
21
-3.83895
0
LINE
8
BLACK
6
CONTINUOUS
10
5.61941
20
-3.83895
11
5.61813
21
-3.8381
0
LINE
8
BLACK
6
CONTINUOUS
10
5.61813
20
-3.8381
11
5.61769
21
-3.83744
0
LINE
8
BLACK
6
CONTINUOUS
10
5.61769
20
-3.83744
11
5.61714
21
-3.84088
0
LINE
8
BLACK
6
CONTINUOUS
10
5.61714
20
-3.84088
11
5.61477
21
-3.84554
0
LINE
8
BLACK
6
CONTINUOUS
10
5.61477
20
-3.84554
11
5.61106
21
-3.84925
0
LINE
8
BLACK
6
CONTINUOUS
10
5.61106
20
-3.84925
11
5.6064
21
-3.85162
0
LINE
8
BLACK
6
CONTINUOUS
10
5.6064
20
-3.85162
11
5.60123
21
-3.85244
0
LINE
8
BLACK
6
CONTINUOUS
10
5.60123
20
-3.85244
11
5.59606
21
-3.85162
0
LINE
8
BLACK
6
CONTINUOUS
10
5.59606
20
-3.85162
11
5.59139
21
-3.84925
0
LINE
8
BLACK
6
CONTINUOUS
10
5.59139
20
-3.84925
11
5.58769
21
-3.84554
0
LINE
8
BLACK
6
CONTINUOUS
10
5.58769
20
-3.84554
11
5.58531
21
-3.84088
0
LINE
8
BLACK
6
CONTINUOUS
10
5.58531
20
-3.84088
11
5.5845
21
-3.83571
0
LINE
8
BLACK
6
CONTINUOUS
10
5.5845
20
-3.83571
11
5.58531
21
-3.83054
0
LINE
8
BLACK
6
CONTINUOUS
10
5.58531
20
-3.83054
11
5.58769
21
-3.82587
0
LINE
8
BLACK
6
CONTINUOUS
10
5.58769
20
-3.82587
11
5.59139
21
-3.82217
0
LINE
8
BLACK
6
CONTINUOUS
10
5.59139
20
-3.82217
11
5.59606
21
-3.8198
0
LINE
8
BLACK
6
CONTINUOUS
10
5.59606
20
-3.8198
11
5.60123
21
-3.81898
0
LINE
8
BLACK
6
CONTINUOUS
10
5.60123
20
-3.81898
11
5.6064
21
-3.8198
0
LINE
8
BLACK
6
CONTINUOUS
10
5.6064
20
-3.8198
11
5.61106
21
-3.82217
0
LINE
8
BLACK
6
CONTINUOUS
10
5.61106
20
-3.82217
11
5.61477
21
-3.82587
0
LINE
8
BLACK
6
CONTINUOUS
10
5.61477
20
-3.82587
11
5.61698
21
-3.83021
0
LINE
8
BLACK
6
CONTINUOUS
10
5.61698
20
-3.83021
11
5.61698
21
-3.81169
0
LINE
8
BLACK
6
CONTINUOUS
10
5.61698
20
-3.81169
11
5.61728
21
-3.81019
0
LINE
8
BLACK
6
CONTINUOUS
10
5.61728
20
-3.81019
11
5.61813
21
-3.80891
0
LINE
8
BLACK
6
CONTINUOUS
10
5.61813
20
-3.80891
11
5.61941
21
-3.80806
0
LINE
8
BLACK
6
CONTINUOUS
10
5.61941
20
-3.80806
11
5.62091
21
-3.80776
0
LINE
8
BLACK
6
CONTINUOUS
10
5.62091
20
-3.80776
11
5.66619
21
-3.80776
0
LINE
8
BLACK
6
CONTINUOUS
10
5.66619
20
-3.80776
11
5.6677
21
-3.80806
0
LINE
8
BLACK
6
CONTINUOUS
10
5.6677
20
-3.80806
11
5.66897
21
-3.80891
0
LINE
8
BLACK
6
CONTINUOUS
10
5.66897
20
-3.80891
11
5.66983
21
-3.81019
0
LINE
8
BLACK
6
CONTINUOUS
10
5.66983
20
-3.81019
11
5.67013
21
-3.81169
0
LINE
8
BLACK
6
CONTINUOUS
10
5.67013
20
-3.81169
11
5.67013
21
-3.83531
0
LINE
8
BLACK
6
CONTINUOUS
10
5.67013
20
-3.83531
11
5.66983
21
-3.83682
0
LINE
8
BLACK
6
CONTINUOUS
10
5.66983
20
-3.83682
11
5.66897
21
-3.8381
0
LINE
8
BLACK
6
CONTINUOUS
10
5.66897
20
-3.8381
11
5.6677
21
-3.83895
0
LINE
8
BLACK
6
CONTINUOUS
10
5.6677
20
-3.83895
11
5.66619
21
-3.83925
0
LINE
8
BLACK
6
CONTINUOUS
10
5.66619
20
-3.83925
11
5.6677
21
-3.83955
0
LINE
8
BLACK
6
CONTINUOUS
10
5.6677
20
-3.83955
11
5.66897
21
-3.84041
0
LINE
8
BLACK
6
CONTINUOUS
10
5.66897
20
-3.84041
11
5.66983
21
-3.84168
0
LINE
8
BLACK
6
CONTINUOUS
10
5.66983
20
-3.84168
11
5.67013
21
-3.84319
0
LINE
8
BLACK
6
CONTINUOUS
10
5.67013
20
-3.84319
11
5.67013
21
-3.86681
0
LINE
8
BLACK
6
CONTINUOUS
10
5.67013
20
-3.86681
11
5.66983
21
-3.86832
0
LINE
8
BLACK
6
CONTINUOUS
10
5.66983
20
-3.86832
11
5.66897
21
-3.86959
0
LINE
8
BLACK
6
CONTINUOUS
10
5.66897
20
-3.86959
11
5.6677
21
-3.87045
0
LINE
8
BLACK
6
CONTINUOUS
10
5.6677
20
-3.87045
11
5.66619
21
-3.87075
0
LINE
8
BLACK
6
CONTINUOUS
10
5.66619
20
-3.87075
11
5.6677
21
-3.87105
0
LINE
8
BLACK
6
CONTINUOUS
10
5.6677
20
-3.87105
11
5.66897
21
-3.8719
0
LINE
8
BLACK
6
CONTINUOUS
10
5.66897
20
-3.8719
11
5.66983
21
-3.87318
0
LINE
8
BLACK
6
CONTINUOUS
10
5.66983
20
-3.87318
11
5.67013
21
-3.87469
0
LINE
8
BLACK
6
CONTINUOUS
10
5.67013
20
-3.87469
11
5.67013
21
-3.8865
0
LINE
8
BLACK
6
CONTINUOUS
10
5.67013
20
-3.8865
11
5.66983
21
-3.888
0
LINE
8
BLACK
6
CONTINUOUS
10
5.66983
20
-3.888
11
5.66897
21
-3.88928
0
LINE
8
BLACK
6
CONTINUOUS
10
5.66897
20
-3.88928
11
5.6677
21
-3.89013
0
LINE
8
BLACK
6
CONTINUOUS
10
5.6677
20
-3.89013
11
5.66619
21
-3.89043
0
LINE
8
BLACK
6
CONTINUOUS
10
5.66619
20
-3.89043
11
5.6677
21
-3.89073
0
LINE
8
BLACK
6
CONTINUOUS
10
5.6677
20
-3.89073
11
5.66897
21
-3.89159
0
LINE
8
BLACK
6
CONTINUOUS
10
5.66897
20
-3.89159
11
5.66983
21
-3.89286
0
LINE
8
BLACK
6
CONTINUOUS
10
5.66983
20
-3.89286
11
5.67013
21
-3.89437
0
LINE
8
BLACK
6
CONTINUOUS
10
5.67013
20
-3.89437
11
5.67013
21
-3.90618
0
LINE
8
BLACK
6
CONTINUOUS
10
5.67013
20
-3.90618
11
5.66983
21
-3.90769
0
LINE
8
BLACK
6
CONTINUOUS
10
5.66983
20
-3.90769
11
5.66897
21
-3.90896
0
LINE
8
BLACK
6
CONTINUOUS
10
5.66897
20
-3.90896
11
5.6677
21
-3.90982
0
LINE
8
BLACK
6
CONTINUOUS
10
5.6677
20
-3.90982
11
5.66619
21
-3.91012
0
LINE
8
BLACK
6
CONTINUOUS
10
5.66619
20
-3.91012
11
5.6677
21
-3.91042
0
LINE
8
BLACK
6
CONTINUOUS
10
5.6677
20
-3.91042
11
5.66897
21
-3.91127
0
LINE
8
BLACK
6
CONTINUOUS
10
5.66897
20
-3.91127
11
5.66983
21
-3.91255
0
LINE
8
BLACK
6
CONTINUOUS
10
5.66983
20
-3.91255
11
5.67013
21
-3.91406
0
LINE
8
BLACK
6
CONTINUOUS
10
5.67013
20
-3.91406
11
5.67013
21
-3.92587
0
LINE
8
BLACK
6
CONTINUOUS
10
5.67013
20
-3.92587
11
5.66983
21
-3.92737
0
LINE
8
BLACK
6
CONTINUOUS
10
5.66983
20
-3.92737
11
5.66897
21
-3.92865
0
LINE
8
BLACK
6
CONTINUOUS
10
5.66897
20
-3.92865
11
5.6677
21
-3.9295
0
LINE
8
BLACK
6
CONTINUOUS
10
5.6677
20
-3.9295
11
5.66619
21
-3.9298
0
LINE
8
BLACK
6
CONTINUOUS
10
5.66619
20
-3.9298
11
5.6677
21
-3.9301
0
LINE
8
BLACK
6
CONTINUOUS
10
5.6677
20
-3.9301
11
5.66897
21
-3.93096
0
LINE
8
BLACK
6
CONTINUOUS
10
5.66897
20
-3.93096
11
5.66983
21
-3.93223
0
LINE
8
BLACK
6
CONTINUOUS
10
5.66983
20
-3.93223
11
5.67013
21
-3.93374
0
LINE
8
BLACK
6
CONTINUOUS
10
5.67013
20
-3.93374
11
5.67013
21
-3.94555
0
LINE
8
BLACK
6
CONTINUOUS
10
5.67013
20
-3.94555
11
5.66983
21
-3.94706
0
LINE
8
BLACK
6
CONTINUOUS
10
5.66983
20
-3.94706
11
5.66897
21
-3.94834
0
LINE
8
BLACK
6
CONTINUOUS
10
5.66897
20
-3.94834
11
5.6677
21
-3.94919
0
LINE
8
BLACK
6
CONTINUOUS
10
5.6677
20
-3.94919
11
5.66619
21
-3.94949
0
LINE
8
BLACK
6
CONTINUOUS
10
5.66619
20
-3.94949
11
5.6677
21
-3.94979
0
LINE
8
BLACK
6
CONTINUOUS
10
5.6677
20
-3.94979
11
5.66897
21
-3.95064
0
LINE
8
BLACK
6
CONTINUOUS
10
5.66897
20
-3.95064
11
5.66983
21
-3.95192
0
LINE
8
BLACK
6
CONTINUOUS
10
5.66983
20
-3.95192
11
5.67013
21
-3.95343
0
LINE
8
BLACK
6
CONTINUOUS
10
5.67013
20
-3.95343
11
5.67013
21
-3.96524
0
LINE
8
BLACK
6
CONTINUOUS
10
5.67013
20
-3.96524
11
5.66983
21
-3.96674
0
LINE
8
BLACK
6
CONTINUOUS
10
5.66983
20
-3.96674
11
5.66897
21
-3.96802
0
LINE
8
BLACK
6
CONTINUOUS
10
5.66897
20
-3.96802
11
5.6677
21
-3.96887
0
LINE
8
BLACK
6
CONTINUOUS
10
5.6677
20
-3.96887
11
5.66619
21
-3.96917
0
LINE
8
BLACK
6
CONTINUOUS
10
5.66619
20
-3.96917
11
5.6677
21
-3.96947
0
LINE
8
BLACK
6
CONTINUOUS
10
5.6677
20
-3.96947
11
5.66897
21
-3.97033
0
LINE
8
BLACK
6
CONTINUOUS
10
5.66897
20
-3.97033
11
5.66983
21
-3.9716
0
LINE
8
BLACK
6
CONTINUOUS
10
5.66983
20
-3.9716
11
5.67013
21
-3.97311
0
LINE
8
BLACK
6
CONTINUOUS
10
5.67013
20
-3.97311
11
5.67013
21
-3.98492
0
LINE
8
BLACK
6
CONTINUOUS
10
5.67013
20
-3.98492
11
5.66983
21
-3.98643
0
LINE
8
BLACK
6
CONTINUOUS
10
5.66983
20
-3.98643
11
5.66897
21
-3.98771
0
LINE
8
BLACK
6
CONTINUOUS
10
5.66897
20
-3.98771
11
5.6677
21
-3.98856
0
LINE
8
BLACK
6
CONTINUOUS
10
5.6677
20
-3.98856
11
5.66619
21
-3.98886
0
LINE
8
BLACK
6
CONTINUOUS
10
5.66619
20
-3.98886
11
5.6677
21
-3.98916
0
LINE
8
BLACK
6
CONTINUOUS
10
5.6677
20
-3.98916
11
5.66897
21
-3.99001
0
LINE
8
BLACK
6
CONTINUOUS
10
5.66897
20
-3.99001
11
5.66983
21
-3.99129
0
LINE
8
BLACK
6
CONTINUOUS
10
5.66983
20
-3.99129
11
5.67013
21
-3.9928
0
LINE
8
BLACK
6
CONTINUOUS
10
5.67013
20
-3.9928
11
5.67013
21
-4.00461
0
LINE
8
BLACK
6
CONTINUOUS
10
5.67013
20
-4.00461
11
5.66983
21
-4.00611
0
LINE
8
BLACK
6
CONTINUOUS
10
5.66983
20
-4.00611
11
5.66897
21
-4.00739
0
LINE
8
BLACK
6
CONTINUOUS
10
5.66897
20
-4.00739
11
5.6677
21
-4.00824
0
LINE
8
BLACK
6
CONTINUOUS
10
5.6677
20
-4.00824
11
5.66619
21
-4.00854
0
LINE
8
BLACK
6
CONTINUOUS
10
5.66619
20
-4.00854
11
5.6677
21
-4.00884
0
LINE
8
BLACK
6
CONTINUOUS
10
5.6677
20
-4.00884
11
5.66897
21
-4.0097
0
LINE
8
BLACK
6
CONTINUOUS
10
5.66897
20
-4.0097
11
5.66983
21
-4.01097
0
LINE
8
BLACK
6
CONTINUOUS
10
5.66983
20
-4.01097
11
5.67013
21
-4.01248
0
LINE
8
BLACK
6
CONTINUOUS
10
5.67013
20
-4.01248
11
5.67013
21
-4.02429
0
LINE
8
BLACK
6
CONTINUOUS
10
5.67013
20
-4.02429
11
5.66983
21
-4.0258
0
LINE
8
BLACK
6
CONTINUOUS
10
5.66983
20
-4.0258
11
5.66897
21
-4.02708
0
LINE
8
BLACK
6
CONTINUOUS
10
5.66897
20
-4.02708
11
5.6677
21
-4.02793
0
LINE
8
BLACK
6
CONTINUOUS
10
5.6677
20
-4.02793
11
5.66619
21
-4.02823
0
LINE
8
BLACK
6
CONTINUOUS
10
5.66619
20
-4.02823
11
5.6677
21
-4.02853
0
LINE
8
BLACK
6
CONTINUOUS
10
5.6677
20
-4.02853
11
5.66897
21
-4.02938
0
LINE
8
BLACK
6
CONTINUOUS
10
5.66897
20
-4.02938
11
5.66983
21
-4.03066
0
LINE
8
BLACK
6
CONTINUOUS
10
5.66983
20
-4.03066
11
5.67013
21
-4.03217
0
LINE
8
BLACK
6
CONTINUOUS
10
5.67013
20
-4.03217
11
5.67013
21
-4.05579
0
LINE
8
BLACK
6
CONTINUOUS
10
5.67013
20
-4.05579
11
5.66983
21
-4.05729
0
LINE
8
BLACK
6
CONTINUOUS
10
5.66983
20
-4.05729
11
5.66897
21
-4.05857
0
LINE
8
BLACK
6
CONTINUOUS
10
5.66897
20
-4.05857
11
5.6677
21
-4.05942
0
LINE
8
BLACK
6
CONTINUOUS
10
5.6677
20
-4.05942
11
5.66619
21
-4.05972
0
LINE
8
BLACK
6
CONTINUOUS
10
5.66619
20
-4.05972
11
5.6677
21
-4.06002
0
LINE
8
BLACK
6
CONTINUOUS
10
5.6677
20
-4.06002
11
5.66897
21
-4.06088
0
LINE
8
BLACK
6
CONTINUOUS
10
5.66897
20
-4.06088
11
5.66983
21
-4.06215
0
LINE
8
BLACK
6
CONTINUOUS
10
5.66983
20
-4.06215
11
5.67013
21
-4.06366
0
LINE
8
BLACK
6
CONTINUOUS
10
5.67013
20
-4.06366
11
5.67013
21
-4.08728
0
LINE
8
BLACK
6
CONTINUOUS
10
5.67013
20
-4.08728
11
5.66983
21
-4.08879
0
LINE
8
BLACK
6
CONTINUOUS
10
5.66983
20
-4.08879
11
5.66897
21
-4.09007
0
LINE
8
BLACK
6
CONTINUOUS
10
5.66897
20
-4.09007
11
5.6677
21
-4.09092
0
LINE
8
BLACK
6
CONTINUOUS
10
5.6677
20
-4.09092
11
5.66619
21
-4.09122
0
LINE
8
BLACK
6
CONTINUOUS
10
5.66619
20
-4.09122
11
5.62091
21
-4.09122
0
LINE
8
BLACK
6
CONTINUOUS
10
5.62091
20
-4.09122
11
5.61941
21
-4.09092
0
LINE
8
BLACK
6
CONTINUOUS
10
5.61941
20
-4.09092
11
5.61813
21
-4.09007
0
LINE
8
BLACK
6
CONTINUOUS
10
5.61813
20
-4.09007
11
5.61728
21
-4.08879
0
LINE
8
BLACK
6
CONTINUOUS
10
5.61728
20
-4.08879
11
5.61698
21
-4.08728
0
LINE
8
BLACK
6
CONTINUOUS
10
5.61698
20
-4.08728
11
5.61698
21
-4.06876
0
LINE
8
BLACK
6
CONTINUOUS
10
5.61698
20
-4.06876
11
5.61477
21
-4.0731
0
LINE
8
BLACK
6
CONTINUOUS
10
5.61477
20
-4.0731
11
5.61106
21
-4.0768
0
LINE
8
BLACK
6
CONTINUOUS
10
5.61106
20
-4.0768
11
5.6064
21
-4.07918
0
LINE
8
BLACK
6
CONTINUOUS
10
5.6064
20
-4.07918
11
5.60123
21
-4.08
0
LINE
8
BLACK
6
CONTINUOUS
10
5.60123
20
-4.08
11
5.59606
21
-4.07918
0
LINE
8
BLACK
6
CONTINUOUS
10
5.59606
20
-4.07918
11
5.59139
21
-4.0768
0
LINE
8
BLACK
6
CONTINUOUS
10
5.59139
20
-4.0768
11
5.58769
21
-4.0731
0
LINE
8
BLACK
6
CONTINUOUS
10
5.58769
20
-4.0731
11
5.58531
21
-4.06844
0
LINE
8
BLACK
6
CONTINUOUS
10
5.58531
20
-4.06844
11
5.5845
21
-4.06327
0
LINE
8
BLACK
6
CONTINUOUS
10
5.5845
20
-4.06327
11
5.58531
21
-4.0581
0
LINE
8
BLACK
6
CONTINUOUS
10
5.58531
20
-4.0581
11
5.58769
21
-4.05343
0
LINE
8
BLACK
6
CONTINUOUS
10
5.58769
20
-4.05343
11
5.59139
21
-4.04973
0
LINE
8
BLACK
6
CONTINUOUS
10
5.59139
20
-4.04973
11
5.59606
21
-4.04735
0
LINE
8
BLACK
6
CONTINUOUS
10
5.59606
20
-4.04735
11
5.60123
21
-4.04654
0
LINE
8
BLACK
6
CONTINUOUS
10
5.60123
20
-4.04654
11
5.6064
21
-4.04735
0
LINE
8
BLACK
6
CONTINUOUS
10
6.49373
20
-4.04093
11
6.49781
21
-4.04292
0
LINE
8
BLACK
6
CONTINUOUS
10
6.49781
20
-4.04292
11
6.50102
21
-4.04613
0
LINE
8
BLACK
6
CONTINUOUS
10
6.50102
20
-4.04613
11
6.50301
21
-4.0502
0
LINE
8
BLACK
6
CONTINUOUS
10
6.50301
20
-4.0502
11
6.50358
21
-4.05413
0
LINE
8
BLACK
6
CONTINUOUS
10
6.50358
20
-4.05413
11
6.50358
21
-4.07382
0
LINE
8
BLACK
6
CONTINUOUS
10
6.50358
20
-4.07382
11
6.50301
21
-4.07775
0
LINE
8
BLACK
6
CONTINUOUS
10
6.50301
20
-4.07775
11
6.50102
21
-4.08183
0
LINE
8
BLACK
6
CONTINUOUS
10
6.50102
20
-4.08183
11
6.49781
21
-4.08503
0
LINE
8
BLACK
6
CONTINUOUS
10
6.49781
20
-4.08503
11
6.49373
21
-4.08703
0
LINE
8
BLACK
6
CONTINUOUS
10
6.49373
20
-4.08703
11
6.4898
21
-4.0876
0
LINE
8
BLACK
6
CONTINUOUS
10
6.4898
20
-4.0876
11
6.40319
21
-4.0876
0
LINE
8
BLACK
6
CONTINUOUS
10
6.40319
20
-4.0876
11
6.39926
21
-4.08703
0
LINE
8
BLACK
6
CONTINUOUS
10
6.39926
20
-4.08703
11
6.39518
21
-4.08503
0
LINE
8
BLACK
6
CONTINUOUS
10
6.39518
20
-4.08503
11
6.39197
21
-4.08183
0
LINE
8
BLACK
6
CONTINUOUS
10
6.39197
20
-4.08183
11
6.38998
21
-4.07775
0
LINE
8
BLACK
6
CONTINUOUS
10
6.38998
20
-4.07775
11
6.38941
21
-4.07382
0
LINE
8
BLACK
6
CONTINUOUS
10
6.38941
20
-4.07382
11
6.38941
21
-4.05413
0
LINE
8
BLACK
6
CONTINUOUS
10
6.38941
20
-4.05413
11
6.38998
21
-4.0502
0
LINE
8
BLACK
6
CONTINUOUS
10
6.38998
20
-4.0502
11
6.39197
21
-4.04613
0
LINE
8
BLACK
6
CONTINUOUS
10
6.39197
20
-4.04613
11
6.39518
21
-4.04292
0
LINE
8
BLACK
6
CONTINUOUS
10
6.39518
20
-4.04292
11
6.39926
21
-4.04093
0
LINE
8
BLACK
6
CONTINUOUS
10
6.39926
20
-4.04093
11
6.40319
21
-4.04035
0
LINE
8
BLACK
6
CONTINUOUS
10
6.40319
20
-4.04035
11
6.4898
21
-4.04035
0
LINE
8
BLACK
6
CONTINUOUS
10
6.4898
20
-4.04035
11
6.49373
21
-4.04093
0
LINE
8
BLACK
6
CONTINUOUS
10
6.18676
20
-4.03378
11
6.19073
21
-4.03553
0
LINE
8
BLACK
6
CONTINUOUS
10
6.19073
20
-4.03553
11
6.1938
21
-4.0386
0
LINE
8
BLACK
6
CONTINUOUS
10
6.1938
20
-4.0386
11
6.19555
21
-4.04257
0
LINE
8
BLACK
6
CONTINUOUS
10
6.19555
20
-4.04257
11
6.19587
21
-4.04528
0
LINE
8
BLACK
6
CONTINUOUS
10
6.19587
20
-4.04528
11
6.19587
21
-4.06102
0
LINE
8
BLACK
6
CONTINUOUS
10
6.19587
20
-4.06102
11
6.19555
21
-4.06373
0
LINE
8
BLACK
6
CONTINUOUS
10
6.19555
20
-4.06373
11
6.1938
21
-4.0677
0
LINE
8
BLACK
6
CONTINUOUS
10
6.1938
20
-4.0677
11
6.19073
21
-4.07077
0
LINE
8
BLACK
6
CONTINUOUS
10
6.19073
20
-4.07077
11
6.18676
21
-4.07252
0
LINE
8
BLACK
6
CONTINUOUS
10
6.18676
20
-4.07252
11
6.18406
21
-4.07283
0
LINE
8
BLACK
6
CONTINUOUS
10
6.18406
20
-4.07283
11
6.1624
21
-4.07283
0
LINE
8
BLACK
6
CONTINUOUS
10
6.1624
20
-4.07283
11
6.1597
21
-4.07252
0
LINE
8
BLACK
6
CONTINUOUS
10
6.1597
20
-4.07252
11
6.15573
21
-4.07077
0
LINE
8
BLACK
6
CONTINUOUS
10
6.15573
20
-4.07077
11
6.15266
21
-4.0677
0
LINE
8
BLACK
6
CONTINUOUS
10
6.15266
20
-4.0677
11
6.1509
21
-4.06373
0
LINE
8
BLACK
6
CONTINUOUS
10
6.1509
20
-4.06373
11
6.15059
21
-4.06102
0
LINE
8
BLACK
6
CONTINUOUS
10
6.15059
20
-4.06102
11
6.15059
21
-4.04528
0
LINE
8
BLACK
6
CONTINUOUS
10
6.15059
20
-4.04528
11
6.1509
21
-4.04257
0
LINE
8
BLACK
6
CONTINUOUS
10
6.1509
20
-4.04257
11
6.15266
21
-4.0386
0
LINE
8
BLACK
6
CONTINUOUS
10
6.15266
20
-4.0386
11
6.15573
21
-4.03553
0
LINE
8
BLACK
6
CONTINUOUS
10
6.15573
20
-4.03553
11
6.1597
21
-4.03378
0
LINE
8
BLACK
6
CONTINUOUS
10
6.1597
20
-4.03378
11
6.1624
21
-4.03346
0
LINE
8
BLACK
6
CONTINUOUS
10
6.1624
20
-4.03346
11
6.18406
21
-4.03346
0
LINE
8
BLACK
6
CONTINUOUS
10
6.18406
20
-4.03346
11
6.18676
21
-4.03378
0
LINE
8
BLACK
6
CONTINUOUS
10
6.00491
20
-4.02116
11
6.00698
21
-4.02254
0
LINE
8
BLACK
6
CONTINUOUS
10
6.00698
20
-4.02254
11
6.00837
21
-4.02462
0
LINE
8
BLACK
6
CONTINUOUS
10
6.00837
20
-4.02462
11
6.00886
21
-4.02707
0
LINE
8
BLACK
6
CONTINUOUS
10
6.00886
20
-4.02707
11
6.00886
21
-4.05463
0
LINE
8
BLACK
6
CONTINUOUS
10
6.00886
20
-4.05463
11
6.00837
21
-4.05707
0
LINE
8
BLACK
6
CONTINUOUS
10
6.00837
20
-4.05707
11
6.00698
21
-4.05915
0
LINE
8
BLACK
6
CONTINUOUS
10
6.00698
20
-4.05915
11
6.00491
21
-4.06054
0
LINE
8
BLACK
6
CONTINUOUS
10
6.00491
20
-4.06054
11
6.00246
21
-4.06102
0
LINE
8
BLACK
6
CONTINUOUS
10
6.00246
20
-4.06102
11
5.99754
21
-4.06102
0
LINE
8
BLACK
6
CONTINUOUS
10
5.99754
20
-4.06102
11
5.99509
21
-4.06054
0
LINE
8
BLACK
6
CONTINUOUS
10
5.99509
20
-4.06054
11
5.99302
21
-4.05915
0
LINE
8
BLACK
6
CONTINUOUS
10
5.99302
20
-4.05915
11
5.99163
21
-4.05707
0
LINE
8
BLACK
6
CONTINUOUS
10
5.99163
20
-4.05707
11
5.99114
21
-4.05463
0
LINE
8
BLACK
6
CONTINUOUS
10
5.99114
20
-4.05463
11
5.99114
21
-4.02707
0
LINE
8
BLACK
6
CONTINUOUS
10
5.99114
20
-4.02707
11
5.99163
21
-4.02462
0
LINE
8
BLACK
6
CONTINUOUS
10
5.99163
20
-4.02462
11
5.99302
21
-4.02254
0
LINE
8
BLACK
6
CONTINUOUS
10
5.99302
20
-4.02254
11
5.99509
21
-4.02116
0
LINE
8
BLACK
6
CONTINUOUS
10
5.99509
20
-4.02116
11
5.99754
21
-4.02067
0
LINE
8
BLACK
6
CONTINUOUS
10
5.99754
20
-4.02067
11
6.00246
21
-4.02067
0
LINE
8
BLACK
6
CONTINUOUS
10
6.00246
20
-4.02067
11
6.00491
21
-4.02116
0
LINE
8
BLACK
6
CONTINUOUS
10
6.02459
20
-4.02116
11
6.02667
21
-4.02254
0
LINE
8
BLACK
6
CONTINUOUS
10
6.02667
20
-4.02254
11
6.02806
21
-4.02462
0
LINE
8
BLACK
6
CONTINUOUS
10
6.02806
20
-4.02462
11
6.02854
21
-4.02707
0
LINE
8
BLACK
6
CONTINUOUS
10
6.02854
20
-4.02707
11
6.02854
21
-4.05463
0
LINE
8
BLACK
6
CONTINUOUS
10
6.02854
20
-4.05463
11
6.02806
21
-4.05707
0
LINE
8
BLACK
6
CONTINUOUS
10
6.02806
20
-4.05707
11
6.02667
21
-4.05915
0
LINE
8
BLACK
6
CONTINUOUS
10
6.02667
20
-4.05915
11
6.02459
21
-4.06054
0
LINE
8
BLACK
6
CONTINUOUS
10
6.02459
20
-4.06054
11
6.02215
21
-4.06102
0
LINE
8
BLACK
6
CONTINUOUS
10
6.02215
20
-4.06102
11
6.01722
21
-4.06102
0
LINE
8
BLACK
6
CONTINUOUS
10
6.01722
20
-4.06102
11
6.01478
21
-4.06054
0
LINE
8
BLACK
6
CONTINUOUS
10
6.01478
20
-4.06054
11
6.0127
21
-4.05915
0
LINE
8
BLACK
6
CONTINUOUS
10
6.0127
20
-4.05915
11
6.01131
21
-4.05707
0
LINE
8
BLACK
6
CONTINUOUS
10
6.01131
20
-4.05707
11
6.01083
21
-4.05463
0
LINE
8
BLACK
6
CONTINUOUS
10
6.01083
20
-4.05463
11
6.01083
21
-4.02707
0
LINE
8
BLACK
6
CONTINUOUS
10
6.01083
20
-4.02707
11
6.01131
21
-4.02462
0
LINE
8
BLACK
6
CONTINUOUS
10
6.01131
20
-4.02462
11
6.0127
21
-4.02254
0
LINE
8
BLACK
6
CONTINUOUS
10
6.0127
20
-4.02254
11
6.01478
21
-4.02116
0
LINE
8
BLACK
6
CONTINUOUS
10
6.01478
20
-4.02116
11
6.01722
21
-4.02067
0
LINE
8
BLACK
6
CONTINUOUS
10
6.01722
20
-4.02067
11
6.02215
21
-4.02067
0
LINE
8
BLACK
6
CONTINUOUS
10
6.02215
20
-4.02067
11
6.02459
21
-4.02116
0
LINE
8
BLACK
6
CONTINUOUS
10
6.04428
20
-4.02116
11
6.04635
21
-4.02254
0
LINE
8
BLACK
6
CONTINUOUS
10
6.04635
20
-4.02254
11
6.04774
21
-4.02462
0
LINE
8
BLACK
6
CONTINUOUS
10
6.04774
20
-4.02462
11
6.04823
21
-4.02707
0
LINE
8
BLACK
6
CONTINUOUS
10
6.04823
20
-4.02707
11
6.04823
21
-4.05463
0
LINE
8
BLACK
6
CONTINUOUS
10
6.04823
20
-4.05463
11
6.04774
21
-4.05707
0
LINE
8
BLACK
6
CONTINUOUS
10
6.04774
20
-4.05707
11
6.04635
21
-4.05915
0
LINE
8
BLACK
6
CONTINUOUS
10
6.04635
20
-4.05915
11
6.04428
21
-4.06054
0
LINE
8
BLACK
6
CONTINUOUS
10
6.04428
20
-4.06054
11
6.04183
21
-4.06102
0
LINE
8
BLACK
6
CONTINUOUS
10
6.04183
20
-4.06102
11
6.03691
21
-4.06102
0
LINE
8
BLACK
6
CONTINUOUS
10
6.03691
20
-4.06102
11
6.03446
21
-4.06054
0
LINE
8
BLACK
6
CONTINUOUS
10
6.03446
20
-4.06054
11
6.03239
21
-4.05915
0
LINE
8
BLACK
6
CONTINUOUS
10
6.03239
20
-4.05915
11
6.031
21
-4.05707
0
LINE
8
BLACK
6
CONTINUOUS
10
6.031
20
-4.05707
11
6.03051
21
-4.05463
0
LINE
8
BLACK
6
CONTINUOUS
10
6.03051
20
-4.05463
11
6.03051
21
-4.02707
0
LINE
8
BLACK
6
CONTINUOUS
10
6.03051
20
-4.02707
11
6.031
21
-4.02462
0
LINE
8
BLACK
6
CONTINUOUS
10
6.031
20
-4.02462
11
6.03239
21
-4.02254
0
LINE
8
BLACK
6
CONTINUOUS
10
6.03239
20
-4.02254
11
6.03446
21
-4.02116
0
LINE
8
BLACK
6
CONTINUOUS
10
6.03446
20
-4.02116
11
6.03691
21
-4.02067
0
LINE
8
BLACK
6
CONTINUOUS
10
6.03691
20
-4.02067
11
6.04183
21
-4.02067
0
LINE
8
BLACK
6
CONTINUOUS
10
6.04183
20
-4.02067
11
6.04428
21
-4.02116
0
LINE
8
BLACK
6
CONTINUOUS
10
6.06396
20
-4.02116
11
6.06604
21
-4.02254
0
LINE
8
BLACK
6
CONTINUOUS
10
6.06604
20
-4.02254
11
6.06743
21
-4.02462
0
LINE
8
BLACK
6
CONTINUOUS
10
6.06743
20
-4.02462
11
6.06791
21
-4.02707
0
LINE
8
BLACK
6
CONTINUOUS
10
6.06791
20
-4.02707
11
6.06791
21
-4.05463
0
LINE
8
BLACK
6
CONTINUOUS
10
6.06791
20
-4.05463
11
6.06743
21
-4.05707
0
LINE
8
BLACK
6
CONTINUOUS
10
6.06743
20
-4.05707
11
6.06604
21
-4.05915
0
LINE
8
BLACK
6
CONTINUOUS
10
6.06604
20
-4.05915
11
6.06396
21
-4.06054
0
LINE
8
BLACK
6
CONTINUOUS
10
6.06396
20
-4.06054
11
6.06152
21
-4.06102
0
LINE
8
BLACK
6
CONTINUOUS
10
6.06152
20
-4.06102
11
6.05659
21
-4.06102
0
LINE
8
BLACK
6
CONTINUOUS
10
6.05659
20
-4.06102
11
6.05415
21
-4.06054
0
LINE
8
BLACK
6
CONTINUOUS
10
6.05415
20
-4.06054
11
6.05207
21
-4.05915
0
LINE
8
BLACK
6
CONTINUOUS
10
6.05207
20
-4.05915
11
6.05068
21
-4.05707
0
LINE
8
BLACK
6
CONTINUOUS
10
6.05068
20
-4.05707
11
6.0502
21
-4.05463
0
LINE
8
BLACK
6
CONTINUOUS
10
6.0502
20
-4.05463
11
6.0502
21
-4.02707
0
LINE
8
BLACK
6
CONTINUOUS
10
6.0502
20
-4.02707
11
6.05068
21
-4.02462
0
LINE
8
BLACK
6
CONTINUOUS
10
6.05068
20
-4.02462
11
6.05207
21
-4.02254
0
LINE
8
BLACK
6
CONTINUOUS
10
6.05207
20
-4.02254
11
6.05415
21
-4.02116
0
LINE
8
BLACK
6
CONTINUOUS
10
6.05415
20
-4.02116
11
6.05659
21
-4.02067
0
LINE
8
BLACK
6
CONTINUOUS
10
6.05659
20
-4.02067
11
6.06152
21
-4.02067
0
LINE
8
BLACK
6
CONTINUOUS
10
6.06152
20
-4.02067
11
6.06396
21
-4.02116
0
LINE
8
BLACK
6
CONTINUOUS
10
6.08365
20
-4.02116
11
6.08572
21
-4.02254
0
LINE
8
BLACK
6
CONTINUOUS
10
6.08572
20
-4.02254
11
6.08711
21
-4.02462
0
LINE
8
BLACK
6
CONTINUOUS
10
6.08711
20
-4.02462
11
6.0876
21
-4.02707
0
LINE
8
BLACK
6
CONTINUOUS
10
6.0876
20
-4.02707
11
6.0876
21
-4.05463
0
LINE
8
BLACK
6
CONTINUOUS
10
6.0876
20
-4.05463
11
6.08711
21
-4.05707
0
LINE
8
BLACK
6
CONTINUOUS
10
6.08711
20
-4.05707
11
6.08572
21
-4.05915
0
LINE
8
BLACK
6
CONTINUOUS
10
6.08572
20
-4.05915
11
6.08365
21
-4.06054
0
LINE
8
BLACK
6
CONTINUOUS
10
6.08365
20
-4.06054
11
6.0812
21
-4.06102
0
LINE
8
BLACK
6
CONTINUOUS
10
6.0812
20
-4.06102
11
6.07628
21
-4.06102
0
LINE
8
BLACK
6
CONTINUOUS
10
6.07628
20
-4.06102
11
6.07383
21
-4.06054
0
LINE
8
BLACK
6
CONTINUOUS
10
6.07383
20
-4.06054
11
6.07176
21
-4.05915
0
LINE
8
BLACK
6
CONTINUOUS
10
6.07176
20
-4.05915
11
6.07037
21
-4.05707
0
LINE
8
BLACK
6
CONTINUOUS
10
6.07037
20
-4.05707
11
6.06988
21
-4.05463
0
LINE
8
BLACK
6
CONTINUOUS
10
6.06988
20
-4.05463
11
6.06988
21
-4.02707
0
LINE
8
BLACK
6
CONTINUOUS
10
6.06988
20
-4.02707
11
6.07037
21
-4.02462
0
LINE
8
BLACK
6
CONTINUOUS
10
6.07037
20
-4.02462
11
6.07176
21
-4.02254
0
LINE
8
BLACK
6
CONTINUOUS
10
6.07176
20
-4.02254
11
6.07383
21
-4.02116
0
LINE
8
BLACK
6
CONTINUOUS
10
6.07383
20
-4.02116
11
6.07628
21
-4.02067
0
LINE
8
BLACK
6
CONTINUOUS
10
6.07628
20
-4.02067
11
6.0812
21
-4.02067
0
LINE
8
BLACK
6
CONTINUOUS
10
6.0812
20
-4.02067
11
6.08365
21
-4.02116
0
LINE
8
BLACK
6
CONTINUOUS
10
6.09009
20
-3.91172
11
6.09137
21
-3.91257
0
LINE
8
BLACK
6
CONTINUOUS
10
6.09137
20
-3.91257
11
6.09222
21
-3.91385
0
LINE
8
BLACK
6
CONTINUOUS
10
6.09222
20
-3.91385
11
6.09252
21
-3.91535
0
LINE
8
BLACK
6
CONTINUOUS
10
6.09252
20
-3.91535
11
6.09252
21
-4.01378
0
LINE
8
BLACK
6
CONTINUOUS
10
6.09252
20
-4.01378
11
6.09222
21
-4.01529
0
LINE
8
BLACK
6
CONTINUOUS
10
6.09222
20
-4.01529
11
6.09137
21
-4.01656
0
LINE
8
BLACK
6
CONTINUOUS
10
6.09137
20
-4.01656
11
6.09009
21
-4.01742
0
LINE
8
BLACK
6
CONTINUOUS
10
6.09009
20
-4.01742
11
6.08858
21
-4.01772
0
LINE
8
BLACK
6
CONTINUOUS
10
6.08858
20
-4.01772
11
5.99016
21
-4.01772
0
LINE
8
BLACK
6
CONTINUOUS
10
5.99016
20
-4.01772
11
5.98865
21
-4.01742
0
LINE
8
BLACK
6
CONTINUOUS
10
5.98865
20
-4.01742
11
5.98737
21
-4.01656
0
LINE
8
BLACK
6
CONTINUOUS
10
5.98737
20
-4.01656
11
5.98652
21
-4.01529
0
LINE
8
BLACK
6
CONTINUOUS
10
5.98652
20
-4.01529
11
5.98622
21
-4.01378
0
LINE
8
BLACK
6
CONTINUOUS
10
5.98622
20
-4.01378
11
5.98622
21
-3.91535
0
LINE
8
BLACK
6
CONTINUOUS
10
5.98622
20
-3.91535
11
5.98652
21
-3.91385
0
LINE
8
BLACK
6
CONTINUOUS
10
5.98652
20
-3.91385
11
5.98737
21
-3.91257
0
LINE
8
BLACK
6
CONTINUOUS
10
5.98737
20
-3.91257
11
5.98865
21
-3.91172
0
LINE
8
BLACK
6
CONTINUOUS
10
5.98865
20
-3.91172
11
5.99016
21
-3.91142
0
LINE
8
BLACK
6
CONTINUOUS
10
5.99016
20
-3.91142
11
6.08858
21
-3.91142
0
LINE
8
BLACK
6
CONTINUOUS
10
6.08858
20
-3.91142
11
6.09009
21
-3.91172
0
LINE
8
BLACK
6
CONTINUOUS
10
5.97932
20
-3.99557
11
5.98139
21
-3.99695
0
LINE
8
BLACK
6
CONTINUOUS
10
5.98139
20
-3.99695
11
5.98278
21
-3.99903
0
LINE
8
BLACK
6
CONTINUOUS
10
5.98278
20
-3.99903
11
5.98327
21
-4.00148
0
LINE
8
BLACK
6
CONTINUOUS
10
5.98327
20
-4.00148
11
5.98327
21
-4.0064
0
LINE
8
BLACK
6
CONTINUOUS
10
5.98327
20
-4.0064
11
5.98278
21
-4.00885
0
LINE
8
BLACK
6
CONTINUOUS
10
5.98278
20
-4.00885
11
5.98139
21
-4.01092
0
LINE
8
BLACK
6
CONTINUOUS
10
5.98139
20
-4.01092
11
5.97932
21
-4.01231
0
LINE
8
BLACK
6
CONTINUOUS
10
5.97932
20
-4.01231
11
5.97687
21
-4.0128
0
LINE
8
BLACK
6
CONTINUOUS
10
5.97687
20
-4.0128
11
5.94931
21
-4.0128
0
LINE
8
BLACK
6
CONTINUOUS
10
5.94931
20
-4.0128
11
5.94686
21
-4.01231
0
LINE
8
BLACK
6
CONTINUOUS
10
5.94686
20
-4.01231
11
5.94479
21
-4.01092
0
LINE
8
BLACK
6
CONTINUOUS
10
5.94479
20
-4.01092
11
5.9434
21
-4.00885
0
LINE
8
BLACK
6
CONTINUOUS
10
5.9434
20
-4.00885
11
5.94291
21
-4.0064
0
LINE
8
BLACK
6
CONTINUOUS
10
5.94291
20
-4.0064
11
5.94291
21
-4.00148
0
LINE
8
BLACK
6
CONTINUOUS
10
5.94291
20
-4.00148
11
5.9434
21
-3.99903
0
LINE
8
BLACK
6
CONTINUOUS
10
5.9434
20
-3.99903
11
5.94479
21
-3.99695
0
LINE
8
BLACK
6
CONTINUOUS
10
5.94479
20
-3.99695
11
5.94686
21
-3.99557
0
LINE
8
BLACK
6
CONTINUOUS
10
5.94686
20
-3.99557
11
5.94931
21
-3.99508
0
LINE
8
BLACK
6
CONTINUOUS
10
5.94931
20
-3.99508
11
5.97687
21
-3.99508
0
LINE
8
BLACK
6
CONTINUOUS
10
5.97687
20
-3.99508
11
5.97932
21
-3.99557
0
LINE
8
BLACK
6
CONTINUOUS
10
6.13188
20
-3.99557
11
6.13395
21
-3.99695
0
LINE
8
BLACK
6
CONTINUOUS
10
6.13395
20
-3.99695
11
6.13534
21
-3.99903
0
LINE
8
BLACK
6
CONTINUOUS
10
6.13534
20
-3.99903
11
6.13583
21
-4.00148
0
LINE
8
BLACK
6
CONTINUOUS
10
6.13583
20
-4.00148
11
6.13583
21
-4.0064
0
LINE
8
BLACK
6
CONTINUOUS
10
6.13583
20
-4.0064
11
6.13534
21
-4.00885
0
LINE
8
BLACK
6
CONTINUOUS
10
6.13534
20
-4.00885
11
6.13395
21
-4.01092
0
LINE
8
BLACK
6
CONTINUOUS
10
6.13395
20
-4.01092
11
6.13188
21
-4.01231
0
LINE
8
BLACK
6
CONTINUOUS
10
6.13188
20
-4.01231
11
6.12943
21
-4.0128
0
LINE
8
BLACK
6
CONTINUOUS
10
6.12943
20
-4.0128
11
6.10187
21
-4.0128
0
LINE
8
BLACK
6
CONTINUOUS
10
6.10187
20
-4.0128
11
6.09942
21
-4.01231
0
LINE
8
BLACK
6
CONTINUOUS
10
6.09942
20
-4.01231
11
6.09735
21
-4.01092
0
LINE
8
BLACK
6
CONTINUOUS
10
6.09735
20
-4.01092
11
6.09596
21
-4.00885
0
LINE
8
BLACK
6
CONTINUOUS
10
6.09596
20
-4.00885
11
6.09547
21
-4.0064
0
LINE
8
BLACK
6
CONTINUOUS
10
6.09547
20
-4.0064
11
6.09547
21
-4.00148
0
LINE
8
BLACK
6
CONTINUOUS
10
6.09547
20
-4.00148
11
6.09596
21
-3.99903
0
LINE
8
BLACK
6
CONTINUOUS
10
6.09596
20
-3.99903
11
6.09735
21
-3.99695
0
LINE
8
BLACK
6
CONTINUOUS
10
6.09735
20
-3.99695
11
6.09942
21
-3.99557
0
LINE
8
BLACK
6
CONTINUOUS
10
6.09942
20
-3.99557
11
6.10187
21
-3.99508
0
LINE
8
BLACK
6
CONTINUOUS
10
6.10187
20
-3.99508
11
6.12943
21
-3.99508
0
LINE
8
BLACK
6
CONTINUOUS
10
6.12943
20
-3.99508
11
6.13188
21
-3.99557
0
LINE
8
BLACK
6
CONTINUOUS
10
6.18676
20
-3.96882
11
6.19073
21
-3.97057
0
LINE
8
BLACK
6
CONTINUOUS
10
6.19073
20
-3.97057
11
6.1938
21
-3.97364
0
LINE
8
BLACK
6
CONTINUOUS
10
6.1938
20
-3.97364
11
6.19555
21
-3.97761
0
LINE
8
BLACK
6
CONTINUOUS
10
6.19555
20
-3.97761
11
6.19587
21
-3.98031
0
LINE
8
BLACK
6
CONTINUOUS
10
6.19587
20
-3.98031
11
6.19587
21
-3.99606
0
LINE
8
BLACK
6
CONTINUOUS
10
6.19587
20
-3.99606
11
6.19555
21
-3.99877
0
LINE
8
BLACK
6
CONTINUOUS
10
6.19555
20
-3.99877
11
6.1938
21
-4.00274
0
LINE
8
BLACK
6
CONTINUOUS
10
6.1938
20
-4.00274
11
6.19073
21
-4.00581
0
LINE
8
BLACK
6
CONTINUOUS
10
6.19073
20
-4.00581
11
6.18676
21
-4.00756
0
LINE
8
BLACK
6
CONTINUOUS
10
6.18676
20
-4.00756
11
6.18406
21
-4.00787
0
LINE
8
BLACK
6
CONTINUOUS
10
6.18406
20
-4.00787
11
6.1624
21
-4.00787
0
LINE
8
BLACK
6
CONTINUOUS
10
6.1624
20
-4.00787
11
6.1597
21
-4.00756
0
LINE
8
BLACK
6
CONTINUOUS
10
6.1597
20
-4.00756
11
6.15573
21
-4.00581
0
LINE
8
BLACK
6
CONTINUOUS
10
6.15573
20
-4.00581
11
6.15266
21
-4.00274
0
LINE
8
BLACK
6
CONTINUOUS
10
6.15266
20
-4.00274
11
6.1509
21
-3.99877
0
LINE
8
BLACK
6
CONTINUOUS
10
6.1509
20
-3.99877
11
6.15059
21
-3.99606
0
LINE
8
BLACK
6
CONTINUOUS
10
6.15059
20
-3.99606
11
6.15059
21
-3.98031
0
LINE
8
BLACK
6
CONTINUOUS
10
6.15059
20
-3.98031
11
6.1509
21
-3.97761
0
LINE
8
BLACK
6
CONTINUOUS
10
6.1509
20
-3.97761
11
6.15266
21
-3.97364
0
LINE
8
BLACK
6
CONTINUOUS
10
6.15266
20
-3.97364
11
6.15573
21
-3.97057
0
LINE
8
BLACK
6
CONTINUOUS
10
6.15573
20
-3.97057
11
6.1597
21
-3.96882
0
LINE
8
BLACK
6
CONTINUOUS
10
6.1597
20
-3.96882
11
6.1624
21
-3.9685
0
LINE
8
BLACK
6
CONTINUOUS
10
6.1624
20
-3.9685
11
6.18406
21
-3.9685
0
LINE
8
BLACK
6
CONTINUOUS
10
6.18406
20
-3.9685
11
6.18676
21
-3.96882
0
LINE
8
BLACK
6
CONTINUOUS
10
5.80741
20
-3.97189
11
5.8106
21
-3.97402
0
LINE
8
BLACK
6
CONTINUOUS
10
5.8106
20
-3.97402
11
5.81274
21
-3.97722
0
LINE
8
BLACK
6
CONTINUOUS
10
5.81274
20
-3.97722
11
5.81348
21
-3.98098
0
LINE
8
BLACK
6
CONTINUOUS
10
5.81348
20
-3.98098
11
5.81348
21
-3.9928
0
LINE
8
BLACK
6
CONTINUOUS
10
5.81348
20
-3.9928
11
5.81274
21
-3.99656
0
LINE
8
BLACK
6
CONTINUOUS
10
5.81274
20
-3.99656
11
5.8106
21
-3.99975
0
LINE
8
BLACK
6
CONTINUOUS
10
5.8106
20
-3.99975
11
5.80741
21
-4.00189
0
LINE
8
BLACK
6
CONTINUOUS
10
5.80741
20
-4.00189
11
5.80364
21
-4.00264
0
LINE
8
BLACK
6
CONTINUOUS
10
5.80364
20
-4.00264
11
5.76329
21
-4.00264
0
LINE
8
BLACK
6
CONTINUOUS
10
5.76329
20
-4.00264
11
5.75952
21
-4.00189
0
LINE
8
BLACK
6
CONTINUOUS
10
5.75952
20
-4.00189
11
5.75633
21
-3.99975
0
LINE
8
BLACK
6
CONTINUOUS
10
5.75633
20
-3.99975
11
5.75419
21
-3.99656
0
LINE
8
BLACK
6
CONTINUOUS
10
5.75419
20
-3.99656
11
5.75344
21
-3.9928
0
LINE
8
BLACK
6
CONTINUOUS
10
5.75344
20
-3.9928
11
5.75344
21
-3.98098
0
LINE
8
BLACK
6
CONTINUOUS
10
5.75344
20
-3.98098
11
5.75419
21
-3.97722
0
LINE
8
BLACK
6
CONTINUOUS
10
5.75419
20
-3.97722
11
5.75633
21
-3.97402
0
LINE
8
BLACK
6
CONTINUOUS
10
5.75633
20
-3.97402
11
5.75952
21
-3.97189
0
LINE
8
BLACK
6
CONTINUOUS
10
5.75952
20
-3.97189
11
5.76329
21
-3.97114
0
LINE
8
BLACK
6
CONTINUOUS
10
5.76329
20
-3.97114
11
5.80364
21
-3.97114
0
LINE
8
BLACK
6
CONTINUOUS
10
5.80364
20
-3.97114
11
5.80741
21
-3.97189
0
LINE
8
BLACK
6
CONTINUOUS
10
5.89698
20
-3.97189
11
5.90017
21
-3.97402
0
LINE
8
BLACK
6
CONTINUOUS
10
5.90017
20
-3.97402
11
5.9023
21
-3.97722
0
LINE
8
BLACK
6
CONTINUOUS
10
5.9023
20
-3.97722
11
5.90305
21
-3.98098
0
LINE
8
BLACK
6
CONTINUOUS
10
5.90305
20
-3.98098
11
5.90305
21
-3.9928
0
LINE
8
BLACK
6
CONTINUOUS
10
5.90305
20
-3.9928
11
5.9023
21
-3.99656
0
LINE
8
BLACK
6
CONTINUOUS
10
5.9023
20
-3.99656
11
5.90017
21
-3.99975
0
LINE
8
BLACK
6
CONTINUOUS
10
5.90017
20
-3.99975
11
5.89698
21
-4.00189
0
LINE
8
BLACK
6
CONTINUOUS
10
5.89698
20
-4.00189
11
5.89321
21
-4.00264
0
LINE
8
BLACK
6
CONTINUOUS
10
5.89321
20
-4.00264
11
5.85285
21
-4.00264
0
LINE
8
BLACK
6
CONTINUOUS
10
5.85285
20
-4.00264
11
5.84909
21
-4.00189
0
LINE
8
BLACK
6
CONTINUOUS
10
5.84909
20
-4.00189
11
5.84589
21
-3.99975
0
LINE
8
BLACK
6
CONTINUOUS
10
5.84589
20
-3.99975
11
5.84376
21
-3.99656
0
LINE
8
BLACK
6
CONTINUOUS
10
5.84376
20
-3.99656
11
5.84301
21
-3.9928
0
LINE
8
BLACK
6
CONTINUOUS
10
5.84301
20
-3.9928
11
5.84301
21
-3.98098
0
LINE
8
BLACK
6
CONTINUOUS
10
5.84301
20
-3.98098
11
5.84376
21
-3.97722
0
LINE
8
BLACK
6
CONTINUOUS
10
5.84376
20
-3.97722
11
5.84589
21
-3.97402
0
LINE
8
BLACK
6
CONTINUOUS
10
5.84589
20
-3.97402
11
5.84909
21
-3.97189
0
LINE
8
BLACK
6
CONTINUOUS
10
5.84909
20
-3.97189
11
5.85285
21
-3.97114
0
LINE
8
BLACK
6
CONTINUOUS
10
5.85285
20
-3.97114
11
5.89321
21
-3.97114
0
LINE
8
BLACK
6
CONTINUOUS
10
5.89321
20
-3.97114
11
5.89698
21
-3.97189
0
LINE
8
BLACK
6
CONTINUOUS
10
5.97932
20
-3.97588
11
5.98139
21
-3.97727
0
LINE
8
BLACK
6
CONTINUOUS
10
5.98139
20
-3.97727
11
5.98278
21
-3.97934
0
LINE
8
BLACK
6
CONTINUOUS
10
5.98278
20
-3.97934
11
5.98327
21
-3.98179
0
LINE
8
BLACK
6
CONTINUOUS
10
5.98327
20
-3.98179
11
5.98327
21
-3.98671
0
LINE
8
BLACK
6
CONTINUOUS
10
5.98327
20
-3.98671
11
5.98278
21
-3.98916
0
LINE
8
BLACK
6
CONTINUOUS
10
5.98278
20
-3.98916
11
5.98139
21
-3.99124
0
LINE
8
BLACK
6
CONTINUOUS
10
5.98139
20
-3.99124
11
5.97932
21
-3.99262
0
LINE
8
BLACK
6
CONTINUOUS
10
5.97932
20
-3.99262
11
5.97687
21
-3.99311
0
LINE
8
BLACK
6
CONTINUOUS
10
5.97687
20
-3.99311
11
5.94931
21
-3.99311
0
LINE
8
BLACK
6
CONTINUOUS
10
5.94931
20
-3.99311
11
5.94686
21
-3.99262
0
LINE
8
BLACK
6
CONTINUOUS
10
5.94686
20
-3.99262
11
5.94479
21
-3.99124
0
LINE
8
BLACK
6
CONTINUOUS
10
5.94479
20
-3.99124
11
5.9434
21
-3.98916
0
LINE
8
BLACK
6
CONTINUOUS
10
5.9434
20
-3.98916
11
5.94291
21
-3.98671
0
LINE
8
BLACK
6
CONTINUOUS
10
5.94291
20
-3.98671
11
5.94291
21
-3.98179
0
LINE
8
BLACK
6
CONTINUOUS
10
5.94291
20
-3.98179
11
5.9434
21
-3.97934
0
LINE
8
BLACK
6
CONTINUOUS
10
5.9434
20
-3.97934
11
5.94479
21
-3.97727
0
LINE
8
BLACK
6
CONTINUOUS
10
5.94479
20
-3.97727
11
5.94686
21
-3.97588
0
LINE
8
BLACK
6
CONTINUOUS
10
5.94686
20
-3.97588
11
5.94931
21
-3.97539
0
LINE
8
BLACK
6
CONTINUOUS
10
5.94931
20
-3.97539
11
5.97687
21
-3.97539
0
LINE
8
BLACK
6
CONTINUOUS
10
5.97687
20
-3.97539
11
5.97932
21
-3.97588
0
LINE
8
BLACK
6
CONTINUOUS
10
6.13188
20
-3.97588
11
6.13395
21
-3.97727
0
LINE
8
BLACK
6
CONTINUOUS
10
6.13395
20
-3.97727
11
6.13534
21
-3.97934
0
LINE
8
BLACK
6
CONTINUOUS
10
6.13534
20
-3.97934
11
6.13583
21
-3.98179
0
LINE
8
BLACK
6
CONTINUOUS
10
6.13583
20
-3.98179
11
6.13583
21
-3.98671
0
LINE
8
BLACK
6
CONTINUOUS
10
6.13583
20
-3.98671
11
6.13534
21
-3.98916
0
LINE
8
BLACK
6
CONTINUOUS
10
6.13534
20
-3.98916
11
6.13395
21
-3.99124
0
LINE
8
BLACK
6
CONTINUOUS
10
6.13395
20
-3.99124
11
6.13188
21
-3.99262
0
LINE
8
BLACK
6
CONTINUOUS
10
6.13188
20
-3.99262
11
6.12943
21
-3.99311
0
LINE
8
BLACK
6
CONTINUOUS
10
6.12943
20
-3.99311
11
6.10187
21
-3.99311
0
LINE
8
BLACK
6
CONTINUOUS
10
6.10187
20
-3.99311
11
6.09942
21
-3.99262
0
LINE
8
BLACK
6
CONTINUOUS
10
6.09942
20
-3.99262
11
6.09735
21
-3.99124
0
LINE
8
BLACK
6
CONTINUOUS
10
6.09735
20
-3.99124
11
6.09596
21
-3.98916
0
LINE
8
BLACK
6
CONTINUOUS
10
6.09596
20
-3.98916
11
6.09547
21
-3.98671
0
LINE
8
BLACK
6
CONTINUOUS
10
6.09547
20
-3.98671
11
6.09547
21
-3.98179
0
LINE
8
BLACK
6
CONTINUOUS
10
6.09547
20
-3.98179
11
6.09596
21
-3.97934
0
LINE
8
BLACK
6
CONTINUOUS
10
6.09596
20
-3.97934
11
6.09735
21
-3.97727
0
LINE
8
BLACK
6
CONTINUOUS
10
6.09735
20
-3.97727
11
6.09942
21
-3.97588
0
LINE
8
BLACK
6
CONTINUOUS
10
6.09942
20
-3.97588
11
6.10187
21
-3.97539
0
LINE
8
BLACK
6
CONTINUOUS
10
6.10187
20
-3.97539
11
6.12943
21
-3.97539
0
LINE
8
BLACK
6
CONTINUOUS
10
6.12943
20
-3.97539
11
6.13188
21
-3.97588
0
LINE
8
BLACK
6
CONTINUOUS
10
6.32677
20
-3.91002
11
6.33084
21
-3.91201
0
LINE
8
BLACK
6
CONTINUOUS
10
6.33084
20
-3.91201
11
6.33405
21
-3.91522
0
LINE
8
BLACK
6
CONTINUOUS
10
6.33405
20
-3.91522
11
6.33604
21
-3.9193
0
LINE
8
BLACK
6
CONTINUOUS
10
6.33604
20
-3.9193
11
6.33661
21
-3.92323
0
LINE
8
BLACK
6
CONTINUOUS
10
6.33661
20
-3.92323
11
6.33661
21
-3.97441
0
LINE
8
BLACK
6
CONTINUOUS
10
6.33661
20
-3.97441
11
6.33604
21
-3.97834
0
LINE
8
BLACK
6
CONTINUOUS
10
6.33604
20
-3.97834
11
6.33405
21
-3.98242
0
LINE
8
BLACK
6
CONTINUOUS
10
6.33405
20
-3.98242
11
6.33084
21
-3.98562
0
LINE
8
BLACK
6
CONTINUOUS
10
6.33084
20
-3.98562
11
6.32677
21
-3.98762
0
LINE
8
BLACK
6
CONTINUOUS
10
6.32677
20
-3.98762
11
6.32283
21
-3.98819
0
LINE
8
BLACK
6
CONTINUOUS
10
6.32283
20
-3.98819
11
6.24409
21
-3.98819
0
LINE
8
BLACK
6
CONTINUOUS
10
6.24409
20
-3.98819
11
6.24016
21
-3.98762
0
LINE
8
BLACK
6
CONTINUOUS
10
6.24016
20
-3.98762
11
6.23609
21
-3.98562
0
LINE
8
BLACK
6
CONTINUOUS
10
6.23609
20
-3.98562
11
6.23288
21
-3.98242
0
LINE
8
BLACK
6
CONTINUOUS
10
6.23288
20
-3.98242
11
6.23089
21
-3.97834
0
LINE
8
BLACK
6
CONTINUOUS
10
6.23089
20
-3.97834
11
6.23031
21
-3.97441
0
LINE
8
BLACK
6
CONTINUOUS
10
6.23031
20
-3.97441
11
6.23031
21
-3.92323
0
LINE
8
BLACK
6
CONTINUOUS
10
6.23031
20
-3.92323
11
6.23089
21
-3.9193
0
LINE
8
BLACK
6
CONTINUOUS
10
6.23089
20
-3.9193
11
6.23288
21
-3.91522
0
LINE
8
BLACK
6
CONTINUOUS
10
6.23288
20
-3.91522
11
6.23609
21
-3.91201
0
LINE
8
BLACK
6
CONTINUOUS
10
6.23609
20
-3.91201
11
6.24016
21
-3.91002
0
LINE
8
BLACK
6
CONTINUOUS
10
6.24016
20
-3.91002
11
6.24409
21
-3.90945
0
LINE
8
BLACK
6
CONTINUOUS
10
6.24409
20
-3.90945
11
6.32283
21
-3.90945
0
LINE
8
BLACK
6
CONTINUOUS
10
6.32283
20
-3.90945
11
6.32677
21
-3.91002
0
LINE
8
BLACK
6
CONTINUOUS
10
6.48425
20
-3.91002
11
6.48832
21
-3.91201
0
LINE
8
BLACK
6
CONTINUOUS
10
6.48832
20
-3.91201
11
6.49153
21
-3.91522
0
LINE
8
BLACK
6
CONTINUOUS
10
6.49153
20
-3.91522
11
6.49352
21
-3.9193
0
LINE
8
BLACK
6
CONTINUOUS
10
6.49352
20
-3.9193
11
6.49409
21
-3.92323
0
LINE
8
BLACK
6
CONTINUOUS
10
6.49409
20
-3.92323
11
6.49409
21
-3.97441
0
LINE
8
BLACK
6
CONTINUOUS
10
6.49409
20
-3.97441
11
6.49352
21
-3.97834
0
LINE
8
BLACK
6
CONTINUOUS
10
6.49352
20
-3.97834
11
6.49153
21
-3.98242
0
LINE
8
BLACK
6
CONTINUOUS
10
6.49153
20
-3.98242
11
6.48832
21
-3.98562
0
LINE
8
BLACK
6
CONTINUOUS
10
6.48832
20
-3.98562
11
6.48425
21
-3.98762
0
LINE
8
BLACK
6
CONTINUOUS
10
6.48425
20
-3.98762
11
6.48031
21
-3.98819
0
LINE
8
BLACK
6
CONTINUOUS
10
6.48031
20
-3.98819
11
6.40157
21
-3.98819
0
LINE
8
BLACK
6
CONTINUOUS
10
6.40157
20
-3.98819
11
6.39764
21
-3.98762
0
LINE
8
BLACK
6
CONTINUOUS
10
6.39764
20
-3.98762
11
6.39357
21
-3.98562
0
LINE
8
BLACK
6
CONTINUOUS
10
6.39357
20
-3.98562
11
6.39036
21
-3.98242
0
LINE
8
BLACK
6
CONTINUOUS
10
6.39036
20
-3.98242
11
6.38837
21
-3.97834
0
LINE
8
BLACK
6
CONTINUOUS
10
6.38837
20
-3.97834
11
6.3878
21
-3.97441
0
LINE
8
BLACK
6
CONTINUOUS
10
6.3878
20
-3.97441
11
6.3878
21
-3.92323
0
LINE
8
BLACK
6
CONTINUOUS
10
6.3878
20
-3.92323
11
6.38837
21
-3.9193
0
LINE
8
BLACK
6
CONTINUOUS
10
6.38837
20
-3.9193
11
6.39036
21
-3.91522
0
LINE
8
BLACK
6
CONTINUOUS
10
6.39036
20
-3.91522
11
6.39357
21
-3.91201
0
LINE
8
BLACK
6
CONTINUOUS
10
6.39357
20
-3.91201
11
6.39764
21
-3.91002
0
LINE
8
BLACK
6
CONTINUOUS
10
6.39764
20
-3.91002
11
6.40157
21
-3.90945
0
LINE
8
BLACK
6
CONTINUOUS
10
6.40157
20
-3.90945
11
6.48031
21
-3.90945
0
LINE
8
BLACK
6
CONTINUOUS
10
6.48031
20
-3.90945
11
6.48425
21
-3.91002
0
LINE
8
BLACK
6
CONTINUOUS
10
5.97932
20
-3.9562
11
5.98139
21
-3.95758
0
LINE
8
BLACK
6
CONTINUOUS
10
5.98139
20
-3.95758
11
5.98278
21
-3.95966
0
LINE
8
BLACK
6
CONTINUOUS
10
5.98278
20
-3.95966
11
5.98327
21
-3.96211
0
LINE
8
BLACK
6
CONTINUOUS
10
5.98327
20
-3.96211
11
5.98327
21
-3.96703
0
LINE
8
BLACK
6
CONTINUOUS
10
5.98327
20
-3.96703
11
5.98278
21
-3.96948
0
LINE
8
BLACK
6
CONTINUOUS
10
5.98278
20
-3.96948
11
5.98139
21
-3.97155
0
LINE
8
BLACK
6
CONTINUOUS
10
5.98139
20
-3.97155
11
5.97932
21
-3.97294
0
LINE
8
BLACK
6
CONTINUOUS
10
5.97932
20
-3.97294
11
5.97687
21
-3.97343
0
LINE
8
BLACK
6
CONTINUOUS
10
5.97687
20
-3.97343
11
5.94931
21
-3.97343
0
LINE
8
BLACK
6
CONTINUOUS
10
5.94931
20
-3.97343
11
5.94686
21
-3.97294
0
LINE
8
BLACK
6
CONTINUOUS
10
5.94686
20
-3.97294
11
5.94479
21
-3.97155
0
LINE
8
BLACK
6
CONTINUOUS
10
5.94479
20
-3.97155
11
5.9434
21
-3.96948
0
LINE
8
BLACK
6
CONTINUOUS
10
5.9434
20
-3.96948
11
5.94291
21
-3.96703
0
LINE
8
BLACK
6
CONTINUOUS
10
5.94291
20
-3.96703
11
5.94291
21
-3.96211
0
LINE
8
BLACK
6
CONTINUOUS
10
5.94291
20
-3.96211
11
5.9434
21
-3.95966
0
LINE
8
BLACK
6
CONTINUOUS
10
5.9434
20
-3.95966
11
5.94479
21
-3.95758
0
LINE
8
BLACK
6
CONTINUOUS
10
5.94479
20
-3.95758
11
5.94686
21
-3.9562
0
LINE
8
BLACK
6
CONTINUOUS
10
5.94686
20
-3.9562
11
5.94931
21
-3.95571
0
LINE
8
BLACK
6
CONTINUOUS
10
5.94931
20
-3.95571
11
5.97687
21
-3.95571
0
LINE
8
BLACK
6
CONTINUOUS
10
5.97687
20
-3.95571
11
5.97932
21
-3.9562
0
LINE
8
BLACK
6
CONTINUOUS
10
6.13188
20
-3.9562
11
6.13395
21
-3.95758
0
LINE
8
BLACK
6
CONTINUOUS
10
6.13395
20
-3.95758
11
6.13534
21
-3.95966
0
LINE
8
BLACK
6
CONTINUOUS
10
6.13534
20
-3.95966
11
6.13583
21
-3.96211
0
LINE
8
BLACK
6
CONTINUOUS
10
6.13583
20
-3.96211
11
6.13583
21
-3.96703
0
LINE
8
BLACK
6
CONTINUOUS
10
6.13583
20
-3.96703
11
6.13534
21
-3.96948
0
LINE
8
BLACK
6
CONTINUOUS
10
6.13534
20
-3.96948
11
6.13395
21
-3.97155
0
LINE
8
BLACK
6
CONTINUOUS
10
6.13395
20
-3.97155
11
6.13188
21
-3.97294
0
LINE
8
BLACK
6
CONTINUOUS
10
6.13188
20
-3.97294
11
6.12943
21
-3.97343
0
LINE
8
BLACK
6
CONTINUOUS
10
6.12943
20
-3.97343
11
6.10187
21
-3.97343
0
LINE
8
BLACK
6
CONTINUOUS
10
6.10187
20
-3.97343
11
6.09942
21
-3.97294
0
LINE
8
BLACK
6
CONTINUOUS
10
6.09942
20
-3.97294
11
6.09735
21
-3.97155
0
LINE
8
BLACK
6
CONTINUOUS
10
6.09735
20
-3.97155
11
6.09596
21
-3.96948
0
LINE
8
BLACK
6
CONTINUOUS
10
6.09596
20
-3.96948
11
6.09547
21
-3.96703
0
LINE
8
BLACK
6
CONTINUOUS
10
6.09547
20
-3.96703
11
6.09547
21
-3.96211
0
LINE
8
BLACK
6
CONTINUOUS
10
6.09547
20
-3.96211
11
6.09596
21
-3.95966
0
LINE
8
BLACK
6
CONTINUOUS
10
6.09596
20
-3.95966
11
6.09735
21
-3.95758
0
LINE
8
BLACK
6
CONTINUOUS
10
6.09735
20
-3.95758
11
6.09942
21
-3.9562
0
LINE
8
BLACK
6
CONTINUOUS
10
6.09942
20
-3.9562
11
6.10187
21
-3.95571
0
LINE
8
BLACK
6
CONTINUOUS
10
6.10187
20
-3.95571
11
6.12943
21
-3.95571
0
LINE
8
BLACK
6
CONTINUOUS
10
6.12943
20
-3.95571
11
6.13188
21
-3.9562
0
LINE
8
BLACK
6
CONTINUOUS
10
5.80741
20
-3.93449
11
5.8106
21
-3.93662
0
LINE
8
BLACK
6
CONTINUOUS
10
5.8106
20
-3.93662
11
5.81274
21
-3.93982
0
LINE
8
BLACK
6
CONTINUOUS
10
5.81274
20
-3.93982
11
5.81348
21
-3.94358
0
LINE
8
BLACK
6
CONTINUOUS
10
5.81348
20
-3.94358
11
5.81348
21
-3.95539
0
LINE
8
BLACK
6
CONTINUOUS
10
5.81348
20
-3.95539
11
5.81274
21
-3.95916
0
LINE
8
BLACK
6
CONTINUOUS
10
5.81274
20
-3.95916
11
5.8106
21
-3.96235
0
LINE
8
BLACK
6
CONTINUOUS
10
5.8106
20
-3.96235
11
5.80741
21
-3.96449
0
LINE
8
BLACK
6
CONTINUOUS
10
5.80741
20
-3.96449
11
5.80364
21
-3.96524
0
LINE
8
BLACK
6
CONTINUOUS
10
5.80364
20
-3.96524
11
5.76329
21
-3.96524
0
LINE
8
BLACK
6
CONTINUOUS
10
5.76329
20
-3.96524
11
5.75952
21
-3.96449
0
LINE
8
BLACK
6
CONTINUOUS
10
5.75952
20
-3.96449
11
5.75633
21
-3.96235
0
LINE
8
BLACK
6
CONTINUOUS
10
5.75633
20
-3.96235
11
5.75419
21
-3.95916
0
LINE
8
BLACK
6
CONTINUOUS
10
5.75419
20
-3.95916
11
5.75344
21
-3.95539
0
LINE
8
BLACK
6
CONTINUOUS
10
5.75344
20
-3.95539
11
5.75344
21
-3.94358
0
LINE
8
BLACK
6
CONTINUOUS
10
5.75344
20
-3.94358
11
5.75419
21
-3.93982
0
LINE
8
BLACK
6
CONTINUOUS
10
5.75419
20
-3.93982
11
5.75633
21
-3.93662
0
LINE
8
BLACK
6
CONTINUOUS
10
5.75633
20
-3.93662
11
5.75952
21
-3.93449
0
LINE
8
BLACK
6
CONTINUOUS
10
5.75952
20
-3.93449
11
5.76329
21
-3.93374
0
LINE
8
BLACK
6
CONTINUOUS
10
5.76329
20
-3.93374
11
5.80364
21
-3.93374
0
LINE
8
BLACK
6
CONTINUOUS
10
5.80364
20
-3.93374
11
5.80741
21
-3.93449
0
LINE
8
BLACK
6
CONTINUOUS
10
5.89698
20
-3.93449
11
5.90017
21
-3.93662
0
LINE
8
BLACK
6
CONTINUOUS
10
5.90017
20
-3.93662
11
5.9023
21
-3.93982
0
LINE
8
BLACK
6
CONTINUOUS
10
5.9023
20
-3.93982
11
5.90305
21
-3.94358
0
LINE
8
BLACK
6
CONTINUOUS
10
5.90305
20
-3.94358
11
5.90305
21
-3.95539
0
LINE
8
BLACK
6
CONTINUOUS
10
5.90305
20
-3.95539
11
5.9023
21
-3.95916
0
LINE
8
BLACK
6
CONTINUOUS
10
5.9023
20
-3.95916
11
5.90017
21
-3.96235
0
LINE
8
BLACK
6
CONTINUOUS
10
5.90017
20
-3.96235
11
5.89698
21
-3.96449
0
LINE
8
BLACK
6
CONTINUOUS
10
5.89698
20
-3.96449
11
5.89321
21
-3.96524
0
LINE
8
BLACK
6
CONTINUOUS
10
5.89321
20
-3.96524
11
5.85285
21
-3.96524
0
LINE
8
BLACK
6
CONTINUOUS
10
5.85285
20
-3.96524
11
5.84909
21
-3.96449
0
LINE
8
BLACK
6
CONTINUOUS
10
5.84909
20
-3.96449
11
5.84589
21
-3.96235
0
LINE
8
BLACK
6
CONTINUOUS
10
5.84589
20
-3.96235
11
5.84376
21
-3.95916
0
LINE
8
BLACK
6
CONTINUOUS
10
5.84376
20
-3.95916
11
5.84301
21
-3.95539
0
LINE
8
BLACK
6
CONTINUOUS
10
5.84301
20
-3.95539
11
5.84301
21
-3.94358
0
LINE
8
BLACK
6
CONTINUOUS
10
5.84301
20
-3.94358
11
5.84376
21
-3.93982
0
LINE
8
BLACK
6
CONTINUOUS
10
5.84376
20
-3.93982
11
5.84589
21
-3.93662
0
LINE
8
BLACK
6
CONTINUOUS
10
5.84589
20
-3.93662
11
5.84909
21
-3.93449
0
LINE
8
BLACK
6
CONTINUOUS
10
5.84909
20
-3.93449
11
5.85285
21
-3.93374
0
LINE
8
BLACK
6
CONTINUOUS
10
5.85285
20
-3.93374
11
5.89321
21
-3.93374
0
LINE
8
BLACK
6
CONTINUOUS
10
5.89321
20
-3.93374
11
5.89698
21
-3.93449
0
LINE
8
BLACK
6
CONTINUOUS
10
5.97932
20
-3.93651
11
5.98139
21
-3.9379
0
LINE
8
BLACK
6
CONTINUOUS
10
5.98139
20
-3.9379
11
5.98278
21
-3.93997
0
LINE
8
BLACK
6
CONTINUOUS
10
5.98278
20
-3.93997
11
5.98327
21
-3.94242
0
LINE
8
BLACK
6
CONTINUOUS
10
5.98327
20
-3.94242
11
5.98327
21
-3.94734
0
LINE
8
BLACK
6
CONTINUOUS
10
5.98327
20
-3.94734
11
5.98278
21
-3.94979
0
LINE
8
BLACK
6
CONTINUOUS
10
5.98278
20
-3.94979
11
5.98139
21
-3.95187
0
LINE
8
BLACK
6
CONTINUOUS
10
5.98139
20
-3.95187
11
5.97932
21
-3.95325
0
LINE
8
BLACK
6
CONTINUOUS
10
5.97932
20
-3.95325
11
5.97687
21
-3.95374
0
LINE
8
BLACK
6
CONTINUOUS
10
5.97687
20
-3.95374
11
5.94931
21
-3.95374
0
LINE
8
BLACK
6
CONTINUOUS
10
5.94931
20
-3.95374
11
5.94686
21
-3.95325
0
LINE
8
BLACK
6
CONTINUOUS
10
5.94686
20
-3.95325
11
5.94479
21
-3.95187
0
LINE
8
BLACK
6
CONTINUOUS
10
5.94479
20
-3.95187
11
5.9434
21
-3.94979
0
LINE
8
BLACK
6
CONTINUOUS
10
5.9434
20
-3.94979
11
5.94291
21
-3.94734
0
LINE
8
BLACK
6
CONTINUOUS
10
5.94291
20
-3.94734
11
5.94291
21
-3.94242
0
LINE
8
BLACK
6
CONTINUOUS
10
5.94291
20
-3.94242
11
5.9434
21
-3.93997
0
LINE
8
BLACK
6
CONTINUOUS
10
5.9434
20
-3.93997
11
5.94479
21
-3.9379
0
LINE
8
BLACK
6
CONTINUOUS
10
5.94479
20
-3.9379
11
5.94686
21
-3.93651
0
LINE
8
BLACK
6
CONTINUOUS
10
5.94686
20
-3.93651
11
5.94931
21
-3.93602
0
LINE
8
BLACK
6
CONTINUOUS
10
5.94931
20
-3.93602
11
5.97687
21
-3.93602
0
LINE
8
BLACK
6
CONTINUOUS
10
5.97687
20
-3.93602
11
5.97932
21
-3.93651
0
LINE
8
BLACK
6
CONTINUOUS
10
6.13188
20
-3.93651
11
6.13395
21
-3.9379
0
LINE
8
BLACK
6
CONTINUOUS
10
6.13395
20
-3.9379
11
6.13534
21
-3.93997
0
LINE
8
BLACK
6
CONTINUOUS
10
6.13534
20
-3.93997
11
6.13583
21
-3.94242
0
LINE
8
BLACK
6
CONTINUOUS
10
6.13583
20
-3.94242
11
6.13583
21
-3.94734
0
LINE
8
BLACK
6
CONTINUOUS
10
6.13583
20
-3.94734
11
6.13534
21
-3.94979
0
LINE
8
BLACK
6
CONTINUOUS
10
6.13534
20
-3.94979
11
6.13395
21
-3.95187
0
LINE
8
BLACK
6
CONTINUOUS
10
6.13395
20
-3.95187
11
6.13188
21
-3.95325
0
LINE
8
BLACK
6
CONTINUOUS
10
6.13188
20
-3.95325
11
6.12943
21
-3.95374
0
LINE
8
BLACK
6
CONTINUOUS
10
6.12943
20
-3.95374
11
6.10187
21
-3.95374
0
LINE
8
BLACK
6
CONTINUOUS
10
6.10187
20
-3.95374
11
6.09942
21
-3.95325
0
LINE
8
BLACK
6
CONTINUOUS
10
6.09942
20
-3.95325
11
6.09735
21
-3.95187
0
LINE
8
BLACK
6
CONTINUOUS
10
6.09735
20
-3.95187
11
6.09596
21
-3.94979
0
LINE
8
BLACK
6
CONTINUOUS
10
6.09596
20
-3.94979
11
6.09547
21
-3.94734
0
LINE
8
BLACK
6
CONTINUOUS
10
6.09547
20
-3.94734
11
6.09547
21
-3.94242
0
LINE
8
BLACK
6
CONTINUOUS
10
6.09547
20
-3.94242
11
6.09596
21
-3.93997
0
LINE
8
BLACK
6
CONTINUOUS
10
6.09596
20
-3.93997
11
6.09735
21
-3.9379
0
LINE
8
BLACK
6
CONTINUOUS
10
6.09735
20
-3.9379
11
6.09942
21
-3.93651
0
LINE
8
BLACK
6
CONTINUOUS
10
6.09942
20
-3.93651
11
6.10187
21
-3.93602
0
LINE
8
BLACK
6
CONTINUOUS
10
6.10187
20
-3.93602
11
6.12943
21
-3.93602
0
LINE
8
BLACK
6
CONTINUOUS
10
6.12943
20
-3.93602
11
6.13188
21
-3.93651
0
LINE
8
BLACK
6
CONTINUOUS
10
5.97932
20
-3.91683
11
5.98139
21
-3.91821
0
LINE
8
BLACK
6
CONTINUOUS
10
5.98139
20
-3.91821
11
5.98278
21
-3.92029
0
LINE
8
BLACK
6
CONTINUOUS
10
5.98278
20
-3.92029
11
5.98327
21
-3.92274
0
LINE
8
BLACK
6
CONTINUOUS
10
5.98327
20
-3.92274
11
5.98327
21
-3.92766
0
LINE
8
BLACK
6
CONTINUOUS
10
5.98327
20
-3.92766
11
5.98278
21
-3.93011
0
LINE
8
BLACK
6
CONTINUOUS
10
5.98278
20
-3.93011
11
5.98139
21
-3.93218
0
LINE
8
BLACK
6
CONTINUOUS
10
5.98139
20
-3.93218
11
5.97932
21
-3.93357
0
LINE
8
BLACK
6
CONTINUOUS
10
5.97932
20
-3.93357
11
5.97687
21
-3.93406
0
LINE
8
BLACK
6
CONTINUOUS
10
5.97687
20
-3.93406
11
5.94931
21
-3.93406
0
LINE
8
BLACK
6
CONTINUOUS
10
5.94931
20
-3.93406
11
5.94686
21
-3.93357
0
LINE
8
BLACK
6
CONTINUOUS
10
5.94686
20
-3.93357
11
5.94479
21
-3.93218
0
LINE
8
BLACK
6
CONTINUOUS
10
5.94479
20
-3.93218
11
5.9434
21
-3.93011
0
LINE
8
BLACK
6
CONTINUOUS
10
5.9434
20
-3.93011
11
5.94291
21
-3.92766
0
LINE
8
BLACK
6
CONTINUOUS
10
5.94291
20
-3.92766
11
5.94291
21
-3.92274
0
LINE
8
BLACK
6
CONTINUOUS
10
5.94291
20
-3.92274
11
5.9434
21
-3.92029
0
LINE
8
BLACK
6
CONTINUOUS
10
5.9434
20
-3.92029
11
5.94479
21
-3.91821
0
LINE
8
BLACK
6
CONTINUOUS
10
5.94479
20
-3.91821
11
5.94686
21
-3.91683
0
LINE
8
BLACK
6
CONTINUOUS
10
5.94686
20
-3.91683
11
5.94931
21
-3.91634
0
LINE
8
BLACK
6
CONTINUOUS
10
5.94931
20
-3.91634
11
5.97687
21
-3.91634
0
LINE
8
BLACK
6
CONTINUOUS
10
5.97687
20
-3.91634
11
5.97932
21
-3.91683
0
LINE
8
BLACK
6
CONTINUOUS
10
6.13188
20
-3.91683
11
6.13395
21
-3.91821
0
LINE
8
BLACK
6
CONTINUOUS
10
6.13395
20
-3.91821
11
6.13534
21
-3.92029
0
LINE
8
BLACK
6
CONTINUOUS
10
6.13534
20
-3.92029
11
6.13583
21
-3.92274
0
LINE
8
BLACK
6
CONTINUOUS
10
6.13583
20
-3.92274
11
6.13583
21
-3.92766
0
LINE
8
BLACK
6
CONTINUOUS
10
6.13583
20
-3.92766
11
6.13534
21
-3.93011
0
LINE
8
BLACK
6
CONTINUOUS
10
6.13534
20
-3.93011
11
6.13395
21
-3.93218
0
LINE
8
BLACK
6
CONTINUOUS
10
6.13395
20
-3.93218
11
6.13188
21
-3.93357
0
LINE
8
BLACK
6
CONTINUOUS
10
6.13188
20
-3.93357
11
6.12943
21
-3.93406
0
LINE
8
BLACK
6
CONTINUOUS
10
6.12943
20
-3.93406
11
6.10187
21
-3.93406
0
LINE
8
BLACK
6
CONTINUOUS
10
6.10187
20
-3.93406
11
6.09942
21
-3.93357
0
LINE
8
BLACK
6
CONTINUOUS
10
6.09942
20
-3.93357
11
6.09735
21
-3.93218
0
LINE
8
BLACK
6
CONTINUOUS
10
6.09735
20
-3.93218
11
6.09596
21
-3.93011
0
LINE
8
BLACK
6
CONTINUOUS
10
6.09596
20
-3.93011
11
6.09547
21
-3.92766
0
LINE
8
BLACK
6
CONTINUOUS
10
6.09547
20
-3.92766
11
6.09547
21
-3.92274
0
LINE
8
BLACK
6
CONTINUOUS
10
6.09547
20
-3.92274
11
6.09596
21
-3.92029
0
LINE
8
BLACK
6
CONTINUOUS
10
6.09596
20
-3.92029
11
6.09735
21
-3.91821
0
LINE
8
BLACK
6
CONTINUOUS
10
6.09735
20
-3.91821
11
6.09942
21
-3.91683
0
LINE
8
BLACK
6
CONTINUOUS
10
6.09942
20
-3.91683
11
6.10187
21
-3.91634
0
LINE
8
BLACK
6
CONTINUOUS
10
6.10187
20
-3.91634
11
6.12943
21
-3.91634
0
LINE
8
BLACK
6
CONTINUOUS
10
6.12943
20
-3.91634
11
6.13188
21
-3.91683
0
LINE
8
BLACK
6
CONTINUOUS
10
5.80741
20
-3.89709
11
5.8106
21
-3.89922
0
LINE
8
BLACK
6
CONTINUOUS
10
5.8106
20
-3.89922
11
5.81274
21
-3.90241
0
LINE
8
BLACK
6
CONTINUOUS
10
5.81274
20
-3.90241
11
5.81348
21
-3.90618
0
LINE
8
BLACK
6
CONTINUOUS
10
5.81348
20
-3.90618
11
5.81348
21
-3.91799
0
LINE
8
BLACK
6
CONTINUOUS
10
5.81348
20
-3.91799
11
5.81274
21
-3.92176
0
LINE
8
BLACK
6
CONTINUOUS
10
5.81274
20
-3.92176
11
5.8106
21
-3.92495
0
LINE
8
BLACK
6
CONTINUOUS
10
5.8106
20
-3.92495
11
5.80741
21
-3.92709
0
LINE
8
BLACK
6
CONTINUOUS
10
5.80741
20
-3.92709
11
5.80364
21
-3.92783
0
LINE
8
BLACK
6
CONTINUOUS
10
5.80364
20
-3.92783
11
5.76329
21
-3.92783
0
LINE
8
BLACK
6
CONTINUOUS
10
5.76329
20
-3.92783
11
5.75952
21
-3.92709
0
LINE
8
BLACK
6
CONTINUOUS
10
5.75952
20
-3.92709
11
5.75633
21
-3.92495
0
LINE
8
BLACK
6
CONTINUOUS
10
5.75633
20
-3.92495
11
5.75419
21
-3.92176
0
LINE
8
BLACK
6
CONTINUOUS
10
5.75419
20
-3.92176
11
5.75344
21
-3.91799
0
LINE
8
BLACK
6
CONTINUOUS
10
5.75344
20
-3.91799
11
5.75344
21
-3.90618
0
LINE
8
BLACK
6
CONTINUOUS
10
5.75344
20
-3.90618
11
5.75419
21
-3.90241
0
LINE
8
BLACK
6
CONTINUOUS
10
5.75419
20
-3.90241
11
5.75633
21
-3.89922
0
LINE
8
BLACK
6
CONTINUOUS
10
5.75633
20
-3.89922
11
5.75952
21
-3.89709
0
LINE
8
BLACK
6
CONTINUOUS
10
5.75952
20
-3.89709
11
5.76329
21
-3.89634
0
LINE
8
BLACK
6
CONTINUOUS
10
5.76329
20
-3.89634
11
5.80364
21
-3.89634
0
LINE
8
BLACK
6
CONTINUOUS
10
5.80364
20
-3.89634
11
5.80741
21
-3.89709
0
LINE
8
BLACK
6
CONTINUOUS
10
5.89698
20
-3.89709
11
5.90017
21
-3.89922
0
LINE
8
BLACK
6
CONTINUOUS
10
5.90017
20
-3.89922
11
5.9023
21
-3.90241
0
LINE
8
BLACK
6
CONTINUOUS
10
5.9023
20
-3.90241
11
5.90305
21
-3.90618
0
LINE
8
BLACK
6
CONTINUOUS
10
5.90305
20
-3.90618
11
5.90305
21
-3.91799
0
LINE
8
BLACK
6
CONTINUOUS
10
5.90305
20
-3.91799
11
5.9023
21
-3.92176
0
LINE
8
BLACK
6
CONTINUOUS
10
5.9023
20
-3.92176
11
5.90017
21
-3.92495
0
LINE
8
BLACK
6
CONTINUOUS
10
5.90017
20
-3.92495
11
5.89698
21
-3.92709
0
LINE
8
BLACK
6
CONTINUOUS
10
5.89698
20
-3.92709
11
5.89321
21
-3.92783
0
LINE
8
BLACK
6
CONTINUOUS
10
5.89321
20
-3.92783
11
5.85285
21
-3.92783
0
LINE
8
BLACK
6
CONTINUOUS
10
5.85285
20
-3.92783
11
5.84909
21
-3.92709
0
LINE
8
BLACK
6
CONTINUOUS
10
5.84909
20
-3.92709
11
5.84589
21
-3.92495
0
LINE
8
BLACK
6
CONTINUOUS
10
5.84589
20
-3.92495
11
5.84376
21
-3.92176
0
LINE
8
BLACK
6
CONTINUOUS
10
5.84376
20
-3.92176
11
5.84301
21
-3.91799
0
LINE
8
BLACK
6
CONTINUOUS
10
5.84301
20
-3.91799
11
5.84301
21
-3.90618
0
LINE
8
BLACK
6
CONTINUOUS
10
5.84301
20
-3.90618
11
5.84376
21
-3.90241
0
LINE
8
BLACK
6
CONTINUOUS
10
5.84376
20
-3.90241
11
5.84589
21
-3.89922
0
LINE
8
BLACK
6
CONTINUOUS
10
5.84589
20
-3.89922
11
5.84909
21
-3.89709
0
LINE
8
BLACK
6
CONTINUOUS
10
5.84909
20
-3.89709
11
5.85285
21
-3.89634
0
LINE
8
BLACK
6
CONTINUOUS
10
5.85285
20
-3.89634
11
5.89321
21
-3.89634
0
LINE
8
BLACK
6
CONTINUOUS
10
5.89321
20
-3.89634
11
5.89698
21
-3.89709
0
LINE
8
BLACK
6
CONTINUOUS
10
6.00491
20
-3.8686
11
6.00698
21
-3.86998
0
LINE
8
BLACK
6
CONTINUOUS
10
6.00698
20
-3.86998
11
6.00837
21
-3.87206
0
LINE
8
BLACK
6
CONTINUOUS
10
6.00837
20
-3.87206
11
6.00886
21
-3.87451
0
LINE
8
BLACK
6
CONTINUOUS
10
6.00886
20
-3.87451
11
6.00886
21
-3.90207
0
LINE
8
BLACK
6
CONTINUOUS
10
6.00886
20
-3.90207
11
6.00837
21
-3.90452
0
LINE
8
BLACK
6
CONTINUOUS
10
6.00837
20
-3.90452
11
6.00698
21
-3.90659
0
LINE
8
BLACK
6
CONTINUOUS
10
6.00698
20
-3.90659
11
6.00491
21
-3.90798
0
LINE
8
BLACK
6
CONTINUOUS
10
6.00491
20
-3.90798
11
6.00246
21
-3.90846
0
LINE
8
BLACK
6
CONTINUOUS
10
6.00246
20
-3.90846
11
5.99754
21
-3.90846
0
LINE
8
BLACK
6
CONTINUOUS
10
5.99754
20
-3.90846
11
5.99509
21
-3.90798
0
LINE
8
BLACK
6
CONTINUOUS
10
5.99509
20
-3.90798
11
5.99302
21
-3.90659
0
LINE
8
BLACK
6
CONTINUOUS
10
5.99302
20
-3.90659
11
5.99163
21
-3.90452
0
LINE
8
BLACK
6
CONTINUOUS
10
5.99163
20
-3.90452
11
5.99114
21
-3.90207
0
LINE
8
BLACK
6
CONTINUOUS
10
5.99114
20
-3.90207
11
5.99114
21
-3.87451
0
LINE
8
BLACK
6
CONTINUOUS
10
5.99114
20
-3.87451
11
5.99163
21
-3.87206
0
LINE
8
BLACK
6
CONTINUOUS
10
5.99163
20
-3.87206
11
5.99302
21
-3.86998
0
LINE
8
BLACK
6
CONTINUOUS
10
5.99302
20
-3.86998
11
5.99509
21
-3.8686
0
LINE
8
BLACK
6
CONTINUOUS
10
5.99509
20
-3.8686
11
5.99754
21
-3.86811
0
LINE
8
BLACK
6
CONTINUOUS
10
5.99754
20
-3.86811
11
6.00246
21
-3.86811
0
LINE
8
BLACK
6
CONTINUOUS
10
6.00246
20
-3.86811
11
6.00491
21
-3.8686
0
LINE
8
BLACK
6
CONTINUOUS
10
6.02459
20
-3.8686
11
6.02667
21
-3.86998
0
LINE
8
BLACK
6
CONTINUOUS
10
6.02667
20
-3.86998
11
6.02806
21
-3.87206
0
LINE
8
BLACK
6
CONTINUOUS
10
6.02806
20
-3.87206
11
6.02854
21
-3.87451
0
LINE
8
BLACK
6
CONTINUOUS
10
6.02854
20
-3.87451
11
6.02854
21
-3.90207
0
LINE
8
BLACK
6
CONTINUOUS
10
6.02854
20
-3.90207
11
6.02806
21
-3.90452
0
LINE
8
BLACK
6
CONTINUOUS
10
6.02806
20
-3.90452
11
6.02667
21
-3.90659
0
LINE
8
BLACK
6
CONTINUOUS
10
6.02667
20
-3.90659
11
6.02459
21
-3.90798
0
LINE
8
BLACK
6
CONTINUOUS
10
6.02459
20
-3.90798
11
6.02215
21
-3.90846
0
LINE
8
BLACK
6
CONTINUOUS
10
6.02215
20
-3.90846
11
6.01722
21
-3.90846
0
LINE
8
BLACK
6
CONTINUOUS
10
6.01722
20
-3.90846
11
6.01478
21
-3.90798
0
LINE
8
BLACK
6
CONTINUOUS
10
6.01478
20
-3.90798
11
6.0127
21
-3.90659
0
LINE
8
BLACK
6
CONTINUOUS
10
6.0127
20
-3.90659
11
6.01131
21
-3.90452
0
LINE
8
BLACK
6
CONTINUOUS
10
6.01131
20
-3.90452
11
6.01083
21
-3.90207
0
LINE
8
BLACK
6
CONTINUOUS
10
6.01083
20
-3.90207
11
6.01083
21
-3.87451
0
LINE
8
BLACK
6
CONTINUOUS
10
6.01083
20
-3.87451
11
6.01131
21
-3.87206
0
LINE
8
BLACK
6
CONTINUOUS
10
6.01131
20
-3.87206
11
6.0127
21
-3.86998
0
LINE
8
BLACK
6
CONTINUOUS
10
6.0127
20
-3.86998
11
6.01478
21
-3.8686
0
LINE
8
BLACK
6
CONTINUOUS
10
6.01478
20
-3.8686
11
6.01722
21
-3.86811
0
LINE
8
BLACK
6
CONTINUOUS
10
6.01722
20
-3.86811
11
6.02215
21
-3.86811
0
LINE
8
BLACK
6
CONTINUOUS
10
6.02215
20
-3.86811
11
6.02459
21
-3.8686
0
LINE
8
BLACK
6
CONTINUOUS
10
6.04428
20
-3.8686
11
6.04635
21
-3.86998
0
LINE
8
BLACK
6
CONTINUOUS
10
6.04635
20
-3.86998
11
6.04774
21
-3.87206
0
LINE
8
BLACK
6
CONTINUOUS
10
6.04774
20
-3.87206
11
6.04823
21
-3.87451
0
LINE
8
BLACK
6
CONTINUOUS
10
6.04823
20
-3.87451
11
6.04823
21
-3.90207
0
LINE
8
BLACK
6
CONTINUOUS
10
6.04823
20
-3.90207
11
6.04774
21
-3.90452
0
LINE
8
BLACK
6
CONTINUOUS
10
6.04774
20
-3.90452
11
6.04635
21
-3.90659
0
LINE
8
BLACK
6
CONTINUOUS
10
6.04635
20
-3.90659
11
6.04428
21
-3.90798
0
LINE
8
BLACK
6
CONTINUOUS
10
6.04428
20
-3.90798
11
6.04183
21
-3.90846
0
LINE
8
BLACK
6
CONTINUOUS
10
6.04183
20
-3.90846
11
6.03691
21
-3.90846
0
LINE
8
BLACK
6
CONTINUOUS
10
6.03691
20
-3.90846
11
6.03446
21
-3.90798
0
LINE
8
BLACK
6
CONTINUOUS
10
6.03446
20
-3.90798
11
6.03239
21
-3.90659
0
LINE
8
BLACK
6
CONTINUOUS
10
6.03239
20
-3.90659
11
6.031
21
-3.90452
0
LINE
8
BLACK
6
CONTINUOUS
10
6.031
20
-3.90452
11
6.03051
21
-3.90207
0
LINE
8
BLACK
6
CONTINUOUS
10
6.03051
20
-3.90207
11
6.03051
21
-3.87451
0
LINE
8
BLACK
6
CONTINUOUS
10
6.03051
20
-3.87451
11
6.031
21
-3.87206
0
LINE
8
BLACK
6
CONTINUOUS
10
6.031
20
-3.87206
11
6.03239
21
-3.86998
0
LINE
8
BLACK
6
CONTINUOUS
10
6.03239
20
-3.86998
11
6.03446
21
-3.8686
0
LINE
8
BLACK
6
CONTINUOUS
10
6.03446
20
-3.8686
11
6.03691
21
-3.86811
0
LINE
8
BLACK
6
CONTINUOUS
10
6.03691
20
-3.86811
11
6.04183
21
-3.86811
0
LINE
8
BLACK
6
CONTINUOUS
10
6.04183
20
-3.86811
11
6.04428
21
-3.8686
0
LINE
8
BLACK
6
CONTINUOUS
10
6.06396
20
-3.8686
11
6.06604
21
-3.86998
0
LINE
8
BLACK
6
CONTINUOUS
10
6.06604
20
-3.86998
11
6.06743
21
-3.87206
0
LINE
8
BLACK
6
CONTINUOUS
10
6.06743
20
-3.87206
11
6.06791
21
-3.87451
0
LINE
8
BLACK
6
CONTINUOUS
10
6.06791
20
-3.87451
11
6.06791
21
-3.90207
0
LINE
8
BLACK
6
CONTINUOUS
10
6.06791
20
-3.90207
11
6.06743
21
-3.90452
0
LINE
8
BLACK
6
CONTINUOUS
10
6.06743
20
-3.90452
11
6.06604
21
-3.90659
0
LINE
8
BLACK
6
CONTINUOUS
10
6.06604
20
-3.90659
11
6.06396
21
-3.90798
0
LINE
8
BLACK
6
CONTINUOUS
10
6.06396
20
-3.90798
11
6.06152
21
-3.90846
0
LINE
8
BLACK
6
CONTINUOUS
10
6.06152
20
-3.90846
11
6.05659
21
-3.90846
0
LINE
8
BLACK
6
CONTINUOUS
10
6.05659
20
-3.90846
11
6.05415
21
-3.90798
0
LINE
8
BLACK
6
CONTINUOUS
10
6.05415
20
-3.90798
11
6.05207
21
-3.90659
0
LINE
8
BLACK
6
CONTINUOUS
10
6.05207
20
-3.90659
11
6.05068
21
-3.90452
0
LINE
8
BLACK
6
CONTINUOUS
10
6.05068
20
-3.90452
11
6.0502
21
-3.90207
0
LINE
8
BLACK
6
CONTINUOUS
10
6.0502
20
-3.90207
11
6.0502
21
-3.87451
0
LINE
8
BLACK
6
CONTINUOUS
10
6.0502
20
-3.87451
11
6.05068
21
-3.87206
0
LINE
8
BLACK
6
CONTINUOUS
10
6.05068
20
-3.87206
11
6.05207
21
-3.86998
0
LINE
8
BLACK
6
CONTINUOUS
10
6.05207
20
-3.86998
11
6.05415
21
-3.8686
0
LINE
8
BLACK
6
CONTINUOUS
10
6.05415
20
-3.8686
11
6.05659
21
-3.86811
0
LINE
8
BLACK
6
CONTINUOUS
10
6.05659
20
-3.86811
11
6.06152
21
-3.86811
0
LINE
8
BLACK
6
CONTINUOUS
10
6.06152
20
-3.86811
11
6.06396
21
-3.8686
0
LINE
8
BLACK
6
CONTINUOUS
10
6.08365
20
-3.8686
11
6.08572
21
-3.86998
0
LINE
8
BLACK
6
CONTINUOUS
10
6.08572
20
-3.86998
11
6.08711
21
-3.87206
0
LINE
8
BLACK
6
CONTINUOUS
10
6.08711
20
-3.87206
11
6.0876
21
-3.87451
0
LINE
8
BLACK
6
CONTINUOUS
10
6.0876
20
-3.87451
11
6.0876
21
-3.90207
0
LINE
8
BLACK
6
CONTINUOUS
10
6.0876
20
-3.90207
11
6.08711
21
-3.90452
0
LINE
8
BLACK
6
CONTINUOUS
10
6.08711
20
-3.90452
11
6.08572
21
-3.90659
0
LINE
8
BLACK
6
CONTINUOUS
10
6.08572
20
-3.90659
11
6.08365
21
-3.90798
0
LINE
8
BLACK
6
CONTINUOUS
10
6.08365
20
-3.90798
11
6.0812
21
-3.90846
0
LINE
8
BLACK
6
CONTINUOUS
10
6.0812
20
-3.90846
11
6.07628
21
-3.90846
0
LINE
8
BLACK
6
CONTINUOUS
10
6.07628
20
-3.90846
11
6.07383
21
-3.90798
0
LINE
8
BLACK
6
CONTINUOUS
10
6.07383
20
-3.90798
11
6.07176
21
-3.90659
0
LINE
8
BLACK
6
CONTINUOUS
10
6.07176
20
-3.90659
11
6.07037
21
-3.90452
0
LINE
8
BLACK
6
CONTINUOUS
10
6.07037
20
-3.90452
11
6.06988
21
-3.90207
0
LINE
8
BLACK
6
CONTINUOUS
10
6.06988
20
-3.90207
11
6.06988
21
-3.87451
0
LINE
8
BLACK
6
CONTINUOUS
10
6.06988
20
-3.87451
11
6.07037
21
-3.87206
0
LINE
8
BLACK
6
CONTINUOUS
10
6.07037
20
-3.87206
11
6.07176
21
-3.86998
0
LINE
8
BLACK
6
CONTINUOUS
10
6.07176
20
-3.86998
11
6.07383
21
-3.8686
0
LINE
8
BLACK
6
CONTINUOUS
10
6.07383
20
-3.8686
11
6.07628
21
-3.86811
0
LINE
8
BLACK
6
CONTINUOUS
10
6.07628
20
-3.86811
11
6.0812
21
-3.86811
0
LINE
8
BLACK
6
CONTINUOUS
10
6.0812
20
-3.86811
11
6.08365
21
-3.8686
0
LINE
8
BLACK
6
CONTINUOUS
10
6.49373
20
-3.81061
11
6.49781
21
-3.8126
0
LINE
8
BLACK
6
CONTINUOUS
10
6.49781
20
-3.8126
11
6.50102
21
-3.81581
0
LINE
8
BLACK
6
CONTINUOUS
10
6.50102
20
-3.81581
11
6.50301
21
-3.81989
0
LINE
8
BLACK
6
CONTINUOUS
10
6.50301
20
-3.81989
11
6.50358
21
-3.82382
0
LINE
8
BLACK
6
CONTINUOUS
10
6.50358
20
-3.82382
11
6.50358
21
-3.8435
0
LINE
8
BLACK
6
CONTINUOUS
10
6.50358
20
-3.8435
11
6.50301
21
-3.84744
0
LINE
8
BLACK
6
CONTINUOUS
10
6.50301
20
-3.84744
11
6.50102
21
-3.85151
0
LINE
8
BLACK
6
CONTINUOUS
10
6.50102
20
-3.85151
11
6.49781
21
-3.85472
0
LINE
8
BLACK
6
CONTINUOUS
10
6.49781
20
-3.85472
11
6.49373
21
-3.85671
0
LINE
8
BLACK
6
CONTINUOUS
10
6.49373
20
-3.85671
11
6.4898
21
-3.85728
0
LINE
8
BLACK
6
CONTINUOUS
10
6.4898
20
-3.85728
11
6.40319
21
-3.85728
0
LINE
8
BLACK
6
CONTINUOUS
10
6.40319
20
-3.85728
11
6.39926
21
-3.85671
0
LINE
8
BLACK
6
CONTINUOUS
10
6.39926
20
-3.85671
11
6.39518
21
-3.85472
0
LINE
8
BLACK
6
CONTINUOUS
10
6.39518
20
-3.85472
11
6.39197
21
-3.85151
0
LINE
8
BLACK
6
CONTINUOUS
10
6.39197
20
-3.85151
11
6.38998
21
-3.84744
0
LINE
8
BLACK
6
CONTINUOUS
10
6.38998
20
-3.84744
11
6.38941
21
-3.8435
0
LINE
8
BLACK
6
CONTINUOUS
10
6.38941
20
-3.8435
11
6.38941
21
-3.82382
0
LINE
8
BLACK
6
CONTINUOUS
10
6.38941
20
-3.82382
11
6.38998
21
-3.81989
0
LINE
8
BLACK
6
CONTINUOUS
10
6.38998
20
-3.81989
11
6.39197
21
-3.81581
0
LINE
8
BLACK
6
CONTINUOUS
10
6.39197
20
-3.81581
11
6.39518
21
-3.8126
0
LINE
8
BLACK
6
CONTINUOUS
10
6.39518
20
-3.8126
11
6.39926
21
-3.81061
0
LINE
8
BLACK
6
CONTINUOUS
10
6.39926
20
-3.81061
11
6.40319
21
-3.81004
0
LINE
8
BLACK
6
CONTINUOUS
10
6.40319
20
-3.81004
11
6.4898
21
-3.81004
0
LINE
8
BLACK
6
CONTINUOUS
10
6.4898
20
-3.81004
11
6.49373
21
-3.81061
0
LINE
8
BLACK
6
CONTINUOUS
10
6.16707
20
-3.81134
11
6.17104
21
-3.81309
0
LINE
8
BLACK
6
CONTINUOUS
10
6.17104
20
-3.81309
11
6.17411
21
-3.81616
0
LINE
8
BLACK
6
CONTINUOUS
10
6.17411
20
-3.81616
11
6.17587
21
-3.82013
0
LINE
8
BLACK
6
CONTINUOUS
10
6.17587
20
-3.82013
11
6.17618
21
-3.82283
0
LINE
8
BLACK
6
CONTINUOUS
10
6.17618
20
-3.82283
11
6.17618
21
-3.83858
0
LINE
8
BLACK
6
CONTINUOUS
10
6.17618
20
-3.83858
11
6.17587
21
-3.84129
0
LINE
8
BLACK
6
CONTINUOUS
10
6.17587
20
-3.84129
11
6.17411
21
-3.84526
0
LINE
8
BLACK
6
CONTINUOUS
10
6.17411
20
-3.84526
11
6.17104
21
-3.84833
0
LINE
8
BLACK
6
CONTINUOUS
10
6.17104
20
-3.84833
11
6.16707
21
-3.85008
0
LINE
8
BLACK
6
CONTINUOUS
10
6.16707
20
-3.85008
11
6.16437
21
-3.85039
0
LINE
8
BLACK
6
CONTINUOUS
10
6.16437
20
-3.85039
11
6.14272
21
-3.85039
0
LINE
8
BLACK
6
CONTINUOUS
10
6.14272
20
-3.85039
11
6.14001
21
-3.85008
0
LINE
8
BLACK
6
CONTINUOUS
10
6.14001
20
-3.85008
11
6.13604
21
-3.84833
0
LINE
8
BLACK
6
CONTINUOUS
10
6.13604
20
-3.84833
11
6.13297
21
-3.84526
0
LINE
8
BLACK
6
CONTINUOUS
10
6.13297
20
-3.84526
11
6.13122
21
-3.84129
0
LINE
8
BLACK
6
CONTINUOUS
10
6.13122
20
-3.84129
11
6.13091
21
-3.83858
0
LINE
8
BLACK
6
CONTINUOUS
10
6.13091
20
-3.83858
11
6.13091
21
-3.82283
0
LINE
8
BLACK
6
CONTINUOUS
10
6.13091
20
-3.82283
11
6.13122
21
-3.82013
0
LINE
8
BLACK
6
CONTINUOUS
10
6.13122
20
-3.82013
11
6.13297
21
-3.81616
0
LINE
8
BLACK
6
CONTINUOUS
10
6.13297
20
-3.81616
11
6.13604
21
-3.81309
0
LINE
8
BLACK
6
CONTINUOUS
10
6.13604
20
-3.81309
11
6.14001
21
-3.81134
0
LINE
8
BLACK
6
CONTINUOUS
10
6.14001
20
-3.81134
11
6.14272
21
-3.81102
0
LINE
8
BLACK
6
CONTINUOUS
10
6.14272
20
-3.81102
11
6.16437
21
-3.81102
0
LINE
8
BLACK
6
CONTINUOUS
10
6.16437
20
-3.81102
11
6.16707
21
-3.81134
0
LINE
8
BLACK
6
CONTINUOUS
10
5.97772
20
-3.80162
11
5.98175
21
-3.8035
0
LINE
8
BLACK
6
CONTINUOUS
10
5.98175
20
-3.8035
11
5.98489
21
-3.80664
0
LINE
8
BLACK
6
CONTINUOUS
10
5.98489
20
-3.80664
11
5.98677
21
-3.81066
0
LINE
8
BLACK
6
CONTINUOUS
10
5.98677
20
-3.81066
11
5.9872
21
-3.81398
0
LINE
8
BLACK
6
CONTINUOUS
10
5.9872
20
-3.81398
11
5.9872
21
-3.83169
0
LINE
8
BLACK
6
CONTINUOUS
10
5.9872
20
-3.83169
11
5.98677
21
-3.835
0
LINE
8
BLACK
6
CONTINUOUS
10
5.98677
20
-3.835
11
5.98489
21
-3.83903
0
LINE
8
BLACK
6
CONTINUOUS
10
5.98489
20
-3.83903
11
5.98175
21
-3.84217
0
LINE
8
BLACK
6
CONTINUOUS
10
5.98175
20
-3.84217
11
5.97772
21
-3.84405
0
LINE
8
BLACK
6
CONTINUOUS
10
5.97772
20
-3.84405
11
5.97441
21
-3.84449
0
LINE
8
BLACK
6
CONTINUOUS
10
5.97441
20
-3.84449
11
5.95472
21
-3.84449
0
LINE
8
BLACK
6
CONTINUOUS
10
5.95472
20
-3.84449
11
5.95141
21
-3.84405
0
LINE
8
BLACK
6
CONTINUOUS
10
5.95141
20
-3.84405
11
5.94739
21
-3.84217
0
LINE
8
BLACK
6
CONTINUOUS
10
5.94739
20
-3.84217
11
5.94424
21
-3.83903
0
LINE
8
BLACK
6
CONTINUOUS
10
5.94424
20
-3.83903
11
5.94237
21
-3.835
0
LINE
8
BLACK
6
CONTINUOUS
10
5.94237
20
-3.835
11
5.94193
21
-3.83169
0
LINE
8
BLACK
6
CONTINUOUS
10
5.94193
20
-3.83169
11
5.94193
21
-3.81398
0
LINE
8
BLACK
6
CONTINUOUS
10
5.94193
20
-3.81398
11
5.94237
21
-3.81066
0
LINE
8
BLACK
6
CONTINUOUS
10
5.94237
20
-3.81066
11
5.94424
21
-3.80664
0
LINE
8
BLACK
6
CONTINUOUS
10
5.94424
20
-3.80664
11
5.94739
21
-3.8035
0
LINE
8
BLACK
6
CONTINUOUS
10
5.94739
20
-3.8035
11
5.95141
21
-3.80162
0
LINE
8
BLACK
6
CONTINUOUS
10
5.95141
20
-3.80162
11
5.95472
21
-3.80118
0
LINE
8
BLACK
6
CONTINUOUS
10
5.95472
20
-3.80118
11
5.97441
21
-3.80118
0
LINE
8
BLACK
6
CONTINUOUS
10
5.97441
20
-3.80118
11
5.97772
21
-3.80162
0
LINE
8
BLACK
6
CONTINUOUS
10
6.04859
20
-3.80162
11
6.05261
21
-3.8035
0
LINE
8
BLACK
6
CONTINUOUS
10
6.05261
20
-3.8035
11
6.05576
21
-3.80664
0
LINE
8
BLACK
6
CONTINUOUS
10
6.05576
20
-3.80664
11
6.05763
21
-3.81066
0
LINE
8
BLACK
6
CONTINUOUS
10
6.05763
20
-3.81066
11
6.05807
21
-3.81398
0
LINE
8
BLACK
6
CONTINUOUS
10
6.05807
20
-3.81398
11
6.05807
21
-3.83169
0
LINE
8
BLACK
6
CONTINUOUS
10
6.05807
20
-3.83169
11
6.05763
21
-3.835
0
LINE
8
BLACK
6
CONTINUOUS
10
6.05763
20
-3.835
11
6.05576
21
-3.83903
0
LINE
8
BLACK
6
CONTINUOUS
10
6.05576
20
-3.83903
11
6.05261
21
-3.84217
0
LINE
8
BLACK
6
CONTINUOUS
10
6.05261
20
-3.84217
11
6.04859
21
-3.84405
0
LINE
8
BLACK
6
CONTINUOUS
10
6.04859
20
-3.84405
11
6.04528
21
-3.84449
0
LINE
8
BLACK
6
CONTINUOUS
10
6.04528
20
-3.84449
11
6.02559
21
-3.84449
0
LINE
8
BLACK
6
CONTINUOUS
10
6.02559
20
-3.84449
11
6.02228
21
-3.84405
0
LINE
8
BLACK
6
CONTINUOUS
10
6.02228
20
-3.84405
11
6.01825
21
-3.84217
0
LINE
8
BLACK
6
CONTINUOUS
10
6.01825
20
-3.84217
11
6.01511
21
-3.83903
0
LINE
8
BLACK
6
CONTINUOUS
10
6.01511
20
-3.83903
11
6.01323
21
-3.835
0
LINE
8
BLACK
6
CONTINUOUS
10
6.01323
20
-3.835
11
6.0128
21
-3.83169
0
LINE
8
BLACK
6
CONTINUOUS
10
6.0128
20
-3.83169
11
6.0128
21
-3.81398
0
LINE
8
BLACK
6
CONTINUOUS
10
6.0128
20
-3.81398
11
6.01323
21
-3.81066
0
LINE
8
BLACK
6
CONTINUOUS
10
6.01323
20
-3.81066
11
6.01511
21
-3.80664
0
LINE
8
BLACK
6
CONTINUOUS
10
6.01511
20
-3.80664
11
6.01825
21
-3.8035
0
LINE
8
BLACK
6
CONTINUOUS
10
6.01825
20
-3.8035
11
6.02228
21
-3.80162
0
LINE
8
BLACK
6
CONTINUOUS
10
6.02228
20
-3.80162
11
6.02559
21
-3.80118
0
LINE
8
BLACK
6
CONTINUOUS
10
6.02559
20
-3.80118
11
6.04528
21
-3.80118
0
LINE
8
BLACK
6
CONTINUOUS
10
6.04528
20
-3.80118
11
6.04859
21
-3.80162
0
LINE
8
BLACK
6
CONTINUOUS
10
5.64467
20
-3.755
11
5.65064
21
-3.75653
0
LINE
8
BLACK
6
CONTINUOUS
10
5.65064
20
-3.75653
11
5.65605
21
-3.7595
0
LINE
8
BLACK
6
CONTINUOUS
10
5.65605
20
-3.7595
11
5.66054
21
-3.76372
0
LINE
8
BLACK
6
CONTINUOUS
10
5.66054
20
-3.76372
11
5.66385
21
-3.76893
0
LINE
8
BLACK
6
CONTINUOUS
10
5.66385
20
-3.76893
11
5.66575
21
-3.7748
0
LINE
8
BLACK
6
CONTINUOUS
10
5.66575
20
-3.7748
11
5.66614
21
-3.78095
0
LINE
8
BLACK
6
CONTINUOUS
10
5.66614
20
-3.78095
11
5.66498
21
-3.78701
0
LINE
8
BLACK
6
CONTINUOUS
10
5.66498
20
-3.78701
11
5.66236
21
-3.79259
0
LINE
8
BLACK
6
CONTINUOUS
10
5.66236
20
-3.79259
11
5.65843
21
-3.79735
0
LINE
8
BLACK
6
CONTINUOUS
10
5.65843
20
-3.79735
11
5.65344
21
-3.80097
0
LINE
8
BLACK
6
CONTINUOUS
10
5.65344
20
-3.80097
11
5.6477
21
-3.80324
0
LINE
8
BLACK
6
CONTINUOUS
10
5.6477
20
-3.80324
11
5.64158
21
-3.80402
0
LINE
8
BLACK
6
CONTINUOUS
10
5.64158
20
-3.80402
11
5.60024
21
-3.80402
0
LINE
8
BLACK
6
CONTINUOUS
10
5.60024
20
-3.80402
11
5.59716
21
-3.80382
0
LINE
8
BLACK
6
CONTINUOUS
10
5.59716
20
-3.80382
11
5.59119
21
-3.80229
0
LINE
8
BLACK
6
CONTINUOUS
10
5.59119
20
-3.80229
11
5.58578
21
-3.79932
0
LINE
8
BLACK
6
CONTINUOUS
10
5.58578
20
-3.79932
11
5.58128
21
-3.79509
0
LINE
8
BLACK
6
CONTINUOUS
10
5.58128
20
-3.79509
11
5.57798
21
-3.78989
0
LINE
8
BLACK
6
CONTINUOUS
10
5.57798
20
-3.78989
11
5.57607
21
-3.78402
0
LINE
8
BLACK
6
CONTINUOUS
10
5.57607
20
-3.78402
11
5.57569
21
-3.77786
0
LINE
8
BLACK
6
CONTINUOUS
10
5.57569
20
-3.77786
11
5.57684
21
-3.77181
0
LINE
8
BLACK
6
CONTINUOUS
10
5.57684
20
-3.77181
11
5.57947
21
-3.76622
0
LINE
8
BLACK
6
CONTINUOUS
10
5.57947
20
-3.76622
11
5.5834
21
-3.76147
0
LINE
8
BLACK
6
CONTINUOUS
10
5.5834
20
-3.76147
11
5.58839
21
-3.75785
0
LINE
8
BLACK
6
CONTINUOUS
10
5.58839
20
-3.75785
11
5.59412
21
-3.75558
0
LINE
8
BLACK
6
CONTINUOUS
10
5.59412
20
-3.75558
11
5.60024
21
-3.7548
0
LINE
8
BLACK
6
CONTINUOUS
10
5.60024
20
-3.7548
11
5.64158
21
-3.7548
0
LINE
8
BLACK
6
CONTINUOUS
10
5.64158
20
-3.7548
11
5.64467
21
-3.755
0
LINE
8
BLACK
6
CONTINUOUS
10
5.48215
20
-3.75659
11
5.48784
21
-3.75895
0
LINE
8
BLACK
6
CONTINUOUS
10
5.48784
20
-3.75895
11
5.49273
21
-3.76271
0
LINE
8
BLACK
6
CONTINUOUS
10
5.49273
20
-3.76271
11
5.49649
21
-3.7676
0
LINE
8
BLACK
6
CONTINUOUS
10
5.49649
20
-3.7676
11
5.49885
21
-3.7733
0
LINE
8
BLACK
6
CONTINUOUS
10
5.49885
20
-3.7733
11
5.49965
21
-3.77941
0
LINE
8
BLACK
6
CONTINUOUS
10
5.49965
20
-3.77941
11
5.49885
21
-3.78552
0
LINE
8
BLACK
6
CONTINUOUS
10
5.49885
20
-3.78552
11
5.49649
21
-3.79122
0
LINE
8
BLACK
6
CONTINUOUS
10
5.49649
20
-3.79122
11
5.49273
21
-3.79611
0
LINE
8
BLACK
6
CONTINUOUS
10
5.49273
20
-3.79611
11
5.48784
21
-3.79987
0
LINE
8
BLACK
6
CONTINUOUS
10
5.48784
20
-3.79987
11
5.48215
21
-3.80223
0
LINE
8
BLACK
6
CONTINUOUS
10
5.48215
20
-3.80223
11
5.47603
21
-3.80303
0
LINE
8
BLACK
6
CONTINUOUS
10
5.47603
20
-3.80303
11
5.43666
21
-3.80303
0
LINE
8
BLACK
6
CONTINUOUS
10
5.43666
20
-3.80303
11
5.43055
21
-3.80223
0
LINE
8
BLACK
6
CONTINUOUS
10
5.43055
20
-3.80223
11
5.42485
21
-3.79987
0
LINE
8
BLACK
6
CONTINUOUS
10
5.42485
20
-3.79987
11
5.41996
21
-3.79611
0
LINE
8
BLACK
6
CONTINUOUS
10
5.41996
20
-3.79611
11
5.4162
21
-3.79122
0
LINE
8
BLACK
6
CONTINUOUS
10
5.4162
20
-3.79122
11
5.41384
21
-3.78552
0
LINE
8
BLACK
6
CONTINUOUS
10
5.41384
20
-3.78552
11
5.41304
21
-3.77941
0
LINE
8
BLACK
6
CONTINUOUS
10
5.41304
20
-3.77941
11
5.41384
21
-3.7733
0
LINE
8
BLACK
6
CONTINUOUS
10
5.41384
20
-3.7733
11
5.4162
21
-3.7676
0
LINE
8
BLACK
6
CONTINUOUS
10
5.4162
20
-3.7676
11
5.41996
21
-3.76271
0
LINE
8
BLACK
6
CONTINUOUS
10
5.41996
20
-3.76271
11
5.42485
21
-3.75895
0
LINE
8
BLACK
6
CONTINUOUS
10
5.42485
20
-3.75895
11
5.43055
21
-3.75659
0
LINE
8
BLACK
6
CONTINUOUS
10
5.43055
20
-3.75659
11
5.43666
21
-3.75579
0
LINE
8
BLACK
6
CONTINUOUS
10
5.43666
20
-3.75579
11
5.47603
21
-3.75579
0
LINE
8
BLACK
6
CONTINUOUS
10
5.47603
20
-3.75579
11
5.48215
21
-3.75659
0
LINE
8
BLACK
6
CONTINUOUS
10
6.16707
20
-3.74638
11
6.17104
21
-3.74813
0
LINE
8
BLACK
6
CONTINUOUS
10
6.17104
20
-3.74813
11
6.17411
21
-3.7512
0
LINE
8
BLACK
6
CONTINUOUS
10
6.17411
20
-3.7512
11
6.17587
21
-3.75517
0
LINE
8
BLACK
6
CONTINUOUS
10
6.17587
20
-3.75517
11
6.17618
21
-3.75787
0
LINE
8
BLACK
6
CONTINUOUS
10
6.17618
20
-3.75787
11
6.17618
21
-3.77362
0
LINE
8
BLACK
6
CONTINUOUS
10
6.17618
20
-3.77362
11
6.17587
21
-3.77633
0
LINE
8
BLACK
6
CONTINUOUS
10
6.17587
20
-3.77633
11
6.17411
21
-3.7803
0
LINE
8
BLACK
6
CONTINUOUS
10
6.17411
20
-3.7803
11
6.17104
21
-3.78337
0
LINE
8
BLACK
6
CONTINUOUS
10
6.17104
20
-3.78337
11
6.16707
21
-3.78512
0
LINE
8
BLACK
6
CONTINUOUS
10
6.16707
20
-3.78512
11
6.16437
21
-3.78543
0
LINE
8
BLACK
6
CONTINUOUS
10
6.16437
20
-3.78543
11
6.14272
21
-3.78543
0
LINE
8
BLACK
6
CONTINUOUS
10
6.14272
20
-3.78543
11
6.14001
21
-3.78512
0
LINE
8
BLACK
6
CONTINUOUS
10
6.14001
20
-3.78512
11
6.13604
21
-3.78337
0
LINE
8
BLACK
6
CONTINUOUS
10
6.13604
20
-3.78337
11
6.13297
21
-3.7803
0
LINE
8
BLACK
6
CONTINUOUS
10
6.13297
20
-3.7803
11
6.13122
21
-3.77633
0
LINE
8
BLACK
6
CONTINUOUS
10
6.13122
20
-3.77633
11
6.13091
21
-3.77362
0
LINE
8
BLACK
6
CONTINUOUS
10
6.13091
20
-3.77362
11
6.13091
21
-3.75787
0
LINE
8
BLACK
6
CONTINUOUS
10
6.13091
20
-3.75787
11
6.13122
21
-3.75517
0
LINE
8
BLACK
6
CONTINUOUS
10
6.13122
20
-3.75517
11
6.13297
21
-3.7512
0
LINE
8
BLACK
6
CONTINUOUS
10
6.13297
20
-3.7512
11
6.13604
21
-3.74813
0
LINE
8
BLACK
6
CONTINUOUS
10
6.13604
20
-3.74813
11
6.14001
21
-3.74638
0
LINE
8
BLACK
6
CONTINUOUS
10
6.14001
20
-3.74638
11
6.14272
21
-3.74606
0
LINE
8
BLACK
6
CONTINUOUS
10
6.14272
20
-3.74606
11
6.16437
21
-3.74606
0
LINE
8
BLACK
6
CONTINUOUS
10
6.16437
20
-3.74606
11
6.16707
21
-3.74638
0
LINE
8
BLACK
6
CONTINUOUS
10
5.97772
20
-3.74059
11
5.98175
21
-3.74247
0
LINE
8
BLACK
6
CONTINUOUS
10
5.98175
20
-3.74247
11
5.98489
21
-3.74561
0
LINE
8
BLACK
6
CONTINUOUS
10
5.98489
20
-3.74561
11
5.98677
21
-3.74964
0
LINE
8
BLACK
6
CONTINUOUS
10
5.98677
20
-3.74964
11
5.9872
21
-3.75295
0
LINE
8
BLACK
6
CONTINUOUS
10
5.9872
20
-3.75295
11
5.9872
21
-3.77067
0
LINE
8
BLACK
6
CONTINUOUS
10
5.9872
20
-3.77067
11
5.98677
21
-3.77398
0
LINE
8
BLACK
6
CONTINUOUS
10
5.98677
20
-3.77398
11
5.98489
21
-3.77801
0
LINE
8
BLACK
6
CONTINUOUS
10
5.98489
20
-3.77801
11
5.98175
21
-3.78115
0
LINE
8
BLACK
6
CONTINUOUS
10
5.98175
20
-3.78115
11
5.97772
21
-3.78303
0
LINE
8
BLACK
6
CONTINUOUS
10
5.97772
20
-3.78303
11
5.97441
21
-3.78346
0
LINE
8
BLACK
6
CONTINUOUS
10
5.97441
20
-3.78346
11
5.95472
21
-3.78346
0
LINE
8
BLACK
6
CONTINUOUS
10
5.95472
20
-3.78346
11
5.95141
21
-3.78303
0
LINE
8
BLACK
6
CONTINUOUS
10
5.95141
20
-3.78303
11
5.94739
21
-3.78115
0
LINE
8
BLACK
6
CONTINUOUS
10
5.94739
20
-3.78115
11
5.94424
21
-3.77801
0
LINE
8
BLACK
6
CONTINUOUS
10
5.94424
20
-3.77801
11
5.94237
21
-3.77398
0
LINE
8
BLACK
6
CONTINUOUS
10
5.94237
20
-3.77398
11
5.94193
21
-3.77067
0
LINE
8
BLACK
6
CONTINUOUS
10
5.94193
20
-3.77067
11
5.94193
21
-3.75295
0
LINE
8
BLACK
6
CONTINUOUS
10
5.94193
20
-3.75295
11
5.94237
21
-3.74964
0
LINE
8
BLACK
6
CONTINUOUS
10
5.94237
20
-3.74964
11
5.94424
21
-3.74561
0
LINE
8
BLACK
6
CONTINUOUS
10
5.94424
20
-3.74561
11
5.94739
21
-3.74247
0
LINE
8
BLACK
6
CONTINUOUS
10
5.94739
20
-3.74247
11
5.95141
21
-3.74059
0
LINE
8
BLACK
6
CONTINUOUS
10
5.95141
20
-3.74059
11
5.95472
21
-3.74016
0
LINE
8
BLACK
6
CONTINUOUS
10
5.95472
20
-3.74016
11
5.97441
21
-3.74016
0
LINE
8
BLACK
6
CONTINUOUS
10
5.97441
20
-3.74016
11
5.97772
21
-3.74059
0
LINE
8
BLACK
6
CONTINUOUS
10
6.04859
20
-3.74059
11
6.05261
21
-3.74247
0
LINE
8
BLACK
6
CONTINUOUS
10
6.05261
20
-3.74247
11
6.05576
21
-3.74561
0
LINE
8
BLACK
6
CONTINUOUS
10
6.05576
20
-3.74561
11
6.05763
21
-3.74964
0
LINE
8
BLACK
6
CONTINUOUS
10
6.05763
20
-3.74964
11
6.05807
21
-3.75295
0
LINE
8
BLACK
6
CONTINUOUS
10
6.05807
20
-3.75295
11
6.05807
21
-3.77067
0
LINE
8
BLACK
6
CONTINUOUS
10
6.05807
20
-3.77067
11
6.05763
21
-3.77398
0
LINE
8
BLACK
6
CONTINUOUS
10
6.05763
20
-3.77398
11
6.05576
21
-3.77801
0
LINE
8
BLACK
6
CONTINUOUS
10
6.05576
20
-3.77801
11
6.05261
21
-3.78115
0
LINE
8
BLACK
6
CONTINUOUS
10
6.05261
20
-3.78115
11
6.04859
21
-3.78303
0
LINE
8
BLACK
6
CONTINUOUS
10
6.04859
20
-3.78303
11
6.04528
21
-3.78346
0
LINE
8
BLACK
6
CONTINUOUS
10
6.04528
20
-3.78346
11
6.02559
21
-3.78346
0
LINE
8
BLACK
6
CONTINUOUS
10
6.02559
20
-3.78346
11
6.02228
21
-3.78303
0
LINE
8
BLACK
6
CONTINUOUS
10
6.02228
20
-3.78303
11
6.01825
21
-3.78115
0
LINE
8
BLACK
6
CONTINUOUS
10
6.01825
20
-3.78115
11
6.01511
21
-3.77801
0
LINE
8
BLACK
6
CONTINUOUS
10
6.01511
20
-3.77801
11
6.01323
21
-3.77398
0
LINE
8
BLACK
6
CONTINUOUS
10
6.01323
20
-3.77398
11
6.0128
21
-3.77067
0
LINE
8
BLACK
6
CONTINUOUS
10
6.0128
20
-3.77067
11
6.0128
21
-3.75295
0
LINE
8
BLACK
6
CONTINUOUS
10
6.0128
20
-3.75295
11
6.01323
21
-3.74964
0
LINE
8
BLACK
6
CONTINUOUS
10
6.01323
20
-3.74964
11
6.01511
21
-3.74561
0
LINE
8
BLACK
6
CONTINUOUS
10
6.01511
20
-3.74561
11
6.01825
21
-3.74247
0
LINE
8
BLACK
6
CONTINUOUS
10
6.01825
20
-3.74247
11
6.02228
21
-3.74059
0
LINE
8
BLACK
6
CONTINUOUS
10
6.02228
20
-3.74059
11
6.02559
21
-3.74016
0
LINE
8
BLACK
6
CONTINUOUS
10
6.02559
20
-3.74016
11
6.04528
21
-3.74016
0
LINE
8
BLACK
6
CONTINUOUS
10
6.04528
20
-3.74016
11
6.04859
21
-3.74059
0
LINE
8
BLACK
6
CONTINUOUS
10
6.35184
20
-3.74583
11
6.35503
21
-3.74796
0
LINE
8
BLACK
6
CONTINUOUS
10
6.35503
20
-3.74796
11
6.35716
21
-3.75115
0
LINE
8
BLACK
6
CONTINUOUS
10
6.35716
20
-3.75115
11
6.35791
21
-3.75492
0
LINE
8
BLACK
6
CONTINUOUS
10
6.35791
20
-3.75492
11
6.35791
21
-3.76673
0
LINE
8
BLACK
6
CONTINUOUS
10
6.35791
20
-3.76673
11
6.35716
21
-3.7705
0
LINE
8
BLACK
6
CONTINUOUS
10
6.35716
20
-3.7705
11
6.35503
21
-3.77369
0
LINE
8
BLACK
6
CONTINUOUS
10
6.35503
20
-3.77369
11
6.35184
21
-3.77583
0
LINE
8
BLACK
6
CONTINUOUS
10
6.35184
20
-3.77583
11
6.34807
21
-3.77657
0
LINE
8
BLACK
6
CONTINUOUS
10
6.34807
20
-3.77657
11
6.29295
21
-3.77657
0
LINE
8
BLACK
6
CONTINUOUS
10
6.29295
20
-3.77657
11
6.28919
21
-3.77583
0
LINE
8
BLACK
6
CONTINUOUS
10
6.28919
20
-3.77583
11
6.28599
21
-3.77369
0
LINE
8
BLACK
6
CONTINUOUS
10
6.28599
20
-3.77369
11
6.28386
21
-3.7705
0
LINE
8
BLACK
6
CONTINUOUS
10
6.28386
20
-3.7705
11
6.28311
21
-3.76673
0
LINE
8
BLACK
6
CONTINUOUS
10
6.28311
20
-3.76673
11
6.28311
21
-3.75492
0
LINE
8
BLACK
6
CONTINUOUS
10
6.28311
20
-3.75492
11
6.28386
21
-3.75115
0
LINE
8
BLACK
6
CONTINUOUS
10
6.28386
20
-3.75115
11
6.28599
21
-3.74796
0
LINE
8
BLACK
6
CONTINUOUS
10
6.28599
20
-3.74796
11
6.28919
21
-3.74583
0
LINE
8
BLACK
6
CONTINUOUS
10
6.28919
20
-3.74583
11
6.29295
21
-3.74508
0
LINE
8
BLACK
6
CONTINUOUS
10
6.29295
20
-3.74508
11
6.34807
21
-3.74508
0
LINE
8
BLACK
6
CONTINUOUS
10
6.34807
20
-3.74508
11
6.35184
21
-3.74583
0
LINE
8
BLACK
6
CONTINUOUS
10
6.35184
20
-3.69662
11
6.35503
21
-3.69875
0
LINE
8
BLACK
6
CONTINUOUS
10
6.35503
20
-3.69875
11
6.35716
21
-3.70194
0
LINE
8
BLACK
6
CONTINUOUS
10
6.35716
20
-3.70194
11
6.35791
21
-3.70571
0
LINE
8
BLACK
6
CONTINUOUS
10
6.35791
20
-3.70571
11
6.35791
21
-3.71752
0
LINE
8
BLACK
6
CONTINUOUS
10
6.35791
20
-3.71752
11
6.35716
21
-3.72129
0
LINE
8
BLACK
6
CONTINUOUS
10
6.35716
20
-3.72129
11
6.35503
21
-3.72448
0
LINE
8
BLACK
6
CONTINUOUS
10
6.35503
20
-3.72448
11
6.35184
21
-3.72661
0
LINE
8
BLACK
6
CONTINUOUS
10
6.35184
20
-3.72661
11
6.34807
21
-3.72736
0
LINE
8
BLACK
6
CONTINUOUS
10
6.34807
20
-3.72736
11
6.29295
21
-3.72736
0
LINE
8
BLACK
6
CONTINUOUS
10
6.29295
20
-3.72736
11
6.28919
21
-3.72661
0
LINE
8
BLACK
6
CONTINUOUS
10
6.28919
20
-3.72661
11
6.28599
21
-3.72448
0
LINE
8
BLACK
6
CONTINUOUS
10
6.28599
20
-3.72448
11
6.28386
21
-3.72129
0
LINE
8
BLACK
6
CONTINUOUS
10
6.28386
20
-3.72129
11
6.28311
21
-3.71752
0
LINE
8
BLACK
6
CONTINUOUS
10
6.28311
20
-3.71752
11
6.28311
21
-3.70571
0
LINE
8
BLACK
6
CONTINUOUS
10
6.28311
20
-3.70571
11
6.28386
21
-3.70194
0
LINE
8
BLACK
6
CONTINUOUS
10
6.28386
20
-3.70194
11
6.28599
21
-3.69875
0
LINE
8
BLACK
6
CONTINUOUS
10
6.28599
20
-3.69875
11
6.28919
21
-3.69662
0
LINE
8
BLACK
6
CONTINUOUS
10
6.28919
20
-3.69662
11
6.29295
21
-3.69587
0
LINE
8
BLACK
6
CONTINUOUS
10
6.29295
20
-3.69587
11
6.34807
21
-3.69587
0
LINE
8
BLACK
6
CONTINUOUS
10
6.34807
20
-3.69587
11
6.35184
21
-3.69662
0
LINE
8
BLACK
6
CONTINUOUS
10
5.94644
20
-3.67059
11
5.95041
21
-3.67234
0
LINE
8
BLACK
6
CONTINUOUS
10
5.95041
20
-3.67234
11
5.95348
21
-3.67541
0
LINE
8
BLACK
6
CONTINUOUS
10
5.95348
20
-3.67541
11
5.95524
21
-3.67938
0
LINE
8
BLACK
6
CONTINUOUS
10
5.95524
20
-3.67938
11
5.95555
21
-3.68209
0
LINE
8
BLACK
6
CONTINUOUS
10
5.95555
20
-3.68209
11
5.95555
21
-3.70374
0
LINE
8
BLACK
6
CONTINUOUS
10
5.95555
20
-3.70374
11
5.95524
21
-3.70644
0
LINE
8
BLACK
6
CONTINUOUS
10
5.95524
20
-3.70644
11
5.95348
21
-3.71041
0
LINE
8
BLACK
6
CONTINUOUS
10
5.95348
20
-3.71041
11
5.95041
21
-3.71348
0
LINE
8
BLACK
6
CONTINUOUS
10
5.95041
20
-3.71348
11
5.94644
21
-3.71524
0
LINE
8
BLACK
6
CONTINUOUS
10
5.94644
20
-3.71524
11
5.94374
21
-3.71555
0
LINE
8
BLACK
6
CONTINUOUS
10
5.94374
20
-3.71555
11
5.92799
21
-3.71555
0
LINE
8
BLACK
6
CONTINUOUS
10
5.92799
20
-3.71555
11
5.92529
21
-3.71524
0
LINE
8
BLACK
6
CONTINUOUS
10
5.92529
20
-3.71524
11
5.92132
21
-3.71348
0
LINE
8
BLACK
6
CONTINUOUS
10
5.92132
20
-3.71348
11
5.91825
21
-3.71041
0
LINE
8
BLACK
6
CONTINUOUS
10
5.91825
20
-3.71041
11
5.91649
21
-3.70644
0
LINE
8
BLACK
6
CONTINUOUS
10
5.91649
20
-3.70644
11
5.91618
21
-3.70374
0
LINE
8
BLACK
6
CONTINUOUS
10
5.91618
20
-3.70374
11
5.91618
21
-3.68209
0
LINE
8
BLACK
6
CONTINUOUS
10
5.91618
20
-3.68209
11
5.91649
21
-3.67938
0
LINE
8
BLACK
6
CONTINUOUS
10
5.91649
20
-3.67938
11
5.91825
21
-3.67541
0
LINE
8
BLACK
6
CONTINUOUS
10
5.91825
20
-3.67541
11
5.92132
21
-3.67234
0
LINE
8
BLACK
6
CONTINUOUS
10
5.92132
20
-3.67234
11
5.92529
21
-3.67059
0
LINE
8
BLACK
6
CONTINUOUS
10
5.92529
20
-3.67059
11
5.92799
21
-3.67028
0
LINE
8
BLACK
6
CONTINUOUS
10
5.92799
20
-3.67028
11
5.94374
21
-3.67028
0
LINE
8
BLACK
6
CONTINUOUS
10
5.94374
20
-3.67028
11
5.94644
21
-3.67059
0
LINE
8
BLACK
6
CONTINUOUS
10
6.0114
20
-3.67059
11
6.01538
21
-3.67234
0
LINE
8
BLACK
6
CONTINUOUS
10
6.01538
20
-3.67234
11
6.01844
21
-3.67541
0
LINE
8
BLACK
6
CONTINUOUS
10
6.01844
20
-3.67541
11
6.0202
21
-3.67938
0
LINE
8
BLACK
6
CONTINUOUS
10
6.0202
20
-3.67938
11
6.02051
21
-3.68209
0
LINE
8
BLACK
6
CONTINUOUS
10
6.02051
20
-3.68209
11
6.02051
21
-3.70374
0
LINE
8
BLACK
6
CONTINUOUS
10
6.02051
20
-3.70374
11
6.0202
21
-3.70644
0
LINE
8
BLACK
6
CONTINUOUS
10
6.0202
20
-3.70644
11
6.01844
21
-3.71041
0
LINE
8
BLACK
6
CONTINUOUS
10
6.01844
20
-3.71041
11
6.01538
21
-3.71348
0
LINE
8
BLACK
6
CONTINUOUS
10
6.01538
20
-3.71348
11
6.0114
21
-3.71524
0
LINE
8
BLACK
6
CONTINUOUS
10
6.0114
20
-3.71524
11
6.0087
21
-3.71555
0
LINE
8
BLACK
6
CONTINUOUS
10
6.0087
20
-3.71555
11
5.99295
21
-3.71555
0
LINE
8
BLACK
6
CONTINUOUS
10
5.99295
20
-3.71555
11
5.99025
21
-3.71524
0
LINE
8
BLACK
6
CONTINUOUS
10
5.99025
20
-3.71524
11
5.98628
21
-3.71348
0
LINE
8
BLACK
6
CONTINUOUS
10
5.98628
20
-3.71348
11
5.98321
21
-3.71041
0
LINE
8
BLACK
6
CONTINUOUS
10
5.98321
20
-3.71041
11
5.98146
21
-3.70644
0
LINE
8
BLACK
6
CONTINUOUS
10
5.98146
20
-3.70644
11
5.98114
21
-3.70374
0
LINE
8
BLACK
6
CONTINUOUS
10
5.98114
20
-3.70374
11
5.98114
21
-3.68209
0
LINE
8
BLACK
6
CONTINUOUS
10
5.98114
20
-3.68209
11
5.98146
21
-3.67938
0
LINE
8
BLACK
6
CONTINUOUS
10
5.98146
20
-3.67938
11
5.98321
21
-3.67541
0
LINE
8
BLACK
6
CONTINUOUS
10
5.98321
20
-3.67541
11
5.98628
21
-3.67234
0
LINE
8
BLACK
6
CONTINUOUS
10
5.98628
20
-3.67234
11
5.99025
21
-3.67059
0
LINE
8
BLACK
6
CONTINUOUS
10
5.99025
20
-3.67059
11
5.99295
21
-3.67028
0
LINE
8
BLACK
6
CONTINUOUS
10
5.99295
20
-3.67028
11
6.0087
21
-3.67028
0
LINE
8
BLACK
6
CONTINUOUS
10
6.0087
20
-3.67028
11
6.0114
21
-3.67059
0
LINE
8
BLACK
6
CONTINUOUS
10
5.71188
20
-3.65067
11
5.71585
21
-3.65242
0
LINE
8
BLACK
6
CONTINUOUS
10
5.71585
20
-3.65242
11
5.71892
21
-3.65549
0
LINE
8
BLACK
6
CONTINUOUS
10
5.71892
20
-3.65549
11
5.72067
21
-3.65946
0
LINE
8
BLACK
6
CONTINUOUS
10
5.72067
20
-3.65946
11
5.72098
21
-3.66217
0
LINE
8
BLACK
6
CONTINUOUS
10
5.72098
20
-3.66217
11
5.72098
21
-3.67791
0
LINE
8
BLACK
6
CONTINUOUS
10
5.72098
20
-3.67791
11
5.72067
21
-3.68062
0
LINE
8
BLACK
6
CONTINUOUS
10
5.72067
20
-3.68062
11
5.71892
21
-3.68459
0
LINE
8
BLACK
6
CONTINUOUS
10
5.71892
20
-3.68459
11
5.71585
21
-3.68766
0
LINE
8
BLACK
6
CONTINUOUS
10
5.71585
20
-3.68766
11
5.71188
21
-3.68941
0
LINE
8
BLACK
6
CONTINUOUS
10
5.71188
20
-3.68941
11
5.70917
21
-3.68972
0
LINE
8
BLACK
6
CONTINUOUS
10
5.70917
20
-3.68972
11
5.68752
21
-3.68972
0
LINE
8
BLACK
6
CONTINUOUS
10
5.68752
20
-3.68972
11
5.68482
21
-3.68941
0
LINE
8
BLACK
6
CONTINUOUS
10
5.68482
20
-3.68941
11
5.68084
21
-3.68766
0
LINE
8
BLACK
6
CONTINUOUS
10
5.68084
20
-3.68766
11
5.67778
21
-3.68459
0
LINE
8
BLACK
6
CONTINUOUS
10
5.67778
20
-3.68459
11
5.67602
21
-3.68062
0
LINE
8
BLACK
6
CONTINUOUS
10
5.67602
20
-3.68062
11
5.67571
21
-3.67791
0
LINE
8
BLACK
6
CONTINUOUS
10
5.67571
20
-3.67791
11
5.67571
21
-3.66217
0
LINE
8
BLACK
6
CONTINUOUS
10
5.67571
20
-3.66217
11
5.67602
21
-3.65946
0
LINE
8
BLACK
6
CONTINUOUS
10
5.67602
20
-3.65946
11
5.67778
21
-3.65549
0
LINE
8
BLACK
6
CONTINUOUS
10
5.67778
20
-3.65549
11
5.68084
21
-3.65242
0
LINE
8
BLACK
6
CONTINUOUS
10
5.68084
20
-3.65242
11
5.68482
21
-3.65067
0
LINE
8
BLACK
6
CONTINUOUS
10
5.68482
20
-3.65067
11
5.68752
21
-3.65035
0
LINE
8
BLACK
6
CONTINUOUS
10
5.68752
20
-3.65035
11
5.70917
21
-3.65035
0
LINE
8
BLACK
6
CONTINUOUS
10
5.70917
20
-3.65035
11
5.71188
21
-3.65067
0
LINE
8
BLACK
6
CONTINUOUS
10
5.51688
20
-3.65063
11
5.52085
21
-3.65238
0
LINE
8
BLACK
6
CONTINUOUS
10
5.52085
20
-3.65238
11
5.52392
21
-3.65545
0
LINE
8
BLACK
6
CONTINUOUS
10
5.52392
20
-3.65545
11
5.52567
21
-3.65942
0
LINE
8
BLACK
6
CONTINUOUS
10
5.52567
20
-3.65942
11
5.52598
21
-3.66213
0
LINE
8
BLACK
6
CONTINUOUS
10
5.52598
20
-3.66213
11
5.52598
21
-3.67787
0
LINE
8
BLACK
6
CONTINUOUS
10
5.52598
20
-3.67787
11
5.52567
21
-3.68058
0
LINE
8
BLACK
6
CONTINUOUS
10
5.52567
20
-3.68058
11
5.52392
21
-3.68455
0
LINE
8
BLACK
6
CONTINUOUS
10
5.52392
20
-3.68455
11
5.52085
21
-3.68762
0
LINE
8
BLACK
6
CONTINUOUS
10
5.52085
20
-3.68762
11
5.51688
21
-3.68937
0
LINE
8
BLACK
6
CONTINUOUS
10
5.51688
20
-3.68937
11
5.51417
21
-3.68969
0
LINE
8
BLACK
6
CONTINUOUS
10
5.51417
20
-3.68969
11
5.49252
21
-3.68969
0
LINE
8
BLACK
6
CONTINUOUS
10
5.49252
20
-3.68969
11
5.48982
21
-3.68937
0
LINE
8
BLACK
6
CONTINUOUS
10
5.48982
20
-3.68937
11
5.48584
21
-3.68762
0
LINE
8
BLACK
6
CONTINUOUS
10
5.48584
20
-3.68762
11
5.48278
21
-3.68455
0
LINE
8
BLACK
6
CONTINUOUS
10
5.48278
20
-3.68455
11
5.48102
21
-3.68058
0
LINE
8
BLACK
6
CONTINUOUS
10
5.48102
20
-3.68058
11
5.48071
21
-3.67787
0
LINE
8
BLACK
6
CONTINUOUS
10
5.48071
20
-3.67787
11
5.48071
21
-3.66213
0
LINE
8
BLACK
6
CONTINUOUS
10
5.48071
20
-3.66213
11
5.48102
21
-3.65942
0
LINE
8
BLACK
6
CONTINUOUS
10
5.48102
20
-3.65942
11
5.48278
21
-3.65545
0
LINE
8
BLACK
6
CONTINUOUS
10
5.48278
20
-3.65545
11
5.48584
21
-3.65238
0
LINE
8
BLACK
6
CONTINUOUS
10
5.48584
20
-3.65238
11
5.48982
21
-3.65063
0
LINE
8
BLACK
6
CONTINUOUS
10
5.48982
20
-3.65063
11
5.49252
21
-3.65031
0
LINE
8
BLACK
6
CONTINUOUS
10
5.49252
20
-3.65031
11
5.51417
21
-3.65031
0
LINE
8
BLACK
6
CONTINUOUS
10
5.51417
20
-3.65031
11
5.51688
21
-3.65063
0
LINE
8
BLACK
6
CONTINUOUS
10
5.60188
20
-3.65063
11
5.60585
21
-3.65238
0
LINE
8
BLACK
6
CONTINUOUS
10
5.60585
20
-3.65238
11
5.60892
21
-3.65545
0
LINE
8
BLACK
6
CONTINUOUS
10
5.60892
20
-3.65545
11
5.61067
21
-3.65942
0
LINE
8
BLACK
6
CONTINUOUS
10
5.61067
20
-3.65942
11
5.61098
21
-3.66213
0
LINE
8
BLACK
6
CONTINUOUS
10
5.61098
20
-3.66213
11
5.61098
21
-3.67787
0
LINE
8
BLACK
6
CONTINUOUS
10
5.61098
20
-3.67787
11
5.61067
21
-3.68058
0
LINE
8
BLACK
6
CONTINUOUS
10
5.61067
20
-3.68058
11
5.60892
21
-3.68455
0
LINE
8
BLACK
6
CONTINUOUS
10
5.60892
20
-3.68455
11
5.60585
21
-3.68762
0
LINE
8
BLACK
6
CONTINUOUS
10
5.60585
20
-3.68762
11
5.60188
21
-3.68937
0
LINE
8
BLACK
6
CONTINUOUS
10
5.60188
20
-3.68937
11
5.59917
21
-3.68969
0
LINE
8
BLACK
6
CONTINUOUS
10
5.59917
20
-3.68969
11
5.57752
21
-3.68969
0
LINE
8
BLACK
6
CONTINUOUS
10
5.57752
20
-3.68969
11
5.57482
21
-3.68937
0
LINE
8
BLACK
6
CONTINUOUS
10
5.57482
20
-3.68937
11
5.57084
21
-3.68762
0
LINE
8
BLACK
6
CONTINUOUS
10
5.57084
20
-3.68762
11
5.56778
21
-3.68455
0
LINE
8
BLACK
6
CONTINUOUS
10
5.56778
20
-3.68455
11
5.56602
21
-3.68058
0
LINE
8
BLACK
6
CONTINUOUS
10
5.56602
20
-3.68058
11
5.56571
21
-3.67787
0
LINE
8
BLACK
6
CONTINUOUS
10
5.56571
20
-3.67787
11
5.56571
21
-3.66213
0
LINE
8
BLACK
6
CONTINUOUS
10
5.56571
20
-3.66213
11
5.56602
21
-3.65942
0
LINE
8
BLACK
6
CONTINUOUS
10
5.56602
20
-3.65942
11
5.56778
21
-3.65545
0
LINE
8
BLACK
6
CONTINUOUS
10
5.56778
20
-3.65545
11
5.57084
21
-3.65238
0
LINE
8
BLACK
6
CONTINUOUS
10
5.57084
20
-3.65238
11
5.57482
21
-3.65063
0
LINE
8
BLACK
6
CONTINUOUS
10
5.57482
20
-3.65063
11
5.57752
21
-3.65031
0
LINE
8
BLACK
6
CONTINUOUS
10
5.57752
20
-3.65031
11
5.59917
21
-3.65031
0
LINE
8
BLACK
6
CONTINUOUS
10
5.59917
20
-3.65031
11
5.60188
21
-3.65063
0
LINE
8
BLACK
6
CONTINUOUS
10
5.81688
20
-3.65063
11
5.82085
21
-3.65238
0
LINE
8
BLACK
6
CONTINUOUS
10
5.82085
20
-3.65238
11
5.82392
21
-3.65545
0
LINE
8
BLACK
6
CONTINUOUS
10
5.82392
20
-3.65545
11
5.82567
21
-3.65942
0
LINE
8
BLACK
6
CONTINUOUS
10
5.82567
20
-3.65942
11
5.82598
21
-3.66213
0
LINE
8
BLACK
6
CONTINUOUS
10
5.82598
20
-3.66213
11
5.82598
21
-3.67787
0
LINE
8
BLACK
6
CONTINUOUS
10
5.82598
20
-3.67787
11
5.82567
21
-3.68058
0
LINE
8
BLACK
6
CONTINUOUS
10
5.82567
20
-3.68058
11
5.82392
21
-3.68455
0
LINE
8
BLACK
6
CONTINUOUS
10
5.82392
20
-3.68455
11
5.82085
21
-3.68762
0
LINE
8
BLACK
6
CONTINUOUS
10
5.82085
20
-3.68762
11
5.81688
21
-3.68937
0
LINE
8
BLACK
6
CONTINUOUS
10
5.81688
20
-3.68937
11
5.81417
21
-3.68969
0
LINE
8
BLACK
6
CONTINUOUS
10
5.81417
20
-3.68969
11
5.79252
21
-3.68969
0
LINE
8
BLACK
6
CONTINUOUS
10
5.79252
20
-3.68969
11
5.78982
21
-3.68937
0
LINE
8
BLACK
6
CONTINUOUS
10
5.78982
20
-3.68937
11
5.78584
21
-3.68762
0
LINE
8
BLACK
6
CONTINUOUS
10
5.78584
20
-3.68762
11
5.78278
21
-3.68455
0
LINE
8
BLACK
6
CONTINUOUS
10
5.78278
20
-3.68455
11
5.78102
21
-3.68058
0
LINE
8
BLACK
6
CONTINUOUS
10
5.78102
20
-3.68058
11
5.78071
21
-3.67787
0
LINE
8
BLACK
6
CONTINUOUS
10
5.78071
20
-3.67787
11
5.78071
21
-3.66213
0
LINE
8
BLACK
6
CONTINUOUS
10
5.78071
20
-3.66213
11
5.78102
21
-3.65942
0
LINE
8
BLACK
6
CONTINUOUS
10
5.78102
20
-3.65942
11
5.78278
21
-3.65545
0
LINE
8
BLACK
6
CONTINUOUS
10
5.78278
20
-3.65545
11
5.78584
21
-3.65238
0
LINE
8
BLACK
6
CONTINUOUS
10
5.78584
20
-3.65238
11
5.78982
21
-3.65063
0
LINE
8
BLACK
6
CONTINUOUS
10
5.78982
20
-3.65063
11
5.79252
21
-3.65031
0
LINE
8
BLACK
6
CONTINUOUS
10
5.79252
20
-3.65031
11
5.81417
21
-3.65031
0
LINE
8
BLACK
6
CONTINUOUS
10
5.81417
20
-3.65031
11
5.81688
21
-3.65063
0
LINE
8
BLACK
6
CONTINUOUS
10
6.35184
20
-3.6474
11
6.35503
21
-3.64954
0
LINE
8
BLACK
6
CONTINUOUS
10
6.35503
20
-3.64954
11
6.35716
21
-3.65273
0
LINE
8
BLACK
6
CONTINUOUS
10
6.35716
20
-3.65273
11
6.35791
21
-3.6565
0
LINE
8
BLACK
6
CONTINUOUS
10
6.35791
20
-3.6565
11
6.35791
21
-3.66831
0
LINE
8
BLACK
6
CONTINUOUS
10
6.35791
20
-3.66831
11
6.35716
21
-3.67207
0
LINE
8
BLACK
6
CONTINUOUS
10
6.35716
20
-3.67207
11
6.35503
21
-3.67527
0
LINE
8
BLACK
6
CONTINUOUS
10
6.35503
20
-3.67527
11
6.35184
21
-3.6774
0
LINE
8
BLACK
6
CONTINUOUS
10
6.35184
20
-3.6774
11
6.34807
21
-3.67815
0
LINE
8
BLACK
6
CONTINUOUS
10
6.34807
20
-3.67815
11
6.29295
21
-3.67815
0
LINE
8
BLACK
6
CONTINUOUS
10
6.29295
20
-3.67815
11
6.28919
21
-3.6774
0
LINE
8
BLACK
6
CONTINUOUS
10
6.28919
20
-3.6774
11
6.28599
21
-3.67527
0
LINE
8
BLACK
6
CONTINUOUS
10
6.28599
20
-3.67527
11
6.28386
21
-3.67207
0
LINE
8
BLACK
6
CONTINUOUS
10
6.28386
20
-3.67207
11
6.28311
21
-3.66831
0
LINE
8
BLACK
6
CONTINUOUS
10
6.28311
20
-3.66831
11
6.28311
21
-3.6565
0
LINE
8
BLACK
6
CONTINUOUS
10
6.28311
20
-3.6565
11
6.28386
21
-3.65273
0
LINE
8
BLACK
6
CONTINUOUS
10
6.28386
20
-3.65273
11
6.28599
21
-3.64954
0
LINE
8
BLACK
6
CONTINUOUS
10
6.28599
20
-3.64954
11
6.28919
21
-3.6474
0
LINE
8
BLACK
6
CONTINUOUS
10
6.28919
20
-3.6474
11
6.29295
21
-3.64665
0
LINE
8
BLACK
6
CONTINUOUS
10
6.29295
20
-3.64665
11
6.34807
21
-3.64665
0
LINE
8
BLACK
6
CONTINUOUS
10
6.34807
20
-3.64665
11
6.35184
21
-3.6474
0
LINE
8
BLACK
6
CONTINUOUS
10
5.94644
20
-3.60772
11
5.95041
21
-3.60947
0
LINE
8
BLACK
6
CONTINUOUS
10
5.95041
20
-3.60947
11
5.95348
21
-3.61254
0
LINE
8
BLACK
6
CONTINUOUS
10
5.95348
20
-3.61254
11
5.95524
21
-3.61651
0
LINE
8
BLACK
6
CONTINUOUS
10
5.95524
20
-3.61651
11
5.95555
21
-3.61921
0
LINE
8
BLACK
6
CONTINUOUS
10
5.95555
20
-3.61921
11
5.95555
21
-3.64087
0
LINE
8
BLACK
6
CONTINUOUS
10
5.95555
20
-3.64087
11
5.95524
21
-3.64357
0
LINE
8
BLACK
6
CONTINUOUS
10
5.95524
20
-3.64357
11
5.95348
21
-3.64754
0
LINE
8
BLACK
6
CONTINUOUS
10
5.95348
20
-3.64754
11
5.95041
21
-3.65061
0
LINE
8
BLACK
6
CONTINUOUS
10
5.95041
20
-3.65061
11
5.94644
21
-3.65236
0
LINE
8
BLACK
6
CONTINUOUS
10
5.94644
20
-3.65236
11
5.94374
21
-3.65268
0
LINE
8
BLACK
6
CONTINUOUS
10
5.94374
20
-3.65268
11
5.92799
21
-3.65268
0
LINE
8
BLACK
6
CONTINUOUS
10
5.92799
20
-3.65268
11
5.92529
21
-3.65236
0
LINE
8
BLACK
6
CONTINUOUS
10
5.92529
20
-3.65236
11
5.92132
21
-3.65061
0
LINE
8
BLACK
6
CONTINUOUS
10
5.92132
20
-3.65061
11
5.91825
21
-3.64754
0
LINE
8
BLACK
6
CONTINUOUS
10
5.91825
20
-3.64754
11
5.91649
21
-3.64357
0
LINE
8
BLACK
6
CONTINUOUS
10
5.91649
20
-3.64357
11
5.91618
21
-3.64087
0
LINE
8
BLACK
6
CONTINUOUS
10
5.91618
20
-3.64087
11
5.91618
21
-3.61921
0
LINE
8
BLACK
6
CONTINUOUS
10
5.91618
20
-3.61921
11
5.91649
21
-3.61651
0
LINE
8
BLACK
6
CONTINUOUS
10
5.91649
20
-3.61651
11
5.91825
21
-3.61254
0
LINE
8
BLACK
6
CONTINUOUS
10
5.91825
20
-3.61254
11
5.92132
21
-3.60947
0
LINE
8
BLACK
6
CONTINUOUS
10
5.92132
20
-3.60947
11
5.92529
21
-3.60772
0
LINE
8
BLACK
6
CONTINUOUS
10
5.92529
20
-3.60772
11
5.92799
21
-3.6074
0
LINE
8
BLACK
6
CONTINUOUS
10
5.92799
20
-3.6074
11
5.94374
21
-3.6074
0
LINE
8
BLACK
6
CONTINUOUS
10
5.94374
20
-3.6074
11
5.94644
21
-3.60772
0
LINE
8
BLACK
6
CONTINUOUS
10
6.0114
20
-3.60772
11
6.01538
21
-3.60947
0
LINE
8
BLACK
6
CONTINUOUS
10
6.01538
20
-3.60947
11
6.01844
21
-3.61254
0
LINE
8
BLACK
6
CONTINUOUS
10
6.01844
20
-3.61254
11
6.0202
21
-3.61651
0
LINE
8
BLACK
6
CONTINUOUS
10
6.0202
20
-3.61651
11
6.02051
21
-3.61921
0
LINE
8
BLACK
6
CONTINUOUS
10
6.02051
20
-3.61921
11
6.02051
21
-3.64087
0
LINE
8
BLACK
6
CONTINUOUS
10
6.02051
20
-3.64087
11
6.0202
21
-3.64357
0
LINE
8
BLACK
6
CONTINUOUS
10
6.0202
20
-3.64357
11
6.01844
21
-3.64754
0
LINE
8
BLACK
6
CONTINUOUS
10
6.01844
20
-3.64754
11
6.01538
21
-3.65061
0
LINE
8
BLACK
6
CONTINUOUS
10
6.01538
20
-3.65061
11
6.0114
21
-3.65236
0
LINE
8
BLACK
6
CONTINUOUS
10
6.0114
20
-3.65236
11
6.0087
21
-3.65268
0
LINE
8
BLACK
6
CONTINUOUS
10
6.0087
20
-3.65268
11
5.99295
21
-3.65268
0
LINE
8
BLACK
6
CONTINUOUS
10
5.99295
20
-3.65268
11
5.99025
21
-3.65236
0
LINE
8
BLACK
6
CONTINUOUS
10
5.99025
20
-3.65236
11
5.98628
21
-3.65061
0
LINE
8
BLACK
6
CONTINUOUS
10
5.98628
20
-3.65061
11
5.98321
21
-3.64754
0
LINE
8
BLACK
6
CONTINUOUS
10
5.98321
20
-3.64754
11
5.98146
21
-3.64357
0
LINE
8
BLACK
6
CONTINUOUS
10
5.98146
20
-3.64357
11
5.98114
21
-3.64087
0
LINE
8
BLACK
6
CONTINUOUS
10
5.98114
20
-3.64087
11
5.98114
21
-3.61921
0
LINE
8
BLACK
6
CONTINUOUS
10
5.98114
20
-3.61921
11
5.98146
21
-3.61651
0
LINE
8
BLACK
6
CONTINUOUS
10
5.98146
20
-3.61651
11
5.98321
21
-3.61254
0
LINE
8
BLACK
6
CONTINUOUS
10
5.98321
20
-3.61254
11
5.98628
21
-3.60947
0
LINE
8
BLACK
6
CONTINUOUS
10
5.98628
20
-3.60947
11
5.99025
21
-3.60772
0
LINE
8
BLACK
6
CONTINUOUS
10
5.99025
20
-3.60772
11
5.99295
21
-3.6074
0
LINE
8
BLACK
6
CONTINUOUS
10
5.99295
20
-3.6074
11
6.0087
21
-3.6074
0
LINE
8
BLACK
6
CONTINUOUS
10
6.0087
20
-3.6074
11
6.0114
21
-3.60772
0
LINE
8
BLACK
6
CONTINUOUS
10
6.35184
20
-3.59819
11
6.35503
21
-3.60032
0
LINE
8
BLACK
6
CONTINUOUS
10
6.35503
20
-3.60032
11
6.35716
21
-3.60352
0
LINE
8
BLACK
6
CONTINUOUS
10
6.35716
20
-3.60352
11
6.35791
21
-3.60728
0
LINE
8
BLACK
6
CONTINUOUS
10
6.35791
20
-3.60728
11
6.35791
21
-3.61909
0
LINE
8
BLACK
6
CONTINUOUS
10
6.35791
20
-3.61909
11
6.35716
21
-3.62286
0
LINE
8
BLACK
6
CONTINUOUS
10
6.35716
20
-3.62286
11
6.35503
21
-3.62605
0
LINE
8
BLACK
6
CONTINUOUS
10
6.35503
20
-3.62605
11
6.35184
21
-3.62819
0
LINE
8
BLACK
6
CONTINUOUS
10
6.35184
20
-3.62819
11
6.34807
21
-3.62894
0
LINE
8
BLACK
6
CONTINUOUS
10
6.34807
20
-3.62894
11
6.29295
21
-3.62894
0
LINE
8
BLACK
6
CONTINUOUS
10
6.29295
20
-3.62894
11
6.28919
21
-3.62819
0
LINE
8
BLACK
6
CONTINUOUS
10
6.28919
20
-3.62819
11
6.28599
21
-3.62605
0
LINE
8
BLACK
6
CONTINUOUS
10
6.28599
20
-3.62605
11
6.28386
21
-3.62286
0
LINE
8
BLACK
6
CONTINUOUS
10
6.28386
20
-3.62286
11
6.28311
21
-3.61909
0
LINE
8
BLACK
6
CONTINUOUS
10
6.28311
20
-3.61909
11
6.28311
21
-3.60728
0
LINE
8
BLACK
6
CONTINUOUS
10
6.28311
20
-3.60728
11
6.28386
21
-3.60352
0
LINE
8
BLACK
6
CONTINUOUS
10
6.28386
20
-3.60352
11
6.28599
21
-3.60032
0
LINE
8
BLACK
6
CONTINUOUS
10
6.28599
20
-3.60032
11
6.28919
21
-3.59819
0
LINE
8
BLACK
6
CONTINUOUS
10
6.28919
20
-3.59819
11
6.29295
21
-3.59744
0
LINE
8
BLACK
6
CONTINUOUS
10
6.29295
20
-3.59744
11
6.34807
21
-3.59744
0
LINE
8
BLACK
6
CONTINUOUS
10
6.34807
20
-3.59744
11
6.35184
21
-3.59819
0
LINE
8
BLACK
6
CONTINUOUS
10
6.15385
20
-3.58839
11
6.15856
21
-3.59142
0
LINE
8
BLACK
6
CONTINUOUS
10
6.15856
20
-3.59142
11
6.16223
21
-3.59566
0
LINE
8
BLACK
6
CONTINUOUS
10
6.16223
20
-3.59566
11
6.16456
21
-3.60075
0
LINE
8
BLACK
6
CONTINUOUS
10
6.16456
20
-3.60075
11
6.16535
21
-3.6063
0
LINE
8
BLACK
6
CONTINUOUS
10
6.16535
20
-3.6063
11
6.16456
21
-3.61185
0
LINE
8
BLACK
6
CONTINUOUS
10
6.16456
20
-3.61185
11
6.16223
21
-3.61694
0
LINE
8
BLACK
6
CONTINUOUS
10
6.16223
20
-3.61694
11
6.15856
21
-3.62118
0
LINE
8
BLACK
6
CONTINUOUS
10
6.15856
20
-3.62118
11
6.15385
21
-3.62421
0
LINE
8
BLACK
6
CONTINUOUS
10
6.15385
20
-3.62421
11
6.14847
21
-3.62578
0
LINE
8
BLACK
6
CONTINUOUS
10
6.14847
20
-3.62578
11
6.14287
21
-3.62578
0
LINE
8
BLACK
6
CONTINUOUS
10
6.14287
20
-3.62578
11
6.13749
21
-3.62421
0
LINE
8
BLACK
6
CONTINUOUS
10
6.13749
20
-3.62421
11
6.13278
21
-3.62118
0
LINE
8
BLACK
6
CONTINUOUS
10
6.13278
20
-3.62118
11
6.12911
21
-3.61694
0
LINE
8
BLACK
6
CONTINUOUS
10
6.12911
20
-3.61694
11
6.12678
21
-3.61185
0
LINE
8
BLACK
6
CONTINUOUS
10
6.12678
20
-3.61185
11
6.12598
21
-3.6063
0
LINE
8
BLACK
6
CONTINUOUS
10
6.12598
20
-3.6063
11
6.12678
21
-3.60075
0
LINE
8
BLACK
6
CONTINUOUS
10
6.12678
20
-3.60075
11
6.12911
21
-3.59566
0
LINE
8
BLACK
6
CONTINUOUS
10
6.12911
20
-3.59566
11
6.13278
21
-3.59142
0
LINE
8
BLACK
6
CONTINUOUS
10
6.13278
20
-3.59142
11
6.13749
21
-3.58839
0
LINE
8
BLACK
6
CONTINUOUS
10
6.13749
20
-3.58839
11
6.14287
21
-3.58681
0
LINE
8
BLACK
6
CONTINUOUS
10
6.14287
20
-3.58681
11
6.14847
21
-3.58681
0
LINE
8
BLACK
6
CONTINUOUS
10
6.14847
20
-3.58681
11
6.15385
21
-3.58839
0
LINE
8
BLACK
6
CONTINUOUS
10
5.71188
20
-3.58571
11
5.71585
21
-3.58746
0
LINE
8
BLACK
6
CONTINUOUS
10
5.71585
20
-3.58746
11
5.71892
21
-3.59053
0
LINE
8
BLACK
6
CONTINUOUS
10
5.71892
20
-3.59053
11
5.72067
21
-3.5945
0
LINE
8
BLACK
6
CONTINUOUS
10
5.72067
20
-3.5945
11
5.72098
21
-3.5972
0
LINE
8
BLACK
6
CONTINUOUS
10
5.72098
20
-3.5972
11
5.72098
21
-3.61295
0
LINE
8
BLACK
6
CONTINUOUS
10
5.72098
20
-3.61295
11
5.72067
21
-3.61566
0
LINE
8
BLACK
6
CONTINUOUS
10
5.72067
20
-3.61566
11
5.71892
21
-3.61963
0
LINE
8
BLACK
6
CONTINUOUS
10
5.71892
20
-3.61963
11
5.71585
21
-3.6227
0
LINE
8
BLACK
6
CONTINUOUS
10
5.71585
20
-3.6227
11
5.71188
21
-3.62445
0
LINE
8
BLACK
6
CONTINUOUS
10
5.71188
20
-3.62445
11
5.70917
21
-3.62476
0
LINE
8
BLACK
6
CONTINUOUS
10
5.70917
20
-3.62476
11
5.68752
21
-3.62476
0
LINE
8
BLACK
6
CONTINUOUS
10
5.68752
20
-3.62476
11
5.68482
21
-3.62445
0
LINE
8
BLACK
6
CONTINUOUS
10
5.68482
20
-3.62445
11
5.68084
21
-3.6227
0
LINE
8
BLACK
6
CONTINUOUS
10
5.68084
20
-3.6227
11
5.67778
21
-3.61963
0
LINE
8
BLACK
6
CONTINUOUS
10
5.67778
20
-3.61963
11
5.67602
21
-3.61566
0
LINE
8
BLACK
6
CONTINUOUS
10
5.67602
20
-3.61566
11
5.67571
21
-3.61295
0
LINE
8
BLACK
6
CONTINUOUS
10
5.67571
20
-3.61295
11
5.67571
21
-3.5972
0
LINE
8
BLACK
6
CONTINUOUS
10
5.67571
20
-3.5972
11
5.67602
21
-3.5945
0
LINE
8
BLACK
6
CONTINUOUS
10
5.67602
20
-3.5945
11
5.67778
21
-3.59053
0
LINE
8
BLACK
6
CONTINUOUS
10
5.67778
20
-3.59053
11
5.68084
21
-3.58746
0
LINE
8
BLACK
6
CONTINUOUS
10
5.68084
20
-3.58746
11
5.68482
21
-3.58571
0
LINE
8
BLACK
6
CONTINUOUS
10
5.68482
20
-3.58571
11
5.68752
21
-3.58539
0
LINE
8
BLACK
6
CONTINUOUS
10
5.68752
20
-3.58539
11
5.70917
21
-3.58539
0
LINE
8
BLACK
6
CONTINUOUS
10
5.70917
20
-3.58539
11
5.71188
21
-3.58571
0
LINE
8
BLACK
6
CONTINUOUS
10
5.51688
20
-3.58567
11
5.52085
21
-3.58742
0
LINE
8
BLACK
6
CONTINUOUS
10
5.52085
20
-3.58742
11
5.52392
21
-3.59049
0
LINE
8
BLACK
6
CONTINUOUS
10
5.52392
20
-3.59049
11
5.52567
21
-3.59446
0
LINE
8
BLACK
6
CONTINUOUS
10
5.52567
20
-3.59446
11
5.52598
21
-3.59717
0
LINE
8
BLACK
6
CONTINUOUS
10
5.52598
20
-3.59717
11
5.52598
21
-3.61291
0
LINE
8
BLACK
6
CONTINUOUS
10
5.52598
20
-3.61291
11
5.52567
21
-3.61562
0
LINE
8
BLACK
6
CONTINUOUS
10
5.52567
20
-3.61562
11
5.52392
21
-3.61959
0
LINE
8
BLACK
6
CONTINUOUS
10
5.52392
20
-3.61959
11
5.52085
21
-3.62266
0
LINE
8
BLACK
6
CONTINUOUS
10
5.52085
20
-3.62266
11
5.51688
21
-3.62441
0
LINE
8
BLACK
6
CONTINUOUS
10
5.51688
20
-3.62441
11
5.51417
21
-3.62472
0
LINE
8
BLACK
6
CONTINUOUS
10
5.51417
20
-3.62472
11
5.49252
21
-3.62472
0
LINE
8
BLACK
6
CONTINUOUS
10
5.49252
20
-3.62472
11
5.48982
21
-3.62441
0
LINE
8
BLACK
6
CONTINUOUS
10
5.48982
20
-3.62441
11
5.48584
21
-3.62266
0
LINE
8
BLACK
6
CONTINUOUS
10
5.48584
20
-3.62266
11
5.48278
21
-3.61959
0
LINE
8
BLACK
6
CONTINUOUS
10
5.48278
20
-3.61959
11
5.48102
21
-3.61562
0
LINE
8
BLACK
6
CONTINUOUS
10
5.48102
20
-3.61562
11
5.48071
21
-3.61291
0
LINE
8
BLACK
6
CONTINUOUS
10
5.48071
20
-3.61291
11
5.48071
21
-3.59717
0
LINE
8
BLACK
6
CONTINUOUS
10
5.48071
20
-3.59717
11
5.48102
21
-3.59446
0
LINE
8
BLACK
6
CONTINUOUS
10
5.48102
20
-3.59446
11
5.48278
21
-3.59049
0
LINE
8
BLACK
6
CONTINUOUS
10
5.48278
20
-3.59049
11
5.48584
21
-3.58742
0
LINE
8
BLACK
6
CONTINUOUS
10
5.48584
20
-3.58742
11
5.48982
21
-3.58567
0
LINE
8
BLACK
6
CONTINUOUS
10
5.48982
20
-3.58567
11
5.49252
21
-3.58535
0
LINE
8
BLACK
6
CONTINUOUS
10
5.49252
20
-3.58535
11
5.51417
21
-3.58535
0
LINE
8
BLACK
6
CONTINUOUS
10
5.51417
20
-3.58535
11
5.51688
21
-3.58567
0
LINE
8
BLACK
6
CONTINUOUS
10
5.60188
20
-3.58567
11
5.60585
21
-3.58742
0
LINE
8
BLACK
6
CONTINUOUS
10
5.60585
20
-3.58742
11
5.60892
21
-3.59049
0
LINE
8
BLACK
6
CONTINUOUS
10
5.60892
20
-3.59049
11
5.61067
21
-3.59446
0
LINE
8
BLACK
6
CONTINUOUS
10
5.61067
20
-3.59446
11
5.61098
21
-3.59717
0
LINE
8
BLACK
6
CONTINUOUS
10
5.61098
20
-3.59717
11
5.61098
21
-3.61291
0
LINE
8
BLACK
6
CONTINUOUS
10
5.61098
20
-3.61291
11
5.61067
21
-3.61562
0
LINE
8
BLACK
6
CONTINUOUS
10
5.61067
20
-3.61562
11
5.60892
21
-3.61959
0
LINE
8
BLACK
6
CONTINUOUS
10
5.60892
20
-3.61959
11
5.60585
21
-3.62266
0
LINE
8
BLACK
6
CONTINUOUS
10
5.60585
20
-3.62266
11
5.60188
21
-3.62441
0
LINE
8
BLACK
6
CONTINUOUS
10
5.60188
20
-3.62441
11
5.59917
21
-3.62472
0
LINE
8
BLACK
6
CONTINUOUS
10
5.59917
20
-3.62472
11
5.57752
21
-3.62472
0
LINE
8
BLACK
6
CONTINUOUS
10
5.57752
20
-3.62472
11
5.57482
21
-3.62441
0
LINE
8
BLACK
6
CONTINUOUS
10
5.57482
20
-3.62441
11
5.57084
21
-3.62266
0
LINE
8
BLACK
6
CONTINUOUS
10
5.57084
20
-3.62266
11
5.56778
21
-3.61959
0
LINE
8
BLACK
6
CONTINUOUS
10
5.56778
20
-3.61959
11
5.56602
21
-3.61562
0
LINE
8
BLACK
6
CONTINUOUS
10
5.56602
20
-3.61562
11
5.56571
21
-3.61291
0
LINE
8
BLACK
6
CONTINUOUS
10
5.56571
20
-3.61291
11
5.56571
21
-3.59717
0
LINE
8
BLACK
6
CONTINUOUS
10
5.56571
20
-3.59717
11
5.56602
21
-3.59446
0
LINE
8
BLACK
6
CONTINUOUS
10
5.56602
20
-3.59446
11
5.56778
21
-3.59049
0
LINE
8
BLACK
6
CONTINUOUS
10
5.56778
20
-3.59049
11
5.57084
21
-3.58742
0
LINE
8
BLACK
6
CONTINUOUS
10
5.57084
20
-3.58742
11
5.57482
21
-3.58567
0
LINE
8
BLACK
6
CONTINUOUS
10
5.57482
20
-3.58567
11
5.57752
21
-3.58535
0
LINE
8
BLACK
6
CONTINUOUS
10
5.57752
20
-3.58535
11
5.59917
21
-3.58535
0
LINE
8
BLACK
6
CONTINUOUS
10
5.59917
20
-3.58535
11
5.60188
21
-3.58567
0
LINE
8
BLACK
6
CONTINUOUS
10
5.81688
20
-3.58567
11
5.82085
21
-3.58742
0
LINE
8
BLACK
6
CONTINUOUS
10
5.82085
20
-3.58742
11
5.82392
21
-3.59049
0
LINE
8
BLACK
6
CONTINUOUS
10
5.82392
20
-3.59049
11
5.82567
21
-3.59446
0
LINE
8
BLACK
6
CONTINUOUS
10
5.82567
20
-3.59446
11
5.82598
21
-3.59717
0
LINE
8
BLACK
6
CONTINUOUS
10
5.82598
20
-3.59717
11
5.82598
21
-3.61291
0
LINE
8
BLACK
6
CONTINUOUS
10
5.82598
20
-3.61291
11
5.82567
21
-3.61562
0
LINE
8
BLACK
6
CONTINUOUS
10
5.82567
20
-3.61562
11
5.82392
21
-3.61959
0
LINE
8
BLACK
6
CONTINUOUS
10
5.82392
20
-3.61959
11
5.82085
21
-3.62266
0
LINE
8
BLACK
6
CONTINUOUS
10
5.82085
20
-3.62266
11
5.81688
21
-3.62441
0
LINE
8
BLACK
6
CONTINUOUS
10
5.81688
20
-3.62441
11
5.81417
21
-3.62472
0
LINE
8
BLACK
6
CONTINUOUS
10
5.81417
20
-3.62472
11
5.79252
21
-3.62472
0
LINE
8
BLACK
6
CONTINUOUS
10
5.79252
20
-3.62472
11
5.78982
21
-3.62441
0
LINE
8
BLACK
6
CONTINUOUS
10
5.78982
20
-3.62441
11
5.78584
21
-3.62266
0
LINE
8
BLACK
6
CONTINUOUS
10
5.78584
20
-3.62266
11
5.78278
21
-3.61959
0
LINE
8
BLACK
6
CONTINUOUS
10
5.78278
20
-3.61959
11
5.78102
21
-3.61562
0
LINE
8
BLACK
6
CONTINUOUS
10
5.78102
20
-3.61562
11
5.78071
21
-3.61291
0
LINE
8
BLACK
6
CONTINUOUS
10
5.78071
20
-3.61291
11
5.78071
21
-3.59717
0
LINE
8
BLACK
6
CONTINUOUS
10
5.78071
20
-3.59717
11
5.78102
21
-3.59446
0
LINE
8
BLACK
6
CONTINUOUS
10
5.78102
20
-3.59446
11
5.78278
21
-3.59049
0
LINE
8
BLACK
6
CONTINUOUS
10
5.78278
20
-3.59049
11
5.78584
21
-3.58742
0
LINE
8
BLACK
6
CONTINUOUS
10
5.78584
20
-3.58742
11
5.78982
21
-3.58567
0
LINE
8
BLACK
6
CONTINUOUS
10
5.78982
20
-3.58567
11
5.79252
21
-3.58535
0
LINE
8
BLACK
6
CONTINUOUS
10
5.79252
20
-3.58535
11
5.81417
21
-3.58535
0
LINE
8
BLACK
6
CONTINUOUS
10
5.81417
20
-3.58535
11
5.81688
21
-3.58567
0
LINE
8
BLACK
6
CONTINUOUS
10
6.35184
20
-3.54898
11
6.35503
21
-3.55111
0
LINE
8
BLACK
6
CONTINUOUS
10
6.35503
20
-3.55111
11
6.35716
21
-3.5543
0
LINE
8
BLACK
6
CONTINUOUS
10
6.35716
20
-3.5543
11
6.35791
21
-3.55807
0
LINE
8
BLACK
6
CONTINUOUS
10
6.35791
20
-3.55807
11
6.35791
21
-3.56988
0
LINE
8
BLACK
6
CONTINUOUS
10
6.35791
20
-3.56988
11
6.35716
21
-3.57365
0
LINE
8
BLACK
6
CONTINUOUS
10
6.35716
20
-3.57365
11
6.35503
21
-3.57684
0
LINE
8
BLACK
6
CONTINUOUS
10
6.35503
20
-3.57684
11
6.35184
21
-3.57898
0
LINE
8
BLACK
6
CONTINUOUS
10
6.35184
20
-3.57898
11
6.34807
21
-3.57972
0
LINE
8
BLACK
6
CONTINUOUS
10
6.34807
20
-3.57972
11
6.29295
21
-3.57972
0
LINE
8
BLACK
6
CONTINUOUS
10
6.29295
20
-3.57972
11
6.28919
21
-3.57898
0
LINE
8
BLACK
6
CONTINUOUS
10
6.28919
20
-3.57898
11
6.28599
21
-3.57684
0
LINE
8
BLACK
6
CONTINUOUS
10
6.28599
20
-3.57684
11
6.28386
21
-3.57365
0
LINE
8
BLACK
6
CONTINUOUS
10
6.28386
20
-3.57365
11
6.28311
21
-3.56988
0
LINE
8
BLACK
6
CONTINUOUS
10
6.28311
20
-3.56988
11
6.28311
21
-3.55807
0
LINE
8
BLACK
6
CONTINUOUS
10
6.28311
20
-3.55807
11
6.28386
21
-3.5543
0
LINE
8
BLACK
6
CONTINUOUS
10
6.28386
20
-3.5543
11
6.28599
21
-3.55111
0
LINE
8
BLACK
6
CONTINUOUS
10
6.28599
20
-3.55111
11
6.28919
21
-3.54898
0
LINE
8
BLACK
6
CONTINUOUS
10
6.28919
20
-3.54898
11
6.29295
21
-3.54823
0
LINE
8
BLACK
6
CONTINUOUS
10
6.29295
20
-3.54823
11
6.34807
21
-3.54823
0
LINE
8
BLACK
6
CONTINUOUS
10
6.34807
20
-3.54823
11
6.35184
21
-3.54898
0
LINE
8
BLACK
6
CONTINUOUS
10
6.09282
20
-3.49259
11
6.09708
21
-3.49457
0
LINE
8
BLACK
6
CONTINUOUS
10
6.09708
20
-3.49457
11
6.10041
21
-3.4979
0
LINE
8
BLACK
6
CONTINUOUS
10
6.10041
20
-3.4979
11
6.10239
21
-3.50216
0
LINE
8
BLACK
6
CONTINUOUS
10
6.10239
20
-3.50216
11
6.10285
21
-3.50566
0
LINE
8
BLACK
6
CONTINUOUS
10
6.10285
20
-3.50566
11
6.10285
21
-3.54158
0
LINE
8
BLACK
6
CONTINUOUS
10
6.10285
20
-3.54158
11
6.10239
21
-3.54509
0
LINE
8
BLACK
6
CONTINUOUS
10
6.10239
20
-3.54509
11
6.10041
21
-3.54935
0
LINE
8
BLACK
6
CONTINUOUS
10
6.10041
20
-3.54935
11
6.09708
21
-3.55267
0
LINE
8
BLACK
6
CONTINUOUS
10
6.09708
20
-3.55267
11
6.09282
21
-3.55466
0
LINE
8
BLACK
6
CONTINUOUS
10
6.09282
20
-3.55466
11
6.08932
21
-3.55512
0
LINE
8
BLACK
6
CONTINUOUS
10
6.08932
20
-3.55512
11
6.07013
21
-3.55512
0
LINE
8
BLACK
6
CONTINUOUS
10
6.07013
20
-3.55512
11
6.06663
21
-3.55466
0
LINE
8
BLACK
6
CONTINUOUS
10
6.06663
20
-3.55466
11
6.06237
21
-3.55267
0
LINE
8
BLACK
6
CONTINUOUS
10
6.06237
20
-3.55267
11
6.05904
21
-3.54935
0
LINE
8
BLACK
6
CONTINUOUS
10
6.05904
20
-3.54935
11
6.05706
21
-3.54509
0
LINE
8
BLACK
6
CONTINUOUS
10
6.05706
20
-3.54509
11
6.05659
21
-3.54158
0
LINE
8
BLACK
6
CONTINUOUS
10
6.05659
20
-3.54158
11
6.05659
21
-3.50566
0
LINE
8
BLACK
6
CONTINUOUS
10
6.05659
20
-3.50566
11
6.05706
21
-3.50216
0
LINE
8
BLACK
6
CONTINUOUS
10
6.05706
20
-3.50216
11
6.05904
21
-3.4979
0
LINE
8
BLACK
6
CONTINUOUS
10
6.05904
20
-3.4979
11
6.06237
21
-3.49457
0
LINE
8
BLACK
6
CONTINUOUS
10
6.06237
20
-3.49457
11
6.06663
21
-3.49259
0
LINE
8
BLACK
6
CONTINUOUS
10
6.06663
20
-3.49259
11
6.07013
21
-3.49213
0
LINE
8
BLACK
6
CONTINUOUS
10
6.07013
20
-3.49213
11
6.08932
21
-3.49213
0
LINE
8
BLACK
6
CONTINUOUS
10
6.08932
20
-3.49213
11
6.09282
21
-3.49259
0
LINE
8
BLACK
6
CONTINUOUS
10
6.16664
20
-3.49259
11
6.1709
21
-3.49457
0
LINE
8
BLACK
6
CONTINUOUS
10
6.1709
20
-3.49457
11
6.17423
21
-3.4979
0
LINE
8
BLACK
6
CONTINUOUS
10
6.17423
20
-3.4979
11
6.17621
21
-3.50216
0
LINE
8
BLACK
6
CONTINUOUS
10
6.17621
20
-3.50216
11
6.17667
21
-3.50566
0
LINE
8
BLACK
6
CONTINUOUS
10
6.17667
20
-3.50566
11
6.17667
21
-3.54158
0
LINE
8
BLACK
6
CONTINUOUS
10
6.17667
20
-3.54158
11
6.17621
21
-3.54509
0
LINE
8
BLACK
6
CONTINUOUS
10
6.17621
20
-3.54509
11
6.17423
21
-3.54935
0
LINE
8
BLACK
6
CONTINUOUS
10
6.17423
20
-3.54935
11
6.1709
21
-3.55267
0
LINE
8
BLACK
6
CONTINUOUS
10
6.1709
20
-3.55267
11
6.16664
21
-3.55466
0
LINE
8
BLACK
6
CONTINUOUS
10
6.16664
20
-3.55466
11
6.16314
21
-3.55512
0
LINE
8
BLACK
6
CONTINUOUS
10
6.16314
20
-3.55512
11
6.14395
21
-3.55512
0
LINE
8
BLACK
6
CONTINUOUS
10
6.14395
20
-3.55512
11
6.14044
21
-3.55466
0
LINE
8
BLACK
6
CONTINUOUS
10
6.14044
20
-3.55466
11
6.13618
21
-3.55267
0
LINE
8
BLACK
6
CONTINUOUS
10
6.13618
20
-3.55267
11
6.13286
21
-3.54935
0
LINE
8
BLACK
6
CONTINUOUS
10
6.13286
20
-3.54935
11
6.13087
21
-3.54509
0
LINE
8
BLACK
6
CONTINUOUS
10
6.13087
20
-3.54509
11
6.13041
21
-3.54158
0
LINE
8
BLACK
6
CONTINUOUS
10
6.13041
20
-3.54158
11
6.13041
21
-3.50566
0
LINE
8
BLACK
6
CONTINUOUS
10
6.13041
20
-3.50566
11
6.13087
21
-3.50216
0
LINE
8
BLACK
6
CONTINUOUS
10
6.13087
20
-3.50216
11
6.13286
21
-3.4979
0
LINE
8
BLACK
6
CONTINUOUS
10
6.13286
20
-3.4979
11
6.13618
21
-3.49457
0
LINE
8
BLACK
6
CONTINUOUS
10
6.13618
20
-3.49457
11
6.14044
21
-3.49259
0
LINE
8
BLACK
6
CONTINUOUS
10
6.14044
20
-3.49259
11
6.14395
21
-3.49213
0
LINE
8
BLACK
6
CONTINUOUS
10
6.14395
20
-3.49213
11
6.16314
21
-3.49213
0
LINE
8
BLACK
6
CONTINUOUS
10
6.16314
20
-3.49213
11
6.16664
21
-3.49259
0
LINE
8
BLACK
6
CONTINUOUS
10
6.35184
20
-3.49976
11
6.35503
21
-3.5019
0
LINE
8
BLACK
6
CONTINUOUS
10
6.35503
20
-3.5019
11
6.35716
21
-3.50509
0
LINE
8
BLACK
6
CONTINUOUS
10
6.35716
20
-3.50509
11
6.35791
21
-3.50886
0
LINE
8
BLACK
6
CONTINUOUS
10
6.35791
20
-3.50886
11
6.35791
21
-3.52067
0
LINE
8
BLACK
6
CONTINUOUS
10
6.35791
20
-3.52067
11
6.35716
21
-3.52444
0
LINE
8
BLACK
6
CONTINUOUS
10
6.35716
20
-3.52444
11
6.35503
21
-3.52763
0
LINE
8
BLACK
6
CONTINUOUS
10
6.35503
20
-3.52763
11
6.35184
21
-3.52976
0
LINE
8
BLACK
6
CONTINUOUS
10
6.35184
20
-3.52976
11
6.34807
21
-3.53051
0
LINE
8
BLACK
6
CONTINUOUS
10
6.34807
20
-3.53051
11
6.29295
21
-3.53051
0
LINE
8
BLACK
6
CONTINUOUS
10
6.29295
20
-3.53051
11
6.28919
21
-3.52976
0
LINE
8
BLACK
6
CONTINUOUS
10
6.28919
20
-3.52976
11
6.28599
21
-3.52763
0
LINE
8
BLACK
6
CONTINUOUS
10
6.28599
20
-3.52763
11
6.28386
21
-3.52444
0
LINE
8
BLACK
6
CONTINUOUS
10
6.28386
20
-3.52444
11
6.28311
21
-3.52067
0
LINE
8
BLACK
6
CONTINUOUS
10
6.28311
20
-3.52067
11
6.28311
21
-3.50886
0
LINE
8
BLACK
6
CONTINUOUS
10
6.28311
20
-3.50886
11
6.28386
21
-3.50509
0
LINE
8
BLACK
6
CONTINUOUS
10
6.28386
20
-3.50509
11
6.28599
21
-3.5019
0
LINE
8
BLACK
6
CONTINUOUS
10
6.28599
20
-3.5019
11
6.28919
21
-3.49976
0
LINE
8
BLACK
6
CONTINUOUS
10
6.28919
20
-3.49976
11
6.29295
21
-3.49902
0
LINE
8
BLACK
6
CONTINUOUS
10
6.29295
20
-3.49902
11
6.34807
21
-3.49902
0
LINE
8
BLACK
6
CONTINUOUS
10
6.34807
20
-3.49902
11
6.35184
21
-3.49976
0
LINE
8
BLACK
6
CONTINUOUS
10
5.54853
20
-3.48732
11
5.55248
21
-3.48916
0
LINE
8
BLACK
6
CONTINUOUS
10
5.55248
20
-3.48916
11
5.55557
21
-3.49224
0
LINE
8
BLACK
6
CONTINUOUS
10
5.55557
20
-3.49224
11
5.55741
21
-3.49619
0
LINE
8
BLACK
6
CONTINUOUS
10
5.55741
20
-3.49619
11
5.55783
21
-3.49944
0
LINE
8
BLACK
6
CONTINUOUS
10
5.55783
20
-3.49944
11
5.55783
21
-3.51666
0
LINE
8
BLACK
6
CONTINUOUS
10
5.55783
20
-3.51666
11
5.55741
21
-3.51991
0
LINE
8
BLACK
6
CONTINUOUS
10
5.55741
20
-3.51991
11
5.55557
21
-3.52386
0
LINE
8
BLACK
6
CONTINUOUS
10
5.55557
20
-3.52386
11
5.55248
21
-3.52694
0
LINE
8
BLACK
6
CONTINUOUS
10
5.55248
20
-3.52694
11
5.54853
21
-3.52879
0
LINE
8
BLACK
6
CONTINUOUS
10
5.54853
20
-3.52879
11
5.54529
21
-3.52921
0
LINE
8
BLACK
6
CONTINUOUS
10
5.54529
20
-3.52921
11
5.52511
21
-3.52921
0
LINE
8
BLACK
6
CONTINUOUS
10
5.52511
20
-3.52921
11
5.52186
21
-3.52879
0
LINE
8
BLACK
6
CONTINUOUS
10
5.52186
20
-3.52879
11
5.51791
21
-3.52694
0
LINE
8
BLACK
6
CONTINUOUS
10
5.51791
20
-3.52694
11
5.51483
21
-3.52386
0
LINE
8
BLACK
6
CONTINUOUS
10
5.51483
20
-3.52386
11
5.51299
21
-3.51991
0
LINE
8
BLACK
6
CONTINUOUS
10
5.51299
20
-3.51991
11
5.51256
21
-3.51666
0
LINE
8
BLACK
6
CONTINUOUS
10
5.51256
20
-3.51666
11
5.51256
21
-3.49944
0
LINE
8
BLACK
6
CONTINUOUS
10
5.51256
20
-3.49944
11
5.51299
21
-3.49619
0
LINE
8
BLACK
6
CONTINUOUS
10
5.51299
20
-3.49619
11
5.51483
21
-3.49224
0
LINE
8
BLACK
6
CONTINUOUS
10
5.51483
20
-3.49224
11
5.51791
21
-3.48916
0
LINE
8
BLACK
6
CONTINUOUS
10
5.51791
20
-3.48916
11
5.52186
21
-3.48732
0
LINE
8
BLACK
6
CONTINUOUS
10
5.52186
20
-3.48732
11
5.52511
21
-3.48689
0
LINE
8
BLACK
6
CONTINUOUS
10
5.52511
20
-3.48689
11
5.54529
21
-3.48689
0
LINE
8
BLACK
6
CONTINUOUS
10
5.54529
20
-3.48689
11
5.54853
21
-3.48732
0
LINE
8
BLACK
6
CONTINUOUS
10
5.66664
20
-3.48732
11
5.67059
21
-3.48916
0
LINE
8
BLACK
6
CONTINUOUS
10
5.67059
20
-3.48916
11
5.67368
21
-3.49224
0
LINE
8
BLACK
6
CONTINUOUS
10
5.67368
20
-3.49224
11
5.67552
21
-3.49619
0
LINE
8
BLACK
6
CONTINUOUS
10
5.67552
20
-3.49619
11
5.67594
21
-3.49944
0
LINE
8
BLACK
6
CONTINUOUS
10
5.67594
20
-3.49944
11
5.67594
21
-3.51666
0
LINE
8
BLACK
6
CONTINUOUS
10
5.67594
20
-3.51666
11
5.67552
21
-3.51991
0
LINE
8
BLACK
6
CONTINUOUS
10
5.67552
20
-3.51991
11
5.67368
21
-3.52386
0
LINE
8
BLACK
6
CONTINUOUS
10
5.67368
20
-3.52386
11
5.67059
21
-3.52694
0
LINE
8
BLACK
6
CONTINUOUS
10
5.67059
20
-3.52694
11
5.66664
21
-3.52879
0
LINE
8
BLACK
6
CONTINUOUS
10
5.66664
20
-3.52879
11
5.6634
21
-3.52921
0
LINE
8
BLACK
6
CONTINUOUS
10
5.6634
20
-3.52921
11
5.64322
21
-3.52921
0
LINE
8
BLACK
6
CONTINUOUS
10
5.64322
20
-3.52921
11
5.63997
21
-3.52879
0
LINE
8
BLACK
6
CONTINUOUS
10
5.63997
20
-3.52879
11
5.63602
21
-3.52694
0
LINE
8
BLACK
6
CONTINUOUS
10
5.63602
20
-3.52694
11
5.63294
21
-3.52386
0
LINE
8
BLACK
6
CONTINUOUS
10
5.63294
20
-3.52386
11
5.6311
21
-3.51991
0
LINE
8
BLACK
6
CONTINUOUS
10
5.6311
20
-3.51991
11
5.63067
21
-3.51666
0
LINE
8
BLACK
6
CONTINUOUS
10
5.63067
20
-3.51666
11
5.63067
21
-3.49944
0
LINE
8
BLACK
6
CONTINUOUS
10
5.63067
20
-3.49944
11
5.6311
21
-3.49619
0
LINE
8
BLACK
6
CONTINUOUS
10
5.6311
20
-3.49619
11
5.63294
21
-3.49224
0
LINE
8
BLACK
6
CONTINUOUS
10
5.63294
20
-3.49224
11
5.63602
21
-3.48916
0
LINE
8
BLACK
6
CONTINUOUS
10
5.63602
20
-3.48916
11
5.63997
21
-3.48732
0
LINE
8
BLACK
6
CONTINUOUS
10
5.63997
20
-3.48732
11
5.64322
21
-3.48689
0
LINE
8
BLACK
6
CONTINUOUS
10
5.64322
20
-3.48689
11
5.6634
21
-3.48689
0
LINE
8
BLACK
6
CONTINUOUS
10
5.6634
20
-3.48689
11
5.66664
21
-3.48732
0
LINE
8
BLACK
6
CONTINUOUS
10
5.54853
20
-3.42531
11
5.55248
21
-3.42715
0
LINE
8
BLACK
6
CONTINUOUS
10
5.55248
20
-3.42715
11
5.55557
21
-3.43023
0
LINE
8
BLACK
6
CONTINUOUS
10
5.55557
20
-3.43023
11
5.55741
21
-3.43418
0
LINE
8
BLACK
6
CONTINUOUS
10
5.55741
20
-3.43418
11
5.55783
21
-3.43743
0
LINE
8
BLACK
6
CONTINUOUS
10
5.55783
20
-3.43743
11
5.55783
21
-3.45466
0
LINE
8
BLACK
6
CONTINUOUS
10
5.55783
20
-3.45466
11
5.55741
21
-3.4579
0
LINE
8
BLACK
6
CONTINUOUS
10
5.55741
20
-3.4579
11
5.55557
21
-3.46185
0
LINE
8
BLACK
6
CONTINUOUS
10
5.55557
20
-3.46185
11
5.55248
21
-3.46494
0
LINE
8
BLACK
6
CONTINUOUS
10
5.55248
20
-3.46494
11
5.54853
21
-3.46678
0
LINE
8
BLACK
6
CONTINUOUS
10
5.54853
20
-3.46678
11
5.54529
21
-3.4672
0
LINE
8
BLACK
6
CONTINUOUS
10
5.54529
20
-3.4672
11
5.52511
21
-3.4672
0
LINE
8
BLACK
6
CONTINUOUS
10
5.52511
20
-3.4672
11
5.52186
21
-3.46678
0
LINE
8
BLACK
6
CONTINUOUS
10
5.52186
20
-3.46678
11
5.51791
21
-3.46494
0
LINE
8
BLACK
6
CONTINUOUS
10
5.51791
20
-3.46494
11
5.51483
21
-3.46185
0
LINE
8
BLACK
6
CONTINUOUS
10
5.51483
20
-3.46185
11
5.51299
21
-3.4579
0
LINE
8
BLACK
6
CONTINUOUS
10
5.51299
20
-3.4579
11
5.51256
21
-3.45466
0
LINE
8
BLACK
6
CONTINUOUS
10
5.51256
20
-3.45466
11
5.51256
21
-3.43743
0
LINE
8
BLACK
6
CONTINUOUS
10
5.51256
20
-3.43743
11
5.51299
21
-3.43418
0
LINE
8
BLACK
6
CONTINUOUS
10
5.51299
20
-3.43418
11
5.51483
21
-3.43023
0
LINE
8
BLACK
6
CONTINUOUS
10
5.51483
20
-3.43023
11
5.51791
21
-3.42715
0
LINE
8
BLACK
6
CONTINUOUS
10
5.51791
20
-3.42715
11
5.52186
21
-3.42531
0
LINE
8
BLACK
6
CONTINUOUS
10
5.52186
20
-3.42531
11
5.52511
21
-3.42488
0
LINE
8
BLACK
6
CONTINUOUS
10
5.52511
20
-3.42488
11
5.54529
21
-3.42488
0
LINE
8
BLACK
6
CONTINUOUS
10
5.54529
20
-3.42488
11
5.54853
21
-3.42531
0
LINE
8
BLACK
6
CONTINUOUS
10
5.66664
20
-3.42531
11
5.67059
21
-3.42715
0
LINE
8
BLACK
6
CONTINUOUS
10
5.67059
20
-3.42715
11
5.67368
21
-3.43023
0
LINE
8
BLACK
6
CONTINUOUS
10
5.67368
20
-3.43023
11
5.67552
21
-3.43418
0
LINE
8
BLACK
6
CONTINUOUS
10
5.67552
20
-3.43418
11
5.67594
21
-3.43743
0
LINE
8
BLACK
6
CONTINUOUS
10
5.67594
20
-3.43743
11
5.67594
21
-3.45466
0
LINE
8
BLACK
6
CONTINUOUS
10
5.67594
20
-3.45466
11
5.67552
21
-3.4579
0
LINE
8
BLACK
6
CONTINUOUS
10
5.67552
20
-3.4579
11
5.67368
21
-3.46185
0
LINE
8
BLACK
6
CONTINUOUS
10
5.67368
20
-3.46185
11
5.67059
21
-3.46494
0
LINE
8
BLACK
6
CONTINUOUS
10
5.67059
20
-3.46494
11
5.66664
21
-3.46678
0
LINE
8
BLACK
6
CONTINUOUS
10
5.66664
20
-3.46678
11
5.6634
21
-3.4672
0
LINE
8
BLACK
6
CONTINUOUS
10
5.6634
20
-3.4672
11
5.64322
21
-3.4672
0
LINE
8
BLACK
6
CONTINUOUS
10
5.64322
20
-3.4672
11
5.63997
21
-3.46678
0
LINE
8
BLACK
6
CONTINUOUS
10
5.63997
20
-3.46678
11
5.63602
21
-3.46494
0
LINE
8
BLACK
6
CONTINUOUS
10
5.63602
20
-3.46494
11
5.63294
21
-3.46185
0
LINE
8
BLACK
6
CONTINUOUS
10
5.63294
20
-3.46185
11
5.6311
21
-3.4579
0
LINE
8
BLACK
6
CONTINUOUS
10
5.6311
20
-3.4579
11
5.63067
21
-3.45466
0
LINE
8
BLACK
6
CONTINUOUS
10
5.63067
20
-3.45466
11
5.63067
21
-3.43743
0
LINE
8
BLACK
6
CONTINUOUS
10
5.63067
20
-3.43743
11
5.6311
21
-3.43418
0
LINE
8
BLACK
6
CONTINUOUS
10
5.6311
20
-3.43418
11
5.63294
21
-3.43023
0
LINE
8
BLACK
6
CONTINUOUS
10
5.63294
20
-3.43023
11
5.63602
21
-3.42715
0
LINE
8
BLACK
6
CONTINUOUS
10
5.63602
20
-3.42715
11
5.63997
21
-3.42531
0
LINE
8
BLACK
6
CONTINUOUS
10
5.63997
20
-3.42531
11
5.64322
21
-3.42488
0
LINE
8
BLACK
6
CONTINUOUS
10
5.64322
20
-3.42488
11
5.6634
21
-3.42488
0
LINE
8
BLACK
6
CONTINUOUS
10
5.6634
20
-3.42488
11
5.66664
21
-3.42531
0
LINE
8
BLACK
6
CONTINUOUS
10
6.49373
20
-3.41888
11
6.49781
21
-3.42087
0
LINE
8
BLACK
6
CONTINUOUS
10
6.49781
20
-3.42087
11
6.50102
21
-3.42408
0
LINE
8
BLACK
6
CONTINUOUS
10
6.50102
20
-3.42408
11
6.50301
21
-3.42815
0
LINE
8
BLACK
6
CONTINUOUS
10
6.50301
20
-3.42815
11
6.50358
21
-3.43209
0
LINE
8
BLACK
6
CONTINUOUS
10
6.50358
20
-3.43209
11
6.50358
21
-3.45177
0
LINE
8
BLACK
6
CONTINUOUS
10
6.50358
20
-3.45177
11
6.50301
21
-3.4557
0
LINE
8
BLACK
6
CONTINUOUS
10
6.50301
20
-3.4557
11
6.50102
21
-3.45978
0
LINE
8
BLACK
6
CONTINUOUS
10
6.50102
20
-3.45978
11
6.49781
21
-3.46299
0
LINE
8
BLACK
6
CONTINUOUS
10
6.49781
20
-3.46299
11
6.49373
21
-3.46498
0
LINE
8
BLACK
6
CONTINUOUS
10
6.49373
20
-3.46498
11
6.4898
21
-3.46555
0
LINE
8
BLACK
6
CONTINUOUS
10
6.4898
20
-3.46555
11
6.40319
21
-3.46555
0
LINE
8
BLACK
6
CONTINUOUS
10
6.40319
20
-3.46555
11
6.39926
21
-3.46498
0
LINE
8
BLACK
6
CONTINUOUS
10
6.39926
20
-3.46498
11
6.39518
21
-3.46299
0
LINE
8
BLACK
6
CONTINUOUS
10
6.39518
20
-3.46299
11
6.39197
21
-3.45978
0
LINE
8
BLACK
6
CONTINUOUS
10
6.39197
20
-3.45978
11
6.38998
21
-3.4557
0
LINE
8
BLACK
6
CONTINUOUS
10
6.38998
20
-3.4557
11
6.38941
21
-3.45177
0
LINE
8
BLACK
6
CONTINUOUS
10
6.38941
20
-3.45177
11
6.38941
21
-3.43209
0
LINE
8
BLACK
6
CONTINUOUS
10
6.38941
20
-3.43209
11
6.38998
21
-3.42815
0
LINE
8
BLACK
6
CONTINUOUS
10
6.38998
20
-3.42815
11
6.39197
21
-3.42408
0
LINE
8
BLACK
6
CONTINUOUS
10
6.39197
20
-3.42408
11
6.39518
21
-3.42087
0
LINE
8
BLACK
6
CONTINUOUS
10
6.39518
20
-3.42087
11
6.39926
21
-3.41888
0
LINE
8
BLACK
6
CONTINUOUS
10
6.39926
20
-3.41888
11
6.40319
21
-3.41831
0
LINE
8
BLACK
6
CONTINUOUS
10
6.40319
20
-3.41831
11
6.4898
21
-3.41831
0
LINE
8
BLACK
6
CONTINUOUS
10
6.4898
20
-3.41831
11
6.49373
21
-3.41888
0
LINE
8
BLACK
6
CONTINUOUS
10
5.45127
20
-3.30169
11
5.46049
21
-3.30486
0
LINE
8
BLACK
6
CONTINUOUS
10
5.46049
20
-3.30486
11
5.46907
21
-3.3095
0
LINE
8
BLACK
6
CONTINUOUS
10
5.46907
20
-3.3095
11
5.47677
21
-3.31549
0
LINE
8
BLACK
6
CONTINUOUS
10
5.47677
20
-3.31549
11
5.48337
21
-3.32266
0
LINE
8
BLACK
6
CONTINUOUS
10
5.48337
20
-3.32266
11
5.48871
21
-3.33083
0
LINE
8
BLACK
6
CONTINUOUS
10
5.48871
20
-3.33083
11
5.49263
21
-3.33976
0
LINE
8
BLACK
6
CONTINUOUS
10
5.49263
20
-3.33976
11
5.49502
21
-3.34922
0
LINE
8
BLACK
6
CONTINUOUS
10
5.49502
20
-3.34922
11
5.49583
21
-3.35894
0
LINE
8
BLACK
6
CONTINUOUS
10
5.49583
20
-3.35894
11
5.49502
21
-3.36866
0
LINE
8
BLACK
6
CONTINUOUS
10
5.49502
20
-3.36866
11
5.49263
21
-3.37811
0
LINE
8
BLACK
6
CONTINUOUS
10
5.49263
20
-3.37811
11
5.48871
21
-3.38704
0
LINE
8
BLACK
6
CONTINUOUS
10
5.48871
20
-3.38704
11
5.48337
21
-3.39521
0
LINE
8
BLACK
6
CONTINUOUS
10
5.48337
20
-3.39521
11
5.47677
21
-3.40239
0
LINE
8
BLACK
6
CONTINUOUS
10
5.47677
20
-3.40239
11
5.46907
21
-3.40838
0
LINE
8
BLACK
6
CONTINUOUS
10
5.46907
20
-3.40838
11
5.46049
21
-3.41302
0
LINE
8
BLACK
6
CONTINUOUS
10
5.46049
20
-3.41302
11
5.45127
21
-3.41619
0
LINE
8
BLACK
6
CONTINUOUS
10
5.45127
20
-3.41619
11
5.44165
21
-3.41779
0
LINE
8
BLACK
6
CONTINUOUS
10
5.44165
20
-3.41779
11
5.43189
21
-3.41779
0
LINE
8
BLACK
6
CONTINUOUS
10
5.43189
20
-3.41779
11
5.42227
21
-3.41619
0
LINE
8
BLACK
6
CONTINUOUS
10
5.42227
20
-3.41619
11
5.41305
21
-3.41302
0
LINE
8
BLACK
6
CONTINUOUS
10
5.41305
20
-3.41302
11
5.40447
21
-3.40838
0
LINE
8
BLACK
6
CONTINUOUS
10
5.40447
20
-3.40838
11
5.39677
21
-3.40239
0
LINE
8
BLACK
6
CONTINUOUS
10
5.39677
20
-3.40239
11
5.39017
21
-3.39521
0
LINE
8
BLACK
6
CONTINUOUS
10
5.39017
20
-3.39521
11
5.38483
21
-3.38704
0
LINE
8
BLACK
6
CONTINUOUS
10
5.38483
20
-3.38704
11
5.38092
21
-3.37811
0
LINE
8
BLACK
6
CONTINUOUS
10
5.38092
20
-3.37811
11
5.37852
21
-3.36866
0
LINE
8
BLACK
6
CONTINUOUS
10
5.37852
20
-3.36866
11
5.37772
21
-3.35894
0
LINE
8
BLACK
6
CONTINUOUS
10
5.37772
20
-3.35894
11
5.37852
21
-3.34922
0
LINE
8
BLACK
6
CONTINUOUS
10
5.37852
20
-3.34922
11
5.38092
21
-3.33976
0
LINE
8
BLACK
6
CONTINUOUS
10
5.38092
20
-3.33976
11
5.38483
21
-3.33083
0
LINE
8
BLACK
6
CONTINUOUS
10
5.38483
20
-3.33083
11
5.39017
21
-3.32266
0
LINE
8
BLACK
6
CONTINUOUS
10
5.39017
20
-3.32266
11
5.39677
21
-3.31549
0
LINE
8
BLACK
6
CONTINUOUS
10
5.39677
20
-3.31549
11
5.40447
21
-3.3095
0
LINE
8
BLACK
6
CONTINUOUS
10
5.40447
20
-3.3095
11
5.41305
21
-3.30486
0
LINE
8
BLACK
6
CONTINUOUS
10
5.41305
20
-3.30486
11
5.42227
21
-3.30169
0
LINE
8
BLACK
6
CONTINUOUS
10
5.42227
20
-3.30169
11
5.43189
21
-3.30008
0
LINE
8
BLACK
6
CONTINUOUS
10
5.43189
20
-3.30008
11
5.44165
21
-3.30008
0
LINE
8
BLACK
6
CONTINUOUS
10
5.44165
20
-3.30008
11
5.45127
21
-3.30169
0
LINE
8
BLACK
6
CONTINUOUS
10
5.84497
20
-3.30169
11
5.85419
21
-3.30486
0
LINE
8
BLACK
6
CONTINUOUS
10
5.85419
20
-3.30486
11
5.86277
21
-3.3095
0
LINE
8
BLACK
6
CONTINUOUS
10
5.86277
20
-3.3095
11
5.87047
21
-3.31549
0
LINE
8
BLACK
6
CONTINUOUS
10
5.87047
20
-3.31549
11
5.87708
21
-3.32266
0
LINE
8
BLACK
6
CONTINUOUS
10
5.87708
20
-3.32266
11
5.88241
21
-3.33083
0
LINE
8
BLACK
6
CONTINUOUS
10
5.88241
20
-3.33083
11
5.88633
21
-3.33976
0
LINE
8
BLACK
6
CONTINUOUS
10
5.88633
20
-3.33976
11
5.88872
21
-3.34922
0
LINE
8
BLACK
6
CONTINUOUS
10
5.88872
20
-3.34922
11
5.88953
21
-3.35894
0
LINE
8
BLACK
6
CONTINUOUS
10
5.88953
20
-3.35894
11
5.88872
21
-3.36866
0
LINE
8
BLACK
6
CONTINUOUS
10
5.88872
20
-3.36866
11
5.88633
21
-3.37811
0
LINE
8
BLACK
6
CONTINUOUS
10
5.88633
20
-3.37811
11
5.88241
21
-3.38704
0
LINE
8
BLACK
6
CONTINUOUS
10
5.88241
20
-3.38704
11
5.87708
21
-3.39521
0
LINE
8
BLACK
6
CONTINUOUS
10
5.87708
20
-3.39521
11
5.87047
21
-3.40239
0
LINE
8
BLACK
6
CONTINUOUS
10
5.87047
20
-3.40239
11
5.86277
21
-3.40838
0
LINE
8
BLACK
6
CONTINUOUS
10
5.86277
20
-3.40838
11
5.85419
21
-3.41302
0
LINE
8
BLACK
6
CONTINUOUS
10
5.85419
20
-3.41302
11
5.84497
21
-3.41619
0
LINE
8
BLACK
6
CONTINUOUS
10
5.84497
20
-3.41619
11
5.83535
21
-3.41779
0
LINE
8
BLACK
6
CONTINUOUS
10
5.83535
20
-3.41779
11
5.8256
21
-3.41779
0
LINE
8
BLACK
6
CONTINUOUS
10
5.8256
20
-3.41779
11
5.81598
21
-3.41619
0
LINE
8
BLACK
6
CONTINUOUS
10
5.81598
20
-3.41619
11
5.80675
21
-3.41302
0
LINE
8
BLACK
6
CONTINUOUS
10
5.80675
20
-3.41302
11
5.79817
21
-3.40838
0
LINE
8
BLACK
6
CONTINUOUS
10
5.79817
20
-3.40838
11
5.79048
21
-3.40239
0
LINE
8
BLACK
6
CONTINUOUS
10
5.79048
20
-3.40239
11
5.78387
21
-3.39521
0
LINE
8
BLACK
6
CONTINUOUS
10
5.78387
20
-3.39521
11
5.77853
21
-3.38704
0
LINE
8
BLACK
6
CONTINUOUS
10
5.77853
20
-3.38704
11
5.77462
21
-3.37811
0
LINE
8
BLACK
6
CONTINUOUS
10
5.77462
20
-3.37811
11
5.77222
21
-3.36866
0
LINE
8
BLACK
6
CONTINUOUS
10
5.77222
20
-3.36866
11
5.77142
21
-3.35894
0
LINE
8
BLACK
6
CONTINUOUS
10
5.77142
20
-3.35894
11
5.77222
21
-3.34922
0
LINE
8
BLACK
6
CONTINUOUS
10
5.77222
20
-3.34922
11
5.77462
21
-3.33976
0
LINE
8
BLACK
6
CONTINUOUS
10
5.77462
20
-3.33976
11
5.77853
21
-3.33083
0
LINE
8
BLACK
6
CONTINUOUS
10
5.77853
20
-3.33083
11
5.78387
21
-3.32266
0
LINE
8
BLACK
6
CONTINUOUS
10
5.78387
20
-3.32266
11
5.79048
21
-3.31549
0
LINE
8
BLACK
6
CONTINUOUS
10
5.79048
20
-3.31549
11
5.79817
21
-3.3095
0
LINE
8
BLACK
6
CONTINUOUS
10
5.79817
20
-3.3095
11
5.80675
21
-3.30486
0
LINE
8
BLACK
6
CONTINUOUS
10
5.80675
20
-3.30486
11
5.81598
21
-3.30169
0
LINE
8
BLACK
6
CONTINUOUS
10
5.81598
20
-3.30169
11
5.8256
21
-3.30008
0
LINE
8
BLACK
6
CONTINUOUS
10
5.8256
20
-3.30008
11
5.83535
21
-3.30008
0
LINE
8
BLACK
6
CONTINUOUS
10
5.83535
20
-3.30008
11
5.84497
21
-3.30169
0
LINE
8
BLACK
6
CONTINUOUS
10
6.23867
20
-3.30169
11
6.2479
21
-3.30486
0
LINE
8
BLACK
6
CONTINUOUS
10
6.2479
20
-3.30486
11
6.25647
21
-3.3095
0
LINE
8
BLACK
6
CONTINUOUS
10
6.25647
20
-3.3095
11
6.26417
21
-3.31549
0
LINE
8
BLACK
6
CONTINUOUS
10
6.26417
20
-3.31549
11
6.27078
21
-3.32266
0
LINE
8
BLACK
6
CONTINUOUS
10
6.27078
20
-3.32266
11
6.27611
21
-3.33083
0
LINE
8
BLACK
6
CONTINUOUS
10
6.27611
20
-3.33083
11
6.28003
21
-3.33976
0
LINE
8
BLACK
6
CONTINUOUS
10
6.28003
20
-3.33976
11
6.28242
21
-3.34922
0
LINE
8
BLACK
6
CONTINUOUS
10
6.28242
20
-3.34922
11
6.28323
21
-3.35894
0
LINE
8
BLACK
6
CONTINUOUS
10
6.28323
20
-3.35894
11
6.28242
21
-3.36866
0
LINE
8
BLACK
6
CONTINUOUS
10
6.28242
20
-3.36866
11
6.28003
21
-3.37811
0
LINE
8
BLACK
6
CONTINUOUS
10
6.28003
20
-3.37811
11
6.27611
21
-3.38704
0
LINE
8
BLACK
6
CONTINUOUS
10
6.27611
20
-3.38704
11
6.27078
21
-3.39521
0
LINE
8
BLACK
6
CONTINUOUS
10
6.27078
20
-3.39521
11
6.26417
21
-3.40239
0
LINE
8
BLACK
6
CONTINUOUS
10
6.26417
20
-3.40239
11
6.25647
21
-3.40838
0
LINE
8
BLACK
6
CONTINUOUS
10
6.25647
20
-3.40838
11
6.2479
21
-3.41302
0
LINE
8
BLACK
6
CONTINUOUS
10
6.2479
20
-3.41302
11
6.23867
21
-3.41619
0
LINE
8
BLACK
6
CONTINUOUS
10
6.23867
20
-3.41619
11
6.22905
21
-3.41779
0
LINE
8
BLACK
6
CONTINUOUS
10
6.22905
20
-3.41779
11
6.2193
21
-3.41779
0
LINE
8
BLACK
6
CONTINUOUS
10
6.2193
20
-3.41779
11
6.20968
21
-3.41619
0
LINE
8
BLACK
6
CONTINUOUS
10
6.20968
20
-3.41619
11
6.20045
21
-3.41302
0
LINE
8
BLACK
6
CONTINUOUS
10
6.20045
20
-3.41302
11
6.19187
21
-3.40838
0
LINE
8
BLACK
6
CONTINUOUS
10
6.19187
20
-3.40838
11
6.18418
21
-3.40239
0
LINE
8
BLACK
6
CONTINUOUS
10
6.18418
20
-3.40239
11
6.17757
21
-3.39521
0
LINE
8
BLACK
6
CONTINUOUS
10
6.17757
20
-3.39521
11
6.17224
21
-3.38704
0
LINE
8
BLACK
6
CONTINUOUS
10
6.17224
20
-3.38704
11
6.16832
21
-3.37811
0
LINE
8
BLACK
6
CONTINUOUS
10
6.16832
20
-3.37811
11
6.16592
21
-3.36866
0
LINE
8
BLACK
6
CONTINUOUS
10
6.16592
20
-3.36866
11
6.16512
21
-3.35894
0
LINE
8
BLACK
6
CONTINUOUS
10
6.16512
20
-3.35894
11
6.16592
21
-3.34922
0
LINE
8
BLACK
6
CONTINUOUS
10
6.16592
20
-3.34922
11
6.16832
21
-3.33976
0
LINE
8
BLACK
6
CONTINUOUS
10
6.16832
20
-3.33976
11
6.17224
21
-3.33083
0
LINE
8
BLACK
6
CONTINUOUS
10
6.17224
20
-3.33083
11
6.17757
21
-3.32266
0
LINE
8
BLACK
6
CONTINUOUS
10
6.17757
20
-3.32266
11
6.18418
21
-3.31549
0
LINE
8
BLACK
6
CONTINUOUS
10
6.18418
20
-3.31549
11
6.19187
21
-3.3095
0
LINE
8
BLACK
6
CONTINUOUS
10
6.19187
20
-3.3095
11
6.20045
21
-3.30486
0
LINE
8
BLACK
6
CONTINUOUS
10
6.20045
20
-3.30486
11
6.20968
21
-3.30169
0
LINE
8
BLACK
6
CONTINUOUS
10
6.20968
20
-3.30169
11
6.2193
21
-3.30008
0
LINE
8
BLACK
6
CONTINUOUS
10
6.2193
20
-3.30008
11
6.22905
21
-3.30008
0
LINE
8
BLACK
6
CONTINUOUS
10
6.22905
20
-3.30008
11
6.23867
21
-3.30169
  0
ENDSEC
  0
EOF
