  0
SECTION
  2
HEADER
  9
$ANGBASE
  50
0.0
  9
$ANGDIR
  70
1
  9
$MEASUREMENT
  70
0
  0
ENDSEC
  0
SECTION
  2
TABLES
  0
TABLE
  2
LTYPE
  70
4
  0
LTYPE
  5
40F
  2
CONTINUOUS
  70
0
  3
Solid line
  72
65
  73
0
  40
0.0
  0
LTYPE
  5
410
  2
DASHDOT
 70
0
  3
Dash Dot ____ _ ____ _
 72
65
 73
4
 40
2.0
 49
1.25
 49
-0.25
 49
0.25
 49
-0.25
  0
LTYPE
  5
411
  2
DASHED
 70
0
  3
Dashed __ __ __ __ __
 72
65
 73
2
 40
0.75
 49
0.5
 49
-0.25
  0
LTYPE
  5
43B
  2
DOTTED
 70
0
  3
Dotted .  .  .  .
 72
65
 73
2
 40
0.2
 49
0.0
 49
-0.2
  0
ENDTAB
  0
TABLE
  2
STYLE
  70
4
  0
STYLE
  2
KICAD
  70
0
  40
0
  41
1
  42
1
  50
0
  71
0
  3
isocp.shx
  0
STYLE
  2
KICADB
  70
0
  40
0
  41
1
  42
1
  50
0
  71
0
  3
isocp.shx
  0
STYLE
  2
KICADI
  70
0
  40
0
  41
1
  42
1
  50
15
  71
0
  3
isocp.shx
  0
STYLE
  2
KICADBI
  70
0
  40
0
  41
1
  42
1
  50
15
  71
0
  3
isocp.shx
  0
ENDTAB
  0
TABLE
  2
LAYER
  70
1
  0
LAYER
  2
BLACK
  70
0
  62
7
  6
CONTINUOUS
  0
ENDTAB
  0
ENDSEC
  0
SECTION
  2
ENTITIES
0
LINE
8
BLACK
6
CONTINUOUS
10
6.49357
20
-4.43677
11
6.49676
21
-4.43891
0
LINE
8
BLACK
6
CONTINUOUS
10
6.49676
20
-4.43891
11
6.4989
21
-4.4421
0
LINE
8
BLACK
6
CONTINUOUS
10
6.4989
20
-4.4421
11
6.49965
21
-4.44587
0
LINE
8
BLACK
6
CONTINUOUS
10
6.49965
20
-4.44587
11
6.49965
21
-4.46555
0
LINE
8
BLACK
6
CONTINUOUS
10
6.49965
20
-4.46555
11
6.4989
21
-4.46932
0
LINE
8
BLACK
6
CONTINUOUS
10
6.4989
20
-4.46932
11
6.49676
21
-4.47251
0
LINE
8
BLACK
6
CONTINUOUS
10
6.49676
20
-4.47251
11
6.49357
21
-4.47464
0
LINE
8
BLACK
6
CONTINUOUS
10
6.49357
20
-4.47464
11
6.4898
21
-4.47539
0
LINE
8
BLACK
6
CONTINUOUS
10
6.4898
20
-4.47539
11
6.40319
21
-4.47539
0
LINE
8
BLACK
6
CONTINUOUS
10
6.40319
20
-4.47539
11
6.39942
21
-4.47464
0
LINE
8
BLACK
6
CONTINUOUS
10
6.39942
20
-4.47464
11
6.39623
21
-4.47251
0
LINE
8
BLACK
6
CONTINUOUS
10
6.39623
20
-4.47251
11
6.3941
21
-4.46932
0
LINE
8
BLACK
6
CONTINUOUS
10
6.3941
20
-4.46932
11
6.39335
21
-4.46555
0
LINE
8
BLACK
6
CONTINUOUS
10
6.39335
20
-4.46555
11
6.39335
21
-4.44587
0
LINE
8
BLACK
6
CONTINUOUS
10
6.39335
20
-4.44587
11
6.3941
21
-4.4421
0
LINE
8
BLACK
6
CONTINUOUS
10
6.3941
20
-4.4421
11
6.39623
21
-4.43891
0
LINE
8
BLACK
6
CONTINUOUS
10
6.39623
20
-4.43891
11
6.39942
21
-4.43677
0
LINE
8
BLACK
6
CONTINUOUS
10
6.39942
20
-4.43677
11
6.40319
21
-4.43602
0
LINE
8
BLACK
6
CONTINUOUS
10
6.40319
20
-4.43602
11
6.4898
21
-4.43602
0
LINE
8
BLACK
6
CONTINUOUS
10
6.4898
20
-4.43602
11
6.49357
21
-4.43677
0
LINE
8
BLACK
6
CONTINUOUS
10
5.6162
20
-4.42776
11
5.61876
21
-4.42947
0
LINE
8
BLACK
6
CONTINUOUS
10
5.61876
20
-4.42947
11
5.62046
21
-4.43203
0
LINE
8
BLACK
6
CONTINUOUS
10
5.62046
20
-4.43203
11
5.62106
21
-4.43504
0
LINE
8
BLACK
6
CONTINUOUS
10
5.62106
20
-4.43504
11
5.62106
21
-4.45079
0
LINE
8
BLACK
6
CONTINUOUS
10
5.62106
20
-4.45079
11
5.62046
21
-4.4538
0
LINE
8
BLACK
6
CONTINUOUS
10
5.62046
20
-4.4538
11
5.61876
21
-4.45636
0
LINE
8
BLACK
6
CONTINUOUS
10
5.61876
20
-4.45636
11
5.6162
21
-4.45806
0
LINE
8
BLACK
6
CONTINUOUS
10
5.6162
20
-4.45806
11
5.61319
21
-4.45866
0
LINE
8
BLACK
6
CONTINUOUS
10
5.61319
20
-4.45866
11
5.59154
21
-4.45866
0
LINE
8
BLACK
6
CONTINUOUS
10
5.59154
20
-4.45866
11
5.58852
21
-4.45806
0
LINE
8
BLACK
6
CONTINUOUS
10
5.58852
20
-4.45806
11
5.58597
21
-4.45636
0
LINE
8
BLACK
6
CONTINUOUS
10
5.58597
20
-4.45636
11
5.58426
21
-4.4538
0
LINE
8
BLACK
6
CONTINUOUS
10
5.58426
20
-4.4538
11
5.58366
21
-4.45079
0
LINE
8
BLACK
6
CONTINUOUS
10
5.58366
20
-4.45079
11
5.58366
21
-4.43504
0
LINE
8
BLACK
6
CONTINUOUS
10
5.58366
20
-4.43504
11
5.58426
21
-4.43203
0
LINE
8
BLACK
6
CONTINUOUS
10
5.58426
20
-4.43203
11
5.58597
21
-4.42947
0
LINE
8
BLACK
6
CONTINUOUS
10
5.58597
20
-4.42947
11
5.58852
21
-4.42776
0
LINE
8
BLACK
6
CONTINUOUS
10
5.58852
20
-4.42776
11
5.59154
21
-4.42717
0
LINE
8
BLACK
6
CONTINUOUS
10
5.59154
20
-4.42717
11
5.61319
21
-4.42717
0
LINE
8
BLACK
6
CONTINUOUS
10
5.61319
20
-4.42717
11
5.6162
21
-4.42776
0
LINE
8
BLACK
6
CONTINUOUS
10
5.54882
20
-4.42388
11
5.55161
21
-4.42575
0
LINE
8
BLACK
6
CONTINUOUS
10
5.55161
20
-4.42575
11
5.55348
21
-4.42854
0
LINE
8
BLACK
6
CONTINUOUS
10
5.55348
20
-4.42854
11
5.55413
21
-4.43184
0
LINE
8
BLACK
6
CONTINUOUS
10
5.55413
20
-4.43184
11
5.55413
21
-4.44906
0
LINE
8
BLACK
6
CONTINUOUS
10
5.55413
20
-4.44906
11
5.55348
21
-4.45236
0
LINE
8
BLACK
6
CONTINUOUS
10
5.55348
20
-4.45236
11
5.55161
21
-4.45515
0
LINE
8
BLACK
6
CONTINUOUS
10
5.55161
20
-4.45515
11
5.54882
21
-4.45702
0
LINE
8
BLACK
6
CONTINUOUS
10
5.54882
20
-4.45702
11
5.54552
21
-4.45768
0
LINE
8
BLACK
6
CONTINUOUS
10
5.54552
20
-4.45768
11
5.52534
21
-4.45768
0
LINE
8
BLACK
6
CONTINUOUS
10
5.52534
20
-4.45768
11
5.52205
21
-4.45702
0
LINE
8
BLACK
6
CONTINUOUS
10
5.52205
20
-4.45702
11
5.51925
21
-4.45515
0
LINE
8
BLACK
6
CONTINUOUS
10
5.51925
20
-4.45515
11
5.51739
21
-4.45236
0
LINE
8
BLACK
6
CONTINUOUS
10
5.51739
20
-4.45236
11
5.51673
21
-4.44906
0
LINE
8
BLACK
6
CONTINUOUS
10
5.51673
20
-4.44906
11
5.51673
21
-4.43184
0
LINE
8
BLACK
6
CONTINUOUS
10
5.51673
20
-4.43184
11
5.51739
21
-4.42854
0
LINE
8
BLACK
6
CONTINUOUS
10
5.51739
20
-4.42854
11
5.51925
21
-4.42575
0
LINE
8
BLACK
6
CONTINUOUS
10
5.51925
20
-4.42575
11
5.52205
21
-4.42388
0
LINE
8
BLACK
6
CONTINUOUS
10
5.52205
20
-4.42388
11
5.52534
21
-4.42323
0
LINE
8
BLACK
6
CONTINUOUS
10
5.52534
20
-4.42323
11
5.54552
21
-4.42323
0
LINE
8
BLACK
6
CONTINUOUS
10
5.54552
20
-4.42323
11
5.54882
21
-4.42388
0
LINE
8
BLACK
6
CONTINUOUS
10
5.54882
20
-4.36188
11
5.55161
21
-4.36374
0
LINE
8
BLACK
6
CONTINUOUS
10
5.55161
20
-4.36374
11
5.55348
21
-4.36654
0
LINE
8
BLACK
6
CONTINUOUS
10
5.55348
20
-4.36654
11
5.55413
21
-4.36983
0
LINE
8
BLACK
6
CONTINUOUS
10
5.55413
20
-4.36983
11
5.55413
21
-4.38706
0
LINE
8
BLACK
6
CONTINUOUS
10
5.55413
20
-4.38706
11
5.55348
21
-4.39035
0
LINE
8
BLACK
6
CONTINUOUS
10
5.55348
20
-4.39035
11
5.55161
21
-4.39315
0
LINE
8
BLACK
6
CONTINUOUS
10
5.55161
20
-4.39315
11
5.54882
21
-4.39501
0
LINE
8
BLACK
6
CONTINUOUS
10
5.54882
20
-4.39501
11
5.54552
21
-4.39567
0
LINE
8
BLACK
6
CONTINUOUS
10
5.54552
20
-4.39567
11
5.52534
21
-4.39567
0
LINE
8
BLACK
6
CONTINUOUS
10
5.52534
20
-4.39567
11
5.52205
21
-4.39501
0
LINE
8
BLACK
6
CONTINUOUS
10
5.52205
20
-4.39501
11
5.51925
21
-4.39315
0
LINE
8
BLACK
6
CONTINUOUS
10
5.51925
20
-4.39315
11
5.51739
21
-4.39035
0
LINE
8
BLACK
6
CONTINUOUS
10
5.51739
20
-4.39035
11
5.51673
21
-4.38706
0
LINE
8
BLACK
6
CONTINUOUS
10
5.51673
20
-4.38706
11
5.51673
21
-4.36983
0
LINE
8
BLACK
6
CONTINUOUS
10
5.51673
20
-4.36983
11
5.51739
21
-4.36654
0
LINE
8
BLACK
6
CONTINUOUS
10
5.51739
20
-4.36654
11
5.51925
21
-4.36374
0
LINE
8
BLACK
6
CONTINUOUS
10
5.51925
20
-4.36374
11
5.52205
21
-4.36188
0
LINE
8
BLACK
6
CONTINUOUS
10
5.52205
20
-4.36188
11
5.52534
21
-4.36122
0
LINE
8
BLACK
6
CONTINUOUS
10
5.52534
20
-4.36122
11
5.54552
21
-4.36122
0
LINE
8
BLACK
6
CONTINUOUS
10
5.54552
20
-4.36122
11
5.54882
21
-4.36188
0
LINE
8
BLACK
6
CONTINUOUS
10
6.35033
20
-4.37151
11
6.35225
21
-4.37279
0
LINE
8
BLACK
6
CONTINUOUS
10
6.35225
20
-4.37279
11
6.35353
21
-4.37471
0
LINE
8
BLACK
6
CONTINUOUS
10
6.35353
20
-4.37471
11
6.35398
21
-4.37697
0
LINE
8
BLACK
6
CONTINUOUS
10
6.35398
20
-4.37697
11
6.35398
21
-4.38878
0
LINE
8
BLACK
6
CONTINUOUS
10
6.35398
20
-4.38878
11
6.35353
21
-4.39104
0
LINE
8
BLACK
6
CONTINUOUS
10
6.35353
20
-4.39104
11
6.35225
21
-4.39296
0
LINE
8
BLACK
6
CONTINUOUS
10
6.35225
20
-4.39296
11
6.35033
21
-4.39424
0
LINE
8
BLACK
6
CONTINUOUS
10
6.35033
20
-4.39424
11
6.34807
21
-4.39469
0
LINE
8
BLACK
6
CONTINUOUS
10
6.34807
20
-4.39469
11
6.29295
21
-4.39469
0
LINE
8
BLACK
6
CONTINUOUS
10
6.29295
20
-4.39469
11
6.29069
21
-4.39424
0
LINE
8
BLACK
6
CONTINUOUS
10
6.29069
20
-4.39424
11
6.28878
21
-4.39296
0
LINE
8
BLACK
6
CONTINUOUS
10
6.28878
20
-4.39296
11
6.2875
21
-4.39104
0
LINE
8
BLACK
6
CONTINUOUS
10
6.2875
20
-4.39104
11
6.28705
21
-4.38878
0
LINE
8
BLACK
6
CONTINUOUS
10
6.28705
20
-4.38878
11
6.28705
21
-4.37697
0
LINE
8
BLACK
6
CONTINUOUS
10
6.28705
20
-4.37697
11
6.2875
21
-4.37471
0
LINE
8
BLACK
6
CONTINUOUS
10
6.2875
20
-4.37471
11
6.28878
21
-4.37279
0
LINE
8
BLACK
6
CONTINUOUS
10
6.28878
20
-4.37279
11
6.29069
21
-4.37151
0
LINE
8
BLACK
6
CONTINUOUS
10
6.29069
20
-4.37151
11
6.29295
21
-4.37106
0
LINE
8
BLACK
6
CONTINUOUS
10
6.29295
20
-4.37106
11
6.34807
21
-4.37106
0
LINE
8
BLACK
6
CONTINUOUS
10
6.34807
20
-4.37106
11
6.35033
21
-4.37151
0
LINE
8
BLACK
6
CONTINUOUS
10
5.6162
20
-4.3628
11
5.61876
21
-4.36451
0
LINE
8
BLACK
6
CONTINUOUS
10
5.61876
20
-4.36451
11
5.62046
21
-4.36707
0
LINE
8
BLACK
6
CONTINUOUS
10
5.62046
20
-4.36707
11
5.62106
21
-4.37008
0
LINE
8
BLACK
6
CONTINUOUS
10
5.62106
20
-4.37008
11
5.62106
21
-4.38583
0
LINE
8
BLACK
6
CONTINUOUS
10
5.62106
20
-4.38583
11
5.62046
21
-4.38884
0
LINE
8
BLACK
6
CONTINUOUS
10
5.62046
20
-4.38884
11
5.61876
21
-4.39139
0
LINE
8
BLACK
6
CONTINUOUS
10
5.61876
20
-4.39139
11
5.6162
21
-4.3931
0
LINE
8
BLACK
6
CONTINUOUS
10
5.6162
20
-4.3931
11
5.61319
21
-4.3937
0
LINE
8
BLACK
6
CONTINUOUS
10
5.61319
20
-4.3937
11
5.59154
21
-4.3937
0
LINE
8
BLACK
6
CONTINUOUS
10
5.59154
20
-4.3937
11
5.58852
21
-4.3931
0
LINE
8
BLACK
6
CONTINUOUS
10
5.58852
20
-4.3931
11
5.58597
21
-4.39139
0
LINE
8
BLACK
6
CONTINUOUS
10
5.58597
20
-4.39139
11
5.58426
21
-4.38884
0
LINE
8
BLACK
6
CONTINUOUS
10
5.58426
20
-4.38884
11
5.58366
21
-4.38583
0
LINE
8
BLACK
6
CONTINUOUS
10
5.58366
20
-4.38583
11
5.58366
21
-4.37008
0
LINE
8
BLACK
6
CONTINUOUS
10
5.58366
20
-4.37008
11
5.58426
21
-4.36707
0
LINE
8
BLACK
6
CONTINUOUS
10
5.58426
20
-4.36707
11
5.58597
21
-4.36451
0
LINE
8
BLACK
6
CONTINUOUS
10
5.58597
20
-4.36451
11
5.58852
21
-4.3628
0
LINE
8
BLACK
6
CONTINUOUS
10
5.58852
20
-4.3628
11
5.59154
21
-4.3622
0
LINE
8
BLACK
6
CONTINUOUS
10
5.59154
20
-4.3622
11
5.61319
21
-4.3622
0
LINE
8
BLACK
6
CONTINUOUS
10
5.61319
20
-4.3622
11
5.6162
21
-4.3628
0
LINE
8
BLACK
6
CONTINUOUS
10
6.35033
20
-4.3223
11
6.35225
21
-4.32358
0
LINE
8
BLACK
6
CONTINUOUS
10
6.35225
20
-4.32358
11
6.35353
21
-4.3255
0
LINE
8
BLACK
6
CONTINUOUS
10
6.35353
20
-4.3255
11
6.35398
21
-4.32776
0
LINE
8
BLACK
6
CONTINUOUS
10
6.35398
20
-4.32776
11
6.35398
21
-4.33957
0
LINE
8
BLACK
6
CONTINUOUS
10
6.35398
20
-4.33957
11
6.35353
21
-4.34183
0
LINE
8
BLACK
6
CONTINUOUS
10
6.35353
20
-4.34183
11
6.35225
21
-4.34374
0
LINE
8
BLACK
6
CONTINUOUS
10
6.35225
20
-4.34374
11
6.35033
21
-4.34502
0
LINE
8
BLACK
6
CONTINUOUS
10
6.35033
20
-4.34502
11
6.34807
21
-4.34547
0
LINE
8
BLACK
6
CONTINUOUS
10
6.34807
20
-4.34547
11
6.29295
21
-4.34547
0
LINE
8
BLACK
6
CONTINUOUS
10
6.29295
20
-4.34547
11
6.29069
21
-4.34502
0
LINE
8
BLACK
6
CONTINUOUS
10
6.29069
20
-4.34502
11
6.28878
21
-4.34374
0
LINE
8
BLACK
6
CONTINUOUS
10
6.28878
20
-4.34374
11
6.2875
21
-4.34183
0
LINE
8
BLACK
6
CONTINUOUS
10
6.2875
20
-4.34183
11
6.28705
21
-4.33957
0
LINE
8
BLACK
6
CONTINUOUS
10
6.28705
20
-4.33957
11
6.28705
21
-4.32776
0
LINE
8
BLACK
6
CONTINUOUS
10
6.28705
20
-4.32776
11
6.2875
21
-4.3255
0
LINE
8
BLACK
6
CONTINUOUS
10
6.2875
20
-4.3255
11
6.28878
21
-4.32358
0
LINE
8
BLACK
6
CONTINUOUS
10
6.28878
20
-4.32358
11
6.29069
21
-4.3223
0
LINE
8
BLACK
6
CONTINUOUS
10
6.29069
20
-4.3223
11
6.29295
21
-4.32185
0
LINE
8
BLACK
6
CONTINUOUS
10
6.29295
20
-4.32185
11
6.34807
21
-4.32185
0
LINE
8
BLACK
6
CONTINUOUS
10
6.34807
20
-4.32185
11
6.35033
21
-4.3223
0
LINE
8
BLACK
6
CONTINUOUS
10
6.35033
20
-4.27309
11
6.35225
21
-4.27437
0
LINE
8
BLACK
6
CONTINUOUS
10
6.35225
20
-4.27437
11
6.35353
21
-4.27628
0
LINE
8
BLACK
6
CONTINUOUS
10
6.35353
20
-4.27628
11
6.35398
21
-4.27854
0
LINE
8
BLACK
6
CONTINUOUS
10
6.35398
20
-4.27854
11
6.35398
21
-4.29035
0
LINE
8
BLACK
6
CONTINUOUS
10
6.35398
20
-4.29035
11
6.35353
21
-4.29261
0
LINE
8
BLACK
6
CONTINUOUS
10
6.35353
20
-4.29261
11
6.35225
21
-4.29453
0
LINE
8
BLACK
6
CONTINUOUS
10
6.35225
20
-4.29453
11
6.35033
21
-4.29581
0
LINE
8
BLACK
6
CONTINUOUS
10
6.35033
20
-4.29581
11
6.34807
21
-4.29626
0
LINE
8
BLACK
6
CONTINUOUS
10
6.34807
20
-4.29626
11
6.29295
21
-4.29626
0
LINE
8
BLACK
6
CONTINUOUS
10
6.29295
20
-4.29626
11
6.29069
21
-4.29581
0
LINE
8
BLACK
6
CONTINUOUS
10
6.29069
20
-4.29581
11
6.28878
21
-4.29453
0
LINE
8
BLACK
6
CONTINUOUS
10
6.28878
20
-4.29453
11
6.2875
21
-4.29261
0
LINE
8
BLACK
6
CONTINUOUS
10
6.2875
20
-4.29261
11
6.28705
21
-4.29035
0
LINE
8
BLACK
6
CONTINUOUS
10
6.28705
20
-4.29035
11
6.28705
21
-4.27854
0
LINE
8
BLACK
6
CONTINUOUS
10
6.28705
20
-4.27854
11
6.2875
21
-4.27628
0
LINE
8
BLACK
6
CONTINUOUS
10
6.2875
20
-4.27628
11
6.28878
21
-4.27437
0
LINE
8
BLACK
6
CONTINUOUS
10
6.28878
20
-4.27437
11
6.29069
21
-4.27309
0
LINE
8
BLACK
6
CONTINUOUS
10
6.29069
20
-4.27309
11
6.29295
21
-4.27264
0
LINE
8
BLACK
6
CONTINUOUS
10
6.29295
20
-4.27264
11
6.34807
21
-4.27264
0
LINE
8
BLACK
6
CONTINUOUS
10
6.34807
20
-4.27264
11
6.35033
21
-4.27309
0
LINE
8
BLACK
6
CONTINUOUS
10
5.71402
20
-4.22902
11
5.71689
21
-4.23094
0
LINE
8
BLACK
6
CONTINUOUS
10
5.71689
20
-4.23094
11
5.71881
21
-4.23381
0
LINE
8
BLACK
6
CONTINUOUS
10
5.71881
20
-4.23381
11
5.71949
21
-4.2372
0
LINE
8
BLACK
6
CONTINUOUS
10
5.71949
20
-4.2372
11
5.71949
21
-4.25492
0
LINE
8
BLACK
6
CONTINUOUS
10
5.71949
20
-4.25492
11
5.71881
21
-4.25831
0
LINE
8
BLACK
6
CONTINUOUS
10
5.71881
20
-4.25831
11
5.71689
21
-4.26119
0
LINE
8
BLACK
6
CONTINUOUS
10
5.71689
20
-4.26119
11
5.71402
21
-4.26311
0
LINE
8
BLACK
6
CONTINUOUS
10
5.71402
20
-4.26311
11
5.71063
21
-4.26378
0
LINE
8
BLACK
6
CONTINUOUS
10
5.71063
20
-4.26378
11
5.69094
21
-4.26378
0
LINE
8
BLACK
6
CONTINUOUS
10
5.69094
20
-4.26378
11
5.68755
21
-4.26311
0
LINE
8
BLACK
6
CONTINUOUS
10
5.68755
20
-4.26311
11
5.68468
21
-4.26119
0
LINE
8
BLACK
6
CONTINUOUS
10
5.68468
20
-4.26119
11
5.68276
21
-4.25831
0
LINE
8
BLACK
6
CONTINUOUS
10
5.68276
20
-4.25831
11
5.68209
21
-4.25492
0
LINE
8
BLACK
6
CONTINUOUS
10
5.68209
20
-4.25492
11
5.68209
21
-4.2372
0
LINE
8
BLACK
6
CONTINUOUS
10
5.68209
20
-4.2372
11
5.68276
21
-4.23381
0
LINE
8
BLACK
6
CONTINUOUS
10
5.68276
20
-4.23381
11
5.68468
21
-4.23094
0
LINE
8
BLACK
6
CONTINUOUS
10
5.68468
20
-4.23094
11
5.68755
21
-4.22902
0
LINE
8
BLACK
6
CONTINUOUS
10
5.68755
20
-4.22902
11
5.69094
21
-4.22835
0
LINE
8
BLACK
6
CONTINUOUS
10
5.69094
20
-4.22835
11
5.71063
21
-4.22835
0
LINE
8
BLACK
6
CONTINUOUS
10
5.71063
20
-4.22835
11
5.71402
21
-4.22902
0
LINE
8
BLACK
6
CONTINUOUS
10
6.35033
20
-4.22387
11
6.35225
21
-4.22515
0
LINE
8
BLACK
6
CONTINUOUS
10
6.35225
20
-4.22515
11
6.35353
21
-4.22707
0
LINE
8
BLACK
6
CONTINUOUS
10
6.35353
20
-4.22707
11
6.35398
21
-4.22933
0
LINE
8
BLACK
6
CONTINUOUS
10
6.35398
20
-4.22933
11
6.35398
21
-4.24114
0
LINE
8
BLACK
6
CONTINUOUS
10
6.35398
20
-4.24114
11
6.35353
21
-4.2434
0
LINE
8
BLACK
6
CONTINUOUS
10
6.35353
20
-4.2434
11
6.35225
21
-4.24532
0
LINE
8
BLACK
6
CONTINUOUS
10
6.35225
20
-4.24532
11
6.35033
21
-4.2466
0
LINE
8
BLACK
6
CONTINUOUS
10
6.35033
20
-4.2466
11
6.34807
21
-4.24705
0
LINE
8
BLACK
6
CONTINUOUS
10
6.34807
20
-4.24705
11
6.29295
21
-4.24705
0
LINE
8
BLACK
6
CONTINUOUS
10
6.29295
20
-4.24705
11
6.29069
21
-4.2466
0
LINE
8
BLACK
6
CONTINUOUS
10
6.29069
20
-4.2466
11
6.28878
21
-4.24532
0
LINE
8
BLACK
6
CONTINUOUS
10
6.28878
20
-4.24532
11
6.2875
21
-4.2434
0
LINE
8
BLACK
6
CONTINUOUS
10
6.2875
20
-4.2434
11
6.28705
21
-4.24114
0
LINE
8
BLACK
6
CONTINUOUS
10
6.28705
20
-4.24114
11
6.28705
21
-4.22933
0
LINE
8
BLACK
6
CONTINUOUS
10
6.28705
20
-4.22933
11
6.2875
21
-4.22707
0
LINE
8
BLACK
6
CONTINUOUS
10
6.2875
20
-4.22707
11
6.28878
21
-4.22515
0
LINE
8
BLACK
6
CONTINUOUS
10
6.28878
20
-4.22515
11
6.29069
21
-4.22387
0
LINE
8
BLACK
6
CONTINUOUS
10
6.29069
20
-4.22387
11
6.29295
21
-4.22343
0
LINE
8
BLACK
6
CONTINUOUS
10
6.29295
20
-4.22343
11
6.34807
21
-4.22343
0
LINE
8
BLACK
6
CONTINUOUS
10
6.34807
20
-4.22343
11
6.35033
21
-4.22387
0
LINE
8
BLACK
6
CONTINUOUS
10
5.78665
20
-4.20243
11
5.78945
21
-4.20429
0
LINE
8
BLACK
6
CONTINUOUS
10
5.78945
20
-4.20429
11
5.79131
21
-4.20709
0
LINE
8
BLACK
6
CONTINUOUS
10
5.79131
20
-4.20709
11
5.79197
21
-4.21038
0
LINE
8
BLACK
6
CONTINUOUS
10
5.79197
20
-4.21038
11
5.79197
21
-4.22761
0
LINE
8
BLACK
6
CONTINUOUS
10
5.79197
20
-4.22761
11
5.79131
21
-4.2309
0
LINE
8
BLACK
6
CONTINUOUS
10
5.79131
20
-4.2309
11
5.78945
21
-4.2337
0
LINE
8
BLACK
6
CONTINUOUS
10
5.78945
20
-4.2337
11
5.78665
21
-4.23556
0
LINE
8
BLACK
6
CONTINUOUS
10
5.78665
20
-4.23556
11
5.78336
21
-4.23622
0
LINE
8
BLACK
6
CONTINUOUS
10
5.78336
20
-4.23622
11
5.75334
21
-4.23622
0
LINE
8
BLACK
6
CONTINUOUS
10
5.75334
20
-4.23622
11
5.75004
21
-4.23556
0
LINE
8
BLACK
6
CONTINUOUS
10
5.75004
20
-4.23556
11
5.74725
21
-4.2337
0
LINE
8
BLACK
6
CONTINUOUS
10
5.74725
20
-4.2337
11
5.74538
21
-4.2309
0
LINE
8
BLACK
6
CONTINUOUS
10
5.74538
20
-4.2309
11
5.74472
21
-4.22761
0
LINE
8
BLACK
6
CONTINUOUS
10
5.74472
20
-4.22761
11
5.74472
21
-4.21038
0
LINE
8
BLACK
6
CONTINUOUS
10
5.74472
20
-4.21038
11
5.74538
21
-4.20709
0
LINE
8
BLACK
6
CONTINUOUS
10
5.74538
20
-4.20709
11
5.74725
21
-4.20429
0
LINE
8
BLACK
6
CONTINUOUS
10
5.74725
20
-4.20429
11
5.75004
21
-4.20243
0
LINE
8
BLACK
6
CONTINUOUS
10
5.75004
20
-4.20243
11
5.75334
21
-4.20177
0
LINE
8
BLACK
6
CONTINUOUS
10
5.75334
20
-4.20177
11
5.78336
21
-4.20177
0
LINE
8
BLACK
6
CONTINUOUS
10
5.78336
20
-4.20177
11
5.78665
21
-4.20243
0
LINE
8
BLACK
6
CONTINUOUS
10
6.06502
20
-4.19843
11
6.06758
21
-4.20014
0
LINE
8
BLACK
6
CONTINUOUS
10
6.06758
20
-4.20014
11
6.06928
21
-4.2027
0
LINE
8
BLACK
6
CONTINUOUS
10
6.06928
20
-4.2027
11
6.06988
21
-4.20571
0
LINE
8
BLACK
6
CONTINUOUS
10
6.06988
20
-4.20571
11
6.06988
21
-4.22146
0
LINE
8
BLACK
6
CONTINUOUS
10
6.06988
20
-4.22146
11
6.06928
21
-4.22447
0
LINE
8
BLACK
6
CONTINUOUS
10
6.06928
20
-4.22447
11
6.06758
21
-4.22702
0
LINE
8
BLACK
6
CONTINUOUS
10
6.06758
20
-4.22702
11
6.06502
21
-4.22873
0
LINE
8
BLACK
6
CONTINUOUS
10
6.06502
20
-4.22873
11
6.06201
21
-4.22933
0
LINE
8
BLACK
6
CONTINUOUS
10
6.06201
20
-4.22933
11
6.04035
21
-4.22933
0
LINE
8
BLACK
6
CONTINUOUS
10
6.04035
20
-4.22933
11
6.03734
21
-4.22873
0
LINE
8
BLACK
6
CONTINUOUS
10
6.03734
20
-4.22873
11
6.03479
21
-4.22702
0
LINE
8
BLACK
6
CONTINUOUS
10
6.03479
20
-4.22702
11
6.03308
21
-4.22447
0
LINE
8
BLACK
6
CONTINUOUS
10
6.03308
20
-4.22447
11
6.03248
21
-4.22146
0
LINE
8
BLACK
6
CONTINUOUS
10
6.03248
20
-4.22146
11
6.03248
21
-4.20571
0
LINE
8
BLACK
6
CONTINUOUS
10
6.03248
20
-4.20571
11
6.03308
21
-4.2027
0
LINE
8
BLACK
6
CONTINUOUS
10
6.03308
20
-4.2027
11
6.03479
21
-4.20014
0
LINE
8
BLACK
6
CONTINUOUS
10
6.03479
20
-4.20014
11
6.03734
21
-4.19843
0
LINE
8
BLACK
6
CONTINUOUS
10
6.03734
20
-4.19843
11
6.04035
21
-4.19783
0
LINE
8
BLACK
6
CONTINUOUS
10
6.04035
20
-4.19783
11
6.06201
21
-4.19783
0
LINE
8
BLACK
6
CONTINUOUS
10
6.06201
20
-4.19783
11
6.06502
21
-4.19843
0
LINE
8
BLACK
6
CONTINUOUS
10
5.84788
20
-4.18276
11
5.85075
21
-4.18468
0
LINE
8
BLACK
6
CONTINUOUS
10
5.85075
20
-4.18468
11
5.85267
21
-4.18755
0
LINE
8
BLACK
6
CONTINUOUS
10
5.85267
20
-4.18755
11
5.85335
21
-4.19094
0
LINE
8
BLACK
6
CONTINUOUS
10
5.85335
20
-4.19094
11
5.85335
21
-4.20866
0
LINE
8
BLACK
6
CONTINUOUS
10
5.85335
20
-4.20866
11
5.85267
21
-4.21205
0
LINE
8
BLACK
6
CONTINUOUS
10
5.85267
20
-4.21205
11
5.85075
21
-4.21493
0
LINE
8
BLACK
6
CONTINUOUS
10
5.85075
20
-4.21493
11
5.84788
21
-4.21685
0
LINE
8
BLACK
6
CONTINUOUS
10
5.84788
20
-4.21685
11
5.84449
21
-4.21752
0
LINE
8
BLACK
6
CONTINUOUS
10
5.84449
20
-4.21752
11
5.8248
21
-4.21752
0
LINE
8
BLACK
6
CONTINUOUS
10
5.8248
20
-4.21752
11
5.82141
21
-4.21685
0
LINE
8
BLACK
6
CONTINUOUS
10
5.82141
20
-4.21685
11
5.81854
21
-4.21493
0
LINE
8
BLACK
6
CONTINUOUS
10
5.81854
20
-4.21493
11
5.81662
21
-4.21205
0
LINE
8
BLACK
6
CONTINUOUS
10
5.81662
20
-4.21205
11
5.81594
21
-4.20866
0
LINE
8
BLACK
6
CONTINUOUS
10
5.81594
20
-4.20866
11
5.81594
21
-4.19094
0
LINE
8
BLACK
6
CONTINUOUS
10
5.81594
20
-4.19094
11
5.81662
21
-4.18755
0
LINE
8
BLACK
6
CONTINUOUS
10
5.81662
20
-4.18755
11
5.81854
21
-4.18468
0
LINE
8
BLACK
6
CONTINUOUS
10
5.81854
20
-4.18468
11
5.82141
21
-4.18276
0
LINE
8
BLACK
6
CONTINUOUS
10
5.82141
20
-4.18276
11
5.8248
21
-4.18209
0
LINE
8
BLACK
6
CONTINUOUS
10
5.8248
20
-4.18209
11
5.84449
21
-4.18209
0
LINE
8
BLACK
6
CONTINUOUS
10
5.84449
20
-4.18209
11
5.84788
21
-4.18276
0
LINE
8
BLACK
6
CONTINUOUS
10
5.90754
20
-4.18662
11
5.9101
21
-4.18833
0
LINE
8
BLACK
6
CONTINUOUS
10
5.9101
20
-4.18833
11
5.9118
21
-4.19088
0
LINE
8
BLACK
6
CONTINUOUS
10
5.9118
20
-4.19088
11
5.9124
21
-4.1939
0
LINE
8
BLACK
6
CONTINUOUS
10
5.9124
20
-4.1939
11
5.9124
21
-4.20965
0
LINE
8
BLACK
6
CONTINUOUS
10
5.9124
20
-4.20965
11
5.9118
21
-4.21266
0
LINE
8
BLACK
6
CONTINUOUS
10
5.9118
20
-4.21266
11
5.9101
21
-4.21521
0
LINE
8
BLACK
6
CONTINUOUS
10
5.9101
20
-4.21521
11
5.90754
21
-4.21692
0
LINE
8
BLACK
6
CONTINUOUS
10
5.90754
20
-4.21692
11
5.90453
21
-4.21752
0
LINE
8
BLACK
6
CONTINUOUS
10
5.90453
20
-4.21752
11
5.88287
21
-4.21752
0
LINE
8
BLACK
6
CONTINUOUS
10
5.88287
20
-4.21752
11
5.87986
21
-4.21692
0
LINE
8
BLACK
6
CONTINUOUS
10
5.87986
20
-4.21692
11
5.87731
21
-4.21521
0
LINE
8
BLACK
6
CONTINUOUS
10
5.87731
20
-4.21521
11
5.8756
21
-4.21266
0
LINE
8
BLACK
6
CONTINUOUS
10
5.8756
20
-4.21266
11
5.875
21
-4.20965
0
LINE
8
BLACK
6
CONTINUOUS
10
5.875
20
-4.20965
11
5.875
21
-4.1939
0
LINE
8
BLACK
6
CONTINUOUS
10
5.875
20
-4.1939
11
5.8756
21
-4.19088
0
LINE
8
BLACK
6
CONTINUOUS
10
5.8756
20
-4.19088
11
5.87731
21
-4.18833
0
LINE
8
BLACK
6
CONTINUOUS
10
5.87731
20
-4.18833
11
5.87986
21
-4.18662
0
LINE
8
BLACK
6
CONTINUOUS
10
5.87986
20
-4.18662
11
5.88287
21
-4.18602
0
LINE
8
BLACK
6
CONTINUOUS
10
5.88287
20
-4.18602
11
5.90453
21
-4.18602
0
LINE
8
BLACK
6
CONTINUOUS
10
5.90453
20
-4.18602
11
5.90754
21
-4.18662
0
LINE
8
BLACK
6
CONTINUOUS
10
5.71402
20
-4.168
11
5.71689
21
-4.16992
0
LINE
8
BLACK
6
CONTINUOUS
10
5.71689
20
-4.16992
11
5.71881
21
-4.17279
0
LINE
8
BLACK
6
CONTINUOUS
10
5.71881
20
-4.17279
11
5.71949
21
-4.17618
0
LINE
8
BLACK
6
CONTINUOUS
10
5.71949
20
-4.17618
11
5.71949
21
-4.1939
0
LINE
8
BLACK
6
CONTINUOUS
10
5.71949
20
-4.1939
11
5.71881
21
-4.19729
0
LINE
8
BLACK
6
CONTINUOUS
10
5.71881
20
-4.19729
11
5.71689
21
-4.20016
0
LINE
8
BLACK
6
CONTINUOUS
10
5.71689
20
-4.20016
11
5.71402
21
-4.20208
0
LINE
8
BLACK
6
CONTINUOUS
10
5.71402
20
-4.20208
11
5.71063
21
-4.20276
0
LINE
8
BLACK
6
CONTINUOUS
10
5.71063
20
-4.20276
11
5.69094
21
-4.20276
0
LINE
8
BLACK
6
CONTINUOUS
10
5.69094
20
-4.20276
11
5.68755
21
-4.20208
0
LINE
8
BLACK
6
CONTINUOUS
10
5.68755
20
-4.20208
11
5.68468
21
-4.20016
0
LINE
8
BLACK
6
CONTINUOUS
10
5.68468
20
-4.20016
11
5.68276
21
-4.19729
0
LINE
8
BLACK
6
CONTINUOUS
10
5.68276
20
-4.19729
11
5.68209
21
-4.1939
0
LINE
8
BLACK
6
CONTINUOUS
10
5.68209
20
-4.1939
11
5.68209
21
-4.17618
0
LINE
8
BLACK
6
CONTINUOUS
10
5.68209
20
-4.17618
11
5.68276
21
-4.17279
0
LINE
8
BLACK
6
CONTINUOUS
10
5.68276
20
-4.17279
11
5.68468
21
-4.16992
0
LINE
8
BLACK
6
CONTINUOUS
10
5.68468
20
-4.16992
11
5.68755
21
-4.168
0
LINE
8
BLACK
6
CONTINUOUS
10
5.68755
20
-4.168
11
5.69094
21
-4.16732
0
LINE
8
BLACK
6
CONTINUOUS
10
5.69094
20
-4.16732
11
5.71063
21
-4.16732
0
LINE
8
BLACK
6
CONTINUOUS
10
5.71063
20
-4.16732
11
5.71402
21
-4.168
0
LINE
8
BLACK
6
CONTINUOUS
10
6.35033
20
-4.17466
11
6.35225
21
-4.17594
0
LINE
8
BLACK
6
CONTINUOUS
10
6.35225
20
-4.17594
11
6.35353
21
-4.17786
0
LINE
8
BLACK
6
CONTINUOUS
10
6.35353
20
-4.17786
11
6.35398
21
-4.18012
0
LINE
8
BLACK
6
CONTINUOUS
10
6.35398
20
-4.18012
11
6.35398
21
-4.19193
0
LINE
8
BLACK
6
CONTINUOUS
10
6.35398
20
-4.19193
11
6.35353
21
-4.19419
0
LINE
8
BLACK
6
CONTINUOUS
10
6.35353
20
-4.19419
11
6.35225
21
-4.1961
0
LINE
8
BLACK
6
CONTINUOUS
10
6.35225
20
-4.1961
11
6.35033
21
-4.19739
0
LINE
8
BLACK
6
CONTINUOUS
10
6.35033
20
-4.19739
11
6.34807
21
-4.19783
0
LINE
8
BLACK
6
CONTINUOUS
10
6.34807
20
-4.19783
11
6.29295
21
-4.19783
0
LINE
8
BLACK
6
CONTINUOUS
10
6.29295
20
-4.19783
11
6.29069
21
-4.19739
0
LINE
8
BLACK
6
CONTINUOUS
10
6.29069
20
-4.19739
11
6.28878
21
-4.1961
0
LINE
8
BLACK
6
CONTINUOUS
10
6.28878
20
-4.1961
11
6.2875
21
-4.19419
0
LINE
8
BLACK
6
CONTINUOUS
10
6.2875
20
-4.19419
11
6.28705
21
-4.19193
0
LINE
8
BLACK
6
CONTINUOUS
10
6.28705
20
-4.19193
11
6.28705
21
-4.18012
0
LINE
8
BLACK
6
CONTINUOUS
10
6.28705
20
-4.18012
11
6.2875
21
-4.17786
0
LINE
8
BLACK
6
CONTINUOUS
10
6.2875
20
-4.17786
11
6.28878
21
-4.17594
0
LINE
8
BLACK
6
CONTINUOUS
10
6.28878
20
-4.17594
11
6.29069
21
-4.17466
0
LINE
8
BLACK
6
CONTINUOUS
10
6.29069
20
-4.17466
11
6.29295
21
-4.17421
0
LINE
8
BLACK
6
CONTINUOUS
10
6.29295
20
-4.17421
11
6.34807
21
-4.17421
0
LINE
8
BLACK
6
CONTINUOUS
10
6.34807
20
-4.17421
11
6.35033
21
-4.17466
0
LINE
8
BLACK
6
CONTINUOUS
10
6.12741
20
-4.15126
11
6.13028
21
-4.15319
0
LINE
8
BLACK
6
CONTINUOUS
10
6.13028
20
-4.15319
11
6.1322
21
-4.15606
0
LINE
8
BLACK
6
CONTINUOUS
10
6.1322
20
-4.15606
11
6.13287
21
-4.15945
0
LINE
8
BLACK
6
CONTINUOUS
10
6.13287
20
-4.15945
11
6.13287
21
-4.17717
0
LINE
8
BLACK
6
CONTINUOUS
10
6.13287
20
-4.17717
11
6.1322
21
-4.18056
0
LINE
8
BLACK
6
CONTINUOUS
10
6.1322
20
-4.18056
11
6.13028
21
-4.18343
0
LINE
8
BLACK
6
CONTINUOUS
10
6.13028
20
-4.18343
11
6.12741
21
-4.18535
0
LINE
8
BLACK
6
CONTINUOUS
10
6.12741
20
-4.18535
11
6.12402
21
-4.18602
0
LINE
8
BLACK
6
CONTINUOUS
10
6.12402
20
-4.18602
11
6.10433
21
-4.18602
0
LINE
8
BLACK
6
CONTINUOUS
10
6.10433
20
-4.18602
11
6.10094
21
-4.18535
0
LINE
8
BLACK
6
CONTINUOUS
10
6.10094
20
-4.18535
11
6.09807
21
-4.18343
0
LINE
8
BLACK
6
CONTINUOUS
10
6.09807
20
-4.18343
11
6.09615
21
-4.18056
0
LINE
8
BLACK
6
CONTINUOUS
10
6.09615
20
-4.18056
11
6.09547
21
-4.17717
0
LINE
8
BLACK
6
CONTINUOUS
10
6.09547
20
-4.17717
11
6.09547
21
-4.15945
0
LINE
8
BLACK
6
CONTINUOUS
10
6.09547
20
-4.15945
11
6.09615
21
-4.15606
0
LINE
8
BLACK
6
CONTINUOUS
10
6.09615
20
-4.15606
11
6.09807
21
-4.15319
0
LINE
8
BLACK
6
CONTINUOUS
10
6.09807
20
-4.15319
11
6.10094
21
-4.15126
0
LINE
8
BLACK
6
CONTINUOUS
10
6.10094
20
-4.15126
11
6.10433
21
-4.15059
0
LINE
8
BLACK
6
CONTINUOUS
10
6.10433
20
-4.15059
11
6.12402
21
-4.15059
0
LINE
8
BLACK
6
CONTINUOUS
10
6.12402
20
-4.15059
11
6.12741
21
-4.15126
0
LINE
8
BLACK
6
CONTINUOUS
10
6.06502
20
-4.13347
11
6.06758
21
-4.13518
0
LINE
8
BLACK
6
CONTINUOUS
10
6.06758
20
-4.13518
11
6.06928
21
-4.13773
0
LINE
8
BLACK
6
CONTINUOUS
10
6.06928
20
-4.13773
11
6.06988
21
-4.14075
0
LINE
8
BLACK
6
CONTINUOUS
10
6.06988
20
-4.14075
11
6.06988
21
-4.1565
0
LINE
8
BLACK
6
CONTINUOUS
10
6.06988
20
-4.1565
11
6.06928
21
-4.15951
0
LINE
8
BLACK
6
CONTINUOUS
10
6.06928
20
-4.15951
11
6.06758
21
-4.16206
0
LINE
8
BLACK
6
CONTINUOUS
10
6.06758
20
-4.16206
11
6.06502
21
-4.16377
0
LINE
8
BLACK
6
CONTINUOUS
10
6.06502
20
-4.16377
11
6.06201
21
-4.16437
0
LINE
8
BLACK
6
CONTINUOUS
10
6.06201
20
-4.16437
11
6.04035
21
-4.16437
0
LINE
8
BLACK
6
CONTINUOUS
10
6.04035
20
-4.16437
11
6.03734
21
-4.16377
0
LINE
8
BLACK
6
CONTINUOUS
10
6.03734
20
-4.16377
11
6.03479
21
-4.16206
0
LINE
8
BLACK
6
CONTINUOUS
10
6.03479
20
-4.16206
11
6.03308
21
-4.15951
0
LINE
8
BLACK
6
CONTINUOUS
10
6.03308
20
-4.15951
11
6.03248
21
-4.1565
0
LINE
8
BLACK
6
CONTINUOUS
10
6.03248
20
-4.1565
11
6.03248
21
-4.14075
0
LINE
8
BLACK
6
CONTINUOUS
10
6.03248
20
-4.14075
11
6.03308
21
-4.13773
0
LINE
8
BLACK
6
CONTINUOUS
10
6.03308
20
-4.13773
11
6.03479
21
-4.13518
0
LINE
8
BLACK
6
CONTINUOUS
10
6.03479
20
-4.13518
11
6.03734
21
-4.13347
0
LINE
8
BLACK
6
CONTINUOUS
10
6.03734
20
-4.13347
11
6.04035
21
-4.13287
0
LINE
8
BLACK
6
CONTINUOUS
10
6.04035
20
-4.13287
11
6.06201
21
-4.13287
0
LINE
8
BLACK
6
CONTINUOUS
10
6.06201
20
-4.13287
11
6.06502
21
-4.13347
0
LINE
8
BLACK
6
CONTINUOUS
10
5.84788
20
-4.12174
11
5.85075
21
-4.12366
0
LINE
8
BLACK
6
CONTINUOUS
10
5.85075
20
-4.12366
11
5.85267
21
-4.12653
0
LINE
8
BLACK
6
CONTINUOUS
10
5.85267
20
-4.12653
11
5.85335
21
-4.12992
0
LINE
8
BLACK
6
CONTINUOUS
10
5.85335
20
-4.12992
11
5.85335
21
-4.14764
0
LINE
8
BLACK
6
CONTINUOUS
10
5.85335
20
-4.14764
11
5.85267
21
-4.15103
0
LINE
8
BLACK
6
CONTINUOUS
10
5.85267
20
-4.15103
11
5.85075
21
-4.1539
0
LINE
8
BLACK
6
CONTINUOUS
10
5.85075
20
-4.1539
11
5.84788
21
-4.15582
0
LINE
8
BLACK
6
CONTINUOUS
10
5.84788
20
-4.15582
11
5.84449
21
-4.1565
0
LINE
8
BLACK
6
CONTINUOUS
10
5.84449
20
-4.1565
11
5.8248
21
-4.1565
0
LINE
8
BLACK
6
CONTINUOUS
10
5.8248
20
-4.1565
11
5.82141
21
-4.15582
0
LINE
8
BLACK
6
CONTINUOUS
10
5.82141
20
-4.15582
11
5.81854
21
-4.1539
0
LINE
8
BLACK
6
CONTINUOUS
10
5.81854
20
-4.1539
11
5.81662
21
-4.15103
0
LINE
8
BLACK
6
CONTINUOUS
10
5.81662
20
-4.15103
11
5.81594
21
-4.14764
0
LINE
8
BLACK
6
CONTINUOUS
10
5.81594
20
-4.14764
11
5.81594
21
-4.12992
0
LINE
8
BLACK
6
CONTINUOUS
10
5.81594
20
-4.12992
11
5.81662
21
-4.12653
0
LINE
8
BLACK
6
CONTINUOUS
10
5.81662
20
-4.12653
11
5.81854
21
-4.12366
0
LINE
8
BLACK
6
CONTINUOUS
10
5.81854
20
-4.12366
11
5.82141
21
-4.12174
0
LINE
8
BLACK
6
CONTINUOUS
10
5.82141
20
-4.12174
11
5.8248
21
-4.12106
0
LINE
8
BLACK
6
CONTINUOUS
10
5.8248
20
-4.12106
11
5.84449
21
-4.12106
0
LINE
8
BLACK
6
CONTINUOUS
10
5.84449
20
-4.12106
11
5.84788
21
-4.12174
0
LINE
8
BLACK
6
CONTINUOUS
10
5.78665
20
-4.11877
11
5.78945
21
-4.12063
0
LINE
8
BLACK
6
CONTINUOUS
10
5.78945
20
-4.12063
11
5.79131
21
-4.12343
0
LINE
8
BLACK
6
CONTINUOUS
10
5.79131
20
-4.12343
11
5.79197
21
-4.12672
0
LINE
8
BLACK
6
CONTINUOUS
10
5.79197
20
-4.12672
11
5.79197
21
-4.14395
0
LINE
8
BLACK
6
CONTINUOUS
10
5.79197
20
-4.14395
11
5.79131
21
-4.14724
0
LINE
8
BLACK
6
CONTINUOUS
10
5.79131
20
-4.14724
11
5.78945
21
-4.15004
0
LINE
8
BLACK
6
CONTINUOUS
10
5.78945
20
-4.15004
11
5.78665
21
-4.1519
0
LINE
8
BLACK
6
CONTINUOUS
10
5.78665
20
-4.1519
11
5.78336
21
-4.15256
0
LINE
8
BLACK
6
CONTINUOUS
10
5.78336
20
-4.15256
11
5.75334
21
-4.15256
0
LINE
8
BLACK
6
CONTINUOUS
10
5.75334
20
-4.15256
11
5.75004
21
-4.1519
0
LINE
8
BLACK
6
CONTINUOUS
10
5.75004
20
-4.1519
11
5.74725
21
-4.15004
0
LINE
8
BLACK
6
CONTINUOUS
10
5.74725
20
-4.15004
11
5.74538
21
-4.14724
0
LINE
8
BLACK
6
CONTINUOUS
10
5.74538
20
-4.14724
11
5.74472
21
-4.14395
0
LINE
8
BLACK
6
CONTINUOUS
10
5.74472
20
-4.14395
11
5.74472
21
-4.12672
0
LINE
8
BLACK
6
CONTINUOUS
10
5.74472
20
-4.12672
11
5.74538
21
-4.12343
0
LINE
8
BLACK
6
CONTINUOUS
10
5.74538
20
-4.12343
11
5.74725
21
-4.12063
0
LINE
8
BLACK
6
CONTINUOUS
10
5.74725
20
-4.12063
11
5.75004
21
-4.11877
0
LINE
8
BLACK
6
CONTINUOUS
10
5.75004
20
-4.11877
11
5.75334
21
-4.11811
0
LINE
8
BLACK
6
CONTINUOUS
10
5.75334
20
-4.11811
11
5.78336
21
-4.11811
0
LINE
8
BLACK
6
CONTINUOUS
10
5.78336
20
-4.11811
11
5.78665
21
-4.11877
0
LINE
8
BLACK
6
CONTINUOUS
10
5.90754
20
-4.12166
11
5.9101
21
-4.12337
0
LINE
8
BLACK
6
CONTINUOUS
10
5.9101
20
-4.12337
11
5.9118
21
-4.12592
0
LINE
8
BLACK
6
CONTINUOUS
10
5.9118
20
-4.12592
11
5.9124
21
-4.12894
0
LINE
8
BLACK
6
CONTINUOUS
10
5.9124
20
-4.12894
11
5.9124
21
-4.14469
0
LINE
8
BLACK
6
CONTINUOUS
10
5.9124
20
-4.14469
11
5.9118
21
-4.1477
0
LINE
8
BLACK
6
CONTINUOUS
10
5.9118
20
-4.1477
11
5.9101
21
-4.15025
0
LINE
8
BLACK
6
CONTINUOUS
10
5.9101
20
-4.15025
11
5.90754
21
-4.15196
0
LINE
8
BLACK
6
CONTINUOUS
10
5.90754
20
-4.15196
11
5.90453
21
-4.15256
0
LINE
8
BLACK
6
CONTINUOUS
10
5.90453
20
-4.15256
11
5.88287
21
-4.15256
0
LINE
8
BLACK
6
CONTINUOUS
10
5.88287
20
-4.15256
11
5.87986
21
-4.15196
0
LINE
8
BLACK
6
CONTINUOUS
10
5.87986
20
-4.15196
11
5.87731
21
-4.15025
0
LINE
8
BLACK
6
CONTINUOUS
10
5.87731
20
-4.15025
11
5.8756
21
-4.1477
0
LINE
8
BLACK
6
CONTINUOUS
10
5.8756
20
-4.1477
11
5.875
21
-4.14469
0
LINE
8
BLACK
6
CONTINUOUS
10
5.875
20
-4.14469
11
5.875
21
-4.12894
0
LINE
8
BLACK
6
CONTINUOUS
10
5.875
20
-4.12894
11
5.8756
21
-4.12592
0
LINE
8
BLACK
6
CONTINUOUS
10
5.8756
20
-4.12592
11
5.87731
21
-4.12337
0
LINE
8
BLACK
6
CONTINUOUS
10
5.87731
20
-4.12337
11
5.87986
21
-4.12166
0
LINE
8
BLACK
6
CONTINUOUS
10
5.87986
20
-4.12166
11
5.88287
21
-4.12106
0
LINE
8
BLACK
6
CONTINUOUS
10
5.88287
20
-4.12106
11
5.90453
21
-4.12106
0
LINE
8
BLACK
6
CONTINUOUS
10
5.90453
20
-4.12106
11
5.90754
21
-4.12166
0
LINE
8
BLACK
6
CONTINUOUS
10
6.35033
20
-4.12545
11
6.35225
21
-4.12673
0
LINE
8
BLACK
6
CONTINUOUS
10
6.35225
20
-4.12673
11
6.35353
21
-4.12865
0
LINE
8
BLACK
6
CONTINUOUS
10
6.35353
20
-4.12865
11
6.35398
21
-4.13091
0
LINE
8
BLACK
6
CONTINUOUS
10
6.35398
20
-4.13091
11
6.35398
21
-4.14272
0
LINE
8
BLACK
6
CONTINUOUS
10
6.35398
20
-4.14272
11
6.35353
21
-4.14498
0
LINE
8
BLACK
6
CONTINUOUS
10
6.35353
20
-4.14498
11
6.35225
21
-4.14689
0
LINE
8
BLACK
6
CONTINUOUS
10
6.35225
20
-4.14689
11
6.35033
21
-4.14817
0
LINE
8
BLACK
6
CONTINUOUS
10
6.35033
20
-4.14817
11
6.34807
21
-4.14862
0
LINE
8
BLACK
6
CONTINUOUS
10
6.34807
20
-4.14862
11
6.29295
21
-4.14862
0
LINE
8
BLACK
6
CONTINUOUS
10
6.29295
20
-4.14862
11
6.29069
21
-4.14817
0
LINE
8
BLACK
6
CONTINUOUS
10
6.29069
20
-4.14817
11
6.28878
21
-4.14689
0
LINE
8
BLACK
6
CONTINUOUS
10
6.28878
20
-4.14689
11
6.2875
21
-4.14498
0
LINE
8
BLACK
6
CONTINUOUS
10
6.2875
20
-4.14498
11
6.28705
21
-4.14272
0
LINE
8
BLACK
6
CONTINUOUS
10
6.28705
20
-4.14272
11
6.28705
21
-4.13091
0
LINE
8
BLACK
6
CONTINUOUS
10
6.28705
20
-4.13091
11
6.2875
21
-4.12865
0
LINE
8
BLACK
6
CONTINUOUS
10
6.2875
20
-4.12865
11
6.28878
21
-4.12673
0
LINE
8
BLACK
6
CONTINUOUS
10
6.28878
20
-4.12673
11
6.29069
21
-4.12545
0
LINE
8
BLACK
6
CONTINUOUS
10
6.29069
20
-4.12545
11
6.29295
21
-4.125
0
LINE
8
BLACK
6
CONTINUOUS
10
6.29295
20
-4.125
11
6.34807
21
-4.125
0
LINE
8
BLACK
6
CONTINUOUS
10
6.34807
20
-4.125
11
6.35033
21
-4.12545
0
LINE
8
BLACK
6
CONTINUOUS
10
6.12741
20
-4.09024
11
6.13028
21
-4.09216
0
LINE
8
BLACK
6
CONTINUOUS
10
6.13028
20
-4.09216
11
6.1322
21
-4.09504
0
LINE
8
BLACK
6
CONTINUOUS
10
6.1322
20
-4.09504
11
6.13287
21
-4.09843
0
LINE
8
BLACK
6
CONTINUOUS
10
6.13287
20
-4.09843
11
6.13287
21
-4.11614
0
LINE
8
BLACK
6
CONTINUOUS
10
6.13287
20
-4.11614
11
6.1322
21
-4.11953
0
LINE
8
BLACK
6
CONTINUOUS
10
6.1322
20
-4.11953
11
6.13028
21
-4.12241
0
LINE
8
BLACK
6
CONTINUOUS
10
6.13028
20
-4.12241
11
6.12741
21
-4.12433
0
LINE
8
BLACK
6
CONTINUOUS
10
6.12741
20
-4.12433
11
6.12402
21
-4.125
0
LINE
8
BLACK
6
CONTINUOUS
10
6.12402
20
-4.125
11
6.10433
21
-4.125
0
LINE
8
BLACK
6
CONTINUOUS
10
6.10433
20
-4.125
11
6.10094
21
-4.12433
0
LINE
8
BLACK
6
CONTINUOUS
10
6.10094
20
-4.12433
11
6.09807
21
-4.12241
0
LINE
8
BLACK
6
CONTINUOUS
10
6.09807
20
-4.12241
11
6.09615
21
-4.11953
0
LINE
8
BLACK
6
CONTINUOUS
10
6.09615
20
-4.11953
11
6.09547
21
-4.11614
0
LINE
8
BLACK
6
CONTINUOUS
10
6.09547
20
-4.11614
11
6.09547
21
-4.09843
0
LINE
8
BLACK
6
CONTINUOUS
10
6.09547
20
-4.09843
11
6.09615
21
-4.09504
0
LINE
8
BLACK
6
CONTINUOUS
10
6.09615
20
-4.09504
11
6.09807
21
-4.09216
0
LINE
8
BLACK
6
CONTINUOUS
10
6.09807
20
-4.09216
11
6.10094
21
-4.09024
0
LINE
8
BLACK
6
CONTINUOUS
10
6.10094
20
-4.09024
11
6.10433
21
-4.08957
0
LINE
8
BLACK
6
CONTINUOUS
10
6.10433
20
-4.08957
11
6.12402
21
-4.08957
0
LINE
8
BLACK
6
CONTINUOUS
10
6.12402
20
-4.08957
11
6.12741
21
-4.09024
0
LINE
8
BLACK
6
CONTINUOUS
10
5.66619
20
-4.08728
11
5.62091
21
-4.08728
0
LINE
8
BLACK
6
CONTINUOUS
10
5.62091
20
-4.08728
11
5.62091
21
-4.06366
0
LINE
8
BLACK
6
CONTINUOUS
10
5.62091
20
-4.06366
11
5.66619
21
-4.06366
0
LINE
8
BLACK
6
CONTINUOUS
10
5.66619
20
-4.06366
11
5.66619
21
-4.08728
0
LINE
8
BLACK
6
CONTINUOUS
10
6.49357
20
-4.04504
11
6.49676
21
-4.04717
0
LINE
8
BLACK
6
CONTINUOUS
10
6.49676
20
-4.04717
11
6.4989
21
-4.05037
0
LINE
8
BLACK
6
CONTINUOUS
10
6.4989
20
-4.05037
11
6.49965
21
-4.05413
0
LINE
8
BLACK
6
CONTINUOUS
10
6.49965
20
-4.05413
11
6.49965
21
-4.07382
0
LINE
8
BLACK
6
CONTINUOUS
10
6.49965
20
-4.07382
11
6.4989
21
-4.07759
0
LINE
8
BLACK
6
CONTINUOUS
10
6.4989
20
-4.07759
11
6.49676
21
-4.08078
0
LINE
8
BLACK
6
CONTINUOUS
10
6.49676
20
-4.08078
11
6.49357
21
-4.08291
0
LINE
8
BLACK
6
CONTINUOUS
10
6.49357
20
-4.08291
11
6.4898
21
-4.08366
0
LINE
8
BLACK
6
CONTINUOUS
10
6.4898
20
-4.08366
11
6.40319
21
-4.08366
0
LINE
8
BLACK
6
CONTINUOUS
10
6.40319
20
-4.08366
11
6.39942
21
-4.08291
0
LINE
8
BLACK
6
CONTINUOUS
10
6.39942
20
-4.08291
11
6.39623
21
-4.08078
0
LINE
8
BLACK
6
CONTINUOUS
10
6.39623
20
-4.08078
11
6.3941
21
-4.07759
0
LINE
8
BLACK
6
CONTINUOUS
10
6.3941
20
-4.07759
11
6.39335
21
-4.07382
0
LINE
8
BLACK
6
CONTINUOUS
10
6.39335
20
-4.07382
11
6.39335
21
-4.05413
0
LINE
8
BLACK
6
CONTINUOUS
10
6.39335
20
-4.05413
11
6.3941
21
-4.05037
0
LINE
8
BLACK
6
CONTINUOUS
10
6.3941
20
-4.05037
11
6.39623
21
-4.04717
0
LINE
8
BLACK
6
CONTINUOUS
10
6.39623
20
-4.04717
11
6.39942
21
-4.04504
0
LINE
8
BLACK
6
CONTINUOUS
10
6.39942
20
-4.04504
11
6.40319
21
-4.04429
0
LINE
8
BLACK
6
CONTINUOUS
10
6.40319
20
-4.04429
11
6.4898
21
-4.04429
0
LINE
8
BLACK
6
CONTINUOUS
10
6.4898
20
-4.04429
11
6.49357
21
-4.04504
0
LINE
8
BLACK
6
CONTINUOUS
10
6.18707
20
-4.038
11
6.18962
21
-4.03971
0
LINE
8
BLACK
6
CONTINUOUS
10
6.18962
20
-4.03971
11
6.19133
21
-4.04226
0
LINE
8
BLACK
6
CONTINUOUS
10
6.19133
20
-4.04226
11
6.19193
21
-4.04528
0
LINE
8
BLACK
6
CONTINUOUS
10
6.19193
20
-4.04528
11
6.19193
21
-4.06102
0
LINE
8
BLACK
6
CONTINUOUS
10
6.19193
20
-4.06102
11
6.19133
21
-4.06404
0
LINE
8
BLACK
6
CONTINUOUS
10
6.19133
20
-4.06404
11
6.18962
21
-4.06659
0
LINE
8
BLACK
6
CONTINUOUS
10
6.18962
20
-4.06659
11
6.18707
21
-4.0683
0
LINE
8
BLACK
6
CONTINUOUS
10
6.18707
20
-4.0683
11
6.18406
21
-4.0689
0
LINE
8
BLACK
6
CONTINUOUS
10
6.18406
20
-4.0689
11
6.1624
21
-4.0689
0
LINE
8
BLACK
6
CONTINUOUS
10
6.1624
20
-4.0689
11
6.15939
21
-4.0683
0
LINE
8
BLACK
6
CONTINUOUS
10
6.15939
20
-4.0683
11
6.15683
21
-4.06659
0
LINE
8
BLACK
6
CONTINUOUS
10
6.15683
20
-4.06659
11
6.15513
21
-4.06404
0
LINE
8
BLACK
6
CONTINUOUS
10
6.15513
20
-4.06404
11
6.15453
21
-4.06102
0
LINE
8
BLACK
6
CONTINUOUS
10
6.15453
20
-4.06102
11
6.15453
21
-4.04528
0
LINE
8
BLACK
6
CONTINUOUS
10
6.15453
20
-4.04528
11
6.15513
21
-4.04226
0
LINE
8
BLACK
6
CONTINUOUS
10
6.15513
20
-4.04226
11
6.15683
21
-4.03971
0
LINE
8
BLACK
6
CONTINUOUS
10
6.15683
20
-4.03971
11
6.15939
21
-4.038
0
LINE
8
BLACK
6
CONTINUOUS
10
6.15939
20
-4.038
11
6.1624
21
-4.0374
0
LINE
8
BLACK
6
CONTINUOUS
10
6.1624
20
-4.0374
11
6.18406
21
-4.0374
0
LINE
8
BLACK
6
CONTINUOUS
10
6.18406
20
-4.0374
11
6.18707
21
-4.038
0
LINE
8
BLACK
6
CONTINUOUS
10
6.0034
20
-4.02479
11
6.0042
21
-4.02533
0
LINE
8
BLACK
6
CONTINUOUS
10
6.0042
20
-4.02533
11
6.00473
21
-4.02613
0
LINE
8
BLACK
6
CONTINUOUS
10
6.00473
20
-4.02613
11
6.00492
21
-4.02707
0
LINE
8
BLACK
6
CONTINUOUS
10
6.00492
20
-4.02707
11
6.00492
21
-4.05463
0
LINE
8
BLACK
6
CONTINUOUS
10
6.00492
20
-4.05463
11
6.00473
21
-4.05557
0
LINE
8
BLACK
6
CONTINUOUS
10
6.00473
20
-4.05557
11
6.0042
21
-4.05637
0
LINE
8
BLACK
6
CONTINUOUS
10
6.0042
20
-4.05637
11
6.0034
21
-4.0569
0
LINE
8
BLACK
6
CONTINUOUS
10
6.0034
20
-4.0569
11
6.00246
21
-4.05709
0
LINE
8
BLACK
6
CONTINUOUS
10
6.00246
20
-4.05709
11
5.99754
21
-4.05709
0
LINE
8
BLACK
6
CONTINUOUS
10
5.99754
20
-4.05709
11
5.9966
21
-4.0569
0
LINE
8
BLACK
6
CONTINUOUS
10
5.9966
20
-4.0569
11
5.9958
21
-4.05637
0
LINE
8
BLACK
6
CONTINUOUS
10
5.9958
20
-4.05637
11
5.99527
21
-4.05557
0
LINE
8
BLACK
6
CONTINUOUS
10
5.99527
20
-4.05557
11
5.99508
21
-4.05463
0
LINE
8
BLACK
6
CONTINUOUS
10
5.99508
20
-4.05463
11
5.99508
21
-4.02707
0
LINE
8
BLACK
6
CONTINUOUS
10
5.99508
20
-4.02707
11
5.99527
21
-4.02613
0
LINE
8
BLACK
6
CONTINUOUS
10
5.99527
20
-4.02613
11
5.9958
21
-4.02533
0
LINE
8
BLACK
6
CONTINUOUS
10
5.9958
20
-4.02533
11
5.9966
21
-4.02479
0
LINE
8
BLACK
6
CONTINUOUS
10
5.9966
20
-4.02479
11
5.99754
21
-4.02461
0
LINE
8
BLACK
6
CONTINUOUS
10
5.99754
20
-4.02461
11
6.00246
21
-4.02461
0
LINE
8
BLACK
6
CONTINUOUS
10
6.00246
20
-4.02461
11
6.0034
21
-4.02479
0
LINE
8
BLACK
6
CONTINUOUS
10
6.02309
20
-4.02479
11
6.02389
21
-4.02533
0
LINE
8
BLACK
6
CONTINUOUS
10
6.02389
20
-4.02533
11
6.02442
21
-4.02613
0
LINE
8
BLACK
6
CONTINUOUS
10
6.02442
20
-4.02613
11
6.02461
21
-4.02707
0
LINE
8
BLACK
6
CONTINUOUS
10
6.02461
20
-4.02707
11
6.02461
21
-4.05463
0
LINE
8
BLACK
6
CONTINUOUS
10
6.02461
20
-4.05463
11
6.02442
21
-4.05557
0
LINE
8
BLACK
6
CONTINUOUS
10
6.02442
20
-4.05557
11
6.02389
21
-4.05637
0
LINE
8
BLACK
6
CONTINUOUS
10
6.02389
20
-4.05637
11
6.02309
21
-4.0569
0
LINE
8
BLACK
6
CONTINUOUS
10
6.02309
20
-4.0569
11
6.02215
21
-4.05709
0
LINE
8
BLACK
6
CONTINUOUS
10
6.02215
20
-4.05709
11
6.01722
21
-4.05709
0
LINE
8
BLACK
6
CONTINUOUS
10
6.01722
20
-4.05709
11
6.01628
21
-4.0569
0
LINE
8
BLACK
6
CONTINUOUS
10
6.01628
20
-4.0569
11
6.01548
21
-4.05637
0
LINE
8
BLACK
6
CONTINUOUS
10
6.01548
20
-4.05637
11
6.01495
21
-4.05557
0
LINE
8
BLACK
6
CONTINUOUS
10
6.01495
20
-4.05557
11
6.01476
21
-4.05463
0
LINE
8
BLACK
6
CONTINUOUS
10
6.01476
20
-4.05463
11
6.01476
21
-4.02707
0
LINE
8
BLACK
6
CONTINUOUS
10
6.01476
20
-4.02707
11
6.01495
21
-4.02613
0
LINE
8
BLACK
6
CONTINUOUS
10
6.01495
20
-4.02613
11
6.01548
21
-4.02533
0
LINE
8
BLACK
6
CONTINUOUS
10
6.01548
20
-4.02533
11
6.01628
21
-4.02479
0
LINE
8
BLACK
6
CONTINUOUS
10
6.01628
20
-4.02479
11
6.01722
21
-4.02461
0
LINE
8
BLACK
6
CONTINUOUS
10
6.01722
20
-4.02461
11
6.02215
21
-4.02461
0
LINE
8
BLACK
6
CONTINUOUS
10
6.02215
20
-4.02461
11
6.02309
21
-4.02479
0
LINE
8
BLACK
6
CONTINUOUS
10
6.04277
20
-4.02479
11
6.04357
21
-4.02533
0
LINE
8
BLACK
6
CONTINUOUS
10
6.04357
20
-4.02533
11
6.0441
21
-4.02613
0
LINE
8
BLACK
6
CONTINUOUS
10
6.0441
20
-4.02613
11
6.04429
21
-4.02707
0
LINE
8
BLACK
6
CONTINUOUS
10
6.04429
20
-4.02707
11
6.04429
21
-4.05463
0
LINE
8
BLACK
6
CONTINUOUS
10
6.04429
20
-4.05463
11
6.0441
21
-4.05557
0
LINE
8
BLACK
6
CONTINUOUS
10
6.0441
20
-4.05557
11
6.04357
21
-4.05637
0
LINE
8
BLACK
6
CONTINUOUS
10
6.04357
20
-4.05637
11
6.04277
21
-4.0569
0
LINE
8
BLACK
6
CONTINUOUS
10
6.04277
20
-4.0569
11
6.04183
21
-4.05709
0
LINE
8
BLACK
6
CONTINUOUS
10
6.04183
20
-4.05709
11
6.03691
21
-4.05709
0
LINE
8
BLACK
6
CONTINUOUS
10
6.03691
20
-4.05709
11
6.03597
21
-4.0569
0
LINE
8
BLACK
6
CONTINUOUS
10
6.03597
20
-4.0569
11
6.03517
21
-4.05637
0
LINE
8
BLACK
6
CONTINUOUS
10
6.03517
20
-4.05637
11
6.03464
21
-4.05557
0
LINE
8
BLACK
6
CONTINUOUS
10
6.03464
20
-4.05557
11
6.03445
21
-4.05463
0
LINE
8
BLACK
6
CONTINUOUS
10
6.03445
20
-4.05463
11
6.03445
21
-4.02707
0
LINE
8
BLACK
6
CONTINUOUS
10
6.03445
20
-4.02707
11
6.03464
21
-4.02613
0
LINE
8
BLACK
6
CONTINUOUS
10
6.03464
20
-4.02613
11
6.03517
21
-4.02533
0
LINE
8
BLACK
6
CONTINUOUS
10
6.03517
20
-4.02533
11
6.03597
21
-4.02479
0
LINE
8
BLACK
6
CONTINUOUS
10
6.03597
20
-4.02479
11
6.03691
21
-4.02461
0
LINE
8
BLACK
6
CONTINUOUS
10
6.03691
20
-4.02461
11
6.04183
21
-4.02461
0
LINE
8
BLACK
6
CONTINUOUS
10
6.04183
20
-4.02461
11
6.04277
21
-4.02479
0
LINE
8
BLACK
6
CONTINUOUS
10
6.06246
20
-4.02479
11
6.06326
21
-4.02533
0
LINE
8
BLACK
6
CONTINUOUS
10
6.06326
20
-4.02533
11
6.06379
21
-4.02613
0
LINE
8
BLACK
6
CONTINUOUS
10
6.06379
20
-4.02613
11
6.06398
21
-4.02707
0
LINE
8
BLACK
6
CONTINUOUS
10
6.06398
20
-4.02707
11
6.06398
21
-4.05463
0
LINE
8
BLACK
6
CONTINUOUS
10
6.06398
20
-4.05463
11
6.06379
21
-4.05557
0
LINE
8
BLACK
6
CONTINUOUS
10
6.06379
20
-4.05557
11
6.06326
21
-4.05637
0
LINE
8
BLACK
6
CONTINUOUS
10
6.06326
20
-4.05637
11
6.06246
21
-4.0569
0
LINE
8
BLACK
6
CONTINUOUS
10
6.06246
20
-4.0569
11
6.06152
21
-4.05709
0
LINE
8
BLACK
6
CONTINUOUS
10
6.06152
20
-4.05709
11
6.05659
21
-4.05709
0
LINE
8
BLACK
6
CONTINUOUS
10
6.05659
20
-4.05709
11
6.05565
21
-4.0569
0
LINE
8
BLACK
6
CONTINUOUS
10
6.05565
20
-4.0569
11
6.05485
21
-4.05637
0
LINE
8
BLACK
6
CONTINUOUS
10
6.05485
20
-4.05637
11
6.05432
21
-4.05557
0
LINE
8
BLACK
6
CONTINUOUS
10
6.05432
20
-4.05557
11
6.05413
21
-4.05463
0
LINE
8
BLACK
6
CONTINUOUS
10
6.05413
20
-4.05463
11
6.05413
21
-4.02707
0
LINE
8
BLACK
6
CONTINUOUS
10
6.05413
20
-4.02707
11
6.05432
21
-4.02613
0
LINE
8
BLACK
6
CONTINUOUS
10
6.05432
20
-4.02613
11
6.05485
21
-4.02533
0
LINE
8
BLACK
6
CONTINUOUS
10
6.05485
20
-4.02533
11
6.05565
21
-4.02479
0
LINE
8
BLACK
6
CONTINUOUS
10
6.05565
20
-4.02479
11
6.05659
21
-4.02461
0
LINE
8
BLACK
6
CONTINUOUS
10
6.05659
20
-4.02461
11
6.06152
21
-4.02461
0
LINE
8
BLACK
6
CONTINUOUS
10
6.06152
20
-4.02461
11
6.06246
21
-4.02479
0
LINE
8
BLACK
6
CONTINUOUS
10
6.08214
20
-4.02479
11
6.08294
21
-4.02533
0
LINE
8
BLACK
6
CONTINUOUS
10
6.08294
20
-4.02533
11
6.08347
21
-4.02613
0
LINE
8
BLACK
6
CONTINUOUS
10
6.08347
20
-4.02613
11
6.08366
21
-4.02707
0
LINE
8
BLACK
6
CONTINUOUS
10
6.08366
20
-4.02707
11
6.08366
21
-4.05463
0
LINE
8
BLACK
6
CONTINUOUS
10
6.08366
20
-4.05463
11
6.08347
21
-4.05557
0
LINE
8
BLACK
6
CONTINUOUS
10
6.08347
20
-4.05557
11
6.08294
21
-4.05637
0
LINE
8
BLACK
6
CONTINUOUS
10
6.08294
20
-4.05637
11
6.08214
21
-4.0569
0
LINE
8
BLACK
6
CONTINUOUS
10
6.08214
20
-4.0569
11
6.0812
21
-4.05709
0
LINE
8
BLACK
6
CONTINUOUS
10
6.0812
20
-4.05709
11
6.07628
21
-4.05709
0
LINE
8
BLACK
6
CONTINUOUS
10
6.07628
20
-4.05709
11
6.07534
21
-4.0569
0
LINE
8
BLACK
6
CONTINUOUS
10
6.07534
20
-4.0569
11
6.07454
21
-4.05637
0
LINE
8
BLACK
6
CONTINUOUS
10
6.07454
20
-4.05637
11
6.07401
21
-4.05557
0
LINE
8
BLACK
6
CONTINUOUS
10
6.07401
20
-4.05557
11
6.07382
21
-4.05463
0
LINE
8
BLACK
6
CONTINUOUS
10
6.07382
20
-4.05463
11
6.07382
21
-4.02707
0
LINE
8
BLACK
6
CONTINUOUS
10
6.07382
20
-4.02707
11
6.07401
21
-4.02613
0
LINE
8
BLACK
6
CONTINUOUS
10
6.07401
20
-4.02613
11
6.07454
21
-4.02533
0
LINE
8
BLACK
6
CONTINUOUS
10
6.07454
20
-4.02533
11
6.07534
21
-4.02479
0
LINE
8
BLACK
6
CONTINUOUS
10
6.07534
20
-4.02479
11
6.07628
21
-4.02461
0
LINE
8
BLACK
6
CONTINUOUS
10
6.07628
20
-4.02461
11
6.0812
21
-4.02461
0
LINE
8
BLACK
6
CONTINUOUS
10
6.0812
20
-4.02461
11
6.08214
21
-4.02479
0
LINE
8
BLACK
6
CONTINUOUS
10
5.66619
20
-4.05579
11
5.62091
21
-4.05579
0
LINE
8
BLACK
6
CONTINUOUS
10
5.62091
20
-4.05579
11
5.62091
21
-4.03217
0
LINE
8
BLACK
6
CONTINUOUS
10
5.62091
20
-4.03217
11
5.66619
21
-4.03217
0
LINE
8
BLACK
6
CONTINUOUS
10
5.66619
20
-4.03217
11
5.66619
21
-4.05579
0
LINE
8
BLACK
6
CONTINUOUS
10
5.66619
20
-4.02429
11
5.62091
21
-4.02429
0
LINE
8
BLACK
6
CONTINUOUS
10
5.62091
20
-4.02429
11
5.62091
21
-4.01248
0
LINE
8
BLACK
6
CONTINUOUS
10
5.62091
20
-4.01248
11
5.66619
21
-4.01248
0
LINE
8
BLACK
6
CONTINUOUS
10
5.66619
20
-4.01248
11
5.66619
21
-4.02429
0
LINE
8
BLACK
6
CONTINUOUS
10
6.02857
20
-3.97004
11
6.03176
21
-3.97217
0
LINE
8
BLACK
6
CONTINUOUS
10
6.03176
20
-3.97217
11
6.0339
21
-3.97537
0
LINE
8
BLACK
6
CONTINUOUS
10
6.0339
20
-3.97537
11
6.03465
21
-3.97913
0
LINE
8
BLACK
6
CONTINUOUS
10
6.03465
20
-3.97913
11
6.03465
21
-3.99921
0
LINE
8
BLACK
6
CONTINUOUS
10
6.03465
20
-3.99921
11
6.0339
21
-4.00298
0
LINE
8
BLACK
6
CONTINUOUS
10
6.0339
20
-4.00298
11
6.03176
21
-4.00617
0
LINE
8
BLACK
6
CONTINUOUS
10
6.03176
20
-4.00617
11
6.02857
21
-4.00831
0
LINE
8
BLACK
6
CONTINUOUS
10
6.02857
20
-4.00831
11
6.0248
21
-4.00906
0
LINE
8
BLACK
6
CONTINUOUS
10
6.0248
20
-4.00906
11
6.00472
21
-4.00906
0
LINE
8
BLACK
6
CONTINUOUS
10
6.00472
20
-4.00906
11
6.00096
21
-4.00831
0
LINE
8
BLACK
6
CONTINUOUS
10
6.00096
20
-4.00831
11
5.99776
21
-4.00617
0
LINE
8
BLACK
6
CONTINUOUS
10
5.99776
20
-4.00617
11
5.99563
21
-4.00298
0
LINE
8
BLACK
6
CONTINUOUS
10
5.99563
20
-4.00298
11
5.99488
21
-3.99921
0
LINE
8
BLACK
6
CONTINUOUS
10
5.99488
20
-3.99921
11
5.99488
21
-3.97913
0
LINE
8
BLACK
6
CONTINUOUS
10
5.99488
20
-3.97913
11
5.99563
21
-3.97537
0
LINE
8
BLACK
6
CONTINUOUS
10
5.99563
20
-3.97537
11
5.99776
21
-3.97217
0
LINE
8
BLACK
6
CONTINUOUS
10
5.99776
20
-3.97217
11
6.00096
21
-3.97004
0
LINE
8
BLACK
6
CONTINUOUS
10
6.00096
20
-3.97004
11
6.00472
21
-3.96929
0
LINE
8
BLACK
6
CONTINUOUS
10
6.00472
20
-3.96929
11
6.0248
21
-3.96929
0
LINE
8
BLACK
6
CONTINUOUS
10
6.0248
20
-3.96929
11
6.02857
21
-3.97004
0
LINE
8
BLACK
6
CONTINUOUS
10
6.07778
20
-3.97004
11
6.08098
21
-3.97217
0
LINE
8
BLACK
6
CONTINUOUS
10
6.08098
20
-3.97217
11
6.08311
21
-3.97537
0
LINE
8
BLACK
6
CONTINUOUS
10
6.08311
20
-3.97537
11
6.08386
21
-3.97913
0
LINE
8
BLACK
6
CONTINUOUS
10
6.08386
20
-3.97913
11
6.08386
21
-3.99921
0
LINE
8
BLACK
6
CONTINUOUS
10
6.08386
20
-3.99921
11
6.08311
21
-4.00298
0
LINE
8
BLACK
6
CONTINUOUS
10
6.08311
20
-4.00298
11
6.08098
21
-4.00617
0
LINE
8
BLACK
6
CONTINUOUS
10
6.08098
20
-4.00617
11
6.07778
21
-4.00831
0
LINE
8
BLACK
6
CONTINUOUS
10
6.07778
20
-4.00831
11
6.07402
21
-4.00906
0
LINE
8
BLACK
6
CONTINUOUS
10
6.07402
20
-4.00906
11
6.05394
21
-4.00906
0
LINE
8
BLACK
6
CONTINUOUS
10
6.05394
20
-4.00906
11
6.05017
21
-4.00831
0
LINE
8
BLACK
6
CONTINUOUS
10
6.05017
20
-4.00831
11
6.04698
21
-4.00617
0
LINE
8
BLACK
6
CONTINUOUS
10
6.04698
20
-4.00617
11
6.04484
21
-4.00298
0
LINE
8
BLACK
6
CONTINUOUS
10
6.04484
20
-4.00298
11
6.04409
21
-3.99921
0
LINE
8
BLACK
6
CONTINUOUS
10
6.04409
20
-3.99921
11
6.04409
21
-3.97913
0
LINE
8
BLACK
6
CONTINUOUS
10
6.04409
20
-3.97913
11
6.04484
21
-3.97537
0
LINE
8
BLACK
6
CONTINUOUS
10
6.04484
20
-3.97537
11
6.04698
21
-3.97217
0
LINE
8
BLACK
6
CONTINUOUS
10
6.04698
20
-3.97217
11
6.05017
21
-3.97004
0
LINE
8
BLACK
6
CONTINUOUS
10
6.05017
20
-3.97004
11
6.05394
21
-3.96929
0
LINE
8
BLACK
6
CONTINUOUS
10
6.05394
20
-3.96929
11
6.07402
21
-3.96929
0
LINE
8
BLACK
6
CONTINUOUS
10
6.07402
20
-3.96929
11
6.07778
21
-3.97004
0
LINE
8
BLACK
6
CONTINUOUS
10
5.97781
20
-3.9992
11
5.97861
21
-3.99974
0
LINE
8
BLACK
6
CONTINUOUS
10
5.97861
20
-3.99974
11
5.97914
21
-4.00053
0
LINE
8
BLACK
6
CONTINUOUS
10
5.97914
20
-4.00053
11
5.97933
21
-4.00148
0
LINE
8
BLACK
6
CONTINUOUS
10
5.97933
20
-4.00148
11
5.97933
21
-4.0064
0
LINE
8
BLACK
6
CONTINUOUS
10
5.97933
20
-4.0064
11
5.97914
21
-4.00734
0
LINE
8
BLACK
6
CONTINUOUS
10
5.97914
20
-4.00734
11
5.97861
21
-4.00814
0
LINE
8
BLACK
6
CONTINUOUS
10
5.97861
20
-4.00814
11
5.97781
21
-4.00867
0
LINE
8
BLACK
6
CONTINUOUS
10
5.97781
20
-4.00867
11
5.97687
21
-4.00886
0
LINE
8
BLACK
6
CONTINUOUS
10
5.97687
20
-4.00886
11
5.94931
21
-4.00886
0
LINE
8
BLACK
6
CONTINUOUS
10
5.94931
20
-4.00886
11
5.94837
21
-4.00867
0
LINE
8
BLACK
6
CONTINUOUS
10
5.94837
20
-4.00867
11
5.94757
21
-4.00814
0
LINE
8
BLACK
6
CONTINUOUS
10
5.94757
20
-4.00814
11
5.94704
21
-4.00734
0
LINE
8
BLACK
6
CONTINUOUS
10
5.94704
20
-4.00734
11
5.94685
21
-4.0064
0
LINE
8
BLACK
6
CONTINUOUS
10
5.94685
20
-4.0064
11
5.94685
21
-4.00148
0
LINE
8
BLACK
6
CONTINUOUS
10
5.94685
20
-4.00148
11
5.94704
21
-4.00053
0
LINE
8
BLACK
6
CONTINUOUS
10
5.94704
20
-4.00053
11
5.94757
21
-3.99974
0
LINE
8
BLACK
6
CONTINUOUS
10
5.94757
20
-3.99974
11
5.94837
21
-3.9992
0
LINE
8
BLACK
6
CONTINUOUS
10
5.94837
20
-3.9992
11
5.94931
21
-3.99902
0
LINE
8
BLACK
6
CONTINUOUS
10
5.94931
20
-3.99902
11
5.97687
21
-3.99902
0
LINE
8
BLACK
6
CONTINUOUS
10
5.97687
20
-3.99902
11
5.97781
21
-3.9992
0
LINE
8
BLACK
6
CONTINUOUS
10
6.13037
20
-3.9992
11
6.13117
21
-3.99974
0
LINE
8
BLACK
6
CONTINUOUS
10
6.13117
20
-3.99974
11
6.1317
21
-4.00053
0
LINE
8
BLACK
6
CONTINUOUS
10
6.1317
20
-4.00053
11
6.13189
21
-4.00148
0
LINE
8
BLACK
6
CONTINUOUS
10
6.13189
20
-4.00148
11
6.13189
21
-4.0064
0
LINE
8
BLACK
6
CONTINUOUS
10
6.13189
20
-4.0064
11
6.1317
21
-4.00734
0
LINE
8
BLACK
6
CONTINUOUS
10
6.1317
20
-4.00734
11
6.13117
21
-4.00814
0
LINE
8
BLACK
6
CONTINUOUS
10
6.13117
20
-4.00814
11
6.13037
21
-4.00867
0
LINE
8
BLACK
6
CONTINUOUS
10
6.13037
20
-4.00867
11
6.12943
21
-4.00886
0
LINE
8
BLACK
6
CONTINUOUS
10
6.12943
20
-4.00886
11
6.10187
21
-4.00886
0
LINE
8
BLACK
6
CONTINUOUS
10
6.10187
20
-4.00886
11
6.10093
21
-4.00867
0
LINE
8
BLACK
6
CONTINUOUS
10
6.10093
20
-4.00867
11
6.10013
21
-4.00814
0
LINE
8
BLACK
6
CONTINUOUS
10
6.10013
20
-4.00814
11
6.0996
21
-4.00734
0
LINE
8
BLACK
6
CONTINUOUS
10
6.0996
20
-4.00734
11
6.09941
21
-4.0064
0
LINE
8
BLACK
6
CONTINUOUS
10
6.09941
20
-4.0064
11
6.09941
21
-4.00148
0
LINE
8
BLACK
6
CONTINUOUS
10
6.09941
20
-4.00148
11
6.0996
21
-4.00053
0
LINE
8
BLACK
6
CONTINUOUS
10
6.0996
20
-4.00053
11
6.10013
21
-3.99974
0
LINE
8
BLACK
6
CONTINUOUS
10
6.10013
20
-3.99974
11
6.10093
21
-3.9992
0
LINE
8
BLACK
6
CONTINUOUS
10
6.10093
20
-3.9992
11
6.10187
21
-3.99902
0
LINE
8
BLACK
6
CONTINUOUS
10
6.10187
20
-3.99902
11
6.12943
21
-3.99902
0
LINE
8
BLACK
6
CONTINUOUS
10
6.12943
20
-3.99902
11
6.13037
21
-3.9992
0
LINE
8
BLACK
6
CONTINUOUS
10
5.66619
20
-4.00461
11
5.62091
21
-4.00461
0
LINE
8
BLACK
6
CONTINUOUS
10
5.62091
20
-4.00461
11
5.62091
21
-3.9928
0
LINE
8
BLACK
6
CONTINUOUS
10
5.62091
20
-3.9928
11
5.66619
21
-3.9928
0
LINE
8
BLACK
6
CONTINUOUS
10
5.66619
20
-3.9928
11
5.66619
21
-4.00461
0
LINE
8
BLACK
6
CONTINUOUS
10
6.18707
20
-3.97304
11
6.18962
21
-3.97475
0
LINE
8
BLACK
6
CONTINUOUS
10
6.18962
20
-3.97475
11
6.19133
21
-3.9773
0
LINE
8
BLACK
6
CONTINUOUS
10
6.19133
20
-3.9773
11
6.19193
21
-3.98031
0
LINE
8
BLACK
6
CONTINUOUS
10
6.19193
20
-3.98031
11
6.19193
21
-3.99606
0
LINE
8
BLACK
6
CONTINUOUS
10
6.19193
20
-3.99606
11
6.19133
21
-3.99908
0
LINE
8
BLACK
6
CONTINUOUS
10
6.19133
20
-3.99908
11
6.18962
21
-4.00163
0
LINE
8
BLACK
6
CONTINUOUS
10
6.18962
20
-4.00163
11
6.18707
21
-4.00334
0
LINE
8
BLACK
6
CONTINUOUS
10
6.18707
20
-4.00334
11
6.18406
21
-4.00394
0
LINE
8
BLACK
6
CONTINUOUS
10
6.18406
20
-4.00394
11
6.1624
21
-4.00394
0
LINE
8
BLACK
6
CONTINUOUS
10
6.1624
20
-4.00394
11
6.15939
21
-4.00334
0
LINE
8
BLACK
6
CONTINUOUS
10
6.15939
20
-4.00334
11
6.15683
21
-4.00163
0
LINE
8
BLACK
6
CONTINUOUS
10
6.15683
20
-4.00163
11
6.15513
21
-3.99908
0
LINE
8
BLACK
6
CONTINUOUS
10
6.15513
20
-3.99908
11
6.15453
21
-3.99606
0
LINE
8
BLACK
6
CONTINUOUS
10
6.15453
20
-3.99606
11
6.15453
21
-3.98031
0
LINE
8
BLACK
6
CONTINUOUS
10
6.15453
20
-3.98031
11
6.15513
21
-3.9773
0
LINE
8
BLACK
6
CONTINUOUS
10
6.15513
20
-3.9773
11
6.15683
21
-3.97475
0
LINE
8
BLACK
6
CONTINUOUS
10
6.15683
20
-3.97475
11
6.15939
21
-3.97304
0
LINE
8
BLACK
6
CONTINUOUS
10
6.15939
20
-3.97304
11
6.1624
21
-3.97244
0
LINE
8
BLACK
6
CONTINUOUS
10
6.1624
20
-3.97244
11
6.18406
21
-3.97244
0
LINE
8
BLACK
6
CONTINUOUS
10
6.18406
20
-3.97244
11
6.18707
21
-3.97304
0
LINE
8
BLACK
6
CONTINUOUS
10
5.8059
20
-3.97553
11
5.80782
21
-3.97681
0
LINE
8
BLACK
6
CONTINUOUS
10
5.80782
20
-3.97681
11
5.8091
21
-3.97872
0
LINE
8
BLACK
6
CONTINUOUS
10
5.8091
20
-3.97872
11
5.80955
21
-3.98098
0
LINE
8
BLACK
6
CONTINUOUS
10
5.80955
20
-3.98098
11
5.80955
21
-3.9928
0
LINE
8
BLACK
6
CONTINUOUS
10
5.80955
20
-3.9928
11
5.8091
21
-3.99506
0
LINE
8
BLACK
6
CONTINUOUS
10
5.8091
20
-3.99506
11
5.80782
21
-3.99697
0
LINE
8
BLACK
6
CONTINUOUS
10
5.80782
20
-3.99697
11
5.8059
21
-3.99825
0
LINE
8
BLACK
6
CONTINUOUS
10
5.8059
20
-3.99825
11
5.80364
21
-3.9987
0
LINE
8
BLACK
6
CONTINUOUS
10
5.80364
20
-3.9987
11
5.76329
21
-3.9987
0
LINE
8
BLACK
6
CONTINUOUS
10
5.76329
20
-3.9987
11
5.76103
21
-3.99825
0
LINE
8
BLACK
6
CONTINUOUS
10
5.76103
20
-3.99825
11
5.75911
21
-3.99697
0
LINE
8
BLACK
6
CONTINUOUS
10
5.75911
20
-3.99697
11
5.75783
21
-3.99506
0
LINE
8
BLACK
6
CONTINUOUS
10
5.75783
20
-3.99506
11
5.75738
21
-3.9928
0
LINE
8
BLACK
6
CONTINUOUS
10
5.75738
20
-3.9928
11
5.75738
21
-3.98098
0
LINE
8
BLACK
6
CONTINUOUS
10
5.75738
20
-3.98098
11
5.75783
21
-3.97872
0
LINE
8
BLACK
6
CONTINUOUS
10
5.75783
20
-3.97872
11
5.75911
21
-3.97681
0
LINE
8
BLACK
6
CONTINUOUS
10
5.75911
20
-3.97681
11
5.76103
21
-3.97553
0
LINE
8
BLACK
6
CONTINUOUS
10
5.76103
20
-3.97553
11
5.76329
21
-3.97508
0
LINE
8
BLACK
6
CONTINUOUS
10
5.76329
20
-3.97508
11
5.80364
21
-3.97508
0
LINE
8
BLACK
6
CONTINUOUS
10
5.80364
20
-3.97508
11
5.8059
21
-3.97553
0
LINE
8
BLACK
6
CONTINUOUS
10
5.89547
20
-3.97553
11
5.89738
21
-3.97681
0
LINE
8
BLACK
6
CONTINUOUS
10
5.89738
20
-3.97681
11
5.89866
21
-3.97872
0
LINE
8
BLACK
6
CONTINUOUS
10
5.89866
20
-3.97872
11
5.89911
21
-3.98098
0
LINE
8
BLACK
6
CONTINUOUS
10
5.89911
20
-3.98098
11
5.89911
21
-3.9928
0
LINE
8
BLACK
6
CONTINUOUS
10
5.89911
20
-3.9928
11
5.89866
21
-3.99506
0
LINE
8
BLACK
6
CONTINUOUS
10
5.89866
20
-3.99506
11
5.89738
21
-3.99697
0
LINE
8
BLACK
6
CONTINUOUS
10
5.89738
20
-3.99697
11
5.89547
21
-3.99825
0
LINE
8
BLACK
6
CONTINUOUS
10
5.89547
20
-3.99825
11
5.89321
21
-3.9987
0
LINE
8
BLACK
6
CONTINUOUS
10
5.89321
20
-3.9987
11
5.85285
21
-3.9987
0
LINE
8
BLACK
6
CONTINUOUS
10
5.85285
20
-3.9987
11
5.85059
21
-3.99825
0
LINE
8
BLACK
6
CONTINUOUS
10
5.85059
20
-3.99825
11
5.84868
21
-3.99697
0
LINE
8
BLACK
6
CONTINUOUS
10
5.84868
20
-3.99697
11
5.8474
21
-3.99506
0
LINE
8
BLACK
6
CONTINUOUS
10
5.8474
20
-3.99506
11
5.84695
21
-3.9928
0
LINE
8
BLACK
6
CONTINUOUS
10
5.84695
20
-3.9928
11
5.84695
21
-3.98098
0
LINE
8
BLACK
6
CONTINUOUS
10
5.84695
20
-3.98098
11
5.8474
21
-3.97872
0
LINE
8
BLACK
6
CONTINUOUS
10
5.8474
20
-3.97872
11
5.84868
21
-3.97681
0
LINE
8
BLACK
6
CONTINUOUS
10
5.84868
20
-3.97681
11
5.85059
21
-3.97553
0
LINE
8
BLACK
6
CONTINUOUS
10
5.85059
20
-3.97553
11
5.85285
21
-3.97508
0
LINE
8
BLACK
6
CONTINUOUS
10
5.85285
20
-3.97508
11
5.89321
21
-3.97508
0
LINE
8
BLACK
6
CONTINUOUS
10
5.89321
20
-3.97508
11
5.89547
21
-3.97553
0
LINE
8
BLACK
6
CONTINUOUS
10
5.97781
20
-3.97952
11
5.97861
21
-3.98005
0
LINE
8
BLACK
6
CONTINUOUS
10
5.97861
20
-3.98005
11
5.97914
21
-3.98085
0
LINE
8
BLACK
6
CONTINUOUS
10
5.97914
20
-3.98085
11
5.97933
21
-3.98179
0
LINE
8
BLACK
6
CONTINUOUS
10
5.97933
20
-3.98179
11
5.97933
21
-3.98671
0
LINE
8
BLACK
6
CONTINUOUS
10
5.97933
20
-3.98671
11
5.97914
21
-3.98765
0
LINE
8
BLACK
6
CONTINUOUS
10
5.97914
20
-3.98765
11
5.97861
21
-3.98845
0
LINE
8
BLACK
6
CONTINUOUS
10
5.97861
20
-3.98845
11
5.97781
21
-3.98899
0
LINE
8
BLACK
6
CONTINUOUS
10
5.97781
20
-3.98899
11
5.97687
21
-3.98917
0
LINE
8
BLACK
6
CONTINUOUS
10
5.97687
20
-3.98917
11
5.94931
21
-3.98917
0
LINE
8
BLACK
6
CONTINUOUS
10
5.94931
20
-3.98917
11
5.94837
21
-3.98899
0
LINE
8
BLACK
6
CONTINUOUS
10
5.94837
20
-3.98899
11
5.94757
21
-3.98845
0
LINE
8
BLACK
6
CONTINUOUS
10
5.94757
20
-3.98845
11
5.94704
21
-3.98765
0
LINE
8
BLACK
6
CONTINUOUS
10
5.94704
20
-3.98765
11
5.94685
21
-3.98671
0
LINE
8
BLACK
6
CONTINUOUS
10
5.94685
20
-3.98671
11
5.94685
21
-3.98179
0
LINE
8
BLACK
6
CONTINUOUS
10
5.94685
20
-3.98179
11
5.94704
21
-3.98085
0
LINE
8
BLACK
6
CONTINUOUS
10
5.94704
20
-3.98085
11
5.94757
21
-3.98005
0
LINE
8
BLACK
6
CONTINUOUS
10
5.94757
20
-3.98005
11
5.94837
21
-3.97952
0
LINE
8
BLACK
6
CONTINUOUS
10
5.94837
20
-3.97952
11
5.94931
21
-3.97933
0
LINE
8
BLACK
6
CONTINUOUS
10
5.94931
20
-3.97933
11
5.97687
21
-3.97933
0
LINE
8
BLACK
6
CONTINUOUS
10
5.97687
20
-3.97933
11
5.97781
21
-3.97952
0
LINE
8
BLACK
6
CONTINUOUS
10
6.13037
20
-3.97952
11
6.13117
21
-3.98005
0
LINE
8
BLACK
6
CONTINUOUS
10
6.13117
20
-3.98005
11
6.1317
21
-3.98085
0
LINE
8
BLACK
6
CONTINUOUS
10
6.1317
20
-3.98085
11
6.13189
21
-3.98179
0
LINE
8
BLACK
6
CONTINUOUS
10
6.13189
20
-3.98179
11
6.13189
21
-3.98671
0
LINE
8
BLACK
6
CONTINUOUS
10
6.13189
20
-3.98671
11
6.1317
21
-3.98765
0
LINE
8
BLACK
6
CONTINUOUS
10
6.1317
20
-3.98765
11
6.13117
21
-3.98845
0
LINE
8
BLACK
6
CONTINUOUS
10
6.13117
20
-3.98845
11
6.13037
21
-3.98899
0
LINE
8
BLACK
6
CONTINUOUS
10
6.13037
20
-3.98899
11
6.12943
21
-3.98917
0
LINE
8
BLACK
6
CONTINUOUS
10
6.12943
20
-3.98917
11
6.10187
21
-3.98917
0
LINE
8
BLACK
6
CONTINUOUS
10
6.10187
20
-3.98917
11
6.10093
21
-3.98899
0
LINE
8
BLACK
6
CONTINUOUS
10
6.10093
20
-3.98899
11
6.10013
21
-3.98845
0
LINE
8
BLACK
6
CONTINUOUS
10
6.10013
20
-3.98845
11
6.0996
21
-3.98765
0
LINE
8
BLACK
6
CONTINUOUS
10
6.0996
20
-3.98765
11
6.09941
21
-3.98671
0
LINE
8
BLACK
6
CONTINUOUS
10
6.09941
20
-3.98671
11
6.09941
21
-3.98179
0
LINE
8
BLACK
6
CONTINUOUS
10
6.09941
20
-3.98179
11
6.0996
21
-3.98085
0
LINE
8
BLACK
6
CONTINUOUS
10
6.0996
20
-3.98085
11
6.10013
21
-3.98005
0
LINE
8
BLACK
6
CONTINUOUS
10
6.10013
20
-3.98005
11
6.10093
21
-3.97952
0
LINE
8
BLACK
6
CONTINUOUS
10
6.10093
20
-3.97952
11
6.10187
21
-3.97933
0
LINE
8
BLACK
6
CONTINUOUS
10
6.10187
20
-3.97933
11
6.12943
21
-3.97933
0
LINE
8
BLACK
6
CONTINUOUS
10
6.12943
20
-3.97933
11
6.13037
21
-3.97952
0
LINE
8
BLACK
6
CONTINUOUS
10
5.66619
20
-3.98492
11
5.62091
21
-3.98492
0
LINE
8
BLACK
6
CONTINUOUS
10
5.62091
20
-3.98492
11
5.62091
21
-3.97311
0
LINE
8
BLACK
6
CONTINUOUS
10
5.62091
20
-3.97311
11
5.66619
21
-3.97311
0
LINE
8
BLACK
6
CONTINUOUS
10
5.66619
20
-3.97311
11
5.66619
21
-3.98492
0
LINE
8
BLACK
6
CONTINUOUS
10
6.3266
20
-3.91414
11
6.32979
21
-3.91627
0
LINE
8
BLACK
6
CONTINUOUS
10
6.32979
20
-3.91627
11
6.33193
21
-3.91946
0
LINE
8
BLACK
6
CONTINUOUS
10
6.33193
20
-3.91946
11
6.33268
21
-3.92323
0
LINE
8
BLACK
6
CONTINUOUS
10
6.33268
20
-3.92323
11
6.33268
21
-3.97441
0
LINE
8
BLACK
6
CONTINUOUS
10
6.33268
20
-3.97441
11
6.33193
21
-3.97818
0
LINE
8
BLACK
6
CONTINUOUS
10
6.33193
20
-3.97818
11
6.32979
21
-3.98137
0
LINE
8
BLACK
6
CONTINUOUS
10
6.32979
20
-3.98137
11
6.3266
21
-3.9835
0
LINE
8
BLACK
6
CONTINUOUS
10
6.3266
20
-3.9835
11
6.32283
21
-3.98425
0
LINE
8
BLACK
6
CONTINUOUS
10
6.32283
20
-3.98425
11
6.24409
21
-3.98425
0
LINE
8
BLACK
6
CONTINUOUS
10
6.24409
20
-3.98425
11
6.24033
21
-3.9835
0
LINE
8
BLACK
6
CONTINUOUS
10
6.24033
20
-3.9835
11
6.23713
21
-3.98137
0
LINE
8
BLACK
6
CONTINUOUS
10
6.23713
20
-3.98137
11
6.235
21
-3.97818
0
LINE
8
BLACK
6
CONTINUOUS
10
6.235
20
-3.97818
11
6.23425
21
-3.97441
0
LINE
8
BLACK
6
CONTINUOUS
10
6.23425
20
-3.97441
11
6.23425
21
-3.92323
0
LINE
8
BLACK
6
CONTINUOUS
10
6.23425
20
-3.92323
11
6.235
21
-3.91946
0
LINE
8
BLACK
6
CONTINUOUS
10
6.235
20
-3.91946
11
6.23713
21
-3.91627
0
LINE
8
BLACK
6
CONTINUOUS
10
6.23713
20
-3.91627
11
6.24033
21
-3.91414
0
LINE
8
BLACK
6
CONTINUOUS
10
6.24033
20
-3.91414
11
6.24409
21
-3.91339
0
LINE
8
BLACK
6
CONTINUOUS
10
6.24409
20
-3.91339
11
6.32283
21
-3.91339
0
LINE
8
BLACK
6
CONTINUOUS
10
6.32283
20
-3.91339
11
6.3266
21
-3.91414
0
LINE
8
BLACK
6
CONTINUOUS
10
6.48408
20
-3.91414
11
6.48727
21
-3.91627
0
LINE
8
BLACK
6
CONTINUOUS
10
6.48727
20
-3.91627
11
6.48941
21
-3.91946
0
LINE
8
BLACK
6
CONTINUOUS
10
6.48941
20
-3.91946
11
6.49016
21
-3.92323
0
LINE
8
BLACK
6
CONTINUOUS
10
6.49016
20
-3.92323
11
6.49016
21
-3.97441
0
LINE
8
BLACK
6
CONTINUOUS
10
6.49016
20
-3.97441
11
6.48941
21
-3.97818
0
LINE
8
BLACK
6
CONTINUOUS
10
6.48941
20
-3.97818
11
6.48727
21
-3.98137
0
LINE
8
BLACK
6
CONTINUOUS
10
6.48727
20
-3.98137
11
6.48408
21
-3.9835
0
LINE
8
BLACK
6
CONTINUOUS
10
6.48408
20
-3.9835
11
6.48031
21
-3.98425
0
LINE
8
BLACK
6
CONTINUOUS
10
6.48031
20
-3.98425
11
6.40157
21
-3.98425
0
LINE
8
BLACK
6
CONTINUOUS
10
6.40157
20
-3.98425
11
6.39781
21
-3.9835
0
LINE
8
BLACK
6
CONTINUOUS
10
6.39781
20
-3.9835
11
6.39462
21
-3.98137
0
LINE
8
BLACK
6
CONTINUOUS
10
6.39462
20
-3.98137
11
6.39248
21
-3.97818
0
LINE
8
BLACK
6
CONTINUOUS
10
6.39248
20
-3.97818
11
6.39173
21
-3.97441
0
LINE
8
BLACK
6
CONTINUOUS
10
6.39173
20
-3.97441
11
6.39173
21
-3.92323
0
LINE
8
BLACK
6
CONTINUOUS
10
6.39173
20
-3.92323
11
6.39248
21
-3.91946
0
LINE
8
BLACK
6
CONTINUOUS
10
6.39248
20
-3.91946
11
6.39462
21
-3.91627
0
LINE
8
BLACK
6
CONTINUOUS
10
6.39462
20
-3.91627
11
6.39781
21
-3.91414
0
LINE
8
BLACK
6
CONTINUOUS
10
6.39781
20
-3.91414
11
6.40157
21
-3.91339
0
LINE
8
BLACK
6
CONTINUOUS
10
6.40157
20
-3.91339
11
6.48031
21
-3.91339
0
LINE
8
BLACK
6
CONTINUOUS
10
6.48031
20
-3.91339
11
6.48408
21
-3.91414
0
LINE
8
BLACK
6
CONTINUOUS
10
5.97781
20
-3.95983
11
5.97861
21
-3.96037
0
LINE
8
BLACK
6
CONTINUOUS
10
5.97861
20
-3.96037
11
5.97914
21
-3.96116
0
LINE
8
BLACK
6
CONTINUOUS
10
5.97914
20
-3.96116
11
5.97933
21
-3.96211
0
LINE
8
BLACK
6
CONTINUOUS
10
5.97933
20
-3.96211
11
5.97933
21
-3.96703
0
LINE
8
BLACK
6
CONTINUOUS
10
5.97933
20
-3.96703
11
5.97914
21
-3.96797
0
LINE
8
BLACK
6
CONTINUOUS
10
5.97914
20
-3.96797
11
5.97861
21
-3.96877
0
LINE
8
BLACK
6
CONTINUOUS
10
5.97861
20
-3.96877
11
5.97781
21
-3.9693
0
LINE
8
BLACK
6
CONTINUOUS
10
5.97781
20
-3.9693
11
5.97687
21
-3.96949
0
LINE
8
BLACK
6
CONTINUOUS
10
5.97687
20
-3.96949
11
5.94931
21
-3.96949
0
LINE
8
BLACK
6
CONTINUOUS
10
5.94931
20
-3.96949
11
5.94837
21
-3.9693
0
LINE
8
BLACK
6
CONTINUOUS
10
5.94837
20
-3.9693
11
5.94757
21
-3.96877
0
LINE
8
BLACK
6
CONTINUOUS
10
5.94757
20
-3.96877
11
5.94704
21
-3.96797
0
LINE
8
BLACK
6
CONTINUOUS
10
5.94704
20
-3.96797
11
5.94685
21
-3.96703
0
LINE
8
BLACK
6
CONTINUOUS
10
5.94685
20
-3.96703
11
5.94685
21
-3.96211
0
LINE
8
BLACK
6
CONTINUOUS
10
5.94685
20
-3.96211
11
5.94704
21
-3.96116
0
LINE
8
BLACK
6
CONTINUOUS
10
5.94704
20
-3.96116
11
5.94757
21
-3.96037
0
LINE
8
BLACK
6
CONTINUOUS
10
5.94757
20
-3.96037
11
5.94837
21
-3.95983
0
LINE
8
BLACK
6
CONTINUOUS
10
5.94837
20
-3.95983
11
5.94931
21
-3.95965
0
LINE
8
BLACK
6
CONTINUOUS
10
5.94931
20
-3.95965
11
5.97687
21
-3.95965
0
LINE
8
BLACK
6
CONTINUOUS
10
5.97687
20
-3.95965
11
5.97781
21
-3.95983
0
LINE
8
BLACK
6
CONTINUOUS
10
6.13037
20
-3.95983
11
6.13117
21
-3.96037
0
LINE
8
BLACK
6
CONTINUOUS
10
6.13117
20
-3.96037
11
6.1317
21
-3.96116
0
LINE
8
BLACK
6
CONTINUOUS
10
6.1317
20
-3.96116
11
6.13189
21
-3.96211
0
LINE
8
BLACK
6
CONTINUOUS
10
6.13189
20
-3.96211
11
6.13189
21
-3.96703
0
LINE
8
BLACK
6
CONTINUOUS
10
6.13189
20
-3.96703
11
6.1317
21
-3.96797
0
LINE
8
BLACK
6
CONTINUOUS
10
6.1317
20
-3.96797
11
6.13117
21
-3.96877
0
LINE
8
BLACK
6
CONTINUOUS
10
6.13117
20
-3.96877
11
6.13037
21
-3.9693
0
LINE
8
BLACK
6
CONTINUOUS
10
6.13037
20
-3.9693
11
6.12943
21
-3.96949
0
LINE
8
BLACK
6
CONTINUOUS
10
6.12943
20
-3.96949
11
6.10187
21
-3.96949
0
LINE
8
BLACK
6
CONTINUOUS
10
6.10187
20
-3.96949
11
6.10093
21
-3.9693
0
LINE
8
BLACK
6
CONTINUOUS
10
6.10093
20
-3.9693
11
6.10013
21
-3.96877
0
LINE
8
BLACK
6
CONTINUOUS
10
6.10013
20
-3.96877
11
6.0996
21
-3.96797
0
LINE
8
BLACK
6
CONTINUOUS
10
6.0996
20
-3.96797
11
6.09941
21
-3.96703
0
LINE
8
BLACK
6
CONTINUOUS
10
6.09941
20
-3.96703
11
6.09941
21
-3.96211
0
LINE
8
BLACK
6
CONTINUOUS
10
6.09941
20
-3.96211
11
6.0996
21
-3.96116
0
LINE
8
BLACK
6
CONTINUOUS
10
6.0996
20
-3.96116
11
6.10013
21
-3.96037
0
LINE
8
BLACK
6
CONTINUOUS
10
6.10013
20
-3.96037
11
6.10093
21
-3.95983
0
LINE
8
BLACK
6
CONTINUOUS
10
6.10093
20
-3.95983
11
6.10187
21
-3.95965
0
LINE
8
BLACK
6
CONTINUOUS
10
6.10187
20
-3.95965
11
6.12943
21
-3.95965
0
LINE
8
BLACK
6
CONTINUOUS
10
6.12943
20
-3.95965
11
6.13037
21
-3.95983
0
LINE
8
BLACK
6
CONTINUOUS
10
5.66619
20
-3.96524
11
5.62091
21
-3.96524
0
LINE
8
BLACK
6
CONTINUOUS
10
5.62091
20
-3.96524
11
5.62091
21
-3.95343
0
LINE
8
BLACK
6
CONTINUOUS
10
5.62091
20
-3.95343
11
5.66619
21
-3.95343
0
LINE
8
BLACK
6
CONTINUOUS
10
5.66619
20
-3.95343
11
5.66619
21
-3.96524
0
LINE
8
BLACK
6
CONTINUOUS
10
5.8059
20
-3.93813
11
5.80782
21
-3.93941
0
LINE
8
BLACK
6
CONTINUOUS
10
5.80782
20
-3.93941
11
5.8091
21
-3.94132
0
LINE
8
BLACK
6
CONTINUOUS
10
5.8091
20
-3.94132
11
5.80955
21
-3.94358
0
LINE
8
BLACK
6
CONTINUOUS
10
5.80955
20
-3.94358
11
5.80955
21
-3.95539
0
LINE
8
BLACK
6
CONTINUOUS
10
5.80955
20
-3.95539
11
5.8091
21
-3.95765
0
LINE
8
BLACK
6
CONTINUOUS
10
5.8091
20
-3.95765
11
5.80782
21
-3.95957
0
LINE
8
BLACK
6
CONTINUOUS
10
5.80782
20
-3.95957
11
5.8059
21
-3.96085
0
LINE
8
BLACK
6
CONTINUOUS
10
5.8059
20
-3.96085
11
5.80364
21
-3.9613
0
LINE
8
BLACK
6
CONTINUOUS
10
5.80364
20
-3.9613
11
5.76329
21
-3.9613
0
LINE
8
BLACK
6
CONTINUOUS
10
5.76329
20
-3.9613
11
5.76103
21
-3.96085
0
LINE
8
BLACK
6
CONTINUOUS
10
5.76103
20
-3.96085
11
5.75911
21
-3.95957
0
LINE
8
BLACK
6
CONTINUOUS
10
5.75911
20
-3.95957
11
5.75783
21
-3.95765
0
LINE
8
BLACK
6
CONTINUOUS
10
5.75783
20
-3.95765
11
5.75738
21
-3.95539
0
LINE
8
BLACK
6
CONTINUOUS
10
5.75738
20
-3.95539
11
5.75738
21
-3.94358
0
LINE
8
BLACK
6
CONTINUOUS
10
5.75738
20
-3.94358
11
5.75783
21
-3.94132
0
LINE
8
BLACK
6
CONTINUOUS
10
5.75783
20
-3.94132
11
5.75911
21
-3.93941
0
LINE
8
BLACK
6
CONTINUOUS
10
5.75911
20
-3.93941
11
5.76103
21
-3.93813
0
LINE
8
BLACK
6
CONTINUOUS
10
5.76103
20
-3.93813
11
5.76329
21
-3.93768
0
LINE
8
BLACK
6
CONTINUOUS
10
5.76329
20
-3.93768
11
5.80364
21
-3.93768
0
LINE
8
BLACK
6
CONTINUOUS
10
5.80364
20
-3.93768
11
5.8059
21
-3.93813
0
LINE
8
BLACK
6
CONTINUOUS
10
5.89547
20
-3.93813
11
5.89738
21
-3.93941
0
LINE
8
BLACK
6
CONTINUOUS
10
5.89738
20
-3.93941
11
5.89866
21
-3.94132
0
LINE
8
BLACK
6
CONTINUOUS
10
5.89866
20
-3.94132
11
5.89911
21
-3.94358
0
LINE
8
BLACK
6
CONTINUOUS
10
5.89911
20
-3.94358
11
5.89911
21
-3.95539
0
LINE
8
BLACK
6
CONTINUOUS
10
5.89911
20
-3.95539
11
5.89866
21
-3.95765
0
LINE
8
BLACK
6
CONTINUOUS
10
5.89866
20
-3.95765
11
5.89738
21
-3.95957
0
LINE
8
BLACK
6
CONTINUOUS
10
5.89738
20
-3.95957
11
5.89547
21
-3.96085
0
LINE
8
BLACK
6
CONTINUOUS
10
5.89547
20
-3.96085
11
5.89321
21
-3.9613
0
LINE
8
BLACK
6
CONTINUOUS
10
5.89321
20
-3.9613
11
5.85285
21
-3.9613
0
LINE
8
BLACK
6
CONTINUOUS
10
5.85285
20
-3.9613
11
5.85059
21
-3.96085
0
LINE
8
BLACK
6
CONTINUOUS
10
5.85059
20
-3.96085
11
5.84868
21
-3.95957
0
LINE
8
BLACK
6
CONTINUOUS
10
5.84868
20
-3.95957
11
5.8474
21
-3.95765
0
LINE
8
BLACK
6
CONTINUOUS
10
5.8474
20
-3.95765
11
5.84695
21
-3.95539
0
LINE
8
BLACK
6
CONTINUOUS
10
5.84695
20
-3.95539
11
5.84695
21
-3.94358
0
LINE
8
BLACK
6
CONTINUOUS
10
5.84695
20
-3.94358
11
5.8474
21
-3.94132
0
LINE
8
BLACK
6
CONTINUOUS
10
5.8474
20
-3.94132
11
5.84868
21
-3.93941
0
LINE
8
BLACK
6
CONTINUOUS
10
5.84868
20
-3.93941
11
5.85059
21
-3.93813
0
LINE
8
BLACK
6
CONTINUOUS
10
5.85059
20
-3.93813
11
5.85285
21
-3.93768
0
LINE
8
BLACK
6
CONTINUOUS
10
5.85285
20
-3.93768
11
5.89321
21
-3.93768
0
LINE
8
BLACK
6
CONTINUOUS
10
5.89321
20
-3.93768
11
5.89547
21
-3.93813
0
LINE
8
BLACK
6
CONTINUOUS
10
6.02857
20
-3.92083
11
6.03176
21
-3.92296
0
LINE
8
BLACK
6
CONTINUOUS
10
6.03176
20
-3.92296
11
6.0339
21
-3.92615
0
LINE
8
BLACK
6
CONTINUOUS
10
6.0339
20
-3.92615
11
6.03465
21
-3.92992
0
LINE
8
BLACK
6
CONTINUOUS
10
6.03465
20
-3.92992
11
6.03465
21
-3.95
0
LINE
8
BLACK
6
CONTINUOUS
10
6.03465
20
-3.95
11
6.0339
21
-3.95377
0
LINE
8
BLACK
6
CONTINUOUS
10
6.0339
20
-3.95377
11
6.03176
21
-3.95696
0
LINE
8
BLACK
6
CONTINUOUS
10
6.03176
20
-3.95696
11
6.02857
21
-3.95909
0
LINE
8
BLACK
6
CONTINUOUS
10
6.02857
20
-3.95909
11
6.0248
21
-3.95984
0
LINE
8
BLACK
6
CONTINUOUS
10
6.0248
20
-3.95984
11
6.00472
21
-3.95984
0
LINE
8
BLACK
6
CONTINUOUS
10
6.00472
20
-3.95984
11
6.00096
21
-3.95909
0
LINE
8
BLACK
6
CONTINUOUS
10
6.00096
20
-3.95909
11
5.99776
21
-3.95696
0
LINE
8
BLACK
6
CONTINUOUS
10
5.99776
20
-3.95696
11
5.99563
21
-3.95377
0
LINE
8
BLACK
6
CONTINUOUS
10
5.99563
20
-3.95377
11
5.99488
21
-3.95
0
LINE
8
BLACK
6
CONTINUOUS
10
5.99488
20
-3.95
11
5.99488
21
-3.92992
0
LINE
8
BLACK
6
CONTINUOUS
10
5.99488
20
-3.92992
11
5.99563
21
-3.92615
0
LINE
8
BLACK
6
CONTINUOUS
10
5.99563
20
-3.92615
11
5.99776
21
-3.92296
0
LINE
8
BLACK
6
CONTINUOUS
10
5.99776
20
-3.92296
11
6.00096
21
-3.92083
0
LINE
8
BLACK
6
CONTINUOUS
10
6.00096
20
-3.92083
11
6.00472
21
-3.92008
0
LINE
8
BLACK
6
CONTINUOUS
10
6.00472
20
-3.92008
11
6.0248
21
-3.92008
0
LINE
8
BLACK
6
CONTINUOUS
10
6.0248
20
-3.92008
11
6.02857
21
-3.92083
0
LINE
8
BLACK
6
CONTINUOUS
10
6.07778
20
-3.92083
11
6.08098
21
-3.92296
0
LINE
8
BLACK
6
CONTINUOUS
10
6.08098
20
-3.92296
11
6.08311
21
-3.92615
0
LINE
8
BLACK
6
CONTINUOUS
10
6.08311
20
-3.92615
11
6.08386
21
-3.92992
0
LINE
8
BLACK
6
CONTINUOUS
10
6.08386
20
-3.92992
11
6.08386
21
-3.95
0
LINE
8
BLACK
6
CONTINUOUS
10
6.08386
20
-3.95
11
6.08311
21
-3.95377
0
LINE
8
BLACK
6
CONTINUOUS
10
6.08311
20
-3.95377
11
6.08098
21
-3.95696
0
LINE
8
BLACK
6
CONTINUOUS
10
6.08098
20
-3.95696
11
6.07778
21
-3.95909
0
LINE
8
BLACK
6
CONTINUOUS
10
6.07778
20
-3.95909
11
6.07402
21
-3.95984
0
LINE
8
BLACK
6
CONTINUOUS
10
6.07402
20
-3.95984
11
6.05394
21
-3.95984
0
LINE
8
BLACK
6
CONTINUOUS
10
6.05394
20
-3.95984
11
6.05017
21
-3.95909
0
LINE
8
BLACK
6
CONTINUOUS
10
6.05017
20
-3.95909
11
6.04698
21
-3.95696
0
LINE
8
BLACK
6
CONTINUOUS
10
6.04698
20
-3.95696
11
6.04484
21
-3.95377
0
LINE
8
BLACK
6
CONTINUOUS
10
6.04484
20
-3.95377
11
6.04409
21
-3.95
0
LINE
8
BLACK
6
CONTINUOUS
10
6.04409
20
-3.95
11
6.04409
21
-3.92992
0
LINE
8
BLACK
6
CONTINUOUS
10
6.04409
20
-3.92992
11
6.04484
21
-3.92615
0
LINE
8
BLACK
6
CONTINUOUS
10
6.04484
20
-3.92615
11
6.04698
21
-3.92296
0
LINE
8
BLACK
6
CONTINUOUS
10
6.04698
20
-3.92296
11
6.05017
21
-3.92083
0
LINE
8
BLACK
6
CONTINUOUS
10
6.05017
20
-3.92083
11
6.05394
21
-3.92008
0
LINE
8
BLACK
6
CONTINUOUS
10
6.05394
20
-3.92008
11
6.07402
21
-3.92008
0
LINE
8
BLACK
6
CONTINUOUS
10
6.07402
20
-3.92008
11
6.07778
21
-3.92083
0
LINE
8
BLACK
6
CONTINUOUS
10
5.97781
20
-3.94015
11
5.97861
21
-3.94068
0
LINE
8
BLACK
6
CONTINUOUS
10
5.97861
20
-3.94068
11
5.97914
21
-3.94148
0
LINE
8
BLACK
6
CONTINUOUS
10
5.97914
20
-3.94148
11
5.97933
21
-3.94242
0
LINE
8
BLACK
6
CONTINUOUS
10
5.97933
20
-3.94242
11
5.97933
21
-3.94734
0
LINE
8
BLACK
6
CONTINUOUS
10
5.97933
20
-3.94734
11
5.97914
21
-3.94828
0
LINE
8
BLACK
6
CONTINUOUS
10
5.97914
20
-3.94828
11
5.97861
21
-3.94908
0
LINE
8
BLACK
6
CONTINUOUS
10
5.97861
20
-3.94908
11
5.97781
21
-3.94962
0
LINE
8
BLACK
6
CONTINUOUS
10
5.97781
20
-3.94962
11
5.97687
21
-3.9498
0
LINE
8
BLACK
6
CONTINUOUS
10
5.97687
20
-3.9498
11
5.94931
21
-3.9498
0
LINE
8
BLACK
6
CONTINUOUS
10
5.94931
20
-3.9498
11
5.94837
21
-3.94962
0
LINE
8
BLACK
6
CONTINUOUS
10
5.94837
20
-3.94962
11
5.94757
21
-3.94908
0
LINE
8
BLACK
6
CONTINUOUS
10
5.94757
20
-3.94908
11
5.94704
21
-3.94828
0
LINE
8
BLACK
6
CONTINUOUS
10
5.94704
20
-3.94828
11
5.94685
21
-3.94734
0
LINE
8
BLACK
6
CONTINUOUS
10
5.94685
20
-3.94734
11
5.94685
21
-3.94242
0
LINE
8
BLACK
6
CONTINUOUS
10
5.94685
20
-3.94242
11
5.94704
21
-3.94148
0
LINE
8
BLACK
6
CONTINUOUS
10
5.94704
20
-3.94148
11
5.94757
21
-3.94068
0
LINE
8
BLACK
6
CONTINUOUS
10
5.94757
20
-3.94068
11
5.94837
21
-3.94015
0
LINE
8
BLACK
6
CONTINUOUS
10
5.94837
20
-3.94015
11
5.94931
21
-3.93996
0
LINE
8
BLACK
6
CONTINUOUS
10
5.94931
20
-3.93996
11
5.97687
21
-3.93996
0
LINE
8
BLACK
6
CONTINUOUS
10
5.97687
20
-3.93996
11
5.97781
21
-3.94015
0
LINE
8
BLACK
6
CONTINUOUS
10
6.13037
20
-3.94015
11
6.13117
21
-3.94068
0
LINE
8
BLACK
6
CONTINUOUS
10
6.13117
20
-3.94068
11
6.1317
21
-3.94148
0
LINE
8
BLACK
6
CONTINUOUS
10
6.1317
20
-3.94148
11
6.13189
21
-3.94242
0
LINE
8
BLACK
6
CONTINUOUS
10
6.13189
20
-3.94242
11
6.13189
21
-3.94734
0
LINE
8
BLACK
6
CONTINUOUS
10
6.13189
20
-3.94734
11
6.1317
21
-3.94828
0
LINE
8
BLACK
6
CONTINUOUS
10
6.1317
20
-3.94828
11
6.13117
21
-3.94908
0
LINE
8
BLACK
6
CONTINUOUS
10
6.13117
20
-3.94908
11
6.13037
21
-3.94962
0
LINE
8
BLACK
6
CONTINUOUS
10
6.13037
20
-3.94962
11
6.12943
21
-3.9498
0
LINE
8
BLACK
6
CONTINUOUS
10
6.12943
20
-3.9498
11
6.10187
21
-3.9498
0
LINE
8
BLACK
6
CONTINUOUS
10
6.10187
20
-3.9498
11
6.10093
21
-3.94962
0
LINE
8
BLACK
6
CONTINUOUS
10
6.10093
20
-3.94962
11
6.10013
21
-3.94908
0
LINE
8
BLACK
6
CONTINUOUS
10
6.10013
20
-3.94908
11
6.0996
21
-3.94828
0
LINE
8
BLACK
6
CONTINUOUS
10
6.0996
20
-3.94828
11
6.09941
21
-3.94734
0
LINE
8
BLACK
6
CONTINUOUS
10
6.09941
20
-3.94734
11
6.09941
21
-3.94242
0
LINE
8
BLACK
6
CONTINUOUS
10
6.09941
20
-3.94242
11
6.0996
21
-3.94148
0
LINE
8
BLACK
6
CONTINUOUS
10
6.0996
20
-3.94148
11
6.10013
21
-3.94068
0
LINE
8
BLACK
6
CONTINUOUS
10
6.10013
20
-3.94068
11
6.10093
21
-3.94015
0
LINE
8
BLACK
6
CONTINUOUS
10
6.10093
20
-3.94015
11
6.10187
21
-3.93996
0
LINE
8
BLACK
6
CONTINUOUS
10
6.10187
20
-3.93996
11
6.12943
21
-3.93996
0
LINE
8
BLACK
6
CONTINUOUS
10
6.12943
20
-3.93996
11
6.13037
21
-3.94015
0
LINE
8
BLACK
6
CONTINUOUS
10
5.66619
20
-3.94555
11
5.62091
21
-3.94555
0
LINE
8
BLACK
6
CONTINUOUS
10
5.62091
20
-3.94555
11
5.62091
21
-3.93374
0
LINE
8
BLACK
6
CONTINUOUS
10
5.62091
20
-3.93374
11
5.66619
21
-3.93374
0
LINE
8
BLACK
6
CONTINUOUS
10
5.66619
20
-3.93374
11
5.66619
21
-3.94555
0
LINE
8
BLACK
6
CONTINUOUS
10
5.97781
20
-3.92046
11
5.97861
21
-3.921
0
LINE
8
BLACK
6
CONTINUOUS
10
5.97861
20
-3.921
11
5.97914
21
-3.92179
0
LINE
8
BLACK
6
CONTINUOUS
10
5.97914
20
-3.92179
11
5.97933
21
-3.92274
0
LINE
8
BLACK
6
CONTINUOUS
10
5.97933
20
-3.92274
11
5.97933
21
-3.92766
0
LINE
8
BLACK
6
CONTINUOUS
10
5.97933
20
-3.92766
11
5.97914
21
-3.9286
0
LINE
8
BLACK
6
CONTINUOUS
10
5.97914
20
-3.9286
11
5.97861
21
-3.9294
0
LINE
8
BLACK
6
CONTINUOUS
10
5.97861
20
-3.9294
11
5.97781
21
-3.92993
0
LINE
8
BLACK
6
CONTINUOUS
10
5.97781
20
-3.92993
11
5.97687
21
-3.93012
0
LINE
8
BLACK
6
CONTINUOUS
10
5.97687
20
-3.93012
11
5.94931
21
-3.93012
0
LINE
8
BLACK
6
CONTINUOUS
10
5.94931
20
-3.93012
11
5.94837
21
-3.92993
0
LINE
8
BLACK
6
CONTINUOUS
10
5.94837
20
-3.92993
11
5.94757
21
-3.9294
0
LINE
8
BLACK
6
CONTINUOUS
10
5.94757
20
-3.9294
11
5.94704
21
-3.9286
0
LINE
8
BLACK
6
CONTINUOUS
10
5.94704
20
-3.9286
11
5.94685
21
-3.92766
0
LINE
8
BLACK
6
CONTINUOUS
10
5.94685
20
-3.92766
11
5.94685
21
-3.92274
0
LINE
8
BLACK
6
CONTINUOUS
10
5.94685
20
-3.92274
11
5.94704
21
-3.92179
0
LINE
8
BLACK
6
CONTINUOUS
10
5.94704
20
-3.92179
11
5.94757
21
-3.921
0
LINE
8
BLACK
6
CONTINUOUS
10
5.94757
20
-3.921
11
5.94837
21
-3.92046
0
LINE
8
BLACK
6
CONTINUOUS
10
5.94837
20
-3.92046
11
5.94931
21
-3.92028
0
LINE
8
BLACK
6
CONTINUOUS
10
5.94931
20
-3.92028
11
5.97687
21
-3.92028
0
LINE
8
BLACK
6
CONTINUOUS
10
5.97687
20
-3.92028
11
5.97781
21
-3.92046
0
LINE
8
BLACK
6
CONTINUOUS
10
6.13037
20
-3.92046
11
6.13117
21
-3.921
0
LINE
8
BLACK
6
CONTINUOUS
10
6.13117
20
-3.921
11
6.1317
21
-3.92179
0
LINE
8
BLACK
6
CONTINUOUS
10
6.1317
20
-3.92179
11
6.13189
21
-3.92274
0
LINE
8
BLACK
6
CONTINUOUS
10
6.13189
20
-3.92274
11
6.13189
21
-3.92766
0
LINE
8
BLACK
6
CONTINUOUS
10
6.13189
20
-3.92766
11
6.1317
21
-3.9286
0
LINE
8
BLACK
6
CONTINUOUS
10
6.1317
20
-3.9286
11
6.13117
21
-3.9294
0
LINE
8
BLACK
6
CONTINUOUS
10
6.13117
20
-3.9294
11
6.13037
21
-3.92993
0
LINE
8
BLACK
6
CONTINUOUS
10
6.13037
20
-3.92993
11
6.12943
21
-3.93012
0
LINE
8
BLACK
6
CONTINUOUS
10
6.12943
20
-3.93012
11
6.10187
21
-3.93012
0
LINE
8
BLACK
6
CONTINUOUS
10
6.10187
20
-3.93012
11
6.10093
21
-3.92993
0
LINE
8
BLACK
6
CONTINUOUS
10
6.10093
20
-3.92993
11
6.10013
21
-3.9294
0
LINE
8
BLACK
6
CONTINUOUS
10
6.10013
20
-3.9294
11
6.0996
21
-3.9286
0
LINE
8
BLACK
6
CONTINUOUS
10
6.0996
20
-3.9286
11
6.09941
21
-3.92766
0
LINE
8
BLACK
6
CONTINUOUS
10
6.09941
20
-3.92766
11
6.09941
21
-3.92274
0
LINE
8
BLACK
6
CONTINUOUS
10
6.09941
20
-3.92274
11
6.0996
21
-3.92179
0
LINE
8
BLACK
6
CONTINUOUS
10
6.0996
20
-3.92179
11
6.10013
21
-3.921
0
LINE
8
BLACK
6
CONTINUOUS
10
6.10013
20
-3.921
11
6.10093
21
-3.92046
0
LINE
8
BLACK
6
CONTINUOUS
10
6.10093
20
-3.92046
11
6.10187
21
-3.92028
0
LINE
8
BLACK
6
CONTINUOUS
10
6.10187
20
-3.92028
11
6.12943
21
-3.92028
0
LINE
8
BLACK
6
CONTINUOUS
10
6.12943
20
-3.92028
11
6.13037
21
-3.92046
0
LINE
8
BLACK
6
CONTINUOUS
10
5.66619
20
-3.92587
11
5.62091
21
-3.92587
0
LINE
8
BLACK
6
CONTINUOUS
10
5.62091
20
-3.92587
11
5.62091
21
-3.91406
0
LINE
8
BLACK
6
CONTINUOUS
10
5.62091
20
-3.91406
11
5.66619
21
-3.91406
0
LINE
8
BLACK
6
CONTINUOUS
10
5.66619
20
-3.91406
11
5.66619
21
-3.92587
0
LINE
8
BLACK
6
CONTINUOUS
10
5.8059
20
-3.90073
11
5.80782
21
-3.90201
0
LINE
8
BLACK
6
CONTINUOUS
10
5.80782
20
-3.90201
11
5.8091
21
-3.90392
0
LINE
8
BLACK
6
CONTINUOUS
10
5.8091
20
-3.90392
11
5.80955
21
-3.90618
0
LINE
8
BLACK
6
CONTINUOUS
10
5.80955
20
-3.90618
11
5.80955
21
-3.91799
0
LINE
8
BLACK
6
CONTINUOUS
10
5.80955
20
-3.91799
11
5.8091
21
-3.92025
0
LINE
8
BLACK
6
CONTINUOUS
10
5.8091
20
-3.92025
11
5.80782
21
-3.92217
0
LINE
8
BLACK
6
CONTINUOUS
10
5.80782
20
-3.92217
11
5.8059
21
-3.92345
0
LINE
8
BLACK
6
CONTINUOUS
10
5.8059
20
-3.92345
11
5.80364
21
-3.9239
0
LINE
8
BLACK
6
CONTINUOUS
10
5.80364
20
-3.9239
11
5.76329
21
-3.9239
0
LINE
8
BLACK
6
CONTINUOUS
10
5.76329
20
-3.9239
11
5.76103
21
-3.92345
0
LINE
8
BLACK
6
CONTINUOUS
10
5.76103
20
-3.92345
11
5.75911
21
-3.92217
0
LINE
8
BLACK
6
CONTINUOUS
10
5.75911
20
-3.92217
11
5.75783
21
-3.92025
0
LINE
8
BLACK
6
CONTINUOUS
10
5.75783
20
-3.92025
11
5.75738
21
-3.91799
0
LINE
8
BLACK
6
CONTINUOUS
10
5.75738
20
-3.91799
11
5.75738
21
-3.90618
0
LINE
8
BLACK
6
CONTINUOUS
10
5.75738
20
-3.90618
11
5.75783
21
-3.90392
0
LINE
8
BLACK
6
CONTINUOUS
10
5.75783
20
-3.90392
11
5.75911
21
-3.90201
0
LINE
8
BLACK
6
CONTINUOUS
10
5.75911
20
-3.90201
11
5.76103
21
-3.90073
0
LINE
8
BLACK
6
CONTINUOUS
10
5.76103
20
-3.90073
11
5.76329
21
-3.90028
0
LINE
8
BLACK
6
CONTINUOUS
10
5.76329
20
-3.90028
11
5.80364
21
-3.90028
0
LINE
8
BLACK
6
CONTINUOUS
10
5.80364
20
-3.90028
11
5.8059
21
-3.90073
0
LINE
8
BLACK
6
CONTINUOUS
10
5.89547
20
-3.90073
11
5.89738
21
-3.90201
0
LINE
8
BLACK
6
CONTINUOUS
10
5.89738
20
-3.90201
11
5.89866
21
-3.90392
0
LINE
8
BLACK
6
CONTINUOUS
10
5.89866
20
-3.90392
11
5.89911
21
-3.90618
0
LINE
8
BLACK
6
CONTINUOUS
10
5.89911
20
-3.90618
11
5.89911
21
-3.91799
0
LINE
8
BLACK
6
CONTINUOUS
10
5.89911
20
-3.91799
11
5.89866
21
-3.92025
0
LINE
8
BLACK
6
CONTINUOUS
10
5.89866
20
-3.92025
11
5.89738
21
-3.92217
0
LINE
8
BLACK
6
CONTINUOUS
10
5.89738
20
-3.92217
11
5.89547
21
-3.92345
0
LINE
8
BLACK
6
CONTINUOUS
10
5.89547
20
-3.92345
11
5.89321
21
-3.9239
0
LINE
8
BLACK
6
CONTINUOUS
10
5.89321
20
-3.9239
11
5.85285
21
-3.9239
0
LINE
8
BLACK
6
CONTINUOUS
10
5.85285
20
-3.9239
11
5.85059
21
-3.92345
0
LINE
8
BLACK
6
CONTINUOUS
10
5.85059
20
-3.92345
11
5.84868
21
-3.92217
0
LINE
8
BLACK
6
CONTINUOUS
10
5.84868
20
-3.92217
11
5.8474
21
-3.92025
0
LINE
8
BLACK
6
CONTINUOUS
10
5.8474
20
-3.92025
11
5.84695
21
-3.91799
0
LINE
8
BLACK
6
CONTINUOUS
10
5.84695
20
-3.91799
11
5.84695
21
-3.90618
0
LINE
8
BLACK
6
CONTINUOUS
10
5.84695
20
-3.90618
11
5.8474
21
-3.90392
0
LINE
8
BLACK
6
CONTINUOUS
10
5.8474
20
-3.90392
11
5.84868
21
-3.90201
0
LINE
8
BLACK
6
CONTINUOUS
10
5.84868
20
-3.90201
11
5.85059
21
-3.90073
0
LINE
8
BLACK
6
CONTINUOUS
10
5.85059
20
-3.90073
11
5.85285
21
-3.90028
0
LINE
8
BLACK
6
CONTINUOUS
10
5.85285
20
-3.90028
11
5.89321
21
-3.90028
0
LINE
8
BLACK
6
CONTINUOUS
10
5.89321
20
-3.90028
11
5.89547
21
-3.90073
0
LINE
8
BLACK
6
CONTINUOUS
10
5.66619
20
-3.90618
11
5.62091
21
-3.90618
0
LINE
8
BLACK
6
CONTINUOUS
10
5.62091
20
-3.90618
11
5.62091
21
-3.89437
0
LINE
8
BLACK
6
CONTINUOUS
10
5.62091
20
-3.89437
11
5.66619
21
-3.89437
0
LINE
8
BLACK
6
CONTINUOUS
10
5.66619
20
-3.89437
11
5.66619
21
-3.90618
0
LINE
8
BLACK
6
CONTINUOUS
10
6.0034
20
-3.87223
11
6.0042
21
-3.87277
0
LINE
8
BLACK
6
CONTINUOUS
10
6.0042
20
-3.87277
11
6.00473
21
-3.87357
0
LINE
8
BLACK
6
CONTINUOUS
10
6.00473
20
-3.87357
11
6.00492
21
-3.87451
0
LINE
8
BLACK
6
CONTINUOUS
10
6.00492
20
-3.87451
11
6.00492
21
-3.90207
0
LINE
8
BLACK
6
CONTINUOUS
10
6.00492
20
-3.90207
11
6.00473
21
-3.90301
0
LINE
8
BLACK
6
CONTINUOUS
10
6.00473
20
-3.90301
11
6.0042
21
-3.90381
0
LINE
8
BLACK
6
CONTINUOUS
10
6.0042
20
-3.90381
11
6.0034
21
-3.90434
0
LINE
8
BLACK
6
CONTINUOUS
10
6.0034
20
-3.90434
11
6.00246
21
-3.90453
0
LINE
8
BLACK
6
CONTINUOUS
10
6.00246
20
-3.90453
11
5.99754
21
-3.90453
0
LINE
8
BLACK
6
CONTINUOUS
10
5.99754
20
-3.90453
11
5.9966
21
-3.90434
0
LINE
8
BLACK
6
CONTINUOUS
10
5.9966
20
-3.90434
11
5.9958
21
-3.90381
0
LINE
8
BLACK
6
CONTINUOUS
10
5.9958
20
-3.90381
11
5.99527
21
-3.90301
0
LINE
8
BLACK
6
CONTINUOUS
10
5.99527
20
-3.90301
11
5.99508
21
-3.90207
0
LINE
8
BLACK
6
CONTINUOUS
10
5.99508
20
-3.90207
11
5.99508
21
-3.87451
0
LINE
8
BLACK
6
CONTINUOUS
10
5.99508
20
-3.87451
11
5.99527
21
-3.87357
0
LINE
8
BLACK
6
CONTINUOUS
10
5.99527
20
-3.87357
11
5.9958
21
-3.87277
0
LINE
8
BLACK
6
CONTINUOUS
10
5.9958
20
-3.87277
11
5.9966
21
-3.87223
0
LINE
8
BLACK
6
CONTINUOUS
10
5.9966
20
-3.87223
11
5.99754
21
-3.87205
0
LINE
8
BLACK
6
CONTINUOUS
10
5.99754
20
-3.87205
11
6.00246
21
-3.87205
0
LINE
8
BLACK
6
CONTINUOUS
10
6.00246
20
-3.87205
11
6.0034
21
-3.87223
0
LINE
8
BLACK
6
CONTINUOUS
10
6.02309
20
-3.87223
11
6.02389
21
-3.87277
0
LINE
8
BLACK
6
CONTINUOUS
10
6.02389
20
-3.87277
11
6.02442
21
-3.87357
0
LINE
8
BLACK
6
CONTINUOUS
10
6.02442
20
-3.87357
11
6.02461
21
-3.87451
0
LINE
8
BLACK
6
CONTINUOUS
10
6.02461
20
-3.87451
11
6.02461
21
-3.90207
0
LINE
8
BLACK
6
CONTINUOUS
10
6.02461
20
-3.90207
11
6.02442
21
-3.90301
0
LINE
8
BLACK
6
CONTINUOUS
10
6.02442
20
-3.90301
11
6.02389
21
-3.90381
0
LINE
8
BLACK
6
CONTINUOUS
10
6.02389
20
-3.90381
11
6.02309
21
-3.90434
0
LINE
8
BLACK
6
CONTINUOUS
10
6.02309
20
-3.90434
11
6.02215
21
-3.90453
0
LINE
8
BLACK
6
CONTINUOUS
10
6.02215
20
-3.90453
11
6.01722
21
-3.90453
0
LINE
8
BLACK
6
CONTINUOUS
10
6.01722
20
-3.90453
11
6.01628
21
-3.90434
0
LINE
8
BLACK
6
CONTINUOUS
10
6.01628
20
-3.90434
11
6.01548
21
-3.90381
0
LINE
8
BLACK
6
CONTINUOUS
10
6.01548
20
-3.90381
11
6.01495
21
-3.90301
0
LINE
8
BLACK
6
CONTINUOUS
10
6.01495
20
-3.90301
11
6.01476
21
-3.90207
0
LINE
8
BLACK
6
CONTINUOUS
10
6.01476
20
-3.90207
11
6.01476
21
-3.87451
0
LINE
8
BLACK
6
CONTINUOUS
10
6.01476
20
-3.87451
11
6.01495
21
-3.87357
0
LINE
8
BLACK
6
CONTINUOUS
10
6.01495
20
-3.87357
11
6.01548
21
-3.87277
0
LINE
8
BLACK
6
CONTINUOUS
10
6.01548
20
-3.87277
11
6.01628
21
-3.87223
0
LINE
8
BLACK
6
CONTINUOUS
10
6.01628
20
-3.87223
11
6.01722
21
-3.87205
0
LINE
8
BLACK
6
CONTINUOUS
10
6.01722
20
-3.87205
11
6.02215
21
-3.87205
0
LINE
8
BLACK
6
CONTINUOUS
10
6.02215
20
-3.87205
11
6.02309
21
-3.87223
0
LINE
8
BLACK
6
CONTINUOUS
10
6.04277
20
-3.87223
11
6.04357
21
-3.87277
0
LINE
8
BLACK
6
CONTINUOUS
10
6.04357
20
-3.87277
11
6.0441
21
-3.87357
0
LINE
8
BLACK
6
CONTINUOUS
10
6.0441
20
-3.87357
11
6.04429
21
-3.87451
0
LINE
8
BLACK
6
CONTINUOUS
10
6.04429
20
-3.87451
11
6.04429
21
-3.90207
0
LINE
8
BLACK
6
CONTINUOUS
10
6.04429
20
-3.90207
11
6.0441
21
-3.90301
0
LINE
8
BLACK
6
CONTINUOUS
10
6.0441
20
-3.90301
11
6.04357
21
-3.90381
0
LINE
8
BLACK
6
CONTINUOUS
10
6.04357
20
-3.90381
11
6.04277
21
-3.90434
0
LINE
8
BLACK
6
CONTINUOUS
10
6.04277
20
-3.90434
11
6.04183
21
-3.90453
0
LINE
8
BLACK
6
CONTINUOUS
10
6.04183
20
-3.90453
11
6.03691
21
-3.90453
0
LINE
8
BLACK
6
CONTINUOUS
10
6.03691
20
-3.90453
11
6.03597
21
-3.90434
0
LINE
8
BLACK
6
CONTINUOUS
10
6.03597
20
-3.90434
11
6.03517
21
-3.90381
0
LINE
8
BLACK
6
CONTINUOUS
10
6.03517
20
-3.90381
11
6.03464
21
-3.90301
0
LINE
8
BLACK
6
CONTINUOUS
10
6.03464
20
-3.90301
11
6.03445
21
-3.90207
0
LINE
8
BLACK
6
CONTINUOUS
10
6.03445
20
-3.90207
11
6.03445
21
-3.87451
0
LINE
8
BLACK
6
CONTINUOUS
10
6.03445
20
-3.87451
11
6.03464
21
-3.87357
0
LINE
8
BLACK
6
CONTINUOUS
10
6.03464
20
-3.87357
11
6.03517
21
-3.87277
0
LINE
8
BLACK
6
CONTINUOUS
10
6.03517
20
-3.87277
11
6.03597
21
-3.87223
0
LINE
8
BLACK
6
CONTINUOUS
10
6.03597
20
-3.87223
11
6.03691
21
-3.87205
0
LINE
8
BLACK
6
CONTINUOUS
10
6.03691
20
-3.87205
11
6.04183
21
-3.87205
0
LINE
8
BLACK
6
CONTINUOUS
10
6.04183
20
-3.87205
11
6.04277
21
-3.87223
0
LINE
8
BLACK
6
CONTINUOUS
10
6.06246
20
-3.87223
11
6.06326
21
-3.87277
0
LINE
8
BLACK
6
CONTINUOUS
10
6.06326
20
-3.87277
11
6.06379
21
-3.87357
0
LINE
8
BLACK
6
CONTINUOUS
10
6.06379
20
-3.87357
11
6.06398
21
-3.87451
0
LINE
8
BLACK
6
CONTINUOUS
10
6.06398
20
-3.87451
11
6.06398
21
-3.90207
0
LINE
8
BLACK
6
CONTINUOUS
10
6.06398
20
-3.90207
11
6.06379
21
-3.90301
0
LINE
8
BLACK
6
CONTINUOUS
10
6.06379
20
-3.90301
11
6.06326
21
-3.90381
0
LINE
8
BLACK
6
CONTINUOUS
10
6.06326
20
-3.90381
11
6.06246
21
-3.90434
0
LINE
8
BLACK
6
CONTINUOUS
10
6.06246
20
-3.90434
11
6.06152
21
-3.90453
0
LINE
8
BLACK
6
CONTINUOUS
10
6.06152
20
-3.90453
11
6.05659
21
-3.90453
0
LINE
8
BLACK
6
CONTINUOUS
10
6.05659
20
-3.90453
11
6.05565
21
-3.90434
0
LINE
8
BLACK
6
CONTINUOUS
10
6.05565
20
-3.90434
11
6.05485
21
-3.90381
0
LINE
8
BLACK
6
CONTINUOUS
10
6.05485
20
-3.90381
11
6.05432
21
-3.90301
0
LINE
8
BLACK
6
CONTINUOUS
10
6.05432
20
-3.90301
11
6.05413
21
-3.90207
0
LINE
8
BLACK
6
CONTINUOUS
10
6.05413
20
-3.90207
11
6.05413
21
-3.87451
0
LINE
8
BLACK
6
CONTINUOUS
10
6.05413
20
-3.87451
11
6.05432
21
-3.87357
0
LINE
8
BLACK
6
CONTINUOUS
10
6.05432
20
-3.87357
11
6.05485
21
-3.87277
0
LINE
8
BLACK
6
CONTINUOUS
10
6.05485
20
-3.87277
11
6.05565
21
-3.87223
0
LINE
8
BLACK
6
CONTINUOUS
10
6.05565
20
-3.87223
11
6.05659
21
-3.87205
0
LINE
8
BLACK
6
CONTINUOUS
10
6.05659
20
-3.87205
11
6.06152
21
-3.87205
0
LINE
8
BLACK
6
CONTINUOUS
10
6.06152
20
-3.87205
11
6.06246
21
-3.87223
0
LINE
8
BLACK
6
CONTINUOUS
10
6.08214
20
-3.87223
11
6.08294
21
-3.87277
0
LINE
8
BLACK
6
CONTINUOUS
10
6.08294
20
-3.87277
11
6.08347
21
-3.87357
0
LINE
8
BLACK
6
CONTINUOUS
10
6.08347
20
-3.87357
11
6.08366
21
-3.87451
0
LINE
8
BLACK
6
CONTINUOUS
10
6.08366
20
-3.87451
11
6.08366
21
-3.90207
0
LINE
8
BLACK
6
CONTINUOUS
10
6.08366
20
-3.90207
11
6.08347
21
-3.90301
0
LINE
8
BLACK
6
CONTINUOUS
10
6.08347
20
-3.90301
11
6.08294
21
-3.90381
0
LINE
8
BLACK
6
CONTINUOUS
10
6.08294
20
-3.90381
11
6.08214
21
-3.90434
0
LINE
8
BLACK
6
CONTINUOUS
10
6.08214
20
-3.90434
11
6.0812
21
-3.90453
0
LINE
8
BLACK
6
CONTINUOUS
10
6.0812
20
-3.90453
11
6.07628
21
-3.90453
0
LINE
8
BLACK
6
CONTINUOUS
10
6.07628
20
-3.90453
11
6.07534
21
-3.90434
0
LINE
8
BLACK
6
CONTINUOUS
10
6.07534
20
-3.90434
11
6.07454
21
-3.90381
0
LINE
8
BLACK
6
CONTINUOUS
10
6.07454
20
-3.90381
11
6.07401
21
-3.90301
0
LINE
8
BLACK
6
CONTINUOUS
10
6.07401
20
-3.90301
11
6.07382
21
-3.90207
0
LINE
8
BLACK
6
CONTINUOUS
10
6.07382
20
-3.90207
11
6.07382
21
-3.87451
0
LINE
8
BLACK
6
CONTINUOUS
10
6.07382
20
-3.87451
11
6.07401
21
-3.87357
0
LINE
8
BLACK
6
CONTINUOUS
10
6.07401
20
-3.87357
11
6.07454
21
-3.87277
0
LINE
8
BLACK
6
CONTINUOUS
10
6.07454
20
-3.87277
11
6.07534
21
-3.87223
0
LINE
8
BLACK
6
CONTINUOUS
10
6.07534
20
-3.87223
11
6.07628
21
-3.87205
0
LINE
8
BLACK
6
CONTINUOUS
10
6.07628
20
-3.87205
11
6.0812
21
-3.87205
0
LINE
8
BLACK
6
CONTINUOUS
10
6.0812
20
-3.87205
11
6.08214
21
-3.87223
0
LINE
8
BLACK
6
CONTINUOUS
10
5.66619
20
-3.8865
11
5.62091
21
-3.8865
0
LINE
8
BLACK
6
CONTINUOUS
10
5.62091
20
-3.8865
11
5.62091
21
-3.87469
0
LINE
8
BLACK
6
CONTINUOUS
10
5.62091
20
-3.87469
11
5.66619
21
-3.87469
0
LINE
8
BLACK
6
CONTINUOUS
10
5.66619
20
-3.87469
11
5.66619
21
-3.8865
0
LINE
8
BLACK
6
CONTINUOUS
10
5.66619
20
-3.86681
11
5.62091
21
-3.86681
0
LINE
8
BLACK
6
CONTINUOUS
10
5.62091
20
-3.86681
11
5.62091
21
-3.84319
0
LINE
8
BLACK
6
CONTINUOUS
10
5.62091
20
-3.84319
11
5.66619
21
-3.84319
0
LINE
8
BLACK
6
CONTINUOUS
10
5.66619
20
-3.84319
11
5.66619
21
-3.86681
0
LINE
8
BLACK
6
CONTINUOUS
10
6.49357
20
-3.81473
11
6.49676
21
-3.81686
0
LINE
8
BLACK
6
CONTINUOUS
10
6.49676
20
-3.81686
11
6.4989
21
-3.82005
0
LINE
8
BLACK
6
CONTINUOUS
10
6.4989
20
-3.82005
11
6.49965
21
-3.82382
0
LINE
8
BLACK
6
CONTINUOUS
10
6.49965
20
-3.82382
11
6.49965
21
-3.8435
0
LINE
8
BLACK
6
CONTINUOUS
10
6.49965
20
-3.8435
11
6.4989
21
-3.84727
0
LINE
8
BLACK
6
CONTINUOUS
10
6.4989
20
-3.84727
11
6.49676
21
-3.85046
0
LINE
8
BLACK
6
CONTINUOUS
10
6.49676
20
-3.85046
11
6.49357
21
-3.8526
0
LINE
8
BLACK
6
CONTINUOUS
10
6.49357
20
-3.8526
11
6.4898
21
-3.85335
0
LINE
8
BLACK
6
CONTINUOUS
10
6.4898
20
-3.85335
11
6.40319
21
-3.85335
0
LINE
8
BLACK
6
CONTINUOUS
10
6.40319
20
-3.85335
11
6.39942
21
-3.8526
0
LINE
8
BLACK
6
CONTINUOUS
10
6.39942
20
-3.8526
11
6.39623
21
-3.85046
0
LINE
8
BLACK
6
CONTINUOUS
10
6.39623
20
-3.85046
11
6.3941
21
-3.84727
0
LINE
8
BLACK
6
CONTINUOUS
10
6.3941
20
-3.84727
11
6.39335
21
-3.8435
0
LINE
8
BLACK
6
CONTINUOUS
10
6.39335
20
-3.8435
11
6.39335
21
-3.82382
0
LINE
8
BLACK
6
CONTINUOUS
10
6.39335
20
-3.82382
11
6.3941
21
-3.82005
0
LINE
8
BLACK
6
CONTINUOUS
10
6.3941
20
-3.82005
11
6.39623
21
-3.81686
0
LINE
8
BLACK
6
CONTINUOUS
10
6.39623
20
-3.81686
11
6.39942
21
-3.81473
0
LINE
8
BLACK
6
CONTINUOUS
10
6.39942
20
-3.81473
11
6.40319
21
-3.81398
0
LINE
8
BLACK
6
CONTINUOUS
10
6.40319
20
-3.81398
11
6.4898
21
-3.81398
0
LINE
8
BLACK
6
CONTINUOUS
10
6.4898
20
-3.81398
11
6.49357
21
-3.81473
0
LINE
8
BLACK
6
CONTINUOUS
10
6.16738
20
-3.81556
11
6.16994
21
-3.81727
0
LINE
8
BLACK
6
CONTINUOUS
10
6.16994
20
-3.81727
11
6.17164
21
-3.81982
0
LINE
8
BLACK
6
CONTINUOUS
10
6.17164
20
-3.81982
11
6.17224
21
-3.82283
0
LINE
8
BLACK
6
CONTINUOUS
10
6.17224
20
-3.82283
11
6.17224
21
-3.83858
0
LINE
8
BLACK
6
CONTINUOUS
10
6.17224
20
-3.83858
11
6.17164
21
-3.8416
0
LINE
8
BLACK
6
CONTINUOUS
10
6.17164
20
-3.8416
11
6.16994
21
-3.84415
0
LINE
8
BLACK
6
CONTINUOUS
10
6.16994
20
-3.84415
11
6.16738
21
-3.84586
0
LINE
8
BLACK
6
CONTINUOUS
10
6.16738
20
-3.84586
11
6.16437
21
-3.84646
0
LINE
8
BLACK
6
CONTINUOUS
10
6.16437
20
-3.84646
11
6.14272
21
-3.84646
0
LINE
8
BLACK
6
CONTINUOUS
10
6.14272
20
-3.84646
11
6.1397
21
-3.84586
0
LINE
8
BLACK
6
CONTINUOUS
10
6.1397
20
-3.84586
11
6.13715
21
-3.84415
0
LINE
8
BLACK
6
CONTINUOUS
10
6.13715
20
-3.84415
11
6.13544
21
-3.8416
0
LINE
8
BLACK
6
CONTINUOUS
10
6.13544
20
-3.8416
11
6.13484
21
-3.83858
0
LINE
8
BLACK
6
CONTINUOUS
10
6.13484
20
-3.83858
11
6.13484
21
-3.82283
0
LINE
8
BLACK
6
CONTINUOUS
10
6.13484
20
-3.82283
11
6.13544
21
-3.81982
0
LINE
8
BLACK
6
CONTINUOUS
10
6.13544
20
-3.81982
11
6.13715
21
-3.81727
0
LINE
8
BLACK
6
CONTINUOUS
10
6.13715
20
-3.81727
11
6.1397
21
-3.81556
0
LINE
8
BLACK
6
CONTINUOUS
10
6.1397
20
-3.81556
11
6.14272
21
-3.81496
0
LINE
8
BLACK
6
CONTINUOUS
10
6.14272
20
-3.81496
11
6.16437
21
-3.81496
0
LINE
8
BLACK
6
CONTINUOUS
10
6.16437
20
-3.81496
11
6.16738
21
-3.81556
0
LINE
8
BLACK
6
CONTINUOUS
10
5.9778
20
-3.80579
11
5.98067
21
-3.80771
0
LINE
8
BLACK
6
CONTINUOUS
10
5.98067
20
-3.80771
11
5.98259
21
-3.81059
0
LINE
8
BLACK
6
CONTINUOUS
10
5.98259
20
-3.81059
11
5.98327
21
-3.81398
0
LINE
8
BLACK
6
CONTINUOUS
10
5.98327
20
-3.81398
11
5.98327
21
-3.83169
0
LINE
8
BLACK
6
CONTINUOUS
10
5.98327
20
-3.83169
11
5.98259
21
-3.83508
0
LINE
8
BLACK
6
CONTINUOUS
10
5.98259
20
-3.83508
11
5.98067
21
-3.83796
0
LINE
8
BLACK
6
CONTINUOUS
10
5.98067
20
-3.83796
11
5.9778
21
-3.83988
0
LINE
8
BLACK
6
CONTINUOUS
10
5.9778
20
-3.83988
11
5.97441
21
-3.84055
0
LINE
8
BLACK
6
CONTINUOUS
10
5.97441
20
-3.84055
11
5.95472
21
-3.84055
0
LINE
8
BLACK
6
CONTINUOUS
10
5.95472
20
-3.84055
11
5.95133
21
-3.83988
0
LINE
8
BLACK
6
CONTINUOUS
10
5.95133
20
-3.83988
11
5.94846
21
-3.83796
0
LINE
8
BLACK
6
CONTINUOUS
10
5.94846
20
-3.83796
11
5.94654
21
-3.83508
0
LINE
8
BLACK
6
CONTINUOUS
10
5.94654
20
-3.83508
11
5.94587
21
-3.83169
0
LINE
8
BLACK
6
CONTINUOUS
10
5.94587
20
-3.83169
11
5.94587
21
-3.81398
0
LINE
8
BLACK
6
CONTINUOUS
10
5.94587
20
-3.81398
11
5.94654
21
-3.81059
0
LINE
8
BLACK
6
CONTINUOUS
10
5.94654
20
-3.81059
11
5.94846
21
-3.80771
0
LINE
8
BLACK
6
CONTINUOUS
10
5.94846
20
-3.80771
11
5.95133
21
-3.80579
0
LINE
8
BLACK
6
CONTINUOUS
10
5.95133
20
-3.80579
11
5.95472
21
-3.80512
0
LINE
8
BLACK
6
CONTINUOUS
10
5.95472
20
-3.80512
11
5.97441
21
-3.80512
0
LINE
8
BLACK
6
CONTINUOUS
10
5.97441
20
-3.80512
11
5.9778
21
-3.80579
0
LINE
8
BLACK
6
CONTINUOUS
10
6.04867
20
-3.80579
11
6.05154
21
-3.80771
0
LINE
8
BLACK
6
CONTINUOUS
10
6.05154
20
-3.80771
11
6.05346
21
-3.81059
0
LINE
8
BLACK
6
CONTINUOUS
10
6.05346
20
-3.81059
11
6.05413
21
-3.81398
0
LINE
8
BLACK
6
CONTINUOUS
10
6.05413
20
-3.81398
11
6.05413
21
-3.83169
0
LINE
8
BLACK
6
CONTINUOUS
10
6.05413
20
-3.83169
11
6.05346
21
-3.83508
0
LINE
8
BLACK
6
CONTINUOUS
10
6.05346
20
-3.83508
11
6.05154
21
-3.83796
0
LINE
8
BLACK
6
CONTINUOUS
10
6.05154
20
-3.83796
11
6.04867
21
-3.83988
0
LINE
8
BLACK
6
CONTINUOUS
10
6.04867
20
-3.83988
11
6.04528
21
-3.84055
0
LINE
8
BLACK
6
CONTINUOUS
10
6.04528
20
-3.84055
11
6.02559
21
-3.84055
0
LINE
8
BLACK
6
CONTINUOUS
10
6.02559
20
-3.84055
11
6.0222
21
-3.83988
0
LINE
8
BLACK
6
CONTINUOUS
10
6.0222
20
-3.83988
11
6.01933
21
-3.83796
0
LINE
8
BLACK
6
CONTINUOUS
10
6.01933
20
-3.83796
11
6.01741
21
-3.83508
0
LINE
8
BLACK
6
CONTINUOUS
10
6.01741
20
-3.83508
11
6.01673
21
-3.83169
0
LINE
8
BLACK
6
CONTINUOUS
10
6.01673
20
-3.83169
11
6.01673
21
-3.81398
0
LINE
8
BLACK
6
CONTINUOUS
10
6.01673
20
-3.81398
11
6.01741
21
-3.81059
0
LINE
8
BLACK
6
CONTINUOUS
10
6.01741
20
-3.81059
11
6.01933
21
-3.80771
0
LINE
8
BLACK
6
CONTINUOUS
10
6.01933
20
-3.80771
11
6.0222
21
-3.80579
0
LINE
8
BLACK
6
CONTINUOUS
10
6.0222
20
-3.80579
11
6.02559
21
-3.80512
0
LINE
8
BLACK
6
CONTINUOUS
10
6.02559
20
-3.80512
11
6.04528
21
-3.80512
0
LINE
8
BLACK
6
CONTINUOUS
10
6.04528
20
-3.80512
11
6.04867
21
-3.80579
0
LINE
8
BLACK
6
CONTINUOUS
10
5.66619
20
-3.83531
11
5.62091
21
-3.83531
0
LINE
8
BLACK
6
CONTINUOUS
10
5.62091
20
-3.83531
11
5.62091
21
-3.81169
0
LINE
8
BLACK
6
CONTINUOUS
10
5.62091
20
-3.81169
11
5.66619
21
-3.81169
0
LINE
8
BLACK
6
CONTINUOUS
10
5.66619
20
-3.81169
11
5.66619
21
-3.83531
0
LINE
8
BLACK
6
CONTINUOUS
10
6.16738
20
-3.7506
11
6.16994
21
-3.75231
0
LINE
8
BLACK
6
CONTINUOUS
10
6.16994
20
-3.75231
11
6.17164
21
-3.75486
0
LINE
8
BLACK
6
CONTINUOUS
10
6.17164
20
-3.75486
11
6.17224
21
-3.75787
0
LINE
8
BLACK
6
CONTINUOUS
10
6.17224
20
-3.75787
11
6.17224
21
-3.77362
0
LINE
8
BLACK
6
CONTINUOUS
10
6.17224
20
-3.77362
11
6.17164
21
-3.77664
0
LINE
8
BLACK
6
CONTINUOUS
10
6.17164
20
-3.77664
11
6.16994
21
-3.77919
0
LINE
8
BLACK
6
CONTINUOUS
10
6.16994
20
-3.77919
11
6.16738
21
-3.7809
0
LINE
8
BLACK
6
CONTINUOUS
10
6.16738
20
-3.7809
11
6.16437
21
-3.7815
0
LINE
8
BLACK
6
CONTINUOUS
10
6.16437
20
-3.7815
11
6.14272
21
-3.7815
0
LINE
8
BLACK
6
CONTINUOUS
10
6.14272
20
-3.7815
11
6.1397
21
-3.7809
0
LINE
8
BLACK
6
CONTINUOUS
10
6.1397
20
-3.7809
11
6.13715
21
-3.77919
0
LINE
8
BLACK
6
CONTINUOUS
10
6.13715
20
-3.77919
11
6.13544
21
-3.77664
0
LINE
8
BLACK
6
CONTINUOUS
10
6.13544
20
-3.77664
11
6.13484
21
-3.77362
0
LINE
8
BLACK
6
CONTINUOUS
10
6.13484
20
-3.77362
11
6.13484
21
-3.75787
0
LINE
8
BLACK
6
CONTINUOUS
10
6.13484
20
-3.75787
11
6.13544
21
-3.75486
0
LINE
8
BLACK
6
CONTINUOUS
10
6.13544
20
-3.75486
11
6.13715
21
-3.75231
0
LINE
8
BLACK
6
CONTINUOUS
10
6.13715
20
-3.75231
11
6.1397
21
-3.7506
0
LINE
8
BLACK
6
CONTINUOUS
10
6.1397
20
-3.7506
11
6.14272
21
-3.75
0
LINE
8
BLACK
6
CONTINUOUS
10
6.14272
20
-3.75
11
6.16437
21
-3.75
0
LINE
8
BLACK
6
CONTINUOUS
10
6.16437
20
-3.75
11
6.16738
21
-3.7506
0
LINE
8
BLACK
6
CONTINUOUS
10
5.9778
20
-3.74477
11
5.98067
21
-3.74669
0
LINE
8
BLACK
6
CONTINUOUS
10
5.98067
20
-3.74669
11
5.98259
21
-3.74956
0
LINE
8
BLACK
6
CONTINUOUS
10
5.98259
20
-3.74956
11
5.98327
21
-3.75295
0
LINE
8
BLACK
6
CONTINUOUS
10
5.98327
20
-3.75295
11
5.98327
21
-3.77067
0
LINE
8
BLACK
6
CONTINUOUS
10
5.98327
20
-3.77067
11
5.98259
21
-3.77406
0
LINE
8
BLACK
6
CONTINUOUS
10
5.98259
20
-3.77406
11
5.98067
21
-3.77693
0
LINE
8
BLACK
6
CONTINUOUS
10
5.98067
20
-3.77693
11
5.9778
21
-3.77885
0
LINE
8
BLACK
6
CONTINUOUS
10
5.9778
20
-3.77885
11
5.97441
21
-3.77953
0
LINE
8
BLACK
6
CONTINUOUS
10
5.97441
20
-3.77953
11
5.95472
21
-3.77953
0
LINE
8
BLACK
6
CONTINUOUS
10
5.95472
20
-3.77953
11
5.95133
21
-3.77885
0
LINE
8
BLACK
6
CONTINUOUS
10
5.95133
20
-3.77885
11
5.94846
21
-3.77693
0
LINE
8
BLACK
6
CONTINUOUS
10
5.94846
20
-3.77693
11
5.94654
21
-3.77406
0
LINE
8
BLACK
6
CONTINUOUS
10
5.94654
20
-3.77406
11
5.94587
21
-3.77067
0
LINE
8
BLACK
6
CONTINUOUS
10
5.94587
20
-3.77067
11
5.94587
21
-3.75295
0
LINE
8
BLACK
6
CONTINUOUS
10
5.94587
20
-3.75295
11
5.94654
21
-3.74956
0
LINE
8
BLACK
6
CONTINUOUS
10
5.94654
20
-3.74956
11
5.94846
21
-3.74669
0
LINE
8
BLACK
6
CONTINUOUS
10
5.94846
20
-3.74669
11
5.95133
21
-3.74477
0
LINE
8
BLACK
6
CONTINUOUS
10
5.95133
20
-3.74477
11
5.95472
21
-3.74409
0
LINE
8
BLACK
6
CONTINUOUS
10
5.95472
20
-3.74409
11
5.97441
21
-3.74409
0
LINE
8
BLACK
6
CONTINUOUS
10
5.97441
20
-3.74409
11
5.9778
21
-3.74477
0
LINE
8
BLACK
6
CONTINUOUS
10
6.04867
20
-3.74477
11
6.05154
21
-3.74669
0
LINE
8
BLACK
6
CONTINUOUS
10
6.05154
20
-3.74669
11
6.05346
21
-3.74956
0
LINE
8
BLACK
6
CONTINUOUS
10
6.05346
20
-3.74956
11
6.05413
21
-3.75295
0
LINE
8
BLACK
6
CONTINUOUS
10
6.05413
20
-3.75295
11
6.05413
21
-3.77067
0
LINE
8
BLACK
6
CONTINUOUS
10
6.05413
20
-3.77067
11
6.05346
21
-3.77406
0
LINE
8
BLACK
6
CONTINUOUS
10
6.05346
20
-3.77406
11
6.05154
21
-3.77693
0
LINE
8
BLACK
6
CONTINUOUS
10
6.05154
20
-3.77693
11
6.04867
21
-3.77885
0
LINE
8
BLACK
6
CONTINUOUS
10
6.04867
20
-3.77885
11
6.04528
21
-3.77953
0
LINE
8
BLACK
6
CONTINUOUS
10
6.04528
20
-3.77953
11
6.02559
21
-3.77953
0
LINE
8
BLACK
6
CONTINUOUS
10
6.02559
20
-3.77953
11
6.0222
21
-3.77885
0
LINE
8
BLACK
6
CONTINUOUS
10
6.0222
20
-3.77885
11
6.01933
21
-3.77693
0
LINE
8
BLACK
6
CONTINUOUS
10
6.01933
20
-3.77693
11
6.01741
21
-3.77406
0
LINE
8
BLACK
6
CONTINUOUS
10
6.01741
20
-3.77406
11
6.01673
21
-3.77067
0
LINE
8
BLACK
6
CONTINUOUS
10
6.01673
20
-3.77067
11
6.01673
21
-3.75295
0
LINE
8
BLACK
6
CONTINUOUS
10
6.01673
20
-3.75295
11
6.01741
21
-3.74956
0
LINE
8
BLACK
6
CONTINUOUS
10
6.01741
20
-3.74956
11
6.01933
21
-3.74669
0
LINE
8
BLACK
6
CONTINUOUS
10
6.01933
20
-3.74669
11
6.0222
21
-3.74477
0
LINE
8
BLACK
6
CONTINUOUS
10
6.0222
20
-3.74477
11
6.02559
21
-3.74409
0
LINE
8
BLACK
6
CONTINUOUS
10
6.02559
20
-3.74409
11
6.04528
21
-3.74409
0
LINE
8
BLACK
6
CONTINUOUS
10
6.04528
20
-3.74409
11
6.04867
21
-3.74477
0
LINE
8
BLACK
6
CONTINUOUS
10
6.35033
20
-3.74947
11
6.35225
21
-3.75075
0
LINE
8
BLACK
6
CONTINUOUS
10
6.35225
20
-3.75075
11
6.35353
21
-3.75266
0
LINE
8
BLACK
6
CONTINUOUS
10
6.35353
20
-3.75266
11
6.35398
21
-3.75492
0
LINE
8
BLACK
6
CONTINUOUS
10
6.35398
20
-3.75492
11
6.35398
21
-3.76673
0
LINE
8
BLACK
6
CONTINUOUS
10
6.35398
20
-3.76673
11
6.35353
21
-3.76899
0
LINE
8
BLACK
6
CONTINUOUS
10
6.35353
20
-3.76899
11
6.35225
21
-3.77091
0
LINE
8
BLACK
6
CONTINUOUS
10
6.35225
20
-3.77091
11
6.35033
21
-3.77219
0
LINE
8
BLACK
6
CONTINUOUS
10
6.35033
20
-3.77219
11
6.34807
21
-3.77264
0
LINE
8
BLACK
6
CONTINUOUS
10
6.34807
20
-3.77264
11
6.29295
21
-3.77264
0
LINE
8
BLACK
6
CONTINUOUS
10
6.29295
20
-3.77264
11
6.29069
21
-3.77219
0
LINE
8
BLACK
6
CONTINUOUS
10
6.29069
20
-3.77219
11
6.28878
21
-3.77091
0
LINE
8
BLACK
6
CONTINUOUS
10
6.28878
20
-3.77091
11
6.2875
21
-3.76899
0
LINE
8
BLACK
6
CONTINUOUS
10
6.2875
20
-3.76899
11
6.28705
21
-3.76673
0
LINE
8
BLACK
6
CONTINUOUS
10
6.28705
20
-3.76673
11
6.28705
21
-3.75492
0
LINE
8
BLACK
6
CONTINUOUS
10
6.28705
20
-3.75492
11
6.2875
21
-3.75266
0
LINE
8
BLACK
6
CONTINUOUS
10
6.2875
20
-3.75266
11
6.28878
21
-3.75075
0
LINE
8
BLACK
6
CONTINUOUS
10
6.28878
20
-3.75075
11
6.29069
21
-3.74947
0
LINE
8
BLACK
6
CONTINUOUS
10
6.29069
20
-3.74947
11
6.29295
21
-3.74902
0
LINE
8
BLACK
6
CONTINUOUS
10
6.29295
20
-3.74902
11
6.34807
21
-3.74902
0
LINE
8
BLACK
6
CONTINUOUS
10
6.34807
20
-3.74902
11
6.35033
21
-3.74947
0
LINE
8
BLACK
6
CONTINUOUS
10
6.35033
20
-3.70025
11
6.35225
21
-3.70153
0
LINE
8
BLACK
6
CONTINUOUS
10
6.35225
20
-3.70153
11
6.35353
21
-3.70345
0
LINE
8
BLACK
6
CONTINUOUS
10
6.35353
20
-3.70345
11
6.35398
21
-3.70571
0
LINE
8
BLACK
6
CONTINUOUS
10
6.35398
20
-3.70571
11
6.35398
21
-3.71752
0
LINE
8
BLACK
6
CONTINUOUS
10
6.35398
20
-3.71752
11
6.35353
21
-3.71978
0
LINE
8
BLACK
6
CONTINUOUS
10
6.35353
20
-3.71978
11
6.35225
21
-3.7217
0
LINE
8
BLACK
6
CONTINUOUS
10
6.35225
20
-3.7217
11
6.35033
21
-3.72298
0
LINE
8
BLACK
6
CONTINUOUS
10
6.35033
20
-3.72298
11
6.34807
21
-3.72343
0
LINE
8
BLACK
6
CONTINUOUS
10
6.34807
20
-3.72343
11
6.29295
21
-3.72343
0
LINE
8
BLACK
6
CONTINUOUS
10
6.29295
20
-3.72343
11
6.29069
21
-3.72298
0
LINE
8
BLACK
6
CONTINUOUS
10
6.29069
20
-3.72298
11
6.28878
21
-3.7217
0
LINE
8
BLACK
6
CONTINUOUS
10
6.28878
20
-3.7217
11
6.2875
21
-3.71978
0
LINE
8
BLACK
6
CONTINUOUS
10
6.2875
20
-3.71978
11
6.28705
21
-3.71752
0
LINE
8
BLACK
6
CONTINUOUS
10
6.28705
20
-3.71752
11
6.28705
21
-3.70571
0
LINE
8
BLACK
6
CONTINUOUS
10
6.28705
20
-3.70571
11
6.2875
21
-3.70345
0
LINE
8
BLACK
6
CONTINUOUS
10
6.2875
20
-3.70345
11
6.28878
21
-3.70153
0
LINE
8
BLACK
6
CONTINUOUS
10
6.28878
20
-3.70153
11
6.29069
21
-3.70025
0
LINE
8
BLACK
6
CONTINUOUS
10
6.29069
20
-3.70025
11
6.29295
21
-3.6998
0
LINE
8
BLACK
6
CONTINUOUS
10
6.29295
20
-3.6998
11
6.34807
21
-3.6998
0
LINE
8
BLACK
6
CONTINUOUS
10
6.34807
20
-3.6998
11
6.35033
21
-3.70025
0
LINE
8
BLACK
6
CONTINUOUS
10
5.94675
20
-3.67481
11
5.94931
21
-3.67652
0
LINE
8
BLACK
6
CONTINUOUS
10
5.94931
20
-3.67652
11
5.95101
21
-3.67907
0
LINE
8
BLACK
6
CONTINUOUS
10
5.95101
20
-3.67907
11
5.95161
21
-3.68209
0
LINE
8
BLACK
6
CONTINUOUS
10
5.95161
20
-3.68209
11
5.95161
21
-3.70374
0
LINE
8
BLACK
6
CONTINUOUS
10
5.95161
20
-3.70374
11
5.95101
21
-3.70675
0
LINE
8
BLACK
6
CONTINUOUS
10
5.95101
20
-3.70675
11
5.94931
21
-3.70931
0
LINE
8
BLACK
6
CONTINUOUS
10
5.94931
20
-3.70931
11
5.94675
21
-3.71101
0
LINE
8
BLACK
6
CONTINUOUS
10
5.94675
20
-3.71101
11
5.94374
21
-3.71161
0
LINE
8
BLACK
6
CONTINUOUS
10
5.94374
20
-3.71161
11
5.92799
21
-3.71161
0
LINE
8
BLACK
6
CONTINUOUS
10
5.92799
20
-3.71161
11
5.92498
21
-3.71101
0
LINE
8
BLACK
6
CONTINUOUS
10
5.92498
20
-3.71101
11
5.92242
21
-3.70931
0
LINE
8
BLACK
6
CONTINUOUS
10
5.92242
20
-3.70931
11
5.92072
21
-3.70675
0
LINE
8
BLACK
6
CONTINUOUS
10
5.92072
20
-3.70675
11
5.92012
21
-3.70374
0
LINE
8
BLACK
6
CONTINUOUS
10
5.92012
20
-3.70374
11
5.92012
21
-3.68209
0
LINE
8
BLACK
6
CONTINUOUS
10
5.92012
20
-3.68209
11
5.92072
21
-3.67907
0
LINE
8
BLACK
6
CONTINUOUS
10
5.92072
20
-3.67907
11
5.92242
21
-3.67652
0
LINE
8
BLACK
6
CONTINUOUS
10
5.92242
20
-3.67652
11
5.92498
21
-3.67481
0
LINE
8
BLACK
6
CONTINUOUS
10
5.92498
20
-3.67481
11
5.92799
21
-3.67421
0
LINE
8
BLACK
6
CONTINUOUS
10
5.92799
20
-3.67421
11
5.94374
21
-3.67421
0
LINE
8
BLACK
6
CONTINUOUS
10
5.94374
20
-3.67421
11
5.94675
21
-3.67481
0
LINE
8
BLACK
6
CONTINUOUS
10
6.01171
20
-3.67481
11
6.01427
21
-3.67652
0
LINE
8
BLACK
6
CONTINUOUS
10
6.01427
20
-3.67652
11
6.01598
21
-3.67907
0
LINE
8
BLACK
6
CONTINUOUS
10
6.01598
20
-3.67907
11
6.01657
21
-3.68209
0
LINE
8
BLACK
6
CONTINUOUS
10
6.01657
20
-3.68209
11
6.01657
21
-3.70374
0
LINE
8
BLACK
6
CONTINUOUS
10
6.01657
20
-3.70374
11
6.01598
21
-3.70675
0
LINE
8
BLACK
6
CONTINUOUS
10
6.01598
20
-3.70675
11
6.01427
21
-3.70931
0
LINE
8
BLACK
6
CONTINUOUS
10
6.01427
20
-3.70931
11
6.01171
21
-3.71101
0
LINE
8
BLACK
6
CONTINUOUS
10
6.01171
20
-3.71101
11
6.0087
21
-3.71161
0
LINE
8
BLACK
6
CONTINUOUS
10
6.0087
20
-3.71161
11
5.99295
21
-3.71161
0
LINE
8
BLACK
6
CONTINUOUS
10
5.99295
20
-3.71161
11
5.98994
21
-3.71101
0
LINE
8
BLACK
6
CONTINUOUS
10
5.98994
20
-3.71101
11
5.98738
21
-3.70931
0
LINE
8
BLACK
6
CONTINUOUS
10
5.98738
20
-3.70931
11
5.98568
21
-3.70675
0
LINE
8
BLACK
6
CONTINUOUS
10
5.98568
20
-3.70675
11
5.98508
21
-3.70374
0
LINE
8
BLACK
6
CONTINUOUS
10
5.98508
20
-3.70374
11
5.98508
21
-3.68209
0
LINE
8
BLACK
6
CONTINUOUS
10
5.98508
20
-3.68209
11
5.98568
21
-3.67907
0
LINE
8
BLACK
6
CONTINUOUS
10
5.98568
20
-3.67907
11
5.98738
21
-3.67652
0
LINE
8
BLACK
6
CONTINUOUS
10
5.98738
20
-3.67652
11
5.98994
21
-3.67481
0
LINE
8
BLACK
6
CONTINUOUS
10
5.98994
20
-3.67481
11
5.99295
21
-3.67421
0
LINE
8
BLACK
6
CONTINUOUS
10
5.99295
20
-3.67421
11
6.0087
21
-3.67421
0
LINE
8
BLACK
6
CONTINUOUS
10
6.0087
20
-3.67421
11
6.01171
21
-3.67481
0
LINE
8
BLACK
6
CONTINUOUS
10
5.71219
20
-3.65489
11
5.71474
21
-3.6566
0
LINE
8
BLACK
6
CONTINUOUS
10
5.71474
20
-3.6566
11
5.71645
21
-3.65915
0
LINE
8
BLACK
6
CONTINUOUS
10
5.71645
20
-3.65915
11
5.71705
21
-3.66217
0
LINE
8
BLACK
6
CONTINUOUS
10
5.71705
20
-3.66217
11
5.71705
21
-3.67791
0
LINE
8
BLACK
6
CONTINUOUS
10
5.71705
20
-3.67791
11
5.71645
21
-3.68093
0
LINE
8
BLACK
6
CONTINUOUS
10
5.71645
20
-3.68093
11
5.71474
21
-3.68348
0
LINE
8
BLACK
6
CONTINUOUS
10
5.71474
20
-3.68348
11
5.71219
21
-3.68519
0
LINE
8
BLACK
6
CONTINUOUS
10
5.71219
20
-3.68519
11
5.70917
21
-3.68579
0
LINE
8
BLACK
6
CONTINUOUS
10
5.70917
20
-3.68579
11
5.68752
21
-3.68579
0
LINE
8
BLACK
6
CONTINUOUS
10
5.68752
20
-3.68579
11
5.68451
21
-3.68519
0
LINE
8
BLACK
6
CONTINUOUS
10
5.68451
20
-3.68519
11
5.68195
21
-3.68348
0
LINE
8
BLACK
6
CONTINUOUS
10
5.68195
20
-3.68348
11
5.68025
21
-3.68093
0
LINE
8
BLACK
6
CONTINUOUS
10
5.68025
20
-3.68093
11
5.67965
21
-3.67791
0
LINE
8
BLACK
6
CONTINUOUS
10
5.67965
20
-3.67791
11
5.67965
21
-3.66217
0
LINE
8
BLACK
6
CONTINUOUS
10
5.67965
20
-3.66217
11
5.68025
21
-3.65915
0
LINE
8
BLACK
6
CONTINUOUS
10
5.68025
20
-3.65915
11
5.68195
21
-3.6566
0
LINE
8
BLACK
6
CONTINUOUS
10
5.68195
20
-3.6566
11
5.68451
21
-3.65489
0
LINE
8
BLACK
6
CONTINUOUS
10
5.68451
20
-3.65489
11
5.68752
21
-3.65429
0
LINE
8
BLACK
6
CONTINUOUS
10
5.68752
20
-3.65429
11
5.70917
21
-3.65429
0
LINE
8
BLACK
6
CONTINUOUS
10
5.70917
20
-3.65429
11
5.71219
21
-3.65489
0
LINE
8
BLACK
6
CONTINUOUS
10
5.51719
20
-3.65485
11
5.51974
21
-3.65656
0
LINE
8
BLACK
6
CONTINUOUS
10
5.51974
20
-3.65656
11
5.52145
21
-3.65911
0
LINE
8
BLACK
6
CONTINUOUS
10
5.52145
20
-3.65911
11
5.52205
21
-3.66213
0
LINE
8
BLACK
6
CONTINUOUS
10
5.52205
20
-3.66213
11
5.52205
21
-3.67787
0
LINE
8
BLACK
6
CONTINUOUS
10
5.52205
20
-3.67787
11
5.52145
21
-3.68089
0
LINE
8
BLACK
6
CONTINUOUS
10
5.52145
20
-3.68089
11
5.51974
21
-3.68344
0
LINE
8
BLACK
6
CONTINUOUS
10
5.51974
20
-3.68344
11
5.51719
21
-3.68515
0
LINE
8
BLACK
6
CONTINUOUS
10
5.51719
20
-3.68515
11
5.51417
21
-3.68575
0
LINE
8
BLACK
6
CONTINUOUS
10
5.51417
20
-3.68575
11
5.49252
21
-3.68575
0
LINE
8
BLACK
6
CONTINUOUS
10
5.49252
20
-3.68575
11
5.48951
21
-3.68515
0
LINE
8
BLACK
6
CONTINUOUS
10
5.48951
20
-3.68515
11
5.48695
21
-3.68344
0
LINE
8
BLACK
6
CONTINUOUS
10
5.48695
20
-3.68344
11
5.48525
21
-3.68089
0
LINE
8
BLACK
6
CONTINUOUS
10
5.48525
20
-3.68089
11
5.48465
21
-3.67787
0
LINE
8
BLACK
6
CONTINUOUS
10
5.48465
20
-3.67787
11
5.48465
21
-3.66213
0
LINE
8
BLACK
6
CONTINUOUS
10
5.48465
20
-3.66213
11
5.48525
21
-3.65911
0
LINE
8
BLACK
6
CONTINUOUS
10
5.48525
20
-3.65911
11
5.48695
21
-3.65656
0
LINE
8
BLACK
6
CONTINUOUS
10
5.48695
20
-3.65656
11
5.48951
21
-3.65485
0
LINE
8
BLACK
6
CONTINUOUS
10
5.48951
20
-3.65485
11
5.49252
21
-3.65425
0
LINE
8
BLACK
6
CONTINUOUS
10
5.49252
20
-3.65425
11
5.51417
21
-3.65425
0
LINE
8
BLACK
6
CONTINUOUS
10
5.51417
20
-3.65425
11
5.51719
21
-3.65485
0
LINE
8
BLACK
6
CONTINUOUS
10
5.60219
20
-3.65485
11
5.60474
21
-3.65656
0
LINE
8
BLACK
6
CONTINUOUS
10
5.60474
20
-3.65656
11
5.60645
21
-3.65911
0
LINE
8
BLACK
6
CONTINUOUS
10
5.60645
20
-3.65911
11
5.60705
21
-3.66213
0
LINE
8
BLACK
6
CONTINUOUS
10
5.60705
20
-3.66213
11
5.60705
21
-3.67787
0
LINE
8
BLACK
6
CONTINUOUS
10
5.60705
20
-3.67787
11
5.60645
21
-3.68089
0
LINE
8
BLACK
6
CONTINUOUS
10
5.60645
20
-3.68089
11
5.60474
21
-3.68344
0
LINE
8
BLACK
6
CONTINUOUS
10
5.60474
20
-3.68344
11
5.60219
21
-3.68515
0
LINE
8
BLACK
6
CONTINUOUS
10
5.60219
20
-3.68515
11
5.59917
21
-3.68575
0
LINE
8
BLACK
6
CONTINUOUS
10
5.59917
20
-3.68575
11
5.57752
21
-3.68575
0
LINE
8
BLACK
6
CONTINUOUS
10
5.57752
20
-3.68575
11
5.57451
21
-3.68515
0
LINE
8
BLACK
6
CONTINUOUS
10
5.57451
20
-3.68515
11
5.57195
21
-3.68344
0
LINE
8
BLACK
6
CONTINUOUS
10
5.57195
20
-3.68344
11
5.57025
21
-3.68089
0
LINE
8
BLACK
6
CONTINUOUS
10
5.57025
20
-3.68089
11
5.56965
21
-3.67787
0
LINE
8
BLACK
6
CONTINUOUS
10
5.56965
20
-3.67787
11
5.56965
21
-3.66213
0
LINE
8
BLACK
6
CONTINUOUS
10
5.56965
20
-3.66213
11
5.57025
21
-3.65911
0
LINE
8
BLACK
6
CONTINUOUS
10
5.57025
20
-3.65911
11
5.57195
21
-3.65656
0
LINE
8
BLACK
6
CONTINUOUS
10
5.57195
20
-3.65656
11
5.57451
21
-3.65485
0
LINE
8
BLACK
6
CONTINUOUS
10
5.57451
20
-3.65485
11
5.57752
21
-3.65425
0
LINE
8
BLACK
6
CONTINUOUS
10
5.57752
20
-3.65425
11
5.59917
21
-3.65425
0
LINE
8
BLACK
6
CONTINUOUS
10
5.59917
20
-3.65425
11
5.60219
21
-3.65485
0
LINE
8
BLACK
6
CONTINUOUS
10
5.81719
20
-3.65485
11
5.81974
21
-3.65656
0
LINE
8
BLACK
6
CONTINUOUS
10
5.81974
20
-3.65656
11
5.82145
21
-3.65911
0
LINE
8
BLACK
6
CONTINUOUS
10
5.82145
20
-3.65911
11
5.82205
21
-3.66213
0
LINE
8
BLACK
6
CONTINUOUS
10
5.82205
20
-3.66213
11
5.82205
21
-3.67787
0
LINE
8
BLACK
6
CONTINUOUS
10
5.82205
20
-3.67787
11
5.82145
21
-3.68089
0
LINE
8
BLACK
6
CONTINUOUS
10
5.82145
20
-3.68089
11
5.81974
21
-3.68344
0
LINE
8
BLACK
6
CONTINUOUS
10
5.81974
20
-3.68344
11
5.81719
21
-3.68515
0
LINE
8
BLACK
6
CONTINUOUS
10
5.81719
20
-3.68515
11
5.81417
21
-3.68575
0
LINE
8
BLACK
6
CONTINUOUS
10
5.81417
20
-3.68575
11
5.79252
21
-3.68575
0
LINE
8
BLACK
6
CONTINUOUS
10
5.79252
20
-3.68575
11
5.78951
21
-3.68515
0
LINE
8
BLACK
6
CONTINUOUS
10
5.78951
20
-3.68515
11
5.78695
21
-3.68344
0
LINE
8
BLACK
6
CONTINUOUS
10
5.78695
20
-3.68344
11
5.78525
21
-3.68089
0
LINE
8
BLACK
6
CONTINUOUS
10
5.78525
20
-3.68089
11
5.78465
21
-3.67787
0
LINE
8
BLACK
6
CONTINUOUS
10
5.78465
20
-3.67787
11
5.78465
21
-3.66213
0
LINE
8
BLACK
6
CONTINUOUS
10
5.78465
20
-3.66213
11
5.78525
21
-3.65911
0
LINE
8
BLACK
6
CONTINUOUS
10
5.78525
20
-3.65911
11
5.78695
21
-3.65656
0
LINE
8
BLACK
6
CONTINUOUS
10
5.78695
20
-3.65656
11
5.78951
21
-3.65485
0
LINE
8
BLACK
6
CONTINUOUS
10
5.78951
20
-3.65485
11
5.79252
21
-3.65425
0
LINE
8
BLACK
6
CONTINUOUS
10
5.79252
20
-3.65425
11
5.81417
21
-3.65425
0
LINE
8
BLACK
6
CONTINUOUS
10
5.81417
20
-3.65425
11
5.81719
21
-3.65485
0
LINE
8
BLACK
6
CONTINUOUS
10
6.35033
20
-3.65104
11
6.35225
21
-3.65232
0
LINE
8
BLACK
6
CONTINUOUS
10
6.35225
20
-3.65232
11
6.35353
21
-3.65424
0
LINE
8
BLACK
6
CONTINUOUS
10
6.35353
20
-3.65424
11
6.35398
21
-3.6565
0
LINE
8
BLACK
6
CONTINUOUS
10
6.35398
20
-3.6565
11
6.35398
21
-3.66831
0
LINE
8
BLACK
6
CONTINUOUS
10
6.35398
20
-3.66831
11
6.35353
21
-3.67057
0
LINE
8
BLACK
6
CONTINUOUS
10
6.35353
20
-3.67057
11
6.35225
21
-3.67248
0
LINE
8
BLACK
6
CONTINUOUS
10
6.35225
20
-3.67248
11
6.35033
21
-3.67376
0
LINE
8
BLACK
6
CONTINUOUS
10
6.35033
20
-3.67376
11
6.34807
21
-3.67421
0
LINE
8
BLACK
6
CONTINUOUS
10
6.34807
20
-3.67421
11
6.29295
21
-3.67421
0
LINE
8
BLACK
6
CONTINUOUS
10
6.29295
20
-3.67421
11
6.29069
21
-3.67376
0
LINE
8
BLACK
6
CONTINUOUS
10
6.29069
20
-3.67376
11
6.28878
21
-3.67248
0
LINE
8
BLACK
6
CONTINUOUS
10
6.28878
20
-3.67248
11
6.2875
21
-3.67057
0
LINE
8
BLACK
6
CONTINUOUS
10
6.2875
20
-3.67057
11
6.28705
21
-3.66831
0
LINE
8
BLACK
6
CONTINUOUS
10
6.28705
20
-3.66831
11
6.28705
21
-3.6565
0
LINE
8
BLACK
6
CONTINUOUS
10
6.28705
20
-3.6565
11
6.2875
21
-3.65424
0
LINE
8
BLACK
6
CONTINUOUS
10
6.2875
20
-3.65424
11
6.28878
21
-3.65232
0
LINE
8
BLACK
6
CONTINUOUS
10
6.28878
20
-3.65232
11
6.29069
21
-3.65104
0
LINE
8
BLACK
6
CONTINUOUS
10
6.29069
20
-3.65104
11
6.29295
21
-3.65059
0
LINE
8
BLACK
6
CONTINUOUS
10
6.29295
20
-3.65059
11
6.34807
21
-3.65059
0
LINE
8
BLACK
6
CONTINUOUS
10
6.34807
20
-3.65059
11
6.35033
21
-3.65104
0
LINE
8
BLACK
6
CONTINUOUS
10
5.94675
20
-3.61194
11
5.94931
21
-3.61364
0
LINE
8
BLACK
6
CONTINUOUS
10
5.94931
20
-3.61364
11
5.95101
21
-3.6162
0
LINE
8
BLACK
6
CONTINUOUS
10
5.95101
20
-3.6162
11
5.95161
21
-3.61921
0
LINE
8
BLACK
6
CONTINUOUS
10
5.95161
20
-3.61921
11
5.95161
21
-3.64087
0
LINE
8
BLACK
6
CONTINUOUS
10
5.95161
20
-3.64087
11
5.95101
21
-3.64388
0
LINE
8
BLACK
6
CONTINUOUS
10
5.95101
20
-3.64388
11
5.94931
21
-3.64643
0
LINE
8
BLACK
6
CONTINUOUS
10
5.94931
20
-3.64643
11
5.94675
21
-3.64814
0
LINE
8
BLACK
6
CONTINUOUS
10
5.94675
20
-3.64814
11
5.94374
21
-3.64874
0
LINE
8
BLACK
6
CONTINUOUS
10
5.94374
20
-3.64874
11
5.92799
21
-3.64874
0
LINE
8
BLACK
6
CONTINUOUS
10
5.92799
20
-3.64874
11
5.92498
21
-3.64814
0
LINE
8
BLACK
6
CONTINUOUS
10
5.92498
20
-3.64814
11
5.92242
21
-3.64643
0
LINE
8
BLACK
6
CONTINUOUS
10
5.92242
20
-3.64643
11
5.92072
21
-3.64388
0
LINE
8
BLACK
6
CONTINUOUS
10
5.92072
20
-3.64388
11
5.92012
21
-3.64087
0
LINE
8
BLACK
6
CONTINUOUS
10
5.92012
20
-3.64087
11
5.92012
21
-3.61921
0
LINE
8
BLACK
6
CONTINUOUS
10
5.92012
20
-3.61921
11
5.92072
21
-3.6162
0
LINE
8
BLACK
6
CONTINUOUS
10
5.92072
20
-3.6162
11
5.92242
21
-3.61364
0
LINE
8
BLACK
6
CONTINUOUS
10
5.92242
20
-3.61364
11
5.92498
21
-3.61194
0
LINE
8
BLACK
6
CONTINUOUS
10
5.92498
20
-3.61194
11
5.92799
21
-3.61134
0
LINE
8
BLACK
6
CONTINUOUS
10
5.92799
20
-3.61134
11
5.94374
21
-3.61134
0
LINE
8
BLACK
6
CONTINUOUS
10
5.94374
20
-3.61134
11
5.94675
21
-3.61194
0
LINE
8
BLACK
6
CONTINUOUS
10
6.01171
20
-3.61194
11
6.01427
21
-3.61364
0
LINE
8
BLACK
6
CONTINUOUS
10
6.01427
20
-3.61364
11
6.01598
21
-3.6162
0
LINE
8
BLACK
6
CONTINUOUS
10
6.01598
20
-3.6162
11
6.01657
21
-3.61921
0
LINE
8
BLACK
6
CONTINUOUS
10
6.01657
20
-3.61921
11
6.01657
21
-3.64087
0
LINE
8
BLACK
6
CONTINUOUS
10
6.01657
20
-3.64087
11
6.01598
21
-3.64388
0
LINE
8
BLACK
6
CONTINUOUS
10
6.01598
20
-3.64388
11
6.01427
21
-3.64643
0
LINE
8
BLACK
6
CONTINUOUS
10
6.01427
20
-3.64643
11
6.01171
21
-3.64814
0
LINE
8
BLACK
6
CONTINUOUS
10
6.01171
20
-3.64814
11
6.0087
21
-3.64874
0
LINE
8
BLACK
6
CONTINUOUS
10
6.0087
20
-3.64874
11
5.99295
21
-3.64874
0
LINE
8
BLACK
6
CONTINUOUS
10
5.99295
20
-3.64874
11
5.98994
21
-3.64814
0
LINE
8
BLACK
6
CONTINUOUS
10
5.98994
20
-3.64814
11
5.98738
21
-3.64643
0
LINE
8
BLACK
6
CONTINUOUS
10
5.98738
20
-3.64643
11
5.98568
21
-3.64388
0
LINE
8
BLACK
6
CONTINUOUS
10
5.98568
20
-3.64388
11
5.98508
21
-3.64087
0
LINE
8
BLACK
6
CONTINUOUS
10
5.98508
20
-3.64087
11
5.98508
21
-3.61921
0
LINE
8
BLACK
6
CONTINUOUS
10
5.98508
20
-3.61921
11
5.98568
21
-3.6162
0
LINE
8
BLACK
6
CONTINUOUS
10
5.98568
20
-3.6162
11
5.98738
21
-3.61364
0
LINE
8
BLACK
6
CONTINUOUS
10
5.98738
20
-3.61364
11
5.98994
21
-3.61194
0
LINE
8
BLACK
6
CONTINUOUS
10
5.98994
20
-3.61194
11
5.99295
21
-3.61134
0
LINE
8
BLACK
6
CONTINUOUS
10
5.99295
20
-3.61134
11
6.0087
21
-3.61134
0
LINE
8
BLACK
6
CONTINUOUS
10
6.0087
20
-3.61134
11
6.01171
21
-3.61194
0
LINE
8
BLACK
6
CONTINUOUS
10
6.35033
20
-3.60183
11
6.35225
21
-3.60311
0
LINE
8
BLACK
6
CONTINUOUS
10
6.35225
20
-3.60311
11
6.35353
21
-3.60502
0
LINE
8
BLACK
6
CONTINUOUS
10
6.35353
20
-3.60502
11
6.35398
21
-3.60728
0
LINE
8
BLACK
6
CONTINUOUS
10
6.35398
20
-3.60728
11
6.35398
21
-3.61909
0
LINE
8
BLACK
6
CONTINUOUS
10
6.35398
20
-3.61909
11
6.35353
21
-3.62135
0
LINE
8
BLACK
6
CONTINUOUS
10
6.35353
20
-3.62135
11
6.35225
21
-3.62327
0
LINE
8
BLACK
6
CONTINUOUS
10
6.35225
20
-3.62327
11
6.35033
21
-3.62455
0
LINE
8
BLACK
6
CONTINUOUS
10
6.35033
20
-3.62455
11
6.34807
21
-3.625
0
LINE
8
BLACK
6
CONTINUOUS
10
6.34807
20
-3.625
11
6.29295
21
-3.625
0
LINE
8
BLACK
6
CONTINUOUS
10
6.29295
20
-3.625
11
6.29069
21
-3.62455
0
LINE
8
BLACK
6
CONTINUOUS
10
6.29069
20
-3.62455
11
6.28878
21
-3.62327
0
LINE
8
BLACK
6
CONTINUOUS
10
6.28878
20
-3.62327
11
6.2875
21
-3.62135
0
LINE
8
BLACK
6
CONTINUOUS
10
6.2875
20
-3.62135
11
6.28705
21
-3.61909
0
LINE
8
BLACK
6
CONTINUOUS
10
6.28705
20
-3.61909
11
6.28705
21
-3.60728
0
LINE
8
BLACK
6
CONTINUOUS
10
6.28705
20
-3.60728
11
6.2875
21
-3.60502
0
LINE
8
BLACK
6
CONTINUOUS
10
6.2875
20
-3.60502
11
6.28878
21
-3.60311
0
LINE
8
BLACK
6
CONTINUOUS
10
6.28878
20
-3.60311
11
6.29069
21
-3.60183
0
LINE
8
BLACK
6
CONTINUOUS
10
6.29069
20
-3.60183
11
6.29295
21
-3.60138
0
LINE
8
BLACK
6
CONTINUOUS
10
6.29295
20
-3.60138
11
6.34807
21
-3.60138
0
LINE
8
BLACK
6
CONTINUOUS
10
6.34807
20
-3.60138
11
6.35033
21
-3.60183
0
LINE
8
BLACK
6
CONTINUOUS
10
5.71219
20
-3.58993
11
5.71474
21
-3.59164
0
LINE
8
BLACK
6
CONTINUOUS
10
5.71474
20
-3.59164
11
5.71645
21
-3.59419
0
LINE
8
BLACK
6
CONTINUOUS
10
5.71645
20
-3.59419
11
5.71705
21
-3.5972
0
LINE
8
BLACK
6
CONTINUOUS
10
5.71705
20
-3.5972
11
5.71705
21
-3.61295
0
LINE
8
BLACK
6
CONTINUOUS
10
5.71705
20
-3.61295
11
5.71645
21
-3.61597
0
LINE
8
BLACK
6
CONTINUOUS
10
5.71645
20
-3.61597
11
5.71474
21
-3.61852
0
LINE
8
BLACK
6
CONTINUOUS
10
5.71474
20
-3.61852
11
5.71219
21
-3.62023
0
LINE
8
BLACK
6
CONTINUOUS
10
5.71219
20
-3.62023
11
5.70917
21
-3.62083
0
LINE
8
BLACK
6
CONTINUOUS
10
5.70917
20
-3.62083
11
5.68752
21
-3.62083
0
LINE
8
BLACK
6
CONTINUOUS
10
5.68752
20
-3.62083
11
5.68451
21
-3.62023
0
LINE
8
BLACK
6
CONTINUOUS
10
5.68451
20
-3.62023
11
5.68195
21
-3.61852
0
LINE
8
BLACK
6
CONTINUOUS
10
5.68195
20
-3.61852
11
5.68025
21
-3.61597
0
LINE
8
BLACK
6
CONTINUOUS
10
5.68025
20
-3.61597
11
5.67965
21
-3.61295
0
LINE
8
BLACK
6
CONTINUOUS
10
5.67965
20
-3.61295
11
5.67965
21
-3.5972
0
LINE
8
BLACK
6
CONTINUOUS
10
5.67965
20
-3.5972
11
5.68025
21
-3.59419
0
LINE
8
BLACK
6
CONTINUOUS
10
5.68025
20
-3.59419
11
5.68195
21
-3.59164
0
LINE
8
BLACK
6
CONTINUOUS
10
5.68195
20
-3.59164
11
5.68451
21
-3.58993
0
LINE
8
BLACK
6
CONTINUOUS
10
5.68451
20
-3.58993
11
5.68752
21
-3.58933
0
LINE
8
BLACK
6
CONTINUOUS
10
5.68752
20
-3.58933
11
5.70917
21
-3.58933
0
LINE
8
BLACK
6
CONTINUOUS
10
5.70917
20
-3.58933
11
5.71219
21
-3.58993
0
LINE
8
BLACK
6
CONTINUOUS
10
5.51719
20
-3.58989
11
5.51974
21
-3.5916
0
LINE
8
BLACK
6
CONTINUOUS
10
5.51974
20
-3.5916
11
5.52145
21
-3.59415
0
LINE
8
BLACK
6
CONTINUOUS
10
5.52145
20
-3.59415
11
5.52205
21
-3.59717
0
LINE
8
BLACK
6
CONTINUOUS
10
5.52205
20
-3.59717
11
5.52205
21
-3.61291
0
LINE
8
BLACK
6
CONTINUOUS
10
5.52205
20
-3.61291
11
5.52145
21
-3.61593
0
LINE
8
BLACK
6
CONTINUOUS
10
5.52145
20
-3.61593
11
5.51974
21
-3.61848
0
LINE
8
BLACK
6
CONTINUOUS
10
5.51974
20
-3.61848
11
5.51719
21
-3.62019
0
LINE
8
BLACK
6
CONTINUOUS
10
5.51719
20
-3.62019
11
5.51417
21
-3.62079
0
LINE
8
BLACK
6
CONTINUOUS
10
5.51417
20
-3.62079
11
5.49252
21
-3.62079
0
LINE
8
BLACK
6
CONTINUOUS
10
5.49252
20
-3.62079
11
5.48951
21
-3.62019
0
LINE
8
BLACK
6
CONTINUOUS
10
5.48951
20
-3.62019
11
5.48695
21
-3.61848
0
LINE
8
BLACK
6
CONTINUOUS
10
5.48695
20
-3.61848
11
5.48525
21
-3.61593
0
LINE
8
BLACK
6
CONTINUOUS
10
5.48525
20
-3.61593
11
5.48465
21
-3.61291
0
LINE
8
BLACK
6
CONTINUOUS
10
5.48465
20
-3.61291
11
5.48465
21
-3.59717
0
LINE
8
BLACK
6
CONTINUOUS
10
5.48465
20
-3.59717
11
5.48525
21
-3.59415
0
LINE
8
BLACK
6
CONTINUOUS
10
5.48525
20
-3.59415
11
5.48695
21
-3.5916
0
LINE
8
BLACK
6
CONTINUOUS
10
5.48695
20
-3.5916
11
5.48951
21
-3.58989
0
LINE
8
BLACK
6
CONTINUOUS
10
5.48951
20
-3.58989
11
5.49252
21
-3.58929
0
LINE
8
BLACK
6
CONTINUOUS
10
5.49252
20
-3.58929
11
5.51417
21
-3.58929
0
LINE
8
BLACK
6
CONTINUOUS
10
5.51417
20
-3.58929
11
5.51719
21
-3.58989
0
LINE
8
BLACK
6
CONTINUOUS
10
5.60219
20
-3.58989
11
5.60474
21
-3.5916
0
LINE
8
BLACK
6
CONTINUOUS
10
5.60474
20
-3.5916
11
5.60645
21
-3.59415
0
LINE
8
BLACK
6
CONTINUOUS
10
5.60645
20
-3.59415
11
5.60705
21
-3.59717
0
LINE
8
BLACK
6
CONTINUOUS
10
5.60705
20
-3.59717
11
5.60705
21
-3.61291
0
LINE
8
BLACK
6
CONTINUOUS
10
5.60705
20
-3.61291
11
5.60645
21
-3.61593
0
LINE
8
BLACK
6
CONTINUOUS
10
5.60645
20
-3.61593
11
5.60474
21
-3.61848
0
LINE
8
BLACK
6
CONTINUOUS
10
5.60474
20
-3.61848
11
5.60219
21
-3.62019
0
LINE
8
BLACK
6
CONTINUOUS
10
5.60219
20
-3.62019
11
5.59917
21
-3.62079
0
LINE
8
BLACK
6
CONTINUOUS
10
5.59917
20
-3.62079
11
5.57752
21
-3.62079
0
LINE
8
BLACK
6
CONTINUOUS
10
5.57752
20
-3.62079
11
5.57451
21
-3.62019
0
LINE
8
BLACK
6
CONTINUOUS
10
5.57451
20
-3.62019
11
5.57195
21
-3.61848
0
LINE
8
BLACK
6
CONTINUOUS
10
5.57195
20
-3.61848
11
5.57025
21
-3.61593
0
LINE
8
BLACK
6
CONTINUOUS
10
5.57025
20
-3.61593
11
5.56965
21
-3.61291
0
LINE
8
BLACK
6
CONTINUOUS
10
5.56965
20
-3.61291
11
5.56965
21
-3.59717
0
LINE
8
BLACK
6
CONTINUOUS
10
5.56965
20
-3.59717
11
5.57025
21
-3.59415
0
LINE
8
BLACK
6
CONTINUOUS
10
5.57025
20
-3.59415
11
5.57195
21
-3.5916
0
LINE
8
BLACK
6
CONTINUOUS
10
5.57195
20
-3.5916
11
5.57451
21
-3.58989
0
LINE
8
BLACK
6
CONTINUOUS
10
5.57451
20
-3.58989
11
5.57752
21
-3.58929
0
LINE
8
BLACK
6
CONTINUOUS
10
5.57752
20
-3.58929
11
5.59917
21
-3.58929
0
LINE
8
BLACK
6
CONTINUOUS
10
5.59917
20
-3.58929
11
5.60219
21
-3.58989
0
LINE
8
BLACK
6
CONTINUOUS
10
5.81719
20
-3.58989
11
5.81974
21
-3.5916
0
LINE
8
BLACK
6
CONTINUOUS
10
5.81974
20
-3.5916
11
5.82145
21
-3.59415
0
LINE
8
BLACK
6
CONTINUOUS
10
5.82145
20
-3.59415
11
5.82205
21
-3.59717
0
LINE
8
BLACK
6
CONTINUOUS
10
5.82205
20
-3.59717
11
5.82205
21
-3.61291
0
LINE
8
BLACK
6
CONTINUOUS
10
5.82205
20
-3.61291
11
5.82145
21
-3.61593
0
LINE
8
BLACK
6
CONTINUOUS
10
5.82145
20
-3.61593
11
5.81974
21
-3.61848
0
LINE
8
BLACK
6
CONTINUOUS
10
5.81974
20
-3.61848
11
5.81719
21
-3.62019
0
LINE
8
BLACK
6
CONTINUOUS
10
5.81719
20
-3.62019
11
5.81417
21
-3.62079
0
LINE
8
BLACK
6
CONTINUOUS
10
5.81417
20
-3.62079
11
5.79252
21
-3.62079
0
LINE
8
BLACK
6
CONTINUOUS
10
5.79252
20
-3.62079
11
5.78951
21
-3.62019
0
LINE
8
BLACK
6
CONTINUOUS
10
5.78951
20
-3.62019
11
5.78695
21
-3.61848
0
LINE
8
BLACK
6
CONTINUOUS
10
5.78695
20
-3.61848
11
5.78525
21
-3.61593
0
LINE
8
BLACK
6
CONTINUOUS
10
5.78525
20
-3.61593
11
5.78465
21
-3.61291
0
LINE
8
BLACK
6
CONTINUOUS
10
5.78465
20
-3.61291
11
5.78465
21
-3.59717
0
LINE
8
BLACK
6
CONTINUOUS
10
5.78465
20
-3.59717
11
5.78525
21
-3.59415
0
LINE
8
BLACK
6
CONTINUOUS
10
5.78525
20
-3.59415
11
5.78695
21
-3.5916
0
LINE
8
BLACK
6
CONTINUOUS
10
5.78695
20
-3.5916
11
5.78951
21
-3.58989
0
LINE
8
BLACK
6
CONTINUOUS
10
5.78951
20
-3.58989
11
5.79252
21
-3.58929
0
LINE
8
BLACK
6
CONTINUOUS
10
5.79252
20
-3.58929
11
5.81417
21
-3.58929
0
LINE
8
BLACK
6
CONTINUOUS
10
5.81417
20
-3.58929
11
5.81719
21
-3.58989
0
LINE
8
BLACK
6
CONTINUOUS
10
6.35033
20
-3.55261
11
6.35225
21
-3.5539
0
LINE
8
BLACK
6
CONTINUOUS
10
6.35225
20
-3.5539
11
6.35353
21
-3.55581
0
LINE
8
BLACK
6
CONTINUOUS
10
6.35353
20
-3.55581
11
6.35398
21
-3.55807
0
LINE
8
BLACK
6
CONTINUOUS
10
6.35398
20
-3.55807
11
6.35398
21
-3.56988
0
LINE
8
BLACK
6
CONTINUOUS
10
6.35398
20
-3.56988
11
6.35353
21
-3.57214
0
LINE
8
BLACK
6
CONTINUOUS
10
6.35353
20
-3.57214
11
6.35225
21
-3.57406
0
LINE
8
BLACK
6
CONTINUOUS
10
6.35225
20
-3.57406
11
6.35033
21
-3.57534
0
LINE
8
BLACK
6
CONTINUOUS
10
6.35033
20
-3.57534
11
6.34807
21
-3.57579
0
LINE
8
BLACK
6
CONTINUOUS
10
6.34807
20
-3.57579
11
6.29295
21
-3.57579
0
LINE
8
BLACK
6
CONTINUOUS
10
6.29295
20
-3.57579
11
6.29069
21
-3.57534
0
LINE
8
BLACK
6
CONTINUOUS
10
6.29069
20
-3.57534
11
6.28878
21
-3.57406
0
LINE
8
BLACK
6
CONTINUOUS
10
6.28878
20
-3.57406
11
6.2875
21
-3.57214
0
LINE
8
BLACK
6
CONTINUOUS
10
6.2875
20
-3.57214
11
6.28705
21
-3.56988
0
LINE
8
BLACK
6
CONTINUOUS
10
6.28705
20
-3.56988
11
6.28705
21
-3.55807
0
LINE
8
BLACK
6
CONTINUOUS
10
6.28705
20
-3.55807
11
6.2875
21
-3.55581
0
LINE
8
BLACK
6
CONTINUOUS
10
6.2875
20
-3.55581
11
6.28878
21
-3.5539
0
LINE
8
BLACK
6
CONTINUOUS
10
6.28878
20
-3.5539
11
6.29069
21
-3.55261
0
LINE
8
BLACK
6
CONTINUOUS
10
6.29069
20
-3.55261
11
6.29295
21
-3.55217
0
LINE
8
BLACK
6
CONTINUOUS
10
6.29295
20
-3.55217
11
6.34807
21
-3.55217
0
LINE
8
BLACK
6
CONTINUOUS
10
6.34807
20
-3.55217
11
6.35033
21
-3.55261
0
LINE
8
BLACK
6
CONTINUOUS
10
6.09299
20
-3.49679
11
6.09611
21
-3.49887
0
LINE
8
BLACK
6
CONTINUOUS
10
6.09611
20
-3.49887
11
6.09819
21
-3.50199
0
LINE
8
BLACK
6
CONTINUOUS
10
6.09819
20
-3.50199
11
6.09892
21
-3.50566
0
LINE
8
BLACK
6
CONTINUOUS
10
6.09892
20
-3.50566
11
6.09892
21
-3.54158
0
LINE
8
BLACK
6
CONTINUOUS
10
6.09892
20
-3.54158
11
6.09819
21
-3.54526
0
LINE
8
BLACK
6
CONTINUOUS
10
6.09819
20
-3.54526
11
6.09611
21
-3.54837
0
LINE
8
BLACK
6
CONTINUOUS
10
6.09611
20
-3.54837
11
6.09299
21
-3.55045
0
LINE
8
BLACK
6
CONTINUOUS
10
6.09299
20
-3.55045
11
6.08932
21
-3.55118
0
LINE
8
BLACK
6
CONTINUOUS
10
6.08932
20
-3.55118
11
6.07013
21
-3.55118
0
LINE
8
BLACK
6
CONTINUOUS
10
6.07013
20
-3.55118
11
6.06646
21
-3.55045
0
LINE
8
BLACK
6
CONTINUOUS
10
6.06646
20
-3.55045
11
6.06334
21
-3.54837
0
LINE
8
BLACK
6
CONTINUOUS
10
6.06334
20
-3.54837
11
6.06126
21
-3.54526
0
LINE
8
BLACK
6
CONTINUOUS
10
6.06126
20
-3.54526
11
6.06053
21
-3.54158
0
LINE
8
BLACK
6
CONTINUOUS
10
6.06053
20
-3.54158
11
6.06053
21
-3.50566
0
LINE
8
BLACK
6
CONTINUOUS
10
6.06053
20
-3.50566
11
6.06126
21
-3.50199
0
LINE
8
BLACK
6
CONTINUOUS
10
6.06126
20
-3.50199
11
6.06334
21
-3.49887
0
LINE
8
BLACK
6
CONTINUOUS
10
6.06334
20
-3.49887
11
6.06646
21
-3.49679
0
LINE
8
BLACK
6
CONTINUOUS
10
6.06646
20
-3.49679
11
6.07013
21
-3.49606
0
LINE
8
BLACK
6
CONTINUOUS
10
6.07013
20
-3.49606
11
6.08932
21
-3.49606
0
LINE
8
BLACK
6
CONTINUOUS
10
6.08932
20
-3.49606
11
6.09299
21
-3.49679
0
LINE
8
BLACK
6
CONTINUOUS
10
6.16681
20
-3.49679
11
6.16993
21
-3.49887
0
LINE
8
BLACK
6
CONTINUOUS
10
6.16993
20
-3.49887
11
6.17201
21
-3.50199
0
LINE
8
BLACK
6
CONTINUOUS
10
6.17201
20
-3.50199
11
6.17274
21
-3.50566
0
LINE
8
BLACK
6
CONTINUOUS
10
6.17274
20
-3.50566
11
6.17274
21
-3.54158
0
LINE
8
BLACK
6
CONTINUOUS
10
6.17274
20
-3.54158
11
6.17201
21
-3.54526
0
LINE
8
BLACK
6
CONTINUOUS
10
6.17201
20
-3.54526
11
6.16993
21
-3.54837
0
LINE
8
BLACK
6
CONTINUOUS
10
6.16993
20
-3.54837
11
6.16681
21
-3.55045
0
LINE
8
BLACK
6
CONTINUOUS
10
6.16681
20
-3.55045
11
6.16314
21
-3.55118
0
LINE
8
BLACK
6
CONTINUOUS
10
6.16314
20
-3.55118
11
6.14395
21
-3.55118
0
LINE
8
BLACK
6
CONTINUOUS
10
6.14395
20
-3.55118
11
6.14027
21
-3.55045
0
LINE
8
BLACK
6
CONTINUOUS
10
6.14027
20
-3.55045
11
6.13716
21
-3.54837
0
LINE
8
BLACK
6
CONTINUOUS
10
6.13716
20
-3.54837
11
6.13508
21
-3.54526
0
LINE
8
BLACK
6
CONTINUOUS
10
6.13508
20
-3.54526
11
6.13435
21
-3.54158
0
LINE
8
BLACK
6
CONTINUOUS
10
6.13435
20
-3.54158
11
6.13435
21
-3.50566
0
LINE
8
BLACK
6
CONTINUOUS
10
6.13435
20
-3.50566
11
6.13508
21
-3.50199
0
LINE
8
BLACK
6
CONTINUOUS
10
6.13508
20
-3.50199
11
6.13716
21
-3.49887
0
LINE
8
BLACK
6
CONTINUOUS
10
6.13716
20
-3.49887
11
6.14027
21
-3.49679
0
LINE
8
BLACK
6
CONTINUOUS
10
6.14027
20
-3.49679
11
6.14395
21
-3.49606
0
LINE
8
BLACK
6
CONTINUOUS
10
6.14395
20
-3.49606
11
6.16314
21
-3.49606
0
LINE
8
BLACK
6
CONTINUOUS
10
6.16314
20
-3.49606
11
6.16681
21
-3.49679
0
LINE
8
BLACK
6
CONTINUOUS
10
6.35033
20
-3.5034
11
6.35225
21
-3.50468
0
LINE
8
BLACK
6
CONTINUOUS
10
6.35225
20
-3.50468
11
6.35353
21
-3.5066
0
LINE
8
BLACK
6
CONTINUOUS
10
6.35353
20
-3.5066
11
6.35398
21
-3.50886
0
LINE
8
BLACK
6
CONTINUOUS
10
6.35398
20
-3.50886
11
6.35398
21
-3.52067
0
LINE
8
BLACK
6
CONTINUOUS
10
6.35398
20
-3.52067
11
6.35353
21
-3.52293
0
LINE
8
BLACK
6
CONTINUOUS
10
6.35353
20
-3.52293
11
6.35225
21
-3.52485
0
LINE
8
BLACK
6
CONTINUOUS
10
6.35225
20
-3.52485
11
6.35033
21
-3.52613
0
LINE
8
BLACK
6
CONTINUOUS
10
6.35033
20
-3.52613
11
6.34807
21
-3.52657
0
LINE
8
BLACK
6
CONTINUOUS
10
6.34807
20
-3.52657
11
6.29295
21
-3.52657
0
LINE
8
BLACK
6
CONTINUOUS
10
6.29295
20
-3.52657
11
6.29069
21
-3.52613
0
LINE
8
BLACK
6
CONTINUOUS
10
6.29069
20
-3.52613
11
6.28878
21
-3.52485
0
LINE
8
BLACK
6
CONTINUOUS
10
6.28878
20
-3.52485
11
6.2875
21
-3.52293
0
LINE
8
BLACK
6
CONTINUOUS
10
6.2875
20
-3.52293
11
6.28705
21
-3.52067
0
LINE
8
BLACK
6
CONTINUOUS
10
6.28705
20
-3.52067
11
6.28705
21
-3.50886
0
LINE
8
BLACK
6
CONTINUOUS
10
6.28705
20
-3.50886
11
6.2875
21
-3.5066
0
LINE
8
BLACK
6
CONTINUOUS
10
6.2875
20
-3.5066
11
6.28878
21
-3.50468
0
LINE
8
BLACK
6
CONTINUOUS
10
6.28878
20
-3.50468
11
6.29069
21
-3.5034
0
LINE
8
BLACK
6
CONTINUOUS
10
6.29069
20
-3.5034
11
6.29295
21
-3.50295
0
LINE
8
BLACK
6
CONTINUOUS
10
6.29295
20
-3.50295
11
6.34807
21
-3.50295
0
LINE
8
BLACK
6
CONTINUOUS
10
6.34807
20
-3.50295
11
6.35033
21
-3.5034
0
LINE
8
BLACK
6
CONTINUOUS
10
5.54858
20
-3.49148
11
5.55138
21
-3.49335
0
LINE
8
BLACK
6
CONTINUOUS
10
5.55138
20
-3.49335
11
5.55324
21
-3.49614
0
LINE
8
BLACK
6
CONTINUOUS
10
5.55324
20
-3.49614
11
5.5539
21
-3.49944
0
LINE
8
BLACK
6
CONTINUOUS
10
5.5539
20
-3.49944
11
5.5539
21
-3.51666
0
LINE
8
BLACK
6
CONTINUOUS
10
5.5539
20
-3.51666
11
5.55324
21
-3.51996
0
LINE
8
BLACK
6
CONTINUOUS
10
5.55324
20
-3.51996
11
5.55138
21
-3.52275
0
LINE
8
BLACK
6
CONTINUOUS
10
5.55138
20
-3.52275
11
5.54858
21
-3.52462
0
LINE
8
BLACK
6
CONTINUOUS
10
5.54858
20
-3.52462
11
5.54529
21
-3.52528
0
LINE
8
BLACK
6
CONTINUOUS
10
5.54529
20
-3.52528
11
5.52511
21
-3.52528
0
LINE
8
BLACK
6
CONTINUOUS
10
5.52511
20
-3.52528
11
5.52181
21
-3.52462
0
LINE
8
BLACK
6
CONTINUOUS
10
5.52181
20
-3.52462
11
5.51902
21
-3.52275
0
LINE
8
BLACK
6
CONTINUOUS
10
5.51902
20
-3.52275
11
5.51715
21
-3.51996
0
LINE
8
BLACK
6
CONTINUOUS
10
5.51715
20
-3.51996
11
5.5165
21
-3.51666
0
LINE
8
BLACK
6
CONTINUOUS
10
5.5165
20
-3.51666
11
5.5165
21
-3.49944
0
LINE
8
BLACK
6
CONTINUOUS
10
5.5165
20
-3.49944
11
5.51715
21
-3.49614
0
LINE
8
BLACK
6
CONTINUOUS
10
5.51715
20
-3.49614
11
5.51902
21
-3.49335
0
LINE
8
BLACK
6
CONTINUOUS
10
5.51902
20
-3.49335
11
5.52181
21
-3.49148
0
LINE
8
BLACK
6
CONTINUOUS
10
5.52181
20
-3.49148
11
5.52511
21
-3.49083
0
LINE
8
BLACK
6
CONTINUOUS
10
5.52511
20
-3.49083
11
5.54529
21
-3.49083
0
LINE
8
BLACK
6
CONTINUOUS
10
5.54529
20
-3.49083
11
5.54858
21
-3.49148
0
LINE
8
BLACK
6
CONTINUOUS
10
5.66669
20
-3.49148
11
5.66949
21
-3.49335
0
LINE
8
BLACK
6
CONTINUOUS
10
5.66949
20
-3.49335
11
5.67135
21
-3.49614
0
LINE
8
BLACK
6
CONTINUOUS
10
5.67135
20
-3.49614
11
5.67201
21
-3.49944
0
LINE
8
BLACK
6
CONTINUOUS
10
5.67201
20
-3.49944
11
5.67201
21
-3.51666
0
LINE
8
BLACK
6
CONTINUOUS
10
5.67201
20
-3.51666
11
5.67135
21
-3.51996
0
LINE
8
BLACK
6
CONTINUOUS
10
5.67135
20
-3.51996
11
5.66949
21
-3.52275
0
LINE
8
BLACK
6
CONTINUOUS
10
5.66949
20
-3.52275
11
5.66669
21
-3.52462
0
LINE
8
BLACK
6
CONTINUOUS
10
5.66669
20
-3.52462
11
5.6634
21
-3.52528
0
LINE
8
BLACK
6
CONTINUOUS
10
5.6634
20
-3.52528
11
5.64322
21
-3.52528
0
LINE
8
BLACK
6
CONTINUOUS
10
5.64322
20
-3.52528
11
5.63992
21
-3.52462
0
LINE
8
BLACK
6
CONTINUOUS
10
5.63992
20
-3.52462
11
5.63713
21
-3.52275
0
LINE
8
BLACK
6
CONTINUOUS
10
5.63713
20
-3.52275
11
5.63526
21
-3.51996
0
LINE
8
BLACK
6
CONTINUOUS
10
5.63526
20
-3.51996
11
5.63461
21
-3.51666
0
LINE
8
BLACK
6
CONTINUOUS
10
5.63461
20
-3.51666
11
5.63461
21
-3.49944
0
LINE
8
BLACK
6
CONTINUOUS
10
5.63461
20
-3.49944
11
5.63526
21
-3.49614
0
LINE
8
BLACK
6
CONTINUOUS
10
5.63526
20
-3.49614
11
5.63713
21
-3.49335
0
LINE
8
BLACK
6
CONTINUOUS
10
5.63713
20
-3.49335
11
5.63992
21
-3.49148
0
LINE
8
BLACK
6
CONTINUOUS
10
5.63992
20
-3.49148
11
5.64322
21
-3.49083
0
LINE
8
BLACK
6
CONTINUOUS
10
5.64322
20
-3.49083
11
5.6634
21
-3.49083
0
LINE
8
BLACK
6
CONTINUOUS
10
5.6634
20
-3.49083
11
5.66669
21
-3.49148
0
LINE
8
BLACK
6
CONTINUOUS
10
5.54858
20
-3.42947
11
5.55138
21
-3.43134
0
LINE
8
BLACK
6
CONTINUOUS
10
5.55138
20
-3.43134
11
5.55324
21
-3.43414
0
LINE
8
BLACK
6
CONTINUOUS
10
5.55324
20
-3.43414
11
5.5539
21
-3.43743
0
LINE
8
BLACK
6
CONTINUOUS
10
5.5539
20
-3.43743
11
5.5539
21
-3.45466
0
LINE
8
BLACK
6
CONTINUOUS
10
5.5539
20
-3.45466
11
5.55324
21
-3.45795
0
LINE
8
BLACK
6
CONTINUOUS
10
5.55324
20
-3.45795
11
5.55138
21
-3.46075
0
LINE
8
BLACK
6
CONTINUOUS
10
5.55138
20
-3.46075
11
5.54858
21
-3.46261
0
LINE
8
BLACK
6
CONTINUOUS
10
5.54858
20
-3.46261
11
5.54529
21
-3.46327
0
LINE
8
BLACK
6
CONTINUOUS
10
5.54529
20
-3.46327
11
5.52511
21
-3.46327
0
LINE
8
BLACK
6
CONTINUOUS
10
5.52511
20
-3.46327
11
5.52181
21
-3.46261
0
LINE
8
BLACK
6
CONTINUOUS
10
5.52181
20
-3.46261
11
5.51902
21
-3.46075
0
LINE
8
BLACK
6
CONTINUOUS
10
5.51902
20
-3.46075
11
5.51715
21
-3.45795
0
LINE
8
BLACK
6
CONTINUOUS
10
5.51715
20
-3.45795
11
5.5165
21
-3.45466
0
LINE
8
BLACK
6
CONTINUOUS
10
5.5165
20
-3.45466
11
5.5165
21
-3.43743
0
LINE
8
BLACK
6
CONTINUOUS
10
5.5165
20
-3.43743
11
5.51715
21
-3.43414
0
LINE
8
BLACK
6
CONTINUOUS
10
5.51715
20
-3.43414
11
5.51902
21
-3.43134
0
LINE
8
BLACK
6
CONTINUOUS
10
5.51902
20
-3.43134
11
5.52181
21
-3.42947
0
LINE
8
BLACK
6
CONTINUOUS
10
5.52181
20
-3.42947
11
5.52511
21
-3.42882
0
LINE
8
BLACK
6
CONTINUOUS
10
5.52511
20
-3.42882
11
5.54529
21
-3.42882
0
LINE
8
BLACK
6
CONTINUOUS
10
5.54529
20
-3.42882
11
5.54858
21
-3.42947
0
LINE
8
BLACK
6
CONTINUOUS
10
5.66669
20
-3.42947
11
5.66949
21
-3.43134
0
LINE
8
BLACK
6
CONTINUOUS
10
5.66949
20
-3.43134
11
5.67135
21
-3.43414
0
LINE
8
BLACK
6
CONTINUOUS
10
5.67135
20
-3.43414
11
5.67201
21
-3.43743
0
LINE
8
BLACK
6
CONTINUOUS
10
5.67201
20
-3.43743
11
5.67201
21
-3.45466
0
LINE
8
BLACK
6
CONTINUOUS
10
5.67201
20
-3.45466
11
5.67135
21
-3.45795
0
LINE
8
BLACK
6
CONTINUOUS
10
5.67135
20
-3.45795
11
5.66949
21
-3.46075
0
LINE
8
BLACK
6
CONTINUOUS
10
5.66949
20
-3.46075
11
5.66669
21
-3.46261
0
LINE
8
BLACK
6
CONTINUOUS
10
5.66669
20
-3.46261
11
5.6634
21
-3.46327
0
LINE
8
BLACK
6
CONTINUOUS
10
5.6634
20
-3.46327
11
5.64322
21
-3.46327
0
LINE
8
BLACK
6
CONTINUOUS
10
5.64322
20
-3.46327
11
5.63992
21
-3.46261
0
LINE
8
BLACK
6
CONTINUOUS
10
5.63992
20
-3.46261
11
5.63713
21
-3.46075
0
LINE
8
BLACK
6
CONTINUOUS
10
5.63713
20
-3.46075
11
5.63526
21
-3.45795
0
LINE
8
BLACK
6
CONTINUOUS
10
5.63526
20
-3.45795
11
5.63461
21
-3.45466
0
LINE
8
BLACK
6
CONTINUOUS
10
5.63461
20
-3.45466
11
5.63461
21
-3.43743
0
LINE
8
BLACK
6
CONTINUOUS
10
5.63461
20
-3.43743
11
5.63526
21
-3.43414
0
LINE
8
BLACK
6
CONTINUOUS
10
5.63526
20
-3.43414
11
5.63713
21
-3.43134
0
LINE
8
BLACK
6
CONTINUOUS
10
5.63713
20
-3.43134
11
5.63992
21
-3.42947
0
LINE
8
BLACK
6
CONTINUOUS
10
5.63992
20
-3.42947
11
5.64322
21
-3.42882
0
LINE
8
BLACK
6
CONTINUOUS
10
5.64322
20
-3.42882
11
5.6634
21
-3.42882
0
LINE
8
BLACK
6
CONTINUOUS
10
5.6634
20
-3.42882
11
5.66669
21
-3.42947
0
LINE
8
BLACK
6
CONTINUOUS
10
6.49357
20
-3.42299
11
6.49676
21
-3.42513
0
LINE
8
BLACK
6
CONTINUOUS
10
6.49676
20
-3.42513
11
6.4989
21
-3.42832
0
LINE
8
BLACK
6
CONTINUOUS
10
6.4989
20
-3.42832
11
6.49965
21
-3.43209
0
LINE
8
BLACK
6
CONTINUOUS
10
6.49965
20
-3.43209
11
6.49965
21
-3.45177
0
LINE
8
BLACK
6
CONTINUOUS
10
6.49965
20
-3.45177
11
6.4989
21
-3.45554
0
LINE
8
BLACK
6
CONTINUOUS
10
6.4989
20
-3.45554
11
6.49676
21
-3.45873
0
LINE
8
BLACK
6
CONTINUOUS
10
6.49676
20
-3.45873
11
6.49357
21
-3.46086
0
LINE
8
BLACK
6
CONTINUOUS
10
6.49357
20
-3.46086
11
6.4898
21
-3.46161
0
LINE
8
BLACK
6
CONTINUOUS
10
6.4898
20
-3.46161
11
6.40319
21
-3.46161
0
LINE
8
BLACK
6
CONTINUOUS
10
6.40319
20
-3.46161
11
6.39942
21
-3.46086
0
LINE
8
BLACK
6
CONTINUOUS
10
6.39942
20
-3.46086
11
6.39623
21
-3.45873
0
LINE
8
BLACK
6
CONTINUOUS
10
6.39623
20
-3.45873
11
6.3941
21
-3.45554
0
LINE
8
BLACK
6
CONTINUOUS
10
6.3941
20
-3.45554
11
6.39335
21
-3.45177
0
LINE
8
BLACK
6
CONTINUOUS
10
6.39335
20
-3.45177
11
6.39335
21
-3.43209
0
LINE
8
BLACK
6
CONTINUOUS
10
6.39335
20
-3.43209
11
6.3941
21
-3.42832
0
LINE
8
BLACK
6
CONTINUOUS
10
6.3941
20
-3.42832
11
6.39623
21
-3.42513
0
LINE
8
BLACK
6
CONTINUOUS
10
6.39623
20
-3.42513
11
6.39942
21
-3.42299
0
LINE
8
BLACK
6
CONTINUOUS
10
6.39942
20
-3.42299
11
6.40319
21
-3.42224
0
LINE
8
BLACK
6
CONTINUOUS
10
6.40319
20
-3.42224
11
6.4898
21
-3.42224
0
LINE
8
BLACK
6
CONTINUOUS
10
6.4898
20
-3.42224
11
6.49357
21
-3.42299
  0
ENDSEC
  0
EOF
