  0
SECTION
  2
HEADER
  9
$ANGBASE
  50
0.0
  9
$ANGDIR
  70
1
  9
$MEASUREMENT
  70
0
  0
ENDSEC
  0
SECTION
  2
TABLES
  0
TABLE
  2
LTYPE
  70
4
  0
LTYPE
  5
40F
  2
CONTINUOUS
  70
0
  3
Solid line
  72
65
  73
0
  40
0.0
  0
LTYPE
  5
410
  2
DASHDOT
 70
0
  3
Dash Dot ____ _ ____ _
 72
65
 73
4
 40
2.0
 49
1.25
 49
-0.25
 49
0.25
 49
-0.25
  0
LTYPE
  5
411
  2
DASHED
 70
0
  3
Dashed __ __ __ __ __
 72
65
 73
2
 40
0.75
 49
0.5
 49
-0.25
  0
LTYPE
  5
43B
  2
DOTTED
 70
0
  3
Dotted .  .  .  .
 72
65
 73
2
 40
0.2
 49
0.0
 49
-0.2
  0
ENDTAB
  0
TABLE
  2
STYLE
  70
4
  0
STYLE
  2
KICAD
  70
0
  40
0
  41
1
  42
1
  50
0
  71
0
  3
isocp.shx
  0
STYLE
  2
KICADB
  70
0
  40
0
  41
1
  42
1
  50
0
  71
0
  3
isocp.shx
  0
STYLE
  2
KICADI
  70
0
  40
0
  41
1
  42
1
  50
15
  71
0
  3
isocp.shx
  0
STYLE
  2
KICADBI
  70
0
  40
0
  41
1
  42
1
  50
15
  71
0
  3
isocp.shx
  0
ENDTAB
  0
TABLE
  2
LAYER
  70
1
  0
LAYER
  2
BLACK
  70
0
  62
7
  6
CONTINUOUS
  0
ENDTAB
  0
ENDSEC
  0
SECTION
  2
ENTITIES
0
LINE
8
BLACK
6
CONTINUOUS
10
5.9644701574803145
20
-4.1621707086614173
11
5.9717788188976373
21
-4.1651980708661416
0
LINE
8
BLACK
6
CONTINUOUS
10
5.9717788188976373
20
-4.1651980708661416
11
5.9783564173228347
21
-4.1695930708661413
0
LINE
8
BLACK
6
CONTINUOUS
10
5.9783564173228347
20
-4.1695930708661413
11
5.9839502362204726
21
-4.1751868897637792
0
LINE
8
BLACK
6
CONTINUOUS
10
5.9839502362204726
20
-4.1751868897637792
11
5.9883452362204723
21
-4.1817644881889766
0
LINE
8
BLACK
6
CONTINUOUS
10
5.9883452362204723
20
-4.1817644881889766
11
5.9913725984251966
21
-4.1890731496062994
0
LINE
8
BLACK
6
CONTINUOUS
10
5.9913725984251966
20
-4.1890731496062994
11
5.9929159055118113
21
-4.196831968503937
0
LINE
8
BLACK
6
CONTINUOUS
10
5.9929159055118113
20
-4.196831968503937
11
5.9929159055118113
21
-4.2047428346456694
0
LINE
8
BLACK
6
CONTINUOUS
10
5.9929159055118113
20
-4.2047428346456694
11
5.9913725984251966
21
-4.2125016535433071
0
LINE
8
BLACK
6
CONTINUOUS
10
5.9913725984251966
20
-4.2125016535433071
11
5.9883452362204723
21
-4.2198103149606299
0
LINE
8
BLACK
6
CONTINUOUS
10
5.9883452362204723
20
-4.2198103149606299
11
5.9839502362204726
21
-4.2263879133858264
0
LINE
8
BLACK
6
CONTINUOUS
10
5.9839502362204726
20
-4.2263879133858264
11
5.9783564173228347
21
-4.2319817322834643
0
LINE
8
BLACK
6
CONTINUOUS
10
5.9783564173228347
20
-4.2319817322834643
11
5.9717788188976373
21
-4.2363767322834649
0
LINE
8
BLACK
6
CONTINUOUS
10
5.9717788188976373
20
-4.2363767322834649
11
5.9644701574803145
21
-4.2394040944881892
0
LINE
8
BLACK
6
CONTINUOUS
10
5.9644701574803145
20
-4.2394040944881892
11
5.9567113385826769
21
-4.240947401574803
0
LINE
8
BLACK
6
CONTINUOUS
10
5.9567113385826769
20
-4.240947401574803
11
5.9488004724409445
21
-4.240947401574803
0
LINE
8
BLACK
6
CONTINUOUS
10
5.9488004724409445
20
-4.240947401574803
11
5.9410416535433068
21
-4.2394040944881892
0
LINE
8
BLACK
6
CONTINUOUS
10
5.9410416535433068
20
-4.2394040944881892
11
5.933732992125984
21
-4.2363767322834649
0
LINE
8
BLACK
6
CONTINUOUS
10
5.933732992125984
20
-4.2363767322834649
11
5.9271553937007875
21
-4.2319817322834643
0
LINE
8
BLACK
6
CONTINUOUS
10
5.9271553937007875
20
-4.2319817322834643
11
5.9215615748031496
21
-4.2263879133858264
0
LINE
8
BLACK
6
CONTINUOUS
10
5.9215615748031496
20
-4.2263879133858264
11
5.9171665748031499
21
-4.2198103149606299
0
LINE
8
BLACK
6
CONTINUOUS
10
5.9171665748031499
20
-4.2198103149606299
11
5.9141392125984247
21
-4.2125016535433071
0
LINE
8
BLACK
6
CONTINUOUS
10
5.9141392125984247
20
-4.2125016535433071
11
5.9125959055118109
21
-4.2047428346456694
0
LINE
8
BLACK
6
CONTINUOUS
10
5.9125959055118109
20
-4.2047428346456694
11
5.9125959055118109
21
-4.1970067322834641
0
LINE
8
BLACK
6
CONTINUOUS
10
5.9125959055118109
20
-4.1970067322834641
11
5.9125959055118109
21
-4.196831968503937
0
LINE
8
BLACK
6
CONTINUOUS
10
5.9125959055118109
20
-4.196831968503937
11
5.9141392125984247
21
-4.1890731496062994
0
LINE
8
BLACK
6
CONTINUOUS
10
5.9141392125984247
20
-4.1890731496062994
11
5.9171665748031499
21
-4.1817644881889766
0
LINE
8
BLACK
6
CONTINUOUS
10
5.9171665748031499
20
-4.1817644881889766
11
5.9215615748031496
21
-4.1751868897637792
0
LINE
8
BLACK
6
CONTINUOUS
10
5.9215615748031496
20
-4.1751868897637792
11
5.9271553937007875
21
-4.1695930708661413
0
LINE
8
BLACK
6
CONTINUOUS
10
5.9271553937007875
20
-4.1695930708661413
11
5.933732992125984
21
-4.1651980708661416
0
LINE
8
BLACK
6
CONTINUOUS
10
5.933732992125984
20
-4.1651980708661416
11
5.9410416535433068
21
-4.1621707086614173
0
LINE
8
BLACK
6
CONTINUOUS
10
5.9410416535433068
20
-4.1621707086614173
11
5.9488004724409445
21
-4.1606274015748035
0
LINE
8
BLACK
6
CONTINUOUS
10
5.9488004724409445
20
-4.1606274015748035
11
5.9567113385826769
21
-4.1606274015748035
0
LINE
8
BLACK
6
CONTINUOUS
10
5.9567113385826769
20
-4.1606274015748035
11
5.9644701574803145
21
-4.1621707086614173
0
LINE
8
BLACK
6
CONTINUOUS
10
5.9143700787401574
20
-4.2045680708661415
11
5.9158451968503938
21
-4.2119841338582678
0
LINE
8
BLACK
6
CONTINUOUS
10
5.9158451968503938
20
-4.2119841338582678
11
5.918738818897638
21
-4.2189699212598422
0
LINE
8
BLACK
6
CONTINUOUS
10
5.918738818897638
20
-4.2189699212598422
11
5.9229396850393696
21
-4.2252569685039365
0
LINE
8
BLACK
6
CONTINUOUS
10
5.9229396850393696
20
-4.2252569685039365
11
5.9282863385826774
21
-4.2306036220472443
0
LINE
8
BLACK
6
CONTINUOUS
10
5.9282863385826774
20
-4.2306036220472443
11
5.9345733858267717
21
-4.2348044881889759
0
LINE
8
BLACK
6
CONTINUOUS
10
5.9345733858267717
20
-4.2348044881889759
11
5.9415591732283461
21
-4.2376981102362201
0
LINE
8
BLACK
6
CONTINUOUS
10
5.9415591732283461
20
-4.2376981102362201
11
5.9489752362204724
21
-4.2391732283464565
0
LINE
8
BLACK
6
CONTINUOUS
10
5.9489752362204724
20
-4.2391732283464565
11
5.9565365748031498
21
-4.2391732283464565
0
LINE
8
BLACK
6
CONTINUOUS
10
5.9565365748031498
20
-4.2391732283464565
11
5.9639526377952752
21
-4.2376981102362201
0
LINE
8
BLACK
6
CONTINUOUS
10
5.9639526377952752
20
-4.2376981102362201
11
5.9709384251968505
21
-4.2348044881889759
0
LINE
8
BLACK
6
CONTINUOUS
10
5.9709384251968505
20
-4.2348044881889759
11
5.9772254724409448
21
-4.2306036220472443
0
LINE
8
BLACK
6
CONTINUOUS
10
5.9772254724409448
20
-4.2306036220472443
11
5.9825721259842517
21
-4.2252569685039365
0
LINE
8
BLACK
6
CONTINUOUS
10
5.9825721259842517
20
-4.2252569685039365
11
5.9867729921259842
21
-4.2189699212598422
0
LINE
8
BLACK
6
CONTINUOUS
10
5.9867729921259842
20
-4.2189699212598422
11
5.9896666141732284
21
-4.2119841338582678
0
LINE
8
BLACK
6
CONTINUOUS
10
5.9896666141732284
20
-4.2119841338582678
11
5.9911417322834648
21
-4.2045680708661415
0
LINE
8
BLACK
6
CONTINUOUS
10
5.9911417322834648
20
-4.2045680708661415
11
5.9911417322834648
21
-4.1970067322834641
0
LINE
8
BLACK
6
CONTINUOUS
10
5.9911417322834648
20
-4.1970067322834641
11
5.9896666141732284
21
-4.1895906692913387
0
LINE
8
BLACK
6
CONTINUOUS
10
5.9896666141732284
20
-4.1895906692913387
11
5.9867729921259842
21
-4.1826048818897634
0
LINE
8
BLACK
6
CONTINUOUS
10
5.9867729921259842
20
-4.1826048818897634
11
5.9825721259842517
21
-4.1763178346456691
0
LINE
8
BLACK
6
CONTINUOUS
10
5.9825721259842517
20
-4.1763178346456691
11
5.9772254724409448
21
-4.1709711811023622
0
LINE
8
BLACK
6
CONTINUOUS
10
5.9772254724409448
20
-4.1709711811023622
11
5.9709384251968505
21
-4.1667703149606297
0
LINE
8
BLACK
6
CONTINUOUS
10
5.9709384251968505
20
-4.1667703149606297
11
5.9639526377952752
21
-4.1638766929133855
0
LINE
8
BLACK
6
CONTINUOUS
10
5.9639526377952752
20
-4.1638766929133855
11
5.9565365748031498
21
-4.1624015748031491
0
LINE
8
BLACK
6
CONTINUOUS
10
5.9565365748031498
20
-4.1624015748031491
11
5.9489752362204724
21
-4.1624015748031491
0
LINE
8
BLACK
6
CONTINUOUS
10
5.9489752362204724
20
-4.1624015748031491
11
5.9415591732283461
21
-4.1638766929133855
0
LINE
8
BLACK
6
CONTINUOUS
10
5.9415591732283461
20
-4.1638766929133855
11
5.9345733858267717
21
-4.1667703149606297
0
LINE
8
BLACK
6
CONTINUOUS
10
5.9345733858267717
20
-4.1667703149606297
11
5.9282863385826774
21
-4.1709711811023622
0
LINE
8
BLACK
6
CONTINUOUS
10
5.9282863385826774
20
-4.1709711811023622
11
5.9229396850393696
21
-4.1763178346456691
0
LINE
8
BLACK
6
CONTINUOUS
10
5.9229396850393696
20
-4.1763178346456691
11
5.918738818897638
21
-4.1826048818897634
0
LINE
8
BLACK
6
CONTINUOUS
10
5.918738818897638
20
-4.1826048818897634
11
5.9158451968503938
21
-4.1895906692913387
0
LINE
8
BLACK
6
CONTINUOUS
10
5.9158451968503938
20
-4.1895906692913387
11
5.9143700787401574
21
-4.1970067322834641
0
LINE
8
BLACK
6
CONTINUOUS
10
5.9143700787401574
20
-4.1970067322834641
11
5.9143700787401574
21
-4.2045680708661415
0
LINE
8
BLACK
6
CONTINUOUS
10
6.0589583464566932
20
-4.1621707086614173
11
6.066267007874016
21
-4.1651980708661416
0
LINE
8
BLACK
6
CONTINUOUS
10
6.066267007874016
20
-4.1651980708661416
11
6.0728446062992125
21
-4.1695930708661413
0
LINE
8
BLACK
6
CONTINUOUS
10
6.0728446062992125
20
-4.1695930708661413
11
6.0784384251968504
21
-4.1751868897637792
0
LINE
8
BLACK
6
CONTINUOUS
10
6.0784384251968504
20
-4.1751868897637792
11
6.0828334251968501
21
-4.1817644881889766
0
LINE
8
BLACK
6
CONTINUOUS
10
6.0828334251968501
20
-4.1817644881889766
11
6.0858607874015744
21
-4.1890731496062994
0
LINE
8
BLACK
6
CONTINUOUS
10
6.0858607874015744
20
-4.1890731496062994
11
6.0874040944881891
21
-4.196831968503937
0
LINE
8
BLACK
6
CONTINUOUS
10
6.0874040944881891
20
-4.196831968503937
11
6.0874040944881891
21
-4.2047428346456694
0
LINE
8
BLACK
6
CONTINUOUS
10
6.0874040944881891
20
-4.2047428346456694
11
6.0858607874015744
21
-4.2125016535433071
0
LINE
8
BLACK
6
CONTINUOUS
10
6.0858607874015744
20
-4.2125016535433071
11
6.0828334251968501
21
-4.2198103149606299
0
LINE
8
BLACK
6
CONTINUOUS
10
6.0828334251968501
20
-4.2198103149606299
11
6.0784384251968504
21
-4.2263879133858264
0
LINE
8
BLACK
6
CONTINUOUS
10
6.0784384251968504
20
-4.2263879133858264
11
6.0728446062992125
21
-4.2319817322834643
0
LINE
8
BLACK
6
CONTINUOUS
10
6.0728446062992125
20
-4.2319817322834643
11
6.066267007874016
21
-4.2363767322834649
0
LINE
8
BLACK
6
CONTINUOUS
10
6.066267007874016
20
-4.2363767322834649
11
6.0589583464566932
21
-4.2394040944881892
0
LINE
8
BLACK
6
CONTINUOUS
10
6.0589583464566932
20
-4.2394040944881892
11
6.0511995275590547
21
-4.240947401574803
0
LINE
8
BLACK
6
CONTINUOUS
10
6.0511995275590547
20
-4.240947401574803
11
6.0432886614173231
21
-4.240947401574803
0
LINE
8
BLACK
6
CONTINUOUS
10
6.0432886614173231
20
-4.240947401574803
11
6.0355298425196846
21
-4.2394040944881892
0
LINE
8
BLACK
6
CONTINUOUS
10
6.0355298425196846
20
-4.2394040944881892
11
6.0282211811023618
21
-4.2363767322834649
0
LINE
8
BLACK
6
CONTINUOUS
10
6.0282211811023618
20
-4.2363767322834649
11
6.0216435826771653
21
-4.2319817322834643
0
LINE
8
BLACK
6
CONTINUOUS
10
6.0216435826771653
20
-4.2319817322834643
11
6.0160497637795274
21
-4.2263879133858264
0
LINE
8
BLACK
6
CONTINUOUS
10
6.0160497637795274
20
-4.2263879133858264
11
6.0116547637795277
21
-4.2198103149606299
0
LINE
8
BLACK
6
CONTINUOUS
10
6.0116547637795277
20
-4.2198103149606299
11
6.0086274015748034
21
-4.2125016535433071
0
LINE
8
BLACK
6
CONTINUOUS
10
6.0086274015748034
20
-4.2125016535433071
11
6.0070840944881887
21
-4.2047428346456694
0
LINE
8
BLACK
6
CONTINUOUS
10
6.0070840944881887
20
-4.2047428346456694
11
6.0070840944881887
21
-4.1970067322834641
0
LINE
8
BLACK
6
CONTINUOUS
10
6.0070840944881887
20
-4.1970067322834641
11
6.0070840944881887
21
-4.196831968503937
0
LINE
8
BLACK
6
CONTINUOUS
10
6.0070840944881887
20
-4.196831968503937
11
6.0086274015748034
21
-4.1890731496062994
0
LINE
8
BLACK
6
CONTINUOUS
10
6.0086274015748034
20
-4.1890731496062994
11
6.0116547637795277
21
-4.1817644881889766
0
LINE
8
BLACK
6
CONTINUOUS
10
6.0116547637795277
20
-4.1817644881889766
11
6.0160497637795274
21
-4.1751868897637792
0
LINE
8
BLACK
6
CONTINUOUS
10
6.0160497637795274
20
-4.1751868897637792
11
6.0216435826771653
21
-4.1695930708661413
0
LINE
8
BLACK
6
CONTINUOUS
10
6.0216435826771653
20
-4.1695930708661413
11
6.0282211811023618
21
-4.1651980708661416
0
LINE
8
BLACK
6
CONTINUOUS
10
6.0282211811023618
20
-4.1651980708661416
11
6.0355298425196846
21
-4.1621707086614173
0
LINE
8
BLACK
6
CONTINUOUS
10
6.0355298425196846
20
-4.1621707086614173
11
6.0432886614173231
21
-4.1606274015748035
0
LINE
8
BLACK
6
CONTINUOUS
10
6.0432886614173231
20
-4.1606274015748035
11
6.0511995275590547
21
-4.1606274015748035
0
LINE
8
BLACK
6
CONTINUOUS
10
6.0511995275590547
20
-4.1606274015748035
11
6.0589583464566932
21
-4.1621707086614173
0
LINE
8
BLACK
6
CONTINUOUS
10
6.0088582677165352
20
-4.2045680708661415
11
6.0103333858267716
21
-4.2119841338582678
0
LINE
8
BLACK
6
CONTINUOUS
10
6.0103333858267716
20
-4.2119841338582678
11
6.0132270078740158
21
-4.2189699212598422
0
LINE
8
BLACK
6
CONTINUOUS
10
6.0132270078740158
20
-4.2189699212598422
11
6.0174278740157483
21
-4.2252569685039365
0
LINE
8
BLACK
6
CONTINUOUS
10
6.0174278740157483
20
-4.2252569685039365
11
6.0227745275590552
21
-4.2306036220472443
0
LINE
8
BLACK
6
CONTINUOUS
10
6.0227745275590552
20
-4.2306036220472443
11
6.0290615748031495
21
-4.2348044881889759
0
LINE
8
BLACK
6
CONTINUOUS
10
6.0290615748031495
20
-4.2348044881889759
11
6.0360473622047239
21
-4.2376981102362201
0
LINE
8
BLACK
6
CONTINUOUS
10
6.0360473622047239
20
-4.2376981102362201
11
6.0434634251968502
21
-4.2391732283464565
0
LINE
8
BLACK
6
CONTINUOUS
10
6.0434634251968502
20
-4.2391732283464565
11
6.0510247637795276
21
-4.2391732283464565
0
LINE
8
BLACK
6
CONTINUOUS
10
6.0510247637795276
20
-4.2391732283464565
11
6.058440826771653
21
-4.2376981102362201
0
LINE
8
BLACK
6
CONTINUOUS
10
6.058440826771653
20
-4.2376981102362201
11
6.0654266141732283
21
-4.2348044881889759
0
LINE
8
BLACK
6
CONTINUOUS
10
6.0654266141732283
20
-4.2348044881889759
11
6.0717136614173226
21
-4.2306036220472443
0
LINE
8
BLACK
6
CONTINUOUS
10
6.0717136614173226
20
-4.2306036220472443
11
6.0770603149606295
21
-4.2252569685039365
0
LINE
8
BLACK
6
CONTINUOUS
10
6.0770603149606295
20
-4.2252569685039365
11
6.081261181102362
21
-4.2189699212598422
0
LINE
8
BLACK
6
CONTINUOUS
10
6.081261181102362
20
-4.2189699212598422
11
6.0841548031496062
21
-4.2119841338582678
0
LINE
8
BLACK
6
CONTINUOUS
10
6.0841548031496062
20
-4.2119841338582678
11
6.0856299212598426
21
-4.2045680708661415
0
LINE
8
BLACK
6
CONTINUOUS
10
6.0856299212598426
20
-4.2045680708661415
11
6.0856299212598426
21
-4.1970067322834641
0
LINE
8
BLACK
6
CONTINUOUS
10
6.0856299212598426
20
-4.1970067322834641
11
6.0841548031496062
21
-4.1895906692913387
0
LINE
8
BLACK
6
CONTINUOUS
10
6.0841548031496062
20
-4.1895906692913387
11
6.081261181102362
21
-4.1826048818897634
0
LINE
8
BLACK
6
CONTINUOUS
10
6.081261181102362
20
-4.1826048818897634
11
6.0770603149606295
21
-4.1763178346456691
0
LINE
8
BLACK
6
CONTINUOUS
10
6.0770603149606295
20
-4.1763178346456691
11
6.0717136614173226
21
-4.1709711811023622
0
LINE
8
BLACK
6
CONTINUOUS
10
6.0717136614173226
20
-4.1709711811023622
11
6.0654266141732283
21
-4.1667703149606297
0
LINE
8
BLACK
6
CONTINUOUS
10
6.0654266141732283
20
-4.1667703149606297
11
6.058440826771653
21
-4.1638766929133855
0
LINE
8
BLACK
6
CONTINUOUS
10
6.058440826771653
20
-4.1638766929133855
11
6.0510247637795276
21
-4.1624015748031491
0
LINE
8
BLACK
6
CONTINUOUS
10
6.0510247637795276
20
-4.1624015748031491
11
6.0434634251968502
21
-4.1624015748031491
0
LINE
8
BLACK
6
CONTINUOUS
10
6.0434634251968502
20
-4.1624015748031491
11
6.0360473622047239
21
-4.1638766929133855
0
LINE
8
BLACK
6
CONTINUOUS
10
6.0360473622047239
20
-4.1638766929133855
11
6.0290615748031495
21
-4.1667703149606297
0
LINE
8
BLACK
6
CONTINUOUS
10
6.0290615748031495
20
-4.1667703149606297
11
6.0227745275590552
21
-4.1709711811023622
0
LINE
8
BLACK
6
CONTINUOUS
10
6.0227745275590552
20
-4.1709711811023622
11
6.0174278740157483
21
-4.1763178346456691
0
LINE
8
BLACK
6
CONTINUOUS
10
6.0174278740157483
20
-4.1763178346456691
11
6.0132270078740158
21
-4.1826048818897634
0
LINE
8
BLACK
6
CONTINUOUS
10
6.0132270078740158
20
-4.1826048818897634
11
6.0103333858267716
21
-4.1895906692913387
0
LINE
8
BLACK
6
CONTINUOUS
10
6.0103333858267716
20
-4.1895906692913387
11
6.0088582677165352
21
-4.1970067322834641
0
LINE
8
BLACK
6
CONTINUOUS
10
6.0088582677165352
20
-4.1970067322834641
11
6.0088582677165352
21
-4.2045680708661415
0
LINE
8
BLACK
6
CONTINUOUS
10
5.9644701574803145
20
-4.0794935433070867
11
5.9717788188976373
21
-4.082520905511811
0
LINE
8
BLACK
6
CONTINUOUS
10
5.9717788188976373
20
-4.082520905511811
11
5.9783564173228347
21
-4.0869159055118107
0
LINE
8
BLACK
6
CONTINUOUS
10
5.9783564173228347
20
-4.0869159055118107
11
5.9839502362204726
21
-4.0925097244094486
0
LINE
8
BLACK
6
CONTINUOUS
10
5.9839502362204726
20
-4.0925097244094486
11
5.9883452362204723
21
-4.0990873228346452
0
LINE
8
BLACK
6
CONTINUOUS
10
5.9883452362204723
20
-4.0990873228346452
11
5.9913725984251966
21
-4.1063959842519688
0
LINE
8
BLACK
6
CONTINUOUS
10
5.9913725984251966
20
-4.1063959842519688
11
5.9929159055118113
21
-4.1141548031496065
0
LINE
8
BLACK
6
CONTINUOUS
10
5.9929159055118113
20
-4.1141548031496065
11
5.9929159055118113
21
-4.1220656692913389
0
LINE
8
BLACK
6
CONTINUOUS
10
5.9929159055118113
20
-4.1220656692913389
11
5.9913725984251966
21
-4.1298244881889765
0
LINE
8
BLACK
6
CONTINUOUS
10
5.9913725984251966
20
-4.1298244881889765
11
5.9883452362204723
21
-4.1371331496062993
0
LINE
8
BLACK
6
CONTINUOUS
10
5.9883452362204723
20
-4.1371331496062993
11
5.9839502362204726
21
-4.1437107480314959
0
LINE
8
BLACK
6
CONTINUOUS
10
5.9839502362204726
20
-4.1437107480314959
11
5.9783564173228347
21
-4.1493045669291337
0
LINE
8
BLACK
6
CONTINUOUS
10
5.9783564173228347
20
-4.1493045669291337
11
5.9717788188976373
21
-4.1536995669291334
0
LINE
8
BLACK
6
CONTINUOUS
10
5.9717788188976373
20
-4.1536995669291334
11
5.9644701574803145
21
-4.1567269291338578
0
LINE
8
BLACK
6
CONTINUOUS
10
5.9644701574803145
20
-4.1567269291338578
11
5.9567113385826769
21
-4.1582702362204724
0
LINE
8
BLACK
6
CONTINUOUS
10
5.9567113385826769
20
-4.1582702362204724
11
5.9488004724409445
21
-4.1582702362204724
0
LINE
8
BLACK
6
CONTINUOUS
10
5.9488004724409445
20
-4.1582702362204724
11
5.9410416535433068
21
-4.1567269291338578
0
LINE
8
BLACK
6
CONTINUOUS
10
5.9410416535433068
20
-4.1567269291338578
11
5.933732992125984
21
-4.1536995669291334
0
LINE
8
BLACK
6
CONTINUOUS
10
5.933732992125984
20
-4.1536995669291334
11
5.9271553937007875
21
-4.1493045669291337
0
LINE
8
BLACK
6
CONTINUOUS
10
5.9271553937007875
20
-4.1493045669291337
11
5.9215615748031496
21
-4.1437107480314959
0
LINE
8
BLACK
6
CONTINUOUS
10
5.9215615748031496
20
-4.1437107480314959
11
5.9171665748031499
21
-4.1371331496062993
0
LINE
8
BLACK
6
CONTINUOUS
10
5.9171665748031499
20
-4.1371331496062993
11
5.9141392125984247
21
-4.1298244881889765
0
LINE
8
BLACK
6
CONTINUOUS
10
5.9141392125984247
20
-4.1298244881889765
11
5.9125959055118109
21
-4.1220656692913389
0
LINE
8
BLACK
6
CONTINUOUS
10
5.9125959055118109
20
-4.1220656692913389
11
5.9125959055118109
21
-4.1143295669291335
0
LINE
8
BLACK
6
CONTINUOUS
10
5.9125959055118109
20
-4.1143295669291335
11
5.9125959055118109
21
-4.1141548031496065
0
LINE
8
BLACK
6
CONTINUOUS
10
5.9125959055118109
20
-4.1141548031496065
11
5.9141392125984247
21
-4.1063959842519688
0
LINE
8
BLACK
6
CONTINUOUS
10
5.9141392125984247
20
-4.1063959842519688
11
5.9171665748031499
21
-4.0990873228346452
0
LINE
8
BLACK
6
CONTINUOUS
10
5.9171665748031499
20
-4.0990873228346452
11
5.9215615748031496
21
-4.0925097244094486
0
LINE
8
BLACK
6
CONTINUOUS
10
5.9215615748031496
20
-4.0925097244094486
11
5.9271553937007875
21
-4.0869159055118107
0
LINE
8
BLACK
6
CONTINUOUS
10
5.9271553937007875
20
-4.0869159055118107
11
5.933732992125984
21
-4.082520905511811
0
LINE
8
BLACK
6
CONTINUOUS
10
5.933732992125984
20
-4.082520905511811
11
5.9410416535433068
21
-4.0794935433070867
0
LINE
8
BLACK
6
CONTINUOUS
10
5.9410416535433068
20
-4.0794935433070867
11
5.9488004724409445
21
-4.077950236220472
0
LINE
8
BLACK
6
CONTINUOUS
10
5.9488004724409445
20
-4.077950236220472
11
5.9567113385826769
21
-4.077950236220472
0
LINE
8
BLACK
6
CONTINUOUS
10
5.9567113385826769
20
-4.077950236220472
11
5.9644701574803145
21
-4.0794935433070867
0
LINE
8
BLACK
6
CONTINUOUS
10
5.9143700787401574
20
-4.1218909055118109
11
5.9158451968503938
21
-4.1293069685039372
0
LINE
8
BLACK
6
CONTINUOUS
10
5.9158451968503938
20
-4.1293069685039372
11
5.918738818897638
21
-4.1362927559055116
0
LINE
8
BLACK
6
CONTINUOUS
10
5.918738818897638
20
-4.1362927559055116
11
5.9229396850393696
21
-4.1425798031496059
0
LINE
8
BLACK
6
CONTINUOUS
10
5.9229396850393696
20
-4.1425798031496059
11
5.9282863385826774
21
-4.1479264566929137
0
LINE
8
BLACK
6
CONTINUOUS
10
5.9282863385826774
20
-4.1479264566929137
11
5.9345733858267717
21
-4.1521273228346454
0
LINE
8
BLACK
6
CONTINUOUS
10
5.9345733858267717
20
-4.1521273228346454
11
5.9415591732283461
21
-4.1550209448818896
0
LINE
8
BLACK
6
CONTINUOUS
10
5.9415591732283461
20
-4.1550209448818896
11
5.9489752362204724
21
-4.1564960629921259
0
LINE
8
BLACK
6
CONTINUOUS
10
5.9489752362204724
20
-4.1564960629921259
11
5.9565365748031498
21
-4.1564960629921259
0
LINE
8
BLACK
6
CONTINUOUS
10
5.9565365748031498
20
-4.1564960629921259
11
5.9639526377952752
21
-4.1550209448818896
0
LINE
8
BLACK
6
CONTINUOUS
10
5.9639526377952752
20
-4.1550209448818896
11
5.9709384251968505
21
-4.1521273228346454
0
LINE
8
BLACK
6
CONTINUOUS
10
5.9709384251968505
20
-4.1521273228346454
11
5.9772254724409448
21
-4.1479264566929137
0
LINE
8
BLACK
6
CONTINUOUS
10
5.9772254724409448
20
-4.1479264566929137
11
5.9825721259842517
21
-4.1425798031496059
0
LINE
8
BLACK
6
CONTINUOUS
10
5.9825721259842517
20
-4.1425798031496059
11
5.9867729921259842
21
-4.1362927559055116
0
LINE
8
BLACK
6
CONTINUOUS
10
5.9867729921259842
20
-4.1362927559055116
11
5.9896666141732284
21
-4.1293069685039372
0
LINE
8
BLACK
6
CONTINUOUS
10
5.9896666141732284
20
-4.1293069685039372
11
5.9911417322834648
21
-4.1218909055118109
0
LINE
8
BLACK
6
CONTINUOUS
10
5.9911417322834648
20
-4.1218909055118109
11
5.9911417322834648
21
-4.1143295669291335
0
LINE
8
BLACK
6
CONTINUOUS
10
5.9911417322834648
20
-4.1143295669291335
11
5.9896666141732284
21
-4.1069135039370082
0
LINE
8
BLACK
6
CONTINUOUS
10
5.9896666141732284
20
-4.1069135039370082
11
5.9867729921259842
21
-4.0999277165354329
0
LINE
8
BLACK
6
CONTINUOUS
10
5.9867729921259842
20
-4.0999277165354329
11
5.9825721259842517
21
-4.0936406692913385
0
LINE
8
BLACK
6
CONTINUOUS
10
5.9825721259842517
20
-4.0936406692913385
11
5.9772254724409448
21
-4.0882940157480316
0
LINE
8
BLACK
6
CONTINUOUS
10
5.9772254724409448
20
-4.0882940157480316
11
5.9709384251968505
21
-4.0840931496062991
0
LINE
8
BLACK
6
CONTINUOUS
10
5.9709384251968505
20
-4.0840931496062991
11
5.9639526377952752
21
-4.0811995275590549
0
LINE
8
BLACK
6
CONTINUOUS
10
5.9639526377952752
20
-4.0811995275590549
11
5.9565365748031498
21
-4.0797244094488185
0
LINE
8
BLACK
6
CONTINUOUS
10
5.9565365748031498
20
-4.0797244094488185
11
5.9489752362204724
21
-4.0797244094488185
0
LINE
8
BLACK
6
CONTINUOUS
10
5.9489752362204724
20
-4.0797244094488185
11
5.9415591732283461
21
-4.0811995275590549
0
LINE
8
BLACK
6
CONTINUOUS
10
5.9415591732283461
20
-4.0811995275590549
11
5.9345733858267717
21
-4.0840931496062991
0
LINE
8
BLACK
6
CONTINUOUS
10
5.9345733858267717
20
-4.0840931496062991
11
5.9282863385826774
21
-4.0882940157480316
0
LINE
8
BLACK
6
CONTINUOUS
10
5.9282863385826774
20
-4.0882940157480316
11
5.9229396850393696
21
-4.0936406692913385
0
LINE
8
BLACK
6
CONTINUOUS
10
5.9229396850393696
20
-4.0936406692913385
11
5.918738818897638
21
-4.0999277165354329
0
LINE
8
BLACK
6
CONTINUOUS
10
5.918738818897638
20
-4.0999277165354329
11
5.9158451968503938
21
-4.1069135039370082
0
LINE
8
BLACK
6
CONTINUOUS
10
5.9158451968503938
20
-4.1069135039370082
11
5.9143700787401574
21
-4.1143295669291335
0
LINE
8
BLACK
6
CONTINUOUS
10
5.9143700787401574
20
-4.1143295669291335
11
5.9143700787401574
21
-4.1218909055118109
0
LINE
8
BLACK
6
CONTINUOUS
10
6.0589583464566932
20
-4.0794935433070867
11
6.066267007874016
21
-4.082520905511811
0
LINE
8
BLACK
6
CONTINUOUS
10
6.066267007874016
20
-4.082520905511811
11
6.0728446062992125
21
-4.0869159055118107
0
LINE
8
BLACK
6
CONTINUOUS
10
6.0728446062992125
20
-4.0869159055118107
11
6.0784384251968504
21
-4.0925097244094486
0
LINE
8
BLACK
6
CONTINUOUS
10
6.0784384251968504
20
-4.0925097244094486
11
6.0828334251968501
21
-4.0990873228346452
0
LINE
8
BLACK
6
CONTINUOUS
10
6.0828334251968501
20
-4.0990873228346452
11
6.0858607874015744
21
-4.1063959842519688
0
LINE
8
BLACK
6
CONTINUOUS
10
6.0858607874015744
20
-4.1063959842519688
11
6.0874040944881891
21
-4.1141548031496065
0
LINE
8
BLACK
6
CONTINUOUS
10
6.0874040944881891
20
-4.1141548031496065
11
6.0874040944881891
21
-4.1220656692913389
0
LINE
8
BLACK
6
CONTINUOUS
10
6.0874040944881891
20
-4.1220656692913389
11
6.0858607874015744
21
-4.1298244881889765
0
LINE
8
BLACK
6
CONTINUOUS
10
6.0858607874015744
20
-4.1298244881889765
11
6.0828334251968501
21
-4.1371331496062993
0
LINE
8
BLACK
6
CONTINUOUS
10
6.0828334251968501
20
-4.1371331496062993
11
6.0784384251968504
21
-4.1437107480314959
0
LINE
8
BLACK
6
CONTINUOUS
10
6.0784384251968504
20
-4.1437107480314959
11
6.0728446062992125
21
-4.1493045669291337
0
LINE
8
BLACK
6
CONTINUOUS
10
6.0728446062992125
20
-4.1493045669291337
11
6.066267007874016
21
-4.1536995669291334
0
LINE
8
BLACK
6
CONTINUOUS
10
6.066267007874016
20
-4.1536995669291334
11
6.0589583464566932
21
-4.1567269291338578
0
LINE
8
BLACK
6
CONTINUOUS
10
6.0589583464566932
20
-4.1567269291338578
11
6.0511995275590547
21
-4.1582702362204724
0
LINE
8
BLACK
6
CONTINUOUS
10
6.0511995275590547
20
-4.1582702362204724
11
6.0432886614173231
21
-4.1582702362204724
0
LINE
8
BLACK
6
CONTINUOUS
10
6.0432886614173231
20
-4.1582702362204724
11
6.0355298425196846
21
-4.1567269291338578
0
LINE
8
BLACK
6
CONTINUOUS
10
6.0355298425196846
20
-4.1567269291338578
11
6.0282211811023618
21
-4.1536995669291334
0
LINE
8
BLACK
6
CONTINUOUS
10
6.0282211811023618
20
-4.1536995669291334
11
6.0216435826771653
21
-4.1493045669291337
0
LINE
8
BLACK
6
CONTINUOUS
10
6.0216435826771653
20
-4.1493045669291337
11
6.0160497637795274
21
-4.1437107480314959
0
LINE
8
BLACK
6
CONTINUOUS
10
6.0160497637795274
20
-4.1437107480314959
11
6.0116547637795277
21
-4.1371331496062993
0
LINE
8
BLACK
6
CONTINUOUS
10
6.0116547637795277
20
-4.1371331496062993
11
6.0086274015748034
21
-4.1298244881889765
0
LINE
8
BLACK
6
CONTINUOUS
10
6.0086274015748034
20
-4.1298244881889765
11
6.0070840944881887
21
-4.1220656692913389
0
LINE
8
BLACK
6
CONTINUOUS
10
6.0070840944881887
20
-4.1220656692913389
11
6.0070840944881887
21
-4.1143295669291335
0
LINE
8
BLACK
6
CONTINUOUS
10
6.0070840944881887
20
-4.1143295669291335
11
6.0070840944881887
21
-4.1141548031496065
0
LINE
8
BLACK
6
CONTINUOUS
10
6.0070840944881887
20
-4.1141548031496065
11
6.0086274015748034
21
-4.1063959842519688
0
LINE
8
BLACK
6
CONTINUOUS
10
6.0086274015748034
20
-4.1063959842519688
11
6.0116547637795277
21
-4.0990873228346452
0
LINE
8
BLACK
6
CONTINUOUS
10
6.0116547637795277
20
-4.0990873228346452
11
6.0160497637795274
21
-4.0925097244094486
0
LINE
8
BLACK
6
CONTINUOUS
10
6.0160497637795274
20
-4.0925097244094486
11
6.0216435826771653
21
-4.0869159055118107
0
LINE
8
BLACK
6
CONTINUOUS
10
6.0216435826771653
20
-4.0869159055118107
11
6.0282211811023618
21
-4.082520905511811
0
LINE
8
BLACK
6
CONTINUOUS
10
6.0282211811023618
20
-4.082520905511811
11
6.0355298425196846
21
-4.0794935433070867
0
LINE
8
BLACK
6
CONTINUOUS
10
6.0355298425196846
20
-4.0794935433070867
11
6.0432886614173231
21
-4.077950236220472
0
LINE
8
BLACK
6
CONTINUOUS
10
6.0432886614173231
20
-4.077950236220472
11
6.0511995275590547
21
-4.077950236220472
0
LINE
8
BLACK
6
CONTINUOUS
10
6.0511995275590547
20
-4.077950236220472
11
6.0589583464566932
21
-4.0794935433070867
0
LINE
8
BLACK
6
CONTINUOUS
10
6.0088582677165352
20
-4.1218909055118109
11
6.0103333858267716
21
-4.1293069685039372
0
LINE
8
BLACK
6
CONTINUOUS
10
6.0103333858267716
20
-4.1293069685039372
11
6.0132270078740158
21
-4.1362927559055116
0
LINE
8
BLACK
6
CONTINUOUS
10
6.0132270078740158
20
-4.1362927559055116
11
6.0174278740157483
21
-4.1425798031496059
0
LINE
8
BLACK
6
CONTINUOUS
10
6.0174278740157483
20
-4.1425798031496059
11
6.0227745275590552
21
-4.1479264566929137
0
LINE
8
BLACK
6
CONTINUOUS
10
6.0227745275590552
20
-4.1479264566929137
11
6.0290615748031495
21
-4.1521273228346454
0
LINE
8
BLACK
6
CONTINUOUS
10
6.0290615748031495
20
-4.1521273228346454
11
6.0360473622047239
21
-4.1550209448818896
0
LINE
8
BLACK
6
CONTINUOUS
10
6.0360473622047239
20
-4.1550209448818896
11
6.0434634251968502
21
-4.1564960629921259
0
LINE
8
BLACK
6
CONTINUOUS
10
6.0434634251968502
20
-4.1564960629921259
11
6.0510247637795276
21
-4.1564960629921259
0
LINE
8
BLACK
6
CONTINUOUS
10
6.0510247637795276
20
-4.1564960629921259
11
6.058440826771653
21
-4.1550209448818896
0
LINE
8
BLACK
6
CONTINUOUS
10
6.058440826771653
20
-4.1550209448818896
11
6.0654266141732283
21
-4.1521273228346454
0
LINE
8
BLACK
6
CONTINUOUS
10
6.0654266141732283
20
-4.1521273228346454
11
6.0717136614173226
21
-4.1479264566929137
0
LINE
8
BLACK
6
CONTINUOUS
10
6.0717136614173226
20
-4.1479264566929137
11
6.0770603149606295
21
-4.1425798031496059
0
LINE
8
BLACK
6
CONTINUOUS
10
6.0770603149606295
20
-4.1425798031496059
11
6.081261181102362
21
-4.1362927559055116
0
LINE
8
BLACK
6
CONTINUOUS
10
6.081261181102362
20
-4.1362927559055116
11
6.0841548031496062
21
-4.1293069685039372
0
LINE
8
BLACK
6
CONTINUOUS
10
6.0841548031496062
20
-4.1293069685039372
11
6.0856299212598426
21
-4.1218909055118109
0
LINE
8
BLACK
6
CONTINUOUS
10
6.0856299212598426
20
-4.1218909055118109
11
6.0856299212598426
21
-4.1143295669291335
0
LINE
8
BLACK
6
CONTINUOUS
10
6.0856299212598426
20
-4.1143295669291335
11
6.0841548031496062
21
-4.1069135039370082
0
LINE
8
BLACK
6
CONTINUOUS
10
6.0841548031496062
20
-4.1069135039370082
11
6.081261181102362
21
-4.0999277165354329
0
LINE
8
BLACK
6
CONTINUOUS
10
6.081261181102362
20
-4.0999277165354329
11
6.0770603149606295
21
-4.0936406692913385
0
LINE
8
BLACK
6
CONTINUOUS
10
6.0770603149606295
20
-4.0936406692913385
11
6.0717136614173226
21
-4.0882940157480316
0
LINE
8
BLACK
6
CONTINUOUS
10
6.0717136614173226
20
-4.0882940157480316
11
6.0654266141732283
21
-4.0840931496062991
0
LINE
8
BLACK
6
CONTINUOUS
10
6.0654266141732283
20
-4.0840931496062991
11
6.058440826771653
21
-4.0811995275590549
0
LINE
8
BLACK
6
CONTINUOUS
10
6.058440826771653
20
-4.0811995275590549
11
6.0510247637795276
21
-4.0797244094488185
0
LINE
8
BLACK
6
CONTINUOUS
10
6.0510247637795276
20
-4.0797244094488185
11
6.0434634251968502
21
-4.0797244094488185
0
LINE
8
BLACK
6
CONTINUOUS
10
6.0434634251968502
20
-4.0797244094488185
11
6.0360473622047239
21
-4.0811995275590549
0
LINE
8
BLACK
6
CONTINUOUS
10
6.0360473622047239
20
-4.0811995275590549
11
6.0290615748031495
21
-4.0840931496062991
0
LINE
8
BLACK
6
CONTINUOUS
10
6.0290615748031495
20
-4.0840931496062991
11
6.0227745275590552
21
-4.0882940157480316
0
LINE
8
BLACK
6
CONTINUOUS
10
6.0227745275590552
20
-4.0882940157480316
11
6.0174278740157483
21
-4.0936406692913385
0
LINE
8
BLACK
6
CONTINUOUS
10
6.0174278740157483
20
-4.0936406692913385
11
6.0132270078740158
21
-4.0999277165354329
0
LINE
8
BLACK
6
CONTINUOUS
10
6.0132270078740158
20
-4.0999277165354329
11
6.0103333858267716
21
-4.1069135039370082
0
LINE
8
BLACK
6
CONTINUOUS
10
6.0103333858267716
20
-4.1069135039370082
11
6.0088582677165352
21
-4.1143295669291335
0
LINE
8
BLACK
6
CONTINUOUS
10
6.0088582677165352
20
-4.1143295669291335
11
6.0088582677165352
21
-4.1218909055118109
0
CIRCLE
8
BLACK
10
5.8304724409448818
20
-3.3589370078740157
40
0.0068897637795276
0
CIRCLE
8
BLACK
10
6.2241732283464568
20
-4.5400393700787403
40
0.0068897637795276
0
CIRCLE
8
BLACK
10
5.4367716535433068
20
-4.5400393700787403
40
0.0068897637795276
0
CIRCLE
8
BLACK
10
6.2241732283464568
20
-3.3589370078740157
40
0.0068897637795276
0
CIRCLE
8
BLACK
10
5.8304724409448818
20
-4.5400393700787403
40
0.0068897637795276
0
CIRCLE
8
BLACK
10
5.4367716535433068
20
-3.3589370078740157
40
0.0068897637795276
0
CIRCLE
8
BLACK
10
5.6012283464566925
20
-4.0632677165354334
40
0.0068897637795276
0
CIRCLE
8
BLACK
10
5.6012283464566925
20
-3.8357086614173226
40
0.0068897637795276
0
LINE
8
BLACK
6
CONTINUOUS
10
5.4736361417322836
20
-4.1078569685039366
11
5.4766143700787397
21
-4.108654960629921
0
LINE
8
BLACK
6
CONTINUOUS
10
5.4766143700787397
20
-4.108654960629921
11
5.4792845669291337
21
-4.110196614173228
0
LINE
8
BLACK
6
CONTINUOUS
10
5.4792845669291337
20
-4.110196614173228
11
5.4814648031496063
21
-4.1123768503937006
0
LINE
8
BLACK
6
CONTINUOUS
10
5.4814648031496063
20
-4.1123768503937006
11
5.4830064566929133
21
-4.1150470472440945
0
LINE
8
BLACK
6
CONTINUOUS
10
5.4830064566929133
20
-4.1150470472440945
11
5.4838044488188977
21
-4.1180252755905506
0
LINE
8
BLACK
6
CONTINUOUS
10
5.4838044488188977
20
-4.1180252755905506
11
5.4838044488188977
21
-4.1211085826771656
0
LINE
8
BLACK
6
CONTINUOUS
10
5.4838044488188977
20
-4.1211085826771656
11
5.4830064566929133
21
-4.1240868110236217
0
LINE
8
BLACK
6
CONTINUOUS
10
5.4830064566929133
20
-4.1240868110236217
11
5.4814648031496063
21
-4.1267570078740157
0
LINE
8
BLACK
6
CONTINUOUS
10
5.4814648031496063
20
-4.1267570078740157
11
5.4792845669291337
21
-4.1289372440944883
0
LINE
8
BLACK
6
CONTINUOUS
10
5.4792845669291337
20
-4.1289372440944883
11
5.4766143700787397
21
-4.1304788976377953
0
LINE
8
BLACK
6
CONTINUOUS
10
5.4766143700787397
20
-4.1304788976377953
11
5.4736361417322836
21
-4.1312768897637797
0
LINE
8
BLACK
6
CONTINUOUS
10
5.4736361417322836
20
-4.1312768897637797
11
5.4720944881889766
21
-4.1313779527559058
0
LINE
8
BLACK
6
CONTINUOUS
10
5.4720944881889766
20
-4.1313779527559058
11
5.4405984251968507
21
-4.1313779527559058
0
LINE
8
BLACK
6
CONTINUOUS
10
5.4405984251968507
20
-4.1313779527559058
11
5.4390567716535436
21
-4.1312768897637797
0
LINE
8
BLACK
6
CONTINUOUS
10
5.4390567716535436
20
-4.1312768897637797
11
5.4360785433070866
21
-4.1304788976377953
0
LINE
8
BLACK
6
CONTINUOUS
10
5.4360785433070866
20
-4.1304788976377953
11
5.4334083464566927
21
-4.1289372440944883
0
LINE
8
BLACK
6
CONTINUOUS
10
5.4334083464566927
20
-4.1289372440944883
11
5.4312281102362201
21
-4.1267570078740157
0
LINE
8
BLACK
6
CONTINUOUS
10
5.4312281102362201
20
-4.1267570078740157
11
5.4296864566929131
21
-4.1240868110236217
0
LINE
8
BLACK
6
CONTINUOUS
10
5.4296864566929131
20
-4.1240868110236217
11
5.4288884645669286
21
-4.1211085826771656
0
LINE
8
BLACK
6
CONTINUOUS
10
5.4288884645669286
20
-4.1211085826771656
11
5.4288884645669286
21
-4.1180252755905506
0
LINE
8
BLACK
6
CONTINUOUS
10
5.4288884645669286
20
-4.1180252755905506
11
5.4296864566929131
21
-4.1150470472440945
0
LINE
8
BLACK
6
CONTINUOUS
10
5.4296864566929131
20
-4.1150470472440945
11
5.4312281102362201
21
-4.1123768503937006
0
LINE
8
BLACK
6
CONTINUOUS
10
5.4312281102362201
20
-4.1123768503937006
11
5.4334083464566927
21
-4.110196614173228
0
LINE
8
BLACK
6
CONTINUOUS
10
5.4334083464566927
20
-4.110196614173228
11
5.4360785433070866
21
-4.108654960629921
0
LINE
8
BLACK
6
CONTINUOUS
10
5.4360785433070866
20
-4.108654960629921
11
5.4390567716535436
21
-4.1078569685039366
0
LINE
8
BLACK
6
CONTINUOUS
10
5.4390567716535436
20
-4.1078569685039366
11
5.4405984251968507
21
-4.1077559055118114
0
LINE
8
BLACK
6
CONTINUOUS
10
5.4405984251968507
20
-4.1077559055118114
11
5.4720944881889766
21
-4.1077559055118114
0
LINE
8
BLACK
6
CONTINUOUS
10
5.4720944881889766
20
-4.1077559055118114
11
5.4736361417322836
21
-4.1078569685039366
0
LINE
8
BLACK
6
CONTINUOUS
10
5.4736361417322836
20
-3.7676994881889763
11
5.4766143700787397
21
-3.7684974803149607
0
LINE
8
BLACK
6
CONTINUOUS
10
5.4766143700787397
20
-3.7684974803149607
11
5.4792845669291337
21
-3.7700391338582677
0
LINE
8
BLACK
6
CONTINUOUS
10
5.4792845669291337
20
-3.7700391338582677
11
5.4814648031496063
21
-3.7722193700787399
0
LINE
8
BLACK
6
CONTINUOUS
10
5.4814648031496063
20
-3.7722193700787399
11
5.4830064566929133
21
-3.7748895669291338
0
LINE
8
BLACK
6
CONTINUOUS
10
5.4830064566929133
20
-3.7748895669291338
11
5.4838044488188977
21
-3.7778677952755904
0
LINE
8
BLACK
6
CONTINUOUS
10
5.4838044488188977
20
-3.7778677952755904
11
5.4838044488188977
21
-3.7809511023622044
0
LINE
8
BLACK
6
CONTINUOUS
10
5.4838044488188977
20
-3.7809511023622044
11
5.4830064566929133
21
-3.7839293307086614
0
LINE
8
BLACK
6
CONTINUOUS
10
5.4830064566929133
20
-3.7839293307086614
11
5.4814648031496063
21
-3.7865995275590549
0
LINE
8
BLACK
6
CONTINUOUS
10
5.4814648031496063
20
-3.7865995275590549
11
5.4792845669291337
21
-3.7887797637795275
0
LINE
8
BLACK
6
CONTINUOUS
10
5.4792845669291337
20
-3.7887797637795275
11
5.4766143700787397
21
-3.7903214173228346
0
LINE
8
BLACK
6
CONTINUOUS
10
5.4766143700787397
20
-3.7903214173228346
11
5.4736361417322836
21
-3.791119409448819
0
LINE
8
BLACK
6
CONTINUOUS
10
5.4736361417322836
20
-3.791119409448819
11
5.4720944881889766
21
-3.7912204724409446
0
LINE
8
BLACK
6
CONTINUOUS
10
5.4720944881889766
20
-3.7912204724409446
11
5.4405984251968507
21
-3.7912204724409446
0
LINE
8
BLACK
6
CONTINUOUS
10
5.4405984251968507
20
-3.7912204724409446
11
5.4390567716535436
21
-3.791119409448819
0
LINE
8
BLACK
6
CONTINUOUS
10
5.4390567716535436
20
-3.791119409448819
11
5.4360785433070866
21
-3.7903214173228346
0
LINE
8
BLACK
6
CONTINUOUS
10
5.4360785433070866
20
-3.7903214173228346
11
5.4334083464566927
21
-3.7887797637795275
0
LINE
8
BLACK
6
CONTINUOUS
10
5.4334083464566927
20
-3.7887797637795275
11
5.4312281102362201
21
-3.7865995275590549
0
LINE
8
BLACK
6
CONTINUOUS
10
5.4312281102362201
20
-3.7865995275590549
11
5.4296864566929131
21
-3.7839293307086614
0
LINE
8
BLACK
6
CONTINUOUS
10
5.4296864566929131
20
-3.7839293307086614
11
5.4288884645669286
21
-3.7809511023622044
0
LINE
8
BLACK
6
CONTINUOUS
10
5.4288884645669286
20
-3.7809511023622044
11
5.4288884645669286
21
-3.7778677952755904
0
LINE
8
BLACK
6
CONTINUOUS
10
5.4288884645669286
20
-3.7778677952755904
11
5.4296864566929131
21
-3.7748895669291338
0
LINE
8
BLACK
6
CONTINUOUS
10
5.4296864566929131
20
-3.7748895669291338
11
5.4312281102362201
21
-3.7722193700787399
0
LINE
8
BLACK
6
CONTINUOUS
10
5.4312281102362201
20
-3.7722193700787399
11
5.4334083464566927
21
-3.7700391338582677
0
LINE
8
BLACK
6
CONTINUOUS
10
5.4334083464566927
20
-3.7700391338582677
11
5.4360785433070866
21
-3.7684974803149607
0
LINE
8
BLACK
6
CONTINUOUS
10
5.4360785433070866
20
-3.7684974803149607
11
5.4390567716535436
21
-3.7676994881889763
0
LINE
8
BLACK
6
CONTINUOUS
10
5.4390567716535436
20
-3.7676994881889763
11
5.4405984251968507
21
-3.7675984251968502
0
LINE
8
BLACK
6
CONTINUOUS
10
5.4405984251968507
20
-3.7675984251968502
11
5.4720944881889766
21
-3.7675984251968502
0
LINE
8
BLACK
6
CONTINUOUS
10
5.4720944881889766
20
-3.7675984251968502
11
5.4736361417322836
21
-3.7676994881889763
0
LINE
8
BLACK
6
CONTINUOUS
10
5.6441085826771653
20
-4.1078569685039366
11
5.6470868110236223
21
-4.108654960629921
0
LINE
8
BLACK
6
CONTINUOUS
10
5.6470868110236223
20
-4.108654960629921
11
5.6497570078740154
21
-4.110196614173228
0
LINE
8
BLACK
6
CONTINUOUS
10
5.6497570078740154
20
-4.110196614173228
11
5.6519372440944879
21
-4.1123768503937006
0
LINE
8
BLACK
6
CONTINUOUS
10
5.6519372440944879
20
-4.1123768503937006
11
5.653478897637795
21
-4.1150470472440945
0
LINE
8
BLACK
6
CONTINUOUS
10
5.653478897637795
20
-4.1150470472440945
11
5.6542768897637794
21
-4.1180252755905506
0
LINE
8
BLACK
6
CONTINUOUS
10
5.6542768897637794
20
-4.1180252755905506
11
5.6542768897637794
21
-4.1211085826771656
0
LINE
8
BLACK
6
CONTINUOUS
10
5.6542768897637794
20
-4.1211085826771656
11
5.653478897637795
21
-4.1240868110236217
0
LINE
8
BLACK
6
CONTINUOUS
10
5.653478897637795
20
-4.1240868110236217
11
5.6519372440944879
21
-4.1267570078740157
0
LINE
8
BLACK
6
CONTINUOUS
10
5.6519372440944879
20
-4.1267570078740157
11
5.6497570078740154
21
-4.1289372440944883
0
LINE
8
BLACK
6
CONTINUOUS
10
5.6497570078740154
20
-4.1289372440944883
11
5.6470868110236223
21
-4.1304788976377953
0
LINE
8
BLACK
6
CONTINUOUS
10
5.6470868110236223
20
-4.1304788976377953
11
5.6441085826771653
21
-4.1312768897637797
0
LINE
8
BLACK
6
CONTINUOUS
10
5.6441085826771653
20
-4.1312768897637797
11
5.6425669291338583
21
-4.1313779527559058
0
LINE
8
BLACK
6
CONTINUOUS
10
5.6425669291338583
20
-4.1313779527559058
11
5.5992598425196851
21
-4.1313779527559058
0
LINE
8
BLACK
6
CONTINUOUS
10
5.5992598425196851
20
-4.1313779527559058
11
5.5977181889763781
21
-4.1312768897637797
0
LINE
8
BLACK
6
CONTINUOUS
10
5.5977181889763781
20
-4.1312768897637797
11
5.5947399606299211
21
-4.1304788976377953
0
LINE
8
BLACK
6
CONTINUOUS
10
5.5947399606299211
20
-4.1304788976377953
11
5.5920697637795271
21
-4.1289372440944883
0
LINE
8
BLACK
6
CONTINUOUS
10
5.5920697637795271
20
-4.1289372440944883
11
5.5898895275590545
21
-4.1267570078740157
0
LINE
8
BLACK
6
CONTINUOUS
10
5.5898895275590545
20
-4.1267570078740157
11
5.5883478740157475
21
-4.1240868110236217
0
LINE
8
BLACK
6
CONTINUOUS
10
5.5883478740157475
20
-4.1240868110236217
11
5.587549881889764
21
-4.1211085826771656
0
LINE
8
BLACK
6
CONTINUOUS
10
5.587549881889764
20
-4.1211085826771656
11
5.587549881889764
21
-4.1180252755905506
0
LINE
8
BLACK
6
CONTINUOUS
10
5.587549881889764
20
-4.1180252755905506
11
5.5883478740157475
21
-4.1150470472440945
0
LINE
8
BLACK
6
CONTINUOUS
10
5.5883478740157475
20
-4.1150470472440945
11
5.5898895275590545
21
-4.1123768503937006
0
LINE
8
BLACK
6
CONTINUOUS
10
5.5898895275590545
20
-4.1123768503937006
11
5.5920697637795271
21
-4.110196614173228
0
LINE
8
BLACK
6
CONTINUOUS
10
5.5920697637795271
20
-4.110196614173228
11
5.5947399606299211
21
-4.108654960629921
0
LINE
8
BLACK
6
CONTINUOUS
10
5.5947399606299211
20
-4.108654960629921
11
5.5977181889763781
21
-4.1078569685039366
0
LINE
8
BLACK
6
CONTINUOUS
10
5.5977181889763781
20
-4.1078569685039366
11
5.5992598425196851
21
-4.1077559055118114
0
LINE
8
BLACK
6
CONTINUOUS
10
5.5992598425196851
20
-4.1077559055118114
11
5.6425669291338583
21
-4.1077559055118114
0
LINE
8
BLACK
6
CONTINUOUS
10
5.6425669291338583
20
-4.1077559055118114
11
5.6441085826771653
21
-4.1078569685039366
0
LINE
8
BLACK
6
CONTINUOUS
10
5.6441085826771653
20
-3.7676994881889763
11
5.6470868110236223
21
-3.7684974803149607
0
LINE
8
BLACK
6
CONTINUOUS
10
5.6470868110236223
20
-3.7684974803149607
11
5.6497570078740154
21
-3.7700391338582677
0
LINE
8
BLACK
6
CONTINUOUS
10
5.6497570078740154
20
-3.7700391338582677
11
5.6519372440944879
21
-3.7722193700787399
0
LINE
8
BLACK
6
CONTINUOUS
10
5.6519372440944879
20
-3.7722193700787399
11
5.653478897637795
21
-3.7748895669291338
0
LINE
8
BLACK
6
CONTINUOUS
10
5.653478897637795
20
-3.7748895669291338
11
5.6542768897637794
21
-3.7778677952755904
0
LINE
8
BLACK
6
CONTINUOUS
10
5.6542768897637794
20
-3.7778677952755904
11
5.6542768897637794
21
-3.7809511023622044
0
LINE
8
BLACK
6
CONTINUOUS
10
5.6542768897637794
20
-3.7809511023622044
11
5.653478897637795
21
-3.7839293307086614
0
LINE
8
BLACK
6
CONTINUOUS
10
5.653478897637795
20
-3.7839293307086614
11
5.6519372440944879
21
-3.7865995275590549
0
LINE
8
BLACK
6
CONTINUOUS
10
5.6519372440944879
20
-3.7865995275590549
11
5.6497570078740154
21
-3.7887797637795275
0
LINE
8
BLACK
6
CONTINUOUS
10
5.6497570078740154
20
-3.7887797637795275
11
5.6470868110236223
21
-3.7903214173228346
0
LINE
8
BLACK
6
CONTINUOUS
10
5.6470868110236223
20
-3.7903214173228346
11
5.6441085826771653
21
-3.791119409448819
0
LINE
8
BLACK
6
CONTINUOUS
10
5.6441085826771653
20
-3.791119409448819
11
5.6425669291338583
21
-3.7912204724409446
0
LINE
8
BLACK
6
CONTINUOUS
10
5.6425669291338583
20
-3.7912204724409446
11
5.5992598425196851
21
-3.7912204724409446
0
LINE
8
BLACK
6
CONTINUOUS
10
5.5992598425196851
20
-3.7912204724409446
11
5.5977181889763781
21
-3.791119409448819
0
LINE
8
BLACK
6
CONTINUOUS
10
5.5977181889763781
20
-3.791119409448819
11
5.5947399606299211
21
-3.7903214173228346
0
LINE
8
BLACK
6
CONTINUOUS
10
5.5947399606299211
20
-3.7903214173228346
11
5.5920697637795271
21
-3.7887797637795275
0
LINE
8
BLACK
6
CONTINUOUS
10
5.5920697637795271
20
-3.7887797637795275
11
5.5898895275590545
21
-3.7865995275590549
0
LINE
8
BLACK
6
CONTINUOUS
10
5.5898895275590545
20
-3.7865995275590549
11
5.5883478740157475
21
-3.7839293307086614
0
LINE
8
BLACK
6
CONTINUOUS
10
5.5883478740157475
20
-3.7839293307086614
11
5.587549881889764
21
-3.7809511023622044
0
LINE
8
BLACK
6
CONTINUOUS
10
5.587549881889764
20
-3.7809511023622044
11
5.587549881889764
21
-3.7778677952755904
0
LINE
8
BLACK
6
CONTINUOUS
10
5.587549881889764
20
-3.7778677952755904
11
5.5883478740157475
21
-3.7748895669291338
0
LINE
8
BLACK
6
CONTINUOUS
10
5.5883478740157475
20
-3.7748895669291338
11
5.5898895275590545
21
-3.7722193700787399
0
LINE
8
BLACK
6
CONTINUOUS
10
5.5898895275590545
20
-3.7722193700787399
11
5.5920697637795271
21
-3.7700391338582677
0
LINE
8
BLACK
6
CONTINUOUS
10
5.5920697637795271
20
-3.7700391338582677
11
5.5947399606299211
21
-3.7684974803149607
0
LINE
8
BLACK
6
CONTINUOUS
10
5.5947399606299211
20
-3.7684974803149607
11
5.5977181889763781
21
-3.7676994881889763
0
LINE
8
BLACK
6
CONTINUOUS
10
5.5977181889763781
20
-3.7676994881889763
11
5.5992598425196851
21
-3.7675984251968502
0
LINE
8
BLACK
6
CONTINUOUS
10
5.5992598425196851
20
-3.7675984251968502
11
5.6425669291338583
21
-3.7675984251968502
0
LINE
8
BLACK
6
CONTINUOUS
10
5.6425669291338583
20
-3.7675984251968502
11
5.6441085826771653
21
-3.7676994881889763
0
CIRCLE
8
BLACK
10
5.8304724409448818
20
-3.3589370078740157
40
0.0068897637795276
0
CIRCLE
8
BLACK
10
6.2241732283464568
20
-4.5400393700787403
40
0.0068897637795276
0
CIRCLE
8
BLACK
10
5.4367716535433068
20
-4.5400393700787403
40
0.0068897637795276
0
CIRCLE
8
BLACK
10
6.2241732283464568
20
-3.3589370078740157
40
0.0068897637795276
0
CIRCLE
8
BLACK
10
5.8304724409448818
20
-4.5400393700787403
40
0.0068897637795276
0
CIRCLE
8
BLACK
10
5.4367716535433068
20
-3.3589370078740157
40
0.0068897637795276
0
CIRCLE
8
BLACK
10
5.6012283464566925
20
-4.0632677165354334
40
0.0068897637795276
0
CIRCLE
8
BLACK
10
5.6012283464566925
20
-3.8357086614173226
40
0.0068897637795276
0
LINE
8
BLACK
6
CONTINUOUS
10
5.4405984251968507
20
-4.1313779527559058
11
5.4720944881889766
21
-4.1313779527559058
0
ARC
8
BLACK
10
5.4720944881889766
20
-4.1195669291338586
40
0.0118110236220472
50
-90.00000000
51
90.00000000
0
LINE
8
BLACK
6
CONTINUOUS
10
5.4720944881889766
20
-4.1077559055118114
11
5.4405984251968507
21
-4.1077559055118114
0
ARC
8
BLACK
10
5.4405984251968507
20
-4.1195669291338586
40
0.0118110236220472
50
90.00000000
51
270.00000000
0
LINE
8
BLACK
6
CONTINUOUS
10
5.4405984251968507
20
-3.7912204724409446
11
5.4720944881889766
21
-3.7912204724409446
0
ARC
8
BLACK
10
5.4720944881889766
20
-3.7794094488188974
40
0.0118110236220472
50
-90.00000000
51
90.00000000
0
LINE
8
BLACK
6
CONTINUOUS
10
5.4720944881889766
20
-3.7675984251968502
11
5.4405984251968507
21
-3.7675984251968502
0
ARC
8
BLACK
10
5.4405984251968507
20
-3.7794094488188974
40
0.0118110236220472
50
90.00000000
51
270.00000000
0
LINE
8
BLACK
6
CONTINUOUS
10
5.5992598425196851
20
-4.1313779527559058
11
5.6425669291338583
21
-4.1313779527559058
0
ARC
8
BLACK
10
5.6425669291338583
20
-4.1195669291338586
40
0.0118110236220472
50
-90.00000000
51
90.00000000
0
LINE
8
BLACK
6
CONTINUOUS
10
5.6425669291338583
20
-4.1077559055118114
11
5.5992598425196851
21
-4.1077559055118114
0
ARC
8
BLACK
10
5.5992598425196851
20
-4.1195669291338586
40
0.0118110236220472
50
90.00000000
51
270.00000000
0
LINE
8
BLACK
6
CONTINUOUS
10
5.5992598425196851
20
-3.7912204724409446
11
5.6425669291338583
21
-3.7912204724409446
0
ARC
8
BLACK
10
5.6425669291338583
20
-3.7794094488188974
40
0.0118110236220472
50
-90.00000000
51
90.00000000
0
LINE
8
BLACK
6
CONTINUOUS
10
5.6425669291338583
20
-3.7675984251968502
11
5.5992598425196851
21
-3.7675984251968502
0
ARC
8
BLACK
10
5.5992598425196851
20
-3.7794094488188974
40
0.0118110236220472
50
90.00000000
51
270.00000000
  0
ENDSEC
  0
EOF
