  0
SECTION
  2
HEADER
  9
$ANGBASE
  50
0.0
  9
$ANGDIR
  70
1
  9
$MEASUREMENT
  70
0
  0
ENDSEC
  0
SECTION
  2
TABLES
  0
TABLE
  2
LTYPE
  70
4
  0
LTYPE
  5
40F
  2
CONTINUOUS
  70
0
  3
Solid line
  72
65
  73
0
  40
0.0
  0
LTYPE
  5
410
  2
DASHDOT
 70
0
  3
Dash Dot ____ _ ____ _
 72
65
 73
4
 40
2.0
 49
1.25
 49
-0.25
 49
0.25
 49
-0.25
  0
LTYPE
  5
411
  2
DASHED
 70
0
  3
Dashed __ __ __ __ __
 72
65
 73
2
 40
0.75
 49
0.5
 49
-0.25
  0
LTYPE
  5
43B
  2
DOTTED
 70
0
  3
Dotted .  .  .  .
 72
65
 73
2
 40
0.2
 49
0.0
 49
-0.2
  0
ENDTAB
  0
TABLE
  2
STYLE
  70
4
  0
STYLE
  2
KICAD
  70
0
  40
0
  41
1
  42
1
  50
0
  71
0
  3
isocp.shx
  0
STYLE
  2
KICADB
  70
0
  40
0
  41
1
  42
1
  50
0
  71
0
  3
isocp.shx
  0
STYLE
  2
KICADI
  70
0
  40
0
  41
1
  42
1
  50
15
  71
0
  3
isocp.shx
  0
STYLE
  2
KICADBI
  70
0
  40
0
  41
1
  42
1
  50
15
  71
0
  3
isocp.shx
  0
ENDTAB
  0
TABLE
  2
LAYER
  70
1
  0
LAYER
  2
BLACK
  70
0
  62
7
  6
CONTINUOUS
  0
ENDTAB
  0
ENDSEC
  0
SECTION
  2
ENTITIES
0
LINE
8
BLACK
6
CONTINUOUS
10
5.4512688188976375
20
-4.4827913385826772
11
5.4604938188976373
21
-4.4859582677165353
0
LINE
8
BLACK
6
CONTINUOUS
10
5.4604938188976373
20
-4.4859582677165353
11
5.4690717322834645
21
-4.4906003937007872
0
LINE
8
BLACK
6
CONTINUOUS
10
5.4690717322834645
20
-4.4906003937007872
11
5.476768582677165
21
-4.4965911023622045
0
LINE
8
BLACK
6
CONTINUOUS
10
5.476768582677165
20
-4.4965911023622045
11
5.4833744488188971
21
-4.5037669685039372
0
LINE
8
BLACK
6
CONTINUOUS
10
5.4833744488188971
20
-4.5037669685039372
11
5.4887090944881889
21
-4.5119322440944885
0
LINE
8
BLACK
6
CONTINUOUS
10
5.4887090944881889
20
-4.5119322440944885
11
5.4926270078740158
21
-4.5208642125984255
0
LINE
8
BLACK
6
CONTINUOUS
10
5.4926270078740158
20
-4.5208642125984255
11
5.4950213385826769
21
-4.5303192125984255
0
LINE
8
BLACK
6
CONTINUOUS
10
5.4950213385826769
20
-4.5303192125984255
11
5.4958267716535429
21
-4.5400393700787403
0
LINE
8
BLACK
6
CONTINUOUS
10
5.4958267716535429
20
-4.5400393700787403
11
5.4950213385826769
21
-4.549759527559055
0
LINE
8
BLACK
6
CONTINUOUS
10
5.4950213385826769
20
-4.549759527559055
11
5.4926270078740158
21
-4.559214527559055
0
LINE
8
BLACK
6
CONTINUOUS
10
5.4926270078740158
20
-4.559214527559055
11
5.4887090944881889
21
-4.5681464960629921
0
LINE
8
BLACK
6
CONTINUOUS
10
5.4887090944881889
20
-4.5681464960629921
11
5.4833744488188971
21
-4.5763117716535433
0
LINE
8
BLACK
6
CONTINUOUS
10
5.4833744488188971
20
-4.5763117716535433
11
5.476768582677165
21
-4.5834876377952751
0
LINE
8
BLACK
6
CONTINUOUS
10
5.476768582677165
20
-4.5834876377952751
11
5.4690717322834645
21
-4.5894783464566924
0
LINE
8
BLACK
6
CONTINUOUS
10
5.4690717322834645
20
-4.5894783464566924
11
5.4604938188976373
21
-4.5941204724409443
0
LINE
8
BLACK
6
CONTINUOUS
10
5.4604938188976373
20
-4.5941204724409443
11
5.4512688188976375
21
-4.5972874015748033
0
LINE
8
BLACK
6
CONTINUOUS
10
5.4512688188976375
20
-4.5972874015748033
11
5.4416483858267712
21
-4.5988927952755905
0
LINE
8
BLACK
6
CONTINUOUS
10
5.4416483858267712
20
-4.5988927952755905
11
5.4318949212598424
21
-4.5988927952755905
0
LINE
8
BLACK
6
CONTINUOUS
10
5.4318949212598424
20
-4.5988927952755905
11
5.4222744881889762
21
-4.5972874015748033
0
LINE
8
BLACK
6
CONTINUOUS
10
5.4222744881889762
20
-4.5972874015748033
11
5.4130494881889764
21
-4.5941204724409443
0
LINE
8
BLACK
6
CONTINUOUS
10
5.4130494881889764
20
-4.5941204724409443
11
5.4044715748031491
21
-4.5894783464566924
0
LINE
8
BLACK
6
CONTINUOUS
10
5.4044715748031491
20
-4.5894783464566924
11
5.3967747244094486
21
-4.5834876377952751
0
LINE
8
BLACK
6
CONTINUOUS
10
5.3967747244094486
20
-4.5834876377952751
11
5.3901688582677165
21
-4.5763117716535433
0
LINE
8
BLACK
6
CONTINUOUS
10
5.3901688582677165
20
-4.5763117716535433
11
5.3848342125984248
21
-4.5681464960629921
0
LINE
8
BLACK
6
CONTINUOUS
10
5.3848342125984248
20
-4.5681464960629921
11
5.3809162992125987
21
-4.559214527559055
0
LINE
8
BLACK
6
CONTINUOUS
10
5.3809162992125987
20
-4.559214527559055
11
5.3785219685039367
21
-4.549759527559055
0
LINE
8
BLACK
6
CONTINUOUS
10
5.3785219685039367
20
-4.549759527559055
11
5.3777165354330707
21
-4.5400393700787403
0
LINE
8
BLACK
6
CONTINUOUS
10
5.3777165354330707
20
-4.5400393700787403
11
5.3785219685039367
21
-4.5303192125984255
0
LINE
8
BLACK
6
CONTINUOUS
10
5.3785219685039367
20
-4.5303192125984255
11
5.3809162992125987
21
-4.5208642125984255
0
LINE
8
BLACK
6
CONTINUOUS
10
5.3809162992125987
20
-4.5208642125984255
11
5.3848342125984248
21
-4.5119322440944885
0
LINE
8
BLACK
6
CONTINUOUS
10
5.3848342125984248
20
-4.5119322440944885
11
5.3901688582677165
21
-4.5037669685039372
0
LINE
8
BLACK
6
CONTINUOUS
10
5.3901688582677165
20
-4.5037669685039372
11
5.3967747244094486
21
-4.4965911023622045
0
LINE
8
BLACK
6
CONTINUOUS
10
5.3967747244094486
20
-4.4965911023622045
11
5.4044715748031491
21
-4.4906003937007872
0
LINE
8
BLACK
6
CONTINUOUS
10
5.4044715748031491
20
-4.4906003937007872
11
5.4130494881889764
21
-4.4859582677165353
0
LINE
8
BLACK
6
CONTINUOUS
10
5.4130494881889764
20
-4.4859582677165353
11
5.4222744881889762
21
-4.4827913385826772
0
LINE
8
BLACK
6
CONTINUOUS
10
5.4222744881889762
20
-4.4827913385826772
11
5.4318949212598424
21
-4.48118594488189
0
LINE
8
BLACK
6
CONTINUOUS
10
5.4318949212598424
20
-4.48118594488189
11
5.4416483858267712
21
-4.48118594488189
0
LINE
8
BLACK
6
CONTINUOUS
10
5.4416483858267712
20
-4.48118594488189
11
5.4512688188976375
21
-4.4827913385826772
0
LINE
8
BLACK
6
CONTINUOUS
10
5.8449696062992125
20
-4.4827913385826772
11
5.8541946062992123
21
-4.4859582677165353
0
LINE
8
BLACK
6
CONTINUOUS
10
5.8541946062992123
20
-4.4859582677165353
11
5.8627725196850395
21
-4.4906003937007872
0
LINE
8
BLACK
6
CONTINUOUS
10
5.8627725196850395
20
-4.4906003937007872
11
5.87046937007874
21
-4.4965911023622045
0
LINE
8
BLACK
6
CONTINUOUS
10
5.87046937007874
20
-4.4965911023622045
11
5.8770752362204721
21
-4.5037669685039372
0
LINE
8
BLACK
6
CONTINUOUS
10
5.8770752362204721
20
-4.5037669685039372
11
5.8824098818897639
21
-4.5119322440944885
0
LINE
8
BLACK
6
CONTINUOUS
10
5.8824098818897639
20
-4.5119322440944885
11
5.8863277952755908
21
-4.5208642125984255
0
LINE
8
BLACK
6
CONTINUOUS
10
5.8863277952755908
20
-4.5208642125984255
11
5.8887221259842519
21
-4.5303192125984255
0
LINE
8
BLACK
6
CONTINUOUS
10
5.8887221259842519
20
-4.5303192125984255
11
5.8895275590551179
21
-4.5400393700787403
0
LINE
8
BLACK
6
CONTINUOUS
10
5.8895275590551179
20
-4.5400393700787403
11
5.8887221259842519
21
-4.549759527559055
0
LINE
8
BLACK
6
CONTINUOUS
10
5.8887221259842519
20
-4.549759527559055
11
5.8863277952755908
21
-4.559214527559055
0
LINE
8
BLACK
6
CONTINUOUS
10
5.8863277952755908
20
-4.559214527559055
11
5.8824098818897639
21
-4.5681464960629921
0
LINE
8
BLACK
6
CONTINUOUS
10
5.8824098818897639
20
-4.5681464960629921
11
5.8770752362204721
21
-4.5763117716535433
0
LINE
8
BLACK
6
CONTINUOUS
10
5.8770752362204721
20
-4.5763117716535433
11
5.87046937007874
21
-4.5834876377952751
0
LINE
8
BLACK
6
CONTINUOUS
10
5.87046937007874
20
-4.5834876377952751
11
5.8627725196850395
21
-4.5894783464566924
0
LINE
8
BLACK
6
CONTINUOUS
10
5.8627725196850395
20
-4.5894783464566924
11
5.8541946062992123
21
-4.5941204724409443
0
LINE
8
BLACK
6
CONTINUOUS
10
5.8541946062992123
20
-4.5941204724409443
11
5.8449696062992125
21
-4.5972874015748033
0
LINE
8
BLACK
6
CONTINUOUS
10
5.8449696062992125
20
-4.5972874015748033
11
5.8353491732283462
21
-4.5988927952755905
0
LINE
8
BLACK
6
CONTINUOUS
10
5.8353491732283462
20
-4.5988927952755905
11
5.8255957086614174
21
-4.5988927952755905
0
LINE
8
BLACK
6
CONTINUOUS
10
5.8255957086614174
20
-4.5988927952755905
11
5.8159752755905512
21
-4.5972874015748033
0
LINE
8
BLACK
6
CONTINUOUS
10
5.8159752755905512
20
-4.5972874015748033
11
5.8067502755905513
21
-4.5941204724409443
0
LINE
8
BLACK
6
CONTINUOUS
10
5.8067502755905513
20
-4.5941204724409443
11
5.7981723622047241
21
-4.5894783464566924
0
LINE
8
BLACK
6
CONTINUOUS
10
5.7981723622047241
20
-4.5894783464566924
11
5.7904755118110236
21
-4.5834876377952751
0
LINE
8
BLACK
6
CONTINUOUS
10
5.7904755118110236
20
-4.5834876377952751
11
5.7838696456692915
21
-4.5763117716535433
0
LINE
8
BLACK
6
CONTINUOUS
10
5.7838696456692915
20
-4.5763117716535433
11
5.7785349999999998
21
-4.5681464960629921
0
LINE
8
BLACK
6
CONTINUOUS
10
5.7785349999999998
20
-4.5681464960629921
11
5.7746170866141728
21
-4.559214527559055
0
LINE
8
BLACK
6
CONTINUOUS
10
5.7746170866141728
20
-4.559214527559055
11
5.7722227559055117
21
-4.549759527559055
0
LINE
8
BLACK
6
CONTINUOUS
10
5.7722227559055117
20
-4.549759527559055
11
5.7714173228346457
21
-4.5400393700787403
0
LINE
8
BLACK
6
CONTINUOUS
10
5.7714173228346457
20
-4.5400393700787403
11
5.7722227559055117
21
-4.5303192125984255
0
LINE
8
BLACK
6
CONTINUOUS
10
5.7722227559055117
20
-4.5303192125984255
11
5.7746170866141728
21
-4.5208642125984255
0
LINE
8
BLACK
6
CONTINUOUS
10
5.7746170866141728
20
-4.5208642125984255
11
5.7785349999999998
21
-4.5119322440944885
0
LINE
8
BLACK
6
CONTINUOUS
10
5.7785349999999998
20
-4.5119322440944885
11
5.7838696456692915
21
-4.5037669685039372
0
LINE
8
BLACK
6
CONTINUOUS
10
5.7838696456692915
20
-4.5037669685039372
11
5.7904755118110236
21
-4.4965911023622045
0
LINE
8
BLACK
6
CONTINUOUS
10
5.7904755118110236
20
-4.4965911023622045
11
5.7981723622047241
21
-4.4906003937007872
0
LINE
8
BLACK
6
CONTINUOUS
10
5.7981723622047241
20
-4.4906003937007872
11
5.8067502755905513
21
-4.4859582677165353
0
LINE
8
BLACK
6
CONTINUOUS
10
5.8067502755905513
20
-4.4859582677165353
11
5.8159752755905512
21
-4.4827913385826772
0
LINE
8
BLACK
6
CONTINUOUS
10
5.8159752755905512
20
-4.4827913385826772
11
5.8255957086614174
21
-4.48118594488189
0
LINE
8
BLACK
6
CONTINUOUS
10
5.8255957086614174
20
-4.48118594488189
11
5.8353491732283462
21
-4.48118594488189
0
LINE
8
BLACK
6
CONTINUOUS
10
5.8353491732283462
20
-4.48118594488189
11
5.8449696062992125
21
-4.4827913385826772
0
LINE
8
BLACK
6
CONTINUOUS
10
6.2386703937007875
20
-4.4827913385826772
11
6.2478953937007873
21
-4.4859582677165353
0
LINE
8
BLACK
6
CONTINUOUS
10
6.2478953937007873
20
-4.4859582677165353
11
6.2564733070866136
21
-4.4906003937007872
0
LINE
8
BLACK
6
CONTINUOUS
10
6.2564733070866136
20
-4.4906003937007872
11
6.264170157480315
21
-4.4965911023622045
0
LINE
8
BLACK
6
CONTINUOUS
10
6.264170157480315
20
-4.4965911023622045
11
6.2707760236220471
21
-4.5037669685039372
0
LINE
8
BLACK
6
CONTINUOUS
10
6.2707760236220471
20
-4.5037669685039372
11
6.2761106692913389
21
-4.5119322440944885
0
LINE
8
BLACK
6
CONTINUOUS
10
6.2761106692913389
20
-4.5119322440944885
11
6.2800285826771649
21
-4.5208642125984255
0
LINE
8
BLACK
6
CONTINUOUS
10
6.2800285826771649
20
-4.5208642125984255
11
6.2824229133858269
21
-4.5303192125984255
0
LINE
8
BLACK
6
CONTINUOUS
10
6.2824229133858269
20
-4.5303192125984255
11
6.2832283464566929
21
-4.5400393700787403
0
LINE
8
BLACK
6
CONTINUOUS
10
6.2832283464566929
20
-4.5400393700787403
11
6.2824229133858269
21
-4.549759527559055
0
LINE
8
BLACK
6
CONTINUOUS
10
6.2824229133858269
20
-4.549759527559055
11
6.2800285826771649
21
-4.559214527559055
0
LINE
8
BLACK
6
CONTINUOUS
10
6.2800285826771649
20
-4.559214527559055
11
6.2761106692913389
21
-4.5681464960629921
0
LINE
8
BLACK
6
CONTINUOUS
10
6.2761106692913389
20
-4.5681464960629921
11
6.2707760236220471
21
-4.5763117716535433
0
LINE
8
BLACK
6
CONTINUOUS
10
6.2707760236220471
20
-4.5763117716535433
11
6.264170157480315
21
-4.5834876377952751
0
LINE
8
BLACK
6
CONTINUOUS
10
6.264170157480315
20
-4.5834876377952751
11
6.2564733070866136
21
-4.5894783464566924
0
LINE
8
BLACK
6
CONTINUOUS
10
6.2564733070866136
20
-4.5894783464566924
11
6.2478953937007873
21
-4.5941204724409443
0
LINE
8
BLACK
6
CONTINUOUS
10
6.2478953937007873
20
-4.5941204724409443
11
6.2386703937007875
21
-4.5972874015748033
0
LINE
8
BLACK
6
CONTINUOUS
10
6.2386703937007875
20
-4.5972874015748033
11
6.2290499606299212
21
-4.5988927952755905
0
LINE
8
BLACK
6
CONTINUOUS
10
6.2290499606299212
20
-4.5988927952755905
11
6.2192964960629924
21
-4.5988927952755905
0
LINE
8
BLACK
6
CONTINUOUS
10
6.2192964960629924
20
-4.5988927952755905
11
6.2096760629921262
21
-4.5972874015748033
0
LINE
8
BLACK
6
CONTINUOUS
10
6.2096760629921262
20
-4.5972874015748033
11
6.2004510629921255
21
-4.5941204724409443
0
LINE
8
BLACK
6
CONTINUOUS
10
6.2004510629921255
20
-4.5941204724409443
11
6.1918731496062991
21
-4.5894783464566924
0
LINE
8
BLACK
6
CONTINUOUS
10
6.1918731496062991
20
-4.5894783464566924
11
6.1841762992125986
21
-4.5834876377952751
0
LINE
8
BLACK
6
CONTINUOUS
10
6.1841762992125986
20
-4.5834876377952751
11
6.1775704330708656
21
-4.5763117716535433
0
LINE
8
BLACK
6
CONTINUOUS
10
6.1775704330708656
20
-4.5763117716535433
11
6.1722357874015747
21
-4.5681464960629921
0
LINE
8
BLACK
6
CONTINUOUS
10
6.1722357874015747
20
-4.5681464960629921
11
6.1683178740157478
21
-4.559214527559055
0
LINE
8
BLACK
6
CONTINUOUS
10
6.1683178740157478
20
-4.559214527559055
11
6.1659235433070867
21
-4.549759527559055
0
LINE
8
BLACK
6
CONTINUOUS
10
6.1659235433070867
20
-4.549759527559055
11
6.1651181102362207
21
-4.5400393700787403
0
LINE
8
BLACK
6
CONTINUOUS
10
6.1651181102362207
20
-4.5400393700787403
11
6.1659235433070867
21
-4.5303192125984255
0
LINE
8
BLACK
6
CONTINUOUS
10
6.1659235433070867
20
-4.5303192125984255
11
6.1683178740157478
21
-4.5208642125984255
0
LINE
8
BLACK
6
CONTINUOUS
10
6.1683178740157478
20
-4.5208642125984255
11
6.1722357874015747
21
-4.5119322440944885
0
LINE
8
BLACK
6
CONTINUOUS
10
6.1722357874015747
20
-4.5119322440944885
11
6.1775704330708656
21
-4.5037669685039372
0
LINE
8
BLACK
6
CONTINUOUS
10
6.1775704330708656
20
-4.5037669685039372
11
6.1841762992125986
21
-4.4965911023622045
0
LINE
8
BLACK
6
CONTINUOUS
10
6.1841762992125986
20
-4.4965911023622045
11
6.1918731496062991
21
-4.4906003937007872
0
LINE
8
BLACK
6
CONTINUOUS
10
6.1918731496062991
20
-4.4906003937007872
11
6.2004510629921255
21
-4.4859582677165353
0
LINE
8
BLACK
6
CONTINUOUS
10
6.2004510629921255
20
-4.4859582677165353
11
6.2096760629921262
21
-4.4827913385826772
0
LINE
8
BLACK
6
CONTINUOUS
10
6.2096760629921262
20
-4.4827913385826772
11
6.2192964960629924
21
-4.48118594488189
0
LINE
8
BLACK
6
CONTINUOUS
10
6.2192964960629924
20
-4.48118594488189
11
6.2290499606299212
21
-4.48118594488189
0
LINE
8
BLACK
6
CONTINUOUS
10
6.2290499606299212
20
-4.48118594488189
11
6.2386703937007875
21
-4.4827913385826772
0
LINE
8
BLACK
6
CONTINUOUS
10
5.9625284645669288
20
-4.1750192519685037
11
5.9684112204724409
21
-4.1781067322834646
0
LINE
8
BLACK
6
CONTINUOUS
10
5.9684112204724409
20
-4.1781067322834646
11
5.9733841732283466
21
-4.182512362204724
0
LINE
8
BLACK
6
CONTINUOUS
10
5.9733841732283466
20
-4.182512362204724
11
5.9771582283464566
21
-4.1879800787401571
0
LINE
8
BLACK
6
CONTINUOUS
10
5.9771582283464566
20
-4.1879800787401571
11
5.9795141338582676
21
-4.1941920866141729
0
LINE
8
BLACK
6
CONTINUOUS
10
5.9795141338582676
20
-4.1941920866141729
11
5.9803149606299213
21
-4.2007874015748028
0
LINE
8
BLACK
6
CONTINUOUS
10
5.9803149606299213
20
-4.2007874015748028
11
5.9795141338582676
21
-4.2073827165354327
0
LINE
8
BLACK
6
CONTINUOUS
10
5.9795141338582676
20
-4.2073827165354327
11
5.9771582283464566
21
-4.2135947244094485
0
LINE
8
BLACK
6
CONTINUOUS
10
5.9771582283464566
20
-4.2135947244094485
11
5.9733841732283466
21
-4.2190624409448816
0
LINE
8
BLACK
6
CONTINUOUS
10
5.9733841732283466
20
-4.2190624409448816
11
5.9684112204724409
21
-4.2234680708661418
0
LINE
8
BLACK
6
CONTINUOUS
10
5.9684112204724409
20
-4.2234680708661418
11
5.9625284645669288
21
-4.2265555511811019
0
LINE
8
BLACK
6
CONTINUOUS
10
5.9625284645669288
20
-4.2265555511811019
11
5.9560777952755908
21
-4.2281455118110234
0
LINE
8
BLACK
6
CONTINUOUS
10
5.9560777952755908
20
-4.2281455118110234
11
5.9494340157480314
21
-4.2281455118110234
0
LINE
8
BLACK
6
CONTINUOUS
10
5.9494340157480314
20
-4.2281455118110234
11
5.9429833464566926
21
-4.2265555511811019
0
LINE
8
BLACK
6
CONTINUOUS
10
5.9429833464566926
20
-4.2265555511811019
11
5.9371005905511813
21
-4.2234680708661418
0
LINE
8
BLACK
6
CONTINUOUS
10
5.9371005905511813
20
-4.2234680708661418
11
5.9321276377952756
21
-4.2190624409448816
0
LINE
8
BLACK
6
CONTINUOUS
10
5.9321276377952756
20
-4.2190624409448816
11
5.9283535826771656
21
-4.2135947244094485
0
LINE
8
BLACK
6
CONTINUOUS
10
5.9283535826771656
20
-4.2135947244094485
11
5.9259976771653546
21
-4.2073827165354327
0
LINE
8
BLACK
6
CONTINUOUS
10
5.9259976771653546
20
-4.2073827165354327
11
5.9251968503937009
21
-4.2007874015748028
0
LINE
8
BLACK
6
CONTINUOUS
10
5.9251968503937009
20
-4.2007874015748028
11
5.9259976771653546
21
-4.1941920866141729
0
LINE
8
BLACK
6
CONTINUOUS
10
5.9259976771653546
20
-4.1941920866141729
11
5.9283535826771656
21
-4.1879800787401571
0
LINE
8
BLACK
6
CONTINUOUS
10
5.9283535826771656
20
-4.1879800787401571
11
5.9321276377952756
21
-4.182512362204724
0
LINE
8
BLACK
6
CONTINUOUS
10
5.9321276377952756
20
-4.182512362204724
11
5.9371005905511813
21
-4.1781067322834646
0
LINE
8
BLACK
6
CONTINUOUS
10
5.9371005905511813
20
-4.1781067322834646
11
5.9429833464566926
21
-4.1750192519685037
0
LINE
8
BLACK
6
CONTINUOUS
10
5.9429833464566926
20
-4.1750192519685037
11
5.9494340157480314
21
-4.1734292913385822
0
LINE
8
BLACK
6
CONTINUOUS
10
5.9494340157480314
20
-4.1734292913385822
11
5.9560777952755908
21
-4.1734292913385822
0
LINE
8
BLACK
6
CONTINUOUS
10
5.9560777952755908
20
-4.1734292913385822
11
5.9625284645669288
21
-4.1750192519685037
0
LINE
8
BLACK
6
CONTINUOUS
10
6.0570166535433065
20
-4.1750192519685037
11
6.0628994094488187
21
-4.1781067322834646
0
LINE
8
BLACK
6
CONTINUOUS
10
6.0628994094488187
20
-4.1781067322834646
11
6.0678723622047244
21
-4.182512362204724
0
LINE
8
BLACK
6
CONTINUOUS
10
6.0678723622047244
20
-4.182512362204724
11
6.0716464173228344
21
-4.1879800787401571
0
LINE
8
BLACK
6
CONTINUOUS
10
6.0716464173228344
20
-4.1879800787401571
11
6.0740023228346454
21
-4.1941920866141729
0
LINE
8
BLACK
6
CONTINUOUS
10
6.0740023228346454
20
-4.1941920866141729
11
6.0748031496062991
21
-4.2007874015748028
0
LINE
8
BLACK
6
CONTINUOUS
10
6.0748031496062991
20
-4.2007874015748028
11
6.0740023228346454
21
-4.2073827165354327
0
LINE
8
BLACK
6
CONTINUOUS
10
6.0740023228346454
20
-4.2073827165354327
11
6.0716464173228344
21
-4.2135947244094485
0
LINE
8
BLACK
6
CONTINUOUS
10
6.0716464173228344
20
-4.2135947244094485
11
6.0678723622047244
21
-4.2190624409448816
0
LINE
8
BLACK
6
CONTINUOUS
10
6.0678723622047244
20
-4.2190624409448816
11
6.0628994094488187
21
-4.2234680708661418
0
LINE
8
BLACK
6
CONTINUOUS
10
6.0628994094488187
20
-4.2234680708661418
11
6.0570166535433065
21
-4.2265555511811019
0
LINE
8
BLACK
6
CONTINUOUS
10
6.0570166535433065
20
-4.2265555511811019
11
6.0505659842519686
21
-4.2281455118110234
0
LINE
8
BLACK
6
CONTINUOUS
10
6.0505659842519686
20
-4.2281455118110234
11
6.0439222047244092
21
-4.2281455118110234
0
LINE
8
BLACK
6
CONTINUOUS
10
6.0439222047244092
20
-4.2281455118110234
11
6.0374715354330704
21
-4.2265555511811019
0
LINE
8
BLACK
6
CONTINUOUS
10
6.0374715354330704
20
-4.2265555511811019
11
6.0315887795275591
21
-4.2234680708661418
0
LINE
8
BLACK
6
CONTINUOUS
10
6.0315887795275591
20
-4.2234680708661418
11
6.0266158267716534
21
-4.2190624409448816
0
LINE
8
BLACK
6
CONTINUOUS
10
6.0266158267716534
20
-4.2190624409448816
11
6.0228417716535434
21
-4.2135947244094485
0
LINE
8
BLACK
6
CONTINUOUS
10
6.0228417716535434
20
-4.2135947244094485
11
6.0204858661417324
21
-4.2073827165354327
0
LINE
8
BLACK
6
CONTINUOUS
10
6.0204858661417324
20
-4.2073827165354327
11
6.0196850393700787
21
-4.2007874015748028
0
LINE
8
BLACK
6
CONTINUOUS
10
6.0196850393700787
20
-4.2007874015748028
11
6.0204858661417324
21
-4.1941920866141729
0
LINE
8
BLACK
6
CONTINUOUS
10
6.0204858661417324
20
-4.1941920866141729
11
6.0228417716535434
21
-4.1879800787401571
0
LINE
8
BLACK
6
CONTINUOUS
10
6.0228417716535434
20
-4.1879800787401571
11
6.0266158267716534
21
-4.182512362204724
0
LINE
8
BLACK
6
CONTINUOUS
10
6.0266158267716534
20
-4.182512362204724
11
6.0315887795275591
21
-4.1781067322834646
0
LINE
8
BLACK
6
CONTINUOUS
10
6.0315887795275591
20
-4.1781067322834646
11
6.0374715354330704
21
-4.1750192519685037
0
LINE
8
BLACK
6
CONTINUOUS
10
6.0374715354330704
20
-4.1750192519685037
11
6.0439222047244092
21
-4.1734292913385822
0
LINE
8
BLACK
6
CONTINUOUS
10
6.0439222047244092
20
-4.1734292913385822
11
6.0505659842519686
21
-4.1734292913385822
0
LINE
8
BLACK
6
CONTINUOUS
10
6.0505659842519686
20
-4.1734292913385822
11
6.0570166535433065
21
-4.1750192519685037
0
LINE
8
BLACK
6
CONTINUOUS
10
5.6448963385826767
20
-4.091216614173228
11
5.6513450787401576
21
-4.0927449999999999
0
LINE
8
BLACK
6
CONTINUOUS
10
5.6513450787401576
20
-4.0927449999999999
11
5.6572674803149603
21
-4.0957193307086612
0
LINE
8
BLACK
6
CONTINUOUS
10
5.6572674803149603
20
-4.0957193307086612
11
5.6623443307086614
21
-4.0999793307086616
0
LINE
8
BLACK
6
CONTINUOUS
10
5.6623443307086614
20
-4.0999793307086616
11
5.6663018897637798
21
-4.1052952755905512
0
LINE
8
BLACK
6
CONTINUOUS
10
5.6663018897637798
20
-4.1052952755905512
11
5.6689268503937003
21
-4.1113806299212596
0
LINE
8
BLACK
6
CONTINUOUS
10
5.6689268503937003
20
-4.1113806299212596
11
5.670077677165354
21
-4.1179072834645671
0
LINE
8
BLACK
6
CONTINUOUS
10
5.670077677165354
20
-4.1179072834645671
11
5.6696923622047244
21
-4.1245234251968501
0
LINE
8
BLACK
6
CONTINUOUS
10
5.6696923622047244
20
-4.1245234251968501
11
5.6677916141732281
21
-4.1308723622047241
0
LINE
8
BLACK
6
CONTINUOUS
10
5.6677916141732281
20
-4.1308723622047241
11
5.6644779133858263
21
-4.1366118110236219
0
LINE
8
BLACK
6
CONTINUOUS
10
5.6644779133858263
20
-4.1366118110236219
11
5.6599299606299214
21
-4.141432362204724
0
LINE
8
BLACK
6
CONTINUOUS
10
5.6599299606299214
20
-4.141432362204724
11
5.6543928740157483
21
-4.1450741732283465
0
LINE
8
BLACK
6
CONTINUOUS
10
5.6543928740157483
20
-4.1450741732283465
11
5.6481652362204722
21
-4.1473408661417324
0
LINE
8
BLACK
6
CONTINUOUS
10
5.6481652362204722
20
-4.1473408661417324
11
5.6415826771653546
21
-4.1481102362204725
0
LINE
8
BLACK
6
CONTINUOUS
10
5.6415826771653546
20
-4.1481102362204725
11
5.6002440944881888
21
-4.1481102362204725
0
LINE
8
BLACK
6
CONTINUOUS
10
5.6002440944881888
20
-4.1481102362204725
11
5.5969304330708658
21
-4.1479172440944883
0
LINE
8
BLACK
6
CONTINUOUS
10
5.5969304330708658
20
-4.1479172440944883
11
5.5904816929133858
21
-4.1463888582677164
0
LINE
8
BLACK
6
CONTINUOUS
10
5.5904816929133858
20
-4.1463888582677164
11
5.5845592913385822
21
-4.143414527559055
0
LINE
8
BLACK
6
CONTINUOUS
10
5.5845592913385822
20
-4.143414527559055
11
5.579482440944882
21
-4.1391545275590547
0
LINE
8
BLACK
6
CONTINUOUS
10
5.579482440944882
20
-4.1391545275590547
11
5.5755248818897636
21
-4.1338385826771651
0
LINE
8
BLACK
6
CONTINUOUS
10
5.5755248818897636
20
-4.1338385826771651
11
5.5728999212598422
21
-4.1277532283464566
0
LINE
8
BLACK
6
CONTINUOUS
10
5.5728999212598422
20
-4.1277532283464566
11
5.5717490944881884
21
-4.1212265748031491
0
LINE
8
BLACK
6
CONTINUOUS
10
5.5717490944881884
20
-4.1212265748031491
11
5.572134409448819
21
-4.1146104330708662
0
LINE
8
BLACK
6
CONTINUOUS
10
5.572134409448819
20
-4.1146104330708662
11
5.5740351574803144
21
-4.1082614960629922
0
LINE
8
BLACK
6
CONTINUOUS
10
5.5740351574803144
20
-4.1082614960629922
11
5.5773488582677162
21
-4.1025220472440944
0
LINE
8
BLACK
6
CONTINUOUS
10
5.5773488582677162
20
-4.1025220472440944
11
5.581896811023622
21
-4.0977014960629923
0
LINE
8
BLACK
6
CONTINUOUS
10
5.581896811023622
20
-4.0977014960629923
11
5.5874338976377951
21
-4.0940596850393698
0
LINE
8
BLACK
6
CONTINUOUS
10
5.5874338976377951
20
-4.0940596850393698
11
5.5936615354330703
21
-4.0917929921259839
0
LINE
8
BLACK
6
CONTINUOUS
10
5.5936615354330703
20
-4.0917929921259839
11
5.6002440944881888
21
-4.0910236220472438
0
LINE
8
BLACK
6
CONTINUOUS
10
5.6002440944881888
20
-4.0910236220472438
11
5.6415826771653546
21
-4.0910236220472438
0
LINE
8
BLACK
6
CONTINUOUS
10
5.6415826771653546
20
-4.0910236220472438
11
5.6448963385826767
21
-4.091216614173228
0
LINE
8
BLACK
6
CONTINUOUS
10
5.4826268110236223
20
-4.0928087007874012
11
5.488838818897638
21
-4.0951646062992122
0
LINE
8
BLACK
6
CONTINUOUS
10
5.488838818897638
20
-4.0951646062992122
11
5.4943065354330711
21
-4.0989386614173231
0
LINE
8
BLACK
6
CONTINUOUS
10
5.4943065354330711
20
-4.0989386614173231
11
5.4987121653543305
21
-4.1039116141732279
0
LINE
8
BLACK
6
CONTINUOUS
10
5.4987121653543305
20
-4.1039116141732279
11
5.5017996456692915
21
-4.10979437007874
0
LINE
8
BLACK
6
CONTINUOUS
10
5.5017996456692915
20
-4.10979437007874
11
5.503389606299212
21
-4.1162450393700789
0
LINE
8
BLACK
6
CONTINUOUS
10
5.503389606299212
20
-4.1162450393700789
11
5.503389606299212
21
-4.1228888188976374
0
LINE
8
BLACK
6
CONTINUOUS
10
5.503389606299212
20
-4.1228888188976374
11
5.5017996456692915
21
-4.1293394881889762
0
LINE
8
BLACK
6
CONTINUOUS
10
5.5017996456692915
20
-4.1293394881889762
11
5.4987121653543305
21
-4.1352222440944884
0
LINE
8
BLACK
6
CONTINUOUS
10
5.4987121653543305
20
-4.1352222440944884
11
5.4943065354330711
21
-4.1401951968503932
0
LINE
8
BLACK
6
CONTINUOUS
10
5.4943065354330711
20
-4.1401951968503932
11
5.488838818897638
21
-4.1439692519685041
0
LINE
8
BLACK
6
CONTINUOUS
10
5.488838818897638
20
-4.1439692519685041
11
5.4826268110236223
21
-4.146325157480315
0
LINE
8
BLACK
6
CONTINUOUS
10
5.4826268110236223
20
-4.146325157480315
11
5.4760314960629923
21
-4.1471259842519688
0
LINE
8
BLACK
6
CONTINUOUS
10
5.4760314960629923
20
-4.1471259842519688
11
5.4366614173228349
21
-4.1471259842519688
0
LINE
8
BLACK
6
CONTINUOUS
10
5.4366614173228349
20
-4.1471259842519688
11
5.430066102362205
21
-4.146325157480315
0
LINE
8
BLACK
6
CONTINUOUS
10
5.430066102362205
20
-4.146325157480315
11
5.4238540944881892
21
-4.1439692519685041
0
LINE
8
BLACK
6
CONTINUOUS
10
5.4238540944881892
20
-4.1439692519685041
11
5.4183863779527561
21
-4.1401951968503932
0
LINE
8
BLACK
6
CONTINUOUS
10
5.4183863779527561
20
-4.1401951968503932
11
5.4139807480314959
21
-4.1352222440944884
0
LINE
8
BLACK
6
CONTINUOUS
10
5.4139807480314959
20
-4.1352222440944884
11
5.4108932677165349
21
-4.1293394881889762
0
LINE
8
BLACK
6
CONTINUOUS
10
5.4108932677165349
20
-4.1293394881889762
11
5.4093033070866143
21
-4.1228888188976374
0
LINE
8
BLACK
6
CONTINUOUS
10
5.4093033070866143
20
-4.1228888188976374
11
5.4093033070866143
21
-4.1162450393700789
0
LINE
8
BLACK
6
CONTINUOUS
10
5.4093033070866143
20
-4.1162450393700789
11
5.4108932677165349
21
-4.10979437007874
0
LINE
8
BLACK
6
CONTINUOUS
10
5.4108932677165349
20
-4.10979437007874
11
5.4139807480314959
21
-4.1039116141732279
0
LINE
8
BLACK
6
CONTINUOUS
10
5.4139807480314959
20
-4.1039116141732279
11
5.4183863779527561
21
-4.0989386614173231
0
LINE
8
BLACK
6
CONTINUOUS
10
5.4183863779527561
20
-4.0989386614173231
11
5.4238540944881892
21
-4.0951646062992122
0
LINE
8
BLACK
6
CONTINUOUS
10
5.4238540944881892
20
-4.0951646062992122
11
5.430066102362205
21
-4.0928087007874012
0
LINE
8
BLACK
6
CONTINUOUS
10
5.430066102362205
20
-4.0928087007874012
11
5.4366614173228349
21
-4.0920078740157475
0
LINE
8
BLACK
6
CONTINUOUS
10
5.4366614173228349
20
-4.0920078740157475
11
5.4760314960629923
21
-4.0920078740157475
0
LINE
8
BLACK
6
CONTINUOUS
10
5.4760314960629923
20
-4.0920078740157475
11
5.4826268110236223
21
-4.0928087007874012
0
LINE
8
BLACK
6
CONTINUOUS
10
5.9625284645669288
20
-4.0923420866141731
11
5.9684112204724409
21
-4.0954295669291341
0
LINE
8
BLACK
6
CONTINUOUS
10
5.9684112204724409
20
-4.0954295669291341
11
5.9733841732283466
21
-4.0998351968503934
0
LINE
8
BLACK
6
CONTINUOUS
10
5.9733841732283466
20
-4.0998351968503934
11
5.9771582283464566
21
-4.1053029133858265
0
LINE
8
BLACK
6
CONTINUOUS
10
5.9771582283464566
20
-4.1053029133858265
11
5.9795141338582676
21
-4.1115149212598423
0
LINE
8
BLACK
6
CONTINUOUS
10
5.9795141338582676
20
-4.1115149212598423
11
5.9803149606299213
21
-4.1181102362204722
0
LINE
8
BLACK
6
CONTINUOUS
10
5.9803149606299213
20
-4.1181102362204722
11
5.9795141338582676
21
-4.1247055511811022
0
LINE
8
BLACK
6
CONTINUOUS
10
5.9795141338582676
20
-4.1247055511811022
11
5.9771582283464566
21
-4.1309175590551179
0
LINE
8
BLACK
6
CONTINUOUS
10
5.9771582283464566
20
-4.1309175590551179
11
5.9733841732283466
21
-4.136385275590551
0
LINE
8
BLACK
6
CONTINUOUS
10
5.9733841732283466
20
-4.136385275590551
11
5.9684112204724409
21
-4.1407909055118113
0
LINE
8
BLACK
6
CONTINUOUS
10
5.9684112204724409
20
-4.1407909055118113
11
5.9625284645669288
21
-4.1438783858267714
0
LINE
8
BLACK
6
CONTINUOUS
10
5.9625284645669288
20
-4.1438783858267714
11
5.9560777952755908
21
-4.1454683464566928
0
LINE
8
BLACK
6
CONTINUOUS
10
5.9560777952755908
20
-4.1454683464566928
11
5.9494340157480314
21
-4.1454683464566928
0
LINE
8
BLACK
6
CONTINUOUS
10
5.9494340157480314
20
-4.1454683464566928
11
5.9429833464566926
21
-4.1438783858267714
0
LINE
8
BLACK
6
CONTINUOUS
10
5.9429833464566926
20
-4.1438783858267714
11
5.9371005905511813
21
-4.1407909055118113
0
LINE
8
BLACK
6
CONTINUOUS
10
5.9371005905511813
20
-4.1407909055118113
11
5.9321276377952756
21
-4.136385275590551
0
LINE
8
BLACK
6
CONTINUOUS
10
5.9321276377952756
20
-4.136385275590551
11
5.9283535826771656
21
-4.1309175590551179
0
LINE
8
BLACK
6
CONTINUOUS
10
5.9283535826771656
20
-4.1309175590551179
11
5.9259976771653546
21
-4.1247055511811022
0
LINE
8
BLACK
6
CONTINUOUS
10
5.9259976771653546
20
-4.1247055511811022
11
5.9251968503937009
21
-4.1181102362204722
0
LINE
8
BLACK
6
CONTINUOUS
10
5.9251968503937009
20
-4.1181102362204722
11
5.9259976771653546
21
-4.1115149212598423
0
LINE
8
BLACK
6
CONTINUOUS
10
5.9259976771653546
20
-4.1115149212598423
11
5.9283535826771656
21
-4.1053029133858265
0
LINE
8
BLACK
6
CONTINUOUS
10
5.9283535826771656
20
-4.1053029133858265
11
5.9321276377952756
21
-4.0998351968503934
0
LINE
8
BLACK
6
CONTINUOUS
10
5.9321276377952756
20
-4.0998351968503934
11
5.9371005905511813
21
-4.0954295669291341
0
LINE
8
BLACK
6
CONTINUOUS
10
5.9371005905511813
20
-4.0954295669291341
11
5.9429833464566926
21
-4.0923420866141731
0
LINE
8
BLACK
6
CONTINUOUS
10
5.9429833464566926
20
-4.0923420866141731
11
5.9494340157480314
21
-4.0907521259842516
0
LINE
8
BLACK
6
CONTINUOUS
10
5.9494340157480314
20
-4.0907521259842516
11
5.9560777952755908
21
-4.0907521259842516
0
LINE
8
BLACK
6
CONTINUOUS
10
5.9560777952755908
20
-4.0907521259842516
11
5.9625284645669288
21
-4.0923420866141731
0
LINE
8
BLACK
6
CONTINUOUS
10
6.0570166535433065
20
-4.0923420866141731
11
6.0628994094488187
21
-4.0954295669291341
0
LINE
8
BLACK
6
CONTINUOUS
10
6.0628994094488187
20
-4.0954295669291341
11
6.0678723622047244
21
-4.0998351968503934
0
LINE
8
BLACK
6
CONTINUOUS
10
6.0678723622047244
20
-4.0998351968503934
11
6.0716464173228344
21
-4.1053029133858265
0
LINE
8
BLACK
6
CONTINUOUS
10
6.0716464173228344
20
-4.1053029133858265
11
6.0740023228346454
21
-4.1115149212598423
0
LINE
8
BLACK
6
CONTINUOUS
10
6.0740023228346454
20
-4.1115149212598423
11
6.0748031496062991
21
-4.1181102362204722
0
LINE
8
BLACK
6
CONTINUOUS
10
6.0748031496062991
20
-4.1181102362204722
11
6.0740023228346454
21
-4.1247055511811022
0
LINE
8
BLACK
6
CONTINUOUS
10
6.0740023228346454
20
-4.1247055511811022
11
6.0716464173228344
21
-4.1309175590551179
0
LINE
8
BLACK
6
CONTINUOUS
10
6.0716464173228344
20
-4.1309175590551179
11
6.0678723622047244
21
-4.136385275590551
0
LINE
8
BLACK
6
CONTINUOUS
10
6.0678723622047244
20
-4.136385275590551
11
6.0628994094488187
21
-4.1407909055118113
0
LINE
8
BLACK
6
CONTINUOUS
10
6.0628994094488187
20
-4.1407909055118113
11
6.0570166535433065
21
-4.1438783858267714
0
LINE
8
BLACK
6
CONTINUOUS
10
6.0570166535433065
20
-4.1438783858267714
11
6.0505659842519686
21
-4.1454683464566928
0
LINE
8
BLACK
6
CONTINUOUS
10
6.0505659842519686
20
-4.1454683464566928
11
6.0439222047244092
21
-4.1454683464566928
0
LINE
8
BLACK
6
CONTINUOUS
10
6.0439222047244092
20
-4.1454683464566928
11
6.0374715354330704
21
-4.1438783858267714
0
LINE
8
BLACK
6
CONTINUOUS
10
6.0374715354330704
20
-4.1438783858267714
11
6.0315887795275591
21
-4.1407909055118113
0
LINE
8
BLACK
6
CONTINUOUS
10
6.0315887795275591
20
-4.1407909055118113
11
6.0266158267716534
21
-4.136385275590551
0
LINE
8
BLACK
6
CONTINUOUS
10
6.0266158267716534
20
-4.136385275590551
11
6.0228417716535434
21
-4.1309175590551179
0
LINE
8
BLACK
6
CONTINUOUS
10
6.0228417716535434
20
-4.1309175590551179
11
6.0204858661417324
21
-4.1247055511811022
0
LINE
8
BLACK
6
CONTINUOUS
10
6.0204858661417324
20
-4.1247055511811022
11
6.0196850393700787
21
-4.1181102362204722
0
LINE
8
BLACK
6
CONTINUOUS
10
6.0196850393700787
20
-4.1181102362204722
11
6.0204858661417324
21
-4.1115149212598423
0
LINE
8
BLACK
6
CONTINUOUS
10
6.0204858661417324
20
-4.1115149212598423
11
6.0228417716535434
21
-4.1053029133858265
0
LINE
8
BLACK
6
CONTINUOUS
10
6.0228417716535434
20
-4.1053029133858265
11
6.0266158267716534
21
-4.0998351968503934
0
LINE
8
BLACK
6
CONTINUOUS
10
6.0266158267716534
20
-4.0998351968503934
11
6.0315887795275591
21
-4.0954295669291341
0
LINE
8
BLACK
6
CONTINUOUS
10
6.0315887795275591
20
-4.0954295669291341
11
6.0374715354330704
21
-4.0923420866141731
0
LINE
8
BLACK
6
CONTINUOUS
10
6.0374715354330704
20
-4.0923420866141731
11
6.0439222047244092
21
-4.0907521259842516
0
LINE
8
BLACK
6
CONTINUOUS
10
6.0439222047244092
20
-4.0907521259842516
11
6.0505659842519686
21
-4.0907521259842516
0
LINE
8
BLACK
6
CONTINUOUS
10
6.0505659842519686
20
-4.0907521259842516
11
6.0570166535433065
21
-4.0923420866141731
0
LINE
8
BLACK
6
CONTINUOUS
10
5.606577952755905
20
-4.0433027165354334
11
5.6115629921259842
21
-4.0453675984251971
0
LINE
8
BLACK
6
CONTINUOUS
10
5.6115629921259842
20
-4.0453675984251971
11
5.6158437401574801
21
-4.0486523228346458
0
LINE
8
BLACK
6
CONTINUOUS
10
5.6158437401574801
20
-4.0486523228346458
11
5.6191284645669288
21
-4.0529330708661417
0
LINE
8
BLACK
6
CONTINUOUS
10
5.6191284645669288
20
-4.0529330708661417
11
5.6211933464566926
21
-4.0579181102362201
0
LINE
8
BLACK
6
CONTINUOUS
10
5.6211933464566926
20
-4.0579181102362201
11
5.6218976377952758
21
-4.0632677165354334
0
LINE
8
BLACK
6
CONTINUOUS
10
5.6218976377952758
20
-4.0632677165354334
11
5.6211933464566926
21
-4.0686173228346458
0
LINE
8
BLACK
6
CONTINUOUS
10
5.6211933464566926
20
-4.0686173228346458
11
5.6191284645669288
21
-4.0736023622047242
0
LINE
8
BLACK
6
CONTINUOUS
10
5.6191284645669288
20
-4.0736023622047242
11
5.6158437401574801
21
-4.0778831102362201
0
LINE
8
BLACK
6
CONTINUOUS
10
5.6158437401574801
20
-4.0778831102362201
11
5.6115629921259842
21
-4.0811678346456688
0
LINE
8
BLACK
6
CONTINUOUS
10
5.6115629921259842
20
-4.0811678346456688
11
5.606577952755905
21
-4.0832327165354334
0
LINE
8
BLACK
6
CONTINUOUS
10
5.606577952755905
20
-4.0832327165354334
11
5.6012283464566925
21
-4.0839370078740158
0
LINE
8
BLACK
6
CONTINUOUS
10
5.6012283464566925
20
-4.0839370078740158
11
5.5958787401574801
21
-4.0832327165354334
0
LINE
8
BLACK
6
CONTINUOUS
10
5.5958787401574801
20
-4.0832327165354334
11
5.5908937007874018
21
-4.0811678346456688
0
LINE
8
BLACK
6
CONTINUOUS
10
5.5908937007874018
20
-4.0811678346456688
11
5.586612952755905
21
-4.0778831102362201
0
LINE
8
BLACK
6
CONTINUOUS
10
5.586612952755905
20
-4.0778831102362201
11
5.5833282283464563
21
-4.0736023622047242
0
LINE
8
BLACK
6
CONTINUOUS
10
5.5833282283464563
20
-4.0736023622047242
11
5.5812633464566925
21
-4.0686173228346458
0
LINE
8
BLACK
6
CONTINUOUS
10
5.5812633464566925
20
-4.0686173228346458
11
5.5805590551181101
21
-4.0632677165354334
0
LINE
8
BLACK
6
CONTINUOUS
10
5.5805590551181101
20
-4.0632677165354334
11
5.5812633464566925
21
-4.0579181102362201
0
LINE
8
BLACK
6
CONTINUOUS
10
5.5812633464566925
20
-4.0579181102362201
11
5.5833282283464563
21
-4.0529330708661417
0
LINE
8
BLACK
6
CONTINUOUS
10
5.5833282283464563
20
-4.0529330708661417
11
5.586612952755905
21
-4.0486523228346458
0
LINE
8
BLACK
6
CONTINUOUS
10
5.586612952755905
20
-4.0486523228346458
11
5.5908937007874018
21
-4.0453675984251971
0
LINE
8
BLACK
6
CONTINUOUS
10
5.5908937007874018
20
-4.0453675984251971
11
5.5958787401574801
21
-4.0433027165354334
0
LINE
8
BLACK
6
CONTINUOUS
10
5.5958787401574801
20
-4.0433027165354334
11
5.6012283464566925
21
-4.0425984251968501
0
LINE
8
BLACK
6
CONTINUOUS
10
5.6012283464566925
20
-4.0425984251968501
11
5.606577952755905
21
-4.0433027165354334
0
LINE
8
BLACK
6
CONTINUOUS
10
5.606577952755905
20
-3.8157436614173226
11
5.6115629921259842
21
-3.8178085433070867
0
LINE
8
BLACK
6
CONTINUOUS
10
5.6115629921259842
20
-3.8178085433070867
11
5.6158437401574801
21
-3.8210932677165355
0
LINE
8
BLACK
6
CONTINUOUS
10
5.6158437401574801
20
-3.8210932677165355
11
5.6191284645669288
21
-3.8253740157480314
0
LINE
8
BLACK
6
CONTINUOUS
10
5.6191284645669288
20
-3.8253740157480314
11
5.6211933464566926
21
-3.8303590551181101
0
LINE
8
BLACK
6
CONTINUOUS
10
5.6211933464566926
20
-3.8303590551181101
11
5.6218976377952758
21
-3.8357086614173226
0
LINE
8
BLACK
6
CONTINUOUS
10
5.6218976377952758
20
-3.8357086614173226
11
5.6211933464566926
21
-3.8410582677165355
0
LINE
8
BLACK
6
CONTINUOUS
10
5.6211933464566926
20
-3.8410582677165355
11
5.6191284645669288
21
-3.8460433070866142
0
LINE
8
BLACK
6
CONTINUOUS
10
5.6191284645669288
20
-3.8460433070866142
11
5.6158437401574801
21
-3.8503240551181102
0
LINE
8
BLACK
6
CONTINUOUS
10
5.6158437401574801
20
-3.8503240551181102
11
5.6115629921259842
21
-3.8536087795275589
0
LINE
8
BLACK
6
CONTINUOUS
10
5.6115629921259842
20
-3.8536087795275589
11
5.606577952755905
21
-3.8556736614173226
0
LINE
8
BLACK
6
CONTINUOUS
10
5.606577952755905
20
-3.8556736614173226
11
5.6012283464566925
21
-3.8563779527559054
0
LINE
8
BLACK
6
CONTINUOUS
10
5.6012283464566925
20
-3.8563779527559054
11
5.5958787401574801
21
-3.8556736614173226
0
LINE
8
BLACK
6
CONTINUOUS
10
5.5958787401574801
20
-3.8556736614173226
11
5.5908937007874018
21
-3.8536087795275589
0
LINE
8
BLACK
6
CONTINUOUS
10
5.5908937007874018
20
-3.8536087795275589
11
5.586612952755905
21
-3.8503240551181102
0
LINE
8
BLACK
6
CONTINUOUS
10
5.586612952755905
20
-3.8503240551181102
11
5.5833282283464563
21
-3.8460433070866142
0
LINE
8
BLACK
6
CONTINUOUS
10
5.5833282283464563
20
-3.8460433070866142
11
5.5812633464566925
21
-3.8410582677165355
0
LINE
8
BLACK
6
CONTINUOUS
10
5.5812633464566925
20
-3.8410582677165355
11
5.5805590551181101
21
-3.8357086614173226
0
LINE
8
BLACK
6
CONTINUOUS
10
5.5805590551181101
20
-3.8357086614173226
11
5.5812633464566925
21
-3.8303590551181101
0
LINE
8
BLACK
6
CONTINUOUS
10
5.5812633464566925
20
-3.8303590551181101
11
5.5833282283464563
21
-3.8253740157480314
0
LINE
8
BLACK
6
CONTINUOUS
10
5.5833282283464563
20
-3.8253740157480314
11
5.586612952755905
21
-3.8210932677165355
0
LINE
8
BLACK
6
CONTINUOUS
10
5.586612952755905
20
-3.8210932677165355
11
5.5908937007874018
21
-3.8178085433070867
0
LINE
8
BLACK
6
CONTINUOUS
10
5.5908937007874018
20
-3.8178085433070867
11
5.5958787401574801
21
-3.8157436614173226
0
LINE
8
BLACK
6
CONTINUOUS
10
5.5958787401574801
20
-3.8157436614173226
11
5.6012283464566925
21
-3.8150393700787402
0
LINE
8
BLACK
6
CONTINUOUS
10
5.6012283464566925
20
-3.8150393700787402
11
5.606577952755905
21
-3.8157436614173226
0
LINE
8
BLACK
6
CONTINUOUS
10
5.6448963385826767
20
-3.7510591338582677
11
5.6513450787401576
21
-3.7525875196850391
0
LINE
8
BLACK
6
CONTINUOUS
10
5.6513450787401576
20
-3.7525875196850391
11
5.6572674803149603
21
-3.7555618503937005
0
LINE
8
BLACK
6
CONTINUOUS
10
5.6572674803149603
20
-3.7555618503937005
11
5.6623443307086614
21
-3.7598218503937009
0
LINE
8
BLACK
6
CONTINUOUS
10
5.6623443307086614
20
-3.7598218503937009
11
5.6663018897637798
21
-3.7651377952755904
0
LINE
8
BLACK
6
CONTINUOUS
10
5.6663018897637798
20
-3.7651377952755904
11
5.6689268503937003
21
-3.7712231496062993
0
LINE
8
BLACK
6
CONTINUOUS
10
5.6689268503937003
20
-3.7712231496062993
11
5.670077677165354
21
-3.7777498031496064
0
LINE
8
BLACK
6
CONTINUOUS
10
5.670077677165354
20
-3.7777498031496064
11
5.6696923622047244
21
-3.7843659448818898
0
LINE
8
BLACK
6
CONTINUOUS
10
5.6696923622047244
20
-3.7843659448818898
11
5.6677916141732281
21
-3.7907148818897638
0
LINE
8
BLACK
6
CONTINUOUS
10
5.6677916141732281
20
-3.7907148818897638
11
5.6644779133858263
21
-3.7964543307086611
0
LINE
8
BLACK
6
CONTINUOUS
10
5.6644779133858263
20
-3.7964543307086611
11
5.6599299606299214
21
-3.8012748818897637
0
LINE
8
BLACK
6
CONTINUOUS
10
5.6599299606299214
20
-3.8012748818897637
11
5.6543928740157483
21
-3.8049166929133857
0
LINE
8
BLACK
6
CONTINUOUS
10
5.6543928740157483
20
-3.8049166929133857
11
5.6481652362204722
21
-3.8071833858267716
0
LINE
8
BLACK
6
CONTINUOUS
10
5.6481652362204722
20
-3.8071833858267716
11
5.6415826771653546
21
-3.8079527559055117
0
LINE
8
BLACK
6
CONTINUOUS
10
5.6415826771653546
20
-3.8079527559055117
11
5.6002440944881888
21
-3.8079527559055117
0
LINE
8
BLACK
6
CONTINUOUS
10
5.6002440944881888
20
-3.8079527559055117
11
5.5969304330708658
21
-3.8077597637795275
0
LINE
8
BLACK
6
CONTINUOUS
10
5.5969304330708658
20
-3.8077597637795275
11
5.5904816929133858
21
-3.8062313779527557
0
LINE
8
BLACK
6
CONTINUOUS
10
5.5904816929133858
20
-3.8062313779527557
11
5.5845592913385822
21
-3.8032570472440943
0
LINE
8
BLACK
6
CONTINUOUS
10
5.5845592913385822
20
-3.8032570472440943
11
5.579482440944882
21
-3.7989970472440944
0
LINE
8
BLACK
6
CONTINUOUS
10
5.579482440944882
20
-3.7989970472440944
11
5.5755248818897636
21
-3.7936811023622048
0
LINE
8
BLACK
6
CONTINUOUS
10
5.5755248818897636
20
-3.7936811023622048
11
5.5728999212598422
21
-3.7875957480314959
0
LINE
8
BLACK
6
CONTINUOUS
10
5.5728999212598422
20
-3.7875957480314959
11
5.5717490944881884
21
-3.7810690944881888
0
LINE
8
BLACK
6
CONTINUOUS
10
5.5717490944881884
20
-3.7810690944881888
11
5.572134409448819
21
-3.7744529527559054
0
LINE
8
BLACK
6
CONTINUOUS
10
5.572134409448819
20
-3.7744529527559054
11
5.5740351574803144
21
-3.7681040157480314
0
LINE
8
BLACK
6
CONTINUOUS
10
5.5740351574803144
20
-3.7681040157480314
11
5.5773488582677162
21
-3.7623645669291337
0
LINE
8
BLACK
6
CONTINUOUS
10
5.5773488582677162
20
-3.7623645669291337
11
5.581896811023622
21
-3.7575440157480315
0
LINE
8
BLACK
6
CONTINUOUS
10
5.581896811023622
20
-3.7575440157480315
11
5.5874338976377951
21
-3.7539022047244095
0
LINE
8
BLACK
6
CONTINUOUS
10
5.5874338976377951
20
-3.7539022047244095
11
5.5936615354330703
21
-3.7516355118110236
0
LINE
8
BLACK
6
CONTINUOUS
10
5.5936615354330703
20
-3.7516355118110236
11
5.6002440944881888
21
-3.7508661417322835
0
LINE
8
BLACK
6
CONTINUOUS
10
5.6002440944881888
20
-3.7508661417322835
11
5.6415826771653546
21
-3.7508661417322835
0
LINE
8
BLACK
6
CONTINUOUS
10
5.6415826771653546
20
-3.7508661417322835
11
5.6448963385826767
21
-3.7510591338582677
0
LINE
8
BLACK
6
CONTINUOUS
10
5.4826268110236223
20
-3.7526512204724409
11
5.488838818897638
21
-3.7550071259842519
0
LINE
8
BLACK
6
CONTINUOUS
10
5.488838818897638
20
-3.7550071259842519
11
5.4943065354330711
21
-3.7587811811023619
0
LINE
8
BLACK
6
CONTINUOUS
10
5.4943065354330711
20
-3.7587811811023619
11
5.4987121653543305
21
-3.7637541338582676
0
LINE
8
BLACK
6
CONTINUOUS
10
5.4987121653543305
20
-3.7637541338582676
11
5.5017996456692915
21
-3.7696368897637793
0
LINE
8
BLACK
6
CONTINUOUS
10
5.5017996456692915
20
-3.7696368897637793
11
5.503389606299212
21
-3.7760875590551182
0
LINE
8
BLACK
6
CONTINUOUS
10
5.503389606299212
20
-3.7760875590551182
11
5.503389606299212
21
-3.7827313385826771
0
LINE
8
BLACK
6
CONTINUOUS
10
5.503389606299212
20
-3.7827313385826771
11
5.5017996456692915
21
-3.7891820078740155
0
LINE
8
BLACK
6
CONTINUOUS
10
5.5017996456692915
20
-3.7891820078740155
11
5.4987121653543305
21
-3.7950647637795276
0
LINE
8
BLACK
6
CONTINUOUS
10
5.4987121653543305
20
-3.7950647637795276
11
5.4943065354330711
21
-3.8000377165354329
0
LINE
8
BLACK
6
CONTINUOUS
10
5.4943065354330711
20
-3.8000377165354329
11
5.488838818897638
21
-3.8038117716535433
0
LINE
8
BLACK
6
CONTINUOUS
10
5.488838818897638
20
-3.8038117716535433
11
5.4826268110236223
21
-3.8061676771653543
0
LINE
8
BLACK
6
CONTINUOUS
10
5.4826268110236223
20
-3.8061676771653543
11
5.4760314960629923
21
-3.8069685039370076
0
LINE
8
BLACK
6
CONTINUOUS
10
5.4760314960629923
20
-3.8069685039370076
11
5.4366614173228349
21
-3.8069685039370076
0
LINE
8
BLACK
6
CONTINUOUS
10
5.4366614173228349
20
-3.8069685039370076
11
5.430066102362205
21
-3.8061676771653543
0
LINE
8
BLACK
6
CONTINUOUS
10
5.430066102362205
20
-3.8061676771653543
11
5.4238540944881892
21
-3.8038117716535433
0
LINE
8
BLACK
6
CONTINUOUS
10
5.4238540944881892
20
-3.8038117716535433
11
5.4183863779527561
21
-3.8000377165354329
0
LINE
8
BLACK
6
CONTINUOUS
10
5.4183863779527561
20
-3.8000377165354329
11
5.4139807480314959
21
-3.7950647637795276
0
LINE
8
BLACK
6
CONTINUOUS
10
5.4139807480314959
20
-3.7950647637795276
11
5.4108932677165349
21
-3.7891820078740155
0
LINE
8
BLACK
6
CONTINUOUS
10
5.4108932677165349
20
-3.7891820078740155
11
5.4093033070866143
21
-3.7827313385826771
0
LINE
8
BLACK
6
CONTINUOUS
10
5.4093033070866143
20
-3.7827313385826771
11
5.4093033070866143
21
-3.7760875590551182
0
LINE
8
BLACK
6
CONTINUOUS
10
5.4093033070866143
20
-3.7760875590551182
11
5.4108932677165349
21
-3.7696368897637793
0
LINE
8
BLACK
6
CONTINUOUS
10
5.4108932677165349
20
-3.7696368897637793
11
5.4139807480314959
21
-3.7637541338582676
0
LINE
8
BLACK
6
CONTINUOUS
10
5.4139807480314959
20
-3.7637541338582676
11
5.4183863779527561
21
-3.7587811811023619
0
LINE
8
BLACK
6
CONTINUOUS
10
5.4183863779527561
20
-3.7587811811023619
11
5.4238540944881892
21
-3.7550071259842519
0
LINE
8
BLACK
6
CONTINUOUS
10
5.4238540944881892
20
-3.7550071259842519
11
5.430066102362205
21
-3.7526512204724409
0
LINE
8
BLACK
6
CONTINUOUS
10
5.430066102362205
20
-3.7526512204724409
11
5.4366614173228349
21
-3.7518503937007872
0
LINE
8
BLACK
6
CONTINUOUS
10
5.4366614173228349
20
-3.7518503937007872
11
5.4760314960629923
21
-3.7518503937007872
0
LINE
8
BLACK
6
CONTINUOUS
10
5.4760314960629923
20
-3.7518503937007872
11
5.4826268110236223
21
-3.7526512204724409
0
LINE
8
BLACK
6
CONTINUOUS
10
5.4512688188976375
20
-3.3016889763779527
11
5.4604938188976373
21
-3.3048559055118107
0
LINE
8
BLACK
6
CONTINUOUS
10
5.4604938188976373
20
-3.3048559055118107
11
5.4690717322834645
21
-3.3094980314960627
0
LINE
8
BLACK
6
CONTINUOUS
10
5.4690717322834645
20
-3.3094980314960627
11
5.476768582677165
21
-3.3154887401574804
0
LINE
8
BLACK
6
CONTINUOUS
10
5.476768582677165
20
-3.3154887401574804
11
5.4833744488188971
21
-3.3226646062992127
0
LINE
8
BLACK
6
CONTINUOUS
10
5.4833744488188971
20
-3.3226646062992127
11
5.4887090944881889
21
-3.3308298818897639
0
LINE
8
BLACK
6
CONTINUOUS
10
5.4887090944881889
20
-3.3308298818897639
11
5.4926270078740158
21
-3.3397618503937005
0
LINE
8
BLACK
6
CONTINUOUS
10
5.4926270078740158
20
-3.3397618503937005
11
5.4950213385826769
21
-3.3492168503937005
0
LINE
8
BLACK
6
CONTINUOUS
10
5.4950213385826769
20
-3.3492168503937005
11
5.4958267716535429
21
-3.3589370078740157
0
LINE
8
BLACK
6
CONTINUOUS
10
5.4958267716535429
20
-3.3589370078740157
11
5.4950213385826769
21
-3.3686571653543305
0
LINE
8
BLACK
6
CONTINUOUS
10
5.4950213385826769
20
-3.3686571653543305
11
5.4926270078740158
21
-3.3781121653543305
0
LINE
8
BLACK
6
CONTINUOUS
10
5.4926270078740158
20
-3.3781121653543305
11
5.4887090944881889
21
-3.3870441338582675
0
LINE
8
BLACK
6
CONTINUOUS
10
5.4887090944881889
20
-3.3870441338582675
11
5.4833744488188971
21
-3.3952094094488188
0
LINE
8
BLACK
6
CONTINUOUS
10
5.4833744488188971
20
-3.3952094094488188
11
5.476768582677165
21
-3.402385275590551
0
LINE
8
BLACK
6
CONTINUOUS
10
5.476768582677165
20
-3.402385275590551
11
5.4690717322834645
21
-3.4083759842519683
0
LINE
8
BLACK
6
CONTINUOUS
10
5.4690717322834645
20
-3.4083759842519683
11
5.4604938188976373
21
-3.4130181102362203
0
LINE
8
BLACK
6
CONTINUOUS
10
5.4604938188976373
20
-3.4130181102362203
11
5.4512688188976375
21
-3.4161850393700788
0
LINE
8
BLACK
6
CONTINUOUS
10
5.4512688188976375
20
-3.4161850393700788
11
5.4416483858267712
21
-3.4177904330708659
0
LINE
8
BLACK
6
CONTINUOUS
10
5.4416483858267712
20
-3.4177904330708659
11
5.4318949212598424
21
-3.4177904330708659
0
LINE
8
BLACK
6
CONTINUOUS
10
5.4318949212598424
20
-3.4177904330708659
11
5.4222744881889762
21
-3.4161850393700788
0
LINE
8
BLACK
6
CONTINUOUS
10
5.4222744881889762
20
-3.4161850393700788
11
5.4130494881889764
21
-3.4130181102362203
0
LINE
8
BLACK
6
CONTINUOUS
10
5.4130494881889764
20
-3.4130181102362203
11
5.4044715748031491
21
-3.4083759842519683
0
LINE
8
BLACK
6
CONTINUOUS
10
5.4044715748031491
20
-3.4083759842519683
11
5.3967747244094486
21
-3.402385275590551
0
LINE
8
BLACK
6
CONTINUOUS
10
5.3967747244094486
20
-3.402385275590551
11
5.3901688582677165
21
-3.3952094094488188
0
LINE
8
BLACK
6
CONTINUOUS
10
5.3901688582677165
20
-3.3952094094488188
11
5.3848342125984248
21
-3.3870441338582675
0
LINE
8
BLACK
6
CONTINUOUS
10
5.3848342125984248
20
-3.3870441338582675
11
5.3809162992125987
21
-3.3781121653543305
0
LINE
8
BLACK
6
CONTINUOUS
10
5.3809162992125987
20
-3.3781121653543305
11
5.3785219685039367
21
-3.3686571653543305
0
LINE
8
BLACK
6
CONTINUOUS
10
5.3785219685039367
20
-3.3686571653543305
11
5.3777165354330707
21
-3.3589370078740157
0
LINE
8
BLACK
6
CONTINUOUS
10
5.3777165354330707
20
-3.3589370078740157
11
5.3785219685039367
21
-3.3492168503937005
0
LINE
8
BLACK
6
CONTINUOUS
10
5.3785219685039367
20
-3.3492168503937005
11
5.3809162992125987
21
-3.3397618503937005
0
LINE
8
BLACK
6
CONTINUOUS
10
5.3809162992125987
20
-3.3397618503937005
11
5.3848342125984248
21
-3.3308298818897639
0
LINE
8
BLACK
6
CONTINUOUS
10
5.3848342125984248
20
-3.3308298818897639
11
5.3901688582677165
21
-3.3226646062992127
0
LINE
8
BLACK
6
CONTINUOUS
10
5.3901688582677165
20
-3.3226646062992127
11
5.3967747244094486
21
-3.3154887401574804
0
LINE
8
BLACK
6
CONTINUOUS
10
5.3967747244094486
20
-3.3154887401574804
11
5.4044715748031491
21
-3.3094980314960627
0
LINE
8
BLACK
6
CONTINUOUS
10
5.4044715748031491
20
-3.3094980314960627
11
5.4130494881889764
21
-3.3048559055118107
0
LINE
8
BLACK
6
CONTINUOUS
10
5.4130494881889764
20
-3.3048559055118107
11
5.4222744881889762
21
-3.3016889763779527
0
LINE
8
BLACK
6
CONTINUOUS
10
5.4222744881889762
20
-3.3016889763779527
11
5.4318949212598424
21
-3.3000835826771651
0
LINE
8
BLACK
6
CONTINUOUS
10
5.4318949212598424
20
-3.3000835826771651
11
5.4416483858267712
21
-3.3000835826771651
0
LINE
8
BLACK
6
CONTINUOUS
10
5.4416483858267712
20
-3.3000835826771651
11
5.4512688188976375
21
-3.3016889763779527
0
LINE
8
BLACK
6
CONTINUOUS
10
5.8449696062992125
20
-3.3016889763779527
11
5.8541946062992123
21
-3.3048559055118107
0
LINE
8
BLACK
6
CONTINUOUS
10
5.8541946062992123
20
-3.3048559055118107
11
5.8627725196850395
21
-3.3094980314960627
0
LINE
8
BLACK
6
CONTINUOUS
10
5.8627725196850395
20
-3.3094980314960627
11
5.87046937007874
21
-3.3154887401574804
0
LINE
8
BLACK
6
CONTINUOUS
10
5.87046937007874
20
-3.3154887401574804
11
5.8770752362204721
21
-3.3226646062992127
0
LINE
8
BLACK
6
CONTINUOUS
10
5.8770752362204721
20
-3.3226646062992127
11
5.8824098818897639
21
-3.3308298818897639
0
LINE
8
BLACK
6
CONTINUOUS
10
5.8824098818897639
20
-3.3308298818897639
11
5.8863277952755908
21
-3.3397618503937005
0
LINE
8
BLACK
6
CONTINUOUS
10
5.8863277952755908
20
-3.3397618503937005
11
5.8887221259842519
21
-3.3492168503937005
0
LINE
8
BLACK
6
CONTINUOUS
10
5.8887221259842519
20
-3.3492168503937005
11
5.8895275590551179
21
-3.3589370078740157
0
LINE
8
BLACK
6
CONTINUOUS
10
5.8895275590551179
20
-3.3589370078740157
11
5.8887221259842519
21
-3.3686571653543305
0
LINE
8
BLACK
6
CONTINUOUS
10
5.8887221259842519
20
-3.3686571653543305
11
5.8863277952755908
21
-3.3781121653543305
0
LINE
8
BLACK
6
CONTINUOUS
10
5.8863277952755908
20
-3.3781121653543305
11
5.8824098818897639
21
-3.3870441338582675
0
LINE
8
BLACK
6
CONTINUOUS
10
5.8824098818897639
20
-3.3870441338582675
11
5.8770752362204721
21
-3.3952094094488188
0
LINE
8
BLACK
6
CONTINUOUS
10
5.8770752362204721
20
-3.3952094094488188
11
5.87046937007874
21
-3.402385275590551
0
LINE
8
BLACK
6
CONTINUOUS
10
5.87046937007874
20
-3.402385275590551
11
5.8627725196850395
21
-3.4083759842519683
0
LINE
8
BLACK
6
CONTINUOUS
10
5.8627725196850395
20
-3.4083759842519683
11
5.8541946062992123
21
-3.4130181102362203
0
LINE
8
BLACK
6
CONTINUOUS
10
5.8541946062992123
20
-3.4130181102362203
11
5.8449696062992125
21
-3.4161850393700788
0
LINE
8
BLACK
6
CONTINUOUS
10
5.8449696062992125
20
-3.4161850393700788
11
5.8353491732283462
21
-3.4177904330708659
0
LINE
8
BLACK
6
CONTINUOUS
10
5.8353491732283462
20
-3.4177904330708659
11
5.8255957086614174
21
-3.4177904330708659
0
LINE
8
BLACK
6
CONTINUOUS
10
5.8255957086614174
20
-3.4177904330708659
11
5.8159752755905512
21
-3.4161850393700788
0
LINE
8
BLACK
6
CONTINUOUS
10
5.8159752755905512
20
-3.4161850393700788
11
5.8067502755905513
21
-3.4130181102362203
0
LINE
8
BLACK
6
CONTINUOUS
10
5.8067502755905513
20
-3.4130181102362203
11
5.7981723622047241
21
-3.4083759842519683
0
LINE
8
BLACK
6
CONTINUOUS
10
5.7981723622047241
20
-3.4083759842519683
11
5.7904755118110236
21
-3.402385275590551
0
LINE
8
BLACK
6
CONTINUOUS
10
5.7904755118110236
20
-3.402385275590551
11
5.7838696456692915
21
-3.3952094094488188
0
LINE
8
BLACK
6
CONTINUOUS
10
5.7838696456692915
20
-3.3952094094488188
11
5.7785349999999998
21
-3.3870441338582675
0
LINE
8
BLACK
6
CONTINUOUS
10
5.7785349999999998
20
-3.3870441338582675
11
5.7746170866141728
21
-3.3781121653543305
0
LINE
8
BLACK
6
CONTINUOUS
10
5.7746170866141728
20
-3.3781121653543305
11
5.7722227559055117
21
-3.3686571653543305
0
LINE
8
BLACK
6
CONTINUOUS
10
5.7722227559055117
20
-3.3686571653543305
11
5.7714173228346457
21
-3.3589370078740157
0
LINE
8
BLACK
6
CONTINUOUS
10
5.7714173228346457
20
-3.3589370078740157
11
5.7722227559055117
21
-3.3492168503937005
0
LINE
8
BLACK
6
CONTINUOUS
10
5.7722227559055117
20
-3.3492168503937005
11
5.7746170866141728
21
-3.3397618503937005
0
LINE
8
BLACK
6
CONTINUOUS
10
5.7746170866141728
20
-3.3397618503937005
11
5.7785349999999998
21
-3.3308298818897639
0
LINE
8
BLACK
6
CONTINUOUS
10
5.7785349999999998
20
-3.3308298818897639
11
5.7838696456692915
21
-3.3226646062992127
0
LINE
8
BLACK
6
CONTINUOUS
10
5.7838696456692915
20
-3.3226646062992127
11
5.7904755118110236
21
-3.3154887401574804
0
LINE
8
BLACK
6
CONTINUOUS
10
5.7904755118110236
20
-3.3154887401574804
11
5.7981723622047241
21
-3.3094980314960627
0
LINE
8
BLACK
6
CONTINUOUS
10
5.7981723622047241
20
-3.3094980314960627
11
5.8067502755905513
21
-3.3048559055118107
0
LINE
8
BLACK
6
CONTINUOUS
10
5.8067502755905513
20
-3.3048559055118107
11
5.8159752755905512
21
-3.3016889763779527
0
LINE
8
BLACK
6
CONTINUOUS
10
5.8159752755905512
20
-3.3016889763779527
11
5.8255957086614174
21
-3.3000835826771651
0
LINE
8
BLACK
6
CONTINUOUS
10
5.8255957086614174
20
-3.3000835826771651
11
5.8353491732283462
21
-3.3000835826771651
0
LINE
8
BLACK
6
CONTINUOUS
10
5.8353491732283462
20
-3.3000835826771651
11
5.8449696062992125
21
-3.3016889763779527
0
LINE
8
BLACK
6
CONTINUOUS
10
6.2386703937007875
20
-3.3016889763779527
11
6.2478953937007873
21
-3.3048559055118107
0
LINE
8
BLACK
6
CONTINUOUS
10
6.2478953937007873
20
-3.3048559055118107
11
6.2564733070866136
21
-3.3094980314960627
0
LINE
8
BLACK
6
CONTINUOUS
10
6.2564733070866136
20
-3.3094980314960627
11
6.264170157480315
21
-3.3154887401574804
0
LINE
8
BLACK
6
CONTINUOUS
10
6.264170157480315
20
-3.3154887401574804
11
6.2707760236220471
21
-3.3226646062992127
0
LINE
8
BLACK
6
CONTINUOUS
10
6.2707760236220471
20
-3.3226646062992127
11
6.2761106692913389
21
-3.3308298818897639
0
LINE
8
BLACK
6
CONTINUOUS
10
6.2761106692913389
20
-3.3308298818897639
11
6.2800285826771649
21
-3.3397618503937005
0
LINE
8
BLACK
6
CONTINUOUS
10
6.2800285826771649
20
-3.3397618503937005
11
6.2824229133858269
21
-3.3492168503937005
0
LINE
8
BLACK
6
CONTINUOUS
10
6.2824229133858269
20
-3.3492168503937005
11
6.2832283464566929
21
-3.3589370078740157
0
LINE
8
BLACK
6
CONTINUOUS
10
6.2832283464566929
20
-3.3589370078740157
11
6.2824229133858269
21
-3.3686571653543305
0
LINE
8
BLACK
6
CONTINUOUS
10
6.2824229133858269
20
-3.3686571653543305
11
6.2800285826771649
21
-3.3781121653543305
0
LINE
8
BLACK
6
CONTINUOUS
10
6.2800285826771649
20
-3.3781121653543305
11
6.2761106692913389
21
-3.3870441338582675
0
LINE
8
BLACK
6
CONTINUOUS
10
6.2761106692913389
20
-3.3870441338582675
11
6.2707760236220471
21
-3.3952094094488188
0
LINE
8
BLACK
6
CONTINUOUS
10
6.2707760236220471
20
-3.3952094094488188
11
6.264170157480315
21
-3.402385275590551
0
LINE
8
BLACK
6
CONTINUOUS
10
6.264170157480315
20
-3.402385275590551
11
6.2564733070866136
21
-3.4083759842519683
0
LINE
8
BLACK
6
CONTINUOUS
10
6.2564733070866136
20
-3.4083759842519683
11
6.2478953937007873
21
-3.4130181102362203
0
LINE
8
BLACK
6
CONTINUOUS
10
6.2478953937007873
20
-3.4130181102362203
11
6.2386703937007875
21
-3.4161850393700788
0
LINE
8
BLACK
6
CONTINUOUS
10
6.2386703937007875
20
-3.4161850393700788
11
6.2290499606299212
21
-3.4177904330708659
0
LINE
8
BLACK
6
CONTINUOUS
10
6.2290499606299212
20
-3.4177904330708659
11
6.2192964960629924
21
-3.4177904330708659
0
LINE
8
BLACK
6
CONTINUOUS
10
6.2192964960629924
20
-3.4177904330708659
11
6.2096760629921262
21
-3.4161850393700788
0
LINE
8
BLACK
6
CONTINUOUS
10
6.2096760629921262
20
-3.4161850393700788
11
6.2004510629921255
21
-3.4130181102362203
0
LINE
8
BLACK
6
CONTINUOUS
10
6.2004510629921255
20
-3.4130181102362203
11
6.1918731496062991
21
-3.4083759842519683
0
LINE
8
BLACK
6
CONTINUOUS
10
6.1918731496062991
20
-3.4083759842519683
11
6.1841762992125986
21
-3.402385275590551
0
LINE
8
BLACK
6
CONTINUOUS
10
6.1841762992125986
20
-3.402385275590551
11
6.1775704330708656
21
-3.3952094094488188
0
LINE
8
BLACK
6
CONTINUOUS
10
6.1775704330708656
20
-3.3952094094488188
11
6.1722357874015747
21
-3.3870441338582675
0
LINE
8
BLACK
6
CONTINUOUS
10
6.1722357874015747
20
-3.3870441338582675
11
6.1683178740157478
21
-3.3781121653543305
0
LINE
8
BLACK
6
CONTINUOUS
10
6.1683178740157478
20
-3.3781121653543305
11
6.1659235433070867
21
-3.3686571653543305
0
LINE
8
BLACK
6
CONTINUOUS
10
6.1659235433070867
20
-3.3686571653543305
11
6.1651181102362207
21
-3.3589370078740157
0
LINE
8
BLACK
6
CONTINUOUS
10
6.1651181102362207
20
-3.3589370078740157
11
6.1659235433070867
21
-3.3492168503937005
0
LINE
8
BLACK
6
CONTINUOUS
10
6.1659235433070867
20
-3.3492168503937005
11
6.1683178740157478
21
-3.3397618503937005
0
LINE
8
BLACK
6
CONTINUOUS
10
6.1683178740157478
20
-3.3397618503937005
11
6.1722357874015747
21
-3.3308298818897639
0
LINE
8
BLACK
6
CONTINUOUS
10
6.1722357874015747
20
-3.3308298818897639
11
6.1775704330708656
21
-3.3226646062992127
0
LINE
8
BLACK
6
CONTINUOUS
10
6.1775704330708656
20
-3.3226646062992127
11
6.1841762992125986
21
-3.3154887401574804
0
LINE
8
BLACK
6
CONTINUOUS
10
6.1841762992125986
20
-3.3154887401574804
11
6.1918731496062991
21
-3.3094980314960627
0
LINE
8
BLACK
6
CONTINUOUS
10
6.1918731496062991
20
-3.3094980314960627
11
6.2004510629921255
21
-3.3048559055118107
0
LINE
8
BLACK
6
CONTINUOUS
10
6.2004510629921255
20
-3.3048559055118107
11
6.2096760629921262
21
-3.3016889763779527
0
LINE
8
BLACK
6
CONTINUOUS
10
6.2096760629921262
20
-3.3016889763779527
11
6.2192964960629924
21
-3.3000835826771651
0
LINE
8
BLACK
6
CONTINUOUS
10
6.2192964960629924
20
-3.3000835826771651
11
6.2290499606299212
21
-3.3000835826771651
0
LINE
8
BLACK
6
CONTINUOUS
10
6.2290499606299212
20
-3.3000835826771651
11
6.2386703937007875
21
-3.3016889763779527
  0
ENDSEC
  0
EOF
