  0
SECTION
  2
HEADER
  9
$ANGBASE
  50
0.0
  9
$ANGDIR
  70
1
  9
$MEASUREMENT
  70
0
  0
ENDSEC
  0
SECTION
  2
TABLES
  0
TABLE
  2
LTYPE
  70
4
  0
LTYPE
  5
40F
  2
CONTINUOUS
  70
0
  3
Solid line
  72
65
  73
0
  40
0.0
  0
LTYPE
  5
410
  2
DASHDOT
 70
0
  3
Dash Dot ____ _ ____ _
 72
65
 73
4
 40
2.0
 49
1.25
 49
-0.25
 49
0.25
 49
-0.25
  0
LTYPE
  5
411
  2
DASHED
 70
0
  3
Dashed __ __ __ __ __
 72
65
 73
2
 40
0.75
 49
0.5
 49
-0.25
  0
LTYPE
  5
43B
  2
DOTTED
 70
0
  3
Dotted .  .  .  .
 72
65
 73
2
 40
0.2
 49
0.0
 49
-0.2
  0
ENDTAB
  0
TABLE
  2
STYLE
  70
4
  0
STYLE
  2
KICAD
  70
0
  40
0
  41
1
  42
1
  50
0
  71
0
  3
isocp.shx
  0
STYLE
  2
KICADB
  70
0
  40
0
  41
1
  42
1
  50
0
  71
0
  3
isocp.shx
  0
STYLE
  2
KICADI
  70
0
  40
0
  41
1
  42
1
  50
15
  71
0
  3
isocp.shx
  0
STYLE
  2
KICADBI
  70
0
  40
0
  41
1
  42
1
  50
15
  71
0
  3
isocp.shx
  0
ENDTAB
  0
TABLE
  2
LAYER
  70
1
  0
LAYER
  2
BLACK
  70
0
  62
7
  6
CONTINUOUS
  0
ENDTAB
  0
ENDSEC
  0
SECTION
  2
ENTITIES
0
LINE
8
BLACK
6
CONTINUOUS
10
6.5197073622047244
20
-4.0235001181102366
11
6.520240039370079
21
-4.0240327952755903
0
LINE
8
BLACK
6
CONTINUOUS
10
6.520240039370079
20
-4.0240327952755903
11
6.5203149606299213
21
-4.0244094488188979
0
LINE
8
BLACK
6
CONTINUOUS
10
6.5203149606299213
20
-4.0244094488188979
11
6.5203149606299213
21
-4.4952755905511808
0
LINE
8
BLACK
6
CONTINUOUS
10
6.5203149606299213
20
-4.4952755905511808
11
6.520240039370079
21
-4.4956522440944884
0
LINE
8
BLACK
6
CONTINUOUS
10
6.520240039370079
20
-4.4956522440944884
11
6.5197073622047244
21
-4.4961849212598421
0
LINE
8
BLACK
6
CONTINUOUS
10
6.5197073622047244
20
-4.4961849212598421
11
6.5193307086614176
21
-4.4962598425196854
0
LINE
8
BLACK
6
CONTINUOUS
10
6.5193307086614176
20
-4.4962598425196854
11
6.2673622047244093
21
-4.4962598425196854
0
LINE
8
BLACK
6
CONTINUOUS
10
6.2673622047244093
20
-4.4962598425196854
11
6.2669855511811026
21
-4.4961849212598421
0
LINE
8
BLACK
6
CONTINUOUS
10
6.2669855511811026
20
-4.4961849212598421
11
6.2664528740157479
21
-4.4956522440944884
0
LINE
8
BLACK
6
CONTINUOUS
10
6.2664528740157479
20
-4.4956522440944884
11
6.2663779527559056
21
-4.4952755905511808
0
LINE
8
BLACK
6
CONTINUOUS
10
6.2663779527559056
20
-4.4952755905511808
11
6.2663779527559056
21
-4.0244094488188979
0
LINE
8
BLACK
6
CONTINUOUS
10
6.2663779527559056
20
-4.0244094488188979
11
6.2664528740157479
21
-4.0240327952755903
0
LINE
8
BLACK
6
CONTINUOUS
10
6.2664528740157479
20
-4.0240327952755903
11
6.2669855511811026
21
-4.0235001181102366
0
LINE
8
BLACK
6
CONTINUOUS
10
6.2669855511811026
20
-4.0235001181102366
11
6.2673622047244093
21
-4.0234251968503933
0
LINE
8
BLACK
6
CONTINUOUS
10
6.2673622047244093
20
-4.0234251968503933
11
6.5193307086614176
21
-4.0234251968503933
0
LINE
8
BLACK
6
CONTINUOUS
10
6.5193307086614176
20
-4.0234251968503933
11
6.5197073622047244
21
-4.0235001181102366
0
LINE
8
BLACK
6
CONTINUOUS
10
6.268346456692913
20
-4.0253937007874017
11
6.268346456692913
21
-4.494291338582677
0
LINE
8
BLACK
6
CONTINUOUS
10
6.268346456692913
20
-4.494291338582677
11
6.518346456692913
21
-4.494291338582677
0
LINE
8
BLACK
6
CONTINUOUS
10
6.518346456692913
20
-4.494291338582677
11
6.518346456692913
21
-4.0253937007874017
0
LINE
8
BLACK
6
CONTINUOUS
10
6.518346456692913
20
-4.0253937007874017
11
6.268346456692913
21
-4.0253937007874017
0
LINE
8
BLACK
6
CONTINUOUS
10
5.631479015748031
20
-4.3512560236220468
11
5.6320116929133857
21
-4.3517887007874014
0
LINE
8
BLACK
6
CONTINUOUS
10
5.6320116929133857
20
-4.3517887007874014
11
5.632086614173228
21
-4.3521653543307082
0
LINE
8
BLACK
6
CONTINUOUS
10
5.632086614173228
20
-4.3521653543307082
11
5.632086614173228
21
-4.4687007874015743
0
LINE
8
BLACK
6
CONTINUOUS
10
5.632086614173228
20
-4.4687007874015743
11
5.6320116929133857
21
-4.4690774409448819
0
LINE
8
BLACK
6
CONTINUOUS
10
5.6320116929133857
20
-4.4690774409448819
11
5.631479015748031
21
-4.4696101181102357
0
LINE
8
BLACK
6
CONTINUOUS
10
5.631479015748031
20
-4.4696101181102357
11
5.6311023622047243
21
-4.4696850393700789
0
LINE
8
BLACK
6
CONTINUOUS
10
5.6311023622047243
20
-4.4696850393700789
11
5.5736220472440943
21
-4.4696850393700789
0
LINE
8
BLACK
6
CONTINUOUS
10
5.5736220472440943
20
-4.4696850393700789
11
5.5732453937007875
21
-4.4696101181102357
0
LINE
8
BLACK
6
CONTINUOUS
10
5.5732453937007875
20
-4.4696101181102357
11
5.5727127165354329
21
-4.4690774409448819
0
LINE
8
BLACK
6
CONTINUOUS
10
5.5727127165354329
20
-4.4690774409448819
11
5.5726377952755906
21
-4.4687007874015743
0
LINE
8
BLACK
6
CONTINUOUS
10
5.5726377952755906
20
-4.4687007874015743
11
5.5726377952755906
21
-4.3521653543307082
0
LINE
8
BLACK
6
CONTINUOUS
10
5.5726377952755906
20
-4.3521653543307082
11
5.5727127165354329
21
-4.3517887007874014
0
LINE
8
BLACK
6
CONTINUOUS
10
5.5727127165354329
20
-4.3517887007874014
11
5.5732453937007875
21
-4.3512560236220468
0
LINE
8
BLACK
6
CONTINUOUS
10
5.5732453937007875
20
-4.3512560236220468
11
5.5736220472440943
21
-4.3511811023622045
0
LINE
8
BLACK
6
CONTINUOUS
10
5.5736220472440943
20
-4.3511811023622045
11
5.6311023622047243
21
-4.3511811023622045
0
LINE
8
BLACK
6
CONTINUOUS
10
5.6311023622047243
20
-4.3511811023622045
11
5.631479015748031
21
-4.3512560236220468
0
LINE
8
BLACK
6
CONTINUOUS
10
5.574606299212598
20
-4.3531496062992128
11
5.574606299212598
21
-4.4677165354330706
0
LINE
8
BLACK
6
CONTINUOUS
10
5.574606299212598
20
-4.4677165354330706
11
5.6301181102362206
21
-4.4677165354330706
0
LINE
8
BLACK
6
CONTINUOUS
10
5.6301181102362206
20
-4.4677165354330706
11
5.6301181102362206
21
-4.3531496062992128
0
LINE
8
BLACK
6
CONTINUOUS
10
5.6301181102362206
20
-4.3531496062992128
11
5.574606299212598
21
-4.3531496062992128
0
LINE
8
BLACK
6
CONTINUOUS
10
5.5645498818897634
20
-4.3502717716535431
11
5.5650825590551181
21
-4.3508044488188977
0
LINE
8
BLACK
6
CONTINUOUS
10
5.5650825590551181
20
-4.3508044488188977
11
5.5651574803149604
21
-4.3511811023622045
0
LINE
8
BLACK
6
CONTINUOUS
10
5.5651574803149604
20
-4.3511811023622045
11
5.5651574803149604
21
-4.4677165354330706
0
LINE
8
BLACK
6
CONTINUOUS
10
5.5651574803149604
20
-4.4677165354330706
11
5.5650825590551181
21
-4.4680931889763782
0
LINE
8
BLACK
6
CONTINUOUS
10
5.5650825590551181
20
-4.4680931889763782
11
5.5645498818897634
21
-4.468625866141732
0
LINE
8
BLACK
6
CONTINUOUS
10
5.5645498818897634
20
-4.468625866141732
11
5.5641732283464567
21
-4.4687007874015743
0
LINE
8
BLACK
6
CONTINUOUS
10
5.5641732283464567
20
-4.4687007874015743
11
5.5066929133858267
21
-4.4687007874015743
0
LINE
8
BLACK
6
CONTINUOUS
10
5.5066929133858267
20
-4.4687007874015743
11
5.5063162598425199
21
-4.468625866141732
0
LINE
8
BLACK
6
CONTINUOUS
10
5.5063162598425199
20
-4.468625866141732
11
5.5057835826771653
21
-4.4680931889763782
0
LINE
8
BLACK
6
CONTINUOUS
10
5.5057835826771653
20
-4.4680931889763782
11
5.505708661417323
21
-4.4677165354330706
0
LINE
8
BLACK
6
CONTINUOUS
10
5.505708661417323
20
-4.4677165354330706
11
5.505708661417323
21
-4.3511811023622045
0
LINE
8
BLACK
6
CONTINUOUS
10
5.505708661417323
20
-4.3511811023622045
11
5.5057835826771653
21
-4.3508044488188977
0
LINE
8
BLACK
6
CONTINUOUS
10
5.5057835826771653
20
-4.3508044488188977
11
5.5063162598425199
21
-4.3502717716535431
0
LINE
8
BLACK
6
CONTINUOUS
10
5.5063162598425199
20
-4.3502717716535431
11
5.5066929133858267
21
-4.3501968503937007
0
LINE
8
BLACK
6
CONTINUOUS
10
5.5066929133858267
20
-4.3501968503937007
11
5.5641732283464567
21
-4.3501968503937007
0
LINE
8
BLACK
6
CONTINUOUS
10
5.5641732283464567
20
-4.3501968503937007
11
5.5645498818897634
21
-4.3502717716535431
0
LINE
8
BLACK
6
CONTINUOUS
10
5.5076771653543304
20
-4.3521653543307082
11
5.5076771653543304
21
-4.4667322834645669
0
LINE
8
BLACK
6
CONTINUOUS
10
5.5076771653543304
20
-4.4667322834645669
11
5.563188976377953
21
-4.4667322834645669
0
LINE
8
BLACK
6
CONTINUOUS
10
5.563188976377953
20
-4.4667322834645669
11
5.563188976377953
21
-4.3521653543307082
0
LINE
8
BLACK
6
CONTINUOUS
10
5.563188976377953
20
-4.3521653543307082
11
5.5076771653543304
21
-4.3521653543307082
0
LINE
8
BLACK
6
CONTINUOUS
10
5.8907468897637791
20
-4.2463925590551179
11
5.8962729133858263
21
-4.2486815354330707
0
LINE
8
BLACK
6
CONTINUOUS
10
5.8962729133858263
20
-4.2486815354330707
11
5.9012462598425195
21
-4.2520046062992121
0
LINE
8
BLACK
6
CONTINUOUS
10
5.9012462598425195
20
-4.2520046062992121
11
5.9054757086614176
21
-4.2562340551181101
0
LINE
8
BLACK
6
CONTINUOUS
10
5.9054757086614176
20
-4.2562340551181101
11
5.9087987795275589
21
-4.2612074015748034
0
LINE
8
BLACK
6
CONTINUOUS
10
5.9087987795275589
20
-4.2612074015748034
11
5.9110877559055117
21
-4.2667334251968505
0
LINE
8
BLACK
6
CONTINUOUS
10
5.9110877559055117
20
-4.2667334251968505
11
5.9122546456692913
21
-4.2725998818897635
0
LINE
8
BLACK
6
CONTINUOUS
10
5.9122546456692913
20
-4.2725998818897635
11
5.9122546456692913
21
-4.2785812204724412
0
LINE
8
BLACK
6
CONTINUOUS
10
5.9122546456692913
20
-4.2785812204724412
11
5.9110877559055117
21
-4.2844476771653541
0
LINE
8
BLACK
6
CONTINUOUS
10
5.9110877559055117
20
-4.2844476771653541
11
5.9087987795275589
21
-4.2899737007874013
0
LINE
8
BLACK
6
CONTINUOUS
10
5.9087987795275589
20
-4.2899737007874013
11
5.9054757086614176
21
-4.2949470472440945
0
LINE
8
BLACK
6
CONTINUOUS
10
5.9054757086614176
20
-4.2949470472440945
11
5.9012462598425195
21
-4.2991764960629917
0
LINE
8
BLACK
6
CONTINUOUS
10
5.9012462598425195
20
-4.2991764960629917
11
5.8962729133858263
21
-4.3024995669291339
0
LINE
8
BLACK
6
CONTINUOUS
10
5.8962729133858263
20
-4.3024995669291339
11
5.8907468897637791
21
-4.3047885433070867
0
LINE
8
BLACK
6
CONTINUOUS
10
5.8907468897637791
20
-4.3047885433070867
11
5.8848804330708662
21
-4.3059554330708663
0
LINE
8
BLACK
6
CONTINUOUS
10
5.8848804330708662
20
-4.3059554330708663
11
5.8788990944881885
21
-4.3059554330708663
0
LINE
8
BLACK
6
CONTINUOUS
10
5.8788990944881885
20
-4.3059554330708663
11
5.8730326377952755
21
-4.3047885433070867
0
LINE
8
BLACK
6
CONTINUOUS
10
5.8730326377952755
20
-4.3047885433070867
11
5.8675066141732284
21
-4.3024995669291339
0
LINE
8
BLACK
6
CONTINUOUS
10
5.8675066141732284
20
-4.3024995669291339
11
5.8625332677165352
21
-4.2991764960629917
0
LINE
8
BLACK
6
CONTINUOUS
10
5.8625332677165352
20
-4.2991764960629917
11
5.858303818897638
21
-4.2949470472440945
0
LINE
8
BLACK
6
CONTINUOUS
10
5.858303818897638
20
-4.2949470472440945
11
5.8549807480314957
21
-4.2899737007874013
0
LINE
8
BLACK
6
CONTINUOUS
10
5.8549807480314957
20
-4.2899737007874013
11
5.8526917716535429
21
-4.2844476771653541
0
LINE
8
BLACK
6
CONTINUOUS
10
5.8526917716535429
20
-4.2844476771653541
11
5.8515248818897634
21
-4.2785812204724412
0
LINE
8
BLACK
6
CONTINUOUS
10
5.8515248818897634
20
-4.2785812204724412
11
5.8515248818897634
21
-4.2727792913385825
0
LINE
8
BLACK
6
CONTINUOUS
10
5.8515248818897634
20
-4.2727792913385825
11
5.8515248818897634
21
-4.2725998818897635
0
LINE
8
BLACK
6
CONTINUOUS
10
5.8515248818897634
20
-4.2725998818897635
11
5.8526917716535429
21
-4.2667334251968505
0
LINE
8
BLACK
6
CONTINUOUS
10
5.8526917716535429
20
-4.2667334251968505
11
5.8549807480314957
21
-4.2612074015748034
0
LINE
8
BLACK
6
CONTINUOUS
10
5.8549807480314957
20
-4.2612074015748034
11
5.858303818897638
21
-4.2562340551181101
0
LINE
8
BLACK
6
CONTINUOUS
10
5.858303818897638
20
-4.2562340551181101
11
5.8625332677165352
21
-4.2520046062992121
0
LINE
8
BLACK
6
CONTINUOUS
10
5.8625332677165352
20
-4.2520046062992121
11
5.8675066141732284
21
-4.2486815354330707
0
LINE
8
BLACK
6
CONTINUOUS
10
5.8675066141732284
20
-4.2486815354330707
11
5.8730326377952755
21
-4.2463925590551179
0
LINE
8
BLACK
6
CONTINUOUS
10
5.8730326377952755
20
-4.2463925590551179
11
5.8788990944881885
21
-4.2452256692913384
0
LINE
8
BLACK
6
CONTINUOUS
10
5.8788990944881885
20
-4.2452256692913384
11
5.8848804330708662
21
-4.2452256692913384
0
LINE
8
BLACK
6
CONTINUOUS
10
5.8848804330708662
20
-4.2452256692913384
11
5.8907468897637791
21
-4.2463925590551179
0
LINE
8
BLACK
6
CONTINUOUS
10
5.853346456692913
20
-4.2784018110236222
11
5.8544433464566925
21
-4.2839163385826771
0
LINE
8
BLACK
6
CONTINUOUS
10
5.8544433464566925
20
-4.2839163385826771
11
5.8565949999999996
21
-4.2891108661417325
0
LINE
8
BLACK
6
CONTINUOUS
10
5.8565949999999996
20
-4.2891108661417325
11
5.8597187401574802
21
-4.2937858661417323
0
LINE
8
BLACK
6
CONTINUOUS
10
5.8597187401574802
20
-4.2937858661417323
11
5.8636944488188973
21
-4.2977615748031495
0
LINE
8
BLACK
6
CONTINUOUS
10
5.8636944488188973
20
-4.2977615748031495
11
5.8683694488188971
21
-4.3008853149606301
0
LINE
8
BLACK
6
CONTINUOUS
10
5.8683694488188971
20
-4.3008853149606301
11
5.8735639763779526
21
-4.3030369685039371
0
LINE
8
BLACK
6
CONTINUOUS
10
5.8735639763779526
20
-4.3030369685039371
11
5.8790785039370075
21
-4.3041338582677167
0
LINE
8
BLACK
6
CONTINUOUS
10
5.8790785039370075
20
-4.3041338582677167
11
5.8847010236220472
21
-4.3041338582677167
0
LINE
8
BLACK
6
CONTINUOUS
10
5.8847010236220472
20
-4.3041338582677167
11
5.8902155511811021
21
-4.3030369685039371
0
LINE
8
BLACK
6
CONTINUOUS
10
5.8902155511811021
20
-4.3030369685039371
11
5.8954100787401575
21
-4.3008853149606301
0
LINE
8
BLACK
6
CONTINUOUS
10
5.8954100787401575
20
-4.3008853149606301
11
5.9000850787401573
21
-4.2977615748031495
0
LINE
8
BLACK
6
CONTINUOUS
10
5.9000850787401573
20
-4.2977615748031495
11
5.9040607874015745
21
-4.2937858661417323
0
LINE
8
BLACK
6
CONTINUOUS
10
5.9040607874015745
20
-4.2937858661417323
11
5.9071845275590551
21
-4.2891108661417325
0
LINE
8
BLACK
6
CONTINUOUS
10
5.9071845275590551
20
-4.2891108661417325
11
5.9093361811023621
21
-4.2839163385826771
0
LINE
8
BLACK
6
CONTINUOUS
10
5.9093361811023621
20
-4.2839163385826771
11
5.9104330708661417
21
-4.2784018110236222
0
LINE
8
BLACK
6
CONTINUOUS
10
5.9104330708661417
20
-4.2784018110236222
11
5.9104330708661417
21
-4.2727792913385825
0
LINE
8
BLACK
6
CONTINUOUS
10
5.9104330708661417
20
-4.2727792913385825
11
5.9093361811023621
21
-4.2672647637795276
0
LINE
8
BLACK
6
CONTINUOUS
10
5.9093361811023621
20
-4.2672647637795276
11
5.9071845275590551
21
-4.2620702362204721
0
LINE
8
BLACK
6
CONTINUOUS
10
5.9071845275590551
20
-4.2620702362204721
11
5.9040607874015745
21
-4.2573952362204723
0
LINE
8
BLACK
6
CONTINUOUS
10
5.9040607874015745
20
-4.2573952362204723
11
5.9000850787401573
21
-4.2534195275590552
0
LINE
8
BLACK
6
CONTINUOUS
10
5.9000850787401573
20
-4.2534195275590552
11
5.8954100787401575
21
-4.2502957874015745
0
LINE
8
BLACK
6
CONTINUOUS
10
5.8954100787401575
20
-4.2502957874015745
11
5.8902155511811021
21
-4.2481441338582675
0
LINE
8
BLACK
6
CONTINUOUS
10
5.8902155511811021
20
-4.2481441338582675
11
5.8847010236220472
21
-4.247047244094488
0
LINE
8
BLACK
6
CONTINUOUS
10
5.8847010236220472
20
-4.247047244094488
11
5.8790785039370075
21
-4.247047244094488
0
LINE
8
BLACK
6
CONTINUOUS
10
5.8790785039370075
20
-4.247047244094488
11
5.8735639763779526
21
-4.2481441338582675
0
LINE
8
BLACK
6
CONTINUOUS
10
5.8735639763779526
20
-4.2481441338582675
11
5.8683694488188971
21
-4.2502957874015745
0
LINE
8
BLACK
6
CONTINUOUS
10
5.8683694488188971
20
-4.2502957874015745
11
5.8636944488188973
21
-4.2534195275590552
0
LINE
8
BLACK
6
CONTINUOUS
10
5.8636944488188973
20
-4.2534195275590552
11
5.8597187401574802
21
-4.2573952362204723
0
LINE
8
BLACK
6
CONTINUOUS
10
5.8597187401574802
20
-4.2573952362204723
11
5.8565949999999996
21
-4.2620702362204721
0
LINE
8
BLACK
6
CONTINUOUS
10
5.8565949999999996
20
-4.2620702362204721
11
5.8544433464566925
21
-4.2672647637795276
0
LINE
8
BLACK
6
CONTINUOUS
10
5.8544433464566925
20
-4.2672647637795276
11
5.853346456692913
21
-4.2727792913385825
0
LINE
8
BLACK
6
CONTINUOUS
10
5.853346456692913
20
-4.2727792913385825
11
5.853346456692913
21
-4.2784018110236222
0
LINE
8
BLACK
6
CONTINUOUS
10
5.7299042125984254
20
-4.156374133858268
11
5.7304368897637792
21
-4.1569068110236218
0
LINE
8
BLACK
6
CONTINUOUS
10
5.7304368897637792
20
-4.1569068110236218
11
5.7305118110236215
21
-4.1572834645669294
0
LINE
8
BLACK
6
CONTINUOUS
10
5.7305118110236215
20
-4.1572834645669294
11
5.7305118110236215
21
-4.2738188976377955
0
LINE
8
BLACK
6
CONTINUOUS
10
5.7305118110236215
20
-4.2738188976377955
11
5.7304368897637792
21
-4.2741955511811023
0
LINE
8
BLACK
6
CONTINUOUS
10
5.7304368897637792
20
-4.2741955511811023
11
5.7299042125984254
21
-4.2747282283464569
0
LINE
8
BLACK
6
CONTINUOUS
10
5.7299042125984254
20
-4.2747282283464569
11
5.7295275590551178
21
-4.2748031496062993
0
LINE
8
BLACK
6
CONTINUOUS
10
5.7295275590551178
20
-4.2748031496062993
11
5.6720472440944878
21
-4.2748031496062993
0
LINE
8
BLACK
6
CONTINUOUS
10
5.6720472440944878
20
-4.2748031496062993
11
5.6716705905511811
21
-4.2747282283464569
0
LINE
8
BLACK
6
CONTINUOUS
10
5.6716705905511811
20
-4.2747282283464569
11
5.6711379133858264
21
-4.2741955511811023
0
LINE
8
BLACK
6
CONTINUOUS
10
5.6711379133858264
20
-4.2741955511811023
11
5.6710629921259841
21
-4.2738188976377955
0
LINE
8
BLACK
6
CONTINUOUS
10
5.6710629921259841
20
-4.2738188976377955
11
5.6710629921259841
21
-4.1572834645669294
0
LINE
8
BLACK
6
CONTINUOUS
10
5.6710629921259841
20
-4.1572834645669294
11
5.6711379133858264
21
-4.1569068110236218
0
LINE
8
BLACK
6
CONTINUOUS
10
5.6711379133858264
20
-4.1569068110236218
11
5.6716705905511811
21
-4.156374133858268
0
LINE
8
BLACK
6
CONTINUOUS
10
5.6716705905511811
20
-4.156374133858268
11
5.6720472440944878
21
-4.1562992125984248
0
LINE
8
BLACK
6
CONTINUOUS
10
5.6720472440944878
20
-4.1562992125984248
11
5.7295275590551178
21
-4.1562992125984248
0
LINE
8
BLACK
6
CONTINUOUS
10
5.7295275590551178
20
-4.1562992125984248
11
5.7299042125984254
21
-4.156374133858268
0
LINE
8
BLACK
6
CONTINUOUS
10
5.6730314960629924
20
-4.1582677165354331
11
5.6730314960629924
21
-4.2728346456692909
0
LINE
8
BLACK
6
CONTINUOUS
10
5.6730314960629924
20
-4.2728346456692909
11
5.7285433070866141
21
-4.2728346456692909
0
LINE
8
BLACK
6
CONTINUOUS
10
5.7285433070866141
20
-4.2728346456692909
11
5.7285433070866141
21
-4.1582677165354331
0
LINE
8
BLACK
6
CONTINUOUS
10
5.7285433070866141
20
-4.1582677165354331
11
5.6730314960629924
21
-4.1582677165354331
0
LINE
8
BLACK
6
CONTINUOUS
10
5.802187677165354
20
-4.1073583858267719
11
5.8027203543307087
21
-4.1078910629921257
0
LINE
8
BLACK
6
CONTINUOUS
10
5.8027203543307087
20
-4.1078910629921257
11
5.802795275590551
21
-4.1082677165354333
0
LINE
8
BLACK
6
CONTINUOUS
10
5.802795275590551
20
-4.1082677165354333
11
5.802795275590551
21
-4.2460629921259843
0
LINE
8
BLACK
6
CONTINUOUS
10
5.802795275590551
20
-4.2460629921259843
11
5.8027203543307087
21
-4.246439645669291
0
LINE
8
BLACK
6
CONTINUOUS
10
5.8027203543307087
20
-4.246439645669291
11
5.802187677165354
21
-4.2469723228346457
0
LINE
8
BLACK
6
CONTINUOUS
10
5.802187677165354
20
-4.2469723228346457
11
5.8018110236220473
21
-4.247047244094488
0
LINE
8
BLACK
6
CONTINUOUS
10
5.8018110236220473
20
-4.247047244094488
11
5.7348818897637797
21
-4.247047244094488
0
LINE
8
BLACK
6
CONTINUOUS
10
5.7348818897637797
20
-4.247047244094488
11
5.734505236220472
21
-4.2469723228346457
0
LINE
8
BLACK
6
CONTINUOUS
10
5.734505236220472
20
-4.2469723228346457
11
5.7339725590551183
21
-4.246439645669291
0
LINE
8
BLACK
6
CONTINUOUS
10
5.7339725590551183
20
-4.246439645669291
11
5.7338976377952751
21
-4.2460629921259843
0
LINE
8
BLACK
6
CONTINUOUS
10
5.7338976377952751
20
-4.2460629921259843
11
5.7338976377952751
21
-4.1082677165354333
0
LINE
8
BLACK
6
CONTINUOUS
10
5.7338976377952751
20
-4.1082677165354333
11
5.7339725590551183
21
-4.1078910629921257
0
LINE
8
BLACK
6
CONTINUOUS
10
5.7339725590551183
20
-4.1078910629921257
11
5.734505236220472
21
-4.1073583858267719
0
LINE
8
BLACK
6
CONTINUOUS
10
5.734505236220472
20
-4.1073583858267719
11
5.7348818897637797
21
-4.1072834645669287
0
LINE
8
BLACK
6
CONTINUOUS
10
5.7348818897637797
20
-4.1072834645669287
11
5.8018110236220473
21
-4.1072834645669287
0
LINE
8
BLACK
6
CONTINUOUS
10
5.8018110236220473
20
-4.1072834645669287
11
5.802187677165354
21
-4.1073583858267719
0
LINE
8
BLACK
6
CONTINUOUS
10
5.7358661417322834
20
-4.109251968503937
11
5.7358661417322834
21
-4.2450787401574805
0
LINE
8
BLACK
6
CONTINUOUS
10
5.7358661417322834
20
-4.2450787401574805
11
5.8008267716535435
21
-4.2450787401574805
0
LINE
8
BLACK
6
CONTINUOUS
10
5.8008267716535435
20
-4.2450787401574805
11
5.8008267716535435
21
-4.109251968503937
0
LINE
8
BLACK
6
CONTINUOUS
10
5.8008267716535435
20
-4.109251968503937
11
5.7358661417322834
21
-4.109251968503937
0
LINE
8
BLACK
6
CONTINUOUS
10
6.0802979133858264
20
-4.1219253149606301
11
6.080830590551181
21
-4.1224579921259838
0
LINE
8
BLACK
6
CONTINUOUS
10
6.080830590551181
20
-4.1224579921259838
11
6.0809055118110233
21
-4.1228346456692915
0
LINE
8
BLACK
6
CONTINUOUS
10
6.0809055118110233
20
-4.1228346456692915
11
6.0809055118110233
21
-4.2393700787401576
0
LINE
8
BLACK
6
CONTINUOUS
10
6.0809055118110233
20
-4.2393700787401576
11
6.080830590551181
21
-4.2397467322834643
0
LINE
8
BLACK
6
CONTINUOUS
10
6.080830590551181
20
-4.2397467322834643
11
6.0802979133858264
21
-4.240279409448819
0
LINE
8
BLACK
6
CONTINUOUS
10
6.0802979133858264
20
-4.240279409448819
11
6.0799212598425196
21
-4.2403543307086613
0
LINE
8
BLACK
6
CONTINUOUS
10
6.0799212598425196
20
-4.2403543307086613
11
6.0224409448818896
21
-4.2403543307086613
0
LINE
8
BLACK
6
CONTINUOUS
10
6.0224409448818896
20
-4.2403543307086613
11
6.0220642913385829
21
-4.240279409448819
0
LINE
8
BLACK
6
CONTINUOUS
10
6.0220642913385829
20
-4.240279409448819
11
6.0215316141732282
21
-4.2397467322834643
0
LINE
8
BLACK
6
CONTINUOUS
10
6.0215316141732282
20
-4.2397467322834643
11
6.0214566929133859
21
-4.2393700787401576
0
LINE
8
BLACK
6
CONTINUOUS
10
6.0214566929133859
20
-4.2393700787401576
11
6.0214566929133859
21
-4.1228346456692915
0
LINE
8
BLACK
6
CONTINUOUS
10
6.0214566929133859
20
-4.1228346456692915
11
6.0215316141732282
21
-4.1224579921259838
0
LINE
8
BLACK
6
CONTINUOUS
10
6.0215316141732282
20
-4.1224579921259838
11
6.0220642913385829
21
-4.1219253149606301
0
LINE
8
BLACK
6
CONTINUOUS
10
6.0220642913385829
20
-4.1219253149606301
11
6.0224409448818896
21
-4.1218503937007869
0
LINE
8
BLACK
6
CONTINUOUS
10
6.0224409448818896
20
-4.1218503937007869
11
6.0799212598425196
21
-4.1218503937007869
0
LINE
8
BLACK
6
CONTINUOUS
10
6.0799212598425196
20
-4.1218503937007869
11
6.0802979133858264
21
-4.1219253149606301
0
LINE
8
BLACK
6
CONTINUOUS
10
6.0234251968503933
20
-4.1238188976377952
11
6.0234251968503933
21
-4.2383858267716539
0
LINE
8
BLACK
6
CONTINUOUS
10
6.0234251968503933
20
-4.2383858267716539
11
6.0789370078740159
21
-4.2383858267716539
0
LINE
8
BLACK
6
CONTINUOUS
10
6.0789370078740159
20
-4.2383858267716539
11
6.0789370078740159
21
-4.1238188976377952
0
LINE
8
BLACK
6
CONTINUOUS
10
6.0789370078740159
20
-4.1238188976377952
11
6.0234251968503933
21
-4.1238188976377952
0
LINE
8
BLACK
6
CONTINUOUS
10
5.8637624803149606
20
-4.1101142913385829
11
5.8641732283464565
21
-4.1105250393700787
0
LINE
8
BLACK
6
CONTINUOUS
10
5.8641732283464565
20
-4.1105250393700787
11
5.8645839763779524
21
-4.1101142913385829
0
LINE
8
BLACK
6
CONTINUOUS
10
5.8645839763779524
20
-4.1101142913385829
11
5.86496062992126
21
-4.1100393700787397
0
LINE
8
BLACK
6
CONTINUOUS
10
5.86496062992126
20
-4.1100393700787397
11
5.92244094488189
21
-4.1100393700787397
0
LINE
8
BLACK
6
CONTINUOUS
10
5.92244094488189
20
-4.1100393700787397
11
5.9228175984251967
21
-4.1101142913385829
0
LINE
8
BLACK
6
CONTINUOUS
10
5.9228175984251967
20
-4.1101142913385829
11
5.9233502755905514
21
-4.1106469685039366
0
LINE
8
BLACK
6
CONTINUOUS
10
5.9233502755905514
20
-4.1106469685039366
11
5.9234251968503937
21
-4.1110236220472443
0
LINE
8
BLACK
6
CONTINUOUS
10
5.9234251968503937
20
-4.1110236220472443
11
5.9234251968503937
21
-4.2275590551181104
0
LINE
8
BLACK
6
CONTINUOUS
10
5.9234251968503937
20
-4.2275590551181104
11
5.9233502755905514
21
-4.2279357086614171
0
LINE
8
BLACK
6
CONTINUOUS
10
5.9233502755905514
20
-4.2279357086614171
11
5.9228175984251967
21
-4.2284683858267718
0
LINE
8
BLACK
6
CONTINUOUS
10
5.9228175984251967
20
-4.2284683858267718
11
5.92244094488189
21
-4.2285433070866141
0
LINE
8
BLACK
6
CONTINUOUS
10
5.92244094488189
20
-4.2285433070866141
11
5.86496062992126
21
-4.2285433070866141
0
LINE
8
BLACK
6
CONTINUOUS
10
5.86496062992126
20
-4.2285433070866141
11
5.8645839763779524
21
-4.2284683858267718
0
LINE
8
BLACK
6
CONTINUOUS
10
5.8645839763779524
20
-4.2284683858267718
11
5.8641732283464565
21
-4.2280576377952759
0
LINE
8
BLACK
6
CONTINUOUS
10
5.8641732283464565
20
-4.2280576377952759
11
5.8637624803149606
21
-4.2284683858267718
0
LINE
8
BLACK
6
CONTINUOUS
10
5.8637624803149606
20
-4.2284683858267718
11
5.863385826771653
21
-4.2285433070866141
0
LINE
8
BLACK
6
CONTINUOUS
10
5.863385826771653
20
-4.2285433070866141
11
5.8059055118110239
21
-4.2285433070866141
0
LINE
8
BLACK
6
CONTINUOUS
10
5.8059055118110239
20
-4.2285433070866141
11
5.8055288582677163
21
-4.2284683858267718
0
LINE
8
BLACK
6
CONTINUOUS
10
5.8055288582677163
20
-4.2284683858267718
11
5.8049961811023625
21
-4.2279357086614171
0
LINE
8
BLACK
6
CONTINUOUS
10
5.8049961811023625
20
-4.2279357086614171
11
5.8049212598425193
21
-4.2275590551181104
0
LINE
8
BLACK
6
CONTINUOUS
10
5.8049212598425193
20
-4.2275590551181104
11
5.8049212598425193
21
-4.1110236220472443
0
LINE
8
BLACK
6
CONTINUOUS
10
5.8049212598425193
20
-4.1110236220472443
11
5.8049961811023625
21
-4.1106469685039366
0
LINE
8
BLACK
6
CONTINUOUS
10
5.8049961811023625
20
-4.1106469685039366
11
5.8055288582677163
21
-4.1101142913385829
0
LINE
8
BLACK
6
CONTINUOUS
10
5.8055288582677163
20
-4.1101142913385829
11
5.8059055118110239
21
-4.1100393700787397
0
LINE
8
BLACK
6
CONTINUOUS
10
5.8059055118110239
20
-4.1100393700787397
11
5.863385826771653
21
-4.1100393700787397
0
LINE
8
BLACK
6
CONTINUOUS
10
5.863385826771653
20
-4.1100393700787397
11
5.8637624803149606
21
-4.1101142913385829
0
LINE
8
BLACK
6
CONTINUOUS
10
5.8659448818897637
20
-4.112007874015748
11
5.8659448818897637
21
-4.2265748031496058
0
LINE
8
BLACK
6
CONTINUOUS
10
5.8659448818897637
20
-4.2265748031496058
11
5.9214566929133854
21
-4.2265748031496058
0
LINE
8
BLACK
6
CONTINUOUS
10
5.9214566929133854
20
-4.2265748031496058
11
5.9214566929133854
21
-4.112007874015748
0
LINE
8
BLACK
6
CONTINUOUS
10
5.9214566929133854
20
-4.112007874015748
11
5.8659448818897637
21
-4.112007874015748
0
LINE
8
BLACK
6
CONTINUOUS
10
5.8068897637795276
20
-4.112007874015748
11
5.8068897637795276
21
-4.2265748031496058
0
LINE
8
BLACK
6
CONTINUOUS
10
5.8068897637795276
20
-4.2265748031496058
11
5.8624015748031493
21
-4.2265748031496058
0
LINE
8
BLACK
6
CONTINUOUS
10
5.8624015748031493
20
-4.2265748031496058
11
5.8624015748031493
21
-4.112007874015748
0
LINE
8
BLACK
6
CONTINUOUS
10
5.8624015748031493
20
-4.112007874015748
11
5.8068897637795276
21
-4.112007874015748
0
LINE
8
BLACK
6
CONTINUOUS
10
6.2023451574803152
20
-3.961492244094488
11
6.202877834645669
21
-3.9620249212598426
0
LINE
8
BLACK
6
CONTINUOUS
10
6.202877834645669
20
-3.9620249212598426
11
6.2029527559055113
21
-3.9624015748031494
0
LINE
8
BLACK
6
CONTINUOUS
10
6.2029527559055113
20
-3.9624015748031494
11
6.2029527559055113
21
-4.0789370078740159
0
LINE
8
BLACK
6
CONTINUOUS
10
6.2029527559055113
20
-4.0789370078740159
11
6.202877834645669
21
-4.0793136614173227
0
LINE
8
BLACK
6
CONTINUOUS
10
6.202877834645669
20
-4.0793136614173227
11
6.2023451574803152
21
-4.0798463385826773
0
LINE
8
BLACK
6
CONTINUOUS
10
6.2023451574803152
20
-4.0798463385826773
11
6.2019685039370076
21
-4.0799212598425196
0
LINE
8
BLACK
6
CONTINUOUS
10
6.2019685039370076
20
-4.0799212598425196
11
6.1444881889763776
21
-4.0799212598425196
0
LINE
8
BLACK
6
CONTINUOUS
10
6.1444881889763776
20
-4.0799212598425196
11
6.1441115354330709
21
-4.0798463385826773
0
LINE
8
BLACK
6
CONTINUOUS
10
6.1441115354330709
20
-4.0798463385826773
11
6.1438976377952752
21
-4.0796324409448816
0
LINE
8
BLACK
6
CONTINUOUS
10
6.1438976377952752
20
-4.0796324409448816
11
6.1438976377952752
21
-4.1960629921259844
0
LINE
8
BLACK
6
CONTINUOUS
10
6.1438976377952752
20
-4.1960629921259844
11
6.1438227165354329
21
-4.1964396456692912
0
LINE
8
BLACK
6
CONTINUOUS
10
6.1438227165354329
20
-4.1964396456692912
11
6.1432900393700782
21
-4.1969723228346458
0
LINE
8
BLACK
6
CONTINUOUS
10
6.1432900393700782
20
-4.1969723228346458
11
6.1429133858267715
21
-4.1970472440944881
0
LINE
8
BLACK
6
CONTINUOUS
10
6.1429133858267715
20
-4.1970472440944881
11
6.0854330708661415
21
-4.1970472440944881
0
LINE
8
BLACK
6
CONTINUOUS
10
6.0854330708661415
20
-4.1970472440944881
11
6.0850564173228348
21
-4.1969723228346458
0
LINE
8
BLACK
6
CONTINUOUS
10
6.0850564173228348
20
-4.1969723228346458
11
6.0845237401574801
21
-4.1964396456692912
0
LINE
8
BLACK
6
CONTINUOUS
10
6.0845237401574801
20
-4.1964396456692912
11
6.0844488188976378
21
-4.1960629921259844
0
LINE
8
BLACK
6
CONTINUOUS
10
6.0844488188976378
20
-4.1960629921259844
11
6.0844488188976378
21
-4.0795275590551183
0
LINE
8
BLACK
6
CONTINUOUS
10
6.0844488188976378
20
-4.0795275590551183
11
6.0845237401574801
21
-4.0791509055118107
0
LINE
8
BLACK
6
CONTINUOUS
10
6.0845237401574801
20
-4.0791509055118107
11
6.0850564173228348
21
-4.0786182283464569
0
LINE
8
BLACK
6
CONTINUOUS
10
6.0850564173228348
20
-4.0786182283464569
11
6.0854330708661415
21
-4.0785433070866137
0
LINE
8
BLACK
6
CONTINUOUS
10
6.0854330708661415
20
-4.0785433070866137
11
6.1429133858267715
21
-4.0785433070866137
0
LINE
8
BLACK
6
CONTINUOUS
10
6.1429133858267715
20
-4.0785433070866137
11
6.1432900393700782
21
-4.0786182283464569
0
LINE
8
BLACK
6
CONTINUOUS
10
6.1432900393700782
20
-4.0786182283464569
11
6.1435039370078739
21
-4.0788321259842517
0
LINE
8
BLACK
6
CONTINUOUS
10
6.1435039370078739
20
-4.0788321259842517
11
6.1435039370078739
21
-3.9624015748031494
0
LINE
8
BLACK
6
CONTINUOUS
10
6.1435039370078739
20
-3.9624015748031494
11
6.1435788582677162
21
-3.9620249212598426
0
LINE
8
BLACK
6
CONTINUOUS
10
6.1435788582677162
20
-3.9620249212598426
11
6.1441115354330709
21
-3.961492244094488
0
LINE
8
BLACK
6
CONTINUOUS
10
6.1441115354330709
20
-3.961492244094488
11
6.1444881889763776
21
-3.9614173228346456
0
LINE
8
BLACK
6
CONTINUOUS
10
6.1444881889763776
20
-3.9614173228346456
11
6.2019685039370076
21
-3.9614173228346456
0
LINE
8
BLACK
6
CONTINUOUS
10
6.2019685039370076
20
-3.9614173228346456
11
6.2023451574803152
21
-3.961492244094488
0
LINE
8
BLACK
6
CONTINUOUS
10
6.0864173228346452
20
-4.080511811023622
11
6.0864173228346452
21
-4.1950787401574798
0
LINE
8
BLACK
6
CONTINUOUS
10
6.0864173228346452
20
-4.1950787401574798
11
6.1419291338582678
21
-4.1950787401574798
0
LINE
8
BLACK
6
CONTINUOUS
10
6.1419291338582678
20
-4.1950787401574798
11
6.1419291338582678
21
-4.080511811023622
0
LINE
8
BLACK
6
CONTINUOUS
10
6.1419291338582678
20
-4.080511811023622
11
6.0864173228346452
21
-4.080511811023622
0
LINE
8
BLACK
6
CONTINUOUS
10
6.1454724409448813
20
-3.9633858267716535
11
6.1454724409448813
21
-4.0779527559055113
0
LINE
8
BLACK
6
CONTINUOUS
10
6.1454724409448813
20
-4.0779527559055113
11
6.2009842519685039
21
-4.0779527559055113
0
LINE
8
BLACK
6
CONTINUOUS
10
6.2009842519685039
20
-4.0779527559055113
11
6.2009842519685039
21
-3.9633858267716535
0
LINE
8
BLACK
6
CONTINUOUS
10
6.2009842519685039
20
-3.9633858267716535
11
6.1454724409448813
21
-3.9633858267716535
0
LINE
8
BLACK
6
CONTINUOUS
10
5.6764081496062992
20
-3.7477914566929131
11
5.676940826771653
21
-3.7483241338582678
0
LINE
8
BLACK
6
CONTINUOUS
10
5.676940826771653
20
-3.7483241338582678
11
5.6770157480314962
21
-3.7487007874015745
0
LINE
8
BLACK
6
CONTINUOUS
10
5.6770157480314962
20
-3.7487007874015745
11
5.6770157480314962
21
-4.150275590551181
0
LINE
8
BLACK
6
CONTINUOUS
10
5.6770157480314962
20
-4.150275590551181
11
5.676940826771653
21
-4.1506522440944877
0
LINE
8
BLACK
6
CONTINUOUS
10
5.676940826771653
20
-4.1506522440944877
11
5.6764081496062992
21
-4.1511849212598424
0
LINE
8
BLACK
6
CONTINUOUS
10
5.6764081496062992
20
-4.1511849212598424
11
5.6760314960629916
21
-4.1512598425196847
0
LINE
8
BLACK
6
CONTINUOUS
10
5.6760314960629916
20
-4.1512598425196847
11
5.3441417322834646
21
-4.1512598425196847
0
LINE
8
BLACK
6
CONTINUOUS
10
5.3441417322834646
20
-4.1512598425196847
11
5.3437650787401569
21
-4.1511849212598424
0
LINE
8
BLACK
6
CONTINUOUS
10
5.3437650787401569
20
-4.1511849212598424
11
5.3432324015748032
21
-4.1506522440944877
0
LINE
8
BLACK
6
CONTINUOUS
10
5.3432324015748032
20
-4.1506522440944877
11
5.3431574803149608
21
-4.150275590551181
0
LINE
8
BLACK
6
CONTINUOUS
10
5.3431574803149608
20
-4.150275590551181
11
5.3431574803149608
21
-3.7487007874015745
0
LINE
8
BLACK
6
CONTINUOUS
10
5.3431574803149608
20
-3.7487007874015745
11
5.3432324015748032
21
-3.7483241338582678
0
LINE
8
BLACK
6
CONTINUOUS
10
5.3432324015748032
20
-3.7483241338582678
11
5.3437650787401569
21
-3.7477914566929131
0
LINE
8
BLACK
6
CONTINUOUS
10
5.3437650787401569
20
-3.7477914566929131
11
5.3441417322834646
21
-3.7477165354330708
0
LINE
8
BLACK
6
CONTINUOUS
10
5.3441417322834646
20
-3.7477165354330708
11
5.6760314960629916
21
-3.7477165354330708
0
LINE
8
BLACK
6
CONTINUOUS
10
5.6760314960629916
20
-3.7477165354330708
11
5.6764081496062992
21
-3.7477914566929131
0
LINE
8
BLACK
6
CONTINUOUS
10
5.3451259842519683
20
-3.7496850393700787
11
5.3451259842519683
21
-4.1492913385826773
0
LINE
8
BLACK
6
CONTINUOUS
10
5.3451259842519683
20
-4.1492913385826773
11
5.6750472440944879
21
-4.1492913385826773
0
LINE
8
BLACK
6
CONTINUOUS
10
5.6750472440944879
20
-4.1492913385826773
11
5.6750472440944879
21
-3.7496850393700787
0
LINE
8
BLACK
6
CONTINUOUS
10
5.6750472440944879
20
-3.7496850393700787
11
5.3451259842519683
21
-3.7496850393700787
0
LINE
8
BLACK
6
CONTINUOUS
10
6.1421089370078743
20
-3.8612953937007872
11
6.1426416141732281
21
-3.8618280708661414
0
LINE
8
BLACK
6
CONTINUOUS
10
6.1426416141732281
20
-3.8618280708661414
11
6.1427165354330704
21
-3.8622047244094486
0
LINE
8
BLACK
6
CONTINUOUS
10
6.1427165354330704
20
-3.8622047244094486
11
6.1427165354330704
21
-4.0669291338582676
0
LINE
8
BLACK
6
CONTINUOUS
10
6.1427165354330704
20
-4.0669291338582676
11
6.1426416141732281
21
-4.0673057874015743
0
LINE
8
BLACK
6
CONTINUOUS
10
6.1426416141732281
20
-4.0673057874015743
11
6.1421089370078743
21
-4.067838464566929
0
LINE
8
BLACK
6
CONTINUOUS
10
6.1421089370078743
20
-4.067838464566929
11
6.1417322834645667
21
-4.0679133858267713
0
LINE
8
BLACK
6
CONTINUOUS
10
6.1417322834645667
20
-4.0679133858267713
11
5.9370078740157481
21
-4.0679133858267713
0
LINE
8
BLACK
6
CONTINUOUS
10
5.9370078740157481
20
-4.0679133858267713
11
5.9366312204724405
21
-4.067838464566929
0
LINE
8
BLACK
6
CONTINUOUS
10
5.9366312204724405
20
-4.067838464566929
11
5.9360985433070868
21
-4.0673057874015743
0
LINE
8
BLACK
6
CONTINUOUS
10
5.9360985433070868
20
-4.0673057874015743
11
5.9360236220472435
21
-4.0669291338582676
0
LINE
8
BLACK
6
CONTINUOUS
10
5.9360236220472435
20
-4.0669291338582676
11
5.9360236220472435
21
-3.8622047244094486
0
LINE
8
BLACK
6
CONTINUOUS
10
5.9360236220472435
20
-3.8622047244094486
11
5.9360985433070868
21
-3.8618280708661414
0
LINE
8
BLACK
6
CONTINUOUS
10
5.9360985433070868
20
-3.8618280708661414
11
5.9366312204724405
21
-3.8612953937007872
0
LINE
8
BLACK
6
CONTINUOUS
10
5.9366312204724405
20
-3.8612953937007872
11
5.9370078740157481
21
-3.8612204724409449
0
LINE
8
BLACK
6
CONTINUOUS
10
5.9370078740157481
20
-3.8612204724409449
11
6.1417322834645667
21
-3.8612204724409449
0
LINE
8
BLACK
6
CONTINUOUS
10
6.1417322834645667
20
-3.8612204724409449
11
6.1421089370078743
21
-3.8612953937007872
0
LINE
8
BLACK
6
CONTINUOUS
10
5.9379921259842519
20
-3.8631889763779528
11
5.9379921259842519
21
-4.0659448818897639
0
LINE
8
BLACK
6
CONTINUOUS
10
5.9379921259842519
20
-4.0659448818897639
11
6.140748031496063
21
-4.0659448818897639
0
LINE
8
BLACK
6
CONTINUOUS
10
6.140748031496063
20
-4.0659448818897639
11
6.140748031496063
21
-3.8631889763779528
0
LINE
8
BLACK
6
CONTINUOUS
10
6.140748031496063
20
-3.8631889763779528
11
5.9379921259842519
21
-3.8631889763779528
0
LINE
8
BLACK
6
CONTINUOUS
10
5.9093333464566928
20
-3.8816497244094488
11
5.9098660236220475
21
-3.882182401574803
0
LINE
8
BLACK
6
CONTINUOUS
10
5.9098660236220475
20
-3.882182401574803
11
5.9099409448818898
21
-3.8825590551181102
0
LINE
8
BLACK
6
CONTINUOUS
10
5.9099409448818898
20
-3.8825590551181102
11
5.9099409448818898
21
-4.0164173228346458
0
LINE
8
BLACK
6
CONTINUOUS
10
5.9099409448818898
20
-4.0164173228346458
11
5.9098660236220475
21
-4.0167939763779525
0
LINE
8
BLACK
6
CONTINUOUS
10
5.9098660236220475
20
-4.0167939763779525
11
5.9093333464566928
21
-4.0173266535433072
0
LINE
8
BLACK
6
CONTINUOUS
10
5.9093333464566928
20
-4.0173266535433072
11
5.9089566929133861
21
-4.0174015748031495
0
LINE
8
BLACK
6
CONTINUOUS
10
5.9089566929133861
20
-4.0174015748031495
11
5.7475393700787398
21
-4.0174015748031495
0
LINE
8
BLACK
6
CONTINUOUS
10
5.7475393700787398
20
-4.0174015748031495
11
5.7471627165354331
21
-4.0173266535433072
0
LINE
8
BLACK
6
CONTINUOUS
10
5.7471627165354331
20
-4.0173266535433072
11
5.7466300393700784
21
-4.0167939763779525
0
LINE
8
BLACK
6
CONTINUOUS
10
5.7466300393700784
20
-4.0167939763779525
11
5.7465551181102361
21
-4.0164173228346458
0
LINE
8
BLACK
6
CONTINUOUS
10
5.7465551181102361
20
-4.0164173228346458
11
5.7465551181102361
21
-3.8825590551181102
0
LINE
8
BLACK
6
CONTINUOUS
10
5.7465551181102361
20
-3.8825590551181102
11
5.7466300393700784
21
-3.882182401574803
0
LINE
8
BLACK
6
CONTINUOUS
10
5.7466300393700784
20
-3.882182401574803
11
5.7471627165354331
21
-3.8816497244094488
0
LINE
8
BLACK
6
CONTINUOUS
10
5.7471627165354331
20
-3.8816497244094488
11
5.7475393700787398
21
-3.881574803149606
0
LINE
8
BLACK
6
CONTINUOUS
10
5.7475393700787398
20
-3.881574803149606
11
5.9089566929133861
21
-3.881574803149606
0
LINE
8
BLACK
6
CONTINUOUS
10
5.9089566929133861
20
-3.881574803149606
11
5.9093333464566928
21
-3.8816497244094488
0
LINE
8
BLACK
6
CONTINUOUS
10
5.7485236220472435
20
-3.8835433070866139
11
5.7485236220472435
21
-4.0154330708661412
0
LINE
8
BLACK
6
CONTINUOUS
10
5.7485236220472435
20
-4.0154330708661412
11
5.9079724409448815
21
-4.0154330708661412
0
LINE
8
BLACK
6
CONTINUOUS
10
5.9079724409448815
20
-4.0154330708661412
11
5.9079724409448815
21
-3.8835433070866139
0
LINE
8
BLACK
6
CONTINUOUS
10
5.9079724409448815
20
-3.8835433070866139
11
5.7485236220472435
21
-3.8835433070866139
0
LINE
8
BLACK
6
CONTINUOUS
10
6.4413215354330706
20
-3.910507992125984
11
6.4418542125984253
21
-3.9110406692913386
0
LINE
8
BLACK
6
CONTINUOUS
10
6.4418542125984253
20
-3.9110406692913386
11
6.4419291338582676
21
-3.9114173228346454
0
LINE
8
BLACK
6
CONTINUOUS
10
6.4419291338582676
20
-3.9114173228346454
11
6.4419291338582676
21
-3.9862204724409449
0
LINE
8
BLACK
6
CONTINUOUS
10
6.4419291338582676
20
-3.9862204724409449
11
6.4418542125984253
21
-3.9865971259842521
0
LINE
8
BLACK
6
CONTINUOUS
10
6.4418542125984253
20
-3.9865971259842521
11
6.4413215354330706
21
-3.9871298031496063
0
LINE
8
BLACK
6
CONTINUOUS
10
6.4413215354330706
20
-3.9871298031496063
11
6.4409448818897639
21
-3.9872047244094486
0
LINE
8
BLACK
6
CONTINUOUS
10
6.4409448818897639
20
-3.9872047244094486
11
6.2834645669291334
21
-3.9872047244094486
0
LINE
8
BLACK
6
CONTINUOUS
10
6.2834645669291334
20
-3.9872047244094486
11
6.2830879133858266
21
-3.9871298031496063
0
LINE
8
BLACK
6
CONTINUOUS
10
6.2830879133858266
20
-3.9871298031496063
11
6.282555236220472
21
-3.9865971259842521
0
LINE
8
BLACK
6
CONTINUOUS
10
6.282555236220472
20
-3.9865971259842521
11
6.2824803149606296
21
-3.9862204724409449
0
LINE
8
BLACK
6
CONTINUOUS
10
6.2824803149606296
20
-3.9862204724409449
11
6.2824803149606296
21
-3.9114173228346454
0
LINE
8
BLACK
6
CONTINUOUS
10
6.2824803149606296
20
-3.9114173228346454
11
6.282555236220472
21
-3.9110406692913386
0
LINE
8
BLACK
6
CONTINUOUS
10
6.282555236220472
20
-3.9110406692913386
11
6.2830879133858266
21
-3.910507992125984
0
LINE
8
BLACK
6
CONTINUOUS
10
6.2830879133858266
20
-3.910507992125984
11
6.2834645669291334
21
-3.9104330708661417
0
LINE
8
BLACK
6
CONTINUOUS
10
6.2834645669291334
20
-3.9104330708661417
11
6.4409448818897639
21
-3.9104330708661417
0
LINE
8
BLACK
6
CONTINUOUS
10
6.4409448818897639
20
-3.9104330708661417
11
6.4413215354330706
21
-3.910507992125984
0
LINE
8
BLACK
6
CONTINUOUS
10
6.284448818897638
20
-3.9124015748031495
11
6.284448818897638
21
-3.9852362204724407
0
LINE
8
BLACK
6
CONTINUOUS
10
6.284448818897638
20
-3.9852362204724407
11
6.4399606299212593
21
-3.9852362204724407
0
LINE
8
BLACK
6
CONTINUOUS
10
6.4399606299212593
20
-3.9852362204724407
11
6.4399606299212593
21
-3.9124015748031495
0
LINE
8
BLACK
6
CONTINUOUS
10
6.4399606299212593
20
-3.9124015748031495
11
6.284448818897638
21
-3.9124015748031495
0
LINE
8
BLACK
6
CONTINUOUS
10
6.5197073622047244
20
-3.4014528740157481
11
6.520240039370079
21
-3.4019855511811024
0
LINE
8
BLACK
6
CONTINUOUS
10
6.520240039370079
20
-3.4019855511811024
11
6.5203149606299213
21
-3.4023622047244095
0
LINE
8
BLACK
6
CONTINUOUS
10
6.5203149606299213
20
-3.4023622047244095
11
6.5203149606299213
21
-3.8732283464566928
0
LINE
8
BLACK
6
CONTINUOUS
10
6.5203149606299213
20
-3.8732283464566928
11
6.520240039370079
21
-3.873605
0
LINE
8
BLACK
6
CONTINUOUS
10
6.520240039370079
20
-3.873605
11
6.5197073622047244
21
-3.8741376771653542
0
LINE
8
BLACK
6
CONTINUOUS
10
6.5197073622047244
20
-3.8741376771653542
11
6.5193307086614176
21
-3.8742125984251969
0
LINE
8
BLACK
6
CONTINUOUS
10
6.5193307086614176
20
-3.8742125984251969
11
6.2673622047244093
21
-3.8742125984251969
0
LINE
8
BLACK
6
CONTINUOUS
10
6.2673622047244093
20
-3.8742125984251969
11
6.2669855511811026
21
-3.8741376771653542
0
LINE
8
BLACK
6
CONTINUOUS
10
6.2669855511811026
20
-3.8741376771653542
11
6.2664528740157479
21
-3.873605
0
LINE
8
BLACK
6
CONTINUOUS
10
6.2664528740157479
20
-3.873605
11
6.2663779527559056
21
-3.8732283464566928
0
LINE
8
BLACK
6
CONTINUOUS
10
6.2663779527559056
20
-3.8732283464566928
11
6.2663779527559056
21
-3.4023622047244095
0
LINE
8
BLACK
6
CONTINUOUS
10
6.2663779527559056
20
-3.4023622047244095
11
6.2664528740157479
21
-3.4019855511811024
0
LINE
8
BLACK
6
CONTINUOUS
10
6.2664528740157479
20
-3.4019855511811024
11
6.2669855511811026
21
-3.4014528740157481
0
LINE
8
BLACK
6
CONTINUOUS
10
6.2669855511811026
20
-3.4014528740157481
11
6.2673622047244093
21
-3.4013779527559054
0
LINE
8
BLACK
6
CONTINUOUS
10
6.2673622047244093
20
-3.4013779527559054
11
6.5193307086614176
21
-3.4013779527559054
0
LINE
8
BLACK
6
CONTINUOUS
10
6.5193307086614176
20
-3.4013779527559054
11
6.5197073622047244
21
-3.4014528740157481
0
LINE
8
BLACK
6
CONTINUOUS
10
6.268346456692913
20
-3.4033464566929132
11
6.268346456692913
21
-3.8722440944881891
0
LINE
8
BLACK
6
CONTINUOUS
10
6.268346456692913
20
-3.8722440944881891
11
6.518346456692913
21
-3.8722440944881891
0
LINE
8
BLACK
6
CONTINUOUS
10
6.518346456692913
20
-3.8722440944881891
11
6.518346456692913
21
-3.4033464566929132
0
LINE
8
BLACK
6
CONTINUOUS
10
6.518346456692913
20
-3.4033464566929132
11
6.268346456692913
21
-3.4033464566929132
0
LINE
8
BLACK
6
CONTINUOUS
10
6.1826601181102356
20
-3.7390512992125982
11
6.1831927952755903
21
-3.7395839763779528
0
LINE
8
BLACK
6
CONTINUOUS
10
6.1831927952755903
20
-3.7395839763779528
11
6.1832677165354326
21
-3.7399606299212595
0
LINE
8
BLACK
6
CONTINUOUS
10
6.1832677165354326
20
-3.7399606299212595
11
6.1832677165354326
21
-3.8564960629921261
0
LINE
8
BLACK
6
CONTINUOUS
10
6.1832677165354326
20
-3.8564960629921261
11
6.1831927952755903
21
-3.8568727165354328
0
LINE
8
BLACK
6
CONTINUOUS
10
6.1831927952755903
20
-3.8568727165354328
11
6.1826601181102356
21
-3.8574053937007875
0
LINE
8
BLACK
6
CONTINUOUS
10
6.1826601181102356
20
-3.8574053937007875
11
6.1822834645669289
21
-3.8574803149606298
0
LINE
8
BLACK
6
CONTINUOUS
10
6.1822834645669289
20
-3.8574803149606298
11
6.1248031496062989
21
-3.8574803149606298
0
LINE
8
BLACK
6
CONTINUOUS
10
6.1248031496062989
20
-3.8574803149606298
11
6.1244264960629922
21
-3.8574053937007875
0
LINE
8
BLACK
6
CONTINUOUS
10
6.1244264960629922
20
-3.8574053937007875
11
6.1238938188976375
21
-3.8568727165354328
0
LINE
8
BLACK
6
CONTINUOUS
10
6.1238938188976375
20
-3.8568727165354328
11
6.1238188976377952
21
-3.8564960629921261
0
LINE
8
BLACK
6
CONTINUOUS
10
6.1238188976377952
20
-3.8564960629921261
11
6.1238188976377952
21
-3.7399606299212595
0
LINE
8
BLACK
6
CONTINUOUS
10
6.1238188976377952
20
-3.7399606299212595
11
6.1238938188976375
21
-3.7395839763779528
0
LINE
8
BLACK
6
CONTINUOUS
10
6.1238938188976375
20
-3.7395839763779528
11
6.1244264960629922
21
-3.7390512992125982
0
LINE
8
BLACK
6
CONTINUOUS
10
6.1244264960629922
20
-3.7390512992125982
11
6.1248031496062989
21
-3.7389763779527558
0
LINE
8
BLACK
6
CONTINUOUS
10
6.1248031496062989
20
-3.7389763779527558
11
6.1822834645669289
21
-3.7389763779527558
0
LINE
8
BLACK
6
CONTINUOUS
10
6.1822834645669289
20
-3.7389763779527558
11
6.1826601181102356
21
-3.7390512992125982
0
LINE
8
BLACK
6
CONTINUOUS
10
6.1257874015748026
20
-3.7409448818897637
11
6.1257874015748026
21
-3.8555118110236219
0
LINE
8
BLACK
6
CONTINUOUS
10
6.1257874015748026
20
-3.8555118110236219
11
6.1812992125984252
21
-3.8555118110236219
0
LINE
8
BLACK
6
CONTINUOUS
10
6.1812992125984252
20
-3.8555118110236219
11
6.1812992125984252
21
-3.7409448818897637
0
LINE
8
BLACK
6
CONTINUOUS
10
6.1812992125984252
20
-3.7409448818897637
11
6.1257874015748026
21
-3.7409448818897637
0
LINE
8
BLACK
6
CONTINUOUS
10
5.9936837401574801
20
-3.7331457874015745
11
5.9942164173228347
21
-3.7336784645669292
0
LINE
8
BLACK
6
CONTINUOUS
10
5.9942164173228347
20
-3.7336784645669292
11
5.994291338582677
21
-3.7340551181102359
0
LINE
8
BLACK
6
CONTINUOUS
10
5.994291338582677
20
-3.7340551181102359
11
5.994291338582677
21
-3.8505905511811025
0
LINE
8
BLACK
6
CONTINUOUS
10
5.994291338582677
20
-3.8505905511811025
11
5.9942164173228347
21
-3.8509672047244092
0
LINE
8
BLACK
6
CONTINUOUS
10
5.9942164173228347
20
-3.8509672047244092
11
5.9936837401574801
21
-3.8514998818897639
0
LINE
8
BLACK
6
CONTINUOUS
10
5.9936837401574801
20
-3.8514998818897639
11
5.9933070866141733
21
-3.8515748031496062
0
LINE
8
BLACK
6
CONTINUOUS
10
5.9933070866141733
20
-3.8515748031496062
11
5.9358267716535433
21
-3.8515748031496062
0
LINE
8
BLACK
6
CONTINUOUS
10
5.9358267716535433
20
-3.8515748031496062
11
5.9354501181102357
21
-3.8514998818897639
0
LINE
8
BLACK
6
CONTINUOUS
10
5.9354501181102357
20
-3.8514998818897639
11
5.9349174409448819
21
-3.8509672047244092
0
LINE
8
BLACK
6
CONTINUOUS
10
5.9349174409448819
20
-3.8509672047244092
11
5.9348425196850396
21
-3.8505905511811025
0
LINE
8
BLACK
6
CONTINUOUS
10
5.9348425196850396
20
-3.8505905511811025
11
5.9348425196850396
21
-3.7340551181102359
0
LINE
8
BLACK
6
CONTINUOUS
10
5.9348425196850396
20
-3.7340551181102359
11
5.9349174409448819
21
-3.7336784645669292
0
LINE
8
BLACK
6
CONTINUOUS
10
5.9349174409448819
20
-3.7336784645669292
11
5.9354501181102357
21
-3.7331457874015745
0
LINE
8
BLACK
6
CONTINUOUS
10
5.9354501181102357
20
-3.7331457874015745
11
5.9358267716535433
21
-3.7330708661417322
0
LINE
8
BLACK
6
CONTINUOUS
10
5.9358267716535433
20
-3.7330708661417322
11
5.9933070866141733
21
-3.7330708661417322
0
LINE
8
BLACK
6
CONTINUOUS
10
5.9933070866141733
20
-3.7330708661417322
11
5.9936837401574801
21
-3.7331457874015745
0
LINE
8
BLACK
6
CONTINUOUS
10
5.936811023622047
20
-3.7350393700787401
11
5.936811023622047
21
-3.8496062992125983
0
LINE
8
BLACK
6
CONTINUOUS
10
5.936811023622047
20
-3.8496062992125983
11
5.9923228346456687
21
-3.8496062992125983
0
LINE
8
BLACK
6
CONTINUOUS
10
5.9923228346456687
20
-3.8496062992125983
11
5.9923228346456687
21
-3.7350393700787401
0
LINE
8
BLACK
6
CONTINUOUS
10
5.9923228346456687
20
-3.7350393700787401
11
5.936811023622047
21
-3.7350393700787401
0
LINE
8
BLACK
6
CONTINUOUS
10
6.0645498818897634
20
-3.7331457874015745
11
6.0650825590551181
21
-3.7336784645669292
0
LINE
8
BLACK
6
CONTINUOUS
10
6.0650825590551181
20
-3.7336784645669292
11
6.0651574803149604
21
-3.7340551181102359
0
LINE
8
BLACK
6
CONTINUOUS
10
6.0651574803149604
20
-3.7340551181102359
11
6.0651574803149604
21
-3.8505905511811025
0
LINE
8
BLACK
6
CONTINUOUS
10
6.0651574803149604
20
-3.8505905511811025
11
6.0650825590551181
21
-3.8509672047244092
0
LINE
8
BLACK
6
CONTINUOUS
10
6.0650825590551181
20
-3.8509672047244092
11
6.0645498818897634
21
-3.8514998818897639
0
LINE
8
BLACK
6
CONTINUOUS
10
6.0645498818897634
20
-3.8514998818897639
11
6.0641732283464567
21
-3.8515748031496062
0
LINE
8
BLACK
6
CONTINUOUS
10
6.0641732283464567
20
-3.8515748031496062
11
6.0066929133858267
21
-3.8515748031496062
0
LINE
8
BLACK
6
CONTINUOUS
10
6.0066929133858267
20
-3.8515748031496062
11
6.0063162598425199
21
-3.8514998818897639
0
LINE
8
BLACK
6
CONTINUOUS
10
6.0063162598425199
20
-3.8514998818897639
11
6.0057835826771653
21
-3.8509672047244092
0
LINE
8
BLACK
6
CONTINUOUS
10
6.0057835826771653
20
-3.8509672047244092
11
6.005708661417323
21
-3.8505905511811025
0
LINE
8
BLACK
6
CONTINUOUS
10
6.005708661417323
20
-3.8505905511811025
11
6.005708661417323
21
-3.7340551181102359
0
LINE
8
BLACK
6
CONTINUOUS
10
6.005708661417323
20
-3.7340551181102359
11
6.0057835826771653
21
-3.7336784645669292
0
LINE
8
BLACK
6
CONTINUOUS
10
6.0057835826771653
20
-3.7336784645669292
11
6.0063162598425199
21
-3.7331457874015745
0
LINE
8
BLACK
6
CONTINUOUS
10
6.0063162598425199
20
-3.7331457874015745
11
6.0066929133858267
21
-3.7330708661417322
0
LINE
8
BLACK
6
CONTINUOUS
10
6.0066929133858267
20
-3.7330708661417322
11
6.0641732283464567
21
-3.7330708661417322
0
LINE
8
BLACK
6
CONTINUOUS
10
6.0641732283464567
20
-3.7330708661417322
11
6.0645498818897634
21
-3.7331457874015745
0
LINE
8
BLACK
6
CONTINUOUS
10
6.0076771653543304
20
-3.7350393700787401
11
6.0076771653543304
21
-3.8496062992125983
0
LINE
8
BLACK
6
CONTINUOUS
10
6.0076771653543304
20
-3.8496062992125983
11
6.063188976377953
21
-3.8496062992125983
0
LINE
8
BLACK
6
CONTINUOUS
10
6.063188976377953
20
-3.8496062992125983
11
6.063188976377953
21
-3.7350393700787401
0
LINE
8
BLACK
6
CONTINUOUS
10
6.063188976377953
20
-3.7350393700787401
11
6.0076771653543304
21
-3.7350393700787401
0
LINE
8
BLACK
6
CONTINUOUS
10
6.0269908267716534
20
-3.6632638976377954
11
6.0275235039370081
21
-3.6637965748031496
0
LINE
8
BLACK
6
CONTINUOUS
10
6.0275235039370081
20
-3.6637965748031496
11
6.0275984251968504
21
-3.6641732283464568
0
LINE
8
BLACK
6
CONTINUOUS
10
6.0275984251968504
20
-3.6641732283464568
11
6.0275984251968504
21
-3.7216535433070863
0
LINE
8
BLACK
6
CONTINUOUS
10
6.0275984251968504
20
-3.7216535433070863
11
6.0275235039370081
21
-3.7220301968503935
0
LINE
8
BLACK
6
CONTINUOUS
10
6.0275235039370081
20
-3.7220301968503935
11
6.0269908267716534
21
-3.7225628740157481
0
LINE
8
BLACK
6
CONTINUOUS
10
6.0269908267716534
20
-3.7225628740157481
11
6.0266141732283467
21
-3.7226377952755905
0
LINE
8
BLACK
6
CONTINUOUS
10
6.0266141732283467
20
-3.7226377952755905
11
5.9100787401574806
21
-3.7226377952755905
0
LINE
8
BLACK
6
CONTINUOUS
10
5.9100787401574806
20
-3.7226377952755905
11
5.909702086614173
21
-3.7225628740157481
0
LINE
8
BLACK
6
CONTINUOUS
10
5.909702086614173
20
-3.7225628740157481
11
5.9091694094488192
21
-3.7220301968503935
0
LINE
8
BLACK
6
CONTINUOUS
10
5.9091694094488192
20
-3.7220301968503935
11
5.909094488188976
21
-3.7216535433070863
0
LINE
8
BLACK
6
CONTINUOUS
10
5.909094488188976
20
-3.7216535433070863
11
5.909094488188976
21
-3.6641732283464568
0
LINE
8
BLACK
6
CONTINUOUS
10
5.909094488188976
20
-3.6641732283464568
11
5.9091694094488192
21
-3.6637965748031496
0
LINE
8
BLACK
6
CONTINUOUS
10
5.9091694094488192
20
-3.6637965748031496
11
5.909702086614173
21
-3.6632638976377954
0
LINE
8
BLACK
6
CONTINUOUS
10
5.909702086614173
20
-3.6632638976377954
11
5.9100787401574806
21
-3.6631889763779526
0
LINE
8
BLACK
6
CONTINUOUS
10
5.9100787401574806
20
-3.6631889763779526
11
6.0266141732283467
21
-3.6631889763779526
0
LINE
8
BLACK
6
CONTINUOUS
10
6.0266141732283467
20
-3.6631889763779526
11
6.0269908267716534
21
-3.6632638976377954
0
LINE
8
BLACK
6
CONTINUOUS
10
5.9110629921259843
20
-3.6651574803149605
11
5.9110629921259843
21
-3.7206692913385826
0
LINE
8
BLACK
6
CONTINUOUS
10
5.9110629921259843
20
-3.7206692913385826
11
6.0256299212598421
21
-3.7206692913385826
0
LINE
8
BLACK
6
CONTINUOUS
10
6.0256299212598421
20
-3.7206692913385826
11
6.0256299212598421
21
-3.6651574803149605
0
LINE
8
BLACK
6
CONTINUOUS
10
6.0256299212598421
20
-3.6651574803149605
11
5.9110629921259843
21
-3.6651574803149605
0
LINE
8
BLACK
6
CONTINUOUS
10
5.7274632677165354
20
-3.5783820078740156
11
5.72799594488189
21
-3.5789146850393698
0
LINE
8
BLACK
6
CONTINUOUS
10
5.72799594488189
20
-3.5789146850393698
11
5.7280708661417323
21
-3.579291338582677
0
LINE
8
BLACK
6
CONTINUOUS
10
5.7280708661417323
20
-3.579291338582677
11
5.7280708661417323
21
-3.6958267716535431
0
LINE
8
BLACK
6
CONTINUOUS
10
5.7280708661417323
20
-3.6958267716535431
11
5.72799594488189
21
-3.6962034251968503
0
LINE
8
BLACK
6
CONTINUOUS
10
5.72799594488189
20
-3.6962034251968503
11
5.7274632677165354
21
-3.6967361023622045
0
LINE
8
BLACK
6
CONTINUOUS
10
5.7274632677165354
20
-3.6967361023622045
11
5.7270866141732286
21
-3.6968110236220473
0
LINE
8
BLACK
6
CONTINUOUS
10
5.7270866141732286
20
-3.6968110236220473
11
5.6696062992125986
21
-3.6968110236220473
0
LINE
8
BLACK
6
CONTINUOUS
10
5.6696062992125986
20
-3.6968110236220473
11
5.669229645669291
21
-3.6967361023622045
0
LINE
8
BLACK
6
CONTINUOUS
10
5.669229645669291
20
-3.6967361023622045
11
5.6686969685039372
21
-3.6962034251968503
0
LINE
8
BLACK
6
CONTINUOUS
10
5.6686969685039372
20
-3.6962034251968503
11
5.668622047244094
21
-3.6958267716535431
0
LINE
8
BLACK
6
CONTINUOUS
10
5.668622047244094
20
-3.6958267716535431
11
5.668622047244094
21
-3.579291338582677
0
LINE
8
BLACK
6
CONTINUOUS
10
5.668622047244094
20
-3.579291338582677
11
5.6686969685039372
21
-3.5789146850393698
0
LINE
8
BLACK
6
CONTINUOUS
10
5.6686969685039372
20
-3.5789146850393698
11
5.669229645669291
21
-3.5783820078740156
0
LINE
8
BLACK
6
CONTINUOUS
10
5.669229645669291
20
-3.5783820078740156
11
5.6696062992125986
21
-3.5783070866141733
0
LINE
8
BLACK
6
CONTINUOUS
10
5.6696062992125986
20
-3.5783070866141733
11
5.7270866141732286
21
-3.5783070866141733
0
LINE
8
BLACK
6
CONTINUOUS
10
5.7270866141732286
20
-3.5783070866141733
11
5.7274632677165354
21
-3.5783820078740156
0
LINE
8
BLACK
6
CONTINUOUS
10
5.6705905511811023
20
-3.5802755905511812
11
5.6705905511811023
21
-3.6948425196850394
0
LINE
8
BLACK
6
CONTINUOUS
10
5.6705905511811023
20
-3.6948425196850394
11
5.726102362204724
21
-3.6948425196850394
0
LINE
8
BLACK
6
CONTINUOUS
10
5.726102362204724
20
-3.6948425196850394
11
5.726102362204724
21
-3.5802755905511812
0
LINE
8
BLACK
6
CONTINUOUS
10
5.726102362204724
20
-3.5802755905511812
11
5.6705905511811023
21
-3.5802755905511812
0
LINE
8
BLACK
6
CONTINUOUS
10
5.5324632677165351
20
-3.5783426377952754
11
5.5329959448818897
21
-3.57887531496063
0
LINE
8
BLACK
6
CONTINUOUS
10
5.5329959448818897
20
-3.57887531496063
11
5.533070866141732
21
-3.5792519685039368
0
LINE
8
BLACK
6
CONTINUOUS
10
5.533070866141732
20
-3.5792519685039368
11
5.533070866141732
21
-3.6957874015748029
0
LINE
8
BLACK
6
CONTINUOUS
10
5.533070866141732
20
-3.6957874015748029
11
5.5329959448818897
21
-3.6961640551181101
0
LINE
8
BLACK
6
CONTINUOUS
10
5.5329959448818897
20
-3.6961640551181101
11
5.5324632677165351
21
-3.6966967322834643
0
LINE
8
BLACK
6
CONTINUOUS
10
5.5324632677165351
20
-3.6966967322834643
11
5.5320866141732283
21
-3.6967716535433071
0
LINE
8
BLACK
6
CONTINUOUS
10
5.5320866141732283
20
-3.6967716535433071
11
5.4746062992125983
21
-3.6967716535433071
0
LINE
8
BLACK
6
CONTINUOUS
10
5.4746062992125983
20
-3.6967716535433071
11
5.4742296456692916
21
-3.6966967322834643
0
LINE
8
BLACK
6
CONTINUOUS
10
5.4742296456692916
20
-3.6966967322834643
11
5.4736969685039369
21
-3.6961640551181101
0
LINE
8
BLACK
6
CONTINUOUS
10
5.4736969685039369
20
-3.6961640551181101
11
5.4736220472440946
21
-3.6957874015748029
0
LINE
8
BLACK
6
CONTINUOUS
10
5.4736220472440946
20
-3.6957874015748029
11
5.4736220472440946
21
-3.5792519685039368
0
LINE
8
BLACK
6
CONTINUOUS
10
5.4736220472440946
20
-3.5792519685039368
11
5.4736969685039369
21
-3.57887531496063
0
LINE
8
BLACK
6
CONTINUOUS
10
5.4736969685039369
20
-3.57887531496063
11
5.4742296456692916
21
-3.5783426377952754
0
LINE
8
BLACK
6
CONTINUOUS
10
5.4742296456692916
20
-3.5783426377952754
11
5.4746062992125983
21
-3.5782677165354331
0
LINE
8
BLACK
6
CONTINUOUS
10
5.4746062992125983
20
-3.5782677165354331
11
5.5320866141732283
21
-3.5782677165354331
0
LINE
8
BLACK
6
CONTINUOUS
10
5.5320866141732283
20
-3.5782677165354331
11
5.5324632677165351
21
-3.5783426377952754
0
LINE
8
BLACK
6
CONTINUOUS
10
5.4755905511811021
20
-3.5802362204724409
11
5.4755905511811021
21
-3.6948031496062992
0
LINE
8
BLACK
6
CONTINUOUS
10
5.4755905511811021
20
-3.6948031496062992
11
5.5311023622047246
21
-3.6948031496062992
0
LINE
8
BLACK
6
CONTINUOUS
10
5.5311023622047246
20
-3.6948031496062992
11
5.5311023622047246
21
-3.5802362204724409
0
LINE
8
BLACK
6
CONTINUOUS
10
5.5311023622047246
20
-3.5802362204724409
11
5.4755905511811021
21
-3.5802362204724409
0
LINE
8
BLACK
6
CONTINUOUS
10
5.617463267716535
20
-3.5783426377952754
11
5.6179959448818897
21
-3.57887531496063
0
LINE
8
BLACK
6
CONTINUOUS
10
5.6179959448818897
20
-3.57887531496063
11
5.618070866141732
21
-3.5792519685039368
0
LINE
8
BLACK
6
CONTINUOUS
10
5.618070866141732
20
-3.5792519685039368
11
5.618070866141732
21
-3.6957874015748029
0
LINE
8
BLACK
6
CONTINUOUS
10
5.618070866141732
20
-3.6957874015748029
11
5.6179959448818897
21
-3.6961640551181101
0
LINE
8
BLACK
6
CONTINUOUS
10
5.6179959448818897
20
-3.6961640551181101
11
5.617463267716535
21
-3.6966967322834643
0
LINE
8
BLACK
6
CONTINUOUS
10
5.617463267716535
20
-3.6966967322834643
11
5.6170866141732283
21
-3.6967716535433071
0
LINE
8
BLACK
6
CONTINUOUS
10
5.6170866141732283
20
-3.6967716535433071
11
5.5596062992125983
21
-3.6967716535433071
0
LINE
8
BLACK
6
CONTINUOUS
10
5.5596062992125983
20
-3.6967716535433071
11
5.5592296456692916
21
-3.6966967322834643
0
LINE
8
BLACK
6
CONTINUOUS
10
5.5592296456692916
20
-3.6966967322834643
11
5.5586969685039369
21
-3.6961640551181101
0
LINE
8
BLACK
6
CONTINUOUS
10
5.5586969685039369
20
-3.6961640551181101
11
5.5586220472440946
21
-3.6957874015748029
0
LINE
8
BLACK
6
CONTINUOUS
10
5.5586220472440946
20
-3.6957874015748029
11
5.5586220472440946
21
-3.5792519685039368
0
LINE
8
BLACK
6
CONTINUOUS
10
5.5586220472440946
20
-3.5792519685039368
11
5.5586969685039369
21
-3.57887531496063
0
LINE
8
BLACK
6
CONTINUOUS
10
5.5586969685039369
20
-3.57887531496063
11
5.5592296456692916
21
-3.5783426377952754
0
LINE
8
BLACK
6
CONTINUOUS
10
5.5592296456692916
20
-3.5783426377952754
11
5.5596062992125983
21
-3.5782677165354331
0
LINE
8
BLACK
6
CONTINUOUS
10
5.5596062992125983
20
-3.5782677165354331
11
5.6170866141732283
21
-3.5782677165354331
0
LINE
8
BLACK
6
CONTINUOUS
10
5.6170866141732283
20
-3.5782677165354331
11
5.617463267716535
21
-3.5783426377952754
0
LINE
8
BLACK
6
CONTINUOUS
10
5.560590551181102
20
-3.5802362204724409
11
5.560590551181102
21
-3.6948031496062992
0
LINE
8
BLACK
6
CONTINUOUS
10
5.560590551181102
20
-3.6948031496062992
11
5.6161023622047246
21
-3.6948031496062992
0
LINE
8
BLACK
6
CONTINUOUS
10
5.6161023622047246
20
-3.6948031496062992
11
5.6161023622047246
21
-3.5802362204724409
0
LINE
8
BLACK
6
CONTINUOUS
10
5.6161023622047246
20
-3.5802362204724409
11
5.560590551181102
21
-3.5802362204724409
0
LINE
8
BLACK
6
CONTINUOUS
10
5.8324632677165349
20
-3.5783426377952754
11
5.8329959448818895
21
-3.57887531496063
0
LINE
8
BLACK
6
CONTINUOUS
10
5.8329959448818895
20
-3.57887531496063
11
5.8330708661417319
21
-3.5792519685039368
0
LINE
8
BLACK
6
CONTINUOUS
10
5.8330708661417319
20
-3.5792519685039368
11
5.8330708661417319
21
-3.6957874015748029
0
LINE
8
BLACK
6
CONTINUOUS
10
5.8330708661417319
20
-3.6957874015748029
11
5.8329959448818895
21
-3.6961640551181101
0
LINE
8
BLACK
6
CONTINUOUS
10
5.8329959448818895
20
-3.6961640551181101
11
5.8324632677165349
21
-3.6966967322834643
0
LINE
8
BLACK
6
CONTINUOUS
10
5.8324632677165349
20
-3.6966967322834643
11
5.8320866141732282
21
-3.6967716535433071
0
LINE
8
BLACK
6
CONTINUOUS
10
5.8320866141732282
20
-3.6967716535433071
11
5.7746062992125982
21
-3.6967716535433071
0
LINE
8
BLACK
6
CONTINUOUS
10
5.7746062992125982
20
-3.6967716535433071
11
5.7742296456692914
21
-3.6966967322834643
0
LINE
8
BLACK
6
CONTINUOUS
10
5.7742296456692914
20
-3.6966967322834643
11
5.7736969685039368
21
-3.6961640551181101
0
LINE
8
BLACK
6
CONTINUOUS
10
5.7736969685039368
20
-3.6961640551181101
11
5.7736220472440944
21
-3.6957874015748029
0
LINE
8
BLACK
6
CONTINUOUS
10
5.7736220472440944
20
-3.6957874015748029
11
5.7736220472440944
21
-3.5792519685039368
0
LINE
8
BLACK
6
CONTINUOUS
10
5.7736220472440944
20
-3.5792519685039368
11
5.7736969685039368
21
-3.57887531496063
0
LINE
8
BLACK
6
CONTINUOUS
10
5.7736969685039368
20
-3.57887531496063
11
5.7742296456692914
21
-3.5783426377952754
0
LINE
8
BLACK
6
CONTINUOUS
10
5.7742296456692914
20
-3.5783426377952754
11
5.7746062992125982
21
-3.5782677165354331
0
LINE
8
BLACK
6
CONTINUOUS
10
5.7746062992125982
20
-3.5782677165354331
11
5.8320866141732282
21
-3.5782677165354331
0
LINE
8
BLACK
6
CONTINUOUS
10
5.8320866141732282
20
-3.5782677165354331
11
5.8324632677165349
21
-3.5783426377952754
0
LINE
8
BLACK
6
CONTINUOUS
10
5.7755905511811019
20
-3.5802362204724409
11
5.7755905511811019
21
-3.6948031496062992
0
LINE
8
BLACK
6
CONTINUOUS
10
5.7755905511811019
20
-3.6948031496062992
11
5.8311023622047244
21
-3.6948031496062992
0
LINE
8
BLACK
6
CONTINUOUS
10
5.8311023622047244
20
-3.6948031496062992
11
5.8311023622047244
21
-3.5802362204724409
0
LINE
8
BLACK
6
CONTINUOUS
10
5.8311023622047244
20
-3.5802362204724409
11
5.7755905511811019
21
-3.5802362204724409
0
LINE
8
BLACK
6
CONTINUOUS
10
6.0269908267716534
20
-3.6003898818897637
11
6.0275235039370081
21
-3.6009225590551179
0
LINE
8
BLACK
6
CONTINUOUS
10
6.0275235039370081
20
-3.6009225590551179
11
6.0275984251968504
21
-3.6012992125984251
0
LINE
8
BLACK
6
CONTINUOUS
10
6.0275984251968504
20
-3.6012992125984251
11
6.0275984251968504
21
-3.6587795275590551
0
LINE
8
BLACK
6
CONTINUOUS
10
6.0275984251968504
20
-3.6587795275590551
11
6.0275235039370081
21
-3.6591561811023623
0
LINE
8
BLACK
6
CONTINUOUS
10
6.0275235039370081
20
-3.6591561811023623
11
6.0269908267716534
21
-3.6596888582677165
0
LINE
8
BLACK
6
CONTINUOUS
10
6.0269908267716534
20
-3.6596888582677165
11
6.0266141732283467
21
-3.6597637795275588
0
LINE
8
BLACK
6
CONTINUOUS
10
6.0266141732283467
20
-3.6597637795275588
11
5.9100787401574806
21
-3.6597637795275588
0
LINE
8
BLACK
6
CONTINUOUS
10
5.9100787401574806
20
-3.6597637795275588
11
5.909702086614173
21
-3.6596888582677165
0
LINE
8
BLACK
6
CONTINUOUS
10
5.909702086614173
20
-3.6596888582677165
11
5.9091694094488192
21
-3.6591561811023623
0
LINE
8
BLACK
6
CONTINUOUS
10
5.9091694094488192
20
-3.6591561811023623
11
5.909094488188976
21
-3.6587795275590551
0
LINE
8
BLACK
6
CONTINUOUS
10
5.909094488188976
20
-3.6587795275590551
11
5.909094488188976
21
-3.6012992125984251
0
LINE
8
BLACK
6
CONTINUOUS
10
5.909094488188976
20
-3.6012992125984251
11
5.9091694094488192
21
-3.6009225590551179
0
LINE
8
BLACK
6
CONTINUOUS
10
5.9091694094488192
20
-3.6009225590551179
11
5.909702086614173
21
-3.6003898818897637
0
LINE
8
BLACK
6
CONTINUOUS
10
5.909702086614173
20
-3.6003898818897637
11
5.9100787401574806
21
-3.600314960629921
0
LINE
8
BLACK
6
CONTINUOUS
10
5.9100787401574806
20
-3.600314960629921
11
6.0266141732283467
21
-3.600314960629921
0
LINE
8
BLACK
6
CONTINUOUS
10
6.0266141732283467
20
-3.600314960629921
11
6.0269908267716534
21
-3.6003898818897637
0
LINE
8
BLACK
6
CONTINUOUS
10
5.9110629921259843
20
-3.6022834645669293
11
5.9110629921259843
21
-3.657795275590551
0
LINE
8
BLACK
6
CONTINUOUS
10
5.9110629921259843
20
-3.657795275590551
11
6.0256299212598421
21
-3.657795275590551
0
LINE
8
BLACK
6
CONTINUOUS
10
6.0256299212598421
20
-3.657795275590551
11
6.0256299212598421
21
-3.6022834645669293
0
LINE
8
BLACK
6
CONTINUOUS
10
6.0256299212598421
20
-3.6022834645669293
11
5.9110629921259843
21
-3.6022834645669293
0
LINE
8
BLACK
6
CONTINUOUS
10
6.1545264173228347
20
-3.5771012204724411
11
6.1600524409448818
21
-3.5793901968503938
0
LINE
8
BLACK
6
CONTINUOUS
10
6.1600524409448818
20
-3.5793901968503938
11
6.165025787401575
21
-3.5827132677165352
0
LINE
8
BLACK
6
CONTINUOUS
10
6.165025787401575
20
-3.5827132677165352
11
6.1692552362204722
21
-3.5869427165354328
0
LINE
8
BLACK
6
CONTINUOUS
10
6.1692552362204722
20
-3.5869427165354328
11
6.1725783070866136
21
-3.5919160629921261
0
LINE
8
BLACK
6
CONTINUOUS
10
6.1725783070866136
20
-3.5919160629921261
11
6.1748672834645664
21
-3.5974420866141732
0
LINE
8
BLACK
6
CONTINUOUS
10
6.1748672834645664
20
-3.5974420866141732
11
6.1760341732283459
21
-3.6033085433070866
0
LINE
8
BLACK
6
CONTINUOUS
10
6.1760341732283459
20
-3.6033085433070866
11
6.1760341732283459
21
-3.6092898818897639
0
LINE
8
BLACK
6
CONTINUOUS
10
6.1760341732283459
20
-3.6092898818897639
11
6.1748672834645664
21
-3.6151563385826773
0
LINE
8
BLACK
6
CONTINUOUS
10
6.1748672834645664
20
-3.6151563385826773
11
6.1725783070866136
21
-3.6206823622047244
0
LINE
8
BLACK
6
CONTINUOUS
10
6.1725783070866136
20
-3.6206823622047244
11
6.1692552362204722
21
-3.6256557086614172
0
LINE
8
BLACK
6
CONTINUOUS
10
6.1692552362204722
20
-3.6256557086614172
11
6.165025787401575
21
-3.6298851574803148
0
LINE
8
BLACK
6
CONTINUOUS
10
6.165025787401575
20
-3.6298851574803148
11
6.1600524409448818
21
-3.6332082283464566
0
LINE
8
BLACK
6
CONTINUOUS
10
6.1600524409448818
20
-3.6332082283464566
11
6.1545264173228347
21
-3.6354972047244094
0
LINE
8
BLACK
6
CONTINUOUS
10
6.1545264173228347
20
-3.6354972047244094
11
6.1486599606299208
21
-3.6366640944881889
0
LINE
8
BLACK
6
CONTINUOUS
10
6.1486599606299208
20
-3.6366640944881889
11
6.142678622047244
21
-3.6366640944881889
0
LINE
8
BLACK
6
CONTINUOUS
10
6.142678622047244
20
-3.6366640944881889
11
6.1368121653543302
21
-3.6354972047244094
0
LINE
8
BLACK
6
CONTINUOUS
10
6.1368121653543302
20
-3.6354972047244094
11
6.131286141732283
21
-3.6332082283464566
0
LINE
8
BLACK
6
CONTINUOUS
10
6.131286141732283
20
-3.6332082283464566
11
6.1263127952755907
21
-3.6298851574803148
0
LINE
8
BLACK
6
CONTINUOUS
10
6.1263127952755907
20
-3.6298851574803148
11
6.1220833464566926
21
-3.6256557086614172
0
LINE
8
BLACK
6
CONTINUOUS
10
6.1220833464566926
20
-3.6256557086614172
11
6.1187602755905512
21
-3.6206823622047244
0
LINE
8
BLACK
6
CONTINUOUS
10
6.1187602755905512
20
-3.6206823622047244
11
6.1164712992125985
21
-3.6151563385826773
0
LINE
8
BLACK
6
CONTINUOUS
10
6.1164712992125985
20
-3.6151563385826773
11
6.1153044094488189
21
-3.6092898818897639
0
LINE
8
BLACK
6
CONTINUOUS
10
6.1153044094488189
20
-3.6092898818897639
11
6.1153044094488189
21
-3.6034879527559056
0
LINE
8
BLACK
6
CONTINUOUS
10
6.1153044094488189
20
-3.6034879527559056
11
6.1153044094488189
21
-3.6033085433070866
0
LINE
8
BLACK
6
CONTINUOUS
10
6.1153044094488189
20
-3.6033085433070866
11
6.1164712992125985
21
-3.5974420866141732
0
LINE
8
BLACK
6
CONTINUOUS
10
6.1164712992125985
20
-3.5974420866141732
11
6.1187602755905512
21
-3.5919160629921261
0
LINE
8
BLACK
6
CONTINUOUS
10
6.1187602755905512
20
-3.5919160629921261
11
6.1220833464566926
21
-3.5869427165354328
0
LINE
8
BLACK
6
CONTINUOUS
10
6.1220833464566926
20
-3.5869427165354328
11
6.1263127952755907
21
-3.5827132677165352
0
LINE
8
BLACK
6
CONTINUOUS
10
6.1263127952755907
20
-3.5827132677165352
11
6.131286141732283
21
-3.5793901968503938
0
LINE
8
BLACK
6
CONTINUOUS
10
6.131286141732283
20
-3.5793901968503938
11
6.1368121653543302
21
-3.5771012204724411
0
LINE
8
BLACK
6
CONTINUOUS
10
6.1368121653543302
20
-3.5771012204724411
11
6.142678622047244
21
-3.5759343307086615
0
LINE
8
BLACK
6
CONTINUOUS
10
6.142678622047244
20
-3.5759343307086615
11
6.1486599606299208
21
-3.5759343307086615
0
LINE
8
BLACK
6
CONTINUOUS
10
6.1486599606299208
20
-3.5759343307086615
11
6.1545264173228347
21
-3.5771012204724411
0
LINE
8
BLACK
6
CONTINUOUS
10
6.1171259842519685
20
-3.6091104724409449
11
6.118222874015748
21
-3.6146249999999998
0
LINE
8
BLACK
6
CONTINUOUS
10
6.118222874015748
20
-3.6146249999999998
11
6.1203745275590551
21
-3.6198195275590552
0
LINE
8
BLACK
6
CONTINUOUS
10
6.1203745275590551
20
-3.6198195275590552
11
6.1234982677165357
21
-3.624494527559055
0
LINE
8
BLACK
6
CONTINUOUS
10
6.1234982677165357
20
-3.624494527559055
11
6.1274739763779529
21
-3.6284702362204722
0
LINE
8
BLACK
6
CONTINUOUS
10
6.1274739763779529
20
-3.6284702362204722
11
6.1321489763779526
21
-3.6315939763779528
0
LINE
8
BLACK
6
CONTINUOUS
10
6.1321489763779526
20
-3.6315939763779528
11
6.1373435039370081
21
-3.6337456299212598
0
LINE
8
BLACK
6
CONTINUOUS
10
6.1373435039370081
20
-3.6337456299212598
11
6.142858031496063
21
-3.6348425196850394
0
LINE
8
BLACK
6
CONTINUOUS
10
6.142858031496063
20
-3.6348425196850394
11
6.1484805511811018
21
-3.6348425196850394
0
LINE
8
BLACK
6
CONTINUOUS
10
6.1484805511811018
20
-3.6348425196850394
11
6.1539950787401576
21
-3.6337456299212598
0
LINE
8
BLACK
6
CONTINUOUS
10
6.1539950787401576
20
-3.6337456299212598
11
6.1591896062992122
21
-3.6315939763779528
0
LINE
8
BLACK
6
CONTINUOUS
10
6.1591896062992122
20
-3.6315939763779528
11
6.1638646062992128
21
-3.6284702362204722
0
LINE
8
BLACK
6
CONTINUOUS
10
6.1638646062992128
20
-3.6284702362204722
11
6.16784031496063
21
-3.624494527559055
0
LINE
8
BLACK
6
CONTINUOUS
10
6.16784031496063
20
-3.624494527559055
11
6.1709640551181097
21
-3.6198195275590552
0
LINE
8
BLACK
6
CONTINUOUS
10
6.1709640551181097
20
-3.6198195275590552
11
6.1731157086614168
21
-3.6146249999999998
0
LINE
8
BLACK
6
CONTINUOUS
10
6.1731157086614168
20
-3.6146249999999998
11
6.1742125984251963
21
-3.6091104724409449
0
LINE
8
BLACK
6
CONTINUOUS
10
6.1742125984251963
20
-3.6091104724409449
11
6.1742125984251963
21
-3.6034879527559056
0
LINE
8
BLACK
6
CONTINUOUS
10
6.1742125984251963
20
-3.6034879527559056
11
6.1731157086614168
21
-3.5979734251968503
0
LINE
8
BLACK
6
CONTINUOUS
10
6.1731157086614168
20
-3.5979734251968503
11
6.1709640551181097
21
-3.5927788976377952
0
LINE
8
BLACK
6
CONTINUOUS
10
6.1709640551181097
20
-3.5927788976377952
11
6.16784031496063
21
-3.588103897637795
0
LINE
8
BLACK
6
CONTINUOUS
10
6.16784031496063
20
-3.588103897637795
11
6.1638646062992128
21
-3.5841281889763779
0
LINE
8
BLACK
6
CONTINUOUS
10
6.1638646062992128
20
-3.5841281889763779
11
6.1591896062992122
21
-3.5810044488188977
0
LINE
8
BLACK
6
CONTINUOUS
10
6.1591896062992122
20
-3.5810044488188977
11
6.1539950787401576
21
-3.5788527952755906
0
LINE
8
BLACK
6
CONTINUOUS
10
6.1539950787401576
20
-3.5788527952755906
11
6.1484805511811018
21
-3.5777559055118111
0
LINE
8
BLACK
6
CONTINUOUS
10
6.1484805511811018
20
-3.5777559055118111
11
6.142858031496063
21
-3.5777559055118111
0
LINE
8
BLACK
6
CONTINUOUS
10
6.142858031496063
20
-3.5777559055118111
11
6.1373435039370081
21
-3.5788527952755906
0
LINE
8
BLACK
6
CONTINUOUS
10
6.1373435039370081
20
-3.5788527952755906
11
6.1321489763779526
21
-3.5810044488188977
0
LINE
8
BLACK
6
CONTINUOUS
10
6.1321489763779526
20
-3.5810044488188977
11
6.1274739763779529
21
-3.5841281889763779
0
LINE
8
BLACK
6
CONTINUOUS
10
6.1274739763779529
20
-3.5841281889763779
11
6.1234982677165357
21
-3.588103897637795
0
LINE
8
BLACK
6
CONTINUOUS
10
6.1234982677165357
20
-3.588103897637795
11
6.1203745275590551
21
-3.5927788976377952
0
LINE
8
BLACK
6
CONTINUOUS
10
6.1203745275590551
20
-3.5927788976377952
11
6.118222874015748
21
-3.5979734251968503
0
LINE
8
BLACK
6
CONTINUOUS
10
6.118222874015748
20
-3.5979734251968503
11
6.1171259842519685
21
-3.6034879527559056
0
LINE
8
BLACK
6
CONTINUOUS
10
6.1171259842519685
20
-3.6034879527559056
11
6.1171259842519685
21
-3.6091104724409449
0
LINE
8
BLACK
6
CONTINUOUS
10
6.1831522440944884
20
-3.4853111417322835
11
6.1836849212598421
21
-3.4858438188976377
0
LINE
8
BLACK
6
CONTINUOUS
10
6.1836849212598421
20
-3.4858438188976377
11
6.1837598425196845
21
-3.4862204724409449
0
LINE
8
BLACK
6
CONTINUOUS
10
6.1837598425196845
20
-3.4862204724409449
11
6.1837598425196845
21
-3.561023622047244
0
LINE
8
BLACK
6
CONTINUOUS
10
6.1837598425196845
20
-3.561023622047244
11
6.1836849212598421
21
-3.5614002755905512
0
LINE
8
BLACK
6
CONTINUOUS
10
6.1836849212598421
20
-3.5614002755905512
11
6.1831522440944884
21
-3.5619329527559054
0
LINE
8
BLACK
6
CONTINUOUS
10
6.1831522440944884
20
-3.5619329527559054
11
6.1827755905511808
21
-3.5620078740157481
0
LINE
8
BLACK
6
CONTINUOUS
10
6.1827755905511808
20
-3.5620078740157481
11
6.0504921259842517
21
-3.5620078740157481
0
LINE
8
BLACK
6
CONTINUOUS
10
6.0504921259842517
20
-3.5620078740157481
11
6.0501154724409449
21
-3.5619329527559054
0
LINE
8
BLACK
6
CONTINUOUS
10
6.0501154724409449
20
-3.5619329527559054
11
6.0495827952755903
21
-3.5614002755905512
0
LINE
8
BLACK
6
CONTINUOUS
10
6.0495827952755903
20
-3.5614002755905512
11
6.049507874015748
21
-3.561023622047244
0
LINE
8
BLACK
6
CONTINUOUS
10
6.049507874015748
20
-3.561023622047244
11
6.049507874015748
21
-3.4862204724409449
0
LINE
8
BLACK
6
CONTINUOUS
10
6.049507874015748
20
-3.4862204724409449
11
6.0495827952755903
21
-3.4858438188976377
0
LINE
8
BLACK
6
CONTINUOUS
10
6.0495827952755903
20
-3.4858438188976377
11
6.0501154724409449
21
-3.4853111417322835
0
LINE
8
BLACK
6
CONTINUOUS
10
6.0501154724409449
20
-3.4853111417322835
11
6.0504921259842517
21
-3.4852362204724407
0
LINE
8
BLACK
6
CONTINUOUS
10
6.0504921259842517
20
-3.4852362204724407
11
6.1827755905511808
21
-3.4852362204724407
0
LINE
8
BLACK
6
CONTINUOUS
10
6.1827755905511808
20
-3.4852362204724407
11
6.1831522440944884
21
-3.4853111417322835
0
LINE
8
BLACK
6
CONTINUOUS
10
6.0514763779527554
20
-3.4872047244094486
11
6.0514763779527554
21
-3.5600393700787403
0
LINE
8
BLACK
6
CONTINUOUS
10
6.0514763779527554
20
-3.5600393700787403
11
6.181791338582677
21
-3.5600393700787403
0
LINE
8
BLACK
6
CONTINUOUS
10
6.181791338582677
20
-3.5600393700787403
11
6.181791338582677
21
-3.4872047244094486
0
LINE
8
BLACK
6
CONTINUOUS
10
6.181791338582677
20
-3.4872047244094486
11
6.0514763779527554
21
-3.4872047244094486
0
LINE
8
BLACK
6
CONTINUOUS
10
5.564313661417323
20
-3.4178701968503935
11
5.5648463385826767
21
-3.4184028740157482
0
LINE
8
BLACK
6
CONTINUOUS
10
5.5648463385826767
20
-3.4184028740157482
11
5.56492125984252
21
-3.4187795275590549
0
LINE
8
BLACK
6
CONTINUOUS
10
5.56492125984252
20
-3.4187795275590549
11
5.56492125984252
21
-3.535314960629921
0
LINE
8
BLACK
6
CONTINUOUS
10
5.56492125984252
20
-3.535314960629921
11
5.5648463385826767
21
-3.5356916141732282
0
LINE
8
BLACK
6
CONTINUOUS
10
5.5648463385826767
20
-3.5356916141732282
11
5.564313661417323
21
-3.5362242913385824
0
LINE
8
BLACK
6
CONTINUOUS
10
5.564313661417323
20
-3.5362242913385824
11
5.5639370078740154
21
-3.5362992125984252
0
LINE
8
BLACK
6
CONTINUOUS
10
5.5639370078740154
20
-3.5362992125984252
11
5.5064566929133854
21
-3.5362992125984252
0
LINE
8
BLACK
6
CONTINUOUS
10
5.5064566929133854
20
-3.5362992125984252
11
5.5060800393700786
21
-3.5362242913385824
0
LINE
8
BLACK
6
CONTINUOUS
10
5.5060800393700786
20
-3.5362242913385824
11
5.505547362204724
21
-3.5356916141732282
0
LINE
8
BLACK
6
CONTINUOUS
10
5.505547362204724
20
-3.5356916141732282
11
5.5054724409448816
21
-3.535314960629921
0
LINE
8
BLACK
6
CONTINUOUS
10
5.5054724409448816
20
-3.535314960629921
11
5.5054724409448816
21
-3.4187795275590549
0
LINE
8
BLACK
6
CONTINUOUS
10
5.5054724409448816
20
-3.4187795275590549
11
5.505547362204724
21
-3.4184028740157482
0
LINE
8
BLACK
6
CONTINUOUS
10
5.505547362204724
20
-3.4184028740157482
11
5.5060800393700786
21
-3.4178701968503935
0
LINE
8
BLACK
6
CONTINUOUS
10
5.5060800393700786
20
-3.4178701968503935
11
5.5064566929133854
21
-3.4177952755905512
0
LINE
8
BLACK
6
CONTINUOUS
10
5.5064566929133854
20
-3.4177952755905512
11
5.5639370078740154
21
-3.4177952755905512
0
LINE
8
BLACK
6
CONTINUOUS
10
5.5639370078740154
20
-3.4177952755905512
11
5.564313661417323
21
-3.4178701968503935
0
LINE
8
BLACK
6
CONTINUOUS
10
5.50744094488189
20
-3.4197637795275591
11
5.50744094488189
21
-3.5343307086614173
0
LINE
8
BLACK
6
CONTINUOUS
10
5.50744094488189
20
-3.5343307086614173
11
5.5629527559055116
21
-3.5343307086614173
0
LINE
8
BLACK
6
CONTINUOUS
10
5.5629527559055116
20
-3.5343307086614173
11
5.5629527559055116
21
-3.4197637795275591
0
LINE
8
BLACK
6
CONTINUOUS
10
5.5629527559055116
20
-3.4197637795275591
11
5.50744094488189
21
-3.4197637795275591
0
LINE
8
BLACK
6
CONTINUOUS
10
5.6824238976377952
20
-3.4178701968503935
11
5.6829565748031499
21
-3.4184028740157482
0
LINE
8
BLACK
6
CONTINUOUS
10
5.6829565748031499
20
-3.4184028740157482
11
5.6830314960629922
21
-3.4187795275590549
0
LINE
8
BLACK
6
CONTINUOUS
10
5.6830314960629922
20
-3.4187795275590549
11
5.6830314960629922
21
-3.535314960629921
0
LINE
8
BLACK
6
CONTINUOUS
10
5.6830314960629922
20
-3.535314960629921
11
5.6829565748031499
21
-3.5356916141732282
0
LINE
8
BLACK
6
CONTINUOUS
10
5.6829565748031499
20
-3.5356916141732282
11
5.6824238976377952
21
-3.5362242913385824
0
LINE
8
BLACK
6
CONTINUOUS
10
5.6824238976377952
20
-3.5362242913385824
11
5.6820472440944885
21
-3.5362992125984252
0
LINE
8
BLACK
6
CONTINUOUS
10
5.6820472440944885
20
-3.5362992125984252
11
5.6245669291338585
21
-3.5362992125984252
0
LINE
8
BLACK
6
CONTINUOUS
10
5.6245669291338585
20
-3.5362992125984252
11
5.6241902755905508
21
-3.5362242913385824
0
LINE
8
BLACK
6
CONTINUOUS
10
5.6241902755905508
20
-3.5362242913385824
11
5.6236575984251971
21
-3.5356916141732282
0
LINE
8
BLACK
6
CONTINUOUS
10
5.6236575984251971
20
-3.5356916141732282
11
5.6235826771653539
21
-3.535314960629921
0
LINE
8
BLACK
6
CONTINUOUS
10
5.6235826771653539
20
-3.535314960629921
11
5.6235826771653539
21
-3.4187795275590549
0
LINE
8
BLACK
6
CONTINUOUS
10
5.6235826771653539
20
-3.4187795275590549
11
5.6236575984251971
21
-3.4184028740157482
0
LINE
8
BLACK
6
CONTINUOUS
10
5.6236575984251971
20
-3.4184028740157482
11
5.6241902755905508
21
-3.4178701968503935
0
LINE
8
BLACK
6
CONTINUOUS
10
5.6241902755905508
20
-3.4178701968503935
11
5.6245669291338585
21
-3.4177952755905512
0
LINE
8
BLACK
6
CONTINUOUS
10
5.6245669291338585
20
-3.4177952755905512
11
5.6820472440944885
21
-3.4177952755905512
0
LINE
8
BLACK
6
CONTINUOUS
10
5.6820472440944885
20
-3.4177952755905512
11
5.6824238976377952
21
-3.4178701968503935
0
LINE
8
BLACK
6
CONTINUOUS
10
5.6255511811023622
20
-3.4197637795275591
11
5.6255511811023622
21
-3.5343307086614173
0
LINE
8
BLACK
6
CONTINUOUS
10
5.6255511811023622
20
-3.5343307086614173
11
5.6810629921259839
21
-3.5343307086614173
0
LINE
8
BLACK
6
CONTINUOUS
10
5.6810629921259839
20
-3.5343307086614173
11
5.6810629921259839
21
-3.4197637795275591
0
LINE
8
BLACK
6
CONTINUOUS
10
5.6810629921259839
20
-3.4197637795275591
11
5.6255511811023622
21
-3.4197637795275591
0
CIRCLE
8
BLACK
10
5.8304724409448818
20
-3.3589370078740157
40
0.0068897637795276
0
CIRCLE
8
BLACK
10
6.2241732283464568
20
-4.5400393700787403
40
0.0068897637795276
0
CIRCLE
8
BLACK
10
5.4367716535433068
20
-4.5400393700787403
40
0.0068897637795276
0
CIRCLE
8
BLACK
10
6.2241732283464568
20
-3.3589370078740157
40
0.0068897637795276
0
CIRCLE
8
BLACK
10
5.8304724409448818
20
-4.5400393700787403
40
0.0068897637795276
0
CIRCLE
8
BLACK
10
5.4367716535433068
20
-3.3589370078740157
40
0.0068897637795276
0
CIRCLE
8
BLACK
10
5.6012283464566925
20
-4.0632677165354334
40
0.0068897637795276
0
CIRCLE
8
BLACK
10
5.6012283464566925
20
-3.8357086614173226
40
0.0068897637795276
0
LINE
8
BLACK
6
CONTINUOUS
10
5.4736361417322836
20
-4.1078569685039366
11
5.4766143700787397
21
-4.108654960629921
0
LINE
8
BLACK
6
CONTINUOUS
10
5.4766143700787397
20
-4.108654960629921
11
5.4792845669291337
21
-4.110196614173228
0
LINE
8
BLACK
6
CONTINUOUS
10
5.4792845669291337
20
-4.110196614173228
11
5.4814648031496063
21
-4.1123768503937006
0
LINE
8
BLACK
6
CONTINUOUS
10
5.4814648031496063
20
-4.1123768503937006
11
5.4830064566929133
21
-4.1150470472440945
0
LINE
8
BLACK
6
CONTINUOUS
10
5.4830064566929133
20
-4.1150470472440945
11
5.4838044488188977
21
-4.1180252755905506
0
LINE
8
BLACK
6
CONTINUOUS
10
5.4838044488188977
20
-4.1180252755905506
11
5.4838044488188977
21
-4.1211085826771656
0
LINE
8
BLACK
6
CONTINUOUS
10
5.4838044488188977
20
-4.1211085826771656
11
5.4830064566929133
21
-4.1240868110236217
0
LINE
8
BLACK
6
CONTINUOUS
10
5.4830064566929133
20
-4.1240868110236217
11
5.4814648031496063
21
-4.1267570078740157
0
LINE
8
BLACK
6
CONTINUOUS
10
5.4814648031496063
20
-4.1267570078740157
11
5.4792845669291337
21
-4.1289372440944883
0
LINE
8
BLACK
6
CONTINUOUS
10
5.4792845669291337
20
-4.1289372440944883
11
5.4766143700787397
21
-4.1304788976377953
0
LINE
8
BLACK
6
CONTINUOUS
10
5.4766143700787397
20
-4.1304788976377953
11
5.4736361417322836
21
-4.1312768897637797
0
LINE
8
BLACK
6
CONTINUOUS
10
5.4736361417322836
20
-4.1312768897637797
11
5.4720944881889766
21
-4.1313779527559058
0
LINE
8
BLACK
6
CONTINUOUS
10
5.4720944881889766
20
-4.1313779527559058
11
5.4405984251968507
21
-4.1313779527559058
0
LINE
8
BLACK
6
CONTINUOUS
10
5.4405984251968507
20
-4.1313779527559058
11
5.4390567716535436
21
-4.1312768897637797
0
LINE
8
BLACK
6
CONTINUOUS
10
5.4390567716535436
20
-4.1312768897637797
11
5.4360785433070866
21
-4.1304788976377953
0
LINE
8
BLACK
6
CONTINUOUS
10
5.4360785433070866
20
-4.1304788976377953
11
5.4334083464566927
21
-4.1289372440944883
0
LINE
8
BLACK
6
CONTINUOUS
10
5.4334083464566927
20
-4.1289372440944883
11
5.4312281102362201
21
-4.1267570078740157
0
LINE
8
BLACK
6
CONTINUOUS
10
5.4312281102362201
20
-4.1267570078740157
11
5.4296864566929131
21
-4.1240868110236217
0
LINE
8
BLACK
6
CONTINUOUS
10
5.4296864566929131
20
-4.1240868110236217
11
5.4288884645669286
21
-4.1211085826771656
0
LINE
8
BLACK
6
CONTINUOUS
10
5.4288884645669286
20
-4.1211085826771656
11
5.4288884645669286
21
-4.1180252755905506
0
LINE
8
BLACK
6
CONTINUOUS
10
5.4288884645669286
20
-4.1180252755905506
11
5.4296864566929131
21
-4.1150470472440945
0
LINE
8
BLACK
6
CONTINUOUS
10
5.4296864566929131
20
-4.1150470472440945
11
5.4312281102362201
21
-4.1123768503937006
0
LINE
8
BLACK
6
CONTINUOUS
10
5.4312281102362201
20
-4.1123768503937006
11
5.4334083464566927
21
-4.110196614173228
0
LINE
8
BLACK
6
CONTINUOUS
10
5.4334083464566927
20
-4.110196614173228
11
5.4360785433070866
21
-4.108654960629921
0
LINE
8
BLACK
6
CONTINUOUS
10
5.4360785433070866
20
-4.108654960629921
11
5.4390567716535436
21
-4.1078569685039366
0
LINE
8
BLACK
6
CONTINUOUS
10
5.4390567716535436
20
-4.1078569685039366
11
5.4405984251968507
21
-4.1077559055118114
0
LINE
8
BLACK
6
CONTINUOUS
10
5.4405984251968507
20
-4.1077559055118114
11
5.4720944881889766
21
-4.1077559055118114
0
LINE
8
BLACK
6
CONTINUOUS
10
5.4720944881889766
20
-4.1077559055118114
11
5.4736361417322836
21
-4.1078569685039366
0
LINE
8
BLACK
6
CONTINUOUS
10
5.4736361417322836
20
-3.7676994881889763
11
5.4766143700787397
21
-3.7684974803149607
0
LINE
8
BLACK
6
CONTINUOUS
10
5.4766143700787397
20
-3.7684974803149607
11
5.4792845669291337
21
-3.7700391338582677
0
LINE
8
BLACK
6
CONTINUOUS
10
5.4792845669291337
20
-3.7700391338582677
11
5.4814648031496063
21
-3.7722193700787399
0
LINE
8
BLACK
6
CONTINUOUS
10
5.4814648031496063
20
-3.7722193700787399
11
5.4830064566929133
21
-3.7748895669291338
0
LINE
8
BLACK
6
CONTINUOUS
10
5.4830064566929133
20
-3.7748895669291338
11
5.4838044488188977
21
-3.7778677952755904
0
LINE
8
BLACK
6
CONTINUOUS
10
5.4838044488188977
20
-3.7778677952755904
11
5.4838044488188977
21
-3.7809511023622044
0
LINE
8
BLACK
6
CONTINUOUS
10
5.4838044488188977
20
-3.7809511023622044
11
5.4830064566929133
21
-3.7839293307086614
0
LINE
8
BLACK
6
CONTINUOUS
10
5.4830064566929133
20
-3.7839293307086614
11
5.4814648031496063
21
-3.7865995275590549
0
LINE
8
BLACK
6
CONTINUOUS
10
5.4814648031496063
20
-3.7865995275590549
11
5.4792845669291337
21
-3.7887797637795275
0
LINE
8
BLACK
6
CONTINUOUS
10
5.4792845669291337
20
-3.7887797637795275
11
5.4766143700787397
21
-3.7903214173228346
0
LINE
8
BLACK
6
CONTINUOUS
10
5.4766143700787397
20
-3.7903214173228346
11
5.4736361417322836
21
-3.791119409448819
0
LINE
8
BLACK
6
CONTINUOUS
10
5.4736361417322836
20
-3.791119409448819
11
5.4720944881889766
21
-3.7912204724409446
0
LINE
8
BLACK
6
CONTINUOUS
10
5.4720944881889766
20
-3.7912204724409446
11
5.4405984251968507
21
-3.7912204724409446
0
LINE
8
BLACK
6
CONTINUOUS
10
5.4405984251968507
20
-3.7912204724409446
11
5.4390567716535436
21
-3.791119409448819
0
LINE
8
BLACK
6
CONTINUOUS
10
5.4390567716535436
20
-3.791119409448819
11
5.4360785433070866
21
-3.7903214173228346
0
LINE
8
BLACK
6
CONTINUOUS
10
5.4360785433070866
20
-3.7903214173228346
11
5.4334083464566927
21
-3.7887797637795275
0
LINE
8
BLACK
6
CONTINUOUS
10
5.4334083464566927
20
-3.7887797637795275
11
5.4312281102362201
21
-3.7865995275590549
0
LINE
8
BLACK
6
CONTINUOUS
10
5.4312281102362201
20
-3.7865995275590549
11
5.4296864566929131
21
-3.7839293307086614
0
LINE
8
BLACK
6
CONTINUOUS
10
5.4296864566929131
20
-3.7839293307086614
11
5.4288884645669286
21
-3.7809511023622044
0
LINE
8
BLACK
6
CONTINUOUS
10
5.4288884645669286
20
-3.7809511023622044
11
5.4288884645669286
21
-3.7778677952755904
0
LINE
8
BLACK
6
CONTINUOUS
10
5.4288884645669286
20
-3.7778677952755904
11
5.4296864566929131
21
-3.7748895669291338
0
LINE
8
BLACK
6
CONTINUOUS
10
5.4296864566929131
20
-3.7748895669291338
11
5.4312281102362201
21
-3.7722193700787399
0
LINE
8
BLACK
6
CONTINUOUS
10
5.4312281102362201
20
-3.7722193700787399
11
5.4334083464566927
21
-3.7700391338582677
0
LINE
8
BLACK
6
CONTINUOUS
10
5.4334083464566927
20
-3.7700391338582677
11
5.4360785433070866
21
-3.7684974803149607
0
LINE
8
BLACK
6
CONTINUOUS
10
5.4360785433070866
20
-3.7684974803149607
11
5.4390567716535436
21
-3.7676994881889763
0
LINE
8
BLACK
6
CONTINUOUS
10
5.4390567716535436
20
-3.7676994881889763
11
5.4405984251968507
21
-3.7675984251968502
0
LINE
8
BLACK
6
CONTINUOUS
10
5.4405984251968507
20
-3.7675984251968502
11
5.4720944881889766
21
-3.7675984251968502
0
LINE
8
BLACK
6
CONTINUOUS
10
5.4720944881889766
20
-3.7675984251968502
11
5.4736361417322836
21
-3.7676994881889763
0
LINE
8
BLACK
6
CONTINUOUS
10
5.6441085826771653
20
-4.1078569685039366
11
5.6470868110236223
21
-4.108654960629921
0
LINE
8
BLACK
6
CONTINUOUS
10
5.6470868110236223
20
-4.108654960629921
11
5.6497570078740154
21
-4.110196614173228
0
LINE
8
BLACK
6
CONTINUOUS
10
5.6497570078740154
20
-4.110196614173228
11
5.6519372440944879
21
-4.1123768503937006
0
LINE
8
BLACK
6
CONTINUOUS
10
5.6519372440944879
20
-4.1123768503937006
11
5.653478897637795
21
-4.1150470472440945
0
LINE
8
BLACK
6
CONTINUOUS
10
5.653478897637795
20
-4.1150470472440945
11
5.6542768897637794
21
-4.1180252755905506
0
LINE
8
BLACK
6
CONTINUOUS
10
5.6542768897637794
20
-4.1180252755905506
11
5.6542768897637794
21
-4.1211085826771656
0
LINE
8
BLACK
6
CONTINUOUS
10
5.6542768897637794
20
-4.1211085826771656
11
5.653478897637795
21
-4.1240868110236217
0
LINE
8
BLACK
6
CONTINUOUS
10
5.653478897637795
20
-4.1240868110236217
11
5.6519372440944879
21
-4.1267570078740157
0
LINE
8
BLACK
6
CONTINUOUS
10
5.6519372440944879
20
-4.1267570078740157
11
5.6497570078740154
21
-4.1289372440944883
0
LINE
8
BLACK
6
CONTINUOUS
10
5.6497570078740154
20
-4.1289372440944883
11
5.6470868110236223
21
-4.1304788976377953
0
LINE
8
BLACK
6
CONTINUOUS
10
5.6470868110236223
20
-4.1304788976377953
11
5.6441085826771653
21
-4.1312768897637797
0
LINE
8
BLACK
6
CONTINUOUS
10
5.6441085826771653
20
-4.1312768897637797
11
5.6425669291338583
21
-4.1313779527559058
0
LINE
8
BLACK
6
CONTINUOUS
10
5.6425669291338583
20
-4.1313779527559058
11
5.5992598425196851
21
-4.1313779527559058
0
LINE
8
BLACK
6
CONTINUOUS
10
5.5992598425196851
20
-4.1313779527559058
11
5.5977181889763781
21
-4.1312768897637797
0
LINE
8
BLACK
6
CONTINUOUS
10
5.5977181889763781
20
-4.1312768897637797
11
5.5947399606299211
21
-4.1304788976377953
0
LINE
8
BLACK
6
CONTINUOUS
10
5.5947399606299211
20
-4.1304788976377953
11
5.5920697637795271
21
-4.1289372440944883
0
LINE
8
BLACK
6
CONTINUOUS
10
5.5920697637795271
20
-4.1289372440944883
11
5.5898895275590545
21
-4.1267570078740157
0
LINE
8
BLACK
6
CONTINUOUS
10
5.5898895275590545
20
-4.1267570078740157
11
5.5883478740157475
21
-4.1240868110236217
0
LINE
8
BLACK
6
CONTINUOUS
10
5.5883478740157475
20
-4.1240868110236217
11
5.587549881889764
21
-4.1211085826771656
0
LINE
8
BLACK
6
CONTINUOUS
10
5.587549881889764
20
-4.1211085826771656
11
5.587549881889764
21
-4.1180252755905506
0
LINE
8
BLACK
6
CONTINUOUS
10
5.587549881889764
20
-4.1180252755905506
11
5.5883478740157475
21
-4.1150470472440945
0
LINE
8
BLACK
6
CONTINUOUS
10
5.5883478740157475
20
-4.1150470472440945
11
5.5898895275590545
21
-4.1123768503937006
0
LINE
8
BLACK
6
CONTINUOUS
10
5.5898895275590545
20
-4.1123768503937006
11
5.5920697637795271
21
-4.110196614173228
0
LINE
8
BLACK
6
CONTINUOUS
10
5.5920697637795271
20
-4.110196614173228
11
5.5947399606299211
21
-4.108654960629921
0
LINE
8
BLACK
6
CONTINUOUS
10
5.5947399606299211
20
-4.108654960629921
11
5.5977181889763781
21
-4.1078569685039366
0
LINE
8
BLACK
6
CONTINUOUS
10
5.5977181889763781
20
-4.1078569685039366
11
5.5992598425196851
21
-4.1077559055118114
0
LINE
8
BLACK
6
CONTINUOUS
10
5.5992598425196851
20
-4.1077559055118114
11
5.6425669291338583
21
-4.1077559055118114
0
LINE
8
BLACK
6
CONTINUOUS
10
5.6425669291338583
20
-4.1077559055118114
11
5.6441085826771653
21
-4.1078569685039366
0
LINE
8
BLACK
6
CONTINUOUS
10
5.6441085826771653
20
-3.7676994881889763
11
5.6470868110236223
21
-3.7684974803149607
0
LINE
8
BLACK
6
CONTINUOUS
10
5.6470868110236223
20
-3.7684974803149607
11
5.6497570078740154
21
-3.7700391338582677
0
LINE
8
BLACK
6
CONTINUOUS
10
5.6497570078740154
20
-3.7700391338582677
11
5.6519372440944879
21
-3.7722193700787399
0
LINE
8
BLACK
6
CONTINUOUS
10
5.6519372440944879
20
-3.7722193700787399
11
5.653478897637795
21
-3.7748895669291338
0
LINE
8
BLACK
6
CONTINUOUS
10
5.653478897637795
20
-3.7748895669291338
11
5.6542768897637794
21
-3.7778677952755904
0
LINE
8
BLACK
6
CONTINUOUS
10
5.6542768897637794
20
-3.7778677952755904
11
5.6542768897637794
21
-3.7809511023622044
0
LINE
8
BLACK
6
CONTINUOUS
10
5.6542768897637794
20
-3.7809511023622044
11
5.653478897637795
21
-3.7839293307086614
0
LINE
8
BLACK
6
CONTINUOUS
10
5.653478897637795
20
-3.7839293307086614
11
5.6519372440944879
21
-3.7865995275590549
0
LINE
8
BLACK
6
CONTINUOUS
10
5.6519372440944879
20
-3.7865995275590549
11
5.6497570078740154
21
-3.7887797637795275
0
LINE
8
BLACK
6
CONTINUOUS
10
5.6497570078740154
20
-3.7887797637795275
11
5.6470868110236223
21
-3.7903214173228346
0
LINE
8
BLACK
6
CONTINUOUS
10
5.6470868110236223
20
-3.7903214173228346
11
5.6441085826771653
21
-3.791119409448819
0
LINE
8
BLACK
6
CONTINUOUS
10
5.6441085826771653
20
-3.791119409448819
11
5.6425669291338583
21
-3.7912204724409446
0
LINE
8
BLACK
6
CONTINUOUS
10
5.6425669291338583
20
-3.7912204724409446
11
5.5992598425196851
21
-3.7912204724409446
0
LINE
8
BLACK
6
CONTINUOUS
10
5.5992598425196851
20
-3.7912204724409446
11
5.5977181889763781
21
-3.791119409448819
0
LINE
8
BLACK
6
CONTINUOUS
10
5.5977181889763781
20
-3.791119409448819
11
5.5947399606299211
21
-3.7903214173228346
0
LINE
8
BLACK
6
CONTINUOUS
10
5.5947399606299211
20
-3.7903214173228346
11
5.5920697637795271
21
-3.7887797637795275
0
LINE
8
BLACK
6
CONTINUOUS
10
5.5920697637795271
20
-3.7887797637795275
11
5.5898895275590545
21
-3.7865995275590549
0
LINE
8
BLACK
6
CONTINUOUS
10
5.5898895275590545
20
-3.7865995275590549
11
5.5883478740157475
21
-3.7839293307086614
0
LINE
8
BLACK
6
CONTINUOUS
10
5.5883478740157475
20
-3.7839293307086614
11
5.587549881889764
21
-3.7809511023622044
0
LINE
8
BLACK
6
CONTINUOUS
10
5.587549881889764
20
-3.7809511023622044
11
5.587549881889764
21
-3.7778677952755904
0
LINE
8
BLACK
6
CONTINUOUS
10
5.587549881889764
20
-3.7778677952755904
11
5.5883478740157475
21
-3.7748895669291338
0
LINE
8
BLACK
6
CONTINUOUS
10
5.5883478740157475
20
-3.7748895669291338
11
5.5898895275590545
21
-3.7722193700787399
0
LINE
8
BLACK
6
CONTINUOUS
10
5.5898895275590545
20
-3.7722193700787399
11
5.5920697637795271
21
-3.7700391338582677
0
LINE
8
BLACK
6
CONTINUOUS
10
5.5920697637795271
20
-3.7700391338582677
11
5.5947399606299211
21
-3.7684974803149607
0
LINE
8
BLACK
6
CONTINUOUS
10
5.5947399606299211
20
-3.7684974803149607
11
5.5977181889763781
21
-3.7676994881889763
0
LINE
8
BLACK
6
CONTINUOUS
10
5.5977181889763781
20
-3.7676994881889763
11
5.5992598425196851
21
-3.7675984251968502
0
LINE
8
BLACK
6
CONTINUOUS
10
5.5992598425196851
20
-3.7675984251968502
11
5.6425669291338583
21
-3.7675984251968502
0
LINE
8
BLACK
6
CONTINUOUS
10
5.6425669291338583
20
-3.7675984251968502
11
5.6441085826771653
21
-3.7676994881889763
0
CIRCLE
8
BLACK
10
5.8304724409448818
20
-3.3589370078740157
40
0.0068897637795276
0
CIRCLE
8
BLACK
10
6.2241732283464568
20
-4.5400393700787403
40
0.0068897637795276
0
CIRCLE
8
BLACK
10
5.4367716535433068
20
-4.5400393700787403
40
0.0068897637795276
0
CIRCLE
8
BLACK
10
6.2241732283464568
20
-3.3589370078740157
40
0.0068897637795276
0
CIRCLE
8
BLACK
10
5.8304724409448818
20
-4.5400393700787403
40
0.0068897637795276
0
CIRCLE
8
BLACK
10
5.4367716535433068
20
-3.3589370078740157
40
0.0068897637795276
0
CIRCLE
8
BLACK
10
5.6012283464566925
20
-4.0632677165354334
40
0.0068897637795276
0
CIRCLE
8
BLACK
10
5.6012283464566925
20
-3.8357086614173226
40
0.0068897637795276
0
LINE
8
BLACK
6
CONTINUOUS
10
5.4405984251968507
20
-4.1313779527559058
11
5.4720944881889766
21
-4.1313779527559058
0
ARC
8
BLACK
10
5.4720944881889766
20
-4.1195669291338586
40
0.0118110236220472
50
-90.00000000
51
90.00000000
0
LINE
8
BLACK
6
CONTINUOUS
10
5.4720944881889766
20
-4.1077559055118114
11
5.4405984251968507
21
-4.1077559055118114
0
ARC
8
BLACK
10
5.4405984251968507
20
-4.1195669291338586
40
0.0118110236220472
50
90.00000000
51
270.00000000
0
LINE
8
BLACK
6
CONTINUOUS
10
5.4405984251968507
20
-3.7912204724409446
11
5.4720944881889766
21
-3.7912204724409446
0
ARC
8
BLACK
10
5.4720944881889766
20
-3.7794094488188974
40
0.0118110236220472
50
-90.00000000
51
90.00000000
0
LINE
8
BLACK
6
CONTINUOUS
10
5.4720944881889766
20
-3.7675984251968502
11
5.4405984251968507
21
-3.7675984251968502
0
ARC
8
BLACK
10
5.4405984251968507
20
-3.7794094488188974
40
0.0118110236220472
50
90.00000000
51
270.00000000
0
LINE
8
BLACK
6
CONTINUOUS
10
5.5992598425196851
20
-4.1313779527559058
11
5.6425669291338583
21
-4.1313779527559058
0
ARC
8
BLACK
10
5.6425669291338583
20
-4.1195669291338586
40
0.0118110236220472
50
-90.00000000
51
90.00000000
0
LINE
8
BLACK
6
CONTINUOUS
10
5.6425669291338583
20
-4.1077559055118114
11
5.5992598425196851
21
-4.1077559055118114
0
ARC
8
BLACK
10
5.5992598425196851
20
-4.1195669291338586
40
0.0118110236220472
50
90.00000000
51
270.00000000
0
LINE
8
BLACK
6
CONTINUOUS
10
5.5992598425196851
20
-3.7912204724409446
11
5.6425669291338583
21
-3.7912204724409446
0
ARC
8
BLACK
10
5.6425669291338583
20
-3.7794094488188974
40
0.0118110236220472
50
-90.00000000
51
90.00000000
0
LINE
8
BLACK
6
CONTINUOUS
10
5.6425669291338583
20
-3.7675984251968502
11
5.5992598425196851
21
-3.7675984251968502
0
ARC
8
BLACK
10
5.5992598425196851
20
-3.7794094488188974
40
0.0118110236220472
50
90.00000000
51
270.00000000
  0
ENDSEC
  0
EOF
