  0
SECTION
  2
HEADER
  9
$ANGBASE
  50
0.0
  9
$ANGDIR
  70
1
  9
$MEASUREMENT
  70
0
  0
ENDSEC
  0
SECTION
  2
TABLES
  0
TABLE
  2
LTYPE
  70
4
  0
LTYPE
  5
40F
  2
CONTINUOUS
  70
0
  3
Solid line
  72
65
  73
0
  40
0.0
  0
LTYPE
  5
410
  2
DASHDOT
 70
0
  3
Dash Dot ____ _ ____ _
 72
65
 73
4
 40
2.0
 49
1.25
 49
-0.25
 49
0.25
 49
-0.25
  0
LTYPE
  5
411
  2
DASHED
 70
0
  3
Dashed __ __ __ __ __
 72
65
 73
2
 40
0.75
 49
0.5
 49
-0.25
  0
LTYPE
  5
43B
  2
DOTTED
 70
0
  3
Dotted .  .  .  .
 72
65
 73
2
 40
0.2
 49
0.0
 49
-0.2
  0
ENDTAB
  0
TABLE
  2
STYLE
  70
4
  0
STYLE
  2
KICAD
  70
0
  40
0
  41
1
  42
1
  50
0
  71
0
  3
isocp.shx
  0
STYLE
  2
KICADB
  70
0
  40
0
  41
1
  42
1
  50
0
  71
0
  3
isocp.shx
  0
STYLE
  2
KICADI
  70
0
  40
0
  41
1
  42
1
  50
15
  71
0
  3
isocp.shx
  0
STYLE
  2
KICADBI
  70
0
  40
0
  41
1
  42
1
  50
15
  71
0
  3
isocp.shx
  0
ENDTAB
  0
TABLE
  2
LAYER
  70
1
  0
LAYER
  2
BLACK
  70
0
  62
7
  6
CONTINUOUS
  0
ENDTAB
  0
ENDSEC
  0
SECTION
  2
ENTITIES
0
LINE
8
BLACK
6
CONTINUOUS
10
5.9917646456692912
20
-4.1193409448818894
11
5.9918626377952755
21
-4.119381535433071
0
LINE
8
BLACK
6
CONTINUOUS
10
5.9918626377952755
20
-4.119381535433071
11
5.9919684645669289
21
-4.11938905511811
0
LINE
8
BLACK
6
CONTINUOUS
10
5.9919684645669289
20
-4.11938905511811
11
5.9925090944881889
21
-4.1195959448818895
0
LINE
8
BLACK
6
CONTINUOUS
10
5.9925090944881889
20
-4.1195959448818895
11
5.9950051574803149
21
-4.1208439763779525
0
LINE
8
BLACK
6
CONTINUOUS
10
5.9950051574803149
20
-4.1208439763779525
11
5.995107677165354
21
-4.1205964960629924
0
LINE
8
BLACK
6
CONTINUOUS
10
5.995107677165354
20
-4.1205964960629924
11
5.9959223228346454
21
-4.1197818503937009
0
LINE
8
BLACK
6
CONTINUOUS
10
5.9959223228346454
20
-4.1197818503937009
11
5.9969867322834647
21
-4.1193409448818894
0
LINE
8
BLACK
6
CONTINUOUS
10
5.9969867322834647
20
-4.1193409448818894
11
5.9975627952755906
21
-4.1192842125984255
0
LINE
8
BLACK
6
CONTINUOUS
10
5.9975627952755906
20
-4.1192842125984255
11
6.0200599606299212
21
-4.1192842125984255
0
LINE
8
BLACK
6
CONTINUOUS
10
6.0200599606299212
20
-4.1192842125984255
11
6.0206360236220471
21
-4.1193409448818894
0
LINE
8
BLACK
6
CONTINUOUS
10
6.0206360236220471
20
-4.1193409448818894
11
6.0217004330708663
21
-4.1197818503937009
0
LINE
8
BLACK
6
CONTINUOUS
10
6.0217004330708663
20
-4.1197818503937009
11
6.0225150787401569
21
-4.1205964960629924
0
LINE
8
BLACK
6
CONTINUOUS
10
6.0225150787401569
20
-4.1205964960629924
11
6.0229559842519684
21
-4.1216609055118107
0
LINE
8
BLACK
6
CONTINUOUS
10
6.0229559842519684
20
-4.1216609055118107
11
6.0229559842519684
21
-4.1228130314960625
0
LINE
8
BLACK
6
CONTINUOUS
10
6.0229559842519684
20
-4.1228130314960625
11
6.0225150787401569
21
-4.1238774409448817
0
LINE
8
BLACK
6
CONTINUOUS
10
6.0225150787401569
20
-4.1238774409448817
11
6.0217004330708663
21
-4.1246920866141732
0
LINE
8
BLACK
6
CONTINUOUS
10
6.0217004330708663
20
-4.1246920866141732
11
6.0206360236220471
21
-4.1251329921259838
0
LINE
8
BLACK
6
CONTINUOUS
10
6.0206360236220471
20
-4.1251329921259838
11
6.0200599606299212
21
-4.1251897244094486
0
LINE
8
BLACK
6
CONTINUOUS
10
6.0200599606299212
20
-4.1251897244094486
11
6.0117641338582679
21
-4.1251897244094486
0
LINE
8
BLACK
6
CONTINUOUS
10
6.0117641338582679
20
-4.1251897244094486
11
6.0117641338582679
21
-4.161607047244094
0
LINE
8
BLACK
6
CONTINUOUS
10
6.0117641338582679
20
-4.161607047244094
11
6.0117074015748031
21
-4.1621831102362208
0
LINE
8
BLACK
6
CONTINUOUS
10
6.0117074015748031
20
-4.1621831102362208
11
6.0112664960629916
21
-4.1632475196850391
0
LINE
8
BLACK
6
CONTINUOUS
10
6.0112664960629916
20
-4.1632475196850391
11
6.010451850393701
21
-4.1640621653543306
0
LINE
8
BLACK
6
CONTINUOUS
10
6.010451850393701
20
-4.1640621653543306
11
6.0093874409448818
21
-4.1645030708661412
0
LINE
8
BLACK
6
CONTINUOUS
10
6.0093874409448818
20
-4.1645030708661412
11
6.00823531496063
21
-4.1645030708661412
0
LINE
8
BLACK
6
CONTINUOUS
10
6.00823531496063
20
-4.1645030708661412
11
6.0071709055118108
21
-4.1640621653543306
0
LINE
8
BLACK
6
CONTINUOUS
10
6.0071709055118108
20
-4.1640621653543306
11
6.0063562598425193
21
-4.1632475196850391
0
LINE
8
BLACK
6
CONTINUOUS
10
6.0063562598425193
20
-4.1632475196850391
11
6.0059153543307087
21
-4.1621831102362208
0
LINE
8
BLACK
6
CONTINUOUS
10
6.0059153543307087
20
-4.1621831102362208
11
6.0058586220472439
21
-4.161607047244094
0
LINE
8
BLACK
6
CONTINUOUS
10
6.0058586220472439
20
-4.161607047244094
11
6.0058586220472439
21
-4.1251897244094486
0
LINE
8
BLACK
6
CONTINUOUS
10
6.0058586220472439
20
-4.1251897244094486
11
5.9997157480314955
21
-4.1251897244094486
0
LINE
8
BLACK
6
CONTINUOUS
10
5.9997157480314955
20
-4.1251897244094486
11
6.0013286614173227
21
-4.1284155118110233
0
LINE
8
BLACK
6
CONTINUOUS
10
6.0013286614173227
20
-4.1284155118110233
11
6.0015355511811022
21
-4.1289561023622046
0
LINE
8
BLACK
6
CONTINUOUS
10
6.0015355511811022
20
-4.1289561023622046
11
6.0015430708661412
21
-4.1290619685039367
0
LINE
8
BLACK
6
CONTINUOUS
10
6.0015430708661412
20
-4.1290619685039367
11
6.0015836614173228
21
-4.129159960629921
0
LINE
8
BLACK
6
CONTINUOUS
10
6.0015836614173228
20
-4.129159960629921
11
6.0016403937007876
21
-4.1297360236220468
0
LINE
8
BLACK
6
CONTINUOUS
10
6.0016403937007876
20
-4.1297360236220468
11
6.0016403937007876
21
-4.1334855511811019
0
LINE
8
BLACK
6
CONTINUOUS
10
6.0016403937007876
20
-4.1334855511811019
11
6.0016116535433071
21
-4.1337771259842517
0
LINE
8
BLACK
6
CONTINUOUS
10
6.0016116535433071
20
-4.1337771259842517
11
6.0016172047244094
21
-4.1338548818897634
0
LINE
8
BLACK
6
CONTINUOUS
10
6.0016172047244094
20
-4.1338548818897634
11
6.0015939370078737
21
-4.133957125984252
0
LINE
8
BLACK
6
CONTINUOUS
10
6.0015939370078737
20
-4.133957125984252
11
6.0015836614173228
21
-4.1340616141732278
0
LINE
8
BLACK
6
CONTINUOUS
10
6.0015836614173228
20
-4.1340616141732278
11
6.0015537795275593
21
-4.134133661417323
0
LINE
8
BLACK
6
CONTINUOUS
10
6.0015537795275593
20
-4.134133661417323
11
6.0014888582677166
21
-4.1344193307086616
0
LINE
8
BLACK
6
CONTINUOUS
10
6.0014888582677166
20
-4.1344193307086616
11
5.9996140944881891
21
-4.1400435826771655
0
LINE
8
BLACK
6
CONTINUOUS
10
5.9996140944881891
20
-4.1400435826771655
11
5.9993781102362203
21
-4.1405721653543308
0
LINE
8
BLACK
6
CONTINUOUS
10
5.9993781102362203
20
-4.1405721653543308
11
5.999308622047244
21
-4.140652244094488
0
LINE
8
BLACK
6
CONTINUOUS
10
5.999308622047244
20
-4.140652244094488
11
5.9992680314960625
21
-4.1407503149606297
0
LINE
8
BLACK
6
CONTINUOUS
10
5.9992680314960625
20
-4.1407503149606297
11
5.998900787401575
21
-4.1411977559055115
0
LINE
8
BLACK
6
CONTINUOUS
10
5.998900787401575
20
-4.1411977559055115
11
5.9814442913385824
21
-4.1586542913385829
0
LINE
8
BLACK
6
CONTINUOUS
10
5.9814442913385824
20
-4.1586542913385829
11
5.9986876377952756
21
-4.1586542913385829
0
LINE
8
BLACK
6
CONTINUOUS
10
5.9986876377952756
20
-4.1586542913385829
11
5.9992637007874015
21
-4.1587110236220468
0
LINE
8
BLACK
6
CONTINUOUS
10
5.9992637007874015
20
-4.1587110236220468
11
6.0003281102362207
21
-4.1591519291338583
0
LINE
8
BLACK
6
CONTINUOUS
10
6.0003281102362207
20
-4.1591519291338583
11
6.0011427559055113
21
-4.1599665748031498
0
LINE
8
BLACK
6
CONTINUOUS
10
6.0011427559055113
20
-4.1599665748031498
11
6.0015836614173228
21
-4.1610309842519682
0
LINE
8
BLACK
6
CONTINUOUS
10
6.0015836614173228
20
-4.1610309842519682
11
6.0015836614173228
21
-4.1621831102362208
0
LINE
8
BLACK
6
CONTINUOUS
10
6.0015836614173228
20
-4.1621831102362208
11
6.0011427559055113
21
-4.1632475196850391
0
LINE
8
BLACK
6
CONTINUOUS
10
6.0011427559055113
20
-4.1632475196850391
11
6.0003281102362207
21
-4.1640621653543306
0
LINE
8
BLACK
6
CONTINUOUS
10
6.0003281102362207
20
-4.1640621653543306
11
5.9992637007874015
21
-4.1645030708661412
0
LINE
8
BLACK
6
CONTINUOUS
10
5.9992637007874015
20
-4.1645030708661412
11
5.9986876377952756
21
-4.1645598031496061
0
LINE
8
BLACK
6
CONTINUOUS
10
5.9986876377952756
20
-4.1645598031496061
11
5.9743157086614174
21
-4.1645598031496061
0
LINE
8
BLACK
6
CONTINUOUS
10
5.9743157086614174
20
-4.1645598031496061
11
5.9737396456692915
21
-4.1645030708661412
0
LINE
8
BLACK
6
CONTINUOUS
10
5.9737396456692915
20
-4.1645030708661412
11
5.9726752362204723
21
-4.1640621653543306
0
LINE
8
BLACK
6
CONTINUOUS
10
5.9726752362204723
20
-4.1640621653543306
11
5.9718605905511808
21
-4.1632475196850391
0
LINE
8
BLACK
6
CONTINUOUS
10
5.9718605905511808
20
-4.1632475196850391
11
5.9714196850393702
21
-4.1621831102362208
0
LINE
8
BLACK
6
CONTINUOUS
10
5.9714196850393702
20
-4.1621831102362208
11
5.9714196850393702
21
-4.1610309842519682
0
LINE
8
BLACK
6
CONTINUOUS
10
5.9714196850393702
20
-4.1610309842519682
11
5.9718605905511808
21
-4.1599665748031498
0
LINE
8
BLACK
6
CONTINUOUS
10
5.9718605905511808
20
-4.1599665748031498
11
5.9722277952755904
21
-4.159519133858268
0
LINE
8
BLACK
6
CONTINUOUS
10
5.9722277952755904
20
-4.159519133858268
11
5.9942320472440942
21
-4.1375148031496058
0
LINE
8
BLACK
6
CONTINUOUS
10
5.9942320472440942
20
-4.1375148031496058
11
5.9957348818897636
21
-4.1330064173228349
0
LINE
8
BLACK
6
CONTINUOUS
10
5.9957348818897636
20
-4.1330064173228349
11
5.9957348818897636
21
-4.1304330708661414
0
LINE
8
BLACK
6
CONTINUOUS
10
5.9957348818897636
20
-4.1304330708661414
11
5.9943861417322832
21
-4.1277355905511808
0
LINE
8
BLACK
6
CONTINUOUS
10
5.9943861417322832
20
-4.1277355905511808
11
5.9931890157480314
21
-4.126538464566929
0
LINE
8
BLACK
6
CONTINUOUS
10
5.9931890157480314
20
-4.126538464566929
11
5.9904915354330708
21
-4.1251897244094486
0
LINE
8
BLACK
6
CONTINUOUS
10
5.9904915354330708
20
-4.1251897244094486
11
5.9825118110236222
21
-4.1251897244094486
0
LINE
8
BLACK
6
CONTINUOUS
10
5.9825118110236222
20
-4.1251897244094486
11
5.9798143307086615
21
-4.126538464566929
0
LINE
8
BLACK
6
CONTINUOUS
10
5.9798143307086615
20
-4.126538464566929
11
5.9782783858267718
21
-4.1280744094488186
0
LINE
8
BLACK
6
CONTINUOUS
10
5.9782783858267718
20
-4.1280744094488186
11
5.97783094488189
21
-4.1284416141732283
0
LINE
8
BLACK
6
CONTINUOUS
10
5.97783094488189
20
-4.1284416141732283
11
5.976766496062992
21
-4.1288825196850389
0
LINE
8
BLACK
6
CONTINUOUS
10
5.976766496062992
20
-4.1288825196850389
11
5.9756144488188978
21
-4.1288825196850389
0
LINE
8
BLACK
6
CONTINUOUS
10
5.9756144488188978
20
-4.1288825196850389
11
5.9745499999999998
21
-4.1284416141732283
0
LINE
8
BLACK
6
CONTINUOUS
10
5.9745499999999998
20
-4.1284416141732283
11
5.9737353543307083
21
-4.1276269685039368
0
LINE
8
BLACK
6
CONTINUOUS
10
5.9737353543307083
20
-4.1276269685039368
11
5.9732944488188977
21
-4.1265625196850388
0
LINE
8
BLACK
6
CONTINUOUS
10
5.9732944488188977
20
-4.1265625196850388
11
5.9732944488188977
21
-4.1254104724409446
0
LINE
8
BLACK
6
CONTINUOUS
10
5.9732944488188977
20
-4.1254104724409446
11
5.9737353543307083
21
-4.1243460236220475
0
LINE
8
BLACK
6
CONTINUOUS
10
5.9737353543307083
20
-4.1243460236220475
11
5.974102559055118
21
-4.1238985826771657
0
LINE
8
BLACK
6
CONTINUOUS
10
5.974102559055118
20
-4.1238985826771657
11
5.9759773228346456
21
-4.1220238188976381
0
LINE
8
BLACK
6
CONTINUOUS
10
5.9759773228346456
20
-4.1220238188976381
11
5.9762036614173226
21
-4.121838031496063
0
LINE
8
BLACK
6
CONTINUOUS
10
5.9762036614173226
20
-4.121838031496063
11
5.9762548425196851
21
-4.1217790551181102
0
LINE
8
BLACK
6
CONTINUOUS
10
5.9762548425196851
20
-4.1217790551181102
11
5.9763437795275589
21
-4.1217230708661416
0
LINE
8
BLACK
6
CONTINUOUS
10
5.9763437795275589
20
-4.1217230708661416
11
5.9764247637795274
21
-4.1216566141732285
0
LINE
8
BLACK
6
CONTINUOUS
10
5.9764247637795274
20
-4.1216566141732285
11
5.9764966929133854
21
-4.1216267716535429
0
LINE
8
BLACK
6
CONTINUOUS
10
5.9764966929133854
20
-4.1216267716535429
11
5.9767447244094489
21
-4.1214707086614171
0
LINE
8
BLACK
6
CONTINUOUS
10
5.9767447244094489
20
-4.1214707086614171
11
5.980494251968504
21
-4.1195959448818895
0
LINE
8
BLACK
6
CONTINUOUS
10
5.980494251968504
20
-4.1195959448818895
11
5.9810348425196853
21
-4.11938905511811
0
LINE
8
BLACK
6
CONTINUOUS
10
5.9810348425196853
20
-4.11938905511811
11
5.9811407086614174
21
-4.1193814960629922
0
LINE
8
BLACK
6
CONTINUOUS
10
5.9811407086614174
20
-4.1193814960629922
11
5.9812387007874017
21
-4.1193409448818894
0
LINE
8
BLACK
6
CONTINUOUS
10
5.9812387007874017
20
-4.1193409448818894
11
5.9818147637795276
21
-4.1192842125984255
0
LINE
8
BLACK
6
CONTINUOUS
10
5.9818147637795276
20
-4.1192842125984255
11
5.9911885826771654
21
-4.1192842125984255
0
LINE
8
BLACK
6
CONTINUOUS
10
5.9911885826771654
20
-4.1192842125984255
11
5.9917646456692912
21
-4.1193409448818894
0
LINE
8
BLACK
6
CONTINUOUS
10
6.0822109055118112
20
-4.1193409448818894
11
6.0825033070866139
21
-4.1193409448818894
0
LINE
8
BLACK
6
CONTINUOUS
10
6.0825033070866139
20
-4.1193409448818894
11
6.0827705511811025
21
-4.1194516535433072
0
LINE
8
BLACK
6
CONTINUOUS
10
6.0827705511811025
20
-4.1194516535433072
11
6.0830543700787398
21
-4.1195077952755907
0
LINE
8
BLACK
6
CONTINUOUS
10
6.0830543700787398
20
-4.1195077952755907
11
6.0832976377952752
21
-4.1196699606299214
0
LINE
8
BLACK
6
CONTINUOUS
10
6.0832976377952752
20
-4.1196699606299214
11
6.0835677165354332
21
-4.1197818503937009
0
LINE
8
BLACK
6
CONTINUOUS
10
6.0835677165354332
20
-4.1197818503937009
11
6.0837721653543309
21
-4.1199862992125986
0
LINE
8
BLACK
6
CONTINUOUS
10
6.0837721653543309
20
-4.1199862992125986
11
6.0840129921259845
21
-4.1201468503937004
0
LINE
8
BLACK
6
CONTINUOUS
10
6.0840129921259845
20
-4.1201468503937004
11
6.0841757086614168
21
-4.1203898425196845
0
LINE
8
BLACK
6
CONTINUOUS
10
6.0841757086614168
20
-4.1203898425196845
11
6.0843823622047246
21
-4.1205964960629924
0
LINE
8
BLACK
6
CONTINUOUS
10
6.0843823622047246
20
-4.1205964960629924
11
6.0844930314960628
21
-4.1208637007874014
0
LINE
8
BLACK
6
CONTINUOUS
10
6.0844930314960628
20
-4.1208637007874014
11
6.0846540551181105
21
-4.1211041338582675
0
LINE
8
BLACK
6
CONTINUOUS
10
6.0846540551181105
20
-4.1211041338582675
11
6.0847113779527557
21
-4.1213907874015749
0
LINE
8
BLACK
6
CONTINUOUS
10
6.0847113779527557
20
-4.1213907874015749
11
6.0848232677165353
21
-4.1216609055118107
0
LINE
8
BLACK
6
CONTINUOUS
10
6.0848232677165353
20
-4.1216609055118107
11
6.08487937007874
21
-4.1222308267716539
0
LINE
8
BLACK
6
CONTINUOUS
10
6.08487937007874
20
-4.1222308267716539
11
6.0848800000000001
21
-4.122233858267716
0
LINE
8
BLACK
6
CONTINUOUS
10
6.0848800000000001
20
-4.122233858267716
11
6.0848797637795276
21
-4.1222348818897636
0
LINE
8
BLACK
6
CONTINUOUS
10
6.0848797637795276
20
-4.1222348818897636
11
6.0848800000000001
21
-4.1222369685039366
0
LINE
8
BLACK
6
CONTINUOUS
10
6.0848800000000001
20
-4.1222369685039366
11
6.0848800000000001
21
-4.1586542913385829
0
LINE
8
BLACK
6
CONTINUOUS
10
6.0848800000000001
20
-4.1586542913385829
11
6.0931758267716534
21
-4.1586542913385829
0
LINE
8
BLACK
6
CONTINUOUS
10
6.0931758267716534
20
-4.1586542913385829
11
6.0937518897637792
21
-4.1587110236220468
0
LINE
8
BLACK
6
CONTINUOUS
10
6.0937518897637792
20
-4.1587110236220468
11
6.0948162992125985
21
-4.1591519291338583
0
LINE
8
BLACK
6
CONTINUOUS
10
6.0948162992125985
20
-4.1591519291338583
11
6.0956309448818899
21
-4.1599665748031498
0
LINE
8
BLACK
6
CONTINUOUS
10
6.0956309448818899
20
-4.1599665748031498
11
6.0960718503937006
21
-4.1610309842519682
0
LINE
8
BLACK
6
CONTINUOUS
10
6.0960718503937006
20
-4.1610309842519682
11
6.0960718503937006
21
-4.1621831102362208
0
LINE
8
BLACK
6
CONTINUOUS
10
6.0960718503937006
20
-4.1621831102362208
11
6.0956309448818899
21
-4.1632475196850391
0
LINE
8
BLACK
6
CONTINUOUS
10
6.0956309448818899
20
-4.1632475196850391
11
6.0948162992125985
21
-4.1640621653543306
0
LINE
8
BLACK
6
CONTINUOUS
10
6.0948162992125985
20
-4.1640621653543306
11
6.0937518897637792
21
-4.1645030708661412
0
LINE
8
BLACK
6
CONTINUOUS
10
6.0937518897637792
20
-4.1645030708661412
11
6.0931758267716534
21
-4.1645598031496061
0
LINE
8
BLACK
6
CONTINUOUS
10
6.0931758267716534
20
-4.1645598031496061
11
6.0706786614173227
21
-4.1645598031496061
0
LINE
8
BLACK
6
CONTINUOUS
10
6.0706786614173227
20
-4.1645598031496061
11
6.0701025984251968
21
-4.1645030708661412
0
LINE
8
BLACK
6
CONTINUOUS
10
6.0701025984251968
20
-4.1645030708661412
11
6.0690381889763776
21
-4.1640621653543306
0
LINE
8
BLACK
6
CONTINUOUS
10
6.0690381889763776
20
-4.1640621653543306
11
6.0682235433070861
21
-4.1632475196850391
0
LINE
8
BLACK
6
CONTINUOUS
10
6.0682235433070861
20
-4.1632475196850391
11
6.0677826377952755
21
-4.1621831102362208
0
LINE
8
BLACK
6
CONTINUOUS
10
6.0677826377952755
20
-4.1621831102362208
11
6.0677826377952755
21
-4.1610309842519682
0
LINE
8
BLACK
6
CONTINUOUS
10
6.0677826377952755
20
-4.1610309842519682
11
6.0682235433070861
21
-4.1599665748031498
0
LINE
8
BLACK
6
CONTINUOUS
10
6.0682235433070861
20
-4.1599665748031498
11
6.0690381889763776
21
-4.1591519291338583
0
LINE
8
BLACK
6
CONTINUOUS
10
6.0690381889763776
20
-4.1591519291338583
11
6.0701025984251968
21
-4.1587110236220468
0
LINE
8
BLACK
6
CONTINUOUS
10
6.0701025984251968
20
-4.1587110236220468
11
6.0706786614173227
21
-4.1586542913385829
0
LINE
8
BLACK
6
CONTINUOUS
10
6.0706786614173227
20
-4.1586542913385829
11
6.078974488188976
21
-4.1586542913385829
0
LINE
8
BLACK
6
CONTINUOUS
10
6.078974488188976
20
-4.1586542913385829
11
6.078974488188976
21
-4.13124031496063
0
LINE
8
BLACK
6
CONTINUOUS
10
6.078974488188976
20
-4.13124031496063
11
6.0765161023622047
21
-4.1336987007874013
0
LINE
8
BLACK
6
CONTINUOUS
10
6.0765161023622047
20
-4.1336987007874013
11
6.0762897244094489
21
-4.1338844488188977
0
LINE
8
BLACK
6
CONTINUOUS
10
6.0762897244094489
20
-4.1338844488188977
11
6.0762385826771652
21
-4.1339434645669293
0
LINE
8
BLACK
6
CONTINUOUS
10
6.0762385826771652
20
-4.1339434645669293
11
6.0761496062992126
21
-4.1339994094488191
0
LINE
8
BLACK
6
CONTINUOUS
10
6.0761496062992126
20
-4.1339994094488191
11
6.0760686614173229
21
-4.134065905511811
0
LINE
8
BLACK
6
CONTINUOUS
10
6.0760686614173229
20
-4.134065905511811
11
6.0759966929133853
21
-4.134095708661417
0
LINE
8
BLACK
6
CONTINUOUS
10
6.0759966929133853
20
-4.134095708661417
11
6.0757487007874014
21
-4.1342518110236224
0
LINE
8
BLACK
6
CONTINUOUS
10
6.0757487007874014
20
-4.1342518110236224
11
6.0719991732283463
21
-4.1361265748031499
0
LINE
8
BLACK
6
CONTINUOUS
10
6.0719991732283463
20
-4.1361265748031499
11
6.0714585433070862
21
-4.1363334645669294
0
LINE
8
BLACK
6
CONTINUOUS
10
6.0714585433070862
20
-4.1363334645669294
11
6.0703093307086613
21
-4.1364151181102358
0
LINE
8
BLACK
6
CONTINUOUS
10
6.0703093307086613
20
-4.1364151181102358
11
6.0692163779527561
21
-4.1360507874015751
0
LINE
8
BLACK
6
CONTINUOUS
10
6.0692163779527561
20
-4.1360507874015751
11
6.0683459842519687
21
-4.1352959448818893
0
LINE
8
BLACK
6
CONTINUOUS
10
6.0683459842519687
20
-4.1352959448818893
11
6.0678307480314961
21
-4.1342654330708664
0
LINE
8
BLACK
6
CONTINUOUS
10
6.0678307480314961
20
-4.1342654330708664
11
6.0677490944881889
21
-4.1331162204724405
0
LINE
8
BLACK
6
CONTINUOUS
10
6.0677490944881889
20
-4.1331162204724405
11
6.0681134251968505
21
-4.1320232677165354
0
LINE
8
BLACK
6
CONTINUOUS
10
6.0681134251968505
20
-4.1320232677165354
11
6.0688682677165353
21
-4.1311528740157479
0
LINE
8
BLACK
6
CONTINUOUS
10
6.0688682677165353
20
-4.1311528740157479
11
6.0693581496062992
21
-4.1308445275590548
0
LINE
8
BLACK
6
CONTINUOUS
10
6.0693581496062992
20
-4.1308445275590548
11
6.0726790944881888
21
-4.1291840551181105
0
LINE
8
BLACK
6
CONTINUOUS
10
6.0726790944881888
20
-4.1291840551181105
11
6.075882992125984
21
-4.1259801574803152
0
LINE
8
BLACK
6
CONTINUOUS
10
6.075882992125984
20
-4.1259801574803152
11
6.0794703937007872
21
-4.1205990551181104
0
LINE
8
BLACK
6
CONTINUOUS
10
6.0794703937007872
20
-4.1205990551181104
11
6.0794717322834648
21
-4.1205973622047241
0
LINE
8
BLACK
6
CONTINUOUS
10
6.0794717322834648
20
-4.1205973622047241
11
6.0794721259842515
21
-4.1205964960629924
0
LINE
8
BLACK
6
CONTINUOUS
10
6.0794721259842515
20
-4.1205964960629924
11
6.0794741338582678
21
-4.1205944488188972
0
LINE
8
BLACK
6
CONTINUOUS
10
6.0794741338582678
20
-4.1205944488188972
11
6.0798371653543306
21
-4.1201512204724411
0
LINE
8
BLACK
6
CONTINUOUS
10
6.0798371653543306
20
-4.1201512204724411
11
6.0800800393700785
21
-4.1199885433070866
0
LINE
8
BLACK
6
CONTINUOUS
10
6.0800800393700785
20
-4.1199885433070866
11
6.0802867716535429
21
-4.1197818503937009
0
LINE
8
BLACK
6
CONTINUOUS
10
6.0802867716535429
20
-4.1197818503937009
11
6.0805540551181103
21
-4.1196711023622044
0
LINE
8
BLACK
6
CONTINUOUS
10
6.0805540551181103
20
-4.1196711023622044
11
6.0807944488188976
21
-4.119510157480315
0
LINE
8
BLACK
6
CONTINUOUS
10
6.0807944488188976
20
-4.119510157480315
11
6.0810810629921255
21
-4.1194527952755902
0
LINE
8
BLACK
6
CONTINUOUS
10
6.0810810629921255
20
-4.1194527952755902
11
6.0813511811023622
21
-4.1193409448818894
0
LINE
8
BLACK
6
CONTINUOUS
10
6.0813511811023622
20
-4.1193409448818894
11
6.0816404724409443
21
-4.1193409448818894
0
LINE
8
BLACK
6
CONTINUOUS
10
6.0816404724409443
20
-4.1193409448818894
11
6.0819241338582675
21
-4.1192842125984255
0
LINE
8
BLACK
6
CONTINUOUS
10
6.0819241338582675
20
-4.1192842125984255
11
6.0822109055118112
21
-4.1193409448818894
0
LINE
8
BLACK
6
CONTINUOUS
10
5.9261478346456693
20
-4.1193409448818894
11
5.9272122440944877
21
-4.1197818503937009
0
LINE
8
BLACK
6
CONTINUOUS
10
5.9272122440944877
20
-4.1197818503937009
11
5.9280268897637791
21
-4.1205964960629924
0
LINE
8
BLACK
6
CONTINUOUS
10
5.9280268897637791
20
-4.1205964960629924
11
5.9284677952755906
21
-4.1216609055118107
0
LINE
8
BLACK
6
CONTINUOUS
10
5.9284677952755906
20
-4.1216609055118107
11
5.9284677952755906
21
-4.1228130314960625
0
LINE
8
BLACK
6
CONTINUOUS
10
5.9284677952755906
20
-4.1228130314960625
11
5.9280268897637791
21
-4.1238774409448817
0
LINE
8
BLACK
6
CONTINUOUS
10
5.9280268897637791
20
-4.1238774409448817
11
5.9272122440944877
21
-4.1246920866141732
0
LINE
8
BLACK
6
CONTINUOUS
10
5.9272122440944877
20
-4.1246920866141732
11
5.9261478346456693
21
-4.1251329921259838
0
LINE
8
BLACK
6
CONTINUOUS
10
5.9261478346456693
20
-4.1251329921259838
11
5.9255717716535434
21
-4.1251897244094486
0
LINE
8
BLACK
6
CONTINUOUS
10
5.9255717716535434
20
-4.1251897244094486
11
5.9172759448818892
21
-4.1251897244094486
0
LINE
8
BLACK
6
CONTINUOUS
10
5.9172759448818892
20
-4.1251897244094486
11
5.9172759448818892
21
-4.161607047244094
0
LINE
8
BLACK
6
CONTINUOUS
10
5.9172759448818892
20
-4.161607047244094
11
5.9172192125984253
21
-4.1621831102362208
0
LINE
8
BLACK
6
CONTINUOUS
10
5.9172192125984253
20
-4.1621831102362208
11
5.9167783070866138
21
-4.1632475196850391
0
LINE
8
BLACK
6
CONTINUOUS
10
5.9167783070866138
20
-4.1632475196850391
11
5.9159636614173223
21
-4.1640621653543306
0
LINE
8
BLACK
6
CONTINUOUS
10
5.9159636614173223
20
-4.1640621653543306
11
5.914899251968504
21
-4.1645030708661412
0
LINE
8
BLACK
6
CONTINUOUS
10
5.914899251968504
20
-4.1645030708661412
11
5.9137471259842522
21
-4.1645030708661412
0
LINE
8
BLACK
6
CONTINUOUS
10
5.9137471259842522
20
-4.1645030708661412
11
5.912682716535433
21
-4.1640621653543306
0
LINE
8
BLACK
6
CONTINUOUS
10
5.912682716535433
20
-4.1640621653543306
11
5.9118680708661415
21
-4.1632475196850391
0
LINE
8
BLACK
6
CONTINUOUS
10
5.9118680708661415
20
-4.1632475196850391
11
5.9114271653543309
21
-4.1621831102362208
0
LINE
8
BLACK
6
CONTINUOUS
10
5.9114271653543309
20
-4.1621831102362208
11
5.9113704330708661
21
-4.161607047244094
0
LINE
8
BLACK
6
CONTINUOUS
10
5.9113704330708661
20
-4.161607047244094
11
5.9113704330708661
21
-4.1251897244094486
0
LINE
8
BLACK
6
CONTINUOUS
10
5.9113704330708661
20
-4.1251897244094486
11
5.9030746062992128
21
-4.1251897244094486
0
LINE
8
BLACK
6
CONTINUOUS
10
5.9030746062992128
20
-4.1251897244094486
11
5.9024985433070869
21
-4.1251329921259838
0
LINE
8
BLACK
6
CONTINUOUS
10
5.9024985433070869
20
-4.1251329921259838
11
5.9014341338582676
21
-4.1246920866141732
0
LINE
8
BLACK
6
CONTINUOUS
10
5.9014341338582676
20
-4.1246920866141732
11
5.9006194881889762
21
-4.1238774409448817
0
LINE
8
BLACK
6
CONTINUOUS
10
5.9006194881889762
20
-4.1238774409448817
11
5.9001785826771656
21
-4.1228130314960625
0
LINE
8
BLACK
6
CONTINUOUS
10
5.9001785826771656
20
-4.1228130314960625
11
5.9001785826771656
21
-4.1216609055118107
0
LINE
8
BLACK
6
CONTINUOUS
10
5.9001785826771656
20
-4.1216609055118107
11
5.9006194881889762
21
-4.1205964960629924
0
LINE
8
BLACK
6
CONTINUOUS
10
5.9006194881889762
20
-4.1205964960629924
11
5.9014341338582676
21
-4.1197818503937009
0
LINE
8
BLACK
6
CONTINUOUS
10
5.9014341338582676
20
-4.1197818503937009
11
5.9024985433070869
21
-4.1193409448818894
0
LINE
8
BLACK
6
CONTINUOUS
10
5.9024985433070869
20
-4.1193409448818894
11
5.9030746062992128
21
-4.1192842125984255
0
LINE
8
BLACK
6
CONTINUOUS
10
5.9030746062992128
20
-4.1192842125984255
11
5.9255717716535434
21
-4.1192842125984255
0
LINE
8
BLACK
6
CONTINUOUS
10
5.9255717716535434
20
-4.1192842125984255
11
5.9261478346456693
21
-4.1193409448818894
0
LINE
8
BLACK
6
CONTINUOUS
10
5.9542693307086614
20
-4.1193409448818894
11
5.9543673228346456
21
-4.119381535433071
0
LINE
8
BLACK
6
CONTINUOUS
10
5.9543673228346456
20
-4.119381535433071
11
5.954473149606299
21
-4.11938905511811
0
LINE
8
BLACK
6
CONTINUOUS
10
5.954473149606299
20
-4.11938905511811
11
5.9550137795275591
21
-4.1195959448818895
0
LINE
8
BLACK
6
CONTINUOUS
10
5.9550137795275591
20
-4.1195959448818895
11
5.9587633070866142
21
-4.1214707086614171
0
LINE
8
BLACK
6
CONTINUOUS
10
5.9587633070866142
20
-4.1214707086614171
11
5.9590112992125981
21
-4.1216267716535429
0
LINE
8
BLACK
6
CONTINUOUS
10
5.9590112992125981
20
-4.1216267716535429
11
5.9590832677165357
21
-4.1216566141732285
0
LINE
8
BLACK
6
CONTINUOUS
10
5.9590832677165357
20
-4.1216566141732285
11
5.9591642125984254
21
-4.1217230708661416
0
LINE
8
BLACK
6
CONTINUOUS
10
5.9591642125984254
20
-4.1217230708661416
11
5.959253188976378
21
-4.1217790551181102
0
LINE
8
BLACK
6
CONTINUOUS
10
5.959253188976378
20
-4.1217790551181102
11
5.9593043307086617
21
-4.121838031496063
0
LINE
8
BLACK
6
CONTINUOUS
10
5.9593043307086617
20
-4.121838031496063
11
5.9595307086614175
21
-4.1220238188976381
0
LINE
8
BLACK
6
CONTINUOUS
10
5.9595307086614175
20
-4.1220238188976381
11
5.9614054724409451
21
-4.1238985826771657
0
LINE
8
BLACK
6
CONTINUOUS
10
5.9614054724409451
20
-4.1238985826771657
11
5.9615912204724406
21
-4.1241249212598428
0
LINE
8
BLACK
6
CONTINUOUS
10
5.9615912204724406
20
-4.1241249212598428
11
5.9616502362204722
21
-4.1241761023622043
0
LINE
8
BLACK
6
CONTINUOUS
10
5.9616502362204722
20
-4.1241761023622043
11
5.9617061811023619
21
-4.124265039370079
0
LINE
8
BLACK
6
CONTINUOUS
10
5.9617061811023619
20
-4.124265039370079
11
5.9617726771653539
21
-4.1243460236220475
0
LINE
8
BLACK
6
CONTINUOUS
10
5.9617726771653539
20
-4.1243460236220475
11
5.9618024803149607
21
-4.1244179527559055
0
LINE
8
BLACK
6
CONTINUOUS
10
5.9618024803149607
20
-4.1244179527559055
11
5.9619585826771653
21
-4.1246659842519682
0
LINE
8
BLACK
6
CONTINUOUS
10
5.9619585826771653
20
-4.1246659842519682
11
5.9638333464566928
21
-4.1284155118110233
0
LINE
8
BLACK
6
CONTINUOUS
10
5.9638333464566928
20
-4.1284155118110233
11
5.9640402362204723
21
-4.1289561023622046
0
LINE
8
BLACK
6
CONTINUOUS
10
5.9640402362204723
20
-4.1289561023622046
11
5.9640477559055114
21
-4.1290619685039367
0
LINE
8
BLACK
6
CONTINUOUS
10
5.9640477559055114
20
-4.1290619685039367
11
5.9640883464566929
21
-4.129159960629921
0
LINE
8
BLACK
6
CONTINUOUS
10
5.9640883464566929
20
-4.129159960629921
11
5.9641450787401578
21
-4.1297360236220468
0
LINE
8
BLACK
6
CONTINUOUS
10
5.9641450787401578
20
-4.1297360236220468
11
5.9641450787401578
21
-4.1353603149606295
0
LINE
8
BLACK
6
CONTINUOUS
10
5.9641450787401578
20
-4.1353603149606295
11
5.9640883464566929
21
-4.1359363779527554
0
LINE
8
BLACK
6
CONTINUOUS
10
5.9640883464566929
20
-4.1359363779527554
11
5.9640477559055114
21
-4.1360343307086609
0
LINE
8
BLACK
6
CONTINUOUS
10
5.9640477559055114
20
-4.1360343307086609
11
5.9640402362204723
21
-4.1361402362204727
0
LINE
8
BLACK
6
CONTINUOUS
10
5.9640402362204723
20
-4.1361402362204727
11
5.9638333464566928
21
-4.1366808267716531
0
LINE
8
BLACK
6
CONTINUOUS
10
5.9638333464566928
20
-4.1366808267716531
11
5.9619585826771653
21
-4.1404303543307082
0
LINE
8
BLACK
6
CONTINUOUS
10
5.9619585826771653
20
-4.1404303543307082
11
5.9618024803149607
21
-4.140678346456693
0
LINE
8
BLACK
6
CONTINUOUS
10
5.9618024803149607
20
-4.140678346456693
11
5.9617726771653539
21
-4.1407503149606297
0
LINE
8
BLACK
6
CONTINUOUS
10
5.9617726771653539
20
-4.1407503149606297
11
5.9617061811023619
21
-4.1408312598425194
0
LINE
8
BLACK
6
CONTINUOUS
10
5.9617061811023619
20
-4.1408312598425194
11
5.9616502362204722
21
-4.140920236220472
0
LINE
8
BLACK
6
CONTINUOUS
10
5.9616502362204722
20
-4.140920236220472
11
5.9615912204724406
21
-4.1409713779527557
0
LINE
8
BLACK
6
CONTINUOUS
10
5.9615912204724406
20
-4.1409713779527557
11
5.9614054724409451
21
-4.1411977559055115
0
LINE
8
BLACK
6
CONTINUOUS
10
5.9614054724409451
20
-4.1411977559055115
11
5.9595307086614175
21
-4.1430725196850391
0
LINE
8
BLACK
6
CONTINUOUS
10
5.9595307086614175
20
-4.1430725196850391
11
5.9593043307086617
21
-4.1432582677165355
0
LINE
8
BLACK
6
CONTINUOUS
10
5.9593043307086617
20
-4.1432582677165355
11
5.959253188976378
21
-4.1433172834645671
0
LINE
8
BLACK
6
CONTINUOUS
10
5.959253188976378
20
-4.1433172834645671
11
5.9591642125984254
21
-4.1433732283464568
0
LINE
8
BLACK
6
CONTINUOUS
10
5.9591642125984254
20
-4.1433732283464568
11
5.9590832677165357
21
-4.1434397244094487
0
LINE
8
BLACK
6
CONTINUOUS
10
5.9590832677165357
20
-4.1434397244094487
11
5.9590112992125981
21
-4.1434695275590547
0
LINE
8
BLACK
6
CONTINUOUS
10
5.9590112992125981
20
-4.1434695275590547
11
5.9587633070866142
21
-4.1436256299212602
0
LINE
8
BLACK
6
CONTINUOUS
10
5.9587633070866142
20
-4.1436256299212602
11
5.9550137795275591
21
-4.1455003937007877
0
LINE
8
BLACK
6
CONTINUOUS
10
5.9550137795275591
20
-4.1455003937007877
11
5.954473149606299
21
-4.1457072834645672
0
LINE
8
BLACK
6
CONTINUOUS
10
5.954473149606299
20
-4.1457072834645672
11
5.9543673228346456
21
-4.1457147637795275
0
LINE
8
BLACK
6
CONTINUOUS
10
5.9543673228346456
20
-4.1457147637795275
11
5.9542693307086614
21
-4.1457553937007869
0
LINE
8
BLACK
6
CONTINUOUS
10
5.9542693307086614
20
-4.1457553937007869
11
5.9536932677165355
21
-4.1458121259842518
0
LINE
8
BLACK
6
CONTINUOUS
10
5.9536932677165355
20
-4.1458121259842518
11
5.9416479133858262
21
-4.1458121259842518
0
LINE
8
BLACK
6
CONTINUOUS
10
5.9416479133858262
20
-4.1458121259842518
11
5.9416479133858262
21
-4.161607047244094
0
LINE
8
BLACK
6
CONTINUOUS
10
5.9416479133858262
20
-4.161607047244094
11
5.9415911811023623
21
-4.1621831102362208
0
LINE
8
BLACK
6
CONTINUOUS
10
5.9415911811023623
20
-4.1621831102362208
11
5.9411502755905508
21
-4.1632475196850391
0
LINE
8
BLACK
6
CONTINUOUS
10
5.9411502755905508
20
-4.1632475196850391
11
5.9403356299212593
21
-4.1640621653543306
0
LINE
8
BLACK
6
CONTINUOUS
10
5.9403356299212593
20
-4.1640621653543306
11
5.9392712204724409
21
-4.1645030708661412
0
LINE
8
BLACK
6
CONTINUOUS
10
5.9392712204724409
20
-4.1645030708661412
11
5.9381190944881892
21
-4.1645030708661412
0
LINE
8
BLACK
6
CONTINUOUS
10
5.9381190944881892
20
-4.1645030708661412
11
5.93705468503937
21
-4.1640621653543306
0
LINE
8
BLACK
6
CONTINUOUS
10
5.93705468503937
20
-4.1640621653543306
11
5.9362400393700785
21
-4.1632475196850391
0
LINE
8
BLACK
6
CONTINUOUS
10
5.9362400393700785
20
-4.1632475196850391
11
5.9357991338582679
21
-4.1621831102362208
0
LINE
8
BLACK
6
CONTINUOUS
10
5.9357991338582679
20
-4.1621831102362208
11
5.935742401574803
21
-4.161607047244094
0
LINE
8
BLACK
6
CONTINUOUS
10
5.935742401574803
20
-4.161607047244094
11
5.935742401574803
21
-4.1222369685039366
0
LINE
8
BLACK
6
CONTINUOUS
10
5.935742401574803
20
-4.1222369685039366
11
5.9357991338582679
21
-4.1216609055118107
0
LINE
8
BLACK
6
CONTINUOUS
10
5.9357991338582679
20
-4.1216609055118107
11
5.9362400393700785
21
-4.1205964960629924
0
LINE
8
BLACK
6
CONTINUOUS
10
5.9362400393700785
20
-4.1205964960629924
11
5.93705468503937
21
-4.1197818503937009
0
LINE
8
BLACK
6
CONTINUOUS
10
5.93705468503937
20
-4.1197818503937009
11
5.9381190944881892
21
-4.1193409448818894
0
LINE
8
BLACK
6
CONTINUOUS
10
5.9381190944881892
20
-4.1193409448818894
11
5.9386951574803151
21
-4.1192842125984255
0
LINE
8
BLACK
6
CONTINUOUS
10
5.9386951574803151
20
-4.1192842125984255
11
5.9536932677165355
21
-4.1192842125984255
0
LINE
8
BLACK
6
CONTINUOUS
10
5.9536932677165355
20
-4.1192842125984255
11
5.9542693307086614
21
-4.1193409448818894
0
LINE
8
BLACK
6
CONTINUOUS
10
5.9416479133858262
20
-4.1399066141732286
11
5.9529962204724409
21
-4.1399066141732286
0
LINE
8
BLACK
6
CONTINUOUS
10
5.9529962204724409
20
-4.1399066141732286
11
5.9556937007874016
21
-4.1385578740157483
0
LINE
8
BLACK
6
CONTINUOUS
10
5.9556937007874016
20
-4.1385578740157483
11
5.9568908267716534
21
-4.1373607480314956
0
LINE
8
BLACK
6
CONTINUOUS
10
5.9568908267716534
20
-4.1373607480314956
11
5.9582395669291337
21
-4.1346632677165349
0
LINE
8
BLACK
6
CONTINUOUS
10
5.9582395669291337
20
-4.1346632677165349
11
5.9582395669291337
21
-4.1304330708661414
0
LINE
8
BLACK
6
CONTINUOUS
10
5.9582395669291337
20
-4.1304330708661414
11
5.9568908267716534
21
-4.1277355905511808
0
LINE
8
BLACK
6
CONTINUOUS
10
5.9568908267716534
20
-4.1277355905511808
11
5.9556937007874016
21
-4.126538464566929
0
LINE
8
BLACK
6
CONTINUOUS
10
5.9556937007874016
20
-4.126538464566929
11
5.9529962204724409
21
-4.1251897244094486
0
LINE
8
BLACK
6
CONTINUOUS
10
5.9529962204724409
20
-4.1251897244094486
11
5.9416479133858262
21
-4.1251897244094486
0
LINE
8
BLACK
6
CONTINUOUS
10
5.9416479133858262
20
-4.1251897244094486
11
5.9416479133858262
21
-4.1399066141732286
0
LINE
8
BLACK
6
CONTINUOUS
10
6.0487575196850392
20
-4.1193409448818894
11
6.0488555118110234
21
-4.119381535433071
0
LINE
8
BLACK
6
CONTINUOUS
10
6.0488555118110234
20
-4.119381535433071
11
6.0489613385826768
21
-4.11938905511811
0
LINE
8
BLACK
6
CONTINUOUS
10
6.0489613385826768
20
-4.11938905511811
11
6.0495019685039368
21
-4.1195959448818895
0
LINE
8
BLACK
6
CONTINUOUS
10
6.0495019685039368
20
-4.1195959448818895
11
6.053251496062992
21
-4.1214707086614171
0
LINE
8
BLACK
6
CONTINUOUS
10
6.053251496062992
20
-4.1214707086614171
11
6.0534994881889759
21
-4.1216267716535429
0
LINE
8
BLACK
6
CONTINUOUS
10
6.0534994881889759
20
-4.1216267716535429
11
6.0535714566929135
21
-4.1216566141732285
0
LINE
8
BLACK
6
CONTINUOUS
10
6.0535714566929135
20
-4.1216566141732285
11
6.0536524015748032
21
-4.1217230708661416
0
LINE
8
BLACK
6
CONTINUOUS
10
6.0536524015748032
20
-4.1217230708661416
11
6.0537413779527558
21
-4.1217790551181102
0
LINE
8
BLACK
6
CONTINUOUS
10
6.0537413779527558
20
-4.1217790551181102
11
6.0537925196850395
21
-4.121838031496063
0
LINE
8
BLACK
6
CONTINUOUS
10
6.0537925196850395
20
-4.121838031496063
11
6.0540188976377953
21
-4.1220238188976381
0
LINE
8
BLACK
6
CONTINUOUS
10
6.0540188976377953
20
-4.1220238188976381
11
6.0558936614173229
21
-4.1238985826771657
0
LINE
8
BLACK
6
CONTINUOUS
10
6.0558936614173229
20
-4.1238985826771657
11
6.0560794094488184
21
-4.1241249212598428
0
LINE
8
BLACK
6
CONTINUOUS
10
6.0560794094488184
20
-4.1241249212598428
11
6.05613842519685
21
-4.1241761023622043
0
LINE
8
BLACK
6
CONTINUOUS
10
6.05613842519685
20
-4.1241761023622043
11
6.0561943700787397
21
-4.124265039370079
0
LINE
8
BLACK
6
CONTINUOUS
10
6.0561943700787397
20
-4.124265039370079
11
6.0562608661417325
21
-4.1243460236220475
0
LINE
8
BLACK
6
CONTINUOUS
10
6.0562608661417325
20
-4.1243460236220475
11
6.0562906692913385
21
-4.1244179527559055
0
LINE
8
BLACK
6
CONTINUOUS
10
6.0562906692913385
20
-4.1244179527559055
11
6.0564467716535431
21
-4.1246659842519682
0
LINE
8
BLACK
6
CONTINUOUS
10
6.0564467716535431
20
-4.1246659842519682
11
6.0583215354330706
21
-4.1284155118110233
0
LINE
8
BLACK
6
CONTINUOUS
10
6.0583215354330706
20
-4.1284155118110233
11
6.0585284251968501
21
-4.1289561023622046
0
LINE
8
BLACK
6
CONTINUOUS
10
6.0585284251968501
20
-4.1289561023622046
11
6.0585359448818901
21
-4.1290619685039367
0
LINE
8
BLACK
6
CONTINUOUS
10
6.0585359448818901
20
-4.1290619685039367
11
6.0585765354330707
21
-4.129159960629921
0
LINE
8
BLACK
6
CONTINUOUS
10
6.0585765354330707
20
-4.129159960629921
11
6.0586332677165355
21
-4.1297360236220468
0
LINE
8
BLACK
6
CONTINUOUS
10
6.0586332677165355
20
-4.1297360236220468
11
6.0586332677165355
21
-4.1353603149606295
0
LINE
8
BLACK
6
CONTINUOUS
10
6.0586332677165355
20
-4.1353603149606295
11
6.0585765354330707
21
-4.1359363779527554
0
LINE
8
BLACK
6
CONTINUOUS
10
6.0585765354330707
20
-4.1359363779527554
11
6.0585359448818901
21
-4.1360343307086609
0
LINE
8
BLACK
6
CONTINUOUS
10
6.0585359448818901
20
-4.1360343307086609
11
6.0585284251968501
21
-4.1361402362204727
0
LINE
8
BLACK
6
CONTINUOUS
10
6.0585284251968501
20
-4.1361402362204727
11
6.0583215354330706
21
-4.1366808267716531
0
LINE
8
BLACK
6
CONTINUOUS
10
6.0583215354330706
20
-4.1366808267716531
11
6.0564467716535431
21
-4.1404303543307082
0
LINE
8
BLACK
6
CONTINUOUS
10
6.0564467716535431
20
-4.1404303543307082
11
6.0562906692913385
21
-4.140678346456693
0
LINE
8
BLACK
6
CONTINUOUS
10
6.0562906692913385
20
-4.140678346456693
11
6.0562608661417325
21
-4.1407503149606297
0
LINE
8
BLACK
6
CONTINUOUS
10
6.0562608661417325
20
-4.1407503149606297
11
6.0561943700787397
21
-4.1408312598425194
0
LINE
8
BLACK
6
CONTINUOUS
10
6.0561943700787397
20
-4.1408312598425194
11
6.05613842519685
21
-4.140920236220472
0
LINE
8
BLACK
6
CONTINUOUS
10
6.05613842519685
20
-4.140920236220472
11
6.0560794094488184
21
-4.1409713779527557
0
LINE
8
BLACK
6
CONTINUOUS
10
6.0560794094488184
20
-4.1409713779527557
11
6.0558936614173229
21
-4.1411977559055115
0
LINE
8
BLACK
6
CONTINUOUS
10
6.0558936614173229
20
-4.1411977559055115
11
6.0540188976377953
21
-4.1430725196850391
0
LINE
8
BLACK
6
CONTINUOUS
10
6.0540188976377953
20
-4.1430725196850391
11
6.0537925196850395
21
-4.1432582677165355
0
LINE
8
BLACK
6
CONTINUOUS
10
6.0537925196850395
20
-4.1432582677165355
11
6.0537413779527558
21
-4.1433172834645671
0
LINE
8
BLACK
6
CONTINUOUS
10
6.0537413779527558
20
-4.1433172834645671
11
6.0536524015748032
21
-4.1433732283464568
0
LINE
8
BLACK
6
CONTINUOUS
10
6.0536524015748032
20
-4.1433732283464568
11
6.0535714566929135
21
-4.1434397244094487
0
LINE
8
BLACK
6
CONTINUOUS
10
6.0535714566929135
20
-4.1434397244094487
11
6.0534994881889759
21
-4.1434695275590547
0
LINE
8
BLACK
6
CONTINUOUS
10
6.0534994881889759
20
-4.1434695275590547
11
6.053251496062992
21
-4.1436256299212602
0
LINE
8
BLACK
6
CONTINUOUS
10
6.053251496062992
20
-4.1436256299212602
11
6.0495019685039368
21
-4.1455003937007877
0
LINE
8
BLACK
6
CONTINUOUS
10
6.0495019685039368
20
-4.1455003937007877
11
6.0489613385826768
21
-4.1457072834645672
0
LINE
8
BLACK
6
CONTINUOUS
10
6.0489613385826768
20
-4.1457072834645672
11
6.0488555118110234
21
-4.1457147637795275
0
LINE
8
BLACK
6
CONTINUOUS
10
6.0488555118110234
20
-4.1457147637795275
11
6.0487575196850392
21
-4.1457553937007869
0
LINE
8
BLACK
6
CONTINUOUS
10
6.0487575196850392
20
-4.1457553937007869
11
6.0481814566929133
21
-4.1458121259842518
0
LINE
8
BLACK
6
CONTINUOUS
10
6.0481814566929133
20
-4.1458121259842518
11
6.0361361023622049
21
-4.1458121259842518
0
LINE
8
BLACK
6
CONTINUOUS
10
6.0361361023622049
20
-4.1458121259842518
11
6.0361361023622049
21
-4.161607047244094
0
LINE
8
BLACK
6
CONTINUOUS
10
6.0361361023622049
20
-4.161607047244094
11
6.0360793700787401
21
-4.1621831102362208
0
LINE
8
BLACK
6
CONTINUOUS
10
6.0360793700787401
20
-4.1621831102362208
11
6.0356384645669294
21
-4.1632475196850391
0
LINE
8
BLACK
6
CONTINUOUS
10
6.0356384645669294
20
-4.1632475196850391
11
6.034823818897638
21
-4.1640621653543306
0
LINE
8
BLACK
6
CONTINUOUS
10
6.034823818897638
20
-4.1640621653543306
11
6.0337594094488187
21
-4.1645030708661412
0
LINE
8
BLACK
6
CONTINUOUS
10
6.0337594094488187
20
-4.1645030708661412
11
6.032607283464567
21
-4.1645030708661412
0
LINE
8
BLACK
6
CONTINUOUS
10
6.032607283464567
20
-4.1645030708661412
11
6.0315428740157477
21
-4.1640621653543306
0
LINE
8
BLACK
6
CONTINUOUS
10
6.0315428740157477
20
-4.1640621653543306
11
6.0307282283464563
21
-4.1632475196850391
0
LINE
8
BLACK
6
CONTINUOUS
10
6.0307282283464563
20
-4.1632475196850391
11
6.0302873228346456
21
-4.1621831102362208
0
LINE
8
BLACK
6
CONTINUOUS
10
6.0302873228346456
20
-4.1621831102362208
11
6.0302305905511808
21
-4.161607047244094
0
LINE
8
BLACK
6
CONTINUOUS
10
6.0302305905511808
20
-4.161607047244094
11
6.0302305905511808
21
-4.1222369685039366
0
LINE
8
BLACK
6
CONTINUOUS
10
6.0302305905511808
20
-4.1222369685039366
11
6.0302873228346456
21
-4.1216609055118107
0
LINE
8
BLACK
6
CONTINUOUS
10
6.0302873228346456
20
-4.1216609055118107
11
6.0307282283464563
21
-4.1205964960629924
0
LINE
8
BLACK
6
CONTINUOUS
10
6.0307282283464563
20
-4.1205964960629924
11
6.0315428740157477
21
-4.1197818503937009
0
LINE
8
BLACK
6
CONTINUOUS
10
6.0315428740157477
20
-4.1197818503937009
11
6.032607283464567
21
-4.1193409448818894
0
LINE
8
BLACK
6
CONTINUOUS
10
6.032607283464567
20
-4.1193409448818894
11
6.0331833464566929
21
-4.1192842125984255
0
LINE
8
BLACK
6
CONTINUOUS
10
6.0331833464566929
20
-4.1192842125984255
11
6.0481814566929133
21
-4.1192842125984255
0
LINE
8
BLACK
6
CONTINUOUS
10
6.0481814566929133
20
-4.1192842125984255
11
6.0487575196850392
21
-4.1193409448818894
0
LINE
8
BLACK
6
CONTINUOUS
10
6.0361361023622049
20
-4.1399066141732286
11
6.0474844094488187
21
-4.1399066141732286
0
LINE
8
BLACK
6
CONTINUOUS
10
6.0474844094488187
20
-4.1399066141732286
11
6.0501818897637794
21
-4.1385578740157483
0
LINE
8
BLACK
6
CONTINUOUS
10
6.0501818897637794
20
-4.1385578740157483
11
6.0513790157480312
21
-4.1373607480314956
0
LINE
8
BLACK
6
CONTINUOUS
10
6.0513790157480312
20
-4.1373607480314956
11
6.0527277559055115
21
-4.1346632677165349
0
LINE
8
BLACK
6
CONTINUOUS
10
6.0527277559055115
20
-4.1346632677165349
11
6.0527277559055115
21
-4.1304330708661414
0
LINE
8
BLACK
6
CONTINUOUS
10
6.0527277559055115
20
-4.1304330708661414
11
6.0513790157480312
21
-4.1277355905511808
0
LINE
8
BLACK
6
CONTINUOUS
10
6.0513790157480312
20
-4.1277355905511808
11
6.0501818897637794
21
-4.126538464566929
0
LINE
8
BLACK
6
CONTINUOUS
10
6.0501818897637794
20
-4.126538464566929
11
6.0474844094488187
21
-4.1251897244094486
0
LINE
8
BLACK
6
CONTINUOUS
10
6.0474844094488187
20
-4.1251897244094486
11
6.0361361023622049
21
-4.1251897244094486
0
LINE
8
BLACK
6
CONTINUOUS
10
6.0361361023622049
20
-4.1251897244094486
11
6.0361361023622049
21
-4.1399066141732286
0
LINE
8
BLACK
6
CONTINUOUS
10
5.9986876377952756
20
-4.036607047244094
11
6.0200599606299212
21
-4.036607047244094
0
LINE
8
BLACK
6
CONTINUOUS
10
6.0200599606299212
20
-4.036607047244094
11
6.0206360236220471
21
-4.0366637795275588
0
LINE
8
BLACK
6
CONTINUOUS
10
6.0206360236220471
20
-4.0366637795275588
11
6.0217004330708663
21
-4.0371046850393704
0
LINE
8
BLACK
6
CONTINUOUS
10
6.0217004330708663
20
-4.0371046850393704
11
6.0225150787401569
21
-4.0379193307086609
0
LINE
8
BLACK
6
CONTINUOUS
10
6.0225150787401569
20
-4.0379193307086609
11
6.0229559842519684
21
-4.0389837401574802
0
LINE
8
BLACK
6
CONTINUOUS
10
6.0229559842519684
20
-4.0389837401574802
11
6.0229559842519684
21
-4.0401358661417319
0
LINE
8
BLACK
6
CONTINUOUS
10
6.0229559842519684
20
-4.0401358661417319
11
6.0225150787401569
21
-4.0412002755905512
0
LINE
8
BLACK
6
CONTINUOUS
10
6.0225150787401569
20
-4.0412002755905512
11
6.0217004330708663
21
-4.0420149212598426
0
LINE
8
BLACK
6
CONTINUOUS
10
6.0217004330708663
20
-4.0420149212598426
11
6.0206360236220471
21
-4.0424558267716533
0
LINE
8
BLACK
6
CONTINUOUS
10
6.0206360236220471
20
-4.0424558267716533
11
6.0200599606299212
21
-4.0425125590551181
0
LINE
8
BLACK
6
CONTINUOUS
10
6.0200599606299212
20
-4.0425125590551181
11
6.0117641338582679
21
-4.0425125590551181
0
LINE
8
BLACK
6
CONTINUOUS
10
6.0117641338582679
20
-4.0425125590551181
11
6.0117641338582679
21
-4.0789298818897635
0
LINE
8
BLACK
6
CONTINUOUS
10
6.0117641338582679
20
-4.0789298818897635
11
6.0117074015748031
21
-4.0795059448818893
0
LINE
8
BLACK
6
CONTINUOUS
10
6.0117074015748031
20
-4.0795059448818893
11
6.0112664960629916
21
-4.0805703543307086
0
LINE
8
BLACK
6
CONTINUOUS
10
6.0112664960629916
20
-4.0805703543307086
11
6.010451850393701
21
-4.081385
0
LINE
8
BLACK
6
CONTINUOUS
10
6.010451850393701
20
-4.081385
11
6.0093874409448818
21
-4.0818259055118107
0
LINE
8
BLACK
6
CONTINUOUS
10
6.0093874409448818
20
-4.0818259055118107
11
6.00823531496063
21
-4.0818259055118107
0
LINE
8
BLACK
6
CONTINUOUS
10
6.00823531496063
20
-4.0818259055118107
11
6.0071709055118108
21
-4.081385
0
LINE
8
BLACK
6
CONTINUOUS
10
6.0071709055118108
20
-4.081385
11
6.0063562598425193
21
-4.0805703543307086
0
LINE
8
BLACK
6
CONTINUOUS
10
6.0063562598425193
20
-4.0805703543307086
11
6.0059153543307087
21
-4.0795059448818893
0
LINE
8
BLACK
6
CONTINUOUS
10
6.0059153543307087
20
-4.0795059448818893
11
6.0058586220472439
21
-4.0789298818897635
0
LINE
8
BLACK
6
CONTINUOUS
10
6.0058586220472439
20
-4.0789298818897635
11
6.0058586220472439
21
-4.0425125590551181
0
LINE
8
BLACK
6
CONTINUOUS
10
6.0058586220472439
20
-4.0425125590551181
11
6.0000274803149605
21
-4.0425125590551181
0
LINE
8
BLACK
6
CONTINUOUS
10
6.0000274803149605
20
-4.0425125590551181
11
5.9919768897637793
21
-4.0517132283464568
0
LINE
8
BLACK
6
CONTINUOUS
10
5.9919768897637793
20
-4.0517132283464568
11
5.9925090944881889
21
-4.0519168897637794
0
LINE
8
BLACK
6
CONTINUOUS
10
5.9925090944881889
20
-4.0519168897637794
11
5.996258622047244
21
-4.0537916535433069
0
LINE
8
BLACK
6
CONTINUOUS
10
5.996258622047244
20
-4.0537916535433069
11
5.9965066141732279
21
-4.0539477165354327
0
LINE
8
BLACK
6
CONTINUOUS
10
5.9965066141732279
20
-4.0539477165354327
11
5.9965785826771656
21
-4.0539775590551184
0
LINE
8
BLACK
6
CONTINUOUS
10
5.9965785826771656
20
-4.0539775590551184
11
5.9966595275590553
21
-4.0540440157480315
0
LINE
8
BLACK
6
CONTINUOUS
10
5.9966595275590553
20
-4.0540440157480315
11
5.9967485039370079
21
-4.0541
0
LINE
8
BLACK
6
CONTINUOUS
10
5.9967485039370079
20
-4.0541
11
5.9967996456692916
21
-4.0541589763779529
0
LINE
8
BLACK
6
CONTINUOUS
10
5.9967996456692916
20
-4.0541589763779529
11
5.9970260236220474
21
-4.0543447637795271
0
LINE
8
BLACK
6
CONTINUOUS
10
5.9970260236220474
20
-4.0543447637795271
11
5.998900787401575
21
-4.0562195275590547
0
LINE
8
BLACK
6
CONTINUOUS
10
5.998900787401575
20
-4.0562195275590547
11
5.9990865354330705
21
-4.0564458661417317
0
LINE
8
BLACK
6
CONTINUOUS
10
5.9990865354330705
20
-4.0564458661417317
11
5.999145551181102
21
-4.0564970472440942
0
LINE
8
BLACK
6
CONTINUOUS
10
5.999145551181102
20
-4.0564970472440942
11
5.9992014960629918
21
-4.056585984251968
0
LINE
8
BLACK
6
CONTINUOUS
10
5.9992014960629918
20
-4.056585984251968
11
5.9992679921259837
21
-4.0566669685039365
0
LINE
8
BLACK
6
CONTINUOUS
10
5.9992679921259837
20
-4.0566669685039365
11
5.9992977952755906
21
-4.0567388976377954
0
LINE
8
BLACK
6
CONTINUOUS
10
5.9992977952755906
20
-4.0567388976377954
11
5.9994538976377951
21
-4.0569869291338581
0
LINE
8
BLACK
6
CONTINUOUS
10
5.9994538976377951
20
-4.0569869291338581
11
6.0013286614173227
21
-4.0607364566929132
0
LINE
8
BLACK
6
CONTINUOUS
10
6.0013286614173227
20
-4.0607364566929132
11
6.0015355511811022
21
-4.0612770472440944
0
LINE
8
BLACK
6
CONTINUOUS
10
6.0015355511811022
20
-4.0612770472440944
11
6.0015430708661412
21
-4.0613829133858266
0
LINE
8
BLACK
6
CONTINUOUS
10
6.0015430708661412
20
-4.0613829133858266
11
6.0015836614173228
21
-4.0614809055118108
0
LINE
8
BLACK
6
CONTINUOUS
10
6.0015836614173228
20
-4.0614809055118108
11
6.0016403937007876
21
-4.0620569685039367
0
LINE
8
BLACK
6
CONTINUOUS
10
6.0016403937007876
20
-4.0620569685039367
11
6.0016403937007876
21
-4.0714307874015745
0
LINE
8
BLACK
6
CONTINUOUS
10
6.0016403937007876
20
-4.0714307874015745
11
6.0015836614173228
21
-4.0720068503937004
0
LINE
8
BLACK
6
CONTINUOUS
10
6.0015836614173228
20
-4.0720068503937004
11
6.0015430708661412
21
-4.0721048031496059
0
LINE
8
BLACK
6
CONTINUOUS
10
6.0015430708661412
20
-4.0721048031496059
11
6.0015355511811022
21
-4.0722107086614177
0
LINE
8
BLACK
6
CONTINUOUS
10
6.0015355511811022
20
-4.0722107086614177
11
6.0013286614173227
21
-4.072751299212598
0
LINE
8
BLACK
6
CONTINUOUS
10
6.0013286614173227
20
-4.072751299212598
11
5.9994538976377951
21
-4.0765008267716532
0
LINE
8
BLACK
6
CONTINUOUS
10
5.9994538976377951
20
-4.0765008267716532
11
5.9992978346456693
21
-4.0767487007874017
0
LINE
8
BLACK
6
CONTINUOUS
10
5.9992978346456693
20
-4.0767487007874017
11
5.9992680314960625
21
-4.076820748031496
0
LINE
8
BLACK
6
CONTINUOUS
10
5.9992680314960625
20
-4.076820748031496
11
5.9992014960629918
21
-4.0769017716535432
0
LINE
8
BLACK
6
CONTINUOUS
10
5.9992014960629918
20
-4.0769017716535432
11
5.999145551181102
21
-4.076990708661417
0
LINE
8
BLACK
6
CONTINUOUS
10
5.999145551181102
20
-4.076990708661417
11
5.9990865354330705
21
-4.0770418503937007
0
LINE
8
BLACK
6
CONTINUOUS
10
5.9990865354330705
20
-4.0770418503937007
11
5.998900787401575
21
-4.0772682283464565
0
LINE
8
BLACK
6
CONTINUOUS
10
5.998900787401575
20
-4.0772682283464565
11
5.9970260629921261
21
-4.0791429921259841
0
LINE
8
BLACK
6
CONTINUOUS
10
5.9970260629921261
20
-4.0791429921259841
11
5.9967996850393703
21
-4.0793287401574805
0
LINE
8
BLACK
6
CONTINUOUS
10
5.9967996850393703
20
-4.0793287401574805
11
5.9967485039370079
21
-4.0793877952755908
0
LINE
8
BLACK
6
CONTINUOUS
10
5.9967485039370079
20
-4.0793877952755908
11
5.9966595275590553
21
-4.0794437795275593
0
LINE
8
BLACK
6
CONTINUOUS
10
5.9966595275590553
20
-4.0794437795275593
11
5.9965785826771656
21
-4.0795102362204725
0
LINE
8
BLACK
6
CONTINUOUS
10
5.9965785826771656
20
-4.0795102362204725
11
5.9965066141732279
21
-4.0795400393700785
0
LINE
8
BLACK
6
CONTINUOUS
10
5.9965066141732279
20
-4.0795400393700785
11
5.996258622047244
21
-4.079696141732283
0
LINE
8
BLACK
6
CONTINUOUS
10
5.996258622047244
20
-4.079696141732283
11
5.9925090944881889
21
-4.0815709055118106
0
LINE
8
BLACK
6
CONTINUOUS
10
5.9925090944881889
20
-4.0815709055118106
11
5.9919684645669289
21
-4.08177779527559
0
LINE
8
BLACK
6
CONTINUOUS
10
5.9919684645669289
20
-4.08177779527559
11
5.9918626377952755
21
-4.0817852755905513
0
LINE
8
BLACK
6
CONTINUOUS
10
5.9918626377952755
20
-4.0817852755905513
11
5.9917646456692912
21
-4.0818259055118107
0
LINE
8
BLACK
6
CONTINUOUS
10
5.9917646456692912
20
-4.0818259055118107
11
5.9911885826771654
21
-4.0818826377952755
0
LINE
8
BLACK
6
CONTINUOUS
10
5.9911885826771654
20
-4.0818826377952755
11
5.97994
21
-4.0818826377952755
0
LINE
8
BLACK
6
CONTINUOUS
10
5.97994
20
-4.0818826377952755
11
5.9793639370078742
21
-4.0818259055118107
0
LINE
8
BLACK
6
CONTINUOUS
10
5.9793639370078742
20
-4.0818259055118107
11
5.9792659448818899
21
-4.08178531496063
0
LINE
8
BLACK
6
CONTINUOUS
10
5.9792659448818899
20
-4.08178531496063
11
5.9791600787401578
21
-4.08177779527559
0
LINE
8
BLACK
6
CONTINUOUS
10
5.9791600787401578
20
-4.08177779527559
11
5.9786194881889765
21
-4.0815709055118106
0
LINE
8
BLACK
6
CONTINUOUS
10
5.9786194881889765
20
-4.0815709055118106
11
5.9748699606299214
21
-4.079696141732283
0
LINE
8
BLACK
6
CONTINUOUS
10
5.9748699606299214
20
-4.079696141732283
11
5.9746219291338578
21
-4.0795400393700785
0
LINE
8
BLACK
6
CONTINUOUS
10
5.9746219291338578
20
-4.0795400393700785
11
5.9745499999999998
21
-4.0795102362204725
0
LINE
8
BLACK
6
CONTINUOUS
10
5.9745499999999998
20
-4.0795102362204725
11
5.9744690157480314
21
-4.0794437795275593
0
LINE
8
BLACK
6
CONTINUOUS
10
5.9744690157480314
20
-4.0794437795275593
11
5.9743800787401575
21
-4.0793877952755908
0
LINE
8
BLACK
6
CONTINUOUS
10
5.9743800787401575
20
-4.0793877952755908
11
5.9743288582677163
21
-4.0793287401574805
0
LINE
8
BLACK
6
CONTINUOUS
10
5.9743288582677163
20
-4.0793287401574805
11
5.9741025196850392
21
-4.0791429921259841
0
LINE
8
BLACK
6
CONTINUOUS
10
5.9741025196850392
20
-4.0791429921259841
11
5.9722277559055117
21
-4.0772681889763778
0
LINE
8
BLACK
6
CONTINUOUS
10
5.9722277559055117
20
-4.0772681889763778
11
5.971860551181102
21
-4.076820748031496
0
LINE
8
BLACK
6
CONTINUOUS
10
5.971860551181102
20
-4.076820748031496
11
5.9714196850393702
21
-4.0757563385826767
0
LINE
8
BLACK
6
CONTINUOUS
10
5.9714196850393702
20
-4.0757563385826767
11
5.9714196850393702
21
-4.0746042519685037
0
LINE
8
BLACK
6
CONTINUOUS
10
5.9714196850393702
20
-4.0746042519685037
11
5.9718605905511808
21
-4.0735398425196854
0
LINE
8
BLACK
6
CONTINUOUS
10
5.9718605905511808
20
-4.0735398425196854
11
5.972675275590551
21
-4.0727251574803152
0
LINE
8
BLACK
6
CONTINUOUS
10
5.972675275590551
20
-4.0727251574803152
11
5.9737396850393703
21
-4.0722842913385824
0
LINE
8
BLACK
6
CONTINUOUS
10
5.9737396850393703
20
-4.0722842913385824
11
5.9748917716535432
21
-4.0722842913385824
0
LINE
8
BLACK
6
CONTINUOUS
10
5.9748917716535432
20
-4.0722842913385824
11
5.9759561811023625
21
-4.0727251968503939
0
LINE
8
BLACK
6
CONTINUOUS
10
5.9759561811023625
20
-4.0727251968503939
11
5.976403661417323
21
-4.0730924409448814
0
LINE
8
BLACK
6
CONTINUOUS
10
5.976403661417323
20
-4.0730924409448814
11
5.977939566929134
21
-4.074628385826772
0
LINE
8
BLACK
6
CONTINUOUS
10
5.977939566929134
20
-4.074628385826772
11
5.9806370472440946
21
-4.0759771259842514
0
LINE
8
BLACK
6
CONTINUOUS
10
5.9806370472440946
20
-4.0759771259842514
11
5.9904915354330708
21
-4.0759771259842514
0
LINE
8
BLACK
6
CONTINUOUS
10
5.9904915354330708
20
-4.0759771259842514
11
5.9931889763779527
21
-4.074628385826772
0
LINE
8
BLACK
6
CONTINUOUS
10
5.9931889763779527
20
-4.074628385826772
11
5.9943861023622045
21
-4.0734312204724406
0
LINE
8
BLACK
6
CONTINUOUS
10
5.9943861023622045
20
-4.0734312204724406
11
5.9957348818897636
21
-4.0707337401574799
0
LINE
8
BLACK
6
CONTINUOUS
10
5.9957348818897636
20
-4.0707337401574799
11
5.9957348818897636
21
-4.0627540157480313
0
LINE
8
BLACK
6
CONTINUOUS
10
5.9957348818897636
20
-4.0627540157480313
11
5.9943861417322832
21
-4.0600565354330707
0
LINE
8
BLACK
6
CONTINUOUS
10
5.9943861417322832
20
-4.0600565354330707
11
5.9931890157480314
21
-4.0588594094488188
0
LINE
8
BLACK
6
CONTINUOUS
10
5.9931890157480314
20
-4.0588594094488188
11
5.9904915354330708
21
-4.0575106692913385
0
LINE
8
BLACK
6
CONTINUOUS
10
5.9904915354330708
20
-4.0575106692913385
11
5.9855642913385827
21
-4.0575106692913385
0
LINE
8
BLACK
6
CONTINUOUS
10
5.9855642913385827
20
-4.0575106692913385
11
5.9852596062992127
21
-4.05748062992126
0
LINE
8
BLACK
6
CONTINUOUS
10
5.9852596062992127
20
-4.05748062992126
11
5.9851821653543302
21
-4.0574858267716536
0
LINE
8
BLACK
6
CONTINUOUS
10
5.9851821653543302
20
-4.0574858267716536
11
5.9851287795275585
21
-4.0574677559055115
0
LINE
8
BLACK
6
CONTINUOUS
10
5.9851287795275585
20
-4.0574677559055115
11
5.9849882283464568
21
-4.0574539370078737
0
LINE
8
BLACK
6
CONTINUOUS
10
5.9849882283464568
20
-4.0574539370078737
11
5.9845449999999998
21
-4.05727031496063
0
LINE
8
BLACK
6
CONTINUOUS
10
5.9845449999999998
20
-4.05727031496063
11
5.9840907874015743
21
-4.0571167322834647
0
LINE
8
BLACK
6
CONTINUOUS
10
5.9840907874015743
20
-4.0571167322834647
11
5.9840157874015745
21
-4.0570511417322832
0
LINE
8
BLACK
6
CONTINUOUS
10
5.9840157874015745
20
-4.0570511417322832
11
5.9839238188976376
21
-4.0570130314960631
0
LINE
8
BLACK
6
CONTINUOUS
10
5.9839238188976376
20
-4.0570130314960631
11
5.9835848031496059
21
-4.0566740157480314
0
LINE
8
BLACK
6
CONTINUOUS
10
5.9835848031496059
20
-4.0566740157480314
11
5.9832237007874012
21
-4.0563580708661418
0
LINE
8
BLACK
6
CONTINUOUS
10
5.9832237007874012
20
-4.0563580708661418
11
5.9831794881889762
21
-4.0562687007874016
0
LINE
8
BLACK
6
CONTINUOUS
10
5.9831794881889762
20
-4.0562687007874016
11
5.9831091732283461
21
-4.0561983858267716
0
LINE
8
BLACK
6
CONTINUOUS
10
5.9831091732283461
20
-4.0561983858267716
11
5.9829256692913386
21
-4.0557554330708658
0
LINE
8
BLACK
6
CONTINUOUS
10
5.9829256692913386
20
-4.0557554330708658
11
5.9827129921259843
21
-4.0553253149606299
0
LINE
8
BLACK
6
CONTINUOUS
10
5.9827129921259843
20
-4.0553253149606299
11
5.9827063385826769
21
-4.0552259448818893
0
LINE
8
BLACK
6
CONTINUOUS
10
5.9827063385826769
20
-4.0552259448818893
11
5.9826682677165355
21
-4.0551339763779524
0
LINE
8
BLACK
6
CONTINUOUS
10
5.9826682677165355
20
-4.0551339763779524
11
5.9826682677165355
21
-4.054654251968504
0
LINE
8
BLACK
6
CONTINUOUS
10
5.9826682677165355
20
-4.054654251968504
11
5.9826363779527556
21
-4.0541757874015749
0
LINE
8
BLACK
6
CONTINUOUS
10
5.9826363779527556
20
-4.0541757874015749
11
5.9826682677165355
21
-4.0540814566929129
0
LINE
8
BLACK
6
CONTINUOUS
10
5.9826682677165355
20
-4.0540814566929129
11
5.9826682677165355
21
-4.0539818503937006
0
LINE
8
BLACK
6
CONTINUOUS
10
5.9826682677165355
20
-4.0539818503937006
11
5.9828518503937005
21
-4.0535386220472436
0
LINE
8
BLACK
6
CONTINUOUS
10
5.9828518503937005
20
-4.0535386220472436
11
5.9830054724409445
21
-4.053084409448819
0
LINE
8
BLACK
6
CONTINUOUS
10
5.9830054724409445
20
-4.053084409448819
11
5.983087559055118
21
-4.0529695275590552
0
LINE
8
BLACK
6
CONTINUOUS
10
5.983087559055118
20
-4.0529695275590552
11
5.9831091732283461
21
-4.0529174409448814
0
LINE
8
BLACK
6
CONTINUOUS
10
5.9831091732283461
20
-4.0529174409448814
11
5.9831640944881892
21
-4.0528624803149604
0
LINE
8
BLACK
6
CONTINUOUS
10
5.9831640944881892
20
-4.0528624803149604
11
5.9833421259842519
21
-4.0526135039370077
0
LINE
8
BLACK
6
CONTINUOUS
10
5.9833421259842519
20
-4.0526135039370077
11
5.9921804724409444
21
-4.0425125590551181
0
LINE
8
BLACK
6
CONTINUOUS
10
5.9921804724409444
20
-4.0425125590551181
11
5.9743157086614174
21
-4.0425125590551181
0
LINE
8
BLACK
6
CONTINUOUS
10
5.9743157086614174
20
-4.0425125590551181
11
5.9737396456692915
21
-4.0424558267716533
0
LINE
8
BLACK
6
CONTINUOUS
10
5.9737396456692915
20
-4.0424558267716533
11
5.9726752362204723
21
-4.0420149212598426
0
LINE
8
BLACK
6
CONTINUOUS
10
5.9726752362204723
20
-4.0420149212598426
11
5.9718605905511808
21
-4.0412002755905512
0
LINE
8
BLACK
6
CONTINUOUS
10
5.9718605905511808
20
-4.0412002755905512
11
5.9714196850393702
21
-4.0401358661417319
0
LINE
8
BLACK
6
CONTINUOUS
10
5.9714196850393702
20
-4.0401358661417319
11
5.9714196850393702
21
-4.0389837401574802
0
LINE
8
BLACK
6
CONTINUOUS
10
5.9714196850393702
20
-4.0389837401574802
11
5.9718605905511808
21
-4.0379193307086609
0
LINE
8
BLACK
6
CONTINUOUS
10
5.9718605905511808
20
-4.0379193307086609
11
5.9726752362204723
21
-4.0371046850393704
0
LINE
8
BLACK
6
CONTINUOUS
10
5.9726752362204723
20
-4.0371046850393704
11
5.9737396456692915
21
-4.0366637795275588
0
LINE
8
BLACK
6
CONTINUOUS
10
5.9737396456692915
20
-4.0366637795275588
11
5.9743157086614174
21
-4.036607047244094
0
LINE
8
BLACK
6
CONTINUOUS
10
5.9743157086614174
20
-4.036607047244094
11
5.9986876377952756
21
-4.036607047244094
0
LINE
8
BLACK
6
CONTINUOUS
10
5.9261478346456693
20
-4.0366637795275588
11
5.9272122440944877
21
-4.0371046850393704
0
LINE
8
BLACK
6
CONTINUOUS
10
5.9272122440944877
20
-4.0371046850393704
11
5.9280268897637791
21
-4.0379193307086609
0
LINE
8
BLACK
6
CONTINUOUS
10
5.9280268897637791
20
-4.0379193307086609
11
5.9284677952755906
21
-4.0389837401574802
0
LINE
8
BLACK
6
CONTINUOUS
10
5.9284677952755906
20
-4.0389837401574802
11
5.9284677952755906
21
-4.0401358661417319
0
LINE
8
BLACK
6
CONTINUOUS
10
5.9284677952755906
20
-4.0401358661417319
11
5.9280268897637791
21
-4.0412002755905512
0
LINE
8
BLACK
6
CONTINUOUS
10
5.9280268897637791
20
-4.0412002755905512
11
5.9272122440944877
21
-4.0420149212598426
0
LINE
8
BLACK
6
CONTINUOUS
10
5.9272122440944877
20
-4.0420149212598426
11
5.9261478346456693
21
-4.0424558267716533
0
LINE
8
BLACK
6
CONTINUOUS
10
5.9261478346456693
20
-4.0424558267716533
11
5.9255717716535434
21
-4.0425125590551181
0
LINE
8
BLACK
6
CONTINUOUS
10
5.9255717716535434
20
-4.0425125590551181
11
5.9172759448818892
21
-4.0425125590551181
0
LINE
8
BLACK
6
CONTINUOUS
10
5.9172759448818892
20
-4.0425125590551181
11
5.9172759448818892
21
-4.0789298818897635
0
LINE
8
BLACK
6
CONTINUOUS
10
5.9172759448818892
20
-4.0789298818897635
11
5.9172192125984253
21
-4.0795059448818893
0
LINE
8
BLACK
6
CONTINUOUS
10
5.9172192125984253
20
-4.0795059448818893
11
5.9167783070866138
21
-4.0805703543307086
0
LINE
8
BLACK
6
CONTINUOUS
10
5.9167783070866138
20
-4.0805703543307086
11
5.9159636614173223
21
-4.081385
0
LINE
8
BLACK
6
CONTINUOUS
10
5.9159636614173223
20
-4.081385
11
5.914899251968504
21
-4.0818259055118107
0
LINE
8
BLACK
6
CONTINUOUS
10
5.914899251968504
20
-4.0818259055118107
11
5.9137471259842522
21
-4.0818259055118107
0
LINE
8
BLACK
6
CONTINUOUS
10
5.9137471259842522
20
-4.0818259055118107
11
5.912682716535433
21
-4.081385
0
LINE
8
BLACK
6
CONTINUOUS
10
5.912682716535433
20
-4.081385
11
5.9118680708661415
21
-4.0805703543307086
0
LINE
8
BLACK
6
CONTINUOUS
10
5.9118680708661415
20
-4.0805703543307086
11
5.9114271653543309
21
-4.0795059448818893
0
LINE
8
BLACK
6
CONTINUOUS
10
5.9114271653543309
20
-4.0795059448818893
11
5.9113704330708661
21
-4.0789298818897635
0
LINE
8
BLACK
6
CONTINUOUS
10
5.9113704330708661
20
-4.0789298818897635
11
5.9113704330708661
21
-4.0425125590551181
0
LINE
8
BLACK
6
CONTINUOUS
10
5.9113704330708661
20
-4.0425125590551181
11
5.9030746062992128
21
-4.0425125590551181
0
LINE
8
BLACK
6
CONTINUOUS
10
5.9030746062992128
20
-4.0425125590551181
11
5.9024985433070869
21
-4.0424558267716533
0
LINE
8
BLACK
6
CONTINUOUS
10
5.9024985433070869
20
-4.0424558267716533
11
5.9014341338582676
21
-4.0420149212598426
0
LINE
8
BLACK
6
CONTINUOUS
10
5.9014341338582676
20
-4.0420149212598426
11
5.9006194881889762
21
-4.0412002755905512
0
LINE
8
BLACK
6
CONTINUOUS
10
5.9006194881889762
20
-4.0412002755905512
11
5.9001785826771656
21
-4.0401358661417319
0
LINE
8
BLACK
6
CONTINUOUS
10
5.9001785826771656
20
-4.0401358661417319
11
5.9001785826771656
21
-4.0389837401574802
0
LINE
8
BLACK
6
CONTINUOUS
10
5.9001785826771656
20
-4.0389837401574802
11
5.9006194881889762
21
-4.0379193307086609
0
LINE
8
BLACK
6
CONTINUOUS
10
5.9006194881889762
20
-4.0379193307086609
11
5.9014341338582676
21
-4.0371046850393704
0
LINE
8
BLACK
6
CONTINUOUS
10
5.9014341338582676
20
-4.0371046850393704
11
5.9024985433070869
21
-4.0366637795275588
0
LINE
8
BLACK
6
CONTINUOUS
10
5.9024985433070869
20
-4.0366637795275588
11
5.9030746062992128
21
-4.036607047244094
0
LINE
8
BLACK
6
CONTINUOUS
10
5.9030746062992128
20
-4.036607047244094
11
5.9255717716535434
21
-4.036607047244094
0
LINE
8
BLACK
6
CONTINUOUS
10
5.9255717716535434
20
-4.036607047244094
11
5.9261478346456693
21
-4.0366637795275588
0
LINE
8
BLACK
6
CONTINUOUS
10
5.9542693307086614
20
-4.0366637795275588
11
5.9543673228346456
21
-4.0367043700787404
0
LINE
8
BLACK
6
CONTINUOUS
10
5.9543673228346456
20
-4.0367043700787404
11
5.954473149606299
21
-4.0367118897637795
0
LINE
8
BLACK
6
CONTINUOUS
10
5.954473149606299
20
-4.0367118897637795
11
5.9550137795275591
21
-4.036918779527559
0
LINE
8
BLACK
6
CONTINUOUS
10
5.9550137795275591
20
-4.036918779527559
11
5.9587633070866142
21
-4.0387935433070865
0
LINE
8
BLACK
6
CONTINUOUS
10
5.9587633070866142
20
-4.0387935433070865
11
5.9590112992125981
21
-4.0389496062992123
0
LINE
8
BLACK
6
CONTINUOUS
10
5.9590112992125981
20
-4.0389496062992123
11
5.9590832677165357
21
-4.0389794488188979
0
LINE
8
BLACK
6
CONTINUOUS
10
5.9590832677165357
20
-4.0389794488188979
11
5.9591642125984254
21
-4.0390459055118111
0
LINE
8
BLACK
6
CONTINUOUS
10
5.9591642125984254
20
-4.0390459055118111
11
5.959253188976378
21
-4.0391018897637796
0
LINE
8
BLACK
6
CONTINUOUS
10
5.959253188976378
20
-4.0391018897637796
11
5.9593043307086617
21
-4.0391608661417324
0
LINE
8
BLACK
6
CONTINUOUS
10
5.9593043307086617
20
-4.0391608661417324
11
5.9595307086614175
21
-4.0393466535433067
0
LINE
8
BLACK
6
CONTINUOUS
10
5.9595307086614175
20
-4.0393466535433067
11
5.9614054724409451
21
-4.0412214173228342
0
LINE
8
BLACK
6
CONTINUOUS
10
5.9614054724409451
20
-4.0412214173228342
11
5.9615912204724406
21
-4.0414477559055113
0
LINE
8
BLACK
6
CONTINUOUS
10
5.9615912204724406
20
-4.0414477559055113
11
5.9616502362204722
21
-4.0414989370078738
0
LINE
8
BLACK
6
CONTINUOUS
10
5.9616502362204722
20
-4.0414989370078738
11
5.9617061811023619
21
-4.0415878740157476
0
LINE
8
BLACK
6
CONTINUOUS
10
5.9617061811023619
20
-4.0415878740157476
11
5.9617726771653539
21
-4.041668858267716
0
LINE
8
BLACK
6
CONTINUOUS
10
5.9617726771653539
20
-4.041668858267716
11
5.9618024803149607
21
-4.0417407874015749
0
LINE
8
BLACK
6
CONTINUOUS
10
5.9618024803149607
20
-4.0417407874015749
11
5.9619585826771653
21
-4.0419888188976376
0
LINE
8
BLACK
6
CONTINUOUS
10
5.9619585826771653
20
-4.0419888188976376
11
5.9638333464566928
21
-4.0457383464566927
0
LINE
8
BLACK
6
CONTINUOUS
10
5.9638333464566928
20
-4.0457383464566927
11
5.9640402362204723
21
-4.046278937007874
0
LINE
8
BLACK
6
CONTINUOUS
10
5.9640402362204723
20
-4.046278937007874
11
5.9640477559055114
21
-4.0463848031496061
0
LINE
8
BLACK
6
CONTINUOUS
10
5.9640477559055114
20
-4.0463848031496061
11
5.9640883464566929
21
-4.0464827952755904
0
LINE
8
BLACK
6
CONTINUOUS
10
5.9640883464566929
20
-4.0464827952755904
11
5.9641450787401578
21
-4.0470588582677163
0
LINE
8
BLACK
6
CONTINUOUS
10
5.9641450787401578
20
-4.0470588582677163
11
5.9641450787401578
21
-4.0526831496062989
0
LINE
8
BLACK
6
CONTINUOUS
10
5.9641450787401578
20
-4.0526831496062989
11
5.9640883464566929
21
-4.0532592125984248
0
LINE
8
BLACK
6
CONTINUOUS
10
5.9640883464566929
20
-4.0532592125984248
11
5.9640477559055114
21
-4.0533571653543303
0
LINE
8
BLACK
6
CONTINUOUS
10
5.9640477559055114
20
-4.0533571653543303
11
5.9640402362204723
21
-4.0534630708661412
0
LINE
8
BLACK
6
CONTINUOUS
10
5.9640402362204723
20
-4.0534630708661412
11
5.9638333464566928
21
-4.0540036614173225
0
LINE
8
BLACK
6
CONTINUOUS
10
5.9638333464566928
20
-4.0540036614173225
11
5.9619585826771653
21
-4.0577531889763776
0
LINE
8
BLACK
6
CONTINUOUS
10
5.9619585826771653
20
-4.0577531889763776
11
5.9618024803149607
21
-4.0580011811023624
0
LINE
8
BLACK
6
CONTINUOUS
10
5.9618024803149607
20
-4.0580011811023624
11
5.9617726771653539
21
-4.0580731496062992
0
LINE
8
BLACK
6
CONTINUOUS
10
5.9617726771653539
20
-4.0580731496062992
11
5.9617061811023619
21
-4.0581540944881889
0
LINE
8
BLACK
6
CONTINUOUS
10
5.9617061811023619
20
-4.0581540944881889
11
5.9616502362204722
21
-4.0582430708661414
0
LINE
8
BLACK
6
CONTINUOUS
10
5.9616502362204722
20
-4.0582430708661414
11
5.9615912204724406
21
-4.0582942125984252
0
LINE
8
BLACK
6
CONTINUOUS
10
5.9615912204724406
20
-4.0582942125984252
11
5.9614054724409451
21
-4.058520590551181
0
LINE
8
BLACK
6
CONTINUOUS
10
5.9614054724409451
20
-4.058520590551181
11
5.9595307086614175
21
-4.0603953543307085
0
LINE
8
BLACK
6
CONTINUOUS
10
5.9595307086614175
20
-4.0603953543307085
11
5.9593043307086617
21
-4.0605811023622049
0
LINE
8
BLACK
6
CONTINUOUS
10
5.9593043307086617
20
-4.0605811023622049
11
5.959253188976378
21
-4.0606401181102365
0
LINE
8
BLACK
6
CONTINUOUS
10
5.959253188976378
20
-4.0606401181102365
11
5.9591642125984254
21
-4.0606960629921263
0
LINE
8
BLACK
6
CONTINUOUS
10
5.9591642125984254
20
-4.0606960629921263
11
5.9590832677165357
21
-4.0607625590551182
0
LINE
8
BLACK
6
CONTINUOUS
10
5.9590832677165357
20
-4.0607625590551182
11
5.9590112992125981
21
-4.0607923622047242
0
LINE
8
BLACK
6
CONTINUOUS
10
5.9590112992125981
20
-4.0607923622047242
11
5.9587633070866142
21
-4.0609484645669287
0
LINE
8
BLACK
6
CONTINUOUS
10
5.9587633070866142
20
-4.0609484645669287
11
5.9550137795275591
21
-4.0628232283464563
0
LINE
8
BLACK
6
CONTINUOUS
10
5.9550137795275591
20
-4.0628232283464563
11
5.954473149606299
21
-4.0630301181102357
0
LINE
8
BLACK
6
CONTINUOUS
10
5.954473149606299
20
-4.0630301181102357
11
5.9543673228346456
21
-4.063037598425197
0
LINE
8
BLACK
6
CONTINUOUS
10
5.9543673228346456
20
-4.063037598425197
11
5.9542693307086614
21
-4.0630782283464564
0
LINE
8
BLACK
6
CONTINUOUS
10
5.9542693307086614
20
-4.0630782283464564
11
5.9536932677165355
21
-4.0631349606299212
0
LINE
8
BLACK
6
CONTINUOUS
10
5.9536932677165355
20
-4.0631349606299212
11
5.9416479133858262
21
-4.0631349606299212
0
LINE
8
BLACK
6
CONTINUOUS
10
5.9416479133858262
20
-4.0631349606299212
11
5.9416479133858262
21
-4.0789298818897635
0
LINE
8
BLACK
6
CONTINUOUS
10
5.9416479133858262
20
-4.0789298818897635
11
5.9415911811023623
21
-4.0795059448818893
0
LINE
8
BLACK
6
CONTINUOUS
10
5.9415911811023623
20
-4.0795059448818893
11
5.9411502755905508
21
-4.0805703543307086
0
LINE
8
BLACK
6
CONTINUOUS
10
5.9411502755905508
20
-4.0805703543307086
11
5.9403356299212593
21
-4.081385
0
LINE
8
BLACK
6
CONTINUOUS
10
5.9403356299212593
20
-4.081385
11
5.9392712204724409
21
-4.0818259055118107
0
LINE
8
BLACK
6
CONTINUOUS
10
5.9392712204724409
20
-4.0818259055118107
11
5.9381190944881892
21
-4.0818259055118107
0
LINE
8
BLACK
6
CONTINUOUS
10
5.9381190944881892
20
-4.0818259055118107
11
5.93705468503937
21
-4.081385
0
LINE
8
BLACK
6
CONTINUOUS
10
5.93705468503937
20
-4.081385
11
5.9362400393700785
21
-4.0805703543307086
0
LINE
8
BLACK
6
CONTINUOUS
10
5.9362400393700785
20
-4.0805703543307086
11
5.9357991338582679
21
-4.0795059448818893
0
LINE
8
BLACK
6
CONTINUOUS
10
5.9357991338582679
20
-4.0795059448818893
11
5.935742401574803
21
-4.0789298818897635
0
LINE
8
BLACK
6
CONTINUOUS
10
5.935742401574803
20
-4.0789298818897635
11
5.935742401574803
21
-4.0395598031496061
0
LINE
8
BLACK
6
CONTINUOUS
10
5.935742401574803
20
-4.0395598031496061
11
5.9357991338582679
21
-4.0389837401574802
0
LINE
8
BLACK
6
CONTINUOUS
10
5.9357991338582679
20
-4.0389837401574802
11
5.9362400393700785
21
-4.0379193307086609
0
LINE
8
BLACK
6
CONTINUOUS
10
5.9362400393700785
20
-4.0379193307086609
11
5.93705468503937
21
-4.0371046850393704
0
LINE
8
BLACK
6
CONTINUOUS
10
5.93705468503937
20
-4.0371046850393704
11
5.9381190944881892
21
-4.0366637795275588
0
LINE
8
BLACK
6
CONTINUOUS
10
5.9381190944881892
20
-4.0366637795275588
11
5.9386951574803151
21
-4.036607047244094
0
LINE
8
BLACK
6
CONTINUOUS
10
5.9386951574803151
20
-4.036607047244094
11
5.9536932677165355
21
-4.036607047244094
0
LINE
8
BLACK
6
CONTINUOUS
10
5.9536932677165355
20
-4.036607047244094
11
5.9542693307086614
21
-4.0366637795275588
0
LINE
8
BLACK
6
CONTINUOUS
10
5.9416479133858262
20
-4.0572294488188971
11
5.9529962204724409
21
-4.0572294488188971
0
LINE
8
BLACK
6
CONTINUOUS
10
5.9529962204724409
20
-4.0572294488188971
11
5.9556937007874016
21
-4.0558807086614168
0
LINE
8
BLACK
6
CONTINUOUS
10
5.9556937007874016
20
-4.0558807086614168
11
5.9568908267716534
21
-4.054683582677165
0
LINE
8
BLACK
6
CONTINUOUS
10
5.9568908267716534
20
-4.054683582677165
11
5.9582395669291337
21
-4.0519861023622044
0
LINE
8
BLACK
6
CONTINUOUS
10
5.9582395669291337
20
-4.0519861023622044
11
5.9582395669291337
21
-4.0477559055118109
0
LINE
8
BLACK
6
CONTINUOUS
10
5.9582395669291337
20
-4.0477559055118109
11
5.9568908267716534
21
-4.0450584251968502
0
LINE
8
BLACK
6
CONTINUOUS
10
5.9568908267716534
20
-4.0450584251968502
11
5.9556937007874016
21
-4.0438612992125984
0
LINE
8
BLACK
6
CONTINUOUS
10
5.9556937007874016
20
-4.0438612992125984
11
5.9529962204724409
21
-4.0425125590551181
0
LINE
8
BLACK
6
CONTINUOUS
10
5.9529962204724409
20
-4.0425125590551181
11
5.9416479133858262
21
-4.0425125590551181
0
LINE
8
BLACK
6
CONTINUOUS
10
5.9416479133858262
20
-4.0425125590551181
11
5.9416479133858262
21
-4.0572294488188971
0
LINE
8
BLACK
6
CONTINUOUS
10
6.0487575196850392
20
-4.0366637795275588
11
6.0488555118110234
21
-4.0367043700787404
0
LINE
8
BLACK
6
CONTINUOUS
10
6.0488555118110234
20
-4.0367043700787404
11
6.0489613385826768
21
-4.0367118897637795
0
LINE
8
BLACK
6
CONTINUOUS
10
6.0489613385826768
20
-4.0367118897637795
11
6.0495019685039368
21
-4.036918779527559
0
LINE
8
BLACK
6
CONTINUOUS
10
6.0495019685039368
20
-4.036918779527559
11
6.053251496062992
21
-4.0387935433070865
0
LINE
8
BLACK
6
CONTINUOUS
10
6.053251496062992
20
-4.0387935433070865
11
6.0534994881889759
21
-4.0389496062992123
0
LINE
8
BLACK
6
CONTINUOUS
10
6.0534994881889759
20
-4.0389496062992123
11
6.0535714566929135
21
-4.0389794488188979
0
LINE
8
BLACK
6
CONTINUOUS
10
6.0535714566929135
20
-4.0389794488188979
11
6.0536524015748032
21
-4.0390459055118111
0
LINE
8
BLACK
6
CONTINUOUS
10
6.0536524015748032
20
-4.0390459055118111
11
6.0537413779527558
21
-4.0391018897637796
0
LINE
8
BLACK
6
CONTINUOUS
10
6.0537413779527558
20
-4.0391018897637796
11
6.0537925196850395
21
-4.0391608661417324
0
LINE
8
BLACK
6
CONTINUOUS
10
6.0537925196850395
20
-4.0391608661417324
11
6.0540188976377953
21
-4.0393466535433067
0
LINE
8
BLACK
6
CONTINUOUS
10
6.0540188976377953
20
-4.0393466535433067
11
6.0558936614173229
21
-4.0412214173228342
0
LINE
8
BLACK
6
CONTINUOUS
10
6.0558936614173229
20
-4.0412214173228342
11
6.0560794094488184
21
-4.0414477559055113
0
LINE
8
BLACK
6
CONTINUOUS
10
6.0560794094488184
20
-4.0414477559055113
11
6.05613842519685
21
-4.0414989370078738
0
LINE
8
BLACK
6
CONTINUOUS
10
6.05613842519685
20
-4.0414989370078738
11
6.0561943700787397
21
-4.0415878740157476
0
LINE
8
BLACK
6
CONTINUOUS
10
6.0561943700787397
20
-4.0415878740157476
11
6.0562608661417325
21
-4.041668858267716
0
LINE
8
BLACK
6
CONTINUOUS
10
6.0562608661417325
20
-4.041668858267716
11
6.0562906692913385
21
-4.0417407874015749
0
LINE
8
BLACK
6
CONTINUOUS
10
6.0562906692913385
20
-4.0417407874015749
11
6.0564467716535431
21
-4.0419888188976376
0
LINE
8
BLACK
6
CONTINUOUS
10
6.0564467716535431
20
-4.0419888188976376
11
6.0583215354330706
21
-4.0457383464566927
0
LINE
8
BLACK
6
CONTINUOUS
10
6.0583215354330706
20
-4.0457383464566927
11
6.0585284251968501
21
-4.046278937007874
0
LINE
8
BLACK
6
CONTINUOUS
10
6.0585284251968501
20
-4.046278937007874
11
6.0585359448818901
21
-4.0463848031496061
0
LINE
8
BLACK
6
CONTINUOUS
10
6.0585359448818901
20
-4.0463848031496061
11
6.0585765354330707
21
-4.0464827952755904
0
LINE
8
BLACK
6
CONTINUOUS
10
6.0585765354330707
20
-4.0464827952755904
11
6.0586332677165355
21
-4.0470588582677163
0
LINE
8
BLACK
6
CONTINUOUS
10
6.0586332677165355
20
-4.0470588582677163
11
6.0586332677165355
21
-4.0526831496062989
0
LINE
8
BLACK
6
CONTINUOUS
10
6.0586332677165355
20
-4.0526831496062989
11
6.0585765354330707
21
-4.0532592125984248
0
LINE
8
BLACK
6
CONTINUOUS
10
6.0585765354330707
20
-4.0532592125984248
11
6.0585359448818901
21
-4.0533571653543303
0
LINE
8
BLACK
6
CONTINUOUS
10
6.0585359448818901
20
-4.0533571653543303
11
6.0585284251968501
21
-4.0534630708661412
0
LINE
8
BLACK
6
CONTINUOUS
10
6.0585284251968501
20
-4.0534630708661412
11
6.0583215354330706
21
-4.0540036614173225
0
LINE
8
BLACK
6
CONTINUOUS
10
6.0583215354330706
20
-4.0540036614173225
11
6.0564467716535431
21
-4.0577531889763776
0
LINE
8
BLACK
6
CONTINUOUS
10
6.0564467716535431
20
-4.0577531889763776
11
6.0562906692913385
21
-4.0580011811023624
0
LINE
8
BLACK
6
CONTINUOUS
10
6.0562906692913385
20
-4.0580011811023624
11
6.0562608661417325
21
-4.0580731496062992
0
LINE
8
BLACK
6
CONTINUOUS
10
6.0562608661417325
20
-4.0580731496062992
11
6.0561943700787397
21
-4.0581540944881889
0
LINE
8
BLACK
6
CONTINUOUS
10
6.0561943700787397
20
-4.0581540944881889
11
6.05613842519685
21
-4.0582430708661414
0
LINE
8
BLACK
6
CONTINUOUS
10
6.05613842519685
20
-4.0582430708661414
11
6.0560794094488184
21
-4.0582942125984252
0
LINE
8
BLACK
6
CONTINUOUS
10
6.0560794094488184
20
-4.0582942125984252
11
6.0558936614173229
21
-4.058520590551181
0
LINE
8
BLACK
6
CONTINUOUS
10
6.0558936614173229
20
-4.058520590551181
11
6.0540188976377953
21
-4.0603953543307085
0
LINE
8
BLACK
6
CONTINUOUS
10
6.0540188976377953
20
-4.0603953543307085
11
6.0537925196850395
21
-4.0605811023622049
0
LINE
8
BLACK
6
CONTINUOUS
10
6.0537925196850395
20
-4.0605811023622049
11
6.0537413779527558
21
-4.0606401181102365
0
LINE
8
BLACK
6
CONTINUOUS
10
6.0537413779527558
20
-4.0606401181102365
11
6.0536524015748032
21
-4.0606960629921263
0
LINE
8
BLACK
6
CONTINUOUS
10
6.0536524015748032
20
-4.0606960629921263
11
6.0535714566929135
21
-4.0607625590551182
0
LINE
8
BLACK
6
CONTINUOUS
10
6.0535714566929135
20
-4.0607625590551182
11
6.0534994881889759
21
-4.0607923622047242
0
LINE
8
BLACK
6
CONTINUOUS
10
6.0534994881889759
20
-4.0607923622047242
11
6.053251496062992
21
-4.0609484645669287
0
LINE
8
BLACK
6
CONTINUOUS
10
6.053251496062992
20
-4.0609484645669287
11
6.0495019685039368
21
-4.0628232283464563
0
LINE
8
BLACK
6
CONTINUOUS
10
6.0495019685039368
20
-4.0628232283464563
11
6.0489613385826768
21
-4.0630301181102357
0
LINE
8
BLACK
6
CONTINUOUS
10
6.0489613385826768
20
-4.0630301181102357
11
6.0488555118110234
21
-4.063037598425197
0
LINE
8
BLACK
6
CONTINUOUS
10
6.0488555118110234
20
-4.063037598425197
11
6.0487575196850392
21
-4.0630782283464564
0
LINE
8
BLACK
6
CONTINUOUS
10
6.0487575196850392
20
-4.0630782283464564
11
6.0481814566929133
21
-4.0631349606299212
0
LINE
8
BLACK
6
CONTINUOUS
10
6.0481814566929133
20
-4.0631349606299212
11
6.0361361023622049
21
-4.0631349606299212
0
LINE
8
BLACK
6
CONTINUOUS
10
6.0361361023622049
20
-4.0631349606299212
11
6.0361361023622049
21
-4.0789298818897635
0
LINE
8
BLACK
6
CONTINUOUS
10
6.0361361023622049
20
-4.0789298818897635
11
6.0360793700787401
21
-4.0795059448818893
0
LINE
8
BLACK
6
CONTINUOUS
10
6.0360793700787401
20
-4.0795059448818893
11
6.0356384645669294
21
-4.0805703543307086
0
LINE
8
BLACK
6
CONTINUOUS
10
6.0356384645669294
20
-4.0805703543307086
11
6.034823818897638
21
-4.081385
0
LINE
8
BLACK
6
CONTINUOUS
10
6.034823818897638
20
-4.081385
11
6.0337594094488187
21
-4.0818259055118107
0
LINE
8
BLACK
6
CONTINUOUS
10
6.0337594094488187
20
-4.0818259055118107
11
6.032607283464567
21
-4.0818259055118107
0
LINE
8
BLACK
6
CONTINUOUS
10
6.032607283464567
20
-4.0818259055118107
11
6.0315428740157477
21
-4.081385
0
LINE
8
BLACK
6
CONTINUOUS
10
6.0315428740157477
20
-4.081385
11
6.0307282283464563
21
-4.0805703543307086
0
LINE
8
BLACK
6
CONTINUOUS
10
6.0307282283464563
20
-4.0805703543307086
11
6.0302873228346456
21
-4.0795059448818893
0
LINE
8
BLACK
6
CONTINUOUS
10
6.0302873228346456
20
-4.0795059448818893
11
6.0302305905511808
21
-4.0789298818897635
0
LINE
8
BLACK
6
CONTINUOUS
10
6.0302305905511808
20
-4.0789298818897635
11
6.0302305905511808
21
-4.0395598031496061
0
LINE
8
BLACK
6
CONTINUOUS
10
6.0302305905511808
20
-4.0395598031496061
11
6.0302873228346456
21
-4.0389837401574802
0
LINE
8
BLACK
6
CONTINUOUS
10
6.0302873228346456
20
-4.0389837401574802
11
6.0307282283464563
21
-4.0379193307086609
0
LINE
8
BLACK
6
CONTINUOUS
10
6.0307282283464563
20
-4.0379193307086609
11
6.0315428740157477
21
-4.0371046850393704
0
LINE
8
BLACK
6
CONTINUOUS
10
6.0315428740157477
20
-4.0371046850393704
11
6.032607283464567
21
-4.0366637795275588
0
LINE
8
BLACK
6
CONTINUOUS
10
6.032607283464567
20
-4.0366637795275588
11
6.0331833464566929
21
-4.036607047244094
0
LINE
8
BLACK
6
CONTINUOUS
10
6.0331833464566929
20
-4.036607047244094
11
6.0481814566929133
21
-4.036607047244094
0
LINE
8
BLACK
6
CONTINUOUS
10
6.0481814566929133
20
-4.036607047244094
11
6.0487575196850392
21
-4.0366637795275588
0
LINE
8
BLACK
6
CONTINUOUS
10
6.0361361023622049
20
-4.0572294488188971
11
6.0474844094488187
21
-4.0572294488188971
0
LINE
8
BLACK
6
CONTINUOUS
10
6.0474844094488187
20
-4.0572294488188971
11
6.0501818897637794
21
-4.0558807086614168
0
LINE
8
BLACK
6
CONTINUOUS
10
6.0501818897637794
20
-4.0558807086614168
11
6.0513790157480312
21
-4.054683582677165
0
LINE
8
BLACK
6
CONTINUOUS
10
6.0513790157480312
20
-4.054683582677165
11
6.0527277559055115
21
-4.0519861023622044
0
LINE
8
BLACK
6
CONTINUOUS
10
6.0527277559055115
20
-4.0519861023622044
11
6.0527277559055115
21
-4.0477559055118109
0
LINE
8
BLACK
6
CONTINUOUS
10
6.0527277559055115
20
-4.0477559055118109
11
6.0513790157480312
21
-4.0450584251968502
0
LINE
8
BLACK
6
CONTINUOUS
10
6.0513790157480312
20
-4.0450584251968502
11
6.0501818897637794
21
-4.0438612992125984
0
LINE
8
BLACK
6
CONTINUOUS
10
6.0501818897637794
20
-4.0438612992125984
11
6.0474844094488187
21
-4.0425125590551181
0
LINE
8
BLACK
6
CONTINUOUS
10
6.0474844094488187
20
-4.0425125590551181
11
6.0361361023622049
21
-4.0425125590551181
0
LINE
8
BLACK
6
CONTINUOUS
10
6.0361361023622049
20
-4.0425125590551181
11
6.0361361023622049
21
-4.0572294488188971
0
LINE
8
BLACK
6
CONTINUOUS
10
6.081514763779527
20
-4.0351198031496063
11
6.0823851574803145
21
-4.0358746850393699
0
LINE
8
BLACK
6
CONTINUOUS
10
6.0823851574803145
20
-4.0358746850393699
11
6.0829003543307083
21
-4.036905157480315
0
LINE
8
BLACK
6
CONTINUOUS
10
6.0829003543307083
20
-4.036905157480315
11
6.0829820472440943
21
-4.0380543700787399
0
LINE
8
BLACK
6
CONTINUOUS
10
6.0829820472440943
20
-4.0380543700787399
11
6.0828537007874015
21
-4.0386188188976373
0
LINE
8
BLACK
6
CONTINUOUS
10
6.0828537007874015
20
-4.0386188188976373
11
6.0747753937007873
21
-4.0628537401574798
0
LINE
8
BLACK
6
CONTINUOUS
10
6.0747753937007873
20
-4.0628537401574798
11
6.0864735433070862
21
-4.0628537401574798
0
LINE
8
BLACK
6
CONTINUOUS
10
6.0864735433070862
20
-4.0628537401574798
11
6.0864735433070862
21
-4.0526831496062989
0
LINE
8
BLACK
6
CONTINUOUS
10
6.0864735433070862
20
-4.0526831496062989
11
6.086530275590551
21
-4.0521070866141731
0
LINE
8
BLACK
6
CONTINUOUS
10
6.086530275590551
20
-4.0521070866141731
11
6.0869711811023617
21
-4.0510426771653538
0
LINE
8
BLACK
6
CONTINUOUS
10
6.0869711811023617
20
-4.0510426771653538
11
6.0877858267716531
21
-4.0502280314960633
0
LINE
8
BLACK
6
CONTINUOUS
10
6.0877858267716531
20
-4.0502280314960633
11
6.0888502362204724
21
-4.0497871259842517
0
LINE
8
BLACK
6
CONTINUOUS
10
6.0888502362204724
20
-4.0497871259842517
11
6.0900023622047241
21
-4.0497871259842517
0
LINE
8
BLACK
6
CONTINUOUS
10
6.0900023622047241
20
-4.0497871259842517
11
6.0910667716535434
21
-4.0502280314960633
0
LINE
8
BLACK
6
CONTINUOUS
10
6.0910667716535434
20
-4.0502280314960633
11
6.0918814173228348
21
-4.0510426771653538
0
LINE
8
BLACK
6
CONTINUOUS
10
6.0918814173228348
20
-4.0510426771653538
11
6.0923223228346455
21
-4.0521070866141731
0
LINE
8
BLACK
6
CONTINUOUS
10
6.0923223228346455
20
-4.0521070866141731
11
6.0923790551181103
21
-4.0526831496062989
0
LINE
8
BLACK
6
CONTINUOUS
10
6.0923790551181103
20
-4.0526831496062989
11
6.0923790551181103
21
-4.0628537401574798
0
LINE
8
BLACK
6
CONTINUOUS
10
6.0923790551181103
20
-4.0628537401574798
11
6.0950505905511809
21
-4.0628537401574798
0
LINE
8
BLACK
6
CONTINUOUS
10
6.0950505905511809
20
-4.0628537401574798
11
6.0956266535433068
21
-4.0629104724409446
0
LINE
8
BLACK
6
CONTINUOUS
10
6.0956266535433068
20
-4.0629104724409446
11
6.096691062992126
21
-4.0633513779527561
0
LINE
8
BLACK
6
CONTINUOUS
10
6.096691062992126
20
-4.0633513779527561
11
6.0975057086614175
21
-4.0641660236220467
0
LINE
8
BLACK
6
CONTINUOUS
10
6.0975057086614175
20
-4.0641660236220467
11
6.0979466141732281
21
-4.065230433070866
0
LINE
8
BLACK
6
CONTINUOUS
10
6.0979466141732281
20
-4.065230433070866
11
6.0979466141732281
21
-4.0663825590551177
0
LINE
8
BLACK
6
CONTINUOUS
10
6.0979466141732281
20
-4.0663825590551177
11
6.0975057086614175
21
-4.0674469685039369
0
LINE
8
BLACK
6
CONTINUOUS
10
6.0975057086614175
20
-4.0674469685039369
11
6.096691062992126
21
-4.0682616141732284
0
LINE
8
BLACK
6
CONTINUOUS
10
6.096691062992126
20
-4.0682616141732284
11
6.0956266535433068
21
-4.068702519685039
0
LINE
8
BLACK
6
CONTINUOUS
10
6.0956266535433068
20
-4.068702519685039
11
6.0950505905511809
21
-4.0687592519685039
0
LINE
8
BLACK
6
CONTINUOUS
10
6.0950505905511809
20
-4.0687592519685039
11
6.0923790551181103
21
-4.0687592519685039
0
LINE
8
BLACK
6
CONTINUOUS
10
6.0923790551181103
20
-4.0687592519685039
11
6.0923790551181103
21
-4.0789298818897635
0
LINE
8
BLACK
6
CONTINUOUS
10
6.0923790551181103
20
-4.0789298818897635
11
6.0923223228346455
21
-4.0795059448818893
0
LINE
8
BLACK
6
CONTINUOUS
10
6.0923223228346455
20
-4.0795059448818893
11
6.0918814173228348
21
-4.0805703543307086
0
LINE
8
BLACK
6
CONTINUOUS
10
6.0918814173228348
20
-4.0805703543307086
11
6.0910667716535434
21
-4.081385
0
LINE
8
BLACK
6
CONTINUOUS
10
6.0910667716535434
20
-4.081385
11
6.0900023622047241
21
-4.0818259055118107
0
LINE
8
BLACK
6
CONTINUOUS
10
6.0900023622047241
20
-4.0818259055118107
11
6.0888502362204724
21
-4.0818259055118107
0
LINE
8
BLACK
6
CONTINUOUS
10
6.0888502362204724
20
-4.0818259055118107
11
6.0877858267716531
21
-4.081385
0
LINE
8
BLACK
6
CONTINUOUS
10
6.0877858267716531
20
-4.081385
11
6.0869711811023617
21
-4.0805703543307086
0
LINE
8
BLACK
6
CONTINUOUS
10
6.0869711811023617
20
-4.0805703543307086
11
6.086530275590551
21
-4.0795059448818893
0
LINE
8
BLACK
6
CONTINUOUS
10
6.086530275590551
20
-4.0795059448818893
11
6.0864735433070862
21
-4.0789298818897635
0
LINE
8
BLACK
6
CONTINUOUS
10
6.0864735433070862
20
-4.0789298818897635
11
6.0864735433070862
21
-4.0687592519685039
0
LINE
8
BLACK
6
CONTINUOUS
10
6.0864735433070862
20
-4.0687592519685039
11
6.0706786614173227
21
-4.0687592519685039
0
LINE
8
BLACK
6
CONTINUOUS
10
6.0706786614173227
20
-4.0687592519685039
11
6.0703870866141729
21
-4.0687305118110233
0
LINE
8
BLACK
6
CONTINUOUS
10
6.0703870866141729
20
-4.0687305118110233
11
6.0703093700787401
21
-4.0687360629921256
0
LINE
8
BLACK
6
CONTINUOUS
10
6.0703093700787401
20
-4.0687360629921256
11
6.0702532283464565
21
-4.0687173228346456
0
LINE
8
BLACK
6
CONTINUOUS
10
6.0702532283464565
20
-4.0687173228346456
11
6.0701025984251968
21
-4.068702519685039
0
LINE
8
BLACK
6
CONTINUOUS
10
6.0701025984251968
20
-4.068702519685039
11
6.0696652755905509
21
-4.0685213779527558
0
LINE
8
BLACK
6
CONTINUOUS
10
6.0696652755905509
20
-4.0685213779527558
11
6.0692163385826774
21
-4.068371732283464
0
LINE
8
BLACK
6
CONTINUOUS
10
6.0692163385826774
20
-4.068371732283464
11
6.0691361417322831
21
-4.0683021653543303
0
LINE
8
BLACK
6
CONTINUOUS
10
6.0691361417322831
20
-4.0683021653543303
11
6.0690381889763776
21
-4.0682616141732284
0
LINE
8
BLACK
6
CONTINUOUS
10
6.0690381889763776
20
-4.0682616141732284
11
6.0687035433070866
21
-4.0679269685039365
0
LINE
8
BLACK
6
CONTINUOUS
10
6.0687035433070866
20
-4.0679269685039365
11
6.0683459842519687
21
-4.0676168503937005
0
LINE
8
BLACK
6
CONTINUOUS
10
6.0683459842519687
20
-4.0676168503937005
11
6.0682985433070868
21
-4.0675219685039368
0
LINE
8
BLACK
6
CONTINUOUS
10
6.0682985433070868
20
-4.0675219685039368
11
6.0682235433070861
21
-4.0674469685039369
0
LINE
8
BLACK
6
CONTINUOUS
10
6.0682235433070861
20
-4.0674469685039369
11
6.0680423622047241
21
-4.0670096062992123
0
LINE
8
BLACK
6
CONTINUOUS
10
6.0680423622047241
20
-4.0670096062992123
11
6.0678307874015749
21
-4.066586417322835
0
LINE
8
BLACK
6
CONTINUOUS
10
6.0678307874015749
20
-4.066586417322835
11
6.0678232677165349
21
-4.0664806299212595
0
LINE
8
BLACK
6
CONTINUOUS
10
6.0678232677165349
20
-4.0664806299212595
11
6.0677826377952755
21
-4.0663825590551177
0
LINE
8
BLACK
6
CONTINUOUS
10
6.0677826377952755
20
-4.0663825590551177
11
6.0677826377952755
21
-4.0659090551181105
0
LINE
8
BLACK
6
CONTINUOUS
10
6.0677826377952755
20
-4.0659090551181105
11
6.0677490944881889
21
-4.0654372047244092
0
LINE
8
BLACK
6
CONTINUOUS
10
6.0677490944881889
20
-4.0654372047244092
11
6.0677826377952755
21
-4.06528968503937
0
LINE
8
BLACK
6
CONTINUOUS
10
6.0677826377952755
20
-4.06528968503937
11
6.0677826377952755
21
-4.065230433070866
0
LINE
8
BLACK
6
CONTINUOUS
10
6.0677826377952755
20
-4.065230433070866
11
6.0678124803149602
21
-4.0651583070866142
0
LINE
8
BLACK
6
CONTINUOUS
10
6.0678124803149602
20
-4.0651583070866142
11
6.0678774409448817
21
-4.0648727559055118
0
LINE
8
BLACK
6
CONTINUOUS
10
6.0678774409448817
20
-4.0648727559055118
11
6.0772512598425195
21
-4.0367512992125985
0
LINE
8
BLACK
6
CONTINUOUS
10
6.0772512598425195
20
-4.0367512992125985
11
6.0774872440944883
21
-4.0362227559055119
0
LINE
8
BLACK
6
CONTINUOUS
10
6.0774872440944883
20
-4.0362227559055119
11
6.0782421259842518
21
-4.0353524015748032
0
LINE
8
BLACK
6
CONTINUOUS
10
6.0782421259842518
20
-4.0353524015748032
11
6.0792725590551182
21
-4.0348371653543307
0
LINE
8
BLACK
6
CONTINUOUS
10
6.0792725590551182
20
-4.0348371653543307
11
6.0804217716535431
21
-4.0347554724409447
0
LINE
8
BLACK
6
CONTINUOUS
10
6.0804217716535431
20
-4.0347554724409447
11
6.081514763779527
21
-4.0351198031496063
0
CIRCLE
8
BLACK
10
5.8304724409448818
20
-3.3589370078740157
40
0.0068897637795276
0
CIRCLE
8
BLACK
10
6.2241732283464568
20
-4.5400393700787403
40
0.0068897637795276
0
CIRCLE
8
BLACK
10
5.4367716535433068
20
-4.5400393700787403
40
0.0068897637795276
0
CIRCLE
8
BLACK
10
6.2241732283464568
20
-3.3589370078740157
40
0.0068897637795276
0
CIRCLE
8
BLACK
10
5.8304724409448818
20
-4.5400393700787403
40
0.0068897637795276
0
CIRCLE
8
BLACK
10
5.4367716535433068
20
-3.3589370078740157
40
0.0068897637795276
0
CIRCLE
8
BLACK
10
5.6012283464566925
20
-4.0632677165354334
40
0.0068897637795276
0
CIRCLE
8
BLACK
10
5.6012283464566925
20
-3.8357086614173226
40
0.0068897637795276
0
LINE
8
BLACK
6
CONTINUOUS
10
5.4736361417322836
20
-4.1078569685039366
11
5.4766143700787397
21
-4.108654960629921
0
LINE
8
BLACK
6
CONTINUOUS
10
5.4766143700787397
20
-4.108654960629921
11
5.4792845669291337
21
-4.110196614173228
0
LINE
8
BLACK
6
CONTINUOUS
10
5.4792845669291337
20
-4.110196614173228
11
5.4814648031496063
21
-4.1123768503937006
0
LINE
8
BLACK
6
CONTINUOUS
10
5.4814648031496063
20
-4.1123768503937006
11
5.4830064566929133
21
-4.1150470472440945
0
LINE
8
BLACK
6
CONTINUOUS
10
5.4830064566929133
20
-4.1150470472440945
11
5.4838044488188977
21
-4.1180252755905506
0
LINE
8
BLACK
6
CONTINUOUS
10
5.4838044488188977
20
-4.1180252755905506
11
5.4838044488188977
21
-4.1211085826771656
0
LINE
8
BLACK
6
CONTINUOUS
10
5.4838044488188977
20
-4.1211085826771656
11
5.4830064566929133
21
-4.1240868110236217
0
LINE
8
BLACK
6
CONTINUOUS
10
5.4830064566929133
20
-4.1240868110236217
11
5.4814648031496063
21
-4.1267570078740157
0
LINE
8
BLACK
6
CONTINUOUS
10
5.4814648031496063
20
-4.1267570078740157
11
5.4792845669291337
21
-4.1289372440944883
0
LINE
8
BLACK
6
CONTINUOUS
10
5.4792845669291337
20
-4.1289372440944883
11
5.4766143700787397
21
-4.1304788976377953
0
LINE
8
BLACK
6
CONTINUOUS
10
5.4766143700787397
20
-4.1304788976377953
11
5.4736361417322836
21
-4.1312768897637797
0
LINE
8
BLACK
6
CONTINUOUS
10
5.4736361417322836
20
-4.1312768897637797
11
5.4720944881889766
21
-4.1313779527559058
0
LINE
8
BLACK
6
CONTINUOUS
10
5.4720944881889766
20
-4.1313779527559058
11
5.4405984251968507
21
-4.1313779527559058
0
LINE
8
BLACK
6
CONTINUOUS
10
5.4405984251968507
20
-4.1313779527559058
11
5.4390567716535436
21
-4.1312768897637797
0
LINE
8
BLACK
6
CONTINUOUS
10
5.4390567716535436
20
-4.1312768897637797
11
5.4360785433070866
21
-4.1304788976377953
0
LINE
8
BLACK
6
CONTINUOUS
10
5.4360785433070866
20
-4.1304788976377953
11
5.4334083464566927
21
-4.1289372440944883
0
LINE
8
BLACK
6
CONTINUOUS
10
5.4334083464566927
20
-4.1289372440944883
11
5.4312281102362201
21
-4.1267570078740157
0
LINE
8
BLACK
6
CONTINUOUS
10
5.4312281102362201
20
-4.1267570078740157
11
5.4296864566929131
21
-4.1240868110236217
0
LINE
8
BLACK
6
CONTINUOUS
10
5.4296864566929131
20
-4.1240868110236217
11
5.4288884645669286
21
-4.1211085826771656
0
LINE
8
BLACK
6
CONTINUOUS
10
5.4288884645669286
20
-4.1211085826771656
11
5.4288884645669286
21
-4.1180252755905506
0
LINE
8
BLACK
6
CONTINUOUS
10
5.4288884645669286
20
-4.1180252755905506
11
5.4296864566929131
21
-4.1150470472440945
0
LINE
8
BLACK
6
CONTINUOUS
10
5.4296864566929131
20
-4.1150470472440945
11
5.4312281102362201
21
-4.1123768503937006
0
LINE
8
BLACK
6
CONTINUOUS
10
5.4312281102362201
20
-4.1123768503937006
11
5.4334083464566927
21
-4.110196614173228
0
LINE
8
BLACK
6
CONTINUOUS
10
5.4334083464566927
20
-4.110196614173228
11
5.4360785433070866
21
-4.108654960629921
0
LINE
8
BLACK
6
CONTINUOUS
10
5.4360785433070866
20
-4.108654960629921
11
5.4390567716535436
21
-4.1078569685039366
0
LINE
8
BLACK
6
CONTINUOUS
10
5.4390567716535436
20
-4.1078569685039366
11
5.4405984251968507
21
-4.1077559055118114
0
LINE
8
BLACK
6
CONTINUOUS
10
5.4405984251968507
20
-4.1077559055118114
11
5.4720944881889766
21
-4.1077559055118114
0
LINE
8
BLACK
6
CONTINUOUS
10
5.4720944881889766
20
-4.1077559055118114
11
5.4736361417322836
21
-4.1078569685039366
0
LINE
8
BLACK
6
CONTINUOUS
10
5.4736361417322836
20
-3.7676994881889763
11
5.4766143700787397
21
-3.7684974803149607
0
LINE
8
BLACK
6
CONTINUOUS
10
5.4766143700787397
20
-3.7684974803149607
11
5.4792845669291337
21
-3.7700391338582677
0
LINE
8
BLACK
6
CONTINUOUS
10
5.4792845669291337
20
-3.7700391338582677
11
5.4814648031496063
21
-3.7722193700787399
0
LINE
8
BLACK
6
CONTINUOUS
10
5.4814648031496063
20
-3.7722193700787399
11
5.4830064566929133
21
-3.7748895669291338
0
LINE
8
BLACK
6
CONTINUOUS
10
5.4830064566929133
20
-3.7748895669291338
11
5.4838044488188977
21
-3.7778677952755904
0
LINE
8
BLACK
6
CONTINUOUS
10
5.4838044488188977
20
-3.7778677952755904
11
5.4838044488188977
21
-3.7809511023622044
0
LINE
8
BLACK
6
CONTINUOUS
10
5.4838044488188977
20
-3.7809511023622044
11
5.4830064566929133
21
-3.7839293307086614
0
LINE
8
BLACK
6
CONTINUOUS
10
5.4830064566929133
20
-3.7839293307086614
11
5.4814648031496063
21
-3.7865995275590549
0
LINE
8
BLACK
6
CONTINUOUS
10
5.4814648031496063
20
-3.7865995275590549
11
5.4792845669291337
21
-3.7887797637795275
0
LINE
8
BLACK
6
CONTINUOUS
10
5.4792845669291337
20
-3.7887797637795275
11
5.4766143700787397
21
-3.7903214173228346
0
LINE
8
BLACK
6
CONTINUOUS
10
5.4766143700787397
20
-3.7903214173228346
11
5.4736361417322836
21
-3.791119409448819
0
LINE
8
BLACK
6
CONTINUOUS
10
5.4736361417322836
20
-3.791119409448819
11
5.4720944881889766
21
-3.7912204724409446
0
LINE
8
BLACK
6
CONTINUOUS
10
5.4720944881889766
20
-3.7912204724409446
11
5.4405984251968507
21
-3.7912204724409446
0
LINE
8
BLACK
6
CONTINUOUS
10
5.4405984251968507
20
-3.7912204724409446
11
5.4390567716535436
21
-3.791119409448819
0
LINE
8
BLACK
6
CONTINUOUS
10
5.4390567716535436
20
-3.791119409448819
11
5.4360785433070866
21
-3.7903214173228346
0
LINE
8
BLACK
6
CONTINUOUS
10
5.4360785433070866
20
-3.7903214173228346
11
5.4334083464566927
21
-3.7887797637795275
0
LINE
8
BLACK
6
CONTINUOUS
10
5.4334083464566927
20
-3.7887797637795275
11
5.4312281102362201
21
-3.7865995275590549
0
LINE
8
BLACK
6
CONTINUOUS
10
5.4312281102362201
20
-3.7865995275590549
11
5.4296864566929131
21
-3.7839293307086614
0
LINE
8
BLACK
6
CONTINUOUS
10
5.4296864566929131
20
-3.7839293307086614
11
5.4288884645669286
21
-3.7809511023622044
0
LINE
8
BLACK
6
CONTINUOUS
10
5.4288884645669286
20
-3.7809511023622044
11
5.4288884645669286
21
-3.7778677952755904
0
LINE
8
BLACK
6
CONTINUOUS
10
5.4288884645669286
20
-3.7778677952755904
11
5.4296864566929131
21
-3.7748895669291338
0
LINE
8
BLACK
6
CONTINUOUS
10
5.4296864566929131
20
-3.7748895669291338
11
5.4312281102362201
21
-3.7722193700787399
0
LINE
8
BLACK
6
CONTINUOUS
10
5.4312281102362201
20
-3.7722193700787399
11
5.4334083464566927
21
-3.7700391338582677
0
LINE
8
BLACK
6
CONTINUOUS
10
5.4334083464566927
20
-3.7700391338582677
11
5.4360785433070866
21
-3.7684974803149607
0
LINE
8
BLACK
6
CONTINUOUS
10
5.4360785433070866
20
-3.7684974803149607
11
5.4390567716535436
21
-3.7676994881889763
0
LINE
8
BLACK
6
CONTINUOUS
10
5.4390567716535436
20
-3.7676994881889763
11
5.4405984251968507
21
-3.7675984251968502
0
LINE
8
BLACK
6
CONTINUOUS
10
5.4405984251968507
20
-3.7675984251968502
11
5.4720944881889766
21
-3.7675984251968502
0
LINE
8
BLACK
6
CONTINUOUS
10
5.4720944881889766
20
-3.7675984251968502
11
5.4736361417322836
21
-3.7676994881889763
0
LINE
8
BLACK
6
CONTINUOUS
10
5.6441085826771653
20
-4.1078569685039366
11
5.6470868110236223
21
-4.108654960629921
0
LINE
8
BLACK
6
CONTINUOUS
10
5.6470868110236223
20
-4.108654960629921
11
5.6497570078740154
21
-4.110196614173228
0
LINE
8
BLACK
6
CONTINUOUS
10
5.6497570078740154
20
-4.110196614173228
11
5.6519372440944879
21
-4.1123768503937006
0
LINE
8
BLACK
6
CONTINUOUS
10
5.6519372440944879
20
-4.1123768503937006
11
5.653478897637795
21
-4.1150470472440945
0
LINE
8
BLACK
6
CONTINUOUS
10
5.653478897637795
20
-4.1150470472440945
11
5.6542768897637794
21
-4.1180252755905506
0
LINE
8
BLACK
6
CONTINUOUS
10
5.6542768897637794
20
-4.1180252755905506
11
5.6542768897637794
21
-4.1211085826771656
0
LINE
8
BLACK
6
CONTINUOUS
10
5.6542768897637794
20
-4.1211085826771656
11
5.653478897637795
21
-4.1240868110236217
0
LINE
8
BLACK
6
CONTINUOUS
10
5.653478897637795
20
-4.1240868110236217
11
5.6519372440944879
21
-4.1267570078740157
0
LINE
8
BLACK
6
CONTINUOUS
10
5.6519372440944879
20
-4.1267570078740157
11
5.6497570078740154
21
-4.1289372440944883
0
LINE
8
BLACK
6
CONTINUOUS
10
5.6497570078740154
20
-4.1289372440944883
11
5.6470868110236223
21
-4.1304788976377953
0
LINE
8
BLACK
6
CONTINUOUS
10
5.6470868110236223
20
-4.1304788976377953
11
5.6441085826771653
21
-4.1312768897637797
0
LINE
8
BLACK
6
CONTINUOUS
10
5.6441085826771653
20
-4.1312768897637797
11
5.6425669291338583
21
-4.1313779527559058
0
LINE
8
BLACK
6
CONTINUOUS
10
5.6425669291338583
20
-4.1313779527559058
11
5.5992598425196851
21
-4.1313779527559058
0
LINE
8
BLACK
6
CONTINUOUS
10
5.5992598425196851
20
-4.1313779527559058
11
5.5977181889763781
21
-4.1312768897637797
0
LINE
8
BLACK
6
CONTINUOUS
10
5.5977181889763781
20
-4.1312768897637797
11
5.5947399606299211
21
-4.1304788976377953
0
LINE
8
BLACK
6
CONTINUOUS
10
5.5947399606299211
20
-4.1304788976377953
11
5.5920697637795271
21
-4.1289372440944883
0
LINE
8
BLACK
6
CONTINUOUS
10
5.5920697637795271
20
-4.1289372440944883
11
5.5898895275590545
21
-4.1267570078740157
0
LINE
8
BLACK
6
CONTINUOUS
10
5.5898895275590545
20
-4.1267570078740157
11
5.5883478740157475
21
-4.1240868110236217
0
LINE
8
BLACK
6
CONTINUOUS
10
5.5883478740157475
20
-4.1240868110236217
11
5.587549881889764
21
-4.1211085826771656
0
LINE
8
BLACK
6
CONTINUOUS
10
5.587549881889764
20
-4.1211085826771656
11
5.587549881889764
21
-4.1180252755905506
0
LINE
8
BLACK
6
CONTINUOUS
10
5.587549881889764
20
-4.1180252755905506
11
5.5883478740157475
21
-4.1150470472440945
0
LINE
8
BLACK
6
CONTINUOUS
10
5.5883478740157475
20
-4.1150470472440945
11
5.5898895275590545
21
-4.1123768503937006
0
LINE
8
BLACK
6
CONTINUOUS
10
5.5898895275590545
20
-4.1123768503937006
11
5.5920697637795271
21
-4.110196614173228
0
LINE
8
BLACK
6
CONTINUOUS
10
5.5920697637795271
20
-4.110196614173228
11
5.5947399606299211
21
-4.108654960629921
0
LINE
8
BLACK
6
CONTINUOUS
10
5.5947399606299211
20
-4.108654960629921
11
5.5977181889763781
21
-4.1078569685039366
0
LINE
8
BLACK
6
CONTINUOUS
10
5.5977181889763781
20
-4.1078569685039366
11
5.5992598425196851
21
-4.1077559055118114
0
LINE
8
BLACK
6
CONTINUOUS
10
5.5992598425196851
20
-4.1077559055118114
11
5.6425669291338583
21
-4.1077559055118114
0
LINE
8
BLACK
6
CONTINUOUS
10
5.6425669291338583
20
-4.1077559055118114
11
5.6441085826771653
21
-4.1078569685039366
0
LINE
8
BLACK
6
CONTINUOUS
10
5.6441085826771653
20
-3.7676994881889763
11
5.6470868110236223
21
-3.7684974803149607
0
LINE
8
BLACK
6
CONTINUOUS
10
5.6470868110236223
20
-3.7684974803149607
11
5.6497570078740154
21
-3.7700391338582677
0
LINE
8
BLACK
6
CONTINUOUS
10
5.6497570078740154
20
-3.7700391338582677
11
5.6519372440944879
21
-3.7722193700787399
0
LINE
8
BLACK
6
CONTINUOUS
10
5.6519372440944879
20
-3.7722193700787399
11
5.653478897637795
21
-3.7748895669291338
0
LINE
8
BLACK
6
CONTINUOUS
10
5.653478897637795
20
-3.7748895669291338
11
5.6542768897637794
21
-3.7778677952755904
0
LINE
8
BLACK
6
CONTINUOUS
10
5.6542768897637794
20
-3.7778677952755904
11
5.6542768897637794
21
-3.7809511023622044
0
LINE
8
BLACK
6
CONTINUOUS
10
5.6542768897637794
20
-3.7809511023622044
11
5.653478897637795
21
-3.7839293307086614
0
LINE
8
BLACK
6
CONTINUOUS
10
5.653478897637795
20
-3.7839293307086614
11
5.6519372440944879
21
-3.7865995275590549
0
LINE
8
BLACK
6
CONTINUOUS
10
5.6519372440944879
20
-3.7865995275590549
11
5.6497570078740154
21
-3.7887797637795275
0
LINE
8
BLACK
6
CONTINUOUS
10
5.6497570078740154
20
-3.7887797637795275
11
5.6470868110236223
21
-3.7903214173228346
0
LINE
8
BLACK
6
CONTINUOUS
10
5.6470868110236223
20
-3.7903214173228346
11
5.6441085826771653
21
-3.791119409448819
0
LINE
8
BLACK
6
CONTINUOUS
10
5.6441085826771653
20
-3.791119409448819
11
5.6425669291338583
21
-3.7912204724409446
0
LINE
8
BLACK
6
CONTINUOUS
10
5.6425669291338583
20
-3.7912204724409446
11
5.5992598425196851
21
-3.7912204724409446
0
LINE
8
BLACK
6
CONTINUOUS
10
5.5992598425196851
20
-3.7912204724409446
11
5.5977181889763781
21
-3.791119409448819
0
LINE
8
BLACK
6
CONTINUOUS
10
5.5977181889763781
20
-3.791119409448819
11
5.5947399606299211
21
-3.7903214173228346
0
LINE
8
BLACK
6
CONTINUOUS
10
5.5947399606299211
20
-3.7903214173228346
11
5.5920697637795271
21
-3.7887797637795275
0
LINE
8
BLACK
6
CONTINUOUS
10
5.5920697637795271
20
-3.7887797637795275
11
5.5898895275590545
21
-3.7865995275590549
0
LINE
8
BLACK
6
CONTINUOUS
10
5.5898895275590545
20
-3.7865995275590549
11
5.5883478740157475
21
-3.7839293307086614
0
LINE
8
BLACK
6
CONTINUOUS
10
5.5883478740157475
20
-3.7839293307086614
11
5.587549881889764
21
-3.7809511023622044
0
LINE
8
BLACK
6
CONTINUOUS
10
5.587549881889764
20
-3.7809511023622044
11
5.587549881889764
21
-3.7778677952755904
0
LINE
8
BLACK
6
CONTINUOUS
10
5.587549881889764
20
-3.7778677952755904
11
5.5883478740157475
21
-3.7748895669291338
0
LINE
8
BLACK
6
CONTINUOUS
10
5.5883478740157475
20
-3.7748895669291338
11
5.5898895275590545
21
-3.7722193700787399
0
LINE
8
BLACK
6
CONTINUOUS
10
5.5898895275590545
20
-3.7722193700787399
11
5.5920697637795271
21
-3.7700391338582677
0
LINE
8
BLACK
6
CONTINUOUS
10
5.5920697637795271
20
-3.7700391338582677
11
5.5947399606299211
21
-3.7684974803149607
0
LINE
8
BLACK
6
CONTINUOUS
10
5.5947399606299211
20
-3.7684974803149607
11
5.5977181889763781
21
-3.7676994881889763
0
LINE
8
BLACK
6
CONTINUOUS
10
5.5977181889763781
20
-3.7676994881889763
11
5.5992598425196851
21
-3.7675984251968502
0
LINE
8
BLACK
6
CONTINUOUS
10
5.5992598425196851
20
-3.7675984251968502
11
5.6425669291338583
21
-3.7675984251968502
0
LINE
8
BLACK
6
CONTINUOUS
10
5.6425669291338583
20
-3.7675984251968502
11
5.6441085826771653
21
-3.7676994881889763
0
CIRCLE
8
BLACK
10
5.8304724409448818
20
-3.3589370078740157
40
0.0068897637795276
0
CIRCLE
8
BLACK
10
6.2241732283464568
20
-4.5400393700787403
40
0.0068897637795276
0
CIRCLE
8
BLACK
10
5.4367716535433068
20
-4.5400393700787403
40
0.0068897637795276
0
CIRCLE
8
BLACK
10
6.2241732283464568
20
-3.3589370078740157
40
0.0068897637795276
0
CIRCLE
8
BLACK
10
5.8304724409448818
20
-4.5400393700787403
40
0.0068897637795276
0
CIRCLE
8
BLACK
10
5.4367716535433068
20
-3.3589370078740157
40
0.0068897637795276
0
CIRCLE
8
BLACK
10
5.6012283464566925
20
-4.0632677165354334
40
0.0068897637795276
0
CIRCLE
8
BLACK
10
5.6012283464566925
20
-3.8357086614173226
40
0.0068897637795276
0
LINE
8
BLACK
6
CONTINUOUS
10
5.4405984251968507
20
-4.1313779527559058
11
5.4720944881889766
21
-4.1313779527559058
0
ARC
8
BLACK
10
5.4720944881889766
20
-4.1195669291338586
40
0.0118110236220472
50
-90.00000000
51
90.00000000
0
LINE
8
BLACK
6
CONTINUOUS
10
5.4720944881889766
20
-4.1077559055118114
11
5.4405984251968507
21
-4.1077559055118114
0
ARC
8
BLACK
10
5.4405984251968507
20
-4.1195669291338586
40
0.0118110236220472
50
90.00000000
51
270.00000000
0
LINE
8
BLACK
6
CONTINUOUS
10
5.4405984251968507
20
-3.7912204724409446
11
5.4720944881889766
21
-3.7912204724409446
0
ARC
8
BLACK
10
5.4720944881889766
20
-3.7794094488188974
40
0.0118110236220472
50
-90.00000000
51
90.00000000
0
LINE
8
BLACK
6
CONTINUOUS
10
5.4720944881889766
20
-3.7675984251968502
11
5.4405984251968507
21
-3.7675984251968502
0
ARC
8
BLACK
10
5.4405984251968507
20
-3.7794094488188974
40
0.0118110236220472
50
90.00000000
51
270.00000000
0
LINE
8
BLACK
6
CONTINUOUS
10
5.5992598425196851
20
-4.1313779527559058
11
5.6425669291338583
21
-4.1313779527559058
0
ARC
8
BLACK
10
5.6425669291338583
20
-4.1195669291338586
40
0.0118110236220472
50
-90.00000000
51
90.00000000
0
LINE
8
BLACK
6
CONTINUOUS
10
5.6425669291338583
20
-4.1077559055118114
11
5.5992598425196851
21
-4.1077559055118114
0
ARC
8
BLACK
10
5.5992598425196851
20
-4.1195669291338586
40
0.0118110236220472
50
90.00000000
51
270.00000000
0
LINE
8
BLACK
6
CONTINUOUS
10
5.5992598425196851
20
-3.7912204724409446
11
5.6425669291338583
21
-3.7912204724409446
0
ARC
8
BLACK
10
5.6425669291338583
20
-3.7794094488188974
40
0.0118110236220472
50
-90.00000000
51
90.00000000
0
LINE
8
BLACK
6
CONTINUOUS
10
5.6425669291338583
20
-3.7675984251968502
11
5.5992598425196851
21
-3.7675984251968502
0
ARC
8
BLACK
10
5.5992598425196851
20
-3.7794094488188974
40
0.0118110236220472
50
90.00000000
51
270.00000000
  0
ENDSEC
  0
EOF
