  0
SECTION
  2
HEADER
  9
$ANGBASE
  50
0.0
  9
$ANGDIR
  70
1
  9
$MEASUREMENT
  70
0
  0
ENDSEC
  0
SECTION
  2
TABLES
  0
TABLE
  2
LTYPE
  70
4
  0
LTYPE
  5
40F
  2
CONTINUOUS
  70
0
  3
Solid line
  72
65
  73
0
  40
0.0
  0
LTYPE
  5
410
  2
DASHDOT
 70
0
  3
Dash Dot ____ _ ____ _
 72
65
 73
4
 40
2.0
 49
1.25
 49
-0.25
 49
0.25
 49
-0.25
  0
LTYPE
  5
411
  2
DASHED
 70
0
  3
Dashed __ __ __ __ __
 72
65
 73
2
 40
0.75
 49
0.5
 49
-0.25
  0
LTYPE
  5
43B
  2
DOTTED
 70
0
  3
Dotted .  .  .  .
 72
65
 73
2
 40
0.2
 49
0.0
 49
-0.2
  0
ENDTAB
  0
TABLE
  2
STYLE
  70
4
  0
STYLE
  2
KICAD
  70
0
  40
0
  41
1
  42
1
  50
0
  71
0
  3
isocp.shx
  0
STYLE
  2
KICADB
  70
0
  40
0
  41
1
  42
1
  50
0
  71
0
  3
isocp.shx
  0
STYLE
  2
KICADI
  70
0
  40
0
  41
1
  42
1
  50
15
  71
0
  3
isocp.shx
  0
STYLE
  2
KICADBI
  70
0
  40
0
  41
1
  42
1
  50
15
  71
0
  3
isocp.shx
  0
ENDTAB
  0
TABLE
  2
LAYER
  70
1
  0
LAYER
  2
BLACK
  70
0
  62
7
  6
CONTINUOUS
  0
ENDTAB
  0
ENDSEC
  0
SECTION
  2
ENTITIES
0
LINE
8
BLACK
6
CONTINUOUS
10
5.9921985039370078
20
-4.1194622834645669
11
5.9923337401574805
21
-4.1195757480314956
0
LINE
8
BLACK
6
CONTINUOUS
10
5.9923337401574805
20
-4.1195757480314956
11
5.9925090944881889
21
-4.1195959448818895
0
LINE
8
BLACK
6
CONTINUOUS
10
5.9925090944881889
20
-4.1195959448818895
11
5.9951277165354329
21
-4.1209052362204721
0
LINE
8
BLACK
6
CONTINUOUS
10
5.9951277165354329
20
-4.1209052362204721
11
5.995664803149606
21
-4.1199750393700789
0
LINE
8
BLACK
6
CONTINUOUS
10
5.995664803149606
20
-4.1199750393700789
11
5.9975627952755906
21
-4.1192842125984255
0
LINE
8
BLACK
6
CONTINUOUS
10
5.9975627952755906
20
-4.1192842125984255
11
6.0200599606299212
21
-4.1192842125984255
0
LINE
8
BLACK
6
CONTINUOUS
10
6.0200599606299212
20
-4.1192842125984255
11
6.0210698818897637
21
-4.1194622834645669
0
LINE
8
BLACK
6
CONTINUOUS
10
6.0210698818897637
20
-4.1194622834645669
11
6.0226171259842518
21
-4.120760590551181
0
LINE
8
BLACK
6
CONTINUOUS
10
6.0226171259842518
20
-4.120760590551181
11
6.0229678740157482
21
-4.1227497244094486
0
LINE
8
BLACK
6
CONTINUOUS
10
6.0229678740157482
20
-4.1227497244094486
11
6.0219579527559057
21
-4.1244988976377952
0
LINE
8
BLACK
6
CONTINUOUS
10
6.0219579527559057
20
-4.1244988976377952
11
6.0200599606299212
21
-4.1251897244094486
0
LINE
8
BLACK
6
CONTINUOUS
10
6.0200599606299212
20
-4.1251897244094486
11
6.0117641338582679
21
-4.1251897244094486
0
LINE
8
BLACK
6
CONTINUOUS
10
6.0117641338582679
20
-4.1251897244094486
11
6.0117641338582679
21
-4.161607047244094
0
LINE
8
BLACK
6
CONTINUOUS
10
6.0117641338582679
20
-4.161607047244094
11
6.0115860629921256
21
-4.1626169685039365
0
LINE
8
BLACK
6
CONTINUOUS
10
6.0115860629921256
20
-4.1626169685039365
11
6.0102877559055115
21
-4.1641642125984255
0
LINE
8
BLACK
6
CONTINUOUS
10
6.0102877559055115
20
-4.1641642125984255
11
6.0082986220472439
21
-4.164514960629921
0
LINE
8
BLACK
6
CONTINUOUS
10
6.0082986220472439
20
-4.164514960629921
11
6.0065494488188973
21
-4.1635050393700785
0
LINE
8
BLACK
6
CONTINUOUS
10
6.0065494488188973
20
-4.1635050393700785
11
6.0058586220472439
21
-4.161607047244094
0
LINE
8
BLACK
6
CONTINUOUS
10
6.0058586220472439
20
-4.161607047244094
11
6.0058586220472439
21
-4.1251897244094486
0
LINE
8
BLACK
6
CONTINUOUS
10
6.0058586220472439
20
-4.1251897244094486
11
5.9997157480314955
21
-4.1251897244094486
0
LINE
8
BLACK
6
CONTINUOUS
10
5.9997157480314955
20
-4.1251897244094486
11
6.0013286614173227
21
-4.1284155118110233
0
LINE
8
BLACK
6
CONTINUOUS
10
6.0013286614173227
20
-4.1284155118110233
11
6.0016210236220475
21
-4.1293984251968503
0
LINE
8
BLACK
6
CONTINUOUS
10
6.0016210236220475
20
-4.1293984251968503
11
6.0015799999999997
21
-4.1295701181102364
0
LINE
8
BLACK
6
CONTINUOUS
10
6.0015799999999997
20
-4.1295701181102364
11
6.0016403937007876
21
-4.1297360236220468
0
LINE
8
BLACK
6
CONTINUOUS
10
6.0016403937007876
20
-4.1297360236220468
11
6.0016403937007876
21
-4.1334855511811019
0
LINE
8
BLACK
6
CONTINUOUS
10
6.0016403937007876
20
-4.1334855511811019
11
6.0014870866141727
21
-4.1343549212598427
0
LINE
8
BLACK
6
CONTINUOUS
10
6.0014870866141727
20
-4.1343549212598427
11
6.0014888582677166
21
-4.1344193307086616
0
LINE
8
BLACK
6
CONTINUOUS
10
6.0014888582677166
20
-4.1344193307086616
11
5.9996140944881891
21
-4.1400435826771655
0
LINE
8
BLACK
6
CONTINUOUS
10
5.9996140944881891
20
-4.1400435826771655
11
5.9991257874015744
21
-4.1409453543307082
0
LINE
8
BLACK
6
CONTINUOUS
10
5.9991257874015744
20
-4.1409453543307082
11
5.9989753937007873
21
-4.1410377165354326
0
LINE
8
BLACK
6
CONTINUOUS
10
5.9989753937007873
20
-4.1410377165354326
11
5.998900787401575
21
-4.1411977559055115
0
LINE
8
BLACK
6
CONTINUOUS
10
5.998900787401575
20
-4.1411977559055115
11
5.9814442913385824
21
-4.1586542913385829
0
LINE
8
BLACK
6
CONTINUOUS
10
5.9814442913385824
20
-4.1586542913385829
11
5.9986876377952756
21
-4.1586542913385829
0
LINE
8
BLACK
6
CONTINUOUS
10
5.9986876377952756
20
-4.1586542913385829
11
5.999697559055118
21
-4.1588323622047243
0
LINE
8
BLACK
6
CONTINUOUS
10
5.999697559055118
20
-4.1588323622047243
11
6.0012448031496062
21
-4.1601306692913385
0
LINE
8
BLACK
6
CONTINUOUS
10
6.0012448031496062
20
-4.1601306692913385
11
6.0015955511811026
21
-4.1621198031496061
0
LINE
8
BLACK
6
CONTINUOUS
10
6.0015955511811026
20
-4.1621198031496061
11
6.0005856299212601
21
-4.1638689763779526
0
LINE
8
BLACK
6
CONTINUOUS
10
6.0005856299212601
20
-4.1638689763779526
11
5.9986876377952756
21
-4.1645598031496061
0
LINE
8
BLACK
6
CONTINUOUS
10
5.9986876377952756
20
-4.1645598031496061
11
5.9743157086614174
21
-4.1645598031496061
0
LINE
8
BLACK
6
CONTINUOUS
10
5.9743157086614174
20
-4.1645598031496061
11
5.9736809448818899
21
-4.1644478740157478
0
LINE
8
BLACK
6
CONTINUOUS
10
5.9736809448818899
20
-4.1644478740157478
11
5.9735514960629921
21
-4.164459212598425
0
LINE
8
BLACK
6
CONTINUOUS
10
5.9735514960629921
20
-4.164459212598425
11
5.9734862598425194
21
-4.1644135433070861
0
LINE
8
BLACK
6
CONTINUOUS
10
5.9734862598425194
20
-4.1644135433070861
11
5.9733057874015749
21
-4.1643817322834646
0
LINE
8
BLACK
6
CONTINUOUS
10
5.9733057874015749
20
-4.1643817322834646
11
5.9726249212598423
21
-4.1638104330708661
0
LINE
8
BLACK
6
CONTINUOUS
10
5.9726249212598423
20
-4.1638104330708661
11
5.9718969291338579
21
-4.1633006692913384
0
LINE
8
BLACK
6
CONTINUOUS
10
5.9718969291338579
20
-4.1633006692913384
11
5.9718619685039371
21
-4.1631701968503938
0
LINE
8
BLACK
6
CONTINUOUS
10
5.9718619685039371
20
-4.1631701968503938
11
5.9717585433070868
21
-4.1630834251968505
0
LINE
8
BLACK
6
CONTINUOUS
10
5.9717585433070868
20
-4.1630834251968505
11
5.9716041732283465
21
-4.162208070866142
0
LINE
8
BLACK
6
CONTINUOUS
10
5.9716041732283465
20
-4.162208070866142
11
5.971374212598425
21
-4.1613497244094484
0
LINE
8
BLACK
6
CONTINUOUS
10
5.971374212598425
20
-4.1613497244094484
11
5.9714312598425199
21
-4.1612273622047242
0
LINE
8
BLACK
6
CONTINUOUS
10
5.9714312598425199
20
-4.1612273622047242
11
5.9714077952755904
21
-4.1610942913385829
0
LINE
8
BLACK
6
CONTINUOUS
10
5.9714077952755904
20
-4.1610942913385829
11
5.9718522834645666
21
-4.1603243700787402
0
LINE
8
BLACK
6
CONTINUOUS
10
5.9718522834645666
20
-4.1603243700787402
11
5.9722277952755904
21
-4.159519133858268
0
LINE
8
BLACK
6
CONTINUOUS
10
5.9722277952755904
20
-4.159519133858268
11
5.9942320472440942
21
-4.1375148031496058
0
LINE
8
BLACK
6
CONTINUOUS
10
5.9942320472440942
20
-4.1375148031496058
11
5.9957348818897636
21
-4.1330064173228349
0
LINE
8
BLACK
6
CONTINUOUS
10
5.9957348818897636
20
-4.1330064173228349
11
5.9957348818897636
21
-4.1304330708661414
0
LINE
8
BLACK
6
CONTINUOUS
10
5.9957348818897636
20
-4.1304330708661414
11
5.9943861417322832
21
-4.1277355905511808
0
LINE
8
BLACK
6
CONTINUOUS
10
5.9943861417322832
20
-4.1277355905511808
11
5.9931890157480314
21
-4.126538464566929
0
LINE
8
BLACK
6
CONTINUOUS
10
5.9931890157480314
20
-4.126538464566929
11
5.9904915354330708
21
-4.1251897244094486
0
LINE
8
BLACK
6
CONTINUOUS
10
5.9904915354330708
20
-4.1251897244094486
11
5.9825118110236222
21
-4.1251897244094486
0
LINE
8
BLACK
6
CONTINUOUS
10
5.9825118110236222
20
-4.1251897244094486
11
5.9798143307086615
21
-4.126538464566929
0
LINE
8
BLACK
6
CONTINUOUS
10
5.9798143307086615
20
-4.126538464566929
11
5.9782783858267718
21
-4.1280744094488186
0
LINE
8
BLACK
6
CONTINUOUS
10
5.9782783858267718
20
-4.1280744094488186
11
5.9774383464566929
21
-4.1286625984251968
0
LINE
8
BLACK
6
CONTINUOUS
10
5.9774383464566929
20
-4.1286625984251968
11
5.9754262598425196
21
-4.1288386614173227
0
LINE
8
BLACK
6
CONTINUOUS
10
5.9754262598425196
20
-4.1288386614173227
11
5.9737716929133855
21
-4.1276801181102361
0
LINE
8
BLACK
6
CONTINUOUS
10
5.9737716929133855
20
-4.1276801181102361
11
5.9732489763779526
21
-4.1257291732283461
0
LINE
8
BLACK
6
CONTINUOUS
10
5.9732489763779526
20
-4.1257291732283461
11
5.974102559055118
21
-4.1238985826771657
0
LINE
8
BLACK
6
CONTINUOUS
10
5.974102559055118
20
-4.1238985826771657
11
5.9759773228346456
21
-4.1220238188976381
0
LINE
8
BLACK
6
CONTINUOUS
10
5.9759773228346456
20
-4.1220238188976381
11
5.9767003937007877
21
-4.1215175196850389
0
LINE
8
BLACK
6
CONTINUOUS
10
5.9767003937007877
20
-4.1215175196850389
11
5.9767447244094489
21
-4.1214707086614171
0
LINE
8
BLACK
6
CONTINUOUS
10
5.9767447244094489
20
-4.1214707086614171
11
5.980494251968504
21
-4.1195959448818895
0
LINE
8
BLACK
6
CONTINUOUS
10
5.980494251968504
20
-4.1195959448818895
11
5.9814771653543302
21
-4.1193035826771656
0
LINE
8
BLACK
6
CONTINUOUS
10
5.9814771653543302
20
-4.1193035826771656
11
5.9816488582677163
21
-4.1193445669291338
0
LINE
8
BLACK
6
CONTINUOUS
10
5.9816488582677163
20
-4.1193445669291338
11
5.9818147637795276
21
-4.1192842125984255
0
LINE
8
BLACK
6
CONTINUOUS
10
5.9818147637795276
20
-4.1192842125984255
11
5.9911885826771654
21
-4.1192842125984255
0
LINE
8
BLACK
6
CONTINUOUS
10
5.9911885826771654
20
-4.1192842125984255
11
5.9921985039370078
21
-4.1194622834645669
0
LINE
8
BLACK
6
CONTINUOUS
10
6.0822727559055121
20
-4.1193585039370078
11
6.0824400000000001
21
-4.1193290551181105
0
LINE
8
BLACK
6
CONTINUOUS
10
6.0824400000000001
20
-4.1193290551181105
11
6.0831820472440947
21
-4.1197574803149601
0
LINE
8
BLACK
6
CONTINUOUS
10
6.0831820472440947
20
-4.1197574803149601
11
6.0839668897637793
21
-4.1201018503937004
0
LINE
8
BLACK
6
CONTINUOUS
10
6.0839668897637793
20
-4.1201018503937004
11
6.0840421259842516
21
-4.1202540944881889
0
LINE
8
BLACK
6
CONTINUOUS
10
6.0840421259842516
20
-4.1202540944881889
11
6.0841891732283466
21
-4.120338976377953
0
LINE
8
BLACK
6
CONTINUOUS
10
6.0841891732283466
20
-4.120338976377953
11
6.0844822440944881
21
-4.1211442125984252
0
LINE
8
BLACK
6
CONTINUOUS
10
6.0844822440944881
20
-4.1211442125984252
11
6.0848620866141729
21
-4.1219124409448815
0
LINE
8
BLACK
6
CONTINUOUS
10
6.0848620866141729
20
-4.1219124409448815
11
6.0848218897637798
21
-4.122077362204724
0
LINE
8
BLACK
6
CONTINUOUS
10
6.0848218897637798
20
-4.122077362204724
11
6.0848800000000001
21
-4.1222369685039366
0
LINE
8
BLACK
6
CONTINUOUS
10
6.0848800000000001
20
-4.1222369685039366
11
6.0848800000000001
21
-4.1586542913385829
0
LINE
8
BLACK
6
CONTINUOUS
10
6.0848800000000001
20
-4.1586542913385829
11
6.0931758267716534
21
-4.1586542913385829
0
LINE
8
BLACK
6
CONTINUOUS
10
6.0931758267716534
20
-4.1586542913385829
11
6.0941857480314958
21
-4.1588323622047243
0
LINE
8
BLACK
6
CONTINUOUS
10
6.0941857480314958
20
-4.1588323622047243
11
6.095732992125984
21
-4.1601306692913385
0
LINE
8
BLACK
6
CONTINUOUS
10
6.095732992125984
20
-4.1601306692913385
11
6.0960837401574803
21
-4.1621198031496061
0
LINE
8
BLACK
6
CONTINUOUS
10
6.0960837401574803
20
-4.1621198031496061
11
6.0950738188976379
21
-4.1638689763779526
0
LINE
8
BLACK
6
CONTINUOUS
10
6.0950738188976379
20
-4.1638689763779526
11
6.0931758267716534
21
-4.1645598031496061
0
LINE
8
BLACK
6
CONTINUOUS
10
6.0931758267716534
20
-4.1645598031496061
11
6.0706786614173227
21
-4.1645598031496061
0
LINE
8
BLACK
6
CONTINUOUS
10
6.0706786614173227
20
-4.1645598031496061
11
6.0696687401574803
21
-4.1643817322834646
0
LINE
8
BLACK
6
CONTINUOUS
10
6.0696687401574803
20
-4.1643817322834646
11
6.0681214960629921
21
-4.1630834251968505
0
LINE
8
BLACK
6
CONTINUOUS
10
6.0681214960629921
20
-4.1630834251968505
11
6.0677707480314957
21
-4.1610942913385829
0
LINE
8
BLACK
6
CONTINUOUS
10
6.0677707480314957
20
-4.1610942913385829
11
6.0687806692913382
21
-4.1593451181102363
0
LINE
8
BLACK
6
CONTINUOUS
10
6.0687806692913382
20
-4.1593451181102363
11
6.0706786614173227
21
-4.1586542913385829
0
LINE
8
BLACK
6
CONTINUOUS
10
6.0706786614173227
20
-4.1586542913385829
11
6.078974488188976
21
-4.1586542913385829
0
LINE
8
BLACK
6
CONTINUOUS
10
6.078974488188976
20
-4.1586542913385829
11
6.078974488188976
21
-4.13124031496063
0
LINE
8
BLACK
6
CONTINUOUS
10
6.078974488188976
20
-4.13124031496063
11
6.0765161023622047
21
-4.1336987007874013
0
LINE
8
BLACK
6
CONTINUOUS
10
6.0765161023622047
20
-4.1336987007874013
11
6.0757929921259839
21
-4.1342049606299209
0
LINE
8
BLACK
6
CONTINUOUS
10
6.0757929921259839
20
-4.1342049606299209
11
6.0757487007874014
21
-4.1342518110236224
0
LINE
8
BLACK
6
CONTINUOUS
10
6.0757487007874014
20
-4.1342518110236224
11
6.0719991732283463
21
-4.1361265748031499
0
LINE
8
BLACK
6
CONTINUOUS
10
6.0719991732283463
20
-4.1361265748031499
11
6.0710162204724405
21
-4.1364189370078739
0
LINE
8
BLACK
6
CONTINUOUS
10
6.0710162204724405
20
-4.1364189370078739
11
6.0690517322834641
21
-4.1359496456692915
0
LINE
8
BLACK
6
CONTINUOUS
10
6.0690517322834641
20
-4.1359496456692915
11
6.0678484251968499
21
-4.1343274015748035
0
LINE
8
BLACK
6
CONTINUOUS
10
6.0678484251968499
20
-4.1343274015748035
11
6.0679694881889761
21
-4.1323112204724408
0
LINE
8
BLACK
6
CONTINUOUS
10
6.0679694881889761
20
-4.1323112204724408
11
6.0693581496062992
21
-4.1308445275590548
0
LINE
8
BLACK
6
CONTINUOUS
10
6.0693581496062992
20
-4.1308445275590548
11
6.0726790944881888
21
-4.1291840551181105
0
LINE
8
BLACK
6
CONTINUOUS
10
6.0726790944881888
20
-4.1291840551181105
11
6.075882992125984
21
-4.1259801574803152
0
LINE
8
BLACK
6
CONTINUOUS
10
6.075882992125984
20
-4.1259801574803152
11
6.0794703937007872
21
-4.1205990551181104
0
LINE
8
BLACK
6
CONTINUOUS
10
6.0794703937007872
20
-4.1205990551181104
11
6.080178779527559
21
-4.1198575196850395
0
LINE
8
BLACK
6
CONTINUOUS
10
6.080178779527559
20
-4.1198575196850395
11
6.0803417322834648
21
-4.1198098031496064
0
LINE
8
BLACK
6
CONTINUOUS
10
6.0803417322834648
20
-4.1198098031496064
11
6.0804508661417325
21
-4.119679803149606
0
LINE
8
BLACK
6
CONTINUOUS
10
6.0804508661417325
20
-4.119679803149606
11
6.0812946456692911
21
-4.1195309842519681
0
LINE
8
BLACK
6
CONTINUOUS
10
6.0812946456692911
20
-4.1195309842519681
11
6.0821172834645667
21
-4.1192903149606295
0
LINE
8
BLACK
6
CONTINUOUS
10
6.0821172834645667
20
-4.1192903149606295
11
6.0822727559055121
21
-4.1193585039370078
0
LINE
8
BLACK
6
CONTINUOUS
10
5.9265816929133859
20
-4.1194622834645669
11
5.928128937007874
21
-4.120760590551181
0
LINE
8
BLACK
6
CONTINUOUS
10
5.928128937007874
20
-4.120760590551181
11
5.9284796850393695
21
-4.1227497244094486
0
LINE
8
BLACK
6
CONTINUOUS
10
5.9284796850393695
20
-4.1227497244094486
11
5.9274697637795271
21
-4.1244988976377952
0
LINE
8
BLACK
6
CONTINUOUS
10
5.9274697637795271
20
-4.1244988976377952
11
5.9255717716535434
21
-4.1251897244094486
0
LINE
8
BLACK
6
CONTINUOUS
10
5.9255717716535434
20
-4.1251897244094486
11
5.9172759448818892
21
-4.1251897244094486
0
LINE
8
BLACK
6
CONTINUOUS
10
5.9172759448818892
20
-4.1251897244094486
11
5.9172759448818892
21
-4.161607047244094
0
LINE
8
BLACK
6
CONTINUOUS
10
5.9172759448818892
20
-4.161607047244094
11
5.9170978740157478
21
-4.1626169685039365
0
LINE
8
BLACK
6
CONTINUOUS
10
5.9170978740157478
20
-4.1626169685039365
11
5.9157995669291337
21
-4.1641642125984255
0
LINE
8
BLACK
6
CONTINUOUS
10
5.9157995669291337
20
-4.1641642125984255
11
5.9138104330708661
21
-4.164514960629921
0
LINE
8
BLACK
6
CONTINUOUS
10
5.9138104330708661
20
-4.164514960629921
11
5.9120612598425195
21
-4.1635050393700785
0
LINE
8
BLACK
6
CONTINUOUS
10
5.9120612598425195
20
-4.1635050393700785
11
5.9113704330708661
21
-4.161607047244094
0
LINE
8
BLACK
6
CONTINUOUS
10
5.9113704330708661
20
-4.161607047244094
11
5.9113704330708661
21
-4.1251897244094486
0
LINE
8
BLACK
6
CONTINUOUS
10
5.9113704330708661
20
-4.1251897244094486
11
5.9030746062992128
21
-4.1251897244094486
0
LINE
8
BLACK
6
CONTINUOUS
10
5.9030746062992128
20
-4.1251897244094486
11
5.9020646850393703
21
-4.1250116535433072
0
LINE
8
BLACK
6
CONTINUOUS
10
5.9020646850393703
20
-4.1250116535433072
11
5.9005174409448822
21
-4.1237133464566931
0
LINE
8
BLACK
6
CONTINUOUS
10
5.9005174409448822
20
-4.1237133464566931
11
5.9001666929133858
21
-4.1217242125984255
0
LINE
8
BLACK
6
CONTINUOUS
10
5.9001666929133858
20
-4.1217242125984255
11
5.9011766141732283
21
-4.1199750393700789
0
LINE
8
BLACK
6
CONTINUOUS
10
5.9011766141732283
20
-4.1199750393700789
11
5.9030746062992128
21
-4.1192842125984255
0
LINE
8
BLACK
6
CONTINUOUS
10
5.9030746062992128
20
-4.1192842125984255
11
5.9255717716535434
21
-4.1192842125984255
0
LINE
8
BLACK
6
CONTINUOUS
10
5.9255717716535434
20
-4.1192842125984255
11
5.9265816929133859
21
-4.1194622834645669
0
LINE
8
BLACK
6
CONTINUOUS
10
5.954703188976378
20
-4.1194622834645669
11
5.9548384251968507
21
-4.1195757480314956
0
LINE
8
BLACK
6
CONTINUOUS
10
5.9548384251968507
20
-4.1195757480314956
11
5.9550137795275591
21
-4.1195959448818895
0
LINE
8
BLACK
6
CONTINUOUS
10
5.9550137795275591
20
-4.1195959448818895
11
5.9587633070866142
21
-4.1214707086614171
0
LINE
8
BLACK
6
CONTINUOUS
10
5.9587633070866142
20
-4.1214707086614171
11
5.9594723622047239
21
-4.121996614173228
0
LINE
8
BLACK
6
CONTINUOUS
10
5.9594723622047239
20
-4.121996614173228
11
5.9595307086614175
21
-4.1220238188976381
0
LINE
8
BLACK
6
CONTINUOUS
10
5.9595307086614175
20
-4.1220238188976381
11
5.9614054724409451
21
-4.1238985826771657
0
LINE
8
BLACK
6
CONTINUOUS
10
5.9614054724409451
20
-4.1238985826771657
11
5.9619117322834647
21
-4.1246216535433069
0
LINE
8
BLACK
6
CONTINUOUS
10
5.9619117322834647
20
-4.1246216535433069
11
5.9619585826771653
21
-4.1246659842519682
0
LINE
8
BLACK
6
CONTINUOUS
10
5.9619585826771653
20
-4.1246659842519682
11
5.9638333464566928
21
-4.1284155118110233
0
LINE
8
BLACK
6
CONTINUOUS
10
5.9638333464566928
20
-4.1284155118110233
11
5.9641257086614168
21
-4.1293984251968503
0
LINE
8
BLACK
6
CONTINUOUS
10
5.9641257086614168
20
-4.1293984251968503
11
5.9640846850393698
21
-4.1295701181102364
0
LINE
8
BLACK
6
CONTINUOUS
10
5.9640846850393698
20
-4.1295701181102364
11
5.9641450787401578
21
-4.1297360236220468
0
LINE
8
BLACK
6
CONTINUOUS
10
5.9641450787401578
20
-4.1297360236220468
11
5.9641450787401578
21
-4.1353603149606295
0
LINE
8
BLACK
6
CONTINUOUS
10
5.9641450787401578
20
-4.1353603149606295
11
5.9639670078740155
21
-4.136370236220472
0
LINE
8
BLACK
6
CONTINUOUS
10
5.9639670078740155
20
-4.136370236220472
11
5.963853503937008
21
-4.1365054724409447
0
LINE
8
BLACK
6
CONTINUOUS
10
5.963853503937008
20
-4.1365054724409447
11
5.9638333464566928
21
-4.1366808267716531
0
LINE
8
BLACK
6
CONTINUOUS
10
5.9638333464566928
20
-4.1366808267716531
11
5.9619585826771653
21
-4.1404303543307082
0
LINE
8
BLACK
6
CONTINUOUS
10
5.9619585826771653
20
-4.1404303543307082
11
5.9614326771653543
21
-4.1411394094488188
0
LINE
8
BLACK
6
CONTINUOUS
10
5.9614326771653543
20
-4.1411394094488188
11
5.9614054724409451
21
-4.1411977559055115
0
LINE
8
BLACK
6
CONTINUOUS
10
5.9614054724409451
20
-4.1411977559055115
11
5.9595307086614175
21
-4.1430725196850391
0
LINE
8
BLACK
6
CONTINUOUS
10
5.9595307086614175
20
-4.1430725196850391
11
5.9588075984251967
21
-4.1435787795275587
0
LINE
8
BLACK
6
CONTINUOUS
10
5.9588075984251967
20
-4.1435787795275587
11
5.9587633070866142
21
-4.1436256299212602
0
LINE
8
BLACK
6
CONTINUOUS
10
5.9587633070866142
20
-4.1436256299212602
11
5.9550137795275591
21
-4.1455003937007877
0
LINE
8
BLACK
6
CONTINUOUS
10
5.9550137795275591
20
-4.1455003937007877
11
5.9540308267716533
21
-4.1457927559055117
0
LINE
8
BLACK
6
CONTINUOUS
10
5.9540308267716533
20
-4.1457927559055117
11
5.9538591338582671
21
-4.1457517322834647
0
LINE
8
BLACK
6
CONTINUOUS
10
5.9538591338582671
20
-4.1457517322834647
11
5.9536932677165355
21
-4.1458121259842518
0
LINE
8
BLACK
6
CONTINUOUS
10
5.9536932677165355
20
-4.1458121259842518
11
5.9416479133858262
21
-4.1458121259842518
0
LINE
8
BLACK
6
CONTINUOUS
10
5.9416479133858262
20
-4.1458121259842518
11
5.9416479133858262
21
-4.161607047244094
0
LINE
8
BLACK
6
CONTINUOUS
10
5.9416479133858262
20
-4.161607047244094
11
5.9414698425196848
21
-4.1626169685039365
0
LINE
8
BLACK
6
CONTINUOUS
10
5.9414698425196848
20
-4.1626169685039365
11
5.9401715354330706
21
-4.1641642125984255
0
LINE
8
BLACK
6
CONTINUOUS
10
5.9401715354330706
20
-4.1641642125984255
11
5.938182401574803
21
-4.164514960629921
0
LINE
8
BLACK
6
CONTINUOUS
10
5.938182401574803
20
-4.164514960629921
11
5.9364332283464565
21
-4.1635050393700785
0
LINE
8
BLACK
6
CONTINUOUS
10
5.9364332283464565
20
-4.1635050393700785
11
5.935742401574803
21
-4.161607047244094
0
LINE
8
BLACK
6
CONTINUOUS
10
5.935742401574803
20
-4.161607047244094
11
5.935742401574803
21
-4.1222369685039366
0
LINE
8
BLACK
6
CONTINUOUS
10
5.935742401574803
20
-4.1222369685039366
11
5.93581
21
-4.1218534251968499
0
LINE
8
BLACK
6
CONTINUOUS
10
5.93581
20
-4.1218534251968499
11
5.9357872440944881
21
-4.1217242125984255
0
LINE
8
BLACK
6
CONTINUOUS
10
5.9357872440944881
20
-4.1217242125984255
11
5.9358528346456696
21
-4.1216105905511808
0
LINE
8
BLACK
6
CONTINUOUS
10
5.9358528346456696
20
-4.1216105905511808
11
5.9359204724409445
21
-4.1212270472440942
0
LINE
8
BLACK
6
CONTINUOUS
10
5.9359204724409445
20
-4.1212270472440942
11
5.9364135826771651
21
-4.1206393307086611
0
LINE
8
BLACK
6
CONTINUOUS
10
5.9364135826771651
20
-4.1206393307086611
11
5.9367971653543306
21
-4.1199750393700789
0
LINE
8
BLACK
6
CONTINUOUS
10
5.9367971653543306
20
-4.1199750393700789
11
5.9370474803149609
21
-4.1198838976377949
0
LINE
8
BLACK
6
CONTINUOUS
10
5.9370474803149609
20
-4.1198838976377949
11
5.9372187795275586
21
-4.119679803149606
0
LINE
8
BLACK
6
CONTINUOUS
10
5.9372187795275586
20
-4.119679803149606
11
5.937974330708661
21
-4.1195465354330709
0
LINE
8
BLACK
6
CONTINUOUS
10
5.937974330708661
20
-4.1195465354330709
11
5.9386951574803151
21
-4.1192842125984255
0
LINE
8
BLACK
6
CONTINUOUS
10
5.9386951574803151
20
-4.1192842125984255
11
5.9536932677165355
21
-4.1192842125984255
0
LINE
8
BLACK
6
CONTINUOUS
10
5.9536932677165355
20
-4.1192842125984255
11
5.954703188976378
21
-4.1194622834645669
0
LINE
8
BLACK
6
CONTINUOUS
10
5.9416479133858262
20
-4.1399066141732286
11
5.9529962204724409
21
-4.1399066141732286
0
LINE
8
BLACK
6
CONTINUOUS
10
5.9529962204724409
20
-4.1399066141732286
11
5.9556937007874016
21
-4.1385578740157483
0
LINE
8
BLACK
6
CONTINUOUS
10
5.9556937007874016
20
-4.1385578740157483
11
5.9568908267716534
21
-4.1373607480314956
0
LINE
8
BLACK
6
CONTINUOUS
10
5.9568908267716534
20
-4.1373607480314956
11
5.9582395669291337
21
-4.1346632677165349
0
LINE
8
BLACK
6
CONTINUOUS
10
5.9582395669291337
20
-4.1346632677165349
11
5.9582395669291337
21
-4.1304330708661414
0
LINE
8
BLACK
6
CONTINUOUS
10
5.9582395669291337
20
-4.1304330708661414
11
5.9568908267716534
21
-4.1277355905511808
0
LINE
8
BLACK
6
CONTINUOUS
10
5.9568908267716534
20
-4.1277355905511808
11
5.9556937007874016
21
-4.126538464566929
0
LINE
8
BLACK
6
CONTINUOUS
10
5.9556937007874016
20
-4.126538464566929
11
5.9529962204724409
21
-4.1251897244094486
0
LINE
8
BLACK
6
CONTINUOUS
10
5.9529962204724409
20
-4.1251897244094486
11
5.9416479133858262
21
-4.1251897244094486
0
LINE
8
BLACK
6
CONTINUOUS
10
5.9416479133858262
20
-4.1251897244094486
11
5.9416479133858262
21
-4.1399066141732286
0
LINE
8
BLACK
6
CONTINUOUS
10
6.0491913779527557
20
-4.1194622834645669
11
6.0493266141732285
21
-4.1195757480314956
0
LINE
8
BLACK
6
CONTINUOUS
10
6.0493266141732285
20
-4.1195757480314956
11
6.0495019685039368
21
-4.1195959448818895
0
LINE
8
BLACK
6
CONTINUOUS
10
6.0495019685039368
20
-4.1195959448818895
11
6.053251496062992
21
-4.1214707086614171
0
LINE
8
BLACK
6
CONTINUOUS
10
6.053251496062992
20
-4.1214707086614171
11
6.0539605511811025
21
-4.121996614173228
0
LINE
8
BLACK
6
CONTINUOUS
10
6.0539605511811025
20
-4.121996614173228
11
6.0540188976377953
21
-4.1220238188976381
0
LINE
8
BLACK
6
CONTINUOUS
10
6.0540188976377953
20
-4.1220238188976381
11
6.0558936614173229
21
-4.1238985826771657
0
LINE
8
BLACK
6
CONTINUOUS
10
6.0558936614173229
20
-4.1238985826771657
11
6.0563999212598425
21
-4.1246216535433069
0
LINE
8
BLACK
6
CONTINUOUS
10
6.0563999212598425
20
-4.1246216535433069
11
6.0564467716535431
21
-4.1246659842519682
0
LINE
8
BLACK
6
CONTINUOUS
10
6.0564467716535431
20
-4.1246659842519682
11
6.0583215354330706
21
-4.1284155118110233
0
LINE
8
BLACK
6
CONTINUOUS
10
6.0583215354330706
20
-4.1284155118110233
11
6.0586138976377955
21
-4.1293984251968503
0
LINE
8
BLACK
6
CONTINUOUS
10
6.0586138976377955
20
-4.1293984251968503
11
6.0585728740157476
21
-4.1295701181102364
0
LINE
8
BLACK
6
CONTINUOUS
10
6.0585728740157476
20
-4.1295701181102364
11
6.0586332677165355
21
-4.1297360236220468
0
LINE
8
BLACK
6
CONTINUOUS
10
6.0586332677165355
20
-4.1297360236220468
11
6.0586332677165355
21
-4.1353603149606295
0
LINE
8
BLACK
6
CONTINUOUS
10
6.0586332677165355
20
-4.1353603149606295
11
6.0584551968503932
21
-4.136370236220472
0
LINE
8
BLACK
6
CONTINUOUS
10
6.0584551968503932
20
-4.136370236220472
11
6.0583416929133858
21
-4.1365054724409447
0
LINE
8
BLACK
6
CONTINUOUS
10
6.0583416929133858
20
-4.1365054724409447
11
6.0583215354330706
21
-4.1366808267716531
0
LINE
8
BLACK
6
CONTINUOUS
10
6.0583215354330706
20
-4.1366808267716531
11
6.0564467716535431
21
-4.1404303543307082
0
LINE
8
BLACK
6
CONTINUOUS
10
6.0564467716535431
20
-4.1404303543307082
11
6.0559208661417321
21
-4.1411394094488188
0
LINE
8
BLACK
6
CONTINUOUS
10
6.0559208661417321
20
-4.1411394094488188
11
6.0558936614173229
21
-4.1411977559055115
0
LINE
8
BLACK
6
CONTINUOUS
10
6.0558936614173229
20
-4.1411977559055115
11
6.0540188976377953
21
-4.1430725196850391
0
LINE
8
BLACK
6
CONTINUOUS
10
6.0540188976377953
20
-4.1430725196850391
11
6.0532957874015745
21
-4.1435787795275587
0
LINE
8
BLACK
6
CONTINUOUS
10
6.0532957874015745
20
-4.1435787795275587
11
6.053251496062992
21
-4.1436256299212602
0
LINE
8
BLACK
6
CONTINUOUS
10
6.053251496062992
20
-4.1436256299212602
11
6.0495019685039368
21
-4.1455003937007877
0
LINE
8
BLACK
6
CONTINUOUS
10
6.0495019685039368
20
-4.1455003937007877
11
6.0485190157480311
21
-4.1457927559055117
0
LINE
8
BLACK
6
CONTINUOUS
10
6.0485190157480311
20
-4.1457927559055117
11
6.0483473228346458
21
-4.1457517322834647
0
LINE
8
BLACK
6
CONTINUOUS
10
6.0483473228346458
20
-4.1457517322834647
11
6.0481814566929133
21
-4.1458121259842518
0
LINE
8
BLACK
6
CONTINUOUS
10
6.0481814566929133
20
-4.1458121259842518
11
6.0361361023622049
21
-4.1458121259842518
0
LINE
8
BLACK
6
CONTINUOUS
10
6.0361361023622049
20
-4.1458121259842518
11
6.0361361023622049
21
-4.161607047244094
0
LINE
8
BLACK
6
CONTINUOUS
10
6.0361361023622049
20
-4.161607047244094
11
6.0359580314960626
21
-4.1626169685039365
0
LINE
8
BLACK
6
CONTINUOUS
10
6.0359580314960626
20
-4.1626169685039365
11
6.0346597244094484
21
-4.1641642125984255
0
LINE
8
BLACK
6
CONTINUOUS
10
6.0346597244094484
20
-4.1641642125984255
11
6.0326705905511808
21
-4.164514960629921
0
LINE
8
BLACK
6
CONTINUOUS
10
6.0326705905511808
20
-4.164514960629921
11
6.0309214173228343
21
-4.1635050393700785
0
LINE
8
BLACK
6
CONTINUOUS
10
6.0309214173228343
20
-4.1635050393700785
11
6.0302305905511808
21
-4.161607047244094
0
LINE
8
BLACK
6
CONTINUOUS
10
6.0302305905511808
20
-4.161607047244094
11
6.0302305905511808
21
-4.1222369685039366
0
LINE
8
BLACK
6
CONTINUOUS
10
6.0302305905511808
20
-4.1222369685039366
11
6.0302981889763778
21
-4.1218534251968499
0
LINE
8
BLACK
6
CONTINUOUS
10
6.0302981889763778
20
-4.1218534251968499
11
6.0302754330708659
21
-4.1217242125984255
0
LINE
8
BLACK
6
CONTINUOUS
10
6.0302754330708659
20
-4.1217242125984255
11
6.0303410236220474
21
-4.1216105905511808
0
LINE
8
BLACK
6
CONTINUOUS
10
6.0303410236220474
20
-4.1216105905511808
11
6.0304086614173231
21
-4.1212270472440942
0
LINE
8
BLACK
6
CONTINUOUS
10
6.0304086614173231
20
-4.1212270472440942
11
6.0309017716535429
21
-4.1206393307086611
0
LINE
8
BLACK
6
CONTINUOUS
10
6.0309017716535429
20
-4.1206393307086611
11
6.0312853543307083
21
-4.1199750393700789
0
LINE
8
BLACK
6
CONTINUOUS
10
6.0312853543307083
20
-4.1199750393700789
11
6.0315356692913387
21
-4.1198838976377949
0
LINE
8
BLACK
6
CONTINUOUS
10
6.0315356692913387
20
-4.1198838976377949
11
6.0317069685039373
21
-4.119679803149606
0
LINE
8
BLACK
6
CONTINUOUS
10
6.0317069685039373
20
-4.119679803149606
11
6.0324625196850397
21
-4.1195465354330709
0
LINE
8
BLACK
6
CONTINUOUS
10
6.0324625196850397
20
-4.1195465354330709
11
6.0331833464566929
21
-4.1192842125984255
0
LINE
8
BLACK
6
CONTINUOUS
10
6.0331833464566929
20
-4.1192842125984255
11
6.0481814566929133
21
-4.1192842125984255
0
LINE
8
BLACK
6
CONTINUOUS
10
6.0481814566929133
20
-4.1192842125984255
11
6.0491913779527557
21
-4.1194622834645669
0
LINE
8
BLACK
6
CONTINUOUS
10
6.0361361023622049
20
-4.1399066141732286
11
6.0474844094488187
21
-4.1399066141732286
0
LINE
8
BLACK
6
CONTINUOUS
10
6.0474844094488187
20
-4.1399066141732286
11
6.0501818897637794
21
-4.1385578740157483
0
LINE
8
BLACK
6
CONTINUOUS
10
6.0501818897637794
20
-4.1385578740157483
11
6.0513790157480312
21
-4.1373607480314956
0
LINE
8
BLACK
6
CONTINUOUS
10
6.0513790157480312
20
-4.1373607480314956
11
6.0527277559055115
21
-4.1346632677165349
0
LINE
8
BLACK
6
CONTINUOUS
10
6.0527277559055115
20
-4.1346632677165349
11
6.0527277559055115
21
-4.1304330708661414
0
LINE
8
BLACK
6
CONTINUOUS
10
6.0527277559055115
20
-4.1304330708661414
11
6.0513790157480312
21
-4.1277355905511808
0
LINE
8
BLACK
6
CONTINUOUS
10
6.0513790157480312
20
-4.1277355905511808
11
6.0501818897637794
21
-4.126538464566929
0
LINE
8
BLACK
6
CONTINUOUS
10
6.0501818897637794
20
-4.126538464566929
11
6.0474844094488187
21
-4.1251897244094486
0
LINE
8
BLACK
6
CONTINUOUS
10
6.0474844094488187
20
-4.1251897244094486
11
6.0361361023622049
21
-4.1251897244094486
0
LINE
8
BLACK
6
CONTINUOUS
10
6.0361361023622049
20
-4.1251897244094486
11
6.0361361023622049
21
-4.1399066141732286
0
LINE
8
BLACK
6
CONTINUOUS
10
5.9986876377952756
20
-4.036607047244094
11
6.0200599606299212
21
-4.036607047244094
0
LINE
8
BLACK
6
CONTINUOUS
10
6.0200599606299212
20
-4.036607047244094
11
6.0210698818897637
21
-4.0367851181102363
0
LINE
8
BLACK
6
CONTINUOUS
10
6.0210698818897637
20
-4.0367851181102363
11
6.0226171259842518
21
-4.0380834251968505
0
LINE
8
BLACK
6
CONTINUOUS
10
6.0226171259842518
20
-4.0380834251968505
11
6.0229678740157482
21
-4.0400725590551181
0
LINE
8
BLACK
6
CONTINUOUS
10
6.0229678740157482
20
-4.0400725590551181
11
6.0219579527559057
21
-4.0418217322834646
0
LINE
8
BLACK
6
CONTINUOUS
10
6.0219579527559057
20
-4.0418217322834646
11
6.0200599606299212
21
-4.0425125590551181
0
LINE
8
BLACK
6
CONTINUOUS
10
6.0200599606299212
20
-4.0425125590551181
11
6.0117641338582679
21
-4.0425125590551181
0
LINE
8
BLACK
6
CONTINUOUS
10
6.0117641338582679
20
-4.0425125590551181
11
6.0117641338582679
21
-4.0789298818897635
0
LINE
8
BLACK
6
CONTINUOUS
10
6.0117641338582679
20
-4.0789298818897635
11
6.0115860629921256
21
-4.0799398031496059
0
LINE
8
BLACK
6
CONTINUOUS
10
6.0115860629921256
20
-4.0799398031496059
11
6.0102877559055115
21
-4.0814870472440941
0
LINE
8
BLACK
6
CONTINUOUS
10
6.0102877559055115
20
-4.0814870472440941
11
6.0082986220472439
21
-4.0818377952755904
0
LINE
8
BLACK
6
CONTINUOUS
10
6.0082986220472439
20
-4.0818377952755904
11
6.0065494488188973
21
-4.080827874015748
0
LINE
8
BLACK
6
CONTINUOUS
10
6.0065494488188973
20
-4.080827874015748
11
6.0058586220472439
21
-4.0789298818897635
0
LINE
8
BLACK
6
CONTINUOUS
10
6.0058586220472439
20
-4.0789298818897635
11
6.0058586220472439
21
-4.0425125590551181
0
LINE
8
BLACK
6
CONTINUOUS
10
6.0058586220472439
20
-4.0425125590551181
11
6.0000274803149605
21
-4.0425125590551181
0
LINE
8
BLACK
6
CONTINUOUS
10
6.0000274803149605
20
-4.0425125590551181
11
5.9919534645669286
21
-4.0517399999999997
0
LINE
8
BLACK
6
CONTINUOUS
10
5.9919534645669286
20
-4.0517399999999997
11
5.9921985039370078
21
-4.0517832283464568
0
LINE
8
BLACK
6
CONTINUOUS
10
5.9921985039370078
20
-4.0517832283464568
11
5.9923337401574805
21
-4.0518966929133855
0
LINE
8
BLACK
6
CONTINUOUS
10
5.9923337401574805
20
-4.0518966929133855
11
5.9925090944881889
21
-4.0519168897637794
0
LINE
8
BLACK
6
CONTINUOUS
10
5.9925090944881889
20
-4.0519168897637794
11
5.996258622047244
21
-4.0537916535433069
0
LINE
8
BLACK
6
CONTINUOUS
10
5.996258622047244
20
-4.0537916535433069
11
5.9969676771653546
21
-4.0543175590551179
0
LINE
8
BLACK
6
CONTINUOUS
10
5.9969676771653546
20
-4.0543175590551179
11
5.9970260236220474
21
-4.0543447637795271
0
LINE
8
BLACK
6
CONTINUOUS
10
5.9970260236220474
20
-4.0543447637795271
11
5.998900787401575
21
-4.0562195275590547
0
LINE
8
BLACK
6
CONTINUOUS
10
5.998900787401575
20
-4.0562195275590547
11
5.9994070472440946
21
-4.0569425984251968
0
LINE
8
BLACK
6
CONTINUOUS
10
5.9994070472440946
20
-4.0569425984251968
11
5.9994538976377951
21
-4.0569869291338581
0
LINE
8
BLACK
6
CONTINUOUS
10
5.9994538976377951
20
-4.0569869291338581
11
6.0013286614173227
21
-4.0607364566929132
0
LINE
8
BLACK
6
CONTINUOUS
10
6.0013286614173227
20
-4.0607364566929132
11
6.0016210236220475
21
-4.0617193700787402
0
LINE
8
BLACK
6
CONTINUOUS
10
6.0016210236220475
20
-4.0617193700787402
11
6.0015799999999997
21
-4.0618910629921263
0
LINE
8
BLACK
6
CONTINUOUS
10
6.0015799999999997
20
-4.0618910629921263
11
6.0016403937007876
21
-4.0620569685039367
0
LINE
8
BLACK
6
CONTINUOUS
10
6.0016403937007876
20
-4.0620569685039367
11
6.0016403937007876
21
-4.0714307874015745
0
LINE
8
BLACK
6
CONTINUOUS
10
6.0016403937007876
20
-4.0714307874015745
11
6.0014623228346453
21
-4.0724407086614169
0
LINE
8
BLACK
6
CONTINUOUS
10
6.0014623228346453
20
-4.0724407086614169
11
6.0013488188976378
21
-4.0725759448818897
0
LINE
8
BLACK
6
CONTINUOUS
10
6.0013488188976378
20
-4.0725759448818897
11
6.0013286614173227
21
-4.072751299212598
0
LINE
8
BLACK
6
CONTINUOUS
10
6.0013286614173227
20
-4.072751299212598
11
5.9994538976377951
21
-4.0765008267716532
0
LINE
8
BLACK
6
CONTINUOUS
10
5.9994538976377951
20
-4.0765008267716532
11
5.9989279527559054
21
-4.0772098818897637
0
LINE
8
BLACK
6
CONTINUOUS
10
5.9989279527559054
20
-4.0772098818897637
11
5.998900787401575
21
-4.0772682283464565
0
LINE
8
BLACK
6
CONTINUOUS
10
5.998900787401575
20
-4.0772682283464565
11
5.9970260629921261
21
-4.0791429921259841
0
LINE
8
BLACK
6
CONTINUOUS
10
5.9970260629921261
20
-4.0791429921259841
11
5.9963028740157478
21
-4.07964937007874
0
LINE
8
BLACK
6
CONTINUOUS
10
5.9963028740157478
20
-4.07964937007874
11
5.996258622047244
21
-4.079696141732283
0
LINE
8
BLACK
6
CONTINUOUS
10
5.996258622047244
20
-4.079696141732283
11
5.9925090944881889
21
-4.0815709055118106
0
LINE
8
BLACK
6
CONTINUOUS
10
5.9925090944881889
20
-4.0815709055118106
11
5.9915261417322832
21
-4.0818632677165354
0
LINE
8
BLACK
6
CONTINUOUS
10
5.9915261417322832
20
-4.0818632677165354
11
5.9913544488188979
21
-4.0818222440944885
0
LINE
8
BLACK
6
CONTINUOUS
10
5.9913544488188979
20
-4.0818222440944885
11
5.9911885826771654
21
-4.0818826377952755
0
LINE
8
BLACK
6
CONTINUOUS
10
5.9911885826771654
20
-4.0818826377952755
11
5.97994
21
-4.0818826377952755
0
LINE
8
BLACK
6
CONTINUOUS
10
5.97994
20
-4.0818826377952755
11
5.9789300787401576
21
-4.0817045669291341
0
LINE
8
BLACK
6
CONTINUOUS
10
5.9789300787401576
20
-4.0817045669291341
11
5.9787948031496061
21
-4.0815910629921257
0
LINE
8
BLACK
6
CONTINUOUS
10
5.9787948031496061
20
-4.0815910629921257
11
5.9786194881889765
21
-4.0815709055118106
0
LINE
8
BLACK
6
CONTINUOUS
10
5.9786194881889765
20
-4.0815709055118106
11
5.9748699606299214
21
-4.079696141732283
0
LINE
8
BLACK
6
CONTINUOUS
10
5.9748699606299214
20
-4.079696141732283
11
5.9741608267716533
21
-4.0791701574803145
0
LINE
8
BLACK
6
CONTINUOUS
10
5.9741608267716533
20
-4.0791701574803145
11
5.9741025196850392
21
-4.0791429921259841
0
LINE
8
BLACK
6
CONTINUOUS
10
5.9741025196850392
20
-4.0791429921259841
11
5.9722277559055117
21
-4.0772681889763778
0
LINE
8
BLACK
6
CONTINUOUS
10
5.9722277559055117
20
-4.0772681889763778
11
5.9716395669291336
21
-4.0764281496062988
0
LINE
8
BLACK
6
CONTINUOUS
10
5.9716395669291336
20
-4.0764281496062988
11
5.9714635826771651
21
-4.0744160629921256
0
LINE
8
BLACK
6
CONTINUOUS
10
5.9714635826771651
20
-4.0744160629921256
11
5.972622086614173
21
-4.0727615354330711
0
LINE
8
BLACK
6
CONTINUOUS
10
5.972622086614173
20
-4.0727615354330711
11
5.9745730708661418
21
-4.0722388188976373
0
LINE
8
BLACK
6
CONTINUOUS
10
5.9745730708661418
20
-4.0722388188976373
11
5.976403661417323
21
-4.0730924409448814
0
LINE
8
BLACK
6
CONTINUOUS
10
5.976403661417323
20
-4.0730924409448814
11
5.977939566929134
21
-4.074628385826772
0
LINE
8
BLACK
6
CONTINUOUS
10
5.977939566929134
20
-4.074628385826772
11
5.9806370472440946
21
-4.0759771259842514
0
LINE
8
BLACK
6
CONTINUOUS
10
5.9806370472440946
20
-4.0759771259842514
11
5.9904915354330708
21
-4.0759771259842514
0
LINE
8
BLACK
6
CONTINUOUS
10
5.9904915354330708
20
-4.0759771259842514
11
5.9931889763779527
21
-4.074628385826772
0
LINE
8
BLACK
6
CONTINUOUS
10
5.9931889763779527
20
-4.074628385826772
11
5.9943861023622045
21
-4.0734312204724406
0
LINE
8
BLACK
6
CONTINUOUS
10
5.9943861023622045
20
-4.0734312204724406
11
5.9957348818897636
21
-4.0707337401574799
0
LINE
8
BLACK
6
CONTINUOUS
10
5.9957348818897636
20
-4.0707337401574799
11
5.9957348818897636
21
-4.0627540157480313
0
LINE
8
BLACK
6
CONTINUOUS
10
5.9957348818897636
20
-4.0627540157480313
11
5.9943861417322832
21
-4.0600565354330707
0
LINE
8
BLACK
6
CONTINUOUS
10
5.9943861417322832
20
-4.0600565354330707
11
5.9931890157480314
21
-4.0588594094488188
0
LINE
8
BLACK
6
CONTINUOUS
10
5.9931890157480314
20
-4.0588594094488188
11
5.9904915354330708
21
-4.0575106692913385
0
LINE
8
BLACK
6
CONTINUOUS
10
5.9904915354330708
20
-4.0575106692913385
11
5.9855642913385827
21
-4.0575106692913385
0
LINE
8
BLACK
6
CONTINUOUS
10
5.9855642913385827
20
-4.0575106692913385
11
5.985126929133858
21
-4.0574335433070869
0
LINE
8
BLACK
6
CONTINUOUS
10
5.985126929133858
20
-4.0574335433070869
11
5.9849914566929137
21
-4.0574545669291338
0
LINE
8
BLACK
6
CONTINUOUS
10
5.9849914566929137
20
-4.0574545669291338
11
5.9848867716535432
21
-4.0573911811023624
0
LINE
8
BLACK
6
CONTINUOUS
10
5.9848867716535432
20
-4.0573911811023624
11
5.9845543700787402
21
-4.0573325984251971
0
LINE
8
BLACK
6
CONTINUOUS
10
5.9845543700787402
20
-4.0573325984251971
11
5.983944566929134
21
-4.0568209055118105
0
LINE
8
BLACK
6
CONTINUOUS
10
5.983944566929134
20
-4.0568209055118105
11
5.9832635433070864
21
-4.0564087007874017
0
LINE
8
BLACK
6
CONTINUOUS
10
5.9832635433070864
20
-4.0564087007874017
11
5.9831875590551178
21
-4.0561856692913381
0
LINE
8
BLACK
6
CONTINUOUS
10
5.9831875590551178
20
-4.0561856692913381
11
5.9830071259842521
21
-4.056034291338583
0
LINE
8
BLACK
6
CONTINUOUS
10
5.9830071259842521
20
-4.056034291338583
11
5.9828688582677163
21
-4.05525031496063
0
LINE
8
BLACK
6
CONTINUOUS
10
5.9828688582677163
20
-4.05525031496063
11
5.9826121653543307
21
-4.0544968110236219
0
LINE
8
BLACK
6
CONTINUOUS
10
5.9826121653543307
20
-4.0544968110236219
11
5.9826972834645664
21
-4.054277165354331
0
LINE
8
BLACK
6
CONTINUOUS
10
5.9826972834645664
20
-4.054277165354331
11
5.9826563779527557
21
-4.0540451574803145
0
LINE
8
BLACK
6
CONTINUOUS
10
5.9826563779527557
20
-4.0540451574803145
11
5.9830544488188977
21
-4.0533556692913386
0
LINE
8
BLACK
6
CONTINUOUS
10
5.9830544488188977
20
-4.0533556692913386
11
5.9833421259842519
21
-4.0526135039370077
0
LINE
8
BLACK
6
CONTINUOUS
10
5.9833421259842519
20
-4.0526135039370077
11
5.9921804724409444
21
-4.0425125590551181
0
LINE
8
BLACK
6
CONTINUOUS
10
5.9921804724409444
20
-4.0425125590551181
11
5.9743157086614174
21
-4.0425125590551181
0
LINE
8
BLACK
6
CONTINUOUS
10
5.9743157086614174
20
-4.0425125590551181
11
5.9733057874015749
21
-4.0423344881889767
0
LINE
8
BLACK
6
CONTINUOUS
10
5.9733057874015749
20
-4.0423344881889767
11
5.9717585433070868
21
-4.0410361811023625
0
LINE
8
BLACK
6
CONTINUOUS
10
5.9717585433070868
20
-4.0410361811023625
11
5.9714077952755904
21
-4.039047047244094
0
LINE
8
BLACK
6
CONTINUOUS
10
5.9714077952755904
20
-4.039047047244094
11
5.9724177165354329
21
-4.0372978740157484
0
LINE
8
BLACK
6
CONTINUOUS
10
5.9724177165354329
20
-4.0372978740157484
11
5.9743157086614174
21
-4.036607047244094
0
LINE
8
BLACK
6
CONTINUOUS
10
5.9743157086614174
20
-4.036607047244094
11
5.9986876377952756
21
-4.036607047244094
0
LINE
8
BLACK
6
CONTINUOUS
10
5.9265816929133859
20
-4.0367851181102363
11
5.928128937007874
21
-4.0380834251968505
0
LINE
8
BLACK
6
CONTINUOUS
10
5.928128937007874
20
-4.0380834251968505
11
5.9284796850393695
21
-4.0400725590551181
0
LINE
8
BLACK
6
CONTINUOUS
10
5.9284796850393695
20
-4.0400725590551181
11
5.9274697637795271
21
-4.0418217322834646
0
LINE
8
BLACK
6
CONTINUOUS
10
5.9274697637795271
20
-4.0418217322834646
11
5.9255717716535434
21
-4.0425125590551181
0
LINE
8
BLACK
6
CONTINUOUS
10
5.9255717716535434
20
-4.0425125590551181
11
5.9172759448818892
21
-4.0425125590551181
0
LINE
8
BLACK
6
CONTINUOUS
10
5.9172759448818892
20
-4.0425125590551181
11
5.9172759448818892
21
-4.0789298818897635
0
LINE
8
BLACK
6
CONTINUOUS
10
5.9172759448818892
20
-4.0789298818897635
11
5.9170978740157478
21
-4.0799398031496059
0
LINE
8
BLACK
6
CONTINUOUS
10
5.9170978740157478
20
-4.0799398031496059
11
5.9157995669291337
21
-4.0814870472440941
0
LINE
8
BLACK
6
CONTINUOUS
10
5.9157995669291337
20
-4.0814870472440941
11
5.9138104330708661
21
-4.0818377952755904
0
LINE
8
BLACK
6
CONTINUOUS
10
5.9138104330708661
20
-4.0818377952755904
11
5.9120612598425195
21
-4.080827874015748
0
LINE
8
BLACK
6
CONTINUOUS
10
5.9120612598425195
20
-4.080827874015748
11
5.9113704330708661
21
-4.0789298818897635
0
LINE
8
BLACK
6
CONTINUOUS
10
5.9113704330708661
20
-4.0789298818897635
11
5.9113704330708661
21
-4.0425125590551181
0
LINE
8
BLACK
6
CONTINUOUS
10
5.9113704330708661
20
-4.0425125590551181
11
5.9030746062992128
21
-4.0425125590551181
0
LINE
8
BLACK
6
CONTINUOUS
10
5.9030746062992128
20
-4.0425125590551181
11
5.9020646850393703
21
-4.0423344881889767
0
LINE
8
BLACK
6
CONTINUOUS
10
5.9020646850393703
20
-4.0423344881889767
11
5.9005174409448822
21
-4.0410361811023625
0
LINE
8
BLACK
6
CONTINUOUS
10
5.9005174409448822
20
-4.0410361811023625
11
5.9001666929133858
21
-4.039047047244094
0
LINE
8
BLACK
6
CONTINUOUS
10
5.9001666929133858
20
-4.039047047244094
11
5.9011766141732283
21
-4.0372978740157484
0
LINE
8
BLACK
6
CONTINUOUS
10
5.9011766141732283
20
-4.0372978740157484
11
5.9030746062992128
21
-4.036607047244094
0
LINE
8
BLACK
6
CONTINUOUS
10
5.9030746062992128
20
-4.036607047244094
11
5.9255717716535434
21
-4.036607047244094
0
LINE
8
BLACK
6
CONTINUOUS
10
5.9255717716535434
20
-4.036607047244094
11
5.9265816929133859
21
-4.0367851181102363
0
LINE
8
BLACK
6
CONTINUOUS
10
5.954703188976378
20
-4.0367851181102363
11
5.9548384251968507
21
-4.0368985826771651
0
LINE
8
BLACK
6
CONTINUOUS
10
5.9548384251968507
20
-4.0368985826771651
11
5.9550137795275591
21
-4.036918779527559
0
LINE
8
BLACK
6
CONTINUOUS
10
5.9550137795275591
20
-4.036918779527559
11
5.9587633070866142
21
-4.0387935433070865
0
LINE
8
BLACK
6
CONTINUOUS
10
5.9587633070866142
20
-4.0387935433070865
11
5.9594723622047239
21
-4.0393194488188975
0
LINE
8
BLACK
6
CONTINUOUS
10
5.9594723622047239
20
-4.0393194488188975
11
5.9595307086614175
21
-4.0393466535433067
0
LINE
8
BLACK
6
CONTINUOUS
10
5.9595307086614175
20
-4.0393466535433067
11
5.9614054724409451
21
-4.0412214173228342
0
LINE
8
BLACK
6
CONTINUOUS
10
5.9614054724409451
20
-4.0412214173228342
11
5.9619117322834647
21
-4.0419444881889763
0
LINE
8
BLACK
6
CONTINUOUS
10
5.9619117322834647
20
-4.0419444881889763
11
5.9619585826771653
21
-4.0419888188976376
0
LINE
8
BLACK
6
CONTINUOUS
10
5.9619585826771653
20
-4.0419888188976376
11
5.9638333464566928
21
-4.0457383464566927
0
LINE
8
BLACK
6
CONTINUOUS
10
5.9638333464566928
20
-4.0457383464566927
11
5.9641257086614168
21
-4.0467212598425197
0
LINE
8
BLACK
6
CONTINUOUS
10
5.9641257086614168
20
-4.0467212598425197
11
5.9640846850393698
21
-4.046892952755905
0
LINE
8
BLACK
6
CONTINUOUS
10
5.9640846850393698
20
-4.046892952755905
11
5.9641450787401578
21
-4.0470588582677163
0
LINE
8
BLACK
6
CONTINUOUS
10
5.9641450787401578
20
-4.0470588582677163
11
5.9641450787401578
21
-4.0526831496062989
0
LINE
8
BLACK
6
CONTINUOUS
10
5.9641450787401578
20
-4.0526831496062989
11
5.9639670078740155
21
-4.0536930708661414
0
LINE
8
BLACK
6
CONTINUOUS
10
5.9639670078740155
20
-4.0536930708661414
11
5.963853503937008
21
-4.0538283070866141
0
LINE
8
BLACK
6
CONTINUOUS
10
5.963853503937008
20
-4.0538283070866141
11
5.9638333464566928
21
-4.0540036614173225
0
LINE
8
BLACK
6
CONTINUOUS
10
5.9638333464566928
20
-4.0540036614173225
11
5.9619585826771653
21
-4.0577531889763776
0
LINE
8
BLACK
6
CONTINUOUS
10
5.9619585826771653
20
-4.0577531889763776
11
5.9614326771653543
21
-4.0584622440944882
0
LINE
8
BLACK
6
CONTINUOUS
10
5.9614326771653543
20
-4.0584622440944882
11
5.9614054724409451
21
-4.058520590551181
0
LINE
8
BLACK
6
CONTINUOUS
10
5.9614054724409451
20
-4.058520590551181
11
5.9595307086614175
21
-4.0603953543307085
0
LINE
8
BLACK
6
CONTINUOUS
10
5.9595307086614175
20
-4.0603953543307085
11
5.9588075984251967
21
-4.0609016141732281
0
LINE
8
BLACK
6
CONTINUOUS
10
5.9588075984251967
20
-4.0609016141732281
11
5.9587633070866142
21
-4.0609484645669287
0
LINE
8
BLACK
6
CONTINUOUS
10
5.9587633070866142
20
-4.0609484645669287
11
5.9550137795275591
21
-4.0628232283464563
0
LINE
8
BLACK
6
CONTINUOUS
10
5.9550137795275591
20
-4.0628232283464563
11
5.9540308267716533
21
-4.0631155905511811
0
LINE
8
BLACK
6
CONTINUOUS
10
5.9540308267716533
20
-4.0631155905511811
11
5.9538591338582671
21
-4.0630745669291342
0
LINE
8
BLACK
6
CONTINUOUS
10
5.9538591338582671
20
-4.0630745669291342
11
5.9536932677165355
21
-4.0631349606299212
0
LINE
8
BLACK
6
CONTINUOUS
10
5.9536932677165355
20
-4.0631349606299212
11
5.9416479133858262
21
-4.0631349606299212
0
LINE
8
BLACK
6
CONTINUOUS
10
5.9416479133858262
20
-4.0631349606299212
11
5.9416479133858262
21
-4.0789298818897635
0
LINE
8
BLACK
6
CONTINUOUS
10
5.9416479133858262
20
-4.0789298818897635
11
5.9414698425196848
21
-4.0799398031496059
0
LINE
8
BLACK
6
CONTINUOUS
10
5.9414698425196848
20
-4.0799398031496059
11
5.9401715354330706
21
-4.0814870472440941
0
LINE
8
BLACK
6
CONTINUOUS
10
5.9401715354330706
20
-4.0814870472440941
11
5.938182401574803
21
-4.0818377952755904
0
LINE
8
BLACK
6
CONTINUOUS
10
5.938182401574803
20
-4.0818377952755904
11
5.9364332283464565
21
-4.080827874015748
0
LINE
8
BLACK
6
CONTINUOUS
10
5.9364332283464565
20
-4.080827874015748
11
5.935742401574803
21
-4.0789298818897635
0
LINE
8
BLACK
6
CONTINUOUS
10
5.935742401574803
20
-4.0789298818897635
11
5.935742401574803
21
-4.0395598031496061
0
LINE
8
BLACK
6
CONTINUOUS
10
5.935742401574803
20
-4.0395598031496061
11
5.93581
21
-4.0391762598425194
0
LINE
8
BLACK
6
CONTINUOUS
10
5.93581
20
-4.0391762598425194
11
5.9357872440944881
21
-4.039047047244094
0
LINE
8
BLACK
6
CONTINUOUS
10
5.9357872440944881
20
-4.039047047244094
11
5.9358528346456696
21
-4.0389334251968503
0
LINE
8
BLACK
6
CONTINUOUS
10
5.9358528346456696
20
-4.0389334251968503
11
5.9359204724409445
21
-4.0385498818897636
0
LINE
8
BLACK
6
CONTINUOUS
10
5.9359204724409445
20
-4.0385498818897636
11
5.9364135826771651
21
-4.0379621653543305
0
LINE
8
BLACK
6
CONTINUOUS
10
5.9364135826771651
20
-4.0379621653543305
11
5.9367971653543306
21
-4.0372978740157484
0
LINE
8
BLACK
6
CONTINUOUS
10
5.9367971653543306
20
-4.0372978740157484
11
5.9370474803149609
21
-4.0372067322834644
0
LINE
8
BLACK
6
CONTINUOUS
10
5.9370474803149609
20
-4.0372067322834644
11
5.9372187795275586
21
-4.0370026377952755
0
LINE
8
BLACK
6
CONTINUOUS
10
5.9372187795275586
20
-4.0370026377952755
11
5.937974330708661
21
-4.0368693700787404
0
LINE
8
BLACK
6
CONTINUOUS
10
5.937974330708661
20
-4.0368693700787404
11
5.9386951574803151
21
-4.036607047244094
0
LINE
8
BLACK
6
CONTINUOUS
10
5.9386951574803151
20
-4.036607047244094
11
5.9536932677165355
21
-4.036607047244094
0
LINE
8
BLACK
6
CONTINUOUS
10
5.9536932677165355
20
-4.036607047244094
11
5.954703188976378
21
-4.0367851181102363
0
LINE
8
BLACK
6
CONTINUOUS
10
5.9416479133858262
20
-4.0572294488188971
11
5.9529962204724409
21
-4.0572294488188971
0
LINE
8
BLACK
6
CONTINUOUS
10
5.9529962204724409
20
-4.0572294488188971
11
5.9556937007874016
21
-4.0558807086614168
0
LINE
8
BLACK
6
CONTINUOUS
10
5.9556937007874016
20
-4.0558807086614168
11
5.9568908267716534
21
-4.054683582677165
0
LINE
8
BLACK
6
CONTINUOUS
10
5.9568908267716534
20
-4.054683582677165
11
5.9582395669291337
21
-4.0519861023622044
0
LINE
8
BLACK
6
CONTINUOUS
10
5.9582395669291337
20
-4.0519861023622044
11
5.9582395669291337
21
-4.0477559055118109
0
LINE
8
BLACK
6
CONTINUOUS
10
5.9582395669291337
20
-4.0477559055118109
11
5.9568908267716534
21
-4.0450584251968502
0
LINE
8
BLACK
6
CONTINUOUS
10
5.9568908267716534
20
-4.0450584251968502
11
5.9556937007874016
21
-4.0438612992125984
0
LINE
8
BLACK
6
CONTINUOUS
10
5.9556937007874016
20
-4.0438612992125984
11
5.9529962204724409
21
-4.0425125590551181
0
LINE
8
BLACK
6
CONTINUOUS
10
5.9529962204724409
20
-4.0425125590551181
11
5.9416479133858262
21
-4.0425125590551181
0
LINE
8
BLACK
6
CONTINUOUS
10
5.9416479133858262
20
-4.0425125590551181
11
5.9416479133858262
21
-4.0572294488188971
0
LINE
8
BLACK
6
CONTINUOUS
10
6.0491913779527557
20
-4.0367851181102363
11
6.0493266141732285
21
-4.0368985826771651
0
LINE
8
BLACK
6
CONTINUOUS
10
6.0493266141732285
20
-4.0368985826771651
11
6.0495019685039368
21
-4.036918779527559
0
LINE
8
BLACK
6
CONTINUOUS
10
6.0495019685039368
20
-4.036918779527559
11
6.053251496062992
21
-4.0387935433070865
0
LINE
8
BLACK
6
CONTINUOUS
10
6.053251496062992
20
-4.0387935433070865
11
6.0539605511811025
21
-4.0393194488188975
0
LINE
8
BLACK
6
CONTINUOUS
10
6.0539605511811025
20
-4.0393194488188975
11
6.0540188976377953
21
-4.0393466535433067
0
LINE
8
BLACK
6
CONTINUOUS
10
6.0540188976377953
20
-4.0393466535433067
11
6.0558936614173229
21
-4.0412214173228342
0
LINE
8
BLACK
6
CONTINUOUS
10
6.0558936614173229
20
-4.0412214173228342
11
6.0563999212598425
21
-4.0419444881889763
0
LINE
8
BLACK
6
CONTINUOUS
10
6.0563999212598425
20
-4.0419444881889763
11
6.0564467716535431
21
-4.0419888188976376
0
LINE
8
BLACK
6
CONTINUOUS
10
6.0564467716535431
20
-4.0419888188976376
11
6.0583215354330706
21
-4.0457383464566927
0
LINE
8
BLACK
6
CONTINUOUS
10
6.0583215354330706
20
-4.0457383464566927
11
6.0586138976377955
21
-4.0467212598425197
0
LINE
8
BLACK
6
CONTINUOUS
10
6.0586138976377955
20
-4.0467212598425197
11
6.0585728740157476
21
-4.046892952755905
0
LINE
8
BLACK
6
CONTINUOUS
10
6.0585728740157476
20
-4.046892952755905
11
6.0586332677165355
21
-4.0470588582677163
0
LINE
8
BLACK
6
CONTINUOUS
10
6.0586332677165355
20
-4.0470588582677163
11
6.0586332677165355
21
-4.0526831496062989
0
LINE
8
BLACK
6
CONTINUOUS
10
6.0586332677165355
20
-4.0526831496062989
11
6.0584551968503932
21
-4.0536930708661414
0
LINE
8
BLACK
6
CONTINUOUS
10
6.0584551968503932
20
-4.0536930708661414
11
6.0583416929133858
21
-4.0538283070866141
0
LINE
8
BLACK
6
CONTINUOUS
10
6.0583416929133858
20
-4.0538283070866141
11
6.0583215354330706
21
-4.0540036614173225
0
LINE
8
BLACK
6
CONTINUOUS
10
6.0583215354330706
20
-4.0540036614173225
11
6.0564467716535431
21
-4.0577531889763776
0
LINE
8
BLACK
6
CONTINUOUS
10
6.0564467716535431
20
-4.0577531889763776
11
6.0559208661417321
21
-4.0584622440944882
0
LINE
8
BLACK
6
CONTINUOUS
10
6.0559208661417321
20
-4.0584622440944882
11
6.0558936614173229
21
-4.058520590551181
0
LINE
8
BLACK
6
CONTINUOUS
10
6.0558936614173229
20
-4.058520590551181
11
6.0540188976377953
21
-4.0603953543307085
0
LINE
8
BLACK
6
CONTINUOUS
10
6.0540188976377953
20
-4.0603953543307085
11
6.0532957874015745
21
-4.0609016141732281
0
LINE
8
BLACK
6
CONTINUOUS
10
6.0532957874015745
20
-4.0609016141732281
11
6.053251496062992
21
-4.0609484645669287
0
LINE
8
BLACK
6
CONTINUOUS
10
6.053251496062992
20
-4.0609484645669287
11
6.0495019685039368
21
-4.0628232283464563
0
LINE
8
BLACK
6
CONTINUOUS
10
6.0495019685039368
20
-4.0628232283464563
11
6.0485190157480311
21
-4.0631155905511811
0
LINE
8
BLACK
6
CONTINUOUS
10
6.0485190157480311
20
-4.0631155905511811
11
6.0483473228346458
21
-4.0630745669291342
0
LINE
8
BLACK
6
CONTINUOUS
10
6.0483473228346458
20
-4.0630745669291342
11
6.0481814566929133
21
-4.0631349606299212
0
LINE
8
BLACK
6
CONTINUOUS
10
6.0481814566929133
20
-4.0631349606299212
11
6.0361361023622049
21
-4.0631349606299212
0
LINE
8
BLACK
6
CONTINUOUS
10
6.0361361023622049
20
-4.0631349606299212
11
6.0361361023622049
21
-4.0789298818897635
0
LINE
8
BLACK
6
CONTINUOUS
10
6.0361361023622049
20
-4.0789298818897635
11
6.0359580314960626
21
-4.0799398031496059
0
LINE
8
BLACK
6
CONTINUOUS
10
6.0359580314960626
20
-4.0799398031496059
11
6.0346597244094484
21
-4.0814870472440941
0
LINE
8
BLACK
6
CONTINUOUS
10
6.0346597244094484
20
-4.0814870472440941
11
6.0326705905511808
21
-4.0818377952755904
0
LINE
8
BLACK
6
CONTINUOUS
10
6.0326705905511808
20
-4.0818377952755904
11
6.0309214173228343
21
-4.080827874015748
0
LINE
8
BLACK
6
CONTINUOUS
10
6.0309214173228343
20
-4.080827874015748
11
6.0302305905511808
21
-4.0789298818897635
0
LINE
8
BLACK
6
CONTINUOUS
10
6.0302305905511808
20
-4.0789298818897635
11
6.0302305905511808
21
-4.0395598031496061
0
LINE
8
BLACK
6
CONTINUOUS
10
6.0302305905511808
20
-4.0395598031496061
11
6.0302981889763778
21
-4.0391762598425194
0
LINE
8
BLACK
6
CONTINUOUS
10
6.0302981889763778
20
-4.0391762598425194
11
6.0302754330708659
21
-4.039047047244094
0
LINE
8
BLACK
6
CONTINUOUS
10
6.0302754330708659
20
-4.039047047244094
11
6.0303410236220474
21
-4.0389334251968503
0
LINE
8
BLACK
6
CONTINUOUS
10
6.0303410236220474
20
-4.0389334251968503
11
6.0304086614173231
21
-4.0385498818897636
0
LINE
8
BLACK
6
CONTINUOUS
10
6.0304086614173231
20
-4.0385498818897636
11
6.0309017716535429
21
-4.0379621653543305
0
LINE
8
BLACK
6
CONTINUOUS
10
6.0309017716535429
20
-4.0379621653543305
11
6.0312853543307083
21
-4.0372978740157484
0
LINE
8
BLACK
6
CONTINUOUS
10
6.0312853543307083
20
-4.0372978740157484
11
6.0315356692913387
21
-4.0372067322834644
0
LINE
8
BLACK
6
CONTINUOUS
10
6.0315356692913387
20
-4.0372067322834644
11
6.0317069685039373
21
-4.0370026377952755
0
LINE
8
BLACK
6
CONTINUOUS
10
6.0317069685039373
20
-4.0370026377952755
11
6.0324625196850397
21
-4.0368693700787404
0
LINE
8
BLACK
6
CONTINUOUS
10
6.0324625196850397
20
-4.0368693700787404
11
6.0331833464566929
21
-4.036607047244094
0
LINE
8
BLACK
6
CONTINUOUS
10
6.0331833464566929
20
-4.036607047244094
11
6.0481814566929133
21
-4.036607047244094
0
LINE
8
BLACK
6
CONTINUOUS
10
6.0481814566929133
20
-4.036607047244094
11
6.0491913779527557
21
-4.0367851181102363
0
LINE
8
BLACK
6
CONTINUOUS
10
6.0361361023622049
20
-4.0572294488188971
11
6.0474844094488187
21
-4.0572294488188971
0
LINE
8
BLACK
6
CONTINUOUS
10
6.0474844094488187
20
-4.0572294488188971
11
6.0501818897637794
21
-4.0558807086614168
0
LINE
8
BLACK
6
CONTINUOUS
10
6.0501818897637794
20
-4.0558807086614168
11
6.0513790157480312
21
-4.054683582677165
0
LINE
8
BLACK
6
CONTINUOUS
10
6.0513790157480312
20
-4.054683582677165
11
6.0527277559055115
21
-4.0519861023622044
0
LINE
8
BLACK
6
CONTINUOUS
10
6.0527277559055115
20
-4.0519861023622044
11
6.0527277559055115
21
-4.0477559055118109
0
LINE
8
BLACK
6
CONTINUOUS
10
6.0527277559055115
20
-4.0477559055118109
11
6.0513790157480312
21
-4.0450584251968502
0
LINE
8
BLACK
6
CONTINUOUS
10
6.0513790157480312
20
-4.0450584251968502
11
6.0501818897637794
21
-4.0438612992125984
0
LINE
8
BLACK
6
CONTINUOUS
10
6.0501818897637794
20
-4.0438612992125984
11
6.0474844094488187
21
-4.0425125590551181
0
LINE
8
BLACK
6
CONTINUOUS
10
6.0474844094488187
20
-4.0425125590551181
11
6.0361361023622049
21
-4.0425125590551181
0
LINE
8
BLACK
6
CONTINUOUS
10
6.0361361023622049
20
-4.0425125590551181
11
6.0361361023622049
21
-4.0572294488188971
0
LINE
8
BLACK
6
CONTINUOUS
10
6.0814584645669294
20
-4.0350885039370077
11
6.0827985433070868
21
-4.0365997637795274
0
LINE
8
BLACK
6
CONTINUOUS
10
6.0827985433070868
20
-4.0365997637795274
11
6.0828537007874015
21
-4.0386188188976373
0
LINE
8
BLACK
6
CONTINUOUS
10
6.0828537007874015
20
-4.0386188188976373
11
6.0747753937007873
21
-4.0628537401574798
0
LINE
8
BLACK
6
CONTINUOUS
10
6.0747753937007873
20
-4.0628537401574798
11
6.0864735433070862
21
-4.0628537401574798
0
LINE
8
BLACK
6
CONTINUOUS
10
6.0864735433070862
20
-4.0628537401574798
11
6.0864735433070862
21
-4.0526831496062989
0
LINE
8
BLACK
6
CONTINUOUS
10
6.0864735433070862
20
-4.0526831496062989
11
6.0866516141732285
21
-4.0516732283464565
0
LINE
8
BLACK
6
CONTINUOUS
10
6.0866516141732285
20
-4.0516732283464565
11
6.0879499212598427
21
-4.0501259842519683
0
LINE
8
BLACK
6
CONTINUOUS
10
6.0879499212598427
20
-4.0501259842519683
11
6.0899390551181103
21
-4.049775236220472
0
LINE
8
BLACK
6
CONTINUOUS
10
6.0899390551181103
20
-4.049775236220472
11
6.0916882283464568
21
-4.0507851574803144
0
LINE
8
BLACK
6
CONTINUOUS
10
6.0916882283464568
20
-4.0507851574803144
11
6.0923790551181103
21
-4.0526831496062989
0
LINE
8
BLACK
6
CONTINUOUS
10
6.0923790551181103
20
-4.0526831496062989
11
6.0923790551181103
21
-4.0628537401574798
0
LINE
8
BLACK
6
CONTINUOUS
10
6.0923790551181103
20
-4.0628537401574798
11
6.0950505905511809
21
-4.0628537401574798
0
LINE
8
BLACK
6
CONTINUOUS
10
6.0950505905511809
20
-4.0628537401574798
11
6.0960605118110234
21
-4.0630318110236221
0
LINE
8
BLACK
6
CONTINUOUS
10
6.0960605118110234
20
-4.0630318110236221
11
6.0976077559055115
21
-4.0643301181102363
0
LINE
8
BLACK
6
CONTINUOUS
10
6.0976077559055115
20
-4.0643301181102363
11
6.0979585039370079
21
-4.0663192519685039
0
LINE
8
BLACK
6
CONTINUOUS
10
6.0979585039370079
20
-4.0663192519685039
11
6.0969485826771654
21
-4.0680684251968504
0
LINE
8
BLACK
6
CONTINUOUS
10
6.0969485826771654
20
-4.0680684251968504
11
6.0950505905511809
21
-4.0687592519685039
0
LINE
8
BLACK
6
CONTINUOUS
10
6.0950505905511809
20
-4.0687592519685039
11
6.0923790551181103
21
-4.0687592519685039
0
LINE
8
BLACK
6
CONTINUOUS
10
6.0923790551181103
20
-4.0687592519685039
11
6.0923790551181103
21
-4.0789298818897635
0
LINE
8
BLACK
6
CONTINUOUS
10
6.0923790551181103
20
-4.0789298818897635
11
6.092200984251968
21
-4.0799398031496059
0
LINE
8
BLACK
6
CONTINUOUS
10
6.092200984251968
20
-4.0799398031496059
11
6.0909026771653538
21
-4.0814870472440941
0
LINE
8
BLACK
6
CONTINUOUS
10
6.0909026771653538
20
-4.0814870472440941
11
6.0889135433070862
21
-4.0818377952755904
0
LINE
8
BLACK
6
CONTINUOUS
10
6.0889135433070862
20
-4.0818377952755904
11
6.0871643700787397
21
-4.080827874015748
0
LINE
8
BLACK
6
CONTINUOUS
10
6.0871643700787397
20
-4.080827874015748
11
6.0864735433070862
21
-4.0789298818897635
0
LINE
8
BLACK
6
CONTINUOUS
10
6.0864735433070862
20
-4.0789298818897635
11
6.0864735433070862
21
-4.0687592519685039
0
LINE
8
BLACK
6
CONTINUOUS
10
6.0864735433070862
20
-4.0687592519685039
11
6.0706786614173227
21
-4.0687592519685039
0
LINE
8
BLACK
6
CONTINUOUS
10
6.0706786614173227
20
-4.0687592519685039
11
6.0696687401574803
21
-4.0685811811023624
0
LINE
8
BLACK
6
CONTINUOUS
10
6.0696687401574803
20
-4.0685811811023624
11
6.0694958661417324
21
-4.0684361023622042
0
LINE
8
BLACK
6
CONTINUOUS
10
6.0694958661417324
20
-4.0684361023622042
11
6.069272637795275
21
-4.0684030314960626
0
LINE
8
BLACK
6
CONTINUOUS
10
6.069272637795275
20
-4.0684030314960626
11
6.0687383070866137
21
-4.0678004330708664
0
LINE
8
BLACK
6
CONTINUOUS
10
6.0687383070866137
20
-4.0678004330708664
11
6.0681214960629921
21
-4.0672828740157483
0
LINE
8
BLACK
6
CONTINUOUS
10
6.0681214960629921
20
-4.0672828740157483
11
6.0680822834645669
21
-4.0670606299212597
0
LINE
8
BLACK
6
CONTINUOUS
10
6.0680822834645669
20
-4.0670606299212597
11
6.0679325984251964
21
-4.0668918110236216
0
LINE
8
BLACK
6
CONTINUOUS
10
6.0679325984251964
20
-4.0668918110236216
11
6.0679105905511808
21
-4.0660868897637794
0
LINE
8
BLACK
6
CONTINUOUS
10
6.0679105905511808
20
-4.0660868897637794
11
6.0677707480314957
21
-4.0652937401574798
0
LINE
8
BLACK
6
CONTINUOUS
10
6.0677707480314957
20
-4.0652937401574798
11
6.0678835826771653
21
-4.065098267716535
0
LINE
8
BLACK
6
CONTINUOUS
10
6.0678835826771653
20
-4.065098267716535
11
6.0678774409448817
21
-4.0648727559055118
0
LINE
8
BLACK
6
CONTINUOUS
10
6.0678774409448817
20
-4.0648727559055118
11
6.0772512598425195
21
-4.0367512992125985
0
LINE
8
BLACK
6
CONTINUOUS
10
6.0772512598425195
20
-4.0367512992125985
11
6.0777395275590553
21
-4.0358495275590549
0
LINE
8
BLACK
6
CONTINUOUS
10
6.0777395275590553
20
-4.0358495275590549
11
6.0794605118110239
21
-4.0347922440944881
0
LINE
8
BLACK
6
CONTINUOUS
10
6.0794605118110239
20
-4.0347922440944881
11
6.0814584645669294
21
-4.0350885039370077
  0
ENDSEC
  0
EOF
