  0
SECTION
  2
HEADER
  9
$ANGBASE
  50
0.0
  9
$ANGDIR
  70
1
  9
$MEASUREMENT
  70
0
  0
ENDSEC
  0
SECTION
  2
TABLES
  0
TABLE
  2
LTYPE
  70
4
  0
LTYPE
  5
40F
  2
CONTINUOUS
  70
0
  3
Solid line
  72
65
  73
0
  40
0.0
  0
LTYPE
  5
410
  2
DASHDOT
 70
0
  3
Dash Dot ____ _ ____ _
 72
65
 73
4
 40
2.0
 49
1.25
 49
-0.25
 49
0.25
 49
-0.25
  0
LTYPE
  5
411
  2
DASHED
 70
0
  3
Dashed __ __ __ __ __
 72
65
 73
2
 40
0.75
 49
0.5
 49
-0.25
  0
LTYPE
  5
43B
  2
DOTTED
 70
0
  3
Dotted .  .  .  .
 72
65
 73
2
 40
0.2
 49
0.0
 49
-0.2
  0
ENDTAB
  0
TABLE
  2
STYLE
  70
4
  0
STYLE
  2
KICAD
  70
0
  40
0
  41
1
  42
1
  50
0
  71
0
  3
isocp.shx
  0
STYLE
  2
KICADB
  70
0
  40
0
  41
1
  42
1
  50
0
  71
0
  3
isocp.shx
  0
STYLE
  2
KICADI
  70
0
  40
0
  41
1
  42
1
  50
15
  71
0
  3
isocp.shx
  0
STYLE
  2
KICADBI
  70
0
  40
0
  41
1
  42
1
  50
15
  71
0
  3
isocp.shx
  0
ENDTAB
  0
TABLE
  2
LAYER
  70
1
  0
LAYER
  2
BLACK
  70
0
  62
7
  6
CONTINUOUS
  0
ENDTAB
  0
ENDSEC
  0
SECTION
  2
ENTITIES
0
LINE
8
BLACK
6
CONTINUOUS
10
6.5210769685039365
20
-4.5576631889763775
11
6.5216535433070861
21
-4.5590551181102361
0
LINE
8
BLACK
6
CONTINUOUS
10
6.5216535433070861
20
-4.5590551181102361
11
6.5216535433070861
21
-4.8030874015748033
0
LINE
8
BLACK
6
CONTINUOUS
10
6.5216535433070861
20
-4.8030874015748033
11
6.5210769685039365
21
-4.8044793307086611
0
LINE
8
BLACK
6
CONTINUOUS
10
6.5210769685039365
20
-4.8044793307086611
11
6.5196850393700787
21
-4.8050559055118107
0
LINE
8
BLACK
6
CONTINUOUS
10
6.5196850393700787
20
-4.8050559055118107
11
6.51829311023622
21
-4.8044793307086611
0
LINE
8
BLACK
6
CONTINUOUS
10
6.51829311023622
20
-4.8044793307086611
11
6.5177165354330704
21
-4.8030874015748033
0
LINE
8
BLACK
6
CONTINUOUS
10
6.5177165354330704
20
-4.8030874015748033
11
6.5177165354330704
21
-4.7832439763779524
0
LINE
8
BLACK
6
CONTINUOUS
10
6.5177165354330704
20
-4.7832439763779524
11
6.4762434251968504
21
-4.8048335433070868
0
LINE
8
BLACK
6
CONTINUOUS
10
6.4762434251968504
20
-4.8048335433070868
11
6.4747425590551178
21
-4.8049648031496064
0
LINE
8
BLACK
6
CONTINUOUS
10
6.4747425590551178
20
-4.8049648031496064
11
6.4735883858267718
21
-4.8039963779527559
0
LINE
8
BLACK
6
CONTINUOUS
10
6.4735883858267718
20
-4.8039963779527559
11
6.4734571259842522
21
-4.8024955118110233
0
LINE
8
BLACK
6
CONTINUOUS
10
6.4734571259842522
20
-4.8024955118110233
11
6.4744255511811026
21
-4.8013413385826773
0
LINE
8
BLACK
6
CONTINUOUS
10
6.4744255511811026
20
-4.8013413385826773
11
6.5116404330708662
21
-4.7819685039370077
0
LINE
8
BLACK
6
CONTINUOUS
10
6.5116404330708662
20
-4.7819685039370077
11
5.3466273228346459
21
-4.7819685039370077
0
LINE
8
BLACK
6
CONTINUOUS
10
5.3466273228346459
20
-4.7819685039370077
11
5.3838421653543307
21
-4.8013413385826773
0
LINE
8
BLACK
6
CONTINUOUS
10
5.3838421653543307
20
-4.8013413385826773
11
5.3848105905511812
21
-4.8024955118110233
0
LINE
8
BLACK
6
CONTINUOUS
10
5.3848105905511812
20
-4.8024955118110233
11
5.3846792913385828
21
-4.8039963779527559
0
LINE
8
BLACK
6
CONTINUOUS
10
5.3846792913385828
20
-4.8039963779527559
11
5.3835251574803147
21
-4.8049648031496064
0
LINE
8
BLACK
6
CONTINUOUS
10
5.3835251574803147
20
-4.8049648031496064
11
5.3820242519685042
21
-4.804833503937008
0
LINE
8
BLACK
6
CONTINUOUS
10
5.3820242519685042
20
-4.804833503937008
11
5.340551181102362
21
-4.7832439763779524
0
LINE
8
BLACK
6
CONTINUOUS
10
5.340551181102362
20
-4.7832439763779524
11
5.340551181102362
21
-4.8030874015748033
0
LINE
8
BLACK
6
CONTINUOUS
10
5.340551181102362
20
-4.8030874015748033
11
5.3399746062992124
21
-4.8044793307086611
0
LINE
8
BLACK
6
CONTINUOUS
10
5.3399746062992124
20
-4.8044793307086611
11
5.3385826771653546
21
-4.8050559055118107
0
LINE
8
BLACK
6
CONTINUOUS
10
5.3385826771653546
20
-4.8050559055118107
11
5.337190748031496
21
-4.8044793307086611
0
LINE
8
BLACK
6
CONTINUOUS
10
5.337190748031496
20
-4.8044793307086611
11
5.3366141732283463
21
-4.8030874015748033
0
LINE
8
BLACK
6
CONTINUOUS
10
5.3366141732283463
20
-4.8030874015748033
11
5.3366141732283463
21
-4.5590551181102361
0
LINE
8
BLACK
6
CONTINUOUS
10
5.3366141732283463
20
-4.5590551181102361
11
5.337190748031496
21
-4.5576631889763775
0
LINE
8
BLACK
6
CONTINUOUS
10
5.337190748031496
20
-4.5576631889763775
11
5.3385826771653546
21
-4.5570866141732278
0
LINE
8
BLACK
6
CONTINUOUS
10
5.3385826771653546
20
-4.5570866141732278
11
5.3399746062992124
21
-4.5576631889763775
0
LINE
8
BLACK
6
CONTINUOUS
10
5.3399746062992124
20
-4.5576631889763775
11
5.340551181102362
21
-4.5590551181102361
0
LINE
8
BLACK
6
CONTINUOUS
10
5.340551181102362
20
-4.5590551181102361
11
5.340551181102362
21
-4.7767559842519685
0
LINE
8
BLACK
6
CONTINUOUS
10
5.340551181102362
20
-4.7767559842519685
11
5.3820242519685042
21
-4.7551664960629916
0
LINE
8
BLACK
6
CONTINUOUS
10
5.3820242519685042
20
-4.7551664960629916
11
5.3835251574803147
21
-4.7550351968503932
0
LINE
8
BLACK
6
CONTINUOUS
10
5.3835251574803147
20
-4.7550351968503932
11
5.3846792913385828
21
-4.7560036220472437
0
LINE
8
BLACK
6
CONTINUOUS
10
5.3846792913385828
20
-4.7560036220472437
11
5.3848105905511812
21
-4.7575044881889763
0
LINE
8
BLACK
6
CONTINUOUS
10
5.3848105905511812
20
-4.7575044881889763
11
5.3838421653543307
21
-4.7586586614173223
0
LINE
8
BLACK
6
CONTINUOUS
10
5.3838421653543307
20
-4.7586586614173223
11
5.3466273228346459
21
-4.7780314960629919
0
LINE
8
BLACK
6
CONTINUOUS
10
5.3466273228346459
20
-4.7780314960629919
11
6.5116404330708662
21
-4.7780314960629919
0
LINE
8
BLACK
6
CONTINUOUS
10
6.5116404330708662
20
-4.7780314960629919
11
6.4744255511811026
21
-4.7586586614173223
0
LINE
8
BLACK
6
CONTINUOUS
10
6.4744255511811026
20
-4.7586586614173223
11
6.4734571259842522
21
-4.7575044881889763
0
LINE
8
BLACK
6
CONTINUOUS
10
6.4734571259842522
20
-4.7575044881889763
11
6.4735883858267718
21
-4.7560036220472437
0
LINE
8
BLACK
6
CONTINUOUS
10
6.4735883858267718
20
-4.7560036220472437
11
6.4747425590551178
21
-4.7550351968503932
0
LINE
8
BLACK
6
CONTINUOUS
10
6.4747425590551178
20
-4.7550351968503932
11
6.4762434251968504
21
-4.7551664566929137
0
LINE
8
BLACK
6
CONTINUOUS
10
6.4762434251968504
20
-4.7551664566929137
11
6.5177165354330704
21
-4.7767559842519685
0
LINE
8
BLACK
6
CONTINUOUS
10
6.5177165354330704
20
-4.7767559842519685
11
6.5177165354330704
21
-4.5590551181102361
0
LINE
8
BLACK
6
CONTINUOUS
10
6.5177165354330704
20
-4.5590551181102361
11
6.51829311023622
21
-4.5576631889763775
0
LINE
8
BLACK
6
CONTINUOUS
10
6.51829311023622
20
-4.5576631889763775
11
6.5196850393700787
21
-4.5570866141732278
0
LINE
8
BLACK
6
CONTINUOUS
10
6.5196850393700787
20
-4.5570866141732278
11
6.5210769685039365
21
-4.5576631889763775
0
LINE
8
BLACK
6
CONTINUOUS
10
5.7702161023622045
20
-4.7103849212598421
11
5.7703516141732285
21
-4.710363937007874
0
LINE
8
BLACK
6
CONTINUOUS
10
5.7703516141732285
20
-4.710363937007874
11
5.7704562598425193
21
-4.7104272834645666
0
LINE
8
BLACK
6
CONTINUOUS
10
5.7704562598425193
20
-4.7104272834645666
11
5.770788700787401
21
-4.7104859055118107
0
LINE
8
BLACK
6
CONTINUOUS
10
5.770788700787401
20
-4.7104859055118107
11
5.7713984645669294
21
-4.7109975590551176
0
LINE
8
BLACK
6
CONTINUOUS
10
5.7713984645669294
20
-4.7109975590551176
11
5.7720795275590548
21
-4.7114098031496061
0
LINE
8
BLACK
6
CONTINUOUS
10
5.7720795275590548
20
-4.7114098031496061
11
5.7721554724409447
21
-4.7116327952755901
0
LINE
8
BLACK
6
CONTINUOUS
10
5.7721554724409447
20
-4.7116327952755901
11
5.7723359448818901
21
-4.7117842125984248
0
LINE
8
BLACK
6
CONTINUOUS
10
5.7723359448818901
20
-4.7117842125984248
11
5.7724741732283462
21
-4.712568149606299
0
LINE
8
BLACK
6
CONTINUOUS
10
5.7724741732283462
20
-4.712568149606299
11
5.7727309055118106
21
-4.7133216929133859
0
LINE
8
BLACK
6
CONTINUOUS
10
5.7727309055118106
20
-4.7133216929133859
11
5.7726457480314961
21
-4.713541299212598
0
LINE
8
BLACK
6
CONTINUOUS
10
5.7726457480314961
20
-4.713541299212598
11
5.7726866929133855
21
-4.7137733464566924
0
LINE
8
BLACK
6
CONTINUOUS
10
5.7726866929133855
20
-4.7137733464566924
11
5.7722885826771648
21
-4.7144627952755904
0
LINE
8
BLACK
6
CONTINUOUS
10
5.7722885826771648
20
-4.7144627952755904
11
5.7720009448818894
21
-4.7152050000000001
0
LINE
8
BLACK
6
CONTINUOUS
10
5.7720009448818894
20
-4.7152050000000001
11
5.7630446062992124
21
-4.7254407874015749
0
LINE
8
BLACK
6
CONTINUOUS
10
5.7630446062992124
20
-4.7254407874015749
11
5.7632896456692908
21
-4.7254840157480311
0
LINE
8
BLACK
6
CONTINUOUS
10
5.7632896456692908
20
-4.7254840157480311
11
5.7634248818897635
21
-4.7255974803149607
0
LINE
8
BLACK
6
CONTINUOUS
10
5.7634248818897635
20
-4.7255974803149607
11
5.7636002362204719
21
-4.7256176771653546
0
LINE
8
BLACK
6
CONTINUOUS
10
5.7636002362204719
20
-4.7256176771653546
11
5.767349763779527
21
-4.7274924409448822
0
LINE
8
BLACK
6
CONTINUOUS
10
5.767349763779527
20
-4.7274924409448822
11
5.7680588188976376
21
-4.7280183464566932
0
LINE
8
BLACK
6
CONTINUOUS
10
5.7680588188976376
20
-4.7280183464566932
11
5.7681171653543304
21
-4.7280455511811024
0
LINE
8
BLACK
6
CONTINUOUS
10
5.7681171653543304
20
-4.7280455511811024
11
5.7699919291338579
21
-4.7299203149606299
0
LINE
8
BLACK
6
CONTINUOUS
10
5.7699919291338579
20
-4.7299203149606299
11
5.7704981889763776
21
-4.7306433858267711
0
LINE
8
BLACK
6
CONTINUOUS
10
5.7704981889763776
20
-4.7306433858267711
11
5.770545039370079
21
-4.7306877165354333
0
LINE
8
BLACK
6
CONTINUOUS
10
5.770545039370079
20
-4.7306877165354333
11
5.7724198031496066
21
-4.7344372440944884
0
LINE
8
BLACK
6
CONTINUOUS
10
5.7724198031496066
20
-4.7344372440944884
11
5.7727121653543305
21
-4.7354201574803145
0
LINE
8
BLACK
6
CONTINUOUS
10
5.7727121653543305
20
-4.7354201574803145
11
5.7726711417322836
21
-4.7355918503937007
0
LINE
8
BLACK
6
CONTINUOUS
10
5.7726711417322836
20
-4.7355918503937007
11
5.7727315354330706
21
-4.735757755905512
0
LINE
8
BLACK
6
CONTINUOUS
10
5.7727315354330706
20
-4.735757755905512
11
5.7727315354330706
21
-4.7451315748031497
0
LINE
8
BLACK
6
CONTINUOUS
10
5.7727315354330706
20
-4.7451315748031497
11
5.7725534645669292
21
-4.7461414960629922
0
LINE
8
BLACK
6
CONTINUOUS
10
5.7725534645669292
20
-4.7461414960629922
11
5.7724399606299208
21
-4.746276732283464
0
LINE
8
BLACK
6
CONTINUOUS
10
5.7724399606299208
20
-4.746276732283464
11
5.7724198031496066
21
-4.7464520866141733
0
LINE
8
BLACK
6
CONTINUOUS
10
5.7724198031496066
20
-4.7464520866141733
11
5.770545039370079
21
-4.7502016141732284
0
LINE
8
BLACK
6
CONTINUOUS
10
5.770545039370079
20
-4.7502016141732284
11
5.7700190944881893
21
-4.7509106692913381
0
LINE
8
BLACK
6
CONTINUOUS
10
5.7700190944881893
20
-4.7509106692913381
11
5.7699919291338579
21
-4.7509690157480318
0
LINE
8
BLACK
6
CONTINUOUS
10
5.7699919291338579
20
-4.7509690157480318
11
5.7681172047244091
21
-4.7528437795275593
0
LINE
8
BLACK
6
CONTINUOUS
10
5.7681172047244091
20
-4.7528437795275593
11
5.7673940157480317
21
-4.7533501574803152
0
LINE
8
BLACK
6
CONTINUOUS
10
5.7673940157480317
20
-4.7533501574803152
11
5.767349763779527
21
-4.7533969291338583
0
LINE
8
BLACK
6
CONTINUOUS
10
5.767349763779527
20
-4.7533969291338583
11
5.7636002362204719
21
-4.7552716929133858
0
LINE
8
BLACK
6
CONTINUOUS
10
5.7636002362204719
20
-4.7552716929133858
11
5.762617283464567
21
-4.7555640551181098
0
LINE
8
BLACK
6
CONTINUOUS
10
5.762617283464567
20
-4.7555640551181098
11
5.7624455905511809
21
-4.7555230314960628
0
LINE
8
BLACK
6
CONTINUOUS
10
5.7624455905511809
20
-4.7555230314960628
11
5.7622797244094484
21
-4.7555834251968498
0
LINE
8
BLACK
6
CONTINUOUS
10
5.7622797244094484
20
-4.7555834251968498
11
5.751031141732283
21
-4.7555834251968498
0
LINE
8
BLACK
6
CONTINUOUS
10
5.751031141732283
20
-4.7555834251968498
11
5.7500212204724406
21
-4.7554053543307084
0
LINE
8
BLACK
6
CONTINUOUS
10
5.7500212204724406
20
-4.7554053543307084
11
5.74988594488189
21
-4.7552918503937009
0
LINE
8
BLACK
6
CONTINUOUS
10
5.74988594488189
20
-4.7552918503937009
11
5.7497106299212595
21
-4.7552716929133858
0
LINE
8
BLACK
6
CONTINUOUS
10
5.7497106299212595
20
-4.7552716929133858
11
5.7459611023622044
21
-4.7533969291338583
0
LINE
8
BLACK
6
CONTINUOUS
10
5.7459611023622044
20
-4.7533969291338583
11
5.7452519685039372
21
-4.7528709448818898
0
LINE
8
BLACK
6
CONTINUOUS
10
5.7452519685039372
20
-4.7528709448818898
11
5.7451936614173231
21
-4.7528437795275593
0
LINE
8
BLACK
6
CONTINUOUS
10
5.7451936614173231
20
-4.7528437795275593
11
5.7433188976377956
21
-4.750968976377953
0
LINE
8
BLACK
6
CONTINUOUS
10
5.7433188976377956
20
-4.750968976377953
11
5.7427307086614174
21
-4.7501289370078741
0
LINE
8
BLACK
6
CONTINUOUS
10
5.7427307086614174
20
-4.7501289370078741
11
5.742554724409449
21
-4.7481168503937008
0
LINE
8
BLACK
6
CONTINUOUS
10
5.742554724409449
20
-4.7481168503937008
11
5.7437132283464569
21
-4.7464623228346454
0
LINE
8
BLACK
6
CONTINUOUS
10
5.7437132283464569
20
-4.7464623228346454
11
5.7456642125984247
21
-4.7459396062992125
0
LINE
8
BLACK
6
CONTINUOUS
10
5.7456642125984247
20
-4.7459396062992125
11
5.747494803149606
21
-4.7467932283464567
0
LINE
8
BLACK
6
CONTINUOUS
10
5.747494803149606
20
-4.7467932283464567
11
5.749030708661417
21
-4.7483291732283464
0
LINE
8
BLACK
6
CONTINUOUS
10
5.749030708661417
20
-4.7483291732283464
11
5.7517281889763776
21
-4.7496779133858267
0
LINE
8
BLACK
6
CONTINUOUS
10
5.7517281889763776
20
-4.7496779133858267
11
5.7615826771653538
21
-4.7496779133858267
0
LINE
8
BLACK
6
CONTINUOUS
10
5.7615826771653538
20
-4.7496779133858267
11
5.7642801181102357
21
-4.7483291732283464
0
LINE
8
BLACK
6
CONTINUOUS
10
5.7642801181102357
20
-4.7483291732283464
11
5.7654772440944884
21
-4.7471320078740158
0
LINE
8
BLACK
6
CONTINUOUS
10
5.7654772440944884
20
-4.7471320078740158
11
5.7668260236220474
21
-4.7444345275590551
0
LINE
8
BLACK
6
CONTINUOUS
10
5.7668260236220474
20
-4.7444345275590551
11
5.7668260236220474
21
-4.7364548031496065
0
LINE
8
BLACK
6
CONTINUOUS
10
5.7668260236220474
20
-4.7364548031496065
11
5.7654772834645671
21
-4.7337573228346459
0
LINE
8
BLACK
6
CONTINUOUS
10
5.7654772834645671
20
-4.7337573228346459
11
5.7642801574803144
21
-4.7325601968503932
0
LINE
8
BLACK
6
CONTINUOUS
10
5.7642801574803144
20
-4.7325601968503932
11
5.7615826771653538
21
-4.7312114566929129
0
LINE
8
BLACK
6
CONTINUOUS
10
5.7615826771653538
20
-4.7312114566929129
11
5.7566554330708657
21
-4.7312114566929129
0
LINE
8
BLACK
6
CONTINUOUS
10
5.7566554330708657
20
-4.7312114566929129
11
5.7562180708661419
21
-4.7311343307086613
0
LINE
8
BLACK
6
CONTINUOUS
10
5.7562180708661419
20
-4.7311343307086613
11
5.7560825984251967
21
-4.731155354330709
0
LINE
8
BLACK
6
CONTINUOUS
10
5.7560825984251967
20
-4.731155354330709
11
5.7559779133858262
21
-4.7310919685039368
0
LINE
8
BLACK
6
CONTINUOUS
10
5.7559779133858262
20
-4.7310919685039368
11
5.7556455118110232
21
-4.7310333858267715
0
LINE
8
BLACK
6
CONTINUOUS
10
5.7556455118110232
20
-4.7310333858267715
11
5.755035708661417
21
-4.7305216929133858
0
LINE
8
BLACK
6
CONTINUOUS
10
5.755035708661417
20
-4.7305216929133858
11
5.7543546850393703
21
-4.730109488188976
0
LINE
8
BLACK
6
CONTINUOUS
10
5.7543546850393703
20
-4.730109488188976
11
5.7542787007874017
21
-4.7298864566929133
0
LINE
8
BLACK
6
CONTINUOUS
10
5.7542787007874017
20
-4.7298864566929133
11
5.7540982677165351
21
-4.7297350787401573
0
LINE
8
BLACK
6
CONTINUOUS
10
5.7540982677165351
20
-4.7297350787401573
11
5.7539600000000002
21
-4.7289511023622044
0
LINE
8
BLACK
6
CONTINUOUS
10
5.7539600000000002
20
-4.7289511023622044
11
5.7537033070866137
21
-4.7281975984251972
0
LINE
8
BLACK
6
CONTINUOUS
10
5.7537033070866137
20
-4.7281975984251972
11
5.7537884251968503
21
-4.7279779527559054
0
LINE
8
BLACK
6
CONTINUOUS
10
5.7537884251968503
20
-4.7279779527559054
11
5.7537475196850396
21
-4.7277459448818897
0
LINE
8
BLACK
6
CONTINUOUS
10
5.7537475196850396
20
-4.7277459448818897
11
5.7541455905511807
21
-4.727056456692913
0
LINE
8
BLACK
6
CONTINUOUS
10
5.7541455905511807
20
-4.727056456692913
11
5.7544332677165357
21
-4.7263142913385829
0
LINE
8
BLACK
6
CONTINUOUS
10
5.7544332677165357
20
-4.7263142913385829
11
5.7632716141732283
21
-4.7162133464566924
0
LINE
8
BLACK
6
CONTINUOUS
10
5.7632716141732283
20
-4.7162133464566924
11
5.7454068503937004
21
-4.7162133464566924
0
LINE
8
BLACK
6
CONTINUOUS
10
5.7454068503937004
20
-4.7162133464566924
11
5.7443969291338579
21
-4.716035275590551
0
LINE
8
BLACK
6
CONTINUOUS
10
5.7443969291338579
20
-4.716035275590551
11
5.7428496850393698
21
-4.7147369685039369
0
LINE
8
BLACK
6
CONTINUOUS
10
5.7428496850393698
20
-4.7147369685039369
11
5.7424989370078743
21
-4.7127478346456693
0
LINE
8
BLACK
6
CONTINUOUS
10
5.7424989370078743
20
-4.7127478346456693
11
5.7435088582677167
21
-4.7109986614173227
0
LINE
8
BLACK
6
CONTINUOUS
10
5.7435088582677167
20
-4.7109986614173227
11
5.7454068503937004
21
-4.7103078346456693
0
LINE
8
BLACK
6
CONTINUOUS
10
5.7454068503937004
20
-4.7103078346456693
11
5.7697787795275586
21
-4.7103078346456693
0
LINE
8
BLACK
6
CONTINUOUS
10
5.7697787795275586
20
-4.7103078346456693
11
5.7702161023622045
21
-4.7103849212598421
0
LINE
8
BLACK
6
CONTINUOUS
10
5.798910196850394
20
-4.7104859055118107
11
5.7990454330708658
21
-4.7105993700787403
0
LINE
8
BLACK
6
CONTINUOUS
10
5.7990454330708658
20
-4.7105993700787403
11
5.7992207874015751
21
-4.7106195669291342
0
LINE
8
BLACK
6
CONTINUOUS
10
5.7992207874015751
20
-4.7106195669291342
11
5.8029703149606302
21
-4.7124943307086617
0
LINE
8
BLACK
6
CONTINUOUS
10
5.8029703149606302
20
-4.7124943307086617
11
5.8036793700787399
21
-4.7130202362204727
0
LINE
8
BLACK
6
CONTINUOUS
10
5.8036793700787399
20
-4.7130202362204727
11
5.8037377165354327
21
-4.7130474409448819
0
LINE
8
BLACK
6
CONTINUOUS
10
5.8037377165354327
20
-4.7130474409448819
11
5.8056124803149602
21
-4.7149222047244095
0
LINE
8
BLACK
6
CONTINUOUS
10
5.8056124803149602
20
-4.7149222047244095
11
5.8061187401574799
21
-4.7156452755905507
0
LINE
8
BLACK
6
CONTINUOUS
10
5.8061187401574799
20
-4.7156452755905507
11
5.8061655905511813
21
-4.7156896062992129
0
LINE
8
BLACK
6
CONTINUOUS
10
5.8061655905511813
20
-4.7156896062992129
11
5.8080403543307089
21
-4.719439133858268
0
LINE
8
BLACK
6
CONTINUOUS
10
5.8080403543307089
20
-4.719439133858268
11
5.80818562992126
21
-4.719927559055118
0
LINE
8
BLACK
6
CONTINUOUS
10
5.80818562992126
20
-4.719927559055118
11
5.8082639370078741
21
-4.7200435039370081
0
LINE
8
BLACK
6
CONTINUOUS
10
5.8082639370078741
20
-4.7200435039370081
11
5.8101387007874017
21
-4.7275425590551183
0
LINE
8
BLACK
6
CONTINUOUS
10
5.8101387007874017
20
-4.7275425590551183
11
5.8101801574803149
21
-4.7281304330708664
0
LINE
8
BLACK
6
CONTINUOUS
10
5.8101801574803149
20
-4.7281304330708664
11
5.8102268503937005
21
-4.7282587007874017
0
LINE
8
BLACK
6
CONTINUOUS
10
5.8102268503937005
20
-4.7282587007874017
11
5.8102268503937005
21
-4.7376325196850395
0
LINE
8
BLACK
6
CONTINUOUS
10
5.8102268503937005
20
-4.7376325196850395
11
5.8101244881889764
21
-4.7382128740157476
0
LINE
8
BLACK
6
CONTINUOUS
10
5.8101244881889764
20
-4.7382128740157476
11
5.8101387007874017
21
-4.7383486614173229
0
LINE
8
BLACK
6
CONTINUOUS
10
5.8101387007874017
20
-4.7383486614173229
11
5.8082639370078741
21
-4.7458477165354331
0
LINE
8
BLACK
6
CONTINUOUS
10
5.8082639370078741
20
-4.7458477165354331
11
5.8080563385826771
21
-4.7463131496062987
0
LINE
8
BLACK
6
CONTINUOUS
10
5.8080563385826771
20
-4.7463131496062987
11
5.8080403543307089
21
-4.7464520866141733
0
LINE
8
BLACK
6
CONTINUOUS
10
5.8080403543307089
20
-4.7464520866141733
11
5.8061655905511813
21
-4.7502016141732284
0
LINE
8
BLACK
6
CONTINUOUS
10
5.8061655905511813
20
-4.7502016141732284
11
5.8056396456692916
21
-4.7509106692913381
0
LINE
8
BLACK
6
CONTINUOUS
10
5.8056396456692916
20
-4.7509106692913381
11
5.8056124803149602
21
-4.7509690157480318
0
LINE
8
BLACK
6
CONTINUOUS
10
5.8056124803149602
20
-4.7509690157480318
11
5.8037377559055114
21
-4.7528437795275593
0
LINE
8
BLACK
6
CONTINUOUS
10
5.8037377559055114
20
-4.7528437795275593
11
5.803014566929134
21
-4.7533501574803152
0
LINE
8
BLACK
6
CONTINUOUS
10
5.803014566929134
20
-4.7533501574803152
11
5.8029703149606302
21
-4.7533969291338583
0
LINE
8
BLACK
6
CONTINUOUS
10
5.8029703149606302
20
-4.7533969291338583
11
5.7992207874015751
21
-4.7552716929133858
0
LINE
8
BLACK
6
CONTINUOUS
10
5.7992207874015751
20
-4.7552716929133858
11
5.7982378346456693
21
-4.7555640551181098
0
LINE
8
BLACK
6
CONTINUOUS
10
5.7982378346456693
20
-4.7555640551181098
11
5.7980661417322832
21
-4.7555230314960628
0
LINE
8
BLACK
6
CONTINUOUS
10
5.7980661417322832
20
-4.7555230314960628
11
5.7979002755905507
21
-4.7555834251968498
0
LINE
8
BLACK
6
CONTINUOUS
10
5.7979002755905507
20
-4.7555834251968498
11
5.7941507480314955
21
-4.7555834251968498
0
LINE
8
BLACK
6
CONTINUOUS
10
5.7941507480314955
20
-4.7555834251968498
11
5.7931408267716531
21
-4.7554053543307084
0
LINE
8
BLACK
6
CONTINUOUS
10
5.7931408267716531
20
-4.7554053543307084
11
5.7930055511811025
21
-4.7552918503937009
0
LINE
8
BLACK
6
CONTINUOUS
10
5.7930055511811025
20
-4.7552918503937009
11
5.792830236220472
21
-4.7552716929133858
0
LINE
8
BLACK
6
CONTINUOUS
10
5.792830236220472
20
-4.7552716929133858
11
5.7890807086614169
21
-4.7533969291338583
0
LINE
8
BLACK
6
CONTINUOUS
10
5.7890807086614169
20
-4.7533969291338583
11
5.7883715748031497
21
-4.7528709448818898
0
LINE
8
BLACK
6
CONTINUOUS
10
5.7883715748031497
20
-4.7528709448818898
11
5.7883132677165356
21
-4.7528437795275593
0
LINE
8
BLACK
6
CONTINUOUS
10
5.7883132677165356
20
-4.7528437795275593
11
5.7864385039370081
21
-4.750968976377953
0
LINE
8
BLACK
6
CONTINUOUS
10
5.7864385039370081
20
-4.750968976377953
11
5.7859322047244097
21
-4.7502459055118109
0
LINE
8
BLACK
6
CONTINUOUS
10
5.7859322047244097
20
-4.7502459055118109
11
5.7858854330708658
21
-4.7502016141732284
0
LINE
8
BLACK
6
CONTINUOUS
10
5.7858854330708658
20
-4.7502016141732284
11
5.7840106692913382
21
-4.7464520866141733
0
LINE
8
BLACK
6
CONTINUOUS
10
5.7840106692913382
20
-4.7464520866141733
11
5.7838653543307084
21
-4.7459636220472436
0
LINE
8
BLACK
6
CONTINUOUS
10
5.7838653543307084
20
-4.7459636220472436
11
5.783787086614173
21
-4.7458477165354331
0
LINE
8
BLACK
6
CONTINUOUS
10
5.783787086614173
20
-4.7458477165354331
11
5.7819123228346454
21
-4.7383486614173229
0
LINE
8
BLACK
6
CONTINUOUS
10
5.7819123228346454
20
-4.7383486614173229
11
5.7818708267716534
21
-4.737760748031496
0
LINE
8
BLACK
6
CONTINUOUS
10
5.7818708267716534
20
-4.737760748031496
11
5.7818241732283466
21
-4.7376325196850395
0
LINE
8
BLACK
6
CONTINUOUS
10
5.7818241732283466
20
-4.7376325196850395
11
5.7818241732283466
21
-4.7282587007874017
0
LINE
8
BLACK
6
CONTINUOUS
10
5.7818241732283466
20
-4.7282587007874017
11
5.7819264960629919
21
-4.727678307086614
0
LINE
8
BLACK
6
CONTINUOUS
10
5.7819264960629919
20
-4.727678307086614
11
5.7819123228346454
21
-4.7275425590551183
0
LINE
8
BLACK
6
CONTINUOUS
10
5.7819123228346454
20
-4.7275425590551183
11
5.783787086614173
21
-4.7200435039370081
0
LINE
8
BLACK
6
CONTINUOUS
10
5.783787086614173
20
-4.7200435039370081
11
5.7839946456692912
21
-4.7195780314960629
0
LINE
8
BLACK
6
CONTINUOUS
10
5.7839946456692912
20
-4.7195780314960629
11
5.7840106692913382
21
-4.719439133858268
0
LINE
8
BLACK
6
CONTINUOUS
10
5.7840106692913382
20
-4.719439133858268
11
5.7858854330708658
21
-4.7156896062992129
0
LINE
8
BLACK
6
CONTINUOUS
10
5.7858854330708658
20
-4.7156896062992129
11
5.7864113385826768
21
-4.7149805118110235
0
LINE
8
BLACK
6
CONTINUOUS
10
5.7864113385826768
20
-4.7149805118110235
11
5.7864385433070868
21
-4.7149222047244095
0
LINE
8
BLACK
6
CONTINUOUS
10
5.7864385433070868
20
-4.7149222047244095
11
5.7883133070866144
21
-4.7130474409448819
0
LINE
8
BLACK
6
CONTINUOUS
10
5.7883133070866144
20
-4.7130474409448819
11
5.7890363779527556
21
-4.7125411417322836
0
LINE
8
BLACK
6
CONTINUOUS
10
5.7890363779527556
20
-4.7125411417322836
11
5.7890807086614169
21
-4.7124943307086617
0
LINE
8
BLACK
6
CONTINUOUS
10
5.7890807086614169
20
-4.7124943307086617
11
5.792830236220472
21
-4.7106195669291342
0
LINE
8
BLACK
6
CONTINUOUS
10
5.792830236220472
20
-4.7106195669291342
11
5.793813149606299
21
-4.7103272047244094
0
LINE
8
BLACK
6
CONTINUOUS
10
5.793813149606299
20
-4.7103272047244094
11
5.7939848425196852
21
-4.7103681889763775
0
LINE
8
BLACK
6
CONTINUOUS
10
5.7939848425196852
20
-4.7103681889763775
11
5.7941507480314955
21
-4.7103078346456693
0
LINE
8
BLACK
6
CONTINUOUS
10
5.7941507480314955
20
-4.7103078346456693
11
5.7979002755905507
21
-4.7103078346456693
0
LINE
8
BLACK
6
CONTINUOUS
10
5.7979002755905507
20
-4.7103078346456693
11
5.798910196850394
21
-4.7104859055118107
0
LINE
8
BLACK
6
CONTINUOUS
10
5.7921503149606295
20
-4.7175620866141728
11
5.7909531889763777
21
-4.7187592125984255
0
LINE
8
BLACK
6
CONTINUOUS
10
5.7909531889763777
20
-4.7187592125984255
11
5.7894376771653544
21
-4.7217901968503933
0
LINE
8
BLACK
6
CONTINUOUS
10
5.7894376771653544
20
-4.7217901968503933
11
5.7877296850393698
21
-4.7286222440944883
0
LINE
8
BLACK
6
CONTINUOUS
10
5.7877296850393698
20
-4.7286222440944883
11
5.7877296850393698
21
-4.737268976377953
0
LINE
8
BLACK
6
CONTINUOUS
10
5.7877296850393698
20
-4.737268976377953
11
5.7894376771653544
21
-4.7441010236220471
0
LINE
8
BLACK
6
CONTINUOUS
10
5.7894376771653544
20
-4.7441010236220471
11
5.7909531889763777
21
-4.7471320078740158
0
LINE
8
BLACK
6
CONTINUOUS
10
5.7909531889763777
20
-4.7471320078740158
11
5.7921503149606295
21
-4.7483291732283464
0
LINE
8
BLACK
6
CONTINUOUS
10
5.7921503149606295
20
-4.7483291732283464
11
5.7948477952755901
21
-4.7496779133858267
0
LINE
8
BLACK
6
CONTINUOUS
10
5.7948477952755901
20
-4.7496779133858267
11
5.797203228346457
21
-4.7496779133858267
0
LINE
8
BLACK
6
CONTINUOUS
10
5.797203228346457
20
-4.7496779133858267
11
5.7999006692913389
21
-4.7483291732283464
0
LINE
8
BLACK
6
CONTINUOUS
10
5.7999006692913389
20
-4.7483291732283464
11
5.8010977952755907
21
-4.7471320078740158
0
LINE
8
BLACK
6
CONTINUOUS
10
5.8010977952755907
20
-4.7471320078740158
11
5.8026133070866139
21
-4.7441010236220471
0
LINE
8
BLACK
6
CONTINUOUS
10
5.8026133070866139
20
-4.7441010236220471
11
5.8043213385826773
21
-4.737268976377953
0
LINE
8
BLACK
6
CONTINUOUS
10
5.8043213385826773
20
-4.737268976377953
11
5.8043213385826773
21
-4.7286222440944883
0
LINE
8
BLACK
6
CONTINUOUS
10
5.8043213385826773
20
-4.7286222440944883
11
5.8026133070866139
21
-4.7217901968503933
0
LINE
8
BLACK
6
CONTINUOUS
10
5.8026133070866139
20
-4.7217901968503933
11
5.8010978346456694
21
-4.7187592125984255
0
LINE
8
BLACK
6
CONTINUOUS
10
5.8010978346456694
20
-4.7187592125984255
11
5.7999007086614176
21
-4.7175620866141728
0
LINE
8
BLACK
6
CONTINUOUS
10
5.7999007086614176
20
-4.7175620866141728
11
5.797203228346457
21
-4.7162133464566924
0
LINE
8
BLACK
6
CONTINUOUS
10
5.797203228346457
20
-4.7162133464566924
11
5.7948477952755901
21
-4.7162133464566924
0
LINE
8
BLACK
6
CONTINUOUS
10
5.7948477952755901
20
-4.7162133464566924
11
5.7921503149606295
21
-4.7175620866141728
0
LINE
8
BLACK
6
CONTINUOUS
10
5.8551531496062994
20
-4.7104859055118107
11
5.8552883858267712
21
-4.7105993700787403
0
LINE
8
BLACK
6
CONTINUOUS
10
5.8552883858267712
20
-4.7105993700787403
11
5.8554637401574805
21
-4.7106195669291342
0
LINE
8
BLACK
6
CONTINUOUS
10
5.8554637401574805
20
-4.7106195669291342
11
5.8592132677165356
21
-4.7124943307086617
0
LINE
8
BLACK
6
CONTINUOUS
10
5.8592132677165356
20
-4.7124943307086617
11
5.8599223228346453
21
-4.7130202362204727
0
LINE
8
BLACK
6
CONTINUOUS
10
5.8599223228346453
20
-4.7130202362204727
11
5.8599806692913381
21
-4.7130474409448819
0
LINE
8
BLACK
6
CONTINUOUS
10
5.8599806692913381
20
-4.7130474409448819
11
5.8618554330708657
21
-4.7149222047244095
0
LINE
8
BLACK
6
CONTINUOUS
10
5.8618554330708657
20
-4.7149222047244095
11
5.8623616929133853
21
-4.7156452755905507
0
LINE
8
BLACK
6
CONTINUOUS
10
5.8623616929133853
20
-4.7156452755905507
11
5.8624085433070867
21
-4.7156896062992129
0
LINE
8
BLACK
6
CONTINUOUS
10
5.8624085433070867
20
-4.7156896062992129
11
5.8642833070866143
21
-4.719439133858268
0
LINE
8
BLACK
6
CONTINUOUS
10
5.8642833070866143
20
-4.719439133858268
11
5.8644285826771654
21
-4.719927559055118
0
LINE
8
BLACK
6
CONTINUOUS
10
5.8644285826771654
20
-4.719927559055118
11
5.8645068897637795
21
-4.7200435039370081
0
LINE
8
BLACK
6
CONTINUOUS
10
5.8645068897637795
20
-4.7200435039370081
11
5.8663816535433071
21
-4.7275425590551183
0
LINE
8
BLACK
6
CONTINUOUS
10
5.8663816535433071
20
-4.7275425590551183
11
5.8664231102362203
21
-4.7281304330708664
0
LINE
8
BLACK
6
CONTINUOUS
10
5.8664231102362203
20
-4.7281304330708664
11
5.8664698031496059
21
-4.7282587007874017
0
LINE
8
BLACK
6
CONTINUOUS
10
5.8664698031496059
20
-4.7282587007874017
11
5.8664698031496059
21
-4.7376325196850395
0
LINE
8
BLACK
6
CONTINUOUS
10
5.8664698031496059
20
-4.7376325196850395
11
5.8663674409448818
21
-4.7382128740157476
0
LINE
8
BLACK
6
CONTINUOUS
10
5.8663674409448818
20
-4.7382128740157476
11
5.8663816535433071
21
-4.7383486614173229
0
LINE
8
BLACK
6
CONTINUOUS
10
5.8663816535433071
20
-4.7383486614173229
11
5.8645068897637795
21
-4.7458477165354331
0
LINE
8
BLACK
6
CONTINUOUS
10
5.8645068897637795
20
-4.7458477165354331
11
5.8642992913385825
21
-4.7463131496062987
0
LINE
8
BLACK
6
CONTINUOUS
10
5.8642992913385825
20
-4.7463131496062987
11
5.8642833070866143
21
-4.7464520866141733
0
LINE
8
BLACK
6
CONTINUOUS
10
5.8642833070866143
20
-4.7464520866141733
11
5.8624085433070867
21
-4.7502016141732284
0
LINE
8
BLACK
6
CONTINUOUS
10
5.8624085433070867
20
-4.7502016141732284
11
5.861882598425197
21
-4.7509106692913381
0
LINE
8
BLACK
6
CONTINUOUS
10
5.861882598425197
20
-4.7509106692913381
11
5.8618554330708657
21
-4.7509690157480318
0
LINE
8
BLACK
6
CONTINUOUS
10
5.8618554330708657
20
-4.7509690157480318
11
5.8599807086614168
21
-4.7528437795275593
0
LINE
8
BLACK
6
CONTINUOUS
10
5.8599807086614168
20
-4.7528437795275593
11
5.8592575196850394
21
-4.7533501574803152
0
LINE
8
BLACK
6
CONTINUOUS
10
5.8592575196850394
20
-4.7533501574803152
11
5.8592132677165356
21
-4.7533969291338583
0
LINE
8
BLACK
6
CONTINUOUS
10
5.8592132677165356
20
-4.7533969291338583
11
5.8554637401574805
21
-4.7552716929133858
0
LINE
8
BLACK
6
CONTINUOUS
10
5.8554637401574805
20
-4.7552716929133858
11
5.8544807874015747
21
-4.7555640551181098
0
LINE
8
BLACK
6
CONTINUOUS
10
5.8544807874015747
20
-4.7555640551181098
11
5.8543090944881886
21
-4.7555230314960628
0
LINE
8
BLACK
6
CONTINUOUS
10
5.8543090944881886
20
-4.7555230314960628
11
5.854143228346457
21
-4.7555834251968498
0
LINE
8
BLACK
6
CONTINUOUS
10
5.854143228346457
20
-4.7555834251968498
11
5.8503937007874018
21
-4.7555834251968498
0
LINE
8
BLACK
6
CONTINUOUS
10
5.8503937007874018
20
-4.7555834251968498
11
5.8493837795275585
21
-4.7554053543307084
0
LINE
8
BLACK
6
CONTINUOUS
10
5.8493837795275585
20
-4.7554053543307084
11
5.8492485039370079
21
-4.7552918503937009
0
LINE
8
BLACK
6
CONTINUOUS
10
5.8492485039370079
20
-4.7552918503937009
11
5.8490731889763774
21
-4.7552716929133858
0
LINE
8
BLACK
6
CONTINUOUS
10
5.8490731889763774
20
-4.7552716929133858
11
5.8453236614173223
21
-4.7533969291338583
0
LINE
8
BLACK
6
CONTINUOUS
10
5.8453236614173223
20
-4.7533969291338583
11
5.8446145275590551
21
-4.7528709448818898
0
LINE
8
BLACK
6
CONTINUOUS
10
5.8446145275590551
20
-4.7528709448818898
11
5.8445562204724411
21
-4.7528437795275593
0
LINE
8
BLACK
6
CONTINUOUS
10
5.8445562204724411
20
-4.7528437795275593
11
5.8426814566929135
21
-4.750968976377953
0
LINE
8
BLACK
6
CONTINUOUS
10
5.8426814566929135
20
-4.750968976377953
11
5.8421751574803151
21
-4.7502459055118109
0
LINE
8
BLACK
6
CONTINUOUS
10
5.8421751574803151
20
-4.7502459055118109
11
5.8421283858267712
21
-4.7502016141732284
0
LINE
8
BLACK
6
CONTINUOUS
10
5.8421283858267712
20
-4.7502016141732284
11
5.8402536220472436
21
-4.7464520866141733
0
LINE
8
BLACK
6
CONTINUOUS
10
5.8402536220472436
20
-4.7464520866141733
11
5.8401083070866138
21
-4.7459636220472436
0
LINE
8
BLACK
6
CONTINUOUS
10
5.8401083070866138
20
-4.7459636220472436
11
5.8400300393700784
21
-4.7458477165354331
0
LINE
8
BLACK
6
CONTINUOUS
10
5.8400300393700784
20
-4.7458477165354331
11
5.8381552755905508
21
-4.7383486614173229
0
LINE
8
BLACK
6
CONTINUOUS
10
5.8381552755905508
20
-4.7383486614173229
11
5.8381137795275588
21
-4.737760748031496
0
LINE
8
BLACK
6
CONTINUOUS
10
5.8381137795275588
20
-4.737760748031496
11
5.838067125984252
21
-4.7376325196850395
0
LINE
8
BLACK
6
CONTINUOUS
10
5.838067125984252
20
-4.7376325196850395
11
5.838067125984252
21
-4.7282587007874017
0
LINE
8
BLACK
6
CONTINUOUS
10
5.838067125984252
20
-4.7282587007874017
11
5.8381694488188973
21
-4.727678307086614
0
LINE
8
BLACK
6
CONTINUOUS
10
5.8381694488188973
20
-4.727678307086614
11
5.8381552755905508
21
-4.7275425590551183
0
LINE
8
BLACK
6
CONTINUOUS
10
5.8381552755905508
20
-4.7275425590551183
11
5.8400300393700784
21
-4.7200435039370081
0
LINE
8
BLACK
6
CONTINUOUS
10
5.8400300393700784
20
-4.7200435039370081
11
5.8402375984251966
21
-4.7195780314960629
0
LINE
8
BLACK
6
CONTINUOUS
10
5.8402375984251966
20
-4.7195780314960629
11
5.8402536220472436
21
-4.719439133858268
0
LINE
8
BLACK
6
CONTINUOUS
10
5.8402536220472436
20
-4.719439133858268
11
5.8421283858267712
21
-4.7156896062992129
0
LINE
8
BLACK
6
CONTINUOUS
10
5.8421283858267712
20
-4.7156896062992129
11
5.8426542913385822
21
-4.7149805118110235
0
LINE
8
BLACK
6
CONTINUOUS
10
5.8426542913385822
20
-4.7149805118110235
11
5.8426814960629923
21
-4.7149222047244095
0
LINE
8
BLACK
6
CONTINUOUS
10
5.8426814960629923
20
-4.7149222047244095
11
5.8445562598425198
21
-4.7130474409448819
0
LINE
8
BLACK
6
CONTINUOUS
10
5.8445562598425198
20
-4.7130474409448819
11
5.845279330708661
21
-4.7125411417322836
0
LINE
8
BLACK
6
CONTINUOUS
10
5.845279330708661
20
-4.7125411417322836
11
5.8453236614173223
21
-4.7124943307086617
0
LINE
8
BLACK
6
CONTINUOUS
10
5.8453236614173223
20
-4.7124943307086617
11
5.8490731889763774
21
-4.7106195669291342
0
LINE
8
BLACK
6
CONTINUOUS
10
5.8490731889763774
20
-4.7106195669291342
11
5.8500561023622044
21
-4.7103272047244094
0
LINE
8
BLACK
6
CONTINUOUS
10
5.8500561023622044
20
-4.7103272047244094
11
5.8502277952755906
21
-4.7103681889763775
0
LINE
8
BLACK
6
CONTINUOUS
10
5.8502277952755906
20
-4.7103681889763775
11
5.8503937007874018
21
-4.7103078346456693
0
LINE
8
BLACK
6
CONTINUOUS
10
5.8503937007874018
20
-4.7103078346456693
11
5.854143228346457
21
-4.7103078346456693
0
LINE
8
BLACK
6
CONTINUOUS
10
5.854143228346457
20
-4.7103078346456693
11
5.8551531496062994
21
-4.7104859055118107
0
LINE
8
BLACK
6
CONTINUOUS
10
5.8483932677165349
20
-4.7175620866141728
11
5.8471961417322831
21
-4.7187592125984255
0
LINE
8
BLACK
6
CONTINUOUS
10
5.8471961417322831
20
-4.7187592125984255
11
5.8456806299212598
21
-4.7217901968503933
0
LINE
8
BLACK
6
CONTINUOUS
10
5.8456806299212598
20
-4.7217901968503933
11
5.8439726377952752
21
-4.7286222440944883
0
LINE
8
BLACK
6
CONTINUOUS
10
5.8439726377952752
20
-4.7286222440944883
11
5.8439726377952752
21
-4.737268976377953
0
LINE
8
BLACK
6
CONTINUOUS
10
5.8439726377952752
20
-4.737268976377953
11
5.8456806299212598
21
-4.7441010236220471
0
LINE
8
BLACK
6
CONTINUOUS
10
5.8456806299212598
20
-4.7441010236220471
11
5.8471961417322831
21
-4.7471320078740158
0
LINE
8
BLACK
6
CONTINUOUS
10
5.8471961417322831
20
-4.7471320078740158
11
5.8483932677165349
21
-4.7483291732283464
0
LINE
8
BLACK
6
CONTINUOUS
10
5.8483932677165349
20
-4.7483291732283464
11
5.8510907480314955
21
-4.7496779133858267
0
LINE
8
BLACK
6
CONTINUOUS
10
5.8510907480314955
20
-4.7496779133858267
11
5.8534461811023624
21
-4.7496779133858267
0
LINE
8
BLACK
6
CONTINUOUS
10
5.8534461811023624
20
-4.7496779133858267
11
5.8561436220472443
21
-4.7483291732283464
0
LINE
8
BLACK
6
CONTINUOUS
10
5.8561436220472443
20
-4.7483291732283464
11
5.8573407480314961
21
-4.7471320078740158
0
LINE
8
BLACK
6
CONTINUOUS
10
5.8573407480314961
20
-4.7471320078740158
11
5.8588562598425193
21
-4.7441010236220471
0
LINE
8
BLACK
6
CONTINUOUS
10
5.8588562598425193
20
-4.7441010236220471
11
5.8605642913385827
21
-4.737268976377953
0
LINE
8
BLACK
6
CONTINUOUS
10
5.8605642913385827
20
-4.737268976377953
11
5.8605642913385827
21
-4.7286222440944883
0
LINE
8
BLACK
6
CONTINUOUS
10
5.8605642913385827
20
-4.7286222440944883
11
5.8588562598425193
21
-4.7217901968503933
0
LINE
8
BLACK
6
CONTINUOUS
10
5.8588562598425193
20
-4.7217901968503933
11
5.8573407874015748
21
-4.7187592125984255
0
LINE
8
BLACK
6
CONTINUOUS
10
5.8573407874015748
20
-4.7187592125984255
11
5.856143661417323
21
-4.7175620866141728
0
LINE
8
BLACK
6
CONTINUOUS
10
5.856143661417323
20
-4.7175620866141728
11
5.8534461811023624
21
-4.7162133464566924
0
LINE
8
BLACK
6
CONTINUOUS
10
5.8534461811023624
20
-4.7162133464566924
11
5.8510907480314955
21
-4.7162133464566924
0
LINE
8
BLACK
6
CONTINUOUS
10
5.8510907480314955
20
-4.7162133464566924
11
5.8483932677165349
21
-4.7175620866141728
0
LINE
8
BLACK
6
CONTINUOUS
10
5.8926484645669293
20
-4.7104859055118107
11
5.8927837007874011
21
-4.7105993700787403
0
LINE
8
BLACK
6
CONTINUOUS
10
5.8927837007874011
20
-4.7105993700787403
11
5.8929590551181104
21
-4.7106195669291342
0
LINE
8
BLACK
6
CONTINUOUS
10
5.8929590551181104
20
-4.7106195669291342
11
5.8967085826771655
21
-4.7124943307086617
0
LINE
8
BLACK
6
CONTINUOUS
10
5.8967085826771655
20
-4.7124943307086617
11
5.8974176377952752
21
-4.7130202362204727
0
LINE
8
BLACK
6
CONTINUOUS
10
5.8974176377952752
20
-4.7130202362204727
11
5.897475984251968
21
-4.7130474409448819
0
LINE
8
BLACK
6
CONTINUOUS
10
5.897475984251968
20
-4.7130474409448819
11
5.8993507480314955
21
-4.7149222047244095
0
LINE
8
BLACK
6
CONTINUOUS
10
5.8993507480314955
20
-4.7149222047244095
11
5.899857007874016
21
-4.7156452755905507
0
LINE
8
BLACK
6
CONTINUOUS
10
5.899857007874016
20
-4.7156452755905507
11
5.8999038582677166
21
-4.7156896062992129
0
LINE
8
BLACK
6
CONTINUOUS
10
5.8999038582677166
20
-4.7156896062992129
11
5.9017786220472441
21
-4.719439133858268
0
LINE
8
BLACK
6
CONTINUOUS
10
5.9017786220472441
20
-4.719439133858268
11
5.9019238976377952
21
-4.719927559055118
0
LINE
8
BLACK
6
CONTINUOUS
10
5.9019238976377952
20
-4.719927559055118
11
5.9020022047244094
21
-4.7200435039370081
0
LINE
8
BLACK
6
CONTINUOUS
10
5.9020022047244094
20
-4.7200435039370081
11
5.903876968503937
21
-4.7275425590551183
0
LINE
8
BLACK
6
CONTINUOUS
10
5.903876968503937
20
-4.7275425590551183
11
5.9039184251968502
21
-4.7281304330708664
0
LINE
8
BLACK
6
CONTINUOUS
10
5.9039184251968502
20
-4.7281304330708664
11
5.9039651181102357
21
-4.7282587007874017
0
LINE
8
BLACK
6
CONTINUOUS
10
5.9039651181102357
20
-4.7282587007874017
11
5.9039651181102357
21
-4.7376325196850395
0
LINE
8
BLACK
6
CONTINUOUS
10
5.9039651181102357
20
-4.7376325196850395
11
5.9038627559055117
21
-4.7382128740157476
0
LINE
8
BLACK
6
CONTINUOUS
10
5.9038627559055117
20
-4.7382128740157476
11
5.903876968503937
21
-4.7383486614173229
0
LINE
8
BLACK
6
CONTINUOUS
10
5.903876968503937
20
-4.7383486614173229
11
5.9020022047244094
21
-4.7458477165354331
0
LINE
8
BLACK
6
CONTINUOUS
10
5.9020022047244094
20
-4.7458477165354331
11
5.9017946062992124
21
-4.7463131496062987
0
LINE
8
BLACK
6
CONTINUOUS
10
5.9017946062992124
20
-4.7463131496062987
11
5.9017786220472441
21
-4.7464520866141733
0
LINE
8
BLACK
6
CONTINUOUS
10
5.9017786220472441
20
-4.7464520866141733
11
5.8999038582677166
21
-4.7502016141732284
0
LINE
8
BLACK
6
CONTINUOUS
10
5.8999038582677166
20
-4.7502016141732284
11
5.8993779133858268
21
-4.7509106692913381
0
LINE
8
BLACK
6
CONTINUOUS
10
5.8993779133858268
20
-4.7509106692913381
11
5.8993507480314955
21
-4.7509690157480318
0
LINE
8
BLACK
6
CONTINUOUS
10
5.8993507480314955
20
-4.7509690157480318
11
5.8974760236220467
21
-4.7528437795275593
0
LINE
8
BLACK
6
CONTINUOUS
10
5.8974760236220467
20
-4.7528437795275593
11
5.8967528346456692
21
-4.7533501574803152
0
LINE
8
BLACK
6
CONTINUOUS
10
5.8967528346456692
20
-4.7533501574803152
11
5.8967085826771655
21
-4.7533969291338583
0
LINE
8
BLACK
6
CONTINUOUS
10
5.8967085826771655
20
-4.7533969291338583
11
5.8929590551181104
21
-4.7552716929133858
0
LINE
8
BLACK
6
CONTINUOUS
10
5.8929590551181104
20
-4.7552716929133858
11
5.8919761023622046
21
-4.7555640551181098
0
LINE
8
BLACK
6
CONTINUOUS
10
5.8919761023622046
20
-4.7555640551181098
11
5.8918044094488184
21
-4.7555230314960628
0
LINE
8
BLACK
6
CONTINUOUS
10
5.8918044094488184
20
-4.7555230314960628
11
5.8916385433070868
21
-4.7555834251968498
0
LINE
8
BLACK
6
CONTINUOUS
10
5.8916385433070868
20
-4.7555834251968498
11
5.8878890157480317
21
-4.7555834251968498
0
LINE
8
BLACK
6
CONTINUOUS
10
5.8878890157480317
20
-4.7555834251968498
11
5.8868790944881892
21
-4.7554053543307084
0
LINE
8
BLACK
6
CONTINUOUS
10
5.8868790944881892
20
-4.7554053543307084
11
5.8867438188976378
21
-4.7552918503937009
0
LINE
8
BLACK
6
CONTINUOUS
10
5.8867438188976378
20
-4.7552918503937009
11
5.8865685039370081
21
-4.7552716929133858
0
LINE
8
BLACK
6
CONTINUOUS
10
5.8865685039370081
20
-4.7552716929133858
11
5.882818976377953
21
-4.7533969291338583
0
LINE
8
BLACK
6
CONTINUOUS
10
5.882818976377953
20
-4.7533969291338583
11
5.8821098425196849
21
-4.7528709448818898
0
LINE
8
BLACK
6
CONTINUOUS
10
5.8821098425196849
20
-4.7528709448818898
11
5.8820515354330709
21
-4.7528437795275593
0
LINE
8
BLACK
6
CONTINUOUS
10
5.8820515354330709
20
-4.7528437795275593
11
5.8801767716535434
21
-4.750968976377953
0
LINE
8
BLACK
6
CONTINUOUS
10
5.8801767716535434
20
-4.750968976377953
11
5.879670472440945
21
-4.7502459055118109
0
LINE
8
BLACK
6
CONTINUOUS
10
5.879670472440945
20
-4.7502459055118109
11
5.879623700787401
21
-4.7502016141732284
0
LINE
8
BLACK
6
CONTINUOUS
10
5.879623700787401
20
-4.7502016141732284
11
5.8777489370078735
21
-4.7464520866141733
0
LINE
8
BLACK
6
CONTINUOUS
10
5.8777489370078735
20
-4.7464520866141733
11
5.8776036220472436
21
-4.7459636220472436
0
LINE
8
BLACK
6
CONTINUOUS
10
5.8776036220472436
20
-4.7459636220472436
11
5.8775253543307082
21
-4.7458477165354331
0
LINE
8
BLACK
6
CONTINUOUS
10
5.8775253543307082
20
-4.7458477165354331
11
5.8756505905511807
21
-4.7383486614173229
0
LINE
8
BLACK
6
CONTINUOUS
10
5.8756505905511807
20
-4.7383486614173229
11
5.8756090944881887
21
-4.737760748031496
0
LINE
8
BLACK
6
CONTINUOUS
10
5.8756090944881887
20
-4.737760748031496
11
5.8755624409448819
21
-4.7376325196850395
0
LINE
8
BLACK
6
CONTINUOUS
10
5.8755624409448819
20
-4.7376325196850395
11
5.8755624409448819
21
-4.7282587007874017
0
LINE
8
BLACK
6
CONTINUOUS
10
5.8755624409448819
20
-4.7282587007874017
11
5.8756647637795272
21
-4.727678307086614
0
LINE
8
BLACK
6
CONTINUOUS
10
5.8756647637795272
20
-4.727678307086614
11
5.8756505905511807
21
-4.7275425590551183
0
LINE
8
BLACK
6
CONTINUOUS
10
5.8756505905511807
20
-4.7275425590551183
11
5.8775253543307082
21
-4.7200435039370081
0
LINE
8
BLACK
6
CONTINUOUS
10
5.8775253543307082
20
-4.7200435039370081
11
5.8777329133858265
21
-4.7195780314960629
0
LINE
8
BLACK
6
CONTINUOUS
10
5.8777329133858265
20
-4.7195780314960629
11
5.8777489370078735
21
-4.719439133858268
0
LINE
8
BLACK
6
CONTINUOUS
10
5.8777489370078735
20
-4.719439133858268
11
5.879623700787401
21
-4.7156896062992129
0
LINE
8
BLACK
6
CONTINUOUS
10
5.879623700787401
20
-4.7156896062992129
11
5.8801496062992129
21
-4.7149805118110235
0
LINE
8
BLACK
6
CONTINUOUS
10
5.8801496062992129
20
-4.7149805118110235
11
5.8801768110236221
21
-4.7149222047244095
0
LINE
8
BLACK
6
CONTINUOUS
10
5.8801768110236221
20
-4.7149222047244095
11
5.8820515748031497
21
-4.7130474409448819
0
LINE
8
BLACK
6
CONTINUOUS
10
5.8820515748031497
20
-4.7130474409448819
11
5.8827746456692909
21
-4.7125411417322836
0
LINE
8
BLACK
6
CONTINUOUS
10
5.8827746456692909
20
-4.7125411417322836
11
5.882818976377953
21
-4.7124943307086617
0
LINE
8
BLACK
6
CONTINUOUS
10
5.882818976377953
20
-4.7124943307086617
11
5.8865685039370081
21
-4.7106195669291342
0
LINE
8
BLACK
6
CONTINUOUS
10
5.8865685039370081
20
-4.7106195669291342
11
5.8875514173228343
21
-4.7103272047244094
0
LINE
8
BLACK
6
CONTINUOUS
10
5.8875514173228343
20
-4.7103272047244094
11
5.8877231102362204
21
-4.7103681889763775
0
LINE
8
BLACK
6
CONTINUOUS
10
5.8877231102362204
20
-4.7103681889763775
11
5.8878890157480317
21
-4.7103078346456693
0
LINE
8
BLACK
6
CONTINUOUS
10
5.8878890157480317
20
-4.7103078346456693
11
5.8916385433070868
21
-4.7103078346456693
0
LINE
8
BLACK
6
CONTINUOUS
10
5.8916385433070868
20
-4.7103078346456693
11
5.8926484645669293
21
-4.7104859055118107
0
LINE
8
BLACK
6
CONTINUOUS
10
5.8858885826771656
20
-4.7175620866141728
11
5.8846914566929129
21
-4.7187592125984255
0
LINE
8
BLACK
6
CONTINUOUS
10
5.8846914566929129
20
-4.7187592125984255
11
5.8831759448818897
21
-4.7217901968503933
0
LINE
8
BLACK
6
CONTINUOUS
10
5.8831759448818897
20
-4.7217901968503933
11
5.8814679527559051
21
-4.7286222440944883
0
LINE
8
BLACK
6
CONTINUOUS
10
5.8814679527559051
20
-4.7286222440944883
11
5.8814679527559051
21
-4.737268976377953
0
LINE
8
BLACK
6
CONTINUOUS
10
5.8814679527559051
20
-4.737268976377953
11
5.8831759448818897
21
-4.7441010236220471
0
LINE
8
BLACK
6
CONTINUOUS
10
5.8831759448818897
20
-4.7441010236220471
11
5.8846914566929129
21
-4.7471320078740158
0
LINE
8
BLACK
6
CONTINUOUS
10
5.8846914566929129
20
-4.7471320078740158
11
5.8858885826771656
21
-4.7483291732283464
0
LINE
8
BLACK
6
CONTINUOUS
10
5.8858885826771656
20
-4.7483291732283464
11
5.8885860629921263
21
-4.7496779133858267
0
LINE
8
BLACK
6
CONTINUOUS
10
5.8885860629921263
20
-4.7496779133858267
11
5.8909414960629922
21
-4.7496779133858267
0
LINE
8
BLACK
6
CONTINUOUS
10
5.8909414960629922
20
-4.7496779133858267
11
5.8936389370078741
21
-4.7483291732283464
0
LINE
8
BLACK
6
CONTINUOUS
10
5.8936389370078741
20
-4.7483291732283464
11
5.8948360629921259
21
-4.7471320078740158
0
LINE
8
BLACK
6
CONTINUOUS
10
5.8948360629921259
20
-4.7471320078740158
11
5.8963515748031492
21
-4.7441010236220471
0
LINE
8
BLACK
6
CONTINUOUS
10
5.8963515748031492
20
-4.7441010236220471
11
5.8980596062992126
21
-4.737268976377953
0
LINE
8
BLACK
6
CONTINUOUS
10
5.8980596062992126
20
-4.737268976377953
11
5.8980596062992126
21
-4.7286222440944883
0
LINE
8
BLACK
6
CONTINUOUS
10
5.8980596062992126
20
-4.7286222440944883
11
5.8963515748031492
21
-4.7217901968503933
0
LINE
8
BLACK
6
CONTINUOUS
10
5.8963515748031492
20
-4.7217901968503933
11
5.8948361023622047
21
-4.7187592125984255
0
LINE
8
BLACK
6
CONTINUOUS
10
5.8948361023622047
20
-4.7187592125984255
11
5.8936389763779529
21
-4.7175620866141728
0
LINE
8
BLACK
6
CONTINUOUS
10
5.8936389763779529
20
-4.7175620866141728
11
5.8909414960629922
21
-4.7162133464566924
0
LINE
8
BLACK
6
CONTINUOUS
10
5.8909414960629922
20
-4.7162133464566924
11
5.8885860629921263
21
-4.7162133464566924
0
LINE
8
BLACK
6
CONTINUOUS
10
5.8885860629921263
20
-4.7162133464566924
11
5.8858885826771656
21
-4.7175620866141728
0
LINE
8
BLACK
6
CONTINUOUS
10
5.9301437795275591
20
-4.7104859055118107
11
5.930279015748031
21
-4.7105993700787403
0
LINE
8
BLACK
6
CONTINUOUS
10
5.930279015748031
20
-4.7105993700787403
11
5.9304543700787402
21
-4.7106195669291342
0
LINE
8
BLACK
6
CONTINUOUS
10
5.9304543700787402
20
-4.7106195669291342
11
5.9342038976377953
21
-4.7124943307086617
0
LINE
8
BLACK
6
CONTINUOUS
10
5.9342038976377953
20
-4.7124943307086617
11
5.934912952755905
21
-4.7130202362204727
0
LINE
8
BLACK
6
CONTINUOUS
10
5.934912952755905
20
-4.7130202362204727
11
5.9349712992125987
21
-4.7130474409448819
0
LINE
8
BLACK
6
CONTINUOUS
10
5.9349712992125987
20
-4.7130474409448819
11
5.9368460629921262
21
-4.7149222047244095
0
LINE
8
BLACK
6
CONTINUOUS
10
5.9368460629921262
20
-4.7149222047244095
11
5.9373523228346459
21
-4.7156452755905507
0
LINE
8
BLACK
6
CONTINUOUS
10
5.9373523228346459
20
-4.7156452755905507
11
5.9373991732283464
21
-4.7156896062992129
0
LINE
8
BLACK
6
CONTINUOUS
10
5.9373991732283464
20
-4.7156896062992129
11
5.939273937007874
21
-4.719439133858268
0
LINE
8
BLACK
6
CONTINUOUS
10
5.939273937007874
20
-4.719439133858268
11
5.9394192125984251
21
-4.719927559055118
0
LINE
8
BLACK
6
CONTINUOUS
10
5.9394192125984251
20
-4.719927559055118
11
5.9394975196850393
21
-4.7200435039370081
0
LINE
8
BLACK
6
CONTINUOUS
10
5.9394975196850393
20
-4.7200435039370081
11
5.9413722834645668
21
-4.7275425590551183
0
LINE
8
BLACK
6
CONTINUOUS
10
5.9413722834645668
20
-4.7275425590551183
11
5.94141374015748
21
-4.7281304330708664
0
LINE
8
BLACK
6
CONTINUOUS
10
5.94141374015748
20
-4.7281304330708664
11
5.9414604330708656
21
-4.7282587007874017
0
LINE
8
BLACK
6
CONTINUOUS
10
5.9414604330708656
20
-4.7282587007874017
11
5.9414604330708656
21
-4.7376325196850395
0
LINE
8
BLACK
6
CONTINUOUS
10
5.9414604330708656
20
-4.7376325196850395
11
5.9413580708661415
21
-4.7382128740157476
0
LINE
8
BLACK
6
CONTINUOUS
10
5.9413580708661415
20
-4.7382128740157476
11
5.9413722834645668
21
-4.7383486614173229
0
LINE
8
BLACK
6
CONTINUOUS
10
5.9413722834645668
20
-4.7383486614173229
11
5.9394975196850393
21
-4.7458477165354331
0
LINE
8
BLACK
6
CONTINUOUS
10
5.9394975196850393
20
-4.7458477165354331
11
5.9392899212598422
21
-4.7463131496062987
0
LINE
8
BLACK
6
CONTINUOUS
10
5.9392899212598422
20
-4.7463131496062987
11
5.939273937007874
21
-4.7464520866141733
0
LINE
8
BLACK
6
CONTINUOUS
10
5.939273937007874
20
-4.7464520866141733
11
5.9373991732283464
21
-4.7502016141732284
0
LINE
8
BLACK
6
CONTINUOUS
10
5.9373991732283464
20
-4.7502016141732284
11
5.9368732283464567
21
-4.7509106692913381
0
LINE
8
BLACK
6
CONTINUOUS
10
5.9368732283464567
20
-4.7509106692913381
11
5.9368460629921262
21
-4.7509690157480318
0
LINE
8
BLACK
6
CONTINUOUS
10
5.9368460629921262
20
-4.7509690157480318
11
5.9349713385826774
21
-4.7528437795275593
0
LINE
8
BLACK
6
CONTINUOUS
10
5.9349713385826774
20
-4.7528437795275593
11
5.9342481496062991
21
-4.7533501574803152
0
LINE
8
BLACK
6
CONTINUOUS
10
5.9342481496062991
20
-4.7533501574803152
11
5.9342038976377953
21
-4.7533969291338583
0
LINE
8
BLACK
6
CONTINUOUS
10
5.9342038976377953
20
-4.7533969291338583
11
5.9304543700787402
21
-4.7552716929133858
0
LINE
8
BLACK
6
CONTINUOUS
10
5.9304543700787402
20
-4.7552716929133858
11
5.9294714173228344
21
-4.7555640551181098
0
LINE
8
BLACK
6
CONTINUOUS
10
5.9294714173228344
20
-4.7555640551181098
11
5.9292997244094483
21
-4.7555230314960628
0
LINE
8
BLACK
6
CONTINUOUS
10
5.9292997244094483
20
-4.7555230314960628
11
5.9291338582677167
21
-4.7555834251968498
0
LINE
8
BLACK
6
CONTINUOUS
10
5.9291338582677167
20
-4.7555834251968498
11
5.9253843307086616
21
-4.7555834251968498
0
LINE
8
BLACK
6
CONTINUOUS
10
5.9253843307086616
20
-4.7555834251968498
11
5.9243744094488191
21
-4.7554053543307084
0
LINE
8
BLACK
6
CONTINUOUS
10
5.9243744094488191
20
-4.7554053543307084
11
5.9242391338582676
21
-4.7552918503937009
0
LINE
8
BLACK
6
CONTINUOUS
10
5.9242391338582676
20
-4.7552918503937009
11
5.924063818897638
21
-4.7552716929133858
0
LINE
8
BLACK
6
CONTINUOUS
10
5.924063818897638
20
-4.7552716929133858
11
5.9203142913385829
21
-4.7533969291338583
0
LINE
8
BLACK
6
CONTINUOUS
10
5.9203142913385829
20
-4.7533969291338583
11
5.9196051574803148
21
-4.7528709448818898
0
LINE
8
BLACK
6
CONTINUOUS
10
5.9196051574803148
20
-4.7528709448818898
11
5.9195468503937008
21
-4.7528437795275593
0
LINE
8
BLACK
6
CONTINUOUS
10
5.9195468503937008
20
-4.7528437795275593
11
5.9176720866141732
21
-4.750968976377953
0
LINE
8
BLACK
6
CONTINUOUS
10
5.9176720866141732
20
-4.750968976377953
11
5.9171657874015748
21
-4.7502459055118109
0
LINE
8
BLACK
6
CONTINUOUS
10
5.9171657874015748
20
-4.7502459055118109
11
5.9171190157480318
21
-4.7502016141732284
0
LINE
8
BLACK
6
CONTINUOUS
10
5.9171190157480318
20
-4.7502016141732284
11
5.9152442519685042
21
-4.7464520866141733
0
LINE
8
BLACK
6
CONTINUOUS
10
5.9152442519685042
20
-4.7464520866141733
11
5.9150989370078735
21
-4.7459636220472436
0
LINE
8
BLACK
6
CONTINUOUS
10
5.9150989370078735
20
-4.7459636220472436
11
5.9150206692913381
21
-4.7458477165354331
0
LINE
8
BLACK
6
CONTINUOUS
10
5.9150206692913381
20
-4.7458477165354331
11
5.9131459055118105
21
-4.7383486614173229
0
LINE
8
BLACK
6
CONTINUOUS
10
5.9131459055118105
20
-4.7383486614173229
11
5.9131044094488185
21
-4.737760748031496
0
LINE
8
BLACK
6
CONTINUOUS
10
5.9131044094488185
20
-4.737760748031496
11
5.9130577559055117
21
-4.7376325196850395
0
LINE
8
BLACK
6
CONTINUOUS
10
5.9130577559055117
20
-4.7376325196850395
11
5.9130577559055117
21
-4.7282587007874017
0
LINE
8
BLACK
6
CONTINUOUS
10
5.9130577559055117
20
-4.7282587007874017
11
5.913160078740157
21
-4.727678307086614
0
LINE
8
BLACK
6
CONTINUOUS
10
5.913160078740157
20
-4.727678307086614
11
5.9131459055118105
21
-4.7275425590551183
0
LINE
8
BLACK
6
CONTINUOUS
10
5.9131459055118105
20
-4.7275425590551183
11
5.9150206692913381
21
-4.7200435039370081
0
LINE
8
BLACK
6
CONTINUOUS
10
5.9150206692913381
20
-4.7200435039370081
11
5.9152282283464563
21
-4.7195780314960629
0
LINE
8
BLACK
6
CONTINUOUS
10
5.9152282283464563
20
-4.7195780314960629
11
5.9152442519685042
21
-4.719439133858268
0
LINE
8
BLACK
6
CONTINUOUS
10
5.9152442519685042
20
-4.719439133858268
11
5.9171190157480318
21
-4.7156896062992129
0
LINE
8
BLACK
6
CONTINUOUS
10
5.9171190157480318
20
-4.7156896062992129
11
5.9176449212598428
21
-4.7149805118110235
0
LINE
8
BLACK
6
CONTINUOUS
10
5.9176449212598428
20
-4.7149805118110235
11
5.917672125984252
21
-4.7149222047244095
0
LINE
8
BLACK
6
CONTINUOUS
10
5.917672125984252
20
-4.7149222047244095
11
5.9195468897637795
21
-4.7130474409448819
0
LINE
8
BLACK
6
CONTINUOUS
10
5.9195468897637795
20
-4.7130474409448819
11
5.9202699606299207
21
-4.7125411417322836
0
LINE
8
BLACK
6
CONTINUOUS
10
5.9202699606299207
20
-4.7125411417322836
11
5.9203142913385829
21
-4.7124943307086617
0
LINE
8
BLACK
6
CONTINUOUS
10
5.9203142913385829
20
-4.7124943307086617
11
5.924063818897638
21
-4.7106195669291342
0
LINE
8
BLACK
6
CONTINUOUS
10
5.924063818897638
20
-4.7106195669291342
11
5.9250467322834641
21
-4.7103272047244094
0
LINE
8
BLACK
6
CONTINUOUS
10
5.9250467322834641
20
-4.7103272047244094
11
5.9252184251968503
21
-4.7103681889763775
0
LINE
8
BLACK
6
CONTINUOUS
10
5.9252184251968503
20
-4.7103681889763775
11
5.9253843307086616
21
-4.7103078346456693
0
LINE
8
BLACK
6
CONTINUOUS
10
5.9253843307086616
20
-4.7103078346456693
11
5.9291338582677167
21
-4.7103078346456693
0
LINE
8
BLACK
6
CONTINUOUS
10
5.9291338582677167
20
-4.7103078346456693
11
5.9301437795275591
21
-4.7104859055118107
0
LINE
8
BLACK
6
CONTINUOUS
10
5.9233838976377955
20
-4.7175620866141728
11
5.9221867716535428
21
-4.7187592125984255
0
LINE
8
BLACK
6
CONTINUOUS
10
5.9221867716535428
20
-4.7187592125984255
11
5.9206712598425195
21
-4.7217901968503933
0
LINE
8
BLACK
6
CONTINUOUS
10
5.9206712598425195
20
-4.7217901968503933
11
5.9189632677165349
21
-4.7286222440944883
0
LINE
8
BLACK
6
CONTINUOUS
10
5.9189632677165349
20
-4.7286222440944883
11
5.9189632677165349
21
-4.737268976377953
0
LINE
8
BLACK
6
CONTINUOUS
10
5.9189632677165349
20
-4.737268976377953
11
5.9206712598425195
21
-4.7441010236220471
0
LINE
8
BLACK
6
CONTINUOUS
10
5.9206712598425195
20
-4.7441010236220471
11
5.9221867716535428
21
-4.7471320078740158
0
LINE
8
BLACK
6
CONTINUOUS
10
5.9221867716535428
20
-4.7471320078740158
11
5.9233838976377955
21
-4.7483291732283464
0
LINE
8
BLACK
6
CONTINUOUS
10
5.9233838976377955
20
-4.7483291732283464
11
5.9260813779527561
21
-4.7496779133858267
0
LINE
8
BLACK
6
CONTINUOUS
10
5.9260813779527561
20
-4.7496779133858267
11
5.9284368110236221
21
-4.7496779133858267
0
LINE
8
BLACK
6
CONTINUOUS
10
5.9284368110236221
20
-4.7496779133858267
11
5.931134251968504
21
-4.7483291732283464
0
LINE
8
BLACK
6
CONTINUOUS
10
5.931134251968504
20
-4.7483291732283464
11
5.9323313779527558
21
-4.7471320078740158
0
LINE
8
BLACK
6
CONTINUOUS
10
5.9323313779527558
20
-4.7471320078740158
11
5.9338468897637791
21
-4.7441010236220471
0
LINE
8
BLACK
6
CONTINUOUS
10
5.9338468897637791
20
-4.7441010236220471
11
5.9355549212598424
21
-4.737268976377953
0
LINE
8
BLACK
6
CONTINUOUS
10
5.9355549212598424
20
-4.737268976377953
11
5.9355549212598424
21
-4.7286222440944883
0
LINE
8
BLACK
6
CONTINUOUS
10
5.9355549212598424
20
-4.7286222440944883
11
5.9338468897637791
21
-4.7217901968503933
0
LINE
8
BLACK
6
CONTINUOUS
10
5.9338468897637791
20
-4.7217901968503933
11
5.9323314173228345
21
-4.7187592125984255
0
LINE
8
BLACK
6
CONTINUOUS
10
5.9323314173228345
20
-4.7187592125984255
11
5.9311342913385827
21
-4.7175620866141728
0
LINE
8
BLACK
6
CONTINUOUS
10
5.9311342913385827
20
-4.7175620866141728
11
5.9284368110236221
21
-4.7162133464566924
0
LINE
8
BLACK
6
CONTINUOUS
10
5.9284368110236221
20
-4.7162133464566924
11
5.9260813779527561
21
-4.7162133464566924
0
LINE
8
BLACK
6
CONTINUOUS
10
5.9260813779527561
20
-4.7162133464566924
11
5.9233838976377955
21
-4.7175620866141728
0
LINE
8
BLACK
6
CONTINUOUS
10
5.967639094488189
20
-4.7104859055118107
11
5.9677743307086617
21
-4.7105993700787403
0
LINE
8
BLACK
6
CONTINUOUS
10
5.9677743307086617
20
-4.7105993700787403
11
5.9679496850393701
21
-4.7106195669291342
0
LINE
8
BLACK
6
CONTINUOUS
10
5.9679496850393701
20
-4.7106195669291342
11
5.9716992125984252
21
-4.7124943307086617
0
LINE
8
BLACK
6
CONTINUOUS
10
5.9716992125984252
20
-4.7124943307086617
11
5.9724082677165349
21
-4.7130202362204727
0
LINE
8
BLACK
6
CONTINUOUS
10
5.9724082677165349
20
-4.7130202362204727
11
5.9724666141732285
21
-4.7130474409448819
0
LINE
8
BLACK
6
CONTINUOUS
10
5.9724666141732285
20
-4.7130474409448819
11
5.9743413779527561
21
-4.7149222047244095
0
LINE
8
BLACK
6
CONTINUOUS
10
5.9743413779527561
20
-4.7149222047244095
11
5.9748476377952757
21
-4.7156452755905507
0
LINE
8
BLACK
6
CONTINUOUS
10
5.9748476377952757
20
-4.7156452755905507
11
5.9748944881889763
21
-4.7156896062992129
0
LINE
8
BLACK
6
CONTINUOUS
10
5.9748944881889763
20
-4.7156896062992129
11
5.9767692519685038
21
-4.719439133858268
0
LINE
8
BLACK
6
CONTINUOUS
10
5.9767692519685038
20
-4.719439133858268
11
5.9769145275590549
21
-4.719927559055118
0
LINE
8
BLACK
6
CONTINUOUS
10
5.9769145275590549
20
-4.719927559055118
11
5.9769928346456691
21
-4.7200435039370081
0
LINE
8
BLACK
6
CONTINUOUS
10
5.9769928346456691
20
-4.7200435039370081
11
5.9788675984251967
21
-4.7275425590551183
0
LINE
8
BLACK
6
CONTINUOUS
10
5.9788675984251967
20
-4.7275425590551183
11
5.9789090551181099
21
-4.7281304330708664
0
LINE
8
BLACK
6
CONTINUOUS
10
5.9789090551181099
20
-4.7281304330708664
11
5.9789557480314963
21
-4.7282587007874017
0
LINE
8
BLACK
6
CONTINUOUS
10
5.9789557480314963
20
-4.7282587007874017
11
5.9789557480314963
21
-4.7376325196850395
0
LINE
8
BLACK
6
CONTINUOUS
10
5.9789557480314963
20
-4.7376325196850395
11
5.9788533858267714
21
-4.7382128740157476
0
LINE
8
BLACK
6
CONTINUOUS
10
5.9788533858267714
20
-4.7382128740157476
11
5.9788675984251967
21
-4.7383486614173229
0
LINE
8
BLACK
6
CONTINUOUS
10
5.9788675984251967
20
-4.7383486614173229
11
5.9769928346456691
21
-4.7458477165354331
0
LINE
8
BLACK
6
CONTINUOUS
10
5.9769928346456691
20
-4.7458477165354331
11
5.9767852362204721
21
-4.7463131496062987
0
LINE
8
BLACK
6
CONTINUOUS
10
5.9767852362204721
20
-4.7463131496062987
11
5.9767692519685038
21
-4.7464520866141733
0
LINE
8
BLACK
6
CONTINUOUS
10
5.9767692519685038
20
-4.7464520866141733
11
5.9748944881889763
21
-4.7502016141732284
0
LINE
8
BLACK
6
CONTINUOUS
10
5.9748944881889763
20
-4.7502016141732284
11
5.9743685433070866
21
-4.7509106692913381
0
LINE
8
BLACK
6
CONTINUOUS
10
5.9743685433070866
20
-4.7509106692913381
11
5.9743413779527561
21
-4.7509690157480318
0
LINE
8
BLACK
6
CONTINUOUS
10
5.9743413779527561
20
-4.7509690157480318
11
5.9724666535433073
21
-4.7528437795275593
0
LINE
8
BLACK
6
CONTINUOUS
10
5.9724666535433073
20
-4.7528437795275593
11
5.9717434645669289
21
-4.7533501574803152
0
LINE
8
BLACK
6
CONTINUOUS
10
5.9717434645669289
20
-4.7533501574803152
11
5.9716992125984252
21
-4.7533969291338583
0
LINE
8
BLACK
6
CONTINUOUS
10
5.9716992125984252
20
-4.7533969291338583
11
5.9679496850393701
21
-4.7552716929133858
0
LINE
8
BLACK
6
CONTINUOUS
10
5.9679496850393701
20
-4.7552716929133858
11
5.9669667322834643
21
-4.7555640551181098
0
LINE
8
BLACK
6
CONTINUOUS
10
5.9669667322834643
20
-4.7555640551181098
11
5.966795039370079
21
-4.7555230314960628
0
LINE
8
BLACK
6
CONTINUOUS
10
5.966795039370079
20
-4.7555230314960628
11
5.9666291732283465
21
-4.7555834251968498
0
LINE
8
BLACK
6
CONTINUOUS
10
5.9666291732283465
20
-4.7555834251968498
11
5.9628796456692914
21
-4.7555834251968498
0
LINE
8
BLACK
6
CONTINUOUS
10
5.9628796456692914
20
-4.7555834251968498
11
5.961869724409449
21
-4.7554053543307084
0
LINE
8
BLACK
6
CONTINUOUS
10
5.961869724409449
20
-4.7554053543307084
11
5.9617344488188975
21
-4.7552918503937009
0
LINE
8
BLACK
6
CONTINUOUS
10
5.9617344488188975
20
-4.7552918503937009
11
5.9615591338582679
21
-4.7552716929133858
0
LINE
8
BLACK
6
CONTINUOUS
10
5.9615591338582679
20
-4.7552716929133858
11
5.9578096062992127
21
-4.7533969291338583
0
LINE
8
BLACK
6
CONTINUOUS
10
5.9578096062992127
20
-4.7533969291338583
11
5.9571004724409446
21
-4.7528709448818898
0
LINE
8
BLACK
6
CONTINUOUS
10
5.9571004724409446
20
-4.7528709448818898
11
5.9570421653543306
21
-4.7528437795275593
0
LINE
8
BLACK
6
CONTINUOUS
10
5.9570421653543306
20
-4.7528437795275593
11
5.9551674015748031
21
-4.750968976377953
0
LINE
8
BLACK
6
CONTINUOUS
10
5.9551674015748031
20
-4.750968976377953
11
5.9546611023622047
21
-4.7502459055118109
0
LINE
8
BLACK
6
CONTINUOUS
10
5.9546611023622047
20
-4.7502459055118109
11
5.9546143307086616
21
-4.7502016141732284
0
LINE
8
BLACK
6
CONTINUOUS
10
5.9546143307086616
20
-4.7502016141732284
11
5.9527395669291341
21
-4.7464520866141733
0
LINE
8
BLACK
6
CONTINUOUS
10
5.9527395669291341
20
-4.7464520866141733
11
5.9525942519685042
21
-4.7459636220472436
0
LINE
8
BLACK
6
CONTINUOUS
10
5.9525942519685042
20
-4.7459636220472436
11
5.9525159842519679
21
-4.7458477165354331
0
LINE
8
BLACK
6
CONTINUOUS
10
5.9525159842519679
20
-4.7458477165354331
11
5.9506412204724404
21
-4.7383486614173229
0
LINE
8
BLACK
6
CONTINUOUS
10
5.9506412204724404
20
-4.7383486614173229
11
5.9505997244094484
21
-4.737760748031496
0
LINE
8
BLACK
6
CONTINUOUS
10
5.9505997244094484
20
-4.737760748031496
11
5.9505530708661416
21
-4.7376325196850395
0
LINE
8
BLACK
6
CONTINUOUS
10
5.9505530708661416
20
-4.7376325196850395
11
5.9505530708661416
21
-4.7282587007874017
0
LINE
8
BLACK
6
CONTINUOUS
10
5.9505530708661416
20
-4.7282587007874017
11
5.9506553937007869
21
-4.727678307086614
0
LINE
8
BLACK
6
CONTINUOUS
10
5.9506553937007869
20
-4.727678307086614
11
5.9506412204724404
21
-4.7275425590551183
0
LINE
8
BLACK
6
CONTINUOUS
10
5.9506412204724404
20
-4.7275425590551183
11
5.9525159842519679
21
-4.7200435039370081
0
LINE
8
BLACK
6
CONTINUOUS
10
5.9525159842519679
20
-4.7200435039370081
11
5.9527235433070862
21
-4.7195780314960629
0
LINE
8
BLACK
6
CONTINUOUS
10
5.9527235433070862
20
-4.7195780314960629
11
5.9527395669291341
21
-4.719439133858268
0
LINE
8
BLACK
6
CONTINUOUS
10
5.9527395669291341
20
-4.719439133858268
11
5.9546143307086616
21
-4.7156896062992129
0
LINE
8
BLACK
6
CONTINUOUS
10
5.9546143307086616
20
-4.7156896062992129
11
5.9551402362204726
21
-4.7149805118110235
0
LINE
8
BLACK
6
CONTINUOUS
10
5.9551402362204726
20
-4.7149805118110235
11
5.9551674409448818
21
-4.7149222047244095
0
LINE
8
BLACK
6
CONTINUOUS
10
5.9551674409448818
20
-4.7149222047244095
11
5.9570422047244094
21
-4.7130474409448819
0
LINE
8
BLACK
6
CONTINUOUS
10
5.9570422047244094
20
-4.7130474409448819
11
5.9577652755905515
21
-4.7125411417322836
0
LINE
8
BLACK
6
CONTINUOUS
10
5.9577652755905515
20
-4.7125411417322836
11
5.9578096062992127
21
-4.7124943307086617
0
LINE
8
BLACK
6
CONTINUOUS
10
5.9578096062992127
20
-4.7124943307086617
11
5.9615591338582679
21
-4.7106195669291342
0
LINE
8
BLACK
6
CONTINUOUS
10
5.9615591338582679
20
-4.7106195669291342
11
5.962542047244094
21
-4.7103272047244094
0
LINE
8
BLACK
6
CONTINUOUS
10
5.962542047244094
20
-4.7103272047244094
11
5.9627137401574801
21
-4.7103681889763775
0
LINE
8
BLACK
6
CONTINUOUS
10
5.9627137401574801
20
-4.7103681889763775
11
5.9628796456692914
21
-4.7103078346456693
0
LINE
8
BLACK
6
CONTINUOUS
10
5.9628796456692914
20
-4.7103078346456693
11
5.9666291732283465
21
-4.7103078346456693
0
LINE
8
BLACK
6
CONTINUOUS
10
5.9666291732283465
20
-4.7103078346456693
11
5.967639094488189
21
-4.7104859055118107
0
LINE
8
BLACK
6
CONTINUOUS
10
5.9608792125984253
20
-4.7175620866141728
11
5.9596820866141735
21
-4.7187592125984255
0
LINE
8
BLACK
6
CONTINUOUS
10
5.9596820866141735
20
-4.7187592125984255
11
5.9581665748031494
21
-4.7217901968503933
0
LINE
8
BLACK
6
CONTINUOUS
10
5.9581665748031494
20
-4.7217901968503933
11
5.9564585826771657
21
-4.7286222440944883
0
LINE
8
BLACK
6
CONTINUOUS
10
5.9564585826771657
20
-4.7286222440944883
11
5.9564585826771657
21
-4.737268976377953
0
LINE
8
BLACK
6
CONTINUOUS
10
5.9564585826771657
20
-4.737268976377953
11
5.9581665748031494
21
-4.7441010236220471
0
LINE
8
BLACK
6
CONTINUOUS
10
5.9581665748031494
20
-4.7441010236220471
11
5.9596820866141735
21
-4.7471320078740158
0
LINE
8
BLACK
6
CONTINUOUS
10
5.9596820866141735
20
-4.7471320078740158
11
5.9608792125984253
21
-4.7483291732283464
0
LINE
8
BLACK
6
CONTINUOUS
10
5.9608792125984253
20
-4.7483291732283464
11
5.963576692913386
21
-4.7496779133858267
0
LINE
8
BLACK
6
CONTINUOUS
10
5.963576692913386
20
-4.7496779133858267
11
5.9659321259842519
21
-4.7496779133858267
0
LINE
8
BLACK
6
CONTINUOUS
10
5.9659321259842519
20
-4.7496779133858267
11
5.9686295669291338
21
-4.7483291732283464
0
LINE
8
BLACK
6
CONTINUOUS
10
5.9686295669291338
20
-4.7483291732283464
11
5.9698266929133856
21
-4.7471320078740158
0
LINE
8
BLACK
6
CONTINUOUS
10
5.9698266929133856
20
-4.7471320078740158
11
5.9713422047244089
21
-4.7441010236220471
0
LINE
8
BLACK
6
CONTINUOUS
10
5.9713422047244089
20
-4.7441010236220471
11
5.9730502362204723
21
-4.737268976377953
0
LINE
8
BLACK
6
CONTINUOUS
10
5.9730502362204723
20
-4.737268976377953
11
5.9730502362204723
21
-4.7286222440944883
0
LINE
8
BLACK
6
CONTINUOUS
10
5.9730502362204723
20
-4.7286222440944883
11
5.9713422047244089
21
-4.7217901968503933
0
LINE
8
BLACK
6
CONTINUOUS
10
5.9713422047244089
20
-4.7217901968503933
11
5.9698267322834644
21
-4.7187592125984255
0
LINE
8
BLACK
6
CONTINUOUS
10
5.9698267322834644
20
-4.7187592125984255
11
5.9686296062992126
21
-4.7175620866141728
0
LINE
8
BLACK
6
CONTINUOUS
10
5.9686296062992126
20
-4.7175620866141728
11
5.9659321259842519
21
-4.7162133464566924
0
LINE
8
BLACK
6
CONTINUOUS
10
5.9659321259842519
20
-4.7162133464566924
11
5.963576692913386
21
-4.7162133464566924
0
LINE
8
BLACK
6
CONTINUOUS
10
5.963576692913386
20
-4.7162133464566924
11
5.9608792125984253
21
-4.7175620866141728
0
LINE
8
BLACK
6
CONTINUOUS
10
5.8245266929133859
20
-4.7459966141732286
11
5.8246597637795272
21
-4.7459731889763779
0
LINE
8
BLACK
6
CONTINUOUS
10
5.8246597637795272
20
-4.7459731889763779
11
5.8247766929133853
21
-4.7460406692913386
0
LINE
8
BLACK
6
CONTINUOUS
10
5.8247766929133853
20
-4.7460406692913386
11
5.8249112204724405
21
-4.7460289370078739
0
LINE
8
BLACK
6
CONTINUOUS
10
5.8249112204724405
20
-4.7460289370078739
11
5.8255397637795276
21
-4.7464690551181103
0
LINE
8
BLACK
6
CONTINUOUS
10
5.8255397637795276
20
-4.7464690551181103
11
5.8262349606299209
21
-4.7467932283464567
0
LINE
8
BLACK
6
CONTINUOUS
10
5.8262349606299209
20
-4.7467932283464567
11
5.8281096850393697
21
-4.7486679921259842
0
LINE
8
BLACK
6
CONTINUOUS
10
5.8281096850393697
20
-4.7486679921259842
11
5.8283330708661412
21
-4.7489870078740157
0
LINE
8
BLACK
6
CONTINUOUS
10
5.8283330708661412
20
-4.7489870078740157
11
5.8284405511811022
21
-4.7490622834645668
0
LINE
8
BLACK
6
CONTINUOUS
10
5.8284405511811022
20
-4.7490622834645668
11
5.8284744881889763
21
-4.7491889763779529
0
LINE
8
BLACK
6
CONTINUOUS
10
5.8284744881889763
20
-4.7491889763779529
11
5.8286979133858265
21
-4.7495080708661419
0
LINE
8
BLACK
6
CONTINUOUS
10
5.8286979133858265
20
-4.7495080708661419
11
5.8287647244094485
21
-4.7502723622047247
0
LINE
8
BLACK
6
CONTINUOUS
10
5.8287647244094485
20
-4.7502723622047247
11
5.8289632677165351
21
-4.7510132677165355
0
LINE
8
BLACK
6
CONTINUOUS
10
5.8289632677165351
20
-4.7510132677165355
11
5.8288506692913389
21
-4.7512546850393695
0
LINE
8
BLACK
6
CONTINUOUS
10
5.8288506692913389
20
-4.7512546850393695
11
5.828873897637795
21
-4.7515201574803152
0
LINE
8
BLACK
6
CONTINUOUS
10
5.828873897637795
20
-4.7515201574803152
11
5.828433858267716
21
-4.7521485826771652
0
LINE
8
BLACK
6
CONTINUOUS
10
5.828433858267716
20
-4.7521485826771652
11
5.8281096850393697
21
-4.7528438188976381
0
LINE
8
BLACK
6
CONTINUOUS
10
5.8281096850393697
20
-4.7528438188976381
11
5.8262349212598421
21
-4.7547185826771656
0
LINE
8
BLACK
6
CONTINUOUS
10
5.8262349212598421
20
-4.7547185826771656
11
5.8259158661417318
21
-4.7549419685039371
0
LINE
8
BLACK
6
CONTINUOUS
10
5.8259158661417318
20
-4.7549419685039371
11
5.8258406299212595
21
-4.7550494488188972
0
LINE
8
BLACK
6
CONTINUOUS
10
5.8258406299212595
20
-4.7550494488188972
11
5.8257138582677168
21
-4.7550833858267714
0
LINE
8
BLACK
6
CONTINUOUS
10
5.8257138582677168
20
-4.7550833858267714
11
5.8257068897637794
21
-4.7550882677165349
0
LINE
8
BLACK
6
CONTINUOUS
10
5.8257068897637794
20
-4.7550882677165349
11
5.8256233858267716
21
-4.7551878346456693
0
LINE
8
BLACK
6
CONTINUOUS
10
5.8256233858267716
20
-4.7551878346456693
11
5.825545
21
-4.755201653543307
0
LINE
8
BLACK
6
CONTINUOUS
10
5.825545
20
-4.755201653543307
11
5.8253948818897641
21
-4.7553067716535429
0
LINE
8
BLACK
6
CONTINUOUS
10
5.8253948818897641
20
-4.7553067716535429
11
5.8246305511811025
21
-4.7553736220472436
0
LINE
8
BLACK
6
CONTINUOUS
10
5.8246305511811025
20
-4.7553736220472436
11
5.8238896456692908
21
-4.755572165354331
0
LINE
8
BLACK
6
CONTINUOUS
10
5.8238896456692908
20
-4.755572165354331
11
5.8237672834645666
21
-4.7555151181102362
0
LINE
8
BLACK
6
CONTINUOUS
10
5.8237672834645666
20
-4.7555151181102362
11
5.823634251968504
21
-4.7555385826771657
0
LINE
8
BLACK
6
CONTINUOUS
10
5.823634251968504
20
-4.7555385826771657
11
5.8235172834645672
21
-4.7554710629921262
0
LINE
8
BLACK
6
CONTINUOUS
10
5.8235172834645672
20
-4.7554710629921262
11
5.8233827952755908
21
-4.7554828346456688
0
LINE
8
BLACK
6
CONTINUOUS
10
5.8233827952755908
20
-4.7554828346456688
11
5.8227542913385824
21
-4.7550427165354332
0
LINE
8
BLACK
6
CONTINUOUS
10
5.8227542913385824
20
-4.7550427165354332
11
5.8220590944881891
21
-4.7547185826771656
0
LINE
8
BLACK
6
CONTINUOUS
10
5.8220590944881891
20
-4.7547185826771656
11
5.8201843307086616
21
-4.7528438188976381
0
LINE
8
BLACK
6
CONTINUOUS
10
5.8201843307086616
20
-4.7528438188976381
11
5.819960984251968
21
-4.7525248425196853
0
LINE
8
BLACK
6
CONTINUOUS
10
5.819960984251968
20
-4.7525248425196853
11
5.8198534645669291
21
-4.7524495669291333
0
LINE
8
BLACK
6
CONTINUOUS
10
5.8198534645669291
20
-4.7524495669291333
11
5.8198194881889762
21
-4.7523227559055119
0
LINE
8
BLACK
6
CONTINUOUS
10
5.8198194881889762
20
-4.7523227559055119
11
5.8195961417322835
21
-4.7520037795275591
0
LINE
8
BLACK
6
CONTINUOUS
10
5.8195961417322835
20
-4.7520037795275591
11
5.819529251968504
21
-4.7512395275590551
0
LINE
8
BLACK
6
CONTINUOUS
10
5.819529251968504
20
-4.7512395275590551
11
5.8193307480314962
21
-4.7504985826771655
0
LINE
8
BLACK
6
CONTINUOUS
10
5.8193307480314962
20
-4.7504985826771655
11
5.8194433070866136
21
-4.7502571653543306
0
LINE
8
BLACK
6
CONTINUOUS
10
5.8194433070866136
20
-4.7502571653543306
11
5.8194200787401575
21
-4.7499916929133859
0
LINE
8
BLACK
6
CONTINUOUS
10
5.8194200787401575
20
-4.7499916929133859
11
5.8198601181102365
21
-4.7493631889763774
0
LINE
8
BLACK
6
CONTINUOUS
10
5.8198601181102365
20
-4.7493631889763774
11
5.8201842913385828
21
-4.748668031496063
0
LINE
8
BLACK
6
CONTINUOUS
10
5.8201842913385828
20
-4.748668031496063
11
5.8220590551181104
21
-4.7467932283464567
0
LINE
8
BLACK
6
CONTINUOUS
10
5.8220590551181104
20
-4.7467932283464567
11
5.8223781102362206
21
-4.7465697637795277
0
LINE
8
BLACK
6
CONTINUOUS
10
5.8223781102362206
20
-4.7465697637795277
11
5.8224533858267717
21
-4.7464623228346454
0
LINE
8
BLACK
6
CONTINUOUS
10
5.8224533858267717
20
-4.7464623228346454
11
5.8225800787401569
21
-4.7464283464566925
0
LINE
8
BLACK
6
CONTINUOUS
10
5.8225800787401569
20
-4.7464283464566925
11
5.8225870866141731
21
-4.7464234251968502
0
LINE
8
BLACK
6
CONTINUOUS
10
5.8225870866141731
20
-4.7464234251968502
11
5.8226706299212596
21
-4.7463239370078742
0
LINE
8
BLACK
6
CONTINUOUS
10
5.8226706299212596
20
-4.7463239370078742
11
5.8227489370078738
21
-4.7463101181102365
0
LINE
8
BLACK
6
CONTINUOUS
10
5.8227489370078738
20
-4.7463101181102365
11
5.8228990944881884
21
-4.7462049999999998
0
LINE
8
BLACK
6
CONTINUOUS
10
5.8228990944881884
20
-4.7462049999999998
11
5.82366342519685
21
-4.7461381102362203
0
LINE
8
BLACK
6
CONTINUOUS
10
5.82366342519685
20
-4.7461381102362203
11
5.8244043700787405
21
-4.7459396062992125
0
LINE
8
BLACK
6
CONTINUOUS
10
5.8244043700787405
20
-4.7459396062992125
11
5.8245266929133859
21
-4.7459966141732286
0
LINE
8
BLACK
6
CONTINUOUS
10
6.0351306692913385
20
-4.7236092519685036
11
6.0352659055118112
21
-4.7237227165354332
0
LINE
8
BLACK
6
CONTINUOUS
10
6.0352659055118112
20
-4.7237227165354332
11
6.0354412598425196
21
-4.7237429133858271
0
LINE
8
BLACK
6
CONTINUOUS
10
6.0354412598425196
20
-4.7237429133858271
11
6.0391907874015747
21
-4.7256176771653546
0
LINE
8
BLACK
6
CONTINUOUS
10
6.0391907874015747
20
-4.7256176771653546
11
6.0397607086614169
21
-4.7260403543307081
0
LINE
8
BLACK
6
CONTINUOUS
10
6.0397607086614169
20
-4.7260403543307081
11
6.0399953543307081
21
-4.7259386614173229
0
LINE
8
BLACK
6
CONTINUOUS
10
6.0399953543307081
20
-4.7259386614173229
11
6.0402992913385827
21
-4.7256176771653546
0
LINE
8
BLACK
6
CONTINUOUS
10
6.0402992913385827
20
-4.7256176771653546
11
6.0440488188976378
21
-4.7237429133858271
0
LINE
8
BLACK
6
CONTINUOUS
10
6.0440488188976378
20
-4.7237429133858271
11
6.0450317322834648
21
-4.7234505511811022
0
LINE
8
BLACK
6
CONTINUOUS
10
6.0450317322834648
20
-4.7234505511811022
11
6.0452034251968501
21
-4.7234915354330704
0
LINE
8
BLACK
6
CONTINUOUS
10
6.0452034251968501
20
-4.7234915354330704
11
6.0453693307086613
21
-4.7234311811023622
0
LINE
8
BLACK
6
CONTINUOUS
10
6.0453693307086613
20
-4.7234311811023622
11
6.050993622047244
21
-4.7234311811023622
0
LINE
8
BLACK
6
CONTINUOUS
10
6.050993622047244
20
-4.7234311811023622
11
6.0520035433070865
21
-4.7236092519685036
0
LINE
8
BLACK
6
CONTINUOUS
10
6.0520035433070865
20
-4.7236092519685036
11
6.0521387795275592
21
-4.7237227165354332
0
LINE
8
BLACK
6
CONTINUOUS
10
6.0521387795275592
20
-4.7237227165354332
11
6.0523141338582676
21
-4.7237429133858271
0
LINE
8
BLACK
6
CONTINUOUS
10
6.0523141338582676
20
-4.7237429133858271
11
6.0560637007874014
21
-4.7256176771653546
0
LINE
8
BLACK
6
CONTINUOUS
10
6.0560637007874014
20
-4.7256176771653546
11
6.0568873622047246
21
-4.7262285826771651
0
LINE
8
BLACK
6
CONTINUOUS
10
6.0568873622047246
20
-4.7262285826771651
11
6.057063188976378
21
-4.7266342519685036
0
LINE
8
BLACK
6
CONTINUOUS
10
6.057063188976378
20
-4.7266342519685036
11
6.057384212598425
21
-4.7269381889763782
0
LINE
8
BLACK
6
CONTINUOUS
10
6.057384212598425
20
-4.7269381889763782
11
6.0592589763779525
21
-4.7306877165354333
0
LINE
8
BLACK
6
CONTINUOUS
10
6.0592589763779525
20
-4.7306877165354333
11
6.0595513385826774
21
-4.7316706299212594
0
LINE
8
BLACK
6
CONTINUOUS
10
6.0595513385826774
20
-4.7316706299212594
11
6.0595103149606295
21
-4.7318423228346456
0
LINE
8
BLACK
6
CONTINUOUS
10
6.0595103149606295
20
-4.7318423228346456
11
6.0595707086614174
21
-4.7320082283464568
0
LINE
8
BLACK
6
CONTINUOUS
10
6.0595707086614174
20
-4.7320082283464568
11
6.0595707086614174
21
-4.7526306692913387
0
LINE
8
BLACK
6
CONTINUOUS
10
6.0595707086614174
20
-4.7526306692913387
11
6.0593926377952751
21
-4.7536405905511812
0
LINE
8
BLACK
6
CONTINUOUS
10
6.0593926377952751
20
-4.7536405905511812
11
6.058094330708661
21
-4.7551878346456693
0
LINE
8
BLACK
6
CONTINUOUS
10
6.058094330708661
20
-4.7551878346456693
11
6.0561051968503934
21
-4.7555385826771657
0
LINE
8
BLACK
6
CONTINUOUS
10
6.0561051968503934
20
-4.7555385826771657
11
6.0543560236220468
21
-4.7545286614173223
0
LINE
8
BLACK
6
CONTINUOUS
10
6.0543560236220468
20
-4.7545286614173223
11
6.0536651968503934
21
-4.7526306692913387
0
LINE
8
BLACK
6
CONTINUOUS
10
6.0536651968503934
20
-4.7526306692913387
11
6.0536651968503934
21
-4.7327052755905514
0
LINE
8
BLACK
6
CONTINUOUS
10
6.0536651968503934
20
-4.7327052755905514
11
6.0525423228346451
21
-4.7304595275590549
0
LINE
8
BLACK
6
CONTINUOUS
10
6.0525423228346451
20
-4.7304595275590549
11
6.0502965748031494
21
-4.7293366929133853
0
LINE
8
BLACK
6
CONTINUOUS
10
6.0502965748031494
20
-4.7293366929133853
11
6.0460663779527559
21
-4.7293366929133853
0
LINE
8
BLACK
6
CONTINUOUS
10
6.0460663779527559
20
-4.7293366929133853
11
6.0438206299212593
21
-4.7304595275590549
0
LINE
8
BLACK
6
CONTINUOUS
10
6.0438206299212593
20
-4.7304595275590549
11
6.0426977952755907
21
-4.7327052755905514
0
LINE
8
BLACK
6
CONTINUOUS
10
6.0426977952755907
20
-4.7327052755905514
11
6.0426977952755907
21
-4.7526306692913387
0
LINE
8
BLACK
6
CONTINUOUS
10
6.0426977952755907
20
-4.7526306692913387
11
6.0425197244094484
21
-4.7536405905511812
0
LINE
8
BLACK
6
CONTINUOUS
10
6.0425197244094484
20
-4.7536405905511812
11
6.0412214173228342
21
-4.7551878346456693
0
LINE
8
BLACK
6
CONTINUOUS
10
6.0412214173228342
20
-4.7551878346456693
11
6.0392322834645666
21
-4.7555385826771657
0
LINE
8
BLACK
6
CONTINUOUS
10
6.0392322834645666
20
-4.7555385826771657
11
6.0374831102362201
21
-4.7545286614173223
0
LINE
8
BLACK
6
CONTINUOUS
10
6.0374831102362201
20
-4.7545286614173223
11
6.0367922834645666
21
-4.7526306692913387
0
LINE
8
BLACK
6
CONTINUOUS
10
6.0367922834645666
20
-4.7526306692913387
11
6.0367922834645666
21
-4.7327052755905514
0
LINE
8
BLACK
6
CONTINUOUS
10
6.0367922834645666
20
-4.7327052755905514
11
6.0356694094488184
21
-4.7304595275590549
0
LINE
8
BLACK
6
CONTINUOUS
10
6.0356694094488184
20
-4.7304595275590549
11
6.0334237007874014
21
-4.7293366929133853
0
LINE
8
BLACK
6
CONTINUOUS
10
6.0334237007874014
20
-4.7293366929133853
11
6.0291935039370079
21
-4.7293366929133853
0
LINE
8
BLACK
6
CONTINUOUS
10
6.0291935039370079
20
-4.7293366929133853
11
6.0264960236220473
21
-4.7306854330708656
0
LINE
8
BLACK
6
CONTINUOUS
10
6.0264960236220473
20
-4.7306854330708656
11
6.0258249212598427
21
-4.7313565354330711
0
LINE
8
BLACK
6
CONTINUOUS
10
6.0258249212598427
20
-4.7313565354330711
11
6.0258249212598427
21
-4.7526306692913387
0
LINE
8
BLACK
6
CONTINUOUS
10
6.0258249212598427
20
-4.7526306692913387
11
6.0256468503937004
21
-4.7536405905511812
0
LINE
8
BLACK
6
CONTINUOUS
10
6.0256468503937004
20
-4.7536405905511812
11
6.0243485433070862
21
-4.7551878346456693
0
LINE
8
BLACK
6
CONTINUOUS
10
6.0243485433070862
20
-4.7551878346456693
11
6.0223594094488186
21
-4.7555385826771657
0
LINE
8
BLACK
6
CONTINUOUS
10
6.0223594094488186
20
-4.7555385826771657
11
6.0206102362204721
21
-4.7545286614173223
0
LINE
8
BLACK
6
CONTINUOUS
10
6.0206102362204721
20
-4.7545286614173223
11
6.0199194094488186
21
-4.7526306692913387
0
LINE
8
BLACK
6
CONTINUOUS
10
6.0199194094488186
20
-4.7526306692913387
11
6.0199194094488186
21
-4.7263839370078742
0
LINE
8
BLACK
6
CONTINUOUS
10
6.0199194094488186
20
-4.7263839370078742
11
6.0200974803149601
21
-4.7253740157480317
0
LINE
8
BLACK
6
CONTINUOUS
10
6.0200974803149601
20
-4.7253740157480317
11
6.0213957874015751
21
-4.7238267716535436
0
LINE
8
BLACK
6
CONTINUOUS
10
6.0213957874015751
20
-4.7238267716535436
11
6.0233849212598427
21
-4.7234760236220472
0
LINE
8
BLACK
6
CONTINUOUS
10
6.0233849212598427
20
-4.7234760236220472
11
6.0251340944881893
21
-4.7244859448818897
0
LINE
8
BLACK
6
CONTINUOUS
10
6.0251340944881893
20
-4.7244859448818897
11
6.0252196456692912
21
-4.7247210236220472
0
LINE
8
BLACK
6
CONTINUOUS
10
6.0252196456692912
20
-4.7247210236220472
11
6.0271759448818898
21
-4.7237429133858271
0
LINE
8
BLACK
6
CONTINUOUS
10
6.0271759448818898
20
-4.7237429133858271
11
6.0281588582677168
21
-4.7234505511811022
0
LINE
8
BLACK
6
CONTINUOUS
10
6.0281588582677168
20
-4.7234505511811022
11
6.0283305511811021
21
-4.7234915354330704
0
LINE
8
BLACK
6
CONTINUOUS
10
6.0283305511811021
20
-4.7234915354330704
11
6.0284964566929133
21
-4.7234311811023622
0
LINE
8
BLACK
6
CONTINUOUS
10
6.0284964566929133
20
-4.7234311811023622
11
6.034120748031496
21
-4.7234311811023622
0
LINE
8
BLACK
6
CONTINUOUS
10
6.034120748031496
20
-4.7234311811023622
11
6.0351306692913385
21
-4.7236092519685036
0
LINE
8
BLACK
6
CONTINUOUS
10
6.0876240944881888
20
-4.7236092519685036
11
6.0877593307086615
21
-4.7237227165354332
0
LINE
8
BLACK
6
CONTINUOUS
10
6.0877593307086615
20
-4.7237227165354332
11
6.0879346850393699
21
-4.7237429133858271
0
LINE
8
BLACK
6
CONTINUOUS
10
6.0879346850393699
20
-4.7237429133858271
11
6.091684212598425
21
-4.7256176771653546
0
LINE
8
BLACK
6
CONTINUOUS
10
6.091684212598425
20
-4.7256176771653546
11
6.0922541338582672
21
-4.7260403543307081
0
LINE
8
BLACK
6
CONTINUOUS
10
6.0922541338582672
20
-4.7260403543307081
11
6.0924887795275593
21
-4.7259386614173229
0
LINE
8
BLACK
6
CONTINUOUS
10
6.0924887795275593
20
-4.7259386614173229
11
6.092792716535433
21
-4.7256176771653546
0
LINE
8
BLACK
6
CONTINUOUS
10
6.092792716535433
20
-4.7256176771653546
11
6.0965422440944881
21
-4.7237429133858271
0
LINE
8
BLACK
6
CONTINUOUS
10
6.0965422440944881
20
-4.7237429133858271
11
6.0975251574803151
21
-4.7234505511811022
0
LINE
8
BLACK
6
CONTINUOUS
10
6.0975251574803151
20
-4.7234505511811022
11
6.0976968503937004
21
-4.7234915354330704
0
LINE
8
BLACK
6
CONTINUOUS
10
6.0976968503937004
20
-4.7234915354330704
11
6.0978627559055116
21
-4.7234311811023622
0
LINE
8
BLACK
6
CONTINUOUS
10
6.0978627559055116
20
-4.7234311811023622
11
6.1034870472440943
21
-4.7234311811023622
0
LINE
8
BLACK
6
CONTINUOUS
10
6.1034870472440943
20
-4.7234311811023622
11
6.1044969685039367
21
-4.7236092519685036
0
LINE
8
BLACK
6
CONTINUOUS
10
6.1044969685039367
20
-4.7236092519685036
11
6.1046322047244095
21
-4.7237227165354332
0
LINE
8
BLACK
6
CONTINUOUS
10
6.1046322047244095
20
-4.7237227165354332
11
6.1048075590551178
21
-4.7237429133858271
0
LINE
8
BLACK
6
CONTINUOUS
10
6.1048075590551178
20
-4.7237429133858271
11
6.1085571259842517
21
-4.7256176771653546
0
LINE
8
BLACK
6
CONTINUOUS
10
6.1085571259842517
20
-4.7256176771653546
11
6.1093807874015749
21
-4.7262285826771651
0
LINE
8
BLACK
6
CONTINUOUS
10
6.1093807874015749
20
-4.7262285826771651
11
6.1095566141732283
21
-4.7266342519685036
0
LINE
8
BLACK
6
CONTINUOUS
10
6.1095566141732283
20
-4.7266342519685036
11
6.1098776377952753
21
-4.7269381889763782
0
LINE
8
BLACK
6
CONTINUOUS
10
6.1098776377952753
20
-4.7269381889763782
11
6.1117524015748028
21
-4.7306877165354333
0
LINE
8
BLACK
6
CONTINUOUS
10
6.1117524015748028
20
-4.7306877165354333
11
6.1120447637795277
21
-4.7316706299212594
0
LINE
8
BLACK
6
CONTINUOUS
10
6.1120447637795277
20
-4.7316706299212594
11
6.1120037401574798
21
-4.7318423228346456
0
LINE
8
BLACK
6
CONTINUOUS
10
6.1120037401574798
20
-4.7318423228346456
11
6.1120641338582677
21
-4.7320082283464568
0
LINE
8
BLACK
6
CONTINUOUS
10
6.1120641338582677
20
-4.7320082283464568
11
6.1120641338582677
21
-4.7526306692913387
0
LINE
8
BLACK
6
CONTINUOUS
10
6.1120641338582677
20
-4.7526306692913387
11
6.1118860629921254
21
-4.7536405905511812
0
LINE
8
BLACK
6
CONTINUOUS
10
6.1118860629921254
20
-4.7536405905511812
11
6.1105877559055113
21
-4.7551878346456693
0
LINE
8
BLACK
6
CONTINUOUS
10
6.1105877559055113
20
-4.7551878346456693
11
6.1085986220472437
21
-4.7555385826771657
0
LINE
8
BLACK
6
CONTINUOUS
10
6.1085986220472437
20
-4.7555385826771657
11
6.1068494488188971
21
-4.7545286614173223
0
LINE
8
BLACK
6
CONTINUOUS
10
6.1068494488188971
20
-4.7545286614173223
11
6.1061586220472437
21
-4.7526306692913387
0
LINE
8
BLACK
6
CONTINUOUS
10
6.1061586220472437
20
-4.7526306692913387
11
6.1061586220472437
21
-4.7327052755905514
0
LINE
8
BLACK
6
CONTINUOUS
10
6.1061586220472437
20
-4.7327052755905514
11
6.1050357480314963
21
-4.7304595275590549
0
LINE
8
BLACK
6
CONTINUOUS
10
6.1050357480314963
20
-4.7304595275590549
11
6.1027899999999997
21
-4.7293366929133853
0
LINE
8
BLACK
6
CONTINUOUS
10
6.1027899999999997
20
-4.7293366929133853
11
6.0985598031496062
21
-4.7293366929133853
0
LINE
8
BLACK
6
CONTINUOUS
10
6.0985598031496062
20
-4.7293366929133853
11
6.0963140551181105
21
-4.7304595275590549
0
LINE
8
BLACK
6
CONTINUOUS
10
6.0963140551181105
20
-4.7304595275590549
11
6.095191220472441
21
-4.7327052755905514
0
LINE
8
BLACK
6
CONTINUOUS
10
6.095191220472441
20
-4.7327052755905514
11
6.095191220472441
21
-4.7526306692913387
0
LINE
8
BLACK
6
CONTINUOUS
10
6.095191220472441
20
-4.7526306692913387
11
6.0950131496062987
21
-4.7536405905511812
0
LINE
8
BLACK
6
CONTINUOUS
10
6.0950131496062987
20
-4.7536405905511812
11
6.0937148425196845
21
-4.7551878346456693
0
LINE
8
BLACK
6
CONTINUOUS
10
6.0937148425196845
20
-4.7551878346456693
11
6.0917257086614169
21
-4.7555385826771657
0
LINE
8
BLACK
6
CONTINUOUS
10
6.0917257086614169
20
-4.7555385826771657
11
6.0899765354330704
21
-4.7545286614173223
0
LINE
8
BLACK
6
CONTINUOUS
10
6.0899765354330704
20
-4.7545286614173223
11
6.0892857086614169
21
-4.7526306692913387
0
LINE
8
BLACK
6
CONTINUOUS
10
6.0892857086614169
20
-4.7526306692913387
11
6.0892857086614169
21
-4.7327052755905514
0
LINE
8
BLACK
6
CONTINUOUS
10
6.0892857086614169
20
-4.7327052755905514
11
6.0881628346456695
21
-4.7304595275590549
0
LINE
8
BLACK
6
CONTINUOUS
10
6.0881628346456695
20
-4.7304595275590549
11
6.0859171259842517
21
-4.7293366929133853
0
LINE
8
BLACK
6
CONTINUOUS
10
6.0859171259842517
20
-4.7293366929133853
11
6.0816869291338582
21
-4.7293366929133853
0
LINE
8
BLACK
6
CONTINUOUS
10
6.0816869291338582
20
-4.7293366929133853
11
6.0789894488188976
21
-4.7306854330708656
0
LINE
8
BLACK
6
CONTINUOUS
10
6.0789894488188976
20
-4.7306854330708656
11
6.078318346456693
21
-4.7313565354330711
0
LINE
8
BLACK
6
CONTINUOUS
10
6.078318346456693
20
-4.7313565354330711
11
6.078318346456693
21
-4.7526306692913387
0
LINE
8
BLACK
6
CONTINUOUS
10
6.078318346456693
20
-4.7526306692913387
11
6.0781402755905507
21
-4.7536405905511812
0
LINE
8
BLACK
6
CONTINUOUS
10
6.0781402755905507
20
-4.7536405905511812
11
6.0768419685039365
21
-4.7551878346456693
0
LINE
8
BLACK
6
CONTINUOUS
10
6.0768419685039365
20
-4.7551878346456693
11
6.0748528346456689
21
-4.7555385826771657
0
LINE
8
BLACK
6
CONTINUOUS
10
6.0748528346456689
20
-4.7555385826771657
11
6.0731036614173224
21
-4.7545286614173223
0
LINE
8
BLACK
6
CONTINUOUS
10
6.0731036614173224
20
-4.7545286614173223
11
6.0724128346456689
21
-4.7526306692913387
0
LINE
8
BLACK
6
CONTINUOUS
10
6.0724128346456689
20
-4.7526306692913387
11
6.0724128346456689
21
-4.7263839370078742
0
LINE
8
BLACK
6
CONTINUOUS
10
6.0724128346456689
20
-4.7263839370078742
11
6.0725909055118112
21
-4.7253740157480317
0
LINE
8
BLACK
6
CONTINUOUS
10
6.0725909055118112
20
-4.7253740157480317
11
6.0738892125984254
21
-4.7238267716535436
0
LINE
8
BLACK
6
CONTINUOUS
10
6.0738892125984254
20
-4.7238267716535436
11
6.075878346456693
21
-4.7234760236220472
0
LINE
8
BLACK
6
CONTINUOUS
10
6.075878346456693
20
-4.7234760236220472
11
6.0776275196850396
21
-4.7244859448818897
0
LINE
8
BLACK
6
CONTINUOUS
10
6.0776275196850396
20
-4.7244859448818897
11
6.0777130708661415
21
-4.7247210236220472
0
LINE
8
BLACK
6
CONTINUOUS
10
6.0777130708661415
20
-4.7247210236220472
11
6.0796693700787401
21
-4.7237429133858271
0
LINE
8
BLACK
6
CONTINUOUS
10
6.0796693700787401
20
-4.7237429133858271
11
6.0806522834645671
21
-4.7234505511811022
0
LINE
8
BLACK
6
CONTINUOUS
10
6.0806522834645671
20
-4.7234505511811022
11
6.0808239763779524
21
-4.7234915354330704
0
LINE
8
BLACK
6
CONTINUOUS
10
6.0808239763779524
20
-4.7234915354330704
11
6.0809898818897636
21
-4.7234311811023622
0
LINE
8
BLACK
6
CONTINUOUS
10
6.0809898818897636
20
-4.7234311811023622
11
6.0866141732283463
21
-4.7234311811023622
0
LINE
8
BLACK
6
CONTINUOUS
10
6.0866141732283463
20
-4.7234311811023622
11
6.0876240944881888
21
-4.7236092519685036
0
LINE
8
BLACK
6
CONTINUOUS
10
6.6984793307086612
20
-3.3575450787401575
11
6.6990559055118108
21
-3.3589370078740157
0
LINE
8
BLACK
6
CONTINUOUS
10
6.6990559055118108
20
-3.3589370078740157
11
6.6984793307086612
21
-3.3603289370078739
0
LINE
8
BLACK
6
CONTINUOUS
10
6.6984793307086612
20
-3.3603289370078739
11
6.6970874015748034
21
-3.3609055118110236
0
LINE
8
BLACK
6
CONTINUOUS
10
6.6970874015748034
20
-3.3609055118110236
11
6.6772440157480313
21
-3.3609055118110236
0
LINE
8
BLACK
6
CONTINUOUS
10
6.6772440157480313
20
-3.3609055118110236
11
6.6988335039370082
21
-3.4023785826771653
0
LINE
8
BLACK
6
CONTINUOUS
10
6.6988335039370082
20
-3.4023785826771653
11
6.6989648031496065
21
-3.4038794881889762
0
LINE
8
BLACK
6
CONTINUOUS
10
6.6989648031496065
20
-3.4038794881889762
11
6.697996377952756
21
-3.4050336220472439
0
LINE
8
BLACK
6
CONTINUOUS
10
6.697996377952756
20
-3.4050336220472439
11
6.6964955118110234
21
-3.4051649212598423
0
LINE
8
BLACK
6
CONTINUOUS
10
6.6964955118110234
20
-3.4051649212598423
11
6.6953413385826774
21
-3.4041964960629922
0
LINE
8
BLACK
6
CONTINUOUS
10
6.6953413385826774
20
-3.4041964960629922
11
6.6759685039370078
21
-3.3669816141732283
0
LINE
8
BLACK
6
CONTINUOUS
10
6.6759685039370078
20
-3.3669816141732283
11
6.6759685039370078
21
-4.5319947244094489
0
LINE
8
BLACK
6
CONTINUOUS
10
6.6759685039370078
20
-4.5319947244094489
11
6.6953413385826774
21
-4.4947798818897633
0
LINE
8
BLACK
6
CONTINUOUS
10
6.6953413385826774
20
-4.4947798818897633
11
6.6964955118110234
21
-4.4938114566929137
0
LINE
8
BLACK
6
CONTINUOUS
10
6.6964955118110234
20
-4.4938114566929137
11
6.697996377952756
21
-4.4939427559055121
0
LINE
8
BLACK
6
CONTINUOUS
10
6.697996377952756
20
-4.4939427559055121
11
6.6989648031496065
21
-4.4950968897637793
0
LINE
8
BLACK
6
CONTINUOUS
10
6.6989648031496065
20
-4.4950968897637793
11
6.6988335039370082
21
-4.4965977952755907
0
LINE
8
BLACK
6
CONTINUOUS
10
6.6988335039370082
20
-4.4965977952755907
11
6.6772440157480313
21
-4.5380708661417319
0
LINE
8
BLACK
6
CONTINUOUS
10
6.6772440157480313
20
-4.5380708661417319
11
6.6970874015748034
21
-4.5380708661417319
0
LINE
8
BLACK
6
CONTINUOUS
10
6.6970874015748034
20
-4.5380708661417319
11
6.6984793307086612
21
-4.5386474409448816
0
LINE
8
BLACK
6
CONTINUOUS
10
6.6984793307086612
20
-4.5386474409448816
11
6.6990559055118108
21
-4.5400393700787403
0
LINE
8
BLACK
6
CONTINUOUS
10
6.6990559055118108
20
-4.5400393700787403
11
6.6984793307086612
21
-4.541431299212598
0
LINE
8
BLACK
6
CONTINUOUS
10
6.6984793307086612
20
-4.541431299212598
11
6.6970874015748034
21
-4.5420078740157477
0
LINE
8
BLACK
6
CONTINUOUS
10
6.6970874015748034
20
-4.5420078740157477
11
6.6739999999999995
21
-4.5420078740157477
0
LINE
8
BLACK
6
CONTINUOUS
10
6.6739999999999995
20
-4.5420078740157477
11
6.5391338582677161
21
-4.5420078740157477
0
LINE
8
BLACK
6
CONTINUOUS
10
6.5391338582677161
20
-4.5420078740157477
11
6.5377419291338583
21
-4.541431299212598
0
LINE
8
BLACK
6
CONTINUOUS
10
6.5377419291338583
20
-4.541431299212598
11
6.5371653543307087
21
-4.5400393700787403
0
LINE
8
BLACK
6
CONTINUOUS
10
6.5371653543307087
20
-4.5400393700787403
11
6.5377419291338583
21
-4.5386474409448816
0
LINE
8
BLACK
6
CONTINUOUS
10
6.5377419291338583
20
-4.5386474409448816
11
6.5391338582677161
21
-4.5380708661417319
0
LINE
8
BLACK
6
CONTINUOUS
10
6.5391338582677161
20
-4.5380708661417319
11
6.6707559842519686
21
-4.5380708661417319
0
LINE
8
BLACK
6
CONTINUOUS
10
6.6707559842519686
20
-4.5380708661417319
11
6.649166456692913
21
-4.4965977559055119
0
LINE
8
BLACK
6
CONTINUOUS
10
6.649166456692913
20
-4.4965977559055119
11
6.6490351968503933
21
-4.4950968897637793
0
LINE
8
BLACK
6
CONTINUOUS
10
6.6490351968503933
20
-4.4950968897637793
11
6.6500036220472438
21
-4.4939427165354333
0
LINE
8
BLACK
6
CONTINUOUS
10
6.6500036220472438
20
-4.4939427165354333
11
6.6515044881889764
21
-4.4938114566929137
0
LINE
8
BLACK
6
CONTINUOUS
10
6.6515044881889764
20
-4.4938114566929137
11
6.6526586614173224
21
-4.4947798818897633
0
LINE
8
BLACK
6
CONTINUOUS
10
6.6526586614173224
20
-4.4947798818897633
11
6.6720314960629921
21
-4.5319947637795277
0
LINE
8
BLACK
6
CONTINUOUS
10
6.6720314960629921
20
-4.5319947637795277
11
6.6720314960629921
21
-3.3669815748031495
0
LINE
8
BLACK
6
CONTINUOUS
10
6.6720314960629921
20
-3.3669815748031495
11
6.6526586614173224
21
-3.4041964960629922
0
LINE
8
BLACK
6
CONTINUOUS
10
6.6526586614173224
20
-3.4041964960629922
11
6.6515044881889764
21
-3.4051649212598423
0
LINE
8
BLACK
6
CONTINUOUS
10
6.6515044881889764
20
-3.4051649212598423
11
6.6500036220472438
21
-3.4050336614173227
0
LINE
8
BLACK
6
CONTINUOUS
10
6.6500036220472438
20
-3.4050336614173227
11
6.6490351968503933
21
-3.4038794881889762
0
LINE
8
BLACK
6
CONTINUOUS
10
6.6490351968503933
20
-3.4038794881889762
11
6.649166456692913
21
-3.4023786220472441
0
LINE
8
BLACK
6
CONTINUOUS
10
6.649166456692913
20
-3.4023786220472441
11
6.6707559842519686
21
-3.3609055118110236
0
LINE
8
BLACK
6
CONTINUOUS
10
6.6707559842519686
20
-3.3609055118110236
11
6.5391338582677161
21
-3.3609055118110236
0
LINE
8
BLACK
6
CONTINUOUS
10
6.5391338582677161
20
-3.3609055118110236
11
6.5377419291338583
21
-3.3603289370078739
0
LINE
8
BLACK
6
CONTINUOUS
10
6.5377419291338583
20
-3.3603289370078739
11
6.5371653543307087
21
-3.3589370078740157
0
LINE
8
BLACK
6
CONTINUOUS
10
6.5371653543307087
20
-3.3589370078740157
11
6.5377419291338583
21
-3.3575450787401575
0
LINE
8
BLACK
6
CONTINUOUS
10
6.5377419291338583
20
-3.3575450787401575
11
6.5391338582677161
21
-3.3569685039370079
0
LINE
8
BLACK
6
CONTINUOUS
10
6.5391338582677161
20
-3.3569685039370079
11
6.6970874015748034
21
-3.3569685039370079
0
LINE
8
BLACK
6
CONTINUOUS
10
6.6970874015748034
20
-3.3569685039370079
11
6.6984793307086612
21
-3.3575450787401575
0
LINE
8
BLACK
6
CONTINUOUS
10
6.6401414960629923
20
-4.1060685433070869
11
6.6402767322834642
21
-4.1061820078740157
0
LINE
8
BLACK
6
CONTINUOUS
10
6.6402767322834642
20
-4.1061820078740157
11
6.6404520866141734
21
-4.1062022047244096
0
LINE
8
BLACK
6
CONTINUOUS
10
6.6404520866141734
20
-4.1062022047244096
11
6.6442016141732285
21
-4.1080769685039371
0
LINE
8
BLACK
6
CONTINUOUS
10
6.6442016141732285
20
-4.1080769685039371
11
6.6449105905511807
21
-4.1086027952755906
0
LINE
8
BLACK
6
CONTINUOUS
10
6.6449105905511807
20
-4.1086027952755906
11
6.6449689763779523
21
-4.1086300393700785
0
LINE
8
BLACK
6
CONTINUOUS
10
6.6449689763779523
20
-4.1086300393700785
11
6.6468437795275586
21
-4.1105048031496061
0
LINE
8
BLACK
6
CONTINUOUS
10
6.6468437795275586
20
-4.1105048031496061
11
6.6473501574803144
21
-4.1112279527559057
0
LINE
8
BLACK
6
CONTINUOUS
10
6.6473501574803144
20
-4.1112279527559057
11
6.6473969291338584
21
-4.1112722440944882
0
LINE
8
BLACK
6
CONTINUOUS
10
6.6473969291338584
20
-4.1112722440944882
11
6.6492716929133859
21
-4.1150217716535433
0
LINE
8
BLACK
6
CONTINUOUS
10
6.6492716929133859
20
-4.1150217716535433
11
6.6495640551181099
21
-4.1160046850393703
0
LINE
8
BLACK
6
CONTINUOUS
10
6.6495640551181099
20
-4.1160046850393703
11
6.6495230314960629
21
-4.1161763779527556
0
LINE
8
BLACK
6
CONTINUOUS
10
6.6495230314960629
20
-4.1161763779527556
11
6.64958342519685
21
-4.1163422834645669
0
LINE
8
BLACK
6
CONTINUOUS
10
6.64958342519685
20
-4.1163422834645669
11
6.64958342519685
21
-4.1275908661417322
0
LINE
8
BLACK
6
CONTINUOUS
10
6.64958342519685
20
-4.1275908661417322
11
6.6494053543307086
21
-4.1286007874015747
0
LINE
8
BLACK
6
CONTINUOUS
10
6.6494053543307086
20
-4.1286007874015747
11
6.6492918503937011
21
-4.1287360236220474
0
LINE
8
BLACK
6
CONTINUOUS
10
6.6492918503937011
20
-4.1287360236220474
11
6.6492716929133859
21
-4.1289113779527558
0
LINE
8
BLACK
6
CONTINUOUS
10
6.6492716929133859
20
-4.1289113779527558
11
6.6473969291338584
21
-4.1326609055118109
0
LINE
8
BLACK
6
CONTINUOUS
10
6.6473969291338584
20
-4.1326609055118109
11
6.6468709448818899
21
-4.1333700000000002
0
LINE
8
BLACK
6
CONTINUOUS
10
6.6468709448818899
20
-4.1333700000000002
11
6.6468437795275586
21
-4.133428346456693
0
LINE
8
BLACK
6
CONTINUOUS
10
6.6468437795275586
20
-4.133428346456693
11
6.6449689763779523
21
-4.1353031102362205
0
LINE
8
BLACK
6
CONTINUOUS
10
6.6449689763779523
20
-4.1353031102362205
11
6.6441289370078742
21
-4.1358912992125987
0
LINE
8
BLACK
6
CONTINUOUS
10
6.6441289370078742
20
-4.1358912992125987
11
6.6421168503937009
21
-4.1360672834645671
0
LINE
8
BLACK
6
CONTINUOUS
10
6.6421168503937009
20
-4.1360672834645671
11
6.6404623228346455
21
-4.1349087795275592
0
LINE
8
BLACK
6
CONTINUOUS
10
6.6404623228346455
20
-4.1349087795275592
11
6.6399396062992126
21
-4.1329577952755905
0
LINE
8
BLACK
6
CONTINUOUS
10
6.6399396062992126
20
-4.1329577952755905
11
6.6407932283464568
21
-4.1311272047244092
0
LINE
8
BLACK
6
CONTINUOUS
10
6.6407932283464568
20
-4.1311272047244092
11
6.6423291732283465
21
-4.1295912598425195
0
LINE
8
BLACK
6
CONTINUOUS
10
6.6423291732283465
20
-4.1295912598425195
11
6.6436779133858268
21
-4.1268938188976376
0
LINE
8
BLACK
6
CONTINUOUS
10
6.6436779133858268
20
-4.1268938188976376
11
6.6436779133858268
21
-4.1170393307086615
0
LINE
8
BLACK
6
CONTINUOUS
10
6.6436779133858268
20
-4.1170393307086615
11
6.6423291732283465
21
-4.1143418503937008
0
LINE
8
BLACK
6
CONTINUOUS
10
6.6423291732283465
20
-4.1143418503937008
11
6.6411320078740159
21
-4.113144724409449
0
LINE
8
BLACK
6
CONTINUOUS
10
6.6411320078740159
20
-4.113144724409449
11
6.6384345275590553
21
-4.1117959842519687
0
LINE
8
BLACK
6
CONTINUOUS
10
6.6384345275590553
20
-4.1117959842519687
11
6.6304548031496058
21
-4.1117959842519687
0
LINE
8
BLACK
6
CONTINUOUS
10
6.6304548031496058
20
-4.1117959842519687
11
6.6277573228346451
21
-4.113144724409449
0
LINE
8
BLACK
6
CONTINUOUS
10
6.6277573228346451
20
-4.113144724409449
11
6.6265601968503933
21
-4.1143418503937008
0
LINE
8
BLACK
6
CONTINUOUS
10
6.6265601968503933
20
-4.1143418503937008
11
6.625211456692913
21
-4.1170393307086615
0
LINE
8
BLACK
6
CONTINUOUS
10
6.625211456692913
20
-4.1170393307086615
11
6.625211456692913
21
-4.1219665748031495
0
LINE
8
BLACK
6
CONTINUOUS
10
6.625211456692913
20
-4.1219665748031495
11
6.6251343307086614
21
-4.1224038976377955
0
LINE
8
BLACK
6
CONTINUOUS
10
6.6251343307086614
20
-4.1224038976377955
11
6.6251553543307082
21
-4.1225394094488186
0
LINE
8
BLACK
6
CONTINUOUS
10
6.6251553543307082
20
-4.1225394094488186
11
6.6250919685039369
21
-4.1226440551181103
0
LINE
8
BLACK
6
CONTINUOUS
10
6.6250919685039369
20
-4.1226440551181103
11
6.6250333858267716
21
-4.122976496062992
0
LINE
8
BLACK
6
CONTINUOUS
10
6.6250333858267716
20
-4.122976496062992
11
6.6245216929133859
21
-4.1235862598425195
0
LINE
8
BLACK
6
CONTINUOUS
10
6.6245216929133859
20
-4.1235862598425195
11
6.6241094881889762
21
-4.1242673228346458
0
LINE
8
BLACK
6
CONTINUOUS
10
6.6241094881889762
20
-4.1242673228346458
11
6.6238864566929134
21
-4.1243432677165357
0
LINE
8
BLACK
6
CONTINUOUS
10
6.6238864566929134
20
-4.1243432677165357
11
6.6237350787401574
21
-4.1245237401574801
0
LINE
8
BLACK
6
CONTINUOUS
10
6.6237350787401574
20
-4.1245237401574801
11
6.6229511023622045
21
-4.1246619685039372
0
LINE
8
BLACK
6
CONTINUOUS
10
6.6229511023622045
20
-4.1246619685039372
11
6.6221975984251964
21
-4.1249187007874015
0
LINE
8
BLACK
6
CONTINUOUS
10
6.6221975984251964
20
-4.1249187007874015
11
6.6219779527559055
21
-4.1248335433070862
0
LINE
8
BLACK
6
CONTINUOUS
10
6.6219779527559055
20
-4.1248335433070862
11
6.6217459448818898
21
-4.1248744881889765
0
LINE
8
BLACK
6
CONTINUOUS
10
6.6217459448818898
20
-4.1248744881889765
11
6.6210564566929131
21
-4.1244763779527558
0
LINE
8
BLACK
6
CONTINUOUS
10
6.6210564566929131
20
-4.1244763779527558
11
6.6203142913385822
21
-4.1241887401574804
0
LINE
8
BLACK
6
CONTINUOUS
10
6.6203142913385822
20
-4.1241887401574804
11
6.6102133464566926
21
-4.1153503937007869
0
LINE
8
BLACK
6
CONTINUOUS
10
6.6102133464566926
20
-4.1153503937007869
11
6.6102133464566926
21
-4.1332151574803149
0
LINE
8
BLACK
6
CONTINUOUS
10
6.6102133464566926
20
-4.1332151574803149
11
6.6100352755905512
21
-4.1342250787401573
0
LINE
8
BLACK
6
CONTINUOUS
10
6.6100352755905512
20
-4.1342250787401573
11
6.608736968503937
21
-4.1357723228346455
0
LINE
8
BLACK
6
CONTINUOUS
10
6.608736968503937
20
-4.1357723228346455
11
6.6067478346456694
21
-4.1361230708661418
0
LINE
8
BLACK
6
CONTINUOUS
10
6.6067478346456694
20
-4.1361230708661418
11
6.6049986614173228
21
-4.1351131496062994
0
LINE
8
BLACK
6
CONTINUOUS
10
6.6049986614173228
20
-4.1351131496062994
11
6.6043078346456694
21
-4.1332151574803149
0
LINE
8
BLACK
6
CONTINUOUS
10
6.6043078346456694
20
-4.1332151574803149
11
6.6043078346456694
21
-4.1088432283464567
0
LINE
8
BLACK
6
CONTINUOUS
10
6.6043078346456694
20
-4.1088432283464567
11
6.6043849212598422
21
-4.108405866141732
0
LINE
8
BLACK
6
CONTINUOUS
10
6.6043849212598422
20
-4.108405866141732
11
6.6043639370078742
21
-4.1082703937007876
0
LINE
8
BLACK
6
CONTINUOUS
10
6.6043639370078742
20
-4.1082703937007876
11
6.6044272834645668
21
-4.1081657086614172
0
LINE
8
BLACK
6
CONTINUOUS
10
6.6044272834645668
20
-4.1081657086614172
11
6.6044859055118108
21
-4.1078333070866142
0
LINE
8
BLACK
6
CONTINUOUS
10
6.6044859055118108
20
-4.1078333070866142
11
6.6049975590551178
21
-4.107223503937008
0
LINE
8
BLACK
6
CONTINUOUS
10
6.6049975590551178
20
-4.107223503937008
11
6.6054098031496062
21
-4.1065424803149604
0
LINE
8
BLACK
6
CONTINUOUS
10
6.6054098031496062
20
-4.1065424803149604
11
6.6056327952755902
21
-4.1064664960629917
0
LINE
8
BLACK
6
CONTINUOUS
10
6.6056327952755902
20
-4.1064664960629917
11
6.605784212598425
21
-4.1062860629921261
0
LINE
8
BLACK
6
CONTINUOUS
10
6.605784212598425
20
-4.1062860629921261
11
6.6065681496062991
21
-4.1061477952755903
0
LINE
8
BLACK
6
CONTINUOUS
10
6.6065681496062991
20
-4.1061477952755903
11
6.607321692913386
21
-4.1058911023622047
0
LINE
8
BLACK
6
CONTINUOUS
10
6.607321692913386
20
-4.1058911023622047
11
6.6075412992125981
21
-4.1059762204724413
0
LINE
8
BLACK
6
CONTINUOUS
10
6.6075412992125981
20
-4.1059762204724413
11
6.6077733464566926
21
-4.1059353149606297
0
LINE
8
BLACK
6
CONTINUOUS
10
6.6077733464566926
20
-4.1059353149606297
11
6.6084627952755906
21
-4.1063333858267717
0
LINE
8
BLACK
6
CONTINUOUS
10
6.6084627952755906
20
-4.1063333858267717
11
6.6092050000000002
21
-4.1066210629921258
0
LINE
8
BLACK
6
CONTINUOUS
10
6.6092050000000002
20
-4.1066210629921258
11
6.619440787401575
21
-4.115577362204724
0
LINE
8
BLACK
6
CONTINUOUS
10
6.619440787401575
20
-4.115577362204724
11
6.6194840157480312
21
-4.1153323622047244
0
LINE
8
BLACK
6
CONTINUOUS
10
6.6194840157480312
20
-4.1153323622047244
11
6.6195974803149609
21
-4.1151970866141729
0
LINE
8
BLACK
6
CONTINUOUS
10
6.6195974803149609
20
-4.1151970866141729
11
6.6196176771653539
21
-4.1150217716535433
0
LINE
8
BLACK
6
CONTINUOUS
10
6.6196176771653539
20
-4.1150217716535433
11
6.6214924409448814
21
-4.1112722440944882
0
LINE
8
BLACK
6
CONTINUOUS
10
6.6214924409448814
20
-4.1112722440944882
11
6.6220183464566924
21
-4.1105631496062989
0
LINE
8
BLACK
6
CONTINUOUS
10
6.6220183464566924
20
-4.1105631496062989
11
6.6220455511811025
21
-4.1105048425196848
0
LINE
8
BLACK
6
CONTINUOUS
10
6.6220455511811025
20
-4.1105048425196848
11
6.6239203149606301
21
-4.1086300787401573
0
LINE
8
BLACK
6
CONTINUOUS
10
6.6239203149606301
20
-4.1086300787401573
11
6.6246433858267713
21
-4.1081237795275589
0
LINE
8
BLACK
6
CONTINUOUS
10
6.6246433858267713
20
-4.1081237795275589
11
6.6246877165354325
21
-4.1080769685039371
0
LINE
8
BLACK
6
CONTINUOUS
10
6.6246877165354325
20
-4.1080769685039371
11
6.6284372440944876
21
-4.1062022047244096
0
LINE
8
BLACK
6
CONTINUOUS
10
6.6284372440944876
20
-4.1062022047244096
11
6.6294201574803147
21
-4.1059098425196847
0
LINE
8
BLACK
6
CONTINUOUS
10
6.6294201574803147
20
-4.1059098425196847
11
6.6295918503937008
21
-4.1059508267716538
0
LINE
8
BLACK
6
CONTINUOUS
10
6.6295918503937008
20
-4.1059508267716538
11
6.6297577559055121
21
-4.1058904724409446
0
LINE
8
BLACK
6
CONTINUOUS
10
6.6297577559055121
20
-4.1058904724409446
11
6.6391315748031499
21
-4.1058904724409446
0
LINE
8
BLACK
6
CONTINUOUS
10
6.6391315748031499
20
-4.1058904724409446
11
6.6401414960629923
21
-4.1060685433070869
0
LINE
8
BLACK
6
CONTINUOUS
10
6.6322128740157478
20
-4.0684974803149609
11
6.632348661417323
21
-4.0684833070866144
0
LINE
8
BLACK
6
CONTINUOUS
10
6.632348661417323
20
-4.0684833070866144
11
6.6398477165354333
21
-4.070358070866142
0
LINE
8
BLACK
6
CONTINUOUS
10
6.6398477165354333
20
-4.070358070866142
11
6.6403131496062988
21
-4.0705656299212594
0
LINE
8
BLACK
6
CONTINUOUS
10
6.6403131496062988
20
-4.0705656299212594
11
6.6404520866141734
21
-4.0705816535433073
0
LINE
8
BLACK
6
CONTINUOUS
10
6.6404520866141734
20
-4.0705816535433073
11
6.6442016141732285
21
-4.0724564173228348
0
LINE
8
BLACK
6
CONTINUOUS
10
6.6442016141732285
20
-4.0724564173228348
11
6.6449105905511807
21
-4.0729822440944883
0
LINE
8
BLACK
6
CONTINUOUS
10
6.6449105905511807
20
-4.0729822440944883
11
6.6449689763779523
21
-4.0730094881889762
0
LINE
8
BLACK
6
CONTINUOUS
10
6.6449689763779523
20
-4.0730094881889762
11
6.6468437795275586
21
-4.0748842519685038
0
LINE
8
BLACK
6
CONTINUOUS
10
6.6468437795275586
20
-4.0748842519685038
11
6.6473501574803144
21
-4.0756074015748034
0
LINE
8
BLACK
6
CONTINUOUS
10
6.6473501574803144
20
-4.0756074015748034
11
6.6473969291338584
21
-4.0756516929133859
0
LINE
8
BLACK
6
CONTINUOUS
10
6.6473969291338584
20
-4.0756516929133859
11
6.6492716929133859
21
-4.079401220472441
0
LINE
8
BLACK
6
CONTINUOUS
10
6.6492716929133859
20
-4.079401220472441
11
6.6495640551181099
21
-4.080384133858268
0
LINE
8
BLACK
6
CONTINUOUS
10
6.6495640551181099
20
-4.080384133858268
11
6.6495230314960629
21
-4.0805558267716533
0
LINE
8
BLACK
6
CONTINUOUS
10
6.6495230314960629
20
-4.0805558267716533
11
6.64958342519685
21
-4.0807217322834646
0
LINE
8
BLACK
6
CONTINUOUS
10
6.64958342519685
20
-4.0807217322834646
11
6.64958342519685
21
-4.0844712598425197
0
LINE
8
BLACK
6
CONTINUOUS
10
6.64958342519685
20
-4.0844712598425197
11
6.6494053543307086
21
-4.0854811811023621
0
LINE
8
BLACK
6
CONTINUOUS
10
6.6494053543307086
20
-4.0854811811023621
11
6.6492918503937011
21
-4.0856164173228349
0
LINE
8
BLACK
6
CONTINUOUS
10
6.6492918503937011
20
-4.0856164173228349
11
6.6492716929133859
21
-4.0857917716535432
0
LINE
8
BLACK
6
CONTINUOUS
10
6.6492716929133859
20
-4.0857917716535432
11
6.6473969291338584
21
-4.0895412992125983
0
LINE
8
BLACK
6
CONTINUOUS
10
6.6473969291338584
20
-4.0895412992125983
11
6.6468709448818899
21
-4.0902503937007877
0
LINE
8
BLACK
6
CONTINUOUS
10
6.6468709448818899
20
-4.0902503937007877
11
6.6468437795275586
21
-4.0903087401574805
0
LINE
8
BLACK
6
CONTINUOUS
10
6.6468437795275586
20
-4.0903087401574805
11
6.6449689763779523
21
-4.092183503937008
0
LINE
8
BLACK
6
CONTINUOUS
10
6.6449689763779523
20
-4.092183503937008
11
6.644245905511811
21
-4.0926897637795276
0
LINE
8
BLACK
6
CONTINUOUS
10
6.644245905511811
20
-4.0926897637795276
11
6.6442016141732285
21
-4.0927365748031495
0
LINE
8
BLACK
6
CONTINUOUS
10
6.6442016141732285
20
-4.0927365748031495
11
6.6404520866141734
21
-4.094611338582677
0
LINE
8
BLACK
6
CONTINUOUS
10
6.6404520866141734
20
-4.094611338582677
11
6.6399636220472438
21
-4.0947566141732281
0
LINE
8
BLACK
6
CONTINUOUS
10
6.6399636220472438
20
-4.0947566141732281
11
6.6398477165354333
21
-4.0948349212598423
0
LINE
8
BLACK
6
CONTINUOUS
10
6.6398477165354333
20
-4.0948349212598423
11
6.632348661417323
21
-4.0967096850393698
0
LINE
8
BLACK
6
CONTINUOUS
10
6.632348661417323
20
-4.0967096850393698
11
6.6317607480314962
21
-4.0967511417322831
0
LINE
8
BLACK
6
CONTINUOUS
10
6.6317607480314962
20
-4.0967511417322831
11
6.6316325196850396
21
-4.0967978346456695
0
LINE
8
BLACK
6
CONTINUOUS
10
6.6316325196850396
20
-4.0967978346456695
11
6.6222587007874019
21
-4.0967978346456695
0
LINE
8
BLACK
6
CONTINUOUS
10
6.6222587007874019
20
-4.0967978346456695
11
6.6216783070866141
21
-4.0966954724409446
0
LINE
8
BLACK
6
CONTINUOUS
10
6.6216783070866141
20
-4.0966954724409446
11
6.6215425590551176
21
-4.0967096850393698
0
LINE
8
BLACK
6
CONTINUOUS
10
6.6215425590551176
20
-4.0967096850393698
11
6.6140435039370074
21
-4.0948349212598423
0
LINE
8
BLACK
6
CONTINUOUS
10
6.6140435039370074
20
-4.0948349212598423
11
6.613578031496063
21
-4.0946273228346453
0
LINE
8
BLACK
6
CONTINUOUS
10
6.613578031496063
20
-4.0946273228346453
11
6.6134391338582672
21
-4.094611338582677
0
LINE
8
BLACK
6
CONTINUOUS
10
6.6134391338582672
20
-4.094611338582677
11
6.6096896062992121
21
-4.0927365748031495
0
LINE
8
BLACK
6
CONTINUOUS
10
6.6096896062992121
20
-4.0927365748031495
11
6.6089805118110236
21
-4.0922106692913385
0
LINE
8
BLACK
6
CONTINUOUS
10
6.6089805118110236
20
-4.0922106692913385
11
6.6089222047244096
21
-4.0921834645669293
0
LINE
8
BLACK
6
CONTINUOUS
10
6.6089222047244096
20
-4.0921834645669293
11
6.6070474409448821
21
-4.0903087007874017
0
LINE
8
BLACK
6
CONTINUOUS
10
6.6070474409448821
20
-4.0903087007874017
11
6.6065411417322837
21
-4.0895855905511809
0
LINE
8
BLACK
6
CONTINUOUS
10
6.6065411417322837
20
-4.0895855905511809
11
6.606494330708661
21
-4.0895412992125983
0
LINE
8
BLACK
6
CONTINUOUS
10
6.606494330708661
20
-4.0895412992125983
11
6.6046195669291334
21
-4.0857917716535432
0
LINE
8
BLACK
6
CONTINUOUS
10
6.6046195669291334
20
-4.0857917716535432
11
6.6043272047244095
21
-4.0848088188976375
0
LINE
8
BLACK
6
CONTINUOUS
10
6.6043272047244095
20
-4.0848088188976375
11
6.6043681889763777
21
-4.0846371259842522
0
LINE
8
BLACK
6
CONTINUOUS
10
6.6043681889763777
20
-4.0846371259842522
11
6.6043078346456694
21
-4.0844712598425197
0
LINE
8
BLACK
6
CONTINUOUS
10
6.6043078346456694
20
-4.0844712598425197
11
6.6043078346456694
21
-4.0807217322834646
0
LINE
8
BLACK
6
CONTINUOUS
10
6.6043078346456694
20
-4.0807217322834646
11
6.6044859055118108
21
-4.0797118110236221
0
LINE
8
BLACK
6
CONTINUOUS
10
6.6044859055118108
20
-4.0797118110236221
11
6.6045993700787404
21
-4.0795765354330706
0
LINE
8
BLACK
6
CONTINUOUS
10
6.6045993700787404
20
-4.0795765354330706
11
6.6046195669291334
21
-4.079401220472441
0
LINE
8
BLACK
6
CONTINUOUS
10
6.6046195669291334
20
-4.079401220472441
11
6.606494330708661
21
-4.0756516929133859
0
LINE
8
BLACK
6
CONTINUOUS
10
6.606494330708661
20
-4.0756516929133859
11
6.607020236220472
21
-4.0749425984251966
0
LINE
8
BLACK
6
CONTINUOUS
10
6.607020236220472
20
-4.0749425984251966
11
6.6070474409448821
21
-4.0748842913385825
0
LINE
8
BLACK
6
CONTINUOUS
10
6.6070474409448821
20
-4.0748842913385825
11
6.6089222047244096
21
-4.073009527559055
0
LINE
8
BLACK
6
CONTINUOUS
10
6.6089222047244096
20
-4.073009527559055
11
6.6096452755905508
21
-4.0725032283464566
0
LINE
8
BLACK
6
CONTINUOUS
10
6.6096452755905508
20
-4.0725032283464566
11
6.6096896062992121
21
-4.0724564173228348
0
LINE
8
BLACK
6
CONTINUOUS
10
6.6096896062992121
20
-4.0724564173228348
11
6.6134391338582672
21
-4.0705816535433073
0
LINE
8
BLACK
6
CONTINUOUS
10
6.6134391338582672
20
-4.0705816535433073
11
6.6139275590551181
21
-4.0704363385826774
0
LINE
8
BLACK
6
CONTINUOUS
10
6.6139275590551181
20
-4.0704363385826774
11
6.6140435039370074
21
-4.070358070866142
0
LINE
8
BLACK
6
CONTINUOUS
10
6.6140435039370074
20
-4.070358070866142
11
6.6215425590551176
21
-4.0684833070866144
0
LINE
8
BLACK
6
CONTINUOUS
10
6.6215425590551176
20
-4.0684833070866144
11
6.6221304330708657
21
-4.0684418110236216
0
LINE
8
BLACK
6
CONTINUOUS
10
6.6221304330708657
20
-4.0684418110236216
11
6.6222587007874019
21
-4.0683951574803148
0
LINE
8
BLACK
6
CONTINUOUS
10
6.6222587007874019
20
-4.0683951574803148
11
6.6316325196850396
21
-4.0683951574803148
0
LINE
8
BLACK
6
CONTINUOUS
10
6.6316325196850396
20
-4.0683951574803148
11
6.6322128740157478
21
-4.0684974803149609
0
LINE
8
BLACK
6
CONTINUOUS
10
6.6157901968503934
20
-4.0760086614173225
11
6.6127592125984247
21
-4.0775241732283467
0
LINE
8
BLACK
6
CONTINUOUS
10
6.6127592125984247
20
-4.0775241732283467
11
6.6115620866141729
21
-4.0787212992125985
0
LINE
8
BLACK
6
CONTINUOUS
10
6.6115620866141729
20
-4.0787212992125985
11
6.6102133464566926
21
-4.0814187795275592
0
LINE
8
BLACK
6
CONTINUOUS
10
6.6102133464566926
20
-4.0814187795275592
11
6.6102133464566926
21
-4.0837742125984251
0
LINE
8
BLACK
6
CONTINUOUS
10
6.6102133464566926
20
-4.0837742125984251
11
6.6115620866141729
21
-4.0864716929133857
0
LINE
8
BLACK
6
CONTINUOUS
10
6.6115620866141729
20
-4.0864716929133857
11
6.6127592125984247
21
-4.0876688188976376
0
LINE
8
BLACK
6
CONTINUOUS
10
6.6127592125984247
20
-4.0876688188976376
11
6.6157901968503934
21
-4.089184291338583
0
LINE
8
BLACK
6
CONTINUOUS
10
6.6157901968503934
20
-4.089184291338583
11
6.6226222440944884
21
-4.0908923228346454
0
LINE
8
BLACK
6
CONTINUOUS
10
6.6226222440944884
20
-4.0908923228346454
11
6.6312689763779522
21
-4.0908923228346454
0
LINE
8
BLACK
6
CONTINUOUS
10
6.6312689763779522
20
-4.0908923228346454
11
6.6381010236220472
21
-4.089184291338583
0
LINE
8
BLACK
6
CONTINUOUS
10
6.6381010236220472
20
-4.089184291338583
11
6.6411320078740159
21
-4.0876687795275588
0
LINE
8
BLACK
6
CONTINUOUS
10
6.6411320078740159
20
-4.0876687795275588
11
6.6423291732283465
21
-4.086471653543307
0
LINE
8
BLACK
6
CONTINUOUS
10
6.6423291732283465
20
-4.086471653543307
11
6.6436779133858268
21
-4.0837742125984251
0
LINE
8
BLACK
6
CONTINUOUS
10
6.6436779133858268
20
-4.0837742125984251
11
6.6436779133858268
21
-4.0814187795275592
0
LINE
8
BLACK
6
CONTINUOUS
10
6.6436779133858268
20
-4.0814187795275592
11
6.6423291732283465
21
-4.0787212992125985
0
LINE
8
BLACK
6
CONTINUOUS
10
6.6423291732283465
20
-4.0787212992125985
11
6.6411320078740159
21
-4.0775241732283467
0
LINE
8
BLACK
6
CONTINUOUS
10
6.6411320078740159
20
-4.0775241732283467
11
6.6381010236220472
21
-4.0760086614173225
0
LINE
8
BLACK
6
CONTINUOUS
10
6.6381010236220472
20
-4.0760086614173225
11
6.6312689763779522
21
-4.0743006692913388
0
LINE
8
BLACK
6
CONTINUOUS
10
6.6312689763779522
20
-4.0743006692913388
11
6.6226222440944884
21
-4.0743006692913388
0
LINE
8
BLACK
6
CONTINUOUS
10
6.6226222440944884
20
-4.0743006692913388
11
6.6157901968503934
21
-4.0760086614173225
0
LINE
8
BLACK
6
CONTINUOUS
10
6.6452546850393697
20
-4.0497712992125985
11
6.6455201574803144
21
-4.0497481102362203
0
LINE
8
BLACK
6
CONTINUOUS
10
6.6455201574803144
20
-4.0497481102362203
11
6.6461485826771654
21
-4.0501881496062992
0
LINE
8
BLACK
6
CONTINUOUS
10
6.6461485826771654
20
-4.0501881496062992
11
6.6468438188976373
21
-4.0505123228346456
0
LINE
8
BLACK
6
CONTINUOUS
10
6.6468438188976373
20
-4.0505123228346456
11
6.6487185826771649
21
-4.0523870866141731
0
LINE
8
BLACK
6
CONTINUOUS
10
6.6487185826771649
20
-4.0523870866141731
11
6.6489419685039373
21
-4.0527061023622046
0
LINE
8
BLACK
6
CONTINUOUS
10
6.6489419685039373
20
-4.0527061023622046
11
6.6490494488188974
21
-4.0527813779527557
0
LINE
8
BLACK
6
CONTINUOUS
10
6.6490494488188974
20
-4.0527813779527557
11
6.6490833858267715
21
-4.0529081102362206
0
LINE
8
BLACK
6
CONTINUOUS
10
6.6490833858267715
20
-4.0529081102362206
11
6.6490882677165351
21
-4.0529150787401571
0
LINE
8
BLACK
6
CONTINUOUS
10
6.6490882677165351
20
-4.0529150787401571
11
6.6491878346456694
21
-4.0529986220472436
0
LINE
8
BLACK
6
CONTINUOUS
10
6.6491878346456694
20
-4.0529986220472436
11
6.6492016535433072
21
-4.0530769685039365
0
LINE
8
BLACK
6
CONTINUOUS
10
6.6492016535433072
20
-4.0530769685039365
11
6.649306771653543
21
-4.0532271259842521
0
LINE
8
BLACK
6
CONTINUOUS
10
6.649306771653543
20
-4.0532271259842521
11
6.6493736220472437
21
-4.0539913385826774
0
LINE
8
BLACK
6
CONTINUOUS
10
6.6493736220472437
20
-4.0539913385826774
11
6.6495721653543303
21
-4.0547323622047244
0
LINE
8
BLACK
6
CONTINUOUS
10
6.6495721653543303
20
-4.0547323622047244
11
6.6495151181102363
21
-4.0548546850393699
0
LINE
8
BLACK
6
CONTINUOUS
10
6.6495151181102363
20
-4.0548546850393699
11
6.6495385826771649
21
-4.0549877559055121
0
LINE
8
BLACK
6
CONTINUOUS
10
6.6495385826771649
20
-4.0549877559055121
11
6.6494710236220467
21
-4.0551047244094489
0
LINE
8
BLACK
6
CONTINUOUS
10
6.6494710236220467
20
-4.0551047244094489
11
6.6494827952755902
21
-4.0552392125984253
0
LINE
8
BLACK
6
CONTINUOUS
10
6.6494827952755902
20
-4.0552392125984253
11
6.6490427952755908
21
-4.0558675984251966
0
LINE
8
BLACK
6
CONTINUOUS
10
6.6490427952755908
20
-4.0558675984251966
11
6.6487185826771649
21
-4.056562913385827
0
LINE
8
BLACK
6
CONTINUOUS
10
6.6487185826771649
20
-4.056562913385827
11
6.6468438188976373
21
-4.0584376771653545
0
LINE
8
BLACK
6
CONTINUOUS
10
6.6468438188976373
20
-4.0584376771653545
11
6.6465248031496058
21
-4.0586610236220473
0
LINE
8
BLACK
6
CONTINUOUS
10
6.6465248031496058
20
-4.0586610236220473
11
6.6464495669291335
21
-4.0587685039370074
0
LINE
8
BLACK
6
CONTINUOUS
10
6.6464495669291335
20
-4.0587685039370074
11
6.6463228346456695
21
-4.0588024409448815
0
LINE
8
BLACK
6
CONTINUOUS
10
6.6463228346456695
20
-4.0588024409448815
11
6.6460037795275593
21
-4.0590258661417318
0
LINE
8
BLACK
6
CONTINUOUS
10
6.6460037795275593
20
-4.0590258661417318
11
6.6452394488188977
21
-4.0590927165354334
0
LINE
8
BLACK
6
CONTINUOUS
10
6.6452394488188977
20
-4.0590927165354334
11
6.6444985826771656
21
-4.0592912598425199
0
LINE
8
BLACK
6
CONTINUOUS
10
6.6444985826771656
20
-4.0592912598425199
11
6.6442571653543308
21
-4.0591786614173229
0
LINE
8
BLACK
6
CONTINUOUS
10
6.6442571653543308
20
-4.0591786614173229
11
6.643991692913386
21
-4.0592019291338586
0
LINE
8
BLACK
6
CONTINUOUS
10
6.643991692913386
20
-4.0592019291338586
11
6.6433631496062988
21
-4.0587618110236221
0
LINE
8
BLACK
6
CONTINUOUS
10
6.6433631496062988
20
-4.0587618110236221
11
6.6426679921259844
21
-4.0584376771653545
0
LINE
8
BLACK
6
CONTINUOUS
10
6.6426679921259844
20
-4.0584376771653545
11
6.6407932283464568
21
-4.0565629527559057
0
LINE
8
BLACK
6
CONTINUOUS
10
6.6407932283464568
20
-4.0565629527559057
11
6.6405697637795278
21
-4.0562438582677167
0
LINE
8
BLACK
6
CONTINUOUS
10
6.6405697637795278
20
-4.0562438582677167
11
6.6404623228346455
21
-4.0561686220472444
0
LINE
8
BLACK
6
CONTINUOUS
10
6.6404623228346455
20
-4.0561686220472444
11
6.6404283464566927
21
-4.0560418897637796
0
LINE
8
BLACK
6
CONTINUOUS
10
6.6404283464566927
20
-4.0560418897637796
11
6.6404234251968504
21
-4.0560348818897634
0
LINE
8
BLACK
6
CONTINUOUS
10
6.6404234251968504
20
-4.0560348818897634
11
6.6403239370078735
21
-4.0559513779527556
0
LINE
8
BLACK
6
CONTINUOUS
10
6.6403239370078735
20
-4.0559513779527556
11
6.6403101181102357
21
-4.0558730314960627
0
LINE
8
BLACK
6
CONTINUOUS
10
6.6403101181102357
20
-4.0558730314960627
11
6.6402049999999999
21
-4.0557229133858268
0
LINE
8
BLACK
6
CONTINUOUS
10
6.6402049999999999
20
-4.0557229133858268
11
6.6401381102362205
21
-4.0549585433070865
0
LINE
8
BLACK
6
CONTINUOUS
10
6.6401381102362205
20
-4.0549585433070865
11
6.6399396062992126
21
-4.0542176377952757
0
LINE
8
BLACK
6
CONTINUOUS
10
6.6399396062992126
20
-4.0542176377952757
11
6.6399966141732278
21
-4.0540952755905515
0
LINE
8
BLACK
6
CONTINUOUS
10
6.6399966141732278
20
-4.0540952755905515
11
6.639973188976378
21
-4.053962244094488
0
LINE
8
BLACK
6
CONTINUOUS
10
6.639973188976378
20
-4.053962244094488
11
6.6400406692913387
21
-4.0538452755905512
0
LINE
8
BLACK
6
CONTINUOUS
10
6.6400406692913387
20
-4.0538452755905512
11
6.640028937007874
21
-4.0537107874015748
0
LINE
8
BLACK
6
CONTINUOUS
10
6.640028937007874
20
-4.0537107874015748
11
6.6404690551181105
21
-4.053082165354331
0
LINE
8
BLACK
6
CONTINUOUS
10
6.6404690551181105
20
-4.053082165354331
11
6.6407932283464568
21
-4.0523870472440944
0
LINE
8
BLACK
6
CONTINUOUS
10
6.6407932283464568
20
-4.0523870472440944
11
6.6426679921259844
21
-4.0505123228346456
0
LINE
8
BLACK
6
CONTINUOUS
10
6.6426679921259844
20
-4.0505123228346456
11
6.6429870078740159
21
-4.0502888976377953
0
LINE
8
BLACK
6
CONTINUOUS
10
6.6429870078740159
20
-4.0502888976377953
11
6.643062283464567
21
-4.0501814566929131
0
LINE
8
BLACK
6
CONTINUOUS
10
6.643062283464567
20
-4.0501814566929131
11
6.643188976377953
21
-4.0501474803149602
0
LINE
8
BLACK
6
CONTINUOUS
10
6.643188976377953
20
-4.0501474803149602
11
6.6435080708661411
21
-4.0499240944881887
0
LINE
8
BLACK
6
CONTINUOUS
10
6.6435080708661411
20
-4.0499240944881887
11
6.6442723228346452
21
-4.049857244094488
0
LINE
8
BLACK
6
CONTINUOUS
10
6.6442723228346452
20
-4.049857244094488
11
6.6450132283464569
21
-4.0496587401574802
0
LINE
8
BLACK
6
CONTINUOUS
10
6.6450132283464569
20
-4.0496587401574802
11
6.6452546850393697
21
-4.0497712992125985
0
LINE
8
BLACK
6
CONTINUOUS
10
6.6322128740157478
20
-4.0122545275590547
11
6.632348661417323
21
-4.0122403543307081
0
LINE
8
BLACK
6
CONTINUOUS
10
6.632348661417323
20
-4.0122403543307081
11
6.6398477165354333
21
-4.0141151181102357
0
LINE
8
BLACK
6
CONTINUOUS
10
6.6398477165354333
20
-4.0141151181102357
11
6.6403131496062988
21
-4.014322677165354
0
LINE
8
BLACK
6
CONTINUOUS
10
6.6403131496062988
20
-4.014322677165354
11
6.6404520866141734
21
-4.0143387007874018
0
LINE
8
BLACK
6
CONTINUOUS
10
6.6404520866141734
20
-4.0143387007874018
11
6.6442016141732285
21
-4.0162134645669294
0
LINE
8
BLACK
6
CONTINUOUS
10
6.6442016141732285
20
-4.0162134645669294
11
6.6449105905511807
21
-4.0167392913385829
0
LINE
8
BLACK
6
CONTINUOUS
10
6.6449105905511807
20
-4.0167392913385829
11
6.6449689763779523
21
-4.0167665354330708
0
LINE
8
BLACK
6
CONTINUOUS
10
6.6449689763779523
20
-4.0167665354330708
11
6.6468437795275586
21
-4.0186412992125984
0
LINE
8
BLACK
6
CONTINUOUS
10
6.6468437795275586
20
-4.0186412992125984
11
6.6473501574803144
21
-4.019364448818898
0
LINE
8
BLACK
6
CONTINUOUS
10
6.6473501574803144
20
-4.019364448818898
11
6.6473969291338584
21
-4.0194087401574805
0
LINE
8
BLACK
6
CONTINUOUS
10
6.6473969291338584
20
-4.0194087401574805
11
6.6492716929133859
21
-4.0231582677165356
0
LINE
8
BLACK
6
CONTINUOUS
10
6.6492716929133859
20
-4.0231582677165356
11
6.6495640551181099
21
-4.0241411811023617
0
LINE
8
BLACK
6
CONTINUOUS
10
6.6495640551181099
20
-4.0241411811023617
11
6.6495230314960629
21
-4.0243128740157479
0
LINE
8
BLACK
6
CONTINUOUS
10
6.6495230314960629
20
-4.0243128740157479
11
6.64958342519685
21
-4.0244787795275592
0
LINE
8
BLACK
6
CONTINUOUS
10
6.64958342519685
20
-4.0244787795275592
11
6.64958342519685
21
-4.0282283070866143
0
LINE
8
BLACK
6
CONTINUOUS
10
6.64958342519685
20
-4.0282283070866143
11
6.6494053543307086
21
-4.0292382283464567
0
LINE
8
BLACK
6
CONTINUOUS
10
6.6494053543307086
20
-4.0292382283464567
11
6.6492918503937011
21
-4.0293734645669295
0
LINE
8
BLACK
6
CONTINUOUS
10
6.6492918503937011
20
-4.0293734645669295
11
6.6492716929133859
21
-4.0295488188976378
0
LINE
8
BLACK
6
CONTINUOUS
10
6.6492716929133859
20
-4.0295488188976378
11
6.6473969291338584
21
-4.0332983464566929
0
LINE
8
BLACK
6
CONTINUOUS
10
6.6473969291338584
20
-4.0332983464566929
11
6.6468709448818899
21
-4.0340074409448814
0
LINE
8
BLACK
6
CONTINUOUS
10
6.6468709448818899
20
-4.0340074409448814
11
6.6468437795275586
21
-4.0340657874015751
0
LINE
8
BLACK
6
CONTINUOUS
10
6.6468437795275586
20
-4.0340657874015751
11
6.6449689763779523
21
-4.0359405511811026
0
LINE
8
BLACK
6
CONTINUOUS
10
6.6449689763779523
20
-4.0359405511811026
11
6.644245905511811
21
-4.0364468110236222
0
LINE
8
BLACK
6
CONTINUOUS
10
6.644245905511811
20
-4.0364468110236222
11
6.6442016141732285
21
-4.036493622047244
0
LINE
8
BLACK
6
CONTINUOUS
10
6.6442016141732285
20
-4.036493622047244
11
6.6404520866141734
21
-4.0383683858267716
0
LINE
8
BLACK
6
CONTINUOUS
10
6.6404520866141734
20
-4.0383683858267716
11
6.6399636220472438
21
-4.0385136614173227
0
LINE
8
BLACK
6
CONTINUOUS
10
6.6399636220472438
20
-4.0385136614173227
11
6.6398477165354333
21
-4.0385919685039369
0
LINE
8
BLACK
6
CONTINUOUS
10
6.6398477165354333
20
-4.0385919685039369
11
6.632348661417323
21
-4.0404667322834644
0
LINE
8
BLACK
6
CONTINUOUS
10
6.632348661417323
20
-4.0404667322834644
11
6.6317607480314962
21
-4.0405081889763776
0
LINE
8
BLACK
6
CONTINUOUS
10
6.6317607480314962
20
-4.0405081889763776
11
6.6316325196850396
21
-4.0405548818897641
0
LINE
8
BLACK
6
CONTINUOUS
10
6.6316325196850396
20
-4.0405548818897641
11
6.6222587007874019
21
-4.0405548818897641
0
LINE
8
BLACK
6
CONTINUOUS
10
6.6222587007874019
20
-4.0405548818897641
11
6.6216783070866141
21
-4.0404525196850392
0
LINE
8
BLACK
6
CONTINUOUS
10
6.6216783070866141
20
-4.0404525196850392
11
6.6215425590551176
21
-4.0404667322834644
0
LINE
8
BLACK
6
CONTINUOUS
10
6.6215425590551176
20
-4.0404667322834644
11
6.6140435039370074
21
-4.0385919685039369
0
LINE
8
BLACK
6
CONTINUOUS
10
6.6140435039370074
20
-4.0385919685039369
11
6.613578031496063
21
-4.0383843700787398
0
LINE
8
BLACK
6
CONTINUOUS
10
6.613578031496063
20
-4.0383843700787398
11
6.6134391338582672
21
-4.0383683858267716
0
LINE
8
BLACK
6
CONTINUOUS
10
6.6134391338582672
20
-4.0383683858267716
11
6.6096896062992121
21
-4.036493622047244
0
LINE
8
BLACK
6
CONTINUOUS
10
6.6096896062992121
20
-4.036493622047244
11
6.6089805118110236
21
-4.0359677165354331
0
LINE
8
BLACK
6
CONTINUOUS
10
6.6089805118110236
20
-4.0359677165354331
11
6.6089222047244096
21
-4.0359405118110239
0
LINE
8
BLACK
6
CONTINUOUS
10
6.6089222047244096
20
-4.0359405118110239
11
6.6070474409448821
21
-4.0340657480314963
0
LINE
8
BLACK
6
CONTINUOUS
10
6.6070474409448821
20
-4.0340657480314963
11
6.6065411417322837
21
-4.0333426377952755
0
LINE
8
BLACK
6
CONTINUOUS
10
6.6065411417322837
20
-4.0333426377952755
11
6.606494330708661
21
-4.0332983464566929
0
LINE
8
BLACK
6
CONTINUOUS
10
6.606494330708661
20
-4.0332983464566929
11
6.6046195669291334
21
-4.0295488188976378
0
LINE
8
BLACK
6
CONTINUOUS
10
6.6046195669291334
20
-4.0295488188976378
11
6.6043272047244095
21
-4.0285658661417321
0
LINE
8
BLACK
6
CONTINUOUS
10
6.6043272047244095
20
-4.0285658661417321
11
6.6043681889763777
21
-4.0283941732283468
0
LINE
8
BLACK
6
CONTINUOUS
10
6.6043681889763777
20
-4.0283941732283468
11
6.6043078346456694
21
-4.0282283070866143
0
LINE
8
BLACK
6
CONTINUOUS
10
6.6043078346456694
20
-4.0282283070866143
11
6.6043078346456694
21
-4.0244787795275592
0
LINE
8
BLACK
6
CONTINUOUS
10
6.6043078346456694
20
-4.0244787795275592
11
6.6044859055118108
21
-4.0234688582677167
0
LINE
8
BLACK
6
CONTINUOUS
10
6.6044859055118108
20
-4.0234688582677167
11
6.6045993700787404
21
-4.0233335826771652
0
LINE
8
BLACK
6
CONTINUOUS
10
6.6045993700787404
20
-4.0233335826771652
11
6.6046195669291334
21
-4.0231582677165356
0
LINE
8
BLACK
6
CONTINUOUS
10
6.6046195669291334
20
-4.0231582677165356
11
6.606494330708661
21
-4.0194087401574805
0
LINE
8
BLACK
6
CONTINUOUS
10
6.606494330708661
20
-4.0194087401574805
11
6.607020236220472
21
-4.0186996456692912
0
LINE
8
BLACK
6
CONTINUOUS
10
6.607020236220472
20
-4.0186996456692912
11
6.6070474409448821
21
-4.0186413385826771
0
LINE
8
BLACK
6
CONTINUOUS
10
6.6070474409448821
20
-4.0186413385826771
11
6.6089222047244096
21
-4.0167665748031496
0
LINE
8
BLACK
6
CONTINUOUS
10
6.6089222047244096
20
-4.0167665748031496
11
6.6096452755905508
21
-4.0162602755905512
0
LINE
8
BLACK
6
CONTINUOUS
10
6.6096452755905508
20
-4.0162602755905512
11
6.6096896062992121
21
-4.0162134645669294
0
LINE
8
BLACK
6
CONTINUOUS
10
6.6096896062992121
20
-4.0162134645669294
11
6.6134391338582672
21
-4.0143387007874018
0
LINE
8
BLACK
6
CONTINUOUS
10
6.6134391338582672
20
-4.0143387007874018
11
6.6139275590551181
21
-4.014193385826772
0
LINE
8
BLACK
6
CONTINUOUS
10
6.6139275590551181
20
-4.014193385826772
11
6.6140435039370074
21
-4.0141151181102357
0
LINE
8
BLACK
6
CONTINUOUS
10
6.6140435039370074
20
-4.0141151181102357
11
6.6215425590551176
21
-4.0122403543307081
0
LINE
8
BLACK
6
CONTINUOUS
10
6.6215425590551176
20
-4.0122403543307081
11
6.6221304330708657
21
-4.0121988582677162
0
LINE
8
BLACK
6
CONTINUOUS
10
6.6221304330708657
20
-4.0121988582677162
11
6.6222587007874019
21
-4.0121522047244094
0
LINE
8
BLACK
6
CONTINUOUS
10
6.6222587007874019
20
-4.0121522047244094
11
6.6316325196850396
21
-4.0121522047244094
0
LINE
8
BLACK
6
CONTINUOUS
10
6.6316325196850396
20
-4.0121522047244094
11
6.6322128740157478
21
-4.0122545275590547
0
LINE
8
BLACK
6
CONTINUOUS
10
6.6157901968503934
20
-4.0197657086614171
11
6.6127592125984247
21
-4.0212812204724404
0
LINE
8
BLACK
6
CONTINUOUS
10
6.6127592125984247
20
-4.0212812204724404
11
6.6115620866141729
21
-4.0224783464566931
0
LINE
8
BLACK
6
CONTINUOUS
10
6.6115620866141729
20
-4.0224783464566931
11
6.6102133464566926
21
-4.0251758267716538
0
LINE
8
BLACK
6
CONTINUOUS
10
6.6102133464566926
20
-4.0251758267716538
11
6.6102133464566926
21
-4.0275312598425197
0
LINE
8
BLACK
6
CONTINUOUS
10
6.6102133464566926
20
-4.0275312598425197
11
6.6115620866141729
21
-4.0302287401574803
0
LINE
8
BLACK
6
CONTINUOUS
10
6.6115620866141729
20
-4.0302287401574803
11
6.6127592125984247
21
-4.0314258661417322
0
LINE
8
BLACK
6
CONTINUOUS
10
6.6127592125984247
20
-4.0314258661417322
11
6.6157901968503934
21
-4.0329413385826767
0
LINE
8
BLACK
6
CONTINUOUS
10
6.6157901968503934
20
-4.0329413385826767
11
6.6226222440944884
21
-4.03464937007874
0
LINE
8
BLACK
6
CONTINUOUS
10
6.6226222440944884
20
-4.03464937007874
11
6.6312689763779522
21
-4.03464937007874
0
LINE
8
BLACK
6
CONTINUOUS
10
6.6312689763779522
20
-4.03464937007874
11
6.6381010236220472
21
-4.0329413385826767
0
LINE
8
BLACK
6
CONTINUOUS
10
6.6381010236220472
20
-4.0329413385826767
11
6.6411320078740159
21
-4.0314258267716534
0
LINE
8
BLACK
6
CONTINUOUS
10
6.6411320078740159
20
-4.0314258267716534
11
6.6423291732283465
21
-4.0302287007874016
0
LINE
8
BLACK
6
CONTINUOUS
10
6.6423291732283465
20
-4.0302287007874016
11
6.6436779133858268
21
-4.0275312598425197
0
LINE
8
BLACK
6
CONTINUOUS
10
6.6436779133858268
20
-4.0275312598425197
11
6.6436779133858268
21
-4.0251758267716538
0
LINE
8
BLACK
6
CONTINUOUS
10
6.6436779133858268
20
-4.0251758267716538
11
6.6423291732283465
21
-4.0224783464566931
0
LINE
8
BLACK
6
CONTINUOUS
10
6.6423291732283465
20
-4.0224783464566931
11
6.6411320078740159
21
-4.0212812204724404
0
LINE
8
BLACK
6
CONTINUOUS
10
6.6411320078740159
20
-4.0212812204724404
11
6.6381010236220472
21
-4.0197657086614171
0
LINE
8
BLACK
6
CONTINUOUS
10
6.6381010236220472
20
-4.0197657086614171
11
6.6312689763779522
21
-4.0180577165354334
0
LINE
8
BLACK
6
CONTINUOUS
10
6.6312689763779522
20
-4.0180577165354334
11
6.6226222440944884
21
-4.0180577165354334
0
LINE
8
BLACK
6
CONTINUOUS
10
6.6226222440944884
20
-4.0180577165354334
11
6.6157901968503934
21
-4.0197657086614171
0
LINE
8
BLACK
6
CONTINUOUS
10
6.6322128740157478
20
-3.9747592125984252
11
6.632348661417323
21
-3.9747450393700787
0
LINE
8
BLACK
6
CONTINUOUS
10
6.632348661417323
20
-3.9747450393700787
11
6.6398477165354333
21
-3.9766198031496063
0
LINE
8
BLACK
6
CONTINUOUS
10
6.6398477165354333
20
-3.9766198031496063
11
6.6403131496062988
21
-3.9768273622047241
0
LINE
8
BLACK
6
CONTINUOUS
10
6.6403131496062988
20
-3.9768273622047241
11
6.6404520866141734
21
-3.9768433858267715
0
LINE
8
BLACK
6
CONTINUOUS
10
6.6404520866141734
20
-3.9768433858267715
11
6.6442016141732285
21
-3.9787181496062991
0
LINE
8
BLACK
6
CONTINUOUS
10
6.6442016141732285
20
-3.9787181496062991
11
6.6449105905511807
21
-3.9792439763779526
0
LINE
8
BLACK
6
CONTINUOUS
10
6.6449105905511807
20
-3.9792439763779526
11
6.6449689763779523
21
-3.979271220472441
0
LINE
8
BLACK
6
CONTINUOUS
10
6.6449689763779523
20
-3.979271220472441
11
6.6468437795275586
21
-3.9811459842519685
0
LINE
8
BLACK
6
CONTINUOUS
10
6.6468437795275586
20
-3.9811459842519685
11
6.6473501574803144
21
-3.9818691338582677
0
LINE
8
BLACK
6
CONTINUOUS
10
6.6473501574803144
20
-3.9818691338582677
11
6.6473969291338584
21
-3.9819134251968502
0
LINE
8
BLACK
6
CONTINUOUS
10
6.6473969291338584
20
-3.9819134251968502
11
6.6492716929133859
21
-3.9856629527559053
0
LINE
8
BLACK
6
CONTINUOUS
10
6.6492716929133859
20
-3.9856629527559053
11
6.6495640551181099
21
-3.9866458661417323
0
LINE
8
BLACK
6
CONTINUOUS
10
6.6495640551181099
20
-3.9866458661417323
11
6.6495230314960629
21
-3.986817559055118
0
LINE
8
BLACK
6
CONTINUOUS
10
6.6495230314960629
20
-3.986817559055118
11
6.64958342519685
21
-3.9869834645669289
0
LINE
8
BLACK
6
CONTINUOUS
10
6.64958342519685
20
-3.9869834645669289
11
6.64958342519685
21
-3.990732992125984
0
LINE
8
BLACK
6
CONTINUOUS
10
6.64958342519685
20
-3.990732992125984
11
6.6494053543307086
21
-3.9917429133858269
0
LINE
8
BLACK
6
CONTINUOUS
10
6.6494053543307086
20
-3.9917429133858269
11
6.6492918503937011
21
-3.9918781496062992
0
LINE
8
BLACK
6
CONTINUOUS
10
6.6492918503937011
20
-3.9918781496062992
11
6.6492716929133859
21
-3.992053503937008
0
LINE
8
BLACK
6
CONTINUOUS
10
6.6492716929133859
20
-3.992053503937008
11
6.6473969291338584
21
-3.9958030314960631
0
LINE
8
BLACK
6
CONTINUOUS
10
6.6473969291338584
20
-3.9958030314960631
11
6.6468709448818899
21
-3.996512125984252
0
LINE
8
BLACK
6
CONTINUOUS
10
6.6468709448818899
20
-3.996512125984252
11
6.6468437795275586
21
-3.9965704724409448
0
LINE
8
BLACK
6
CONTINUOUS
10
6.6468437795275586
20
-3.9965704724409448
11
6.6449689763779523
21
-3.9984452362204723
0
LINE
8
BLACK
6
CONTINUOUS
10
6.6449689763779523
20
-3.9984452362204723
11
6.644245905511811
21
-3.9989514960629919
0
LINE
8
BLACK
6
CONTINUOUS
10
6.644245905511811
20
-3.9989514960629919
11
6.6442016141732285
21
-3.9989983070866142
0
LINE
8
BLACK
6
CONTINUOUS
10
6.6442016141732285
20
-3.9989983070866142
11
6.6404520866141734
21
-4.0008730708661417
0
LINE
8
BLACK
6
CONTINUOUS
10
6.6404520866141734
20
-4.0008730708661417
11
6.6399636220472438
21
-4.0010183464566929
0
LINE
8
BLACK
6
CONTINUOUS
10
6.6399636220472438
20
-4.0010183464566929
11
6.6398477165354333
21
-4.001096653543307
0
LINE
8
BLACK
6
CONTINUOUS
10
6.6398477165354333
20
-4.001096653543307
11
6.632348661417323
21
-4.0029714173228346
0
LINE
8
BLACK
6
CONTINUOUS
10
6.632348661417323
20
-4.0029714173228346
11
6.6317607480314962
21
-4.0030128740157478
0
LINE
8
BLACK
6
CONTINUOUS
10
6.6317607480314962
20
-4.0030128740157478
11
6.6316325196850396
21
-4.0030595669291333
0
LINE
8
BLACK
6
CONTINUOUS
10
6.6316325196850396
20
-4.0030595669291333
11
6.6222587007874019
21
-4.0030595669291333
0
LINE
8
BLACK
6
CONTINUOUS
10
6.6222587007874019
20
-4.0030595669291333
11
6.6216783070866141
21
-4.0029572047244093
0
LINE
8
BLACK
6
CONTINUOUS
10
6.6216783070866141
20
-4.0029572047244093
11
6.6215425590551176
21
-4.0029714173228346
0
LINE
8
BLACK
6
CONTINUOUS
10
6.6215425590551176
20
-4.0029714173228346
11
6.6140435039370074
21
-4.001096653543307
0
LINE
8
BLACK
6
CONTINUOUS
10
6.6140435039370074
20
-4.001096653543307
11
6.613578031496063
21
-4.00088905511811
0
LINE
8
BLACK
6
CONTINUOUS
10
6.613578031496063
20
-4.00088905511811
11
6.6134391338582672
21
-4.0008730708661417
0
LINE
8
BLACK
6
CONTINUOUS
10
6.6134391338582672
20
-4.0008730708661417
11
6.6096896062992121
21
-3.9989983070866142
0
LINE
8
BLACK
6
CONTINUOUS
10
6.6096896062992121
20
-3.9989983070866142
11
6.6089805118110236
21
-3.9984724015748032
0
LINE
8
BLACK
6
CONTINUOUS
10
6.6089805118110236
20
-3.9984724015748032
11
6.6089222047244096
21
-3.9984451968503936
0
LINE
8
BLACK
6
CONTINUOUS
10
6.6089222047244096
20
-3.9984451968503936
11
6.6070474409448821
21
-3.996570433070866
0
LINE
8
BLACK
6
CONTINUOUS
10
6.6070474409448821
20
-3.996570433070866
11
6.6065411417322837
21
-3.9958473228346456
0
LINE
8
BLACK
6
CONTINUOUS
10
6.6065411417322837
20
-3.9958473228346456
11
6.606494330708661
21
-3.9958030314960631
0
LINE
8
BLACK
6
CONTINUOUS
10
6.606494330708661
20
-3.9958030314960631
11
6.6046195669291334
21
-3.992053503937008
0
LINE
8
BLACK
6
CONTINUOUS
10
6.6046195669291334
20
-3.992053503937008
11
6.6043272047244095
21
-3.9910705511811022
0
LINE
8
BLACK
6
CONTINUOUS
10
6.6043272047244095
20
-3.9910705511811022
11
6.6043681889763777
21
-3.9908988582677165
0
LINE
8
BLACK
6
CONTINUOUS
10
6.6043681889763777
20
-3.9908988582677165
11
6.6043078346456694
21
-3.990732992125984
0
LINE
8
BLACK
6
CONTINUOUS
10
6.6043078346456694
20
-3.990732992125984
11
6.6043078346456694
21
-3.9869834645669289
0
LINE
8
BLACK
6
CONTINUOUS
10
6.6043078346456694
20
-3.9869834645669289
11
6.6044859055118108
21
-3.9859735433070864
0
LINE
8
BLACK
6
CONTINUOUS
10
6.6044859055118108
20
-3.9859735433070864
11
6.6045993700787404
21
-3.9858382677165354
0
LINE
8
BLACK
6
CONTINUOUS
10
6.6045993700787404
20
-3.9858382677165354
11
6.6046195669291334
21
-3.9856629527559053
0
LINE
8
BLACK
6
CONTINUOUS
10
6.6046195669291334
20
-3.9856629527559053
11
6.606494330708661
21
-3.9819134251968502
0
LINE
8
BLACK
6
CONTINUOUS
10
6.606494330708661
20
-3.9819134251968502
11
6.607020236220472
21
-3.9812043307086613
0
LINE
8
BLACK
6
CONTINUOUS
10
6.607020236220472
20
-3.9812043307086613
11
6.6070474409448821
21
-3.9811460236220473
0
LINE
8
BLACK
6
CONTINUOUS
10
6.6070474409448821
20
-3.9811460236220473
11
6.6089222047244096
21
-3.9792712598425197
0
LINE
8
BLACK
6
CONTINUOUS
10
6.6089222047244096
20
-3.9792712598425197
11
6.6096452755905508
21
-3.9787649606299214
0
LINE
8
BLACK
6
CONTINUOUS
10
6.6096452755905508
20
-3.9787649606299214
11
6.6096896062992121
21
-3.9787181496062991
0
LINE
8
BLACK
6
CONTINUOUS
10
6.6096896062992121
20
-3.9787181496062991
11
6.6134391338582672
21
-3.9768433858267715
0
LINE
8
BLACK
6
CONTINUOUS
10
6.6134391338582672
20
-3.9768433858267715
11
6.6139275590551181
21
-3.9766980708661417
0
LINE
8
BLACK
6
CONTINUOUS
10
6.6139275590551181
20
-3.9766980708661417
11
6.6140435039370074
21
-3.9766198031496063
0
LINE
8
BLACK
6
CONTINUOUS
10
6.6140435039370074
20
-3.9766198031496063
11
6.6215425590551176
21
-3.9747450393700787
0
LINE
8
BLACK
6
CONTINUOUS
10
6.6215425590551176
20
-3.9747450393700787
11
6.6221304330708657
21
-3.9747035433070863
0
LINE
8
BLACK
6
CONTINUOUS
10
6.6221304330708657
20
-3.9747035433070863
11
6.6222587007874019
21
-3.9746568897637795
0
LINE
8
BLACK
6
CONTINUOUS
10
6.6222587007874019
20
-3.9746568897637795
11
6.6316325196850396
21
-3.9746568897637795
0
LINE
8
BLACK
6
CONTINUOUS
10
6.6316325196850396
20
-3.9746568897637795
11
6.6322128740157478
21
-3.9747592125984252
0
LINE
8
BLACK
6
CONTINUOUS
10
6.6157901968503934
20
-3.9822703937007873
11
6.6127592125984247
21
-3.983785905511811
0
LINE
8
BLACK
6
CONTINUOUS
10
6.6127592125984247
20
-3.983785905511811
11
6.6115620866141729
21
-3.9849830314960628
0
LINE
8
BLACK
6
CONTINUOUS
10
6.6115620866141729
20
-3.9849830314960628
11
6.6102133464566926
21
-3.9876805118110235
0
LINE
8
BLACK
6
CONTINUOUS
10
6.6102133464566926
20
-3.9876805118110235
11
6.6102133464566926
21
-3.9900359448818898
0
LINE
8
BLACK
6
CONTINUOUS
10
6.6102133464566926
20
-3.9900359448818898
11
6.6115620866141729
21
-3.9927334251968505
0
LINE
8
BLACK
6
CONTINUOUS
10
6.6115620866141729
20
-3.9927334251968505
11
6.6127592125984247
21
-3.9939305511811023
0
LINE
8
BLACK
6
CONTINUOUS
10
6.6127592125984247
20
-3.9939305511811023
11
6.6157901968503934
21
-3.9954460236220473
0
LINE
8
BLACK
6
CONTINUOUS
10
6.6157901968503934
20
-3.9954460236220473
11
6.6226222440944884
21
-3.9971540551181102
0
LINE
8
BLACK
6
CONTINUOUS
10
6.6226222440944884
20
-3.9971540551181102
11
6.6312689763779522
21
-3.9971540551181102
0
LINE
8
BLACK
6
CONTINUOUS
10
6.6312689763779522
20
-3.9971540551181102
11
6.6381010236220472
21
-3.9954460236220473
0
LINE
8
BLACK
6
CONTINUOUS
10
6.6381010236220472
20
-3.9954460236220473
11
6.6411320078740159
21
-3.9939305118110235
0
LINE
8
BLACK
6
CONTINUOUS
10
6.6411320078740159
20
-3.9939305118110235
11
6.6423291732283465
21
-3.9927333858267717
0
LINE
8
BLACK
6
CONTINUOUS
10
6.6423291732283465
20
-3.9927333858267717
11
6.6436779133858268
21
-3.9900359448818898
0
LINE
8
BLACK
6
CONTINUOUS
10
6.6436779133858268
20
-3.9900359448818898
11
6.6436779133858268
21
-3.9876805118110235
0
LINE
8
BLACK
6
CONTINUOUS
10
6.6436779133858268
20
-3.9876805118110235
11
6.6423291732283465
21
-3.9849830314960628
0
LINE
8
BLACK
6
CONTINUOUS
10
6.6423291732283465
20
-3.9849830314960628
11
6.6411320078740159
21
-3.983785905511811
0
LINE
8
BLACK
6
CONTINUOUS
10
6.6411320078740159
20
-3.983785905511811
11
6.6381010236220472
21
-3.9822703937007873
0
LINE
8
BLACK
6
CONTINUOUS
10
6.6381010236220472
20
-3.9822703937007873
11
6.6312689763779522
21
-3.9805624015748031
0
LINE
8
BLACK
6
CONTINUOUS
10
6.6312689763779522
20
-3.9805624015748031
11
6.6226222440944884
21
-3.9805624015748031
0
LINE
8
BLACK
6
CONTINUOUS
10
6.6226222440944884
20
-3.9805624015748031
11
6.6157901968503934
21
-3.9822703937007873
0
LINE
8
BLACK
6
CONTINUOUS
10
6.6322128740157478
20
-3.9372638976377954
11
6.632348661417323
21
-3.9372497244094489
0
LINE
8
BLACK
6
CONTINUOUS
10
6.632348661417323
20
-3.9372497244094489
11
6.6398477165354333
21
-3.9391244881889764
0
LINE
8
BLACK
6
CONTINUOUS
10
6.6398477165354333
20
-3.9391244881889764
11
6.6403131496062988
21
-3.9393320472440942
0
LINE
8
BLACK
6
CONTINUOUS
10
6.6403131496062988
20
-3.9393320472440942
11
6.6404520866141734
21
-3.9393480708661417
0
LINE
8
BLACK
6
CONTINUOUS
10
6.6404520866141734
20
-3.9393480708661417
11
6.6442016141732285
21
-3.9412228346456692
0
LINE
8
BLACK
6
CONTINUOUS
10
6.6442016141732285
20
-3.9412228346456692
11
6.6449105905511807
21
-3.9417486614173227
0
LINE
8
BLACK
6
CONTINUOUS
10
6.6449105905511807
20
-3.9417486614173227
11
6.6449689763779523
21
-3.9417759055118111
0
LINE
8
BLACK
6
CONTINUOUS
10
6.6449689763779523
20
-3.9417759055118111
11
6.6468437795275586
21
-3.9436506692913387
0
LINE
8
BLACK
6
CONTINUOUS
10
6.6468437795275586
20
-3.9436506692913387
11
6.6473501574803144
21
-3.9443738188976378
0
LINE
8
BLACK
6
CONTINUOUS
10
6.6473501574803144
20
-3.9443738188976378
11
6.6473969291338584
21
-3.9444181102362204
0
LINE
8
BLACK
6
CONTINUOUS
10
6.6473969291338584
20
-3.9444181102362204
11
6.6492716929133859
21
-3.9481676377952755
0
LINE
8
BLACK
6
CONTINUOUS
10
6.6492716929133859
20
-3.9481676377952755
11
6.6495640551181099
21
-3.9491505511811025
0
LINE
8
BLACK
6
CONTINUOUS
10
6.6495640551181099
20
-3.9491505511811025
11
6.6495230314960629
21
-3.9493222440944882
0
LINE
8
BLACK
6
CONTINUOUS
10
6.6495230314960629
20
-3.9493222440944882
11
6.64958342519685
21
-3.949488149606299
0
LINE
8
BLACK
6
CONTINUOUS
10
6.64958342519685
20
-3.949488149606299
11
6.64958342519685
21
-3.9532376771653541
0
LINE
8
BLACK
6
CONTINUOUS
10
6.64958342519685
20
-3.9532376771653541
11
6.6494053543307086
21
-3.9542475984251966
0
LINE
8
BLACK
6
CONTINUOUS
10
6.6494053543307086
20
-3.9542475984251966
11
6.6492918503937011
21
-3.9543828346456693
0
LINE
8
BLACK
6
CONTINUOUS
10
6.6492918503937011
20
-3.9543828346456693
11
6.6492716929133859
21
-3.9545581889763777
0
LINE
8
BLACK
6
CONTINUOUS
10
6.6492716929133859
20
-3.9545581889763777
11
6.6473969291338584
21
-3.9583077165354328
0
LINE
8
BLACK
6
CONTINUOUS
10
6.6473969291338584
20
-3.9583077165354328
11
6.6468709448818899
21
-3.9590168110236221
0
LINE
8
BLACK
6
CONTINUOUS
10
6.6468709448818899
20
-3.9590168110236221
11
6.6468437795275586
21
-3.9590751574803149
0
LINE
8
BLACK
6
CONTINUOUS
10
6.6468437795275586
20
-3.9590751574803149
11
6.6449689763779523
21
-3.9609499212598425
0
LINE
8
BLACK
6
CONTINUOUS
10
6.6449689763779523
20
-3.9609499212598425
11
6.644245905511811
21
-3.9614561811023621
0
LINE
8
BLACK
6
CONTINUOUS
10
6.644245905511811
20
-3.9614561811023621
11
6.6442016141732285
21
-3.9615029921259843
0
LINE
8
BLACK
6
CONTINUOUS
10
6.6442016141732285
20
-3.9615029921259843
11
6.6404520866141734
21
-3.9633777559055119
0
LINE
8
BLACK
6
CONTINUOUS
10
6.6404520866141734
20
-3.9633777559055119
11
6.6399636220472438
21
-3.963523031496063
0
LINE
8
BLACK
6
CONTINUOUS
10
6.6399636220472438
20
-3.963523031496063
11
6.6398477165354333
21
-3.9636013385826772
0
LINE
8
BLACK
6
CONTINUOUS
10
6.6398477165354333
20
-3.9636013385826772
11
6.632348661417323
21
-3.9654761023622047
0
LINE
8
BLACK
6
CONTINUOUS
10
6.632348661417323
20
-3.9654761023622047
11
6.6317607480314962
21
-3.9655175590551179
0
LINE
8
BLACK
6
CONTINUOUS
10
6.6317607480314962
20
-3.9655175590551179
11
6.6316325196850396
21
-3.9655642519685039
0
LINE
8
BLACK
6
CONTINUOUS
10
6.6316325196850396
20
-3.9655642519685039
11
6.6222587007874019
21
-3.9655642519685039
0
LINE
8
BLACK
6
CONTINUOUS
10
6.6222587007874019
20
-3.9655642519685039
11
6.6216783070866141
21
-3.9654618897637794
0
LINE
8
BLACK
6
CONTINUOUS
10
6.6216783070866141
20
-3.9654618897637794
11
6.6215425590551176
21
-3.9654761023622047
0
LINE
8
BLACK
6
CONTINUOUS
10
6.6215425590551176
20
-3.9654761023622047
11
6.6140435039370074
21
-3.9636013385826772
0
LINE
8
BLACK
6
CONTINUOUS
10
6.6140435039370074
20
-3.9636013385826772
11
6.613578031496063
21
-3.9633937401574801
0
LINE
8
BLACK
6
CONTINUOUS
10
6.613578031496063
20
-3.9633937401574801
11
6.6134391338582672
21
-3.9633777559055119
0
LINE
8
BLACK
6
CONTINUOUS
10
6.6134391338582672
20
-3.9633777559055119
11
6.6096896062992121
21
-3.9615029921259843
0
LINE
8
BLACK
6
CONTINUOUS
10
6.6096896062992121
20
-3.9615029921259843
11
6.6089805118110236
21
-3.9609770866141734
0
LINE
8
BLACK
6
CONTINUOUS
10
6.6089805118110236
20
-3.9609770866141734
11
6.6089222047244096
21
-3.9609498818897637
0
LINE
8
BLACK
6
CONTINUOUS
10
6.6089222047244096
20
-3.9609498818897637
11
6.6070474409448821
21
-3.9590751181102362
0
LINE
8
BLACK
6
CONTINUOUS
10
6.6070474409448821
20
-3.9590751181102362
11
6.6065411417322837
21
-3.9583520078740158
0
LINE
8
BLACK
6
CONTINUOUS
10
6.6065411417322837
20
-3.9583520078740158
11
6.606494330708661
21
-3.9583077165354328
0
LINE
8
BLACK
6
CONTINUOUS
10
6.606494330708661
20
-3.9583077165354328
11
6.6046195669291334
21
-3.9545581889763777
0
LINE
8
BLACK
6
CONTINUOUS
10
6.6046195669291334
20
-3.9545581889763777
11
6.6043272047244095
21
-3.9535752362204724
0
LINE
8
BLACK
6
CONTINUOUS
10
6.6043272047244095
20
-3.9535752362204724
11
6.6043681889763777
21
-3.9534035433070867
0
LINE
8
BLACK
6
CONTINUOUS
10
6.6043681889763777
20
-3.9534035433070867
11
6.6043078346456694
21
-3.9532376771653541
0
LINE
8
BLACK
6
CONTINUOUS
10
6.6043078346456694
20
-3.9532376771653541
11
6.6043078346456694
21
-3.949488149606299
0
LINE
8
BLACK
6
CONTINUOUS
10
6.6043078346456694
20
-3.949488149606299
11
6.6044859055118108
21
-3.9484782283464566
0
LINE
8
BLACK
6
CONTINUOUS
10
6.6044859055118108
20
-3.9484782283464566
11
6.6045993700787404
21
-3.9483429527559055
0
LINE
8
BLACK
6
CONTINUOUS
10
6.6045993700787404
20
-3.9483429527559055
11
6.6046195669291334
21
-3.9481676377952755
0
LINE
8
BLACK
6
CONTINUOUS
10
6.6046195669291334
20
-3.9481676377952755
11
6.606494330708661
21
-3.9444181102362204
0
LINE
8
BLACK
6
CONTINUOUS
10
6.606494330708661
20
-3.9444181102362204
11
6.607020236220472
21
-3.9437090157480315
0
LINE
8
BLACK
6
CONTINUOUS
10
6.607020236220472
20
-3.9437090157480315
11
6.6070474409448821
21
-3.9436507086614174
0
LINE
8
BLACK
6
CONTINUOUS
10
6.6070474409448821
20
-3.9436507086614174
11
6.6089222047244096
21
-3.9417759448818899
0
LINE
8
BLACK
6
CONTINUOUS
10
6.6089222047244096
20
-3.9417759448818899
11
6.6096452755905508
21
-3.9412696456692911
0
LINE
8
BLACK
6
CONTINUOUS
10
6.6096452755905508
20
-3.9412696456692911
11
6.6096896062992121
21
-3.9412228346456692
0
LINE
8
BLACK
6
CONTINUOUS
10
6.6096896062992121
20
-3.9412228346456692
11
6.6134391338582672
21
-3.9393480708661417
0
LINE
8
BLACK
6
CONTINUOUS
10
6.6134391338582672
20
-3.9393480708661417
11
6.6139275590551181
21
-3.9392027559055118
0
LINE
8
BLACK
6
CONTINUOUS
10
6.6139275590551181
20
-3.9392027559055118
11
6.6140435039370074
21
-3.9391244881889764
0
LINE
8
BLACK
6
CONTINUOUS
10
6.6140435039370074
20
-3.9391244881889764
11
6.6215425590551176
21
-3.9372497244094489
0
LINE
8
BLACK
6
CONTINUOUS
10
6.6215425590551176
20
-3.9372497244094489
11
6.6221304330708657
21
-3.9372082283464565
0
LINE
8
BLACK
6
CONTINUOUS
10
6.6221304330708657
20
-3.9372082283464565
11
6.6222587007874019
21
-3.9371615748031497
0
LINE
8
BLACK
6
CONTINUOUS
10
6.6222587007874019
20
-3.9371615748031497
11
6.6316325196850396
21
-3.9371615748031497
0
LINE
8
BLACK
6
CONTINUOUS
10
6.6316325196850396
20
-3.9371615748031497
11
6.6322128740157478
21
-3.9372638976377954
0
LINE
8
BLACK
6
CONTINUOUS
10
6.6157901968503934
20
-3.9447750787401574
11
6.6127592125984247
21
-3.9462905905511811
0
LINE
8
BLACK
6
CONTINUOUS
10
6.6127592125984247
20
-3.9462905905511811
11
6.6115620866141729
21
-3.947487716535433
0
LINE
8
BLACK
6
CONTINUOUS
10
6.6115620866141729
20
-3.947487716535433
11
6.6102133464566926
21
-3.9501851968503936
0
LINE
8
BLACK
6
CONTINUOUS
10
6.6102133464566926
20
-3.9501851968503936
11
6.6102133464566926
21
-3.9525406299212595
0
LINE
8
BLACK
6
CONTINUOUS
10
6.6102133464566926
20
-3.9525406299212595
11
6.6115620866141729
21
-3.9552381102362202
0
LINE
8
BLACK
6
CONTINUOUS
10
6.6115620866141729
20
-3.9552381102362202
11
6.6127592125984247
21
-3.9564352362204724
0
LINE
8
BLACK
6
CONTINUOUS
10
6.6127592125984247
20
-3.9564352362204724
11
6.6157901968503934
21
-3.9579507086614174
0
LINE
8
BLACK
6
CONTINUOUS
10
6.6157901968503934
20
-3.9579507086614174
11
6.6226222440944884
21
-3.9596587401574803
0
LINE
8
BLACK
6
CONTINUOUS
10
6.6226222440944884
20
-3.9596587401574803
11
6.6312689763779522
21
-3.9596587401574803
0
LINE
8
BLACK
6
CONTINUOUS
10
6.6312689763779522
20
-3.9596587401574803
11
6.6381010236220472
21
-3.9579507086614174
0
LINE
8
BLACK
6
CONTINUOUS
10
6.6381010236220472
20
-3.9579507086614174
11
6.6411320078740159
21
-3.9564351968503937
0
LINE
8
BLACK
6
CONTINUOUS
10
6.6411320078740159
20
-3.9564351968503937
11
6.6423291732283465
21
-3.9552380708661414
0
LINE
8
BLACK
6
CONTINUOUS
10
6.6423291732283465
20
-3.9552380708661414
11
6.6436779133858268
21
-3.9525406299212595
0
LINE
8
BLACK
6
CONTINUOUS
10
6.6436779133858268
20
-3.9525406299212595
11
6.6436779133858268
21
-3.9501851968503936
0
LINE
8
BLACK
6
CONTINUOUS
10
6.6436779133858268
20
-3.9501851968503936
11
6.6423291732283465
21
-3.947487716535433
0
LINE
8
BLACK
6
CONTINUOUS
10
6.6423291732283465
20
-3.947487716535433
11
6.6411320078740159
21
-3.9462905905511811
0
LINE
8
BLACK
6
CONTINUOUS
10
6.6411320078740159
20
-3.9462905905511811
11
6.6381010236220472
21
-3.9447750787401574
0
LINE
8
BLACK
6
CONTINUOUS
10
6.6381010236220472
20
-3.9447750787401574
11
6.6312689763779522
21
-3.9430670866141733
0
LINE
8
BLACK
6
CONTINUOUS
10
6.6312689763779522
20
-3.9430670866141733
11
6.6226222440944884
21
-3.9430670866141733
0
LINE
8
BLACK
6
CONTINUOUS
10
6.6226222440944884
20
-3.9430670866141733
11
6.6157901968503934
21
-3.9447750787401574
0
LINE
8
BLACK
6
CONTINUOUS
10
6.6322128740157478
20
-3.8997685826771651
11
6.632348661417323
21
-3.899754409448819
0
LINE
8
BLACK
6
CONTINUOUS
10
6.632348661417323
20
-3.899754409448819
11
6.6398477165354333
21
-3.9016291732283466
0
LINE
8
BLACK
6
CONTINUOUS
10
6.6398477165354333
20
-3.9016291732283466
11
6.6403131496062988
21
-3.9018367322834644
0
LINE
8
BLACK
6
CONTINUOUS
10
6.6403131496062988
20
-3.9018367322834644
11
6.6404520866141734
21
-3.9018527559055118
0
LINE
8
BLACK
6
CONTINUOUS
10
6.6404520866141734
20
-3.9018527559055118
11
6.6442016141732285
21
-3.9037275196850394
0
LINE
8
BLACK
6
CONTINUOUS
10
6.6442016141732285
20
-3.9037275196850394
11
6.6449105905511807
21
-3.9042533464566929
0
LINE
8
BLACK
6
CONTINUOUS
10
6.6449105905511807
20
-3.9042533464566929
11
6.6449689763779523
21
-3.9042805905511808
0
LINE
8
BLACK
6
CONTINUOUS
10
6.6449689763779523
20
-3.9042805905511808
11
6.6468437795275586
21
-3.9061553543307084
0
LINE
8
BLACK
6
CONTINUOUS
10
6.6468437795275586
20
-3.9061553543307084
11
6.6473501574803144
21
-3.906878503937008
0
LINE
8
BLACK
6
CONTINUOUS
10
6.6473501574803144
20
-3.906878503937008
11
6.6473969291338584
21
-3.9069227952755905
0
LINE
8
BLACK
6
CONTINUOUS
10
6.6473969291338584
20
-3.9069227952755905
11
6.6492716929133859
21
-3.9106723228346456
0
LINE
8
BLACK
6
CONTINUOUS
10
6.6492716929133859
20
-3.9106723228346456
11
6.6495640551181099
21
-3.9116552362204722
0
LINE
8
BLACK
6
CONTINUOUS
10
6.6495640551181099
20
-3.9116552362204722
11
6.6495230314960629
21
-3.9118269291338583
0
LINE
8
BLACK
6
CONTINUOUS
10
6.6495230314960629
20
-3.9118269291338583
11
6.64958342519685
21
-3.9119928346456692
0
LINE
8
BLACK
6
CONTINUOUS
10
6.64958342519685
20
-3.9119928346456692
11
6.64958342519685
21
-3.9157423622047243
0
LINE
8
BLACK
6
CONTINUOUS
10
6.64958342519685
20
-3.9157423622047243
11
6.6494053543307086
21
-3.9167522834645667
0
LINE
8
BLACK
6
CONTINUOUS
10
6.6494053543307086
20
-3.9167522834645667
11
6.6492918503937011
21
-3.9168875196850395
0
LINE
8
BLACK
6
CONTINUOUS
10
6.6492918503937011
20
-3.9168875196850395
11
6.6492716929133859
21
-3.9170628740157478
0
LINE
8
BLACK
6
CONTINUOUS
10
6.6492716929133859
20
-3.9170628740157478
11
6.6473969291338584
21
-3.9208124015748029
0
LINE
8
BLACK
6
CONTINUOUS
10
6.6473969291338584
20
-3.9208124015748029
11
6.6468709448818899
21
-3.9215214960629918
0
LINE
8
BLACK
6
CONTINUOUS
10
6.6468709448818899
20
-3.9215214960629918
11
6.6468437795275586
21
-3.9215798425196851
0
LINE
8
BLACK
6
CONTINUOUS
10
6.6468437795275586
20
-3.9215798425196851
11
6.6449689763779523
21
-3.9234546062992126
0
LINE
8
BLACK
6
CONTINUOUS
10
6.6449689763779523
20
-3.9234546062992126
11
6.644245905511811
21
-3.9239608661417322
0
LINE
8
BLACK
6
CONTINUOUS
10
6.644245905511811
20
-3.9239608661417322
11
6.6442016141732285
21
-3.924007677165354
0
LINE
8
BLACK
6
CONTINUOUS
10
6.6442016141732285
20
-3.924007677165354
11
6.6404520866141734
21
-3.9258824409448816
0
LINE
8
BLACK
6
CONTINUOUS
10
6.6404520866141734
20
-3.9258824409448816
11
6.6399636220472438
21
-3.9260277165354331
0
LINE
8
BLACK
6
CONTINUOUS
10
6.6399636220472438
20
-3.9260277165354331
11
6.6398477165354333
21
-3.9261060236220473
0
LINE
8
BLACK
6
CONTINUOUS
10
6.6398477165354333
20
-3.9261060236220473
11
6.632348661417323
21
-3.9279807874015749
0
LINE
8
BLACK
6
CONTINUOUS
10
6.632348661417323
20
-3.9279807874015749
11
6.6317607480314962
21
-3.9280222440944881
0
LINE
8
BLACK
6
CONTINUOUS
10
6.6317607480314962
20
-3.9280222440944881
11
6.6316325196850396
21
-3.9280689370078741
0
LINE
8
BLACK
6
CONTINUOUS
10
6.6316325196850396
20
-3.9280689370078741
11
6.6222587007874019
21
-3.9280689370078741
0
LINE
8
BLACK
6
CONTINUOUS
10
6.6222587007874019
20
-3.9280689370078741
11
6.6216783070866141
21
-3.9279665748031496
0
LINE
8
BLACK
6
CONTINUOUS
10
6.6216783070866141
20
-3.9279665748031496
11
6.6215425590551176
21
-3.9279807874015749
0
LINE
8
BLACK
6
CONTINUOUS
10
6.6215425590551176
20
-3.9279807874015749
11
6.6140435039370074
21
-3.9261060236220473
0
LINE
8
BLACK
6
CONTINUOUS
10
6.6140435039370074
20
-3.9261060236220473
11
6.613578031496063
21
-3.9258984251968503
0
LINE
8
BLACK
6
CONTINUOUS
10
6.613578031496063
20
-3.9258984251968503
11
6.6134391338582672
21
-3.9258824409448816
0
LINE
8
BLACK
6
CONTINUOUS
10
6.6134391338582672
20
-3.9258824409448816
11
6.6096896062992121
21
-3.924007677165354
0
LINE
8
BLACK
6
CONTINUOUS
10
6.6096896062992121
20
-3.924007677165354
11
6.6089805118110236
21
-3.9234817716535431
0
LINE
8
BLACK
6
CONTINUOUS
10
6.6089805118110236
20
-3.9234817716535431
11
6.6089222047244096
21
-3.9234545669291339
0
LINE
8
BLACK
6
CONTINUOUS
10
6.6089222047244096
20
-3.9234545669291339
11
6.6070474409448821
21
-3.9215798031496063
0
LINE
8
BLACK
6
CONTINUOUS
10
6.6070474409448821
20
-3.9215798031496063
11
6.6065411417322837
21
-3.9208566929133859
0
LINE
8
BLACK
6
CONTINUOUS
10
6.6065411417322837
20
-3.9208566929133859
11
6.606494330708661
21
-3.9208124015748029
0
LINE
8
BLACK
6
CONTINUOUS
10
6.606494330708661
20
-3.9208124015748029
11
6.6046195669291334
21
-3.9170628740157478
0
LINE
8
BLACK
6
CONTINUOUS
10
6.6046195669291334
20
-3.9170628740157478
11
6.6043272047244095
21
-3.9160799212598425
0
LINE
8
BLACK
6
CONTINUOUS
10
6.6043272047244095
20
-3.9160799212598425
11
6.6043681889763777
21
-3.9159082283464568
0
LINE
8
BLACK
6
CONTINUOUS
10
6.6043681889763777
20
-3.9159082283464568
11
6.6043078346456694
21
-3.9157423622047243
0
LINE
8
BLACK
6
CONTINUOUS
10
6.6043078346456694
20
-3.9157423622047243
11
6.6043078346456694
21
-3.9119928346456692
0
LINE
8
BLACK
6
CONTINUOUS
10
6.6043078346456694
20
-3.9119928346456692
11
6.6044859055118108
21
-3.9109829133858267
0
LINE
8
BLACK
6
CONTINUOUS
10
6.6044859055118108
20
-3.9109829133858267
11
6.6045993700787404
21
-3.9108476377952757
0
LINE
8
BLACK
6
CONTINUOUS
10
6.6045993700787404
20
-3.9108476377952757
11
6.6046195669291334
21
-3.9106723228346456
0
LINE
8
BLACK
6
CONTINUOUS
10
6.6046195669291334
20
-3.9106723228346456
11
6.606494330708661
21
-3.9069227952755905
0
LINE
8
BLACK
6
CONTINUOUS
10
6.606494330708661
20
-3.9069227952755905
11
6.607020236220472
21
-3.9062137007874016
0
LINE
8
BLACK
6
CONTINUOUS
10
6.607020236220472
20
-3.9062137007874016
11
6.6070474409448821
21
-3.9061553937007871
0
LINE
8
BLACK
6
CONTINUOUS
10
6.6070474409448821
20
-3.9061553937007871
11
6.6089222047244096
21
-3.9042806299212596
0
LINE
8
BLACK
6
CONTINUOUS
10
6.6089222047244096
20
-3.9042806299212596
11
6.6096452755905508
21
-3.9037743307086612
0
LINE
8
BLACK
6
CONTINUOUS
10
6.6096452755905508
20
-3.9037743307086612
11
6.6096896062992121
21
-3.9037275196850394
0
LINE
8
BLACK
6
CONTINUOUS
10
6.6096896062992121
20
-3.9037275196850394
11
6.6134391338582672
21
-3.9018527559055118
0
LINE
8
BLACK
6
CONTINUOUS
10
6.6134391338582672
20
-3.9018527559055118
11
6.6139275590551181
21
-3.901707440944882
0
LINE
8
BLACK
6
CONTINUOUS
10
6.6139275590551181
20
-3.901707440944882
11
6.6140435039370074
21
-3.9016291732283466
0
LINE
8
BLACK
6
CONTINUOUS
10
6.6140435039370074
20
-3.9016291732283466
11
6.6215425590551176
21
-3.899754409448819
0
LINE
8
BLACK
6
CONTINUOUS
10
6.6215425590551176
20
-3.899754409448819
11
6.6221304330708657
21
-3.8997129133858266
0
LINE
8
BLACK
6
CONTINUOUS
10
6.6221304330708657
20
-3.8997129133858266
11
6.6222587007874019
21
-3.8996662598425198
0
LINE
8
BLACK
6
CONTINUOUS
10
6.6222587007874019
20
-3.8996662598425198
11
6.6316325196850396
21
-3.8996662598425198
0
LINE
8
BLACK
6
CONTINUOUS
10
6.6316325196850396
20
-3.8996662598425198
11
6.6322128740157478
21
-3.8997685826771651
0
LINE
8
BLACK
6
CONTINUOUS
10
6.6157901968503934
20
-3.9072797637795276
11
6.6127592125984247
21
-3.9087952755905513
0
LINE
8
BLACK
6
CONTINUOUS
10
6.6127592125984247
20
-3.9087952755905513
11
6.6115620866141729
21
-3.9099924015748031
0
LINE
8
BLACK
6
CONTINUOUS
10
6.6115620866141729
20
-3.9099924015748031
11
6.6102133464566926
21
-3.9126898818897637
0
LINE
8
BLACK
6
CONTINUOUS
10
6.6102133464566926
20
-3.9126898818897637
11
6.6102133464566926
21
-3.9150453149606297
0
LINE
8
BLACK
6
CONTINUOUS
10
6.6102133464566926
20
-3.9150453149606297
11
6.6115620866141729
21
-3.9177427952755903
0
LINE
8
BLACK
6
CONTINUOUS
10
6.6115620866141729
20
-3.9177427952755903
11
6.6127592125984247
21
-3.9189399212598426
0
LINE
8
BLACK
6
CONTINUOUS
10
6.6127592125984247
20
-3.9189399212598426
11
6.6157901968503934
21
-3.9204553937007871
0
LINE
8
BLACK
6
CONTINUOUS
10
6.6157901968503934
20
-3.9204553937007871
11
6.6226222440944884
21
-3.9221634251968505
0
LINE
8
BLACK
6
CONTINUOUS
10
6.6226222440944884
20
-3.9221634251968505
11
6.6312689763779522
21
-3.9221634251968505
0
LINE
8
BLACK
6
CONTINUOUS
10
6.6312689763779522
20
-3.9221634251968505
11
6.6381010236220472
21
-3.9204553937007871
0
LINE
8
BLACK
6
CONTINUOUS
10
6.6381010236220472
20
-3.9204553937007871
11
6.6411320078740159
21
-3.9189398818897638
0
LINE
8
BLACK
6
CONTINUOUS
10
6.6411320078740159
20
-3.9189398818897638
11
6.6423291732283465
21
-3.9177427559055116
0
LINE
8
BLACK
6
CONTINUOUS
10
6.6423291732283465
20
-3.9177427559055116
11
6.6436779133858268
21
-3.9150453149606297
0
LINE
8
BLACK
6
CONTINUOUS
10
6.6436779133858268
20
-3.9150453149606297
11
6.6436779133858268
21
-3.9126898818897637
0
LINE
8
BLACK
6
CONTINUOUS
10
6.6436779133858268
20
-3.9126898818897637
11
6.6423291732283465
21
-3.9099924015748031
0
LINE
8
BLACK
6
CONTINUOUS
10
6.6423291732283465
20
-3.9099924015748031
11
6.6411320078740159
21
-3.9087952755905513
0
LINE
8
BLACK
6
CONTINUOUS
10
6.6411320078740159
20
-3.9087952755905513
11
6.6381010236220472
21
-3.9072797637795276
0
LINE
8
BLACK
6
CONTINUOUS
10
6.6381010236220472
20
-3.9072797637795276
11
6.6312689763779522
21
-3.9055717716535434
0
LINE
8
BLACK
6
CONTINUOUS
10
6.6312689763779522
20
-3.9055717716535434
11
6.6226222440944884
21
-3.9055717716535434
0
LINE
8
BLACK
6
CONTINUOUS
10
6.6226222440944884
20
-3.9055717716535434
11
6.6157901968503934
21
-3.9072797637795276
0
LINE
8
BLACK
6
CONTINUOUS
10
6.6476405905511813
20
-3.8192293700787401
11
6.6491878346456694
21
-3.8205276771653542
0
LINE
8
BLACK
6
CONTINUOUS
10
6.6491878346456694
20
-3.8205276771653542
11
6.6495385826771649
21
-3.8225168110236218
0
LINE
8
BLACK
6
CONTINUOUS
10
6.6495385826771649
20
-3.8225168110236218
11
6.6485286614173225
21
-3.8242659842519684
0
LINE
8
BLACK
6
CONTINUOUS
10
6.6485286614173225
20
-3.8242659842519684
11
6.6466306692913388
21
-3.8249568110236218
0
LINE
8
BLACK
6
CONTINUOUS
10
6.6466306692913388
20
-3.8249568110236218
11
6.6267052755905507
21
-3.8249568110236218
0
LINE
8
BLACK
6
CONTINUOUS
10
6.6267052755905507
20
-3.8249568110236218
11
6.624459527559055
21
-3.8260796456692914
0
LINE
8
BLACK
6
CONTINUOUS
10
6.624459527559055
20
-3.8260796456692914
11
6.6233366929133854
21
-3.8283253937007875
0
LINE
8
BLACK
6
CONTINUOUS
10
6.6233366929133854
20
-3.8283253937007875
11
6.6233366929133854
21
-3.8325556299212598
0
LINE
8
BLACK
6
CONTINUOUS
10
6.6233366929133854
20
-3.8325556299212598
11
6.624459527559055
21
-3.8348013385826771
0
LINE
8
BLACK
6
CONTINUOUS
10
6.624459527559055
20
-3.8348013385826771
11
6.6267052755905507
21
-3.835924212598425
0
LINE
8
BLACK
6
CONTINUOUS
10
6.6267052755905507
20
-3.835924212598425
11
6.6466306692913388
21
-3.835924212598425
0
LINE
8
BLACK
6
CONTINUOUS
10
6.6466306692913388
20
-3.835924212598425
11
6.6476405905511813
21
-3.8361022834645668
0
LINE
8
BLACK
6
CONTINUOUS
10
6.6476405905511813
20
-3.8361022834645668
11
6.6491878346456694
21
-3.837400590551181
0
LINE
8
BLACK
6
CONTINUOUS
10
6.6491878346456694
20
-3.837400590551181
11
6.6495385826771649
21
-3.8393897244094486
0
LINE
8
BLACK
6
CONTINUOUS
10
6.6495385826771649
20
-3.8393897244094486
11
6.6485286614173225
21
-3.8411388976377951
0
LINE
8
BLACK
6
CONTINUOUS
10
6.6485286614173225
20
-3.8411388976377951
11
6.6466306692913388
21
-3.8418297244094486
0
LINE
8
BLACK
6
CONTINUOUS
10
6.6466306692913388
20
-3.8418297244094486
11
6.6267052755905507
21
-3.8418297244094486
0
LINE
8
BLACK
6
CONTINUOUS
10
6.6267052755905507
20
-3.8418297244094486
11
6.624459527559055
21
-3.8429525590551181
0
LINE
8
BLACK
6
CONTINUOUS
10
6.624459527559055
20
-3.8429525590551181
11
6.6233366929133854
21
-3.8451983070866143
0
LINE
8
BLACK
6
CONTINUOUS
10
6.6233366929133854
20
-3.8451983070866143
11
6.6233366929133854
21
-3.8494285039370078
0
LINE
8
BLACK
6
CONTINUOUS
10
6.6233366929133854
20
-3.8494285039370078
11
6.6246854330708658
21
-3.8521259842519684
0
LINE
8
BLACK
6
CONTINUOUS
10
6.6246854330708658
20
-3.8521259842519684
11
6.6253565354330703
21
-3.852797086614173
0
LINE
8
BLACK
6
CONTINUOUS
10
6.6253565354330703
20
-3.852797086614173
11
6.6466306692913388
21
-3.852797086614173
0
LINE
8
BLACK
6
CONTINUOUS
10
6.6466306692913388
20
-3.852797086614173
11
6.6476405905511813
21
-3.8529751574803148
0
LINE
8
BLACK
6
CONTINUOUS
10
6.6476405905511813
20
-3.8529751574803148
11
6.6491878346456694
21
-3.854273464566929
0
LINE
8
BLACK
6
CONTINUOUS
10
6.6491878346456694
20
-3.854273464566929
11
6.6495385826771649
21
-3.8562625984251966
0
LINE
8
BLACK
6
CONTINUOUS
10
6.6495385826771649
20
-3.8562625984251966
11
6.6485286614173225
21
-3.8580117716535431
0
LINE
8
BLACK
6
CONTINUOUS
10
6.6485286614173225
20
-3.8580117716535431
11
6.6466306692913388
21
-3.8587025984251966
0
LINE
8
BLACK
6
CONTINUOUS
10
6.6466306692913388
20
-3.8587025984251966
11
6.6203839370078743
21
-3.8587025984251966
0
LINE
8
BLACK
6
CONTINUOUS
10
6.6203839370078743
20
-3.8587025984251966
11
6.619374015748031
21
-3.8585245275590552
0
LINE
8
BLACK
6
CONTINUOUS
10
6.619374015748031
20
-3.8585245275590552
11
6.6178267716535428
21
-3.857226220472441
0
LINE
8
BLACK
6
CONTINUOUS
10
6.6178267716535428
20
-3.857226220472441
11
6.6174760236220473
21
-3.855237086614173
0
LINE
8
BLACK
6
CONTINUOUS
10
6.6174760236220473
20
-3.855237086614173
11
6.6184859448818898
21
-3.8534879133858269
0
LINE
8
BLACK
6
CONTINUOUS
10
6.6184859448818898
20
-3.8534879133858269
11
6.6187210236220473
21
-3.8534023228346457
0
LINE
8
BLACK
6
CONTINUOUS
10
6.6187210236220473
20
-3.8534023228346457
11
6.6177429133858263
21
-3.8514460629921259
0
LINE
8
BLACK
6
CONTINUOUS
10
6.6177429133858263
20
-3.8514460629921259
11
6.6174505511811024
21
-3.8504631102362206
0
LINE
8
BLACK
6
CONTINUOUS
10
6.6174505511811024
20
-3.8504631102362206
11
6.6174915354330706
21
-3.8502914173228344
0
LINE
8
BLACK
6
CONTINUOUS
10
6.6174915354330706
20
-3.8502914173228344
11
6.6174311811023623
21
-3.8501255511811023
0
LINE
8
BLACK
6
CONTINUOUS
10
6.6174311811023623
20
-3.8501255511811023
11
6.6174311811023623
21
-3.8445012598425197
0
LINE
8
BLACK
6
CONTINUOUS
10
6.6174311811023623
20
-3.8445012598425197
11
6.6176092519685037
21
-3.8434913385826772
0
LINE
8
BLACK
6
CONTINUOUS
10
6.6176092519685037
20
-3.8434913385826772
11
6.6177227165354333
21
-3.8433560629921257
0
LINE
8
BLACK
6
CONTINUOUS
10
6.6177227165354333
20
-3.8433560629921257
11
6.6177429133858263
21
-3.8431807480314961
0
LINE
8
BLACK
6
CONTINUOUS
10
6.6177429133858263
20
-3.8431807480314961
11
6.6196176771653539
21
-3.839431220472441
0
LINE
8
BLACK
6
CONTINUOUS
10
6.6196176771653539
20
-3.839431220472441
11
6.6200403543307083
21
-3.8388612598425196
0
LINE
8
BLACK
6
CONTINUOUS
10
6.6200403543307083
20
-3.8388612598425196
11
6.619938661417323
21
-3.8386266141732284
0
LINE
8
BLACK
6
CONTINUOUS
10
6.619938661417323
20
-3.8386266141732284
11
6.6196176771653539
21
-3.838322716535433
0
LINE
8
BLACK
6
CONTINUOUS
10
6.6196176771653539
20
-3.838322716535433
11
6.6177429133858263
21
-3.8345731889763779
0
LINE
8
BLACK
6
CONTINUOUS
10
6.6177429133858263
20
-3.8345731889763779
11
6.6174505511811024
21
-3.8335902362204726
0
LINE
8
BLACK
6
CONTINUOUS
10
6.6174505511811024
20
-3.8335902362204726
11
6.6174915354330706
21
-3.8334185433070864
0
LINE
8
BLACK
6
CONTINUOUS
10
6.6174915354330706
20
-3.8334185433070864
11
6.6174311811023623
21
-3.8332526771653543
0
LINE
8
BLACK
6
CONTINUOUS
10
6.6174311811023623
20
-3.8332526771653543
11
6.6174311811023623
21
-3.8276283858267717
0
LINE
8
BLACK
6
CONTINUOUS
10
6.6174311811023623
20
-3.8276283858267717
11
6.6176092519685037
21
-3.8266184645669292
0
LINE
8
BLACK
6
CONTINUOUS
10
6.6176092519685037
20
-3.8266184645669292
11
6.6177227165354333
21
-3.8264831889763777
0
LINE
8
BLACK
6
CONTINUOUS
10
6.6177227165354333
20
-3.8264831889763777
11
6.6177429133858263
21
-3.8263078740157481
0
LINE
8
BLACK
6
CONTINUOUS
10
6.6177429133858263
20
-3.8263078740157481
11
6.6196176771653539
21
-3.8225583070866143
0
LINE
8
BLACK
6
CONTINUOUS
10
6.6196176771653539
20
-3.8225583070866143
11
6.6202285826771652
21
-3.8217346456692911
0
LINE
8
BLACK
6
CONTINUOUS
10
6.6202285826771652
20
-3.8217346456692911
11
6.6206342519685037
21
-3.821558779527559
0
LINE
8
BLACK
6
CONTINUOUS
10
6.6206342519685037
20
-3.821558779527559
11
6.6209381889763774
21
-3.8212377952755903
0
LINE
8
BLACK
6
CONTINUOUS
10
6.6209381889763774
20
-3.8212377952755903
11
6.6246877165354325
21
-3.8193630314960627
0
LINE
8
BLACK
6
CONTINUOUS
10
6.6246877165354325
20
-3.8193630314960627
11
6.6256706299212595
21
-3.8190706692913383
0
LINE
8
BLACK
6
CONTINUOUS
10
6.6256706299212595
20
-3.8190706692913383
11
6.6258423228346457
21
-3.819111653543307
0
LINE
8
BLACK
6
CONTINUOUS
10
6.6258423228346457
20
-3.819111653543307
11
6.626008228346457
21
-3.8190512992125982
0
LINE
8
BLACK
6
CONTINUOUS
10
6.626008228346457
20
-3.8190512992125982
11
6.6466306692913388
21
-3.8190512992125982
0
LINE
8
BLACK
6
CONTINUOUS
10
6.6466306692913388
20
-3.8190512992125982
11
6.6476405905511813
21
-3.8192293700787401
0
LINE
8
BLACK
6
CONTINUOUS
10
6.6476405905511813
20
-3.7667359448818898
11
6.6491878346456694
21
-3.7680342519685039
0
LINE
8
BLACK
6
CONTINUOUS
10
6.6491878346456694
20
-3.7680342519685039
11
6.6495385826771649
21
-3.7700233858267715
0
LINE
8
BLACK
6
CONTINUOUS
10
6.6495385826771649
20
-3.7700233858267715
11
6.6485286614173225
21
-3.7717725590551181
0
LINE
8
BLACK
6
CONTINUOUS
10
6.6485286614173225
20
-3.7717725590551181
11
6.6466306692913388
21
-3.7724633858267715
0
LINE
8
BLACK
6
CONTINUOUS
10
6.6466306692913388
20
-3.7724633858267715
11
6.6267052755905507
21
-3.7724633858267715
0
LINE
8
BLACK
6
CONTINUOUS
10
6.6267052755905507
20
-3.7724633858267715
11
6.624459527559055
21
-3.7735862204724411
0
LINE
8
BLACK
6
CONTINUOUS
10
6.624459527559055
20
-3.7735862204724411
11
6.6233366929133854
21
-3.7758319685039368
0
LINE
8
BLACK
6
CONTINUOUS
10
6.6233366929133854
20
-3.7758319685039368
11
6.6233366929133854
21
-3.7800622047244095
0
LINE
8
BLACK
6
CONTINUOUS
10
6.6233366929133854
20
-3.7800622047244095
11
6.624459527559055
21
-3.7823079133858268
0
LINE
8
BLACK
6
CONTINUOUS
10
6.624459527559055
20
-3.7823079133858268
11
6.6267052755905507
21
-3.7834307874015747
0
LINE
8
BLACK
6
CONTINUOUS
10
6.6267052755905507
20
-3.7834307874015747
11
6.6466306692913388
21
-3.7834307874015747
0
LINE
8
BLACK
6
CONTINUOUS
10
6.6466306692913388
20
-3.7834307874015747
11
6.6476405905511813
21
-3.7836088582677165
0
LINE
8
BLACK
6
CONTINUOUS
10
6.6476405905511813
20
-3.7836088582677165
11
6.6491878346456694
21
-3.7849071653543307
0
LINE
8
BLACK
6
CONTINUOUS
10
6.6491878346456694
20
-3.7849071653543307
11
6.6495385826771649
21
-3.7868962992125983
0
LINE
8
BLACK
6
CONTINUOUS
10
6.6495385826771649
20
-3.7868962992125983
11
6.6485286614173225
21
-3.7886454724409449
0
LINE
8
BLACK
6
CONTINUOUS
10
6.6485286614173225
20
-3.7886454724409449
11
6.6466306692913388
21
-3.7893362992125983
0
LINE
8
BLACK
6
CONTINUOUS
10
6.6466306692913388
20
-3.7893362992125983
11
6.6267052755905507
21
-3.7893362992125983
0
LINE
8
BLACK
6
CONTINUOUS
10
6.6267052755905507
20
-3.7893362992125983
11
6.624459527559055
21
-3.7904591338582678
0
LINE
8
BLACK
6
CONTINUOUS
10
6.624459527559055
20
-3.7904591338582678
11
6.6233366929133854
21
-3.7927048818897635
0
LINE
8
BLACK
6
CONTINUOUS
10
6.6233366929133854
20
-3.7927048818897635
11
6.6233366929133854
21
-3.7969350787401575
0
LINE
8
BLACK
6
CONTINUOUS
10
6.6233366929133854
20
-3.7969350787401575
11
6.6246854330708658
21
-3.7996325590551181
0
LINE
8
BLACK
6
CONTINUOUS
10
6.6246854330708658
20
-3.7996325590551181
11
6.6253565354330703
21
-3.8003036614173227
0
LINE
8
BLACK
6
CONTINUOUS
10
6.6253565354330703
20
-3.8003036614173227
11
6.6466306692913388
21
-3.8003036614173227
0
LINE
8
BLACK
6
CONTINUOUS
10
6.6466306692913388
20
-3.8003036614173227
11
6.6476405905511813
21
-3.8004817322834645
0
LINE
8
BLACK
6
CONTINUOUS
10
6.6476405905511813
20
-3.8004817322834645
11
6.6491878346456694
21
-3.8017800393700787
0
LINE
8
BLACK
6
CONTINUOUS
10
6.6491878346456694
20
-3.8017800393700787
11
6.6495385826771649
21
-3.8037691732283463
0
LINE
8
BLACK
6
CONTINUOUS
10
6.6495385826771649
20
-3.8037691732283463
11
6.6485286614173225
21
-3.8055183464566928
0
LINE
8
BLACK
6
CONTINUOUS
10
6.6485286614173225
20
-3.8055183464566928
11
6.6466306692913388
21
-3.8062091732283463
0
LINE
8
BLACK
6
CONTINUOUS
10
6.6466306692913388
20
-3.8062091732283463
11
6.6203839370078743
21
-3.8062091732283463
0
LINE
8
BLACK
6
CONTINUOUS
10
6.6203839370078743
20
-3.8062091732283463
11
6.619374015748031
21
-3.8060311023622044
0
LINE
8
BLACK
6
CONTINUOUS
10
6.619374015748031
20
-3.8060311023622044
11
6.6178267716535428
21
-3.8047327952755903
0
LINE
8
BLACK
6
CONTINUOUS
10
6.6178267716535428
20
-3.8047327952755903
11
6.6174760236220473
21
-3.8027436614173227
0
LINE
8
BLACK
6
CONTINUOUS
10
6.6174760236220473
20
-3.8027436614173227
11
6.6184859448818898
21
-3.8009944881889761
0
LINE
8
BLACK
6
CONTINUOUS
10
6.6184859448818898
20
-3.8009944881889761
11
6.6187210236220473
21
-3.8009088976377954
0
LINE
8
BLACK
6
CONTINUOUS
10
6.6187210236220473
20
-3.8009088976377954
11
6.6177429133858263
21
-3.7989526377952756
0
LINE
8
BLACK
6
CONTINUOUS
10
6.6177429133858263
20
-3.7989526377952756
11
6.6174505511811024
21
-3.7979696850393698
0
LINE
8
BLACK
6
CONTINUOUS
10
6.6174505511811024
20
-3.7979696850393698
11
6.6174915354330706
21
-3.7977979921259841
0
LINE
8
BLACK
6
CONTINUOUS
10
6.6174915354330706
20
-3.7977979921259841
11
6.6174311811023623
21
-3.797632125984252
0
LINE
8
BLACK
6
CONTINUOUS
10
6.6174311811023623
20
-3.797632125984252
11
6.6174311811023623
21
-3.7920078346456694
0
LINE
8
BLACK
6
CONTINUOUS
10
6.6174311811023623
20
-3.7920078346456694
11
6.6176092519685037
21
-3.7909979133858265
0
LINE
8
BLACK
6
CONTINUOUS
10
6.6176092519685037
20
-3.7909979133858265
11
6.6177227165354333
21
-3.7908626377952754
0
LINE
8
BLACK
6
CONTINUOUS
10
6.6177227165354333
20
-3.7908626377952754
11
6.6177429133858263
21
-3.7906873228346454
0
LINE
8
BLACK
6
CONTINUOUS
10
6.6177429133858263
20
-3.7906873228346454
11
6.6196176771653539
21
-3.7869377952755903
0
LINE
8
BLACK
6
CONTINUOUS
10
6.6196176771653539
20
-3.7869377952755903
11
6.6200403543307083
21
-3.7863678346456693
0
LINE
8
BLACK
6
CONTINUOUS
10
6.6200403543307083
20
-3.7863678346456693
11
6.619938661417323
21
-3.7861331889763781
0
LINE
8
BLACK
6
CONTINUOUS
10
6.619938661417323
20
-3.7861331889763781
11
6.6196176771653539
21
-3.7858292913385827
0
LINE
8
BLACK
6
CONTINUOUS
10
6.6196176771653539
20
-3.7858292913385827
11
6.6177429133858263
21
-3.7820797637795276
0
LINE
8
BLACK
6
CONTINUOUS
10
6.6177429133858263
20
-3.7820797637795276
11
6.6174505511811024
21
-3.7810968110236218
0
LINE
8
BLACK
6
CONTINUOUS
10
6.6174505511811024
20
-3.7810968110236218
11
6.6174915354330706
21
-3.7809251181102361
0
LINE
8
BLACK
6
CONTINUOUS
10
6.6174915354330706
20
-3.7809251181102361
11
6.6174311811023623
21
-3.780759251968504
0
LINE
8
BLACK
6
CONTINUOUS
10
6.6174311811023623
20
-3.780759251968504
11
6.6174311811023623
21
-3.7751349606299214
0
LINE
8
BLACK
6
CONTINUOUS
10
6.6174311811023623
20
-3.7751349606299214
11
6.6176092519685037
21
-3.7741250393700785
0
LINE
8
BLACK
6
CONTINUOUS
10
6.6176092519685037
20
-3.7741250393700785
11
6.6177227165354333
21
-3.7739897637795274
0
LINE
8
BLACK
6
CONTINUOUS
10
6.6177227165354333
20
-3.7739897637795274
11
6.6177429133858263
21
-3.7738144488188974
0
LINE
8
BLACK
6
CONTINUOUS
10
6.6177429133858263
20
-3.7738144488188974
11
6.6196176771653539
21
-3.7700648818897635
0
LINE
8
BLACK
6
CONTINUOUS
10
6.6196176771653539
20
-3.7700648818897635
11
6.6202285826771652
21
-3.7692412204724408
0
LINE
8
BLACK
6
CONTINUOUS
10
6.6202285826771652
20
-3.7692412204724408
11
6.6206342519685037
21
-3.7690653543307087
0
LINE
8
BLACK
6
CONTINUOUS
10
6.6206342519685037
20
-3.7690653543307087
11
6.6209381889763774
21
-3.76874437007874
0
LINE
8
BLACK
6
CONTINUOUS
10
6.6209381889763774
20
-3.76874437007874
11
6.6246877165354325
21
-3.7668696062992124
0
LINE
8
BLACK
6
CONTINUOUS
10
6.6246877165354325
20
-3.7668696062992124
11
6.6256706299212595
21
-3.766577244094488
0
LINE
8
BLACK
6
CONTINUOUS
10
6.6256706299212595
20
-3.766577244094488
11
6.6258423228346457
21
-3.7666182283464567
0
LINE
8
BLACK
6
CONTINUOUS
10
6.6258423228346457
20
-3.7666182283464567
11
6.626008228346457
21
-3.7665578740157479
0
LINE
8
BLACK
6
CONTINUOUS
10
6.626008228346457
20
-3.7665578740157479
11
6.6466306692913388
21
-3.7665578740157479
0
LINE
8
BLACK
6
CONTINUOUS
10
6.6466306692913388
20
-3.7665578740157479
11
6.6476405905511813
21
-3.7667359448818898
  0
ENDSEC
  0
EOF
