  0
SECTION
  2
HEADER
  9
$ANGBASE
  50
0.0
  9
$ANGDIR
  70
1
  9
$MEASUREMENT
  70
0
  0
ENDSEC
  0
SECTION
  2
TABLES
  0
TABLE
  2
LTYPE
  70
4
  0
LTYPE
  5
40F
  2
CONTINUOUS
  70
0
  3
Solid line
  72
65
  73
0
  40
0.0
  0
LTYPE
  5
410
  2
DASHDOT
 70
0
  3
Dash Dot ____ _ ____ _
 72
65
 73
4
 40
2.0
 49
1.25
 49
-0.25
 49
0.25
 49
-0.25
  0
LTYPE
  5
411
  2
DASHED
 70
0
  3
Dashed __ __ __ __ __
 72
65
 73
2
 40
0.75
 49
0.5
 49
-0.25
  0
LTYPE
  5
43B
  2
DOTTED
 70
0
  3
Dotted .  .  .  .
 72
65
 73
2
 40
0.2
 49
0.0
 49
-0.2
  0
ENDTAB
  0
TABLE
  2
STYLE
  70
4
  0
STYLE
  2
KICAD
  70
0
  40
0
  41
1
  42
1
  50
0
  71
0
  3
isocp.shx
  0
STYLE
  2
KICADB
  70
0
  40
0
  41
1
  42
1
  50
0
  71
0
  3
isocp.shx
  0
STYLE
  2
KICADI
  70
0
  40
0
  41
1
  42
1
  50
15
  71
0
  3
isocp.shx
  0
STYLE
  2
KICADBI
  70
0
  40
0
  41
1
  42
1
  50
15
  71
0
  3
isocp.shx
  0
ENDTAB
  0
TABLE
  2
LAYER
  70
1
  0
LAYER
  2
BLACK
  70
0
  62
7
  6
CONTINUOUS
  0
ENDTAB
  0
ENDSEC
  0
SECTION
  2
ENTITIES
0
LINE
8
BLACK
6
CONTINUOUS
10
6.5193307086614176
20
-4.0234251968503933
11
6.5200266929133859
21
-4.0237134645669288
0
LINE
8
BLACK
6
CONTINUOUS
10
6.5200266929133859
20
-4.0237134645669288
11
6.5203149606299213
21
-4.0244094488188979
0
LINE
8
BLACK
6
CONTINUOUS
10
6.5203149606299213
20
-4.0244094488188979
11
6.5203149606299213
21
-4.4952755905511808
0
LINE
8
BLACK
6
CONTINUOUS
10
6.5203149606299213
20
-4.4952755905511808
11
6.5200266929133859
21
-4.4959715748031499
0
LINE
8
BLACK
6
CONTINUOUS
10
6.5200266929133859
20
-4.4959715748031499
11
6.5193307086614176
21
-4.4962598425196854
0
LINE
8
BLACK
6
CONTINUOUS
10
6.5193307086614176
20
-4.4962598425196854
11
6.2673622047244093
21
-4.4962598425196854
0
LINE
8
BLACK
6
CONTINUOUS
10
6.2673622047244093
20
-4.4962598425196854
11
6.266666220472441
21
-4.4959715748031499
0
LINE
8
BLACK
6
CONTINUOUS
10
6.266666220472441
20
-4.4959715748031499
11
6.2663779527559056
21
-4.4952755905511808
0
LINE
8
BLACK
6
CONTINUOUS
10
6.2663779527559056
20
-4.4952755905511808
11
6.2663779527559056
21
-4.0244094488188979
0
LINE
8
BLACK
6
CONTINUOUS
10
6.2663779527559056
20
-4.0244094488188979
11
6.266666220472441
21
-4.0237134645669288
0
LINE
8
BLACK
6
CONTINUOUS
10
6.266666220472441
20
-4.0237134645669288
11
6.2673622047244093
21
-4.0234251968503933
0
LINE
8
BLACK
6
CONTINUOUS
10
6.2673622047244093
20
-4.0234251968503933
11
6.5193307086614176
21
-4.0234251968503933
0
LINE
8
BLACK
6
CONTINUOUS
10
6.268346456692913
20
-4.0253937007874017
11
6.268346456692913
21
-4.494291338582677
0
LINE
8
BLACK
6
CONTINUOUS
10
6.268346456692913
20
-4.494291338582677
11
6.518346456692913
21
-4.494291338582677
0
LINE
8
BLACK
6
CONTINUOUS
10
6.518346456692913
20
-4.494291338582677
11
6.518346456692913
21
-4.0253937007874017
0
LINE
8
BLACK
6
CONTINUOUS
10
6.518346456692913
20
-4.0253937007874017
11
6.268346456692913
21
-4.0253937007874017
0
LINE
8
BLACK
6
CONTINUOUS
10
5.6311023622047243
20
-4.3511811023622045
11
5.6317983464566925
21
-4.3514693700787399
0
LINE
8
BLACK
6
CONTINUOUS
10
5.6317983464566925
20
-4.3514693700787399
11
5.632086614173228
21
-4.3521653543307082
0
LINE
8
BLACK
6
CONTINUOUS
10
5.632086614173228
20
-4.3521653543307082
11
5.632086614173228
21
-4.4687007874015743
0
LINE
8
BLACK
6
CONTINUOUS
10
5.632086614173228
20
-4.4687007874015743
11
5.6317983464566925
21
-4.4693967716535434
0
LINE
8
BLACK
6
CONTINUOUS
10
5.6317983464566925
20
-4.4693967716535434
11
5.6311023622047243
21
-4.4696850393700789
0
LINE
8
BLACK
6
CONTINUOUS
10
5.6311023622047243
20
-4.4696850393700789
11
5.5736220472440943
21
-4.4696850393700789
0
LINE
8
BLACK
6
CONTINUOUS
10
5.5736220472440943
20
-4.4696850393700789
11
5.572926062992126
21
-4.4693967716535434
0
LINE
8
BLACK
6
CONTINUOUS
10
5.572926062992126
20
-4.4693967716535434
11
5.5726377952755906
21
-4.4687007874015743
0
LINE
8
BLACK
6
CONTINUOUS
10
5.5726377952755906
20
-4.4687007874015743
11
5.5726377952755906
21
-4.3521653543307082
0
LINE
8
BLACK
6
CONTINUOUS
10
5.5726377952755906
20
-4.3521653543307082
11
5.572926062992126
21
-4.3514693700787399
0
LINE
8
BLACK
6
CONTINUOUS
10
5.572926062992126
20
-4.3514693700787399
11
5.5736220472440943
21
-4.3511811023622045
0
LINE
8
BLACK
6
CONTINUOUS
10
5.5736220472440943
20
-4.3511811023622045
11
5.6311023622047243
21
-4.3511811023622045
0
LINE
8
BLACK
6
CONTINUOUS
10
5.574606299212598
20
-4.3531496062992128
11
5.574606299212598
21
-4.4677165354330706
0
LINE
8
BLACK
6
CONTINUOUS
10
5.574606299212598
20
-4.4677165354330706
11
5.6301181102362206
21
-4.4677165354330706
0
LINE
8
BLACK
6
CONTINUOUS
10
5.6301181102362206
20
-4.4677165354330706
11
5.6301181102362206
21
-4.3531496062992128
0
LINE
8
BLACK
6
CONTINUOUS
10
5.6301181102362206
20
-4.3531496062992128
11
5.574606299212598
21
-4.3531496062992128
0
LINE
8
BLACK
6
CONTINUOUS
10
5.5641732283464567
20
-4.3501968503937007
11
5.5648692125984249
21
-4.3504851181102362
0
LINE
8
BLACK
6
CONTINUOUS
10
5.5648692125984249
20
-4.3504851181102362
11
5.5651574803149604
21
-4.3511811023622045
0
LINE
8
BLACK
6
CONTINUOUS
10
5.5651574803149604
20
-4.3511811023622045
11
5.5651574803149604
21
-4.4677165354330706
0
LINE
8
BLACK
6
CONTINUOUS
10
5.5651574803149604
20
-4.4677165354330706
11
5.5648692125984249
21
-4.4684125196850388
0
LINE
8
BLACK
6
CONTINUOUS
10
5.5648692125984249
20
-4.4684125196850388
11
5.5641732283464567
21
-4.4687007874015743
0
LINE
8
BLACK
6
CONTINUOUS
10
5.5641732283464567
20
-4.4687007874015743
11
5.5066929133858267
21
-4.4687007874015743
0
LINE
8
BLACK
6
CONTINUOUS
10
5.5066929133858267
20
-4.4687007874015743
11
5.5059969291338584
21
-4.4684125196850388
0
LINE
8
BLACK
6
CONTINUOUS
10
5.5059969291338584
20
-4.4684125196850388
11
5.505708661417323
21
-4.4677165354330706
0
LINE
8
BLACK
6
CONTINUOUS
10
5.505708661417323
20
-4.4677165354330706
11
5.505708661417323
21
-4.3511811023622045
0
LINE
8
BLACK
6
CONTINUOUS
10
5.505708661417323
20
-4.3511811023622045
11
5.5059969291338584
21
-4.3504851181102362
0
LINE
8
BLACK
6
CONTINUOUS
10
5.5059969291338584
20
-4.3504851181102362
11
5.5066929133858267
21
-4.3501968503937007
0
LINE
8
BLACK
6
CONTINUOUS
10
5.5066929133858267
20
-4.3501968503937007
11
5.5641732283464567
21
-4.3501968503937007
0
LINE
8
BLACK
6
CONTINUOUS
10
5.5076771653543304
20
-4.3521653543307082
11
5.5076771653543304
21
-4.4667322834645669
0
LINE
8
BLACK
6
CONTINUOUS
10
5.5076771653543304
20
-4.4667322834645669
11
5.563188976377953
21
-4.4667322834645669
0
LINE
8
BLACK
6
CONTINUOUS
10
5.563188976377953
20
-4.4667322834645669
11
5.563188976377953
21
-4.3521653543307082
0
LINE
8
BLACK
6
CONTINUOUS
10
5.563188976377953
20
-4.3521653543307082
11
5.5076771653543304
21
-4.3521653543307082
0
LINE
8
BLACK
6
CONTINUOUS
10
5.8886792913385824
20
-4.24584374015748
11
5.8951283464566924
21
-4.2481003543307088
0
LINE
8
BLACK
6
CONTINUOUS
10
5.8951283464566924
20
-4.2481003543307088
11
5.9009135826771653
21
-4.2517354724409451
0
LINE
8
BLACK
6
CONTINUOUS
10
5.9009135826771653
20
-4.2517354724409451
11
5.9057448425196846
21
-4.2565667322834644
0
LINE
8
BLACK
6
CONTINUOUS
10
5.9057448425196846
20
-4.2565667322834644
11
5.9093799606299209
21
-4.2623519685039373
0
LINE
8
BLACK
6
CONTINUOUS
10
5.9093799606299209
20
-4.2623519685039373
11
5.9116365748031496
21
-4.2688010236220473
0
LINE
8
BLACK
6
CONTINUOUS
10
5.9116365748031496
20
-4.2688010236220473
11
5.9124015748031491
21
-4.2755905511811019
0
LINE
8
BLACK
6
CONTINUOUS
10
5.9124015748031491
20
-4.2755905511811019
11
5.9116365748031496
21
-4.2823800787401574
0
LINE
8
BLACK
6
CONTINUOUS
10
5.9116365748031496
20
-4.2823800787401574
11
5.9093799606299209
21
-4.2888291338582674
0
LINE
8
BLACK
6
CONTINUOUS
10
5.9093799606299209
20
-4.2888291338582674
11
5.9057448425196846
21
-4.2946143700787403
0
LINE
8
BLACK
6
CONTINUOUS
10
5.9057448425196846
20
-4.2946143700787403
11
5.9009135826771653
21
-4.2994456299212596
0
LINE
8
BLACK
6
CONTINUOUS
10
5.9009135826771653
20
-4.2994456299212596
11
5.8951283464566924
21
-4.3030807480314959
0
LINE
8
BLACK
6
CONTINUOUS
10
5.8951283464566924
20
-4.3030807480314959
11
5.8886792913385824
21
-4.3053373622047246
0
LINE
8
BLACK
6
CONTINUOUS
10
5.8886792913385824
20
-4.3053373622047246
11
5.8818897637795278
21
-4.3061023622047241
0
LINE
8
BLACK
6
CONTINUOUS
10
5.8818897637795278
20
-4.3061023622047241
11
5.8751002362204723
21
-4.3053373622047246
0
LINE
8
BLACK
6
CONTINUOUS
10
5.8751002362204723
20
-4.3053373622047246
11
5.8686511811023623
21
-4.3030807480314959
0
LINE
8
BLACK
6
CONTINUOUS
10
5.8686511811023623
20
-4.3030807480314959
11
5.8628659448818894
21
-4.2994456299212596
0
LINE
8
BLACK
6
CONTINUOUS
10
5.8628659448818894
20
-4.2994456299212596
11
5.8580346850393701
21
-4.2946143700787403
0
LINE
8
BLACK
6
CONTINUOUS
10
5.8580346850393701
20
-4.2946143700787403
11
5.8543995669291338
21
-4.2888291338582674
0
LINE
8
BLACK
6
CONTINUOUS
10
5.8543995669291338
20
-4.2888291338582674
11
5.852142952755905
21
-4.2823800787401574
0
LINE
8
BLACK
6
CONTINUOUS
10
5.852142952755905
20
-4.2823800787401574
11
5.8513779527559056
21
-4.2755905511811019
0
LINE
8
BLACK
6
CONTINUOUS
10
5.8513779527559056
20
-4.2755905511811019
11
5.852142952755905
21
-4.2688010236220473
0
LINE
8
BLACK
6
CONTINUOUS
10
5.852142952755905
20
-4.2688010236220473
11
5.8543995669291338
21
-4.2623519685039373
0
LINE
8
BLACK
6
CONTINUOUS
10
5.8543995669291338
20
-4.2623519685039373
11
5.8580346850393701
21
-4.2565667322834644
0
LINE
8
BLACK
6
CONTINUOUS
10
5.8580346850393701
20
-4.2565667322834644
11
5.8628659448818894
21
-4.2517354724409451
0
LINE
8
BLACK
6
CONTINUOUS
10
5.8628659448818894
20
-4.2517354724409451
11
5.8686511811023623
21
-4.2481003543307088
0
LINE
8
BLACK
6
CONTINUOUS
10
5.8686511811023623
20
-4.2481003543307088
11
5.8751002362204723
21
-4.24584374015748
0
LINE
8
BLACK
6
CONTINUOUS
10
5.8751002362204723
20
-4.24584374015748
11
5.8818897637795278
21
-4.2450787401574805
0
LINE
8
BLACK
6
CONTINUOUS
10
5.8818897637795278
20
-4.2450787401574805
11
5.8886792913385824
21
-4.24584374015748
0
LINE
8
BLACK
6
CONTINUOUS
10
5.8538860236220467
20
-4.2819822047244092
11
5.8560104330708658
21
-4.288053385826772
0
LINE
8
BLACK
6
CONTINUOUS
10
5.8560104330708658
20
-4.288053385826772
11
5.859432519685039
21
-4.2934996062992123
0
LINE
8
BLACK
6
CONTINUOUS
10
5.859432519685039
20
-4.2934996062992123
11
5.8639807086614173
21
-4.2980477952755907
0
LINE
8
BLACK
6
CONTINUOUS
10
5.8639807086614173
20
-4.2980477952755907
11
5.8694269291338586
21
-4.3014698818897639
0
LINE
8
BLACK
6
CONTINUOUS
10
5.8694269291338586
20
-4.3014698818897639
11
5.8754981102362205
21
-4.303594291338583
0
LINE
8
BLACK
6
CONTINUOUS
10
5.8754981102362205
20
-4.303594291338583
11
5.8818897637795278
21
-4.3043144488188974
0
LINE
8
BLACK
6
CONTINUOUS
10
5.8818897637795278
20
-4.3043144488188974
11
5.8882814173228342
21
-4.303594291338583
0
LINE
8
BLACK
6
CONTINUOUS
10
5.8882814173228342
20
-4.303594291338583
11
5.894352598425197
21
-4.3014698818897639
0
LINE
8
BLACK
6
CONTINUOUS
10
5.894352598425197
20
-4.3014698818897639
11
5.8997988188976374
21
-4.2980477952755907
0
LINE
8
BLACK
6
CONTINUOUS
10
5.8997988188976374
20
-4.2980477952755907
11
5.9043470078740157
21
-4.2934996062992123
0
LINE
8
BLACK
6
CONTINUOUS
10
5.9043470078740157
20
-4.2934996062992123
11
5.9077690944881889
21
-4.288053385826772
0
LINE
8
BLACK
6
CONTINUOUS
10
5.9077690944881889
20
-4.288053385826772
11
5.909893503937008
21
-4.2819822047244092
0
LINE
8
BLACK
6
CONTINUOUS
10
5.909893503937008
20
-4.2819822047244092
11
5.9106136614173224
21
-4.2755905511811019
0
LINE
8
BLACK
6
CONTINUOUS
10
5.9106136614173224
20
-4.2755905511811019
11
5.909893503937008
21
-4.2691988976377955
0
LINE
8
BLACK
6
CONTINUOUS
10
5.909893503937008
20
-4.2691988976377955
11
5.9077690944881889
21
-4.2631277165354327
0
LINE
8
BLACK
6
CONTINUOUS
10
5.9077690944881889
20
-4.2631277165354327
11
5.9043470078740157
21
-4.2576814960629923
0
LINE
8
BLACK
6
CONTINUOUS
10
5.9043470078740157
20
-4.2576814960629923
11
5.8997988188976374
21
-4.253133307086614
0
LINE
8
BLACK
6
CONTINUOUS
10
5.8997988188976374
20
-4.253133307086614
11
5.894352598425197
21
-4.2497112204724408
0
LINE
8
BLACK
6
CONTINUOUS
10
5.894352598425197
20
-4.2497112204724408
11
5.8882814173228342
21
-4.2475868110236217
0
LINE
8
BLACK
6
CONTINUOUS
10
5.8882814173228342
20
-4.2475868110236217
11
5.8818897637795278
21
-4.2468666535433073
0
LINE
8
BLACK
6
CONTINUOUS
10
5.8818897637795278
20
-4.2468666535433073
11
5.8754981102362205
21
-4.2475868110236217
0
LINE
8
BLACK
6
CONTINUOUS
10
5.8754981102362205
20
-4.2475868110236217
11
5.8694269291338586
21
-4.2497112204724408
0
LINE
8
BLACK
6
CONTINUOUS
10
5.8694269291338586
20
-4.2497112204724408
11
5.8639807086614173
21
-4.253133307086614
0
LINE
8
BLACK
6
CONTINUOUS
10
5.8639807086614173
20
-4.253133307086614
11
5.859432519685039
21
-4.2576814960629923
0
LINE
8
BLACK
6
CONTINUOUS
10
5.859432519685039
20
-4.2576814960629923
11
5.8560104330708658
21
-4.2631277165354327
0
LINE
8
BLACK
6
CONTINUOUS
10
5.8560104330708658
20
-4.2631277165354327
11
5.8538860236220467
21
-4.2691988976377955
0
LINE
8
BLACK
6
CONTINUOUS
10
5.8538860236220467
20
-4.2691988976377955
11
5.8531658661417323
21
-4.2755905511811019
0
LINE
8
BLACK
6
CONTINUOUS
10
5.8531658661417323
20
-4.2755905511811019
11
5.8538860236220467
21
-4.2819822047244092
0
LINE
8
BLACK
6
CONTINUOUS
10
5.7295275590551178
20
-4.1562992125984248
11
5.7302235433070861
21
-4.1565874803149603
0
LINE
8
BLACK
6
CONTINUOUS
10
5.7302235433070861
20
-4.1565874803149603
11
5.7305118110236215
21
-4.1572834645669294
0
LINE
8
BLACK
6
CONTINUOUS
10
5.7305118110236215
20
-4.1572834645669294
11
5.7305118110236215
21
-4.2738188976377955
0
LINE
8
BLACK
6
CONTINUOUS
10
5.7305118110236215
20
-4.2738188976377955
11
5.7302235433070861
21
-4.2745148818897638
0
LINE
8
BLACK
6
CONTINUOUS
10
5.7302235433070861
20
-4.2745148818897638
11
5.7295275590551178
21
-4.2748031496062993
0
LINE
8
BLACK
6
CONTINUOUS
10
5.7295275590551178
20
-4.2748031496062993
11
5.6720472440944878
21
-4.2748031496062993
0
LINE
8
BLACK
6
CONTINUOUS
10
5.6720472440944878
20
-4.2748031496062993
11
5.6713512598425195
21
-4.2745148818897638
0
LINE
8
BLACK
6
CONTINUOUS
10
5.6713512598425195
20
-4.2745148818897638
11
5.6710629921259841
21
-4.2738188976377955
0
LINE
8
BLACK
6
CONTINUOUS
10
5.6710629921259841
20
-4.2738188976377955
11
5.6710629921259841
21
-4.1572834645669294
0
LINE
8
BLACK
6
CONTINUOUS
10
5.6710629921259841
20
-4.1572834645669294
11
5.6713512598425195
21
-4.1565874803149603
0
LINE
8
BLACK
6
CONTINUOUS
10
5.6713512598425195
20
-4.1565874803149603
11
5.6720472440944878
21
-4.1562992125984248
0
LINE
8
BLACK
6
CONTINUOUS
10
5.6720472440944878
20
-4.1562992125984248
11
5.7295275590551178
21
-4.1562992125984248
0
LINE
8
BLACK
6
CONTINUOUS
10
5.6730314960629924
20
-4.1582677165354331
11
5.6730314960629924
21
-4.2728346456692909
0
LINE
8
BLACK
6
CONTINUOUS
10
5.6730314960629924
20
-4.2728346456692909
11
5.7285433070866141
21
-4.2728346456692909
0
LINE
8
BLACK
6
CONTINUOUS
10
5.7285433070866141
20
-4.2728346456692909
11
5.7285433070866141
21
-4.1582677165354331
0
LINE
8
BLACK
6
CONTINUOUS
10
5.7285433070866141
20
-4.1582677165354331
11
5.6730314960629924
21
-4.1582677165354331
0
LINE
8
BLACK
6
CONTINUOUS
10
5.8018110236220473
20
-4.1072834645669287
11
5.8025070078740155
21
-4.1075717322834642
0
LINE
8
BLACK
6
CONTINUOUS
10
5.8025070078740155
20
-4.1075717322834642
11
5.802795275590551
21
-4.1082677165354333
0
LINE
8
BLACK
6
CONTINUOUS
10
5.802795275590551
20
-4.1082677165354333
11
5.802795275590551
21
-4.2460629921259843
0
LINE
8
BLACK
6
CONTINUOUS
10
5.802795275590551
20
-4.2460629921259843
11
5.8025070078740155
21
-4.2467589763779525
0
LINE
8
BLACK
6
CONTINUOUS
10
5.8025070078740155
20
-4.2467589763779525
11
5.8018110236220473
21
-4.247047244094488
0
LINE
8
BLACK
6
CONTINUOUS
10
5.8018110236220473
20
-4.247047244094488
11
5.7348818897637797
21
-4.247047244094488
0
LINE
8
BLACK
6
CONTINUOUS
10
5.7348818897637797
20
-4.247047244094488
11
5.7341859055118105
21
-4.2467589763779525
0
LINE
8
BLACK
6
CONTINUOUS
10
5.7341859055118105
20
-4.2467589763779525
11
5.7338976377952751
21
-4.2460629921259843
0
LINE
8
BLACK
6
CONTINUOUS
10
5.7338976377952751
20
-4.2460629921259843
11
5.7338976377952751
21
-4.1082677165354333
0
LINE
8
BLACK
6
CONTINUOUS
10
5.7338976377952751
20
-4.1082677165354333
11
5.7341859055118105
21
-4.1075717322834642
0
LINE
8
BLACK
6
CONTINUOUS
10
5.7341859055118105
20
-4.1075717322834642
11
5.7348818897637797
21
-4.1072834645669287
0
LINE
8
BLACK
6
CONTINUOUS
10
5.7348818897637797
20
-4.1072834645669287
11
5.8018110236220473
21
-4.1072834645669287
0
LINE
8
BLACK
6
CONTINUOUS
10
5.7358661417322834
20
-4.109251968503937
11
5.7358661417322834
21
-4.2450787401574805
0
LINE
8
BLACK
6
CONTINUOUS
10
5.7358661417322834
20
-4.2450787401574805
11
5.8008267716535435
21
-4.2450787401574805
0
LINE
8
BLACK
6
CONTINUOUS
10
5.8008267716535435
20
-4.2450787401574805
11
5.8008267716535435
21
-4.109251968503937
0
LINE
8
BLACK
6
CONTINUOUS
10
5.8008267716535435
20
-4.109251968503937
11
5.7358661417322834
21
-4.109251968503937
0
LINE
8
BLACK
6
CONTINUOUS
10
6.0799212598425196
20
-4.1218503937007869
11
6.0806172440944879
21
-4.1221386614173223
0
LINE
8
BLACK
6
CONTINUOUS
10
6.0806172440944879
20
-4.1221386614173223
11
6.0809055118110233
21
-4.1228346456692915
0
LINE
8
BLACK
6
CONTINUOUS
10
6.0809055118110233
20
-4.1228346456692915
11
6.0809055118110233
21
-4.2393700787401576
0
LINE
8
BLACK
6
CONTINUOUS
10
6.0809055118110233
20
-4.2393700787401576
11
6.0806172440944879
21
-4.2400660629921259
0
LINE
8
BLACK
6
CONTINUOUS
10
6.0806172440944879
20
-4.2400660629921259
11
6.0799212598425196
21
-4.2403543307086613
0
LINE
8
BLACK
6
CONTINUOUS
10
6.0799212598425196
20
-4.2403543307086613
11
6.0224409448818896
21
-4.2403543307086613
0
LINE
8
BLACK
6
CONTINUOUS
10
6.0224409448818896
20
-4.2403543307086613
11
6.0217449606299214
21
-4.2400660629921259
0
LINE
8
BLACK
6
CONTINUOUS
10
6.0217449606299214
20
-4.2400660629921259
11
6.0214566929133859
21
-4.2393700787401576
0
LINE
8
BLACK
6
CONTINUOUS
10
6.0214566929133859
20
-4.2393700787401576
11
6.0214566929133859
21
-4.1228346456692915
0
LINE
8
BLACK
6
CONTINUOUS
10
6.0214566929133859
20
-4.1228346456692915
11
6.0217449606299214
21
-4.1221386614173223
0
LINE
8
BLACK
6
CONTINUOUS
10
6.0217449606299214
20
-4.1221386614173223
11
6.0224409448818896
21
-4.1218503937007869
0
LINE
8
BLACK
6
CONTINUOUS
10
6.0224409448818896
20
-4.1218503937007869
11
6.0799212598425196
21
-4.1218503937007869
0
LINE
8
BLACK
6
CONTINUOUS
10
6.0234251968503933
20
-4.1238188976377952
11
6.0234251968503933
21
-4.2383858267716539
0
LINE
8
BLACK
6
CONTINUOUS
10
6.0234251968503933
20
-4.2383858267716539
11
6.0789370078740159
21
-4.2383858267716539
0
LINE
8
BLACK
6
CONTINUOUS
10
6.0789370078740159
20
-4.2383858267716539
11
6.0789370078740159
21
-4.1238188976377952
0
LINE
8
BLACK
6
CONTINUOUS
10
6.0789370078740159
20
-4.1238188976377952
11
6.0234251968503933
21
-4.1238188976377952
0
LINE
8
BLACK
6
CONTINUOUS
10
5.863385826771653
20
-4.1100393700787397
11
5.8640818110236221
21
-4.1103276377952751
0
LINE
8
BLACK
6
CONTINUOUS
10
5.8640818110236221
20
-4.1103276377952751
11
5.8641732283464565
21
-4.1105483464566932
0
LINE
8
BLACK
6
CONTINUOUS
10
5.8641732283464565
20
-4.1105483464566932
11
5.8642646456692908
21
-4.1103276377952751
0
LINE
8
BLACK
6
CONTINUOUS
10
5.8642646456692908
20
-4.1103276377952751
11
5.86496062992126
21
-4.1100393700787397
0
LINE
8
BLACK
6
CONTINUOUS
10
5.86496062992126
20
-4.1100393700787397
11
5.92244094488189
21
-4.1100393700787397
0
LINE
8
BLACK
6
CONTINUOUS
10
5.92244094488189
20
-4.1100393700787397
11
5.9231369291338583
21
-4.1103276377952751
0
LINE
8
BLACK
6
CONTINUOUS
10
5.9231369291338583
20
-4.1103276377952751
11
5.9234251968503937
21
-4.1110236220472443
0
LINE
8
BLACK
6
CONTINUOUS
10
5.9234251968503937
20
-4.1110236220472443
11
5.9234251968503937
21
-4.2275590551181104
0
LINE
8
BLACK
6
CONTINUOUS
10
5.9234251968503937
20
-4.2275590551181104
11
5.9231369291338583
21
-4.2282550393700786
0
LINE
8
BLACK
6
CONTINUOUS
10
5.9231369291338583
20
-4.2282550393700786
11
5.92244094488189
21
-4.2285433070866141
0
LINE
8
BLACK
6
CONTINUOUS
10
5.92244094488189
20
-4.2285433070866141
11
5.86496062992126
21
-4.2285433070866141
0
LINE
8
BLACK
6
CONTINUOUS
10
5.86496062992126
20
-4.2285433070866141
11
5.8642646456692908
21
-4.2282550393700786
0
LINE
8
BLACK
6
CONTINUOUS
10
5.8642646456692908
20
-4.2282550393700786
11
5.8641732283464565
21
-4.2280342913385827
0
LINE
8
BLACK
6
CONTINUOUS
10
5.8641732283464565
20
-4.2280342913385827
11
5.8640818110236221
21
-4.2282550393700786
0
LINE
8
BLACK
6
CONTINUOUS
10
5.8640818110236221
20
-4.2282550393700786
11
5.863385826771653
21
-4.2285433070866141
0
LINE
8
BLACK
6
CONTINUOUS
10
5.863385826771653
20
-4.2285433070866141
11
5.8059055118110239
21
-4.2285433070866141
0
LINE
8
BLACK
6
CONTINUOUS
10
5.8059055118110239
20
-4.2285433070866141
11
5.8052095275590547
21
-4.2282550393700786
0
LINE
8
BLACK
6
CONTINUOUS
10
5.8052095275590547
20
-4.2282550393700786
11
5.8049212598425193
21
-4.2275590551181104
0
LINE
8
BLACK
6
CONTINUOUS
10
5.8049212598425193
20
-4.2275590551181104
11
5.8049212598425193
21
-4.1110236220472443
0
LINE
8
BLACK
6
CONTINUOUS
10
5.8049212598425193
20
-4.1110236220472443
11
5.8052095275590547
21
-4.1103276377952751
0
LINE
8
BLACK
6
CONTINUOUS
10
5.8052095275590547
20
-4.1103276377952751
11
5.8059055118110239
21
-4.1100393700787397
0
LINE
8
BLACK
6
CONTINUOUS
10
5.8059055118110239
20
-4.1100393700787397
11
5.863385826771653
21
-4.1100393700787397
0
LINE
8
BLACK
6
CONTINUOUS
10
5.8659448818897637
20
-4.112007874015748
11
5.8659448818897637
21
-4.2265748031496058
0
LINE
8
BLACK
6
CONTINUOUS
10
5.8659448818897637
20
-4.2265748031496058
11
5.9214566929133854
21
-4.2265748031496058
0
LINE
8
BLACK
6
CONTINUOUS
10
5.9214566929133854
20
-4.2265748031496058
11
5.9214566929133854
21
-4.112007874015748
0
LINE
8
BLACK
6
CONTINUOUS
10
5.9214566929133854
20
-4.112007874015748
11
5.8659448818897637
21
-4.112007874015748
0
LINE
8
BLACK
6
CONTINUOUS
10
5.8068897637795276
20
-4.112007874015748
11
5.8068897637795276
21
-4.2265748031496058
0
LINE
8
BLACK
6
CONTINUOUS
10
5.8068897637795276
20
-4.2265748031496058
11
5.8624015748031493
21
-4.2265748031496058
0
LINE
8
BLACK
6
CONTINUOUS
10
5.8624015748031493
20
-4.2265748031496058
11
5.8624015748031493
21
-4.112007874015748
0
LINE
8
BLACK
6
CONTINUOUS
10
5.8624015748031493
20
-4.112007874015748
11
5.8068897637795276
21
-4.112007874015748
0
LINE
8
BLACK
6
CONTINUOUS
10
6.2019685039370076
20
-3.9614173228346456
11
6.2026644881889759
21
-3.9617055905511811
0
LINE
8
BLACK
6
CONTINUOUS
10
6.2026644881889759
20
-3.9617055905511811
11
6.2029527559055113
21
-3.9624015748031494
0
LINE
8
BLACK
6
CONTINUOUS
10
6.2029527559055113
20
-3.9624015748031494
11
6.2029527559055113
21
-4.0789370078740159
0
LINE
8
BLACK
6
CONTINUOUS
10
6.2029527559055113
20
-4.0789370078740159
11
6.2026644881889759
21
-4.0796329921259842
0
LINE
8
BLACK
6
CONTINUOUS
10
6.2026644881889759
20
-4.0796329921259842
11
6.2019685039370076
21
-4.0799212598425196
0
LINE
8
BLACK
6
CONTINUOUS
10
6.2019685039370076
20
-4.0799212598425196
11
6.1444881889763776
21
-4.0799212598425196
0
LINE
8
BLACK
6
CONTINUOUS
10
6.1444881889763776
20
-4.0799212598425196
11
6.1438976377952752
21
-4.0796766535433067
0
LINE
8
BLACK
6
CONTINUOUS
10
6.1438976377952752
20
-4.0796766535433067
11
6.1438976377952752
21
-4.1960629921259844
0
LINE
8
BLACK
6
CONTINUOUS
10
6.1438976377952752
20
-4.1960629921259844
11
6.1436093700787398
21
-4.1967589763779527
0
LINE
8
BLACK
6
CONTINUOUS
10
6.1436093700787398
20
-4.1967589763779527
11
6.1429133858267715
21
-4.1970472440944881
0
LINE
8
BLACK
6
CONTINUOUS
10
6.1429133858267715
20
-4.1970472440944881
11
6.0854330708661415
21
-4.1970472440944881
0
LINE
8
BLACK
6
CONTINUOUS
10
6.0854330708661415
20
-4.1970472440944881
11
6.0847370866141732
21
-4.1967589763779527
0
LINE
8
BLACK
6
CONTINUOUS
10
6.0847370866141732
20
-4.1967589763779527
11
6.0844488188976378
21
-4.1960629921259844
0
LINE
8
BLACK
6
CONTINUOUS
10
6.0844488188976378
20
-4.1960629921259844
11
6.0844488188976378
21
-4.0795275590551183
0
LINE
8
BLACK
6
CONTINUOUS
10
6.0844488188976378
20
-4.0795275590551183
11
6.0847370866141732
21
-4.0788315748031492
0
LINE
8
BLACK
6
CONTINUOUS
10
6.0847370866141732
20
-4.0788315748031492
11
6.0854330708661415
21
-4.0785433070866137
0
LINE
8
BLACK
6
CONTINUOUS
10
6.0854330708661415
20
-4.0785433070866137
11
6.1429133858267715
21
-4.0785433070866137
0
LINE
8
BLACK
6
CONTINUOUS
10
6.1429133858267715
20
-4.0785433070866137
11
6.1435039370078739
21
-4.0787878740157479
0
LINE
8
BLACK
6
CONTINUOUS
10
6.1435039370078739
20
-4.0787878740157479
11
6.1435039370078739
21
-3.9624015748031494
0
LINE
8
BLACK
6
CONTINUOUS
10
6.1435039370078739
20
-3.9624015748031494
11
6.1437922047244093
21
-3.9617055905511811
0
LINE
8
BLACK
6
CONTINUOUS
10
6.1437922047244093
20
-3.9617055905511811
11
6.1444881889763776
21
-3.9614173228346456
0
LINE
8
BLACK
6
CONTINUOUS
10
6.1444881889763776
20
-3.9614173228346456
11
6.2019685039370076
21
-3.9614173228346456
0
LINE
8
BLACK
6
CONTINUOUS
10
6.0864173228346452
20
-4.080511811023622
11
6.0864173228346452
21
-4.1950787401574798
0
LINE
8
BLACK
6
CONTINUOUS
10
6.0864173228346452
20
-4.1950787401574798
11
6.1419291338582678
21
-4.1950787401574798
0
LINE
8
BLACK
6
CONTINUOUS
10
6.1419291338582678
20
-4.1950787401574798
11
6.1419291338582678
21
-4.080511811023622
0
LINE
8
BLACK
6
CONTINUOUS
10
6.1419291338582678
20
-4.080511811023622
11
6.0864173228346452
21
-4.080511811023622
0
LINE
8
BLACK
6
CONTINUOUS
10
6.1454724409448813
20
-3.9633858267716535
11
6.1454724409448813
21
-4.0779527559055113
0
LINE
8
BLACK
6
CONTINUOUS
10
6.1454724409448813
20
-4.0779527559055113
11
6.2009842519685039
21
-4.0779527559055113
0
LINE
8
BLACK
6
CONTINUOUS
10
6.2009842519685039
20
-4.0779527559055113
11
6.2009842519685039
21
-3.9633858267716535
0
LINE
8
BLACK
6
CONTINUOUS
10
6.2009842519685039
20
-3.9633858267716535
11
6.1454724409448813
21
-3.9633858267716535
0
LINE
8
BLACK
6
CONTINUOUS
10
5.6760314960629916
20
-3.7477165354330708
11
5.6767274803149608
21
-3.7480048031496063
0
LINE
8
BLACK
6
CONTINUOUS
10
5.6767274803149608
20
-3.7480048031496063
11
5.6770157480314962
21
-3.7487007874015745
0
LINE
8
BLACK
6
CONTINUOUS
10
5.6770157480314962
20
-3.7487007874015745
11
5.6770157480314962
21
-4.150275590551181
0
LINE
8
BLACK
6
CONTINUOUS
10
5.6770157480314962
20
-4.150275590551181
11
5.6767274803149608
21
-4.1509715748031493
0
LINE
8
BLACK
6
CONTINUOUS
10
5.6767274803149608
20
-4.1509715748031493
11
5.6760314960629916
21
-4.1512598425196847
0
LINE
8
BLACK
6
CONTINUOUS
10
5.6760314960629916
20
-4.1512598425196847
11
5.3441417322834646
21
-4.1512598425196847
0
LINE
8
BLACK
6
CONTINUOUS
10
5.3441417322834646
20
-4.1512598425196847
11
5.3434457480314963
21
-4.1509715748031493
0
LINE
8
BLACK
6
CONTINUOUS
10
5.3434457480314963
20
-4.1509715748031493
11
5.3431574803149608
21
-4.150275590551181
0
LINE
8
BLACK
6
CONTINUOUS
10
5.3431574803149608
20
-4.150275590551181
11
5.3431574803149608
21
-3.7487007874015745
0
LINE
8
BLACK
6
CONTINUOUS
10
5.3431574803149608
20
-3.7487007874015745
11
5.3434457480314963
21
-3.7480048031496063
0
LINE
8
BLACK
6
CONTINUOUS
10
5.3434457480314963
20
-3.7480048031496063
11
5.3441417322834646
21
-3.7477165354330708
0
LINE
8
BLACK
6
CONTINUOUS
10
5.3441417322834646
20
-3.7477165354330708
11
5.6760314960629916
21
-3.7477165354330708
0
LINE
8
BLACK
6
CONTINUOUS
10
5.3451259842519683
20
-3.7496850393700787
11
5.3451259842519683
21
-4.1492913385826773
0
LINE
8
BLACK
6
CONTINUOUS
10
5.3451259842519683
20
-4.1492913385826773
11
5.6750472440944879
21
-4.1492913385826773
0
LINE
8
BLACK
6
CONTINUOUS
10
5.6750472440944879
20
-4.1492913385826773
11
5.6750472440944879
21
-3.7496850393700787
0
LINE
8
BLACK
6
CONTINUOUS
10
5.6750472440944879
20
-3.7496850393700787
11
5.3451259842519683
21
-3.7496850393700787
0
LINE
8
BLACK
6
CONTINUOUS
10
6.1417322834645667
20
-3.8612204724409449
11
6.1424282677165349
21
-3.8615087401574804
0
LINE
8
BLACK
6
CONTINUOUS
10
6.1424282677165349
20
-3.8615087401574804
11
6.1427165354330704
21
-3.8622047244094486
0
LINE
8
BLACK
6
CONTINUOUS
10
6.1427165354330704
20
-3.8622047244094486
11
6.1427165354330704
21
-4.0669291338582676
0
LINE
8
BLACK
6
CONTINUOUS
10
6.1427165354330704
20
-4.0669291338582676
11
6.1424282677165349
21
-4.0676251181102359
0
LINE
8
BLACK
6
CONTINUOUS
10
6.1424282677165349
20
-4.0676251181102359
11
6.1417322834645667
21
-4.0679133858267713
0
LINE
8
BLACK
6
CONTINUOUS
10
6.1417322834645667
20
-4.0679133858267713
11
5.9370078740157481
21
-4.0679133858267713
0
LINE
8
BLACK
6
CONTINUOUS
10
5.9370078740157481
20
-4.0679133858267713
11
5.936311889763779
21
-4.0676251181102359
0
LINE
8
BLACK
6
CONTINUOUS
10
5.936311889763779
20
-4.0676251181102359
11
5.9360236220472435
21
-4.0669291338582676
0
LINE
8
BLACK
6
CONTINUOUS
10
5.9360236220472435
20
-4.0669291338582676
11
5.9360236220472435
21
-3.8622047244094486
0
LINE
8
BLACK
6
CONTINUOUS
10
5.9360236220472435
20
-3.8622047244094486
11
5.936311889763779
21
-3.8615087401574804
0
LINE
8
BLACK
6
CONTINUOUS
10
5.936311889763779
20
-3.8615087401574804
11
5.9370078740157481
21
-3.8612204724409449
0
LINE
8
BLACK
6
CONTINUOUS
10
5.9370078740157481
20
-3.8612204724409449
11
6.1417322834645667
21
-3.8612204724409449
0
LINE
8
BLACK
6
CONTINUOUS
10
5.9379921259842519
20
-3.8631889763779528
11
5.9379921259842519
21
-4.0659448818897639
0
LINE
8
BLACK
6
CONTINUOUS
10
5.9379921259842519
20
-4.0659448818897639
11
6.140748031496063
21
-4.0659448818897639
0
LINE
8
BLACK
6
CONTINUOUS
10
6.140748031496063
20
-4.0659448818897639
11
6.140748031496063
21
-3.8631889763779528
0
LINE
8
BLACK
6
CONTINUOUS
10
6.140748031496063
20
-3.8631889763779528
11
5.9379921259842519
21
-3.8631889763779528
0
LINE
8
BLACK
6
CONTINUOUS
10
5.9089566929133861
20
-3.881574803149606
11
5.9096526771653544
21
-3.8818630708661415
0
LINE
8
BLACK
6
CONTINUOUS
10
5.9096526771653544
20
-3.8818630708661415
11
5.9099409448818898
21
-3.8825590551181102
0
LINE
8
BLACK
6
CONTINUOUS
10
5.9099409448818898
20
-3.8825590551181102
11
5.9099409448818898
21
-4.0164173228346458
0
LINE
8
BLACK
6
CONTINUOUS
10
5.9099409448818898
20
-4.0164173228346458
11
5.9096526771653544
21
-4.0171133070866141
0
LINE
8
BLACK
6
CONTINUOUS
10
5.9096526771653544
20
-4.0171133070866141
11
5.9089566929133861
21
-4.0174015748031495
0
LINE
8
BLACK
6
CONTINUOUS
10
5.9089566929133861
20
-4.0174015748031495
11
5.7475393700787398
21
-4.0174015748031495
0
LINE
8
BLACK
6
CONTINUOUS
10
5.7475393700787398
20
-4.0174015748031495
11
5.7468433858267716
21
-4.0171133070866141
0
LINE
8
BLACK
6
CONTINUOUS
10
5.7468433858267716
20
-4.0171133070866141
11
5.7465551181102361
21
-4.0164173228346458
0
LINE
8
BLACK
6
CONTINUOUS
10
5.7465551181102361
20
-4.0164173228346458
11
5.7465551181102361
21
-3.8825590551181102
0
LINE
8
BLACK
6
CONTINUOUS
10
5.7465551181102361
20
-3.8825590551181102
11
5.7468433858267716
21
-3.8818630708661415
0
LINE
8
BLACK
6
CONTINUOUS
10
5.7468433858267716
20
-3.8818630708661415
11
5.7475393700787398
21
-3.881574803149606
0
LINE
8
BLACK
6
CONTINUOUS
10
5.7475393700787398
20
-3.881574803149606
11
5.9089566929133861
21
-3.881574803149606
0
LINE
8
BLACK
6
CONTINUOUS
10
5.7485236220472435
20
-3.8835433070866139
11
5.7485236220472435
21
-4.0154330708661412
0
LINE
8
BLACK
6
CONTINUOUS
10
5.7485236220472435
20
-4.0154330708661412
11
5.9079724409448815
21
-4.0154330708661412
0
LINE
8
BLACK
6
CONTINUOUS
10
5.9079724409448815
20
-4.0154330708661412
11
5.9079724409448815
21
-3.8835433070866139
0
LINE
8
BLACK
6
CONTINUOUS
10
5.9079724409448815
20
-3.8835433070866139
11
5.7485236220472435
21
-3.8835433070866139
0
LINE
8
BLACK
6
CONTINUOUS
10
6.4409448818897639
20
-3.9104330708661417
11
6.4416408661417321
21
-3.9107213385826771
0
LINE
8
BLACK
6
CONTINUOUS
10
6.4416408661417321
20
-3.9107213385826771
11
6.4419291338582676
21
-3.9114173228346454
0
LINE
8
BLACK
6
CONTINUOUS
10
6.4419291338582676
20
-3.9114173228346454
11
6.4419291338582676
21
-3.9862204724409449
0
LINE
8
BLACK
6
CONTINUOUS
10
6.4419291338582676
20
-3.9862204724409449
11
6.4416408661417321
21
-3.9869164566929132
0
LINE
8
BLACK
6
CONTINUOUS
10
6.4416408661417321
20
-3.9869164566929132
11
6.4409448818897639
21
-3.9872047244094486
0
LINE
8
BLACK
6
CONTINUOUS
10
6.4409448818897639
20
-3.9872047244094486
11
6.2834645669291334
21
-3.9872047244094486
0
LINE
8
BLACK
6
CONTINUOUS
10
6.2834645669291334
20
-3.9872047244094486
11
6.2827685826771651
21
-3.9869164566929132
0
LINE
8
BLACK
6
CONTINUOUS
10
6.2827685826771651
20
-3.9869164566929132
11
6.2824803149606296
21
-3.9862204724409449
0
LINE
8
BLACK
6
CONTINUOUS
10
6.2824803149606296
20
-3.9862204724409449
11
6.2824803149606296
21
-3.9114173228346454
0
LINE
8
BLACK
6
CONTINUOUS
10
6.2824803149606296
20
-3.9114173228346454
11
6.2827685826771651
21
-3.9107213385826771
0
LINE
8
BLACK
6
CONTINUOUS
10
6.2827685826771651
20
-3.9107213385826771
11
6.2834645669291334
21
-3.9104330708661417
0
LINE
8
BLACK
6
CONTINUOUS
10
6.2834645669291334
20
-3.9104330708661417
11
6.4409448818897639
21
-3.9104330708661417
0
LINE
8
BLACK
6
CONTINUOUS
10
6.284448818897638
20
-3.9124015748031495
11
6.284448818897638
21
-3.9852362204724407
0
LINE
8
BLACK
6
CONTINUOUS
10
6.284448818897638
20
-3.9852362204724407
11
6.4399606299212593
21
-3.9852362204724407
0
LINE
8
BLACK
6
CONTINUOUS
10
6.4399606299212593
20
-3.9852362204724407
11
6.4399606299212593
21
-3.9124015748031495
0
LINE
8
BLACK
6
CONTINUOUS
10
6.4399606299212593
20
-3.9124015748031495
11
6.284448818897638
21
-3.9124015748031495
0
LINE
8
BLACK
6
CONTINUOUS
10
6.5193307086614176
20
-3.4013779527559054
11
6.5200266929133859
21
-3.4016662204724408
0
LINE
8
BLACK
6
CONTINUOUS
10
6.5200266929133859
20
-3.4016662204724408
11
6.5203149606299213
21
-3.4023622047244095
0
LINE
8
BLACK
6
CONTINUOUS
10
6.5203149606299213
20
-3.4023622047244095
11
6.5203149606299213
21
-3.8732283464566928
0
LINE
8
BLACK
6
CONTINUOUS
10
6.5203149606299213
20
-3.8732283464566928
11
6.5200266929133859
21
-3.8739243307086615
0
LINE
8
BLACK
6
CONTINUOUS
10
6.5200266929133859
20
-3.8739243307086615
11
6.5193307086614176
21
-3.8742125984251969
0
LINE
8
BLACK
6
CONTINUOUS
10
6.5193307086614176
20
-3.8742125984251969
11
6.2673622047244093
21
-3.8742125984251969
0
LINE
8
BLACK
6
CONTINUOUS
10
6.2673622047244093
20
-3.8742125984251969
11
6.266666220472441
21
-3.8739243307086615
0
LINE
8
BLACK
6
CONTINUOUS
10
6.266666220472441
20
-3.8739243307086615
11
6.2663779527559056
21
-3.8732283464566928
0
LINE
8
BLACK
6
CONTINUOUS
10
6.2663779527559056
20
-3.8732283464566928
11
6.2663779527559056
21
-3.4023622047244095
0
LINE
8
BLACK
6
CONTINUOUS
10
6.2663779527559056
20
-3.4023622047244095
11
6.266666220472441
21
-3.4016662204724408
0
LINE
8
BLACK
6
CONTINUOUS
10
6.266666220472441
20
-3.4016662204724408
11
6.2673622047244093
21
-3.4013779527559054
0
LINE
8
BLACK
6
CONTINUOUS
10
6.2673622047244093
20
-3.4013779527559054
11
6.5193307086614176
21
-3.4013779527559054
0
LINE
8
BLACK
6
CONTINUOUS
10
6.268346456692913
20
-3.4033464566929132
11
6.268346456692913
21
-3.8722440944881891
0
LINE
8
BLACK
6
CONTINUOUS
10
6.268346456692913
20
-3.8722440944881891
11
6.518346456692913
21
-3.8722440944881891
0
LINE
8
BLACK
6
CONTINUOUS
10
6.518346456692913
20
-3.8722440944881891
11
6.518346456692913
21
-3.4033464566929132
0
LINE
8
BLACK
6
CONTINUOUS
10
6.518346456692913
20
-3.4033464566929132
11
6.268346456692913
21
-3.4033464566929132
0
LINE
8
BLACK
6
CONTINUOUS
10
6.1822834645669289
20
-3.7389763779527558
11
6.1829794488188972
21
-3.7392646456692913
0
LINE
8
BLACK
6
CONTINUOUS
10
6.1829794488188972
20
-3.7392646456692913
11
6.1832677165354326
21
-3.7399606299212595
0
LINE
8
BLACK
6
CONTINUOUS
10
6.1832677165354326
20
-3.7399606299212595
11
6.1832677165354326
21
-3.8564960629921261
0
LINE
8
BLACK
6
CONTINUOUS
10
6.1832677165354326
20
-3.8564960629921261
11
6.1829794488188972
21
-3.8571920472440944
0
LINE
8
BLACK
6
CONTINUOUS
10
6.1829794488188972
20
-3.8571920472440944
11
6.1822834645669289
21
-3.8574803149606298
0
LINE
8
BLACK
6
CONTINUOUS
10
6.1822834645669289
20
-3.8574803149606298
11
6.1248031496062989
21
-3.8574803149606298
0
LINE
8
BLACK
6
CONTINUOUS
10
6.1248031496062989
20
-3.8574803149606298
11
6.1241071653543306
21
-3.8571920472440944
0
LINE
8
BLACK
6
CONTINUOUS
10
6.1241071653543306
20
-3.8571920472440944
11
6.1238188976377952
21
-3.8564960629921261
0
LINE
8
BLACK
6
CONTINUOUS
10
6.1238188976377952
20
-3.8564960629921261
11
6.1238188976377952
21
-3.7399606299212595
0
LINE
8
BLACK
6
CONTINUOUS
10
6.1238188976377952
20
-3.7399606299212595
11
6.1241071653543306
21
-3.7392646456692913
0
LINE
8
BLACK
6
CONTINUOUS
10
6.1241071653543306
20
-3.7392646456692913
11
6.1248031496062989
21
-3.7389763779527558
0
LINE
8
BLACK
6
CONTINUOUS
10
6.1248031496062989
20
-3.7389763779527558
11
6.1822834645669289
21
-3.7389763779527558
0
LINE
8
BLACK
6
CONTINUOUS
10
6.1257874015748026
20
-3.7409448818897637
11
6.1257874015748026
21
-3.8555118110236219
0
LINE
8
BLACK
6
CONTINUOUS
10
6.1257874015748026
20
-3.8555118110236219
11
6.1812992125984252
21
-3.8555118110236219
0
LINE
8
BLACK
6
CONTINUOUS
10
6.1812992125984252
20
-3.8555118110236219
11
6.1812992125984252
21
-3.7409448818897637
0
LINE
8
BLACK
6
CONTINUOUS
10
6.1812992125984252
20
-3.7409448818897637
11
6.1257874015748026
21
-3.7409448818897637
0
LINE
8
BLACK
6
CONTINUOUS
10
5.9933070866141733
20
-3.7330708661417322
11
5.9940030708661416
21
-3.7333591338582677
0
LINE
8
BLACK
6
CONTINUOUS
10
5.9940030708661416
20
-3.7333591338582677
11
5.994291338582677
21
-3.7340551181102359
0
LINE
8
BLACK
6
CONTINUOUS
10
5.994291338582677
20
-3.7340551181102359
11
5.994291338582677
21
-3.8505905511811025
0
LINE
8
BLACK
6
CONTINUOUS
10
5.994291338582677
20
-3.8505905511811025
11
5.9940030708661416
21
-3.8512865354330708
0
LINE
8
BLACK
6
CONTINUOUS
10
5.9940030708661416
20
-3.8512865354330708
11
5.9933070866141733
21
-3.8515748031496062
0
LINE
8
BLACK
6
CONTINUOUS
10
5.9933070866141733
20
-3.8515748031496062
11
5.9358267716535433
21
-3.8515748031496062
0
LINE
8
BLACK
6
CONTINUOUS
10
5.9358267716535433
20
-3.8515748031496062
11
5.9351307874015751
21
-3.8512865354330708
0
LINE
8
BLACK
6
CONTINUOUS
10
5.9351307874015751
20
-3.8512865354330708
11
5.9348425196850396
21
-3.8505905511811025
0
LINE
8
BLACK
6
CONTINUOUS
10
5.9348425196850396
20
-3.8505905511811025
11
5.9348425196850396
21
-3.7340551181102359
0
LINE
8
BLACK
6
CONTINUOUS
10
5.9348425196850396
20
-3.7340551181102359
11
5.9351307874015751
21
-3.7333591338582677
0
LINE
8
BLACK
6
CONTINUOUS
10
5.9351307874015751
20
-3.7333591338582677
11
5.9358267716535433
21
-3.7330708661417322
0
LINE
8
BLACK
6
CONTINUOUS
10
5.9358267716535433
20
-3.7330708661417322
11
5.9933070866141733
21
-3.7330708661417322
0
LINE
8
BLACK
6
CONTINUOUS
10
5.936811023622047
20
-3.7350393700787401
11
5.936811023622047
21
-3.8496062992125983
0
LINE
8
BLACK
6
CONTINUOUS
10
5.936811023622047
20
-3.8496062992125983
11
5.9923228346456687
21
-3.8496062992125983
0
LINE
8
BLACK
6
CONTINUOUS
10
5.9923228346456687
20
-3.8496062992125983
11
5.9923228346456687
21
-3.7350393700787401
0
LINE
8
BLACK
6
CONTINUOUS
10
5.9923228346456687
20
-3.7350393700787401
11
5.936811023622047
21
-3.7350393700787401
0
LINE
8
BLACK
6
CONTINUOUS
10
6.0641732283464567
20
-3.7330708661417322
11
6.0648692125984249
21
-3.7333591338582677
0
LINE
8
BLACK
6
CONTINUOUS
10
6.0648692125984249
20
-3.7333591338582677
11
6.0651574803149604
21
-3.7340551181102359
0
LINE
8
BLACK
6
CONTINUOUS
10
6.0651574803149604
20
-3.7340551181102359
11
6.0651574803149604
21
-3.8505905511811025
0
LINE
8
BLACK
6
CONTINUOUS
10
6.0651574803149604
20
-3.8505905511811025
11
6.0648692125984249
21
-3.8512865354330708
0
LINE
8
BLACK
6
CONTINUOUS
10
6.0648692125984249
20
-3.8512865354330708
11
6.0641732283464567
21
-3.8515748031496062
0
LINE
8
BLACK
6
CONTINUOUS
10
6.0641732283464567
20
-3.8515748031496062
11
6.0066929133858267
21
-3.8515748031496062
0
LINE
8
BLACK
6
CONTINUOUS
10
6.0066929133858267
20
-3.8515748031496062
11
6.0059969291338584
21
-3.8512865354330708
0
LINE
8
BLACK
6
CONTINUOUS
10
6.0059969291338584
20
-3.8512865354330708
11
6.005708661417323
21
-3.8505905511811025
0
LINE
8
BLACK
6
CONTINUOUS
10
6.005708661417323
20
-3.8505905511811025
11
6.005708661417323
21
-3.7340551181102359
0
LINE
8
BLACK
6
CONTINUOUS
10
6.005708661417323
20
-3.7340551181102359
11
6.0059969291338584
21
-3.7333591338582677
0
LINE
8
BLACK
6
CONTINUOUS
10
6.0059969291338584
20
-3.7333591338582677
11
6.0066929133858267
21
-3.7330708661417322
0
LINE
8
BLACK
6
CONTINUOUS
10
6.0066929133858267
20
-3.7330708661417322
11
6.0641732283464567
21
-3.7330708661417322
0
LINE
8
BLACK
6
CONTINUOUS
10
6.0076771653543304
20
-3.7350393700787401
11
6.0076771653543304
21
-3.8496062992125983
0
LINE
8
BLACK
6
CONTINUOUS
10
6.0076771653543304
20
-3.8496062992125983
11
6.063188976377953
21
-3.8496062992125983
0
LINE
8
BLACK
6
CONTINUOUS
10
6.063188976377953
20
-3.8496062992125983
11
6.063188976377953
21
-3.7350393700787401
0
LINE
8
BLACK
6
CONTINUOUS
10
6.063188976377953
20
-3.7350393700787401
11
6.0076771653543304
21
-3.7350393700787401
0
LINE
8
BLACK
6
CONTINUOUS
10
6.0266141732283467
20
-3.6631889763779526
11
6.027310157480315
21
-3.6634772440944881
0
LINE
8
BLACK
6
CONTINUOUS
10
6.027310157480315
20
-3.6634772440944881
11
6.0275984251968504
21
-3.6641732283464568
0
LINE
8
BLACK
6
CONTINUOUS
10
6.0275984251968504
20
-3.6641732283464568
11
6.0275984251968504
21
-3.7216535433070863
0
LINE
8
BLACK
6
CONTINUOUS
10
6.0275984251968504
20
-3.7216535433070863
11
6.027310157480315
21
-3.722349527559055
0
LINE
8
BLACK
6
CONTINUOUS
10
6.027310157480315
20
-3.722349527559055
11
6.0266141732283467
21
-3.7226377952755905
0
LINE
8
BLACK
6
CONTINUOUS
10
6.0266141732283467
20
-3.7226377952755905
11
5.9100787401574806
21
-3.7226377952755905
0
LINE
8
BLACK
6
CONTINUOUS
10
5.9100787401574806
20
-3.7226377952755905
11
5.9093827559055114
21
-3.722349527559055
0
LINE
8
BLACK
6
CONTINUOUS
10
5.9093827559055114
20
-3.722349527559055
11
5.909094488188976
21
-3.7216535433070863
0
LINE
8
BLACK
6
CONTINUOUS
10
5.909094488188976
20
-3.7216535433070863
11
5.909094488188976
21
-3.6641732283464568
0
LINE
8
BLACK
6
CONTINUOUS
10
5.909094488188976
20
-3.6641732283464568
11
5.9093827559055114
21
-3.6634772440944881
0
LINE
8
BLACK
6
CONTINUOUS
10
5.9093827559055114
20
-3.6634772440944881
11
5.9100787401574806
21
-3.6631889763779526
0
LINE
8
BLACK
6
CONTINUOUS
10
5.9100787401574806
20
-3.6631889763779526
11
6.0266141732283467
21
-3.6631889763779526
0
LINE
8
BLACK
6
CONTINUOUS
10
5.9110629921259843
20
-3.6651574803149605
11
5.9110629921259843
21
-3.7206692913385826
0
LINE
8
BLACK
6
CONTINUOUS
10
5.9110629921259843
20
-3.7206692913385826
11
6.0256299212598421
21
-3.7206692913385826
0
LINE
8
BLACK
6
CONTINUOUS
10
6.0256299212598421
20
-3.7206692913385826
11
6.0256299212598421
21
-3.6651574803149605
0
LINE
8
BLACK
6
CONTINUOUS
10
6.0256299212598421
20
-3.6651574803149605
11
5.9110629921259843
21
-3.6651574803149605
0
LINE
8
BLACK
6
CONTINUOUS
10
5.7270866141732286
20
-3.5783070866141733
11
5.7277825984251969
21
-3.5785953543307087
0
LINE
8
BLACK
6
CONTINUOUS
10
5.7277825984251969
20
-3.5785953543307087
11
5.7280708661417323
21
-3.579291338582677
0
LINE
8
BLACK
6
CONTINUOUS
10
5.7280708661417323
20
-3.579291338582677
11
5.7280708661417323
21
-3.6958267716535431
0
LINE
8
BLACK
6
CONTINUOUS
10
5.7280708661417323
20
-3.6958267716535431
11
5.7277825984251969
21
-3.6965227559055118
0
LINE
8
BLACK
6
CONTINUOUS
10
5.7277825984251969
20
-3.6965227559055118
11
5.7270866141732286
21
-3.6968110236220473
0
LINE
8
BLACK
6
CONTINUOUS
10
5.7270866141732286
20
-3.6968110236220473
11
5.6696062992125986
21
-3.6968110236220473
0
LINE
8
BLACK
6
CONTINUOUS
10
5.6696062992125986
20
-3.6968110236220473
11
5.6689103149606295
21
-3.6965227559055118
0
LINE
8
BLACK
6
CONTINUOUS
10
5.6689103149606295
20
-3.6965227559055118
11
5.668622047244094
21
-3.6958267716535431
0
LINE
8
BLACK
6
CONTINUOUS
10
5.668622047244094
20
-3.6958267716535431
11
5.668622047244094
21
-3.579291338582677
0
LINE
8
BLACK
6
CONTINUOUS
10
5.668622047244094
20
-3.579291338582677
11
5.6689103149606295
21
-3.5785953543307087
0
LINE
8
BLACK
6
CONTINUOUS
10
5.6689103149606295
20
-3.5785953543307087
11
5.6696062992125986
21
-3.5783070866141733
0
LINE
8
BLACK
6
CONTINUOUS
10
5.6696062992125986
20
-3.5783070866141733
11
5.7270866141732286
21
-3.5783070866141733
0
LINE
8
BLACK
6
CONTINUOUS
10
5.6705905511811023
20
-3.5802755905511812
11
5.6705905511811023
21
-3.6948425196850394
0
LINE
8
BLACK
6
CONTINUOUS
10
5.6705905511811023
20
-3.6948425196850394
11
5.726102362204724
21
-3.6948425196850394
0
LINE
8
BLACK
6
CONTINUOUS
10
5.726102362204724
20
-3.6948425196850394
11
5.726102362204724
21
-3.5802755905511812
0
LINE
8
BLACK
6
CONTINUOUS
10
5.726102362204724
20
-3.5802755905511812
11
5.6705905511811023
21
-3.5802755905511812
0
LINE
8
BLACK
6
CONTINUOUS
10
5.5320866141732283
20
-3.5782677165354331
11
5.5327825984251966
21
-3.5785559842519685
0
LINE
8
BLACK
6
CONTINUOUS
10
5.5327825984251966
20
-3.5785559842519685
11
5.533070866141732
21
-3.5792519685039368
0
LINE
8
BLACK
6
CONTINUOUS
10
5.533070866141732
20
-3.5792519685039368
11
5.533070866141732
21
-3.6957874015748029
0
LINE
8
BLACK
6
CONTINUOUS
10
5.533070866141732
20
-3.6957874015748029
11
5.5327825984251966
21
-3.6964833858267716
0
LINE
8
BLACK
6
CONTINUOUS
10
5.5327825984251966
20
-3.6964833858267716
11
5.5320866141732283
21
-3.6967716535433071
0
LINE
8
BLACK
6
CONTINUOUS
10
5.5320866141732283
20
-3.6967716535433071
11
5.4746062992125983
21
-3.6967716535433071
0
LINE
8
BLACK
6
CONTINUOUS
10
5.4746062992125983
20
-3.6967716535433071
11
5.4739103149606301
21
-3.6964833858267716
0
LINE
8
BLACK
6
CONTINUOUS
10
5.4739103149606301
20
-3.6964833858267716
11
5.4736220472440946
21
-3.6957874015748029
0
LINE
8
BLACK
6
CONTINUOUS
10
5.4736220472440946
20
-3.6957874015748029
11
5.4736220472440946
21
-3.5792519685039368
0
LINE
8
BLACK
6
CONTINUOUS
10
5.4736220472440946
20
-3.5792519685039368
11
5.4739103149606301
21
-3.5785559842519685
0
LINE
8
BLACK
6
CONTINUOUS
10
5.4739103149606301
20
-3.5785559842519685
11
5.4746062992125983
21
-3.5782677165354331
0
LINE
8
BLACK
6
CONTINUOUS
10
5.4746062992125983
20
-3.5782677165354331
11
5.5320866141732283
21
-3.5782677165354331
0
LINE
8
BLACK
6
CONTINUOUS
10
5.4755905511811021
20
-3.5802362204724409
11
5.4755905511811021
21
-3.6948031496062992
0
LINE
8
BLACK
6
CONTINUOUS
10
5.4755905511811021
20
-3.6948031496062992
11
5.5311023622047246
21
-3.6948031496062992
0
LINE
8
BLACK
6
CONTINUOUS
10
5.5311023622047246
20
-3.6948031496062992
11
5.5311023622047246
21
-3.5802362204724409
0
LINE
8
BLACK
6
CONTINUOUS
10
5.5311023622047246
20
-3.5802362204724409
11
5.4755905511811021
21
-3.5802362204724409
0
LINE
8
BLACK
6
CONTINUOUS
10
5.6170866141732283
20
-3.5782677165354331
11
5.6177825984251966
21
-3.5785559842519685
0
LINE
8
BLACK
6
CONTINUOUS
10
5.6177825984251966
20
-3.5785559842519685
11
5.618070866141732
21
-3.5792519685039368
0
LINE
8
BLACK
6
CONTINUOUS
10
5.618070866141732
20
-3.5792519685039368
11
5.618070866141732
21
-3.6957874015748029
0
LINE
8
BLACK
6
CONTINUOUS
10
5.618070866141732
20
-3.6957874015748029
11
5.6177825984251966
21
-3.6964833858267716
0
LINE
8
BLACK
6
CONTINUOUS
10
5.6177825984251966
20
-3.6964833858267716
11
5.6170866141732283
21
-3.6967716535433071
0
LINE
8
BLACK
6
CONTINUOUS
10
5.6170866141732283
20
-3.6967716535433071
11
5.5596062992125983
21
-3.6967716535433071
0
LINE
8
BLACK
6
CONTINUOUS
10
5.5596062992125983
20
-3.6967716535433071
11
5.55891031496063
21
-3.6964833858267716
0
LINE
8
BLACK
6
CONTINUOUS
10
5.55891031496063
20
-3.6964833858267716
11
5.5586220472440946
21
-3.6957874015748029
0
LINE
8
BLACK
6
CONTINUOUS
10
5.5586220472440946
20
-3.6957874015748029
11
5.5586220472440946
21
-3.5792519685039368
0
LINE
8
BLACK
6
CONTINUOUS
10
5.5586220472440946
20
-3.5792519685039368
11
5.55891031496063
21
-3.5785559842519685
0
LINE
8
BLACK
6
CONTINUOUS
10
5.55891031496063
20
-3.5785559842519685
11
5.5596062992125983
21
-3.5782677165354331
0
LINE
8
BLACK
6
CONTINUOUS
10
5.5596062992125983
20
-3.5782677165354331
11
5.6170866141732283
21
-3.5782677165354331
0
LINE
8
BLACK
6
CONTINUOUS
10
5.560590551181102
20
-3.5802362204724409
11
5.560590551181102
21
-3.6948031496062992
0
LINE
8
BLACK
6
CONTINUOUS
10
5.560590551181102
20
-3.6948031496062992
11
5.6161023622047246
21
-3.6948031496062992
0
LINE
8
BLACK
6
CONTINUOUS
10
5.6161023622047246
20
-3.6948031496062992
11
5.6161023622047246
21
-3.5802362204724409
0
LINE
8
BLACK
6
CONTINUOUS
10
5.6161023622047246
20
-3.5802362204724409
11
5.560590551181102
21
-3.5802362204724409
0
LINE
8
BLACK
6
CONTINUOUS
10
5.8320866141732282
20
-3.5782677165354331
11
5.8327825984251964
21
-3.5785559842519685
0
LINE
8
BLACK
6
CONTINUOUS
10
5.8327825984251964
20
-3.5785559842519685
11
5.8330708661417319
21
-3.5792519685039368
0
LINE
8
BLACK
6
CONTINUOUS
10
5.8330708661417319
20
-3.5792519685039368
11
5.8330708661417319
21
-3.6957874015748029
0
LINE
8
BLACK
6
CONTINUOUS
10
5.8330708661417319
20
-3.6957874015748029
11
5.8327825984251964
21
-3.6964833858267716
0
LINE
8
BLACK
6
CONTINUOUS
10
5.8327825984251964
20
-3.6964833858267716
11
5.8320866141732282
21
-3.6967716535433071
0
LINE
8
BLACK
6
CONTINUOUS
10
5.8320866141732282
20
-3.6967716535433071
11
5.7746062992125982
21
-3.6967716535433071
0
LINE
8
BLACK
6
CONTINUOUS
10
5.7746062992125982
20
-3.6967716535433071
11
5.7739103149606299
21
-3.6964833858267716
0
LINE
8
BLACK
6
CONTINUOUS
10
5.7739103149606299
20
-3.6964833858267716
11
5.7736220472440944
21
-3.6957874015748029
0
LINE
8
BLACK
6
CONTINUOUS
10
5.7736220472440944
20
-3.6957874015748029
11
5.7736220472440944
21
-3.5792519685039368
0
LINE
8
BLACK
6
CONTINUOUS
10
5.7736220472440944
20
-3.5792519685039368
11
5.7739103149606299
21
-3.5785559842519685
0
LINE
8
BLACK
6
CONTINUOUS
10
5.7739103149606299
20
-3.5785559842519685
11
5.7746062992125982
21
-3.5782677165354331
0
LINE
8
BLACK
6
CONTINUOUS
10
5.7746062992125982
20
-3.5782677165354331
11
5.8320866141732282
21
-3.5782677165354331
0
LINE
8
BLACK
6
CONTINUOUS
10
5.7755905511811019
20
-3.5802362204724409
11
5.7755905511811019
21
-3.6948031496062992
0
LINE
8
BLACK
6
CONTINUOUS
10
5.7755905511811019
20
-3.6948031496062992
11
5.8311023622047244
21
-3.6948031496062992
0
LINE
8
BLACK
6
CONTINUOUS
10
5.8311023622047244
20
-3.6948031496062992
11
5.8311023622047244
21
-3.5802362204724409
0
LINE
8
BLACK
6
CONTINUOUS
10
5.8311023622047244
20
-3.5802362204724409
11
5.7755905511811019
21
-3.5802362204724409
0
LINE
8
BLACK
6
CONTINUOUS
10
6.0266141732283467
20
-3.600314960629921
11
6.027310157480315
21
-3.6006032283464564
0
LINE
8
BLACK
6
CONTINUOUS
10
6.027310157480315
20
-3.6006032283464564
11
6.0275984251968504
21
-3.6012992125984251
0
LINE
8
BLACK
6
CONTINUOUS
10
6.0275984251968504
20
-3.6012992125984251
11
6.0275984251968504
21
-3.6587795275590551
0
LINE
8
BLACK
6
CONTINUOUS
10
6.0275984251968504
20
-3.6587795275590551
11
6.027310157480315
21
-3.6594755118110234
0
LINE
8
BLACK
6
CONTINUOUS
10
6.027310157480315
20
-3.6594755118110234
11
6.0266141732283467
21
-3.6597637795275588
0
LINE
8
BLACK
6
CONTINUOUS
10
6.0266141732283467
20
-3.6597637795275588
11
5.9100787401574806
21
-3.6597637795275588
0
LINE
8
BLACK
6
CONTINUOUS
10
5.9100787401574806
20
-3.6597637795275588
11
5.9093827559055114
21
-3.6594755118110234
0
LINE
8
BLACK
6
CONTINUOUS
10
5.9093827559055114
20
-3.6594755118110234
11
5.909094488188976
21
-3.6587795275590551
0
LINE
8
BLACK
6
CONTINUOUS
10
5.909094488188976
20
-3.6587795275590551
11
5.909094488188976
21
-3.6012992125984251
0
LINE
8
BLACK
6
CONTINUOUS
10
5.909094488188976
20
-3.6012992125984251
11
5.9093827559055114
21
-3.6006032283464564
0
LINE
8
BLACK
6
CONTINUOUS
10
5.9093827559055114
20
-3.6006032283464564
11
5.9100787401574806
21
-3.600314960629921
0
LINE
8
BLACK
6
CONTINUOUS
10
5.9100787401574806
20
-3.600314960629921
11
6.0266141732283467
21
-3.600314960629921
0
LINE
8
BLACK
6
CONTINUOUS
10
5.9110629921259843
20
-3.6022834645669293
11
5.9110629921259843
21
-3.657795275590551
0
LINE
8
BLACK
6
CONTINUOUS
10
5.9110629921259843
20
-3.657795275590551
11
6.0256299212598421
21
-3.657795275590551
0
LINE
8
BLACK
6
CONTINUOUS
10
6.0256299212598421
20
-3.657795275590551
11
6.0256299212598421
21
-3.6022834645669293
0
LINE
8
BLACK
6
CONTINUOUS
10
6.0256299212598421
20
-3.6022834645669293
11
5.9110629921259843
21
-3.6022834645669293
0
LINE
8
BLACK
6
CONTINUOUS
10
6.1524588188976379
20
-3.5765524015748031
11
6.1589078740157479
21
-3.5788090157480315
0
LINE
8
BLACK
6
CONTINUOUS
10
6.1589078740157479
20
-3.5788090157480315
11
6.1646931102362199
21
-3.5824441338582678
0
LINE
8
BLACK
6
CONTINUOUS
10
6.1646931102362199
20
-3.5824441338582678
11
6.1695243700787401
21
-3.5872753937007875
0
LINE
8
BLACK
6
CONTINUOUS
10
6.1695243700787401
20
-3.5872753937007875
11
6.1731594881889764
21
-3.59306062992126
0
LINE
8
BLACK
6
CONTINUOUS
10
6.1731594881889764
20
-3.59306062992126
11
6.1754161023622043
21
-3.59950968503937
0
LINE
8
BLACK
6
CONTINUOUS
10
6.1754161023622043
20
-3.59950968503937
11
6.1761811023622046
21
-3.606299212598425
0
LINE
8
BLACK
6
CONTINUOUS
10
6.1761811023622046
20
-3.606299212598425
11
6.1754161023622043
21
-3.61308874015748
0
LINE
8
BLACK
6
CONTINUOUS
10
6.1754161023622043
20
-3.61308874015748
11
6.1731594881889764
21
-3.6195377952755905
0
LINE
8
BLACK
6
CONTINUOUS
10
6.1731594881889764
20
-3.6195377952755905
11
6.1695243700787401
21
-3.6253230314960629
0
LINE
8
BLACK
6
CONTINUOUS
10
6.1695243700787401
20
-3.6253230314960629
11
6.1646931102362199
21
-3.6301542913385827
0
LINE
8
BLACK
6
CONTINUOUS
10
6.1646931102362199
20
-3.6301542913385827
11
6.1589078740157479
21
-3.633789409448819
0
LINE
8
BLACK
6
CONTINUOUS
10
6.1589078740157479
20
-3.633789409448819
11
6.1524588188976379
21
-3.6360460236220473
0
LINE
8
BLACK
6
CONTINUOUS
10
6.1524588188976379
20
-3.6360460236220473
11
6.1456692913385824
21
-3.6368110236220472
0
LINE
8
BLACK
6
CONTINUOUS
10
6.1456692913385824
20
-3.6368110236220472
11
6.1388797637795278
21
-3.6360460236220473
0
LINE
8
BLACK
6
CONTINUOUS
10
6.1388797637795278
20
-3.6360460236220473
11
6.1324307086614169
21
-3.633789409448819
0
LINE
8
BLACK
6
CONTINUOUS
10
6.1324307086614169
20
-3.633789409448819
11
6.1266454724409449
21
-3.6301542913385827
0
LINE
8
BLACK
6
CONTINUOUS
10
6.1266454724409449
20
-3.6301542913385827
11
6.1218142125984247
21
-3.6253230314960629
0
LINE
8
BLACK
6
CONTINUOUS
10
6.1218142125984247
20
-3.6253230314960629
11
6.1181790944881884
21
-3.6195377952755905
0
LINE
8
BLACK
6
CONTINUOUS
10
6.1181790944881884
20
-3.6195377952755905
11
6.1159224803149606
21
-3.61308874015748
0
LINE
8
BLACK
6
CONTINUOUS
10
6.1159224803149606
20
-3.61308874015748
11
6.1151574803149602
21
-3.606299212598425
0
LINE
8
BLACK
6
CONTINUOUS
10
6.1151574803149602
20
-3.606299212598425
11
6.1159224803149606
21
-3.59950968503937
0
LINE
8
BLACK
6
CONTINUOUS
10
6.1159224803149606
20
-3.59950968503937
11
6.1181790944881884
21
-3.59306062992126
0
LINE
8
BLACK
6
CONTINUOUS
10
6.1181790944881884
20
-3.59306062992126
11
6.1218142125984247
21
-3.5872753937007875
0
LINE
8
BLACK
6
CONTINUOUS
10
6.1218142125984247
20
-3.5872753937007875
11
6.1266454724409449
21
-3.5824441338582678
0
LINE
8
BLACK
6
CONTINUOUS
10
6.1266454724409449
20
-3.5824441338582678
11
6.1324307086614169
21
-3.5788090157480315
0
LINE
8
BLACK
6
CONTINUOUS
10
6.1324307086614169
20
-3.5788090157480315
11
6.1388797637795278
21
-3.5765524015748031
0
LINE
8
BLACK
6
CONTINUOUS
10
6.1388797637795278
20
-3.5765524015748031
11
6.1456692913385824
21
-3.5757874015748032
0
LINE
8
BLACK
6
CONTINUOUS
10
6.1456692913385824
20
-3.5757874015748032
11
6.1524588188976379
21
-3.5765524015748031
0
LINE
8
BLACK
6
CONTINUOUS
10
6.1176655511811022
20
-3.6126908661417323
11
6.1197899606299213
21
-3.6187620472440942
0
LINE
8
BLACK
6
CONTINUOUS
10
6.1197899606299213
20
-3.6187620472440942
11
6.1232120472440945
21
-3.6242082677165355
0
LINE
8
BLACK
6
CONTINUOUS
10
6.1232120472440945
20
-3.6242082677165355
11
6.1277602362204719
21
-3.6287564566929134
0
LINE
8
BLACK
6
CONTINUOUS
10
6.1277602362204719
20
-3.6287564566929134
11
6.1332064566929132
21
-3.6321785433070866
0
LINE
8
BLACK
6
CONTINUOUS
10
6.1332064566929132
20
-3.6321785433070866
11
6.1392776377952751
21
-3.6343029527559056
0
LINE
8
BLACK
6
CONTINUOUS
10
6.1392776377952751
20
-3.6343029527559056
11
6.1456692913385824
21
-3.6350231102362205
0
LINE
8
BLACK
6
CONTINUOUS
10
6.1456692913385824
20
-3.6350231102362205
11
6.1520609448818897
21
-3.6343029527559056
0
LINE
8
BLACK
6
CONTINUOUS
10
6.1520609448818897
20
-3.6343029527559056
11
6.1581321259842516
21
-3.6321785433070866
0
LINE
8
BLACK
6
CONTINUOUS
10
6.1581321259842516
20
-3.6321785433070866
11
6.1635783464566929
21
-3.6287564566929134
0
LINE
8
BLACK
6
CONTINUOUS
10
6.1635783464566929
20
-3.6287564566929134
11
6.1681265354330703
21
-3.6242082677165355
0
LINE
8
BLACK
6
CONTINUOUS
10
6.1681265354330703
20
-3.6242082677165355
11
6.1715486220472435
21
-3.6187620472440942
0
LINE
8
BLACK
6
CONTINUOUS
10
6.1715486220472435
20
-3.6187620472440942
11
6.1736730314960626
21
-3.6126908661417323
0
LINE
8
BLACK
6
CONTINUOUS
10
6.1736730314960626
20
-3.6126908661417323
11
6.1743931889763779
21
-3.606299212598425
0
LINE
8
BLACK
6
CONTINUOUS
10
6.1743931889763779
20
-3.606299212598425
11
6.1736730314960626
21
-3.5999075590551182
0
LINE
8
BLACK
6
CONTINUOUS
10
6.1736730314960626
20
-3.5999075590551182
11
6.1715486220472435
21
-3.5938363779527558
0
LINE
8
BLACK
6
CONTINUOUS
10
6.1715486220472435
20
-3.5938363779527558
11
6.1681265354330703
21
-3.588390157480315
0
LINE
8
BLACK
6
CONTINUOUS
10
6.1681265354330703
20
-3.588390157480315
11
6.1635783464566929
21
-3.5838419685039371
0
LINE
8
BLACK
6
CONTINUOUS
10
6.1635783464566929
20
-3.5838419685039371
11
6.1581321259842516
21
-3.5804198818897639
0
LINE
8
BLACK
6
CONTINUOUS
10
6.1581321259842516
20
-3.5804198818897639
11
6.1520609448818897
21
-3.5782954724409448
0
LINE
8
BLACK
6
CONTINUOUS
10
6.1520609448818897
20
-3.5782954724409448
11
6.1456692913385824
21
-3.57757531496063
0
LINE
8
BLACK
6
CONTINUOUS
10
6.1456692913385824
20
-3.57757531496063
11
6.1392776377952751
21
-3.5782954724409448
0
LINE
8
BLACK
6
CONTINUOUS
10
6.1392776377952751
20
-3.5782954724409448
11
6.1332064566929132
21
-3.5804198818897639
0
LINE
8
BLACK
6
CONTINUOUS
10
6.1332064566929132
20
-3.5804198818897639
11
6.1277602362204719
21
-3.5838419685039371
0
LINE
8
BLACK
6
CONTINUOUS
10
6.1277602362204719
20
-3.5838419685039371
11
6.1232120472440945
21
-3.588390157480315
0
LINE
8
BLACK
6
CONTINUOUS
10
6.1232120472440945
20
-3.588390157480315
11
6.1197899606299213
21
-3.5938363779527558
0
LINE
8
BLACK
6
CONTINUOUS
10
6.1197899606299213
20
-3.5938363779527558
11
6.1176655511811022
21
-3.5999075590551182
0
LINE
8
BLACK
6
CONTINUOUS
10
6.1176655511811022
20
-3.5999075590551182
11
6.1169453937007869
21
-3.606299212598425
0
LINE
8
BLACK
6
CONTINUOUS
10
6.1169453937007869
20
-3.606299212598425
11
6.1176655511811022
21
-3.6126908661417323
0
LINE
8
BLACK
6
CONTINUOUS
10
6.1827755905511808
20
-3.4852362204724407
11
6.1834715748031499
21
-3.4855244881889762
0
LINE
8
BLACK
6
CONTINUOUS
10
6.1834715748031499
20
-3.4855244881889762
11
6.1837598425196845
21
-3.4862204724409449
0
LINE
8
BLACK
6
CONTINUOUS
10
6.1837598425196845
20
-3.4862204724409449
11
6.1837598425196845
21
-3.561023622047244
0
LINE
8
BLACK
6
CONTINUOUS
10
6.1837598425196845
20
-3.561023622047244
11
6.1834715748031499
21
-3.5617196062992127
0
LINE
8
BLACK
6
CONTINUOUS
10
6.1834715748031499
20
-3.5617196062992127
11
6.1827755905511808
21
-3.5620078740157481
0
LINE
8
BLACK
6
CONTINUOUS
10
6.1827755905511808
20
-3.5620078740157481
11
6.0504921259842517
21
-3.5620078740157481
0
LINE
8
BLACK
6
CONTINUOUS
10
6.0504921259842517
20
-3.5620078740157481
11
6.0497961417322834
21
-3.5617196062992127
0
LINE
8
BLACK
6
CONTINUOUS
10
6.0497961417322834
20
-3.5617196062992127
11
6.049507874015748
21
-3.561023622047244
0
LINE
8
BLACK
6
CONTINUOUS
10
6.049507874015748
20
-3.561023622047244
11
6.049507874015748
21
-3.4862204724409449
0
LINE
8
BLACK
6
CONTINUOUS
10
6.049507874015748
20
-3.4862204724409449
11
6.0497961417322834
21
-3.4855244881889762
0
LINE
8
BLACK
6
CONTINUOUS
10
6.0497961417322834
20
-3.4855244881889762
11
6.0504921259842517
21
-3.4852362204724407
0
LINE
8
BLACK
6
CONTINUOUS
10
6.0504921259842517
20
-3.4852362204724407
11
6.1827755905511808
21
-3.4852362204724407
0
LINE
8
BLACK
6
CONTINUOUS
10
6.0514763779527554
20
-3.4872047244094486
11
6.0514763779527554
21
-3.5600393700787403
0
LINE
8
BLACK
6
CONTINUOUS
10
6.0514763779527554
20
-3.5600393700787403
11
6.181791338582677
21
-3.5600393700787403
0
LINE
8
BLACK
6
CONTINUOUS
10
6.181791338582677
20
-3.5600393700787403
11
6.181791338582677
21
-3.4872047244094486
0
LINE
8
BLACK
6
CONTINUOUS
10
6.181791338582677
20
-3.4872047244094486
11
6.0514763779527554
21
-3.4872047244094486
0
LINE
8
BLACK
6
CONTINUOUS
10
5.5639370078740154
20
-3.4177952755905512
11
5.5646329921259845
21
-3.4180835433070866
0
LINE
8
BLACK
6
CONTINUOUS
10
5.5646329921259845
20
-3.4180835433070866
11
5.56492125984252
21
-3.4187795275590549
0
LINE
8
BLACK
6
CONTINUOUS
10
5.56492125984252
20
-3.4187795275590549
11
5.56492125984252
21
-3.535314960629921
0
LINE
8
BLACK
6
CONTINUOUS
10
5.56492125984252
20
-3.535314960629921
11
5.5646329921259845
21
-3.5360109448818897
0
LINE
8
BLACK
6
CONTINUOUS
10
5.5646329921259845
20
-3.5360109448818897
11
5.5639370078740154
21
-3.5362992125984252
0
LINE
8
BLACK
6
CONTINUOUS
10
5.5639370078740154
20
-3.5362992125984252
11
5.5064566929133854
21
-3.5362992125984252
0
LINE
8
BLACK
6
CONTINUOUS
10
5.5064566929133854
20
-3.5362992125984252
11
5.5057607086614171
21
-3.5360109448818897
0
LINE
8
BLACK
6
CONTINUOUS
10
5.5057607086614171
20
-3.5360109448818897
11
5.5054724409448816
21
-3.535314960629921
0
LINE
8
BLACK
6
CONTINUOUS
10
5.5054724409448816
20
-3.535314960629921
11
5.5054724409448816
21
-3.4187795275590549
0
LINE
8
BLACK
6
CONTINUOUS
10
5.5054724409448816
20
-3.4187795275590549
11
5.5057607086614171
21
-3.4180835433070866
0
LINE
8
BLACK
6
CONTINUOUS
10
5.5057607086614171
20
-3.4180835433070866
11
5.5064566929133854
21
-3.4177952755905512
0
LINE
8
BLACK
6
CONTINUOUS
10
5.5064566929133854
20
-3.4177952755905512
11
5.5639370078740154
21
-3.4177952755905512
0
LINE
8
BLACK
6
CONTINUOUS
10
5.50744094488189
20
-3.4197637795275591
11
5.50744094488189
21
-3.5343307086614173
0
LINE
8
BLACK
6
CONTINUOUS
10
5.50744094488189
20
-3.5343307086614173
11
5.5629527559055116
21
-3.5343307086614173
0
LINE
8
BLACK
6
CONTINUOUS
10
5.5629527559055116
20
-3.5343307086614173
11
5.5629527559055116
21
-3.4197637795275591
0
LINE
8
BLACK
6
CONTINUOUS
10
5.5629527559055116
20
-3.4197637795275591
11
5.50744094488189
21
-3.4197637795275591
0
LINE
8
BLACK
6
CONTINUOUS
10
5.6820472440944885
20
-3.4177952755905512
11
5.6827432283464567
21
-3.4180835433070866
0
LINE
8
BLACK
6
CONTINUOUS
10
5.6827432283464567
20
-3.4180835433070866
11
5.6830314960629922
21
-3.4187795275590549
0
LINE
8
BLACK
6
CONTINUOUS
10
5.6830314960629922
20
-3.4187795275590549
11
5.6830314960629922
21
-3.535314960629921
0
LINE
8
BLACK
6
CONTINUOUS
10
5.6830314960629922
20
-3.535314960629921
11
5.6827432283464567
21
-3.5360109448818897
0
LINE
8
BLACK
6
CONTINUOUS
10
5.6827432283464567
20
-3.5360109448818897
11
5.6820472440944885
21
-3.5362992125984252
0
LINE
8
BLACK
6
CONTINUOUS
10
5.6820472440944885
20
-3.5362992125984252
11
5.6245669291338585
21
-3.5362992125984252
0
LINE
8
BLACK
6
CONTINUOUS
10
5.6245669291338585
20
-3.5362992125984252
11
5.6238709448818893
21
-3.5360109448818897
0
LINE
8
BLACK
6
CONTINUOUS
10
5.6238709448818893
20
-3.5360109448818897
11
5.6235826771653539
21
-3.535314960629921
0
LINE
8
BLACK
6
CONTINUOUS
10
5.6235826771653539
20
-3.535314960629921
11
5.6235826771653539
21
-3.4187795275590549
0
LINE
8
BLACK
6
CONTINUOUS
10
5.6235826771653539
20
-3.4187795275590549
11
5.6238709448818893
21
-3.4180835433070866
0
LINE
8
BLACK
6
CONTINUOUS
10
5.6238709448818893
20
-3.4180835433070866
11
5.6245669291338585
21
-3.4177952755905512
0
LINE
8
BLACK
6
CONTINUOUS
10
5.6245669291338585
20
-3.4177952755905512
11
5.6820472440944885
21
-3.4177952755905512
0
LINE
8
BLACK
6
CONTINUOUS
10
5.6255511811023622
20
-3.4197637795275591
11
5.6255511811023622
21
-3.5343307086614173
0
LINE
8
BLACK
6
CONTINUOUS
10
5.6255511811023622
20
-3.5343307086614173
11
5.6810629921259839
21
-3.5343307086614173
0
LINE
8
BLACK
6
CONTINUOUS
10
5.6810629921259839
20
-3.5343307086614173
11
5.6810629921259839
21
-3.4197637795275591
0
LINE
8
BLACK
6
CONTINUOUS
10
5.6810629921259839
20
-3.4197637795275591
11
5.6255511811023622
21
-3.4197637795275591
  0
ENDSEC
  0
EOF
