  0
SECTION
  2
HEADER
  9
$ANGBASE
  50
0.0
  9
$ANGDIR
  70
1
  9
$MEASUREMENT
  70
0
  0
ENDSEC
  0
SECTION
  2
TABLES
  0
TABLE
  2
LTYPE
  70
4
  0
LTYPE
  5
40F
  2
CONTINUOUS
  70
0
  3
Solid line
  72
65
  73
0
  40
0.0
  0
LTYPE
  5
410
  2
DASHDOT
 70
0
  3
Dash Dot ____ _ ____ _
 72
65
 73
4
 40
2.0
 49
1.25
 49
-0.25
 49
0.25
 49
-0.25
  0
LTYPE
  5
411
  2
DASHED
 70
0
  3
Dashed __ __ __ __ __
 72
65
 73
2
 40
0.75
 49
0.5
 49
-0.25
  0
LTYPE
  5
43B
  2
DOTTED
 70
0
  3
Dotted .  .  .  .
 72
65
 73
2
 40
0.2
 49
0.0
 49
-0.2
  0
ENDTAB
  0
TABLE
  2
STYLE
  70
4
  0
STYLE
  2
KICAD
  70
0
  40
0
  41
1
  42
1
  50
0
  71
0
  3
isocp.shx
  0
STYLE
  2
KICADB
  70
0
  40
0
  41
1
  42
1
  50
0
  71
0
  3
isocp.shx
  0
STYLE
  2
KICADI
  70
0
  40
0
  41
1
  42
1
  50
15
  71
0
  3
isocp.shx
  0
STYLE
  2
KICADBI
  70
0
  40
0
  41
1
  42
1
  50
15
  71
0
  3
isocp.shx
  0
ENDTAB
  0
TABLE
  2
LAYER
  70
1
  0
LAYER
  2
BLACK
  70
0
  62
7
  6
CONTINUOUS
  0
ENDTAB
  0
ENDSEC
  0
SECTION
  2
ENTITIES
0
LINE
8
BLACK
6
CONTINUOUS
10
5.77258
20
-3.84002
11
5.77697
21
-3.84226
0
LINE
8
BLACK
6
CONTINUOUS
10
5.77697
20
-3.84226
11
5.78046
21
-3.84574
0
LINE
8
BLACK
6
CONTINUOUS
10
5.78046
20
-3.84574
11
5.78269
21
-3.85013
0
LINE
8
BLACK
6
CONTINUOUS
10
5.78269
20
-3.85013
11
5.78346
21
-3.855
0
LINE
8
BLACK
6
CONTINUOUS
10
5.78346
20
-3.855
11
5.78269
21
-3.85987
0
LINE
8
BLACK
6
CONTINUOUS
10
5.78269
20
-3.85987
11
5.78046
21
-3.86426
0
LINE
8
BLACK
6
CONTINUOUS
10
5.78046
20
-3.86426
11
5.77756
21
-3.86715
0
LINE
8
BLACK
6
CONTINUOUS
10
5.77756
20
-3.86715
11
5.77756
21
-3.93218
0
LINE
8
BLACK
6
CONTINUOUS
10
5.77756
20
-3.93218
11
5.77881
21
-3.93344
0
LINE
8
BLACK
6
CONTINUOUS
10
5.77881
20
-3.93344
11
5.78039
21
-3.93319
0
LINE
8
BLACK
6
CONTINUOUS
10
5.78039
20
-3.93319
11
5.78526
21
-3.93396
0
LINE
8
BLACK
6
CONTINUOUS
10
5.78526
20
-3.93396
11
5.78965
21
-3.9362
0
LINE
8
BLACK
6
CONTINUOUS
10
5.78965
20
-3.9362
11
5.79313
21
-3.93968
0
LINE
8
BLACK
6
CONTINUOUS
10
5.79313
20
-3.93968
11
5.79537
21
-3.94407
0
LINE
8
BLACK
6
CONTINUOUS
10
5.79537
20
-3.94407
11
5.79614
21
-3.94894
0
LINE
8
BLACK
6
CONTINUOUS
10
5.79614
20
-3.94894
11
5.79537
21
-3.9538
0
LINE
8
BLACK
6
CONTINUOUS
10
5.79537
20
-3.9538
11
5.79313
21
-3.95819
0
LINE
8
BLACK
6
CONTINUOUS
10
5.79313
20
-3.95819
11
5.78965
21
-3.96168
0
LINE
8
BLACK
6
CONTINUOUS
10
5.78965
20
-3.96168
11
5.78526
21
-3.96391
0
LINE
8
BLACK
6
CONTINUOUS
10
5.78526
20
-3.96391
11
5.78039
21
-3.96469
0
LINE
8
BLACK
6
CONTINUOUS
10
5.78039
20
-3.96469
11
5.77819
21
-3.96434
0
LINE
8
BLACK
6
CONTINUOUS
10
5.77819
20
-3.96434
11
5.77819
21
-4.02288
0
LINE
8
BLACK
6
CONTINUOUS
10
5.77819
20
-4.02288
11
5.78109
21
-4.02578
0
LINE
8
BLACK
6
CONTINUOUS
10
5.78109
20
-4.02578
11
5.78332
21
-4.03017
0
LINE
8
BLACK
6
CONTINUOUS
10
5.78332
20
-4.03017
11
5.78409
21
-4.03504
0
LINE
8
BLACK
6
CONTINUOUS
10
5.78409
20
-4.03504
11
5.78332
21
-4.03991
0
LINE
8
BLACK
6
CONTINUOUS
10
5.78332
20
-4.03991
11
5.78109
21
-4.0443
0
LINE
8
BLACK
6
CONTINUOUS
10
5.78109
20
-4.0443
11
5.7776
21
-4.04778
0
LINE
8
BLACK
6
CONTINUOUS
10
5.7776
20
-4.04778
11
5.77321
21
-4.05002
0
LINE
8
BLACK
6
CONTINUOUS
10
5.77321
20
-4.05002
11
5.76835
21
-4.05079
0
LINE
8
BLACK
6
CONTINUOUS
10
5.76835
20
-4.05079
11
5.76348
21
-4.05002
0
LINE
8
BLACK
6
CONTINUOUS
10
5.76348
20
-4.05002
11
5.75909
21
-4.04778
0
LINE
8
BLACK
6
CONTINUOUS
10
5.75909
20
-4.04778
11
5.75561
21
-4.0443
0
LINE
8
BLACK
6
CONTINUOUS
10
5.75561
20
-4.0443
11
5.75337
21
-4.03991
0
LINE
8
BLACK
6
CONTINUOUS
10
5.75337
20
-4.03991
11
5.7526
21
-4.03504
0
LINE
8
BLACK
6
CONTINUOUS
10
5.7526
20
-4.03504
11
5.75337
21
-4.03017
0
LINE
8
BLACK
6
CONTINUOUS
10
5.75337
20
-4.03017
11
5.75561
21
-4.02578
0
LINE
8
BLACK
6
CONTINUOUS
10
5.75561
20
-4.02578
11
5.7585
21
-4.02288
0
LINE
8
BLACK
6
CONTINUOUS
10
5.7585
20
-4.02288
11
5.7585
21
-3.93943
0
LINE
8
BLACK
6
CONTINUOUS
10
5.7585
20
-3.93943
11
5.75787
21
-3.93626
0
LINE
8
BLACK
6
CONTINUOUS
10
5.75787
20
-3.93626
11
5.75787
21
-3.93626
0
LINE
8
BLACK
6
CONTINUOUS
10
5.75787
20
-3.93626
11
5.75787
21
-3.86715
0
LINE
8
BLACK
6
CONTINUOUS
10
5.75787
20
-3.86715
11
5.75498
21
-3.86426
0
LINE
8
BLACK
6
CONTINUOUS
10
5.75498
20
-3.86426
11
5.75274
21
-3.85987
0
LINE
8
BLACK
6
CONTINUOUS
10
5.75274
20
-3.85987
11
5.75197
21
-3.855
0
LINE
8
BLACK
6
CONTINUOUS
10
5.75197
20
-3.855
11
5.75274
21
-3.85013
0
LINE
8
BLACK
6
CONTINUOUS
10
5.75274
20
-3.85013
11
5.75498
21
-3.84574
0
LINE
8
BLACK
6
CONTINUOUS
10
5.75498
20
-3.84574
11
5.75846
21
-3.84226
0
LINE
8
BLACK
6
CONTINUOUS
10
5.75846
20
-3.84226
11
5.76285
21
-3.84002
0
LINE
8
BLACK
6
CONTINUOUS
10
5.76285
20
-3.84002
11
5.76772
21
-3.83925
0
LINE
8
BLACK
6
CONTINUOUS
10
5.76772
20
-3.83925
11
5.77258
21
-3.84002
0
LINE
8
BLACK
6
CONTINUOUS
10
5.70321
20
-3.71006
11
5.7076
21
-3.7123
0
LINE
8
BLACK
6
CONTINUOUS
10
5.7076
20
-3.7123
11
5.71109
21
-3.71578
0
LINE
8
BLACK
6
CONTINUOUS
10
5.71109
20
-3.71578
11
5.71332
21
-3.72017
0
LINE
8
BLACK
6
CONTINUOUS
10
5.71332
20
-3.72017
11
5.71409
21
-3.72504
0
LINE
8
BLACK
6
CONTINUOUS
10
5.71409
20
-3.72504
11
5.71332
21
-3.72991
0
LINE
8
BLACK
6
CONTINUOUS
10
5.71332
20
-3.72991
11
5.71273
21
-3.73107
0
LINE
8
BLACK
6
CONTINUOUS
10
5.71273
20
-3.73107
11
5.95808
21
-3.97642
0
LINE
8
BLACK
6
CONTINUOUS
10
5.95808
20
-3.97642
11
5.96118
21
-3.97642
0
LINE
8
BLACK
6
CONTINUOUS
10
5.96118
20
-3.97642
11
5.96289
21
-3.97307
0
LINE
8
BLACK
6
CONTINUOUS
10
5.96289
20
-3.97307
11
5.96637
21
-3.96958
0
LINE
8
BLACK
6
CONTINUOUS
10
5.96637
20
-3.96958
11
5.97076
21
-3.96735
0
LINE
8
BLACK
6
CONTINUOUS
10
5.97076
20
-3.96735
11
5.97563
21
-3.96658
0
LINE
8
BLACK
6
CONTINUOUS
10
5.97563
20
-3.96658
11
5.9805
21
-3.96735
0
LINE
8
BLACK
6
CONTINUOUS
10
5.9805
20
-3.96735
11
5.98489
21
-3.96958
0
LINE
8
BLACK
6
CONTINUOUS
10
5.98489
20
-3.96958
11
5.98837
21
-3.97307
0
LINE
8
BLACK
6
CONTINUOUS
10
5.98837
20
-3.97307
11
5.99061
21
-3.97746
0
LINE
8
BLACK
6
CONTINUOUS
10
5.99061
20
-3.97746
11
5.99138
21
-3.98232
0
LINE
8
BLACK
6
CONTINUOUS
10
5.99138
20
-3.98232
11
5.99061
21
-3.98719
0
LINE
8
BLACK
6
CONTINUOUS
10
5.99061
20
-3.98719
11
5.98837
21
-3.99158
0
LINE
8
BLACK
6
CONTINUOUS
10
5.98837
20
-3.99158
11
5.98489
21
-3.99506
0
LINE
8
BLACK
6
CONTINUOUS
10
5.98489
20
-3.99506
11
5.9805
21
-3.9973
0
LINE
8
BLACK
6
CONTINUOUS
10
5.9805
20
-3.9973
11
5.97563
21
-3.99807
0
LINE
8
BLACK
6
CONTINUOUS
10
5.97563
20
-3.99807
11
5.97076
21
-3.9973
0
LINE
8
BLACK
6
CONTINUOUS
10
5.97076
20
-3.9973
11
5.96637
21
-3.99506
0
LINE
8
BLACK
6
CONTINUOUS
10
5.96637
20
-3.99506
11
5.96289
21
-3.99158
0
LINE
8
BLACK
6
CONTINUOUS
10
5.96289
20
-3.99158
11
5.96118
21
-3.98823
0
LINE
8
BLACK
6
CONTINUOUS
10
5.96118
20
-3.98823
11
5.95563
21
-3.98823
0
LINE
8
BLACK
6
CONTINUOUS
10
5.95563
20
-3.98823
11
5.95488
21
-3.98803
0
LINE
8
BLACK
6
CONTINUOUS
10
5.95488
20
-3.98803
11
5.9541
21
-3.98803
0
LINE
8
BLACK
6
CONTINUOUS
10
5.9541
20
-3.98803
11
5.95343
21
-3.98764
0
LINE
8
BLACK
6
CONTINUOUS
10
5.95343
20
-3.98764
11
5.95268
21
-3.98744
0
LINE
8
BLACK
6
CONTINUOUS
10
5.95268
20
-3.98744
11
5.95213
21
-3.98689
0
LINE
8
BLACK
6
CONTINUOUS
10
5.95213
20
-3.98689
11
5.95145
21
-3.9865
0
LINE
8
BLACK
6
CONTINUOUS
10
5.95145
20
-3.9865
11
5.70438
21
-3.73942
0
LINE
8
BLACK
6
CONTINUOUS
10
5.70438
20
-3.73942
11
5.70321
21
-3.74002
0
LINE
8
BLACK
6
CONTINUOUS
10
5.70321
20
-3.74002
11
5.69835
21
-3.74079
0
LINE
8
BLACK
6
CONTINUOUS
10
5.69835
20
-3.74079
11
5.69348
21
-3.74002
0
LINE
8
BLACK
6
CONTINUOUS
10
5.69348
20
-3.74002
11
5.68909
21
-3.73778
0
LINE
8
BLACK
6
CONTINUOUS
10
5.68909
20
-3.73778
11
5.68561
21
-3.7343
0
LINE
8
BLACK
6
CONTINUOUS
10
5.68561
20
-3.7343
11
5.68337
21
-3.72991
0
LINE
8
BLACK
6
CONTINUOUS
10
5.68337
20
-3.72991
11
5.6826
21
-3.72504
0
LINE
8
BLACK
6
CONTINUOUS
10
5.6826
20
-3.72504
11
5.68337
21
-3.72017
0
LINE
8
BLACK
6
CONTINUOUS
10
5.68337
20
-3.72017
11
5.68561
21
-3.71578
0
LINE
8
BLACK
6
CONTINUOUS
10
5.68561
20
-3.71578
11
5.68909
21
-3.7123
0
LINE
8
BLACK
6
CONTINUOUS
10
5.68909
20
-3.7123
11
5.69348
21
-3.71006
0
LINE
8
BLACK
6
CONTINUOUS
10
5.69348
20
-3.71006
11
5.69835
21
-3.70929
0
LINE
8
BLACK
6
CONTINUOUS
10
5.69835
20
-3.70929
11
5.70321
21
-3.71006
0
LINE
8
BLACK
6
CONTINUOUS
10
6.45821
20
-4.25006
11
6.4626
21
-4.2523
0
LINE
8
BLACK
6
CONTINUOUS
10
6.4626
20
-4.2523
11
6.46609
21
-4.25578
0
LINE
8
BLACK
6
CONTINUOUS
10
6.46609
20
-4.25578
11
6.46832
21
-4.26017
0
LINE
8
BLACK
6
CONTINUOUS
10
6.46832
20
-4.26017
11
6.46909
21
-4.26504
0
LINE
8
BLACK
6
CONTINUOUS
10
6.46909
20
-4.26504
11
6.46832
21
-4.26991
0
LINE
8
BLACK
6
CONTINUOUS
10
6.46832
20
-4.26991
11
6.46609
21
-4.2743
0
LINE
8
BLACK
6
CONTINUOUS
10
6.46609
20
-4.2743
11
6.4626
21
-4.27778
0
LINE
8
BLACK
6
CONTINUOUS
10
6.4626
20
-4.27778
11
6.45821
21
-4.28002
0
LINE
8
BLACK
6
CONTINUOUS
10
6.45821
20
-4.28002
11
6.45335
21
-4.28079
0
LINE
8
BLACK
6
CONTINUOUS
10
6.45335
20
-4.28079
11
6.44848
21
-4.28002
0
LINE
8
BLACK
6
CONTINUOUS
10
6.44848
20
-4.28002
11
6.44409
21
-4.27778
0
LINE
8
BLACK
6
CONTINUOUS
10
6.44409
20
-4.27778
11
6.44119
21
-4.27488
0
LINE
8
BLACK
6
CONTINUOUS
10
6.44119
20
-4.27488
11
6.1505
21
-4.27488
0
LINE
8
BLACK
6
CONTINUOUS
10
6.1505
20
-4.27488
11
6.1476
21
-4.27778
0
LINE
8
BLACK
6
CONTINUOUS
10
6.1476
20
-4.27778
11
6.14321
21
-4.28002
0
LINE
8
BLACK
6
CONTINUOUS
10
6.14321
20
-4.28002
11
6.13835
21
-4.28079
0
LINE
8
BLACK
6
CONTINUOUS
10
6.13835
20
-4.28079
11
6.13348
21
-4.28002
0
LINE
8
BLACK
6
CONTINUOUS
10
6.13348
20
-4.28002
11
6.12909
21
-4.27778
0
LINE
8
BLACK
6
CONTINUOUS
10
6.12909
20
-4.27778
11
6.12561
21
-4.2743
0
LINE
8
BLACK
6
CONTINUOUS
10
6.12561
20
-4.2743
11
6.12337
21
-4.26991
0
LINE
8
BLACK
6
CONTINUOUS
10
6.12337
20
-4.26991
11
6.1226
21
-4.26504
0
LINE
8
BLACK
6
CONTINUOUS
10
6.1226
20
-4.26504
11
6.12337
21
-4.26017
0
LINE
8
BLACK
6
CONTINUOUS
10
6.12337
20
-4.26017
11
6.12561
21
-4.25578
0
LINE
8
BLACK
6
CONTINUOUS
10
6.12561
20
-4.25578
11
6.12909
21
-4.2523
0
LINE
8
BLACK
6
CONTINUOUS
10
6.12909
20
-4.2523
11
6.13348
21
-4.25006
0
LINE
8
BLACK
6
CONTINUOUS
10
6.13348
20
-4.25006
11
6.13835
21
-4.24929
0
LINE
8
BLACK
6
CONTINUOUS
10
6.13835
20
-4.24929
11
6.14321
21
-4.25006
0
LINE
8
BLACK
6
CONTINUOUS
10
6.14321
20
-4.25006
11
6.1476
21
-4.2523
0
LINE
8
BLACK
6
CONTINUOUS
10
6.1476
20
-4.2523
11
6.1505
21
-4.2552
0
LINE
8
BLACK
6
CONTINUOUS
10
6.1505
20
-4.2552
11
6.44119
21
-4.2552
0
LINE
8
BLACK
6
CONTINUOUS
10
6.44119
20
-4.2552
11
6.44409
21
-4.2523
0
LINE
8
BLACK
6
CONTINUOUS
10
6.44409
20
-4.2523
11
6.44848
21
-4.25006
0
LINE
8
BLACK
6
CONTINUOUS
10
6.44848
20
-4.25006
11
6.45335
21
-4.24929
0
LINE
8
BLACK
6
CONTINUOUS
10
6.45335
20
-4.24929
11
6.45821
21
-4.25006
0
LINE
8
BLACK
6
CONTINUOUS
10
6.39069
20
-3.69368
11
6.39508
21
-3.69592
0
LINE
8
BLACK
6
CONTINUOUS
10
6.39508
20
-3.69592
11
6.39857
21
-3.6994
0
LINE
8
BLACK
6
CONTINUOUS
10
6.39857
20
-3.6994
11
6.4008
21
-3.70379
0
LINE
8
BLACK
6
CONTINUOUS
10
6.4008
20
-3.70379
11
6.40157
21
-3.70866
0
LINE
8
BLACK
6
CONTINUOUS
10
6.40157
20
-3.70866
11
6.4008
21
-3.71353
0
LINE
8
BLACK
6
CONTINUOUS
10
6.4008
20
-3.71353
11
6.39857
21
-3.71792
0
LINE
8
BLACK
6
CONTINUOUS
10
6.39857
20
-3.71792
11
6.39508
21
-3.7214
0
LINE
8
BLACK
6
CONTINUOUS
10
6.39508
20
-3.7214
11
6.3937
21
-3.72211
0
LINE
8
BLACK
6
CONTINUOUS
10
6.3937
20
-3.72211
11
6.3937
21
-3.75756
0
LINE
8
BLACK
6
CONTINUOUS
10
6.3937
20
-3.75756
11
6.39341
21
-3.75885
0
LINE
8
BLACK
6
CONTINUOUS
10
6.39341
20
-3.75885
11
6.39326
21
-3.76016
0
LINE
8
BLACK
6
CONTINUOUS
10
6.39326
20
-3.76016
11
6.39302
21
-3.76054
0
LINE
8
BLACK
6
CONTINUOUS
10
6.39302
20
-3.76054
11
6.39292
21
-3.76098
0
LINE
8
BLACK
6
CONTINUOUS
10
6.39292
20
-3.76098
11
6.3921
21
-3.76201
0
LINE
8
BLACK
6
CONTINUOUS
10
6.3921
20
-3.76201
11
6.39139
21
-3.76313
0
LINE
8
BLACK
6
CONTINUOUS
10
6.39139
20
-3.76313
11
6.33622
21
-3.8183
0
LINE
8
BLACK
6
CONTINUOUS
10
6.33622
20
-3.8183
11
6.33622
21
-4.02678
0
LINE
8
BLACK
6
CONTINUOUS
10
6.33622
20
-4.02678
11
6.41502
21
-4.10557
0
LINE
8
BLACK
6
CONTINUOUS
10
6.41502
20
-4.10557
11
6.41572
21
-4.10669
0
LINE
8
BLACK
6
CONTINUOUS
10
6.41572
20
-4.10669
11
6.41654
21
-4.10773
0
LINE
8
BLACK
6
CONTINUOUS
10
6.41654
20
-4.10773
11
6.41664
21
-4.10816
0
LINE
8
BLACK
6
CONTINUOUS
10
6.41664
20
-4.10816
11
6.41688
21
-4.10854
0
LINE
8
BLACK
6
CONTINUOUS
10
6.41688
20
-4.10854
11
6.41703
21
-4.10985
0
LINE
8
BLACK
6
CONTINUOUS
10
6.41703
20
-4.10985
11
6.41732
21
-4.11114
0
LINE
8
BLACK
6
CONTINUOUS
10
6.41732
20
-4.11114
11
6.41732
21
-4.21216
0
LINE
8
BLACK
6
CONTINUOUS
10
6.41732
20
-4.21216
11
6.4176
21
-4.2123
0
LINE
8
BLACK
6
CONTINUOUS
10
6.4176
20
-4.2123
11
6.42109
21
-4.21578
0
LINE
8
BLACK
6
CONTINUOUS
10
6.42109
20
-4.21578
11
6.42332
21
-4.22017
0
LINE
8
BLACK
6
CONTINUOUS
10
6.42332
20
-4.22017
11
6.42409
21
-4.22504
0
LINE
8
BLACK
6
CONTINUOUS
10
6.42409
20
-4.22504
11
6.42332
21
-4.22991
0
LINE
8
BLACK
6
CONTINUOUS
10
6.42332
20
-4.22991
11
6.42109
21
-4.2343
0
LINE
8
BLACK
6
CONTINUOUS
10
6.42109
20
-4.2343
11
6.4176
21
-4.23778
0
LINE
8
BLACK
6
CONTINUOUS
10
6.4176
20
-4.23778
11
6.41321
21
-4.24002
0
LINE
8
BLACK
6
CONTINUOUS
10
6.41321
20
-4.24002
11
6.40835
21
-4.24079
0
LINE
8
BLACK
6
CONTINUOUS
10
6.40835
20
-4.24079
11
6.40348
21
-4.24002
0
LINE
8
BLACK
6
CONTINUOUS
10
6.40348
20
-4.24002
11
6.39909
21
-4.23778
0
LINE
8
BLACK
6
CONTINUOUS
10
6.39909
20
-4.23778
11
6.39561
21
-4.2343
0
LINE
8
BLACK
6
CONTINUOUS
10
6.39561
20
-4.2343
11
6.39337
21
-4.22991
0
LINE
8
BLACK
6
CONTINUOUS
10
6.39337
20
-4.22991
11
6.3926
21
-4.22504
0
LINE
8
BLACK
6
CONTINUOUS
10
6.3926
20
-4.22504
11
6.39337
21
-4.22017
0
LINE
8
BLACK
6
CONTINUOUS
10
6.39337
20
-4.22017
11
6.39561
21
-4.21578
0
LINE
8
BLACK
6
CONTINUOUS
10
6.39561
20
-4.21578
11
6.39909
21
-4.2123
0
LINE
8
BLACK
6
CONTINUOUS
10
6.39909
20
-4.2123
11
6.40157
21
-4.21103
0
LINE
8
BLACK
6
CONTINUOUS
10
6.40157
20
-4.21103
11
6.40157
21
-4.1144
0
LINE
8
BLACK
6
CONTINUOUS
10
6.40157
20
-4.1144
11
6.32278
21
-4.03561
0
LINE
8
BLACK
6
CONTINUOUS
10
6.32278
20
-4.03561
11
6.32208
21
-4.03449
0
LINE
8
BLACK
6
CONTINUOUS
10
6.32208
20
-4.03449
11
6.32125
21
-4.03346
0
LINE
8
BLACK
6
CONTINUOUS
10
6.32125
20
-4.03346
11
6.32115
21
-4.03302
0
LINE
8
BLACK
6
CONTINUOUS
10
6.32115
20
-4.03302
11
6.32091
21
-4.03264
0
LINE
8
BLACK
6
CONTINUOUS
10
6.32091
20
-4.03264
11
6.32077
21
-4.03133
0
LINE
8
BLACK
6
CONTINUOUS
10
6.32077
20
-4.03133
11
6.32047
21
-4.03004
0
LINE
8
BLACK
6
CONTINUOUS
10
6.32047
20
-4.03004
11
6.32047
21
-3.81504
0
LINE
8
BLACK
6
CONTINUOUS
10
6.32047
20
-3.81504
11
6.32077
21
-3.81375
0
LINE
8
BLACK
6
CONTINUOUS
10
6.32077
20
-3.81375
11
6.32091
21
-3.81244
0
LINE
8
BLACK
6
CONTINUOUS
10
6.32091
20
-3.81244
11
6.32115
21
-3.81206
0
LINE
8
BLACK
6
CONTINUOUS
10
6.32115
20
-3.81206
11
6.32125
21
-3.81162
0
LINE
8
BLACK
6
CONTINUOUS
10
6.32125
20
-3.81162
11
6.32208
21
-3.81059
0
LINE
8
BLACK
6
CONTINUOUS
10
6.32208
20
-3.81059
11
6.32278
21
-3.80947
0
LINE
8
BLACK
6
CONTINUOUS
10
6.32278
20
-3.80947
11
6.37795
21
-3.7543
0
LINE
8
BLACK
6
CONTINUOUS
10
6.37795
20
-3.7543
11
6.37795
21
-3.72211
0
LINE
8
BLACK
6
CONTINUOUS
10
6.37795
20
-3.72211
11
6.37657
21
-3.7214
0
LINE
8
BLACK
6
CONTINUOUS
10
6.37657
20
-3.7214
11
6.37309
21
-3.71792
0
LINE
8
BLACK
6
CONTINUOUS
10
6.37309
20
-3.71792
11
6.37085
21
-3.71353
0
LINE
8
BLACK
6
CONTINUOUS
10
6.37085
20
-3.71353
11
6.37008
21
-3.70866
0
LINE
8
BLACK
6
CONTINUOUS
10
6.37008
20
-3.70866
11
6.37085
21
-3.70379
0
LINE
8
BLACK
6
CONTINUOUS
10
6.37085
20
-3.70379
11
6.37309
21
-3.6994
0
LINE
8
BLACK
6
CONTINUOUS
10
6.37309
20
-3.6994
11
6.37657
21
-3.69592
0
LINE
8
BLACK
6
CONTINUOUS
10
6.37657
20
-3.69592
11
6.38096
21
-3.69368
0
LINE
8
BLACK
6
CONTINUOUS
10
6.38096
20
-3.69368
11
6.38583
21
-3.69291
0
LINE
8
BLACK
6
CONTINUOUS
10
6.38583
20
-3.69291
11
6.39069
21
-3.69368
0
LINE
8
BLACK
6
CONTINUOUS
10
6.23951
20
-3.9163
11
6.2439
21
-3.91854
0
LINE
8
BLACK
6
CONTINUOUS
10
6.2439
20
-3.91854
11
6.24738
21
-3.92203
0
LINE
8
BLACK
6
CONTINUOUS
10
6.24738
20
-3.92203
11
6.24962
21
-3.92642
0
LINE
8
BLACK
6
CONTINUOUS
10
6.24962
20
-3.92642
11
6.25039
21
-3.93128
0
LINE
8
BLACK
6
CONTINUOUS
10
6.25039
20
-3.93128
11
6.24962
21
-3.93615
0
LINE
8
BLACK
6
CONTINUOUS
10
6.24962
20
-3.93615
11
6.24738
21
-3.94054
0
LINE
8
BLACK
6
CONTINUOUS
10
6.24738
20
-3.94054
11
6.2439
21
-3.94402
0
LINE
8
BLACK
6
CONTINUOUS
10
6.2439
20
-3.94402
11
6.24055
21
-3.94573
0
LINE
8
BLACK
6
CONTINUOUS
10
6.24055
20
-3.94573
11
6.24055
21
-4.05874
0
LINE
8
BLACK
6
CONTINUOUS
10
6.24055
20
-4.05874
11
6.24035
21
-4.05949
0
LINE
8
BLACK
6
CONTINUOUS
10
6.24035
20
-4.05949
11
6.24035
21
-4.06027
0
LINE
8
BLACK
6
CONTINUOUS
10
6.24035
20
-4.06027
11
6.23996
21
-4.06095
0
LINE
8
BLACK
6
CONTINUOUS
10
6.23996
20
-4.06095
11
6.23976
21
-4.0617
0
LINE
8
BLACK
6
CONTINUOUS
10
6.23976
20
-4.0617
11
6.23921
21
-4.06225
0
LINE
8
BLACK
6
CONTINUOUS
10
6.23921
20
-4.06225
11
6.23882
21
-4.06292
0
LINE
8
BLACK
6
CONTINUOUS
10
6.23882
20
-4.06292
11
6.20233
21
-4.09941
0
LINE
8
BLACK
6
CONTINUOUS
10
6.20233
20
-4.09941
11
6.20165
21
-4.0998
0
LINE
8
BLACK
6
CONTINUOUS
10
6.20165
20
-4.0998
11
6.2011
21
-4.10035
0
LINE
8
BLACK
6
CONTINUOUS
10
6.2011
20
-4.10035
11
6.20035
21
-4.10055
0
LINE
8
BLACK
6
CONTINUOUS
10
6.20035
20
-4.10055
11
6.19968
21
-4.10094
0
LINE
8
BLACK
6
CONTINUOUS
10
6.19968
20
-4.10094
11
6.1989
21
-4.10094
0
LINE
8
BLACK
6
CONTINUOUS
10
6.1989
20
-4.10094
11
6.19815
21
-4.10114
0
LINE
8
BLACK
6
CONTINUOUS
10
6.19815
20
-4.10114
11
6.14549
21
-4.10114
0
LINE
8
BLACK
6
CONTINUOUS
10
6.14549
20
-4.10114
11
6.14378
21
-4.10449
0
LINE
8
BLACK
6
CONTINUOUS
10
6.14378
20
-4.10449
11
6.1403
21
-4.10798
0
LINE
8
BLACK
6
CONTINUOUS
10
6.1403
20
-4.10798
11
6.13695
21
-4.10968
0
LINE
8
BLACK
6
CONTINUOUS
10
6.13695
20
-4.10968
11
6.13695
21
-4.12029
0
LINE
8
BLACK
6
CONTINUOUS
10
6.13695
20
-4.12029
11
6.18079
21
-4.16413
0
LINE
8
BLACK
6
CONTINUOUS
10
6.18079
20
-4.16413
11
6.34822
21
-4.16413
0
LINE
8
BLACK
6
CONTINUOUS
10
6.34822
20
-4.16413
11
6.34946
21
-4.16169
0
LINE
8
BLACK
6
CONTINUOUS
10
6.34946
20
-4.16169
11
6.35295
21
-4.1582
0
LINE
8
BLACK
6
CONTINUOUS
10
6.35295
20
-4.1582
11
6.35734
21
-4.15597
0
LINE
8
BLACK
6
CONTINUOUS
10
6.35734
20
-4.15597
11
6.3622
21
-4.1552
0
LINE
8
BLACK
6
CONTINUOUS
10
6.3622
20
-4.1552
11
6.36707
21
-4.15597
0
LINE
8
BLACK
6
CONTINUOUS
10
6.36707
20
-4.15597
11
6.37146
21
-4.1582
0
LINE
8
BLACK
6
CONTINUOUS
10
6.37146
20
-4.1582
11
6.37495
21
-4.16169
0
LINE
8
BLACK
6
CONTINUOUS
10
6.37495
20
-4.16169
11
6.37718
21
-4.16608
0
LINE
8
BLACK
6
CONTINUOUS
10
6.37718
20
-4.16608
11
6.37795
21
-4.17094
0
LINE
8
BLACK
6
CONTINUOUS
10
6.37795
20
-4.17094
11
6.37718
21
-4.17581
0
LINE
8
BLACK
6
CONTINUOUS
10
6.37718
20
-4.17581
11
6.37495
21
-4.1802
0
LINE
8
BLACK
6
CONTINUOUS
10
6.37495
20
-4.1802
11
6.37146
21
-4.18369
0
LINE
8
BLACK
6
CONTINUOUS
10
6.37146
20
-4.18369
11
6.36707
21
-4.18592
0
LINE
8
BLACK
6
CONTINUOUS
10
6.36707
20
-4.18592
11
6.3622
21
-4.18669
0
LINE
8
BLACK
6
CONTINUOUS
10
6.3622
20
-4.18669
11
6.35734
21
-4.18592
0
LINE
8
BLACK
6
CONTINUOUS
10
6.35734
20
-4.18592
11
6.35295
21
-4.18369
0
LINE
8
BLACK
6
CONTINUOUS
10
6.35295
20
-4.18369
11
6.34946
21
-4.1802
0
LINE
8
BLACK
6
CONTINUOUS
10
6.34946
20
-4.1802
11
6.3473
21
-4.17594
0
LINE
8
BLACK
6
CONTINUOUS
10
6.3473
20
-4.17594
11
6.17835
21
-4.17594
0
LINE
8
BLACK
6
CONTINUOUS
10
6.17835
20
-4.17594
11
6.1776
21
-4.17574
0
LINE
8
BLACK
6
CONTINUOUS
10
6.1776
20
-4.17574
11
6.17682
21
-4.17574
0
LINE
8
BLACK
6
CONTINUOUS
10
6.17682
20
-4.17574
11
6.17614
21
-4.17535
0
LINE
8
BLACK
6
CONTINUOUS
10
6.17614
20
-4.17535
11
6.17539
21
-4.17515
0
LINE
8
BLACK
6
CONTINUOUS
10
6.17539
20
-4.17515
11
6.17484
21
-4.1746
0
LINE
8
BLACK
6
CONTINUOUS
10
6.17484
20
-4.1746
11
6.17417
21
-4.17422
0
LINE
8
BLACK
6
CONTINUOUS
10
6.17417
20
-4.17422
11
6.12687
21
-4.12691
0
LINE
8
BLACK
6
CONTINUOUS
10
6.12687
20
-4.12691
11
6.12648
21
-4.12624
0
LINE
8
BLACK
6
CONTINUOUS
10
6.12648
20
-4.12624
11
6.12593
21
-4.12569
0
LINE
8
BLACK
6
CONTINUOUS
10
6.12593
20
-4.12569
11
6.12573
21
-4.12494
0
LINE
8
BLACK
6
CONTINUOUS
10
6.12573
20
-4.12494
11
6.12534
21
-4.12426
0
LINE
8
BLACK
6
CONTINUOUS
10
6.12534
20
-4.12426
11
6.12534
21
-4.12349
0
LINE
8
BLACK
6
CONTINUOUS
10
6.12534
20
-4.12349
11
6.12514
21
-4.12274
0
LINE
8
BLACK
6
CONTINUOUS
10
6.12514
20
-4.12274
11
6.12514
21
-4.10968
0
LINE
8
BLACK
6
CONTINUOUS
10
6.12514
20
-4.10968
11
6.12179
21
-4.10798
0
LINE
8
BLACK
6
CONTINUOUS
10
6.12179
20
-4.10798
11
6.1183
21
-4.10449
0
LINE
8
BLACK
6
CONTINUOUS
10
6.1183
20
-4.10449
11
6.11607
21
-4.1001
0
LINE
8
BLACK
6
CONTINUOUS
10
6.11607
20
-4.1001
11
6.1153
21
-4.09523
0
LINE
8
BLACK
6
CONTINUOUS
10
6.1153
20
-4.09523
11
6.11607
21
-4.09037
0
LINE
8
BLACK
6
CONTINUOUS
10
6.11607
20
-4.09037
11
6.1183
21
-4.08598
0
LINE
8
BLACK
6
CONTINUOUS
10
6.1183
20
-4.08598
11
6.12179
21
-4.08249
0
LINE
8
BLACK
6
CONTINUOUS
10
6.12179
20
-4.08249
11
6.12618
21
-4.08026
0
LINE
8
BLACK
6
CONTINUOUS
10
6.12618
20
-4.08026
11
6.13104
21
-4.07949
0
LINE
8
BLACK
6
CONTINUOUS
10
6.13104
20
-4.07949
11
6.13591
21
-4.08026
0
LINE
8
BLACK
6
CONTINUOUS
10
6.13591
20
-4.08026
11
6.1403
21
-4.08249
0
LINE
8
BLACK
6
CONTINUOUS
10
6.1403
20
-4.08249
11
6.14378
21
-4.08598
0
LINE
8
BLACK
6
CONTINUOUS
10
6.14378
20
-4.08598
11
6.14549
21
-4.08933
0
LINE
8
BLACK
6
CONTINUOUS
10
6.14549
20
-4.08933
11
6.19571
21
-4.08933
0
LINE
8
BLACK
6
CONTINUOUS
10
6.19571
20
-4.08933
11
6.22874
21
-4.0563
0
LINE
8
BLACK
6
CONTINUOUS
10
6.22874
20
-4.0563
11
6.22874
21
-3.94573
0
LINE
8
BLACK
6
CONTINUOUS
10
6.22874
20
-3.94573
11
6.22539
21
-3.94402
0
LINE
8
BLACK
6
CONTINUOUS
10
6.22539
20
-3.94402
11
6.2219
21
-3.94054
0
LINE
8
BLACK
6
CONTINUOUS
10
6.2219
20
-3.94054
11
6.21966
21
-3.93615
0
LINE
8
BLACK
6
CONTINUOUS
10
6.21966
20
-3.93615
11
6.21889
21
-3.93128
0
LINE
8
BLACK
6
CONTINUOUS
10
6.21889
20
-3.93128
11
6.21966
21
-3.92642
0
LINE
8
BLACK
6
CONTINUOUS
10
6.21966
20
-3.92642
11
6.2219
21
-3.92203
0
LINE
8
BLACK
6
CONTINUOUS
10
6.2219
20
-3.92203
11
6.22539
21
-3.91854
0
LINE
8
BLACK
6
CONTINUOUS
10
6.22539
20
-3.91854
11
6.22978
21
-3.9163
0
LINE
8
BLACK
6
CONTINUOUS
10
6.22978
20
-3.9163
11
6.23464
21
-3.91553
0
LINE
8
BLACK
6
CONTINUOUS
10
6.23464
20
-3.91553
11
6.23951
21
-3.9163
0
LINE
8
BLACK
6
CONTINUOUS
10
6.21371
20
-3.83006
11
6.2181
21
-3.8323
0
LINE
8
BLACK
6
CONTINUOUS
10
6.2181
20
-3.8323
11
6.22158
21
-3.83578
0
LINE
8
BLACK
6
CONTINUOUS
10
6.22158
20
-3.83578
11
6.22329
21
-3.83913
0
LINE
8
BLACK
6
CONTINUOUS
10
6.22329
20
-3.83913
11
6.22335
21
-3.83913
0
LINE
8
BLACK
6
CONTINUOUS
10
6.22335
20
-3.83913
11
6.2241
21
-3.83934
0
LINE
8
BLACK
6
CONTINUOUS
10
6.2241
20
-3.83934
11
6.22487
21
-3.83934
0
LINE
8
BLACK
6
CONTINUOUS
10
6.22487
20
-3.83934
11
6.22555
21
-3.83972
0
LINE
8
BLACK
6
CONTINUOUS
10
6.22555
20
-3.83972
11
6.2263
21
-3.83993
0
LINE
8
BLACK
6
CONTINUOUS
10
6.2263
20
-3.83993
11
6.22685
21
-3.84047
0
LINE
8
BLACK
6
CONTINUOUS
10
6.22685
20
-3.84047
11
6.22752
21
-3.84086
0
LINE
8
BLACK
6
CONTINUOUS
10
6.22752
20
-3.84086
11
6.28764
21
-3.90098
0
LINE
8
BLACK
6
CONTINUOUS
10
6.28764
20
-3.90098
11
6.28803
21
-3.90165
0
LINE
8
BLACK
6
CONTINUOUS
10
6.28803
20
-3.90165
11
6.28858
21
-3.9022
0
LINE
8
BLACK
6
CONTINUOUS
10
6.28858
20
-3.9022
11
6.28878
21
-3.90296
0
LINE
8
BLACK
6
CONTINUOUS
10
6.28878
20
-3.90296
11
6.28917
21
-3.90363
0
LINE
8
BLACK
6
CONTINUOUS
10
6.28917
20
-3.90363
11
6.28917
21
-3.90441
0
LINE
8
BLACK
6
CONTINUOUS
10
6.28917
20
-3.90441
11
6.28937
21
-3.90516
0
LINE
8
BLACK
6
CONTINUOUS
10
6.28937
20
-3.90516
11
6.28937
21
-4.06336
0
LINE
8
BLACK
6
CONTINUOUS
10
6.28937
20
-4.06336
11
6.29193
21
-4.06376
0
LINE
8
BLACK
6
CONTINUOUS
10
6.29193
20
-4.06376
11
6.29632
21
-4.066
0
LINE
8
BLACK
6
CONTINUOUS
10
6.29632
20
-4.066
11
6.29981
21
-4.06948
0
LINE
8
BLACK
6
CONTINUOUS
10
6.29981
20
-4.06948
11
6.30204
21
-4.07387
0
LINE
8
BLACK
6
CONTINUOUS
10
6.30204
20
-4.07387
11
6.30281
21
-4.07874
0
LINE
8
BLACK
6
CONTINUOUS
10
6.30281
20
-4.07874
11
6.30204
21
-4.08361
0
LINE
8
BLACK
6
CONTINUOUS
10
6.30204
20
-4.08361
11
6.29981
21
-4.088
0
LINE
8
BLACK
6
CONTINUOUS
10
6.29981
20
-4.088
11
6.29632
21
-4.09148
0
LINE
8
BLACK
6
CONTINUOUS
10
6.29632
20
-4.09148
11
6.29193
21
-4.09372
0
LINE
8
BLACK
6
CONTINUOUS
10
6.29193
20
-4.09372
11
6.28707
21
-4.09449
0
LINE
8
BLACK
6
CONTINUOUS
10
6.28707
20
-4.09449
11
6.2822
21
-4.09372
0
LINE
8
BLACK
6
CONTINUOUS
10
6.2822
20
-4.09372
11
6.27781
21
-4.09148
0
LINE
8
BLACK
6
CONTINUOUS
10
6.27781
20
-4.09148
11
6.27433
21
-4.088
0
LINE
8
BLACK
6
CONTINUOUS
10
6.27433
20
-4.088
11
6.27209
21
-4.08361
0
LINE
8
BLACK
6
CONTINUOUS
10
6.27209
20
-4.08361
11
6.27132
21
-4.07874
0
LINE
8
BLACK
6
CONTINUOUS
10
6.27132
20
-4.07874
11
6.27209
21
-4.07387
0
LINE
8
BLACK
6
CONTINUOUS
10
6.27209
20
-4.07387
11
6.27433
21
-4.06948
0
LINE
8
BLACK
6
CONTINUOUS
10
6.27433
20
-4.06948
11
6.27756
21
-4.06625
0
LINE
8
BLACK
6
CONTINUOUS
10
6.27756
20
-4.06625
11
6.27756
21
-3.9076
0
LINE
8
BLACK
6
CONTINUOUS
10
6.27756
20
-3.9076
11
6.22248
21
-3.85253
0
LINE
8
BLACK
6
CONTINUOUS
10
6.22248
20
-3.85253
11
6.22158
21
-3.8543
0
LINE
8
BLACK
6
CONTINUOUS
10
6.22158
20
-3.8543
11
6.2181
21
-3.85778
0
LINE
8
BLACK
6
CONTINUOUS
10
6.2181
20
-3.85778
11
6.21371
21
-3.86002
0
LINE
8
BLACK
6
CONTINUOUS
10
6.21371
20
-3.86002
11
6.20884
21
-3.86079
0
LINE
8
BLACK
6
CONTINUOUS
10
6.20884
20
-3.86079
11
6.20397
21
-3.86002
0
LINE
8
BLACK
6
CONTINUOUS
10
6.20397
20
-3.86002
11
6.19958
21
-3.85778
0
LINE
8
BLACK
6
CONTINUOUS
10
6.19958
20
-3.85778
11
6.1961
21
-3.8543
0
LINE
8
BLACK
6
CONTINUOUS
10
6.1961
20
-3.8543
11
6.19386
21
-3.84991
0
LINE
8
BLACK
6
CONTINUOUS
10
6.19386
20
-3.84991
11
6.19309
21
-3.84504
0
LINE
8
BLACK
6
CONTINUOUS
10
6.19309
20
-3.84504
11
6.19386
21
-3.84017
0
LINE
8
BLACK
6
CONTINUOUS
10
6.19386
20
-3.84017
11
6.1961
21
-3.83578
0
LINE
8
BLACK
6
CONTINUOUS
10
6.1961
20
-3.83578
11
6.19958
21
-3.8323
0
LINE
8
BLACK
6
CONTINUOUS
10
6.19958
20
-3.8323
11
6.20397
21
-3.83006
0
LINE
8
BLACK
6
CONTINUOUS
10
6.20397
20
-3.83006
11
6.20884
21
-3.82929
0
LINE
8
BLACK
6
CONTINUOUS
10
6.20884
20
-3.82929
11
6.21371
21
-3.83006
0
LINE
8
BLACK
6
CONTINUOUS
10
5.97321
20
-3.86506
11
5.9776
21
-3.8673
0
LINE
8
BLACK
6
CONTINUOUS
10
5.9776
20
-3.8673
11
5.98109
21
-3.87078
0
LINE
8
BLACK
6
CONTINUOUS
10
5.98109
20
-3.87078
11
5.98332
21
-3.87517
0
LINE
8
BLACK
6
CONTINUOUS
10
5.98332
20
-3.87517
11
5.98409
21
-3.88004
0
LINE
8
BLACK
6
CONTINUOUS
10
5.98409
20
-3.88004
11
5.98346
21
-3.88402
0
LINE
8
BLACK
6
CONTINUOUS
10
5.98346
20
-3.88402
11
6.12661
21
-4.02717
0
LINE
8
BLACK
6
CONTINUOUS
10
6.12661
20
-4.02717
11
6.1749
21
-4.02717
0
LINE
8
BLACK
6
CONTINUOUS
10
6.1749
20
-4.02717
11
6.17561
21
-4.02578
0
LINE
8
BLACK
6
CONTINUOUS
10
6.17561
20
-4.02578
11
6.17909
21
-4.0223
0
LINE
8
BLACK
6
CONTINUOUS
10
6.17909
20
-4.0223
11
6.18348
21
-4.02006
0
LINE
8
BLACK
6
CONTINUOUS
10
6.18348
20
-4.02006
11
6.18835
21
-4.01929
0
LINE
8
BLACK
6
CONTINUOUS
10
6.18835
20
-4.01929
11
6.19321
21
-4.02006
0
LINE
8
BLACK
6
CONTINUOUS
10
6.19321
20
-4.02006
11
6.1976
21
-4.0223
0
LINE
8
BLACK
6
CONTINUOUS
10
6.1976
20
-4.0223
11
6.20109
21
-4.02578
0
LINE
8
BLACK
6
CONTINUOUS
10
6.20109
20
-4.02578
11
6.20332
21
-4.03017
0
LINE
8
BLACK
6
CONTINUOUS
10
6.20332
20
-4.03017
11
6.20409
21
-4.03504
0
LINE
8
BLACK
6
CONTINUOUS
10
6.20409
20
-4.03504
11
6.20332
21
-4.03991
0
LINE
8
BLACK
6
CONTINUOUS
10
6.20332
20
-4.03991
11
6.20109
21
-4.0443
0
LINE
8
BLACK
6
CONTINUOUS
10
6.20109
20
-4.0443
11
6.1976
21
-4.04778
0
LINE
8
BLACK
6
CONTINUOUS
10
6.1976
20
-4.04778
11
6.19321
21
-4.05002
0
LINE
8
BLACK
6
CONTINUOUS
10
6.19321
20
-4.05002
11
6.18835
21
-4.05079
0
LINE
8
BLACK
6
CONTINUOUS
10
6.18835
20
-4.05079
11
6.18348
21
-4.05002
0
LINE
8
BLACK
6
CONTINUOUS
10
6.18348
20
-4.05002
11
6.17909
21
-4.04778
0
LINE
8
BLACK
6
CONTINUOUS
10
6.17909
20
-4.04778
11
6.17561
21
-4.0443
0
LINE
8
BLACK
6
CONTINUOUS
10
6.17561
20
-4.0443
11
6.1749
21
-4.04291
0
LINE
8
BLACK
6
CONTINUOUS
10
6.1749
20
-4.04291
11
6.12335
21
-4.04291
0
LINE
8
BLACK
6
CONTINUOUS
10
6.12335
20
-4.04291
11
6.12206
21
-4.04262
0
LINE
8
BLACK
6
CONTINUOUS
10
6.12206
20
-4.04262
11
6.12075
21
-4.04247
0
LINE
8
BLACK
6
CONTINUOUS
10
6.12075
20
-4.04247
11
6.12037
21
-4.04223
0
LINE
8
BLACK
6
CONTINUOUS
10
6.12037
20
-4.04223
11
6.11993
21
-4.04213
0
LINE
8
BLACK
6
CONTINUOUS
10
6.11993
20
-4.04213
11
6.1189
21
-4.04131
0
LINE
8
BLACK
6
CONTINUOUS
10
6.1189
20
-4.04131
11
6.11778
21
-4.04061
0
LINE
8
BLACK
6
CONTINUOUS
10
6.11778
20
-4.04061
11
5.97233
21
-3.89516
0
LINE
8
BLACK
6
CONTINUOUS
10
5.97233
20
-3.89516
11
5.96835
21
-3.89579
0
LINE
8
BLACK
6
CONTINUOUS
10
5.96835
20
-3.89579
11
5.96348
21
-3.89502
0
LINE
8
BLACK
6
CONTINUOUS
10
5.96348
20
-3.89502
11
5.95909
21
-3.89278
0
LINE
8
BLACK
6
CONTINUOUS
10
5.95909
20
-3.89278
11
5.95561
21
-3.8893
0
LINE
8
BLACK
6
CONTINUOUS
10
5.95561
20
-3.8893
11
5.95337
21
-3.88491
0
LINE
8
BLACK
6
CONTINUOUS
10
5.95337
20
-3.88491
11
5.9526
21
-3.88004
0
LINE
8
BLACK
6
CONTINUOUS
10
5.9526
20
-3.88004
11
5.95337
21
-3.87517
0
LINE
8
BLACK
6
CONTINUOUS
10
5.95337
20
-3.87517
11
5.95561
21
-3.87078
0
LINE
8
BLACK
6
CONTINUOUS
10
5.95561
20
-3.87078
11
5.95909
21
-3.8673
0
LINE
8
BLACK
6
CONTINUOUS
10
5.95909
20
-3.8673
11
5.96348
21
-3.86506
0
LINE
8
BLACK
6
CONTINUOUS
10
5.96348
20
-3.86506
11
5.96835
21
-3.86429
0
LINE
8
BLACK
6
CONTINUOUS
10
5.96835
20
-3.86429
11
5.97321
21
-3.86506
0
LINE
8
BLACK
6
CONTINUOUS
10
6.40321
20
-3.51506
11
6.4076
21
-3.5173
0
LINE
8
BLACK
6
CONTINUOUS
10
6.4076
20
-3.5173
11
6.41109
21
-3.52078
0
LINE
8
BLACK
6
CONTINUOUS
10
6.41109
20
-3.52078
11
6.41332
21
-3.52517
0
LINE
8
BLACK
6
CONTINUOUS
10
6.41332
20
-3.52517
11
6.41409
21
-3.53004
0
LINE
8
BLACK
6
CONTINUOUS
10
6.41409
20
-3.53004
11
6.41384
21
-3.53162
0
LINE
8
BLACK
6
CONTINUOUS
10
6.41384
20
-3.53162
11
6.45375
21
-3.57152
0
LINE
8
BLACK
6
CONTINUOUS
10
6.45375
20
-3.57152
11
6.45375
21
-3.57152
0
LINE
8
BLACK
6
CONTINUOUS
10
6.45375
20
-3.57152
11
6.45589
21
-3.57472
0
LINE
8
BLACK
6
CONTINUOUS
10
6.45589
20
-3.57472
11
6.45663
21
-3.57848
0
LINE
8
BLACK
6
CONTINUOUS
10
6.45663
20
-3.57848
11
6.45663
21
-3.85659
0
LINE
8
BLACK
6
CONTINUOUS
10
6.45663
20
-3.85659
11
6.45663
21
-3.85659
0
LINE
8
BLACK
6
CONTINUOUS
10
6.45663
20
-3.85659
11
6.4562
21
-3.85879
0
LINE
8
BLACK
6
CONTINUOUS
10
6.4562
20
-3.85879
11
6.45589
21
-3.86036
0
LINE
8
BLACK
6
CONTINUOUS
10
6.45589
20
-3.86036
11
6.45375
21
-3.86355
0
LINE
8
BLACK
6
CONTINUOUS
10
6.45375
20
-3.86355
11
6.45375
21
-3.86355
0
LINE
8
BLACK
6
CONTINUOUS
10
6.45375
20
-3.86355
11
6.39884
21
-3.91846
0
LINE
8
BLACK
6
CONTINUOUS
10
6.39884
20
-3.91846
11
6.39909
21
-3.92004
0
LINE
8
BLACK
6
CONTINUOUS
10
6.39909
20
-3.92004
11
6.39832
21
-3.92491
0
LINE
8
BLACK
6
CONTINUOUS
10
6.39832
20
-3.92491
11
6.39609
21
-3.9293
0
LINE
8
BLACK
6
CONTINUOUS
10
6.39609
20
-3.9293
11
6.3926
21
-3.93278
0
LINE
8
BLACK
6
CONTINUOUS
10
6.3926
20
-3.93278
11
6.38821
21
-3.93502
0
LINE
8
BLACK
6
CONTINUOUS
10
6.38821
20
-3.93502
11
6.38335
21
-3.93579
0
LINE
8
BLACK
6
CONTINUOUS
10
6.38335
20
-3.93579
11
6.37848
21
-3.93502
0
LINE
8
BLACK
6
CONTINUOUS
10
6.37848
20
-3.93502
11
6.37409
21
-3.93278
0
LINE
8
BLACK
6
CONTINUOUS
10
6.37409
20
-3.93278
11
6.37061
21
-3.9293
0
LINE
8
BLACK
6
CONTINUOUS
10
6.37061
20
-3.9293
11
6.36837
21
-3.92491
0
LINE
8
BLACK
6
CONTINUOUS
10
6.36837
20
-3.92491
11
6.3676
21
-3.92004
0
LINE
8
BLACK
6
CONTINUOUS
10
6.3676
20
-3.92004
11
6.36837
21
-3.91517
0
LINE
8
BLACK
6
CONTINUOUS
10
6.36837
20
-3.91517
11
6.37061
21
-3.91078
0
LINE
8
BLACK
6
CONTINUOUS
10
6.37061
20
-3.91078
11
6.37409
21
-3.9073
0
LINE
8
BLACK
6
CONTINUOUS
10
6.37409
20
-3.9073
11
6.37848
21
-3.90506
0
LINE
8
BLACK
6
CONTINUOUS
10
6.37848
20
-3.90506
11
6.38335
21
-3.90429
0
LINE
8
BLACK
6
CONTINUOUS
10
6.38335
20
-3.90429
11
6.38492
21
-3.90454
0
LINE
8
BLACK
6
CONTINUOUS
10
6.38492
20
-3.90454
11
6.43695
21
-3.85252
0
LINE
8
BLACK
6
CONTINUOUS
10
6.43695
20
-3.85252
11
6.43695
21
-3.58256
0
LINE
8
BLACK
6
CONTINUOUS
10
6.43695
20
-3.58256
11
6.39992
21
-3.54554
0
LINE
8
BLACK
6
CONTINUOUS
10
6.39992
20
-3.54554
11
6.39835
21
-3.54579
0
LINE
8
BLACK
6
CONTINUOUS
10
6.39835
20
-3.54579
11
6.39348
21
-3.54502
0
LINE
8
BLACK
6
CONTINUOUS
10
6.39348
20
-3.54502
11
6.38909
21
-3.54278
0
LINE
8
BLACK
6
CONTINUOUS
10
6.38909
20
-3.54278
11
6.38561
21
-3.5393
0
LINE
8
BLACK
6
CONTINUOUS
10
6.38561
20
-3.5393
11
6.38337
21
-3.53491
0
LINE
8
BLACK
6
CONTINUOUS
10
6.38337
20
-3.53491
11
6.3826
21
-3.53004
0
LINE
8
BLACK
6
CONTINUOUS
10
6.3826
20
-3.53004
11
6.38337
21
-3.52517
0
LINE
8
BLACK
6
CONTINUOUS
10
6.38337
20
-3.52517
11
6.38561
21
-3.52078
0
LINE
8
BLACK
6
CONTINUOUS
10
6.38561
20
-3.52078
11
6.38909
21
-3.5173
0
LINE
8
BLACK
6
CONTINUOUS
10
6.38909
20
-3.5173
11
6.39348
21
-3.51506
0
LINE
8
BLACK
6
CONTINUOUS
10
6.39348
20
-3.51506
11
6.39835
21
-3.51429
0
LINE
8
BLACK
6
CONTINUOUS
10
6.39835
20
-3.51429
11
6.40321
21
-3.51506
0
LINE
8
BLACK
6
CONTINUOUS
10
5.80821
20
-3.69506
11
5.8126
21
-3.6973
0
LINE
8
BLACK
6
CONTINUOUS
10
5.8126
20
-3.6973
11
5.81609
21
-3.70078
0
LINE
8
BLACK
6
CONTINUOUS
10
5.81609
20
-3.70078
11
5.81832
21
-3.70517
0
LINE
8
BLACK
6
CONTINUOUS
10
5.81832
20
-3.70517
11
5.81909
21
-3.71004
0
LINE
8
BLACK
6
CONTINUOUS
10
5.81909
20
-3.71004
11
5.81832
21
-3.71491
0
LINE
8
BLACK
6
CONTINUOUS
10
5.81832
20
-3.71491
11
5.81773
21
-3.71607
0
LINE
8
BLACK
6
CONTINUOUS
10
5.81773
20
-3.71607
11
5.82079
21
-3.71913
0
LINE
8
BLACK
6
CONTINUOUS
10
5.82079
20
-3.71913
11
6.02335
21
-3.71913
0
LINE
8
BLACK
6
CONTINUOUS
10
6.02335
20
-3.71913
11
6.0241
21
-3.71934
0
LINE
8
BLACK
6
CONTINUOUS
10
6.0241
20
-3.71934
11
6.02487
21
-3.71934
0
LINE
8
BLACK
6
CONTINUOUS
10
6.02487
20
-3.71934
11
6.02555
21
-3.71972
0
LINE
8
BLACK
6
CONTINUOUS
10
6.02555
20
-3.71972
11
6.0263
21
-3.71993
0
LINE
8
BLACK
6
CONTINUOUS
10
6.0263
20
-3.71993
11
6.02685
21
-3.72047
0
LINE
8
BLACK
6
CONTINUOUS
10
6.02685
20
-3.72047
11
6.02752
21
-3.72086
0
LINE
8
BLACK
6
CONTINUOUS
10
6.02752
20
-3.72086
11
6.11231
21
-3.80566
0
LINE
8
BLACK
6
CONTINUOUS
10
6.11231
20
-3.80566
11
6.11348
21
-3.80506
0
LINE
8
BLACK
6
CONTINUOUS
10
6.11348
20
-3.80506
11
6.11835
21
-3.80429
0
LINE
8
BLACK
6
CONTINUOUS
10
6.11835
20
-3.80429
11
6.12321
21
-3.80506
0
LINE
8
BLACK
6
CONTINUOUS
10
6.12321
20
-3.80506
11
6.1276
21
-3.8073
0
LINE
8
BLACK
6
CONTINUOUS
10
6.1276
20
-3.8073
11
6.13109
21
-3.81078
0
LINE
8
BLACK
6
CONTINUOUS
10
6.13109
20
-3.81078
11
6.13332
21
-3.81517
0
LINE
8
BLACK
6
CONTINUOUS
10
6.13332
20
-3.81517
11
6.13409
21
-3.82004
0
LINE
8
BLACK
6
CONTINUOUS
10
6.13409
20
-3.82004
11
6.13332
21
-3.82491
0
LINE
8
BLACK
6
CONTINUOUS
10
6.13332
20
-3.82491
11
6.13109
21
-3.8293
0
LINE
8
BLACK
6
CONTINUOUS
10
6.13109
20
-3.8293
11
6.1276
21
-3.83278
0
LINE
8
BLACK
6
CONTINUOUS
10
6.1276
20
-3.83278
11
6.12321
21
-3.83502
0
LINE
8
BLACK
6
CONTINUOUS
10
6.12321
20
-3.83502
11
6.11835
21
-3.83579
0
LINE
8
BLACK
6
CONTINUOUS
10
6.11835
20
-3.83579
11
6.11348
21
-3.83502
0
LINE
8
BLACK
6
CONTINUOUS
10
6.11348
20
-3.83502
11
6.10909
21
-3.83278
0
LINE
8
BLACK
6
CONTINUOUS
10
6.10909
20
-3.83278
11
6.10561
21
-3.8293
0
LINE
8
BLACK
6
CONTINUOUS
10
6.10561
20
-3.8293
11
6.10337
21
-3.82491
0
LINE
8
BLACK
6
CONTINUOUS
10
6.10337
20
-3.82491
11
6.1026
21
-3.82004
0
LINE
8
BLACK
6
CONTINUOUS
10
6.1026
20
-3.82004
11
6.10337
21
-3.81517
0
LINE
8
BLACK
6
CONTINUOUS
10
6.10337
20
-3.81517
11
6.10396
21
-3.81401
0
LINE
8
BLACK
6
CONTINUOUS
10
6.10396
20
-3.81401
11
6.0209
21
-3.73094
0
LINE
8
BLACK
6
CONTINUOUS
10
6.0209
20
-3.73094
11
5.81835
21
-3.73094
0
LINE
8
BLACK
6
CONTINUOUS
10
5.81835
20
-3.73094
11
5.8176
21
-3.73074
0
LINE
8
BLACK
6
CONTINUOUS
10
5.8176
20
-3.73074
11
5.81682
21
-3.73074
0
LINE
8
BLACK
6
CONTINUOUS
10
5.81682
20
-3.73074
11
5.81614
21
-3.73035
0
LINE
8
BLACK
6
CONTINUOUS
10
5.81614
20
-3.73035
11
5.81539
21
-3.73015
0
LINE
8
BLACK
6
CONTINUOUS
10
5.81539
20
-3.73015
11
5.81484
21
-3.7296
0
LINE
8
BLACK
6
CONTINUOUS
10
5.81484
20
-3.7296
11
5.81417
21
-3.72922
0
LINE
8
BLACK
6
CONTINUOUS
10
5.81417
20
-3.72922
11
5.80938
21
-3.72442
0
LINE
8
BLACK
6
CONTINUOUS
10
5.80938
20
-3.72442
11
5.80821
21
-3.72502
0
LINE
8
BLACK
6
CONTINUOUS
10
5.80821
20
-3.72502
11
5.80335
21
-3.72579
0
LINE
8
BLACK
6
CONTINUOUS
10
5.80335
20
-3.72579
11
5.79848
21
-3.72502
0
LINE
8
BLACK
6
CONTINUOUS
10
5.79848
20
-3.72502
11
5.79409
21
-3.72278
0
LINE
8
BLACK
6
CONTINUOUS
10
5.79409
20
-3.72278
11
5.79061
21
-3.7193
0
LINE
8
BLACK
6
CONTINUOUS
10
5.79061
20
-3.7193
11
5.78837
21
-3.71491
0
LINE
8
BLACK
6
CONTINUOUS
10
5.78837
20
-3.71491
11
5.7876
21
-3.71004
0
LINE
8
BLACK
6
CONTINUOUS
10
5.7876
20
-3.71004
11
5.78837
21
-3.70517
0
LINE
8
BLACK
6
CONTINUOUS
10
5.78837
20
-3.70517
11
5.79061
21
-3.70078
0
LINE
8
BLACK
6
CONTINUOUS
10
5.79061
20
-3.70078
11
5.79409
21
-3.6973
0
LINE
8
BLACK
6
CONTINUOUS
10
5.79409
20
-3.6973
11
5.79848
21
-3.69506
0
LINE
8
BLACK
6
CONTINUOUS
10
5.79848
20
-3.69506
11
5.80335
21
-3.69429
0
LINE
8
BLACK
6
CONTINUOUS
10
5.80335
20
-3.69429
11
5.80821
21
-3.69506
0
LINE
8
BLACK
6
CONTINUOUS
10
6.49747
20
-3.37943
11
6.4993
21
-3.38154
0
LINE
8
BLACK
6
CONTINUOUS
10
6.4993
20
-3.38154
11
6.49974
21
-3.3836
0
LINE
8
BLACK
6
CONTINUOUS
10
6.49974
20
-3.3836
11
6.49974
21
-4.51537
0
LINE
8
BLACK
6
CONTINUOUS
10
6.49974
20
-4.51537
11
6.49896
21
-4.51806
0
LINE
8
BLACK
6
CONTINUOUS
10
6.49896
20
-4.51806
11
6.49684
21
-4.51989
0
LINE
8
BLACK
6
CONTINUOUS
10
6.49684
20
-4.51989
11
6.49478
21
-4.52033
0
LINE
8
BLACK
6
CONTINUOUS
10
6.49478
20
-4.52033
11
5.36301
21
-4.52033
0
LINE
8
BLACK
6
CONTINUOUS
10
5.36301
20
-4.52033
11
5.36033
21
-4.51955
0
LINE
8
BLACK
6
CONTINUOUS
10
5.36033
20
-4.51955
11
5.3585
21
-4.51743
0
LINE
8
BLACK
6
CONTINUOUS
10
5.3585
20
-4.51743
11
5.35805
21
-4.51537
0
LINE
8
BLACK
6
CONTINUOUS
10
5.35805
20
-4.51537
11
5.35805
21
-4.10957
0
LINE
8
BLACK
6
CONTINUOUS
10
5.35805
20
-4.10957
11
5.35805
21
-3.96915
0
LINE
8
BLACK
6
CONTINUOUS
10
5.35805
20
-3.96915
11
5.35805
21
-3.76941
0
LINE
8
BLACK
6
CONTINUOUS
10
5.35805
20
-3.76941
11
5.35805
21
-3.72504
0
LINE
8
BLACK
6
CONTINUOUS
10
5.35805
20
-3.72504
11
5.35805
21
-3.3836
0
LINE
8
BLACK
6
CONTINUOUS
10
5.35805
20
-3.3836
11
5.35884
21
-3.38092
0
LINE
8
BLACK
6
CONTINUOUS
10
5.35884
20
-3.38092
11
5.36095
21
-3.37909
0
LINE
8
BLACK
6
CONTINUOUS
10
5.36095
20
-3.37909
11
5.36301
21
-3.37864
0
LINE
8
BLACK
6
CONTINUOUS
10
5.36301
20
-3.37864
11
6.49478
21
-3.37864
0
LINE
8
BLACK
6
CONTINUOUS
10
6.49478
20
-3.37864
11
6.49747
21
-3.37943
0
LINE
8
BLACK
6
CONTINUOUS
10
5.72547
20
-3.72987
11
5.72413
21
-3.72741
0
LINE
8
BLACK
6
CONTINUOUS
10
5.72413
20
-3.72741
11
5.72406
21
-3.72576
0
LINE
8
BLACK
6
CONTINUOUS
10
5.72406
20
-3.72576
11
5.72414
21
-3.72504
0
LINE
8
BLACK
6
CONTINUOUS
10
5.72414
20
-3.72504
11
5.72414
21
-3.72504
0
LINE
8
BLACK
6
CONTINUOUS
10
5.72414
20
-3.72504
11
5.7234
21
-3.71887
0
LINE
8
BLACK
6
CONTINUOUS
10
5.7234
20
-3.71887
11
5.72239
21
-3.71621
0
LINE
8
BLACK
6
CONTINUOUS
10
5.72239
20
-3.71621
11
5.72119
21
-3.71305
0
LINE
8
BLACK
6
CONTINUOUS
10
5.72119
20
-3.71305
11
5.72119
21
-3.71305
0
LINE
8
BLACK
6
CONTINUOUS
10
5.72119
20
-3.71305
11
5.72119
21
-3.71305
0
LINE
8
BLACK
6
CONTINUOUS
10
5.72119
20
-3.71305
11
5.71911
21
-3.71004
0
LINE
8
BLACK
6
CONTINUOUS
10
5.71911
20
-3.71004
11
5.71766
21
-3.70793
0
LINE
8
BLACK
6
CONTINUOUS
10
5.71766
20
-3.70793
11
5.71766
21
-3.70793
0
LINE
8
BLACK
6
CONTINUOUS
10
5.71766
20
-3.70793
11
5.713
21
-3.70381
0
LINE
8
BLACK
6
CONTINUOUS
10
5.713
20
-3.70381
11
5.70749
21
-3.70092
0
LINE
8
BLACK
6
CONTINUOUS
10
5.70749
20
-3.70092
11
5.70749
21
-3.70092
0
LINE
8
BLACK
6
CONTINUOUS
10
5.70749
20
-3.70092
11
5.70146
21
-3.69943
0
LINE
8
BLACK
6
CONTINUOUS
10
5.70146
20
-3.69943
11
5.70146
21
-3.69943
0
LINE
8
BLACK
6
CONTINUOUS
10
5.70146
20
-3.69943
11
5.69524
21
-3.69943
0
LINE
8
BLACK
6
CONTINUOUS
10
5.69524
20
-3.69943
11
5.69524
21
-3.69943
0
LINE
8
BLACK
6
CONTINUOUS
10
5.69524
20
-3.69943
11
5.6892
21
-3.70092
0
LINE
8
BLACK
6
CONTINUOUS
10
5.6892
20
-3.70092
11
5.6892
21
-3.70092
0
LINE
8
BLACK
6
CONTINUOUS
10
5.6892
20
-3.70092
11
5.68369
21
-3.70381
0
LINE
8
BLACK
6
CONTINUOUS
10
5.68369
20
-3.70381
11
5.67904
21
-3.70793
0
LINE
8
BLACK
6
CONTINUOUS
10
5.67904
20
-3.70793
11
5.67904
21
-3.70793
0
LINE
8
BLACK
6
CONTINUOUS
10
5.67904
20
-3.70793
11
5.6755
21
-3.71305
0
LINE
8
BLACK
6
CONTINUOUS
10
5.6755
20
-3.71305
11
5.6755
21
-3.71305
0
LINE
8
BLACK
6
CONTINUOUS
10
5.6755
20
-3.71305
11
5.6733
21
-3.71887
0
LINE
8
BLACK
6
CONTINUOUS
10
5.6733
20
-3.71887
11
5.67255
21
-3.72504
0
LINE
8
BLACK
6
CONTINUOUS
10
5.67255
20
-3.72504
11
5.67255
21
-3.72504
0
LINE
8
BLACK
6
CONTINUOUS
10
5.67255
20
-3.72504
11
5.6733
21
-3.73121
0
LINE
8
BLACK
6
CONTINUOUS
10
5.6733
20
-3.73121
11
5.6744
21
-3.73412
0
LINE
8
BLACK
6
CONTINUOUS
10
5.6744
20
-3.73412
11
5.6755
21
-3.73703
0
LINE
8
BLACK
6
CONTINUOUS
10
5.6755
20
-3.73703
11
5.6755
21
-3.73703
0
LINE
8
BLACK
6
CONTINUOUS
10
5.6755
20
-3.73703
11
5.6755
21
-3.73703
0
LINE
8
BLACK
6
CONTINUOUS
10
5.6755
20
-3.73703
11
5.6755
21
-3.73703
0
LINE
8
BLACK
6
CONTINUOUS
10
5.6755
20
-3.73703
11
5.67865
21
-3.74159
0
LINE
8
BLACK
6
CONTINUOUS
10
5.67865
20
-3.74159
11
5.67904
21
-3.74215
0
LINE
8
BLACK
6
CONTINUOUS
10
5.67904
20
-3.74215
11
5.68369
21
-3.74627
0
LINE
8
BLACK
6
CONTINUOUS
10
5.68369
20
-3.74627
11
5.6892
21
-3.74916
0
LINE
8
BLACK
6
CONTINUOUS
10
5.6892
20
-3.74916
11
5.6892
21
-3.74916
0
LINE
8
BLACK
6
CONTINUOUS
10
5.6892
20
-3.74916
11
5.6892
21
-3.74916
0
LINE
8
BLACK
6
CONTINUOUS
10
5.6892
20
-3.74916
11
5.69222
21
-3.74991
0
LINE
8
BLACK
6
CONTINUOUS
10
5.69222
20
-3.74991
11
5.69524
21
-3.75065
0
LINE
8
BLACK
6
CONTINUOUS
10
5.69524
20
-3.75065
11
5.69524
21
-3.75065
0
LINE
8
BLACK
6
CONTINUOUS
10
5.69524
20
-3.75065
11
5.6996
21
-3.75065
0
LINE
8
BLACK
6
CONTINUOUS
10
5.6996
20
-3.75065
11
5.70228
21
-3.75144
0
LINE
8
BLACK
6
CONTINUOUS
10
5.70228
20
-3.75144
11
5.70311
21
-3.7521
0
LINE
8
BLACK
6
CONTINUOUS
10
5.70311
20
-3.7521
11
5.77193
21
-3.82092
0
LINE
8
BLACK
6
CONTINUOUS
10
5.77193
20
-3.82092
11
5.77327
21
-3.82337
0
LINE
8
BLACK
6
CONTINUOUS
10
5.77327
20
-3.82337
11
5.77307
21
-3.82616
0
LINE
8
BLACK
6
CONTINUOUS
10
5.77307
20
-3.82616
11
5.77139
21
-3.8284
0
LINE
8
BLACK
6
CONTINUOUS
10
5.77139
20
-3.8284
11
5.76878
21
-3.82938
0
LINE
8
BLACK
6
CONTINUOUS
10
5.76878
20
-3.82938
11
5.76842
21
-3.82939
0
LINE
8
BLACK
6
CONTINUOUS
10
5.76842
20
-3.82939
11
5.76461
21
-3.82939
0
LINE
8
BLACK
6
CONTINUOUS
10
5.76461
20
-3.82939
11
5.75857
21
-3.83088
0
LINE
8
BLACK
6
CONTINUOUS
10
5.75857
20
-3.83088
11
5.75857
21
-3.83088
0
LINE
8
BLACK
6
CONTINUOUS
10
5.75857
20
-3.83088
11
5.75306
21
-3.83377
0
LINE
8
BLACK
6
CONTINUOUS
10
5.75306
20
-3.83377
11
5.74841
21
-3.83789
0
LINE
8
BLACK
6
CONTINUOUS
10
5.74841
20
-3.83789
11
5.74841
21
-3.83789
0
LINE
8
BLACK
6
CONTINUOUS
10
5.74841
20
-3.83789
11
5.74487
21
-3.84301
0
LINE
8
BLACK
6
CONTINUOUS
10
5.74487
20
-3.84301
11
5.74487
21
-3.84301
0
LINE
8
BLACK
6
CONTINUOUS
10
5.74487
20
-3.84301
11
5.74267
21
-3.84883
0
LINE
8
BLACK
6
CONTINUOUS
10
5.74267
20
-3.84883
11
5.74192
21
-3.855
0
LINE
8
BLACK
6
CONTINUOUS
10
5.74192
20
-3.855
11
5.74192
21
-3.855
0
LINE
8
BLACK
6
CONTINUOUS
10
5.74192
20
-3.855
11
5.74267
21
-3.86117
0
LINE
8
BLACK
6
CONTINUOUS
10
5.74267
20
-3.86117
11
5.74382
21
-3.86422
0
LINE
8
BLACK
6
CONTINUOUS
10
5.74382
20
-3.86422
11
5.74487
21
-3.86699
0
LINE
8
BLACK
6
CONTINUOUS
10
5.74487
20
-3.86699
11
5.74645
21
-3.86927
0
LINE
8
BLACK
6
CONTINUOUS
10
5.74645
20
-3.86927
11
5.74713
21
-3.87026
0
LINE
8
BLACK
6
CONTINUOUS
10
5.74713
20
-3.87026
11
5.74801
21
-3.87292
0
LINE
8
BLACK
6
CONTINUOUS
10
5.74801
20
-3.87292
11
5.74801
21
-3.87308
0
LINE
8
BLACK
6
CONTINUOUS
10
5.74801
20
-3.87308
11
5.74801
21
-3.93361
0
LINE
8
BLACK
6
CONTINUOUS
10
5.74801
20
-3.93361
11
5.7479
21
-3.93466
0
LINE
8
BLACK
6
CONTINUOUS
10
5.7479
20
-3.93466
11
5.74786
21
-3.93484
0
LINE
8
BLACK
6
CONTINUOUS
10
5.74786
20
-3.93484
11
5.74786
21
-3.93484
0
LINE
8
BLACK
6
CONTINUOUS
10
5.74786
20
-3.93484
11
5.74801
21
-3.93688
0
LINE
8
BLACK
6
CONTINUOUS
10
5.74801
20
-3.93688
11
5.74801
21
-3.93705
0
LINE
8
BLACK
6
CONTINUOUS
10
5.74801
20
-3.93705
11
5.74801
21
-3.93767
0
LINE
8
BLACK
6
CONTINUOUS
10
5.74801
20
-3.93767
11
5.7481
21
-3.93828
0
LINE
8
BLACK
6
CONTINUOUS
10
5.7481
20
-3.93828
11
5.74812
21
-3.93846
0
LINE
8
BLACK
6
CONTINUOUS
10
5.74812
20
-3.93846
11
5.74826
21
-3.94049
0
LINE
8
BLACK
6
CONTINUOUS
10
5.74826
20
-3.94049
11
5.74826
21
-3.94049
0
LINE
8
BLACK
6
CONTINUOUS
10
5.74826
20
-3.94049
11
5.74833
21
-3.94066
0
LINE
8
BLACK
6
CONTINUOUS
10
5.74833
20
-3.94066
11
5.74859
21
-3.94168
0
LINE
8
BLACK
6
CONTINUOUS
10
5.74859
20
-3.94168
11
5.74859
21
-3.94169
0
LINE
8
BLACK
6
CONTINUOUS
10
5.74859
20
-3.94169
11
5.74864
21
-3.94241
0
LINE
8
BLACK
6
CONTINUOUS
10
5.74864
20
-3.94241
11
5.74864
21
-4.01696
0
LINE
8
BLACK
6
CONTINUOUS
10
5.74864
20
-4.01696
11
5.74785
21
-4.01964
0
LINE
8
BLACK
6
CONTINUOUS
10
5.74785
20
-4.01964
11
5.74776
21
-4.01978
0
LINE
8
BLACK
6
CONTINUOUS
10
5.74776
20
-4.01978
11
5.7455
21
-4.02305
0
LINE
8
BLACK
6
CONTINUOUS
10
5.7455
20
-4.02305
11
5.7433
21
-4.02887
0
LINE
8
BLACK
6
CONTINUOUS
10
5.7433
20
-4.02887
11
5.74255
21
-4.03504
0
LINE
8
BLACK
6
CONTINUOUS
10
5.74255
20
-4.03504
11
5.74255
21
-4.03504
0
LINE
8
BLACK
6
CONTINUOUS
10
5.74255
20
-4.03504
11
5.7433
21
-4.04121
0
LINE
8
BLACK
6
CONTINUOUS
10
5.7433
20
-4.04121
11
5.74371
21
-4.04231
0
LINE
8
BLACK
6
CONTINUOUS
10
5.74371
20
-4.04231
11
5.7455
21
-4.04703
0
LINE
8
BLACK
6
CONTINUOUS
10
5.7455
20
-4.04703
11
5.7455
21
-4.04703
0
LINE
8
BLACK
6
CONTINUOUS
10
5.7455
20
-4.04703
11
5.7455
21
-4.04703
0
LINE
8
BLACK
6
CONTINUOUS
10
5.7455
20
-4.04703
11
5.7455
21
-4.04703
0
LINE
8
BLACK
6
CONTINUOUS
10
5.7455
20
-4.04703
11
5.74887
21
-4.05191
0
LINE
8
BLACK
6
CONTINUOUS
10
5.74887
20
-4.05191
11
5.74904
21
-4.05215
0
LINE
8
BLACK
6
CONTINUOUS
10
5.74904
20
-4.05215
11
5.75369
21
-4.05627
0
LINE
8
BLACK
6
CONTINUOUS
10
5.75369
20
-4.05627
11
5.7592
21
-4.05916
0
LINE
8
BLACK
6
CONTINUOUS
10
5.7592
20
-4.05916
11
5.7592
21
-4.05916
0
LINE
8
BLACK
6
CONTINUOUS
10
5.7592
20
-4.05916
11
5.7592
21
-4.05916
0
LINE
8
BLACK
6
CONTINUOUS
10
5.7592
20
-4.05916
11
5.76222
21
-4.05991
0
LINE
8
BLACK
6
CONTINUOUS
10
5.76222
20
-4.05991
11
5.76524
21
-4.06065
0
LINE
8
BLACK
6
CONTINUOUS
10
5.76524
20
-4.06065
11
5.76524
21
-4.06065
0
LINE
8
BLACK
6
CONTINUOUS
10
5.76524
20
-4.06065
11
5.77146
21
-4.06065
0
LINE
8
BLACK
6
CONTINUOUS
10
5.77146
20
-4.06065
11
5.77146
21
-4.06065
0
LINE
8
BLACK
6
CONTINUOUS
10
5.77146
20
-4.06065
11
5.77749
21
-4.05916
0
LINE
8
BLACK
6
CONTINUOUS
10
5.77749
20
-4.05916
11
5.783
21
-4.05627
0
LINE
8
BLACK
6
CONTINUOUS
10
5.783
20
-4.05627
11
5.78766
21
-4.05215
0
LINE
8
BLACK
6
CONTINUOUS
10
5.78766
20
-4.05215
11
5.79119
21
-4.04703
0
LINE
8
BLACK
6
CONTINUOUS
10
5.79119
20
-4.04703
11
5.7934
21
-4.04121
0
LINE
8
BLACK
6
CONTINUOUS
10
5.7934
20
-4.04121
11
5.7934
21
-4.04121
0
LINE
8
BLACK
6
CONTINUOUS
10
5.7934
20
-4.04121
11
5.7934
21
-4.04121
0
LINE
8
BLACK
6
CONTINUOUS
10
5.7934
20
-4.04121
11
5.79414
21
-4.03504
0
LINE
8
BLACK
6
CONTINUOUS
10
5.79414
20
-4.03504
11
5.79414
21
-4.03504
0
LINE
8
BLACK
6
CONTINUOUS
10
5.79414
20
-4.03504
11
5.7934
21
-4.02887
0
LINE
8
BLACK
6
CONTINUOUS
10
5.7934
20
-4.02887
11
5.79161
21
-4.02415
0
LINE
8
BLACK
6
CONTINUOUS
10
5.79161
20
-4.02415
11
5.79119
21
-4.02305
0
LINE
8
BLACK
6
CONTINUOUS
10
5.79119
20
-4.02305
11
5.78893
21
-4.01978
0
LINE
8
BLACK
6
CONTINUOUS
10
5.78893
20
-4.01978
11
5.78805
21
-4.01712
0
LINE
8
BLACK
6
CONTINUOUS
10
5.78805
20
-4.01712
11
5.78805
21
-4.01696
0
LINE
8
BLACK
6
CONTINUOUS
10
5.78805
20
-4.01696
11
5.78805
21
-3.97684
0
LINE
8
BLACK
6
CONTINUOUS
10
5.78805
20
-3.97684
11
5.78884
21
-3.97416
0
LINE
8
BLACK
6
CONTINUOUS
10
5.78884
20
-3.97416
11
5.79071
21
-3.97245
0
LINE
8
BLACK
6
CONTINUOUS
10
5.79071
20
-3.97245
11
5.79505
21
-3.97017
0
LINE
8
BLACK
6
CONTINUOUS
10
5.79505
20
-3.97017
11
5.7997
21
-3.96604
0
LINE
8
BLACK
6
CONTINUOUS
10
5.7997
20
-3.96604
11
5.80324
21
-3.96093
0
LINE
8
BLACK
6
CONTINUOUS
10
5.80324
20
-3.96093
11
5.80544
21
-3.95511
0
LINE
8
BLACK
6
CONTINUOUS
10
5.80544
20
-3.95511
11
5.80544
21
-3.95511
0
LINE
8
BLACK
6
CONTINUOUS
10
5.80544
20
-3.95511
11
5.80544
21
-3.95511
0
LINE
8
BLACK
6
CONTINUOUS
10
5.80544
20
-3.95511
11
5.80619
21
-3.94894
0
LINE
8
BLACK
6
CONTINUOUS
10
5.80619
20
-3.94894
11
5.80619
21
-3.94894
0
LINE
8
BLACK
6
CONTINUOUS
10
5.80619
20
-3.94894
11
5.80544
21
-3.94276
0
LINE
8
BLACK
6
CONTINUOUS
10
5.80544
20
-3.94276
11
5.8051
21
-3.94187
0
LINE
8
BLACK
6
CONTINUOUS
10
5.8051
20
-3.94187
11
5.80324
21
-3.93695
0
LINE
8
BLACK
6
CONTINUOUS
10
5.80324
20
-3.93695
11
5.80324
21
-3.93695
0
LINE
8
BLACK
6
CONTINUOUS
10
5.80324
20
-3.93695
11
5.80324
21
-3.93695
0
LINE
8
BLACK
6
CONTINUOUS
10
5.80324
20
-3.93695
11
5.7997
21
-3.93183
0
LINE
8
BLACK
6
CONTINUOUS
10
5.7997
20
-3.93183
11
5.7997
21
-3.93183
0
LINE
8
BLACK
6
CONTINUOUS
10
5.7997
20
-3.93183
11
5.79505
21
-3.92771
0
LINE
8
BLACK
6
CONTINUOUS
10
5.79505
20
-3.92771
11
5.79008
21
-3.9251
0
LINE
8
BLACK
6
CONTINUOUS
10
5.79008
20
-3.9251
11
5.78807
21
-3.92315
0
LINE
8
BLACK
6
CONTINUOUS
10
5.78807
20
-3.92315
11
5.78742
21
-3.9207
0
LINE
8
BLACK
6
CONTINUOUS
10
5.78742
20
-3.9207
11
5.78742
21
-3.87308
0
LINE
8
BLACK
6
CONTINUOUS
10
5.78742
20
-3.87308
11
5.78821
21
-3.8704
0
LINE
8
BLACK
6
CONTINUOUS
10
5.78821
20
-3.8704
11
5.7883
21
-3.87026
0
LINE
8
BLACK
6
CONTINUOUS
10
5.7883
20
-3.87026
11
5.78881
21
-3.86953
0
LINE
8
BLACK
6
CONTINUOUS
10
5.78881
20
-3.86953
11
5.79056
21
-3.86699
0
LINE
8
BLACK
6
CONTINUOUS
10
5.79056
20
-3.86699
11
5.79277
21
-3.86117
0
LINE
8
BLACK
6
CONTINUOUS
10
5.79277
20
-3.86117
11
5.79324
21
-3.8573
0
LINE
8
BLACK
6
CONTINUOUS
10
5.79324
20
-3.8573
11
5.79351
21
-3.855
0
LINE
8
BLACK
6
CONTINUOUS
10
5.79351
20
-3.855
11
5.79351
21
-3.8547
0
LINE
8
BLACK
6
CONTINUOUS
10
5.79351
20
-3.8547
11
5.79358
21
-3.8547
0
LINE
8
BLACK
6
CONTINUOUS
10
5.79358
20
-3.8547
11
5.79398
21
-3.85229
0
LINE
8
BLACK
6
CONTINUOUS
10
5.79398
20
-3.85229
11
5.79586
21
-3.85022
0
LINE
8
BLACK
6
CONTINUOUS
10
5.79586
20
-3.85022
11
5.79855
21
-3.84949
0
LINE
8
BLACK
6
CONTINUOUS
10
5.79855
20
-3.84949
11
5.80122
21
-3.85034
0
LINE
8
BLACK
6
CONTINUOUS
10
5.80122
20
-3.85034
11
5.80195
21
-3.85095
0
LINE
8
BLACK
6
CONTINUOUS
10
5.80195
20
-3.85095
11
5.94543
21
-3.99443
0
LINE
8
BLACK
6
CONTINUOUS
10
5.94543
20
-3.99443
11
5.94543
21
-3.99443
0
LINE
8
BLACK
6
CONTINUOUS
10
5.94543
20
-3.99443
11
5.94625
21
-3.99524
0
LINE
8
BLACK
6
CONTINUOUS
10
5.94625
20
-3.99524
11
5.94702
21
-3.99563
0
LINE
8
BLACK
6
CONTINUOUS
10
5.94702
20
-3.99563
11
5.94768
21
-3.99604
0
LINE
8
BLACK
6
CONTINUOUS
10
5.94768
20
-3.99604
11
5.94838
21
-3.99655
0
LINE
8
BLACK
6
CONTINUOUS
10
5.94838
20
-3.99655
11
5.94838
21
-3.99655
0
LINE
8
BLACK
6
CONTINUOUS
10
5.94838
20
-3.99655
11
5.94838
21
-3.99655
0
LINE
8
BLACK
6
CONTINUOUS
10
5.94838
20
-3.99655
11
5.94881
21
-3.99669
0
LINE
8
BLACK
6
CONTINUOUS
10
5.94881
20
-3.99669
11
5.94921
21
-3.99682
0
LINE
8
BLACK
6
CONTINUOUS
10
5.94921
20
-3.99682
11
5.94993
21
-3.99711
0
LINE
8
BLACK
6
CONTINUOUS
10
5.94993
20
-3.99711
11
5.9507
21
-3.99751
0
LINE
8
BLACK
6
CONTINUOUS
10
5.9507
20
-3.99751
11
5.95155
21
-3.99764
0
LINE
8
BLACK
6
CONTINUOUS
10
5.95155
20
-3.99764
11
5.95231
21
-3.99782
0
LINE
8
BLACK
6
CONTINUOUS
10
5.95231
20
-3.99782
11
5.95313
21
-3.99809
0
LINE
8
BLACK
6
CONTINUOUS
10
5.95313
20
-3.99809
11
5.95313
21
-3.99809
0
LINE
8
BLACK
6
CONTINUOUS
10
5.95313
20
-3.99809
11
5.95352
21
-3.99815
0
LINE
8
BLACK
6
CONTINUOUS
10
5.95352
20
-3.99815
11
5.9535
21
-3.99826
0
LINE
8
BLACK
6
CONTINUOUS
10
5.9535
20
-3.99826
11
5.95561
21
-3.99888
0
LINE
8
BLACK
6
CONTINUOUS
10
5.95561
20
-3.99888
11
5.95622
21
-3.99934
0
LINE
8
BLACK
6
CONTINUOUS
10
5.95622
20
-3.99934
11
5.95632
21
-3.99943
0
LINE
8
BLACK
6
CONTINUOUS
10
5.95632
20
-3.99943
11
5.95632
21
-3.99943
0
LINE
8
BLACK
6
CONTINUOUS
10
5.95632
20
-3.99943
11
5.96098
21
-4.00356
0
LINE
8
BLACK
6
CONTINUOUS
10
5.96098
20
-4.00356
11
5.96648
21
-4.00645
0
LINE
8
BLACK
6
CONTINUOUS
10
5.96648
20
-4.00645
11
5.96648
21
-4.00645
0
LINE
8
BLACK
6
CONTINUOUS
10
5.96648
20
-4.00645
11
5.96648
21
-4.00645
0
LINE
8
BLACK
6
CONTINUOUS
10
5.96648
20
-4.00645
11
5.9695
21
-4.00719
0
LINE
8
BLACK
6
CONTINUOUS
10
5.9695
20
-4.00719
11
5.97252
21
-4.00793
0
LINE
8
BLACK
6
CONTINUOUS
10
5.97252
20
-4.00793
11
5.97252
21
-4.00793
0
LINE
8
BLACK
6
CONTINUOUS
10
5.97252
20
-4.00793
11
5.97874
21
-4.00793
0
LINE
8
BLACK
6
CONTINUOUS
10
5.97874
20
-4.00793
11
5.97874
21
-4.00793
0
LINE
8
BLACK
6
CONTINUOUS
10
5.97874
20
-4.00793
11
5.98478
21
-4.00645
0
LINE
8
BLACK
6
CONTINUOUS
10
5.98478
20
-4.00645
11
5.99029
21
-4.00356
0
LINE
8
BLACK
6
CONTINUOUS
10
5.99029
20
-4.00356
11
5.99494
21
-3.99943
0
LINE
8
BLACK
6
CONTINUOUS
10
5.99494
20
-3.99943
11
5.99816
21
-3.99476
0
LINE
8
BLACK
6
CONTINUOUS
10
5.99816
20
-3.99476
11
5.99847
21
-3.99431
0
LINE
8
BLACK
6
CONTINUOUS
10
5.99847
20
-3.99431
11
5.99847
21
-3.99431
0
LINE
8
BLACK
6
CONTINUOUS
10
5.99847
20
-3.99431
11
5.99847
21
-3.99431
0
LINE
8
BLACK
6
CONTINUOUS
10
5.99847
20
-3.99431
11
6.00068
21
-3.9885
0
LINE
8
BLACK
6
CONTINUOUS
10
6.00068
20
-3.9885
11
6.00068
21
-3.9885
0
LINE
8
BLACK
6
CONTINUOUS
10
6.00068
20
-3.9885
11
6.00068
21
-3.9885
0
LINE
8
BLACK
6
CONTINUOUS
10
6.00068
20
-3.9885
11
6.00143
21
-3.98232
0
LINE
8
BLACK
6
CONTINUOUS
10
6.00143
20
-3.98232
11
6.00143
21
-3.98232
0
LINE
8
BLACK
6
CONTINUOUS
10
6.00143
20
-3.98232
11
6.00068
21
-3.97615
0
LINE
8
BLACK
6
CONTINUOUS
10
6.00068
20
-3.97615
11
6.00037
21
-3.97533
0
LINE
8
BLACK
6
CONTINUOUS
10
6.00037
20
-3.97533
11
5.99847
21
-3.97033
0
LINE
8
BLACK
6
CONTINUOUS
10
5.99847
20
-3.97033
11
5.99847
21
-3.97033
0
LINE
8
BLACK
6
CONTINUOUS
10
5.99847
20
-3.97033
11
5.99847
21
-3.97033
0
LINE
8
BLACK
6
CONTINUOUS
10
5.99847
20
-3.97033
11
5.99494
21
-3.96522
0
LINE
8
BLACK
6
CONTINUOUS
10
5.99494
20
-3.96522
11
5.99494
21
-3.96522
0
LINE
8
BLACK
6
CONTINUOUS
10
5.99494
20
-3.96522
11
5.99029
21
-3.96109
0
LINE
8
BLACK
6
CONTINUOUS
10
5.99029
20
-3.96109
11
5.98478
21
-3.9582
0
LINE
8
BLACK
6
CONTINUOUS
10
5.98478
20
-3.9582
11
5.98478
21
-3.9582
0
LINE
8
BLACK
6
CONTINUOUS
10
5.98478
20
-3.9582
11
5.97874
21
-3.95671
0
LINE
8
BLACK
6
CONTINUOUS
10
5.97874
20
-3.95671
11
5.97874
21
-3.95671
0
LINE
8
BLACK
6
CONTINUOUS
10
5.97874
20
-3.95671
11
5.97252
21
-3.95671
0
LINE
8
BLACK
6
CONTINUOUS
10
5.97252
20
-3.95671
11
5.97252
21
-3.95671
0
LINE
8
BLACK
6
CONTINUOUS
10
5.97252
20
-3.95671
11
5.96648
21
-3.9582
0
LINE
8
BLACK
6
CONTINUOUS
10
5.96648
20
-3.9582
11
5.96648
21
-3.9582
0
LINE
8
BLACK
6
CONTINUOUS
10
5.96648
20
-3.9582
11
5.9614
21
-3.96087
0
LINE
8
BLACK
6
CONTINUOUS
10
5.9614
20
-3.96087
11
5.95866
21
-3.96142
0
LINE
8
BLACK
6
CONTINUOUS
10
5.95866
20
-3.96142
11
5.95606
21
-3.9604
0
LINE
8
BLACK
6
CONTINUOUS
10
5.95606
20
-3.9604
11
5.95559
21
-3.95998
0
LINE
8
BLACK
6
CONTINUOUS
10
5.95559
20
-3.95998
11
5.87565
21
-3.88004
0
LINE
8
BLACK
6
CONTINUOUS
10
5.87565
20
-3.88004
11
5.72547
21
-3.72987
0
LINE
8
BLACK
6
CONTINUOUS
10
5.9433
20
-3.88621
11
5.94432
21
-3.88891
0
LINE
8
BLACK
6
CONTINUOUS
10
5.94432
20
-3.88891
11
5.9455
21
-3.89203
0
LINE
8
BLACK
6
CONTINUOUS
10
5.9455
20
-3.89203
11
5.9455
21
-3.89203
0
LINE
8
BLACK
6
CONTINUOUS
10
5.9455
20
-3.89203
11
5.9455
21
-3.89203
0
LINE
8
BLACK
6
CONTINUOUS
10
5.9455
20
-3.89203
11
5.9455
21
-3.89203
0
LINE
8
BLACK
6
CONTINUOUS
10
5.9455
20
-3.89203
11
5.94904
21
-3.89715
0
LINE
8
BLACK
6
CONTINUOUS
10
5.94904
20
-3.89715
11
5.94904
21
-3.89715
0
LINE
8
BLACK
6
CONTINUOUS
10
5.94904
20
-3.89715
11
5.95017
21
-3.89815
0
LINE
8
BLACK
6
CONTINUOUS
10
5.95017
20
-3.89815
11
5.95369
21
-3.90127
0
LINE
8
BLACK
6
CONTINUOUS
10
5.95369
20
-3.90127
11
5.9592
21
-3.90416
0
LINE
8
BLACK
6
CONTINUOUS
10
5.9592
20
-3.90416
11
5.9592
21
-3.90416
0
LINE
8
BLACK
6
CONTINUOUS
10
5.9592
20
-3.90416
11
5.9592
21
-3.90416
0
LINE
8
BLACK
6
CONTINUOUS
10
5.9592
20
-3.90416
11
5.96222
21
-3.90491
0
LINE
8
BLACK
6
CONTINUOUS
10
5.96222
20
-3.90491
11
5.96524
21
-3.90565
0
LINE
8
BLACK
6
CONTINUOUS
10
5.96524
20
-3.90565
11
5.96682
21
-3.90565
0
LINE
8
BLACK
6
CONTINUOUS
10
5.96682
20
-3.90565
11
5.9695
21
-3.90644
0
LINE
8
BLACK
6
CONTINUOUS
10
5.9695
20
-3.90644
11
5.97033
21
-3.9071
0
LINE
8
BLACK
6
CONTINUOUS
10
5.97033
20
-3.9071
11
6.11
21
-4.04678
0
LINE
8
BLACK
6
CONTINUOUS
10
6.11
20
-4.04678
11
6.11019
21
-4.04699
0
LINE
8
BLACK
6
CONTINUOUS
10
6.11019
20
-4.04699
11
6.11022
21
-4.04703
0
LINE
8
BLACK
6
CONTINUOUS
10
6.11022
20
-4.04703
11
6.11115
21
-4.04819
0
LINE
8
BLACK
6
CONTINUOUS
10
6.11115
20
-4.04819
11
6.11304
21
-4.04948
0
LINE
8
BLACK
6
CONTINUOUS
10
6.11304
20
-4.04948
11
6.11312
21
-4.04953
0
LINE
8
BLACK
6
CONTINUOUS
10
6.11312
20
-4.04953
11
6.11497
21
-4.0509
0
LINE
8
BLACK
6
CONTINUOUS
10
6.11497
20
-4.0509
11
6.11497
21
-4.0509
0
LINE
8
BLACK
6
CONTINUOUS
10
6.11497
20
-4.0509
11
6.11526
21
-4.05105
0
LINE
8
BLACK
6
CONTINUOUS
10
6.11526
20
-4.05105
11
6.11556
21
-4.0512
0
LINE
8
BLACK
6
CONTINUOUS
10
6.11556
20
-4.0512
11
6.11556
21
-4.0512
0
LINE
8
BLACK
6
CONTINUOUS
10
6.11556
20
-4.0512
11
6.11698
21
-4.05164
0
LINE
8
BLACK
6
CONTINUOUS
10
6.11698
20
-4.05164
11
6.11776
21
-4.05188
0
LINE
8
BLACK
6
CONTINUOUS
10
6.11776
20
-4.05188
11
6.11785
21
-4.05191
0
LINE
8
BLACK
6
CONTINUOUS
10
6.11785
20
-4.05191
11
6.11928
21
-4.05241
0
LINE
8
BLACK
6
CONTINUOUS
10
6.11928
20
-4.05241
11
6.12001
21
-4.05266
0
LINE
8
BLACK
6
CONTINUOUS
10
6.12001
20
-4.05266
11
6.12001
21
-4.05266
0
LINE
8
BLACK
6
CONTINUOUS
10
6.12001
20
-4.05266
11
6.12034
21
-4.05273
0
LINE
8
BLACK
6
CONTINUOUS
10
6.12034
20
-4.05273
11
6.12067
21
-4.05278
0
LINE
8
BLACK
6
CONTINUOUS
10
6.12067
20
-4.05278
11
6.12067
21
-4.05278
0
LINE
8
BLACK
6
CONTINUOUS
10
6.12067
20
-4.05278
11
6.12297
21
-4.05278
0
LINE
8
BLACK
6
CONTINUOUS
10
6.12297
20
-4.05278
11
6.12306
21
-4.05278
0
LINE
8
BLACK
6
CONTINUOUS
10
6.12306
20
-4.05278
11
6.12319
21
-4.05278
0
LINE
8
BLACK
6
CONTINUOUS
10
6.12319
20
-4.05278
11
6.12535
21
-4.05286
0
LINE
8
BLACK
6
CONTINUOUS
10
6.12535
20
-4.05286
11
6.12535
21
-4.05286
0
LINE
8
BLACK
6
CONTINUOUS
10
6.12535
20
-4.05286
11
6.12572
21
-4.05282
0
LINE
8
BLACK
6
CONTINUOUS
10
6.12572
20
-4.05282
11
6.12573
21
-4.05286
0
LINE
8
BLACK
6
CONTINUOUS
10
6.12573
20
-4.05286
11
6.12633
21
-4.05278
0
LINE
8
BLACK
6
CONTINUOUS
10
6.12633
20
-4.05278
11
6.16786
21
-4.05278
0
LINE
8
BLACK
6
CONTINUOUS
10
6.16786
20
-4.05278
11
6.17055
21
-4.05356
0
LINE
8
BLACK
6
CONTINUOUS
10
6.17055
20
-4.05356
11
6.17115
21
-4.05402
0
LINE
8
BLACK
6
CONTINUOUS
10
6.17115
20
-4.05402
11
6.17369
21
-4.05627
0
LINE
8
BLACK
6
CONTINUOUS
10
6.17369
20
-4.05627
11
6.1792
21
-4.05916
0
LINE
8
BLACK
6
CONTINUOUS
10
6.1792
20
-4.05916
11
6.1792
21
-4.05916
0
LINE
8
BLACK
6
CONTINUOUS
10
6.1792
20
-4.05916
11
6.1792
21
-4.05916
0
LINE
8
BLACK
6
CONTINUOUS
10
6.1792
20
-4.05916
11
6.18222
21
-4.05991
0
LINE
8
BLACK
6
CONTINUOUS
10
6.18222
20
-4.05991
11
6.18524
21
-4.06065
0
LINE
8
BLACK
6
CONTINUOUS
10
6.18524
20
-4.06065
11
6.18524
21
-4.06065
0
LINE
8
BLACK
6
CONTINUOUS
10
6.18524
20
-4.06065
11
6.19146
21
-4.06065
0
LINE
8
BLACK
6
CONTINUOUS
10
6.19146
20
-4.06065
11
6.19146
21
-4.06065
0
LINE
8
BLACK
6
CONTINUOUS
10
6.19146
20
-4.06065
11
6.19749
21
-4.05916
0
LINE
8
BLACK
6
CONTINUOUS
10
6.19749
20
-4.05916
11
6.19901
21
-4.05837
0
LINE
8
BLACK
6
CONTINUOUS
10
6.19901
20
-4.05837
11
6.20175
21
-4.05782
0
LINE
8
BLACK
6
CONTINUOUS
10
6.20175
20
-4.05782
11
6.20435
21
-4.05884
0
LINE
8
BLACK
6
CONTINUOUS
10
6.20435
20
-4.05884
11
6.20599
21
-4.0611
0
LINE
8
BLACK
6
CONTINUOUS
10
6.20599
20
-4.0611
11
6.20614
21
-4.06389
0
LINE
8
BLACK
6
CONTINUOUS
10
6.20614
20
-4.06389
11
6.20482
21
-4.06627
0
LINE
8
BLACK
6
CONTINUOUS
10
6.20482
20
-4.06627
11
6.19307
21
-4.07801
0
LINE
8
BLACK
6
CONTINUOUS
10
6.19307
20
-4.07801
11
6.19062
21
-4.07935
0
LINE
8
BLACK
6
CONTINUOUS
10
6.19062
20
-4.07935
11
6.18957
21
-4.07947
0
LINE
8
BLACK
6
CONTINUOUS
10
6.18957
20
-4.07947
11
6.15375
21
-4.07947
0
LINE
8
BLACK
6
CONTINUOUS
10
6.15375
20
-4.07947
11
6.15107
21
-4.07868
0
LINE
8
BLACK
6
CONTINUOUS
10
6.15107
20
-4.07868
11
6.15046
21
-4.07822
0
LINE
8
BLACK
6
CONTINUOUS
10
6.15046
20
-4.07822
11
6.1457
21
-4.074
0
LINE
8
BLACK
6
CONTINUOUS
10
6.1457
20
-4.074
11
6.14019
21
-4.07111
0
LINE
8
BLACK
6
CONTINUOUS
10
6.14019
20
-4.07111
11
6.14019
21
-4.07111
0
LINE
8
BLACK
6
CONTINUOUS
10
6.14019
20
-4.07111
11
6.13415
21
-4.06962
0
LINE
8
BLACK
6
CONTINUOUS
10
6.13415
20
-4.06962
11
6.13415
21
-4.06962
0
LINE
8
BLACK
6
CONTINUOUS
10
6.13415
20
-4.06962
11
6.12793
21
-4.06962
0
LINE
8
BLACK
6
CONTINUOUS
10
6.12793
20
-4.06962
11
6.12793
21
-4.06962
0
LINE
8
BLACK
6
CONTINUOUS
10
6.12793
20
-4.06962
11
6.1219
21
-4.07111
0
LINE
8
BLACK
6
CONTINUOUS
10
6.1219
20
-4.07111
11
6.1219
21
-4.07111
0
LINE
8
BLACK
6
CONTINUOUS
10
6.1219
20
-4.07111
11
6.11639
21
-4.074
0
LINE
8
BLACK
6
CONTINUOUS
10
6.11639
20
-4.074
11
6.11173
21
-4.07813
0
LINE
8
BLACK
6
CONTINUOUS
10
6.11173
20
-4.07813
11
6.11173
21
-4.07813
0
LINE
8
BLACK
6
CONTINUOUS
10
6.11173
20
-4.07813
11
6.1082
21
-4.08325
0
LINE
8
BLACK
6
CONTINUOUS
10
6.1082
20
-4.08325
11
6.1082
21
-4.08325
0
LINE
8
BLACK
6
CONTINUOUS
10
6.1082
20
-4.08325
11
6.10599
21
-4.08906
0
LINE
8
BLACK
6
CONTINUOUS
10
6.10599
20
-4.08906
11
6.10524
21
-4.09523
0
LINE
8
BLACK
6
CONTINUOUS
10
6.10524
20
-4.09523
11
6.10524
21
-4.09523
0
LINE
8
BLACK
6
CONTINUOUS
10
6.10524
20
-4.09523
11
6.10599
21
-4.10141
0
LINE
8
BLACK
6
CONTINUOUS
10
6.10599
20
-4.10141
11
6.10665
21
-4.10315
0
LINE
8
BLACK
6
CONTINUOUS
10
6.10665
20
-4.10315
11
6.1082
21
-4.10722
0
LINE
8
BLACK
6
CONTINUOUS
10
6.1082
20
-4.10722
11
6.1082
21
-4.10722
0
LINE
8
BLACK
6
CONTINUOUS
10
6.1082
20
-4.10722
11
6.1082
21
-4.10722
0
LINE
8
BLACK
6
CONTINUOUS
10
6.1082
20
-4.10722
11
6.1082
21
-4.10722
0
LINE
8
BLACK
6
CONTINUOUS
10
6.1082
20
-4.10722
11
6.11173
21
-4.11234
0
LINE
8
BLACK
6
CONTINUOUS
10
6.11173
20
-4.11234
11
6.11173
21
-4.11234
0
LINE
8
BLACK
6
CONTINUOUS
10
6.11173
20
-4.11234
11
6.1136
21
-4.114
0
LINE
8
BLACK
6
CONTINUOUS
10
6.1136
20
-4.114
11
6.11509
21
-4.11637
0
LINE
8
BLACK
6
CONTINUOUS
10
6.11509
20
-4.11637
11
6.11528
21
-4.11771
0
LINE
8
BLACK
6
CONTINUOUS
10
6.11528
20
-4.11771
11
6.11528
21
-4.12523
0
LINE
8
BLACK
6
CONTINUOUS
10
6.11528
20
-4.12523
11
6.11554
21
-4.12606
0
LINE
8
BLACK
6
CONTINUOUS
10
6.11554
20
-4.12606
11
6.11572
21
-4.12681
0
LINE
8
BLACK
6
CONTINUOUS
10
6.11572
20
-4.12681
11
6.11586
21
-4.12767
0
LINE
8
BLACK
6
CONTINUOUS
10
6.11586
20
-4.12767
11
6.11586
21
-4.12767
0
LINE
8
BLACK
6
CONTINUOUS
10
6.11586
20
-4.12767
11
6.11625
21
-4.12844
0
LINE
8
BLACK
6
CONTINUOUS
10
6.11625
20
-4.12844
11
6.11655
21
-4.12916
0
LINE
8
BLACK
6
CONTINUOUS
10
6.11655
20
-4.12916
11
6.11682
21
-4.12998
0
LINE
8
BLACK
6
CONTINUOUS
10
6.11682
20
-4.12998
11
6.11682
21
-4.12998
0
LINE
8
BLACK
6
CONTINUOUS
10
6.11682
20
-4.12998
11
6.11733
21
-4.13068
0
LINE
8
BLACK
6
CONTINUOUS
10
6.11733
20
-4.13068
11
6.11773
21
-4.13135
0
LINE
8
BLACK
6
CONTINUOUS
10
6.11773
20
-4.13135
11
6.11813
21
-4.13212
0
LINE
8
BLACK
6
CONTINUOUS
10
6.11813
20
-4.13212
11
6.11813
21
-4.13212
0
LINE
8
BLACK
6
CONTINUOUS
10
6.11813
20
-4.13212
11
6.11813
21
-4.13212
0
LINE
8
BLACK
6
CONTINUOUS
10
6.11813
20
-4.13212
11
6.11895
21
-4.13295
0
LINE
8
BLACK
6
CONTINUOUS
10
6.11895
20
-4.13295
11
6.11896
21
-4.13295
0
LINE
8
BLACK
6
CONTINUOUS
10
6.11896
20
-4.13295
11
6.16815
21
-4.18214
0
LINE
8
BLACK
6
CONTINUOUS
10
6.16815
20
-4.18214
11
6.16815
21
-4.18214
0
LINE
8
BLACK
6
CONTINUOUS
10
6.16815
20
-4.18214
11
6.16894
21
-4.18293
0
LINE
8
BLACK
6
CONTINUOUS
10
6.16894
20
-4.18293
11
6.16896
21
-4.18295
0
LINE
8
BLACK
6
CONTINUOUS
10
6.16896
20
-4.18295
11
6.16973
21
-4.18335
0
LINE
8
BLACK
6
CONTINUOUS
10
6.16973
20
-4.18335
11
6.1704
21
-4.18375
0
LINE
8
BLACK
6
CONTINUOUS
10
6.1704
20
-4.18375
11
6.1711
21
-4.18426
0
LINE
8
BLACK
6
CONTINUOUS
10
6.1711
20
-4.18426
11
6.1711
21
-4.18426
0
LINE
8
BLACK
6
CONTINUOUS
10
6.1711
20
-4.18426
11
6.1711
21
-4.18426
0
LINE
8
BLACK
6
CONTINUOUS
10
6.1711
20
-4.18426
11
6.17125
21
-4.18431
0
LINE
8
BLACK
6
CONTINUOUS
10
6.17125
20
-4.18431
11
6.17192
21
-4.18453
0
LINE
8
BLACK
6
CONTINUOUS
10
6.17192
20
-4.18453
11
6.17264
21
-4.18483
0
LINE
8
BLACK
6
CONTINUOUS
10
6.17264
20
-4.18483
11
6.17341
21
-4.18522
0
LINE
8
BLACK
6
CONTINUOUS
10
6.17341
20
-4.18522
11
6.17427
21
-4.18536
0
LINE
8
BLACK
6
CONTINUOUS
10
6.17427
20
-4.18536
11
6.17503
21
-4.18554
0
LINE
8
BLACK
6
CONTINUOUS
10
6.17503
20
-4.18554
11
6.17585
21
-4.18581
0
LINE
8
BLACK
6
CONTINUOUS
10
6.17585
20
-4.18581
11
6.17711
21
-4.18581
0
LINE
8
BLACK
6
CONTINUOUS
10
6.17711
20
-4.18581
11
6.33874
21
-4.18581
0
LINE
8
BLACK
6
CONTINUOUS
10
6.33874
20
-4.18581
11
6.34142
21
-4.18659
0
LINE
8
BLACK
6
CONTINUOUS
10
6.34142
20
-4.18659
11
6.34282
21
-4.18795
0
LINE
8
BLACK
6
CONTINUOUS
10
6.34282
20
-4.18795
11
6.34289
21
-4.18805
0
LINE
8
BLACK
6
CONTINUOUS
10
6.34289
20
-4.18805
11
6.34289
21
-4.18805
0
LINE
8
BLACK
6
CONTINUOUS
10
6.34289
20
-4.18805
11
6.34289
21
-4.18805
0
LINE
8
BLACK
6
CONTINUOUS
10
6.34289
20
-4.18805
11
6.34755
21
-4.19218
0
LINE
8
BLACK
6
CONTINUOUS
10
6.34755
20
-4.19218
11
6.35306
21
-4.19507
0
LINE
8
BLACK
6
CONTINUOUS
10
6.35306
20
-4.19507
11
6.35306
21
-4.19507
0
LINE
8
BLACK
6
CONTINUOUS
10
6.35306
20
-4.19507
11
6.35306
21
-4.19507
0
LINE
8
BLACK
6
CONTINUOUS
10
6.35306
20
-4.19507
11
6.35608
21
-4.19581
0
LINE
8
BLACK
6
CONTINUOUS
10
6.35608
20
-4.19581
11
6.3591
21
-4.19656
0
LINE
8
BLACK
6
CONTINUOUS
10
6.3591
20
-4.19656
11
6.3591
21
-4.19656
0
LINE
8
BLACK
6
CONTINUOUS
10
6.3591
20
-4.19656
11
6.36531
21
-4.19656
0
LINE
8
BLACK
6
CONTINUOUS
10
6.36531
20
-4.19656
11
6.36531
21
-4.19656
0
LINE
8
BLACK
6
CONTINUOUS
10
6.36531
20
-4.19656
11
6.37135
21
-4.19507
0
LINE
8
BLACK
6
CONTINUOUS
10
6.37135
20
-4.19507
11
6.37686
21
-4.19218
0
LINE
8
BLACK
6
CONTINUOUS
10
6.37686
20
-4.19218
11
6.38152
21
-4.18805
0
LINE
8
BLACK
6
CONTINUOUS
10
6.38152
20
-4.18805
11
6.38267
21
-4.18638
0
LINE
8
BLACK
6
CONTINUOUS
10
6.38267
20
-4.18638
11
6.38484
21
-4.18462
0
LINE
8
BLACK
6
CONTINUOUS
10
6.38484
20
-4.18462
11
6.38762
21
-4.18431
0
LINE
8
BLACK
6
CONTINUOUS
10
6.38762
20
-4.18431
11
6.39012
21
-4.18556
0
LINE
8
BLACK
6
CONTINUOUS
10
6.39012
20
-4.18556
11
6.39156
21
-4.18796
0
LINE
8
BLACK
6
CONTINUOUS
10
6.39156
20
-4.18796
11
6.39171
21
-4.1892
0
LINE
8
BLACK
6
CONTINUOUS
10
6.39171
20
-4.1892
11
6.39171
21
-4.20333
0
LINE
8
BLACK
6
CONTINUOUS
10
6.39171
20
-4.20333
11
6.39093
21
-4.20601
0
LINE
8
BLACK
6
CONTINUOUS
10
6.39093
20
-4.20601
11
6.39004
21
-4.20704
0
LINE
8
BLACK
6
CONTINUOUS
10
6.39004
20
-4.20704
11
6.38904
21
-4.20793
0
LINE
8
BLACK
6
CONTINUOUS
10
6.38904
20
-4.20793
11
6.38904
21
-4.20793
0
LINE
8
BLACK
6
CONTINUOUS
10
6.38904
20
-4.20793
11
6.3855
21
-4.21305
0
LINE
8
BLACK
6
CONTINUOUS
10
6.3855
20
-4.21305
11
6.3855
21
-4.21305
0
LINE
8
BLACK
6
CONTINUOUS
10
6.3855
20
-4.21305
11
6.3833
21
-4.21887
0
LINE
8
BLACK
6
CONTINUOUS
10
6.3833
20
-4.21887
11
6.38255
21
-4.22504
0
LINE
8
BLACK
6
CONTINUOUS
10
6.38255
20
-4.22504
11
6.38255
21
-4.22504
0
LINE
8
BLACK
6
CONTINUOUS
10
6.38255
20
-4.22504
11
6.3833
21
-4.23121
0
LINE
8
BLACK
6
CONTINUOUS
10
6.3833
20
-4.23121
11
6.3844
21
-4.23412
0
LINE
8
BLACK
6
CONTINUOUS
10
6.3844
20
-4.23412
11
6.3855
21
-4.23703
0
LINE
8
BLACK
6
CONTINUOUS
10
6.3855
20
-4.23703
11
6.3855
21
-4.23703
0
LINE
8
BLACK
6
CONTINUOUS
10
6.3855
20
-4.23703
11
6.3855
21
-4.23703
0
LINE
8
BLACK
6
CONTINUOUS
10
6.3855
20
-4.23703
11
6.3855
21
-4.23703
0
LINE
8
BLACK
6
CONTINUOUS
10
6.3855
20
-4.23703
11
6.38587
21
-4.23756
0
LINE
8
BLACK
6
CONTINUOUS
10
6.38587
20
-4.23756
11
6.38674
21
-4.24021
0
LINE
8
BLACK
6
CONTINUOUS
10
6.38674
20
-4.24021
11
6.38604
21
-4.24292
0
LINE
8
BLACK
6
CONTINUOUS
10
6.38604
20
-4.24292
11
6.38399
21
-4.24482
0
LINE
8
BLACK
6
CONTINUOUS
10
6.38399
20
-4.24482
11
6.38178
21
-4.24533
0
LINE
8
BLACK
6
CONTINUOUS
10
6.38178
20
-4.24533
11
6.15661
21
-4.24533
0
LINE
8
BLACK
6
CONTINUOUS
10
6.15661
20
-4.24533
11
6.15392
21
-4.24455
0
LINE
8
BLACK
6
CONTINUOUS
10
6.15392
20
-4.24455
11
6.15332
21
-4.24409
0
LINE
8
BLACK
6
CONTINUOUS
10
6.15332
20
-4.24409
11
6.153
21
-4.24381
0
LINE
8
BLACK
6
CONTINUOUS
10
6.153
20
-4.24381
11
6.153
21
-4.24381
0
LINE
8
BLACK
6
CONTINUOUS
10
6.153
20
-4.24381
11
6.14749
21
-4.24092
0
LINE
8
BLACK
6
CONTINUOUS
10
6.14749
20
-4.24092
11
6.14749
21
-4.24092
0
LINE
8
BLACK
6
CONTINUOUS
10
6.14749
20
-4.24092
11
6.14146
21
-4.23943
0
LINE
8
BLACK
6
CONTINUOUS
10
6.14146
20
-4.23943
11
6.14146
21
-4.23943
0
LINE
8
BLACK
6
CONTINUOUS
10
6.14146
20
-4.23943
11
6.13524
21
-4.23943
0
LINE
8
BLACK
6
CONTINUOUS
10
6.13524
20
-4.23943
11
6.13524
21
-4.23943
0
LINE
8
BLACK
6
CONTINUOUS
10
6.13524
20
-4.23943
11
6.1292
21
-4.24092
0
LINE
8
BLACK
6
CONTINUOUS
10
6.1292
20
-4.24092
11
6.1292
21
-4.24092
0
LINE
8
BLACK
6
CONTINUOUS
10
6.1292
20
-4.24092
11
6.12369
21
-4.24381
0
LINE
8
BLACK
6
CONTINUOUS
10
6.12369
20
-4.24381
11
6.11904
21
-4.24793
0
LINE
8
BLACK
6
CONTINUOUS
10
6.11904
20
-4.24793
11
6.11904
21
-4.24793
0
LINE
8
BLACK
6
CONTINUOUS
10
6.11904
20
-4.24793
11
6.1155
21
-4.25305
0
LINE
8
BLACK
6
CONTINUOUS
10
6.1155
20
-4.25305
11
6.1155
21
-4.25305
0
LINE
8
BLACK
6
CONTINUOUS
10
6.1155
20
-4.25305
11
6.1133
21
-4.25887
0
LINE
8
BLACK
6
CONTINUOUS
10
6.1133
20
-4.25887
11
6.11255
21
-4.26504
0
LINE
8
BLACK
6
CONTINUOUS
10
6.11255
20
-4.26504
11
6.11255
21
-4.26504
0
LINE
8
BLACK
6
CONTINUOUS
10
6.11255
20
-4.26504
11
6.1133
21
-4.27121
0
LINE
8
BLACK
6
CONTINUOUS
10
6.1133
20
-4.27121
11
6.1144
21
-4.27412
0
LINE
8
BLACK
6
CONTINUOUS
10
6.1144
20
-4.27412
11
6.1155
21
-4.27703
0
LINE
8
BLACK
6
CONTINUOUS
10
6.1155
20
-4.27703
11
6.1155
21
-4.27703
0
LINE
8
BLACK
6
CONTINUOUS
10
6.1155
20
-4.27703
11
6.1155
21
-4.27703
0
LINE
8
BLACK
6
CONTINUOUS
10
6.1155
20
-4.27703
11
6.1155
21
-4.27703
0
LINE
8
BLACK
6
CONTINUOUS
10
6.1155
20
-4.27703
11
6.11904
21
-4.28215
0
LINE
8
BLACK
6
CONTINUOUS
10
6.11904
20
-4.28215
11
6.11904
21
-4.28215
0
LINE
8
BLACK
6
CONTINUOUS
10
6.11904
20
-4.28215
11
6.12369
21
-4.28627
0
LINE
8
BLACK
6
CONTINUOUS
10
6.12369
20
-4.28627
11
6.1292
21
-4.28916
0
LINE
8
BLACK
6
CONTINUOUS
10
6.1292
20
-4.28916
11
6.1292
21
-4.28916
0
LINE
8
BLACK
6
CONTINUOUS
10
6.1292
20
-4.28916
11
6.1292
21
-4.28916
0
LINE
8
BLACK
6
CONTINUOUS
10
6.1292
20
-4.28916
11
6.13222
21
-4.28991
0
LINE
8
BLACK
6
CONTINUOUS
10
6.13222
20
-4.28991
11
6.13524
21
-4.29065
0
LINE
8
BLACK
6
CONTINUOUS
10
6.13524
20
-4.29065
11
6.13524
21
-4.29065
0
LINE
8
BLACK
6
CONTINUOUS
10
6.13524
20
-4.29065
11
6.14146
21
-4.29065
0
LINE
8
BLACK
6
CONTINUOUS
10
6.14146
20
-4.29065
11
6.14146
21
-4.29065
0
LINE
8
BLACK
6
CONTINUOUS
10
6.14146
20
-4.29065
11
6.14749
21
-4.28916
0
LINE
8
BLACK
6
CONTINUOUS
10
6.14749
20
-4.28916
11
6.153
21
-4.28627
0
LINE
8
BLACK
6
CONTINUOUS
10
6.153
20
-4.28627
11
6.15332
21
-4.28599
0
LINE
8
BLACK
6
CONTINUOUS
10
6.15332
20
-4.28599
11
6.15585
21
-4.2848
0
LINE
8
BLACK
6
CONTINUOUS
10
6.15585
20
-4.2848
11
6.15661
21
-4.28474
0
LINE
8
BLACK
6
CONTINUOUS
10
6.15661
20
-4.28474
11
6.43509
21
-4.28474
0
LINE
8
BLACK
6
CONTINUOUS
10
6.43509
20
-4.28474
11
6.43777
21
-4.28553
0
LINE
8
BLACK
6
CONTINUOUS
10
6.43777
20
-4.28553
11
6.43838
21
-4.28599
0
LINE
8
BLACK
6
CONTINUOUS
10
6.43838
20
-4.28599
11
6.43869
21
-4.28627
0
LINE
8
BLACK
6
CONTINUOUS
10
6.43869
20
-4.28627
11
6.4442
21
-4.28916
0
LINE
8
BLACK
6
CONTINUOUS
10
6.4442
20
-4.28916
11
6.4442
21
-4.28916
0
LINE
8
BLACK
6
CONTINUOUS
10
6.4442
20
-4.28916
11
6.4442
21
-4.28916
0
LINE
8
BLACK
6
CONTINUOUS
10
6.4442
20
-4.28916
11
6.44722
21
-4.28991
0
LINE
8
BLACK
6
CONTINUOUS
10
6.44722
20
-4.28991
11
6.45024
21
-4.29065
0
LINE
8
BLACK
6
CONTINUOUS
10
6.45024
20
-4.29065
11
6.45024
21
-4.29065
0
LINE
8
BLACK
6
CONTINUOUS
10
6.45024
20
-4.29065
11
6.45646
21
-4.29065
0
LINE
8
BLACK
6
CONTINUOUS
10
6.45646
20
-4.29065
11
6.45646
21
-4.29065
0
LINE
8
BLACK
6
CONTINUOUS
10
6.45646
20
-4.29065
11
6.46249
21
-4.28916
0
LINE
8
BLACK
6
CONTINUOUS
10
6.46249
20
-4.28916
11
6.468
21
-4.28627
0
LINE
8
BLACK
6
CONTINUOUS
10
6.468
20
-4.28627
11
6.47266
21
-4.28215
0
LINE
8
BLACK
6
CONTINUOUS
10
6.47266
20
-4.28215
11
6.47619
21
-4.27703
0
LINE
8
BLACK
6
CONTINUOUS
10
6.47619
20
-4.27703
11
6.4784
21
-4.27121
0
LINE
8
BLACK
6
CONTINUOUS
10
6.4784
20
-4.27121
11
6.4784
21
-4.27121
0
LINE
8
BLACK
6
CONTINUOUS
10
6.4784
20
-4.27121
11
6.4784
21
-4.27121
0
LINE
8
BLACK
6
CONTINUOUS
10
6.4784
20
-4.27121
11
6.47914
21
-4.26504
0
LINE
8
BLACK
6
CONTINUOUS
10
6.47914
20
-4.26504
11
6.47914
21
-4.26504
0
LINE
8
BLACK
6
CONTINUOUS
10
6.47914
20
-4.26504
11
6.4784
21
-4.25887
0
LINE
8
BLACK
6
CONTINUOUS
10
6.4784
20
-4.25887
11
6.47809
21
-4.25805
0
LINE
8
BLACK
6
CONTINUOUS
10
6.47809
20
-4.25805
11
6.47619
21
-4.25305
0
LINE
8
BLACK
6
CONTINUOUS
10
6.47619
20
-4.25305
11
6.47619
21
-4.25305
0
LINE
8
BLACK
6
CONTINUOUS
10
6.47619
20
-4.25305
11
6.47619
21
-4.25305
0
LINE
8
BLACK
6
CONTINUOUS
10
6.47619
20
-4.25305
11
6.47266
21
-4.24793
0
LINE
8
BLACK
6
CONTINUOUS
10
6.47266
20
-4.24793
11
6.47266
21
-4.24793
0
LINE
8
BLACK
6
CONTINUOUS
10
6.47266
20
-4.24793
11
6.468
21
-4.24381
0
LINE
8
BLACK
6
CONTINUOUS
10
6.468
20
-4.24381
11
6.46249
21
-4.24092
0
LINE
8
BLACK
6
CONTINUOUS
10
6.46249
20
-4.24092
11
6.46249
21
-4.24092
0
LINE
8
BLACK
6
CONTINUOUS
10
6.46249
20
-4.24092
11
6.45646
21
-4.23943
0
LINE
8
BLACK
6
CONTINUOUS
10
6.45646
20
-4.23943
11
6.45646
21
-4.23943
0
LINE
8
BLACK
6
CONTINUOUS
10
6.45646
20
-4.23943
11
6.45024
21
-4.23943
0
LINE
8
BLACK
6
CONTINUOUS
10
6.45024
20
-4.23943
11
6.45024
21
-4.23943
0
LINE
8
BLACK
6
CONTINUOUS
10
6.45024
20
-4.23943
11
6.4442
21
-4.24092
0
LINE
8
BLACK
6
CONTINUOUS
10
6.4442
20
-4.24092
11
6.4442
21
-4.24092
0
LINE
8
BLACK
6
CONTINUOUS
10
6.4442
20
-4.24092
11
6.43869
21
-4.24381
0
LINE
8
BLACK
6
CONTINUOUS
10
6.43869
20
-4.24381
11
6.43869
21
-4.24381
0
LINE
8
BLACK
6
CONTINUOUS
10
6.43869
20
-4.24381
11
6.43838
21
-4.24409
0
LINE
8
BLACK
6
CONTINUOUS
10
6.43838
20
-4.24409
11
6.43585
21
-4.24528
0
LINE
8
BLACK
6
CONTINUOUS
10
6.43585
20
-4.24528
11
6.43509
21
-4.24533
0
LINE
8
BLACK
6
CONTINUOUS
10
6.43509
20
-4.24533
11
6.43491
21
-4.24533
0
LINE
8
BLACK
6
CONTINUOUS
10
6.43491
20
-4.24533
11
6.43223
21
-4.24455
0
LINE
8
BLACK
6
CONTINUOUS
10
6.43223
20
-4.24455
11
6.4304
21
-4.24243
0
LINE
8
BLACK
6
CONTINUOUS
10
6.4304
20
-4.24243
11
6.43
21
-4.23967
0
LINE
8
BLACK
6
CONTINUOUS
10
6.43
20
-4.23967
11
6.43083
21
-4.23756
0
LINE
8
BLACK
6
CONTINUOUS
10
6.43083
20
-4.23756
11
6.43119
21
-4.23703
0
LINE
8
BLACK
6
CONTINUOUS
10
6.43119
20
-4.23703
11
6.43119
21
-4.23703
0
LINE
8
BLACK
6
CONTINUOUS
10
6.43119
20
-4.23703
11
6.43119
21
-4.23703
0
LINE
8
BLACK
6
CONTINUOUS
10
6.43119
20
-4.23703
11
6.4334
21
-4.23121
0
LINE
8
BLACK
6
CONTINUOUS
10
6.4334
20
-4.23121
11
6.4334
21
-4.23121
0
LINE
8
BLACK
6
CONTINUOUS
10
6.4334
20
-4.23121
11
6.4334
21
-4.23121
0
LINE
8
BLACK
6
CONTINUOUS
10
6.4334
20
-4.23121
11
6.43414
21
-4.22504
0
LINE
8
BLACK
6
CONTINUOUS
10
6.43414
20
-4.22504
11
6.43414
21
-4.22504
0
LINE
8
BLACK
6
CONTINUOUS
10
6.43414
20
-4.22504
11
6.4334
21
-4.21887
0
LINE
8
BLACK
6
CONTINUOUS
10
6.4334
20
-4.21887
11
6.43309
21
-4.21805
0
LINE
8
BLACK
6
CONTINUOUS
10
6.43309
20
-4.21805
11
6.43119
21
-4.21305
0
LINE
8
BLACK
6
CONTINUOUS
10
6.43119
20
-4.21305
11
6.43119
21
-4.21305
0
LINE
8
BLACK
6
CONTINUOUS
10
6.43119
20
-4.21305
11
6.43119
21
-4.21305
0
LINE
8
BLACK
6
CONTINUOUS
10
6.43119
20
-4.21305
11
6.42806
21
-4.20852
0
LINE
8
BLACK
6
CONTINUOUS
10
6.42806
20
-4.20852
11
6.42719
21
-4.20587
0
LINE
8
BLACK
6
CONTINUOUS
10
6.42719
20
-4.20587
11
6.42719
21
-4.2057
0
LINE
8
BLACK
6
CONTINUOUS
10
6.42719
20
-4.2057
11
6.42719
21
-4.11228
0
LINE
8
BLACK
6
CONTINUOUS
10
6.42719
20
-4.11228
11
6.4272
21
-4.112
0
LINE
8
BLACK
6
CONTINUOUS
10
6.4272
20
-4.112
11
6.42737
21
-4.11047
0
LINE
8
BLACK
6
CONTINUOUS
10
6.42737
20
-4.11047
11
6.42695
21
-4.10821
0
LINE
8
BLACK
6
CONTINUOUS
10
6.42695
20
-4.10821
11
6.42693
21
-4.10812
0
LINE
8
BLACK
6
CONTINUOUS
10
6.42693
20
-4.10812
11
6.42687
21
-4.10776
0
LINE
8
BLACK
6
CONTINUOUS
10
6.42687
20
-4.10776
11
6.42659
21
-4.10585
0
LINE
8
BLACK
6
CONTINUOUS
10
6.42659
20
-4.10585
11
6.42659
21
-4.10585
0
LINE
8
BLACK
6
CONTINUOUS
10
6.42659
20
-4.10585
11
6.42649
21
-4.10553
0
LINE
8
BLACK
6
CONTINUOUS
10
6.42649
20
-4.10553
11
6.42638
21
-4.10522
0
LINE
8
BLACK
6
CONTINUOUS
10
6.42638
20
-4.10522
11
6.42583
21
-4.10417
0
LINE
8
BLACK
6
CONTINUOUS
10
6.42583
20
-4.10417
11
6.42531
21
-4.10319
0
LINE
8
BLACK
6
CONTINUOUS
10
6.42531
20
-4.10319
11
6.42526
21
-4.10311
0
LINE
8
BLACK
6
CONTINUOUS
10
6.42526
20
-4.10311
11
6.42427
21
-4.10104
0
LINE
8
BLACK
6
CONTINUOUS
10
6.42427
20
-4.10104
11
6.42427
21
-4.10104
0
LINE
8
BLACK
6
CONTINUOUS
10
6.42427
20
-4.10104
11
6.42427
21
-4.10104
0
LINE
8
BLACK
6
CONTINUOUS
10
6.42427
20
-4.10104
11
6.42408
21
-4.10076
0
LINE
8
BLACK
6
CONTINUOUS
10
6.42408
20
-4.10076
11
6.42388
21
-4.10049
0
LINE
8
BLACK
6
CONTINUOUS
10
6.42388
20
-4.10049
11
6.42388
21
-4.10049
0
LINE
8
BLACK
6
CONTINUOUS
10
6.42388
20
-4.10049
11
6.42226
21
-4.09887
0
LINE
8
BLACK
6
CONTINUOUS
10
6.42226
20
-4.09887
11
6.42219
21
-4.0988
0
LINE
8
BLACK
6
CONTINUOUS
10
6.42219
20
-4.0988
11
6.42184
21
-4.09842
0
LINE
8
BLACK
6
CONTINUOUS
10
6.42184
20
-4.09842
11
6.42063
21
-4.09712
0
LINE
8
BLACK
6
CONTINUOUS
10
6.42063
20
-4.09712
11
6.42063
21
-4.09712
0
LINE
8
BLACK
6
CONTINUOUS
10
6.42063
20
-4.09712
11
6.42063
21
-4.09712
0
LINE
8
BLACK
6
CONTINUOUS
10
6.42063
20
-4.09712
11
6.42034
21
-4.09689
0
LINE
8
BLACK
6
CONTINUOUS
10
6.42034
20
-4.09689
11
6.42036
21
-4.09686
0
LINE
8
BLACK
6
CONTINUOUS
10
6.42036
20
-4.09686
11
6.41988
21
-4.09649
0
LINE
8
BLACK
6
CONTINUOUS
10
6.41988
20
-4.09649
11
6.34754
21
-4.02415
0
LINE
8
BLACK
6
CONTINUOUS
10
6.34754
20
-4.02415
11
6.3462
21
-4.02169
0
LINE
8
BLACK
6
CONTINUOUS
10
6.3462
20
-4.02169
11
6.34608
21
-4.02064
0
LINE
8
BLACK
6
CONTINUOUS
10
6.34608
20
-4.02064
11
6.34608
21
-3.92004
0
LINE
8
BLACK
6
CONTINUOUS
10
6.34608
20
-3.92004
11
6.34608
21
-3.82444
0
LINE
8
BLACK
6
CONTINUOUS
10
6.34608
20
-3.82444
11
6.34687
21
-3.82176
0
LINE
8
BLACK
6
CONTINUOUS
10
6.34687
20
-3.82176
11
6.34754
21
-3.82093
0
LINE
8
BLACK
6
CONTINUOUS
10
6.34754
20
-3.82093
11
6.39757
21
-3.7709
0
LINE
8
BLACK
6
CONTINUOUS
10
6.39757
20
-3.7709
11
6.39777
21
-3.77072
0
LINE
8
BLACK
6
CONTINUOUS
10
6.39777
20
-3.77072
11
6.39898
21
-3.76976
0
LINE
8
BLACK
6
CONTINUOUS
10
6.39898
20
-3.76976
11
6.40027
21
-3.76786
0
LINE
8
BLACK
6
CONTINUOUS
10
6.40027
20
-3.76786
11
6.40032
21
-3.76779
0
LINE
8
BLACK
6
CONTINUOUS
10
6.40032
20
-3.76779
11
6.40168
21
-3.76594
0
LINE
8
BLACK
6
CONTINUOUS
10
6.40168
20
-3.76594
11
6.40168
21
-3.76594
0
LINE
8
BLACK
6
CONTINUOUS
10
6.40168
20
-3.76594
11
6.40168
21
-3.76594
0
LINE
8
BLACK
6
CONTINUOUS
10
6.40168
20
-3.76594
11
6.40184
21
-3.76564
0
LINE
8
BLACK
6
CONTINUOUS
10
6.40184
20
-3.76564
11
6.40199
21
-3.76534
0
LINE
8
BLACK
6
CONTINUOUS
10
6.40199
20
-3.76534
11
6.40266
21
-3.76315
0
LINE
8
BLACK
6
CONTINUOUS
10
6.40266
20
-3.76315
11
6.40269
21
-3.76306
0
LINE
8
BLACK
6
CONTINUOUS
10
6.40269
20
-3.76306
11
6.40339
21
-3.76107
0
LINE
8
BLACK
6
CONTINUOUS
10
6.40339
20
-3.76107
11
6.40345
21
-3.76089
0
LINE
8
BLACK
6
CONTINUOUS
10
6.40345
20
-3.76089
11
6.40345
21
-3.76089
0
LINE
8
BLACK
6
CONTINUOUS
10
6.40345
20
-3.76089
11
6.40351
21
-3.76056
0
LINE
8
BLACK
6
CONTINUOUS
10
6.40351
20
-3.76056
11
6.40356
21
-3.76023
0
LINE
8
BLACK
6
CONTINUOUS
10
6.40356
20
-3.76023
11
6.40356
21
-3.75794
0
LINE
8
BLACK
6
CONTINUOUS
10
6.40356
20
-3.75794
11
6.40356
21
-3.75785
0
LINE
8
BLACK
6
CONTINUOUS
10
6.40356
20
-3.75785
11
6.40357
21
-3.7578
0
LINE
8
BLACK
6
CONTINUOUS
10
6.40357
20
-3.7578
11
6.40365
21
-3.75555
0
LINE
8
BLACK
6
CONTINUOUS
10
6.40365
20
-3.75555
11
6.40365
21
-3.75555
0
LINE
8
BLACK
6
CONTINUOUS
10
6.40365
20
-3.75555
11
6.40361
21
-3.75518
0
LINE
8
BLACK
6
CONTINUOUS
10
6.40361
20
-3.75518
11
6.40364
21
-3.75518
0
LINE
8
BLACK
6
CONTINUOUS
10
6.40364
20
-3.75518
11
6.40356
21
-3.75457
0
LINE
8
BLACK
6
CONTINUOUS
10
6.40356
20
-3.75457
11
6.40356
21
-3.7294
0
LINE
8
BLACK
6
CONTINUOUS
10
6.40356
20
-3.7294
11
6.40435
21
-3.72671
0
LINE
8
BLACK
6
CONTINUOUS
10
6.40435
20
-3.72671
11
6.40496
21
-3.72601
0
LINE
8
BLACK
6
CONTINUOUS
10
6.40496
20
-3.72601
11
6.40494
21
-3.72599
0
LINE
8
BLACK
6
CONTINUOUS
10
6.40494
20
-3.72599
11
6.40514
21
-3.72577
0
LINE
8
BLACK
6
CONTINUOUS
10
6.40514
20
-3.72577
11
6.40514
21
-3.72577
0
LINE
8
BLACK
6
CONTINUOUS
10
6.40514
20
-3.72577
11
6.40867
21
-3.72065
0
LINE
8
BLACK
6
CONTINUOUS
10
6.40867
20
-3.72065
11
6.41088
21
-3.71484
0
LINE
8
BLACK
6
CONTINUOUS
10
6.41088
20
-3.71484
11
6.41088
21
-3.71484
0
LINE
8
BLACK
6
CONTINUOUS
10
6.41088
20
-3.71484
11
6.41088
21
-3.71484
0
LINE
8
BLACK
6
CONTINUOUS
10
6.41088
20
-3.71484
11
6.41163
21
-3.70866
0
LINE
8
BLACK
6
CONTINUOUS
10
6.41163
20
-3.70866
11
6.41163
21
-3.70866
0
LINE
8
BLACK
6
CONTINUOUS
10
6.41163
20
-3.70866
11
6.41088
21
-3.70249
0
LINE
8
BLACK
6
CONTINUOUS
10
6.41088
20
-3.70249
11
6.41028
21
-3.70092
0
LINE
8
BLACK
6
CONTINUOUS
10
6.41028
20
-3.70092
11
6.40867
21
-3.69667
0
LINE
8
BLACK
6
CONTINUOUS
10
6.40867
20
-3.69667
11
6.40867
21
-3.69667
0
LINE
8
BLACK
6
CONTINUOUS
10
6.40867
20
-3.69667
11
6.40867
21
-3.69667
0
LINE
8
BLACK
6
CONTINUOUS
10
6.40867
20
-3.69667
11
6.40514
21
-3.69155
0
LINE
8
BLACK
6
CONTINUOUS
10
6.40514
20
-3.69155
11
6.40514
21
-3.69155
0
LINE
8
BLACK
6
CONTINUOUS
10
6.40514
20
-3.69155
11
6.40048
21
-3.68743
0
LINE
8
BLACK
6
CONTINUOUS
10
6.40048
20
-3.68743
11
6.39497
21
-3.68454
0
LINE
8
BLACK
6
CONTINUOUS
10
6.39497
20
-3.68454
11
6.39497
21
-3.68454
0
LINE
8
BLACK
6
CONTINUOUS
10
6.39497
20
-3.68454
11
6.38894
21
-3.68305
0
LINE
8
BLACK
6
CONTINUOUS
10
6.38894
20
-3.68305
11
6.38894
21
-3.68305
0
LINE
8
BLACK
6
CONTINUOUS
10
6.38894
20
-3.68305
11
6.38272
21
-3.68305
0
LINE
8
BLACK
6
CONTINUOUS
10
6.38272
20
-3.68305
11
6.38272
21
-3.68305
0
LINE
8
BLACK
6
CONTINUOUS
10
6.38272
20
-3.68305
11
6.37668
21
-3.68454
0
LINE
8
BLACK
6
CONTINUOUS
10
6.37668
20
-3.68454
11
6.37668
21
-3.68454
0
LINE
8
BLACK
6
CONTINUOUS
10
6.37668
20
-3.68454
11
6.37117
21
-3.68743
0
LINE
8
BLACK
6
CONTINUOUS
10
6.37117
20
-3.68743
11
6.36652
21
-3.69155
0
LINE
8
BLACK
6
CONTINUOUS
10
6.36652
20
-3.69155
11
6.36652
21
-3.69155
0
LINE
8
BLACK
6
CONTINUOUS
10
6.36652
20
-3.69155
11
6.36298
21
-3.69667
0
LINE
8
BLACK
6
CONTINUOUS
10
6.36298
20
-3.69667
11
6.36298
21
-3.69667
0
LINE
8
BLACK
6
CONTINUOUS
10
6.36298
20
-3.69667
11
6.36078
21
-3.70249
0
LINE
8
BLACK
6
CONTINUOUS
10
6.36078
20
-3.70249
11
6.36003
21
-3.70866
0
LINE
8
BLACK
6
CONTINUOUS
10
6.36003
20
-3.70866
11
6.36003
21
-3.70866
0
LINE
8
BLACK
6
CONTINUOUS
10
6.36003
20
-3.70866
11
6.36078
21
-3.71484
0
LINE
8
BLACK
6
CONTINUOUS
10
6.36078
20
-3.71484
11
6.36188
21
-3.71774
0
LINE
8
BLACK
6
CONTINUOUS
10
6.36188
20
-3.71774
11
6.36298
21
-3.72065
0
LINE
8
BLACK
6
CONTINUOUS
10
6.36298
20
-3.72065
11
6.36298
21
-3.72065
0
LINE
8
BLACK
6
CONTINUOUS
10
6.36298
20
-3.72065
11
6.36298
21
-3.72065
0
LINE
8
BLACK
6
CONTINUOUS
10
6.36298
20
-3.72065
11
6.36298
21
-3.72065
0
LINE
8
BLACK
6
CONTINUOUS
10
6.36298
20
-3.72065
11
6.36652
21
-3.72577
0
LINE
8
BLACK
6
CONTINUOUS
10
6.36652
20
-3.72577
11
6.36672
21
-3.72599
0
LINE
8
BLACK
6
CONTINUOUS
10
6.36672
20
-3.72599
11
6.36665
21
-3.72605
0
LINE
8
BLACK
6
CONTINUOUS
10
6.36665
20
-3.72605
11
6.3679
21
-3.72805
0
LINE
8
BLACK
6
CONTINUOUS
10
6.3679
20
-3.72805
11
6.36809
21
-3.7294
0
LINE
8
BLACK
6
CONTINUOUS
10
6.36809
20
-3.7294
11
6.36809
21
-3.74816
0
LINE
8
BLACK
6
CONTINUOUS
10
6.36809
20
-3.74816
11
6.3673
21
-3.75084
0
LINE
8
BLACK
6
CONTINUOUS
10
6.3673
20
-3.75084
11
6.36664
21
-3.75167
0
LINE
8
BLACK
6
CONTINUOUS
10
6.36664
20
-3.75167
11
6.31661
21
-3.8017
0
LINE
8
BLACK
6
CONTINUOUS
10
6.31661
20
-3.8017
11
6.3164
21
-3.80188
0
LINE
8
BLACK
6
CONTINUOUS
10
6.3164
20
-3.80188
11
6.3152
21
-3.80284
0
LINE
8
BLACK
6
CONTINUOUS
10
6.3152
20
-3.80284
11
6.3139
21
-3.80474
0
LINE
8
BLACK
6
CONTINUOUS
10
6.3139
20
-3.80474
11
6.31385
21
-3.80481
0
LINE
8
BLACK
6
CONTINUOUS
10
6.31385
20
-3.80481
11
6.31249
21
-3.80666
0
LINE
8
BLACK
6
CONTINUOUS
10
6.31249
20
-3.80666
11
6.31233
21
-3.80696
0
LINE
8
BLACK
6
CONTINUOUS
10
6.31233
20
-3.80696
11
6.31219
21
-3.80726
0
LINE
8
BLACK
6
CONTINUOUS
10
6.31219
20
-3.80726
11
6.31151
21
-3.80945
0
LINE
8
BLACK
6
CONTINUOUS
10
6.31151
20
-3.80945
11
6.31148
21
-3.80954
0
LINE
8
BLACK
6
CONTINUOUS
10
6.31148
20
-3.80954
11
6.31072
21
-3.8117
0
LINE
8
BLACK
6
CONTINUOUS
10
6.31072
20
-3.8117
11
6.31066
21
-3.81203
0
LINE
8
BLACK
6
CONTINUOUS
10
6.31066
20
-3.81203
11
6.31061
21
-3.81237
0
LINE
8
BLACK
6
CONTINUOUS
10
6.31061
20
-3.81237
11
6.31061
21
-3.81466
0
LINE
8
BLACK
6
CONTINUOUS
10
6.31061
20
-3.81466
11
6.31061
21
-3.81475
0
LINE
8
BLACK
6
CONTINUOUS
10
6.31061
20
-3.81475
11
6.31052
21
-3.81705
0
LINE
8
BLACK
6
CONTINUOUS
10
6.31052
20
-3.81705
11
6.31056
21
-3.81742
0
LINE
8
BLACK
6
CONTINUOUS
10
6.31056
20
-3.81742
11
6.31053
21
-3.81742
0
LINE
8
BLACK
6
CONTINUOUS
10
6.31053
20
-3.81742
11
6.31061
21
-3.81803
0
LINE
8
BLACK
6
CONTINUOUS
10
6.31061
20
-3.81803
11
6.31061
21
-4.0289
0
LINE
8
BLACK
6
CONTINUOUS
10
6.31061
20
-4.0289
11
6.31059
21
-4.02918
0
LINE
8
BLACK
6
CONTINUOUS
10
6.31059
20
-4.02918
11
6.31042
21
-4.03071
0
LINE
8
BLACK
6
CONTINUOUS
10
6.31042
20
-4.03071
11
6.31042
21
-4.03071
0
LINE
8
BLACK
6
CONTINUOUS
10
6.31042
20
-4.03071
11
6.31085
21
-4.03296
0
LINE
8
BLACK
6
CONTINUOUS
10
6.31085
20
-4.03296
11
6.31086
21
-4.03306
0
LINE
8
BLACK
6
CONTINUOUS
10
6.31086
20
-4.03306
11
6.31121
21
-4.03533
0
LINE
8
BLACK
6
CONTINUOUS
10
6.31121
20
-4.03533
11
6.31131
21
-4.03565
0
LINE
8
BLACK
6
CONTINUOUS
10
6.31131
20
-4.03565
11
6.31142
21
-4.03596
0
LINE
8
BLACK
6
CONTINUOUS
10
6.31142
20
-4.03596
11
6.31249
21
-4.03799
0
LINE
8
BLACK
6
CONTINUOUS
10
6.31249
20
-4.03799
11
6.31253
21
-4.03808
0
LINE
8
BLACK
6
CONTINUOUS
10
6.31253
20
-4.03808
11
6.31353
21
-4.04014
0
LINE
8
BLACK
6
CONTINUOUS
10
6.31353
20
-4.04014
11
6.31353
21
-4.04014
0
LINE
8
BLACK
6
CONTINUOUS
10
6.31353
20
-4.04014
11
6.31372
21
-4.04042
0
LINE
8
BLACK
6
CONTINUOUS
10
6.31372
20
-4.04042
11
6.31391
21
-4.04069
0
LINE
8
BLACK
6
CONTINUOUS
10
6.31391
20
-4.04069
11
6.31391
21
-4.04069
0
LINE
8
BLACK
6
CONTINUOUS
10
6.31391
20
-4.04069
11
6.31391
21
-4.04069
0
LINE
8
BLACK
6
CONTINUOUS
10
6.31391
20
-4.04069
11
6.31554
21
-4.04231
0
LINE
8
BLACK
6
CONTINUOUS
10
6.31554
20
-4.04231
11
6.3156
21
-4.04238
0
LINE
8
BLACK
6
CONTINUOUS
10
6.3156
20
-4.04238
11
6.31716
21
-4.04406
0
LINE
8
BLACK
6
CONTINUOUS
10
6.31716
20
-4.04406
11
6.31716
21
-4.04406
0
LINE
8
BLACK
6
CONTINUOUS
10
6.31716
20
-4.04406
11
6.31745
21
-4.04429
0
LINE
8
BLACK
6
CONTINUOUS
10
6.31745
20
-4.04429
11
6.31743
21
-4.04432
0
LINE
8
BLACK
6
CONTINUOUS
10
6.31743
20
-4.04432
11
6.31792
21
-4.04469
0
LINE
8
BLACK
6
CONTINUOUS
10
6.31792
20
-4.04469
11
6.39026
21
-4.11704
0
LINE
8
BLACK
6
CONTINUOUS
10
6.39026
20
-4.11704
11
6.3916
21
-4.11949
0
LINE
8
BLACK
6
CONTINUOUS
10
6.3916
20
-4.11949
11
6.39171
21
-4.12054
0
LINE
8
BLACK
6
CONTINUOUS
10
6.39171
20
-4.12054
11
6.39171
21
-4.15269
0
LINE
8
BLACK
6
CONTINUOUS
10
6.39171
20
-4.15269
11
6.39093
21
-4.15537
0
LINE
8
BLACK
6
CONTINUOUS
10
6.39093
20
-4.15537
11
6.38881
21
-4.1572
0
LINE
8
BLACK
6
CONTINUOUS
10
6.38881
20
-4.1572
11
6.38605
21
-4.1576
0
LINE
8
BLACK
6
CONTINUOUS
10
6.38605
20
-4.1576
11
6.3835
21
-4.15644
0
LINE
8
BLACK
6
CONTINUOUS
10
6.3835
20
-4.15644
11
6.38267
21
-4.15551
0
LINE
8
BLACK
6
CONTINUOUS
10
6.38267
20
-4.15551
11
6.38152
21
-4.15384
0
LINE
8
BLACK
6
CONTINUOUS
10
6.38152
20
-4.15384
11
6.38152
21
-4.15384
0
LINE
8
BLACK
6
CONTINUOUS
10
6.38152
20
-4.15384
11
6.37686
21
-4.14971
0
LINE
8
BLACK
6
CONTINUOUS
10
6.37686
20
-4.14971
11
6.37135
21
-4.14682
0
LINE
8
BLACK
6
CONTINUOUS
10
6.37135
20
-4.14682
11
6.37135
21
-4.14682
0
LINE
8
BLACK
6
CONTINUOUS
10
6.37135
20
-4.14682
11
6.36531
21
-4.14533
0
LINE
8
BLACK
6
CONTINUOUS
10
6.36531
20
-4.14533
11
6.36531
21
-4.14533
0
LINE
8
BLACK
6
CONTINUOUS
10
6.36531
20
-4.14533
11
6.3591
21
-4.14533
0
LINE
8
BLACK
6
CONTINUOUS
10
6.3591
20
-4.14533
11
6.35909
21
-4.14533
0
LINE
8
BLACK
6
CONTINUOUS
10
6.35909
20
-4.14533
11
6.35306
21
-4.14682
0
LINE
8
BLACK
6
CONTINUOUS
10
6.35306
20
-4.14682
11
6.35306
21
-4.14682
0
LINE
8
BLACK
6
CONTINUOUS
10
6.35306
20
-4.14682
11
6.34755
21
-4.14971
0
LINE
8
BLACK
6
CONTINUOUS
10
6.34755
20
-4.14971
11
6.34381
21
-4.15302
0
LINE
8
BLACK
6
CONTINUOUS
10
6.34381
20
-4.15302
11
6.34128
21
-4.15421
0
LINE
8
BLACK
6
CONTINUOUS
10
6.34128
20
-4.15421
11
6.34052
21
-4.15427
0
LINE
8
BLACK
6
CONTINUOUS
10
6.34052
20
-4.15427
11
6.18693
21
-4.15427
0
LINE
8
BLACK
6
CONTINUOUS
10
6.18693
20
-4.15427
11
6.18425
21
-4.15348
0
LINE
8
BLACK
6
CONTINUOUS
10
6.18425
20
-4.15348
11
6.18342
21
-4.15282
0
LINE
8
BLACK
6
CONTINUOUS
10
6.18342
20
-4.15282
11
6.15015
21
-4.11955
0
LINE
8
BLACK
6
CONTINUOUS
10
6.15015
20
-4.11955
11
6.14881
21
-4.11709
0
LINE
8
BLACK
6
CONTINUOUS
10
6.14881
20
-4.11709
11
6.14901
21
-4.11431
0
LINE
8
BLACK
6
CONTINUOUS
10
6.14901
20
-4.11431
11
6.15037
21
-4.11233
0
LINE
8
BLACK
6
CONTINUOUS
10
6.15037
20
-4.11233
11
6.15046
21
-4.11225
0
LINE
8
BLACK
6
CONTINUOUS
10
6.15046
20
-4.11225
11
6.15299
21
-4.11106
0
LINE
8
BLACK
6
CONTINUOUS
10
6.15299
20
-4.11106
11
6.15375
21
-4.111
0
LINE
8
BLACK
6
CONTINUOUS
10
6.15375
20
-4.111
11
6.20065
21
-4.111
0
LINE
8
BLACK
6
CONTINUOUS
10
6.20065
20
-4.111
11
6.20065
21
-4.111
0
LINE
8
BLACK
6
CONTINUOUS
10
6.20065
20
-4.111
11
6.20147
21
-4.11073
0
LINE
8
BLACK
6
CONTINUOUS
10
6.20147
20
-4.11073
11
6.20223
21
-4.11055
0
LINE
8
BLACK
6
CONTINUOUS
10
6.20223
20
-4.11055
11
6.20308
21
-4.11042
0
LINE
8
BLACK
6
CONTINUOUS
10
6.20308
20
-4.11042
11
6.20386
21
-4.11002
0
LINE
8
BLACK
6
CONTINUOUS
10
6.20386
20
-4.11002
11
6.20457
21
-4.10973
0
LINE
8
BLACK
6
CONTINUOUS
10
6.20457
20
-4.10973
11
6.2054
21
-4.10946
0
LINE
8
BLACK
6
CONTINUOUS
10
6.2054
20
-4.10946
11
6.2061
21
-4.10895
0
LINE
8
BLACK
6
CONTINUOUS
10
6.2061
20
-4.10895
11
6.20676
21
-4.10854
0
LINE
8
BLACK
6
CONTINUOUS
10
6.20676
20
-4.10854
11
6.20753
21
-4.10815
0
LINE
8
BLACK
6
CONTINUOUS
10
6.20753
20
-4.10815
11
6.20814
21
-4.10754
0
LINE
8
BLACK
6
CONTINUOUS
10
6.20814
20
-4.10754
11
6.20814
21
-4.10754
0
LINE
8
BLACK
6
CONTINUOUS
10
6.20814
20
-4.10754
11
6.24752
21
-4.06816
0
LINE
8
BLACK
6
CONTINUOUS
10
6.24752
20
-4.06816
11
6.24752
21
-4.06816
0
LINE
8
BLACK
6
CONTINUOUS
10
6.24752
20
-4.06816
11
6.24756
21
-4.06813
0
LINE
8
BLACK
6
CONTINUOUS
10
6.24756
20
-4.06813
11
6.24795
21
-4.06736
0
LINE
8
BLACK
6
CONTINUOUS
10
6.24795
20
-4.06736
11
6.24836
21
-4.06669
0
LINE
8
BLACK
6
CONTINUOUS
10
6.24836
20
-4.06669
11
6.24887
21
-4.06599
0
LINE
8
BLACK
6
CONTINUOUS
10
6.24887
20
-4.06599
11
6.24913
21
-4.06517
0
LINE
8
BLACK
6
CONTINUOUS
10
6.24913
20
-4.06517
11
6.24943
21
-4.06445
0
LINE
8
BLACK
6
CONTINUOUS
10
6.24943
20
-4.06445
11
6.24983
21
-4.06368
0
LINE
8
BLACK
6
CONTINUOUS
10
6.24983
20
-4.06368
11
6.24983
21
-4.06368
0
LINE
8
BLACK
6
CONTINUOUS
10
6.24983
20
-4.06368
11
6.24983
21
-4.06368
0
LINE
8
BLACK
6
CONTINUOUS
10
6.24983
20
-4.06368
11
6.24996
21
-4.06282
0
LINE
8
BLACK
6
CONTINUOUS
10
6.24996
20
-4.06282
11
6.25014
21
-4.06206
0
LINE
8
BLACK
6
CONTINUOUS
10
6.25014
20
-4.06206
11
6.25041
21
-4.06124
0
LINE
8
BLACK
6
CONTINUOUS
10
6.25041
20
-4.06124
11
6.25041
21
-4.06009
0
LINE
8
BLACK
6
CONTINUOUS
10
6.25041
20
-4.06009
11
6.25041
21
-4.06009
0
LINE
8
BLACK
6
CONTINUOUS
10
6.25041
20
-4.06009
11
6.25041
21
-3.95376
0
LINE
8
BLACK
6
CONTINUOUS
10
6.25041
20
-3.95376
11
6.2512
21
-3.95108
0
LINE
8
BLACK
6
CONTINUOUS
10
6.2512
20
-3.95108
11
6.25208
21
-3.95005
0
LINE
8
BLACK
6
CONTINUOUS
10
6.25208
20
-3.95005
11
6.25395
21
-3.94839
0
LINE
8
BLACK
6
CONTINUOUS
10
6.25395
20
-3.94839
11
6.25749
21
-3.94327
0
LINE
8
BLACK
6
CONTINUOUS
10
6.25749
20
-3.94327
11
6.2581
21
-3.94166
0
LINE
8
BLACK
6
CONTINUOUS
10
6.2581
20
-3.94166
11
6.25979
21
-3.93943
0
LINE
8
BLACK
6
CONTINUOUS
10
6.25979
20
-3.93943
11
6.26241
21
-3.93847
0
LINE
8
BLACK
6
CONTINUOUS
10
6.26241
20
-3.93847
11
6.26514
21
-3.93907
0
LINE
8
BLACK
6
CONTINUOUS
10
6.26514
20
-3.93907
11
6.2671
21
-3.94106
0
LINE
8
BLACK
6
CONTINUOUS
10
6.2671
20
-3.94106
11
6.2677
21
-3.94342
0
LINE
8
BLACK
6
CONTINUOUS
10
6.2677
20
-3.94342
11
6.2677
21
-4.06017
0
LINE
8
BLACK
6
CONTINUOUS
10
6.2677
20
-4.06017
11
6.26691
21
-4.06286
0
LINE
8
BLACK
6
CONTINUOUS
10
6.26691
20
-4.06286
11
6.26682
21
-4.06299
0
LINE
8
BLACK
6
CONTINUOUS
10
6.26682
20
-4.06299
11
6.26422
21
-4.06675
0
LINE
8
BLACK
6
CONTINUOUS
10
6.26422
20
-4.06675
11
6.26202
21
-4.07257
0
LINE
8
BLACK
6
CONTINUOUS
10
6.26202
20
-4.07257
11
6.26127
21
-4.07874
0
LINE
8
BLACK
6
CONTINUOUS
10
6.26127
20
-4.07874
11
6.26127
21
-4.07874
0
LINE
8
BLACK
6
CONTINUOUS
10
6.26127
20
-4.07874
11
6.26202
21
-4.08491
0
LINE
8
BLACK
6
CONTINUOUS
10
6.26202
20
-4.08491
11
6.26284
21
-4.08709
0
LINE
8
BLACK
6
CONTINUOUS
10
6.26284
20
-4.08709
11
6.26422
21
-4.09073
0
LINE
8
BLACK
6
CONTINUOUS
10
6.26422
20
-4.09073
11
6.26422
21
-4.09073
0
LINE
8
BLACK
6
CONTINUOUS
10
6.26422
20
-4.09073
11
6.26422
21
-4.09073
0
LINE
8
BLACK
6
CONTINUOUS
10
6.26422
20
-4.09073
11
6.26422
21
-4.09073
0
LINE
8
BLACK
6
CONTINUOUS
10
6.26422
20
-4.09073
11
6.26776
21
-4.09585
0
LINE
8
BLACK
6
CONTINUOUS
10
6.26776
20
-4.09585
11
6.26776
21
-4.09585
0
LINE
8
BLACK
6
CONTINUOUS
10
6.26776
20
-4.09585
11
6.2689
21
-4.09686
0
LINE
8
BLACK
6
CONTINUOUS
10
6.2689
20
-4.09686
11
6.27241
21
-4.09997
0
LINE
8
BLACK
6
CONTINUOUS
10
6.27241
20
-4.09997
11
6.27792
21
-4.10286
0
LINE
8
BLACK
6
CONTINUOUS
10
6.27792
20
-4.10286
11
6.27792
21
-4.10286
0
LINE
8
BLACK
6
CONTINUOUS
10
6.27792
20
-4.10286
11
6.27792
21
-4.10286
0
LINE
8
BLACK
6
CONTINUOUS
10
6.27792
20
-4.10286
11
6.27924
21
-4.10319
0
LINE
8
BLACK
6
CONTINUOUS
10
6.27924
20
-4.10319
11
6.28396
21
-4.10435
0
LINE
8
BLACK
6
CONTINUOUS
10
6.28396
20
-4.10435
11
6.28396
21
-4.10435
0
LINE
8
BLACK
6
CONTINUOUS
10
6.28396
20
-4.10435
11
6.29018
21
-4.10435
0
LINE
8
BLACK
6
CONTINUOUS
10
6.29018
20
-4.10435
11
6.29018
21
-4.10435
0
LINE
8
BLACK
6
CONTINUOUS
10
6.29018
20
-4.10435
11
6.29622
21
-4.10286
0
LINE
8
BLACK
6
CONTINUOUS
10
6.29622
20
-4.10286
11
6.30172
21
-4.09997
0
LINE
8
BLACK
6
CONTINUOUS
10
6.30172
20
-4.09997
11
6.30638
21
-4.09585
0
LINE
8
BLACK
6
CONTINUOUS
10
6.30638
20
-4.09585
11
6.30991
21
-4.09073
0
LINE
8
BLACK
6
CONTINUOUS
10
6.30991
20
-4.09073
11
6.31212
21
-4.08491
0
LINE
8
BLACK
6
CONTINUOUS
10
6.31212
20
-4.08491
11
6.31212
21
-4.08491
0
LINE
8
BLACK
6
CONTINUOUS
10
6.31212
20
-4.08491
11
6.31212
21
-4.08491
0
LINE
8
BLACK
6
CONTINUOUS
10
6.31212
20
-4.08491
11
6.31287
21
-4.07874
0
LINE
8
BLACK
6
CONTINUOUS
10
6.31287
20
-4.07874
11
6.31287
21
-4.07874
0
LINE
8
BLACK
6
CONTINUOUS
10
6.31287
20
-4.07874
11
6.31212
21
-4.07257
0
LINE
8
BLACK
6
CONTINUOUS
10
6.31212
20
-4.07257
11
6.31156
21
-4.07111
0
LINE
8
BLACK
6
CONTINUOUS
10
6.31156
20
-4.07111
11
6.30991
21
-4.06675
0
LINE
8
BLACK
6
CONTINUOUS
10
6.30991
20
-4.06675
11
6.30991
21
-4.06675
0
LINE
8
BLACK
6
CONTINUOUS
10
6.30991
20
-4.06675
11
6.30991
21
-4.06675
0
LINE
8
BLACK
6
CONTINUOUS
10
6.30991
20
-4.06675
11
6.30638
21
-4.06163
0
LINE
8
BLACK
6
CONTINUOUS
10
6.30638
20
-4.06163
11
6.30638
21
-4.06163
0
LINE
8
BLACK
6
CONTINUOUS
10
6.30638
20
-4.06163
11
6.30172
21
-4.05751
0
LINE
8
BLACK
6
CONTINUOUS
10
6.30172
20
-4.05751
11
6.30148
21
-4.05734
0
LINE
8
BLACK
6
CONTINUOUS
10
6.30148
20
-4.05734
11
6.30153
21
-4.05725
0
LINE
8
BLACK
6
CONTINUOUS
10
6.30153
20
-4.05725
11
6.29988
21
-4.05565
0
LINE
8
BLACK
6
CONTINUOUS
10
6.29988
20
-4.05565
11
6.29923
21
-4.0532
0
LINE
8
BLACK
6
CONTINUOUS
10
6.29923
20
-4.0532
11
6.29923
21
-3.90266
0
LINE
8
BLACK
6
CONTINUOUS
10
6.29923
20
-3.90266
11
6.29923
21
-3.90266
0
LINE
8
BLACK
6
CONTINUOUS
10
6.29923
20
-3.90266
11
6.29923
21
-3.90266
0
LINE
8
BLACK
6
CONTINUOUS
10
6.29923
20
-3.90266
11
6.29896
21
-3.90184
0
LINE
8
BLACK
6
CONTINUOUS
10
6.29896
20
-3.90184
11
6.29878
21
-3.90108
0
LINE
8
BLACK
6
CONTINUOUS
10
6.29878
20
-3.90108
11
6.29865
21
-3.90022
0
LINE
8
BLACK
6
CONTINUOUS
10
6.29865
20
-3.90022
11
6.29825
21
-3.89945
0
LINE
8
BLACK
6
CONTINUOUS
10
6.29825
20
-3.89945
11
6.29796
21
-3.89873
0
LINE
8
BLACK
6
CONTINUOUS
10
6.29796
20
-3.89873
11
6.29769
21
-3.89791
0
LINE
8
BLACK
6
CONTINUOUS
10
6.29769
20
-3.89791
11
6.29718
21
-3.89721
0
LINE
8
BLACK
6
CONTINUOUS
10
6.29718
20
-3.89721
11
6.29677
21
-3.89655
0
LINE
8
BLACK
6
CONTINUOUS
10
6.29677
20
-3.89655
11
6.29638
21
-3.89577
0
LINE
8
BLACK
6
CONTINUOUS
10
6.29638
20
-3.89577
11
6.29285
21
-3.89224
0
LINE
8
BLACK
6
CONTINUOUS
10
6.29285
20
-3.89224
11
6.23362
21
-3.83301
0
LINE
8
BLACK
6
CONTINUOUS
10
6.23362
20
-3.83301
11
6.23362
21
-3.83301
0
LINE
8
BLACK
6
CONTINUOUS
10
6.23362
20
-3.83301
11
6.23356
21
-3.83295
0
LINE
8
BLACK
6
CONTINUOUS
10
6.23356
20
-3.83295
11
6.23356
21
-3.83295
0
LINE
8
BLACK
6
CONTINUOUS
10
6.23356
20
-3.83295
11
6.23273
21
-3.83212
0
LINE
8
BLACK
6
CONTINUOUS
10
6.23273
20
-3.83212
11
6.23273
21
-3.83212
0
LINE
8
BLACK
6
CONTINUOUS
10
6.23273
20
-3.83212
11
6.23273
21
-3.83212
0
LINE
8
BLACK
6
CONTINUOUS
10
6.23273
20
-3.83212
11
6.23196
21
-3.83173
0
LINE
8
BLACK
6
CONTINUOUS
10
6.23196
20
-3.83173
11
6.23129
21
-3.83132
0
LINE
8
BLACK
6
CONTINUOUS
10
6.23129
20
-3.83132
11
6.23037
21
-3.83065
0
LINE
8
BLACK
6
CONTINUOUS
10
6.23037
20
-3.83065
11
6.2292
21
-3.82945
0
LINE
8
BLACK
6
CONTINUOUS
10
6.2292
20
-3.82945
11
6.22815
21
-3.82793
0
LINE
8
BLACK
6
CONTINUOUS
10
6.22815
20
-3.82793
11
6.22815
21
-3.82793
0
LINE
8
BLACK
6
CONTINUOUS
10
6.22815
20
-3.82793
11
6.22349
21
-3.82381
0
LINE
8
BLACK
6
CONTINUOUS
10
6.22349
20
-3.82381
11
6.21799
21
-3.82092
0
LINE
8
BLACK
6
CONTINUOUS
10
6.21799
20
-3.82092
11
6.21799
21
-3.82092
0
LINE
8
BLACK
6
CONTINUOUS
10
6.21799
20
-3.82092
11
6.21195
21
-3.81943
0
LINE
8
BLACK
6
CONTINUOUS
10
6.21195
20
-3.81943
11
6.21195
21
-3.81943
0
LINE
8
BLACK
6
CONTINUOUS
10
6.21195
20
-3.81943
11
6.20573
21
-3.81943
0
LINE
8
BLACK
6
CONTINUOUS
10
6.20573
20
-3.81943
11
6.20573
21
-3.81943
0
LINE
8
BLACK
6
CONTINUOUS
10
6.20573
20
-3.81943
11
6.19969
21
-3.82092
0
LINE
8
BLACK
6
CONTINUOUS
10
6.19969
20
-3.82092
11
6.19969
21
-3.82092
0
LINE
8
BLACK
6
CONTINUOUS
10
6.19969
20
-3.82092
11
6.19418
21
-3.82381
0
LINE
8
BLACK
6
CONTINUOUS
10
6.19418
20
-3.82381
11
6.18953
21
-3.82793
0
LINE
8
BLACK
6
CONTINUOUS
10
6.18953
20
-3.82793
11
6.18953
21
-3.82793
0
LINE
8
BLACK
6
CONTINUOUS
10
6.18953
20
-3.82793
11
6.186
21
-3.83305
0
LINE
8
BLACK
6
CONTINUOUS
10
6.186
20
-3.83305
11
6.186
21
-3.83305
0
LINE
8
BLACK
6
CONTINUOUS
10
6.186
20
-3.83305
11
6.186
21
-3.83305
0
LINE
8
BLACK
6
CONTINUOUS
10
6.186
20
-3.83305
11
6.186
21
-3.83305
0
LINE
8
BLACK
6
CONTINUOUS
10
6.186
20
-3.83305
11
6.18538
21
-3.83468
0
LINE
8
BLACK
6
CONTINUOUS
10
6.18538
20
-3.83468
11
6.18379
21
-3.83887
0
LINE
8
BLACK
6
CONTINUOUS
10
6.18379
20
-3.83887
11
6.18304
21
-3.84504
0
LINE
8
BLACK
6
CONTINUOUS
10
6.18304
20
-3.84504
11
6.18304
21
-3.84504
0
LINE
8
BLACK
6
CONTINUOUS
10
6.18304
20
-3.84504
11
6.18379
21
-3.85121
0
LINE
8
BLACK
6
CONTINUOUS
10
6.18379
20
-3.85121
11
6.1842
21
-3.85229
0
LINE
8
BLACK
6
CONTINUOUS
10
6.1842
20
-3.85229
11
6.186
21
-3.85703
0
LINE
8
BLACK
6
CONTINUOUS
10
6.186
20
-3.85703
11
6.186
21
-3.85703
0
LINE
8
BLACK
6
CONTINUOUS
10
6.186
20
-3.85703
11
6.186
21
-3.85703
0
LINE
8
BLACK
6
CONTINUOUS
10
6.186
20
-3.85703
11
6.186
21
-3.85703
0
LINE
8
BLACK
6
CONTINUOUS
10
6.186
20
-3.85703
11
6.18908
21
-3.8615
0
LINE
8
BLACK
6
CONTINUOUS
10
6.18908
20
-3.8615
11
6.18953
21
-3.86215
0
LINE
8
BLACK
6
CONTINUOUS
10
6.18953
20
-3.86215
11
6.19418
21
-3.86627
0
LINE
8
BLACK
6
CONTINUOUS
10
6.19418
20
-3.86627
11
6.19969
21
-3.86916
0
LINE
8
BLACK
6
CONTINUOUS
10
6.19969
20
-3.86916
11
6.19969
21
-3.86916
0
LINE
8
BLACK
6
CONTINUOUS
10
6.19969
20
-3.86916
11
6.19969
21
-3.86916
0
LINE
8
BLACK
6
CONTINUOUS
10
6.19969
20
-3.86916
11
6.20119
21
-3.86953
0
LINE
8
BLACK
6
CONTINUOUS
10
6.20119
20
-3.86953
11
6.20573
21
-3.87065
0
LINE
8
BLACK
6
CONTINUOUS
10
6.20573
20
-3.87065
11
6.20573
21
-3.87065
0
LINE
8
BLACK
6
CONTINUOUS
10
6.20573
20
-3.87065
11
6.21195
21
-3.87065
0
LINE
8
BLACK
6
CONTINUOUS
10
6.21195
20
-3.87065
11
6.21195
21
-3.87065
0
LINE
8
BLACK
6
CONTINUOUS
10
6.21195
20
-3.87065
11
6.21799
21
-3.86916
0
LINE
8
BLACK
6
CONTINUOUS
10
6.21799
20
-3.86916
11
6.21947
21
-3.86839
0
LINE
8
BLACK
6
CONTINUOUS
10
6.21947
20
-3.86839
11
6.22221
21
-3.86784
0
LINE
8
BLACK
6
CONTINUOUS
10
6.22221
20
-3.86784
11
6.22481
21
-3.86886
0
LINE
8
BLACK
6
CONTINUOUS
10
6.22481
20
-3.86886
11
6.22528
21
-3.86927
0
LINE
8
BLACK
6
CONTINUOUS
10
6.22528
20
-3.86927
11
6.26624
21
-3.91024
0
LINE
8
BLACK
6
CONTINUOUS
10
6.26624
20
-3.91024
11
6.26758
21
-3.91269
0
LINE
8
BLACK
6
CONTINUOUS
10
6.26758
20
-3.91269
11
6.2677
21
-3.91374
0
LINE
8
BLACK
6
CONTINUOUS
10
6.2677
20
-3.91374
11
6.2677
21
-3.91915
0
LINE
8
BLACK
6
CONTINUOUS
10
6.2677
20
-3.91915
11
6.26691
21
-3.92183
0
LINE
8
BLACK
6
CONTINUOUS
10
6.26691
20
-3.92183
11
6.2648
21
-3.92366
0
LINE
8
BLACK
6
CONTINUOUS
10
6.2648
20
-3.92366
11
6.26203
21
-3.92406
0
LINE
8
BLACK
6
CONTINUOUS
10
6.26203
20
-3.92406
11
6.25949
21
-3.9229
0
LINE
8
BLACK
6
CONTINUOUS
10
6.25949
20
-3.9229
11
6.2581
21
-3.92091
0
LINE
8
BLACK
6
CONTINUOUS
10
6.2581
20
-3.92091
11
6.25802
21
-3.9207
0
LINE
8
BLACK
6
CONTINUOUS
10
6.25802
20
-3.9207
11
6.25749
21
-3.91929
0
LINE
8
BLACK
6
CONTINUOUS
10
6.25749
20
-3.91929
11
6.25749
21
-3.91929
0
LINE
8
BLACK
6
CONTINUOUS
10
6.25749
20
-3.91929
11
6.25749
21
-3.91929
0
LINE
8
BLACK
6
CONTINUOUS
10
6.25749
20
-3.91929
11
6.25749
21
-3.91929
0
LINE
8
BLACK
6
CONTINUOUS
10
6.25749
20
-3.91929
11
6.25395
21
-3.91417
0
LINE
8
BLACK
6
CONTINUOUS
10
6.25395
20
-3.91417
11
6.25395
21
-3.91417
0
LINE
8
BLACK
6
CONTINUOUS
10
6.25395
20
-3.91417
11
6.2493
21
-3.91005
0
LINE
8
BLACK
6
CONTINUOUS
10
6.2493
20
-3.91005
11
6.24379
21
-3.90716
0
LINE
8
BLACK
6
CONTINUOUS
10
6.24379
20
-3.90716
11
6.24379
21
-3.90716
0
LINE
8
BLACK
6
CONTINUOUS
10
6.24379
20
-3.90716
11
6.23775
21
-3.90567
0
LINE
8
BLACK
6
CONTINUOUS
10
6.23775
20
-3.90567
11
6.23775
21
-3.90567
0
LINE
8
BLACK
6
CONTINUOUS
10
6.23775
20
-3.90567
11
6.23153
21
-3.90567
0
LINE
8
BLACK
6
CONTINUOUS
10
6.23153
20
-3.90567
11
6.23153
21
-3.90567
0
LINE
8
BLACK
6
CONTINUOUS
10
6.23153
20
-3.90567
11
6.22549
21
-3.90716
0
LINE
8
BLACK
6
CONTINUOUS
10
6.22549
20
-3.90716
11
6.22549
21
-3.90716
0
LINE
8
BLACK
6
CONTINUOUS
10
6.22549
20
-3.90716
11
6.21999
21
-3.91005
0
LINE
8
BLACK
6
CONTINUOUS
10
6.21999
20
-3.91005
11
6.21533
21
-3.91417
0
LINE
8
BLACK
6
CONTINUOUS
10
6.21533
20
-3.91417
11
6.21533
21
-3.91417
0
LINE
8
BLACK
6
CONTINUOUS
10
6.21533
20
-3.91417
11
6.2118
21
-3.91929
0
LINE
8
BLACK
6
CONTINUOUS
10
6.2118
20
-3.91929
11
6.2118
21
-3.91929
0
LINE
8
BLACK
6
CONTINUOUS
10
6.2118
20
-3.91929
11
6.2118
21
-3.91929
0
LINE
8
BLACK
6
CONTINUOUS
10
6.2118
20
-3.91929
11
6.2118
21
-3.91929
0
LINE
8
BLACK
6
CONTINUOUS
10
6.2118
20
-3.91929
11
6.21152
21
-3.92004
0
LINE
8
BLACK
6
CONTINUOUS
10
6.21152
20
-3.92004
11
6.20959
21
-3.92511
0
LINE
8
BLACK
6
CONTINUOUS
10
6.20959
20
-3.92511
11
6.20884
21
-3.93128
0
LINE
8
BLACK
6
CONTINUOUS
10
6.20884
20
-3.93128
11
6.20884
21
-3.93128
0
LINE
8
BLACK
6
CONTINUOUS
10
6.20884
20
-3.93128
11
6.20959
21
-3.93746
0
LINE
8
BLACK
6
CONTINUOUS
10
6.20959
20
-3.93746
11
6.21034
21
-3.93943
0
LINE
8
BLACK
6
CONTINUOUS
10
6.21034
20
-3.93943
11
6.2118
21
-3.94327
0
LINE
8
BLACK
6
CONTINUOUS
10
6.2118
20
-3.94327
11
6.2118
21
-3.94327
0
LINE
8
BLACK
6
CONTINUOUS
10
6.2118
20
-3.94327
11
6.2118
21
-3.94327
0
LINE
8
BLACK
6
CONTINUOUS
10
6.2118
20
-3.94327
11
6.2118
21
-3.94327
0
LINE
8
BLACK
6
CONTINUOUS
10
6.2118
20
-3.94327
11
6.21526
21
-3.94828
0
LINE
8
BLACK
6
CONTINUOUS
10
6.21526
20
-3.94828
11
6.21533
21
-3.94839
0
LINE
8
BLACK
6
CONTINUOUS
10
6.21533
20
-3.94839
11
6.2172
21
-3.95005
0
LINE
8
BLACK
6
CONTINUOUS
10
6.2172
20
-3.95005
11
6.21869
21
-3.95242
0
LINE
8
BLACK
6
CONTINUOUS
10
6.21869
20
-3.95242
11
6.21887
21
-3.95376
0
LINE
8
BLACK
6
CONTINUOUS
10
6.21887
20
-3.95376
11
6.21887
21
-4.01826
0
LINE
8
BLACK
6
CONTINUOUS
10
6.21887
20
-4.01826
11
6.21809
21
-4.02095
0
LINE
8
BLACK
6
CONTINUOUS
10
6.21809
20
-4.02095
11
6.21597
21
-4.02278
0
LINE
8
BLACK
6
CONTINUOUS
10
6.21597
20
-4.02278
11
6.21321
21
-4.02317
0
LINE
8
BLACK
6
CONTINUOUS
10
6.21321
20
-4.02317
11
6.21067
21
-4.02201
0
LINE
8
BLACK
6
CONTINUOUS
10
6.21067
20
-4.02201
11
6.20983
21
-4.02108
0
LINE
8
BLACK
6
CONTINUOUS
10
6.20983
20
-4.02108
11
6.20766
21
-4.01793
0
LINE
8
BLACK
6
CONTINUOUS
10
6.20766
20
-4.01793
11
6.20766
21
-4.01793
0
LINE
8
BLACK
6
CONTINUOUS
10
6.20766
20
-4.01793
11
6.203
21
-4.01381
0
LINE
8
BLACK
6
CONTINUOUS
10
6.203
20
-4.01381
11
6.19749
21
-4.01092
0
LINE
8
BLACK
6
CONTINUOUS
10
6.19749
20
-4.01092
11
6.19749
21
-4.01092
0
LINE
8
BLACK
6
CONTINUOUS
10
6.19749
20
-4.01092
11
6.19146
21
-4.00943
0
LINE
8
BLACK
6
CONTINUOUS
10
6.19146
20
-4.00943
11
6.19146
21
-4.00943
0
LINE
8
BLACK
6
CONTINUOUS
10
6.19146
20
-4.00943
11
6.18524
21
-4.00943
0
LINE
8
BLACK
6
CONTINUOUS
10
6.18524
20
-4.00943
11
6.18524
21
-4.00943
0
LINE
8
BLACK
6
CONTINUOUS
10
6.18524
20
-4.00943
11
6.1792
21
-4.01092
0
LINE
8
BLACK
6
CONTINUOUS
10
6.1792
20
-4.01092
11
6.1792
21
-4.01092
0
LINE
8
BLACK
6
CONTINUOUS
10
6.1792
20
-4.01092
11
6.17417
21
-4.01356
0
LINE
8
BLACK
6
CONTINUOUS
10
6.17417
20
-4.01356
11
6.17369
21
-4.01381
0
LINE
8
BLACK
6
CONTINUOUS
10
6.17369
20
-4.01381
11
6.17115
21
-4.01606
0
LINE
8
BLACK
6
CONTINUOUS
10
6.17115
20
-4.01606
11
6.16862
21
-4.01724
0
LINE
8
BLACK
6
CONTINUOUS
10
6.16862
20
-4.01724
11
6.16786
21
-4.0173
0
LINE
8
BLACK
6
CONTINUOUS
10
6.16786
20
-4.0173
11
6.13275
21
-4.0173
0
LINE
8
BLACK
6
CONTINUOUS
10
6.13275
20
-4.0173
11
6.13007
21
-4.01652
0
LINE
8
BLACK
6
CONTINUOUS
10
6.13007
20
-4.01652
11
6.12924
21
-4.01585
0
LINE
8
BLACK
6
CONTINUOUS
10
6.12924
20
-4.01585
11
5.99545
21
-3.88206
0
LINE
8
BLACK
6
CONTINUOUS
10
5.99545
20
-3.88206
11
5.99411
21
-3.87961
0
LINE
8
BLACK
6
CONTINUOUS
10
5.99411
20
-3.87961
11
5.99404
21
-3.87915
0
LINE
8
BLACK
6
CONTINUOUS
10
5.99404
20
-3.87915
11
5.9934
21
-3.87387
0
LINE
8
BLACK
6
CONTINUOUS
10
5.9934
20
-3.87387
11
5.99255
21
-3.87164
0
LINE
8
BLACK
6
CONTINUOUS
10
5.99255
20
-3.87164
11
5.99119
21
-3.86805
0
LINE
8
BLACK
6
CONTINUOUS
10
5.99119
20
-3.86805
11
5.99119
21
-3.86805
0
LINE
8
BLACK
6
CONTINUOUS
10
5.99119
20
-3.86805
11
5.99119
21
-3.86805
0
LINE
8
BLACK
6
CONTINUOUS
10
5.99119
20
-3.86805
11
5.98766
21
-3.86293
0
LINE
8
BLACK
6
CONTINUOUS
10
5.98766
20
-3.86293
11
5.98766
21
-3.86293
0
LINE
8
BLACK
6
CONTINUOUS
10
5.98766
20
-3.86293
11
5.983
21
-3.85881
0
LINE
8
BLACK
6
CONTINUOUS
10
5.983
20
-3.85881
11
5.97749
21
-3.85592
0
LINE
8
BLACK
6
CONTINUOUS
10
5.97749
20
-3.85592
11
5.97749
21
-3.85592
0
LINE
8
BLACK
6
CONTINUOUS
10
5.97749
20
-3.85592
11
5.97146
21
-3.85443
0
LINE
8
BLACK
6
CONTINUOUS
10
5.97146
20
-3.85443
11
5.97146
21
-3.85443
0
LINE
8
BLACK
6
CONTINUOUS
10
5.97146
20
-3.85443
11
5.96524
21
-3.85443
0
LINE
8
BLACK
6
CONTINUOUS
10
5.96524
20
-3.85443
11
5.96524
21
-3.85443
0
LINE
8
BLACK
6
CONTINUOUS
10
5.96524
20
-3.85443
11
5.9592
21
-3.85592
0
LINE
8
BLACK
6
CONTINUOUS
10
5.9592
20
-3.85592
11
5.9592
21
-3.85592
0
LINE
8
BLACK
6
CONTINUOUS
10
5.9592
20
-3.85592
11
5.95369
21
-3.85881
0
LINE
8
BLACK
6
CONTINUOUS
10
5.95369
20
-3.85881
11
5.94904
21
-3.86293
0
LINE
8
BLACK
6
CONTINUOUS
10
5.94904
20
-3.86293
11
5.94904
21
-3.86293
0
LINE
8
BLACK
6
CONTINUOUS
10
5.94904
20
-3.86293
11
5.9455
21
-3.86805
0
LINE
8
BLACK
6
CONTINUOUS
10
5.9455
20
-3.86805
11
5.9455
21
-3.86805
0
LINE
8
BLACK
6
CONTINUOUS
10
5.9455
20
-3.86805
11
5.9455
21
-3.86805
0
LINE
8
BLACK
6
CONTINUOUS
10
5.9455
20
-3.86805
11
5.9455
21
-3.86805
0
LINE
8
BLACK
6
CONTINUOUS
10
5.9455
20
-3.86805
11
5.94508
21
-3.86916
0
LINE
8
BLACK
6
CONTINUOUS
10
5.94508
20
-3.86916
11
5.9433
21
-3.87387
0
LINE
8
BLACK
6
CONTINUOUS
10
5.9433
20
-3.87387
11
5.94255
21
-3.88004
0
LINE
8
BLACK
6
CONTINUOUS
10
5.94255
20
-3.88004
11
5.94255
21
-3.88004
0
LINE
8
BLACK
6
CONTINUOUS
10
5.94255
20
-3.88004
11
5.9433
21
-3.88621
0
LINE
8
BLACK
6
CONTINUOUS
10
5.56931
20
-4.12957
11
5.56931
21
-4.12957
0
LINE
8
BLACK
6
CONTINUOUS
10
5.56931
20
-4.12957
11
5.56989
21
-4.13166
0
LINE
8
BLACK
6
CONTINUOUS
10
5.56989
20
-4.13166
11
5.56989
21
-4.13166
0
LINE
8
BLACK
6
CONTINUOUS
10
5.56989
20
-4.13166
11
5.5732
21
-4.1379
0
LINE
8
BLACK
6
CONTINUOUS
10
5.5732
20
-4.1379
11
5.57778
21
-4.14329
0
LINE
8
BLACK
6
CONTINUOUS
10
5.57778
20
-4.14329
11
5.5834
21
-4.14756
0
LINE
8
BLACK
6
CONTINUOUS
10
5.5834
20
-4.14756
11
5.58981
21
-4.15053
0
LINE
8
BLACK
6
CONTINUOUS
10
5.58981
20
-4.15053
11
5.59671
21
-4.15205
0
LINE
8
BLACK
6
CONTINUOUS
10
5.59671
20
-4.15205
11
5.59671
21
-4.15205
0
LINE
8
BLACK
6
CONTINUOUS
10
5.59671
20
-4.15205
11
5.61091
21
-4.15205
0
LINE
8
BLACK
6
CONTINUOUS
10
5.61091
20
-4.15205
11
5.61091
21
-4.14024
0
LINE
8
BLACK
6
CONTINUOUS
10
5.61091
20
-4.14024
11
5.60024
21
-4.14024
0
LINE
8
BLACK
6
CONTINUOUS
10
5.60024
20
-4.14024
11
5.59743
21
-4.14004
0
LINE
8
BLACK
6
CONTINUOUS
10
5.59743
20
-4.14004
11
5.59201
21
-4.13853
0
LINE
8
BLACK
6
CONTINUOUS
10
5.59201
20
-4.13853
11
5.5872
21
-4.1356
0
LINE
8
BLACK
6
CONTINUOUS
10
5.5872
20
-4.1356
11
5.58336
21
-4.13149
0
LINE
8
BLACK
6
CONTINUOUS
10
5.58336
20
-4.13149
11
5.58236
21
-4.12957
0
LINE
8
BLACK
6
CONTINUOUS
10
5.58236
20
-4.12957
11
5.56931
21
-4.12957
0
LINE
8
BLACK
6
CONTINUOUS
10
5.65669
20
-4.13367
11
5.65232
21
-4.13723
0
LINE
8
BLACK
6
CONTINUOUS
10
5.65232
20
-4.13723
11
5.64716
21
-4.13947
0
LINE
8
BLACK
6
CONTINUOUS
10
5.64716
20
-4.13947
11
5.64158
21
-4.14024
0
LINE
8
BLACK
6
CONTINUOUS
10
5.64158
20
-4.14024
11
5.63091
21
-4.14024
0
LINE
8
BLACK
6
CONTINUOUS
10
5.63091
20
-4.14024
11
5.63091
21
-4.15205
0
LINE
8
BLACK
6
CONTINUOUS
10
5.63091
20
-4.15205
11
5.64334
21
-4.15205
0
LINE
8
BLACK
6
CONTINUOUS
10
5.64334
20
-4.15205
11
5.64334
21
-4.15205
0
LINE
8
BLACK
6
CONTINUOUS
10
5.64334
20
-4.15205
11
5.64861
21
-4.15147
0
LINE
8
BLACK
6
CONTINUOUS
10
5.64861
20
-4.15147
11
5.64861
21
-4.15147
0
LINE
8
BLACK
6
CONTINUOUS
10
5.64861
20
-4.15147
11
5.6553
21
-4.14922
0
LINE
8
BLACK
6
CONTINUOUS
10
5.6553
20
-4.14922
11
5.6553
21
-4.14922
0
LINE
8
BLACK
6
CONTINUOUS
10
5.6553
20
-4.14922
11
5.66135
21
-4.14558
0
LINE
8
BLACK
6
CONTINUOUS
10
5.66135
20
-4.14558
11
5.66648
21
-4.14072
0
LINE
8
BLACK
6
CONTINUOUS
10
5.66648
20
-4.14072
11
5.67045
21
-4.13487
0
LINE
8
BLACK
6
CONTINUOUS
10
5.67045
20
-4.13487
11
5.67256
21
-4.12957
0
LINE
8
BLACK
6
CONTINUOUS
10
5.67256
20
-4.12957
11
5.65959
21
-4.12957
0
LINE
8
BLACK
6
CONTINUOUS
10
5.65959
20
-4.12957
11
5.65669
21
-4.13367
0
LINE
8
BLACK
6
CONTINUOUS
10
5.40679
20
-4.12957
11
5.4081
21
-4.13332
0
LINE
8
BLACK
6
CONTINUOUS
10
5.4081
20
-4.13332
11
5.4081
21
-4.13332
0
LINE
8
BLACK
6
CONTINUOUS
10
5.4081
20
-4.13332
11
5.41188
21
-4.13933
0
LINE
8
BLACK
6
CONTINUOUS
10
5.41188
20
-4.13933
11
5.4169
21
-4.14435
0
LINE
8
BLACK
6
CONTINUOUS
10
5.4169
20
-4.14435
11
5.42291
21
-4.14812
0
LINE
8
BLACK
6
CONTINUOUS
10
5.42291
20
-4.14812
11
5.42961
21
-4.15047
0
LINE
8
BLACK
6
CONTINUOUS
10
5.42961
20
-4.15047
11
5.42961
21
-4.15047
0
LINE
8
BLACK
6
CONTINUOUS
10
5.42961
20
-4.15047
11
5.43489
21
-4.15106
0
LINE
8
BLACK
6
CONTINUOUS
10
5.43489
20
-4.15106
11
5.44635
21
-4.15106
0
LINE
8
BLACK
6
CONTINUOUS
10
5.44635
20
-4.15106
11
5.44635
21
-4.13925
0
LINE
8
BLACK
6
CONTINUOUS
10
5.44635
20
-4.13925
11
5.43666
21
-4.13925
0
LINE
8
BLACK
6
CONTINUOUS
10
5.43666
20
-4.13925
11
5.43112
21
-4.13845
0
LINE
8
BLACK
6
CONTINUOUS
10
5.43112
20
-4.13845
11
5.42602
21
-4.13613
0
LINE
8
BLACK
6
CONTINUOUS
10
5.42602
20
-4.13613
11
5.42178
21
-4.13246
0
LINE
8
BLACK
6
CONTINUOUS
10
5.42178
20
-4.13246
11
5.41993
21
-4.12957
0
LINE
8
BLACK
6
CONTINUOUS
10
5.41993
20
-4.12957
11
5.40679
21
-4.12957
0
LINE
8
BLACK
6
CONTINUOUS
10
5.49091
20
-4.13246
11
5.48667
21
-4.13613
0
LINE
8
BLACK
6
CONTINUOUS
10
5.48667
20
-4.13613
11
5.48158
21
-4.13845
0
LINE
8
BLACK
6
CONTINUOUS
10
5.48158
20
-4.13845
11
5.47603
21
-4.13925
0
LINE
8
BLACK
6
CONTINUOUS
10
5.47603
20
-4.13925
11
5.46635
21
-4.13925
0
LINE
8
BLACK
6
CONTINUOUS
10
5.46635
20
-4.13925
11
5.46635
21
-4.15106
0
LINE
8
BLACK
6
CONTINUOUS
10
5.46635
20
-4.15106
11
5.4778
21
-4.15106
0
LINE
8
BLACK
6
CONTINUOUS
10
5.4778
20
-4.15106
11
5.48308
21
-4.15047
0
LINE
8
BLACK
6
CONTINUOUS
10
5.48308
20
-4.15047
11
5.48978
21
-4.14812
0
LINE
8
BLACK
6
CONTINUOUS
10
5.48978
20
-4.14812
11
5.49579
21
-4.14435
0
LINE
8
BLACK
6
CONTINUOUS
10
5.49579
20
-4.14435
11
5.50081
21
-4.13933
0
LINE
8
BLACK
6
CONTINUOUS
10
5.50081
20
-4.13933
11
5.50459
21
-4.13332
0
LINE
8
BLACK
6
CONTINUOUS
10
5.50459
20
-4.13332
11
5.50459
21
-4.13332
0
LINE
8
BLACK
6
CONTINUOUS
10
5.50459
20
-4.13332
11
5.5059
21
-4.12957
0
LINE
8
BLACK
6
CONTINUOUS
10
5.5059
20
-4.12957
11
5.49277
21
-4.12957
0
LINE
8
BLACK
6
CONTINUOUS
10
5.49277
20
-4.12957
11
5.49091
21
-4.13246
0
LINE
8
BLACK
6
CONTINUOUS
10
5.63091
20
-4.0989
11
5.64158
21
-4.0989
0
LINE
8
BLACK
6
CONTINUOUS
10
5.64158
20
-4.0989
11
5.6444
21
-4.09909
0
LINE
8
BLACK
6
CONTINUOUS
10
5.6444
20
-4.09909
11
5.64982
21
-4.10061
0
LINE
8
BLACK
6
CONTINUOUS
10
5.64982
20
-4.10061
11
5.65463
21
-4.10353
0
LINE
8
BLACK
6
CONTINUOUS
10
5.65463
20
-4.10353
11
5.65847
21
-4.10765
0
LINE
8
BLACK
6
CONTINUOUS
10
5.65847
20
-4.10765
11
5.65946
21
-4.10957
0
LINE
8
BLACK
6
CONTINUOUS
10
5.65946
20
-4.10957
11
5.67252
21
-4.10957
0
LINE
8
BLACK
6
CONTINUOUS
10
5.67252
20
-4.10957
11
5.67252
21
-4.10957
0
LINE
8
BLACK
6
CONTINUOUS
10
5.67252
20
-4.10957
11
5.67193
21
-4.10747
0
LINE
8
BLACK
6
CONTINUOUS
10
5.67193
20
-4.10747
11
5.67193
21
-4.10747
0
LINE
8
BLACK
6
CONTINUOUS
10
5.67193
20
-4.10747
11
5.66862
21
-4.10123
0
LINE
8
BLACK
6
CONTINUOUS
10
5.66862
20
-4.10123
11
5.66405
21
-4.09585
0
LINE
8
BLACK
6
CONTINUOUS
10
5.66405
20
-4.09585
11
5.65843
21
-4.09157
0
LINE
8
BLACK
6
CONTINUOUS
10
5.65843
20
-4.09157
11
5.65201
21
-4.08861
0
LINE
8
BLACK
6
CONTINUOUS
10
5.65201
20
-4.08861
11
5.64512
21
-4.08709
0
LINE
8
BLACK
6
CONTINUOUS
10
5.64512
20
-4.08709
11
5.64511
21
-4.08709
0
LINE
8
BLACK
6
CONTINUOUS
10
5.64511
20
-4.08709
11
5.63091
21
-4.08709
0
LINE
8
BLACK
6
CONTINUOUS
10
5.63091
20
-4.08709
11
5.63091
21
-4.0989
0
LINE
8
BLACK
6
CONTINUOUS
10
5.5059
20
-4.10957
11
5.50459
21
-4.10581
0
LINE
8
BLACK
6
CONTINUOUS
10
5.50459
20
-4.10581
11
5.50459
21
-4.10581
0
LINE
8
BLACK
6
CONTINUOUS
10
5.50459
20
-4.10581
11
5.50081
21
-4.09981
0
LINE
8
BLACK
6
CONTINUOUS
10
5.50081
20
-4.09981
11
5.49579
21
-4.09479
0
LINE
8
BLACK
6
CONTINUOUS
10
5.49579
20
-4.09479
11
5.48978
21
-4.09101
0
LINE
8
BLACK
6
CONTINUOUS
10
5.48978
20
-4.09101
11
5.48308
21
-4.08867
0
LINE
8
BLACK
6
CONTINUOUS
10
5.48308
20
-4.08867
11
5.48308
21
-4.08867
0
LINE
8
BLACK
6
CONTINUOUS
10
5.48308
20
-4.08867
11
5.4778
21
-4.08807
0
LINE
8
BLACK
6
CONTINUOUS
10
5.4778
20
-4.08807
11
5.46635
21
-4.08807
0
LINE
8
BLACK
6
CONTINUOUS
10
5.46635
20
-4.08807
11
5.46635
21
-4.09988
0
LINE
8
BLACK
6
CONTINUOUS
10
5.46635
20
-4.09988
11
5.47603
21
-4.09988
0
LINE
8
BLACK
6
CONTINUOUS
10
5.47603
20
-4.09988
11
5.48158
21
-4.10068
0
LINE
8
BLACK
6
CONTINUOUS
10
5.48158
20
-4.10068
11
5.48667
21
-4.10301
0
LINE
8
BLACK
6
CONTINUOUS
10
5.48667
20
-4.10301
11
5.49091
21
-4.10668
0
LINE
8
BLACK
6
CONTINUOUS
10
5.49091
20
-4.10668
11
5.49277
21
-4.10957
0
LINE
8
BLACK
6
CONTINUOUS
10
5.49277
20
-4.10957
11
5.5059
21
-4.10957
0
LINE
8
BLACK
6
CONTINUOUS
10
5.5059
20
-4.10957
11
5.5059
21
-4.10957
0
LINE
8
BLACK
6
CONTINUOUS
10
5.71321
20
-3.89516
11
5.7176
21
-3.8974
0
LINE
8
BLACK
6
CONTINUOUS
10
5.7176
20
-3.8974
11
5.72109
21
-3.90088
0
LINE
8
BLACK
6
CONTINUOUS
10
5.72109
20
-3.90088
11
5.72332
21
-3.90527
0
LINE
8
BLACK
6
CONTINUOUS
10
5.72332
20
-3.90527
11
5.72409
21
-3.91014
0
LINE
8
BLACK
6
CONTINUOUS
10
5.72409
20
-3.91014
11
5.72332
21
-3.915
0
LINE
8
BLACK
6
CONTINUOUS
10
5.72332
20
-3.915
11
5.72109
21
-3.91939
0
LINE
8
BLACK
6
CONTINUOUS
10
5.72109
20
-3.91939
11
5.7176
21
-3.92288
0
LINE
8
BLACK
6
CONTINUOUS
10
5.7176
20
-3.92288
11
5.71425
21
-3.92459
0
LINE
8
BLACK
6
CONTINUOUS
10
5.71425
20
-3.92459
11
5.71425
21
-3.95507
0
LINE
8
BLACK
6
CONTINUOUS
10
5.71425
20
-3.95507
11
5.71689
21
-3.95641
0
LINE
8
BLACK
6
CONTINUOUS
10
5.71689
20
-3.95641
11
5.72038
21
-3.9599
0
LINE
8
BLACK
6
CONTINUOUS
10
5.72038
20
-3.9599
11
5.72262
21
-3.96429
0
LINE
8
BLACK
6
CONTINUOUS
10
5.72262
20
-3.96429
11
5.72339
21
-3.96915
0
LINE
8
BLACK
6
CONTINUOUS
10
5.72339
20
-3.96915
11
5.72262
21
-3.97402
0
LINE
8
BLACK
6
CONTINUOUS
10
5.72262
20
-3.97402
11
5.72038
21
-3.97841
0
LINE
8
BLACK
6
CONTINUOUS
10
5.72038
20
-3.97841
11
5.71689
21
-3.98189
0
LINE
8
BLACK
6
CONTINUOUS
10
5.71689
20
-3.98189
11
5.7125
21
-3.98413
0
LINE
8
BLACK
6
CONTINUOUS
10
5.7125
20
-3.98413
11
5.70764
21
-3.9849
0
LINE
8
BLACK
6
CONTINUOUS
10
5.70764
20
-3.9849
11
5.70277
21
-3.98413
0
LINE
8
BLACK
6
CONTINUOUS
10
5.70277
20
-3.98413
11
5.69838
21
-3.98189
0
LINE
8
BLACK
6
CONTINUOUS
10
5.69838
20
-3.98189
11
5.6949
21
-3.97841
0
LINE
8
BLACK
6
CONTINUOUS
10
5.6949
20
-3.97841
11
5.69266
21
-3.97402
0
LINE
8
BLACK
6
CONTINUOUS
10
5.69266
20
-3.97402
11
5.69189
21
-3.96915
0
LINE
8
BLACK
6
CONTINUOUS
10
5.69189
20
-3.96915
11
5.69266
21
-3.96429
0
LINE
8
BLACK
6
CONTINUOUS
10
5.69266
20
-3.96429
11
5.6949
21
-3.9599
0
LINE
8
BLACK
6
CONTINUOUS
10
5.6949
20
-3.9599
11
5.69838
21
-3.95641
0
LINE
8
BLACK
6
CONTINUOUS
10
5.69838
20
-3.95641
11
5.70244
21
-3.95434
0
LINE
8
BLACK
6
CONTINUOUS
10
5.70244
20
-3.95434
11
5.70244
21
-3.92459
0
LINE
8
BLACK
6
CONTINUOUS
10
5.70244
20
-3.92459
11
5.69909
21
-3.92288
0
LINE
8
BLACK
6
CONTINUOUS
10
5.69909
20
-3.92288
11
5.69561
21
-3.91939
0
LINE
8
BLACK
6
CONTINUOUS
10
5.69561
20
-3.91939
11
5.69337
21
-3.915
0
LINE
8
BLACK
6
CONTINUOUS
10
5.69337
20
-3.915
11
5.6926
21
-3.91014
0
LINE
8
BLACK
6
CONTINUOUS
10
5.6926
20
-3.91014
11
5.69337
21
-3.90527
0
LINE
8
BLACK
6
CONTINUOUS
10
5.69337
20
-3.90527
11
5.69561
21
-3.90088
0
LINE
8
BLACK
6
CONTINUOUS
10
5.69561
20
-3.90088
11
5.69909
21
-3.8974
0
LINE
8
BLACK
6
CONTINUOUS
10
5.69909
20
-3.8974
11
5.70348
21
-3.89516
0
LINE
8
BLACK
6
CONTINUOUS
10
5.70348
20
-3.89516
11
5.70835
21
-3.89439
0
LINE
8
BLACK
6
CONTINUOUS
10
5.70835
20
-3.89439
11
5.71321
21
-3.89516
0
LINE
8
BLACK
6
CONTINUOUS
10
6.3583
20
-3.92621
11
6.35886
21
-3.92771
0
LINE
8
BLACK
6
CONTINUOUS
10
6.35886
20
-3.92771
11
6.3605
21
-3.93203
0
LINE
8
BLACK
6
CONTINUOUS
10
6.3605
20
-3.93203
11
6.3605
21
-3.93203
0
LINE
8
BLACK
6
CONTINUOUS
10
6.3605
20
-3.93203
11
6.3605
21
-3.93203
0
LINE
8
BLACK
6
CONTINUOUS
10
6.3605
20
-3.93203
11
6.3639
21
-3.93695
0
LINE
8
BLACK
6
CONTINUOUS
10
6.3639
20
-3.93695
11
6.36404
21
-3.93715
0
LINE
8
BLACK
6
CONTINUOUS
10
6.36404
20
-3.93715
11
6.36869
21
-3.94127
0
LINE
8
BLACK
6
CONTINUOUS
10
6.36869
20
-3.94127
11
6.3742
21
-3.94416
0
LINE
8
BLACK
6
CONTINUOUS
10
6.3742
20
-3.94416
11
6.3742
21
-3.94416
0
LINE
8
BLACK
6
CONTINUOUS
10
6.3742
20
-3.94416
11
6.3742
21
-3.94416
0
LINE
8
BLACK
6
CONTINUOUS
10
6.3742
20
-3.94416
11
6.37722
21
-3.94491
0
LINE
8
BLACK
6
CONTINUOUS
10
6.37722
20
-3.94491
11
6.38024
21
-3.94565
0
LINE
8
BLACK
6
CONTINUOUS
10
6.38024
20
-3.94565
11
6.38024
21
-3.94565
0
LINE
8
BLACK
6
CONTINUOUS
10
6.38024
20
-3.94565
11
6.38646
21
-3.94565
0
LINE
8
BLACK
6
CONTINUOUS
10
6.38646
20
-3.94565
11
6.38646
21
-3.94565
0
LINE
8
BLACK
6
CONTINUOUS
10
6.38646
20
-3.94565
11
6.39249
21
-3.94416
0
LINE
8
BLACK
6
CONTINUOUS
10
6.39249
20
-3.94416
11
6.398
21
-3.94127
0
LINE
8
BLACK
6
CONTINUOUS
10
6.398
20
-3.94127
11
6.40266
21
-3.93715
0
LINE
8
BLACK
6
CONTINUOUS
10
6.40266
20
-3.93715
11
6.40619
21
-3.93203
0
LINE
8
BLACK
6
CONTINUOUS
10
6.40619
20
-3.93203
11
6.4084
21
-3.92621
0
LINE
8
BLACK
6
CONTINUOUS
10
6.4084
20
-3.92621
11
6.40865
21
-3.92409
0
LINE
8
BLACK
6
CONTINUOUS
10
6.40865
20
-3.92409
11
6.40976
21
-3.92153
0
LINE
8
BLACK
6
CONTINUOUS
10
6.40976
20
-3.92153
11
6.41007
21
-3.92118
0
LINE
8
BLACK
6
CONTINUOUS
10
6.41007
20
-3.92118
11
6.45885
21
-3.8724
0
LINE
8
BLACK
6
CONTINUOUS
10
6.45885
20
-3.8724
11
6.45968
21
-3.87174
0
LINE
8
BLACK
6
CONTINUOUS
10
6.45968
20
-3.87174
11
6.45983
21
-3.87164
0
LINE
8
BLACK
6
CONTINUOUS
10
6.45983
20
-3.87164
11
6.46117
21
-3.8701
0
LINE
8
BLACK
6
CONTINUOUS
10
6.46117
20
-3.8701
11
6.46128
21
-3.86997
0
LINE
8
BLACK
6
CONTINUOUS
10
6.46128
20
-3.86997
11
6.46172
21
-3.86953
0
LINE
8
BLACK
6
CONTINUOUS
10
6.46172
20
-3.86953
11
6.46209
21
-3.86904
0
LINE
8
BLACK
6
CONTINUOUS
10
6.46209
20
-3.86904
11
6.4622
21
-3.8689
0
LINE
8
BLACK
6
CONTINUOUS
10
6.4622
20
-3.8689
11
6.46294
21
-3.86805
0
LINE
8
BLACK
6
CONTINUOUS
10
6.46294
20
-3.86805
11
6.46354
21
-3.86736
0
LINE
8
BLACK
6
CONTINUOUS
10
6.46354
20
-3.86736
11
6.46361
21
-3.86719
0
LINE
8
BLACK
6
CONTINUOUS
10
6.46361
20
-3.86719
11
6.46416
21
-3.86628
0
LINE
8
BLACK
6
CONTINUOUS
10
6.46416
20
-3.86628
11
6.46426
21
-3.86613
0
LINE
8
BLACK
6
CONTINUOUS
10
6.46426
20
-3.86613
11
6.46498
21
-3.86422
0
LINE
8
BLACK
6
CONTINUOUS
10
6.46498
20
-3.86422
11
6.46504
21
-3.86406
0
LINE
8
BLACK
6
CONTINUOUS
10
6.46504
20
-3.86406
11
6.46589
21
-3.8622
0
LINE
8
BLACK
6
CONTINUOUS
10
6.46589
20
-3.8622
11
6.46592
21
-3.86202
0
LINE
8
BLACK
6
CONTINUOUS
10
6.46592
20
-3.86202
11
6.46618
21
-3.861
0
LINE
8
BLACK
6
CONTINUOUS
10
6.46618
20
-3.861
11
6.46624
21
-3.86083
0
LINE
8
BLACK
6
CONTINUOUS
10
6.46624
20
-3.86083
11
6.46639
21
-3.85879
0
LINE
8
BLACK
6
CONTINUOUS
10
6.46639
20
-3.85879
11
6.46641
21
-3.85862
0
LINE
8
BLACK
6
CONTINUOUS
10
6.46641
20
-3.85862
11
6.4665
21
-3.858
0
LINE
8
BLACK
6
CONTINUOUS
10
6.4665
20
-3.858
11
6.4665
21
-3.85739
0
LINE
8
BLACK
6
CONTINUOUS
10
6.4665
20
-3.85739
11
6.4665
21
-3.85721
0
LINE
8
BLACK
6
CONTINUOUS
10
6.4665
20
-3.85721
11
6.4666
21
-3.85592
0
LINE
8
BLACK
6
CONTINUOUS
10
6.4666
20
-3.85592
11
6.46665
21
-3.85517
0
LINE
8
BLACK
6
CONTINUOUS
10
6.46665
20
-3.85517
11
6.46661
21
-3.855
0
LINE
8
BLACK
6
CONTINUOUS
10
6.46661
20
-3.855
11
6.46661
21
-3.855
0
LINE
8
BLACK
6
CONTINUOUS
10
6.46661
20
-3.855
11
6.4665
21
-3.85394
0
LINE
8
BLACK
6
CONTINUOUS
10
6.4665
20
-3.85394
11
6.4665
21
-3.58114
0
LINE
8
BLACK
6
CONTINUOUS
10
6.4665
20
-3.58114
11
6.46661
21
-3.58008
0
LINE
8
BLACK
6
CONTINUOUS
10
6.46661
20
-3.58008
11
6.46665
21
-3.5799
0
LINE
8
BLACK
6
CONTINUOUS
10
6.46665
20
-3.5799
11
6.46656
21
-3.57872
0
LINE
8
BLACK
6
CONTINUOUS
10
6.46656
20
-3.57872
11
6.4665
21
-3.57787
0
LINE
8
BLACK
6
CONTINUOUS
10
6.4665
20
-3.57787
11
6.4665
21
-3.57769
0
LINE
8
BLACK
6
CONTINUOUS
10
6.4665
20
-3.57769
11
6.4665
21
-3.57769
0
LINE
8
BLACK
6
CONTINUOUS
10
6.4665
20
-3.57769
11
6.4665
21
-3.57708
0
LINE
8
BLACK
6
CONTINUOUS
10
6.4665
20
-3.57708
11
6.46641
21
-3.57646
0
LINE
8
BLACK
6
CONTINUOUS
10
6.46641
20
-3.57646
11
6.46639
21
-3.57629
0
LINE
8
BLACK
6
CONTINUOUS
10
6.46639
20
-3.57629
11
6.46624
21
-3.57425
0
LINE
8
BLACK
6
CONTINUOUS
10
6.46624
20
-3.57425
11
6.46624
21
-3.57425
0
LINE
8
BLACK
6
CONTINUOUS
10
6.46624
20
-3.57425
11
6.46618
21
-3.57408
0
LINE
8
BLACK
6
CONTINUOUS
10
6.46618
20
-3.57408
11
6.46592
21
-3.57306
0
LINE
8
BLACK
6
CONTINUOUS
10
6.46592
20
-3.57306
11
6.46589
21
-3.57288
0
LINE
8
BLACK
6
CONTINUOUS
10
6.46589
20
-3.57288
11
6.46504
21
-3.57102
0
LINE
8
BLACK
6
CONTINUOUS
10
6.46504
20
-3.57102
11
6.46498
21
-3.57086
0
LINE
8
BLACK
6
CONTINUOUS
10
6.46498
20
-3.57086
11
6.46426
21
-3.56894
0
LINE
8
BLACK
6
CONTINUOUS
10
6.46426
20
-3.56894
11
6.46426
21
-3.56894
0
LINE
8
BLACK
6
CONTINUOUS
10
6.46426
20
-3.56894
11
6.46416
21
-3.5688
0
LINE
8
BLACK
6
CONTINUOUS
10
6.46416
20
-3.5688
11
6.46361
21
-3.56789
0
LINE
8
BLACK
6
CONTINUOUS
10
6.46361
20
-3.56789
11
6.46354
21
-3.56772
0
LINE
8
BLACK
6
CONTINUOUS
10
6.46354
20
-3.56772
11
6.46328
21
-3.56742
0
LINE
8
BLACK
6
CONTINUOUS
10
6.46328
20
-3.56742
11
6.4622
21
-3.56618
0
LINE
8
BLACK
6
CONTINUOUS
10
6.4622
20
-3.56618
11
6.46209
21
-3.56604
0
LINE
8
BLACK
6
CONTINUOUS
10
6.46209
20
-3.56604
11
6.46199
21
-3.56591
0
LINE
8
BLACK
6
CONTINUOUS
10
6.46199
20
-3.56591
11
6.46172
21
-3.56555
0
LINE
8
BLACK
6
CONTINUOUS
10
6.46172
20
-3.56555
11
6.46129
21
-3.56511
0
LINE
8
BLACK
6
CONTINUOUS
10
6.46129
20
-3.56511
11
6.46117
21
-3.56498
0
LINE
8
BLACK
6
CONTINUOUS
10
6.46117
20
-3.56498
11
6.45983
21
-3.56344
0
LINE
8
BLACK
6
CONTINUOUS
10
6.45983
20
-3.56344
11
6.45968
21
-3.56334
0
LINE
8
BLACK
6
CONTINUOUS
10
6.45968
20
-3.56334
11
6.45885
21
-3.56268
0
LINE
8
BLACK
6
CONTINUOUS
10
6.45885
20
-3.56268
11
6.42507
21
-3.5289
0
LINE
8
BLACK
6
CONTINUOUS
10
6.42507
20
-3.5289
11
6.42373
21
-3.52644
0
LINE
8
BLACK
6
CONTINUOUS
10
6.42373
20
-3.52644
11
6.42365
21
-3.52599
0
LINE
8
BLACK
6
CONTINUOUS
10
6.42365
20
-3.52599
11
6.4234
21
-3.52387
0
LINE
8
BLACK
6
CONTINUOUS
10
6.4234
20
-3.52387
11
6.42119
21
-3.51805
0
LINE
8
BLACK
6
CONTINUOUS
10
6.42119
20
-3.51805
11
6.42119
21
-3.51805
0
LINE
8
BLACK
6
CONTINUOUS
10
6.42119
20
-3.51805
11
6.42119
21
-3.51805
0
LINE
8
BLACK
6
CONTINUOUS
10
6.42119
20
-3.51805
11
6.41766
21
-3.51293
0
LINE
8
BLACK
6
CONTINUOUS
10
6.41766
20
-3.51293
11
6.41766
21
-3.51293
0
LINE
8
BLACK
6
CONTINUOUS
10
6.41766
20
-3.51293
11
6.413
21
-3.50881
0
LINE
8
BLACK
6
CONTINUOUS
10
6.413
20
-3.50881
11
6.40749
21
-3.50592
0
LINE
8
BLACK
6
CONTINUOUS
10
6.40749
20
-3.50592
11
6.40749
21
-3.50592
0
LINE
8
BLACK
6
CONTINUOUS
10
6.40749
20
-3.50592
11
6.40146
21
-3.50443
0
LINE
8
BLACK
6
CONTINUOUS
10
6.40146
20
-3.50443
11
6.40146
21
-3.50443
0
LINE
8
BLACK
6
CONTINUOUS
10
6.40146
20
-3.50443
11
6.39524
21
-3.50443
0
LINE
8
BLACK
6
CONTINUOUS
10
6.39524
20
-3.50443
11
6.39524
21
-3.50443
0
LINE
8
BLACK
6
CONTINUOUS
10
6.39524
20
-3.50443
11
6.3892
21
-3.50592
0
LINE
8
BLACK
6
CONTINUOUS
10
6.3892
20
-3.50592
11
6.3892
21
-3.50592
0
LINE
8
BLACK
6
CONTINUOUS
10
6.3892
20
-3.50592
11
6.38369
21
-3.50881
0
LINE
8
BLACK
6
CONTINUOUS
10
6.38369
20
-3.50881
11
6.37904
21
-3.51293
0
LINE
8
BLACK
6
CONTINUOUS
10
6.37904
20
-3.51293
11
6.37904
21
-3.51293
0
LINE
8
BLACK
6
CONTINUOUS
10
6.37904
20
-3.51293
11
6.3755
21
-3.51805
0
LINE
8
BLACK
6
CONTINUOUS
10
6.3755
20
-3.51805
11
6.3755
21
-3.51805
0
LINE
8
BLACK
6
CONTINUOUS
10
6.3755
20
-3.51805
11
6.3733
21
-3.52387
0
LINE
8
BLACK
6
CONTINUOUS
10
6.3733
20
-3.52387
11
6.37255
21
-3.53004
0
LINE
8
BLACK
6
CONTINUOUS
10
6.37255
20
-3.53004
11
6.37255
21
-3.53004
0
LINE
8
BLACK
6
CONTINUOUS
10
6.37255
20
-3.53004
11
6.3733
21
-3.53621
0
LINE
8
BLACK
6
CONTINUOUS
10
6.3733
20
-3.53621
11
6.3744
21
-3.53912
0
LINE
8
BLACK
6
CONTINUOUS
10
6.3744
20
-3.53912
11
6.3755
21
-3.54203
0
LINE
8
BLACK
6
CONTINUOUS
10
6.3755
20
-3.54203
11
6.3755
21
-3.54203
0
LINE
8
BLACK
6
CONTINUOUS
10
6.3755
20
-3.54203
11
6.3755
21
-3.54203
0
LINE
8
BLACK
6
CONTINUOUS
10
6.3755
20
-3.54203
11
6.3755
21
-3.54203
0
LINE
8
BLACK
6
CONTINUOUS
10
6.3755
20
-3.54203
11
6.37904
21
-3.54715
0
LINE
8
BLACK
6
CONTINUOUS
10
6.37904
20
-3.54715
11
6.37904
21
-3.54715
0
LINE
8
BLACK
6
CONTINUOUS
10
6.37904
20
-3.54715
11
6.38369
21
-3.55127
0
LINE
8
BLACK
6
CONTINUOUS
10
6.38369
20
-3.55127
11
6.3892
21
-3.55416
0
LINE
8
BLACK
6
CONTINUOUS
10
6.3892
20
-3.55416
11
6.39503
21
-3.5556
0
LINE
8
BLACK
6
CONTINUOUS
10
6.39503
20
-3.5556
11
6.39735
21
-3.55691
0
LINE
8
BLACK
6
CONTINUOUS
10
6.39735
20
-3.55691
11
6.42563
21
-3.58519
0
LINE
8
BLACK
6
CONTINUOUS
10
6.42563
20
-3.58519
11
6.42697
21
-3.58765
0
LINE
8
BLACK
6
CONTINUOUS
10
6.42697
20
-3.58765
11
6.42709
21
-3.5887
0
LINE
8
BLACK
6
CONTINUOUS
10
6.42709
20
-3.5887
11
6.42709
21
-3.84638
0
LINE
8
BLACK
6
CONTINUOUS
10
6.42709
20
-3.84638
11
6.4263
21
-3.84906
0
LINE
8
BLACK
6
CONTINUOUS
10
6.4263
20
-3.84906
11
6.42563
21
-3.84989
0
LINE
8
BLACK
6
CONTINUOUS
10
6.42563
20
-3.84989
11
6.38235
21
-3.89317
0
LINE
8
BLACK
6
CONTINUOUS
10
6.38235
20
-3.89317
11
6.38003
21
-3.89448
0
LINE
8
BLACK
6
CONTINUOUS
10
6.38003
20
-3.89448
11
6.3742
21
-3.89592
0
LINE
8
BLACK
6
CONTINUOUS
10
6.3742
20
-3.89592
11
6.3742
21
-3.89592
0
LINE
8
BLACK
6
CONTINUOUS
10
6.3742
20
-3.89592
11
6.36869
21
-3.89881
0
LINE
8
BLACK
6
CONTINUOUS
10
6.36869
20
-3.89881
11
6.36404
21
-3.90293
0
LINE
8
BLACK
6
CONTINUOUS
10
6.36404
20
-3.90293
11
6.36404
21
-3.90293
0
LINE
8
BLACK
6
CONTINUOUS
10
6.36404
20
-3.90293
11
6.3605
21
-3.90805
0
LINE
8
BLACK
6
CONTINUOUS
10
6.3605
20
-3.90805
11
6.3605
21
-3.90805
0
LINE
8
BLACK
6
CONTINUOUS
10
6.3605
20
-3.90805
11
6.3583
21
-3.91387
0
LINE
8
BLACK
6
CONTINUOUS
10
6.3583
20
-3.91387
11
6.35755
21
-3.92004
0
LINE
8
BLACK
6
CONTINUOUS
10
6.35755
20
-3.92004
11
6.35755
21
-3.92004
0
LINE
8
BLACK
6
CONTINUOUS
10
6.35755
20
-3.92004
11
6.3583
21
-3.92621
0
LINE
8
BLACK
6
CONTINUOUS
10
5.7783
20
-3.71621
11
5.7794
21
-3.71912
0
LINE
8
BLACK
6
CONTINUOUS
10
5.7794
20
-3.71912
11
5.7805
21
-3.72203
0
LINE
8
BLACK
6
CONTINUOUS
10
5.7805
20
-3.72203
11
5.7805
21
-3.72203
0
LINE
8
BLACK
6
CONTINUOUS
10
5.7805
20
-3.72203
11
5.7805
21
-3.72203
0
LINE
8
BLACK
6
CONTINUOUS
10
5.7805
20
-3.72203
11
5.7805
21
-3.72203
0
LINE
8
BLACK
6
CONTINUOUS
10
5.7805
20
-3.72203
11
5.78325
21
-3.72601
0
LINE
8
BLACK
6
CONTINUOUS
10
5.78325
20
-3.72601
11
5.78404
21
-3.72715
0
LINE
8
BLACK
6
CONTINUOUS
10
5.78404
20
-3.72715
11
5.78869
21
-3.73127
0
LINE
8
BLACK
6
CONTINUOUS
10
5.78869
20
-3.73127
11
5.7942
21
-3.73416
0
LINE
8
BLACK
6
CONTINUOUS
10
5.7942
20
-3.73416
11
5.7942
21
-3.73416
0
LINE
8
BLACK
6
CONTINUOUS
10
5.7942
20
-3.73416
11
5.7942
21
-3.73416
0
LINE
8
BLACK
6
CONTINUOUS
10
5.7942
20
-3.73416
11
5.79722
21
-3.73491
0
LINE
8
BLACK
6
CONTINUOUS
10
5.79722
20
-3.73491
11
5.80024
21
-3.73565
0
LINE
8
BLACK
6
CONTINUOUS
10
5.80024
20
-3.73565
11
5.80024
21
-3.73565
0
LINE
8
BLACK
6
CONTINUOUS
10
5.80024
20
-3.73565
11
5.8046
21
-3.73565
0
LINE
8
BLACK
6
CONTINUOUS
10
5.8046
20
-3.73565
11
5.80728
21
-3.73644
0
LINE
8
BLACK
6
CONTINUOUS
10
5.80728
20
-3.73644
11
5.80811
21
-3.7371
0
LINE
8
BLACK
6
CONTINUOUS
10
5.80811
20
-3.7371
11
5.80896
21
-3.73795
0
LINE
8
BLACK
6
CONTINUOUS
10
5.80896
20
-3.73795
11
5.80896
21
-3.73795
0
LINE
8
BLACK
6
CONTINUOUS
10
5.80896
20
-3.73795
11
5.80896
21
-3.73795
0
LINE
8
BLACK
6
CONTINUOUS
10
5.80896
20
-3.73795
11
5.80973
21
-3.73835
0
LINE
8
BLACK
6
CONTINUOUS
10
5.80973
20
-3.73835
11
5.8104
21
-3.73875
0
LINE
8
BLACK
6
CONTINUOUS
10
5.8104
20
-3.73875
11
5.8111
21
-3.73926
0
LINE
8
BLACK
6
CONTINUOUS
10
5.8111
20
-3.73926
11
5.81192
21
-3.73953
0
LINE
8
BLACK
6
CONTINUOUS
10
5.81192
20
-3.73953
11
5.81264
21
-3.73983
0
LINE
8
BLACK
6
CONTINUOUS
10
5.81264
20
-3.73983
11
5.81341
21
-3.74022
0
LINE
8
BLACK
6
CONTINUOUS
10
5.81341
20
-3.74022
11
5.81427
21
-3.74036
0
LINE
8
BLACK
6
CONTINUOUS
10
5.81427
20
-3.74036
11
5.81503
21
-3.74054
0
LINE
8
BLACK
6
CONTINUOUS
10
5.81503
20
-3.74054
11
5.81585
21
-3.74081
0
LINE
8
BLACK
6
CONTINUOUS
10
5.81585
20
-3.74081
11
5.817
21
-3.74081
0
LINE
8
BLACK
6
CONTINUOUS
10
5.817
20
-3.74081
11
5.817
21
-3.74081
0
LINE
8
BLACK
6
CONTINUOUS
10
5.817
20
-3.74081
11
5.81711
21
-3.74081
0
LINE
8
BLACK
6
CONTINUOUS
10
5.81711
20
-3.74081
11
6.01476
21
-3.74081
0
LINE
8
BLACK
6
CONTINUOUS
10
6.01476
20
-3.74081
11
6.01744
21
-3.74159
0
LINE
8
BLACK
6
CONTINUOUS
10
6.01744
20
-3.74159
11
6.01827
21
-3.74226
0
LINE
8
BLACK
6
CONTINUOUS
10
6.01827
20
-3.74226
11
6.09122
21
-3.81521
0
LINE
8
BLACK
6
CONTINUOUS
10
6.09122
20
-3.81521
11
6.09256
21
-3.81766
0
LINE
8
BLACK
6
CONTINUOUS
10
6.09256
20
-3.81766
11
6.09264
21
-3.81932
0
LINE
8
BLACK
6
CONTINUOUS
10
6.09264
20
-3.81932
11
6.09255
21
-3.82004
0
LINE
8
BLACK
6
CONTINUOUS
10
6.09255
20
-3.82004
11
6.09255
21
-3.82004
0
LINE
8
BLACK
6
CONTINUOUS
10
6.09255
20
-3.82004
11
6.0933
21
-3.82621
0
LINE
8
BLACK
6
CONTINUOUS
10
6.0933
20
-3.82621
11
6.09413
21
-3.8284
0
LINE
8
BLACK
6
CONTINUOUS
10
6.09413
20
-3.8284
11
6.0955
21
-3.83203
0
LINE
8
BLACK
6
CONTINUOUS
10
6.0955
20
-3.83203
11
6.0955
21
-3.83203
0
LINE
8
BLACK
6
CONTINUOUS
10
6.0955
20
-3.83203
11
6.0955
21
-3.83203
0
LINE
8
BLACK
6
CONTINUOUS
10
6.0955
20
-3.83203
11
6.0955
21
-3.83203
0
LINE
8
BLACK
6
CONTINUOUS
10
6.0955
20
-3.83203
11
6.09904
21
-3.83715
0
LINE
8
BLACK
6
CONTINUOUS
10
6.09904
20
-3.83715
11
6.09904
21
-3.83715
0
LINE
8
BLACK
6
CONTINUOUS
10
6.09904
20
-3.83715
11
6.10369
21
-3.84127
0
LINE
8
BLACK
6
CONTINUOUS
10
6.10369
20
-3.84127
11
6.1092
21
-3.84416
0
LINE
8
BLACK
6
CONTINUOUS
10
6.1092
20
-3.84416
11
6.1092
21
-3.84416
0
LINE
8
BLACK
6
CONTINUOUS
10
6.1092
20
-3.84416
11
6.1092
21
-3.84416
0
LINE
8
BLACK
6
CONTINUOUS
10
6.1092
20
-3.84416
11
6.11222
21
-3.84491
0
LINE
8
BLACK
6
CONTINUOUS
10
6.11222
20
-3.84491
11
6.11524
21
-3.84565
0
LINE
8
BLACK
6
CONTINUOUS
10
6.11524
20
-3.84565
11
6.11524
21
-3.84565
0
LINE
8
BLACK
6
CONTINUOUS
10
6.11524
20
-3.84565
11
6.12146
21
-3.84565
0
LINE
8
BLACK
6
CONTINUOUS
10
6.12146
20
-3.84565
11
6.12146
21
-3.84565
0
LINE
8
BLACK
6
CONTINUOUS
10
6.12146
20
-3.84565
11
6.12749
21
-3.84416
0
LINE
8
BLACK
6
CONTINUOUS
10
6.12749
20
-3.84416
11
6.133
21
-3.84127
0
LINE
8
BLACK
6
CONTINUOUS
10
6.133
20
-3.84127
11
6.13766
21
-3.83715
0
LINE
8
BLACK
6
CONTINUOUS
10
6.13766
20
-3.83715
11
6.14119
21
-3.83203
0
LINE
8
BLACK
6
CONTINUOUS
10
6.14119
20
-3.83203
11
6.1434
21
-3.82621
0
LINE
8
BLACK
6
CONTINUOUS
10
6.1434
20
-3.82621
11
6.1434
21
-3.82621
0
LINE
8
BLACK
6
CONTINUOUS
10
6.1434
20
-3.82621
11
6.1434
21
-3.82621
0
LINE
8
BLACK
6
CONTINUOUS
10
6.1434
20
-3.82621
11
6.14414
21
-3.82004
0
LINE
8
BLACK
6
CONTINUOUS
10
6.14414
20
-3.82004
11
6.14414
21
-3.82004
0
LINE
8
BLACK
6
CONTINUOUS
10
6.14414
20
-3.82004
11
6.1434
21
-3.81387
0
LINE
8
BLACK
6
CONTINUOUS
10
6.1434
20
-3.81387
11
6.14309
21
-3.81305
0
LINE
8
BLACK
6
CONTINUOUS
10
6.14309
20
-3.81305
11
6.14119
21
-3.80805
0
LINE
8
BLACK
6
CONTINUOUS
10
6.14119
20
-3.80805
11
6.14119
21
-3.80805
0
LINE
8
BLACK
6
CONTINUOUS
10
6.14119
20
-3.80805
11
6.14119
21
-3.80805
0
LINE
8
BLACK
6
CONTINUOUS
10
6.14119
20
-3.80805
11
6.13766
21
-3.80293
0
LINE
8
BLACK
6
CONTINUOUS
10
6.13766
20
-3.80293
11
6.13766
21
-3.80293
0
LINE
8
BLACK
6
CONTINUOUS
10
6.13766
20
-3.80293
11
6.133
21
-3.79881
0
LINE
8
BLACK
6
CONTINUOUS
10
6.133
20
-3.79881
11
6.12749
21
-3.79592
0
LINE
8
BLACK
6
CONTINUOUS
10
6.12749
20
-3.79592
11
6.12749
21
-3.79592
0
LINE
8
BLACK
6
CONTINUOUS
10
6.12749
20
-3.79592
11
6.12146
21
-3.79443
0
LINE
8
BLACK
6
CONTINUOUS
10
6.12146
20
-3.79443
11
6.12146
21
-3.79443
0
LINE
8
BLACK
6
CONTINUOUS
10
6.12146
20
-3.79443
11
6.11709
21
-3.79443
0
LINE
8
BLACK
6
CONTINUOUS
10
6.11709
20
-3.79443
11
6.11441
21
-3.79364
0
LINE
8
BLACK
6
CONTINUOUS
10
6.11441
20
-3.79364
11
6.11358
21
-3.79298
0
LINE
8
BLACK
6
CONTINUOUS
10
6.11358
20
-3.79298
11
6.03356
21
-3.71295
0
LINE
8
BLACK
6
CONTINUOUS
10
6.03356
20
-3.71295
11
6.03356
21
-3.71295
0
LINE
8
BLACK
6
CONTINUOUS
10
6.03356
20
-3.71295
11
6.03273
21
-3.71212
0
LINE
8
BLACK
6
CONTINUOUS
10
6.03273
20
-3.71212
11
6.03273
21
-3.71212
0
LINE
8
BLACK
6
CONTINUOUS
10
6.03273
20
-3.71212
11
6.03273
21
-3.71212
0
LINE
8
BLACK
6
CONTINUOUS
10
6.03273
20
-3.71212
11
6.03196
21
-3.71173
0
LINE
8
BLACK
6
CONTINUOUS
10
6.03196
20
-3.71173
11
6.03129
21
-3.71132
0
LINE
8
BLACK
6
CONTINUOUS
10
6.03129
20
-3.71132
11
6.03059
21
-3.71082
0
LINE
8
BLACK
6
CONTINUOUS
10
6.03059
20
-3.71082
11
6.03059
21
-3.71082
0
LINE
8
BLACK
6
CONTINUOUS
10
6.03059
20
-3.71082
11
6.02977
21
-3.71055
0
LINE
8
BLACK
6
CONTINUOUS
10
6.02977
20
-3.71055
11
6.02905
21
-3.71025
0
LINE
8
BLACK
6
CONTINUOUS
10
6.02905
20
-3.71025
11
6.02828
21
-3.70986
0
LINE
8
BLACK
6
CONTINUOUS
10
6.02828
20
-3.70986
11
6.02828
21
-3.70986
0
LINE
8
BLACK
6
CONTINUOUS
10
6.02828
20
-3.70986
11
6.02828
21
-3.70986
0
LINE
8
BLACK
6
CONTINUOUS
10
6.02828
20
-3.70986
11
6.02828
21
-3.70986
0
LINE
8
BLACK
6
CONTINUOUS
10
6.02828
20
-3.70986
11
6.02828
21
-3.70986
0
LINE
8
BLACK
6
CONTINUOUS
10
6.02828
20
-3.70986
11
6.02742
21
-3.70972
0
LINE
8
BLACK
6
CONTINUOUS
10
6.02742
20
-3.70972
11
6.02667
21
-3.70954
0
LINE
8
BLACK
6
CONTINUOUS
10
6.02667
20
-3.70954
11
6.02584
21
-3.70927
0
LINE
8
BLACK
6
CONTINUOUS
10
6.02584
20
-3.70927
11
6.02584
21
-3.70927
0
LINE
8
BLACK
6
CONTINUOUS
10
6.02584
20
-3.70927
11
6.02459
21
-3.70927
0
LINE
8
BLACK
6
CONTINUOUS
10
6.02459
20
-3.70927
11
5.83345
21
-3.70927
0
LINE
8
BLACK
6
CONTINUOUS
10
5.83345
20
-3.70927
11
5.83076
21
-3.70848
0
LINE
8
BLACK
6
CONTINUOUS
10
5.83076
20
-3.70848
11
5.82893
21
-3.70637
0
LINE
8
BLACK
6
CONTINUOUS
10
5.82893
20
-3.70637
11
5.82852
21
-3.70491
0
LINE
8
BLACK
6
CONTINUOUS
10
5.82852
20
-3.70491
11
5.8284
21
-3.70387
0
LINE
8
BLACK
6
CONTINUOUS
10
5.8284
20
-3.70387
11
5.8284
21
-3.70387
0
LINE
8
BLACK
6
CONTINUOUS
10
5.8284
20
-3.70387
11
5.82787
21
-3.70249
0
LINE
8
BLACK
6
CONTINUOUS
10
5.82787
20
-3.70249
11
5.82619
21
-3.69805
0
LINE
8
BLACK
6
CONTINUOUS
10
5.82619
20
-3.69805
11
5.82619
21
-3.69805
0
LINE
8
BLACK
6
CONTINUOUS
10
5.82619
20
-3.69805
11
5.82619
21
-3.69805
0
LINE
8
BLACK
6
CONTINUOUS
10
5.82619
20
-3.69805
11
5.82266
21
-3.69293
0
LINE
8
BLACK
6
CONTINUOUS
10
5.82266
20
-3.69293
11
5.82266
21
-3.69293
0
LINE
8
BLACK
6
CONTINUOUS
10
5.82266
20
-3.69293
11
5.818
21
-3.68881
0
LINE
8
BLACK
6
CONTINUOUS
10
5.818
20
-3.68881
11
5.81249
21
-3.68592
0
LINE
8
BLACK
6
CONTINUOUS
10
5.81249
20
-3.68592
11
5.81249
21
-3.68592
0
LINE
8
BLACK
6
CONTINUOUS
10
5.81249
20
-3.68592
11
5.80646
21
-3.68443
0
LINE
8
BLACK
6
CONTINUOUS
10
5.80646
20
-3.68443
11
5.80646
21
-3.68443
0
LINE
8
BLACK
6
CONTINUOUS
10
5.80646
20
-3.68443
11
5.80024
21
-3.68443
0
LINE
8
BLACK
6
CONTINUOUS
10
5.80024
20
-3.68443
11
5.80024
21
-3.68443
0
LINE
8
BLACK
6
CONTINUOUS
10
5.80024
20
-3.68443
11
5.7942
21
-3.68592
0
LINE
8
BLACK
6
CONTINUOUS
10
5.7942
20
-3.68592
11
5.7942
21
-3.68592
0
LINE
8
BLACK
6
CONTINUOUS
10
5.7942
20
-3.68592
11
5.78869
21
-3.68881
0
LINE
8
BLACK
6
CONTINUOUS
10
5.78869
20
-3.68881
11
5.78404
21
-3.69293
0
LINE
8
BLACK
6
CONTINUOUS
10
5.78404
20
-3.69293
11
5.78404
21
-3.69293
0
LINE
8
BLACK
6
CONTINUOUS
10
5.78404
20
-3.69293
11
5.7805
21
-3.69805
0
LINE
8
BLACK
6
CONTINUOUS
10
5.7805
20
-3.69805
11
5.7805
21
-3.69805
0
LINE
8
BLACK
6
CONTINUOUS
10
5.7805
20
-3.69805
11
5.7783
21
-3.70387
0
LINE
8
BLACK
6
CONTINUOUS
10
5.7783
20
-3.70387
11
5.77755
21
-3.71004
0
LINE
8
BLACK
6
CONTINUOUS
10
5.77755
20
-3.71004
11
5.77755
21
-3.71004
0
LINE
8
BLACK
6
CONTINUOUS
10
5.77755
20
-3.71004
11
5.7783
21
-3.71621
0
LINE
8
BLACK
6
CONTINUOUS
10
5.56931
20
-3.78941
11
5.56931
21
-3.78941
0
LINE
8
BLACK
6
CONTINUOUS
10
5.56931
20
-3.78941
11
5.56989
21
-3.7915
0
LINE
8
BLACK
6
CONTINUOUS
10
5.56989
20
-3.7915
11
5.56989
21
-3.7915
0
LINE
8
BLACK
6
CONTINUOUS
10
5.56989
20
-3.7915
11
5.5732
21
-3.79774
0
LINE
8
BLACK
6
CONTINUOUS
10
5.5732
20
-3.79774
11
5.57778
21
-3.80313
0
LINE
8
BLACK
6
CONTINUOUS
10
5.57778
20
-3.80313
11
5.5834
21
-3.8074
0
LINE
8
BLACK
6
CONTINUOUS
10
5.5834
20
-3.8074
11
5.58981
21
-3.81037
0
LINE
8
BLACK
6
CONTINUOUS
10
5.58981
20
-3.81037
11
5.59671
21
-3.81189
0
LINE
8
BLACK
6
CONTINUOUS
10
5.59671
20
-3.81189
11
5.59671
21
-3.81189
0
LINE
8
BLACK
6
CONTINUOUS
10
5.59671
20
-3.81189
11
5.61091
21
-3.81189
0
LINE
8
BLACK
6
CONTINUOUS
10
5.61091
20
-3.81189
11
5.61091
21
-3.80008
0
LINE
8
BLACK
6
CONTINUOUS
10
5.61091
20
-3.80008
11
5.60024
21
-3.80008
0
LINE
8
BLACK
6
CONTINUOUS
10
5.60024
20
-3.80008
11
5.59743
21
-3.79989
0
LINE
8
BLACK
6
CONTINUOUS
10
5.59743
20
-3.79989
11
5.59201
21
-3.79837
0
LINE
8
BLACK
6
CONTINUOUS
10
5.59201
20
-3.79837
11
5.5872
21
-3.79544
0
LINE
8
BLACK
6
CONTINUOUS
10
5.5872
20
-3.79544
11
5.58336
21
-3.79133
0
LINE
8
BLACK
6
CONTINUOUS
10
5.58336
20
-3.79133
11
5.58236
21
-3.78941
0
LINE
8
BLACK
6
CONTINUOUS
10
5.58236
20
-3.78941
11
5.56931
21
-3.78941
0
LINE
8
BLACK
6
CONTINUOUS
10
5.65669
20
-3.79352
11
5.65232
21
-3.79707
0
LINE
8
BLACK
6
CONTINUOUS
10
5.65232
20
-3.79707
11
5.64716
21
-3.79931
0
LINE
8
BLACK
6
CONTINUOUS
10
5.64716
20
-3.79931
11
5.64158
21
-3.80008
0
LINE
8
BLACK
6
CONTINUOUS
10
5.64158
20
-3.80008
11
5.63091
21
-3.80008
0
LINE
8
BLACK
6
CONTINUOUS
10
5.63091
20
-3.80008
11
5.63091
21
-3.81189
0
LINE
8
BLACK
6
CONTINUOUS
10
5.63091
20
-3.81189
11
5.64334
21
-3.81189
0
LINE
8
BLACK
6
CONTINUOUS
10
5.64334
20
-3.81189
11
5.64334
21
-3.81189
0
LINE
8
BLACK
6
CONTINUOUS
10
5.64334
20
-3.81189
11
5.64861
21
-3.81132
0
LINE
8
BLACK
6
CONTINUOUS
10
5.64861
20
-3.81132
11
5.64861
21
-3.81132
0
LINE
8
BLACK
6
CONTINUOUS
10
5.64861
20
-3.81132
11
5.6553
21
-3.80906
0
LINE
8
BLACK
6
CONTINUOUS
10
5.6553
20
-3.80906
11
5.6553
21
-3.80906
0
LINE
8
BLACK
6
CONTINUOUS
10
5.6553
20
-3.80906
11
5.66135
21
-3.80542
0
LINE
8
BLACK
6
CONTINUOUS
10
5.66135
20
-3.80542
11
5.66648
21
-3.80056
0
LINE
8
BLACK
6
CONTINUOUS
10
5.66648
20
-3.80056
11
5.67045
21
-3.79471
0
LINE
8
BLACK
6
CONTINUOUS
10
5.67045
20
-3.79471
11
5.67256
21
-3.78941
0
LINE
8
BLACK
6
CONTINUOUS
10
5.67256
20
-3.78941
11
5.65959
21
-3.78941
0
LINE
8
BLACK
6
CONTINUOUS
10
5.65959
20
-3.78941
11
5.65669
21
-3.79352
0
LINE
8
BLACK
6
CONTINUOUS
10
5.40679
20
-3.78941
11
5.4081
21
-3.79316
0
LINE
8
BLACK
6
CONTINUOUS
10
5.4081
20
-3.79316
11
5.4081
21
-3.79316
0
LINE
8
BLACK
6
CONTINUOUS
10
5.4081
20
-3.79316
11
5.41188
21
-3.79917
0
LINE
8
BLACK
6
CONTINUOUS
10
5.41188
20
-3.79917
11
5.4169
21
-3.80419
0
LINE
8
BLACK
6
CONTINUOUS
10
5.4169
20
-3.80419
11
5.42291
21
-3.80797
0
LINE
8
BLACK
6
CONTINUOUS
10
5.42291
20
-3.80797
11
5.42961
21
-3.81031
0
LINE
8
BLACK
6
CONTINUOUS
10
5.42961
20
-3.81031
11
5.42961
21
-3.81031
0
LINE
8
BLACK
6
CONTINUOUS
10
5.42961
20
-3.81031
11
5.43489
21
-3.81091
0
LINE
8
BLACK
6
CONTINUOUS
10
5.43489
20
-3.81091
11
5.44635
21
-3.81091
0
LINE
8
BLACK
6
CONTINUOUS
10
5.44635
20
-3.81091
11
5.44635
21
-3.79909
0
LINE
8
BLACK
6
CONTINUOUS
10
5.44635
20
-3.79909
11
5.43666
21
-3.79909
0
LINE
8
BLACK
6
CONTINUOUS
10
5.43666
20
-3.79909
11
5.43112
21
-3.7983
0
LINE
8
BLACK
6
CONTINUOUS
10
5.43112
20
-3.7983
11
5.42602
21
-3.79597
0
LINE
8
BLACK
6
CONTINUOUS
10
5.42602
20
-3.79597
11
5.42178
21
-3.7923
0
LINE
8
BLACK
6
CONTINUOUS
10
5.42178
20
-3.7923
11
5.41993
21
-3.78941
0
LINE
8
BLACK
6
CONTINUOUS
10
5.41993
20
-3.78941
11
5.40679
21
-3.78941
0
LINE
8
BLACK
6
CONTINUOUS
10
5.49091
20
-3.7923
11
5.48667
21
-3.79597
0
LINE
8
BLACK
6
CONTINUOUS
10
5.48667
20
-3.79597
11
5.48158
21
-3.7983
0
LINE
8
BLACK
6
CONTINUOUS
10
5.48158
20
-3.7983
11
5.47603
21
-3.79909
0
LINE
8
BLACK
6
CONTINUOUS
10
5.47603
20
-3.79909
11
5.46635
21
-3.79909
0
LINE
8
BLACK
6
CONTINUOUS
10
5.46635
20
-3.79909
11
5.46635
21
-3.81091
0
LINE
8
BLACK
6
CONTINUOUS
10
5.46635
20
-3.81091
11
5.4778
21
-3.81091
0
LINE
8
BLACK
6
CONTINUOUS
10
5.4778
20
-3.81091
11
5.48308
21
-3.81031
0
LINE
8
BLACK
6
CONTINUOUS
10
5.48308
20
-3.81031
11
5.48978
21
-3.80797
0
LINE
8
BLACK
6
CONTINUOUS
10
5.48978
20
-3.80797
11
5.49579
21
-3.80419
0
LINE
8
BLACK
6
CONTINUOUS
10
5.49579
20
-3.80419
11
5.50081
21
-3.79917
0
LINE
8
BLACK
6
CONTINUOUS
10
5.50081
20
-3.79917
11
5.50459
21
-3.79316
0
LINE
8
BLACK
6
CONTINUOUS
10
5.50459
20
-3.79316
11
5.50459
21
-3.79316
0
LINE
8
BLACK
6
CONTINUOUS
10
5.50459
20
-3.79316
11
5.5059
21
-3.78941
0
LINE
8
BLACK
6
CONTINUOUS
10
5.5059
20
-3.78941
11
5.49277
21
-3.78941
0
LINE
8
BLACK
6
CONTINUOUS
10
5.49277
20
-3.78941
11
5.49091
21
-3.7923
0
LINE
8
BLACK
6
CONTINUOUS
10
5.63091
20
-3.75874
11
5.64158
21
-3.75874
0
LINE
8
BLACK
6
CONTINUOUS
10
5.64158
20
-3.75874
11
5.6444
21
-3.75893
0
LINE
8
BLACK
6
CONTINUOUS
10
5.6444
20
-3.75893
11
5.64982
21
-3.76045
0
LINE
8
BLACK
6
CONTINUOUS
10
5.64982
20
-3.76045
11
5.65463
21
-3.76338
0
LINE
8
BLACK
6
CONTINUOUS
10
5.65463
20
-3.76338
11
5.65847
21
-3.76749
0
LINE
8
BLACK
6
CONTINUOUS
10
5.65847
20
-3.76749
11
5.65946
21
-3.76941
0
LINE
8
BLACK
6
CONTINUOUS
10
5.65946
20
-3.76941
11
5.67252
21
-3.76941
0
LINE
8
BLACK
6
CONTINUOUS
10
5.67252
20
-3.76941
11
5.67252
21
-3.76941
0
LINE
8
BLACK
6
CONTINUOUS
10
5.67252
20
-3.76941
11
5.67193
21
-3.76732
0
LINE
8
BLACK
6
CONTINUOUS
10
5.67193
20
-3.76732
11
5.67193
21
-3.76732
0
LINE
8
BLACK
6
CONTINUOUS
10
5.67193
20
-3.76732
11
5.66862
21
-3.76107
0
LINE
8
BLACK
6
CONTINUOUS
10
5.66862
20
-3.76107
11
5.66405
21
-3.75569
0
LINE
8
BLACK
6
CONTINUOUS
10
5.66405
20
-3.75569
11
5.65843
21
-3.75141
0
LINE
8
BLACK
6
CONTINUOUS
10
5.65843
20
-3.75141
11
5.65201
21
-3.74845
0
LINE
8
BLACK
6
CONTINUOUS
10
5.65201
20
-3.74845
11
5.64512
21
-3.74693
0
LINE
8
BLACK
6
CONTINUOUS
10
5.64512
20
-3.74693
11
5.64511
21
-3.74693
0
LINE
8
BLACK
6
CONTINUOUS
10
5.64511
20
-3.74693
11
5.63091
21
-3.74693
0
LINE
8
BLACK
6
CONTINUOUS
10
5.63091
20
-3.74693
11
5.63091
21
-3.75874
0
LINE
8
BLACK
6
CONTINUOUS
10
5.5059
20
-3.76941
11
5.50459
21
-3.76566
0
LINE
8
BLACK
6
CONTINUOUS
10
5.50459
20
-3.76566
11
5.50459
21
-3.76566
0
LINE
8
BLACK
6
CONTINUOUS
10
5.50459
20
-3.76566
11
5.50081
21
-3.75965
0
LINE
8
BLACK
6
CONTINUOUS
10
5.50081
20
-3.75965
11
5.49579
21
-3.75463
0
LINE
8
BLACK
6
CONTINUOUS
10
5.49579
20
-3.75463
11
5.48978
21
-3.75085
0
LINE
8
BLACK
6
CONTINUOUS
10
5.48978
20
-3.75085
11
5.48308
21
-3.74851
0
LINE
8
BLACK
6
CONTINUOUS
10
5.48308
20
-3.74851
11
5.48308
21
-3.74851
0
LINE
8
BLACK
6
CONTINUOUS
10
5.48308
20
-3.74851
11
5.4778
21
-3.74791
0
LINE
8
BLACK
6
CONTINUOUS
10
5.4778
20
-3.74791
11
5.46635
21
-3.74791
0
LINE
8
BLACK
6
CONTINUOUS
10
5.46635
20
-3.74791
11
5.46635
21
-3.75972
0
LINE
8
BLACK
6
CONTINUOUS
10
5.46635
20
-3.75972
11
5.47603
21
-3.75972
0
LINE
8
BLACK
6
CONTINUOUS
10
5.47603
20
-3.75972
11
5.48158
21
-3.76052
0
LINE
8
BLACK
6
CONTINUOUS
10
5.48158
20
-3.76052
11
5.48667
21
-3.76285
0
LINE
8
BLACK
6
CONTINUOUS
10
5.48667
20
-3.76285
11
5.49091
21
-3.76652
0
LINE
8
BLACK
6
CONTINUOUS
10
5.49091
20
-3.76652
11
5.49277
21
-3.76941
0
LINE
8
BLACK
6
CONTINUOUS
10
5.49277
20
-3.76941
11
5.5059
21
-3.76941
0
LINE
8
BLACK
6
CONTINUOUS
10
5.5059
20
-3.76941
11
5.5059
21
-3.76941
0
LINE
8
BLACK
6
CONTINUOUS
10
5.58224
20
-4.10957
11
5.58514
21
-4.10546
0
LINE
8
BLACK
6
CONTINUOUS
10
5.58514
20
-4.10546
11
5.5895
21
-4.10191
0
LINE
8
BLACK
6
CONTINUOUS
10
5.5895
20
-4.10191
11
5.59467
21
-4.09966
0
LINE
8
BLACK
6
CONTINUOUS
10
5.59467
20
-4.09966
11
5.60024
21
-4.0989
0
LINE
8
BLACK
6
CONTINUOUS
10
5.60024
20
-4.0989
11
5.61091
21
-4.0989
0
LINE
8
BLACK
6
CONTINUOUS
10
5.61091
20
-4.0989
11
5.61091
21
-4.08709
0
LINE
8
BLACK
6
CONTINUOUS
10
5.61091
20
-4.08709
11
5.59848
21
-4.08709
0
LINE
8
BLACK
6
CONTINUOUS
10
5.59848
20
-4.08709
11
5.59322
21
-4.08766
0
LINE
8
BLACK
6
CONTINUOUS
10
5.59322
20
-4.08766
11
5.59322
21
-4.08766
0
LINE
8
BLACK
6
CONTINUOUS
10
5.59322
20
-4.08766
11
5.58653
21
-4.08991
0
LINE
8
BLACK
6
CONTINUOUS
10
5.58653
20
-4.08991
11
5.58653
21
-4.08991
0
LINE
8
BLACK
6
CONTINUOUS
10
5.58653
20
-4.08991
11
5.58047
21
-4.09356
0
LINE
8
BLACK
6
CONTINUOUS
10
5.58047
20
-4.09356
11
5.57534
21
-4.09842
0
LINE
8
BLACK
6
CONTINUOUS
10
5.57534
20
-4.09842
11
5.57138
21
-4.10426
0
LINE
8
BLACK
6
CONTINUOUS
10
5.57138
20
-4.10426
11
5.56926
21
-4.10957
0
LINE
8
BLACK
6
CONTINUOUS
10
5.56926
20
-4.10957
11
5.58224
21
-4.10957
0
LINE
8
BLACK
6
CONTINUOUS
10
5.40679
20
-4.10957
11
5.41993
21
-4.10957
0
LINE
8
BLACK
6
CONTINUOUS
10
5.41993
20
-4.10957
11
5.42178
21
-4.10668
0
LINE
8
BLACK
6
CONTINUOUS
10
5.42178
20
-4.10668
11
5.42602
21
-4.10301
0
LINE
8
BLACK
6
CONTINUOUS
10
5.42602
20
-4.10301
11
5.43112
21
-4.10068
0
LINE
8
BLACK
6
CONTINUOUS
10
5.43112
20
-4.10068
11
5.43666
21
-4.09988
0
LINE
8
BLACK
6
CONTINUOUS
10
5.43666
20
-4.09988
11
5.44635
21
-4.09988
0
LINE
8
BLACK
6
CONTINUOUS
10
5.44635
20
-4.09988
11
5.44635
21
-4.08807
0
LINE
8
BLACK
6
CONTINUOUS
10
5.44635
20
-4.08807
11
5.43489
21
-4.08807
0
LINE
8
BLACK
6
CONTINUOUS
10
5.43489
20
-4.08807
11
5.42961
21
-4.08867
0
LINE
8
BLACK
6
CONTINUOUS
10
5.42961
20
-4.08867
11
5.42291
21
-4.09101
0
LINE
8
BLACK
6
CONTINUOUS
10
5.42291
20
-4.09101
11
5.4169
21
-4.09479
0
LINE
8
BLACK
6
CONTINUOUS
10
5.4169
20
-4.09479
11
5.41188
21
-4.09981
0
LINE
8
BLACK
6
CONTINUOUS
10
5.41188
20
-4.09981
11
5.4081
21
-4.10581
0
LINE
8
BLACK
6
CONTINUOUS
10
5.4081
20
-4.10581
11
5.4081
21
-4.10581
0
LINE
8
BLACK
6
CONTINUOUS
10
5.4081
20
-4.10581
11
5.40679
21
-4.10957
0
LINE
8
BLACK
6
CONTINUOUS
10
5.40679
20
-4.10957
11
5.40679
21
-4.10957
0
LINE
8
BLACK
6
CONTINUOUS
10
5.68259
20
-3.97533
11
5.68369
21
-3.97824
0
LINE
8
BLACK
6
CONTINUOUS
10
5.68369
20
-3.97824
11
5.68479
21
-3.98114
0
LINE
8
BLACK
6
CONTINUOUS
10
5.68479
20
-3.98114
11
5.68479
21
-3.98114
0
LINE
8
BLACK
6
CONTINUOUS
10
5.68479
20
-3.98114
11
5.68479
21
-3.98114
0
LINE
8
BLACK
6
CONTINUOUS
10
5.68479
20
-3.98114
11
5.68479
21
-3.98114
0
LINE
8
BLACK
6
CONTINUOUS
10
5.68479
20
-3.98114
11
5.68833
21
-3.98626
0
LINE
8
BLACK
6
CONTINUOUS
10
5.68833
20
-3.98626
11
5.68833
21
-3.98626
0
LINE
8
BLACK
6
CONTINUOUS
10
5.68833
20
-3.98626
11
5.69298
21
-3.99039
0
LINE
8
BLACK
6
CONTINUOUS
10
5.69298
20
-3.99039
11
5.69849
21
-3.99328
0
LINE
8
BLACK
6
CONTINUOUS
10
5.69849
20
-3.99328
11
5.69849
21
-3.99328
0
LINE
8
BLACK
6
CONTINUOUS
10
5.69849
20
-3.99328
11
5.69849
21
-3.99328
0
LINE
8
BLACK
6
CONTINUOUS
10
5.69849
20
-3.99328
11
5.70151
21
-3.99402
0
LINE
8
BLACK
6
CONTINUOUS
10
5.70151
20
-3.99402
11
5.70453
21
-3.99476
0
LINE
8
BLACK
6
CONTINUOUS
10
5.70453
20
-3.99476
11
5.70453
21
-3.99476
0
LINE
8
BLACK
6
CONTINUOUS
10
5.70453
20
-3.99476
11
5.71075
21
-3.99476
0
LINE
8
BLACK
6
CONTINUOUS
10
5.71075
20
-3.99476
11
5.71075
21
-3.99476
0
LINE
8
BLACK
6
CONTINUOUS
10
5.71075
20
-3.99476
11
5.71679
21
-3.99328
0
LINE
8
BLACK
6
CONTINUOUS
10
5.71679
20
-3.99328
11
5.72229
21
-3.99039
0
LINE
8
BLACK
6
CONTINUOUS
10
5.72229
20
-3.99039
11
5.72695
21
-3.98626
0
LINE
8
BLACK
6
CONTINUOUS
10
5.72695
20
-3.98626
11
5.73048
21
-3.98114
0
LINE
8
BLACK
6
CONTINUOUS
10
5.73048
20
-3.98114
11
5.73269
21
-3.97533
0
LINE
8
BLACK
6
CONTINUOUS
10
5.73269
20
-3.97533
11
5.73269
21
-3.97533
0
LINE
8
BLACK
6
CONTINUOUS
10
5.73269
20
-3.97533
11
5.73269
21
-3.97533
0
LINE
8
BLACK
6
CONTINUOUS
10
5.73269
20
-3.97533
11
5.73344
21
-3.96915
0
LINE
8
BLACK
6
CONTINUOUS
10
5.73344
20
-3.96915
11
5.73344
21
-3.96915
0
LINE
8
BLACK
6
CONTINUOUS
10
5.73344
20
-3.96915
11
5.73269
21
-3.96298
0
LINE
8
BLACK
6
CONTINUOUS
10
5.73269
20
-3.96298
11
5.73209
21
-3.96142
0
LINE
8
BLACK
6
CONTINUOUS
10
5.73209
20
-3.96142
11
5.73048
21
-3.95716
0
LINE
8
BLACK
6
CONTINUOUS
10
5.73048
20
-3.95716
11
5.73048
21
-3.95716
0
LINE
8
BLACK
6
CONTINUOUS
10
5.73048
20
-3.95716
11
5.73048
21
-3.95716
0
LINE
8
BLACK
6
CONTINUOUS
10
5.73048
20
-3.95716
11
5.72695
21
-3.95205
0
LINE
8
BLACK
6
CONTINUOUS
10
5.72695
20
-3.95205
11
5.72579
21
-3.95102
0
LINE
8
BLACK
6
CONTINUOUS
10
5.72579
20
-3.95102
11
5.7243
21
-3.94865
0
LINE
8
BLACK
6
CONTINUOUS
10
5.7243
20
-3.94865
11
5.72411
21
-3.9473
0
LINE
8
BLACK
6
CONTINUOUS
10
5.72411
20
-3.9473
11
5.72411
21
-3.93262
0
LINE
8
BLACK
6
CONTINUOUS
10
5.72411
20
-3.93262
11
5.7249
21
-3.92993
0
LINE
8
BLACK
6
CONTINUOUS
10
5.7249
20
-3.92993
11
5.72579
21
-3.9289
0
LINE
8
BLACK
6
CONTINUOUS
10
5.72579
20
-3.9289
11
5.72766
21
-3.92725
0
LINE
8
BLACK
6
CONTINUOUS
10
5.72766
20
-3.92725
11
5.73119
21
-3.92213
0
LINE
8
BLACK
6
CONTINUOUS
10
5.73119
20
-3.92213
11
5.7334
21
-3.91631
0
LINE
8
BLACK
6
CONTINUOUS
10
5.7334
20
-3.91631
11
5.7334
21
-3.91631
0
LINE
8
BLACK
6
CONTINUOUS
10
5.7334
20
-3.91631
11
5.7334
21
-3.91631
0
LINE
8
BLACK
6
CONTINUOUS
10
5.7334
20
-3.91631
11
5.73414
21
-3.91014
0
LINE
8
BLACK
6
CONTINUOUS
10
5.73414
20
-3.91014
11
5.73414
21
-3.91014
0
LINE
8
BLACK
6
CONTINUOUS
10
5.73414
20
-3.91014
11
5.7334
21
-3.90396
0
LINE
8
BLACK
6
CONTINUOUS
10
5.7334
20
-3.90396
11
5.7329
21
-3.90266
0
LINE
8
BLACK
6
CONTINUOUS
10
5.7329
20
-3.90266
11
5.73119
21
-3.89815
0
LINE
8
BLACK
6
CONTINUOUS
10
5.73119
20
-3.89815
11
5.73119
21
-3.89815
0
LINE
8
BLACK
6
CONTINUOUS
10
5.73119
20
-3.89815
11
5.73119
21
-3.89815
0
LINE
8
BLACK
6
CONTINUOUS
10
5.73119
20
-3.89815
11
5.72766
21
-3.89303
0
LINE
8
BLACK
6
CONTINUOUS
10
5.72766
20
-3.89303
11
5.72766
21
-3.89303
0
LINE
8
BLACK
6
CONTINUOUS
10
5.72766
20
-3.89303
11
5.723
21
-3.88891
0
LINE
8
BLACK
6
CONTINUOUS
10
5.723
20
-3.88891
11
5.71749
21
-3.88602
0
LINE
8
BLACK
6
CONTINUOUS
10
5.71749
20
-3.88602
11
5.71749
21
-3.88602
0
LINE
8
BLACK
6
CONTINUOUS
10
5.71749
20
-3.88602
11
5.71146
21
-3.88453
0
LINE
8
BLACK
6
CONTINUOUS
10
5.71146
20
-3.88453
11
5.71146
21
-3.88453
0
LINE
8
BLACK
6
CONTINUOUS
10
5.71146
20
-3.88453
11
5.70524
21
-3.88453
0
LINE
8
BLACK
6
CONTINUOUS
10
5.70524
20
-3.88453
11
5.70524
21
-3.88453
0
LINE
8
BLACK
6
CONTINUOUS
10
5.70524
20
-3.88453
11
5.6992
21
-3.88602
0
LINE
8
BLACK
6
CONTINUOUS
10
5.6992
20
-3.88602
11
5.6992
21
-3.88602
0
LINE
8
BLACK
6
CONTINUOUS
10
5.6992
20
-3.88602
11
5.69369
21
-3.88891
0
LINE
8
BLACK
6
CONTINUOUS
10
5.69369
20
-3.88891
11
5.68904
21
-3.89303
0
LINE
8
BLACK
6
CONTINUOUS
10
5.68904
20
-3.89303
11
5.68904
21
-3.89303
0
LINE
8
BLACK
6
CONTINUOUS
10
5.68904
20
-3.89303
11
5.6855
21
-3.89815
0
LINE
8
BLACK
6
CONTINUOUS
10
5.6855
20
-3.89815
11
5.6855
21
-3.89815
0
LINE
8
BLACK
6
CONTINUOUS
10
5.6855
20
-3.89815
11
5.6855
21
-3.89815
0
LINE
8
BLACK
6
CONTINUOUS
10
5.6855
20
-3.89815
11
5.6855
21
-3.89815
0
LINE
8
BLACK
6
CONTINUOUS
10
5.6855
20
-3.89815
11
5.68501
21
-3.89945
0
LINE
8
BLACK
6
CONTINUOUS
10
5.68501
20
-3.89945
11
5.6833
21
-3.90396
0
LINE
8
BLACK
6
CONTINUOUS
10
5.6833
20
-3.90396
11
5.68255
21
-3.91014
0
LINE
8
BLACK
6
CONTINUOUS
10
5.68255
20
-3.91014
11
5.68255
21
-3.91014
0
LINE
8
BLACK
6
CONTINUOUS
10
5.68255
20
-3.91014
11
5.6833
21
-3.91631
0
LINE
8
BLACK
6
CONTINUOUS
10
5.6833
20
-3.91631
11
5.68437
21
-3.91915
0
LINE
8
BLACK
6
CONTINUOUS
10
5.68437
20
-3.91915
11
5.6855
21
-3.92213
0
LINE
8
BLACK
6
CONTINUOUS
10
5.6855
20
-3.92213
11
5.6855
21
-3.92213
0
LINE
8
BLACK
6
CONTINUOUS
10
5.6855
20
-3.92213
11
5.6855
21
-3.92213
0
LINE
8
BLACK
6
CONTINUOUS
10
5.6855
20
-3.92213
11
5.6855
21
-3.92213
0
LINE
8
BLACK
6
CONTINUOUS
10
5.6855
20
-3.92213
11
5.68904
21
-3.92725
0
LINE
8
BLACK
6
CONTINUOUS
10
5.68904
20
-3.92725
11
5.68904
21
-3.92725
0
LINE
8
BLACK
6
CONTINUOUS
10
5.68904
20
-3.92725
11
5.69091
21
-3.9289
0
LINE
8
BLACK
6
CONTINUOUS
10
5.69091
20
-3.9289
11
5.69239
21
-3.93127
0
LINE
8
BLACK
6
CONTINUOUS
10
5.69239
20
-3.93127
11
5.69258
21
-3.93262
0
LINE
8
BLACK
6
CONTINUOUS
10
5.69258
20
-3.93262
11
5.69258
21
-3.94605
0
LINE
8
BLACK
6
CONTINUOUS
10
5.69258
20
-3.94605
11
5.69179
21
-3.94873
0
LINE
8
BLACK
6
CONTINUOUS
10
5.69179
20
-3.94873
11
5.69091
21
-3.94976
0
LINE
8
BLACK
6
CONTINUOUS
10
5.69091
20
-3.94976
11
5.68833
21
-3.95205
0
LINE
8
BLACK
6
CONTINUOUS
10
5.68833
20
-3.95205
11
5.68479
21
-3.95716
0
LINE
8
BLACK
6
CONTINUOUS
10
5.68479
20
-3.95716
11
5.68479
21
-3.95716
0
LINE
8
BLACK
6
CONTINUOUS
10
5.68479
20
-3.95716
11
5.68479
21
-3.95716
0
LINE
8
BLACK
6
CONTINUOUS
10
5.68479
20
-3.95716
11
5.68479
21
-3.95716
0
LINE
8
BLACK
6
CONTINUOUS
10
5.68479
20
-3.95716
11
5.6844
21
-3.9582
0
LINE
8
BLACK
6
CONTINUOUS
10
5.6844
20
-3.9582
11
5.68259
21
-3.96298
0
LINE
8
BLACK
6
CONTINUOUS
10
5.68259
20
-3.96298
11
5.68184
21
-3.96915
0
LINE
8
BLACK
6
CONTINUOUS
10
5.68184
20
-3.96915
11
5.68184
21
-3.96915
0
LINE
8
BLACK
6
CONTINUOUS
10
5.68184
20
-3.96915
11
5.68259
21
-3.97533
0
LINE
8
BLACK
6
CONTINUOUS
10
5.58224
20
-3.76941
11
5.58514
21
-3.7653
0
LINE
8
BLACK
6
CONTINUOUS
10
5.58514
20
-3.7653
11
5.5895
21
-3.76175
0
LINE
8
BLACK
6
CONTINUOUS
10
5.5895
20
-3.76175
11
5.59467
21
-3.75951
0
LINE
8
BLACK
6
CONTINUOUS
10
5.59467
20
-3.75951
11
5.60024
21
-3.75874
0
LINE
8
BLACK
6
CONTINUOUS
10
5.60024
20
-3.75874
11
5.61091
21
-3.75874
0
LINE
8
BLACK
6
CONTINUOUS
10
5.61091
20
-3.75874
11
5.61091
21
-3.74693
0
LINE
8
BLACK
6
CONTINUOUS
10
5.61091
20
-3.74693
11
5.59848
21
-3.74693
0
LINE
8
BLACK
6
CONTINUOUS
10
5.59848
20
-3.74693
11
5.59322
21
-3.7475
0
LINE
8
BLACK
6
CONTINUOUS
10
5.59322
20
-3.7475
11
5.59322
21
-3.7475
0
LINE
8
BLACK
6
CONTINUOUS
10
5.59322
20
-3.7475
11
5.58653
21
-3.74976
0
LINE
8
BLACK
6
CONTINUOUS
10
5.58653
20
-3.74976
11
5.58653
21
-3.74976
0
LINE
8
BLACK
6
CONTINUOUS
10
5.58653
20
-3.74976
11
5.58047
21
-3.7534
0
LINE
8
BLACK
6
CONTINUOUS
10
5.58047
20
-3.7534
11
5.57534
21
-3.75826
0
LINE
8
BLACK
6
CONTINUOUS
10
5.57534
20
-3.75826
11
5.57138
21
-3.76411
0
LINE
8
BLACK
6
CONTINUOUS
10
5.57138
20
-3.76411
11
5.56926
21
-3.76941
0
LINE
8
BLACK
6
CONTINUOUS
10
5.56926
20
-3.76941
11
5.58224
21
-3.76941
0
LINE
8
BLACK
6
CONTINUOUS
10
5.40679
20
-3.76941
11
5.41993
21
-3.76941
0
LINE
8
BLACK
6
CONTINUOUS
10
5.41993
20
-3.76941
11
5.42178
21
-3.76652
0
LINE
8
BLACK
6
CONTINUOUS
10
5.42178
20
-3.76652
11
5.42602
21
-3.76285
0
LINE
8
BLACK
6
CONTINUOUS
10
5.42602
20
-3.76285
11
5.43112
21
-3.76052
0
LINE
8
BLACK
6
CONTINUOUS
10
5.43112
20
-3.76052
11
5.43666
21
-3.75972
0
LINE
8
BLACK
6
CONTINUOUS
10
5.43666
20
-3.75972
11
5.44635
21
-3.75972
0
LINE
8
BLACK
6
CONTINUOUS
10
5.44635
20
-3.75972
11
5.44635
21
-3.74791
0
LINE
8
BLACK
6
CONTINUOUS
10
5.44635
20
-3.74791
11
5.43489
21
-3.74791
0
LINE
8
BLACK
6
CONTINUOUS
10
5.43489
20
-3.74791
11
5.42961
21
-3.74851
0
LINE
8
BLACK
6
CONTINUOUS
10
5.42961
20
-3.74851
11
5.42291
21
-3.75085
0
LINE
8
BLACK
6
CONTINUOUS
10
5.42291
20
-3.75085
11
5.4169
21
-3.75463
0
LINE
8
BLACK
6
CONTINUOUS
10
5.4169
20
-3.75463
11
5.41188
21
-3.75965
0
LINE
8
BLACK
6
CONTINUOUS
10
5.41188
20
-3.75965
11
5.4081
21
-3.76566
0
LINE
8
BLACK
6
CONTINUOUS
10
5.4081
20
-3.76566
11
5.4081
21
-3.76566
0
LINE
8
BLACK
6
CONTINUOUS
10
5.4081
20
-3.76566
11
5.40679
21
-3.76941
0
LINE
8
BLACK
6
CONTINUOUS
10
5.40679
20
-3.76941
11
5.40679
21
-3.76941
0
CIRCLE
8
BLACK
10
5.83047
20
-3.35894
40
0.00688976
0
CIRCLE
8
BLACK
10
6.22417
20
-4.54004
40
0.00688976
0
CIRCLE
8
BLACK
10
5.43677
20
-4.54004
40
0.00688976
0
CIRCLE
8
BLACK
10
6.22417
20
-3.35894
40
0.00688976
0
CIRCLE
8
BLACK
10
5.83047
20
-4.54004
40
0.00688976
0
CIRCLE
8
BLACK
10
5.43677
20
-3.35894
40
0.00688976
0
CIRCLE
8
BLACK
10
5.60123
20
-4.06327
40
0.00688976
0
CIRCLE
8
BLACK
10
5.60123
20
-3.83571
40
0.00688976
0
LINE
8
BLACK
6
CONTINUOUS
10
5.47426
20
-4.10796
11
5.47831
21
-4.10952
0
LINE
8
BLACK
6
CONTINUOUS
10
5.47831
20
-4.10952
11
5.48152
21
-4.11245
0
LINE
8
BLACK
6
CONTINUOUS
10
5.48152
20
-4.11245
11
5.48345
21
-4.11633
0
LINE
8
BLACK
6
CONTINUOUS
10
5.48345
20
-4.11633
11
5.48386
21
-4.12066
0
LINE
8
BLACK
6
CONTINUOUS
10
5.48386
20
-4.12066
11
5.48267
21
-4.12483
0
LINE
8
BLACK
6
CONTINUOUS
10
5.48267
20
-4.12483
11
5.48005
21
-4.1283
0
LINE
8
BLACK
6
CONTINUOUS
10
5.48005
20
-4.1283
11
5.47636
21
-4.13058
0
LINE
8
BLACK
6
CONTINUOUS
10
5.47636
20
-4.13058
11
5.47209
21
-4.13138
0
LINE
8
BLACK
6
CONTINUOUS
10
5.47209
20
-4.13138
11
5.4406
21
-4.13138
0
LINE
8
BLACK
6
CONTINUOUS
10
5.4406
20
-4.13138
11
5.43843
21
-4.13118
0
LINE
8
BLACK
6
CONTINUOUS
10
5.43843
20
-4.13118
11
5.43438
21
-4.12961
0
LINE
8
BLACK
6
CONTINUOUS
10
5.43438
20
-4.12961
11
5.43117
21
-4.12668
0
LINE
8
BLACK
6
CONTINUOUS
10
5.43117
20
-4.12668
11
5.42924
21
-4.1228
0
LINE
8
BLACK
6
CONTINUOUS
10
5.42924
20
-4.1228
11
5.42884
21
-4.11848
0
LINE
8
BLACK
6
CONTINUOUS
10
5.42884
20
-4.11848
11
5.43003
21
-4.1143
0
LINE
8
BLACK
6
CONTINUOUS
10
5.43003
20
-4.1143
11
5.43264
21
-4.11084
0
LINE
8
BLACK
6
CONTINUOUS
10
5.43264
20
-4.11084
11
5.43633
21
-4.10855
0
LINE
8
BLACK
6
CONTINUOUS
10
5.43633
20
-4.10855
11
5.4406
21
-4.10776
0
LINE
8
BLACK
6
CONTINUOUS
10
5.4406
20
-4.10776
11
5.47209
21
-4.10776
0
LINE
8
BLACK
6
CONTINUOUS
10
5.47209
20
-4.10776
11
5.47426
21
-4.10796
0
LINE
8
BLACK
6
CONTINUOUS
10
5.47426
20
-3.7678
11
5.47831
21
-3.76937
0
LINE
8
BLACK
6
CONTINUOUS
10
5.47831
20
-3.76937
11
5.48152
21
-3.77229
0
LINE
8
BLACK
6
CONTINUOUS
10
5.48152
20
-3.77229
11
5.48345
21
-3.77618
0
LINE
8
BLACK
6
CONTINUOUS
10
5.48345
20
-3.77618
11
5.48386
21
-3.7805
0
LINE
8
BLACK
6
CONTINUOUS
10
5.48386
20
-3.7805
11
5.48267
21
-3.78467
0
LINE
8
BLACK
6
CONTINUOUS
10
5.48267
20
-3.78467
11
5.48005
21
-3.78814
0
LINE
8
BLACK
6
CONTINUOUS
10
5.48005
20
-3.78814
11
5.47636
21
-3.79042
0
LINE
8
BLACK
6
CONTINUOUS
10
5.47636
20
-3.79042
11
5.47209
21
-3.79122
0
LINE
8
BLACK
6
CONTINUOUS
10
5.47209
20
-3.79122
11
5.4406
21
-3.79122
0
LINE
8
BLACK
6
CONTINUOUS
10
5.4406
20
-3.79122
11
5.43843
21
-3.79102
0
LINE
8
BLACK
6
CONTINUOUS
10
5.43843
20
-3.79102
11
5.43438
21
-3.78945
0
LINE
8
BLACK
6
CONTINUOUS
10
5.43438
20
-3.78945
11
5.43117
21
-3.78653
0
LINE
8
BLACK
6
CONTINUOUS
10
5.43117
20
-3.78653
11
5.42924
21
-3.78264
0
LINE
8
BLACK
6
CONTINUOUS
10
5.42924
20
-3.78264
11
5.42884
21
-3.77832
0
LINE
8
BLACK
6
CONTINUOUS
10
5.42884
20
-3.77832
11
5.43003
21
-3.77414
0
LINE
8
BLACK
6
CONTINUOUS
10
5.43003
20
-3.77414
11
5.43264
21
-3.77068
0
LINE
8
BLACK
6
CONTINUOUS
10
5.43264
20
-3.77068
11
5.43633
21
-3.7684
0
LINE
8
BLACK
6
CONTINUOUS
10
5.43633
20
-3.7684
11
5.4406
21
-3.7676
0
LINE
8
BLACK
6
CONTINUOUS
10
5.4406
20
-3.7676
11
5.47209
21
-3.7676
0
LINE
8
BLACK
6
CONTINUOUS
10
5.47209
20
-3.7676
11
5.47426
21
-3.7678
0
LINE
8
BLACK
6
CONTINUOUS
10
5.64474
20
-4.10796
11
5.64878
21
-4.10952
0
LINE
8
BLACK
6
CONTINUOUS
10
5.64878
20
-4.10952
11
5.65199
21
-4.11245
0
LINE
8
BLACK
6
CONTINUOUS
10
5.65199
20
-4.11245
11
5.65393
21
-4.11633
0
LINE
8
BLACK
6
CONTINUOUS
10
5.65393
20
-4.11633
11
5.65433
21
-4.12066
0
LINE
8
BLACK
6
CONTINUOUS
10
5.65433
20
-4.12066
11
5.65314
21
-4.12483
0
LINE
8
BLACK
6
CONTINUOUS
10
5.65314
20
-4.12483
11
5.65052
21
-4.1283
0
LINE
8
BLACK
6
CONTINUOUS
10
5.65052
20
-4.1283
11
5.64683
21
-4.13058
0
LINE
8
BLACK
6
CONTINUOUS
10
5.64683
20
-4.13058
11
5.64257
21
-4.13138
0
LINE
8
BLACK
6
CONTINUOUS
10
5.64257
20
-4.13138
11
5.59926
21
-4.13138
0
LINE
8
BLACK
6
CONTINUOUS
10
5.59926
20
-4.13138
11
5.59709
21
-4.13118
0
LINE
8
BLACK
6
CONTINUOUS
10
5.59709
20
-4.13118
11
5.59304
21
-4.12961
0
LINE
8
BLACK
6
CONTINUOUS
10
5.59304
20
-4.12961
11
5.58983
21
-4.12668
0
LINE
8
BLACK
6
CONTINUOUS
10
5.58983
20
-4.12668
11
5.5879
21
-4.1228
0
LINE
8
BLACK
6
CONTINUOUS
10
5.5879
20
-4.1228
11
5.5875
21
-4.11848
0
LINE
8
BLACK
6
CONTINUOUS
10
5.5875
20
-4.11848
11
5.58869
21
-4.1143
0
LINE
8
BLACK
6
CONTINUOUS
10
5.58869
20
-4.1143
11
5.5913
21
-4.11084
0
LINE
8
BLACK
6
CONTINUOUS
10
5.5913
20
-4.11084
11
5.59499
21
-4.10855
0
LINE
8
BLACK
6
CONTINUOUS
10
5.59499
20
-4.10855
11
5.59926
21
-4.10776
0
LINE
8
BLACK
6
CONTINUOUS
10
5.59926
20
-4.10776
11
5.64257
21
-4.10776
0
LINE
8
BLACK
6
CONTINUOUS
10
5.64257
20
-4.10776
11
5.64474
21
-4.10796
0
LINE
8
BLACK
6
CONTINUOUS
10
5.64474
20
-3.7678
11
5.64878
21
-3.76937
0
LINE
8
BLACK
6
CONTINUOUS
10
5.64878
20
-3.76937
11
5.65199
21
-3.77229
0
LINE
8
BLACK
6
CONTINUOUS
10
5.65199
20
-3.77229
11
5.65393
21
-3.77618
0
LINE
8
BLACK
6
CONTINUOUS
10
5.65393
20
-3.77618
11
5.65433
21
-3.7805
0
LINE
8
BLACK
6
CONTINUOUS
10
5.65433
20
-3.7805
11
5.65314
21
-3.78467
0
LINE
8
BLACK
6
CONTINUOUS
10
5.65314
20
-3.78467
11
5.65052
21
-3.78814
0
LINE
8
BLACK
6
CONTINUOUS
10
5.65052
20
-3.78814
11
5.64683
21
-3.79042
0
LINE
8
BLACK
6
CONTINUOUS
10
5.64683
20
-3.79042
11
5.64257
21
-3.79122
0
LINE
8
BLACK
6
CONTINUOUS
10
5.64257
20
-3.79122
11
5.59926
21
-3.79122
0
LINE
8
BLACK
6
CONTINUOUS
10
5.59926
20
-3.79122
11
5.59709
21
-3.79102
0
LINE
8
BLACK
6
CONTINUOUS
10
5.59709
20
-3.79102
11
5.59304
21
-3.78945
0
LINE
8
BLACK
6
CONTINUOUS
10
5.59304
20
-3.78945
11
5.58983
21
-3.78653
0
LINE
8
BLACK
6
CONTINUOUS
10
5.58983
20
-3.78653
11
5.5879
21
-3.78264
0
LINE
8
BLACK
6
CONTINUOUS
10
5.5879
20
-3.78264
11
5.5875
21
-3.77832
0
LINE
8
BLACK
6
CONTINUOUS
10
5.5875
20
-3.77832
11
5.58869
21
-3.77414
0
LINE
8
BLACK
6
CONTINUOUS
10
5.58869
20
-3.77414
11
5.5913
21
-3.77068
0
LINE
8
BLACK
6
CONTINUOUS
10
5.5913
20
-3.77068
11
5.59499
21
-3.7684
0
LINE
8
BLACK
6
CONTINUOUS
10
5.59499
20
-3.7684
11
5.59926
21
-3.7676
0
LINE
8
BLACK
6
CONTINUOUS
10
5.59926
20
-3.7676
11
5.64257
21
-3.7676
0
LINE
8
BLACK
6
CONTINUOUS
10
5.64257
20
-3.7676
11
5.64474
21
-3.7678
0
CIRCLE
8
BLACK
10
5.82835
20
-4.05004
40
0.00787402
0
CIRCLE
8
BLACK
10
5.97835
20
-3.46004
40
0.00787402
0
CIRCLE
8
BLACK
10
6.39335
20
-3.40004
40
0.00787402
0
CIRCLE
8
BLACK
10
5.41835
20
-3.53004
40
0.00787402
0
CIRCLE
8
BLACK
10
5.92835
20
-4.05004
40
0.00787402
0
CIRCLE
8
BLACK
10
6.43335
20
-3.98504
40
0.00787402
0
CIRCLE
8
BLACK
10
6.23835
20
-4.43004
40
0.00787402
0
CIRCLE
8
BLACK
10
5.63835
20
-3.71004
40
0.00787402
0
CIRCLE
8
BLACK
10
6.10835
20
-3.46004
40
0.00787402
0
CIRCLE
8
BLACK
10
6.42335
20
-4.50004
40
0.00787402
0
CIRCLE
8
BLACK
10
6.43835
20
-3.40004
40
0.00787402
0
CIRCLE
8
BLACK
10
6.02335
20
-4.17504
40
0.00787402
0
CIRCLE
8
BLACK
10
5.87835
20
-4.05004
40
0.00787402
0
CIRCLE
8
BLACK
10
5.42335
20
-4.41004
40
0.00787402
0
CIRCLE
8
BLACK
10
6.02335
20
-4.09504
40
0.00787402
0
CIRCLE
8
BLACK
10
6.47835
20
-3.40004
40
0.00787402
0
CIRCLE
8
BLACK
10
5.42335
20
-4.24004
40
0.00787402
0
CIRCLE
8
BLACK
10
6.39335
20
-3.98504
40
0.00787402
0
CIRCLE
8
BLACK
10
5.71835
20
-3.81004
40
0.00787402
0
CIRCLE
8
BLACK
10
5.41835
20
-3.65504
40
0.00787402
0
CIRCLE
8
BLACK
10
5.86835
20
-3.58004
40
0.00787402
0
CIRCLE
8
BLACK
10
5.83835
20
-3.80004
40
0.00787402
0
CIRCLE
8
BLACK
10
6.47835
20
-3.98504
40
0.00787402
0
CIRCLE
8
BLACK
10
6.17335
20
-3.46004
40
0.00787402
0
CIRCLE
8
BLACK
10
6.17835
20
-4.43004
40
0.00787402
0
CIRCLE
8
BLACK
10
5.71335
20
-4.10004
40
0.00787402
0
CIRCLE
8
BLACK
10
6.02335
20
-4.13504
40
0.00787402
0
CIRCLE
8
BLACK
10
5.75335
20
-3.52004
40
0.00787402
0
CIRCLE
8
BLACK
10
6.17335
20
-3.63004
40
0.00787402
0
CIRCLE
8
BLACK
10
6.47835
20
-3.91004
40
0.00787402
0
CIRCLE
8
BLACK
10
6.17335
20
-3.67504
40
0.00787402
0
CIRCLE
8
BLACK
10
6.17335
20
-3.58504
40
0.00787402
0
CIRCLE
8
BLACK
10
6.33835
20
-4.50004
40
0.00787402
0
CIRCLE
8
BLACK
10
5.70835
20
-4.33504
40
0.00787402
0
CIRCLE
8
BLACK
10
6.04335
20
-3.46004
40
0.00787402
0
CIRCLE
8
BLACK
10
5.42335
20
-4.31004
40
0.00787402
0
CIRCLE
8
BLACK
10
6.06835
20
-4.18004
40
0.00787402
0
CIRCLE
8
BLACK
10
5.90335
20
-4.46004
40
0.00787402
0
CIRCLE
8
BLACK
10
5.41835
20
-3.59504
40
0.00787402
0
CIRCLE
8
BLACK
10
6.01335
20
-3.78004
40
0.00787402
0
CIRCLE
8
BLACK
10
6.05835
20
-3.58004
40
0.00787402
0
CIRCLE
8
BLACK
10
5.91835
20
-3.46004
40
0.00787402
0
CIRCLE
8
BLACK
10
6.38335
20
-4.50004
40
0.00787402
0
CIRCLE
8
BLACK
10
6.34835
20
-3.40004
40
0.00787402
0
CIRCLE
8
BLACK
10
6.06835
20
-4.13504
40
0.00787402
0
CIRCLE
8
BLACK
10
6.46835
20
-4.50004
40
0.00787402
0
CIRCLE
8
BLACK
10
5.64335
20
-3.65004
40
0.00787402
0
CIRCLE
8
BLACK
10
6.01335
20
-3.82004
40
0.00787402
0
CIRCLE
8
BLACK
10
5.75835
20
-3.73004
40
0.00787402
0
CIRCLE
8
BLACK
10
5.96835
20
-3.88004
40
0.00787402
0
CIRCLE
8
BLACK
10
6.18835
20
-4.03504
40
0.00787402
0
CIRCLE
8
BLACK
10
5.76835
20
-4.03504
40
0.00787402
0
CIRCLE
8
BLACK
10
5.78039
20
-3.94894
40
0.00787402
0
CIRCLE
8
BLACK
10
5.76772
20
-3.855
40
0.00787402
0
CIRCLE
8
BLACK
10
5.70835
20
-3.91014
40
0.00787402
0
CIRCLE
8
BLACK
10
5.70764
20
-3.96915
40
0.00787402
0
CIRCLE
8
BLACK
10
6.20884
20
-3.84504
40
0.00787402
0
CIRCLE
8
BLACK
10
6.28707
20
-4.07874
40
0.00787402
0
CIRCLE
8
BLACK
10
6.3622
20
-4.17094
40
0.00787402
0
CIRCLE
8
BLACK
10
6.23464
20
-3.93128
40
0.00787402
0
CIRCLE
8
BLACK
10
6.13104
20
-4.09523
40
0.00787402
0
CIRCLE
8
BLACK
10
6.40835
20
-4.22504
40
0.00787402
0
CIRCLE
8
BLACK
10
6.38583
20
-3.70866
40
0.00787402
0
CIRCLE
8
BLACK
10
5.80335
20
-3.71004
40
0.00787402
0
CIRCLE
8
BLACK
10
6.11835
20
-3.82004
40
0.00787402
0
CIRCLE
8
BLACK
10
5.97563
20
-3.98232
40
0.00787402
0
CIRCLE
8
BLACK
10
5.69835
20
-3.72504
40
0.00787402
0
CIRCLE
8
BLACK
10
6.45335
20
-4.26504
40
0.00787402
0
CIRCLE
8
BLACK
10
6.39835
20
-3.53004
40
0.00787402
0
CIRCLE
8
BLACK
10
6.38335
20
-3.92004
40
0.00787402
0
CIRCLE
8
BLACK
10
6.13835
20
-4.26504
40
0.00787402
  0
ENDSEC
  0
EOF
