  0
SECTION
  2
HEADER
  9
$ANGBASE
  50
0.0
  9
$ANGDIR
  70
1
  9
$MEASUREMENT
  70
0
  0
ENDSEC
  0
SECTION
  2
TABLES
  0
TABLE
  2
LTYPE
  70
4
  0
LTYPE
  5
40F
  2
CONTINUOUS
  70
0
  3
Solid line
  72
65
  73
0
  40
0.0
  0
LTYPE
  5
410
  2
DASHDOT
 70
0
  3
Dash Dot ____ _ ____ _
 72
65
 73
4
 40
2.0
 49
1.25
 49
-0.25
 49
0.25
 49
-0.25
  0
LTYPE
  5
411
  2
DASHED
 70
0
  3
Dashed __ __ __ __ __
 72
65
 73
2
 40
0.75
 49
0.5
 49
-0.25
  0
LTYPE
  5
43B
  2
DOTTED
 70
0
  3
Dotted .  .  .  .
 72
65
 73
2
 40
0.2
 49
0.0
 49
-0.2
  0
ENDTAB
  0
TABLE
  2
STYLE
  70
4
  0
STYLE
  2
KICAD
  70
0
  40
0
  41
1
  42
1
  50
0
  71
0
  3
isocp.shx
  0
STYLE
  2
KICADB
  70
0
  40
0
  41
1
  42
1
  50
0
  71
0
  3
isocp.shx
  0
STYLE
  2
KICADI
  70
0
  40
0
  41
1
  42
1
  50
15
  71
0
  3
isocp.shx
  0
STYLE
  2
KICADBI
  70
0
  40
0
  41
1
  42
1
  50
15
  71
0
  3
isocp.shx
  0
ENDTAB
  0
TABLE
  2
LAYER
  70
1
  0
LAYER
  2
BLACK
  70
0
  62
7
  6
CONTINUOUS
  0
ENDTAB
  0
ENDSEC
  0
SECTION
  2
ENTITIES
0
LINE
8
BLACK
6
CONTINUOUS
10
6.13224
20
-4.21626
11
6.13294
21
-4.21655
0
LINE
8
BLACK
6
CONTINUOUS
10
6.13294
20
-4.21655
11
6.13323
21
-4.21724
0
LINE
8
BLACK
6
CONTINUOUS
10
6.13323
20
-4.21724
11
6.13323
21
-4.49283
0
LINE
8
BLACK
6
CONTINUOUS
10
6.13323
20
-4.49283
11
6.13294
21
-4.49353
0
LINE
8
BLACK
6
CONTINUOUS
10
6.13294
20
-4.49353
11
6.13224
21
-4.49382
0
LINE
8
BLACK
6
CONTINUOUS
10
6.13224
20
-4.49382
11
5.99445
21
-4.49382
0
LINE
8
BLACK
6
CONTINUOUS
10
5.99445
20
-4.49382
11
5.99375
21
-4.49353
0
LINE
8
BLACK
6
CONTINUOUS
10
5.99375
20
-4.49353
11
5.99346
21
-4.49283
0
LINE
8
BLACK
6
CONTINUOUS
10
5.99346
20
-4.49283
11
5.99346
21
-4.21724
0
LINE
8
BLACK
6
CONTINUOUS
10
5.99346
20
-4.21724
11
5.99375
21
-4.21655
0
LINE
8
BLACK
6
CONTINUOUS
10
5.99375
20
-4.21655
11
5.99445
21
-4.21626
0
LINE
8
BLACK
6
CONTINUOUS
10
5.99445
20
-4.21626
11
6.13224
21
-4.21626
0
LINE
8
BLACK
6
CONTINUOUS
10
5.99543
20
-4.21823
11
5.99543
21
-4.49185
0
LINE
8
BLACK
6
CONTINUOUS
10
5.99543
20
-4.49185
11
6.13126
21
-4.49185
0
LINE
8
BLACK
6
CONTINUOUS
10
6.13126
20
-4.49185
11
6.13126
21
-4.21823
0
LINE
8
BLACK
6
CONTINUOUS
10
6.13126
20
-4.21823
11
5.99543
21
-4.21823
0
LINE
8
BLACK
6
CONTINUOUS
10
6.51933
20
-4.00835
11
6.52003
21
-4.00863
0
LINE
8
BLACK
6
CONTINUOUS
10
6.52003
20
-4.00863
11
6.52031
21
-4.00933
0
LINE
8
BLACK
6
CONTINUOUS
10
6.52031
20
-4.00933
11
6.52031
21
-4.4802
0
LINE
8
BLACK
6
CONTINUOUS
10
6.52031
20
-4.4802
11
6.52003
21
-4.48089
0
LINE
8
BLACK
6
CONTINUOUS
10
6.52003
20
-4.48089
11
6.51933
21
-4.48118
0
LINE
8
BLACK
6
CONTINUOUS
10
6.51933
20
-4.48118
11
6.26736
21
-4.48118
0
LINE
8
BLACK
6
CONTINUOUS
10
6.26736
20
-4.48118
11
6.26667
21
-4.48089
0
LINE
8
BLACK
6
CONTINUOUS
10
6.26667
20
-4.48089
11
6.26638
21
-4.4802
0
LINE
8
BLACK
6
CONTINUOUS
10
6.26638
20
-4.4802
11
6.26638
21
-4.00933
0
LINE
8
BLACK
6
CONTINUOUS
10
6.26638
20
-4.00933
11
6.26667
21
-4.00863
0
LINE
8
BLACK
6
CONTINUOUS
10
6.26667
20
-4.00863
11
6.26736
21
-4.00835
0
LINE
8
BLACK
6
CONTINUOUS
10
6.26736
20
-4.00835
11
6.51933
21
-4.00835
0
LINE
8
BLACK
6
CONTINUOUS
10
6.26835
20
-4.01031
11
6.26835
21
-4.47921
0
LINE
8
BLACK
6
CONTINUOUS
10
6.26835
20
-4.47921
11
6.51835
21
-4.47921
0
LINE
8
BLACK
6
CONTINUOUS
10
6.51835
20
-4.47921
11
6.51835
21
-4.01031
0
LINE
8
BLACK
6
CONTINUOUS
10
6.51835
20
-4.01031
11
6.26835
21
-4.01031
0
LINE
8
BLACK
6
CONTINUOUS
10
5.8511
20
-4.38531
11
5.8518
21
-4.3856
0
LINE
8
BLACK
6
CONTINUOUS
10
5.8518
20
-4.3856
11
5.85209
21
-4.3863
0
LINE
8
BLACK
6
CONTINUOUS
10
5.85209
20
-4.3863
11
5.85209
21
-4.44378
0
LINE
8
BLACK
6
CONTINUOUS
10
5.85209
20
-4.44378
11
5.8518
21
-4.44448
0
LINE
8
BLACK
6
CONTINUOUS
10
5.8518
20
-4.44448
11
5.8511
21
-4.44476
0
LINE
8
BLACK
6
CONTINUOUS
10
5.8511
20
-4.44476
11
5.73457
21
-4.44476
0
LINE
8
BLACK
6
CONTINUOUS
10
5.73457
20
-4.44476
11
5.73387
21
-4.44448
0
LINE
8
BLACK
6
CONTINUOUS
10
5.73387
20
-4.44448
11
5.73358
21
-4.44378
0
LINE
8
BLACK
6
CONTINUOUS
10
5.73358
20
-4.44378
11
5.73358
21
-4.3863
0
LINE
8
BLACK
6
CONTINUOUS
10
5.73358
20
-4.3863
11
5.73387
21
-4.3856
0
LINE
8
BLACK
6
CONTINUOUS
10
5.73387
20
-4.3856
11
5.73457
21
-4.38531
0
LINE
8
BLACK
6
CONTINUOUS
10
5.73457
20
-4.38531
11
5.8511
21
-4.38531
0
LINE
8
BLACK
6
CONTINUOUS
10
5.73555
20
-4.38728
11
5.73555
21
-4.4428
0
LINE
8
BLACK
6
CONTINUOUS
10
5.73555
20
-4.4428
11
5.85012
21
-4.4428
0
LINE
8
BLACK
6
CONTINUOUS
10
5.85012
20
-4.4428
11
5.85012
21
-4.38728
0
LINE
8
BLACK
6
CONTINUOUS
10
5.85012
20
-4.38728
11
5.73555
21
-4.38728
0
LINE
8
BLACK
6
CONTINUOUS
10
5.80181
20
-4.23199
11
5.80251
21
-4.23228
0
LINE
8
BLACK
6
CONTINUOUS
10
5.80251
20
-4.23228
11
5.8028
21
-4.23297
0
LINE
8
BLACK
6
CONTINUOUS
10
5.8028
20
-4.23297
11
5.8028
21
-4.37077
0
LINE
8
BLACK
6
CONTINUOUS
10
5.8028
20
-4.37077
11
5.80251
21
-4.37146
0
LINE
8
BLACK
6
CONTINUOUS
10
5.80251
20
-4.37146
11
5.80181
21
-4.37175
0
LINE
8
BLACK
6
CONTINUOUS
10
5.80181
20
-4.37175
11
5.73488
21
-4.37175
0
LINE
8
BLACK
6
CONTINUOUS
10
5.73488
20
-4.37175
11
5.73419
21
-4.37146
0
LINE
8
BLACK
6
CONTINUOUS
10
5.73419
20
-4.37146
11
5.7339
21
-4.37077
0
LINE
8
BLACK
6
CONTINUOUS
10
5.7339
20
-4.37077
11
5.7339
21
-4.23297
0
LINE
8
BLACK
6
CONTINUOUS
10
5.7339
20
-4.23297
11
5.73419
21
-4.23228
0
LINE
8
BLACK
6
CONTINUOUS
10
5.73419
20
-4.23228
11
5.73488
21
-4.23199
0
LINE
8
BLACK
6
CONTINUOUS
10
5.73488
20
-4.23199
11
5.80181
21
-4.23199
0
LINE
8
BLACK
6
CONTINUOUS
10
5.73587
20
-4.23396
11
5.73587
21
-4.36978
0
LINE
8
BLACK
6
CONTINUOUS
10
5.73587
20
-4.36978
11
5.80083
21
-4.36978
0
LINE
8
BLACK
6
CONTINUOUS
10
5.80083
20
-4.36978
11
5.80083
21
-4.23396
0
LINE
8
BLACK
6
CONTINUOUS
10
5.80083
20
-4.23396
11
5.73587
21
-4.23396
0
LINE
8
BLACK
6
CONTINUOUS
10
5.94213
20
-4.23031
11
5.94282
21
-4.2306
0
LINE
8
BLACK
6
CONTINUOUS
10
5.94282
20
-4.2306
11
5.94311
21
-4.2313
0
LINE
8
BLACK
6
CONTINUOUS
10
5.94311
20
-4.2313
11
5.94311
21
-4.28878
0
LINE
8
BLACK
6
CONTINUOUS
10
5.94311
20
-4.28878
11
5.94282
21
-4.28948
0
LINE
8
BLACK
6
CONTINUOUS
10
5.94282
20
-4.28948
11
5.94213
21
-4.28976
0
LINE
8
BLACK
6
CONTINUOUS
10
5.94213
20
-4.28976
11
5.82559
21
-4.28976
0
LINE
8
BLACK
6
CONTINUOUS
10
5.82559
20
-4.28976
11
5.82489
21
-4.28948
0
LINE
8
BLACK
6
CONTINUOUS
10
5.82489
20
-4.28948
11
5.82461
21
-4.28878
0
LINE
8
BLACK
6
CONTINUOUS
10
5.82461
20
-4.28878
11
5.82461
21
-4.2313
0
LINE
8
BLACK
6
CONTINUOUS
10
5.82461
20
-4.2313
11
5.82489
21
-4.2306
0
LINE
8
BLACK
6
CONTINUOUS
10
5.82489
20
-4.2306
11
5.82559
21
-4.23031
0
LINE
8
BLACK
6
CONTINUOUS
10
5.82559
20
-4.23031
11
5.94213
21
-4.23031
0
LINE
8
BLACK
6
CONTINUOUS
10
5.82657
20
-4.23228
11
5.82657
21
-4.2878
0
LINE
8
BLACK
6
CONTINUOUS
10
5.82657
20
-4.2878
11
5.94114
21
-4.2878
0
LINE
8
BLACK
6
CONTINUOUS
10
5.94114
20
-4.2878
11
5.94114
21
-4.23228
0
LINE
8
BLACK
6
CONTINUOUS
10
5.94114
20
-4.23228
11
5.82657
21
-4.23228
0
LINE
8
BLACK
6
CONTINUOUS
10
5.92661
20
-4.13031
11
5.92731
21
-4.1306
0
LINE
8
BLACK
6
CONTINUOUS
10
5.92731
20
-4.1306
11
5.9276
21
-4.1313
0
LINE
8
BLACK
6
CONTINUOUS
10
5.9276
20
-4.1313
11
5.9276
21
-4.18878
0
LINE
8
BLACK
6
CONTINUOUS
10
5.9276
20
-4.18878
11
5.92731
21
-4.18948
0
LINE
8
BLACK
6
CONTINUOUS
10
5.92731
20
-4.18948
11
5.92661
21
-4.18976
0
LINE
8
BLACK
6
CONTINUOUS
10
5.92661
20
-4.18976
11
5.81008
21
-4.18976
0
LINE
8
BLACK
6
CONTINUOUS
10
5.81008
20
-4.18976
11
5.80938
21
-4.18948
0
LINE
8
BLACK
6
CONTINUOUS
10
5.80938
20
-4.18948
11
5.80909
21
-4.18878
0
LINE
8
BLACK
6
CONTINUOUS
10
5.80909
20
-4.18878
11
5.80909
21
-4.1313
0
LINE
8
BLACK
6
CONTINUOUS
10
5.80909
20
-4.1313
11
5.80938
21
-4.1306
0
LINE
8
BLACK
6
CONTINUOUS
10
5.80938
20
-4.1306
11
5.81008
21
-4.13031
0
LINE
8
BLACK
6
CONTINUOUS
10
5.81008
20
-4.13031
11
5.92661
21
-4.13031
0
LINE
8
BLACK
6
CONTINUOUS
10
5.81106
20
-4.13228
11
5.81106
21
-4.1878
0
LINE
8
BLACK
6
CONTINUOUS
10
5.81106
20
-4.1878
11
5.92563
21
-4.1878
0
LINE
8
BLACK
6
CONTINUOUS
10
5.92563
20
-4.1878
11
5.92563
21
-4.13228
0
LINE
8
BLACK
6
CONTINUOUS
10
5.92563
20
-4.13228
11
5.81106
21
-4.13228
0
LINE
8
BLACK
6
CONTINUOUS
10
6.20197
20
-4.06181
11
6.20266
21
-4.0621
0
LINE
8
BLACK
6
CONTINUOUS
10
6.20266
20
-4.0621
11
6.20295
21
-4.0628
0
LINE
8
BLACK
6
CONTINUOUS
10
6.20295
20
-4.0628
11
6.20295
21
-4.17933
0
LINE
8
BLACK
6
CONTINUOUS
10
6.20295
20
-4.17933
11
6.20266
21
-4.18003
0
LINE
8
BLACK
6
CONTINUOUS
10
6.20266
20
-4.18003
11
6.20197
21
-4.18031
0
LINE
8
BLACK
6
CONTINUOUS
10
6.20197
20
-4.18031
11
6.14449
21
-4.18031
0
LINE
8
BLACK
6
CONTINUOUS
10
6.14449
20
-4.18031
11
6.14379
21
-4.18003
0
LINE
8
BLACK
6
CONTINUOUS
10
6.14379
20
-4.18003
11
6.1435
21
-4.17933
0
LINE
8
BLACK
6
CONTINUOUS
10
6.1435
20
-4.17933
11
6.1435
21
-4.0628
0
LINE
8
BLACK
6
CONTINUOUS
10
6.1435
20
-4.0628
11
6.14379
21
-4.0621
0
LINE
8
BLACK
6
CONTINUOUS
10
6.14379
20
-4.0621
11
6.14449
21
-4.06181
0
LINE
8
BLACK
6
CONTINUOUS
10
6.14449
20
-4.06181
11
6.20197
21
-4.06181
0
LINE
8
BLACK
6
CONTINUOUS
10
6.14547
20
-4.06378
11
6.14547
21
-4.17835
0
LINE
8
BLACK
6
CONTINUOUS
10
6.14547
20
-4.17835
11
6.20098
21
-4.17835
0
LINE
8
BLACK
6
CONTINUOUS
10
6.20098
20
-4.17835
11
6.20098
21
-4.06378
0
LINE
8
BLACK
6
CONTINUOUS
10
6.20098
20
-4.06378
11
6.14547
21
-4.06378
0
LINE
8
BLACK
6
CONTINUOUS
10
5.67603
20
-3.74772
11
5.67673
21
-3.748
0
LINE
8
BLACK
6
CONTINUOUS
10
5.67673
20
-3.748
11
5.67702
21
-3.7487
0
LINE
8
BLACK
6
CONTINUOUS
10
5.67702
20
-3.7487
11
5.67702
21
-4.15028
0
LINE
8
BLACK
6
CONTINUOUS
10
5.67702
20
-4.15028
11
5.67673
21
-4.15097
0
LINE
8
BLACK
6
CONTINUOUS
10
5.67673
20
-4.15097
11
5.67603
21
-4.15126
0
LINE
8
BLACK
6
CONTINUOUS
10
5.67603
20
-4.15126
11
5.34414
21
-4.15126
0
LINE
8
BLACK
6
CONTINUOUS
10
5.34414
20
-4.15126
11
5.34345
21
-4.15097
0
LINE
8
BLACK
6
CONTINUOUS
10
5.34345
20
-4.15097
11
5.34316
21
-4.15028
0
LINE
8
BLACK
6
CONTINUOUS
10
5.34316
20
-4.15028
11
5.34316
21
-3.7487
0
LINE
8
BLACK
6
CONTINUOUS
10
5.34316
20
-3.7487
11
5.34345
21
-3.748
0
LINE
8
BLACK
6
CONTINUOUS
10
5.34345
20
-3.748
11
5.34414
21
-3.74772
0
LINE
8
BLACK
6
CONTINUOUS
10
5.34414
20
-3.74772
11
5.67603
21
-3.74772
0
LINE
8
BLACK
6
CONTINUOUS
10
5.34513
20
-3.74969
11
5.34513
21
-4.14929
0
LINE
8
BLACK
6
CONTINUOUS
10
5.34513
20
-4.14929
11
5.67505
21
-4.14929
0
LINE
8
BLACK
6
CONTINUOUS
10
5.67505
20
-4.14929
11
5.67505
21
-3.74969
0
LINE
8
BLACK
6
CONTINUOUS
10
5.67505
20
-3.74969
11
5.34513
21
-3.74969
0
LINE
8
BLACK
6
CONTINUOUS
10
6.20071
20
-3.84614
11
6.2014
21
-3.84643
0
LINE
8
BLACK
6
CONTINUOUS
10
6.2014
20
-3.84643
11
6.20169
21
-3.84713
0
LINE
8
BLACK
6
CONTINUOUS
10
6.20169
20
-3.84713
11
6.20169
21
-4.05185
0
LINE
8
BLACK
6
CONTINUOUS
10
6.20169
20
-4.05185
11
6.2014
21
-4.05255
0
LINE
8
BLACK
6
CONTINUOUS
10
6.2014
20
-4.05255
11
6.20071
21
-4.05283
0
LINE
8
BLACK
6
CONTINUOUS
10
6.20071
20
-4.05283
11
5.99598
21
-4.05283
0
LINE
8
BLACK
6
CONTINUOUS
10
5.99598
20
-4.05283
11
5.99529
21
-4.05255
0
LINE
8
BLACK
6
CONTINUOUS
10
5.99529
20
-4.05255
11
5.995
21
-4.05185
0
LINE
8
BLACK
6
CONTINUOUS
10
5.995
20
-4.05185
11
5.995
21
-3.84713
0
LINE
8
BLACK
6
CONTINUOUS
10
5.995
20
-3.84713
11
5.99529
21
-3.84643
0
LINE
8
BLACK
6
CONTINUOUS
10
5.99529
20
-3.84643
11
5.99598
21
-3.84614
0
LINE
8
BLACK
6
CONTINUOUS
10
5.99598
20
-3.84614
11
6.20071
21
-3.84614
0
LINE
8
BLACK
6
CONTINUOUS
10
5.99697
20
-3.84811
11
5.99697
21
-4.05087
0
LINE
8
BLACK
6
CONTINUOUS
10
5.99697
20
-4.05087
11
6.19972
21
-4.05087
0
LINE
8
BLACK
6
CONTINUOUS
10
6.19972
20
-4.05087
11
6.19972
21
-3.84811
0
LINE
8
BLACK
6
CONTINUOUS
10
6.19972
20
-3.84811
11
5.99697
21
-3.84811
0
LINE
8
BLACK
6
CONTINUOUS
10
5.95406
20
-3.88157
11
5.95475
21
-3.88186
0
LINE
8
BLACK
6
CONTINUOUS
10
5.95475
20
-3.88186
11
5.95504
21
-3.88256
0
LINE
8
BLACK
6
CONTINUOUS
10
5.95504
20
-3.88256
11
5.95504
21
-4.01642
0
LINE
8
BLACK
6
CONTINUOUS
10
5.95504
20
-4.01642
11
5.95475
21
-4.01711
0
LINE
8
BLACK
6
CONTINUOUS
10
5.95475
20
-4.01711
11
5.95406
21
-4.0174
0
LINE
8
BLACK
6
CONTINUOUS
10
5.95406
20
-4.0174
11
5.79264
21
-4.0174
0
LINE
8
BLACK
6
CONTINUOUS
10
5.79264
20
-4.0174
11
5.79194
21
-4.01711
0
LINE
8
BLACK
6
CONTINUOUS
10
5.79194
20
-4.01711
11
5.79165
21
-4.01642
0
LINE
8
BLACK
6
CONTINUOUS
10
5.79165
20
-4.01642
11
5.79165
21
-4.01642
0
LINE
8
BLACK
6
CONTINUOUS
10
5.79165
20
-4.01642
11
5.79165
21
-3.88256
0
LINE
8
BLACK
6
CONTINUOUS
10
5.79165
20
-3.88256
11
5.79194
21
-3.88186
0
LINE
8
BLACK
6
CONTINUOUS
10
5.79194
20
-3.88186
11
5.79264
21
-3.88157
0
LINE
8
BLACK
6
CONTINUOUS
10
5.79264
20
-3.88157
11
5.95406
21
-3.88157
0
LINE
8
BLACK
6
CONTINUOUS
10
5.79362
20
-3.88354
11
5.79362
21
-4.01543
0
LINE
8
BLACK
6
CONTINUOUS
10
5.79362
20
-4.01543
11
5.95307
21
-4.01543
0
LINE
8
BLACK
6
CONTINUOUS
10
5.95307
20
-4.01543
11
5.95307
21
-3.88354
0
LINE
8
BLACK
6
CONTINUOUS
10
5.95307
20
-3.88354
11
5.79362
21
-3.88354
0
LINE
8
BLACK
6
CONTINUOUS
10
6.95413
20
-3.91031
11
6.95483
21
-3.9106
0
LINE
8
BLACK
6
CONTINUOUS
10
6.95483
20
-3.9106
11
6.95512
21
-3.9113
0
LINE
8
BLACK
6
CONTINUOUS
10
6.95512
20
-3.9113
11
6.95512
21
-3.96878
0
LINE
8
BLACK
6
CONTINUOUS
10
6.95512
20
-3.96878
11
6.95483
21
-3.96948
0
LINE
8
BLACK
6
CONTINUOUS
10
6.95483
20
-3.96948
11
6.95413
21
-3.96976
0
LINE
8
BLACK
6
CONTINUOUS
10
6.95413
20
-3.96976
11
6.8376
21
-3.96976
0
LINE
8
BLACK
6
CONTINUOUS
10
6.8376
20
-3.96976
11
6.8369
21
-3.96948
0
LINE
8
BLACK
6
CONTINUOUS
10
6.8369
20
-3.96948
11
6.83661
21
-3.96878
0
LINE
8
BLACK
6
CONTINUOUS
10
6.83661
20
-3.96878
11
6.83661
21
-3.96878
0
LINE
8
BLACK
6
CONTINUOUS
10
6.83661
20
-3.96878
11
6.83661
21
-3.9113
0
LINE
8
BLACK
6
CONTINUOUS
10
6.83661
20
-3.9113
11
6.8369
21
-3.9106
0
LINE
8
BLACK
6
CONTINUOUS
10
6.8369
20
-3.9106
11
6.8376
21
-3.91031
0
LINE
8
BLACK
6
CONTINUOUS
10
6.8376
20
-3.91031
11
6.95413
21
-3.91031
0
LINE
8
BLACK
6
CONTINUOUS
10
6.83858
20
-3.91228
11
6.83858
21
-3.9678
0
LINE
8
BLACK
6
CONTINUOUS
10
6.83858
20
-3.9678
11
6.95315
21
-3.9678
0
LINE
8
BLACK
6
CONTINUOUS
10
6.95315
20
-3.9678
11
6.95315
21
-3.91228
0
LINE
8
BLACK
6
CONTINUOUS
10
6.95315
20
-3.91228
11
6.83858
21
-3.91228
0
LINE
8
BLACK
6
CONTINUOUS
10
6.51933
20
-3.4178
11
6.52003
21
-3.41808
0
LINE
8
BLACK
6
CONTINUOUS
10
6.52003
20
-3.41808
11
6.52031
21
-3.41878
0
LINE
8
BLACK
6
CONTINUOUS
10
6.52031
20
-3.41878
11
6.52031
21
-3.88965
0
LINE
8
BLACK
6
CONTINUOUS
10
6.52031
20
-3.88965
11
6.52003
21
-3.89034
0
LINE
8
BLACK
6
CONTINUOUS
10
6.52003
20
-3.89034
11
6.51933
21
-3.89063
0
LINE
8
BLACK
6
CONTINUOUS
10
6.51933
20
-3.89063
11
6.26736
21
-3.89063
0
LINE
8
BLACK
6
CONTINUOUS
10
6.26736
20
-3.89063
11
6.26667
21
-3.89034
0
LINE
8
BLACK
6
CONTINUOUS
10
6.26667
20
-3.89034
11
6.26638
21
-3.88965
0
LINE
8
BLACK
6
CONTINUOUS
10
6.26638
20
-3.88965
11
6.26638
21
-3.41878
0
LINE
8
BLACK
6
CONTINUOUS
10
6.26638
20
-3.41878
11
6.26667
21
-3.41808
0
LINE
8
BLACK
6
CONTINUOUS
10
6.26667
20
-3.41808
11
6.26736
21
-3.4178
0
LINE
8
BLACK
6
CONTINUOUS
10
6.26736
20
-3.4178
11
6.51933
21
-3.4178
0
LINE
8
BLACK
6
CONTINUOUS
10
6.26835
20
-3.41976
11
6.26835
21
-3.88866
0
LINE
8
BLACK
6
CONTINUOUS
10
6.26835
20
-3.88866
11
6.51835
21
-3.88866
0
LINE
8
BLACK
6
CONTINUOUS
10
6.51835
20
-3.88866
11
6.51835
21
-3.41976
0
LINE
8
BLACK
6
CONTINUOUS
10
6.51835
20
-3.41976
11
6.26835
21
-3.41976
0
LINE
8
BLACK
6
CONTINUOUS
10
5.9861
20
-3.76531
11
5.9868
21
-3.7656
0
LINE
8
BLACK
6
CONTINUOUS
10
5.9868
20
-3.7656
11
5.98709
21
-3.7663
0
LINE
8
BLACK
6
CONTINUOUS
10
5.98709
20
-3.7663
11
5.98709
21
-3.82378
0
LINE
8
BLACK
6
CONTINUOUS
10
5.98709
20
-3.82378
11
5.9868
21
-3.82448
0
LINE
8
BLACK
6
CONTINUOUS
10
5.9868
20
-3.82448
11
5.9861
21
-3.82476
0
LINE
8
BLACK
6
CONTINUOUS
10
5.9861
20
-3.82476
11
5.86957
21
-3.82476
0
LINE
8
BLACK
6
CONTINUOUS
10
5.86957
20
-3.82476
11
5.86887
21
-3.82448
0
LINE
8
BLACK
6
CONTINUOUS
10
5.86887
20
-3.82448
11
5.86858
21
-3.82378
0
LINE
8
BLACK
6
CONTINUOUS
10
5.86858
20
-3.82378
11
5.86858
21
-3.7663
0
LINE
8
BLACK
6
CONTINUOUS
10
5.86858
20
-3.7663
11
5.86887
21
-3.7656
0
LINE
8
BLACK
6
CONTINUOUS
10
5.86887
20
-3.7656
11
5.86957
21
-3.76531
0
LINE
8
BLACK
6
CONTINUOUS
10
5.86957
20
-3.76531
11
5.9861
21
-3.76531
0
LINE
8
BLACK
6
CONTINUOUS
10
5.87055
20
-3.76728
11
5.87055
21
-3.8228
0
LINE
8
BLACK
6
CONTINUOUS
10
5.87055
20
-3.8228
11
5.98512
21
-3.8228
0
LINE
8
BLACK
6
CONTINUOUS
10
5.98512
20
-3.8228
11
5.98512
21
-3.76728
0
LINE
8
BLACK
6
CONTINUOUS
10
5.98512
20
-3.76728
11
5.87055
21
-3.76728
0
LINE
8
BLACK
6
CONTINUOUS
10
6.17661
20
-3.74031
11
6.17731
21
-3.7406
0
LINE
8
BLACK
6
CONTINUOUS
10
6.17731
20
-3.7406
11
6.1776
21
-3.7413
0
LINE
8
BLACK
6
CONTINUOUS
10
6.1776
20
-3.7413
11
6.1776
21
-3.79878
0
LINE
8
BLACK
6
CONTINUOUS
10
6.1776
20
-3.79878
11
6.17731
21
-3.79948
0
LINE
8
BLACK
6
CONTINUOUS
10
6.17731
20
-3.79948
11
6.17661
21
-3.79976
0
LINE
8
BLACK
6
CONTINUOUS
10
6.17661
20
-3.79976
11
6.06008
21
-3.79976
0
LINE
8
BLACK
6
CONTINUOUS
10
6.06008
20
-3.79976
11
6.05938
21
-3.79948
0
LINE
8
BLACK
6
CONTINUOUS
10
6.05938
20
-3.79948
11
6.05909
21
-3.79878
0
LINE
8
BLACK
6
CONTINUOUS
10
6.05909
20
-3.79878
11
6.05909
21
-3.7413
0
LINE
8
BLACK
6
CONTINUOUS
10
6.05909
20
-3.7413
11
6.05938
21
-3.7406
0
LINE
8
BLACK
6
CONTINUOUS
10
6.05938
20
-3.7406
11
6.06008
21
-3.74031
0
LINE
8
BLACK
6
CONTINUOUS
10
6.06008
20
-3.74031
11
6.17661
21
-3.74031
0
LINE
8
BLACK
6
CONTINUOUS
10
6.06106
20
-3.74228
11
6.06106
21
-3.7978
0
LINE
8
BLACK
6
CONTINUOUS
10
6.06106
20
-3.7978
11
6.17563
21
-3.7978
0
LINE
8
BLACK
6
CONTINUOUS
10
6.17563
20
-3.7978
11
6.17563
21
-3.74228
0
LINE
8
BLACK
6
CONTINUOUS
10
6.17563
20
-3.74228
11
6.06106
21
-3.74228
0
LINE
8
BLACK
6
CONTINUOUS
10
6.02661
20
-3.68031
11
6.02731
21
-3.6806
0
LINE
8
BLACK
6
CONTINUOUS
10
6.02731
20
-3.6806
11
6.0276
21
-3.6813
0
LINE
8
BLACK
6
CONTINUOUS
10
6.0276
20
-3.6813
11
6.0276
21
-3.73878
0
LINE
8
BLACK
6
CONTINUOUS
10
6.0276
20
-3.73878
11
6.02731
21
-3.73948
0
LINE
8
BLACK
6
CONTINUOUS
10
6.02731
20
-3.73948
11
6.02661
21
-3.73976
0
LINE
8
BLACK
6
CONTINUOUS
10
6.02661
20
-3.73976
11
5.91008
21
-3.73976
0
LINE
8
BLACK
6
CONTINUOUS
10
5.91008
20
-3.73976
11
5.90938
21
-3.73948
0
LINE
8
BLACK
6
CONTINUOUS
10
5.90938
20
-3.73948
11
5.90909
21
-3.73878
0
LINE
8
BLACK
6
CONTINUOUS
10
5.90909
20
-3.73878
11
5.90909
21
-3.6813
0
LINE
8
BLACK
6
CONTINUOUS
10
5.90909
20
-3.6813
11
5.90938
21
-3.6806
0
LINE
8
BLACK
6
CONTINUOUS
10
5.90938
20
-3.6806
11
5.91008
21
-3.68031
0
LINE
8
BLACK
6
CONTINUOUS
10
5.91008
20
-3.68031
11
6.02661
21
-3.68031
0
LINE
8
BLACK
6
CONTINUOUS
10
5.91106
20
-3.68228
11
5.91106
21
-3.7378
0
LINE
8
BLACK
6
CONTINUOUS
10
5.91106
20
-3.7378
11
6.02563
21
-3.7378
0
LINE
8
BLACK
6
CONTINUOUS
10
6.02563
20
-3.7378
11
6.02563
21
-3.68228
0
LINE
8
BLACK
6
CONTINUOUS
10
6.02563
20
-3.68228
11
5.91106
21
-3.68228
0
LINE
8
BLACK
6
CONTINUOUS
10
5.72709
20
-3.57831
11
5.72778
21
-3.5786
0
LINE
8
BLACK
6
CONTINUOUS
10
5.72778
20
-3.5786
11
5.72807
21
-3.57929
0
LINE
8
BLACK
6
CONTINUOUS
10
5.72807
20
-3.57929
11
5.72807
21
-3.69583
0
LINE
8
BLACK
6
CONTINUOUS
10
5.72807
20
-3.69583
11
5.72778
21
-3.69652
0
LINE
8
BLACK
6
CONTINUOUS
10
5.72778
20
-3.69652
11
5.72709
21
-3.69681
0
LINE
8
BLACK
6
CONTINUOUS
10
5.72709
20
-3.69681
11
5.66961
21
-3.69681
0
LINE
8
BLACK
6
CONTINUOUS
10
5.66961
20
-3.69681
11
5.66891
21
-3.69652
0
LINE
8
BLACK
6
CONTINUOUS
10
5.66891
20
-3.69652
11
5.66862
21
-3.69583
0
LINE
8
BLACK
6
CONTINUOUS
10
5.66862
20
-3.69583
11
5.66862
21
-3.57929
0
LINE
8
BLACK
6
CONTINUOUS
10
5.66862
20
-3.57929
11
5.66891
21
-3.5786
0
LINE
8
BLACK
6
CONTINUOUS
10
5.66891
20
-3.5786
11
5.66961
21
-3.57831
0
LINE
8
BLACK
6
CONTINUOUS
10
5.66961
20
-3.57831
11
5.72709
21
-3.57831
0
LINE
8
BLACK
6
CONTINUOUS
10
5.67059
20
-3.58028
11
5.67059
21
-3.69484
0
LINE
8
BLACK
6
CONTINUOUS
10
5.67059
20
-3.69484
11
5.7261
21
-3.69484
0
LINE
8
BLACK
6
CONTINUOUS
10
5.7261
20
-3.69484
11
5.7261
21
-3.58028
0
LINE
8
BLACK
6
CONTINUOUS
10
5.7261
20
-3.58028
11
5.67059
21
-3.58028
0
LINE
8
BLACK
6
CONTINUOUS
10
5.53209
20
-3.57827
11
5.53278
21
-3.57856
0
LINE
8
BLACK
6
CONTINUOUS
10
5.53278
20
-3.57856
11
5.53307
21
-3.57925
0
LINE
8
BLACK
6
CONTINUOUS
10
5.53307
20
-3.57925
11
5.53307
21
-3.69579
0
LINE
8
BLACK
6
CONTINUOUS
10
5.53307
20
-3.69579
11
5.53278
21
-3.69648
0
LINE
8
BLACK
6
CONTINUOUS
10
5.53278
20
-3.69648
11
5.53209
21
-3.69677
0
LINE
8
BLACK
6
CONTINUOUS
10
5.53209
20
-3.69677
11
5.47461
21
-3.69677
0
LINE
8
BLACK
6
CONTINUOUS
10
5.47461
20
-3.69677
11
5.47391
21
-3.69648
0
LINE
8
BLACK
6
CONTINUOUS
10
5.47391
20
-3.69648
11
5.47362
21
-3.69579
0
LINE
8
BLACK
6
CONTINUOUS
10
5.47362
20
-3.69579
11
5.47362
21
-3.57925
0
LINE
8
BLACK
6
CONTINUOUS
10
5.47362
20
-3.57925
11
5.47391
21
-3.57856
0
LINE
8
BLACK
6
CONTINUOUS
10
5.47391
20
-3.57856
11
5.47461
21
-3.57827
0
LINE
8
BLACK
6
CONTINUOUS
10
5.47461
20
-3.57827
11
5.53209
21
-3.57827
0
LINE
8
BLACK
6
CONTINUOUS
10
5.47559
20
-3.58024
11
5.47559
21
-3.6948
0
LINE
8
BLACK
6
CONTINUOUS
10
5.47559
20
-3.6948
11
5.5311
21
-3.6948
0
LINE
8
BLACK
6
CONTINUOUS
10
5.5311
20
-3.6948
11
5.5311
21
-3.58024
0
LINE
8
BLACK
6
CONTINUOUS
10
5.5311
20
-3.58024
11
5.47559
21
-3.58024
0
LINE
8
BLACK
6
CONTINUOUS
10
5.61709
20
-3.57827
11
5.61778
21
-3.57856
0
LINE
8
BLACK
6
CONTINUOUS
10
5.61778
20
-3.57856
11
5.61807
21
-3.57925
0
LINE
8
BLACK
6
CONTINUOUS
10
5.61807
20
-3.57925
11
5.61807
21
-3.69579
0
LINE
8
BLACK
6
CONTINUOUS
10
5.61807
20
-3.69579
11
5.61778
21
-3.69648
0
LINE
8
BLACK
6
CONTINUOUS
10
5.61778
20
-3.69648
11
5.61709
21
-3.69677
0
LINE
8
BLACK
6
CONTINUOUS
10
5.61709
20
-3.69677
11
5.55961
21
-3.69677
0
LINE
8
BLACK
6
CONTINUOUS
10
5.55961
20
-3.69677
11
5.55891
21
-3.69648
0
LINE
8
BLACK
6
CONTINUOUS
10
5.55891
20
-3.69648
11
5.55862
21
-3.69579
0
LINE
8
BLACK
6
CONTINUOUS
10
5.55862
20
-3.69579
11
5.55862
21
-3.57925
0
LINE
8
BLACK
6
CONTINUOUS
10
5.55862
20
-3.57925
11
5.55891
21
-3.57856
0
LINE
8
BLACK
6
CONTINUOUS
10
5.55891
20
-3.57856
11
5.55961
21
-3.57827
0
LINE
8
BLACK
6
CONTINUOUS
10
5.55961
20
-3.57827
11
5.61709
21
-3.57827
0
LINE
8
BLACK
6
CONTINUOUS
10
5.56059
20
-3.58024
11
5.56059
21
-3.6948
0
LINE
8
BLACK
6
CONTINUOUS
10
5.56059
20
-3.6948
11
5.6161
21
-3.6948
0
LINE
8
BLACK
6
CONTINUOUS
10
5.6161
20
-3.6948
11
5.6161
21
-3.58024
0
LINE
8
BLACK
6
CONTINUOUS
10
5.6161
20
-3.58024
11
5.56059
21
-3.58024
0
LINE
8
BLACK
6
CONTINUOUS
10
5.83209
20
-3.57827
11
5.83278
21
-3.57856
0
LINE
8
BLACK
6
CONTINUOUS
10
5.83278
20
-3.57856
11
5.83307
21
-3.57925
0
LINE
8
BLACK
6
CONTINUOUS
10
5.83307
20
-3.57925
11
5.83307
21
-3.69579
0
LINE
8
BLACK
6
CONTINUOUS
10
5.83307
20
-3.69579
11
5.83278
21
-3.69648
0
LINE
8
BLACK
6
CONTINUOUS
10
5.83278
20
-3.69648
11
5.83209
21
-3.69677
0
LINE
8
BLACK
6
CONTINUOUS
10
5.83209
20
-3.69677
11
5.77461
21
-3.69677
0
LINE
8
BLACK
6
CONTINUOUS
10
5.77461
20
-3.69677
11
5.77391
21
-3.69648
0
LINE
8
BLACK
6
CONTINUOUS
10
5.77391
20
-3.69648
11
5.77362
21
-3.69579
0
LINE
8
BLACK
6
CONTINUOUS
10
5.77362
20
-3.69579
11
5.77362
21
-3.57925
0
LINE
8
BLACK
6
CONTINUOUS
10
5.77362
20
-3.57925
11
5.77391
21
-3.57856
0
LINE
8
BLACK
6
CONTINUOUS
10
5.77391
20
-3.57856
11
5.77461
21
-3.57827
0
LINE
8
BLACK
6
CONTINUOUS
10
5.77461
20
-3.57827
11
5.83209
21
-3.57827
0
LINE
8
BLACK
6
CONTINUOUS
10
5.77559
20
-3.58024
11
5.77559
21
-3.6948
0
LINE
8
BLACK
6
CONTINUOUS
10
5.77559
20
-3.6948
11
5.8311
21
-3.6948
0
LINE
8
BLACK
6
CONTINUOUS
10
5.8311
20
-3.6948
11
5.8311
21
-3.58024
0
LINE
8
BLACK
6
CONTINUOUS
10
5.8311
20
-3.58024
11
5.77559
21
-3.58024
0
LINE
8
BLACK
6
CONTINUOUS
10
6.02661
20
-3.60031
11
6.02731
21
-3.6006
0
LINE
8
BLACK
6
CONTINUOUS
10
6.02731
20
-3.6006
11
6.0276
21
-3.6013
0
LINE
8
BLACK
6
CONTINUOUS
10
6.0276
20
-3.6013
11
6.0276
21
-3.65878
0
LINE
8
BLACK
6
CONTINUOUS
10
6.0276
20
-3.65878
11
6.02731
21
-3.65948
0
LINE
8
BLACK
6
CONTINUOUS
10
6.02731
20
-3.65948
11
6.02661
21
-3.65976
0
LINE
8
BLACK
6
CONTINUOUS
10
6.02661
20
-3.65976
11
5.91008
21
-3.65976
0
LINE
8
BLACK
6
CONTINUOUS
10
5.91008
20
-3.65976
11
5.90938
21
-3.65948
0
LINE
8
BLACK
6
CONTINUOUS
10
5.90938
20
-3.65948
11
5.90909
21
-3.65878
0
LINE
8
BLACK
6
CONTINUOUS
10
5.90909
20
-3.65878
11
5.90909
21
-3.6013
0
LINE
8
BLACK
6
CONTINUOUS
10
5.90909
20
-3.6013
11
5.90938
21
-3.6006
0
LINE
8
BLACK
6
CONTINUOUS
10
5.90938
20
-3.6006
11
5.91008
21
-3.60031
0
LINE
8
BLACK
6
CONTINUOUS
10
5.91008
20
-3.60031
11
6.02661
21
-3.60031
0
LINE
8
BLACK
6
CONTINUOUS
10
5.91106
20
-3.60228
11
5.91106
21
-3.6578
0
LINE
8
BLACK
6
CONTINUOUS
10
5.91106
20
-3.6578
11
6.02563
21
-3.6578
0
LINE
8
BLACK
6
CONTINUOUS
10
6.02563
20
-3.6578
11
6.02563
21
-3.60228
0
LINE
8
BLACK
6
CONTINUOUS
10
6.02563
20
-3.60228
11
5.91106
21
-3.60228
0
LINE
8
BLACK
6
CONTINUOUS
10
5.56394
20
-3.4178
11
5.56463
21
-3.41808
0
LINE
8
BLACK
6
CONTINUOUS
10
5.56463
20
-3.41808
11
5.56492
21
-3.41878
0
LINE
8
BLACK
6
CONTINUOUS
10
5.56492
20
-3.41878
11
5.56492
21
-3.53531
0
LINE
8
BLACK
6
CONTINUOUS
10
5.56492
20
-3.53531
11
5.56463
21
-3.53601
0
LINE
8
BLACK
6
CONTINUOUS
10
5.56463
20
-3.53601
11
5.56394
21
-3.5363
0
LINE
8
BLACK
6
CONTINUOUS
10
5.56394
20
-3.5363
11
5.50646
21
-3.5363
0
LINE
8
BLACK
6
CONTINUOUS
10
5.50646
20
-3.5363
11
5.50576
21
-3.53601
0
LINE
8
BLACK
6
CONTINUOUS
10
5.50576
20
-3.53601
11
5.50547
21
-3.53531
0
LINE
8
BLACK
6
CONTINUOUS
10
5.50547
20
-3.53531
11
5.50547
21
-3.41878
0
LINE
8
BLACK
6
CONTINUOUS
10
5.50547
20
-3.41878
11
5.50576
21
-3.41808
0
LINE
8
BLACK
6
CONTINUOUS
10
5.50576
20
-3.41808
11
5.50646
21
-3.4178
0
LINE
8
BLACK
6
CONTINUOUS
10
5.50646
20
-3.4178
11
5.56394
21
-3.4178
0
LINE
8
BLACK
6
CONTINUOUS
10
5.50744
20
-3.41976
11
5.50744
21
-3.53433
0
LINE
8
BLACK
6
CONTINUOUS
10
5.50744
20
-3.53433
11
5.56295
21
-3.53433
0
LINE
8
BLACK
6
CONTINUOUS
10
5.56295
20
-3.53433
11
5.56295
21
-3.41976
0
LINE
8
BLACK
6
CONTINUOUS
10
5.56295
20
-3.41976
11
5.50744
21
-3.41976
0
LINE
8
BLACK
6
CONTINUOUS
10
5.68205
20
-3.4178
11
5.68274
21
-3.41808
0
LINE
8
BLACK
6
CONTINUOUS
10
5.68274
20
-3.41808
11
5.68303
21
-3.41878
0
LINE
8
BLACK
6
CONTINUOUS
10
5.68303
20
-3.41878
11
5.68303
21
-3.53531
0
LINE
8
BLACK
6
CONTINUOUS
10
5.68303
20
-3.53531
11
5.68274
21
-3.53601
0
LINE
8
BLACK
6
CONTINUOUS
10
5.68274
20
-3.53601
11
5.68205
21
-3.5363
0
LINE
8
BLACK
6
CONTINUOUS
10
5.68205
20
-3.5363
11
5.62457
21
-3.5363
0
LINE
8
BLACK
6
CONTINUOUS
10
5.62457
20
-3.5363
11
5.62387
21
-3.53601
0
LINE
8
BLACK
6
CONTINUOUS
10
5.62387
20
-3.53601
11
5.62358
21
-3.53531
0
LINE
8
BLACK
6
CONTINUOUS
10
5.62358
20
-3.53531
11
5.62358
21
-3.41878
0
LINE
8
BLACK
6
CONTINUOUS
10
5.62358
20
-3.41878
11
5.62387
21
-3.41808
0
LINE
8
BLACK
6
CONTINUOUS
10
5.62387
20
-3.41808
11
5.62457
21
-3.4178
0
LINE
8
BLACK
6
CONTINUOUS
10
5.62457
20
-3.4178
11
5.68205
21
-3.4178
0
LINE
8
BLACK
6
CONTINUOUS
10
5.62555
20
-3.41976
11
5.62555
21
-3.53433
0
LINE
8
BLACK
6
CONTINUOUS
10
5.62555
20
-3.53433
11
5.68106
21
-3.53433
0
LINE
8
BLACK
6
CONTINUOUS
10
5.68106
20
-3.53433
11
5.68106
21
-3.41976
0
LINE
8
BLACK
6
CONTINUOUS
10
5.68106
20
-3.41976
11
5.62555
21
-3.41976
  0
ENDSEC
  0
EOF
