  0
SECTION
  2
HEADER
  9
$ANGBASE
  50
0.0
  9
$ANGDIR
  70
1
  9
$MEASUREMENT
  70
0
  0
ENDSEC
  0
SECTION
  2
TABLES
  0
TABLE
  2
LTYPE
  70
4
  0
LTYPE
  5
40F
  2
CONTINUOUS
  70
0
  3
Solid line
  72
65
  73
0
  40
0.0
  0
LTYPE
  5
410
  2
DASHDOT
 70
0
  3
Dash Dot ____ _ ____ _
 72
65
 73
4
 40
2.0
 49
1.25
 49
-0.25
 49
0.25
 49
-0.25
  0
LTYPE
  5
411
  2
DASHED
 70
0
  3
Dashed __ __ __ __ __
 72
65
 73
2
 40
0.75
 49
0.5
 49
-0.25
  0
LTYPE
  5
43B
  2
DOTTED
 70
0
  3
Dotted .  .  .  .
 72
65
 73
2
 40
0.2
 49
0.0
 49
-0.2
  0
ENDTAB
  0
TABLE
  2
STYLE
  70
4
  0
STYLE
  2
KICAD
  70
0
  40
0
  41
1
  42
1
  50
0
  71
0
  3
isocp.shx
  0
STYLE
  2
KICADB
  70
0
  40
0
  41
1
  42
1
  50
0
  71
0
  3
isocp.shx
  0
STYLE
  2
KICADI
  70
0
  40
0
  41
1
  42
1
  50
15
  71
0
  3
isocp.shx
  0
STYLE
  2
KICADBI
  70
0
  40
0
  41
1
  42
1
  50
15
  71
0
  3
isocp.shx
  0
ENDTAB
  0
TABLE
  2
LAYER
  70
1
  0
LAYER
  2
BLACK
  70
0
  62
7
  6
CONTINUOUS
  0
ENDTAB
  0
ENDSEC
  0
SECTION
  2
ENTITIES
0
LINE
8
BLACK
6
CONTINUOUS
10
6.37873
20
-3.23938
11
6.37905
21
-3.24016
0
LINE
8
BLACK
6
CONTINUOUS
10
6.37905
20
-3.24016
11
6.37905
21
-3.35598
0
LINE
8
BLACK
6
CONTINUOUS
10
6.37905
20
-3.35598
11
6.51945
21
-3.35598
0
LINE
8
BLACK
6
CONTINUOUS
10
6.51945
20
-3.35598
11
6.51983
21
-3.35605
0
LINE
8
BLACK
6
CONTINUOUS
10
6.51983
20
-3.35605
11
6.51996
21
-3.35603
0
LINE
8
BLACK
6
CONTINUOUS
10
6.51996
20
-3.35603
11
6.52008
21
-3.35609
0
LINE
8
BLACK
6
CONTINUOUS
10
6.52008
20
-3.35609
11
6.52046
21
-3.35616
0
LINE
8
BLACK
6
CONTINUOUS
10
6.52046
20
-3.35616
11
6.52105
21
-3.35666
0
LINE
8
BLACK
6
CONTINUOUS
10
6.52105
20
-3.35666
11
6.52171
21
-3.35704
0
LINE
8
BLACK
6
CONTINUOUS
10
6.52171
20
-3.35704
11
6.5218
21
-3.35729
0
LINE
8
BLACK
6
CONTINUOUS
10
6.5218
20
-3.35729
11
6.52201
21
-3.35746
0
LINE
8
BLACK
6
CONTINUOUS
10
6.52201
20
-3.35746
11
6.52214
21
-3.35822
0
LINE
8
BLACK
6
CONTINUOUS
10
6.52214
20
-3.35822
11
6.5224
21
-3.35894
0
LINE
8
BLACK
6
CONTINUOUS
10
6.5224
20
-3.35894
11
6.5224
21
-4.54004
0
LINE
8
BLACK
6
CONTINUOUS
10
6.5224
20
-4.54004
11
6.52233
21
-4.54042
0
LINE
8
BLACK
6
CONTINUOUS
10
6.52233
20
-4.54042
11
6.52236
21
-4.54055
0
LINE
8
BLACK
6
CONTINUOUS
10
6.52236
20
-4.54055
11
6.52229
21
-4.54067
0
LINE
8
BLACK
6
CONTINUOUS
10
6.52229
20
-4.54067
11
6.52222
21
-4.54105
0
LINE
8
BLACK
6
CONTINUOUS
10
6.52222
20
-4.54105
11
6.52173
21
-4.54164
0
LINE
8
BLACK
6
CONTINUOUS
10
6.52173
20
-4.54164
11
6.52135
21
-4.5423
0
LINE
8
BLACK
6
CONTINUOUS
10
6.52135
20
-4.5423
11
6.5211
21
-4.54239
0
LINE
8
BLACK
6
CONTINUOUS
10
6.5211
20
-4.54239
11
6.52093
21
-4.5426
0
LINE
8
BLACK
6
CONTINUOUS
10
6.52093
20
-4.5426
11
6.52017
21
-4.54273
0
LINE
8
BLACK
6
CONTINUOUS
10
6.52017
20
-4.54273
11
6.51945
21
-4.54299
0
LINE
8
BLACK
6
CONTINUOUS
10
6.51945
20
-4.54299
11
6.37905
21
-4.54299
0
LINE
8
BLACK
6
CONTINUOUS
10
6.37905
20
-4.54299
11
6.37905
21
-4.65748
0
LINE
8
BLACK
6
CONTINUOUS
10
6.37905
20
-4.65748
11
6.37873
21
-4.65826
0
LINE
8
BLACK
6
CONTINUOUS
10
6.37873
20
-4.65826
11
6.37795
21
-4.65858
0
LINE
8
BLACK
6
CONTINUOUS
10
6.37795
20
-4.65858
11
6.37717
21
-4.65826
0
LINE
8
BLACK
6
CONTINUOUS
10
6.37717
20
-4.65826
11
6.37685
21
-4.65748
0
LINE
8
BLACK
6
CONTINUOUS
10
6.37685
20
-4.65748
11
6.37685
21
-4.54299
0
LINE
8
BLACK
6
CONTINUOUS
10
6.37685
20
-4.54299
11
5.59165
21
-4.54299
0
LINE
8
BLACK
6
CONTINUOUS
10
5.59165
20
-4.54299
11
5.59165
21
-4.65748
0
LINE
8
BLACK
6
CONTINUOUS
10
5.59165
20
-4.65748
11
5.59133
21
-4.65826
0
LINE
8
BLACK
6
CONTINUOUS
10
5.59133
20
-4.65826
11
5.59055
21
-4.65858
0
LINE
8
BLACK
6
CONTINUOUS
10
5.59055
20
-4.65858
11
5.58977
21
-4.65826
0
LINE
8
BLACK
6
CONTINUOUS
10
5.58977
20
-4.65826
11
5.58945
21
-4.65748
0
LINE
8
BLACK
6
CONTINUOUS
10
5.58945
20
-4.65748
11
5.58945
21
-4.54299
0
LINE
8
BLACK
6
CONTINUOUS
10
5.58945
20
-4.54299
11
5.33835
21
-4.54299
0
LINE
8
BLACK
6
CONTINUOUS
10
5.33835
20
-4.54299
11
5.33796
21
-4.54292
0
LINE
8
BLACK
6
CONTINUOUS
10
5.33796
20
-4.54292
11
5.33783
21
-4.54295
0
LINE
8
BLACK
6
CONTINUOUS
10
5.33783
20
-4.54295
11
5.33772
21
-4.54288
0
LINE
8
BLACK
6
CONTINUOUS
10
5.33772
20
-4.54288
11
5.33734
21
-4.54281
0
LINE
8
BLACK
6
CONTINUOUS
10
5.33734
20
-4.54281
11
5.33675
21
-4.54232
0
LINE
8
BLACK
6
CONTINUOUS
10
5.33675
20
-4.54232
11
5.33608
21
-4.54194
0
LINE
8
BLACK
6
CONTINUOUS
10
5.33608
20
-4.54194
11
5.33599
21
-4.54169
0
LINE
8
BLACK
6
CONTINUOUS
10
5.33599
20
-4.54169
11
5.33579
21
-4.54152
0
LINE
8
BLACK
6
CONTINUOUS
10
5.33579
20
-4.54152
11
5.33566
21
-4.54076
0
LINE
8
BLACK
6
CONTINUOUS
10
5.33566
20
-4.54076
11
5.33539
21
-4.54004
0
LINE
8
BLACK
6
CONTINUOUS
10
5.33539
20
-4.54004
11
5.33539
21
-3.35894
0
LINE
8
BLACK
6
CONTINUOUS
10
5.33539
20
-3.35894
11
5.33546
21
-3.35855
0
LINE
8
BLACK
6
CONTINUOUS
10
5.33546
20
-3.35855
11
5.33544
21
-3.35842
0
LINE
8
BLACK
6
CONTINUOUS
10
5.33544
20
-3.35842
11
5.3355
21
-3.35831
0
LINE
8
BLACK
6
CONTINUOUS
10
5.3355
20
-3.35831
11
5.33557
21
-3.35793
0
LINE
8
BLACK
6
CONTINUOUS
10
5.33557
20
-3.35793
11
5.33606
21
-3.35734
0
LINE
8
BLACK
6
CONTINUOUS
10
5.33606
20
-3.35734
11
5.33645
21
-3.35668
0
LINE
8
BLACK
6
CONTINUOUS
10
5.33645
20
-3.35668
11
5.3367
21
-3.35658
0
LINE
8
BLACK
6
CONTINUOUS
10
5.3367
20
-3.35658
11
5.33687
21
-3.35638
0
LINE
8
BLACK
6
CONTINUOUS
10
5.33687
20
-3.35638
11
5.33763
21
-3.35625
0
LINE
8
BLACK
6
CONTINUOUS
10
5.33763
20
-3.35625
11
5.33835
21
-3.35598
0
LINE
8
BLACK
6
CONTINUOUS
10
5.33835
20
-3.35598
11
5.58945
21
-3.35598
0
LINE
8
BLACK
6
CONTINUOUS
10
5.58945
20
-3.35598
11
5.58945
21
-3.24016
0
LINE
8
BLACK
6
CONTINUOUS
10
5.58945
20
-3.24016
11
5.58977
21
-3.23938
0
LINE
8
BLACK
6
CONTINUOUS
10
5.58977
20
-3.23938
11
5.59055
21
-3.23906
0
LINE
8
BLACK
6
CONTINUOUS
10
5.59055
20
-3.23906
11
5.59133
21
-3.23938
0
LINE
8
BLACK
6
CONTINUOUS
10
5.59133
20
-3.23938
11
5.59165
21
-3.24016
0
LINE
8
BLACK
6
CONTINUOUS
10
5.59165
20
-3.24016
11
5.59165
21
-3.35598
0
LINE
8
BLACK
6
CONTINUOUS
10
5.59165
20
-3.35598
11
6.37685
21
-3.35598
0
LINE
8
BLACK
6
CONTINUOUS
10
6.37685
20
-3.35598
11
6.37685
21
-3.24016
0
LINE
8
BLACK
6
CONTINUOUS
10
6.37685
20
-3.24016
11
6.37717
21
-3.23938
0
LINE
8
BLACK
6
CONTINUOUS
10
6.37717
20
-3.23938
11
6.37795
21
-3.23906
0
LINE
8
BLACK
6
CONTINUOUS
10
6.37795
20
-3.23906
11
6.37873
21
-3.23938
0
LINE
8
BLACK
6
CONTINUOUS
10
5.3413
20
-3.36189
11
5.3413
21
-4.53709
0
LINE
8
BLACK
6
CONTINUOUS
10
5.3413
20
-4.53709
11
6.5165
21
-4.53709
0
LINE
8
BLACK
6
CONTINUOUS
10
6.5165
20
-4.53709
11
6.5165
21
-3.36189
0
LINE
8
BLACK
6
CONTINUOUS
10
6.5165
20
-3.36189
11
5.3413
21
-3.36189
  0
ENDSEC
  0
EOF
