  0
SECTION
  2
HEADER
  9
$ANGBASE
  50
0.0
  9
$ANGDIR
  70
1
  9
$MEASUREMENT
  70
0
  0
ENDSEC
  0
SECTION
  2
TABLES
  0
TABLE
  2
LTYPE
  70
4
  0
LTYPE
  5
40F
  2
CONTINUOUS
  70
0
  3
Solid line
  72
65
  73
0
  40
0.0
  0
LTYPE
  5
410
  2
DASHDOT
 70
0
  3
Dash Dot ____ _ ____ _
 72
65
 73
4
 40
2.0
 49
1.25
 49
-0.25
 49
0.25
 49
-0.25
  0
LTYPE
  5
411
  2
DASHED
 70
0
  3
Dashed __ __ __ __ __
 72
65
 73
2
 40
0.75
 49
0.5
 49
-0.25
  0
LTYPE
  5
43B
  2
DOTTED
 70
0
  3
Dotted .  .  .  .
 72
65
 73
2
 40
0.2
 49
0.0
 49
-0.2
  0
ENDTAB
  0
TABLE
  2
STYLE
  70
4
  0
STYLE
  2
KICAD
  70
0
  40
0
  41
1
  42
1
  50
0
  71
0
  3
isocp.shx
  0
STYLE
  2
KICADB
  70
0
  40
0
  41
1
  42
1
  50
0
  71
0
  3
isocp.shx
  0
STYLE
  2
KICADI
  70
0
  40
0
  41
1
  42
1
  50
15
  71
0
  3
isocp.shx
  0
STYLE
  2
KICADBI
  70
0
  40
0
  41
1
  42
1
  50
15
  71
0
  3
isocp.shx
  0
ENDTAB
  0
TABLE
  2
LAYER
  70
1
  0
LAYER
  2
BLACK
  70
0
  62
7
  6
CONTINUOUS
  0
ENDTAB
  0
ENDSEC
  0
SECTION
  2
ENTITIES
0
LINE
8
BLACK
6
CONTINUOUS
10
5.45127
20
-4.48279
11
5.46049
21
-4.48596
0
LINE
8
BLACK
6
CONTINUOUS
10
5.46049
20
-4.48596
11
5.46907
21
-4.4906
0
LINE
8
BLACK
6
CONTINUOUS
10
5.46907
20
-4.4906
11
5.47677
21
-4.49659
0
LINE
8
BLACK
6
CONTINUOUS
10
5.47677
20
-4.49659
11
5.48337
21
-4.50377
0
LINE
8
BLACK
6
CONTINUOUS
10
5.48337
20
-4.50377
11
5.48871
21
-4.51193
0
LINE
8
BLACK
6
CONTINUOUS
10
5.48871
20
-4.51193
11
5.49263
21
-4.52086
0
LINE
8
BLACK
6
CONTINUOUS
10
5.49263
20
-4.52086
11
5.49502
21
-4.53032
0
LINE
8
BLACK
6
CONTINUOUS
10
5.49502
20
-4.53032
11
5.49583
21
-4.54004
0
LINE
8
BLACK
6
CONTINUOUS
10
5.49583
20
-4.54004
11
5.49502
21
-4.54976
0
LINE
8
BLACK
6
CONTINUOUS
10
5.49502
20
-4.54976
11
5.49263
21
-4.55921
0
LINE
8
BLACK
6
CONTINUOUS
10
5.49263
20
-4.55921
11
5.48871
21
-4.56815
0
LINE
8
BLACK
6
CONTINUOUS
10
5.48871
20
-4.56815
11
5.48337
21
-4.57631
0
LINE
8
BLACK
6
CONTINUOUS
10
5.48337
20
-4.57631
11
5.47677
21
-4.58349
0
LINE
8
BLACK
6
CONTINUOUS
10
5.47677
20
-4.58349
11
5.46907
21
-4.58948
0
LINE
8
BLACK
6
CONTINUOUS
10
5.46907
20
-4.58948
11
5.46049
21
-4.59412
0
LINE
8
BLACK
6
CONTINUOUS
10
5.46049
20
-4.59412
11
5.45127
21
-4.59729
0
LINE
8
BLACK
6
CONTINUOUS
10
5.45127
20
-4.59729
11
5.44165
21
-4.59889
0
LINE
8
BLACK
6
CONTINUOUS
10
5.44165
20
-4.59889
11
5.43189
21
-4.59889
0
LINE
8
BLACK
6
CONTINUOUS
10
5.43189
20
-4.59889
11
5.42227
21
-4.59729
0
LINE
8
BLACK
6
CONTINUOUS
10
5.42227
20
-4.59729
11
5.41305
21
-4.59412
0
LINE
8
BLACK
6
CONTINUOUS
10
5.41305
20
-4.59412
11
5.40447
21
-4.58948
0
LINE
8
BLACK
6
CONTINUOUS
10
5.40447
20
-4.58948
11
5.39677
21
-4.58349
0
LINE
8
BLACK
6
CONTINUOUS
10
5.39677
20
-4.58349
11
5.39017
21
-4.57631
0
LINE
8
BLACK
6
CONTINUOUS
10
5.39017
20
-4.57631
11
5.38483
21
-4.56815
0
LINE
8
BLACK
6
CONTINUOUS
10
5.38483
20
-4.56815
11
5.38092
21
-4.55921
0
LINE
8
BLACK
6
CONTINUOUS
10
5.38092
20
-4.55921
11
5.37852
21
-4.54976
0
LINE
8
BLACK
6
CONTINUOUS
10
5.37852
20
-4.54976
11
5.37772
21
-4.54004
0
LINE
8
BLACK
6
CONTINUOUS
10
5.37772
20
-4.54004
11
5.37852
21
-4.53032
0
LINE
8
BLACK
6
CONTINUOUS
10
5.37852
20
-4.53032
11
5.38092
21
-4.52086
0
LINE
8
BLACK
6
CONTINUOUS
10
5.38092
20
-4.52086
11
5.38483
21
-4.51193
0
LINE
8
BLACK
6
CONTINUOUS
10
5.38483
20
-4.51193
11
5.39017
21
-4.50377
0
LINE
8
BLACK
6
CONTINUOUS
10
5.39017
20
-4.50377
11
5.39677
21
-4.49659
0
LINE
8
BLACK
6
CONTINUOUS
10
5.39677
20
-4.49659
11
5.40447
21
-4.4906
0
LINE
8
BLACK
6
CONTINUOUS
10
5.40447
20
-4.4906
11
5.41305
21
-4.48596
0
LINE
8
BLACK
6
CONTINUOUS
10
5.41305
20
-4.48596
11
5.42227
21
-4.48279
0
LINE
8
BLACK
6
CONTINUOUS
10
5.42227
20
-4.48279
11
5.43189
21
-4.48119
0
LINE
8
BLACK
6
CONTINUOUS
10
5.43189
20
-4.48119
11
5.44165
21
-4.48119
0
LINE
8
BLACK
6
CONTINUOUS
10
5.44165
20
-4.48119
11
5.45127
21
-4.48279
0
LINE
8
BLACK
6
CONTINUOUS
10
5.84497
20
-4.48279
11
5.85419
21
-4.48596
0
LINE
8
BLACK
6
CONTINUOUS
10
5.85419
20
-4.48596
11
5.86277
21
-4.4906
0
LINE
8
BLACK
6
CONTINUOUS
10
5.86277
20
-4.4906
11
5.87047
21
-4.49659
0
LINE
8
BLACK
6
CONTINUOUS
10
5.87047
20
-4.49659
11
5.87708
21
-4.50377
0
LINE
8
BLACK
6
CONTINUOUS
10
5.87708
20
-4.50377
11
5.88241
21
-4.51193
0
LINE
8
BLACK
6
CONTINUOUS
10
5.88241
20
-4.51193
11
5.88633
21
-4.52086
0
LINE
8
BLACK
6
CONTINUOUS
10
5.88633
20
-4.52086
11
5.88872
21
-4.53032
0
LINE
8
BLACK
6
CONTINUOUS
10
5.88872
20
-4.53032
11
5.88953
21
-4.54004
0
LINE
8
BLACK
6
CONTINUOUS
10
5.88953
20
-4.54004
11
5.88872
21
-4.54976
0
LINE
8
BLACK
6
CONTINUOUS
10
5.88872
20
-4.54976
11
5.88633
21
-4.55921
0
LINE
8
BLACK
6
CONTINUOUS
10
5.88633
20
-4.55921
11
5.88241
21
-4.56815
0
LINE
8
BLACK
6
CONTINUOUS
10
5.88241
20
-4.56815
11
5.87708
21
-4.57631
0
LINE
8
BLACK
6
CONTINUOUS
10
5.87708
20
-4.57631
11
5.87047
21
-4.58349
0
LINE
8
BLACK
6
CONTINUOUS
10
5.87047
20
-4.58349
11
5.86277
21
-4.58948
0
LINE
8
BLACK
6
CONTINUOUS
10
5.86277
20
-4.58948
11
5.85419
21
-4.59412
0
LINE
8
BLACK
6
CONTINUOUS
10
5.85419
20
-4.59412
11
5.84497
21
-4.59729
0
LINE
8
BLACK
6
CONTINUOUS
10
5.84497
20
-4.59729
11
5.83535
21
-4.59889
0
LINE
8
BLACK
6
CONTINUOUS
10
5.83535
20
-4.59889
11
5.8256
21
-4.59889
0
LINE
8
BLACK
6
CONTINUOUS
10
5.8256
20
-4.59889
11
5.81598
21
-4.59729
0
LINE
8
BLACK
6
CONTINUOUS
10
5.81598
20
-4.59729
11
5.80675
21
-4.59412
0
LINE
8
BLACK
6
CONTINUOUS
10
5.80675
20
-4.59412
11
5.79817
21
-4.58948
0
LINE
8
BLACK
6
CONTINUOUS
10
5.79817
20
-4.58948
11
5.79048
21
-4.58349
0
LINE
8
BLACK
6
CONTINUOUS
10
5.79048
20
-4.58349
11
5.78387
21
-4.57631
0
LINE
8
BLACK
6
CONTINUOUS
10
5.78387
20
-4.57631
11
5.77853
21
-4.56815
0
LINE
8
BLACK
6
CONTINUOUS
10
5.77853
20
-4.56815
11
5.77462
21
-4.55921
0
LINE
8
BLACK
6
CONTINUOUS
10
5.77462
20
-4.55921
11
5.77222
21
-4.54976
0
LINE
8
BLACK
6
CONTINUOUS
10
5.77222
20
-4.54976
11
5.77142
21
-4.54004
0
LINE
8
BLACK
6
CONTINUOUS
10
5.77142
20
-4.54004
11
5.77222
21
-4.53032
0
LINE
8
BLACK
6
CONTINUOUS
10
5.77222
20
-4.53032
11
5.77462
21
-4.52086
0
LINE
8
BLACK
6
CONTINUOUS
10
5.77462
20
-4.52086
11
5.77853
21
-4.51193
0
LINE
8
BLACK
6
CONTINUOUS
10
5.77853
20
-4.51193
11
5.78387
21
-4.50377
0
LINE
8
BLACK
6
CONTINUOUS
10
5.78387
20
-4.50377
11
5.79048
21
-4.49659
0
LINE
8
BLACK
6
CONTINUOUS
10
5.79048
20
-4.49659
11
5.79817
21
-4.4906
0
LINE
8
BLACK
6
CONTINUOUS
10
5.79817
20
-4.4906
11
5.80675
21
-4.48596
0
LINE
8
BLACK
6
CONTINUOUS
10
5.80675
20
-4.48596
11
5.81598
21
-4.48279
0
LINE
8
BLACK
6
CONTINUOUS
10
5.81598
20
-4.48279
11
5.8256
21
-4.48119
0
LINE
8
BLACK
6
CONTINUOUS
10
5.8256
20
-4.48119
11
5.83535
21
-4.48119
0
LINE
8
BLACK
6
CONTINUOUS
10
5.83535
20
-4.48119
11
5.84497
21
-4.48279
0
LINE
8
BLACK
6
CONTINUOUS
10
6.23867
20
-4.48279
11
6.2479
21
-4.48596
0
LINE
8
BLACK
6
CONTINUOUS
10
6.2479
20
-4.48596
11
6.25647
21
-4.4906
0
LINE
8
BLACK
6
CONTINUOUS
10
6.25647
20
-4.4906
11
6.26417
21
-4.49659
0
LINE
8
BLACK
6
CONTINUOUS
10
6.26417
20
-4.49659
11
6.27078
21
-4.50377
0
LINE
8
BLACK
6
CONTINUOUS
10
6.27078
20
-4.50377
11
6.27611
21
-4.51193
0
LINE
8
BLACK
6
CONTINUOUS
10
6.27611
20
-4.51193
11
6.28003
21
-4.52086
0
LINE
8
BLACK
6
CONTINUOUS
10
6.28003
20
-4.52086
11
6.28242
21
-4.53032
0
LINE
8
BLACK
6
CONTINUOUS
10
6.28242
20
-4.53032
11
6.28323
21
-4.54004
0
LINE
8
BLACK
6
CONTINUOUS
10
6.28323
20
-4.54004
11
6.28242
21
-4.54976
0
LINE
8
BLACK
6
CONTINUOUS
10
6.28242
20
-4.54976
11
6.28003
21
-4.55921
0
LINE
8
BLACK
6
CONTINUOUS
10
6.28003
20
-4.55921
11
6.27611
21
-4.56815
0
LINE
8
BLACK
6
CONTINUOUS
10
6.27611
20
-4.56815
11
6.27078
21
-4.57631
0
LINE
8
BLACK
6
CONTINUOUS
10
6.27078
20
-4.57631
11
6.26417
21
-4.58349
0
LINE
8
BLACK
6
CONTINUOUS
10
6.26417
20
-4.58349
11
6.25647
21
-4.58948
0
LINE
8
BLACK
6
CONTINUOUS
10
6.25647
20
-4.58948
11
6.2479
21
-4.59412
0
LINE
8
BLACK
6
CONTINUOUS
10
6.2479
20
-4.59412
11
6.23867
21
-4.59729
0
LINE
8
BLACK
6
CONTINUOUS
10
6.23867
20
-4.59729
11
6.22905
21
-4.59889
0
LINE
8
BLACK
6
CONTINUOUS
10
6.22905
20
-4.59889
11
6.2193
21
-4.59889
0
LINE
8
BLACK
6
CONTINUOUS
10
6.2193
20
-4.59889
11
6.20968
21
-4.59729
0
LINE
8
BLACK
6
CONTINUOUS
10
6.20968
20
-4.59729
11
6.20045
21
-4.59412
0
LINE
8
BLACK
6
CONTINUOUS
10
6.20045
20
-4.59412
11
6.19187
21
-4.58948
0
LINE
8
BLACK
6
CONTINUOUS
10
6.19187
20
-4.58948
11
6.18418
21
-4.58349
0
LINE
8
BLACK
6
CONTINUOUS
10
6.18418
20
-4.58349
11
6.17757
21
-4.57631
0
LINE
8
BLACK
6
CONTINUOUS
10
6.17757
20
-4.57631
11
6.17224
21
-4.56815
0
LINE
8
BLACK
6
CONTINUOUS
10
6.17224
20
-4.56815
11
6.16832
21
-4.55921
0
LINE
8
BLACK
6
CONTINUOUS
10
6.16832
20
-4.55921
11
6.16592
21
-4.54976
0
LINE
8
BLACK
6
CONTINUOUS
10
6.16592
20
-4.54976
11
6.16512
21
-4.54004
0
LINE
8
BLACK
6
CONTINUOUS
10
6.16512
20
-4.54004
11
6.16592
21
-4.53032
0
LINE
8
BLACK
6
CONTINUOUS
10
6.16592
20
-4.53032
11
6.16832
21
-4.52086
0
LINE
8
BLACK
6
CONTINUOUS
10
6.16832
20
-4.52086
11
6.17224
21
-4.51193
0
LINE
8
BLACK
6
CONTINUOUS
10
6.17224
20
-4.51193
11
6.17757
21
-4.50377
0
LINE
8
BLACK
6
CONTINUOUS
10
6.17757
20
-4.50377
11
6.18418
21
-4.49659
0
LINE
8
BLACK
6
CONTINUOUS
10
6.18418
20
-4.49659
11
6.19187
21
-4.4906
0
LINE
8
BLACK
6
CONTINUOUS
10
6.19187
20
-4.4906
11
6.20045
21
-4.48596
0
LINE
8
BLACK
6
CONTINUOUS
10
6.20045
20
-4.48596
11
6.20968
21
-4.48279
0
LINE
8
BLACK
6
CONTINUOUS
10
6.20968
20
-4.48279
11
6.2193
21
-4.48119
0
LINE
8
BLACK
6
CONTINUOUS
10
6.2193
20
-4.48119
11
6.22905
21
-4.48119
0
LINE
8
BLACK
6
CONTINUOUS
10
6.22905
20
-4.48119
11
6.23867
21
-4.48279
0
LINE
8
BLACK
6
CONTINUOUS
10
6.10179
20
-4.37729
11
6.10435
21
-4.379
0
LINE
8
BLACK
6
CONTINUOUS
10
6.10435
20
-4.379
11
6.10605
21
-4.38155
0
LINE
8
BLACK
6
CONTINUOUS
10
6.10605
20
-4.38155
11
6.10665
21
-4.38457
0
LINE
8
BLACK
6
CONTINUOUS
10
6.10665
20
-4.38457
11
6.10665
21
-4.48299
0
LINE
8
BLACK
6
CONTINUOUS
10
6.10665
20
-4.48299
11
6.10605
21
-4.48601
0
LINE
8
BLACK
6
CONTINUOUS
10
6.10605
20
-4.48601
11
6.10435
21
-4.48856
0
LINE
8
BLACK
6
CONTINUOUS
10
6.10435
20
-4.48856
11
6.10179
21
-4.49027
0
LINE
8
BLACK
6
CONTINUOUS
10
6.10179
20
-4.49027
11
6.09878
21
-4.49087
0
LINE
8
BLACK
6
CONTINUOUS
10
6.09878
20
-4.49087
11
6.02791
21
-4.49087
0
LINE
8
BLACK
6
CONTINUOUS
10
6.02791
20
-4.49087
11
6.0249
21
-4.49027
0
LINE
8
BLACK
6
CONTINUOUS
10
6.0249
20
-4.49027
11
6.02235
21
-4.48856
0
LINE
8
BLACK
6
CONTINUOUS
10
6.02235
20
-4.48856
11
6.02064
21
-4.48601
0
LINE
8
BLACK
6
CONTINUOUS
10
6.02064
20
-4.48601
11
6.02004
21
-4.48299
0
LINE
8
BLACK
6
CONTINUOUS
10
6.02004
20
-4.48299
11
6.02004
21
-4.38457
0
LINE
8
BLACK
6
CONTINUOUS
10
6.02004
20
-4.38457
11
6.02064
21
-4.38155
0
LINE
8
BLACK
6
CONTINUOUS
10
6.02064
20
-4.38155
11
6.02235
21
-4.379
0
LINE
8
BLACK
6
CONTINUOUS
10
6.02235
20
-4.379
11
6.0249
21
-4.37729
0
LINE
8
BLACK
6
CONTINUOUS
10
6.0249
20
-4.37729
11
6.02791
21
-4.37669
0
LINE
8
BLACK
6
CONTINUOUS
10
6.02791
20
-4.37669
11
6.09878
21
-4.37669
0
LINE
8
BLACK
6
CONTINUOUS
10
6.09878
20
-4.37669
11
6.10179
21
-4.37729
0
LINE
8
BLACK
6
CONTINUOUS
10
6.4931
20
-4.41338
11
6.49808
21
-4.41512
0
LINE
8
BLACK
6
CONTINUOUS
10
6.49808
20
-4.41512
11
6.50233
21
-4.41826
0
LINE
8
BLACK
6
CONTINUOUS
10
6.50233
20
-4.41826
11
6.50547
21
-4.42251
0
LINE
8
BLACK
6
CONTINUOUS
10
6.50547
20
-4.42251
11
6.50721
21
-4.42749
0
LINE
8
BLACK
6
CONTINUOUS
10
6.50721
20
-4.42749
11
6.50752
21
-4.43079
0
LINE
8
BLACK
6
CONTINUOUS
10
6.50752
20
-4.43079
11
6.50752
21
-4.45047
0
LINE
8
BLACK
6
CONTINUOUS
10
6.50752
20
-4.45047
11
6.50721
21
-4.45377
0
LINE
8
BLACK
6
CONTINUOUS
10
6.50721
20
-4.45377
11
6.50547
21
-4.45875
0
LINE
8
BLACK
6
CONTINUOUS
10
6.50547
20
-4.45875
11
6.50233
21
-4.463
0
LINE
8
BLACK
6
CONTINUOUS
10
6.50233
20
-4.463
11
6.49808
21
-4.46614
0
LINE
8
BLACK
6
CONTINUOUS
10
6.49808
20
-4.46614
11
6.4931
21
-4.46788
0
LINE
8
BLACK
6
CONTINUOUS
10
6.4931
20
-4.46788
11
6.4898
21
-4.46819
0
LINE
8
BLACK
6
CONTINUOUS
10
6.4898
20
-4.46819
11
6.40319
21
-4.46819
0
LINE
8
BLACK
6
CONTINUOUS
10
6.40319
20
-4.46819
11
6.3999
21
-4.46788
0
LINE
8
BLACK
6
CONTINUOUS
10
6.3999
20
-4.46788
11
6.39491
21
-4.46614
0
LINE
8
BLACK
6
CONTINUOUS
10
6.39491
20
-4.46614
11
6.39066
21
-4.463
0
LINE
8
BLACK
6
CONTINUOUS
10
6.39066
20
-4.463
11
6.38753
21
-4.45875
0
LINE
8
BLACK
6
CONTINUOUS
10
6.38753
20
-4.45875
11
6.38578
21
-4.45377
0
LINE
8
BLACK
6
CONTINUOUS
10
6.38578
20
-4.45377
11
6.38547
21
-4.45047
0
LINE
8
BLACK
6
CONTINUOUS
10
6.38547
20
-4.45047
11
6.38547
21
-4.43079
0
LINE
8
BLACK
6
CONTINUOUS
10
6.38547
20
-4.43079
11
6.38578
21
-4.42749
0
LINE
8
BLACK
6
CONTINUOUS
10
6.38578
20
-4.42749
11
6.38753
21
-4.42251
0
LINE
8
BLACK
6
CONTINUOUS
10
6.38753
20
-4.42251
11
6.39066
21
-4.41826
0
LINE
8
BLACK
6
CONTINUOUS
10
6.39066
20
-4.41826
11
6.39491
21
-4.41512
0
LINE
8
BLACK
6
CONTINUOUS
10
6.39491
20
-4.41512
11
6.3999
21
-4.41338
0
LINE
8
BLACK
6
CONTINUOUS
10
6.3999
20
-4.41338
11
6.40319
21
-4.41307
0
LINE
8
BLACK
6
CONTINUOUS
10
6.40319
20
-4.41307
11
6.4898
21
-4.41307
0
LINE
8
BLACK
6
CONTINUOUS
10
6.4898
20
-4.41307
11
6.4931
21
-4.41338
0
LINE
8
BLACK
6
CONTINUOUS
10
5.68829
20
-4.36891
11
5.69084
21
-4.37061
0
LINE
8
BLACK
6
CONTINUOUS
10
5.69084
20
-4.37061
11
5.69255
21
-4.37317
0
LINE
8
BLACK
6
CONTINUOUS
10
5.69255
20
-4.37317
11
5.69315
21
-4.37618
0
LINE
8
BLACK
6
CONTINUOUS
10
5.69315
20
-4.37618
11
5.69315
21
-4.45098
0
LINE
8
BLACK
6
CONTINUOUS
10
5.69315
20
-4.45098
11
5.69255
21
-4.454
0
LINE
8
BLACK
6
CONTINUOUS
10
5.69255
20
-4.454
11
5.69084
21
-4.45655
0
LINE
8
BLACK
6
CONTINUOUS
10
5.69084
20
-4.45655
11
5.68829
21
-4.45826
0
LINE
8
BLACK
6
CONTINUOUS
10
5.68829
20
-4.45826
11
5.68528
21
-4.45886
0
LINE
8
BLACK
6
CONTINUOUS
10
5.68528
20
-4.45886
11
5.55142
21
-4.45886
0
LINE
8
BLACK
6
CONTINUOUS
10
5.55142
20
-4.45886
11
5.5484
21
-4.45826
0
LINE
8
BLACK
6
CONTINUOUS
10
5.5484
20
-4.45826
11
5.54585
21
-4.45655
0
LINE
8
BLACK
6
CONTINUOUS
10
5.54585
20
-4.45655
11
5.54414
21
-4.454
0
LINE
8
BLACK
6
CONTINUOUS
10
5.54414
20
-4.454
11
5.54354
21
-4.45098
0
LINE
8
BLACK
6
CONTINUOUS
10
5.54354
20
-4.45098
11
5.54354
21
-4.37618
0
LINE
8
BLACK
6
CONTINUOUS
10
5.54354
20
-4.37618
11
5.54414
21
-4.37317
0
LINE
8
BLACK
6
CONTINUOUS
10
5.54414
20
-4.37317
11
5.54585
21
-4.37061
0
LINE
8
BLACK
6
CONTINUOUS
10
5.54585
20
-4.37061
11
5.5484
21
-4.36891
0
LINE
8
BLACK
6
CONTINUOUS
10
5.5484
20
-4.36891
11
5.55142
21
-4.36831
0
LINE
8
BLACK
6
CONTINUOUS
10
5.55142
20
-4.36831
11
5.68528
21
-4.36831
0
LINE
8
BLACK
6
CONTINUOUS
10
5.68528
20
-4.36831
11
5.68829
21
-4.36891
0
LINE
8
BLACK
6
CONTINUOUS
10
5.77635
20
-4.38928
11
5.78102
21
-4.39166
0
LINE
8
BLACK
6
CONTINUOUS
10
5.78102
20
-4.39166
11
5.78472
21
-4.39536
0
LINE
8
BLACK
6
CONTINUOUS
10
5.78472
20
-4.39536
11
5.78709
21
-4.40003
0
LINE
8
BLACK
6
CONTINUOUS
10
5.78709
20
-4.40003
11
5.78791
21
-4.4052
0
LINE
8
BLACK
6
CONTINUOUS
10
5.78791
20
-4.4052
11
5.78791
21
-4.42488
0
LINE
8
BLACK
6
CONTINUOUS
10
5.78791
20
-4.42488
11
5.78709
21
-4.43005
0
LINE
8
BLACK
6
CONTINUOUS
10
5.78709
20
-4.43005
11
5.78472
21
-4.43472
0
LINE
8
BLACK
6
CONTINUOUS
10
5.78472
20
-4.43472
11
5.78102
21
-4.43842
0
LINE
8
BLACK
6
CONTINUOUS
10
5.78102
20
-4.43842
11
5.77635
21
-4.4408
0
LINE
8
BLACK
6
CONTINUOUS
10
5.77635
20
-4.4408
11
5.77118
21
-4.44161
0
LINE
8
BLACK
6
CONTINUOUS
10
5.77118
20
-4.44161
11
5.75346
21
-4.44161
0
LINE
8
BLACK
6
CONTINUOUS
10
5.75346
20
-4.44161
11
5.74829
21
-4.4408
0
LINE
8
BLACK
6
CONTINUOUS
10
5.74829
20
-4.4408
11
5.74363
21
-4.43842
0
LINE
8
BLACK
6
CONTINUOUS
10
5.74363
20
-4.43842
11
5.73993
21
-4.43472
0
LINE
8
BLACK
6
CONTINUOUS
10
5.73993
20
-4.43472
11
5.73755
21
-4.43005
0
LINE
8
BLACK
6
CONTINUOUS
10
5.73755
20
-4.43005
11
5.73673
21
-4.42488
0
LINE
8
BLACK
6
CONTINUOUS
10
5.73673
20
-4.42488
11
5.73673
21
-4.4052
0
LINE
8
BLACK
6
CONTINUOUS
10
5.73673
20
-4.4052
11
5.73755
21
-4.40003
0
LINE
8
BLACK
6
CONTINUOUS
10
5.73755
20
-4.40003
11
5.73993
21
-4.39536
0
LINE
8
BLACK
6
CONTINUOUS
10
5.73993
20
-4.39536
11
5.74363
21
-4.39166
0
LINE
8
BLACK
6
CONTINUOUS
10
5.74363
20
-4.39166
11
5.74829
21
-4.38928
0
LINE
8
BLACK
6
CONTINUOUS
10
5.74829
20
-4.38928
11
5.75346
21
-4.38846
0
LINE
8
BLACK
6
CONTINUOUS
10
5.75346
20
-4.38846
11
5.77118
21
-4.38846
0
LINE
8
BLACK
6
CONTINUOUS
10
5.77118
20
-4.38846
11
5.77635
21
-4.38928
0
LINE
8
BLACK
6
CONTINUOUS
10
5.83738
20
-4.38928
11
5.84204
21
-4.39166
0
LINE
8
BLACK
6
CONTINUOUS
10
5.84204
20
-4.39166
11
5.84574
21
-4.39536
0
LINE
8
BLACK
6
CONTINUOUS
10
5.84574
20
-4.39536
11
5.84812
21
-4.40003
0
LINE
8
BLACK
6
CONTINUOUS
10
5.84812
20
-4.40003
11
5.84894
21
-4.4052
0
LINE
8
BLACK
6
CONTINUOUS
10
5.84894
20
-4.4052
11
5.84894
21
-4.42488
0
LINE
8
BLACK
6
CONTINUOUS
10
5.84894
20
-4.42488
11
5.84812
21
-4.43005
0
LINE
8
BLACK
6
CONTINUOUS
10
5.84812
20
-4.43005
11
5.84574
21
-4.43472
0
LINE
8
BLACK
6
CONTINUOUS
10
5.84574
20
-4.43472
11
5.84204
21
-4.43842
0
LINE
8
BLACK
6
CONTINUOUS
10
5.84204
20
-4.43842
11
5.83738
21
-4.4408
0
LINE
8
BLACK
6
CONTINUOUS
10
5.83738
20
-4.4408
11
5.8322
21
-4.44161
0
LINE
8
BLACK
6
CONTINUOUS
10
5.8322
20
-4.44161
11
5.81449
21
-4.44161
0
LINE
8
BLACK
6
CONTINUOUS
10
5.81449
20
-4.44161
11
5.80932
21
-4.4408
0
LINE
8
BLACK
6
CONTINUOUS
10
5.80932
20
-4.4408
11
5.80465
21
-4.43842
0
LINE
8
BLACK
6
CONTINUOUS
10
5.80465
20
-4.43842
11
5.80095
21
-4.43472
0
LINE
8
BLACK
6
CONTINUOUS
10
5.80095
20
-4.43472
11
5.79857
21
-4.43005
0
LINE
8
BLACK
6
CONTINUOUS
10
5.79857
20
-4.43005
11
5.79776
21
-4.42488
0
LINE
8
BLACK
6
CONTINUOUS
10
5.79776
20
-4.42488
11
5.79776
21
-4.4052
0
LINE
8
BLACK
6
CONTINUOUS
10
5.79776
20
-4.4052
11
5.79857
21
-4.40003
0
LINE
8
BLACK
6
CONTINUOUS
10
5.79857
20
-4.40003
11
5.80095
21
-4.39536
0
LINE
8
BLACK
6
CONTINUOUS
10
5.80095
20
-4.39536
11
5.80465
21
-4.39166
0
LINE
8
BLACK
6
CONTINUOUS
10
5.80465
20
-4.39166
11
5.80932
21
-4.38928
0
LINE
8
BLACK
6
CONTINUOUS
10
5.80932
20
-4.38928
11
5.81449
21
-4.38846
0
LINE
8
BLACK
6
CONTINUOUS
10
5.81449
20
-4.38846
11
5.8322
21
-4.38846
0
LINE
8
BLACK
6
CONTINUOUS
10
5.8322
20
-4.38846
11
5.83738
21
-4.38928
0
LINE
8
BLACK
6
CONTINUOUS
10
6.352
20
-4.34868
11
6.35608
21
-4.35068
0
LINE
8
BLACK
6
CONTINUOUS
10
6.35608
20
-4.35068
11
6.35929
21
-4.35388
0
LINE
8
BLACK
6
CONTINUOUS
10
6.35929
20
-4.35388
11
6.36128
21
-4.35796
0
LINE
8
BLACK
6
CONTINUOUS
10
6.36128
20
-4.35796
11
6.36185
21
-4.36189
0
LINE
8
BLACK
6
CONTINUOUS
10
6.36185
20
-4.36189
11
6.36185
21
-4.3737
0
LINE
8
BLACK
6
CONTINUOUS
10
6.36185
20
-4.3737
11
6.36128
21
-4.37763
0
LINE
8
BLACK
6
CONTINUOUS
10
6.36128
20
-4.37763
11
6.35929
21
-4.38171
0
LINE
8
BLACK
6
CONTINUOUS
10
6.35929
20
-4.38171
11
6.35608
21
-4.38492
0
LINE
8
BLACK
6
CONTINUOUS
10
6.35608
20
-4.38492
11
6.352
21
-4.38691
0
LINE
8
BLACK
6
CONTINUOUS
10
6.352
20
-4.38691
11
6.34807
21
-4.38748
0
LINE
8
BLACK
6
CONTINUOUS
10
6.34807
20
-4.38748
11
6.29295
21
-4.38748
0
LINE
8
BLACK
6
CONTINUOUS
10
6.29295
20
-4.38748
11
6.28902
21
-4.38691
0
LINE
8
BLACK
6
CONTINUOUS
10
6.28902
20
-4.38691
11
6.28495
21
-4.38492
0
LINE
8
BLACK
6
CONTINUOUS
10
6.28495
20
-4.38492
11
6.28174
21
-4.38171
0
LINE
8
BLACK
6
CONTINUOUS
10
6.28174
20
-4.38171
11
6.27975
21
-4.37763
0
LINE
8
BLACK
6
CONTINUOUS
10
6.27975
20
-4.37763
11
6.27917
21
-4.3737
0
LINE
8
BLACK
6
CONTINUOUS
10
6.27917
20
-4.3737
11
6.27917
21
-4.36189
0
LINE
8
BLACK
6
CONTINUOUS
10
6.27917
20
-4.36189
11
6.27975
21
-4.35796
0
LINE
8
BLACK
6
CONTINUOUS
10
6.27975
20
-4.35796
11
6.28174
21
-4.35388
0
LINE
8
BLACK
6
CONTINUOUS
10
6.28174
20
-4.35388
11
6.28495
21
-4.35068
0
LINE
8
BLACK
6
CONTINUOUS
10
6.28495
20
-4.35068
11
6.28902
21
-4.34868
0
LINE
8
BLACK
6
CONTINUOUS
10
6.28902
20
-4.34868
11
6.29295
21
-4.34811
0
LINE
8
BLACK
6
CONTINUOUS
10
6.29295
20
-4.34811
11
6.34807
21
-4.34811
0
LINE
8
BLACK
6
CONTINUOUS
10
6.34807
20
-4.34811
11
6.352
21
-4.34868
0
LINE
8
BLACK
6
CONTINUOUS
10
5.78845
20
-4.31941
11
5.79305
21
-4.32175
0
LINE
8
BLACK
6
CONTINUOUS
10
5.79305
20
-4.32175
11
5.79669
21
-4.3254
0
LINE
8
BLACK
6
CONTINUOUS
10
5.79669
20
-4.3254
11
5.79904
21
-4.32999
0
LINE
8
BLACK
6
CONTINUOUS
10
5.79904
20
-4.32999
11
5.79984
21
-4.33509
0
LINE
8
BLACK
6
CONTINUOUS
10
5.79984
20
-4.33509
11
5.79984
21
-4.35231
0
LINE
8
BLACK
6
CONTINUOUS
10
5.79984
20
-4.35231
11
5.79904
21
-4.35741
0
LINE
8
BLACK
6
CONTINUOUS
10
5.79904
20
-4.35741
11
5.79669
21
-4.362
0
LINE
8
BLACK
6
CONTINUOUS
10
5.79669
20
-4.362
11
5.79305
21
-4.36565
0
LINE
8
BLACK
6
CONTINUOUS
10
5.79305
20
-4.36565
11
5.78845
21
-4.36799
0
LINE
8
BLACK
6
CONTINUOUS
10
5.78845
20
-4.36799
11
5.78336
21
-4.3688
0
LINE
8
BLACK
6
CONTINUOUS
10
5.78336
20
-4.3688
11
5.75334
21
-4.3688
0
LINE
8
BLACK
6
CONTINUOUS
10
5.75334
20
-4.3688
11
5.74824
21
-4.36799
0
LINE
8
BLACK
6
CONTINUOUS
10
5.74824
20
-4.36799
11
5.74365
21
-4.36565
0
LINE
8
BLACK
6
CONTINUOUS
10
5.74365
20
-4.36565
11
5.74
21
-4.362
0
LINE
8
BLACK
6
CONTINUOUS
10
5.74
20
-4.362
11
5.73766
21
-4.35741
0
LINE
8
BLACK
6
CONTINUOUS
10
5.73766
20
-4.35741
11
5.73685
21
-4.35231
0
LINE
8
BLACK
6
CONTINUOUS
10
5.73685
20
-4.35231
11
5.73685
21
-4.33509
0
LINE
8
BLACK
6
CONTINUOUS
10
5.73685
20
-4.33509
11
5.73766
21
-4.32999
0
LINE
8
BLACK
6
CONTINUOUS
10
5.73766
20
-4.32999
11
5.74
21
-4.3254
0
LINE
8
BLACK
6
CONTINUOUS
10
5.74
20
-4.3254
11
5.74365
21
-4.32175
0
LINE
8
BLACK
6
CONTINUOUS
10
5.74365
20
-4.32175
11
5.74824
21
-4.31941
0
LINE
8
BLACK
6
CONTINUOUS
10
5.74824
20
-4.31941
11
5.75334
21
-4.3186
0
LINE
8
BLACK
6
CONTINUOUS
10
5.75334
20
-4.3186
11
5.78336
21
-4.3186
0
LINE
8
BLACK
6
CONTINUOUS
10
5.78336
20
-4.3186
11
5.78845
21
-4.31941
0
LINE
8
BLACK
6
CONTINUOUS
10
6.352
20
-4.29947
11
6.35608
21
-4.30146
0
LINE
8
BLACK
6
CONTINUOUS
10
6.35608
20
-4.30146
11
6.35929
21
-4.30467
0
LINE
8
BLACK
6
CONTINUOUS
10
6.35929
20
-4.30467
11
6.36128
21
-4.30875
0
LINE
8
BLACK
6
CONTINUOUS
10
6.36128
20
-4.30875
11
6.36185
21
-4.31268
0
LINE
8
BLACK
6
CONTINUOUS
10
6.36185
20
-4.31268
11
6.36185
21
-4.32449
0
LINE
8
BLACK
6
CONTINUOUS
10
6.36185
20
-4.32449
11
6.36128
21
-4.32842
0
LINE
8
BLACK
6
CONTINUOUS
10
6.36128
20
-4.32842
11
6.35929
21
-4.3325
0
LINE
8
BLACK
6
CONTINUOUS
10
6.35929
20
-4.3325
11
6.35608
21
-4.3357
0
LINE
8
BLACK
6
CONTINUOUS
10
6.35608
20
-4.3357
11
6.352
21
-4.33769
0
LINE
8
BLACK
6
CONTINUOUS
10
6.352
20
-4.33769
11
6.34807
21
-4.33827
0
LINE
8
BLACK
6
CONTINUOUS
10
6.34807
20
-4.33827
11
6.29295
21
-4.33827
0
LINE
8
BLACK
6
CONTINUOUS
10
6.29295
20
-4.33827
11
6.28902
21
-4.33769
0
LINE
8
BLACK
6
CONTINUOUS
10
6.28902
20
-4.33769
11
6.28495
21
-4.3357
0
LINE
8
BLACK
6
CONTINUOUS
10
6.28495
20
-4.3357
11
6.28174
21
-4.3325
0
LINE
8
BLACK
6
CONTINUOUS
10
6.28174
20
-4.3325
11
6.27975
21
-4.32842
0
LINE
8
BLACK
6
CONTINUOUS
10
6.27975
20
-4.32842
11
6.27917
21
-4.32449
0
LINE
8
BLACK
6
CONTINUOUS
10
6.27917
20
-4.32449
11
6.27917
21
-4.31268
0
LINE
8
BLACK
6
CONTINUOUS
10
6.27917
20
-4.31268
11
6.27975
21
-4.30875
0
LINE
8
BLACK
6
CONTINUOUS
10
6.27975
20
-4.30875
11
6.28174
21
-4.30467
0
LINE
8
BLACK
6
CONTINUOUS
10
6.28174
20
-4.30467
11
6.28495
21
-4.30146
0
LINE
8
BLACK
6
CONTINUOUS
10
6.28495
20
-4.30146
11
6.28902
21
-4.29947
0
LINE
8
BLACK
6
CONTINUOUS
10
6.28902
20
-4.29947
11
6.29295
21
-4.2989
0
LINE
8
BLACK
6
CONTINUOUS
10
6.29295
20
-4.2989
11
6.34807
21
-4.2989
0
LINE
8
BLACK
6
CONTINUOUS
10
6.34807
20
-4.2989
11
6.352
21
-4.29947
0
LINE
8
BLACK
6
CONTINUOUS
10
6.10179
20
-4.21981
11
6.10435
21
-4.22152
0
LINE
8
BLACK
6
CONTINUOUS
10
6.10435
20
-4.22152
11
6.10605
21
-4.22407
0
LINE
8
BLACK
6
CONTINUOUS
10
6.10605
20
-4.22407
11
6.10665
21
-4.22709
0
LINE
8
BLACK
6
CONTINUOUS
10
6.10665
20
-4.22709
11
6.10665
21
-4.32551
0
LINE
8
BLACK
6
CONTINUOUS
10
6.10665
20
-4.32551
11
6.10605
21
-4.32853
0
LINE
8
BLACK
6
CONTINUOUS
10
6.10605
20
-4.32853
11
6.10435
21
-4.33108
0
LINE
8
BLACK
6
CONTINUOUS
10
6.10435
20
-4.33108
11
6.10179
21
-4.33279
0
LINE
8
BLACK
6
CONTINUOUS
10
6.10179
20
-4.33279
11
6.09878
21
-4.33339
0
LINE
8
BLACK
6
CONTINUOUS
10
6.09878
20
-4.33339
11
6.02791
21
-4.33339
0
LINE
8
BLACK
6
CONTINUOUS
10
6.02791
20
-4.33339
11
6.0249
21
-4.33279
0
LINE
8
BLACK
6
CONTINUOUS
10
6.0249
20
-4.33279
11
6.02235
21
-4.33108
0
LINE
8
BLACK
6
CONTINUOUS
10
6.02235
20
-4.33108
11
6.02064
21
-4.32853
0
LINE
8
BLACK
6
CONTINUOUS
10
6.02064
20
-4.32853
11
6.02004
21
-4.32551
0
LINE
8
BLACK
6
CONTINUOUS
10
6.02004
20
-4.32551
11
6.02004
21
-4.22709
0
LINE
8
BLACK
6
CONTINUOUS
10
6.02004
20
-4.22709
11
6.02064
21
-4.22407
0
LINE
8
BLACK
6
CONTINUOUS
10
6.02064
20
-4.22407
11
6.02235
21
-4.22152
0
LINE
8
BLACK
6
CONTINUOUS
10
6.02235
20
-4.22152
11
6.0249
21
-4.21981
0
LINE
8
BLACK
6
CONTINUOUS
10
6.0249
20
-4.21981
11
6.02791
21
-4.21921
0
LINE
8
BLACK
6
CONTINUOUS
10
6.02791
20
-4.21921
11
6.09878
21
-4.21921
0
LINE
8
BLACK
6
CONTINUOUS
10
6.09878
20
-4.21921
11
6.10179
21
-4.21981
0
LINE
8
BLACK
6
CONTINUOUS
10
5.68829
20
-4.21536
11
5.69084
21
-4.21707
0
LINE
8
BLACK
6
CONTINUOUS
10
5.69084
20
-4.21707
11
5.69255
21
-4.21962
0
LINE
8
BLACK
6
CONTINUOUS
10
5.69255
20
-4.21962
11
5.69315
21
-4.22264
0
LINE
8
BLACK
6
CONTINUOUS
10
5.69315
20
-4.22264
11
5.69315
21
-4.29744
0
LINE
8
BLACK
6
CONTINUOUS
10
5.69315
20
-4.29744
11
5.69255
21
-4.30045
0
LINE
8
BLACK
6
CONTINUOUS
10
5.69255
20
-4.30045
11
5.69084
21
-4.30301
0
LINE
8
BLACK
6
CONTINUOUS
10
5.69084
20
-4.30301
11
5.68829
21
-4.30472
0
LINE
8
BLACK
6
CONTINUOUS
10
5.68829
20
-4.30472
11
5.68528
21
-4.30531
0
LINE
8
BLACK
6
CONTINUOUS
10
5.68528
20
-4.30531
11
5.55142
21
-4.30531
0
LINE
8
BLACK
6
CONTINUOUS
10
5.55142
20
-4.30531
11
5.5484
21
-4.30472
0
LINE
8
BLACK
6
CONTINUOUS
10
5.5484
20
-4.30472
11
5.54585
21
-4.30301
0
LINE
8
BLACK
6
CONTINUOUS
10
5.54585
20
-4.30301
11
5.54414
21
-4.30045
0
LINE
8
BLACK
6
CONTINUOUS
10
5.54414
20
-4.30045
11
5.54354
21
-4.29744
0
LINE
8
BLACK
6
CONTINUOUS
10
5.54354
20
-4.29744
11
5.54354
21
-4.22264
0
LINE
8
BLACK
6
CONTINUOUS
10
5.54354
20
-4.22264
11
5.54414
21
-4.21962
0
LINE
8
BLACK
6
CONTINUOUS
10
5.54414
20
-4.21962
11
5.54585
21
-4.21707
0
LINE
8
BLACK
6
CONTINUOUS
10
5.54585
20
-4.21707
11
5.5484
21
-4.21536
0
LINE
8
BLACK
6
CONTINUOUS
10
5.5484
20
-4.21536
11
5.55142
21
-4.21476
0
LINE
8
BLACK
6
CONTINUOUS
10
5.55142
20
-4.21476
11
5.68528
21
-4.21476
0
LINE
8
BLACK
6
CONTINUOUS
10
5.68528
20
-4.21476
11
5.68829
21
-4.21536
0
LINE
8
BLACK
6
CONTINUOUS
10
6.352
20
-4.25026
11
6.35608
21
-4.25225
0
LINE
8
BLACK
6
CONTINUOUS
10
6.35608
20
-4.25225
11
6.35929
21
-4.25546
0
LINE
8
BLACK
6
CONTINUOUS
10
6.35929
20
-4.25546
11
6.36128
21
-4.25953
0
LINE
8
BLACK
6
CONTINUOUS
10
6.36128
20
-4.25953
11
6.36185
21
-4.26346
0
LINE
8
BLACK
6
CONTINUOUS
10
6.36185
20
-4.26346
11
6.36185
21
-4.27528
0
LINE
8
BLACK
6
CONTINUOUS
10
6.36185
20
-4.27528
11
6.36128
21
-4.27921
0
LINE
8
BLACK
6
CONTINUOUS
10
6.36128
20
-4.27921
11
6.35929
21
-4.28328
0
LINE
8
BLACK
6
CONTINUOUS
10
6.35929
20
-4.28328
11
6.35608
21
-4.28649
0
LINE
8
BLACK
6
CONTINUOUS
10
6.35608
20
-4.28649
11
6.352
21
-4.28848
0
LINE
8
BLACK
6
CONTINUOUS
10
6.352
20
-4.28848
11
6.34807
21
-4.28906
0
LINE
8
BLACK
6
CONTINUOUS
10
6.34807
20
-4.28906
11
6.29295
21
-4.28906
0
LINE
8
BLACK
6
CONTINUOUS
10
6.29295
20
-4.28906
11
6.28902
21
-4.28848
0
LINE
8
BLACK
6
CONTINUOUS
10
6.28902
20
-4.28848
11
6.28495
21
-4.28649
0
LINE
8
BLACK
6
CONTINUOUS
10
6.28495
20
-4.28649
11
6.28174
21
-4.28328
0
LINE
8
BLACK
6
CONTINUOUS
10
6.28174
20
-4.28328
11
6.27975
21
-4.27921
0
LINE
8
BLACK
6
CONTINUOUS
10
6.27975
20
-4.27921
11
6.27917
21
-4.27528
0
LINE
8
BLACK
6
CONTINUOUS
10
6.27917
20
-4.27528
11
6.27917
21
-4.26346
0
LINE
8
BLACK
6
CONTINUOUS
10
6.27917
20
-4.26346
11
6.27975
21
-4.25953
0
LINE
8
BLACK
6
CONTINUOUS
10
6.27975
20
-4.25953
11
6.28174
21
-4.25546
0
LINE
8
BLACK
6
CONTINUOUS
10
6.28174
20
-4.25546
11
6.28495
21
-4.25225
0
LINE
8
BLACK
6
CONTINUOUS
10
6.28495
20
-4.25225
11
6.28902
21
-4.25026
0
LINE
8
BLACK
6
CONTINUOUS
10
6.28902
20
-4.25026
11
6.29295
21
-4.24969
0
LINE
8
BLACK
6
CONTINUOUS
10
6.29295
20
-4.24969
11
6.34807
21
-4.24969
0
LINE
8
BLACK
6
CONTINUOUS
10
6.34807
20
-4.24969
11
6.352
21
-4.25026
0
LINE
8
BLACK
6
CONTINUOUS
10
5.86738
20
-4.23428
11
5.87204
21
-4.23666
0
LINE
8
BLACK
6
CONTINUOUS
10
5.87204
20
-4.23666
11
5.87574
21
-4.24036
0
LINE
8
BLACK
6
CONTINUOUS
10
5.87574
20
-4.24036
11
5.87812
21
-4.24503
0
LINE
8
BLACK
6
CONTINUOUS
10
5.87812
20
-4.24503
11
5.87894
21
-4.2502
0
LINE
8
BLACK
6
CONTINUOUS
10
5.87894
20
-4.2502
11
5.87894
21
-4.26988
0
LINE
8
BLACK
6
CONTINUOUS
10
5.87894
20
-4.26988
11
5.87812
21
-4.27505
0
LINE
8
BLACK
6
CONTINUOUS
10
5.87812
20
-4.27505
11
5.87574
21
-4.27972
0
LINE
8
BLACK
6
CONTINUOUS
10
5.87574
20
-4.27972
11
5.87204
21
-4.28342
0
LINE
8
BLACK
6
CONTINUOUS
10
5.87204
20
-4.28342
11
5.86738
21
-4.2858
0
LINE
8
BLACK
6
CONTINUOUS
10
5.86738
20
-4.2858
11
5.8622
21
-4.28661
0
LINE
8
BLACK
6
CONTINUOUS
10
5.8622
20
-4.28661
11
5.84449
21
-4.28661
0
LINE
8
BLACK
6
CONTINUOUS
10
5.84449
20
-4.28661
11
5.83932
21
-4.2858
0
LINE
8
BLACK
6
CONTINUOUS
10
5.83932
20
-4.2858
11
5.83465
21
-4.28342
0
LINE
8
BLACK
6
CONTINUOUS
10
5.83465
20
-4.28342
11
5.83095
21
-4.27972
0
LINE
8
BLACK
6
CONTINUOUS
10
5.83095
20
-4.27972
11
5.82857
21
-4.27505
0
LINE
8
BLACK
6
CONTINUOUS
10
5.82857
20
-4.27505
11
5.82776
21
-4.26988
0
LINE
8
BLACK
6
CONTINUOUS
10
5.82776
20
-4.26988
11
5.82776
21
-4.2502
0
LINE
8
BLACK
6
CONTINUOUS
10
5.82776
20
-4.2502
11
5.82857
21
-4.24503
0
LINE
8
BLACK
6
CONTINUOUS
10
5.82857
20
-4.24503
11
5.83095
21
-4.24036
0
LINE
8
BLACK
6
CONTINUOUS
10
5.83095
20
-4.24036
11
5.83465
21
-4.23666
0
LINE
8
BLACK
6
CONTINUOUS
10
5.83465
20
-4.23666
11
5.83932
21
-4.23428
0
LINE
8
BLACK
6
CONTINUOUS
10
5.83932
20
-4.23428
11
5.84449
21
-4.23346
0
LINE
8
BLACK
6
CONTINUOUS
10
5.84449
20
-4.23346
11
5.8622
21
-4.23346
0
LINE
8
BLACK
6
CONTINUOUS
10
5.8622
20
-4.23346
11
5.86738
21
-4.23428
0
LINE
8
BLACK
6
CONTINUOUS
10
5.9284
20
-4.23428
11
5.93306
21
-4.23666
0
LINE
8
BLACK
6
CONTINUOUS
10
5.93306
20
-4.23666
11
5.93677
21
-4.24036
0
LINE
8
BLACK
6
CONTINUOUS
10
5.93677
20
-4.24036
11
5.93914
21
-4.24503
0
LINE
8
BLACK
6
CONTINUOUS
10
5.93914
20
-4.24503
11
5.93996
21
-4.2502
0
LINE
8
BLACK
6
CONTINUOUS
10
5.93996
20
-4.2502
11
5.93996
21
-4.26988
0
LINE
8
BLACK
6
CONTINUOUS
10
5.93996
20
-4.26988
11
5.93914
21
-4.27505
0
LINE
8
BLACK
6
CONTINUOUS
10
5.93914
20
-4.27505
11
5.93677
21
-4.27972
0
LINE
8
BLACK
6
CONTINUOUS
10
5.93677
20
-4.27972
11
5.93306
21
-4.28342
0
LINE
8
BLACK
6
CONTINUOUS
10
5.93306
20
-4.28342
11
5.9284
21
-4.2858
0
LINE
8
BLACK
6
CONTINUOUS
10
5.9284
20
-4.2858
11
5.92323
21
-4.28661
0
LINE
8
BLACK
6
CONTINUOUS
10
5.92323
20
-4.28661
11
5.90551
21
-4.28661
0
LINE
8
BLACK
6
CONTINUOUS
10
5.90551
20
-4.28661
11
5.90034
21
-4.2858
0
LINE
8
BLACK
6
CONTINUOUS
10
5.90034
20
-4.2858
11
5.89568
21
-4.28342
0
LINE
8
BLACK
6
CONTINUOUS
10
5.89568
20
-4.28342
11
5.89198
21
-4.27972
0
LINE
8
BLACK
6
CONTINUOUS
10
5.89198
20
-4.27972
11
5.8896
21
-4.27505
0
LINE
8
BLACK
6
CONTINUOUS
10
5.8896
20
-4.27505
11
5.88878
21
-4.26988
0
LINE
8
BLACK
6
CONTINUOUS
10
5.88878
20
-4.26988
11
5.88878
21
-4.2502
0
LINE
8
BLACK
6
CONTINUOUS
10
5.88878
20
-4.2502
11
5.8896
21
-4.24503
0
LINE
8
BLACK
6
CONTINUOUS
10
5.8896
20
-4.24503
11
5.89198
21
-4.24036
0
LINE
8
BLACK
6
CONTINUOUS
10
5.89198
20
-4.24036
11
5.89568
21
-4.23666
0
LINE
8
BLACK
6
CONTINUOUS
10
5.89568
20
-4.23666
11
5.90034
21
-4.23428
0
LINE
8
BLACK
6
CONTINUOUS
10
5.90034
20
-4.23428
11
5.90551
21
-4.23346
0
LINE
8
BLACK
6
CONTINUOUS
10
5.90551
20
-4.23346
11
5.92323
21
-4.23346
0
LINE
8
BLACK
6
CONTINUOUS
10
5.92323
20
-4.23346
11
5.9284
21
-4.23428
0
LINE
8
BLACK
6
CONTINUOUS
10
5.78845
20
-4.23575
11
5.79305
21
-4.23809
0
LINE
8
BLACK
6
CONTINUOUS
10
5.79305
20
-4.23809
11
5.79669
21
-4.24174
0
LINE
8
BLACK
6
CONTINUOUS
10
5.79669
20
-4.24174
11
5.79904
21
-4.24633
0
LINE
8
BLACK
6
CONTINUOUS
10
5.79904
20
-4.24633
11
5.79984
21
-4.25143
0
LINE
8
BLACK
6
CONTINUOUS
10
5.79984
20
-4.25143
11
5.79984
21
-4.26865
0
LINE
8
BLACK
6
CONTINUOUS
10
5.79984
20
-4.26865
11
5.79904
21
-4.27375
0
LINE
8
BLACK
6
CONTINUOUS
10
5.79904
20
-4.27375
11
5.79669
21
-4.27834
0
LINE
8
BLACK
6
CONTINUOUS
10
5.79669
20
-4.27834
11
5.79305
21
-4.28199
0
LINE
8
BLACK
6
CONTINUOUS
10
5.79305
20
-4.28199
11
5.78845
21
-4.28433
0
LINE
8
BLACK
6
CONTINUOUS
10
5.78845
20
-4.28433
11
5.78336
21
-4.28514
0
LINE
8
BLACK
6
CONTINUOUS
10
5.78336
20
-4.28514
11
5.75334
21
-4.28514
0
LINE
8
BLACK
6
CONTINUOUS
10
5.75334
20
-4.28514
11
5.74824
21
-4.28433
0
LINE
8
BLACK
6
CONTINUOUS
10
5.74824
20
-4.28433
11
5.74365
21
-4.28199
0
LINE
8
BLACK
6
CONTINUOUS
10
5.74365
20
-4.28199
11
5.74
21
-4.27834
0
LINE
8
BLACK
6
CONTINUOUS
10
5.74
20
-4.27834
11
5.73766
21
-4.27375
0
LINE
8
BLACK
6
CONTINUOUS
10
5.73766
20
-4.27375
11
5.73685
21
-4.26865
0
LINE
8
BLACK
6
CONTINUOUS
10
5.73685
20
-4.26865
11
5.73685
21
-4.25143
0
LINE
8
BLACK
6
CONTINUOUS
10
5.73685
20
-4.25143
11
5.73766
21
-4.24633
0
LINE
8
BLACK
6
CONTINUOUS
10
5.73766
20
-4.24633
11
5.74
21
-4.24174
0
LINE
8
BLACK
6
CONTINUOUS
10
5.74
20
-4.24174
11
5.74365
21
-4.23809
0
LINE
8
BLACK
6
CONTINUOUS
10
5.74365
20
-4.23809
11
5.74824
21
-4.23575
0
LINE
8
BLACK
6
CONTINUOUS
10
5.74824
20
-4.23575
11
5.75334
21
-4.23494
0
LINE
8
BLACK
6
CONTINUOUS
10
5.75334
20
-4.23494
11
5.78336
21
-4.23494
0
LINE
8
BLACK
6
CONTINUOUS
10
5.78336
20
-4.23494
11
5.78845
21
-4.23575
0
LINE
8
BLACK
6
CONTINUOUS
10
6.352
20
-4.20105
11
6.35608
21
-4.20304
0
LINE
8
BLACK
6
CONTINUOUS
10
6.35608
20
-4.20304
11
6.35929
21
-4.20625
0
LINE
8
BLACK
6
CONTINUOUS
10
6.35929
20
-4.20625
11
6.36128
21
-4.21032
0
LINE
8
BLACK
6
CONTINUOUS
10
6.36128
20
-4.21032
11
6.36185
21
-4.21425
0
LINE
8
BLACK
6
CONTINUOUS
10
6.36185
20
-4.21425
11
6.36185
21
-4.22606
0
LINE
8
BLACK
6
CONTINUOUS
10
6.36185
20
-4.22606
11
6.36128
21
-4.22999
0
LINE
8
BLACK
6
CONTINUOUS
10
6.36128
20
-4.22999
11
6.35929
21
-4.23407
0
LINE
8
BLACK
6
CONTINUOUS
10
6.35929
20
-4.23407
11
6.35608
21
-4.23728
0
LINE
8
BLACK
6
CONTINUOUS
10
6.35608
20
-4.23728
11
6.352
21
-4.23927
0
LINE
8
BLACK
6
CONTINUOUS
10
6.352
20
-4.23927
11
6.34807
21
-4.23984
0
LINE
8
BLACK
6
CONTINUOUS
10
6.34807
20
-4.23984
11
6.29295
21
-4.23984
0
LINE
8
BLACK
6
CONTINUOUS
10
6.29295
20
-4.23984
11
6.28902
21
-4.23927
0
LINE
8
BLACK
6
CONTINUOUS
10
6.28902
20
-4.23927
11
6.28495
21
-4.23728
0
LINE
8
BLACK
6
CONTINUOUS
10
6.28495
20
-4.23728
11
6.28174
21
-4.23407
0
LINE
8
BLACK
6
CONTINUOUS
10
6.28174
20
-4.23407
11
6.27975
21
-4.22999
0
LINE
8
BLACK
6
CONTINUOUS
10
6.27975
20
-4.22999
11
6.27917
21
-4.22606
0
LINE
8
BLACK
6
CONTINUOUS
10
6.27917
20
-4.22606
11
6.27917
21
-4.21425
0
LINE
8
BLACK
6
CONTINUOUS
10
6.27917
20
-4.21425
11
6.27975
21
-4.21032
0
LINE
8
BLACK
6
CONTINUOUS
10
6.27975
20
-4.21032
11
6.28174
21
-4.20625
0
LINE
8
BLACK
6
CONTINUOUS
10
6.28174
20
-4.20625
11
6.28495
21
-4.20304
0
LINE
8
BLACK
6
CONTINUOUS
10
6.28495
20
-4.20304
11
6.28902
21
-4.20105
0
LINE
8
BLACK
6
CONTINUOUS
10
6.28902
20
-4.20105
11
6.29295
21
-4.20047
0
LINE
8
BLACK
6
CONTINUOUS
10
6.29295
20
-4.20047
11
6.34807
21
-4.20047
0
LINE
8
BLACK
6
CONTINUOUS
10
6.34807
20
-4.20047
11
6.352
21
-4.20105
0
LINE
8
BLACK
6
CONTINUOUS
10
6.352
20
-4.15183
11
6.35608
21
-4.15382
0
LINE
8
BLACK
6
CONTINUOUS
10
6.35608
20
-4.15382
11
6.35929
21
-4.15703
0
LINE
8
BLACK
6
CONTINUOUS
10
6.35929
20
-4.15703
11
6.36128
21
-4.16111
0
LINE
8
BLACK
6
CONTINUOUS
10
6.36128
20
-4.16111
11
6.36185
21
-4.16504
0
LINE
8
BLACK
6
CONTINUOUS
10
6.36185
20
-4.16504
11
6.36185
21
-4.17685
0
LINE
8
BLACK
6
CONTINUOUS
10
6.36185
20
-4.17685
11
6.36128
21
-4.18078
0
LINE
8
BLACK
6
CONTINUOUS
10
6.36128
20
-4.18078
11
6.35929
21
-4.18486
0
LINE
8
BLACK
6
CONTINUOUS
10
6.35929
20
-4.18486
11
6.35608
21
-4.18806
0
LINE
8
BLACK
6
CONTINUOUS
10
6.35608
20
-4.18806
11
6.352
21
-4.19006
0
LINE
8
BLACK
6
CONTINUOUS
10
6.352
20
-4.19006
11
6.34807
21
-4.19063
0
LINE
8
BLACK
6
CONTINUOUS
10
6.34807
20
-4.19063
11
6.29295
21
-4.19063
0
LINE
8
BLACK
6
CONTINUOUS
10
6.29295
20
-4.19063
11
6.28902
21
-4.19006
0
LINE
8
BLACK
6
CONTINUOUS
10
6.28902
20
-4.19006
11
6.28495
21
-4.18806
0
LINE
8
BLACK
6
CONTINUOUS
10
6.28495
20
-4.18806
11
6.28174
21
-4.18486
0
LINE
8
BLACK
6
CONTINUOUS
10
6.28174
20
-4.18486
11
6.27975
21
-4.18078
0
LINE
8
BLACK
6
CONTINUOUS
10
6.27975
20
-4.18078
11
6.27917
21
-4.17685
0
LINE
8
BLACK
6
CONTINUOUS
10
6.27917
20
-4.17685
11
6.27917
21
-4.16504
0
LINE
8
BLACK
6
CONTINUOUS
10
6.27917
20
-4.16504
11
6.27975
21
-4.16111
0
LINE
8
BLACK
6
CONTINUOUS
10
6.27975
20
-4.16111
11
6.28174
21
-4.15703
0
LINE
8
BLACK
6
CONTINUOUS
10
6.28174
20
-4.15703
11
6.28495
21
-4.15382
0
LINE
8
BLACK
6
CONTINUOUS
10
6.28495
20
-4.15382
11
6.28902
21
-4.15183
0
LINE
8
BLACK
6
CONTINUOUS
10
6.28902
20
-4.15183
11
6.29295
21
-4.15126
0
LINE
8
BLACK
6
CONTINUOUS
10
6.29295
20
-4.15126
11
6.34807
21
-4.15126
0
LINE
8
BLACK
6
CONTINUOUS
10
6.34807
20
-4.15126
11
6.352
21
-4.15183
0
LINE
8
BLACK
6
CONTINUOUS
10
5.85105
20
-4.13427
11
5.85565
21
-4.13661
0
LINE
8
BLACK
6
CONTINUOUS
10
5.85565
20
-4.13661
11
5.85929
21
-4.14026
0
LINE
8
BLACK
6
CONTINUOUS
10
5.85929
20
-4.14026
11
5.86163
21
-4.14486
0
LINE
8
BLACK
6
CONTINUOUS
10
5.86163
20
-4.14486
11
5.86244
21
-4.14995
0
LINE
8
BLACK
6
CONTINUOUS
10
5.86244
20
-4.14995
11
5.86244
21
-4.17013
0
LINE
8
BLACK
6
CONTINUOUS
10
5.86244
20
-4.17013
11
5.86163
21
-4.17522
0
LINE
8
BLACK
6
CONTINUOUS
10
5.86163
20
-4.17522
11
5.85929
21
-4.17982
0
LINE
8
BLACK
6
CONTINUOUS
10
5.85929
20
-4.17982
11
5.85565
21
-4.18347
0
LINE
8
BLACK
6
CONTINUOUS
10
5.85565
20
-4.18347
11
5.85105
21
-4.18581
0
LINE
8
BLACK
6
CONTINUOUS
10
5.85105
20
-4.18581
11
5.84595
21
-4.18661
0
LINE
8
BLACK
6
CONTINUOUS
10
5.84595
20
-4.18661
11
5.82873
21
-4.18661
0
LINE
8
BLACK
6
CONTINUOUS
10
5.82873
20
-4.18661
11
5.82364
21
-4.18581
0
LINE
8
BLACK
6
CONTINUOUS
10
5.82364
20
-4.18581
11
5.81904
21
-4.18347
0
LINE
8
BLACK
6
CONTINUOUS
10
5.81904
20
-4.18347
11
5.81539
21
-4.17982
0
LINE
8
BLACK
6
CONTINUOUS
10
5.81539
20
-4.17982
11
5.81305
21
-4.17522
0
LINE
8
BLACK
6
CONTINUOUS
10
5.81305
20
-4.17522
11
5.81224
21
-4.17013
0
LINE
8
BLACK
6
CONTINUOUS
10
5.81224
20
-4.17013
11
5.81224
21
-4.14995
0
LINE
8
BLACK
6
CONTINUOUS
10
5.81224
20
-4.14995
11
5.81305
21
-4.14486
0
LINE
8
BLACK
6
CONTINUOUS
10
5.81305
20
-4.14486
11
5.81539
21
-4.14026
0
LINE
8
BLACK
6
CONTINUOUS
10
5.81539
20
-4.14026
11
5.81904
21
-4.13661
0
LINE
8
BLACK
6
CONTINUOUS
10
5.81904
20
-4.13661
11
5.82364
21
-4.13427
0
LINE
8
BLACK
6
CONTINUOUS
10
5.82364
20
-4.13427
11
5.82873
21
-4.13346
0
LINE
8
BLACK
6
CONTINUOUS
10
5.82873
20
-4.13346
11
5.84595
21
-4.13346
0
LINE
8
BLACK
6
CONTINUOUS
10
5.84595
20
-4.13346
11
5.85105
21
-4.13427
0
LINE
8
BLACK
6
CONTINUOUS
10
5.91306
20
-4.13427
11
5.91765
21
-4.13661
0
LINE
8
BLACK
6
CONTINUOUS
10
5.91765
20
-4.13661
11
5.9213
21
-4.14026
0
LINE
8
BLACK
6
CONTINUOUS
10
5.9213
20
-4.14026
11
5.92364
21
-4.14486
0
LINE
8
BLACK
6
CONTINUOUS
10
5.92364
20
-4.14486
11
5.92445
21
-4.14995
0
LINE
8
BLACK
6
CONTINUOUS
10
5.92445
20
-4.14995
11
5.92445
21
-4.17013
0
LINE
8
BLACK
6
CONTINUOUS
10
5.92445
20
-4.17013
11
5.92364
21
-4.17522
0
LINE
8
BLACK
6
CONTINUOUS
10
5.92364
20
-4.17522
11
5.9213
21
-4.17982
0
LINE
8
BLACK
6
CONTINUOUS
10
5.9213
20
-4.17982
11
5.91765
21
-4.18347
0
LINE
8
BLACK
6
CONTINUOUS
10
5.91765
20
-4.18347
11
5.91306
21
-4.18581
0
LINE
8
BLACK
6
CONTINUOUS
10
5.91306
20
-4.18581
11
5.90796
21
-4.18661
0
LINE
8
BLACK
6
CONTINUOUS
10
5.90796
20
-4.18661
11
5.89074
21
-4.18661
0
LINE
8
BLACK
6
CONTINUOUS
10
5.89074
20
-4.18661
11
5.88564
21
-4.18581
0
LINE
8
BLACK
6
CONTINUOUS
10
5.88564
20
-4.18581
11
5.88105
21
-4.18347
0
LINE
8
BLACK
6
CONTINUOUS
10
5.88105
20
-4.18347
11
5.8774
21
-4.17982
0
LINE
8
BLACK
6
CONTINUOUS
10
5.8774
20
-4.17982
11
5.87506
21
-4.17522
0
LINE
8
BLACK
6
CONTINUOUS
10
5.87506
20
-4.17522
11
5.87425
21
-4.17013
0
LINE
8
BLACK
6
CONTINUOUS
10
5.87425
20
-4.17013
11
5.87425
21
-4.14995
0
LINE
8
BLACK
6
CONTINUOUS
10
5.87425
20
-4.14995
11
5.87506
21
-4.14486
0
LINE
8
BLACK
6
CONTINUOUS
10
5.87506
20
-4.14486
11
5.8774
21
-4.14026
0
LINE
8
BLACK
6
CONTINUOUS
10
5.8774
20
-4.14026
11
5.88105
21
-4.13661
0
LINE
8
BLACK
6
CONTINUOUS
10
5.88105
20
-4.13661
11
5.88564
21
-4.13427
0
LINE
8
BLACK
6
CONTINUOUS
10
5.88564
20
-4.13427
11
5.89074
21
-4.13346
0
LINE
8
BLACK
6
CONTINUOUS
10
5.89074
20
-4.13346
11
5.90796
21
-4.13346
0
LINE
8
BLACK
6
CONTINUOUS
10
5.90796
20
-4.13346
11
5.91306
21
-4.13427
0
LINE
8
BLACK
6
CONTINUOUS
10
6.18824
20
-4.1268
11
6.19291
21
-4.12918
0
LINE
8
BLACK
6
CONTINUOUS
10
6.19291
20
-4.12918
11
6.19661
21
-4.13288
0
LINE
8
BLACK
6
CONTINUOUS
10
6.19661
20
-4.13288
11
6.19898
21
-4.13755
0
LINE
8
BLACK
6
CONTINUOUS
10
6.19898
20
-4.13755
11
6.1998
21
-4.14272
0
LINE
8
BLACK
6
CONTINUOUS
10
6.1998
20
-4.14272
11
6.1998
21
-4.16043
0
LINE
8
BLACK
6
CONTINUOUS
10
6.1998
20
-4.16043
11
6.19898
21
-4.1656
0
LINE
8
BLACK
6
CONTINUOUS
10
6.19898
20
-4.1656
11
6.19661
21
-4.17027
0
LINE
8
BLACK
6
CONTINUOUS
10
6.19661
20
-4.17027
11
6.19291
21
-4.17397
0
LINE
8
BLACK
6
CONTINUOUS
10
6.19291
20
-4.17397
11
6.18824
21
-4.17635
0
LINE
8
BLACK
6
CONTINUOUS
10
6.18824
20
-4.17635
11
6.18307
21
-4.17717
0
LINE
8
BLACK
6
CONTINUOUS
10
6.18307
20
-4.17717
11
6.16339
21
-4.17717
0
LINE
8
BLACK
6
CONTINUOUS
10
6.16339
20
-4.17717
11
6.15822
21
-4.17635
0
LINE
8
BLACK
6
CONTINUOUS
10
6.15822
20
-4.17635
11
6.15355
21
-4.17397
0
LINE
8
BLACK
6
CONTINUOUS
10
6.15355
20
-4.17397
11
6.14985
21
-4.17027
0
LINE
8
BLACK
6
CONTINUOUS
10
6.14985
20
-4.17027
11
6.14747
21
-4.1656
0
LINE
8
BLACK
6
CONTINUOUS
10
6.14747
20
-4.1656
11
6.14665
21
-4.16043
0
LINE
8
BLACK
6
CONTINUOUS
10
6.14665
20
-4.16043
11
6.14665
21
-4.14272
0
LINE
8
BLACK
6
CONTINUOUS
10
6.14665
20
-4.14272
11
6.14747
21
-4.13755
0
LINE
8
BLACK
6
CONTINUOUS
10
6.14747
20
-4.13755
11
6.14985
21
-4.13288
0
LINE
8
BLACK
6
CONTINUOUS
10
6.14985
20
-4.13288
11
6.15355
21
-4.12918
0
LINE
8
BLACK
6
CONTINUOUS
10
6.15355
20
-4.12918
11
6.15822
21
-4.1268
0
LINE
8
BLACK
6
CONTINUOUS
10
6.15822
20
-4.1268
11
6.16339
21
-4.12598
0
LINE
8
BLACK
6
CONTINUOUS
10
6.16339
20
-4.12598
11
6.18307
21
-4.12598
0
LINE
8
BLACK
6
CONTINUOUS
10
6.18307
20
-4.12598
11
6.18824
21
-4.1268
0
LINE
8
BLACK
6
CONTINUOUS
10
5.6449
20
-3.75106
11
5.65135
21
-3.75259
0
LINE
8
BLACK
6
CONTINUOUS
10
5.65135
20
-3.75259
11
5.65727
21
-3.75556
0
LINE
8
BLACK
6
CONTINUOUS
10
5.65727
20
-3.75556
11
5.66234
21
-3.75982
0
LINE
8
BLACK
6
CONTINUOUS
10
5.66234
20
-3.75982
11
5.6663
21
-3.76514
0
LINE
8
BLACK
6
CONTINUOUS
10
5.6663
20
-3.76514
11
5.66893
21
-3.77122
0
LINE
8
BLACK
6
CONTINUOUS
10
5.66893
20
-3.77122
11
5.67008
21
-3.77775
0
LINE
8
BLACK
6
CONTINUOUS
10
5.67008
20
-3.77775
11
5.66969
21
-3.78437
0
LINE
8
BLACK
6
CONTINUOUS
10
5.66969
20
-3.78437
11
5.66779
21
-3.79071
0
LINE
8
BLACK
6
CONTINUOUS
10
5.66779
20
-3.79071
11
5.66448
21
-3.79645
0
LINE
8
BLACK
6
CONTINUOUS
10
5.66448
20
-3.79645
11
5.65993
21
-3.80127
0
LINE
8
BLACK
6
CONTINUOUS
10
5.65993
20
-3.80127
11
5.65606
21
-3.80382
0
LINE
8
BLACK
6
CONTINUOUS
10
5.65606
20
-3.80382
11
5.66619
21
-3.80382
0
LINE
8
BLACK
6
CONTINUOUS
10
5.66619
20
-3.80382
11
5.6692
21
-3.80442
0
LINE
8
BLACK
6
CONTINUOUS
10
5.6692
20
-3.80442
11
5.67176
21
-3.80613
0
LINE
8
BLACK
6
CONTINUOUS
10
5.67176
20
-3.80613
11
5.67346
21
-3.80868
0
LINE
8
BLACK
6
CONTINUOUS
10
5.67346
20
-3.80868
11
5.67406
21
-3.81169
0
LINE
8
BLACK
6
CONTINUOUS
10
5.67406
20
-3.81169
11
5.67406
21
-3.83531
0
LINE
8
BLACK
6
CONTINUOUS
10
5.67406
20
-3.83531
11
5.67346
21
-3.83833
0
LINE
8
BLACK
6
CONTINUOUS
10
5.67346
20
-3.83833
11
5.67285
21
-3.83925
0
LINE
8
BLACK
6
CONTINUOUS
10
5.67285
20
-3.83925
11
5.67346
21
-3.84018
0
LINE
8
BLACK
6
CONTINUOUS
10
5.67346
20
-3.84018
11
5.67406
21
-3.84319
0
LINE
8
BLACK
6
CONTINUOUS
10
5.67406
20
-3.84319
11
5.67406
21
-3.86681
0
LINE
8
BLACK
6
CONTINUOUS
10
5.67406
20
-3.86681
11
5.67346
21
-3.86982
0
LINE
8
BLACK
6
CONTINUOUS
10
5.67346
20
-3.86982
11
5.67285
21
-3.87075
0
LINE
8
BLACK
6
CONTINUOUS
10
5.67285
20
-3.87075
11
5.67346
21
-3.87167
0
LINE
8
BLACK
6
CONTINUOUS
10
5.67346
20
-3.87167
11
5.67406
21
-3.87469
0
LINE
8
BLACK
6
CONTINUOUS
10
5.67406
20
-3.87469
11
5.67406
21
-3.8865
0
LINE
8
BLACK
6
CONTINUOUS
10
5.67406
20
-3.8865
11
5.67346
21
-3.88951
0
LINE
8
BLACK
6
CONTINUOUS
10
5.67346
20
-3.88951
11
5.67285
21
-3.89043
0
LINE
8
BLACK
6
CONTINUOUS
10
5.67285
20
-3.89043
11
5.67346
21
-3.89136
0
LINE
8
BLACK
6
CONTINUOUS
10
5.67346
20
-3.89136
11
5.67406
21
-3.89437
0
LINE
8
BLACK
6
CONTINUOUS
10
5.67406
20
-3.89437
11
5.67406
21
-3.90618
0
LINE
8
BLACK
6
CONTINUOUS
10
5.67406
20
-3.90618
11
5.67346
21
-3.90919
0
LINE
8
BLACK
6
CONTINUOUS
10
5.67346
20
-3.90919
11
5.67285
21
-3.91012
0
LINE
8
BLACK
6
CONTINUOUS
10
5.67285
20
-3.91012
11
5.67346
21
-3.91104
0
LINE
8
BLACK
6
CONTINUOUS
10
5.67346
20
-3.91104
11
5.67406
21
-3.91406
0
LINE
8
BLACK
6
CONTINUOUS
10
5.67406
20
-3.91406
11
5.67406
21
-3.92587
0
LINE
8
BLACK
6
CONTINUOUS
10
5.67406
20
-3.92587
11
5.67346
21
-3.92888
0
LINE
8
BLACK
6
CONTINUOUS
10
5.67346
20
-3.92888
11
5.67285
21
-3.9298
0
LINE
8
BLACK
6
CONTINUOUS
10
5.67285
20
-3.9298
11
5.67346
21
-3.93073
0
LINE
8
BLACK
6
CONTINUOUS
10
5.67346
20
-3.93073
11
5.67406
21
-3.93374
0
LINE
8
BLACK
6
CONTINUOUS
10
5.67406
20
-3.93374
11
5.67406
21
-3.94555
0
LINE
8
BLACK
6
CONTINUOUS
10
5.67406
20
-3.94555
11
5.67346
21
-3.94856
0
LINE
8
BLACK
6
CONTINUOUS
10
5.67346
20
-3.94856
11
5.67285
21
-3.94949
0
LINE
8
BLACK
6
CONTINUOUS
10
5.67285
20
-3.94949
11
5.67346
21
-3.95041
0
LINE
8
BLACK
6
CONTINUOUS
10
5.67346
20
-3.95041
11
5.67406
21
-3.95343
0
LINE
8
BLACK
6
CONTINUOUS
10
5.67406
20
-3.95343
11
5.67406
21
-3.96524
0
LINE
8
BLACK
6
CONTINUOUS
10
5.67406
20
-3.96524
11
5.67346
21
-3.96825
0
LINE
8
BLACK
6
CONTINUOUS
10
5.67346
20
-3.96825
11
5.67285
21
-3.96917
0
LINE
8
BLACK
6
CONTINUOUS
10
5.67285
20
-3.96917
11
5.67346
21
-3.9701
0
LINE
8
BLACK
6
CONTINUOUS
10
5.67346
20
-3.9701
11
5.67406
21
-3.97311
0
LINE
8
BLACK
6
CONTINUOUS
10
5.67406
20
-3.97311
11
5.67406
21
-3.98492
0
LINE
8
BLACK
6
CONTINUOUS
10
5.67406
20
-3.98492
11
5.67346
21
-3.98793
0
LINE
8
BLACK
6
CONTINUOUS
10
5.67346
20
-3.98793
11
5.67285
21
-3.98886
0
LINE
8
BLACK
6
CONTINUOUS
10
5.67285
20
-3.98886
11
5.67346
21
-3.98978
0
LINE
8
BLACK
6
CONTINUOUS
10
5.67346
20
-3.98978
11
5.67406
21
-3.9928
0
LINE
8
BLACK
6
CONTINUOUS
10
5.67406
20
-3.9928
11
5.67406
21
-4.00461
0
LINE
8
BLACK
6
CONTINUOUS
10
5.67406
20
-4.00461
11
5.67346
21
-4.00762
0
LINE
8
BLACK
6
CONTINUOUS
10
5.67346
20
-4.00762
11
5.67285
21
-4.00854
0
LINE
8
BLACK
6
CONTINUOUS
10
5.67285
20
-4.00854
11
5.67346
21
-4.00947
0
LINE
8
BLACK
6
CONTINUOUS
10
5.67346
20
-4.00947
11
5.67406
21
-4.01248
0
LINE
8
BLACK
6
CONTINUOUS
10
5.67406
20
-4.01248
11
5.67406
21
-4.02429
0
LINE
8
BLACK
6
CONTINUOUS
10
5.67406
20
-4.02429
11
5.67346
21
-4.0273
0
LINE
8
BLACK
6
CONTINUOUS
10
5.67346
20
-4.0273
11
5.67285
21
-4.02823
0
LINE
8
BLACK
6
CONTINUOUS
10
5.67285
20
-4.02823
11
5.67346
21
-4.02915
0
LINE
8
BLACK
6
CONTINUOUS
10
5.67346
20
-4.02915
11
5.67406
21
-4.03217
0
LINE
8
BLACK
6
CONTINUOUS
10
5.67406
20
-4.03217
11
5.67406
21
-4.05579
0
LINE
8
BLACK
6
CONTINUOUS
10
5.67406
20
-4.05579
11
5.67346
21
-4.0588
0
LINE
8
BLACK
6
CONTINUOUS
10
5.67346
20
-4.0588
11
5.67285
21
-4.05972
0
LINE
8
BLACK
6
CONTINUOUS
10
5.67285
20
-4.05972
11
5.67346
21
-4.06065
0
LINE
8
BLACK
6
CONTINUOUS
10
5.67346
20
-4.06065
11
5.67406
21
-4.06366
0
LINE
8
BLACK
6
CONTINUOUS
10
5.67406
20
-4.06366
11
5.67406
21
-4.08728
0
LINE
8
BLACK
6
CONTINUOUS
10
5.67406
20
-4.08728
11
5.67346
21
-4.0903
0
LINE
8
BLACK
6
CONTINUOUS
10
5.67346
20
-4.0903
11
5.67176
21
-4.09285
0
LINE
8
BLACK
6
CONTINUOUS
10
5.67176
20
-4.09285
11
5.6692
21
-4.09456
0
LINE
8
BLACK
6
CONTINUOUS
10
5.6692
20
-4.09456
11
5.66619
21
-4.09516
0
LINE
8
BLACK
6
CONTINUOUS
10
5.66619
20
-4.09516
11
5.65615
21
-4.09516
0
LINE
8
BLACK
6
CONTINUOUS
10
5.65615
20
-4.09516
11
5.65727
21
-4.09572
0
LINE
8
BLACK
6
CONTINUOUS
10
5.65727
20
-4.09572
11
5.66234
21
-4.09998
0
LINE
8
BLACK
6
CONTINUOUS
10
5.66234
20
-4.09998
11
5.6663
21
-4.1053
0
LINE
8
BLACK
6
CONTINUOUS
10
5.6663
20
-4.1053
11
5.66893
21
-4.11138
0
LINE
8
BLACK
6
CONTINUOUS
10
5.66893
20
-4.11138
11
5.67008
21
-4.11791
0
LINE
8
BLACK
6
CONTINUOUS
10
5.67008
20
-4.11791
11
5.66969
21
-4.12452
0
LINE
8
BLACK
6
CONTINUOUS
10
5.66969
20
-4.12452
11
5.66779
21
-4.13087
0
LINE
8
BLACK
6
CONTINUOUS
10
5.66779
20
-4.13087
11
5.66448
21
-4.13661
0
LINE
8
BLACK
6
CONTINUOUS
10
5.66448
20
-4.13661
11
5.65993
21
-4.14143
0
LINE
8
BLACK
6
CONTINUOUS
10
5.65993
20
-4.14143
11
5.65439
21
-4.14507
0
LINE
8
BLACK
6
CONTINUOUS
10
5.65439
20
-4.14507
11
5.64817
21
-4.14734
0
LINE
8
BLACK
6
CONTINUOUS
10
5.64817
20
-4.14734
11
5.64158
21
-4.14811
0
LINE
8
BLACK
6
CONTINUOUS
10
5.64158
20
-4.14811
11
5.60024
21
-4.14811
0
LINE
8
BLACK
6
CONTINUOUS
10
5.60024
20
-4.14811
11
5.59693
21
-4.14792
0
LINE
8
BLACK
6
CONTINUOUS
10
5.59693
20
-4.14792
11
5.59048
21
-4.14639
0
LINE
8
BLACK
6
CONTINUOUS
10
5.59048
20
-4.14639
11
5.58456
21
-4.14341
0
LINE
8
BLACK
6
CONTINUOUS
10
5.58456
20
-4.14341
11
5.57948
21
-4.13915
0
LINE
8
BLACK
6
CONTINUOUS
10
5.57948
20
-4.13915
11
5.57552
21
-4.13384
0
LINE
8
BLACK
6
CONTINUOUS
10
5.57552
20
-4.13384
11
5.5729
21
-4.12775
0
LINE
8
BLACK
6
CONTINUOUS
10
5.5729
20
-4.12775
11
5.57175
21
-4.12123
0
LINE
8
BLACK
6
CONTINUOUS
10
5.57175
20
-4.12123
11
5.57213
21
-4.11461
0
LINE
8
BLACK
6
CONTINUOUS
10
5.57213
20
-4.11461
11
5.57404
21
-4.10826
0
LINE
8
BLACK
6
CONTINUOUS
10
5.57404
20
-4.10826
11
5.57735
21
-4.10252
0
LINE
8
BLACK
6
CONTINUOUS
10
5.57735
20
-4.10252
11
5.5819
21
-4.0977
0
LINE
8
BLACK
6
CONTINUOUS
10
5.5819
20
-4.0977
11
5.58743
21
-4.09406
0
LINE
8
BLACK
6
CONTINUOUS
10
5.58743
20
-4.09406
11
5.59366
21
-4.09179
0
LINE
8
BLACK
6
CONTINUOUS
10
5.59366
20
-4.09179
11
5.60024
21
-4.09102
0
LINE
8
BLACK
6
CONTINUOUS
10
5.60024
20
-4.09102
11
5.61412
21
-4.09102
0
LINE
8
BLACK
6
CONTINUOUS
10
5.61412
20
-4.09102
11
5.61364
21
-4.0903
0
LINE
8
BLACK
6
CONTINUOUS
10
5.61364
20
-4.0903
11
5.61304
21
-4.08728
0
LINE
8
BLACK
6
CONTINUOUS
10
5.61304
20
-4.08728
11
5.61304
21
-4.08003
0
LINE
8
BLACK
6
CONTINUOUS
10
5.61304
20
-4.08003
11
5.61156
21
-4.08117
0
LINE
8
BLACK
6
CONTINUOUS
10
5.61156
20
-4.08117
11
5.60658
21
-4.08323
0
LINE
8
BLACK
6
CONTINUOUS
10
5.60658
20
-4.08323
11
5.60123
21
-4.08394
0
LINE
8
BLACK
6
CONTINUOUS
10
5.60123
20
-4.08394
11
5.59588
21
-4.08323
0
LINE
8
BLACK
6
CONTINUOUS
10
5.59588
20
-4.08323
11
5.59089
21
-4.08117
0
LINE
8
BLACK
6
CONTINUOUS
10
5.59089
20
-4.08117
11
5.58661
21
-4.07788
0
LINE
8
BLACK
6
CONTINUOUS
10
5.58661
20
-4.07788
11
5.58333
21
-4.0736
0
LINE
8
BLACK
6
CONTINUOUS
10
5.58333
20
-4.0736
11
5.58126
21
-4.06862
0
LINE
8
BLACK
6
CONTINUOUS
10
5.58126
20
-4.06862
11
5.58056
21
-4.06327
0
LINE
8
BLACK
6
CONTINUOUS
10
5.58056
20
-4.06327
11
5.58126
21
-4.05792
0
LINE
8
BLACK
6
CONTINUOUS
10
5.58126
20
-4.05792
11
5.58333
21
-4.05293
0
LINE
8
BLACK
6
CONTINUOUS
10
5.58333
20
-4.05293
11
5.58661
21
-4.04865
0
LINE
8
BLACK
6
CONTINUOUS
10
5.58661
20
-4.04865
11
5.59089
21
-4.04537
0
LINE
8
BLACK
6
CONTINUOUS
10
5.59089
20
-4.04537
11
5.59588
21
-4.0433
0
LINE
8
BLACK
6
CONTINUOUS
10
5.59588
20
-4.0433
11
5.60123
21
-4.0426
0
LINE
8
BLACK
6
CONTINUOUS
10
5.60123
20
-4.0426
11
5.60658
21
-4.0433
0
LINE
8
BLACK
6
CONTINUOUS
10
5.60658
20
-4.0433
11
5.61156
21
-4.04537
0
LINE
8
BLACK
6
CONTINUOUS
10
5.61156
20
-4.04537
11
5.61304
21
-4.0465
0
LINE
8
BLACK
6
CONTINUOUS
10
5.61304
20
-4.0465
11
5.61304
21
-4.03217
0
LINE
8
BLACK
6
CONTINUOUS
10
5.61304
20
-4.03217
11
5.61364
21
-4.02915
0
LINE
8
BLACK
6
CONTINUOUS
10
5.61364
20
-4.02915
11
5.61426
21
-4.02823
0
LINE
8
BLACK
6
CONTINUOUS
10
5.61426
20
-4.02823
11
5.61364
21
-4.0273
0
LINE
8
BLACK
6
CONTINUOUS
10
5.61364
20
-4.0273
11
5.61304
21
-4.02429
0
LINE
8
BLACK
6
CONTINUOUS
10
5.61304
20
-4.02429
11
5.61304
21
-4.01248
0
LINE
8
BLACK
6
CONTINUOUS
10
5.61304
20
-4.01248
11
5.61364
21
-4.00947
0
LINE
8
BLACK
6
CONTINUOUS
10
5.61364
20
-4.00947
11
5.61426
21
-4.00854
0
LINE
8
BLACK
6
CONTINUOUS
10
5.61426
20
-4.00854
11
5.61364
21
-4.00762
0
LINE
8
BLACK
6
CONTINUOUS
10
5.61364
20
-4.00762
11
5.61304
21
-4.00461
0
LINE
8
BLACK
6
CONTINUOUS
10
5.61304
20
-4.00461
11
5.61304
21
-3.9928
0
LINE
8
BLACK
6
CONTINUOUS
10
5.61304
20
-3.9928
11
5.61364
21
-3.98978
0
LINE
8
BLACK
6
CONTINUOUS
10
5.61364
20
-3.98978
11
5.61426
21
-3.98886
0
LINE
8
BLACK
6
CONTINUOUS
10
5.61426
20
-3.98886
11
5.61364
21
-3.98793
0
LINE
8
BLACK
6
CONTINUOUS
10
5.61364
20
-3.98793
11
5.61304
21
-3.98492
0
LINE
8
BLACK
6
CONTINUOUS
10
5.61304
20
-3.98492
11
5.61304
21
-3.97311
0
LINE
8
BLACK
6
CONTINUOUS
10
5.61304
20
-3.97311
11
5.61364
21
-3.9701
0
LINE
8
BLACK
6
CONTINUOUS
10
5.61364
20
-3.9701
11
5.61426
21
-3.96917
0
LINE
8
BLACK
6
CONTINUOUS
10
5.61426
20
-3.96917
11
5.61364
21
-3.96825
0
LINE
8
BLACK
6
CONTINUOUS
10
5.61364
20
-3.96825
11
5.61304
21
-3.96524
0
LINE
8
BLACK
6
CONTINUOUS
10
5.61304
20
-3.96524
11
5.61304
21
-3.95343
0
LINE
8
BLACK
6
CONTINUOUS
10
5.61304
20
-3.95343
11
5.61364
21
-3.95041
0
LINE
8
BLACK
6
CONTINUOUS
10
5.61364
20
-3.95041
11
5.61426
21
-3.94949
0
LINE
8
BLACK
6
CONTINUOUS
10
5.61426
20
-3.94949
11
5.61364
21
-3.94856
0
LINE
8
BLACK
6
CONTINUOUS
10
5.61364
20
-3.94856
11
5.61304
21
-3.94555
0
LINE
8
BLACK
6
CONTINUOUS
10
5.61304
20
-3.94555
11
5.61304
21
-3.93374
0
LINE
8
BLACK
6
CONTINUOUS
10
5.61304
20
-3.93374
11
5.61364
21
-3.93073
0
LINE
8
BLACK
6
CONTINUOUS
10
5.61364
20
-3.93073
11
5.61426
21
-3.9298
0
LINE
8
BLACK
6
CONTINUOUS
10
5.61426
20
-3.9298
11
5.61364
21
-3.92888
0
LINE
8
BLACK
6
CONTINUOUS
10
5.61364
20
-3.92888
11
5.61304
21
-3.92587
0
LINE
8
BLACK
6
CONTINUOUS
10
5.61304
20
-3.92587
11
5.61304
21
-3.91406
0
LINE
8
BLACK
6
CONTINUOUS
10
5.61304
20
-3.91406
11
5.61364
21
-3.91104
0
LINE
8
BLACK
6
CONTINUOUS
10
5.61364
20
-3.91104
11
5.61426
21
-3.91012
0
LINE
8
BLACK
6
CONTINUOUS
10
5.61426
20
-3.91012
11
5.61364
21
-3.90919
0
LINE
8
BLACK
6
CONTINUOUS
10
5.61364
20
-3.90919
11
5.61304
21
-3.90618
0
LINE
8
BLACK
6
CONTINUOUS
10
5.61304
20
-3.90618
11
5.61304
21
-3.89437
0
LINE
8
BLACK
6
CONTINUOUS
10
5.61304
20
-3.89437
11
5.61364
21
-3.89136
0
LINE
8
BLACK
6
CONTINUOUS
10
5.61364
20
-3.89136
11
5.61426
21
-3.89043
0
LINE
8
BLACK
6
CONTINUOUS
10
5.61426
20
-3.89043
11
5.61364
21
-3.88951
0
LINE
8
BLACK
6
CONTINUOUS
10
5.61364
20
-3.88951
11
5.61304
21
-3.8865
0
LINE
8
BLACK
6
CONTINUOUS
10
5.61304
20
-3.8865
11
5.61304
21
-3.87469
0
LINE
8
BLACK
6
CONTINUOUS
10
5.61304
20
-3.87469
11
5.61364
21
-3.87167
0
LINE
8
BLACK
6
CONTINUOUS
10
5.61364
20
-3.87167
11
5.61426
21
-3.87075
0
LINE
8
BLACK
6
CONTINUOUS
10
5.61426
20
-3.87075
11
5.61364
21
-3.86982
0
LINE
8
BLACK
6
CONTINUOUS
10
5.61364
20
-3.86982
11
5.61304
21
-3.86681
0
LINE
8
BLACK
6
CONTINUOUS
10
5.61304
20
-3.86681
11
5.61304
21
-3.85248
0
LINE
8
BLACK
6
CONTINUOUS
10
5.61304
20
-3.85248
11
5.61156
21
-3.85361
0
LINE
8
BLACK
6
CONTINUOUS
10
5.61156
20
-3.85361
11
5.60658
21
-3.85567
0
LINE
8
BLACK
6
CONTINUOUS
10
5.60658
20
-3.85567
11
5.60123
21
-3.85638
0
LINE
8
BLACK
6
CONTINUOUS
10
5.60123
20
-3.85638
11
5.59588
21
-3.85567
0
LINE
8
BLACK
6
CONTINUOUS
10
5.59588
20
-3.85567
11
5.59089
21
-3.85361
0
LINE
8
BLACK
6
CONTINUOUS
10
5.59089
20
-3.85361
11
5.58661
21
-3.85032
0
LINE
8
BLACK
6
CONTINUOUS
10
5.58661
20
-3.85032
11
5.58333
21
-3.84604
0
LINE
8
BLACK
6
CONTINUOUS
10
5.58333
20
-3.84604
11
5.58126
21
-3.84106
0
LINE
8
BLACK
6
CONTINUOUS
10
5.58126
20
-3.84106
11
5.58056
21
-3.83571
0
LINE
8
BLACK
6
CONTINUOUS
10
5.58056
20
-3.83571
11
5.58126
21
-3.83036
0
LINE
8
BLACK
6
CONTINUOUS
10
5.58126
20
-3.83036
11
5.58333
21
-3.82537
0
LINE
8
BLACK
6
CONTINUOUS
10
5.58333
20
-3.82537
11
5.58661
21
-3.82109
0
LINE
8
BLACK
6
CONTINUOUS
10
5.58661
20
-3.82109
11
5.59089
21
-3.81781
0
LINE
8
BLACK
6
CONTINUOUS
10
5.59089
20
-3.81781
11
5.59588
21
-3.81574
0
LINE
8
BLACK
6
CONTINUOUS
10
5.59588
20
-3.81574
11
5.60123
21
-3.81504
0
LINE
8
BLACK
6
CONTINUOUS
10
5.60123
20
-3.81504
11
5.60658
21
-3.81574
0
LINE
8
BLACK
6
CONTINUOUS
10
5.60658
20
-3.81574
11
5.61156
21
-3.81781
0
LINE
8
BLACK
6
CONTINUOUS
10
5.61156
20
-3.81781
11
5.61304
21
-3.81894
0
LINE
8
BLACK
6
CONTINUOUS
10
5.61304
20
-3.81894
11
5.61304
21
-3.81169
0
LINE
8
BLACK
6
CONTINUOUS
10
5.61304
20
-3.81169
11
5.61364
21
-3.80868
0
LINE
8
BLACK
6
CONTINUOUS
10
5.61364
20
-3.80868
11
5.61412
21
-3.80795
0
LINE
8
BLACK
6
CONTINUOUS
10
5.61412
20
-3.80795
11
5.60024
21
-3.80795
0
LINE
8
BLACK
6
CONTINUOUS
10
5.60024
20
-3.80795
11
5.59693
21
-3.80776
0
LINE
8
BLACK
6
CONTINUOUS
10
5.59693
20
-3.80776
11
5.59048
21
-3.80623
0
LINE
8
BLACK
6
CONTINUOUS
10
5.59048
20
-3.80623
11
5.58456
21
-3.80326
0
LINE
8
BLACK
6
CONTINUOUS
10
5.58456
20
-3.80326
11
5.57948
21
-3.799
0
LINE
8
BLACK
6
CONTINUOUS
10
5.57948
20
-3.799
11
5.57552
21
-3.79368
0
LINE
8
BLACK
6
CONTINUOUS
10
5.57552
20
-3.79368
11
5.5729
21
-3.7876
0
LINE
8
BLACK
6
CONTINUOUS
10
5.5729
20
-3.7876
11
5.57175
21
-3.78107
0
LINE
8
BLACK
6
CONTINUOUS
10
5.57175
20
-3.78107
11
5.57213
21
-3.77445
0
LINE
8
BLACK
6
CONTINUOUS
10
5.57213
20
-3.77445
11
5.57404
21
-3.7681
0
LINE
8
BLACK
6
CONTINUOUS
10
5.57404
20
-3.7681
11
5.57735
21
-3.76236
0
LINE
8
BLACK
6
CONTINUOUS
10
5.57735
20
-3.76236
11
5.5819
21
-3.75754
0
LINE
8
BLACK
6
CONTINUOUS
10
5.5819
20
-3.75754
11
5.58743
21
-3.7539
0
LINE
8
BLACK
6
CONTINUOUS
10
5.58743
20
-3.7539
11
5.59366
21
-3.75164
0
LINE
8
BLACK
6
CONTINUOUS
10
5.59366
20
-3.75164
11
5.60024
21
-3.75087
0
LINE
8
BLACK
6
CONTINUOUS
10
5.60024
20
-3.75087
11
5.64158
21
-3.75087
0
LINE
8
BLACK
6
CONTINUOUS
10
5.64158
20
-3.75087
11
5.6449
21
-3.75106
0
LINE
8
BLACK
6
CONTINUOUS
10
5.48263
20
-4.09281
11
5.48884
21
-4.09516
0
LINE
8
BLACK
6
CONTINUOUS
10
5.48884
20
-4.09516
11
5.49431
21
-4.09894
0
LINE
8
BLACK
6
CONTINUOUS
10
5.49431
20
-4.09894
11
5.49871
21
-4.10391
0
LINE
8
BLACK
6
CONTINUOUS
10
5.49871
20
-4.10391
11
5.5018
21
-4.10979
0
LINE
8
BLACK
6
CONTINUOUS
10
5.5018
20
-4.10979
11
5.50339
21
-4.11625
0
LINE
8
BLACK
6
CONTINUOUS
10
5.50339
20
-4.11625
11
5.50339
21
-4.12289
0
LINE
8
BLACK
6
CONTINUOUS
10
5.50339
20
-4.12289
11
5.5018
21
-4.12934
0
LINE
8
BLACK
6
CONTINUOUS
10
5.5018
20
-4.12934
11
5.49871
21
-4.13522
0
LINE
8
BLACK
6
CONTINUOUS
10
5.49871
20
-4.13522
11
5.49431
21
-4.1402
0
LINE
8
BLACK
6
CONTINUOUS
10
5.49431
20
-4.1402
11
5.48884
21
-4.14397
0
LINE
8
BLACK
6
CONTINUOUS
10
5.48884
20
-4.14397
11
5.48263
21
-4.14633
0
LINE
8
BLACK
6
CONTINUOUS
10
5.48263
20
-4.14633
11
5.47603
21
-4.14713
0
LINE
8
BLACK
6
CONTINUOUS
10
5.47603
20
-4.14713
11
5.43666
21
-4.14713
0
LINE
8
BLACK
6
CONTINUOUS
10
5.43666
20
-4.14713
11
5.43007
21
-4.14633
0
LINE
8
BLACK
6
CONTINUOUS
10
5.43007
20
-4.14633
11
5.42385
21
-4.14397
0
LINE
8
BLACK
6
CONTINUOUS
10
5.42385
20
-4.14397
11
5.41839
21
-4.1402
0
LINE
8
BLACK
6
CONTINUOUS
10
5.41839
20
-4.1402
11
5.41398
21
-4.13522
0
LINE
8
BLACK
6
CONTINUOUS
10
5.41398
20
-4.13522
11
5.41089
21
-4.12934
0
LINE
8
BLACK
6
CONTINUOUS
10
5.41089
20
-4.12934
11
5.4093
21
-4.12289
0
LINE
8
BLACK
6
CONTINUOUS
10
5.4093
20
-4.12289
11
5.4093
21
-4.11625
0
LINE
8
BLACK
6
CONTINUOUS
10
5.4093
20
-4.11625
11
5.41089
21
-4.10979
0
LINE
8
BLACK
6
CONTINUOUS
10
5.41089
20
-4.10979
11
5.41398
21
-4.10391
0
LINE
8
BLACK
6
CONTINUOUS
10
5.41398
20
-4.10391
11
5.41839
21
-4.09894
0
LINE
8
BLACK
6
CONTINUOUS
10
5.41839
20
-4.09894
11
5.42385
21
-4.09516
0
LINE
8
BLACK
6
CONTINUOUS
10
5.42385
20
-4.09516
11
5.43007
21
-4.09281
0
LINE
8
BLACK
6
CONTINUOUS
10
5.43007
20
-4.09281
11
5.43666
21
-4.09201
0
LINE
8
BLACK
6
CONTINUOUS
10
5.43666
20
-4.09201
11
5.47603
21
-4.09201
0
LINE
8
BLACK
6
CONTINUOUS
10
5.47603
20
-4.09201
11
5.48263
21
-4.09281
0
LINE
8
BLACK
6
CONTINUOUS
10
6.352
20
-4.10262
11
6.35608
21
-4.10461
0
LINE
8
BLACK
6
CONTINUOUS
10
6.35608
20
-4.10461
11
6.35929
21
-4.10782
0
LINE
8
BLACK
6
CONTINUOUS
10
6.35929
20
-4.10782
11
6.36128
21
-4.11189
0
LINE
8
BLACK
6
CONTINUOUS
10
6.36128
20
-4.11189
11
6.36185
21
-4.11583
0
LINE
8
BLACK
6
CONTINUOUS
10
6.36185
20
-4.11583
11
6.36185
21
-4.12764
0
LINE
8
BLACK
6
CONTINUOUS
10
6.36185
20
-4.12764
11
6.36128
21
-4.13157
0
LINE
8
BLACK
6
CONTINUOUS
10
6.36128
20
-4.13157
11
6.35929
21
-4.13564
0
LINE
8
BLACK
6
CONTINUOUS
10
6.35929
20
-4.13564
11
6.35608
21
-4.13885
0
LINE
8
BLACK
6
CONTINUOUS
10
6.35608
20
-4.13885
11
6.352
21
-4.14084
0
LINE
8
BLACK
6
CONTINUOUS
10
6.352
20
-4.14084
11
6.34807
21
-4.14142
0
LINE
8
BLACK
6
CONTINUOUS
10
6.34807
20
-4.14142
11
6.29295
21
-4.14142
0
LINE
8
BLACK
6
CONTINUOUS
10
6.29295
20
-4.14142
11
6.28902
21
-4.14084
0
LINE
8
BLACK
6
CONTINUOUS
10
6.28902
20
-4.14084
11
6.28495
21
-4.13885
0
LINE
8
BLACK
6
CONTINUOUS
10
6.28495
20
-4.13885
11
6.28174
21
-4.13564
0
LINE
8
BLACK
6
CONTINUOUS
10
6.28174
20
-4.13564
11
6.27975
21
-4.13157
0
LINE
8
BLACK
6
CONTINUOUS
10
6.27975
20
-4.13157
11
6.27917
21
-4.12764
0
LINE
8
BLACK
6
CONTINUOUS
10
6.27917
20
-4.12764
11
6.27917
21
-4.11583
0
LINE
8
BLACK
6
CONTINUOUS
10
6.27917
20
-4.11583
11
6.27975
21
-4.11189
0
LINE
8
BLACK
6
CONTINUOUS
10
6.27975
20
-4.11189
11
6.28174
21
-4.10782
0
LINE
8
BLACK
6
CONTINUOUS
10
6.28174
20
-4.10782
11
6.28495
21
-4.10461
0
LINE
8
BLACK
6
CONTINUOUS
10
6.28495
20
-4.10461
11
6.28902
21
-4.10262
0
LINE
8
BLACK
6
CONTINUOUS
10
6.28902
20
-4.10262
11
6.29295
21
-4.10205
0
LINE
8
BLACK
6
CONTINUOUS
10
6.29295
20
-4.10205
11
6.34807
21
-4.10205
0
LINE
8
BLACK
6
CONTINUOUS
10
6.34807
20
-4.10205
11
6.352
21
-4.10262
0
LINE
8
BLACK
6
CONTINUOUS
10
6.18824
20
-4.06578
11
6.19291
21
-4.06816
0
LINE
8
BLACK
6
CONTINUOUS
10
6.19291
20
-4.06816
11
6.19661
21
-4.07186
0
LINE
8
BLACK
6
CONTINUOUS
10
6.19661
20
-4.07186
11
6.19898
21
-4.07652
0
LINE
8
BLACK
6
CONTINUOUS
10
6.19898
20
-4.07652
11
6.1998
21
-4.08169
0
LINE
8
BLACK
6
CONTINUOUS
10
6.1998
20
-4.08169
11
6.1998
21
-4.09941
0
LINE
8
BLACK
6
CONTINUOUS
10
6.1998
20
-4.09941
11
6.19898
21
-4.10458
0
LINE
8
BLACK
6
CONTINUOUS
10
6.19898
20
-4.10458
11
6.19661
21
-4.10924
0
LINE
8
BLACK
6
CONTINUOUS
10
6.19661
20
-4.10924
11
6.19291
21
-4.11295
0
LINE
8
BLACK
6
CONTINUOUS
10
6.19291
20
-4.11295
11
6.18824
21
-4.11532
0
LINE
8
BLACK
6
CONTINUOUS
10
6.18824
20
-4.11532
11
6.18307
21
-4.11614
0
LINE
8
BLACK
6
CONTINUOUS
10
6.18307
20
-4.11614
11
6.16339
21
-4.11614
0
LINE
8
BLACK
6
CONTINUOUS
10
6.16339
20
-4.11614
11
6.15822
21
-4.11532
0
LINE
8
BLACK
6
CONTINUOUS
10
6.15822
20
-4.11532
11
6.15355
21
-4.11295
0
LINE
8
BLACK
6
CONTINUOUS
10
6.15355
20
-4.11295
11
6.14985
21
-4.10924
0
LINE
8
BLACK
6
CONTINUOUS
10
6.14985
20
-4.10924
11
6.14747
21
-4.10458
0
LINE
8
BLACK
6
CONTINUOUS
10
6.14747
20
-4.10458
11
6.14665
21
-4.09941
0
LINE
8
BLACK
6
CONTINUOUS
10
6.14665
20
-4.09941
11
6.14665
21
-4.08169
0
LINE
8
BLACK
6
CONTINUOUS
10
6.14665
20
-4.08169
11
6.14747
21
-4.07652
0
LINE
8
BLACK
6
CONTINUOUS
10
6.14747
20
-4.07652
11
6.14985
21
-4.07186
0
LINE
8
BLACK
6
CONTINUOUS
10
6.14985
20
-4.07186
11
6.15355
21
-4.06816
0
LINE
8
BLACK
6
CONTINUOUS
10
6.15355
20
-4.06816
11
6.15822
21
-4.06578
0
LINE
8
BLACK
6
CONTINUOUS
10
6.15822
20
-4.06578
11
6.16339
21
-4.06496
0
LINE
8
BLACK
6
CONTINUOUS
10
6.16339
20
-4.06496
11
6.18307
21
-4.06496
0
LINE
8
BLACK
6
CONTINUOUS
10
6.18307
20
-4.06496
11
6.18824
21
-4.06578
0
LINE
8
BLACK
6
CONTINUOUS
10
6.4931
20
-4.02165
11
6.49808
21
-4.02339
0
LINE
8
BLACK
6
CONTINUOUS
10
6.49808
20
-4.02339
11
6.50233
21
-4.02653
0
LINE
8
BLACK
6
CONTINUOUS
10
6.50233
20
-4.02653
11
6.50547
21
-4.03078
0
LINE
8
BLACK
6
CONTINUOUS
10
6.50547
20
-4.03078
11
6.50721
21
-4.03576
0
LINE
8
BLACK
6
CONTINUOUS
10
6.50721
20
-4.03576
11
6.50752
21
-4.03906
0
LINE
8
BLACK
6
CONTINUOUS
10
6.50752
20
-4.03906
11
6.50752
21
-4.05874
0
LINE
8
BLACK
6
CONTINUOUS
10
6.50752
20
-4.05874
11
6.50721
21
-4.06203
0
LINE
8
BLACK
6
CONTINUOUS
10
6.50721
20
-4.06203
11
6.50547
21
-4.06702
0
LINE
8
BLACK
6
CONTINUOUS
10
6.50547
20
-4.06702
11
6.50233
21
-4.07127
0
LINE
8
BLACK
6
CONTINUOUS
10
6.50233
20
-4.07127
11
6.49808
21
-4.0744
0
LINE
8
BLACK
6
CONTINUOUS
10
6.49808
20
-4.0744
11
6.4931
21
-4.07615
0
LINE
8
BLACK
6
CONTINUOUS
10
6.4931
20
-4.07615
11
6.4898
21
-4.07646
0
LINE
8
BLACK
6
CONTINUOUS
10
6.4898
20
-4.07646
11
6.40319
21
-4.07646
0
LINE
8
BLACK
6
CONTINUOUS
10
6.40319
20
-4.07646
11
6.3999
21
-4.07615
0
LINE
8
BLACK
6
CONTINUOUS
10
6.3999
20
-4.07615
11
6.39491
21
-4.0744
0
LINE
8
BLACK
6
CONTINUOUS
10
6.39491
20
-4.0744
11
6.39066
21
-4.07127
0
LINE
8
BLACK
6
CONTINUOUS
10
6.39066
20
-4.07127
11
6.38753
21
-4.06702
0
LINE
8
BLACK
6
CONTINUOUS
10
6.38753
20
-4.06702
11
6.38578
21
-4.06203
0
LINE
8
BLACK
6
CONTINUOUS
10
6.38578
20
-4.06203
11
6.38547
21
-4.05874
0
LINE
8
BLACK
6
CONTINUOUS
10
6.38547
20
-4.05874
11
6.38547
21
-4.03906
0
LINE
8
BLACK
6
CONTINUOUS
10
6.38547
20
-4.03906
11
6.38578
21
-4.03576
0
LINE
8
BLACK
6
CONTINUOUS
10
6.38578
20
-4.03576
11
6.38753
21
-4.03078
0
LINE
8
BLACK
6
CONTINUOUS
10
6.38753
20
-4.03078
11
6.39066
21
-4.02653
0
LINE
8
BLACK
6
CONTINUOUS
10
6.39066
20
-4.02653
11
6.39491
21
-4.02339
0
LINE
8
BLACK
6
CONTINUOUS
10
6.39491
20
-4.02339
11
6.3999
21
-4.02165
0
LINE
8
BLACK
6
CONTINUOUS
10
6.3999
20
-4.02165
11
6.40319
21
-4.02134
0
LINE
8
BLACK
6
CONTINUOUS
10
6.40319
20
-4.02134
11
6.4898
21
-4.02134
0
LINE
8
BLACK
6
CONTINUOUS
10
6.4898
20
-4.02134
11
6.4931
21
-4.02165
0
LINE
8
BLACK
6
CONTINUOUS
10
6.06539
20
-3.84988
11
6.06874
21
-3.85212
0
LINE
8
BLACK
6
CONTINUOUS
10
6.06874
20
-3.85212
11
6.06882
21
-3.85223
0
LINE
8
BLACK
6
CONTINUOUS
10
6.06882
20
-3.85223
11
6.06889
21
-3.85212
0
LINE
8
BLACK
6
CONTINUOUS
10
6.06889
20
-3.85212
11
6.07225
21
-3.84988
0
LINE
8
BLACK
6
CONTINUOUS
10
6.07225
20
-3.84988
11
6.0762
21
-3.84909
0
LINE
8
BLACK
6
CONTINUOUS
10
6.0762
20
-3.84909
11
6.08112
21
-3.84909
0
LINE
8
BLACK
6
CONTINUOUS
10
6.08112
20
-3.84909
11
6.08508
21
-3.84988
0
LINE
8
BLACK
6
CONTINUOUS
10
6.08508
20
-3.84988
11
6.08843
21
-3.85212
0
LINE
8
BLACK
6
CONTINUOUS
10
6.08843
20
-3.85212
11
6.0885
21
-3.85223
0
LINE
8
BLACK
6
CONTINUOUS
10
6.0885
20
-3.85223
11
6.08858
21
-3.85212
0
LINE
8
BLACK
6
CONTINUOUS
10
6.08858
20
-3.85212
11
6.09193
21
-3.84988
0
LINE
8
BLACK
6
CONTINUOUS
10
6.09193
20
-3.84988
11
6.09589
21
-3.84909
0
LINE
8
BLACK
6
CONTINUOUS
10
6.09589
20
-3.84909
11
6.10081
21
-3.84909
0
LINE
8
BLACK
6
CONTINUOUS
10
6.10081
20
-3.84909
11
6.10476
21
-3.84988
0
LINE
8
BLACK
6
CONTINUOUS
10
6.10476
20
-3.84988
11
6.10811
21
-3.85212
0
LINE
8
BLACK
6
CONTINUOUS
10
6.10811
20
-3.85212
11
6.10819
21
-3.85223
0
LINE
8
BLACK
6
CONTINUOUS
10
6.10819
20
-3.85223
11
6.10826
21
-3.85212
0
LINE
8
BLACK
6
CONTINUOUS
10
6.10826
20
-3.85212
11
6.11162
21
-3.84988
0
LINE
8
BLACK
6
CONTINUOUS
10
6.11162
20
-3.84988
11
6.11557
21
-3.84909
0
LINE
8
BLACK
6
CONTINUOUS
10
6.11557
20
-3.84909
11
6.12049
21
-3.84909
0
LINE
8
BLACK
6
CONTINUOUS
10
6.12049
20
-3.84909
11
6.12445
21
-3.84988
0
LINE
8
BLACK
6
CONTINUOUS
10
6.12445
20
-3.84988
11
6.1278
21
-3.85212
0
LINE
8
BLACK
6
CONTINUOUS
10
6.1278
20
-3.85212
11
6.12787
21
-3.85223
0
LINE
8
BLACK
6
CONTINUOUS
10
6.12787
20
-3.85223
11
6.12795
21
-3.85212
0
LINE
8
BLACK
6
CONTINUOUS
10
6.12795
20
-3.85212
11
6.1313
21
-3.84988
0
LINE
8
BLACK
6
CONTINUOUS
10
6.1313
20
-3.84988
11
6.13526
21
-3.84909
0
LINE
8
BLACK
6
CONTINUOUS
10
6.13526
20
-3.84909
11
6.14018
21
-3.84909
0
LINE
8
BLACK
6
CONTINUOUS
10
6.14018
20
-3.84909
11
6.14413
21
-3.84988
0
LINE
8
BLACK
6
CONTINUOUS
10
6.14413
20
-3.84988
11
6.14748
21
-3.85212
0
LINE
8
BLACK
6
CONTINUOUS
10
6.14748
20
-3.85212
11
6.14973
21
-3.85547
0
LINE
8
BLACK
6
CONTINUOUS
10
6.14973
20
-3.85547
11
6.15051
21
-3.85943
0
LINE
8
BLACK
6
CONTINUOUS
10
6.15051
20
-3.85943
11
6.15051
21
-3.88699
0
LINE
8
BLACK
6
CONTINUOUS
10
6.15051
20
-3.88699
11
6.14973
21
-3.89094
0
LINE
8
BLACK
6
CONTINUOUS
10
6.14973
20
-3.89094
11
6.14861
21
-3.89261
0
LINE
8
BLACK
6
CONTINUOUS
10
6.14861
20
-3.89261
11
6.15057
21
-3.893
0
LINE
8
BLACK
6
CONTINUOUS
10
6.15057
20
-3.893
11
6.15313
21
-3.89471
0
LINE
8
BLACK
6
CONTINUOUS
10
6.15313
20
-3.89471
11
6.15483
21
-3.89726
0
LINE
8
BLACK
6
CONTINUOUS
10
6.15483
20
-3.89726
11
6.15522
21
-3.89922
0
LINE
8
BLACK
6
CONTINUOUS
10
6.15522
20
-3.89922
11
6.15689
21
-3.89811
0
LINE
8
BLACK
6
CONTINUOUS
10
6.15689
20
-3.89811
11
6.16085
21
-3.89732
0
LINE
8
BLACK
6
CONTINUOUS
10
6.16085
20
-3.89732
11
6.18841
21
-3.89732
0
LINE
8
BLACK
6
CONTINUOUS
10
6.18841
20
-3.89732
11
6.19236
21
-3.89811
0
LINE
8
BLACK
6
CONTINUOUS
10
6.19236
20
-3.89811
11
6.19571
21
-3.90035
0
LINE
8
BLACK
6
CONTINUOUS
10
6.19571
20
-3.90035
11
6.19795
21
-3.9037
0
LINE
8
BLACK
6
CONTINUOUS
10
6.19795
20
-3.9037
11
6.19874
21
-3.90766
0
LINE
8
BLACK
6
CONTINUOUS
10
6.19874
20
-3.90766
11
6.19874
21
-3.91258
0
LINE
8
BLACK
6
CONTINUOUS
10
6.19874
20
-3.91258
11
6.19795
21
-3.91653
0
LINE
8
BLACK
6
CONTINUOUS
10
6.19795
20
-3.91653
11
6.19571
21
-3.91989
0
LINE
8
BLACK
6
CONTINUOUS
10
6.19571
20
-3.91989
11
6.1956
21
-3.91996
0
LINE
8
BLACK
6
CONTINUOUS
10
6.1956
20
-3.91996
11
6.19571
21
-3.92003
0
LINE
8
BLACK
6
CONTINUOUS
10
6.19571
20
-3.92003
11
6.19795
21
-3.92339
0
LINE
8
BLACK
6
CONTINUOUS
10
6.19795
20
-3.92339
11
6.19874
21
-3.92734
0
LINE
8
BLACK
6
CONTINUOUS
10
6.19874
20
-3.92734
11
6.19874
21
-3.93226
0
LINE
8
BLACK
6
CONTINUOUS
10
6.19874
20
-3.93226
11
6.19795
21
-3.93622
0
LINE
8
BLACK
6
CONTINUOUS
10
6.19795
20
-3.93622
11
6.19571
21
-3.93957
0
LINE
8
BLACK
6
CONTINUOUS
10
6.19571
20
-3.93957
11
6.1956
21
-3.93965
0
LINE
8
BLACK
6
CONTINUOUS
10
6.1956
20
-3.93965
11
6.19571
21
-3.93972
0
LINE
8
BLACK
6
CONTINUOUS
10
6.19571
20
-3.93972
11
6.19795
21
-3.94307
0
LINE
8
BLACK
6
CONTINUOUS
10
6.19795
20
-3.94307
11
6.19874
21
-3.94703
0
LINE
8
BLACK
6
CONTINUOUS
10
6.19874
20
-3.94703
11
6.19874
21
-3.95195
0
LINE
8
BLACK
6
CONTINUOUS
10
6.19874
20
-3.95195
11
6.19795
21
-3.9559
0
LINE
8
BLACK
6
CONTINUOUS
10
6.19795
20
-3.9559
11
6.19571
21
-3.95926
0
LINE
8
BLACK
6
CONTINUOUS
10
6.19571
20
-3.95926
11
6.1956
21
-3.95933
0
LINE
8
BLACK
6
CONTINUOUS
10
6.1956
20
-3.95933
11
6.19571
21
-3.9594
0
LINE
8
BLACK
6
CONTINUOUS
10
6.19571
20
-3.9594
11
6.19795
21
-3.96276
0
LINE
8
BLACK
6
CONTINUOUS
10
6.19795
20
-3.96276
11
6.19874
21
-3.96671
0
LINE
8
BLACK
6
CONTINUOUS
10
6.19874
20
-3.96671
11
6.19874
21
-3.97163
0
LINE
8
BLACK
6
CONTINUOUS
10
6.19874
20
-3.97163
11
6.19795
21
-3.97559
0
LINE
8
BLACK
6
CONTINUOUS
10
6.19795
20
-3.97559
11
6.19571
21
-3.97894
0
LINE
8
BLACK
6
CONTINUOUS
10
6.19571
20
-3.97894
11
6.1956
21
-3.97902
0
LINE
8
BLACK
6
CONTINUOUS
10
6.1956
20
-3.97902
11
6.19571
21
-3.97909
0
LINE
8
BLACK
6
CONTINUOUS
10
6.19571
20
-3.97909
11
6.19795
21
-3.98244
0
LINE
8
BLACK
6
CONTINUOUS
10
6.19795
20
-3.98244
11
6.19874
21
-3.9864
0
LINE
8
BLACK
6
CONTINUOUS
10
6.19874
20
-3.9864
11
6.19874
21
-3.99132
0
LINE
8
BLACK
6
CONTINUOUS
10
6.19874
20
-3.99132
11
6.19795
21
-3.99527
0
LINE
8
BLACK
6
CONTINUOUS
10
6.19795
20
-3.99527
11
6.19571
21
-3.99863
0
LINE
8
BLACK
6
CONTINUOUS
10
6.19571
20
-3.99863
11
6.19236
21
-4.00087
0
LINE
8
BLACK
6
CONTINUOUS
10
6.19236
20
-4.00087
11
6.18841
21
-4.00165
0
LINE
8
BLACK
6
CONTINUOUS
10
6.18841
20
-4.00165
11
6.16085
21
-4.00165
0
LINE
8
BLACK
6
CONTINUOUS
10
6.16085
20
-4.00165
11
6.15689
21
-4.00087
0
LINE
8
BLACK
6
CONTINUOUS
10
6.15689
20
-4.00087
11
6.15522
21
-3.99975
0
LINE
8
BLACK
6
CONTINUOUS
10
6.15522
20
-3.99975
11
6.15483
21
-4.00171
0
LINE
8
BLACK
6
CONTINUOUS
10
6.15483
20
-4.00171
11
6.15313
21
-4.00427
0
LINE
8
BLACK
6
CONTINUOUS
10
6.15313
20
-4.00427
11
6.15057
21
-4.00598
0
LINE
8
BLACK
6
CONTINUOUS
10
6.15057
20
-4.00598
11
6.14861
21
-4.00637
0
LINE
8
BLACK
6
CONTINUOUS
10
6.14861
20
-4.00637
11
6.14973
21
-4.00803
0
LINE
8
BLACK
6
CONTINUOUS
10
6.14973
20
-4.00803
11
6.15051
21
-4.01199
0
LINE
8
BLACK
6
CONTINUOUS
10
6.15051
20
-4.01199
11
6.15051
21
-4.03955
0
LINE
8
BLACK
6
CONTINUOUS
10
6.15051
20
-4.03955
11
6.14973
21
-4.0435
0
LINE
8
BLACK
6
CONTINUOUS
10
6.14973
20
-4.0435
11
6.14748
21
-4.04685
0
LINE
8
BLACK
6
CONTINUOUS
10
6.14748
20
-4.04685
11
6.14413
21
-4.0491
0
LINE
8
BLACK
6
CONTINUOUS
10
6.14413
20
-4.0491
11
6.14018
21
-4.04988
0
LINE
8
BLACK
6
CONTINUOUS
10
6.14018
20
-4.04988
11
6.13526
21
-4.04988
0
LINE
8
BLACK
6
CONTINUOUS
10
6.13526
20
-4.04988
11
6.1313
21
-4.0491
0
LINE
8
BLACK
6
CONTINUOUS
10
6.1313
20
-4.0491
11
6.12795
21
-4.04685
0
LINE
8
BLACK
6
CONTINUOUS
10
6.12795
20
-4.04685
11
6.12787
21
-4.04674
0
LINE
8
BLACK
6
CONTINUOUS
10
6.12787
20
-4.04674
11
6.1278
21
-4.04685
0
LINE
8
BLACK
6
CONTINUOUS
10
6.1278
20
-4.04685
11
6.12445
21
-4.0491
0
LINE
8
BLACK
6
CONTINUOUS
10
6.12445
20
-4.0491
11
6.12049
21
-4.04988
0
LINE
8
BLACK
6
CONTINUOUS
10
6.12049
20
-4.04988
11
6.11557
21
-4.04988
0
LINE
8
BLACK
6
CONTINUOUS
10
6.11557
20
-4.04988
11
6.11162
21
-4.0491
0
LINE
8
BLACK
6
CONTINUOUS
10
6.11162
20
-4.0491
11
6.10826
21
-4.04685
0
LINE
8
BLACK
6
CONTINUOUS
10
6.10826
20
-4.04685
11
6.10819
21
-4.04674
0
LINE
8
BLACK
6
CONTINUOUS
10
6.10819
20
-4.04674
11
6.10811
21
-4.04685
0
LINE
8
BLACK
6
CONTINUOUS
10
6.10811
20
-4.04685
11
6.10476
21
-4.0491
0
LINE
8
BLACK
6
CONTINUOUS
10
6.10476
20
-4.0491
11
6.10081
21
-4.04988
0
LINE
8
BLACK
6
CONTINUOUS
10
6.10081
20
-4.04988
11
6.09589
21
-4.04988
0
LINE
8
BLACK
6
CONTINUOUS
10
6.09589
20
-4.04988
11
6.09193
21
-4.0491
0
LINE
8
BLACK
6
CONTINUOUS
10
6.09193
20
-4.0491
11
6.08858
21
-4.04685
0
LINE
8
BLACK
6
CONTINUOUS
10
6.08858
20
-4.04685
11
6.0885
21
-4.04674
0
LINE
8
BLACK
6
CONTINUOUS
10
6.0885
20
-4.04674
11
6.08843
21
-4.04685
0
LINE
8
BLACK
6
CONTINUOUS
10
6.08843
20
-4.04685
11
6.08508
21
-4.0491
0
LINE
8
BLACK
6
CONTINUOUS
10
6.08508
20
-4.0491
11
6.08112
21
-4.04988
0
LINE
8
BLACK
6
CONTINUOUS
10
6.08112
20
-4.04988
11
6.0762
21
-4.04988
0
LINE
8
BLACK
6
CONTINUOUS
10
6.0762
20
-4.04988
11
6.07225
21
-4.0491
0
LINE
8
BLACK
6
CONTINUOUS
10
6.07225
20
-4.0491
11
6.06889
21
-4.04685
0
LINE
8
BLACK
6
CONTINUOUS
10
6.06889
20
-4.04685
11
6.06882
21
-4.04674
0
LINE
8
BLACK
6
CONTINUOUS
10
6.06882
20
-4.04674
11
6.06874
21
-4.04685
0
LINE
8
BLACK
6
CONTINUOUS
10
6.06874
20
-4.04685
11
6.06539
21
-4.0491
0
LINE
8
BLACK
6
CONTINUOUS
10
6.06539
20
-4.0491
11
6.06144
21
-4.04988
0
LINE
8
BLACK
6
CONTINUOUS
10
6.06144
20
-4.04988
11
6.05652
21
-4.04988
0
LINE
8
BLACK
6
CONTINUOUS
10
6.05652
20
-4.04988
11
6.05256
21
-4.0491
0
LINE
8
BLACK
6
CONTINUOUS
10
6.05256
20
-4.0491
11
6.04921
21
-4.04685
0
LINE
8
BLACK
6
CONTINUOUS
10
6.04921
20
-4.04685
11
6.04697
21
-4.0435
0
LINE
8
BLACK
6
CONTINUOUS
10
6.04697
20
-4.0435
11
6.04618
21
-4.03955
0
LINE
8
BLACK
6
CONTINUOUS
10
6.04618
20
-4.03955
11
6.04618
21
-4.01199
0
LINE
8
BLACK
6
CONTINUOUS
10
6.04618
20
-4.01199
11
6.04697
21
-4.00803
0
LINE
8
BLACK
6
CONTINUOUS
10
6.04697
20
-4.00803
11
6.04808
21
-4.00637
0
LINE
8
BLACK
6
CONTINUOUS
10
6.04808
20
-4.00637
11
6.04612
21
-4.00598
0
LINE
8
BLACK
6
CONTINUOUS
10
6.04612
20
-4.00598
11
6.04357
21
-4.00427
0
LINE
8
BLACK
6
CONTINUOUS
10
6.04357
20
-4.00427
11
6.04186
21
-4.00171
0
LINE
8
BLACK
6
CONTINUOUS
10
6.04186
20
-4.00171
11
6.04147
21
-3.99975
0
LINE
8
BLACK
6
CONTINUOUS
10
6.04147
20
-3.99975
11
6.0398
21
-4.00087
0
LINE
8
BLACK
6
CONTINUOUS
10
6.0398
20
-4.00087
11
6.03585
21
-4.00165
0
LINE
8
BLACK
6
CONTINUOUS
10
6.03585
20
-4.00165
11
6.00829
21
-4.00165
0
LINE
8
BLACK
6
CONTINUOUS
10
6.00829
20
-4.00165
11
6.00433
21
-4.00087
0
LINE
8
BLACK
6
CONTINUOUS
10
6.00433
20
-4.00087
11
6.00098
21
-3.99863
0
LINE
8
BLACK
6
CONTINUOUS
10
6.00098
20
-3.99863
11
5.99874
21
-3.99527
0
LINE
8
BLACK
6
CONTINUOUS
10
5.99874
20
-3.99527
11
5.99795
21
-3.99132
0
LINE
8
BLACK
6
CONTINUOUS
10
5.99795
20
-3.99132
11
5.99795
21
-3.9864
0
LINE
8
BLACK
6
CONTINUOUS
10
5.99795
20
-3.9864
11
5.99874
21
-3.98244
0
LINE
8
BLACK
6
CONTINUOUS
10
5.99874
20
-3.98244
11
6.00098
21
-3.97909
0
LINE
8
BLACK
6
CONTINUOUS
10
6.00098
20
-3.97909
11
6.00109
21
-3.97902
0
LINE
8
BLACK
6
CONTINUOUS
10
6.00109
20
-3.97902
11
6.00098
21
-3.97894
0
LINE
8
BLACK
6
CONTINUOUS
10
6.00098
20
-3.97894
11
5.99874
21
-3.97559
0
LINE
8
BLACK
6
CONTINUOUS
10
5.99874
20
-3.97559
11
5.99795
21
-3.97163
0
LINE
8
BLACK
6
CONTINUOUS
10
5.99795
20
-3.97163
11
5.99795
21
-3.96671
0
LINE
8
BLACK
6
CONTINUOUS
10
5.99795
20
-3.96671
11
5.99874
21
-3.96276
0
LINE
8
BLACK
6
CONTINUOUS
10
5.99874
20
-3.96276
11
6.00098
21
-3.9594
0
LINE
8
BLACK
6
CONTINUOUS
10
6.00098
20
-3.9594
11
6.00109
21
-3.95933
0
LINE
8
BLACK
6
CONTINUOUS
10
6.00109
20
-3.95933
11
6.00098
21
-3.95926
0
LINE
8
BLACK
6
CONTINUOUS
10
6.00098
20
-3.95926
11
5.99874
21
-3.9559
0
LINE
8
BLACK
6
CONTINUOUS
10
5.99874
20
-3.9559
11
5.99795
21
-3.95195
0
LINE
8
BLACK
6
CONTINUOUS
10
5.99795
20
-3.95195
11
5.99795
21
-3.94703
0
LINE
8
BLACK
6
CONTINUOUS
10
5.99795
20
-3.94703
11
5.99874
21
-3.94307
0
LINE
8
BLACK
6
CONTINUOUS
10
5.99874
20
-3.94307
11
6.00098
21
-3.93972
0
LINE
8
BLACK
6
CONTINUOUS
10
6.00098
20
-3.93972
11
6.00109
21
-3.93965
0
LINE
8
BLACK
6
CONTINUOUS
10
6.00109
20
-3.93965
11
6.00098
21
-3.93957
0
LINE
8
BLACK
6
CONTINUOUS
10
6.00098
20
-3.93957
11
5.99874
21
-3.93622
0
LINE
8
BLACK
6
CONTINUOUS
10
5.99874
20
-3.93622
11
5.99795
21
-3.93226
0
LINE
8
BLACK
6
CONTINUOUS
10
5.99795
20
-3.93226
11
5.99795
21
-3.92734
0
LINE
8
BLACK
6
CONTINUOUS
10
5.99795
20
-3.92734
11
5.99874
21
-3.92339
0
LINE
8
BLACK
6
CONTINUOUS
10
5.99874
20
-3.92339
11
6.00098
21
-3.92003
0
LINE
8
BLACK
6
CONTINUOUS
10
6.00098
20
-3.92003
11
6.00109
21
-3.91996
0
LINE
8
BLACK
6
CONTINUOUS
10
6.00109
20
-3.91996
11
6.00098
21
-3.91989
0
LINE
8
BLACK
6
CONTINUOUS
10
6.00098
20
-3.91989
11
5.99874
21
-3.91653
0
LINE
8
BLACK
6
CONTINUOUS
10
5.99874
20
-3.91653
11
5.99795
21
-3.91258
0
LINE
8
BLACK
6
CONTINUOUS
10
5.99795
20
-3.91258
11
5.99795
21
-3.90766
0
LINE
8
BLACK
6
CONTINUOUS
10
5.99795
20
-3.90766
11
5.99874
21
-3.9037
0
LINE
8
BLACK
6
CONTINUOUS
10
5.99874
20
-3.9037
11
6.00098
21
-3.90035
0
LINE
8
BLACK
6
CONTINUOUS
10
6.00098
20
-3.90035
11
6.00433
21
-3.89811
0
LINE
8
BLACK
6
CONTINUOUS
10
6.00433
20
-3.89811
11
6.00829
21
-3.89732
0
LINE
8
BLACK
6
CONTINUOUS
10
6.00829
20
-3.89732
11
6.03585
21
-3.89732
0
LINE
8
BLACK
6
CONTINUOUS
10
6.03585
20
-3.89732
11
6.0398
21
-3.89811
0
LINE
8
BLACK
6
CONTINUOUS
10
6.0398
20
-3.89811
11
6.04147
21
-3.89922
0
LINE
8
BLACK
6
CONTINUOUS
10
6.04147
20
-3.89922
11
6.04186
21
-3.89726
0
LINE
8
BLACK
6
CONTINUOUS
10
6.04186
20
-3.89726
11
6.04357
21
-3.89471
0
LINE
8
BLACK
6
CONTINUOUS
10
6.04357
20
-3.89471
11
6.04612
21
-3.893
0
LINE
8
BLACK
6
CONTINUOUS
10
6.04612
20
-3.893
11
6.04808
21
-3.89261
0
LINE
8
BLACK
6
CONTINUOUS
10
6.04808
20
-3.89261
11
6.04697
21
-3.89094
0
LINE
8
BLACK
6
CONTINUOUS
10
6.04697
20
-3.89094
11
6.04618
21
-3.88699
0
LINE
8
BLACK
6
CONTINUOUS
10
6.04618
20
-3.88699
11
6.04618
21
-3.85943
0
LINE
8
BLACK
6
CONTINUOUS
10
6.04618
20
-3.85943
11
6.04697
21
-3.85547
0
LINE
8
BLACK
6
CONTINUOUS
10
6.04697
20
-3.85547
11
6.04921
21
-3.85212
0
LINE
8
BLACK
6
CONTINUOUS
10
6.04921
20
-3.85212
11
6.05256
21
-3.84988
0
LINE
8
BLACK
6
CONTINUOUS
10
6.05256
20
-3.84988
11
6.05652
21
-3.84909
0
LINE
8
BLACK
6
CONTINUOUS
10
6.05652
20
-3.84909
11
6.06144
21
-3.84909
0
LINE
8
BLACK
6
CONTINUOUS
10
6.06144
20
-3.84909
11
6.06539
21
-3.84988
0
LINE
8
BLACK
6
CONTINUOUS
10
5.85267
20
-3.89297
11
5.85675
21
-3.89497
0
LINE
8
BLACK
6
CONTINUOUS
10
5.85675
20
-3.89497
11
5.85995
21
-3.89817
0
LINE
8
BLACK
6
CONTINUOUS
10
5.85995
20
-3.89817
11
5.86195
21
-3.90225
0
LINE
8
BLACK
6
CONTINUOUS
10
5.86195
20
-3.90225
11
5.86252
21
-3.90618
0
LINE
8
BLACK
6
CONTINUOUS
10
5.86252
20
-3.90618
11
5.86252
21
-3.91799
0
LINE
8
BLACK
6
CONTINUOUS
10
5.86252
20
-3.91799
11
5.86195
21
-3.92192
0
LINE
8
BLACK
6
CONTINUOUS
10
5.86195
20
-3.92192
11
5.85995
21
-3.926
0
LINE
8
BLACK
6
CONTINUOUS
10
5.85995
20
-3.926
11
5.85675
21
-3.92921
0
LINE
8
BLACK
6
CONTINUOUS
10
5.85675
20
-3.92921
11
5.85351
21
-3.93079
0
LINE
8
BLACK
6
CONTINUOUS
10
5.85351
20
-3.93079
11
5.85675
21
-3.93237
0
LINE
8
BLACK
6
CONTINUOUS
10
5.85675
20
-3.93237
11
5.85995
21
-3.93558
0
LINE
8
BLACK
6
CONTINUOUS
10
5.85995
20
-3.93558
11
5.86195
21
-3.93965
0
LINE
8
BLACK
6
CONTINUOUS
10
5.86195
20
-3.93965
11
5.86252
21
-3.94358
0
LINE
8
BLACK
6
CONTINUOUS
10
5.86252
20
-3.94358
11
5.86252
21
-3.95539
0
LINE
8
BLACK
6
CONTINUOUS
10
5.86252
20
-3.95539
11
5.86195
21
-3.95933
0
LINE
8
BLACK
6
CONTINUOUS
10
5.86195
20
-3.95933
11
5.85995
21
-3.9634
0
LINE
8
BLACK
6
CONTINUOUS
10
5.85995
20
-3.9634
11
5.85675
21
-3.96661
0
LINE
8
BLACK
6
CONTINUOUS
10
5.85675
20
-3.96661
11
5.85351
21
-3.96819
0
LINE
8
BLACK
6
CONTINUOUS
10
5.85351
20
-3.96819
11
5.85675
21
-3.96977
0
LINE
8
BLACK
6
CONTINUOUS
10
5.85675
20
-3.96977
11
5.85995
21
-3.97298
0
LINE
8
BLACK
6
CONTINUOUS
10
5.85995
20
-3.97298
11
5.86195
21
-3.97705
0
LINE
8
BLACK
6
CONTINUOUS
10
5.86195
20
-3.97705
11
5.86252
21
-3.98098
0
LINE
8
BLACK
6
CONTINUOUS
10
5.86252
20
-3.98098
11
5.86252
21
-3.9928
0
LINE
8
BLACK
6
CONTINUOUS
10
5.86252
20
-3.9928
11
5.86195
21
-3.99673
0
LINE
8
BLACK
6
CONTINUOUS
10
5.86195
20
-3.99673
11
5.85995
21
-4.0008
0
LINE
8
BLACK
6
CONTINUOUS
10
5.85995
20
-4.0008
11
5.85675
21
-4.00401
0
LINE
8
BLACK
6
CONTINUOUS
10
5.85675
20
-4.00401
11
5.85267
21
-4.006
0
LINE
8
BLACK
6
CONTINUOUS
10
5.85267
20
-4.006
11
5.84874
21
-4.00657
0
LINE
8
BLACK
6
CONTINUOUS
10
5.84874
20
-4.00657
11
5.80839
21
-4.00657
0
LINE
8
BLACK
6
CONTINUOUS
10
5.80839
20
-4.00657
11
5.80445
21
-4.006
0
LINE
8
BLACK
6
CONTINUOUS
10
5.80445
20
-4.006
11
5.80038
21
-4.00401
0
LINE
8
BLACK
6
CONTINUOUS
10
5.80038
20
-4.00401
11
5.79717
21
-4.0008
0
LINE
8
BLACK
6
CONTINUOUS
10
5.79717
20
-4.0008
11
5.79518
21
-3.99673
0
LINE
8
BLACK
6
CONTINUOUS
10
5.79518
20
-3.99673
11
5.79461
21
-3.9928
0
LINE
8
BLACK
6
CONTINUOUS
10
5.79461
20
-3.9928
11
5.79461
21
-3.98098
0
LINE
8
BLACK
6
CONTINUOUS
10
5.79461
20
-3.98098
11
5.79518
21
-3.97705
0
LINE
8
BLACK
6
CONTINUOUS
10
5.79518
20
-3.97705
11
5.79717
21
-3.97298
0
LINE
8
BLACK
6
CONTINUOUS
10
5.79717
20
-3.97298
11
5.80038
21
-3.96977
0
LINE
8
BLACK
6
CONTINUOUS
10
5.80038
20
-3.96977
11
5.80361
21
-3.96819
0
LINE
8
BLACK
6
CONTINUOUS
10
5.80361
20
-3.96819
11
5.80038
21
-3.96661
0
LINE
8
BLACK
6
CONTINUOUS
10
5.80038
20
-3.96661
11
5.79717
21
-3.9634
0
LINE
8
BLACK
6
CONTINUOUS
10
5.79717
20
-3.9634
11
5.79518
21
-3.95933
0
LINE
8
BLACK
6
CONTINUOUS
10
5.79518
20
-3.95933
11
5.79461
21
-3.95539
0
LINE
8
BLACK
6
CONTINUOUS
10
5.79461
20
-3.95539
11
5.79461
21
-3.94358
0
LINE
8
BLACK
6
CONTINUOUS
10
5.79461
20
-3.94358
11
5.79518
21
-3.93965
0
LINE
8
BLACK
6
CONTINUOUS
10
5.79518
20
-3.93965
11
5.79717
21
-3.93558
0
LINE
8
BLACK
6
CONTINUOUS
10
5.79717
20
-3.93558
11
5.80038
21
-3.93237
0
LINE
8
BLACK
6
CONTINUOUS
10
5.80038
20
-3.93237
11
5.80361
21
-3.93079
0
LINE
8
BLACK
6
CONTINUOUS
10
5.80361
20
-3.93079
11
5.80038
21
-3.92921
0
LINE
8
BLACK
6
CONTINUOUS
10
5.80038
20
-3.92921
11
5.79717
21
-3.926
0
LINE
8
BLACK
6
CONTINUOUS
10
5.79717
20
-3.926
11
5.79518
21
-3.92192
0
LINE
8
BLACK
6
CONTINUOUS
10
5.79518
20
-3.92192
11
5.79461
21
-3.91799
0
LINE
8
BLACK
6
CONTINUOUS
10
5.79461
20
-3.91799
11
5.79461
21
-3.90618
0
LINE
8
BLACK
6
CONTINUOUS
10
5.79461
20
-3.90618
11
5.79518
21
-3.90225
0
LINE
8
BLACK
6
CONTINUOUS
10
5.79518
20
-3.90225
11
5.79717
21
-3.89817
0
LINE
8
BLACK
6
CONTINUOUS
10
5.79717
20
-3.89817
11
5.80038
21
-3.89497
0
LINE
8
BLACK
6
CONTINUOUS
10
5.80038
20
-3.89497
11
5.80445
21
-3.89297
0
LINE
8
BLACK
6
CONTINUOUS
10
5.80445
20
-3.89297
11
5.80839
21
-3.8924
0
LINE
8
BLACK
6
CONTINUOUS
10
5.80839
20
-3.8924
11
5.84874
21
-3.8924
0
LINE
8
BLACK
6
CONTINUOUS
10
5.84874
20
-3.8924
11
5.85267
21
-3.89297
0
LINE
8
BLACK
6
CONTINUOUS
10
5.94224
20
-3.89297
11
5.94631
21
-3.89497
0
LINE
8
BLACK
6
CONTINUOUS
10
5.94631
20
-3.89497
11
5.94952
21
-3.89817
0
LINE
8
BLACK
6
CONTINUOUS
10
5.94952
20
-3.89817
11
5.95151
21
-3.90225
0
LINE
8
BLACK
6
CONTINUOUS
10
5.95151
20
-3.90225
11
5.95209
21
-3.90618
0
LINE
8
BLACK
6
CONTINUOUS
10
5.95209
20
-3.90618
11
5.95209
21
-3.91799
0
LINE
8
BLACK
6
CONTINUOUS
10
5.95209
20
-3.91799
11
5.95151
21
-3.92192
0
LINE
8
BLACK
6
CONTINUOUS
10
5.95151
20
-3.92192
11
5.94952
21
-3.926
0
LINE
8
BLACK
6
CONTINUOUS
10
5.94952
20
-3.926
11
5.94631
21
-3.92921
0
LINE
8
BLACK
6
CONTINUOUS
10
5.94631
20
-3.92921
11
5.94308
21
-3.93079
0
LINE
8
BLACK
6
CONTINUOUS
10
5.94308
20
-3.93079
11
5.94631
21
-3.93237
0
LINE
8
BLACK
6
CONTINUOUS
10
5.94631
20
-3.93237
11
5.94952
21
-3.93558
0
LINE
8
BLACK
6
CONTINUOUS
10
5.94952
20
-3.93558
11
5.95151
21
-3.93965
0
LINE
8
BLACK
6
CONTINUOUS
10
5.95151
20
-3.93965
11
5.95209
21
-3.94358
0
LINE
8
BLACK
6
CONTINUOUS
10
5.95209
20
-3.94358
11
5.95209
21
-3.95539
0
LINE
8
BLACK
6
CONTINUOUS
10
5.95209
20
-3.95539
11
5.95151
21
-3.95933
0
LINE
8
BLACK
6
CONTINUOUS
10
5.95151
20
-3.95933
11
5.94952
21
-3.9634
0
LINE
8
BLACK
6
CONTINUOUS
10
5.94952
20
-3.9634
11
5.94631
21
-3.96661
0
LINE
8
BLACK
6
CONTINUOUS
10
5.94631
20
-3.96661
11
5.94308
21
-3.96819
0
LINE
8
BLACK
6
CONTINUOUS
10
5.94308
20
-3.96819
11
5.94631
21
-3.96977
0
LINE
8
BLACK
6
CONTINUOUS
10
5.94631
20
-3.96977
11
5.94952
21
-3.97298
0
LINE
8
BLACK
6
CONTINUOUS
10
5.94952
20
-3.97298
11
5.95151
21
-3.97705
0
LINE
8
BLACK
6
CONTINUOUS
10
5.95151
20
-3.97705
11
5.95209
21
-3.98098
0
LINE
8
BLACK
6
CONTINUOUS
10
5.95209
20
-3.98098
11
5.95209
21
-3.9928
0
LINE
8
BLACK
6
CONTINUOUS
10
5.95209
20
-3.9928
11
5.95151
21
-3.99673
0
LINE
8
BLACK
6
CONTINUOUS
10
5.95151
20
-3.99673
11
5.94952
21
-4.0008
0
LINE
8
BLACK
6
CONTINUOUS
10
5.94952
20
-4.0008
11
5.94631
21
-4.00401
0
LINE
8
BLACK
6
CONTINUOUS
10
5.94631
20
-4.00401
11
5.94224
21
-4.006
0
LINE
8
BLACK
6
CONTINUOUS
10
5.94224
20
-4.006
11
5.93831
21
-4.00657
0
LINE
8
BLACK
6
CONTINUOUS
10
5.93831
20
-4.00657
11
5.89795
21
-4.00657
0
LINE
8
BLACK
6
CONTINUOUS
10
5.89795
20
-4.00657
11
5.89402
21
-4.006
0
LINE
8
BLACK
6
CONTINUOUS
10
5.89402
20
-4.006
11
5.88995
21
-4.00401
0
LINE
8
BLACK
6
CONTINUOUS
10
5.88995
20
-4.00401
11
5.88674
21
-4.0008
0
LINE
8
BLACK
6
CONTINUOUS
10
5.88674
20
-4.0008
11
5.88475
21
-3.99673
0
LINE
8
BLACK
6
CONTINUOUS
10
5.88475
20
-3.99673
11
5.88417
21
-3.9928
0
LINE
8
BLACK
6
CONTINUOUS
10
5.88417
20
-3.9928
11
5.88417
21
-3.98098
0
LINE
8
BLACK
6
CONTINUOUS
10
5.88417
20
-3.98098
11
5.88475
21
-3.97705
0
LINE
8
BLACK
6
CONTINUOUS
10
5.88475
20
-3.97705
11
5.88674
21
-3.97298
0
LINE
8
BLACK
6
CONTINUOUS
10
5.88674
20
-3.97298
11
5.88995
21
-3.96977
0
LINE
8
BLACK
6
CONTINUOUS
10
5.88995
20
-3.96977
11
5.89318
21
-3.96819
0
LINE
8
BLACK
6
CONTINUOUS
10
5.89318
20
-3.96819
11
5.88995
21
-3.96661
0
LINE
8
BLACK
6
CONTINUOUS
10
5.88995
20
-3.96661
11
5.88674
21
-3.9634
0
LINE
8
BLACK
6
CONTINUOUS
10
5.88674
20
-3.9634
11
5.88475
21
-3.95933
0
LINE
8
BLACK
6
CONTINUOUS
10
5.88475
20
-3.95933
11
5.88417
21
-3.95539
0
LINE
8
BLACK
6
CONTINUOUS
10
5.88417
20
-3.95539
11
5.88417
21
-3.94358
0
LINE
8
BLACK
6
CONTINUOUS
10
5.88417
20
-3.94358
11
5.88475
21
-3.93965
0
LINE
8
BLACK
6
CONTINUOUS
10
5.88475
20
-3.93965
11
5.88674
21
-3.93558
0
LINE
8
BLACK
6
CONTINUOUS
10
5.88674
20
-3.93558
11
5.88995
21
-3.93237
0
LINE
8
BLACK
6
CONTINUOUS
10
5.88995
20
-3.93237
11
5.89318
21
-3.93079
0
LINE
8
BLACK
6
CONTINUOUS
10
5.89318
20
-3.93079
11
5.88995
21
-3.92921
0
LINE
8
BLACK
6
CONTINUOUS
10
5.88995
20
-3.92921
11
5.88674
21
-3.926
0
LINE
8
BLACK
6
CONTINUOUS
10
5.88674
20
-3.926
11
5.88475
21
-3.92192
0
LINE
8
BLACK
6
CONTINUOUS
10
5.88475
20
-3.92192
11
5.88417
21
-3.91799
0
LINE
8
BLACK
6
CONTINUOUS
10
5.88417
20
-3.91799
11
5.88417
21
-3.90618
0
LINE
8
BLACK
6
CONTINUOUS
10
5.88417
20
-3.90618
11
5.88475
21
-3.90225
0
LINE
8
BLACK
6
CONTINUOUS
10
5.88475
20
-3.90225
11
5.88674
21
-3.89817
0
LINE
8
BLACK
6
CONTINUOUS
10
5.88674
20
-3.89817
11
5.88995
21
-3.89497
0
LINE
8
BLACK
6
CONTINUOUS
10
5.88995
20
-3.89497
11
5.89402
21
-3.89297
0
LINE
8
BLACK
6
CONTINUOUS
10
5.89402
20
-3.89297
11
5.89795
21
-3.8924
0
LINE
8
BLACK
6
CONTINUOUS
10
5.89795
20
-3.8924
11
5.93831
21
-3.8924
0
LINE
8
BLACK
6
CONTINUOUS
10
5.93831
20
-3.8924
11
5.94224
21
-3.89297
0
LINE
8
BLACK
6
CONTINUOUS
10
6.87613
20
-3.91424
11
6.88052
21
-3.91647
0
LINE
8
BLACK
6
CONTINUOUS
10
6.88052
20
-3.91647
11
6.884
21
-3.91996
0
LINE
8
BLACK
6
CONTINUOUS
10
6.884
20
-3.91996
11
6.88624
21
-3.92435
0
LINE
8
BLACK
6
CONTINUOUS
10
6.88624
20
-3.92435
11
6.88701
21
-3.92921
0
LINE
8
BLACK
6
CONTINUOUS
10
6.88701
20
-3.92921
11
6.88701
21
-3.95087
0
LINE
8
BLACK
6
CONTINUOUS
10
6.88701
20
-3.95087
11
6.88624
21
-3.95573
0
LINE
8
BLACK
6
CONTINUOUS
10
6.88624
20
-3.95573
11
6.884
21
-3.96012
0
LINE
8
BLACK
6
CONTINUOUS
10
6.884
20
-3.96012
11
6.88052
21
-3.96361
0
LINE
8
BLACK
6
CONTINUOUS
10
6.88052
20
-3.96361
11
6.87613
21
-3.96584
0
LINE
8
BLACK
6
CONTINUOUS
10
6.87613
20
-3.96584
11
6.87126
21
-3.96661
0
LINE
8
BLACK
6
CONTINUOUS
10
6.87126
20
-3.96661
11
6.85551
21
-3.96661
0
LINE
8
BLACK
6
CONTINUOUS
10
6.85551
20
-3.96661
11
6.85065
21
-3.96584
0
LINE
8
BLACK
6
CONTINUOUS
10
6.85065
20
-3.96584
11
6.84626
21
-3.96361
0
LINE
8
BLACK
6
CONTINUOUS
10
6.84626
20
-3.96361
11
6.84277
21
-3.96012
0
LINE
8
BLACK
6
CONTINUOUS
10
6.84277
20
-3.96012
11
6.84053
21
-3.95573
0
LINE
8
BLACK
6
CONTINUOUS
10
6.84053
20
-3.95573
11
6.83976
21
-3.95087
0
LINE
8
BLACK
6
CONTINUOUS
10
6.83976
20
-3.95087
11
6.83976
21
-3.92921
0
LINE
8
BLACK
6
CONTINUOUS
10
6.83976
20
-3.92921
11
6.84053
21
-3.92435
0
LINE
8
BLACK
6
CONTINUOUS
10
6.84053
20
-3.92435
11
6.84277
21
-3.91996
0
LINE
8
BLACK
6
CONTINUOUS
10
6.84277
20
-3.91996
11
6.84626
21
-3.91647
0
LINE
8
BLACK
6
CONTINUOUS
10
6.84626
20
-3.91647
11
6.85065
21
-3.91424
0
LINE
8
BLACK
6
CONTINUOUS
10
6.85065
20
-3.91424
11
6.85551
21
-3.91346
0
LINE
8
BLACK
6
CONTINUOUS
10
6.85551
20
-3.91346
11
6.87126
21
-3.91346
0
LINE
8
BLACK
6
CONTINUOUS
10
6.87126
20
-3.91346
11
6.87613
21
-3.91424
0
LINE
8
BLACK
6
CONTINUOUS
10
6.94109
20
-3.91424
11
6.94548
21
-3.91647
0
LINE
8
BLACK
6
CONTINUOUS
10
6.94548
20
-3.91647
11
6.94896
21
-3.91996
0
LINE
8
BLACK
6
CONTINUOUS
10
6.94896
20
-3.91996
11
6.9512
21
-3.92435
0
LINE
8
BLACK
6
CONTINUOUS
10
6.9512
20
-3.92435
11
6.95197
21
-3.92921
0
LINE
8
BLACK
6
CONTINUOUS
10
6.95197
20
-3.92921
11
6.95197
21
-3.95087
0
LINE
8
BLACK
6
CONTINUOUS
10
6.95197
20
-3.95087
11
6.9512
21
-3.95573
0
LINE
8
BLACK
6
CONTINUOUS
10
6.9512
20
-3.95573
11
6.94896
21
-3.96012
0
LINE
8
BLACK
6
CONTINUOUS
10
6.94896
20
-3.96012
11
6.94548
21
-3.96361
0
LINE
8
BLACK
6
CONTINUOUS
10
6.94548
20
-3.96361
11
6.94109
21
-3.96584
0
LINE
8
BLACK
6
CONTINUOUS
10
6.94109
20
-3.96584
11
6.93622
21
-3.96661
0
LINE
8
BLACK
6
CONTINUOUS
10
6.93622
20
-3.96661
11
6.92047
21
-3.96661
0
LINE
8
BLACK
6
CONTINUOUS
10
6.92047
20
-3.96661
11
6.91561
21
-3.96584
0
LINE
8
BLACK
6
CONTINUOUS
10
6.91561
20
-3.96584
11
6.91122
21
-3.96361
0
LINE
8
BLACK
6
CONTINUOUS
10
6.91122
20
-3.96361
11
6.90773
21
-3.96012
0
LINE
8
BLACK
6
CONTINUOUS
10
6.90773
20
-3.96012
11
6.9055
21
-3.95573
0
LINE
8
BLACK
6
CONTINUOUS
10
6.9055
20
-3.95573
11
6.90472
21
-3.95087
0
LINE
8
BLACK
6
CONTINUOUS
10
6.90472
20
-3.95087
11
6.90472
21
-3.92921
0
LINE
8
BLACK
6
CONTINUOUS
10
6.90472
20
-3.92921
11
6.9055
21
-3.92435
0
LINE
8
BLACK
6
CONTINUOUS
10
6.9055
20
-3.92435
11
6.90773
21
-3.91996
0
LINE
8
BLACK
6
CONTINUOUS
10
6.90773
20
-3.91996
11
6.91122
21
-3.91647
0
LINE
8
BLACK
6
CONTINUOUS
10
6.91122
20
-3.91647
11
6.91561
21
-3.91424
0
LINE
8
BLACK
6
CONTINUOUS
10
6.91561
20
-3.91424
11
6.92047
21
-3.91346
0
LINE
8
BLACK
6
CONTINUOUS
10
6.92047
20
-3.91346
11
6.93622
21
-3.91346
0
LINE
8
BLACK
6
CONTINUOUS
10
6.93622
20
-3.91346
11
6.94109
21
-3.91424
0
LINE
8
BLACK
6
CONTINUOUS
10
6.4931
20
-3.82283
11
6.49808
21
-3.82457
0
LINE
8
BLACK
6
CONTINUOUS
10
6.49808
20
-3.82457
11
6.50233
21
-3.82771
0
LINE
8
BLACK
6
CONTINUOUS
10
6.50233
20
-3.82771
11
6.50547
21
-3.83196
0
LINE
8
BLACK
6
CONTINUOUS
10
6.50547
20
-3.83196
11
6.50721
21
-3.83694
0
LINE
8
BLACK
6
CONTINUOUS
10
6.50721
20
-3.83694
11
6.50752
21
-3.84024
0
LINE
8
BLACK
6
CONTINUOUS
10
6.50752
20
-3.84024
11
6.50752
21
-3.85992
0
LINE
8
BLACK
6
CONTINUOUS
10
6.50752
20
-3.85992
11
6.50721
21
-3.86321
0
LINE
8
BLACK
6
CONTINUOUS
10
6.50721
20
-3.86321
11
6.50547
21
-3.8682
0
LINE
8
BLACK
6
CONTINUOUS
10
6.50547
20
-3.8682
11
6.50233
21
-3.87245
0
LINE
8
BLACK
6
CONTINUOUS
10
6.50233
20
-3.87245
11
6.49808
21
-3.87558
0
LINE
8
BLACK
6
CONTINUOUS
10
6.49808
20
-3.87558
11
6.4931
21
-3.87733
0
LINE
8
BLACK
6
CONTINUOUS
10
6.4931
20
-3.87733
11
6.4898
21
-3.87764
0
LINE
8
BLACK
6
CONTINUOUS
10
6.4898
20
-3.87764
11
6.40319
21
-3.87764
0
LINE
8
BLACK
6
CONTINUOUS
10
6.40319
20
-3.87764
11
6.3999
21
-3.87733
0
LINE
8
BLACK
6
CONTINUOUS
10
6.3999
20
-3.87733
11
6.39491
21
-3.87558
0
LINE
8
BLACK
6
CONTINUOUS
10
6.39491
20
-3.87558
11
6.39066
21
-3.87245
0
LINE
8
BLACK
6
CONTINUOUS
10
6.39066
20
-3.87245
11
6.38753
21
-3.8682
0
LINE
8
BLACK
6
CONTINUOUS
10
6.38753
20
-3.8682
11
6.38578
21
-3.86321
0
LINE
8
BLACK
6
CONTINUOUS
10
6.38578
20
-3.86321
11
6.38547
21
-3.85992
0
LINE
8
BLACK
6
CONTINUOUS
10
6.38547
20
-3.85992
11
6.38547
21
-3.84024
0
LINE
8
BLACK
6
CONTINUOUS
10
6.38547
20
-3.84024
11
6.38578
21
-3.83694
0
LINE
8
BLACK
6
CONTINUOUS
10
6.38578
20
-3.83694
11
6.38753
21
-3.83196
0
LINE
8
BLACK
6
CONTINUOUS
10
6.38753
20
-3.83196
11
6.39066
21
-3.82771
0
LINE
8
BLACK
6
CONTINUOUS
10
6.39066
20
-3.82771
11
6.39491
21
-3.82457
0
LINE
8
BLACK
6
CONTINUOUS
10
6.39491
20
-3.82457
11
6.3999
21
-3.82283
0
LINE
8
BLACK
6
CONTINUOUS
10
6.3999
20
-3.82283
11
6.40319
21
-3.82252
0
LINE
8
BLACK
6
CONTINUOUS
10
6.40319
20
-3.82252
11
6.4898
21
-3.82252
0
LINE
8
BLACK
6
CONTINUOUS
10
6.4898
20
-3.82252
11
6.4931
21
-3.82283
0
LINE
8
BLACK
6
CONTINUOUS
10
5.91135
20
-3.76928
11
5.91602
21
-3.77166
0
LINE
8
BLACK
6
CONTINUOUS
10
5.91602
20
-3.77166
11
5.91972
21
-3.77536
0
LINE
8
BLACK
6
CONTINUOUS
10
5.91972
20
-3.77536
11
5.92209
21
-3.78003
0
LINE
8
BLACK
6
CONTINUOUS
10
5.92209
20
-3.78003
11
5.92291
21
-3.7852
0
LINE
8
BLACK
6
CONTINUOUS
10
5.92291
20
-3.7852
11
5.92291
21
-3.80488
0
LINE
8
BLACK
6
CONTINUOUS
10
5.92291
20
-3.80488
11
5.92209
21
-3.81005
0
LINE
8
BLACK
6
CONTINUOUS
10
5.92209
20
-3.81005
11
5.91972
21
-3.81472
0
LINE
8
BLACK
6
CONTINUOUS
10
5.91972
20
-3.81472
11
5.91602
21
-3.81842
0
LINE
8
BLACK
6
CONTINUOUS
10
5.91602
20
-3.81842
11
5.91135
21
-3.8208
0
LINE
8
BLACK
6
CONTINUOUS
10
5.91135
20
-3.8208
11
5.90618
21
-3.82161
0
LINE
8
BLACK
6
CONTINUOUS
10
5.90618
20
-3.82161
11
5.88846
21
-3.82161
0
LINE
8
BLACK
6
CONTINUOUS
10
5.88846
20
-3.82161
11
5.88329
21
-3.8208
0
LINE
8
BLACK
6
CONTINUOUS
10
5.88329
20
-3.8208
11
5.87863
21
-3.81842
0
LINE
8
BLACK
6
CONTINUOUS
10
5.87863
20
-3.81842
11
5.87493
21
-3.81472
0
LINE
8
BLACK
6
CONTINUOUS
10
5.87493
20
-3.81472
11
5.87255
21
-3.81005
0
LINE
8
BLACK
6
CONTINUOUS
10
5.87255
20
-3.81005
11
5.87173
21
-3.80488
0
LINE
8
BLACK
6
CONTINUOUS
10
5.87173
20
-3.80488
11
5.87173
21
-3.7852
0
LINE
8
BLACK
6
CONTINUOUS
10
5.87173
20
-3.7852
11
5.87255
21
-3.78003
0
LINE
8
BLACK
6
CONTINUOUS
10
5.87255
20
-3.78003
11
5.87493
21
-3.77536
0
LINE
8
BLACK
6
CONTINUOUS
10
5.87493
20
-3.77536
11
5.87863
21
-3.77166
0
LINE
8
BLACK
6
CONTINUOUS
10
5.87863
20
-3.77166
11
5.88329
21
-3.76928
0
LINE
8
BLACK
6
CONTINUOUS
10
5.88329
20
-3.76928
11
5.88846
21
-3.76846
0
LINE
8
BLACK
6
CONTINUOUS
10
5.88846
20
-3.76846
11
5.90618
21
-3.76846
0
LINE
8
BLACK
6
CONTINUOUS
10
5.90618
20
-3.76846
11
5.91135
21
-3.76928
0
LINE
8
BLACK
6
CONTINUOUS
10
5.97238
20
-3.76928
11
5.97704
21
-3.77166
0
LINE
8
BLACK
6
CONTINUOUS
10
5.97704
20
-3.77166
11
5.98074
21
-3.77536
0
LINE
8
BLACK
6
CONTINUOUS
10
5.98074
20
-3.77536
11
5.98312
21
-3.78003
0
LINE
8
BLACK
6
CONTINUOUS
10
5.98312
20
-3.78003
11
5.98394
21
-3.7852
0
LINE
8
BLACK
6
CONTINUOUS
10
5.98394
20
-3.7852
11
5.98394
21
-3.80488
0
LINE
8
BLACK
6
CONTINUOUS
10
5.98394
20
-3.80488
11
5.98312
21
-3.81005
0
LINE
8
BLACK
6
CONTINUOUS
10
5.98312
20
-3.81005
11
5.98074
21
-3.81472
0
LINE
8
BLACK
6
CONTINUOUS
10
5.98074
20
-3.81472
11
5.97704
21
-3.81842
0
LINE
8
BLACK
6
CONTINUOUS
10
5.97704
20
-3.81842
11
5.97238
21
-3.8208
0
LINE
8
BLACK
6
CONTINUOUS
10
5.97238
20
-3.8208
11
5.9672
21
-3.82161
0
LINE
8
BLACK
6
CONTINUOUS
10
5.9672
20
-3.82161
11
5.94949
21
-3.82161
0
LINE
8
BLACK
6
CONTINUOUS
10
5.94949
20
-3.82161
11
5.94432
21
-3.8208
0
LINE
8
BLACK
6
CONTINUOUS
10
5.94432
20
-3.8208
11
5.93965
21
-3.81842
0
LINE
8
BLACK
6
CONTINUOUS
10
5.93965
20
-3.81842
11
5.93595
21
-3.81472
0
LINE
8
BLACK
6
CONTINUOUS
10
5.93595
20
-3.81472
11
5.93357
21
-3.81005
0
LINE
8
BLACK
6
CONTINUOUS
10
5.93357
20
-3.81005
11
5.93276
21
-3.80488
0
LINE
8
BLACK
6
CONTINUOUS
10
5.93276
20
-3.80488
11
5.93276
21
-3.7852
0
LINE
8
BLACK
6
CONTINUOUS
10
5.93276
20
-3.7852
11
5.93357
21
-3.78003
0
LINE
8
BLACK
6
CONTINUOUS
10
5.93357
20
-3.78003
11
5.93595
21
-3.77536
0
LINE
8
BLACK
6
CONTINUOUS
10
5.93595
20
-3.77536
11
5.93965
21
-3.77166
0
LINE
8
BLACK
6
CONTINUOUS
10
5.93965
20
-3.77166
11
5.94432
21
-3.76928
0
LINE
8
BLACK
6
CONTINUOUS
10
5.94432
20
-3.76928
11
5.94949
21
-3.76846
0
LINE
8
BLACK
6
CONTINUOUS
10
5.94949
20
-3.76846
11
5.9672
21
-3.76846
0
LINE
8
BLACK
6
CONTINUOUS
10
5.9672
20
-3.76846
11
5.97238
21
-3.76928
0
LINE
8
BLACK
6
CONTINUOUS
10
5.48263
20
-3.75265
11
5.48884
21
-3.75501
0
LINE
8
BLACK
6
CONTINUOUS
10
5.48884
20
-3.75501
11
5.49431
21
-3.75878
0
LINE
8
BLACK
6
CONTINUOUS
10
5.49431
20
-3.75878
11
5.49871
21
-3.76375
0
LINE
8
BLACK
6
CONTINUOUS
10
5.49871
20
-3.76375
11
5.5018
21
-3.76964
0
LINE
8
BLACK
6
CONTINUOUS
10
5.5018
20
-3.76964
11
5.50339
21
-3.77609
0
LINE
8
BLACK
6
CONTINUOUS
10
5.50339
20
-3.77609
11
5.50339
21
-3.78273
0
LINE
8
BLACK
6
CONTINUOUS
10
5.50339
20
-3.78273
11
5.5018
21
-3.78918
0
LINE
8
BLACK
6
CONTINUOUS
10
5.5018
20
-3.78918
11
5.49871
21
-3.79506
0
LINE
8
BLACK
6
CONTINUOUS
10
5.49871
20
-3.79506
11
5.49431
21
-3.80004
0
LINE
8
BLACK
6
CONTINUOUS
10
5.49431
20
-3.80004
11
5.48884
21
-3.80381
0
LINE
8
BLACK
6
CONTINUOUS
10
5.48884
20
-3.80381
11
5.48263
21
-3.80617
0
LINE
8
BLACK
6
CONTINUOUS
10
5.48263
20
-3.80617
11
5.47603
21
-3.80697
0
LINE
8
BLACK
6
CONTINUOUS
10
5.47603
20
-3.80697
11
5.43666
21
-3.80697
0
LINE
8
BLACK
6
CONTINUOUS
10
5.43666
20
-3.80697
11
5.43007
21
-3.80617
0
LINE
8
BLACK
6
CONTINUOUS
10
5.43007
20
-3.80617
11
5.42385
21
-3.80381
0
LINE
8
BLACK
6
CONTINUOUS
10
5.42385
20
-3.80381
11
5.41839
21
-3.80004
0
LINE
8
BLACK
6
CONTINUOUS
10
5.41839
20
-3.80004
11
5.41398
21
-3.79506
0
LINE
8
BLACK
6
CONTINUOUS
10
5.41398
20
-3.79506
11
5.41089
21
-3.78918
0
LINE
8
BLACK
6
CONTINUOUS
10
5.41089
20
-3.78918
11
5.4093
21
-3.78273
0
LINE
8
BLACK
6
CONTINUOUS
10
5.4093
20
-3.78273
11
5.4093
21
-3.77609
0
LINE
8
BLACK
6
CONTINUOUS
10
5.4093
20
-3.77609
11
5.41089
21
-3.76964
0
LINE
8
BLACK
6
CONTINUOUS
10
5.41089
20
-3.76964
11
5.41398
21
-3.76375
0
LINE
8
BLACK
6
CONTINUOUS
10
5.41398
20
-3.76375
11
5.41839
21
-3.75878
0
LINE
8
BLACK
6
CONTINUOUS
10
5.41839
20
-3.75878
11
5.42385
21
-3.75501
0
LINE
8
BLACK
6
CONTINUOUS
10
5.42385
20
-3.75501
11
5.43007
21
-3.75265
0
LINE
8
BLACK
6
CONTINUOUS
10
5.43007
20
-3.75265
11
5.43666
21
-3.75185
0
LINE
8
BLACK
6
CONTINUOUS
10
5.43666
20
-3.75185
11
5.47603
21
-3.75185
0
LINE
8
BLACK
6
CONTINUOUS
10
5.47603
20
-3.75185
11
5.48263
21
-3.75265
0
LINE
8
BLACK
6
CONTINUOUS
10
6.352
20
-3.75813
11
6.35608
21
-3.76012
0
LINE
8
BLACK
6
CONTINUOUS
10
6.35608
20
-3.76012
11
6.35929
21
-3.76333
0
LINE
8
BLACK
6
CONTINUOUS
10
6.35929
20
-3.76333
11
6.36128
21
-3.76741
0
LINE
8
BLACK
6
CONTINUOUS
10
6.36128
20
-3.76741
11
6.36185
21
-3.77134
0
LINE
8
BLACK
6
CONTINUOUS
10
6.36185
20
-3.77134
11
6.36185
21
-3.78315
0
LINE
8
BLACK
6
CONTINUOUS
10
6.36185
20
-3.78315
11
6.36128
21
-3.78708
0
LINE
8
BLACK
6
CONTINUOUS
10
6.36128
20
-3.78708
11
6.35929
21
-3.79116
0
LINE
8
BLACK
6
CONTINUOUS
10
6.35929
20
-3.79116
11
6.35608
21
-3.79436
0
LINE
8
BLACK
6
CONTINUOUS
10
6.35608
20
-3.79436
11
6.352
21
-3.79636
0
LINE
8
BLACK
6
CONTINUOUS
10
6.352
20
-3.79636
11
6.34807
21
-3.79693
0
LINE
8
BLACK
6
CONTINUOUS
10
6.34807
20
-3.79693
11
6.29295
21
-3.79693
0
LINE
8
BLACK
6
CONTINUOUS
10
6.29295
20
-3.79693
11
6.28902
21
-3.79636
0
LINE
8
BLACK
6
CONTINUOUS
10
6.28902
20
-3.79636
11
6.28495
21
-3.79436
0
LINE
8
BLACK
6
CONTINUOUS
10
6.28495
20
-3.79436
11
6.28174
21
-3.79116
0
LINE
8
BLACK
6
CONTINUOUS
10
6.28174
20
-3.79116
11
6.27975
21
-3.78708
0
LINE
8
BLACK
6
CONTINUOUS
10
6.27975
20
-3.78708
11
6.27917
21
-3.78315
0
LINE
8
BLACK
6
CONTINUOUS
10
6.27917
20
-3.78315
11
6.27917
21
-3.77134
0
LINE
8
BLACK
6
CONTINUOUS
10
6.27917
20
-3.77134
11
6.27975
21
-3.76741
0
LINE
8
BLACK
6
CONTINUOUS
10
6.27975
20
-3.76741
11
6.28174
21
-3.76333
0
LINE
8
BLACK
6
CONTINUOUS
10
6.28174
20
-3.76333
11
6.28495
21
-3.76012
0
LINE
8
BLACK
6
CONTINUOUS
10
6.28495
20
-3.76012
11
6.28902
21
-3.75813
0
LINE
8
BLACK
6
CONTINUOUS
10
6.28902
20
-3.75813
11
6.29295
21
-3.75756
0
LINE
8
BLACK
6
CONTINUOUS
10
6.29295
20
-3.75756
11
6.34807
21
-3.75756
0
LINE
8
BLACK
6
CONTINUOUS
10
6.34807
20
-3.75756
11
6.352
21
-3.75813
0
LINE
8
BLACK
6
CONTINUOUS
10
6.10186
20
-3.74428
11
6.10653
21
-3.74666
0
LINE
8
BLACK
6
CONTINUOUS
10
6.10653
20
-3.74666
11
6.11023
21
-3.75036
0
LINE
8
BLACK
6
CONTINUOUS
10
6.11023
20
-3.75036
11
6.11261
21
-3.75503
0
LINE
8
BLACK
6
CONTINUOUS
10
6.11261
20
-3.75503
11
6.11343
21
-3.7602
0
LINE
8
BLACK
6
CONTINUOUS
10
6.11343
20
-3.7602
11
6.11343
21
-3.77988
0
LINE
8
BLACK
6
CONTINUOUS
10
6.11343
20
-3.77988
11
6.11261
21
-3.78505
0
LINE
8
BLACK
6
CONTINUOUS
10
6.11261
20
-3.78505
11
6.11023
21
-3.78972
0
LINE
8
BLACK
6
CONTINUOUS
10
6.11023
20
-3.78972
11
6.10653
21
-3.79342
0
LINE
8
BLACK
6
CONTINUOUS
10
6.10653
20
-3.79342
11
6.10186
21
-3.7958
0
LINE
8
BLACK
6
CONTINUOUS
10
6.10186
20
-3.7958
11
6.09669
21
-3.79661
0
LINE
8
BLACK
6
CONTINUOUS
10
6.09669
20
-3.79661
11
6.07898
21
-3.79661
0
LINE
8
BLACK
6
CONTINUOUS
10
6.07898
20
-3.79661
11
6.07381
21
-3.7958
0
LINE
8
BLACK
6
CONTINUOUS
10
6.07381
20
-3.7958
11
6.06914
21
-3.79342
0
LINE
8
BLACK
6
CONTINUOUS
10
6.06914
20
-3.79342
11
6.06544
21
-3.78972
0
LINE
8
BLACK
6
CONTINUOUS
10
6.06544
20
-3.78972
11
6.06306
21
-3.78505
0
LINE
8
BLACK
6
CONTINUOUS
10
6.06306
20
-3.78505
11
6.06224
21
-3.77988
0
LINE
8
BLACK
6
CONTINUOUS
10
6.06224
20
-3.77988
11
6.06224
21
-3.7602
0
LINE
8
BLACK
6
CONTINUOUS
10
6.06224
20
-3.7602
11
6.06306
21
-3.75503
0
LINE
8
BLACK
6
CONTINUOUS
10
6.06306
20
-3.75503
11
6.06544
21
-3.75036
0
LINE
8
BLACK
6
CONTINUOUS
10
6.06544
20
-3.75036
11
6.06914
21
-3.74666
0
LINE
8
BLACK
6
CONTINUOUS
10
6.06914
20
-3.74666
11
6.07381
21
-3.74428
0
LINE
8
BLACK
6
CONTINUOUS
10
6.07381
20
-3.74428
11
6.07898
21
-3.74346
0
LINE
8
BLACK
6
CONTINUOUS
10
6.07898
20
-3.74346
11
6.09669
21
-3.74346
0
LINE
8
BLACK
6
CONTINUOUS
10
6.09669
20
-3.74346
11
6.10186
21
-3.74428
0
LINE
8
BLACK
6
CONTINUOUS
10
6.16289
20
-3.74428
11
6.16755
21
-3.74666
0
LINE
8
BLACK
6
CONTINUOUS
10
6.16755
20
-3.74666
11
6.17125
21
-3.75036
0
LINE
8
BLACK
6
CONTINUOUS
10
6.17125
20
-3.75036
11
6.17363
21
-3.75503
0
LINE
8
BLACK
6
CONTINUOUS
10
6.17363
20
-3.75503
11
6.17445
21
-3.7602
0
LINE
8
BLACK
6
CONTINUOUS
10
6.17445
20
-3.7602
11
6.17445
21
-3.77988
0
LINE
8
BLACK
6
CONTINUOUS
10
6.17445
20
-3.77988
11
6.17363
21
-3.78505
0
LINE
8
BLACK
6
CONTINUOUS
10
6.17363
20
-3.78505
11
6.17125
21
-3.78972
0
LINE
8
BLACK
6
CONTINUOUS
10
6.17125
20
-3.78972
11
6.16755
21
-3.79342
0
LINE
8
BLACK
6
CONTINUOUS
10
6.16755
20
-3.79342
11
6.16289
21
-3.7958
0
LINE
8
BLACK
6
CONTINUOUS
10
6.16289
20
-3.7958
11
6.15772
21
-3.79661
0
LINE
8
BLACK
6
CONTINUOUS
10
6.15772
20
-3.79661
11
6.14
21
-3.79661
0
LINE
8
BLACK
6
CONTINUOUS
10
6.14
20
-3.79661
11
6.13483
21
-3.7958
0
LINE
8
BLACK
6
CONTINUOUS
10
6.13483
20
-3.7958
11
6.13016
21
-3.79342
0
LINE
8
BLACK
6
CONTINUOUS
10
6.13016
20
-3.79342
11
6.12646
21
-3.78972
0
LINE
8
BLACK
6
CONTINUOUS
10
6.12646
20
-3.78972
11
6.12409
21
-3.78505
0
LINE
8
BLACK
6
CONTINUOUS
10
6.12409
20
-3.78505
11
6.12327
21
-3.77988
0
LINE
8
BLACK
6
CONTINUOUS
10
6.12327
20
-3.77988
11
6.12327
21
-3.7602
0
LINE
8
BLACK
6
CONTINUOUS
10
6.12327
20
-3.7602
11
6.12409
21
-3.75503
0
LINE
8
BLACK
6
CONTINUOUS
10
6.12409
20
-3.75503
11
6.12646
21
-3.75036
0
LINE
8
BLACK
6
CONTINUOUS
10
6.12646
20
-3.75036
11
6.13016
21
-3.74666
0
LINE
8
BLACK
6
CONTINUOUS
10
6.13016
20
-3.74666
11
6.13483
21
-3.74428
0
LINE
8
BLACK
6
CONTINUOUS
10
6.13483
20
-3.74428
11
6.14
21
-3.74346
0
LINE
8
BLACK
6
CONTINUOUS
10
6.14
20
-3.74346
11
6.15772
21
-3.74346
0
LINE
8
BLACK
6
CONTINUOUS
10
6.15772
20
-3.74346
11
6.16289
21
-3.74428
0
LINE
8
BLACK
6
CONTINUOUS
10
6.352
20
-3.70892
11
6.35608
21
-3.71091
0
LINE
8
BLACK
6
CONTINUOUS
10
6.35608
20
-3.71091
11
6.35929
21
-3.71412
0
LINE
8
BLACK
6
CONTINUOUS
10
6.35929
20
-3.71412
11
6.36128
21
-3.71819
0
LINE
8
BLACK
6
CONTINUOUS
10
6.36128
20
-3.71819
11
6.36185
21
-3.72213
0
LINE
8
BLACK
6
CONTINUOUS
10
6.36185
20
-3.72213
11
6.36185
21
-3.73394
0
LINE
8
BLACK
6
CONTINUOUS
10
6.36185
20
-3.73394
11
6.36128
21
-3.73787
0
LINE
8
BLACK
6
CONTINUOUS
10
6.36128
20
-3.73787
11
6.35929
21
-3.74194
0
LINE
8
BLACK
6
CONTINUOUS
10
6.35929
20
-3.74194
11
6.35608
21
-3.74515
0
LINE
8
BLACK
6
CONTINUOUS
10
6.35608
20
-3.74515
11
6.352
21
-3.74714
0
LINE
8
BLACK
6
CONTINUOUS
10
6.352
20
-3.74714
11
6.34807
21
-3.74772
0
LINE
8
BLACK
6
CONTINUOUS
10
6.34807
20
-3.74772
11
6.29295
21
-3.74772
0
LINE
8
BLACK
6
CONTINUOUS
10
6.29295
20
-3.74772
11
6.28902
21
-3.74714
0
LINE
8
BLACK
6
CONTINUOUS
10
6.28902
20
-3.74714
11
6.28495
21
-3.74515
0
LINE
8
BLACK
6
CONTINUOUS
10
6.28495
20
-3.74515
11
6.28174
21
-3.74194
0
LINE
8
BLACK
6
CONTINUOUS
10
6.28174
20
-3.74194
11
6.27975
21
-3.73787
0
LINE
8
BLACK
6
CONTINUOUS
10
6.27975
20
-3.73787
11
6.27917
21
-3.73394
0
LINE
8
BLACK
6
CONTINUOUS
10
6.27917
20
-3.73394
11
6.27917
21
-3.72213
0
LINE
8
BLACK
6
CONTINUOUS
10
6.27917
20
-3.72213
11
6.27975
21
-3.71819
0
LINE
8
BLACK
6
CONTINUOUS
10
6.27975
20
-3.71819
11
6.28174
21
-3.71412
0
LINE
8
BLACK
6
CONTINUOUS
10
6.28174
20
-3.71412
11
6.28495
21
-3.71091
0
LINE
8
BLACK
6
CONTINUOUS
10
6.28495
20
-3.71091
11
6.28902
21
-3.70892
0
LINE
8
BLACK
6
CONTINUOUS
10
6.28902
20
-3.70892
11
6.29295
21
-3.70835
0
LINE
8
BLACK
6
CONTINUOUS
10
6.29295
20
-3.70835
11
6.34807
21
-3.70835
0
LINE
8
BLACK
6
CONTINUOUS
10
6.34807
20
-3.70835
11
6.352
21
-3.70892
0
LINE
8
BLACK
6
CONTINUOUS
10
5.94861
20
-3.68424
11
5.953
21
-3.68647
0
LINE
8
BLACK
6
CONTINUOUS
10
5.953
20
-3.68647
11
5.95648
21
-3.68996
0
LINE
8
BLACK
6
CONTINUOUS
10
5.95648
20
-3.68996
11
5.95872
21
-3.69435
0
LINE
8
BLACK
6
CONTINUOUS
10
5.95872
20
-3.69435
11
5.95949
21
-3.69921
0
LINE
8
BLACK
6
CONTINUOUS
10
5.95949
20
-3.69921
11
5.95949
21
-3.72087
0
LINE
8
BLACK
6
CONTINUOUS
10
5.95949
20
-3.72087
11
5.95872
21
-3.72573
0
LINE
8
BLACK
6
CONTINUOUS
10
5.95872
20
-3.72573
11
5.95648
21
-3.73012
0
LINE
8
BLACK
6
CONTINUOUS
10
5.95648
20
-3.73012
11
5.953
21
-3.73361
0
LINE
8
BLACK
6
CONTINUOUS
10
5.953
20
-3.73361
11
5.94861
21
-3.73584
0
LINE
8
BLACK
6
CONTINUOUS
10
5.94861
20
-3.73584
11
5.94374
21
-3.73661
0
LINE
8
BLACK
6
CONTINUOUS
10
5.94374
20
-3.73661
11
5.92799
21
-3.73661
0
LINE
8
BLACK
6
CONTINUOUS
10
5.92799
20
-3.73661
11
5.92313
21
-3.73584
0
LINE
8
BLACK
6
CONTINUOUS
10
5.92313
20
-3.73584
11
5.91874
21
-3.73361
0
LINE
8
BLACK
6
CONTINUOUS
10
5.91874
20
-3.73361
11
5.91525
21
-3.73012
0
LINE
8
BLACK
6
CONTINUOUS
10
5.91525
20
-3.73012
11
5.91301
21
-3.72573
0
LINE
8
BLACK
6
CONTINUOUS
10
5.91301
20
-3.72573
11
5.91224
21
-3.72087
0
LINE
8
BLACK
6
CONTINUOUS
10
5.91224
20
-3.72087
11
5.91224
21
-3.69921
0
LINE
8
BLACK
6
CONTINUOUS
10
5.91224
20
-3.69921
11
5.91301
21
-3.69435
0
LINE
8
BLACK
6
CONTINUOUS
10
5.91301
20
-3.69435
11
5.91525
21
-3.68996
0
LINE
8
BLACK
6
CONTINUOUS
10
5.91525
20
-3.68996
11
5.91874
21
-3.68647
0
LINE
8
BLACK
6
CONTINUOUS
10
5.91874
20
-3.68647
11
5.92313
21
-3.68424
0
LINE
8
BLACK
6
CONTINUOUS
10
5.92313
20
-3.68424
11
5.92799
21
-3.68346
0
LINE
8
BLACK
6
CONTINUOUS
10
5.92799
20
-3.68346
11
5.94374
21
-3.68346
0
LINE
8
BLACK
6
CONTINUOUS
10
5.94374
20
-3.68346
11
5.94861
21
-3.68424
0
LINE
8
BLACK
6
CONTINUOUS
10
6.01357
20
-3.68424
11
6.01796
21
-3.68647
0
LINE
8
BLACK
6
CONTINUOUS
10
6.01796
20
-3.68647
11
6.02144
21
-3.68996
0
LINE
8
BLACK
6
CONTINUOUS
10
6.02144
20
-3.68996
11
6.02368
21
-3.69435
0
LINE
8
BLACK
6
CONTINUOUS
10
6.02368
20
-3.69435
11
6.02445
21
-3.69921
0
LINE
8
BLACK
6
CONTINUOUS
10
6.02445
20
-3.69921
11
6.02445
21
-3.72087
0
LINE
8
BLACK
6
CONTINUOUS
10
6.02445
20
-3.72087
11
6.02368
21
-3.72573
0
LINE
8
BLACK
6
CONTINUOUS
10
6.02368
20
-3.72573
11
6.02144
21
-3.73012
0
LINE
8
BLACK
6
CONTINUOUS
10
6.02144
20
-3.73012
11
6.01796
21
-3.73361
0
LINE
8
BLACK
6
CONTINUOUS
10
6.01796
20
-3.73361
11
6.01357
21
-3.73584
0
LINE
8
BLACK
6
CONTINUOUS
10
6.01357
20
-3.73584
11
6.0087
21
-3.73661
0
LINE
8
BLACK
6
CONTINUOUS
10
6.0087
20
-3.73661
11
5.99295
21
-3.73661
0
LINE
8
BLACK
6
CONTINUOUS
10
5.99295
20
-3.73661
11
5.98809
21
-3.73584
0
LINE
8
BLACK
6
CONTINUOUS
10
5.98809
20
-3.73584
11
5.9837
21
-3.73361
0
LINE
8
BLACK
6
CONTINUOUS
10
5.9837
20
-3.73361
11
5.98021
21
-3.73012
0
LINE
8
BLACK
6
CONTINUOUS
10
5.98021
20
-3.73012
11
5.97798
21
-3.72573
0
LINE
8
BLACK
6
CONTINUOUS
10
5.97798
20
-3.72573
11
5.9772
21
-3.72087
0
LINE
8
BLACK
6
CONTINUOUS
10
5.9772
20
-3.72087
11
5.9772
21
-3.69921
0
LINE
8
BLACK
6
CONTINUOUS
10
5.9772
20
-3.69921
11
5.97798
21
-3.69435
0
LINE
8
BLACK
6
CONTINUOUS
10
5.97798
20
-3.69435
11
5.98021
21
-3.68996
0
LINE
8
BLACK
6
CONTINUOUS
10
5.98021
20
-3.68996
11
5.9837
21
-3.68647
0
LINE
8
BLACK
6
CONTINUOUS
10
5.9837
20
-3.68647
11
5.98809
21
-3.68424
0
LINE
8
BLACK
6
CONTINUOUS
10
5.98809
20
-3.68424
11
5.99295
21
-3.68346
0
LINE
8
BLACK
6
CONTINUOUS
10
5.99295
20
-3.68346
11
6.0087
21
-3.68346
0
LINE
8
BLACK
6
CONTINUOUS
10
6.0087
20
-3.68346
11
6.01357
21
-3.68424
0
LINE
8
BLACK
6
CONTINUOUS
10
6.352
20
-3.65971
11
6.35608
21
-3.6617
0
LINE
8
BLACK
6
CONTINUOUS
10
6.35608
20
-3.6617
11
6.35929
21
-3.66491
0
LINE
8
BLACK
6
CONTINUOUS
10
6.35929
20
-3.66491
11
6.36128
21
-3.66898
0
LINE
8
BLACK
6
CONTINUOUS
10
6.36128
20
-3.66898
11
6.36185
21
-3.67291
0
LINE
8
BLACK
6
CONTINUOUS
10
6.36185
20
-3.67291
11
6.36185
21
-3.68472
0
LINE
8
BLACK
6
CONTINUOUS
10
6.36185
20
-3.68472
11
6.36128
21
-3.68866
0
LINE
8
BLACK
6
CONTINUOUS
10
6.36128
20
-3.68866
11
6.35929
21
-3.69273
0
LINE
8
BLACK
6
CONTINUOUS
10
6.35929
20
-3.69273
11
6.35608
21
-3.69594
0
LINE
8
BLACK
6
CONTINUOUS
10
6.35608
20
-3.69594
11
6.352
21
-3.69793
0
LINE
8
BLACK
6
CONTINUOUS
10
6.352
20
-3.69793
11
6.34807
21
-3.6985
0
LINE
8
BLACK
6
CONTINUOUS
10
6.34807
20
-3.6985
11
6.29295
21
-3.6985
0
LINE
8
BLACK
6
CONTINUOUS
10
6.29295
20
-3.6985
11
6.28902
21
-3.69793
0
LINE
8
BLACK
6
CONTINUOUS
10
6.28902
20
-3.69793
11
6.28495
21
-3.69594
0
LINE
8
BLACK
6
CONTINUOUS
10
6.28495
20
-3.69594
11
6.28174
21
-3.69273
0
LINE
8
BLACK
6
CONTINUOUS
10
6.28174
20
-3.69273
11
6.27975
21
-3.68866
0
LINE
8
BLACK
6
CONTINUOUS
10
6.27975
20
-3.68866
11
6.27917
21
-3.68472
0
LINE
8
BLACK
6
CONTINUOUS
10
6.27917
20
-3.68472
11
6.27917
21
-3.67291
0
LINE
8
BLACK
6
CONTINUOUS
10
6.27917
20
-3.67291
11
6.27975
21
-3.66898
0
LINE
8
BLACK
6
CONTINUOUS
10
6.27975
20
-3.66898
11
6.28174
21
-3.66491
0
LINE
8
BLACK
6
CONTINUOUS
10
6.28174
20
-3.66491
11
6.28495
21
-3.6617
0
LINE
8
BLACK
6
CONTINUOUS
10
6.28495
20
-3.6617
11
6.28902
21
-3.65971
0
LINE
8
BLACK
6
CONTINUOUS
10
6.28902
20
-3.65971
11
6.29295
21
-3.65913
0
LINE
8
BLACK
6
CONTINUOUS
10
6.29295
20
-3.65913
11
6.34807
21
-3.65913
0
LINE
8
BLACK
6
CONTINUOUS
10
6.34807
20
-3.65913
11
6.352
21
-3.65971
0
LINE
8
BLACK
6
CONTINUOUS
10
5.71404
20
-3.64719
11
5.71843
21
-3.64942
0
LINE
8
BLACK
6
CONTINUOUS
10
5.71843
20
-3.64942
11
5.72191
21
-3.65291
0
LINE
8
BLACK
6
CONTINUOUS
10
5.72191
20
-3.65291
11
5.72415
21
-3.6573
0
LINE
8
BLACK
6
CONTINUOUS
10
5.72415
20
-3.6573
11
5.72492
21
-3.66217
0
LINE
8
BLACK
6
CONTINUOUS
10
5.72492
20
-3.66217
11
5.72492
21
-3.67791
0
LINE
8
BLACK
6
CONTINUOUS
10
5.72492
20
-3.67791
11
5.72415
21
-3.68278
0
LINE
8
BLACK
6
CONTINUOUS
10
5.72415
20
-3.68278
11
5.72191
21
-3.68717
0
LINE
8
BLACK
6
CONTINUOUS
10
5.72191
20
-3.68717
11
5.71843
21
-3.69065
0
LINE
8
BLACK
6
CONTINUOUS
10
5.71843
20
-3.69065
11
5.71404
21
-3.69289
0
LINE
8
BLACK
6
CONTINUOUS
10
5.71404
20
-3.69289
11
5.70917
21
-3.69366
0
LINE
8
BLACK
6
CONTINUOUS
10
5.70917
20
-3.69366
11
5.68752
21
-3.69366
0
LINE
8
BLACK
6
CONTINUOUS
10
5.68752
20
-3.69366
11
5.68265
21
-3.69289
0
LINE
8
BLACK
6
CONTINUOUS
10
5.68265
20
-3.69289
11
5.67826
21
-3.69065
0
LINE
8
BLACK
6
CONTINUOUS
10
5.67826
20
-3.69065
11
5.67478
21
-3.68717
0
LINE
8
BLACK
6
CONTINUOUS
10
5.67478
20
-3.68717
11
5.67254
21
-3.68278
0
LINE
8
BLACK
6
CONTINUOUS
10
5.67254
20
-3.68278
11
5.67177
21
-3.67791
0
LINE
8
BLACK
6
CONTINUOUS
10
5.67177
20
-3.67791
11
5.67177
21
-3.66217
0
LINE
8
BLACK
6
CONTINUOUS
10
5.67177
20
-3.66217
11
5.67254
21
-3.6573
0
LINE
8
BLACK
6
CONTINUOUS
10
5.67254
20
-3.6573
11
5.67478
21
-3.65291
0
LINE
8
BLACK
6
CONTINUOUS
10
5.67478
20
-3.65291
11
5.67826
21
-3.64942
0
LINE
8
BLACK
6
CONTINUOUS
10
5.67826
20
-3.64942
11
5.68265
21
-3.64719
0
LINE
8
BLACK
6
CONTINUOUS
10
5.68265
20
-3.64719
11
5.68752
21
-3.64642
0
LINE
8
BLACK
6
CONTINUOUS
10
5.68752
20
-3.64642
11
5.70917
21
-3.64642
0
LINE
8
BLACK
6
CONTINUOUS
10
5.70917
20
-3.64642
11
5.71404
21
-3.64719
0
LINE
8
BLACK
6
CONTINUOUS
10
5.51904
20
-3.64715
11
5.52343
21
-3.64939
0
LINE
8
BLACK
6
CONTINUOUS
10
5.52343
20
-3.64939
11
5.52691
21
-3.65287
0
LINE
8
BLACK
6
CONTINUOUS
10
5.52691
20
-3.65287
11
5.52915
21
-3.65726
0
LINE
8
BLACK
6
CONTINUOUS
10
5.52915
20
-3.65726
11
5.52992
21
-3.66213
0
LINE
8
BLACK
6
CONTINUOUS
10
5.52992
20
-3.66213
11
5.52992
21
-3.67787
0
LINE
8
BLACK
6
CONTINUOUS
10
5.52992
20
-3.67787
11
5.52915
21
-3.68274
0
LINE
8
BLACK
6
CONTINUOUS
10
5.52915
20
-3.68274
11
5.52691
21
-3.68713
0
LINE
8
BLACK
6
CONTINUOUS
10
5.52691
20
-3.68713
11
5.52343
21
-3.69061
0
LINE
8
BLACK
6
CONTINUOUS
10
5.52343
20
-3.69061
11
5.51904
21
-3.69285
0
LINE
8
BLACK
6
CONTINUOUS
10
5.51904
20
-3.69285
11
5.51417
21
-3.69362
0
LINE
8
BLACK
6
CONTINUOUS
10
5.51417
20
-3.69362
11
5.49252
21
-3.69362
0
LINE
8
BLACK
6
CONTINUOUS
10
5.49252
20
-3.69362
11
5.48765
21
-3.69285
0
LINE
8
BLACK
6
CONTINUOUS
10
5.48765
20
-3.69285
11
5.48326
21
-3.69061
0
LINE
8
BLACK
6
CONTINUOUS
10
5.48326
20
-3.69061
11
5.47978
21
-3.68713
0
LINE
8
BLACK
6
CONTINUOUS
10
5.47978
20
-3.68713
11
5.47754
21
-3.68274
0
LINE
8
BLACK
6
CONTINUOUS
10
5.47754
20
-3.68274
11
5.47677
21
-3.67787
0
LINE
8
BLACK
6
CONTINUOUS
10
5.47677
20
-3.67787
11
5.47677
21
-3.66213
0
LINE
8
BLACK
6
CONTINUOUS
10
5.47677
20
-3.66213
11
5.47754
21
-3.65726
0
LINE
8
BLACK
6
CONTINUOUS
10
5.47754
20
-3.65726
11
5.47978
21
-3.65287
0
LINE
8
BLACK
6
CONTINUOUS
10
5.47978
20
-3.65287
11
5.48326
21
-3.64939
0
LINE
8
BLACK
6
CONTINUOUS
10
5.48326
20
-3.64939
11
5.48765
21
-3.64715
0
LINE
8
BLACK
6
CONTINUOUS
10
5.48765
20
-3.64715
11
5.49252
21
-3.64638
0
LINE
8
BLACK
6
CONTINUOUS
10
5.49252
20
-3.64638
11
5.51417
21
-3.64638
0
LINE
8
BLACK
6
CONTINUOUS
10
5.51417
20
-3.64638
11
5.51904
21
-3.64715
0
LINE
8
BLACK
6
CONTINUOUS
10
5.60404
20
-3.64715
11
5.60843
21
-3.64939
0
LINE
8
BLACK
6
CONTINUOUS
10
5.60843
20
-3.64939
11
5.61191
21
-3.65287
0
LINE
8
BLACK
6
CONTINUOUS
10
5.61191
20
-3.65287
11
5.61415
21
-3.65726
0
LINE
8
BLACK
6
CONTINUOUS
10
5.61415
20
-3.65726
11
5.61492
21
-3.66213
0
LINE
8
BLACK
6
CONTINUOUS
10
5.61492
20
-3.66213
11
5.61492
21
-3.67787
0
LINE
8
BLACK
6
CONTINUOUS
10
5.61492
20
-3.67787
11
5.61415
21
-3.68274
0
LINE
8
BLACK
6
CONTINUOUS
10
5.61415
20
-3.68274
11
5.61191
21
-3.68713
0
LINE
8
BLACK
6
CONTINUOUS
10
5.61191
20
-3.68713
11
5.60843
21
-3.69061
0
LINE
8
BLACK
6
CONTINUOUS
10
5.60843
20
-3.69061
11
5.60404
21
-3.69285
0
LINE
8
BLACK
6
CONTINUOUS
10
5.60404
20
-3.69285
11
5.59917
21
-3.69362
0
LINE
8
BLACK
6
CONTINUOUS
10
5.59917
20
-3.69362
11
5.57752
21
-3.69362
0
LINE
8
BLACK
6
CONTINUOUS
10
5.57752
20
-3.69362
11
5.57265
21
-3.69285
0
LINE
8
BLACK
6
CONTINUOUS
10
5.57265
20
-3.69285
11
5.56826
21
-3.69061
0
LINE
8
BLACK
6
CONTINUOUS
10
5.56826
20
-3.69061
11
5.56478
21
-3.68713
0
LINE
8
BLACK
6
CONTINUOUS
10
5.56478
20
-3.68713
11
5.56254
21
-3.68274
0
LINE
8
BLACK
6
CONTINUOUS
10
5.56254
20
-3.68274
11
5.56177
21
-3.67787
0
LINE
8
BLACK
6
CONTINUOUS
10
5.56177
20
-3.67787
11
5.56177
21
-3.66213
0
LINE
8
BLACK
6
CONTINUOUS
10
5.56177
20
-3.66213
11
5.56254
21
-3.65726
0
LINE
8
BLACK
6
CONTINUOUS
10
5.56254
20
-3.65726
11
5.56478
21
-3.65287
0
LINE
8
BLACK
6
CONTINUOUS
10
5.56478
20
-3.65287
11
5.56826
21
-3.64939
0
LINE
8
BLACK
6
CONTINUOUS
10
5.56826
20
-3.64939
11
5.57265
21
-3.64715
0
LINE
8
BLACK
6
CONTINUOUS
10
5.57265
20
-3.64715
11
5.57752
21
-3.64638
0
LINE
8
BLACK
6
CONTINUOUS
10
5.57752
20
-3.64638
11
5.59917
21
-3.64638
0
LINE
8
BLACK
6
CONTINUOUS
10
5.59917
20
-3.64638
11
5.60404
21
-3.64715
0
LINE
8
BLACK
6
CONTINUOUS
10
5.81904
20
-3.64715
11
5.82343
21
-3.64939
0
LINE
8
BLACK
6
CONTINUOUS
10
5.82343
20
-3.64939
11
5.82691
21
-3.65287
0
LINE
8
BLACK
6
CONTINUOUS
10
5.82691
20
-3.65287
11
5.82915
21
-3.65726
0
LINE
8
BLACK
6
CONTINUOUS
10
5.82915
20
-3.65726
11
5.82992
21
-3.66213
0
LINE
8
BLACK
6
CONTINUOUS
10
5.82992
20
-3.66213
11
5.82992
21
-3.67787
0
LINE
8
BLACK
6
CONTINUOUS
10
5.82992
20
-3.67787
11
5.82915
21
-3.68274
0
LINE
8
BLACK
6
CONTINUOUS
10
5.82915
20
-3.68274
11
5.82691
21
-3.68713
0
LINE
8
BLACK
6
CONTINUOUS
10
5.82691
20
-3.68713
11
5.82343
21
-3.69061
0
LINE
8
BLACK
6
CONTINUOUS
10
5.82343
20
-3.69061
11
5.81904
21
-3.69285
0
LINE
8
BLACK
6
CONTINUOUS
10
5.81904
20
-3.69285
11
5.81417
21
-3.69362
0
LINE
8
BLACK
6
CONTINUOUS
10
5.81417
20
-3.69362
11
5.79252
21
-3.69362
0
LINE
8
BLACK
6
CONTINUOUS
10
5.79252
20
-3.69362
11
5.78765
21
-3.69285
0
LINE
8
BLACK
6
CONTINUOUS
10
5.78765
20
-3.69285
11
5.78326
21
-3.69061
0
LINE
8
BLACK
6
CONTINUOUS
10
5.78326
20
-3.69061
11
5.77978
21
-3.68713
0
LINE
8
BLACK
6
CONTINUOUS
10
5.77978
20
-3.68713
11
5.77754
21
-3.68274
0
LINE
8
BLACK
6
CONTINUOUS
10
5.77754
20
-3.68274
11
5.77677
21
-3.67787
0
LINE
8
BLACK
6
CONTINUOUS
10
5.77677
20
-3.67787
11
5.77677
21
-3.66213
0
LINE
8
BLACK
6
CONTINUOUS
10
5.77677
20
-3.66213
11
5.77754
21
-3.65726
0
LINE
8
BLACK
6
CONTINUOUS
10
5.77754
20
-3.65726
11
5.77978
21
-3.65287
0
LINE
8
BLACK
6
CONTINUOUS
10
5.77978
20
-3.65287
11
5.78326
21
-3.64939
0
LINE
8
BLACK
6
CONTINUOUS
10
5.78326
20
-3.64939
11
5.78765
21
-3.64715
0
LINE
8
BLACK
6
CONTINUOUS
10
5.78765
20
-3.64715
11
5.79252
21
-3.64638
0
LINE
8
BLACK
6
CONTINUOUS
10
5.79252
20
-3.64638
11
5.81417
21
-3.64638
0
LINE
8
BLACK
6
CONTINUOUS
10
5.81417
20
-3.64638
11
5.81904
21
-3.64715
0
LINE
8
BLACK
6
CONTINUOUS
10
5.94861
20
-3.60424
11
5.953
21
-3.60647
0
LINE
8
BLACK
6
CONTINUOUS
10
5.953
20
-3.60647
11
5.95648
21
-3.60996
0
LINE
8
BLACK
6
CONTINUOUS
10
5.95648
20
-3.60996
11
5.95872
21
-3.61435
0
LINE
8
BLACK
6
CONTINUOUS
10
5.95872
20
-3.61435
11
5.95949
21
-3.61921
0
LINE
8
BLACK
6
CONTINUOUS
10
5.95949
20
-3.61921
11
5.95949
21
-3.64087
0
LINE
8
BLACK
6
CONTINUOUS
10
5.95949
20
-3.64087
11
5.95872
21
-3.64573
0
LINE
8
BLACK
6
CONTINUOUS
10
5.95872
20
-3.64573
11
5.95648
21
-3.65012
0
LINE
8
BLACK
6
CONTINUOUS
10
5.95648
20
-3.65012
11
5.953
21
-3.65361
0
LINE
8
BLACK
6
CONTINUOUS
10
5.953
20
-3.65361
11
5.94861
21
-3.65584
0
LINE
8
BLACK
6
CONTINUOUS
10
5.94861
20
-3.65584
11
5.94374
21
-3.65661
0
LINE
8
BLACK
6
CONTINUOUS
10
5.94374
20
-3.65661
11
5.92799
21
-3.65661
0
LINE
8
BLACK
6
CONTINUOUS
10
5.92799
20
-3.65661
11
5.92313
21
-3.65584
0
LINE
8
BLACK
6
CONTINUOUS
10
5.92313
20
-3.65584
11
5.91874
21
-3.65361
0
LINE
8
BLACK
6
CONTINUOUS
10
5.91874
20
-3.65361
11
5.91525
21
-3.65012
0
LINE
8
BLACK
6
CONTINUOUS
10
5.91525
20
-3.65012
11
5.91301
21
-3.64573
0
LINE
8
BLACK
6
CONTINUOUS
10
5.91301
20
-3.64573
11
5.91224
21
-3.64087
0
LINE
8
BLACK
6
CONTINUOUS
10
5.91224
20
-3.64087
11
5.91224
21
-3.61921
0
LINE
8
BLACK
6
CONTINUOUS
10
5.91224
20
-3.61921
11
5.91301
21
-3.61435
0
LINE
8
BLACK
6
CONTINUOUS
10
5.91301
20
-3.61435
11
5.91525
21
-3.60996
0
LINE
8
BLACK
6
CONTINUOUS
10
5.91525
20
-3.60996
11
5.91874
21
-3.60647
0
LINE
8
BLACK
6
CONTINUOUS
10
5.91874
20
-3.60647
11
5.92313
21
-3.60424
0
LINE
8
BLACK
6
CONTINUOUS
10
5.92313
20
-3.60424
11
5.92799
21
-3.60346
0
LINE
8
BLACK
6
CONTINUOUS
10
5.92799
20
-3.60346
11
5.94374
21
-3.60346
0
LINE
8
BLACK
6
CONTINUOUS
10
5.94374
20
-3.60346
11
5.94861
21
-3.60424
0
LINE
8
BLACK
6
CONTINUOUS
10
6.01357
20
-3.60424
11
6.01796
21
-3.60647
0
LINE
8
BLACK
6
CONTINUOUS
10
6.01796
20
-3.60647
11
6.02144
21
-3.60996
0
LINE
8
BLACK
6
CONTINUOUS
10
6.02144
20
-3.60996
11
6.02368
21
-3.61435
0
LINE
8
BLACK
6
CONTINUOUS
10
6.02368
20
-3.61435
11
6.02445
21
-3.61921
0
LINE
8
BLACK
6
CONTINUOUS
10
6.02445
20
-3.61921
11
6.02445
21
-3.64087
0
LINE
8
BLACK
6
CONTINUOUS
10
6.02445
20
-3.64087
11
6.02368
21
-3.64573
0
LINE
8
BLACK
6
CONTINUOUS
10
6.02368
20
-3.64573
11
6.02144
21
-3.65012
0
LINE
8
BLACK
6
CONTINUOUS
10
6.02144
20
-3.65012
11
6.01796
21
-3.65361
0
LINE
8
BLACK
6
CONTINUOUS
10
6.01796
20
-3.65361
11
6.01357
21
-3.65584
0
LINE
8
BLACK
6
CONTINUOUS
10
6.01357
20
-3.65584
11
6.0087
21
-3.65661
0
LINE
8
BLACK
6
CONTINUOUS
10
6.0087
20
-3.65661
11
5.99295
21
-3.65661
0
LINE
8
BLACK
6
CONTINUOUS
10
5.99295
20
-3.65661
11
5.98809
21
-3.65584
0
LINE
8
BLACK
6
CONTINUOUS
10
5.98809
20
-3.65584
11
5.9837
21
-3.65361
0
LINE
8
BLACK
6
CONTINUOUS
10
5.9837
20
-3.65361
11
5.98021
21
-3.65012
0
LINE
8
BLACK
6
CONTINUOUS
10
5.98021
20
-3.65012
11
5.97798
21
-3.64573
0
LINE
8
BLACK
6
CONTINUOUS
10
5.97798
20
-3.64573
11
5.9772
21
-3.64087
0
LINE
8
BLACK
6
CONTINUOUS
10
5.9772
20
-3.64087
11
5.9772
21
-3.61921
0
LINE
8
BLACK
6
CONTINUOUS
10
5.9772
20
-3.61921
11
5.97798
21
-3.61435
0
LINE
8
BLACK
6
CONTINUOUS
10
5.97798
20
-3.61435
11
5.98021
21
-3.60996
0
LINE
8
BLACK
6
CONTINUOUS
10
5.98021
20
-3.60996
11
5.9837
21
-3.60647
0
LINE
8
BLACK
6
CONTINUOUS
10
5.9837
20
-3.60647
11
5.98809
21
-3.60424
0
LINE
8
BLACK
6
CONTINUOUS
10
5.98809
20
-3.60424
11
5.99295
21
-3.60346
0
LINE
8
BLACK
6
CONTINUOUS
10
5.99295
20
-3.60346
11
6.0087
21
-3.60346
0
LINE
8
BLACK
6
CONTINUOUS
10
6.0087
20
-3.60346
11
6.01357
21
-3.60424
0
LINE
8
BLACK
6
CONTINUOUS
10
6.352
20
-3.61049
11
6.35608
21
-3.61249
0
LINE
8
BLACK
6
CONTINUOUS
10
6.35608
20
-3.61249
11
6.35929
21
-3.61569
0
LINE
8
BLACK
6
CONTINUOUS
10
6.35929
20
-3.61569
11
6.36128
21
-3.61977
0
LINE
8
BLACK
6
CONTINUOUS
10
6.36128
20
-3.61977
11
6.36185
21
-3.6237
0
LINE
8
BLACK
6
CONTINUOUS
10
6.36185
20
-3.6237
11
6.36185
21
-3.63551
0
LINE
8
BLACK
6
CONTINUOUS
10
6.36185
20
-3.63551
11
6.36128
21
-3.63944
0
LINE
8
BLACK
6
CONTINUOUS
10
6.36128
20
-3.63944
11
6.35929
21
-3.64352
0
LINE
8
BLACK
6
CONTINUOUS
10
6.35929
20
-3.64352
11
6.35608
21
-3.64673
0
LINE
8
BLACK
6
CONTINUOUS
10
6.35608
20
-3.64673
11
6.352
21
-3.64872
0
LINE
8
BLACK
6
CONTINUOUS
10
6.352
20
-3.64872
11
6.34807
21
-3.64929
0
LINE
8
BLACK
6
CONTINUOUS
10
6.34807
20
-3.64929
11
6.29295
21
-3.64929
0
LINE
8
BLACK
6
CONTINUOUS
10
6.29295
20
-3.64929
11
6.28902
21
-3.64872
0
LINE
8
BLACK
6
CONTINUOUS
10
6.28902
20
-3.64872
11
6.28495
21
-3.64673
0
LINE
8
BLACK
6
CONTINUOUS
10
6.28495
20
-3.64673
11
6.28174
21
-3.64352
0
LINE
8
BLACK
6
CONTINUOUS
10
6.28174
20
-3.64352
11
6.27975
21
-3.63944
0
LINE
8
BLACK
6
CONTINUOUS
10
6.27975
20
-3.63944
11
6.27917
21
-3.63551
0
LINE
8
BLACK
6
CONTINUOUS
10
6.27917
20
-3.63551
11
6.27917
21
-3.6237
0
LINE
8
BLACK
6
CONTINUOUS
10
6.27917
20
-3.6237
11
6.27975
21
-3.61977
0
LINE
8
BLACK
6
CONTINUOUS
10
6.27975
20
-3.61977
11
6.28174
21
-3.61569
0
LINE
8
BLACK
6
CONTINUOUS
10
6.28174
20
-3.61569
11
6.28495
21
-3.61249
0
LINE
8
BLACK
6
CONTINUOUS
10
6.28495
20
-3.61249
11
6.28902
21
-3.61049
0
LINE
8
BLACK
6
CONTINUOUS
10
6.28902
20
-3.61049
11
6.29295
21
-3.60992
0
LINE
8
BLACK
6
CONTINUOUS
10
6.29295
20
-3.60992
11
6.34807
21
-3.60992
0
LINE
8
BLACK
6
CONTINUOUS
10
6.34807
20
-3.60992
11
6.352
21
-3.61049
0
LINE
8
BLACK
6
CONTINUOUS
10
5.71404
20
-3.58223
11
5.71843
21
-3.58446
0
LINE
8
BLACK
6
CONTINUOUS
10
5.71843
20
-3.58446
11
5.72191
21
-3.58795
0
LINE
8
BLACK
6
CONTINUOUS
10
5.72191
20
-3.58795
11
5.72415
21
-3.59234
0
LINE
8
BLACK
6
CONTINUOUS
10
5.72415
20
-3.59234
11
5.72492
21
-3.5972
0
LINE
8
BLACK
6
CONTINUOUS
10
5.72492
20
-3.5972
11
5.72492
21
-3.61295
0
LINE
8
BLACK
6
CONTINUOUS
10
5.72492
20
-3.61295
11
5.72415
21
-3.61782
0
LINE
8
BLACK
6
CONTINUOUS
10
5.72415
20
-3.61782
11
5.72191
21
-3.62221
0
LINE
8
BLACK
6
CONTINUOUS
10
5.72191
20
-3.62221
11
5.71843
21
-3.62569
0
LINE
8
BLACK
6
CONTINUOUS
10
5.71843
20
-3.62569
11
5.71404
21
-3.62793
0
LINE
8
BLACK
6
CONTINUOUS
10
5.71404
20
-3.62793
11
5.70917
21
-3.6287
0
LINE
8
BLACK
6
CONTINUOUS
10
5.70917
20
-3.6287
11
5.68752
21
-3.6287
0
LINE
8
BLACK
6
CONTINUOUS
10
5.68752
20
-3.6287
11
5.68265
21
-3.62793
0
LINE
8
BLACK
6
CONTINUOUS
10
5.68265
20
-3.62793
11
5.67826
21
-3.62569
0
LINE
8
BLACK
6
CONTINUOUS
10
5.67826
20
-3.62569
11
5.67478
21
-3.62221
0
LINE
8
BLACK
6
CONTINUOUS
10
5.67478
20
-3.62221
11
5.67254
21
-3.61782
0
LINE
8
BLACK
6
CONTINUOUS
10
5.67254
20
-3.61782
11
5.67177
21
-3.61295
0
LINE
8
BLACK
6
CONTINUOUS
10
5.67177
20
-3.61295
11
5.67177
21
-3.5972
0
LINE
8
BLACK
6
CONTINUOUS
10
5.67177
20
-3.5972
11
5.67254
21
-3.59234
0
LINE
8
BLACK
6
CONTINUOUS
10
5.67254
20
-3.59234
11
5.67478
21
-3.58795
0
LINE
8
BLACK
6
CONTINUOUS
10
5.67478
20
-3.58795
11
5.67826
21
-3.58446
0
LINE
8
BLACK
6
CONTINUOUS
10
5.67826
20
-3.58446
11
5.68265
21
-3.58223
0
LINE
8
BLACK
6
CONTINUOUS
10
5.68265
20
-3.58223
11
5.68752
21
-3.58146
0
LINE
8
BLACK
6
CONTINUOUS
10
5.68752
20
-3.58146
11
5.70917
21
-3.58146
0
LINE
8
BLACK
6
CONTINUOUS
10
5.70917
20
-3.58146
11
5.71404
21
-3.58223
0
LINE
8
BLACK
6
CONTINUOUS
10
5.51904
20
-3.58219
11
5.52343
21
-3.58442
0
LINE
8
BLACK
6
CONTINUOUS
10
5.52343
20
-3.58442
11
5.52691
21
-3.58791
0
LINE
8
BLACK
6
CONTINUOUS
10
5.52691
20
-3.58791
11
5.52915
21
-3.5923
0
LINE
8
BLACK
6
CONTINUOUS
10
5.52915
20
-3.5923
11
5.52992
21
-3.59717
0
LINE
8
BLACK
6
CONTINUOUS
10
5.52992
20
-3.59717
11
5.52992
21
-3.61291
0
LINE
8
BLACK
6
CONTINUOUS
10
5.52992
20
-3.61291
11
5.52915
21
-3.61778
0
LINE
8
BLACK
6
CONTINUOUS
10
5.52915
20
-3.61778
11
5.52691
21
-3.62217
0
LINE
8
BLACK
6
CONTINUOUS
10
5.52691
20
-3.62217
11
5.52343
21
-3.62565
0
LINE
8
BLACK
6
CONTINUOUS
10
5.52343
20
-3.62565
11
5.51904
21
-3.62789
0
LINE
8
BLACK
6
CONTINUOUS
10
5.51904
20
-3.62789
11
5.51417
21
-3.62866
0
LINE
8
BLACK
6
CONTINUOUS
10
5.51417
20
-3.62866
11
5.49252
21
-3.62866
0
LINE
8
BLACK
6
CONTINUOUS
10
5.49252
20
-3.62866
11
5.48765
21
-3.62789
0
LINE
8
BLACK
6
CONTINUOUS
10
5.48765
20
-3.62789
11
5.48326
21
-3.62565
0
LINE
8
BLACK
6
CONTINUOUS
10
5.48326
20
-3.62565
11
5.47978
21
-3.62217
0
LINE
8
BLACK
6
CONTINUOUS
10
5.47978
20
-3.62217
11
5.47754
21
-3.61778
0
LINE
8
BLACK
6
CONTINUOUS
10
5.47754
20
-3.61778
11
5.47677
21
-3.61291
0
LINE
8
BLACK
6
CONTINUOUS
10
5.47677
20
-3.61291
11
5.47677
21
-3.59717
0
LINE
8
BLACK
6
CONTINUOUS
10
5.47677
20
-3.59717
11
5.47754
21
-3.5923
0
LINE
8
BLACK
6
CONTINUOUS
10
5.47754
20
-3.5923
11
5.47978
21
-3.58791
0
LINE
8
BLACK
6
CONTINUOUS
10
5.47978
20
-3.58791
11
5.48326
21
-3.58442
0
LINE
8
BLACK
6
CONTINUOUS
10
5.48326
20
-3.58442
11
5.48765
21
-3.58219
0
LINE
8
BLACK
6
CONTINUOUS
10
5.48765
20
-3.58219
11
5.49252
21
-3.58142
0
LINE
8
BLACK
6
CONTINUOUS
10
5.49252
20
-3.58142
11
5.51417
21
-3.58142
0
LINE
8
BLACK
6
CONTINUOUS
10
5.51417
20
-3.58142
11
5.51904
21
-3.58219
0
LINE
8
BLACK
6
CONTINUOUS
10
5.60404
20
-3.58219
11
5.60843
21
-3.58442
0
LINE
8
BLACK
6
CONTINUOUS
10
5.60843
20
-3.58442
11
5.61191
21
-3.58791
0
LINE
8
BLACK
6
CONTINUOUS
10
5.61191
20
-3.58791
11
5.61415
21
-3.5923
0
LINE
8
BLACK
6
CONTINUOUS
10
5.61415
20
-3.5923
11
5.61492
21
-3.59717
0
LINE
8
BLACK
6
CONTINUOUS
10
5.61492
20
-3.59717
11
5.61492
21
-3.61291
0
LINE
8
BLACK
6
CONTINUOUS
10
5.61492
20
-3.61291
11
5.61415
21
-3.61778
0
LINE
8
BLACK
6
CONTINUOUS
10
5.61415
20
-3.61778
11
5.61191
21
-3.62217
0
LINE
8
BLACK
6
CONTINUOUS
10
5.61191
20
-3.62217
11
5.60843
21
-3.62565
0
LINE
8
BLACK
6
CONTINUOUS
10
5.60843
20
-3.62565
11
5.60404
21
-3.62789
0
LINE
8
BLACK
6
CONTINUOUS
10
5.60404
20
-3.62789
11
5.59917
21
-3.62866
0
LINE
8
BLACK
6
CONTINUOUS
10
5.59917
20
-3.62866
11
5.57752
21
-3.62866
0
LINE
8
BLACK
6
CONTINUOUS
10
5.57752
20
-3.62866
11
5.57265
21
-3.62789
0
LINE
8
BLACK
6
CONTINUOUS
10
5.57265
20
-3.62789
11
5.56826
21
-3.62565
0
LINE
8
BLACK
6
CONTINUOUS
10
5.56826
20
-3.62565
11
5.56478
21
-3.62217
0
LINE
8
BLACK
6
CONTINUOUS
10
5.56478
20
-3.62217
11
5.56254
21
-3.61778
0
LINE
8
BLACK
6
CONTINUOUS
10
5.56254
20
-3.61778
11
5.56177
21
-3.61291
0
LINE
8
BLACK
6
CONTINUOUS
10
5.56177
20
-3.61291
11
5.56177
21
-3.59717
0
LINE
8
BLACK
6
CONTINUOUS
10
5.56177
20
-3.59717
11
5.56254
21
-3.5923
0
LINE
8
BLACK
6
CONTINUOUS
10
5.56254
20
-3.5923
11
5.56478
21
-3.58791
0
LINE
8
BLACK
6
CONTINUOUS
10
5.56478
20
-3.58791
11
5.56826
21
-3.58442
0
LINE
8
BLACK
6
CONTINUOUS
10
5.56826
20
-3.58442
11
5.57265
21
-3.58219
0
LINE
8
BLACK
6
CONTINUOUS
10
5.57265
20
-3.58219
11
5.57752
21
-3.58142
0
LINE
8
BLACK
6
CONTINUOUS
10
5.57752
20
-3.58142
11
5.59917
21
-3.58142
0
LINE
8
BLACK
6
CONTINUOUS
10
5.59917
20
-3.58142
11
5.60404
21
-3.58219
0
LINE
8
BLACK
6
CONTINUOUS
10
5.81904
20
-3.58219
11
5.82343
21
-3.58442
0
LINE
8
BLACK
6
CONTINUOUS
10
5.82343
20
-3.58442
11
5.82691
21
-3.58791
0
LINE
8
BLACK
6
CONTINUOUS
10
5.82691
20
-3.58791
11
5.82915
21
-3.5923
0
LINE
8
BLACK
6
CONTINUOUS
10
5.82915
20
-3.5923
11
5.82992
21
-3.59717
0
LINE
8
BLACK
6
CONTINUOUS
10
5.82992
20
-3.59717
11
5.82992
21
-3.61291
0
LINE
8
BLACK
6
CONTINUOUS
10
5.82992
20
-3.61291
11
5.82915
21
-3.61778
0
LINE
8
BLACK
6
CONTINUOUS
10
5.82915
20
-3.61778
11
5.82691
21
-3.62217
0
LINE
8
BLACK
6
CONTINUOUS
10
5.82691
20
-3.62217
11
5.82343
21
-3.62565
0
LINE
8
BLACK
6
CONTINUOUS
10
5.82343
20
-3.62565
11
5.81904
21
-3.62789
0
LINE
8
BLACK
6
CONTINUOUS
10
5.81904
20
-3.62789
11
5.81417
21
-3.62866
0
LINE
8
BLACK
6
CONTINUOUS
10
5.81417
20
-3.62866
11
5.79252
21
-3.62866
0
LINE
8
BLACK
6
CONTINUOUS
10
5.79252
20
-3.62866
11
5.78765
21
-3.62789
0
LINE
8
BLACK
6
CONTINUOUS
10
5.78765
20
-3.62789
11
5.78326
21
-3.62565
0
LINE
8
BLACK
6
CONTINUOUS
10
5.78326
20
-3.62565
11
5.77978
21
-3.62217
0
LINE
8
BLACK
6
CONTINUOUS
10
5.77978
20
-3.62217
11
5.77754
21
-3.61778
0
LINE
8
BLACK
6
CONTINUOUS
10
5.77754
20
-3.61778
11
5.77677
21
-3.61291
0
LINE
8
BLACK
6
CONTINUOUS
10
5.77677
20
-3.61291
11
5.77677
21
-3.59717
0
LINE
8
BLACK
6
CONTINUOUS
10
5.77677
20
-3.59717
11
5.77754
21
-3.5923
0
LINE
8
BLACK
6
CONTINUOUS
10
5.77754
20
-3.5923
11
5.77978
21
-3.58791
0
LINE
8
BLACK
6
CONTINUOUS
10
5.77978
20
-3.58791
11
5.78326
21
-3.58442
0
LINE
8
BLACK
6
CONTINUOUS
10
5.78326
20
-3.58442
11
5.78765
21
-3.58219
0
LINE
8
BLACK
6
CONTINUOUS
10
5.78765
20
-3.58219
11
5.79252
21
-3.58142
0
LINE
8
BLACK
6
CONTINUOUS
10
5.79252
20
-3.58142
11
5.81417
21
-3.58142
0
LINE
8
BLACK
6
CONTINUOUS
10
5.81417
20
-3.58142
11
5.81904
21
-3.58219
0
LINE
8
BLACK
6
CONTINUOUS
10
6.352
20
-3.56128
11
6.35608
21
-3.56327
0
LINE
8
BLACK
6
CONTINUOUS
10
6.35608
20
-3.56327
11
6.35929
21
-3.56648
0
LINE
8
BLACK
6
CONTINUOUS
10
6.35929
20
-3.56648
11
6.36128
21
-3.57056
0
LINE
8
BLACK
6
CONTINUOUS
10
6.36128
20
-3.57056
11
6.36185
21
-3.57449
0
LINE
8
BLACK
6
CONTINUOUS
10
6.36185
20
-3.57449
11
6.36185
21
-3.5863
0
LINE
8
BLACK
6
CONTINUOUS
10
6.36185
20
-3.5863
11
6.36128
21
-3.59023
0
LINE
8
BLACK
6
CONTINUOUS
10
6.36128
20
-3.59023
11
6.35929
21
-3.59431
0
LINE
8
BLACK
6
CONTINUOUS
10
6.35929
20
-3.59431
11
6.35608
21
-3.59751
0
LINE
8
BLACK
6
CONTINUOUS
10
6.35608
20
-3.59751
11
6.352
21
-3.59951
0
LINE
8
BLACK
6
CONTINUOUS
10
6.352
20
-3.59951
11
6.34807
21
-3.60008
0
LINE
8
BLACK
6
CONTINUOUS
10
6.34807
20
-3.60008
11
6.29295
21
-3.60008
0
LINE
8
BLACK
6
CONTINUOUS
10
6.29295
20
-3.60008
11
6.28902
21
-3.59951
0
LINE
8
BLACK
6
CONTINUOUS
10
6.28902
20
-3.59951
11
6.28495
21
-3.59751
0
LINE
8
BLACK
6
CONTINUOUS
10
6.28495
20
-3.59751
11
6.28174
21
-3.59431
0
LINE
8
BLACK
6
CONTINUOUS
10
6.28174
20
-3.59431
11
6.27975
21
-3.59023
0
LINE
8
BLACK
6
CONTINUOUS
10
6.27975
20
-3.59023
11
6.27917
21
-3.5863
0
LINE
8
BLACK
6
CONTINUOUS
10
6.27917
20
-3.5863
11
6.27917
21
-3.57449
0
LINE
8
BLACK
6
CONTINUOUS
10
6.27917
20
-3.57449
11
6.27975
21
-3.57056
0
LINE
8
BLACK
6
CONTINUOUS
10
6.27975
20
-3.57056
11
6.28174
21
-3.56648
0
LINE
8
BLACK
6
CONTINUOUS
10
6.28174
20
-3.56648
11
6.28495
21
-3.56327
0
LINE
8
BLACK
6
CONTINUOUS
10
6.28495
20
-3.56327
11
6.28902
21
-3.56128
0
LINE
8
BLACK
6
CONTINUOUS
10
6.28902
20
-3.56128
11
6.29295
21
-3.56071
0
LINE
8
BLACK
6
CONTINUOUS
10
6.29295
20
-3.56071
11
6.34807
21
-3.56071
0
LINE
8
BLACK
6
CONTINUOUS
10
6.34807
20
-3.56071
11
6.352
21
-3.56128
0
LINE
8
BLACK
6
CONTINUOUS
10
6.352
20
-3.51207
11
6.35608
21
-3.51406
0
LINE
8
BLACK
6
CONTINUOUS
10
6.35608
20
-3.51406
11
6.35929
21
-3.51727
0
LINE
8
BLACK
6
CONTINUOUS
10
6.35929
20
-3.51727
11
6.36128
21
-3.52134
0
LINE
8
BLACK
6
CONTINUOUS
10
6.36128
20
-3.52134
11
6.36185
21
-3.52528
0
LINE
8
BLACK
6
CONTINUOUS
10
6.36185
20
-3.52528
11
6.36185
21
-3.53709
0
LINE
8
BLACK
6
CONTINUOUS
10
6.36185
20
-3.53709
11
6.36128
21
-3.54102
0
LINE
8
BLACK
6
CONTINUOUS
10
6.36128
20
-3.54102
11
6.35929
21
-3.54509
0
LINE
8
BLACK
6
CONTINUOUS
10
6.35929
20
-3.54509
11
6.35608
21
-3.5483
0
LINE
8
BLACK
6
CONTINUOUS
10
6.35608
20
-3.5483
11
6.352
21
-3.55029
0
LINE
8
BLACK
6
CONTINUOUS
10
6.352
20
-3.55029
11
6.34807
21
-3.55087
0
LINE
8
BLACK
6
CONTINUOUS
10
6.34807
20
-3.55087
11
6.29295
21
-3.55087
0
LINE
8
BLACK
6
CONTINUOUS
10
6.29295
20
-3.55087
11
6.28902
21
-3.55029
0
LINE
8
BLACK
6
CONTINUOUS
10
6.28902
20
-3.55029
11
6.28495
21
-3.5483
0
LINE
8
BLACK
6
CONTINUOUS
10
6.28495
20
-3.5483
11
6.28174
21
-3.54509
0
LINE
8
BLACK
6
CONTINUOUS
10
6.28174
20
-3.54509
11
6.27975
21
-3.54102
0
LINE
8
BLACK
6
CONTINUOUS
10
6.27975
20
-3.54102
11
6.27917
21
-3.53709
0
LINE
8
BLACK
6
CONTINUOUS
10
6.27917
20
-3.53709
11
6.27917
21
-3.52528
0
LINE
8
BLACK
6
CONTINUOUS
10
6.27917
20
-3.52528
11
6.27975
21
-3.52134
0
LINE
8
BLACK
6
CONTINUOUS
10
6.27975
20
-3.52134
11
6.28174
21
-3.51727
0
LINE
8
BLACK
6
CONTINUOUS
10
6.28174
20
-3.51727
11
6.28495
21
-3.51406
0
LINE
8
BLACK
6
CONTINUOUS
10
6.28495
20
-3.51406
11
6.28902
21
-3.51207
0
LINE
8
BLACK
6
CONTINUOUS
10
6.28902
20
-3.51207
11
6.29295
21
-3.5115
0
LINE
8
BLACK
6
CONTINUOUS
10
6.29295
20
-3.5115
11
6.34807
21
-3.5115
0
LINE
8
BLACK
6
CONTINUOUS
10
6.34807
20
-3.5115
11
6.352
21
-3.51207
0
LINE
8
BLACK
6
CONTINUOUS
10
5.55038
20
-3.48376
11
5.55498
21
-3.4861
0
LINE
8
BLACK
6
CONTINUOUS
10
5.55498
20
-3.4861
11
5.55862
21
-3.48975
0
LINE
8
BLACK
6
CONTINUOUS
10
5.55862
20
-3.48975
11
5.56096
21
-3.49434
0
LINE
8
BLACK
6
CONTINUOUS
10
5.56096
20
-3.49434
11
5.56177
21
-3.49944
0
LINE
8
BLACK
6
CONTINUOUS
10
5.56177
20
-3.49944
11
5.56177
21
-3.51666
0
LINE
8
BLACK
6
CONTINUOUS
10
5.56177
20
-3.51666
11
5.56096
21
-3.52176
0
LINE
8
BLACK
6
CONTINUOUS
10
5.56096
20
-3.52176
11
5.55862
21
-3.52635
0
LINE
8
BLACK
6
CONTINUOUS
10
5.55862
20
-3.52635
11
5.55498
21
-3.53
0
LINE
8
BLACK
6
CONTINUOUS
10
5.55498
20
-3.53
11
5.55038
21
-3.53234
0
LINE
8
BLACK
6
CONTINUOUS
10
5.55038
20
-3.53234
11
5.54529
21
-3.53315
0
LINE
8
BLACK
6
CONTINUOUS
10
5.54529
20
-3.53315
11
5.52511
21
-3.53315
0
LINE
8
BLACK
6
CONTINUOUS
10
5.52511
20
-3.53315
11
5.52001
21
-3.53234
0
LINE
8
BLACK
6
CONTINUOUS
10
5.52001
20
-3.53234
11
5.51542
21
-3.53
0
LINE
8
BLACK
6
CONTINUOUS
10
5.51542
20
-3.53
11
5.51177
21
-3.52635
0
LINE
8
BLACK
6
CONTINUOUS
10
5.51177
20
-3.52635
11
5.50943
21
-3.52176
0
LINE
8
BLACK
6
CONTINUOUS
10
5.50943
20
-3.52176
11
5.50862
21
-3.51666
0
LINE
8
BLACK
6
CONTINUOUS
10
5.50862
20
-3.51666
11
5.50862
21
-3.49944
0
LINE
8
BLACK
6
CONTINUOUS
10
5.50862
20
-3.49944
11
5.50943
21
-3.49434
0
LINE
8
BLACK
6
CONTINUOUS
10
5.50943
20
-3.49434
11
5.51177
21
-3.48975
0
LINE
8
BLACK
6
CONTINUOUS
10
5.51177
20
-3.48975
11
5.51542
21
-3.4861
0
LINE
8
BLACK
6
CONTINUOUS
10
5.51542
20
-3.4861
11
5.52001
21
-3.48376
0
LINE
8
BLACK
6
CONTINUOUS
10
5.52001
20
-3.48376
11
5.52511
21
-3.48295
0
LINE
8
BLACK
6
CONTINUOUS
10
5.52511
20
-3.48295
11
5.54529
21
-3.48295
0
LINE
8
BLACK
6
CONTINUOUS
10
5.54529
20
-3.48295
11
5.55038
21
-3.48376
0
LINE
8
BLACK
6
CONTINUOUS
10
5.66849
20
-3.48376
11
5.67309
21
-3.4861
0
LINE
8
BLACK
6
CONTINUOUS
10
5.67309
20
-3.4861
11
5.67673
21
-3.48975
0
LINE
8
BLACK
6
CONTINUOUS
10
5.67673
20
-3.48975
11
5.67908
21
-3.49434
0
LINE
8
BLACK
6
CONTINUOUS
10
5.67908
20
-3.49434
11
5.67988
21
-3.49944
0
LINE
8
BLACK
6
CONTINUOUS
10
5.67988
20
-3.49944
11
5.67988
21
-3.51666
0
LINE
8
BLACK
6
CONTINUOUS
10
5.67988
20
-3.51666
11
5.67908
21
-3.52176
0
LINE
8
BLACK
6
CONTINUOUS
10
5.67908
20
-3.52176
11
5.67673
21
-3.52635
0
LINE
8
BLACK
6
CONTINUOUS
10
5.67673
20
-3.52635
11
5.67309
21
-3.53
0
LINE
8
BLACK
6
CONTINUOUS
10
5.67309
20
-3.53
11
5.66849
21
-3.53234
0
LINE
8
BLACK
6
CONTINUOUS
10
5.66849
20
-3.53234
11
5.6634
21
-3.53315
0
LINE
8
BLACK
6
CONTINUOUS
10
5.6634
20
-3.53315
11
5.64322
21
-3.53315
0
LINE
8
BLACK
6
CONTINUOUS
10
5.64322
20
-3.53315
11
5.63812
21
-3.53234
0
LINE
8
BLACK
6
CONTINUOUS
10
5.63812
20
-3.53234
11
5.63353
21
-3.53
0
LINE
8
BLACK
6
CONTINUOUS
10
5.63353
20
-3.53
11
5.62988
21
-3.52635
0
LINE
8
BLACK
6
CONTINUOUS
10
5.62988
20
-3.52635
11
5.62754
21
-3.52176
0
LINE
8
BLACK
6
CONTINUOUS
10
5.62754
20
-3.52176
11
5.62673
21
-3.51666
0
LINE
8
BLACK
6
CONTINUOUS
10
5.62673
20
-3.51666
11
5.62673
21
-3.49944
0
LINE
8
BLACK
6
CONTINUOUS
10
5.62673
20
-3.49944
11
5.62754
21
-3.49434
0
LINE
8
BLACK
6
CONTINUOUS
10
5.62754
20
-3.49434
11
5.62988
21
-3.48975
0
LINE
8
BLACK
6
CONTINUOUS
10
5.62988
20
-3.48975
11
5.63353
21
-3.4861
0
LINE
8
BLACK
6
CONTINUOUS
10
5.63353
20
-3.4861
11
5.63812
21
-3.48376
0
LINE
8
BLACK
6
CONTINUOUS
10
5.63812
20
-3.48376
11
5.64322
21
-3.48295
0
LINE
8
BLACK
6
CONTINUOUS
10
5.64322
20
-3.48295
11
5.6634
21
-3.48295
0
LINE
8
BLACK
6
CONTINUOUS
10
5.6634
20
-3.48295
11
5.66849
21
-3.48376
0
LINE
8
BLACK
6
CONTINUOUS
10
6.4931
20
-3.4311
11
6.49808
21
-3.43284
0
LINE
8
BLACK
6
CONTINUOUS
10
6.49808
20
-3.43284
11
6.50233
21
-3.43598
0
LINE
8
BLACK
6
CONTINUOUS
10
6.50233
20
-3.43598
11
6.50547
21
-3.44023
0
LINE
8
BLACK
6
CONTINUOUS
10
6.50547
20
-3.44023
11
6.50721
21
-3.44521
0
LINE
8
BLACK
6
CONTINUOUS
10
6.50721
20
-3.44521
11
6.50752
21
-3.4485
0
LINE
8
BLACK
6
CONTINUOUS
10
6.50752
20
-3.4485
11
6.50752
21
-3.46819
0
LINE
8
BLACK
6
CONTINUOUS
10
6.50752
20
-3.46819
11
6.50721
21
-3.47148
0
LINE
8
BLACK
6
CONTINUOUS
10
6.50721
20
-3.47148
11
6.50547
21
-3.47647
0
LINE
8
BLACK
6
CONTINUOUS
10
6.50547
20
-3.47647
11
6.50233
21
-3.48072
0
LINE
8
BLACK
6
CONTINUOUS
10
6.50233
20
-3.48072
11
6.49808
21
-3.48385
0
LINE
8
BLACK
6
CONTINUOUS
10
6.49808
20
-3.48385
11
6.4931
21
-3.4856
0
LINE
8
BLACK
6
CONTINUOUS
10
6.4931
20
-3.4856
11
6.4898
21
-3.48591
0
LINE
8
BLACK
6
CONTINUOUS
10
6.4898
20
-3.48591
11
6.40319
21
-3.48591
0
LINE
8
BLACK
6
CONTINUOUS
10
6.40319
20
-3.48591
11
6.3999
21
-3.4856
0
LINE
8
BLACK
6
CONTINUOUS
10
6.3999
20
-3.4856
11
6.39491
21
-3.48385
0
LINE
8
BLACK
6
CONTINUOUS
10
6.39491
20
-3.48385
11
6.39066
21
-3.48072
0
LINE
8
BLACK
6
CONTINUOUS
10
6.39066
20
-3.48072
11
6.38753
21
-3.47647
0
LINE
8
BLACK
6
CONTINUOUS
10
6.38753
20
-3.47647
11
6.38578
21
-3.47148
0
LINE
8
BLACK
6
CONTINUOUS
10
6.38578
20
-3.47148
11
6.38547
21
-3.46819
0
LINE
8
BLACK
6
CONTINUOUS
10
6.38547
20
-3.46819
11
6.38547
21
-3.4485
0
LINE
8
BLACK
6
CONTINUOUS
10
6.38547
20
-3.4485
11
6.38578
21
-3.44521
0
LINE
8
BLACK
6
CONTINUOUS
10
6.38578
20
-3.44521
11
6.38753
21
-3.44023
0
LINE
8
BLACK
6
CONTINUOUS
10
6.38753
20
-3.44023
11
6.39066
21
-3.43598
0
LINE
8
BLACK
6
CONTINUOUS
10
6.39066
20
-3.43598
11
6.39491
21
-3.43284
0
LINE
8
BLACK
6
CONTINUOUS
10
6.39491
20
-3.43284
11
6.3999
21
-3.4311
0
LINE
8
BLACK
6
CONTINUOUS
10
6.3999
20
-3.4311
11
6.40319
21
-3.43079
0
LINE
8
BLACK
6
CONTINUOUS
10
6.40319
20
-3.43079
11
6.4898
21
-3.43079
0
LINE
8
BLACK
6
CONTINUOUS
10
6.4898
20
-3.43079
11
6.4931
21
-3.4311
0
LINE
8
BLACK
6
CONTINUOUS
10
5.55038
20
-3.42175
11
5.55498
21
-3.42409
0
LINE
8
BLACK
6
CONTINUOUS
10
5.55498
20
-3.42409
11
5.55862
21
-3.42774
0
LINE
8
BLACK
6
CONTINUOUS
10
5.55862
20
-3.42774
11
5.56096
21
-3.43234
0
LINE
8
BLACK
6
CONTINUOUS
10
5.56096
20
-3.43234
11
5.56177
21
-3.43743
0
LINE
8
BLACK
6
CONTINUOUS
10
5.56177
20
-3.43743
11
5.56177
21
-3.45466
0
LINE
8
BLACK
6
CONTINUOUS
10
5.56177
20
-3.45466
11
5.56096
21
-3.45975
0
LINE
8
BLACK
6
CONTINUOUS
10
5.56096
20
-3.45975
11
5.55862
21
-3.46435
0
LINE
8
BLACK
6
CONTINUOUS
10
5.55862
20
-3.46435
11
5.55498
21
-3.46799
0
LINE
8
BLACK
6
CONTINUOUS
10
5.55498
20
-3.46799
11
5.55038
21
-3.47033
0
LINE
8
BLACK
6
CONTINUOUS
10
5.55038
20
-3.47033
11
5.54529
21
-3.47114
0
LINE
8
BLACK
6
CONTINUOUS
10
5.54529
20
-3.47114
11
5.52511
21
-3.47114
0
LINE
8
BLACK
6
CONTINUOUS
10
5.52511
20
-3.47114
11
5.52001
21
-3.47033
0
LINE
8
BLACK
6
CONTINUOUS
10
5.52001
20
-3.47033
11
5.51542
21
-3.46799
0
LINE
8
BLACK
6
CONTINUOUS
10
5.51542
20
-3.46799
11
5.51177
21
-3.46435
0
LINE
8
BLACK
6
CONTINUOUS
10
5.51177
20
-3.46435
11
5.50943
21
-3.45975
0
LINE
8
BLACK
6
CONTINUOUS
10
5.50943
20
-3.45975
11
5.50862
21
-3.45466
0
LINE
8
BLACK
6
CONTINUOUS
10
5.50862
20
-3.45466
11
5.50862
21
-3.43743
0
LINE
8
BLACK
6
CONTINUOUS
10
5.50862
20
-3.43743
11
5.50943
21
-3.43234
0
LINE
8
BLACK
6
CONTINUOUS
10
5.50943
20
-3.43234
11
5.51177
21
-3.42774
0
LINE
8
BLACK
6
CONTINUOUS
10
5.51177
20
-3.42774
11
5.51542
21
-3.42409
0
LINE
8
BLACK
6
CONTINUOUS
10
5.51542
20
-3.42409
11
5.52001
21
-3.42175
0
LINE
8
BLACK
6
CONTINUOUS
10
5.52001
20
-3.42175
11
5.52511
21
-3.42094
0
LINE
8
BLACK
6
CONTINUOUS
10
5.52511
20
-3.42094
11
5.54529
21
-3.42094
0
LINE
8
BLACK
6
CONTINUOUS
10
5.54529
20
-3.42094
11
5.55038
21
-3.42175
0
LINE
8
BLACK
6
CONTINUOUS
10
5.66849
20
-3.42175
11
5.67309
21
-3.42409
0
LINE
8
BLACK
6
CONTINUOUS
10
5.67309
20
-3.42409
11
5.67673
21
-3.42774
0
LINE
8
BLACK
6
CONTINUOUS
10
5.67673
20
-3.42774
11
5.67908
21
-3.43234
0
LINE
8
BLACK
6
CONTINUOUS
10
5.67908
20
-3.43234
11
5.67988
21
-3.43743
0
LINE
8
BLACK
6
CONTINUOUS
10
5.67988
20
-3.43743
11
5.67988
21
-3.45466
0
LINE
8
BLACK
6
CONTINUOUS
10
5.67988
20
-3.45466
11
5.67908
21
-3.45975
0
LINE
8
BLACK
6
CONTINUOUS
10
5.67908
20
-3.45975
11
5.67673
21
-3.46435
0
LINE
8
BLACK
6
CONTINUOUS
10
5.67673
20
-3.46435
11
5.67309
21
-3.46799
0
LINE
8
BLACK
6
CONTINUOUS
10
5.67309
20
-3.46799
11
5.66849
21
-3.47033
0
LINE
8
BLACK
6
CONTINUOUS
10
5.66849
20
-3.47033
11
5.6634
21
-3.47114
0
LINE
8
BLACK
6
CONTINUOUS
10
5.6634
20
-3.47114
11
5.64322
21
-3.47114
0
LINE
8
BLACK
6
CONTINUOUS
10
5.64322
20
-3.47114
11
5.63812
21
-3.47033
0
LINE
8
BLACK
6
CONTINUOUS
10
5.63812
20
-3.47033
11
5.63353
21
-3.46799
0
LINE
8
BLACK
6
CONTINUOUS
10
5.63353
20
-3.46799
11
5.62988
21
-3.46435
0
LINE
8
BLACK
6
CONTINUOUS
10
5.62988
20
-3.46435
11
5.62754
21
-3.45975
0
LINE
8
BLACK
6
CONTINUOUS
10
5.62754
20
-3.45975
11
5.62673
21
-3.45466
0
LINE
8
BLACK
6
CONTINUOUS
10
5.62673
20
-3.45466
11
5.62673
21
-3.43743
0
LINE
8
BLACK
6
CONTINUOUS
10
5.62673
20
-3.43743
11
5.62754
21
-3.43234
0
LINE
8
BLACK
6
CONTINUOUS
10
5.62754
20
-3.43234
11
5.62988
21
-3.42774
0
LINE
8
BLACK
6
CONTINUOUS
10
5.62988
20
-3.42774
11
5.63353
21
-3.42409
0
LINE
8
BLACK
6
CONTINUOUS
10
5.63353
20
-3.42409
11
5.63812
21
-3.42175
0
LINE
8
BLACK
6
CONTINUOUS
10
5.63812
20
-3.42175
11
5.64322
21
-3.42094
0
LINE
8
BLACK
6
CONTINUOUS
10
5.64322
20
-3.42094
11
5.6634
21
-3.42094
0
LINE
8
BLACK
6
CONTINUOUS
10
5.6634
20
-3.42094
11
5.66849
21
-3.42175
0
LINE
8
BLACK
6
CONTINUOUS
10
5.45127
20
-3.30169
11
5.46049
21
-3.30486
0
LINE
8
BLACK
6
CONTINUOUS
10
5.46049
20
-3.30486
11
5.46907
21
-3.3095
0
LINE
8
BLACK
6
CONTINUOUS
10
5.46907
20
-3.3095
11
5.47677
21
-3.31549
0
LINE
8
BLACK
6
CONTINUOUS
10
5.47677
20
-3.31549
11
5.48337
21
-3.32266
0
LINE
8
BLACK
6
CONTINUOUS
10
5.48337
20
-3.32266
11
5.48871
21
-3.33083
0
LINE
8
BLACK
6
CONTINUOUS
10
5.48871
20
-3.33083
11
5.49263
21
-3.33976
0
LINE
8
BLACK
6
CONTINUOUS
10
5.49263
20
-3.33976
11
5.49502
21
-3.34922
0
LINE
8
BLACK
6
CONTINUOUS
10
5.49502
20
-3.34922
11
5.49583
21
-3.35894
0
LINE
8
BLACK
6
CONTINUOUS
10
5.49583
20
-3.35894
11
5.49502
21
-3.36866
0
LINE
8
BLACK
6
CONTINUOUS
10
5.49502
20
-3.36866
11
5.49263
21
-3.37811
0
LINE
8
BLACK
6
CONTINUOUS
10
5.49263
20
-3.37811
11
5.48871
21
-3.38704
0
LINE
8
BLACK
6
CONTINUOUS
10
5.48871
20
-3.38704
11
5.48337
21
-3.39521
0
LINE
8
BLACK
6
CONTINUOUS
10
5.48337
20
-3.39521
11
5.47677
21
-3.40239
0
LINE
8
BLACK
6
CONTINUOUS
10
5.47677
20
-3.40239
11
5.46907
21
-3.40838
0
LINE
8
BLACK
6
CONTINUOUS
10
5.46907
20
-3.40838
11
5.46049
21
-3.41302
0
LINE
8
BLACK
6
CONTINUOUS
10
5.46049
20
-3.41302
11
5.45127
21
-3.41619
0
LINE
8
BLACK
6
CONTINUOUS
10
5.45127
20
-3.41619
11
5.44165
21
-3.41779
0
LINE
8
BLACK
6
CONTINUOUS
10
5.44165
20
-3.41779
11
5.43189
21
-3.41779
0
LINE
8
BLACK
6
CONTINUOUS
10
5.43189
20
-3.41779
11
5.42227
21
-3.41619
0
LINE
8
BLACK
6
CONTINUOUS
10
5.42227
20
-3.41619
11
5.41305
21
-3.41302
0
LINE
8
BLACK
6
CONTINUOUS
10
5.41305
20
-3.41302
11
5.40447
21
-3.40838
0
LINE
8
BLACK
6
CONTINUOUS
10
5.40447
20
-3.40838
11
5.39677
21
-3.40239
0
LINE
8
BLACK
6
CONTINUOUS
10
5.39677
20
-3.40239
11
5.39017
21
-3.39521
0
LINE
8
BLACK
6
CONTINUOUS
10
5.39017
20
-3.39521
11
5.38483
21
-3.38704
0
LINE
8
BLACK
6
CONTINUOUS
10
5.38483
20
-3.38704
11
5.38092
21
-3.37811
0
LINE
8
BLACK
6
CONTINUOUS
10
5.38092
20
-3.37811
11
5.37852
21
-3.36866
0
LINE
8
BLACK
6
CONTINUOUS
10
5.37852
20
-3.36866
11
5.37772
21
-3.35894
0
LINE
8
BLACK
6
CONTINUOUS
10
5.37772
20
-3.35894
11
5.37852
21
-3.34922
0
LINE
8
BLACK
6
CONTINUOUS
10
5.37852
20
-3.34922
11
5.38092
21
-3.33976
0
LINE
8
BLACK
6
CONTINUOUS
10
5.38092
20
-3.33976
11
5.38483
21
-3.33083
0
LINE
8
BLACK
6
CONTINUOUS
10
5.38483
20
-3.33083
11
5.39017
21
-3.32266
0
LINE
8
BLACK
6
CONTINUOUS
10
5.39017
20
-3.32266
11
5.39677
21
-3.31549
0
LINE
8
BLACK
6
CONTINUOUS
10
5.39677
20
-3.31549
11
5.40447
21
-3.3095
0
LINE
8
BLACK
6
CONTINUOUS
10
5.40447
20
-3.3095
11
5.41305
21
-3.30486
0
LINE
8
BLACK
6
CONTINUOUS
10
5.41305
20
-3.30486
11
5.42227
21
-3.30169
0
LINE
8
BLACK
6
CONTINUOUS
10
5.42227
20
-3.30169
11
5.43189
21
-3.30008
0
LINE
8
BLACK
6
CONTINUOUS
10
5.43189
20
-3.30008
11
5.44165
21
-3.30008
0
LINE
8
BLACK
6
CONTINUOUS
10
5.44165
20
-3.30008
11
5.45127
21
-3.30169
0
LINE
8
BLACK
6
CONTINUOUS
10
5.84497
20
-3.30169
11
5.85419
21
-3.30486
0
LINE
8
BLACK
6
CONTINUOUS
10
5.85419
20
-3.30486
11
5.86277
21
-3.3095
0
LINE
8
BLACK
6
CONTINUOUS
10
5.86277
20
-3.3095
11
5.87047
21
-3.31549
0
LINE
8
BLACK
6
CONTINUOUS
10
5.87047
20
-3.31549
11
5.87708
21
-3.32266
0
LINE
8
BLACK
6
CONTINUOUS
10
5.87708
20
-3.32266
11
5.88241
21
-3.33083
0
LINE
8
BLACK
6
CONTINUOUS
10
5.88241
20
-3.33083
11
5.88633
21
-3.33976
0
LINE
8
BLACK
6
CONTINUOUS
10
5.88633
20
-3.33976
11
5.88872
21
-3.34922
0
LINE
8
BLACK
6
CONTINUOUS
10
5.88872
20
-3.34922
11
5.88953
21
-3.35894
0
LINE
8
BLACK
6
CONTINUOUS
10
5.88953
20
-3.35894
11
5.88872
21
-3.36866
0
LINE
8
BLACK
6
CONTINUOUS
10
5.88872
20
-3.36866
11
5.88633
21
-3.37811
0
LINE
8
BLACK
6
CONTINUOUS
10
5.88633
20
-3.37811
11
5.88241
21
-3.38704
0
LINE
8
BLACK
6
CONTINUOUS
10
5.88241
20
-3.38704
11
5.87708
21
-3.39521
0
LINE
8
BLACK
6
CONTINUOUS
10
5.87708
20
-3.39521
11
5.87047
21
-3.40239
0
LINE
8
BLACK
6
CONTINUOUS
10
5.87047
20
-3.40239
11
5.86277
21
-3.40838
0
LINE
8
BLACK
6
CONTINUOUS
10
5.86277
20
-3.40838
11
5.85419
21
-3.41302
0
LINE
8
BLACK
6
CONTINUOUS
10
5.85419
20
-3.41302
11
5.84497
21
-3.41619
0
LINE
8
BLACK
6
CONTINUOUS
10
5.84497
20
-3.41619
11
5.83535
21
-3.41779
0
LINE
8
BLACK
6
CONTINUOUS
10
5.83535
20
-3.41779
11
5.8256
21
-3.41779
0
LINE
8
BLACK
6
CONTINUOUS
10
5.8256
20
-3.41779
11
5.81598
21
-3.41619
0
LINE
8
BLACK
6
CONTINUOUS
10
5.81598
20
-3.41619
11
5.80675
21
-3.41302
0
LINE
8
BLACK
6
CONTINUOUS
10
5.80675
20
-3.41302
11
5.79817
21
-3.40838
0
LINE
8
BLACK
6
CONTINUOUS
10
5.79817
20
-3.40838
11
5.79048
21
-3.40239
0
LINE
8
BLACK
6
CONTINUOUS
10
5.79048
20
-3.40239
11
5.78387
21
-3.39521
0
LINE
8
BLACK
6
CONTINUOUS
10
5.78387
20
-3.39521
11
5.77853
21
-3.38704
0
LINE
8
BLACK
6
CONTINUOUS
10
5.77853
20
-3.38704
11
5.77462
21
-3.37811
0
LINE
8
BLACK
6
CONTINUOUS
10
5.77462
20
-3.37811
11
5.77222
21
-3.36866
0
LINE
8
BLACK
6
CONTINUOUS
10
5.77222
20
-3.36866
11
5.77142
21
-3.35894
0
LINE
8
BLACK
6
CONTINUOUS
10
5.77142
20
-3.35894
11
5.77222
21
-3.34922
0
LINE
8
BLACK
6
CONTINUOUS
10
5.77222
20
-3.34922
11
5.77462
21
-3.33976
0
LINE
8
BLACK
6
CONTINUOUS
10
5.77462
20
-3.33976
11
5.77853
21
-3.33083
0
LINE
8
BLACK
6
CONTINUOUS
10
5.77853
20
-3.33083
11
5.78387
21
-3.32266
0
LINE
8
BLACK
6
CONTINUOUS
10
5.78387
20
-3.32266
11
5.79048
21
-3.31549
0
LINE
8
BLACK
6
CONTINUOUS
10
5.79048
20
-3.31549
11
5.79817
21
-3.3095
0
LINE
8
BLACK
6
CONTINUOUS
10
5.79817
20
-3.3095
11
5.80675
21
-3.30486
0
LINE
8
BLACK
6
CONTINUOUS
10
5.80675
20
-3.30486
11
5.81598
21
-3.30169
0
LINE
8
BLACK
6
CONTINUOUS
10
5.81598
20
-3.30169
11
5.8256
21
-3.30008
0
LINE
8
BLACK
6
CONTINUOUS
10
5.8256
20
-3.30008
11
5.83535
21
-3.30008
0
LINE
8
BLACK
6
CONTINUOUS
10
5.83535
20
-3.30008
11
5.84497
21
-3.30169
0
LINE
8
BLACK
6
CONTINUOUS
10
6.23867
20
-3.30169
11
6.2479
21
-3.30486
0
LINE
8
BLACK
6
CONTINUOUS
10
6.2479
20
-3.30486
11
6.25647
21
-3.3095
0
LINE
8
BLACK
6
CONTINUOUS
10
6.25647
20
-3.3095
11
6.26417
21
-3.31549
0
LINE
8
BLACK
6
CONTINUOUS
10
6.26417
20
-3.31549
11
6.27078
21
-3.32266
0
LINE
8
BLACK
6
CONTINUOUS
10
6.27078
20
-3.32266
11
6.27611
21
-3.33083
0
LINE
8
BLACK
6
CONTINUOUS
10
6.27611
20
-3.33083
11
6.28003
21
-3.33976
0
LINE
8
BLACK
6
CONTINUOUS
10
6.28003
20
-3.33976
11
6.28242
21
-3.34922
0
LINE
8
BLACK
6
CONTINUOUS
10
6.28242
20
-3.34922
11
6.28323
21
-3.35894
0
LINE
8
BLACK
6
CONTINUOUS
10
6.28323
20
-3.35894
11
6.28242
21
-3.36866
0
LINE
8
BLACK
6
CONTINUOUS
10
6.28242
20
-3.36866
11
6.28003
21
-3.37811
0
LINE
8
BLACK
6
CONTINUOUS
10
6.28003
20
-3.37811
11
6.27611
21
-3.38704
0
LINE
8
BLACK
6
CONTINUOUS
10
6.27611
20
-3.38704
11
6.27078
21
-3.39521
0
LINE
8
BLACK
6
CONTINUOUS
10
6.27078
20
-3.39521
11
6.26417
21
-3.40239
0
LINE
8
BLACK
6
CONTINUOUS
10
6.26417
20
-3.40239
11
6.25647
21
-3.40838
0
LINE
8
BLACK
6
CONTINUOUS
10
6.25647
20
-3.40838
11
6.2479
21
-3.41302
0
LINE
8
BLACK
6
CONTINUOUS
10
6.2479
20
-3.41302
11
6.23867
21
-3.41619
0
LINE
8
BLACK
6
CONTINUOUS
10
6.23867
20
-3.41619
11
6.22905
21
-3.41779
0
LINE
8
BLACK
6
CONTINUOUS
10
6.22905
20
-3.41779
11
6.2193
21
-3.41779
0
LINE
8
BLACK
6
CONTINUOUS
10
6.2193
20
-3.41779
11
6.20968
21
-3.41619
0
LINE
8
BLACK
6
CONTINUOUS
10
6.20968
20
-3.41619
11
6.20045
21
-3.41302
0
LINE
8
BLACK
6
CONTINUOUS
10
6.20045
20
-3.41302
11
6.19187
21
-3.40838
0
LINE
8
BLACK
6
CONTINUOUS
10
6.19187
20
-3.40838
11
6.18418
21
-3.40239
0
LINE
8
BLACK
6
CONTINUOUS
10
6.18418
20
-3.40239
11
6.17757
21
-3.39521
0
LINE
8
BLACK
6
CONTINUOUS
10
6.17757
20
-3.39521
11
6.17224
21
-3.38704
0
LINE
8
BLACK
6
CONTINUOUS
10
6.17224
20
-3.38704
11
6.16832
21
-3.37811
0
LINE
8
BLACK
6
CONTINUOUS
10
6.16832
20
-3.37811
11
6.16592
21
-3.36866
0
LINE
8
BLACK
6
CONTINUOUS
10
6.16592
20
-3.36866
11
6.16512
21
-3.35894
0
LINE
8
BLACK
6
CONTINUOUS
10
6.16512
20
-3.35894
11
6.16592
21
-3.34922
0
LINE
8
BLACK
6
CONTINUOUS
10
6.16592
20
-3.34922
11
6.16832
21
-3.33976
0
LINE
8
BLACK
6
CONTINUOUS
10
6.16832
20
-3.33976
11
6.17224
21
-3.33083
0
LINE
8
BLACK
6
CONTINUOUS
10
6.17224
20
-3.33083
11
6.17757
21
-3.32266
0
LINE
8
BLACK
6
CONTINUOUS
10
6.17757
20
-3.32266
11
6.18418
21
-3.31549
0
LINE
8
BLACK
6
CONTINUOUS
10
6.18418
20
-3.31549
11
6.19187
21
-3.3095
0
LINE
8
BLACK
6
CONTINUOUS
10
6.19187
20
-3.3095
11
6.20045
21
-3.30486
0
LINE
8
BLACK
6
CONTINUOUS
10
6.20045
20
-3.30486
11
6.20968
21
-3.30169
0
LINE
8
BLACK
6
CONTINUOUS
10
6.20968
20
-3.30169
11
6.2193
21
-3.30008
0
LINE
8
BLACK
6
CONTINUOUS
10
6.2193
20
-3.30008
11
6.22905
21
-3.30008
0
LINE
8
BLACK
6
CONTINUOUS
10
6.22905
20
-3.30008
11
6.23867
21
-3.30169
  0
ENDSEC
  0
EOF
