  0
SECTION
  2
HEADER
  9
$ANGBASE
  50
0.0
  9
$ANGDIR
  70
1
  9
$MEASUREMENT
  70
0
  0
ENDSEC
  0
SECTION
  2
TABLES
  0
TABLE
  2
LTYPE
  70
4
  0
LTYPE
  5
40F
  2
CONTINUOUS
  70
0
  3
Solid line
  72
65
  73
0
  40
0.0
  0
LTYPE
  5
410
  2
DASHDOT
 70
0
  3
Dash Dot ____ _ ____ _
 72
65
 73
4
 40
2.0
 49
1.25
 49
-0.25
 49
0.25
 49
-0.25
  0
LTYPE
  5
411
  2
DASHED
 70
0
  3
Dashed __ __ __ __ __
 72
65
 73
2
 40
0.75
 49
0.5
 49
-0.25
  0
LTYPE
  5
43B
  2
DOTTED
 70
0
  3
Dotted .  .  .  .
 72
65
 73
2
 40
0.2
 49
0.0
 49
-0.2
  0
ENDTAB
  0
TABLE
  2
STYLE
  70
4
  0
STYLE
  2
KICAD
  70
0
  40
0
  41
1
  42
1
  50
0
  71
0
  3
isocp.shx
  0
STYLE
  2
KICADB
  70
0
  40
0
  41
1
  42
1
  50
0
  71
0
  3
isocp.shx
  0
STYLE
  2
KICADI
  70
0
  40
0
  41
1
  42
1
  50
15
  71
0
  3
isocp.shx
  0
STYLE
  2
KICADBI
  70
0
  40
0
  41
1
  42
1
  50
15
  71
0
  3
isocp.shx
  0
ENDTAB
  0
TABLE
  2
LAYER
  70
1
  0
LAYER
  2
BLACK
  70
0
  62
7
  6
CONTINUOUS
  0
ENDTAB
  0
ENDSEC
  0
SECTION
  2
ENTITIES
0
LINE
8
BLACK
6
CONTINUOUS
10
5.9922
20
-4.11946
11
5.99233
21
-4.11958
0
LINE
8
BLACK
6
CONTINUOUS
10
5.99233
20
-4.11958
11
5.99251
21
-4.1196
0
LINE
8
BLACK
6
CONTINUOUS
10
5.99251
20
-4.1196
11
5.99513
21
-4.12091
0
LINE
8
BLACK
6
CONTINUOUS
10
5.99513
20
-4.12091
11
5.99566
21
-4.11998
0
LINE
8
BLACK
6
CONTINUOUS
10
5.99566
20
-4.11998
11
5.99756
21
-4.11928
0
LINE
8
BLACK
6
CONTINUOUS
10
5.99756
20
-4.11928
11
6.02006
21
-4.11928
0
LINE
8
BLACK
6
CONTINUOUS
10
6.02006
20
-4.11928
11
6.02107
21
-4.11946
0
LINE
8
BLACK
6
CONTINUOUS
10
6.02107
20
-4.11946
11
6.02262
21
-4.12076
0
LINE
8
BLACK
6
CONTINUOUS
10
6.02262
20
-4.12076
11
6.02297
21
-4.12275
0
LINE
8
BLACK
6
CONTINUOUS
10
6.02297
20
-4.12275
11
6.02196
21
-4.1245
0
LINE
8
BLACK
6
CONTINUOUS
10
6.02196
20
-4.1245
11
6.02006
21
-4.12519
0
LINE
8
BLACK
6
CONTINUOUS
10
6.02006
20
-4.12519
11
6.01176
21
-4.12519
0
LINE
8
BLACK
6
CONTINUOUS
10
6.01176
20
-4.12519
11
6.01176
21
-4.16161
0
LINE
8
BLACK
6
CONTINUOUS
10
6.01176
20
-4.16161
11
6.01159
21
-4.16262
0
LINE
8
BLACK
6
CONTINUOUS
10
6.01159
20
-4.16262
11
6.01029
21
-4.16416
0
LINE
8
BLACK
6
CONTINUOUS
10
6.01029
20
-4.16416
11
6.0083
21
-4.16451
0
LINE
8
BLACK
6
CONTINUOUS
10
6.0083
20
-4.16451
11
6.00655
21
-4.16351
0
LINE
8
BLACK
6
CONTINUOUS
10
6.00655
20
-4.16351
11
6.00586
21
-4.16161
0
LINE
8
BLACK
6
CONTINUOUS
10
6.00586
20
-4.16161
11
6.00586
21
-4.12519
0
LINE
8
BLACK
6
CONTINUOUS
10
6.00586
20
-4.12519
11
5.99972
21
-4.12519
0
LINE
8
BLACK
6
CONTINUOUS
10
5.99972
20
-4.12519
11
6.00133
21
-4.12842
0
LINE
8
BLACK
6
CONTINUOUS
10
6.00133
20
-4.12842
11
6.00162
21
-4.1294
0
LINE
8
BLACK
6
CONTINUOUS
10
6.00162
20
-4.1294
11
6.00158
21
-4.12957
0
LINE
8
BLACK
6
CONTINUOUS
10
6.00158
20
-4.12957
11
6.00164
21
-4.12974
0
LINE
8
BLACK
6
CONTINUOUS
10
6.00164
20
-4.12974
11
6.00164
21
-4.13349
0
LINE
8
BLACK
6
CONTINUOUS
10
6.00164
20
-4.13349
11
6.00149
21
-4.13435
0
LINE
8
BLACK
6
CONTINUOUS
10
6.00149
20
-4.13435
11
6.00149
21
-4.13442
0
LINE
8
BLACK
6
CONTINUOUS
10
6.00149
20
-4.13442
11
5.99961
21
-4.14004
0
LINE
8
BLACK
6
CONTINUOUS
10
5.99961
20
-4.14004
11
5.99913
21
-4.14095
0
LINE
8
BLACK
6
CONTINUOUS
10
5.99913
20
-4.14095
11
5.99898
21
-4.14104
0
LINE
8
BLACK
6
CONTINUOUS
10
5.99898
20
-4.14104
11
5.9989
21
-4.1412
0
LINE
8
BLACK
6
CONTINUOUS
10
5.9989
20
-4.1412
11
5.98144
21
-4.15865
0
LINE
8
BLACK
6
CONTINUOUS
10
5.98144
20
-4.15865
11
5.99869
21
-4.15865
0
LINE
8
BLACK
6
CONTINUOUS
10
5.99869
20
-4.15865
11
5.9997
21
-4.15883
0
LINE
8
BLACK
6
CONTINUOUS
10
5.9997
20
-4.15883
11
6.00124
21
-4.16013
0
LINE
8
BLACK
6
CONTINUOUS
10
6.00124
20
-4.16013
11
6.0016
21
-4.16212
0
LINE
8
BLACK
6
CONTINUOUS
10
6.0016
20
-4.16212
11
6.00059
21
-4.16387
0
LINE
8
BLACK
6
CONTINUOUS
10
6.00059
20
-4.16387
11
5.99869
21
-4.16456
0
LINE
8
BLACK
6
CONTINUOUS
10
5.99869
20
-4.16456
11
5.97432
21
-4.16456
0
LINE
8
BLACK
6
CONTINUOUS
10
5.97432
20
-4.16456
11
5.97368
21
-4.16445
0
LINE
8
BLACK
6
CONTINUOUS
10
5.97368
20
-4.16445
11
5.97355
21
-4.16446
0
LINE
8
BLACK
6
CONTINUOUS
10
5.97355
20
-4.16446
11
5.97349
21
-4.16441
0
LINE
8
BLACK
6
CONTINUOUS
10
5.97349
20
-4.16441
11
5.97331
21
-4.16438
0
LINE
8
BLACK
6
CONTINUOUS
10
5.97331
20
-4.16438
11
5.97262
21
-4.16381
0
LINE
8
BLACK
6
CONTINUOUS
10
5.97262
20
-4.16381
11
5.9719
21
-4.1633
0
LINE
8
BLACK
6
CONTINUOUS
10
5.9719
20
-4.1633
11
5.97186
21
-4.16317
0
LINE
8
BLACK
6
CONTINUOUS
10
5.97186
20
-4.16317
11
5.97176
21
-4.16308
0
LINE
8
BLACK
6
CONTINUOUS
10
5.97176
20
-4.16308
11
5.9716
21
-4.16221
0
LINE
8
BLACK
6
CONTINUOUS
10
5.9716
20
-4.16221
11
5.97137
21
-4.16135
0
LINE
8
BLACK
6
CONTINUOUS
10
5.97137
20
-4.16135
11
5.97143
21
-4.16123
0
LINE
8
BLACK
6
CONTINUOUS
10
5.97143
20
-4.16123
11
5.97141
21
-4.16109
0
LINE
8
BLACK
6
CONTINUOUS
10
5.97141
20
-4.16109
11
5.97185
21
-4.16032
0
LINE
8
BLACK
6
CONTINUOUS
10
5.97185
20
-4.16032
11
5.97223
21
-4.15952
0
LINE
8
BLACK
6
CONTINUOUS
10
5.97223
20
-4.15952
11
5.99423
21
-4.13751
0
LINE
8
BLACK
6
CONTINUOUS
10
5.99423
20
-4.13751
11
5.99573
21
-4.13301
0
LINE
8
BLACK
6
CONTINUOUS
10
5.99573
20
-4.13301
11
5.99573
21
-4.13043
0
LINE
8
BLACK
6
CONTINUOUS
10
5.99573
20
-4.13043
11
5.99439
21
-4.12774
0
LINE
8
BLACK
6
CONTINUOUS
10
5.99439
20
-4.12774
11
5.99319
21
-4.12654
0
LINE
8
BLACK
6
CONTINUOUS
10
5.99319
20
-4.12654
11
5.99049
21
-4.12519
0
LINE
8
BLACK
6
CONTINUOUS
10
5.99049
20
-4.12519
11
5.98251
21
-4.12519
0
LINE
8
BLACK
6
CONTINUOUS
10
5.98251
20
-4.12519
11
5.97981
21
-4.12654
0
LINE
8
BLACK
6
CONTINUOUS
10
5.97981
20
-4.12654
11
5.97828
21
-4.12807
0
LINE
8
BLACK
6
CONTINUOUS
10
5.97828
20
-4.12807
11
5.97744
21
-4.12866
0
LINE
8
BLACK
6
CONTINUOUS
10
5.97744
20
-4.12866
11
5.97543
21
-4.12884
0
LINE
8
BLACK
6
CONTINUOUS
10
5.97543
20
-4.12884
11
5.97377
21
-4.12768
0
LINE
8
BLACK
6
CONTINUOUS
10
5.97377
20
-4.12768
11
5.97325
21
-4.12573
0
LINE
8
BLACK
6
CONTINUOUS
10
5.97325
20
-4.12573
11
5.9741
21
-4.1239
0
LINE
8
BLACK
6
CONTINUOUS
10
5.9741
20
-4.1239
11
5.97598
21
-4.12202
0
LINE
8
BLACK
6
CONTINUOUS
10
5.97598
20
-4.12202
11
5.9767
21
-4.12152
0
LINE
8
BLACK
6
CONTINUOUS
10
5.9767
20
-4.12152
11
5.97674
21
-4.12147
0
LINE
8
BLACK
6
CONTINUOUS
10
5.97674
20
-4.12147
11
5.98049
21
-4.1196
0
LINE
8
BLACK
6
CONTINUOUS
10
5.98049
20
-4.1196
11
5.98148
21
-4.1193
0
LINE
8
BLACK
6
CONTINUOUS
10
5.98148
20
-4.1193
11
5.98165
21
-4.11934
0
LINE
8
BLACK
6
CONTINUOUS
10
5.98165
20
-4.11934
11
5.98181
21
-4.11928
0
LINE
8
BLACK
6
CONTINUOUS
10
5.98181
20
-4.11928
11
5.99119
21
-4.11928
0
LINE
8
BLACK
6
CONTINUOUS
10
5.99119
20
-4.11928
11
5.9922
21
-4.11946
0
LINE
8
BLACK
6
CONTINUOUS
10
6.08227
20
-4.11936
11
6.08244
21
-4.11933
0
LINE
8
BLACK
6
CONTINUOUS
10
6.08244
20
-4.11933
11
6.08318
21
-4.11976
0
LINE
8
BLACK
6
CONTINUOUS
10
6.08318
20
-4.11976
11
6.08397
21
-4.1201
0
LINE
8
BLACK
6
CONTINUOUS
10
6.08397
20
-4.1201
11
6.08404
21
-4.12025
0
LINE
8
BLACK
6
CONTINUOUS
10
6.08404
20
-4.12025
11
6.08419
21
-4.12034
0
LINE
8
BLACK
6
CONTINUOUS
10
6.08419
20
-4.12034
11
6.08448
21
-4.12114
0
LINE
8
BLACK
6
CONTINUOUS
10
6.08448
20
-4.12114
11
6.08486
21
-4.12191
0
LINE
8
BLACK
6
CONTINUOUS
10
6.08486
20
-4.12191
11
6.08482
21
-4.12208
0
LINE
8
BLACK
6
CONTINUOUS
10
6.08482
20
-4.12208
11
6.08488
21
-4.12224
0
LINE
8
BLACK
6
CONTINUOUS
10
6.08488
20
-4.12224
11
6.08488
21
-4.15865
0
LINE
8
BLACK
6
CONTINUOUS
10
6.08488
20
-4.15865
11
6.09318
21
-4.15865
0
LINE
8
BLACK
6
CONTINUOUS
10
6.09318
20
-4.15865
11
6.09419
21
-4.15883
0
LINE
8
BLACK
6
CONTINUOUS
10
6.09419
20
-4.15883
11
6.09573
21
-4.16013
0
LINE
8
BLACK
6
CONTINUOUS
10
6.09573
20
-4.16013
11
6.09608
21
-4.16212
0
LINE
8
BLACK
6
CONTINUOUS
10
6.09608
20
-4.16212
11
6.09507
21
-4.16387
0
LINE
8
BLACK
6
CONTINUOUS
10
6.09507
20
-4.16387
11
6.09318
21
-4.16456
0
LINE
8
BLACK
6
CONTINUOUS
10
6.09318
20
-4.16456
11
6.07068
21
-4.16456
0
LINE
8
BLACK
6
CONTINUOUS
10
6.07068
20
-4.16456
11
6.06967
21
-4.16438
0
LINE
8
BLACK
6
CONTINUOUS
10
6.06967
20
-4.16438
11
6.06812
21
-4.16308
0
LINE
8
BLACK
6
CONTINUOUS
10
6.06812
20
-4.16308
11
6.06777
21
-4.16109
0
LINE
8
BLACK
6
CONTINUOUS
10
6.06777
20
-4.16109
11
6.06878
21
-4.15935
0
LINE
8
BLACK
6
CONTINUOUS
10
6.06878
20
-4.15935
11
6.07068
21
-4.15865
0
LINE
8
BLACK
6
CONTINUOUS
10
6.07068
20
-4.15865
11
6.07897
21
-4.15865
0
LINE
8
BLACK
6
CONTINUOUS
10
6.07897
20
-4.15865
11
6.07897
21
-4.13124
0
LINE
8
BLACK
6
CONTINUOUS
10
6.07897
20
-4.13124
11
6.07652
21
-4.1337
0
LINE
8
BLACK
6
CONTINUOUS
10
6.07652
20
-4.1337
11
6.07579
21
-4.1342
0
LINE
8
BLACK
6
CONTINUOUS
10
6.07579
20
-4.1342
11
6.07575
21
-4.13425
0
LINE
8
BLACK
6
CONTINUOUS
10
6.07575
20
-4.13425
11
6.072
21
-4.13613
0
LINE
8
BLACK
6
CONTINUOUS
10
6.072
20
-4.13613
11
6.07102
21
-4.13642
0
LINE
8
BLACK
6
CONTINUOUS
10
6.07102
20
-4.13642
11
6.06905
21
-4.13595
0
LINE
8
BLACK
6
CONTINUOUS
10
6.06905
20
-4.13595
11
6.06785
21
-4.13433
0
LINE
8
BLACK
6
CONTINUOUS
10
6.06785
20
-4.13433
11
6.06797
21
-4.13231
0
LINE
8
BLACK
6
CONTINUOUS
10
6.06797
20
-4.13231
11
6.06936
21
-4.13084
0
LINE
8
BLACK
6
CONTINUOUS
10
6.06936
20
-4.13084
11
6.07268
21
-4.12918
0
LINE
8
BLACK
6
CONTINUOUS
10
6.07268
20
-4.12918
11
6.07588
21
-4.12598
0
LINE
8
BLACK
6
CONTINUOUS
10
6.07588
20
-4.12598
11
6.07947
21
-4.1206
0
LINE
8
BLACK
6
CONTINUOUS
10
6.07947
20
-4.1206
11
6.08018
21
-4.11986
0
LINE
8
BLACK
6
CONTINUOUS
10
6.08018
20
-4.11986
11
6.08034
21
-4.11981
0
LINE
8
BLACK
6
CONTINUOUS
10
6.08034
20
-4.11981
11
6.08045
21
-4.11968
0
LINE
8
BLACK
6
CONTINUOUS
10
6.08045
20
-4.11968
11
6.08129
21
-4.11953
0
LINE
8
BLACK
6
CONTINUOUS
10
6.08129
20
-4.11953
11
6.08212
21
-4.11929
0
LINE
8
BLACK
6
CONTINUOUS
10
6.08212
20
-4.11929
11
6.08227
21
-4.11936
0
LINE
8
BLACK
6
CONTINUOUS
10
5.92658
20
-4.11946
11
5.92813
21
-4.12076
0
LINE
8
BLACK
6
CONTINUOUS
10
5.92813
20
-4.12076
11
5.92848
21
-4.12275
0
LINE
8
BLACK
6
CONTINUOUS
10
5.92848
20
-4.12275
11
5.92747
21
-4.1245
0
LINE
8
BLACK
6
CONTINUOUS
10
5.92747
20
-4.1245
11
5.92557
21
-4.12519
0
LINE
8
BLACK
6
CONTINUOUS
10
5.92557
20
-4.12519
11
5.91728
21
-4.12519
0
LINE
8
BLACK
6
CONTINUOUS
10
5.91728
20
-4.12519
11
5.91728
21
-4.16161
0
LINE
8
BLACK
6
CONTINUOUS
10
5.91728
20
-4.16161
11
5.9171
21
-4.16262
0
LINE
8
BLACK
6
CONTINUOUS
10
5.9171
20
-4.16262
11
5.9158
21
-4.16416
0
LINE
8
BLACK
6
CONTINUOUS
10
5.9158
20
-4.16416
11
5.91381
21
-4.16451
0
LINE
8
BLACK
6
CONTINUOUS
10
5.91381
20
-4.16451
11
5.91206
21
-4.16351
0
LINE
8
BLACK
6
CONTINUOUS
10
5.91206
20
-4.16351
11
5.91137
21
-4.16161
0
LINE
8
BLACK
6
CONTINUOUS
10
5.91137
20
-4.16161
11
5.91137
21
-4.12519
0
LINE
8
BLACK
6
CONTINUOUS
10
5.91137
20
-4.12519
11
5.90307
21
-4.12519
0
LINE
8
BLACK
6
CONTINUOUS
10
5.90307
20
-4.12519
11
5.90206
21
-4.12501
0
LINE
8
BLACK
6
CONTINUOUS
10
5.90206
20
-4.12501
11
5.90052
21
-4.12371
0
LINE
8
BLACK
6
CONTINUOUS
10
5.90052
20
-4.12371
11
5.90017
21
-4.12172
0
LINE
8
BLACK
6
CONTINUOUS
10
5.90017
20
-4.12172
11
5.90118
21
-4.11998
0
LINE
8
BLACK
6
CONTINUOUS
10
5.90118
20
-4.11998
11
5.90307
21
-4.11928
0
LINE
8
BLACK
6
CONTINUOUS
10
5.90307
20
-4.11928
11
5.92557
21
-4.11928
0
LINE
8
BLACK
6
CONTINUOUS
10
5.92557
20
-4.11928
11
5.92658
21
-4.11946
0
LINE
8
BLACK
6
CONTINUOUS
10
5.9547
20
-4.11946
11
5.95484
21
-4.11958
0
LINE
8
BLACK
6
CONTINUOUS
10
5.95484
20
-4.11958
11
5.95501
21
-4.1196
0
LINE
8
BLACK
6
CONTINUOUS
10
5.95501
20
-4.1196
11
5.95876
21
-4.12147
0
LINE
8
BLACK
6
CONTINUOUS
10
5.95876
20
-4.12147
11
5.95947
21
-4.122
0
LINE
8
BLACK
6
CONTINUOUS
10
5.95947
20
-4.122
11
5.95953
21
-4.12202
0
LINE
8
BLACK
6
CONTINUOUS
10
5.95953
20
-4.12202
11
5.96141
21
-4.1239
0
LINE
8
BLACK
6
CONTINUOUS
10
5.96141
20
-4.1239
11
5.96191
21
-4.12462
0
LINE
8
BLACK
6
CONTINUOUS
10
5.96191
20
-4.12462
11
5.96196
21
-4.12467
0
LINE
8
BLACK
6
CONTINUOUS
10
5.96196
20
-4.12467
11
5.96383
21
-4.12842
0
LINE
8
BLACK
6
CONTINUOUS
10
5.96383
20
-4.12842
11
5.96413
21
-4.1294
0
LINE
8
BLACK
6
CONTINUOUS
10
5.96413
20
-4.1294
11
5.96408
21
-4.12957
0
LINE
8
BLACK
6
CONTINUOUS
10
5.96408
20
-4.12957
11
5.96415
21
-4.12974
0
LINE
8
BLACK
6
CONTINUOUS
10
5.96415
20
-4.12974
11
5.96415
21
-4.13536
0
LINE
8
BLACK
6
CONTINUOUS
10
5.96415
20
-4.13536
11
5.96397
21
-4.13637
0
LINE
8
BLACK
6
CONTINUOUS
10
5.96397
20
-4.13637
11
5.96385
21
-4.13651
0
LINE
8
BLACK
6
CONTINUOUS
10
5.96385
20
-4.13651
11
5.96383
21
-4.13668
0
LINE
8
BLACK
6
CONTINUOUS
10
5.96383
20
-4.13668
11
5.96196
21
-4.14043
0
LINE
8
BLACK
6
CONTINUOUS
10
5.96196
20
-4.14043
11
5.96143
21
-4.14114
0
LINE
8
BLACK
6
CONTINUOUS
10
5.96143
20
-4.14114
11
5.96141
21
-4.1412
0
LINE
8
BLACK
6
CONTINUOUS
10
5.96141
20
-4.1412
11
5.95953
21
-4.14307
0
LINE
8
BLACK
6
CONTINUOUS
10
5.95953
20
-4.14307
11
5.95881
21
-4.14358
0
LINE
8
BLACK
6
CONTINUOUS
10
5.95881
20
-4.14358
11
5.95876
21
-4.14363
0
LINE
8
BLACK
6
CONTINUOUS
10
5.95876
20
-4.14363
11
5.95501
21
-4.1455
0
LINE
8
BLACK
6
CONTINUOUS
10
5.95501
20
-4.1455
11
5.95403
21
-4.14579
0
LINE
8
BLACK
6
CONTINUOUS
10
5.95403
20
-4.14579
11
5.95386
21
-4.14575
0
LINE
8
BLACK
6
CONTINUOUS
10
5.95386
20
-4.14575
11
5.95369
21
-4.14581
0
LINE
8
BLACK
6
CONTINUOUS
10
5.95369
20
-4.14581
11
5.94165
21
-4.14581
0
LINE
8
BLACK
6
CONTINUOUS
10
5.94165
20
-4.14581
11
5.94165
21
-4.16161
0
LINE
8
BLACK
6
CONTINUOUS
10
5.94165
20
-4.16161
11
5.94147
21
-4.16262
0
LINE
8
BLACK
6
CONTINUOUS
10
5.94147
20
-4.16262
11
5.94017
21
-4.16416
0
LINE
8
BLACK
6
CONTINUOUS
10
5.94017
20
-4.16416
11
5.93818
21
-4.16451
0
LINE
8
BLACK
6
CONTINUOUS
10
5.93818
20
-4.16451
11
5.93643
21
-4.16351
0
LINE
8
BLACK
6
CONTINUOUS
10
5.93643
20
-4.16351
11
5.93574
21
-4.16161
0
LINE
8
BLACK
6
CONTINUOUS
10
5.93574
20
-4.16161
11
5.93574
21
-4.12224
0
LINE
8
BLACK
6
CONTINUOUS
10
5.93574
20
-4.12224
11
5.93581
21
-4.12185
0
LINE
8
BLACK
6
CONTINUOUS
10
5.93581
20
-4.12185
11
5.93579
21
-4.12172
0
LINE
8
BLACK
6
CONTINUOUS
10
5.93579
20
-4.12172
11
5.93585
21
-4.12161
0
LINE
8
BLACK
6
CONTINUOUS
10
5.93585
20
-4.12161
11
5.93592
21
-4.12123
0
LINE
8
BLACK
6
CONTINUOUS
10
5.93592
20
-4.12123
11
5.93641
21
-4.12064
0
LINE
8
BLACK
6
CONTINUOUS
10
5.93641
20
-4.12064
11
5.9368
21
-4.11998
0
LINE
8
BLACK
6
CONTINUOUS
10
5.9368
20
-4.11998
11
5.93705
21
-4.11988
0
LINE
8
BLACK
6
CONTINUOUS
10
5.93705
20
-4.11988
11
5.93722
21
-4.11968
0
LINE
8
BLACK
6
CONTINUOUS
10
5.93722
20
-4.11968
11
5.93797
21
-4.11955
0
LINE
8
BLACK
6
CONTINUOUS
10
5.93797
20
-4.11955
11
5.9387
21
-4.11928
0
LINE
8
BLACK
6
CONTINUOUS
10
5.9387
20
-4.11928
11
5.95369
21
-4.11928
0
LINE
8
BLACK
6
CONTINUOUS
10
5.95369
20
-4.11928
11
5.9547
21
-4.11946
0
LINE
8
BLACK
6
CONTINUOUS
10
5.94165
20
-4.13991
11
5.953
21
-4.13991
0
LINE
8
BLACK
6
CONTINUOUS
10
5.953
20
-4.13991
11
5.95569
21
-4.13856
0
LINE
8
BLACK
6
CONTINUOUS
10
5.95569
20
-4.13856
11
5.95689
21
-4.13736
0
LINE
8
BLACK
6
CONTINUOUS
10
5.95689
20
-4.13736
11
5.95824
21
-4.13466
0
LINE
8
BLACK
6
CONTINUOUS
10
5.95824
20
-4.13466
11
5.95824
21
-4.13043
0
LINE
8
BLACK
6
CONTINUOUS
10
5.95824
20
-4.13043
11
5.95689
21
-4.12774
0
LINE
8
BLACK
6
CONTINUOUS
10
5.95689
20
-4.12774
11
5.95569
21
-4.12654
0
LINE
8
BLACK
6
CONTINUOUS
10
5.95569
20
-4.12654
11
5.953
21
-4.12519
0
LINE
8
BLACK
6
CONTINUOUS
10
5.953
20
-4.12519
11
5.94165
21
-4.12519
0
LINE
8
BLACK
6
CONTINUOUS
10
5.94165
20
-4.12519
11
5.94165
21
-4.13991
0
LINE
8
BLACK
6
CONTINUOUS
10
6.04919
20
-4.11946
11
6.04933
21
-4.11958
0
LINE
8
BLACK
6
CONTINUOUS
10
6.04933
20
-4.11958
11
6.0495
21
-4.1196
0
LINE
8
BLACK
6
CONTINUOUS
10
6.0495
20
-4.1196
11
6.05325
21
-4.12147
0
LINE
8
BLACK
6
CONTINUOUS
10
6.05325
20
-4.12147
11
6.05396
21
-4.122
0
LINE
8
BLACK
6
CONTINUOUS
10
6.05396
20
-4.122
11
6.05402
21
-4.12202
0
LINE
8
BLACK
6
CONTINUOUS
10
6.05402
20
-4.12202
11
6.05589
21
-4.1239
0
LINE
8
BLACK
6
CONTINUOUS
10
6.05589
20
-4.1239
11
6.0564
21
-4.12462
0
LINE
8
BLACK
6
CONTINUOUS
10
6.0564
20
-4.12462
11
6.05645
21
-4.12467
0
LINE
8
BLACK
6
CONTINUOUS
10
6.05645
20
-4.12467
11
6.05832
21
-4.12842
0
LINE
8
BLACK
6
CONTINUOUS
10
6.05832
20
-4.12842
11
6.05861
21
-4.1294
0
LINE
8
BLACK
6
CONTINUOUS
10
6.05861
20
-4.1294
11
6.05857
21
-4.12957
0
LINE
8
BLACK
6
CONTINUOUS
10
6.05857
20
-4.12957
11
6.05863
21
-4.12974
0
LINE
8
BLACK
6
CONTINUOUS
10
6.05863
20
-4.12974
11
6.05863
21
-4.13536
0
LINE
8
BLACK
6
CONTINUOUS
10
6.05863
20
-4.13536
11
6.05846
21
-4.13637
0
LINE
8
BLACK
6
CONTINUOUS
10
6.05846
20
-4.13637
11
6.05834
21
-4.13651
0
LINE
8
BLACK
6
CONTINUOUS
10
6.05834
20
-4.13651
11
6.05832
21
-4.13668
0
LINE
8
BLACK
6
CONTINUOUS
10
6.05832
20
-4.13668
11
6.05645
21
-4.14043
0
LINE
8
BLACK
6
CONTINUOUS
10
6.05645
20
-4.14043
11
6.05592
21
-4.14114
0
LINE
8
BLACK
6
CONTINUOUS
10
6.05592
20
-4.14114
11
6.05589
21
-4.1412
0
LINE
8
BLACK
6
CONTINUOUS
10
6.05589
20
-4.1412
11
6.05402
21
-4.14307
0
LINE
8
BLACK
6
CONTINUOUS
10
6.05402
20
-4.14307
11
6.0533
21
-4.14358
0
LINE
8
BLACK
6
CONTINUOUS
10
6.0533
20
-4.14358
11
6.05325
21
-4.14363
0
LINE
8
BLACK
6
CONTINUOUS
10
6.05325
20
-4.14363
11
6.0495
21
-4.1455
0
LINE
8
BLACK
6
CONTINUOUS
10
6.0495
20
-4.1455
11
6.04852
21
-4.14579
0
LINE
8
BLACK
6
CONTINUOUS
10
6.04852
20
-4.14579
11
6.04835
21
-4.14575
0
LINE
8
BLACK
6
CONTINUOUS
10
6.04835
20
-4.14575
11
6.04818
21
-4.14581
0
LINE
8
BLACK
6
CONTINUOUS
10
6.04818
20
-4.14581
11
6.03614
21
-4.14581
0
LINE
8
BLACK
6
CONTINUOUS
10
6.03614
20
-4.14581
11
6.03614
21
-4.16161
0
LINE
8
BLACK
6
CONTINUOUS
10
6.03614
20
-4.16161
11
6.03596
21
-4.16262
0
LINE
8
BLACK
6
CONTINUOUS
10
6.03596
20
-4.16262
11
6.03466
21
-4.16416
0
LINE
8
BLACK
6
CONTINUOUS
10
6.03466
20
-4.16416
11
6.03267
21
-4.16451
0
LINE
8
BLACK
6
CONTINUOUS
10
6.03267
20
-4.16451
11
6.03092
21
-4.16351
0
LINE
8
BLACK
6
CONTINUOUS
10
6.03092
20
-4.16351
11
6.03023
21
-4.16161
0
LINE
8
BLACK
6
CONTINUOUS
10
6.03023
20
-4.16161
11
6.03023
21
-4.12224
0
LINE
8
BLACK
6
CONTINUOUS
10
6.03023
20
-4.12224
11
6.0303
21
-4.12185
0
LINE
8
BLACK
6
CONTINUOUS
10
6.0303
20
-4.12185
11
6.03028
21
-4.12172
0
LINE
8
BLACK
6
CONTINUOUS
10
6.03028
20
-4.12172
11
6.03034
21
-4.12161
0
LINE
8
BLACK
6
CONTINUOUS
10
6.03034
20
-4.12161
11
6.03041
21
-4.12123
0
LINE
8
BLACK
6
CONTINUOUS
10
6.03041
20
-4.12123
11
6.0309
21
-4.12064
0
LINE
8
BLACK
6
CONTINUOUS
10
6.0309
20
-4.12064
11
6.03129
21
-4.11998
0
LINE
8
BLACK
6
CONTINUOUS
10
6.03129
20
-4.11998
11
6.03154
21
-4.11988
0
LINE
8
BLACK
6
CONTINUOUS
10
6.03154
20
-4.11988
11
6.03171
21
-4.11968
0
LINE
8
BLACK
6
CONTINUOUS
10
6.03171
20
-4.11968
11
6.03246
21
-4.11955
0
LINE
8
BLACK
6
CONTINUOUS
10
6.03246
20
-4.11955
11
6.03318
21
-4.11928
0
LINE
8
BLACK
6
CONTINUOUS
10
6.03318
20
-4.11928
11
6.04818
21
-4.11928
0
LINE
8
BLACK
6
CONTINUOUS
10
6.04818
20
-4.11928
11
6.04919
21
-4.11946
0
LINE
8
BLACK
6
CONTINUOUS
10
6.03614
20
-4.13991
11
6.04748
21
-4.13991
0
LINE
8
BLACK
6
CONTINUOUS
10
6.04748
20
-4.13991
11
6.05018
21
-4.13856
0
LINE
8
BLACK
6
CONTINUOUS
10
6.05018
20
-4.13856
11
6.05138
21
-4.13736
0
LINE
8
BLACK
6
CONTINUOUS
10
6.05138
20
-4.13736
11
6.05273
21
-4.13466
0
LINE
8
BLACK
6
CONTINUOUS
10
6.05273
20
-4.13466
11
6.05273
21
-4.13043
0
LINE
8
BLACK
6
CONTINUOUS
10
6.05273
20
-4.13043
11
6.05138
21
-4.12774
0
LINE
8
BLACK
6
CONTINUOUS
10
6.05138
20
-4.12774
11
6.05018
21
-4.12654
0
LINE
8
BLACK
6
CONTINUOUS
10
6.05018
20
-4.12654
11
6.04748
21
-4.12519
0
LINE
8
BLACK
6
CONTINUOUS
10
6.04748
20
-4.12519
11
6.03614
21
-4.12519
0
LINE
8
BLACK
6
CONTINUOUS
10
6.03614
20
-4.12519
11
6.03614
21
-4.13991
0
LINE
8
BLACK
6
CONTINUOUS
10
5.99869
20
-4.03661
11
6.02006
21
-4.03661
0
LINE
8
BLACK
6
CONTINUOUS
10
6.02006
20
-4.03661
11
6.02107
21
-4.03679
0
LINE
8
BLACK
6
CONTINUOUS
10
6.02107
20
-4.03679
11
6.02262
21
-4.03808
0
LINE
8
BLACK
6
CONTINUOUS
10
6.02262
20
-4.03808
11
6.02297
21
-4.04007
0
LINE
8
BLACK
6
CONTINUOUS
10
6.02297
20
-4.04007
11
6.02196
21
-4.04182
0
LINE
8
BLACK
6
CONTINUOUS
10
6.02196
20
-4.04182
11
6.02006
21
-4.04251
0
LINE
8
BLACK
6
CONTINUOUS
10
6.02006
20
-4.04251
11
6.01176
21
-4.04251
0
LINE
8
BLACK
6
CONTINUOUS
10
6.01176
20
-4.04251
11
6.01176
21
-4.07893
0
LINE
8
BLACK
6
CONTINUOUS
10
6.01176
20
-4.07893
11
6.01159
21
-4.07994
0
LINE
8
BLACK
6
CONTINUOUS
10
6.01159
20
-4.07994
11
6.01029
21
-4.08149
0
LINE
8
BLACK
6
CONTINUOUS
10
6.01029
20
-4.08149
11
6.0083
21
-4.08184
0
LINE
8
BLACK
6
CONTINUOUS
10
6.0083
20
-4.08184
11
6.00655
21
-4.08083
0
LINE
8
BLACK
6
CONTINUOUS
10
6.00655
20
-4.08083
11
6.00586
21
-4.07893
0
LINE
8
BLACK
6
CONTINUOUS
10
6.00586
20
-4.07893
11
6.00586
21
-4.04251
0
LINE
8
BLACK
6
CONTINUOUS
10
6.00586
20
-4.04251
11
6.00003
21
-4.04251
0
LINE
8
BLACK
6
CONTINUOUS
10
6.00003
20
-4.04251
11
5.99195
21
-4.05174
0
LINE
8
BLACK
6
CONTINUOUS
10
5.99195
20
-4.05174
11
5.9922
21
-4.05178
0
LINE
8
BLACK
6
CONTINUOUS
10
5.9922
20
-4.05178
11
5.99233
21
-4.0519
0
LINE
8
BLACK
6
CONTINUOUS
10
5.99233
20
-4.0519
11
5.99251
21
-4.05192
0
LINE
8
BLACK
6
CONTINUOUS
10
5.99251
20
-4.05192
11
5.99626
21
-4.05379
0
LINE
8
BLACK
6
CONTINUOUS
10
5.99626
20
-4.05379
11
5.99697
21
-4.05432
0
LINE
8
BLACK
6
CONTINUOUS
10
5.99697
20
-4.05432
11
5.99703
21
-4.05434
0
LINE
8
BLACK
6
CONTINUOUS
10
5.99703
20
-4.05434
11
5.9989
21
-4.05622
0
LINE
8
BLACK
6
CONTINUOUS
10
5.9989
20
-4.05622
11
5.99941
21
-4.05694
0
LINE
8
BLACK
6
CONTINUOUS
10
5.99941
20
-4.05694
11
5.99945
21
-4.05699
0
LINE
8
BLACK
6
CONTINUOUS
10
5.99945
20
-4.05699
11
6.00133
21
-4.06074
0
LINE
8
BLACK
6
CONTINUOUS
10
6.00133
20
-4.06074
11
6.00162
21
-4.06172
0
LINE
8
BLACK
6
CONTINUOUS
10
6.00162
20
-4.06172
11
6.00158
21
-4.06189
0
LINE
8
BLACK
6
CONTINUOUS
10
6.00158
20
-4.06189
11
6.00164
21
-4.06206
0
LINE
8
BLACK
6
CONTINUOUS
10
6.00164
20
-4.06206
11
6.00164
21
-4.07143
0
LINE
8
BLACK
6
CONTINUOUS
10
6.00164
20
-4.07143
11
6.00146
21
-4.07244
0
LINE
8
BLACK
6
CONTINUOUS
10
6.00146
20
-4.07244
11
6.00135
21
-4.07258
0
LINE
8
BLACK
6
CONTINUOUS
10
6.00135
20
-4.07258
11
6.00133
21
-4.07275
0
LINE
8
BLACK
6
CONTINUOUS
10
6.00133
20
-4.07275
11
5.99945
21
-4.0765
0
LINE
8
BLACK
6
CONTINUOUS
10
5.99945
20
-4.0765
11
5.99893
21
-4.07721
0
LINE
8
BLACK
6
CONTINUOUS
10
5.99893
20
-4.07721
11
5.9989
21
-4.07727
0
LINE
8
BLACK
6
CONTINUOUS
10
5.9989
20
-4.07727
11
5.99703
21
-4.07914
0
LINE
8
BLACK
6
CONTINUOUS
10
5.99703
20
-4.07914
11
5.9963
21
-4.07965
0
LINE
8
BLACK
6
CONTINUOUS
10
5.9963
20
-4.07965
11
5.99626
21
-4.0797
0
LINE
8
BLACK
6
CONTINUOUS
10
5.99626
20
-4.0797
11
5.99251
21
-4.08157
0
LINE
8
BLACK
6
CONTINUOUS
10
5.99251
20
-4.08157
11
5.99153
21
-4.08186
0
LINE
8
BLACK
6
CONTINUOUS
10
5.99153
20
-4.08186
11
5.99135
21
-4.08182
0
LINE
8
BLACK
6
CONTINUOUS
10
5.99135
20
-4.08182
11
5.99119
21
-4.08188
0
LINE
8
BLACK
6
CONTINUOUS
10
5.99119
20
-4.08188
11
5.97994
21
-4.08188
0
LINE
8
BLACK
6
CONTINUOUS
10
5.97994
20
-4.08188
11
5.97893
21
-4.0817
0
LINE
8
BLACK
6
CONTINUOUS
10
5.97893
20
-4.0817
11
5.97879
21
-4.08159
0
LINE
8
BLACK
6
CONTINUOUS
10
5.97879
20
-4.08159
11
5.97862
21
-4.08157
0
LINE
8
BLACK
6
CONTINUOUS
10
5.97862
20
-4.08157
11
5.97487
21
-4.0797
0
LINE
8
BLACK
6
CONTINUOUS
10
5.97487
20
-4.0797
11
5.97416
21
-4.07917
0
LINE
8
BLACK
6
CONTINUOUS
10
5.97416
20
-4.07917
11
5.9741
21
-4.07914
0
LINE
8
BLACK
6
CONTINUOUS
10
5.9741
20
-4.07914
11
5.97223
21
-4.07727
0
LINE
8
BLACK
6
CONTINUOUS
10
5.97223
20
-4.07727
11
5.97164
21
-4.07643
0
LINE
8
BLACK
6
CONTINUOUS
10
5.97164
20
-4.07643
11
5.97146
21
-4.07442
0
LINE
8
BLACK
6
CONTINUOUS
10
5.97146
20
-4.07442
11
5.97262
21
-4.07276
0
LINE
8
BLACK
6
CONTINUOUS
10
5.97262
20
-4.07276
11
5.97457
21
-4.07224
0
LINE
8
BLACK
6
CONTINUOUS
10
5.97457
20
-4.07224
11
5.9764
21
-4.07309
0
LINE
8
BLACK
6
CONTINUOUS
10
5.9764
20
-4.07309
11
5.97794
21
-4.07463
0
LINE
8
BLACK
6
CONTINUOUS
10
5.97794
20
-4.07463
11
5.98064
21
-4.07598
0
LINE
8
BLACK
6
CONTINUOUS
10
5.98064
20
-4.07598
11
5.99049
21
-4.07598
0
LINE
8
BLACK
6
CONTINUOUS
10
5.99049
20
-4.07598
11
5.99319
21
-4.07463
0
LINE
8
BLACK
6
CONTINUOUS
10
5.99319
20
-4.07463
11
5.99439
21
-4.07343
0
LINE
8
BLACK
6
CONTINUOUS
10
5.99439
20
-4.07343
11
5.99573
21
-4.07073
0
LINE
8
BLACK
6
CONTINUOUS
10
5.99573
20
-4.07073
11
5.99573
21
-4.06275
0
LINE
8
BLACK
6
CONTINUOUS
10
5.99573
20
-4.06275
11
5.99439
21
-4.06006
0
LINE
8
BLACK
6
CONTINUOUS
10
5.99439
20
-4.06006
11
5.99319
21
-4.05886
0
LINE
8
BLACK
6
CONTINUOUS
10
5.99319
20
-4.05886
11
5.99049
21
-4.05751
0
LINE
8
BLACK
6
CONTINUOUS
10
5.99049
20
-4.05751
11
5.98556
21
-4.05751
0
LINE
8
BLACK
6
CONTINUOUS
10
5.98556
20
-4.05751
11
5.98513
21
-4.05743
0
LINE
8
BLACK
6
CONTINUOUS
10
5.98513
20
-4.05743
11
5.98499
21
-4.05745
0
LINE
8
BLACK
6
CONTINUOUS
10
5.98499
20
-4.05745
11
5.98489
21
-4.05739
0
LINE
8
BLACK
6
CONTINUOUS
10
5.98489
20
-4.05739
11
5.98455
21
-4.05733
0
LINE
8
BLACK
6
CONTINUOUS
10
5.98455
20
-4.05733
11
5.98394
21
-4.05682
0
LINE
8
BLACK
6
CONTINUOUS
10
5.98394
20
-4.05682
11
5.98326
21
-4.05641
0
LINE
8
BLACK
6
CONTINUOUS
10
5.98326
20
-4.05641
11
5.98319
21
-4.05619
0
LINE
8
BLACK
6
CONTINUOUS
10
5.98319
20
-4.05619
11
5.98301
21
-4.05603
0
LINE
8
BLACK
6
CONTINUOUS
10
5.98301
20
-4.05603
11
5.98287
21
-4.05525
0
LINE
8
BLACK
6
CONTINUOUS
10
5.98287
20
-4.05525
11
5.98261
21
-4.0545
0
LINE
8
BLACK
6
CONTINUOUS
10
5.98261
20
-4.0545
11
5.9827
21
-4.05428
0
LINE
8
BLACK
6
CONTINUOUS
10
5.9827
20
-4.05428
11
5.98266
21
-4.05405
0
LINE
8
BLACK
6
CONTINUOUS
10
5.98266
20
-4.05405
11
5.98305
21
-4.05336
0
LINE
8
BLACK
6
CONTINUOUS
10
5.98305
20
-4.05336
11
5.98334
21
-4.05261
0
LINE
8
BLACK
6
CONTINUOUS
10
5.98334
20
-4.05261
11
5.99218
21
-4.04251
0
LINE
8
BLACK
6
CONTINUOUS
10
5.99218
20
-4.04251
11
5.97432
21
-4.04251
0
LINE
8
BLACK
6
CONTINUOUS
10
5.97432
20
-4.04251
11
5.97331
21
-4.04233
0
LINE
8
BLACK
6
CONTINUOUS
10
5.97331
20
-4.04233
11
5.97176
21
-4.04104
0
LINE
8
BLACK
6
CONTINUOUS
10
5.97176
20
-4.04104
11
5.97141
21
-4.03905
0
LINE
8
BLACK
6
CONTINUOUS
10
5.97141
20
-4.03905
11
5.97242
21
-4.0373
0
LINE
8
BLACK
6
CONTINUOUS
10
5.97242
20
-4.0373
11
5.97432
21
-4.03661
0
LINE
8
BLACK
6
CONTINUOUS
10
5.97432
20
-4.03661
11
5.99869
21
-4.03661
0
LINE
8
BLACK
6
CONTINUOUS
10
5.92658
20
-4.03679
11
5.92813
21
-4.03808
0
LINE
8
BLACK
6
CONTINUOUS
10
5.92813
20
-4.03808
11
5.92848
21
-4.04007
0
LINE
8
BLACK
6
CONTINUOUS
10
5.92848
20
-4.04007
11
5.92747
21
-4.04182
0
LINE
8
BLACK
6
CONTINUOUS
10
5.92747
20
-4.04182
11
5.92557
21
-4.04251
0
LINE
8
BLACK
6
CONTINUOUS
10
5.92557
20
-4.04251
11
5.91728
21
-4.04251
0
LINE
8
BLACK
6
CONTINUOUS
10
5.91728
20
-4.04251
11
5.91728
21
-4.07893
0
LINE
8
BLACK
6
CONTINUOUS
10
5.91728
20
-4.07893
11
5.9171
21
-4.07994
0
LINE
8
BLACK
6
CONTINUOUS
10
5.9171
20
-4.07994
11
5.9158
21
-4.08149
0
LINE
8
BLACK
6
CONTINUOUS
10
5.9158
20
-4.08149
11
5.91381
21
-4.08184
0
LINE
8
BLACK
6
CONTINUOUS
10
5.91381
20
-4.08184
11
5.91206
21
-4.08083
0
LINE
8
BLACK
6
CONTINUOUS
10
5.91206
20
-4.08083
11
5.91137
21
-4.07893
0
LINE
8
BLACK
6
CONTINUOUS
10
5.91137
20
-4.07893
11
5.91137
21
-4.04251
0
LINE
8
BLACK
6
CONTINUOUS
10
5.91137
20
-4.04251
11
5.90307
21
-4.04251
0
LINE
8
BLACK
6
CONTINUOUS
10
5.90307
20
-4.04251
11
5.90206
21
-4.04233
0
LINE
8
BLACK
6
CONTINUOUS
10
5.90206
20
-4.04233
11
5.90052
21
-4.04104
0
LINE
8
BLACK
6
CONTINUOUS
10
5.90052
20
-4.04104
11
5.90017
21
-4.03905
0
LINE
8
BLACK
6
CONTINUOUS
10
5.90017
20
-4.03905
11
5.90118
21
-4.0373
0
LINE
8
BLACK
6
CONTINUOUS
10
5.90118
20
-4.0373
11
5.90307
21
-4.03661
0
LINE
8
BLACK
6
CONTINUOUS
10
5.90307
20
-4.03661
11
5.92557
21
-4.03661
0
LINE
8
BLACK
6
CONTINUOUS
10
5.92557
20
-4.03661
11
5.92658
21
-4.03679
0
LINE
8
BLACK
6
CONTINUOUS
10
5.9547
20
-4.03679
11
5.95484
21
-4.0369
0
LINE
8
BLACK
6
CONTINUOUS
10
5.95484
20
-4.0369
11
5.95501
21
-4.03692
0
LINE
8
BLACK
6
CONTINUOUS
10
5.95501
20
-4.03692
11
5.95876
21
-4.03879
0
LINE
8
BLACK
6
CONTINUOUS
10
5.95876
20
-4.03879
11
5.95947
21
-4.03932
0
LINE
8
BLACK
6
CONTINUOUS
10
5.95947
20
-4.03932
11
5.95953
21
-4.03935
0
LINE
8
BLACK
6
CONTINUOUS
10
5.95953
20
-4.03935
11
5.96141
21
-4.04122
0
LINE
8
BLACK
6
CONTINUOUS
10
5.96141
20
-4.04122
11
5.96191
21
-4.04194
0
LINE
8
BLACK
6
CONTINUOUS
10
5.96191
20
-4.04194
11
5.96196
21
-4.04199
0
LINE
8
BLACK
6
CONTINUOUS
10
5.96196
20
-4.04199
11
5.96383
21
-4.04574
0
LINE
8
BLACK
6
CONTINUOUS
10
5.96383
20
-4.04574
11
5.96413
21
-4.04672
0
LINE
8
BLACK
6
CONTINUOUS
10
5.96413
20
-4.04672
11
5.96408
21
-4.04689
0
LINE
8
BLACK
6
CONTINUOUS
10
5.96408
20
-4.04689
11
5.96415
21
-4.04706
0
LINE
8
BLACK
6
CONTINUOUS
10
5.96415
20
-4.04706
11
5.96415
21
-4.05268
0
LINE
8
BLACK
6
CONTINUOUS
10
5.96415
20
-4.05268
11
5.96397
21
-4.05369
0
LINE
8
BLACK
6
CONTINUOUS
10
5.96397
20
-4.05369
11
5.96385
21
-4.05383
0
LINE
8
BLACK
6
CONTINUOUS
10
5.96385
20
-4.05383
11
5.96383
21
-4.054
0
LINE
8
BLACK
6
CONTINUOUS
10
5.96383
20
-4.054
11
5.96196
21
-4.05775
0
LINE
8
BLACK
6
CONTINUOUS
10
5.96196
20
-4.05775
11
5.96143
21
-4.05846
0
LINE
8
BLACK
6
CONTINUOUS
10
5.96143
20
-4.05846
11
5.96141
21
-4.05852
0
LINE
8
BLACK
6
CONTINUOUS
10
5.96141
20
-4.05852
11
5.95953
21
-4.0604
0
LINE
8
BLACK
6
CONTINUOUS
10
5.95953
20
-4.0604
11
5.95881
21
-4.0609
0
LINE
8
BLACK
6
CONTINUOUS
10
5.95881
20
-4.0609
11
5.95876
21
-4.06095
0
LINE
8
BLACK
6
CONTINUOUS
10
5.95876
20
-4.06095
11
5.95501
21
-4.06282
0
LINE
8
BLACK
6
CONTINUOUS
10
5.95501
20
-4.06282
11
5.95403
21
-4.06312
0
LINE
8
BLACK
6
CONTINUOUS
10
5.95403
20
-4.06312
11
5.95386
21
-4.06307
0
LINE
8
BLACK
6
CONTINUOUS
10
5.95386
20
-4.06307
11
5.95369
21
-4.06313
0
LINE
8
BLACK
6
CONTINUOUS
10
5.95369
20
-4.06313
11
5.94165
21
-4.06313
0
LINE
8
BLACK
6
CONTINUOUS
10
5.94165
20
-4.06313
11
5.94165
21
-4.07893
0
LINE
8
BLACK
6
CONTINUOUS
10
5.94165
20
-4.07893
11
5.94147
21
-4.07994
0
LINE
8
BLACK
6
CONTINUOUS
10
5.94147
20
-4.07994
11
5.94017
21
-4.08149
0
LINE
8
BLACK
6
CONTINUOUS
10
5.94017
20
-4.08149
11
5.93818
21
-4.08184
0
LINE
8
BLACK
6
CONTINUOUS
10
5.93818
20
-4.08184
11
5.93643
21
-4.08083
0
LINE
8
BLACK
6
CONTINUOUS
10
5.93643
20
-4.08083
11
5.93574
21
-4.07893
0
LINE
8
BLACK
6
CONTINUOUS
10
5.93574
20
-4.07893
11
5.93574
21
-4.03956
0
LINE
8
BLACK
6
CONTINUOUS
10
5.93574
20
-4.03956
11
5.93581
21
-4.03918
0
LINE
8
BLACK
6
CONTINUOUS
10
5.93581
20
-4.03918
11
5.93579
21
-4.03905
0
LINE
8
BLACK
6
CONTINUOUS
10
5.93579
20
-4.03905
11
5.93585
21
-4.03893
0
LINE
8
BLACK
6
CONTINUOUS
10
5.93585
20
-4.03893
11
5.93592
21
-4.03855
0
LINE
8
BLACK
6
CONTINUOUS
10
5.93592
20
-4.03855
11
5.93641
21
-4.03796
0
LINE
8
BLACK
6
CONTINUOUS
10
5.93641
20
-4.03796
11
5.9368
21
-4.0373
0
LINE
8
BLACK
6
CONTINUOUS
10
5.9368
20
-4.0373
11
5.93705
21
-4.03721
0
LINE
8
BLACK
6
CONTINUOUS
10
5.93705
20
-4.03721
11
5.93722
21
-4.037
0
LINE
8
BLACK
6
CONTINUOUS
10
5.93722
20
-4.037
11
5.93797
21
-4.03687
0
LINE
8
BLACK
6
CONTINUOUS
10
5.93797
20
-4.03687
11
5.9387
21
-4.03661
0
LINE
8
BLACK
6
CONTINUOUS
10
5.9387
20
-4.03661
11
5.95369
21
-4.03661
0
LINE
8
BLACK
6
CONTINUOUS
10
5.95369
20
-4.03661
11
5.9547
21
-4.03679
0
LINE
8
BLACK
6
CONTINUOUS
10
5.94165
20
-4.05723
11
5.953
21
-4.05723
0
LINE
8
BLACK
6
CONTINUOUS
10
5.953
20
-4.05723
11
5.95569
21
-4.05588
0
LINE
8
BLACK
6
CONTINUOUS
10
5.95569
20
-4.05588
11
5.95689
21
-4.05468
0
LINE
8
BLACK
6
CONTINUOUS
10
5.95689
20
-4.05468
11
5.95824
21
-4.05199
0
LINE
8
BLACK
6
CONTINUOUS
10
5.95824
20
-4.05199
11
5.95824
21
-4.04776
0
LINE
8
BLACK
6
CONTINUOUS
10
5.95824
20
-4.04776
11
5.95689
21
-4.04506
0
LINE
8
BLACK
6
CONTINUOUS
10
5.95689
20
-4.04506
11
5.95569
21
-4.04386
0
LINE
8
BLACK
6
CONTINUOUS
10
5.95569
20
-4.04386
11
5.953
21
-4.04251
0
LINE
8
BLACK
6
CONTINUOUS
10
5.953
20
-4.04251
11
5.94165
21
-4.04251
0
LINE
8
BLACK
6
CONTINUOUS
10
5.94165
20
-4.04251
11
5.94165
21
-4.05723
0
LINE
8
BLACK
6
CONTINUOUS
10
6.04919
20
-4.03679
11
6.04933
21
-4.0369
0
LINE
8
BLACK
6
CONTINUOUS
10
6.04933
20
-4.0369
11
6.0495
21
-4.03692
0
LINE
8
BLACK
6
CONTINUOUS
10
6.0495
20
-4.03692
11
6.05325
21
-4.03879
0
LINE
8
BLACK
6
CONTINUOUS
10
6.05325
20
-4.03879
11
6.05396
21
-4.03932
0
LINE
8
BLACK
6
CONTINUOUS
10
6.05396
20
-4.03932
11
6.05402
21
-4.03935
0
LINE
8
BLACK
6
CONTINUOUS
10
6.05402
20
-4.03935
11
6.05589
21
-4.04122
0
LINE
8
BLACK
6
CONTINUOUS
10
6.05589
20
-4.04122
11
6.0564
21
-4.04194
0
LINE
8
BLACK
6
CONTINUOUS
10
6.0564
20
-4.04194
11
6.05645
21
-4.04199
0
LINE
8
BLACK
6
CONTINUOUS
10
6.05645
20
-4.04199
11
6.05832
21
-4.04574
0
LINE
8
BLACK
6
CONTINUOUS
10
6.05832
20
-4.04574
11
6.05861
21
-4.04672
0
LINE
8
BLACK
6
CONTINUOUS
10
6.05861
20
-4.04672
11
6.05857
21
-4.04689
0
LINE
8
BLACK
6
CONTINUOUS
10
6.05857
20
-4.04689
11
6.05863
21
-4.04706
0
LINE
8
BLACK
6
CONTINUOUS
10
6.05863
20
-4.04706
11
6.05863
21
-4.05268
0
LINE
8
BLACK
6
CONTINUOUS
10
6.05863
20
-4.05268
11
6.05846
21
-4.05369
0
LINE
8
BLACK
6
CONTINUOUS
10
6.05846
20
-4.05369
11
6.05834
21
-4.05383
0
LINE
8
BLACK
6
CONTINUOUS
10
6.05834
20
-4.05383
11
6.05832
21
-4.054
0
LINE
8
BLACK
6
CONTINUOUS
10
6.05832
20
-4.054
11
6.05645
21
-4.05775
0
LINE
8
BLACK
6
CONTINUOUS
10
6.05645
20
-4.05775
11
6.05592
21
-4.05846
0
LINE
8
BLACK
6
CONTINUOUS
10
6.05592
20
-4.05846
11
6.05589
21
-4.05852
0
LINE
8
BLACK
6
CONTINUOUS
10
6.05589
20
-4.05852
11
6.05402
21
-4.0604
0
LINE
8
BLACK
6
CONTINUOUS
10
6.05402
20
-4.0604
11
6.0533
21
-4.0609
0
LINE
8
BLACK
6
CONTINUOUS
10
6.0533
20
-4.0609
11
6.05325
21
-4.06095
0
LINE
8
BLACK
6
CONTINUOUS
10
6.05325
20
-4.06095
11
6.0495
21
-4.06282
0
LINE
8
BLACK
6
CONTINUOUS
10
6.0495
20
-4.06282
11
6.04852
21
-4.06312
0
LINE
8
BLACK
6
CONTINUOUS
10
6.04852
20
-4.06312
11
6.04835
21
-4.06307
0
LINE
8
BLACK
6
CONTINUOUS
10
6.04835
20
-4.06307
11
6.04818
21
-4.06313
0
LINE
8
BLACK
6
CONTINUOUS
10
6.04818
20
-4.06313
11
6.03614
21
-4.06313
0
LINE
8
BLACK
6
CONTINUOUS
10
6.03614
20
-4.06313
11
6.03614
21
-4.07893
0
LINE
8
BLACK
6
CONTINUOUS
10
6.03614
20
-4.07893
11
6.03596
21
-4.07994
0
LINE
8
BLACK
6
CONTINUOUS
10
6.03596
20
-4.07994
11
6.03466
21
-4.08149
0
LINE
8
BLACK
6
CONTINUOUS
10
6.03466
20
-4.08149
11
6.03267
21
-4.08184
0
LINE
8
BLACK
6
CONTINUOUS
10
6.03267
20
-4.08184
11
6.03092
21
-4.08083
0
LINE
8
BLACK
6
CONTINUOUS
10
6.03092
20
-4.08083
11
6.03023
21
-4.07893
0
LINE
8
BLACK
6
CONTINUOUS
10
6.03023
20
-4.07893
11
6.03023
21
-4.03956
0
LINE
8
BLACK
6
CONTINUOUS
10
6.03023
20
-4.03956
11
6.0303
21
-4.03918
0
LINE
8
BLACK
6
CONTINUOUS
10
6.0303
20
-4.03918
11
6.03028
21
-4.03905
0
LINE
8
BLACK
6
CONTINUOUS
10
6.03028
20
-4.03905
11
6.03034
21
-4.03893
0
LINE
8
BLACK
6
CONTINUOUS
10
6.03034
20
-4.03893
11
6.03041
21
-4.03855
0
LINE
8
BLACK
6
CONTINUOUS
10
6.03041
20
-4.03855
11
6.0309
21
-4.03796
0
LINE
8
BLACK
6
CONTINUOUS
10
6.0309
20
-4.03796
11
6.03129
21
-4.0373
0
LINE
8
BLACK
6
CONTINUOUS
10
6.03129
20
-4.0373
11
6.03154
21
-4.03721
0
LINE
8
BLACK
6
CONTINUOUS
10
6.03154
20
-4.03721
11
6.03171
21
-4.037
0
LINE
8
BLACK
6
CONTINUOUS
10
6.03171
20
-4.037
11
6.03246
21
-4.03687
0
LINE
8
BLACK
6
CONTINUOUS
10
6.03246
20
-4.03687
11
6.03318
21
-4.03661
0
LINE
8
BLACK
6
CONTINUOUS
10
6.03318
20
-4.03661
11
6.04818
21
-4.03661
0
LINE
8
BLACK
6
CONTINUOUS
10
6.04818
20
-4.03661
11
6.04919
21
-4.03679
0
LINE
8
BLACK
6
CONTINUOUS
10
6.03614
20
-4.05723
11
6.04748
21
-4.05723
0
LINE
8
BLACK
6
CONTINUOUS
10
6.04748
20
-4.05723
11
6.05018
21
-4.05588
0
LINE
8
BLACK
6
CONTINUOUS
10
6.05018
20
-4.05588
11
6.05138
21
-4.05468
0
LINE
8
BLACK
6
CONTINUOUS
10
6.05138
20
-4.05468
11
6.05273
21
-4.05199
0
LINE
8
BLACK
6
CONTINUOUS
10
6.05273
20
-4.05199
11
6.05273
21
-4.04776
0
LINE
8
BLACK
6
CONTINUOUS
10
6.05273
20
-4.04776
11
6.05138
21
-4.04506
0
LINE
8
BLACK
6
CONTINUOUS
10
6.05138
20
-4.04506
11
6.05018
21
-4.04386
0
LINE
8
BLACK
6
CONTINUOUS
10
6.05018
20
-4.04386
11
6.04748
21
-4.04251
0
LINE
8
BLACK
6
CONTINUOUS
10
6.04748
20
-4.04251
11
6.03614
21
-4.04251
0
LINE
8
BLACK
6
CONTINUOUS
10
6.03614
20
-4.04251
11
6.03614
21
-4.05723
0
LINE
8
BLACK
6
CONTINUOUS
10
6.08146
20
-4.03509
11
6.0828
21
-4.0366
0
LINE
8
BLACK
6
CONTINUOUS
10
6.0828
20
-4.0366
11
6.08285
21
-4.03862
0
LINE
8
BLACK
6
CONTINUOUS
10
6.08285
20
-4.03862
11
6.07478
21
-4.06285
0
LINE
8
BLACK
6
CONTINUOUS
10
6.07478
20
-4.06285
11
6.08647
21
-4.06285
0
LINE
8
BLACK
6
CONTINUOUS
10
6.08647
20
-4.06285
11
6.08647
21
-4.05268
0
LINE
8
BLACK
6
CONTINUOUS
10
6.08647
20
-4.05268
11
6.08665
21
-4.05167
0
LINE
8
BLACK
6
CONTINUOUS
10
6.08665
20
-4.05167
11
6.08795
21
-4.05013
0
LINE
8
BLACK
6
CONTINUOUS
10
6.08795
20
-4.05013
11
6.08994
21
-4.04978
0
LINE
8
BLACK
6
CONTINUOUS
10
6.08994
20
-4.04978
11
6.09169
21
-4.05079
0
LINE
8
BLACK
6
CONTINUOUS
10
6.09169
20
-4.05079
11
6.09238
21
-4.05268
0
LINE
8
BLACK
6
CONTINUOUS
10
6.09238
20
-4.05268
11
6.09238
21
-4.06285
0
LINE
8
BLACK
6
CONTINUOUS
10
6.09238
20
-4.06285
11
6.09505
21
-4.06285
0
LINE
8
BLACK
6
CONTINUOUS
10
6.09505
20
-4.06285
11
6.09606
21
-4.06303
0
LINE
8
BLACK
6
CONTINUOUS
10
6.09606
20
-4.06303
11
6.09761
21
-4.06433
0
LINE
8
BLACK
6
CONTINUOUS
10
6.09761
20
-4.06433
11
6.09796
21
-4.06632
0
LINE
8
BLACK
6
CONTINUOUS
10
6.09796
20
-4.06632
11
6.09695
21
-4.06807
0
LINE
8
BLACK
6
CONTINUOUS
10
6.09695
20
-4.06807
11
6.09505
21
-4.06876
0
LINE
8
BLACK
6
CONTINUOUS
10
6.09505
20
-4.06876
11
6.09238
21
-4.06876
0
LINE
8
BLACK
6
CONTINUOUS
10
6.09238
20
-4.06876
11
6.09238
21
-4.07893
0
LINE
8
BLACK
6
CONTINUOUS
10
6.09238
20
-4.07893
11
6.0922
21
-4.07994
0
LINE
8
BLACK
6
CONTINUOUS
10
6.0922
20
-4.07994
11
6.0909
21
-4.08149
0
LINE
8
BLACK
6
CONTINUOUS
10
6.0909
20
-4.08149
11
6.08891
21
-4.08184
0
LINE
8
BLACK
6
CONTINUOUS
10
6.08891
20
-4.08184
11
6.08716
21
-4.08083
0
LINE
8
BLACK
6
CONTINUOUS
10
6.08716
20
-4.08083
11
6.08647
21
-4.07893
0
LINE
8
BLACK
6
CONTINUOUS
10
6.08647
20
-4.07893
11
6.08647
21
-4.06876
0
LINE
8
BLACK
6
CONTINUOUS
10
6.08647
20
-4.06876
11
6.07068
21
-4.06876
0
LINE
8
BLACK
6
CONTINUOUS
10
6.07068
20
-4.06876
11
6.06967
21
-4.06858
0
LINE
8
BLACK
6
CONTINUOUS
10
6.06967
20
-4.06858
11
6.0695
21
-4.06844
0
LINE
8
BLACK
6
CONTINUOUS
10
6.0695
20
-4.06844
11
6.06927
21
-4.0684
0
LINE
8
BLACK
6
CONTINUOUS
10
6.06927
20
-4.0684
11
6.06874
21
-4.0678
0
LINE
8
BLACK
6
CONTINUOUS
10
6.06874
20
-4.0678
11
6.06812
21
-4.06728
0
LINE
8
BLACK
6
CONTINUOUS
10
6.06812
20
-4.06728
11
6.06808
21
-4.06706
0
LINE
8
BLACK
6
CONTINUOUS
10
6.06808
20
-4.06706
11
6.06793
21
-4.06689
0
LINE
8
BLACK
6
CONTINUOUS
10
6.06793
20
-4.06689
11
6.06791
21
-4.06609
0
LINE
8
BLACK
6
CONTINUOUS
10
6.06791
20
-4.06609
11
6.06777
21
-4.06529
0
LINE
8
BLACK
6
CONTINUOUS
10
6.06777
20
-4.06529
11
6.06788
21
-4.0651
0
LINE
8
BLACK
6
CONTINUOUS
10
6.06788
20
-4.0651
11
6.06788
21
-4.06487
0
LINE
8
BLACK
6
CONTINUOUS
10
6.06788
20
-4.06487
11
6.07725
21
-4.03675
0
LINE
8
BLACK
6
CONTINUOUS
10
6.07725
20
-4.03675
11
6.07774
21
-4.03585
0
LINE
8
BLACK
6
CONTINUOUS
10
6.07774
20
-4.03585
11
6.07946
21
-4.03479
0
LINE
8
BLACK
6
CONTINUOUS
10
6.07946
20
-4.03479
11
6.08146
21
-4.03509
  0
ENDSEC
  0
EOF
