  0
SECTION
  2
HEADER
  9
$ANGBASE
  50
0.0
  9
$ANGDIR
  70
1
  9
$MEASUREMENT
  70
0
  0
ENDSEC
  0
SECTION
  2
TABLES
  0
TABLE
  2
LTYPE
  70
4
  0
LTYPE
  5
40F
  2
CONTINUOUS
  70
0
  3
Solid line
  72
65
  73
0
  40
0.0
  0
LTYPE
  5
410
  2
DASHDOT
 70
0
  3
Dash Dot ____ _ ____ _
 72
65
 73
4
 40
2.0
 49
1.25
 49
-0.25
 49
0.25
 49
-0.25
  0
LTYPE
  5
411
  2
DASHED
 70
0
  3
Dashed __ __ __ __ __
 72
65
 73
2
 40
0.75
 49
0.5
 49
-0.25
  0
LTYPE
  5
43B
  2
DOTTED
 70
0
  3
Dotted .  .  .  .
 72
65
 73
2
 40
0.2
 49
0.0
 49
-0.2
  0
ENDTAB
  0
TABLE
  2
STYLE
  70
4
  0
STYLE
  2
KICAD
  70
0
  40
0
  41
1
  42
1
  50
0
  71
0
  3
isocp.shx
  0
STYLE
  2
KICADB
  70
0
  40
0
  41
1
  42
1
  50
0
  71
0
  3
isocp.shx
  0
STYLE
  2
KICADI
  70
0
  40
0
  41
1
  42
1
  50
15
  71
0
  3
isocp.shx
  0
STYLE
  2
KICADBI
  70
0
  40
0
  41
1
  42
1
  50
15
  71
0
  3
isocp.shx
  0
ENDTAB
  0
TABLE
  2
LAYER
  70
1
  0
LAYER
  2
BLACK
  70
0
  62
7
  6
CONTINUOUS
  0
ENDTAB
  0
ENDSEC
  0
SECTION
  2
ENTITIES
0
LINE
8
BLACK
6
CONTINUOUS
10
6.09878
20
-4.48299
11
6.02791
21
-4.48299
0
LINE
8
BLACK
6
CONTINUOUS
10
6.02791
20
-4.48299
11
6.02791
21
-4.38457
0
LINE
8
BLACK
6
CONTINUOUS
10
6.02791
20
-4.38457
11
6.09878
21
-4.38457
0
LINE
8
BLACK
6
CONTINUOUS
10
6.09878
20
-4.38457
11
6.09878
21
-4.48299
0
LINE
8
BLACK
6
CONTINUOUS
10
6.49357
20
-4.42169
11
6.49676
21
-4.42383
0
LINE
8
BLACK
6
CONTINUOUS
10
6.49676
20
-4.42383
11
6.4989
21
-4.42702
0
LINE
8
BLACK
6
CONTINUOUS
10
6.4989
20
-4.42702
11
6.49965
21
-4.43079
0
LINE
8
BLACK
6
CONTINUOUS
10
6.49965
20
-4.43079
11
6.49965
21
-4.45047
0
LINE
8
BLACK
6
CONTINUOUS
10
6.49965
20
-4.45047
11
6.4989
21
-4.45424
0
LINE
8
BLACK
6
CONTINUOUS
10
6.4989
20
-4.45424
11
6.49676
21
-4.45743
0
LINE
8
BLACK
6
CONTINUOUS
10
6.49676
20
-4.45743
11
6.49357
21
-4.45957
0
LINE
8
BLACK
6
CONTINUOUS
10
6.49357
20
-4.45957
11
6.4898
21
-4.46031
0
LINE
8
BLACK
6
CONTINUOUS
10
6.4898
20
-4.46031
11
6.40319
21
-4.46031
0
LINE
8
BLACK
6
CONTINUOUS
10
6.40319
20
-4.46031
11
6.39942
21
-4.45957
0
LINE
8
BLACK
6
CONTINUOUS
10
6.39942
20
-4.45957
11
6.39623
21
-4.45743
0
LINE
8
BLACK
6
CONTINUOUS
10
6.39623
20
-4.45743
11
6.3941
21
-4.45424
0
LINE
8
BLACK
6
CONTINUOUS
10
6.3941
20
-4.45424
11
6.39335
21
-4.45047
0
LINE
8
BLACK
6
CONTINUOUS
10
6.39335
20
-4.45047
11
6.39335
21
-4.43079
0
LINE
8
BLACK
6
CONTINUOUS
10
6.39335
20
-4.43079
11
6.3941
21
-4.42702
0
LINE
8
BLACK
6
CONTINUOUS
10
6.3941
20
-4.42702
11
6.39623
21
-4.42383
0
LINE
8
BLACK
6
CONTINUOUS
10
6.39623
20
-4.42383
11
6.39942
21
-4.42169
0
LINE
8
BLACK
6
CONTINUOUS
10
6.39942
20
-4.42169
11
6.40319
21
-4.42094
0
LINE
8
BLACK
6
CONTINUOUS
10
6.40319
20
-4.42094
11
6.4898
21
-4.42094
0
LINE
8
BLACK
6
CONTINUOUS
10
6.4898
20
-4.42094
11
6.49357
21
-4.42169
0
LINE
8
BLACK
6
CONTINUOUS
10
5.68528
20
-4.45098
11
5.55142
21
-4.45098
0
LINE
8
BLACK
6
CONTINUOUS
10
5.55142
20
-4.45098
11
5.55142
21
-4.37618
0
LINE
8
BLACK
6
CONTINUOUS
10
5.55142
20
-4.37618
11
5.68528
21
-4.37618
0
LINE
8
BLACK
6
CONTINUOUS
10
5.68528
20
-4.37618
11
5.68528
21
-4.45098
0
LINE
8
BLACK
6
CONTINUOUS
10
5.77457
20
-4.39701
11
5.77744
21
-4.39893
0
LINE
8
BLACK
6
CONTINUOUS
10
5.77744
20
-4.39893
11
5.77937
21
-4.40181
0
LINE
8
BLACK
6
CONTINUOUS
10
5.77937
20
-4.40181
11
5.78004
21
-4.4052
0
LINE
8
BLACK
6
CONTINUOUS
10
5.78004
20
-4.4052
11
5.78004
21
-4.42488
0
LINE
8
BLACK
6
CONTINUOUS
10
5.78004
20
-4.42488
11
5.77937
21
-4.42827
0
LINE
8
BLACK
6
CONTINUOUS
10
5.77937
20
-4.42827
11
5.77744
21
-4.43115
0
LINE
8
BLACK
6
CONTINUOUS
10
5.77744
20
-4.43115
11
5.77457
21
-4.43307
0
LINE
8
BLACK
6
CONTINUOUS
10
5.77457
20
-4.43307
11
5.77118
21
-4.43374
0
LINE
8
BLACK
6
CONTINUOUS
10
5.77118
20
-4.43374
11
5.75346
21
-4.43374
0
LINE
8
BLACK
6
CONTINUOUS
10
5.75346
20
-4.43374
11
5.75007
21
-4.43307
0
LINE
8
BLACK
6
CONTINUOUS
10
5.75007
20
-4.43307
11
5.7472
21
-4.43115
0
LINE
8
BLACK
6
CONTINUOUS
10
5.7472
20
-4.43115
11
5.74528
21
-4.42827
0
LINE
8
BLACK
6
CONTINUOUS
10
5.74528
20
-4.42827
11
5.74461
21
-4.42488
0
LINE
8
BLACK
6
CONTINUOUS
10
5.74461
20
-4.42488
11
5.74461
21
-4.4052
0
LINE
8
BLACK
6
CONTINUOUS
10
5.74461
20
-4.4052
11
5.74528
21
-4.40181
0
LINE
8
BLACK
6
CONTINUOUS
10
5.74528
20
-4.40181
11
5.7472
21
-4.39893
0
LINE
8
BLACK
6
CONTINUOUS
10
5.7472
20
-4.39893
11
5.75007
21
-4.39701
0
LINE
8
BLACK
6
CONTINUOUS
10
5.75007
20
-4.39701
11
5.75346
21
-4.39634
0
LINE
8
BLACK
6
CONTINUOUS
10
5.75346
20
-4.39634
11
5.77118
21
-4.39634
0
LINE
8
BLACK
6
CONTINUOUS
10
5.77118
20
-4.39634
11
5.77457
21
-4.39701
0
LINE
8
BLACK
6
CONTINUOUS
10
5.83559
20
-4.39701
11
5.83847
21
-4.39893
0
LINE
8
BLACK
6
CONTINUOUS
10
5.83847
20
-4.39893
11
5.84039
21
-4.40181
0
LINE
8
BLACK
6
CONTINUOUS
10
5.84039
20
-4.40181
11
5.84106
21
-4.4052
0
LINE
8
BLACK
6
CONTINUOUS
10
5.84106
20
-4.4052
11
5.84106
21
-4.42488
0
LINE
8
BLACK
6
CONTINUOUS
10
5.84106
20
-4.42488
11
5.84039
21
-4.42827
0
LINE
8
BLACK
6
CONTINUOUS
10
5.84039
20
-4.42827
11
5.83847
21
-4.43115
0
LINE
8
BLACK
6
CONTINUOUS
10
5.83847
20
-4.43115
11
5.83559
21
-4.43307
0
LINE
8
BLACK
6
CONTINUOUS
10
5.83559
20
-4.43307
11
5.8322
21
-4.43374
0
LINE
8
BLACK
6
CONTINUOUS
10
5.8322
20
-4.43374
11
5.81449
21
-4.43374
0
LINE
8
BLACK
6
CONTINUOUS
10
5.81449
20
-4.43374
11
5.8111
21
-4.43307
0
LINE
8
BLACK
6
CONTINUOUS
10
5.8111
20
-4.43307
11
5.80822
21
-4.43115
0
LINE
8
BLACK
6
CONTINUOUS
10
5.80822
20
-4.43115
11
5.8063
21
-4.42827
0
LINE
8
BLACK
6
CONTINUOUS
10
5.8063
20
-4.42827
11
5.80563
21
-4.42488
0
LINE
8
BLACK
6
CONTINUOUS
10
5.80563
20
-4.42488
11
5.80563
21
-4.4052
0
LINE
8
BLACK
6
CONTINUOUS
10
5.80563
20
-4.4052
11
5.8063
21
-4.40181
0
LINE
8
BLACK
6
CONTINUOUS
10
5.8063
20
-4.40181
11
5.80822
21
-4.39893
0
LINE
8
BLACK
6
CONTINUOUS
10
5.80822
20
-4.39893
11
5.8111
21
-4.39701
0
LINE
8
BLACK
6
CONTINUOUS
10
5.8111
20
-4.39701
11
5.81449
21
-4.39634
0
LINE
8
BLACK
6
CONTINUOUS
10
5.81449
20
-4.39634
11
5.8322
21
-4.39634
0
LINE
8
BLACK
6
CONTINUOUS
10
5.8322
20
-4.39634
11
5.83559
21
-4.39701
0
LINE
8
BLACK
6
CONTINUOUS
10
6.35033
20
-4.35643
11
6.35225
21
-4.35771
0
LINE
8
BLACK
6
CONTINUOUS
10
6.35225
20
-4.35771
11
6.35353
21
-4.35963
0
LINE
8
BLACK
6
CONTINUOUS
10
6.35353
20
-4.35963
11
6.35398
21
-4.36189
0
LINE
8
BLACK
6
CONTINUOUS
10
6.35398
20
-4.36189
11
6.35398
21
-4.3737
0
LINE
8
BLACK
6
CONTINUOUS
10
6.35398
20
-4.3737
11
6.35353
21
-4.37596
0
LINE
8
BLACK
6
CONTINUOUS
10
6.35353
20
-4.37596
11
6.35225
21
-4.37788
0
LINE
8
BLACK
6
CONTINUOUS
10
6.35225
20
-4.37788
11
6.35033
21
-4.37916
0
LINE
8
BLACK
6
CONTINUOUS
10
6.35033
20
-4.37916
11
6.34807
21
-4.37961
0
LINE
8
BLACK
6
CONTINUOUS
10
6.34807
20
-4.37961
11
6.29295
21
-4.37961
0
LINE
8
BLACK
6
CONTINUOUS
10
6.29295
20
-4.37961
11
6.29069
21
-4.37916
0
LINE
8
BLACK
6
CONTINUOUS
10
6.29069
20
-4.37916
11
6.28878
21
-4.37788
0
LINE
8
BLACK
6
CONTINUOUS
10
6.28878
20
-4.37788
11
6.2875
21
-4.37596
0
LINE
8
BLACK
6
CONTINUOUS
10
6.2875
20
-4.37596
11
6.28705
21
-4.3737
0
LINE
8
BLACK
6
CONTINUOUS
10
6.28705
20
-4.3737
11
6.28705
21
-4.36189
0
LINE
8
BLACK
6
CONTINUOUS
10
6.28705
20
-4.36189
11
6.2875
21
-4.35963
0
LINE
8
BLACK
6
CONTINUOUS
10
6.2875
20
-4.35963
11
6.28878
21
-4.35771
0
LINE
8
BLACK
6
CONTINUOUS
10
6.28878
20
-4.35771
11
6.29069
21
-4.35643
0
LINE
8
BLACK
6
CONTINUOUS
10
6.29069
20
-4.35643
11
6.29295
21
-4.35598
0
LINE
8
BLACK
6
CONTINUOUS
10
6.29295
20
-4.35598
11
6.34807
21
-4.35598
0
LINE
8
BLACK
6
CONTINUOUS
10
6.34807
20
-4.35598
11
6.35033
21
-4.35643
0
LINE
8
BLACK
6
CONTINUOUS
10
5.78665
20
-4.32713
11
5.78945
21
-4.329
0
LINE
8
BLACK
6
CONTINUOUS
10
5.78945
20
-4.329
11
5.79131
21
-4.33179
0
LINE
8
BLACK
6
CONTINUOUS
10
5.79131
20
-4.33179
11
5.79197
21
-4.33509
0
LINE
8
BLACK
6
CONTINUOUS
10
5.79197
20
-4.33509
11
5.79197
21
-4.35231
0
LINE
8
BLACK
6
CONTINUOUS
10
5.79197
20
-4.35231
11
5.79131
21
-4.35561
0
LINE
8
BLACK
6
CONTINUOUS
10
5.79131
20
-4.35561
11
5.78945
21
-4.3584
0
LINE
8
BLACK
6
CONTINUOUS
10
5.78945
20
-4.3584
11
5.78665
21
-4.36027
0
LINE
8
BLACK
6
CONTINUOUS
10
5.78665
20
-4.36027
11
5.78336
21
-4.36093
0
LINE
8
BLACK
6
CONTINUOUS
10
5.78336
20
-4.36093
11
5.75334
21
-4.36093
0
LINE
8
BLACK
6
CONTINUOUS
10
5.75334
20
-4.36093
11
5.75004
21
-4.36027
0
LINE
8
BLACK
6
CONTINUOUS
10
5.75004
20
-4.36027
11
5.74725
21
-4.3584
0
LINE
8
BLACK
6
CONTINUOUS
10
5.74725
20
-4.3584
11
5.74538
21
-4.35561
0
LINE
8
BLACK
6
CONTINUOUS
10
5.74538
20
-4.35561
11
5.74472
21
-4.35231
0
LINE
8
BLACK
6
CONTINUOUS
10
5.74472
20
-4.35231
11
5.74472
21
-4.33509
0
LINE
8
BLACK
6
CONTINUOUS
10
5.74472
20
-4.33509
11
5.74538
21
-4.33179
0
LINE
8
BLACK
6
CONTINUOUS
10
5.74538
20
-4.33179
11
5.74725
21
-4.329
0
LINE
8
BLACK
6
CONTINUOUS
10
5.74725
20
-4.329
11
5.75004
21
-4.32713
0
LINE
8
BLACK
6
CONTINUOUS
10
5.75004
20
-4.32713
11
5.75334
21
-4.32648
0
LINE
8
BLACK
6
CONTINUOUS
10
5.75334
20
-4.32648
11
5.78336
21
-4.32648
0
LINE
8
BLACK
6
CONTINUOUS
10
5.78336
20
-4.32648
11
5.78665
21
-4.32713
0
LINE
8
BLACK
6
CONTINUOUS
10
6.35033
20
-4.30722
11
6.35225
21
-4.3085
0
LINE
8
BLACK
6
CONTINUOUS
10
6.35225
20
-4.3085
11
6.35353
21
-4.31042
0
LINE
8
BLACK
6
CONTINUOUS
10
6.35353
20
-4.31042
11
6.35398
21
-4.31268
0
LINE
8
BLACK
6
CONTINUOUS
10
6.35398
20
-4.31268
11
6.35398
21
-4.32449
0
LINE
8
BLACK
6
CONTINUOUS
10
6.35398
20
-4.32449
11
6.35353
21
-4.32675
0
LINE
8
BLACK
6
CONTINUOUS
10
6.35353
20
-4.32675
11
6.35225
21
-4.32866
0
LINE
8
BLACK
6
CONTINUOUS
10
6.35225
20
-4.32866
11
6.35033
21
-4.32994
0
LINE
8
BLACK
6
CONTINUOUS
10
6.35033
20
-4.32994
11
6.34807
21
-4.33039
0
LINE
8
BLACK
6
CONTINUOUS
10
6.34807
20
-4.33039
11
6.29295
21
-4.33039
0
LINE
8
BLACK
6
CONTINUOUS
10
6.29295
20
-4.33039
11
6.29069
21
-4.32994
0
LINE
8
BLACK
6
CONTINUOUS
10
6.29069
20
-4.32994
11
6.28878
21
-4.32866
0
LINE
8
BLACK
6
CONTINUOUS
10
6.28878
20
-4.32866
11
6.2875
21
-4.32675
0
LINE
8
BLACK
6
CONTINUOUS
10
6.2875
20
-4.32675
11
6.28705
21
-4.32449
0
LINE
8
BLACK
6
CONTINUOUS
10
6.28705
20
-4.32449
11
6.28705
21
-4.31268
0
LINE
8
BLACK
6
CONTINUOUS
10
6.28705
20
-4.31268
11
6.2875
21
-4.31042
0
LINE
8
BLACK
6
CONTINUOUS
10
6.2875
20
-4.31042
11
6.28878
21
-4.3085
0
LINE
8
BLACK
6
CONTINUOUS
10
6.28878
20
-4.3085
11
6.29069
21
-4.30722
0
LINE
8
BLACK
6
CONTINUOUS
10
6.29069
20
-4.30722
11
6.29295
21
-4.30677
0
LINE
8
BLACK
6
CONTINUOUS
10
6.29295
20
-4.30677
11
6.34807
21
-4.30677
0
LINE
8
BLACK
6
CONTINUOUS
10
6.34807
20
-4.30677
11
6.35033
21
-4.30722
0
LINE
8
BLACK
6
CONTINUOUS
10
6.09878
20
-4.32551
11
6.02791
21
-4.32551
0
LINE
8
BLACK
6
CONTINUOUS
10
6.02791
20
-4.32551
11
6.02791
21
-4.22709
0
LINE
8
BLACK
6
CONTINUOUS
10
6.02791
20
-4.22709
11
6.09878
21
-4.22709
0
LINE
8
BLACK
6
CONTINUOUS
10
6.09878
20
-4.22709
11
6.09878
21
-4.32551
0
LINE
8
BLACK
6
CONTINUOUS
10
5.68528
20
-4.29744
11
5.55142
21
-4.29744
0
LINE
8
BLACK
6
CONTINUOUS
10
5.55142
20
-4.29744
11
5.55142
21
-4.22264
0
LINE
8
BLACK
6
CONTINUOUS
10
5.55142
20
-4.22264
11
5.68528
21
-4.22264
0
LINE
8
BLACK
6
CONTINUOUS
10
5.68528
20
-4.22264
11
5.68528
21
-4.29744
0
LINE
8
BLACK
6
CONTINUOUS
10
6.35033
20
-4.25801
11
6.35225
21
-4.25929
0
LINE
8
BLACK
6
CONTINUOUS
10
6.35225
20
-4.25929
11
6.35353
21
-4.2612
0
LINE
8
BLACK
6
CONTINUOUS
10
6.35353
20
-4.2612
11
6.35398
21
-4.26346
0
LINE
8
BLACK
6
CONTINUOUS
10
6.35398
20
-4.26346
11
6.35398
21
-4.27528
0
LINE
8
BLACK
6
CONTINUOUS
10
6.35398
20
-4.27528
11
6.35353
21
-4.27754
0
LINE
8
BLACK
6
CONTINUOUS
10
6.35353
20
-4.27754
11
6.35225
21
-4.27945
0
LINE
8
BLACK
6
CONTINUOUS
10
6.35225
20
-4.27945
11
6.35033
21
-4.28073
0
LINE
8
BLACK
6
CONTINUOUS
10
6.35033
20
-4.28073
11
6.34807
21
-4.28118
0
LINE
8
BLACK
6
CONTINUOUS
10
6.34807
20
-4.28118
11
6.29295
21
-4.28118
0
LINE
8
BLACK
6
CONTINUOUS
10
6.29295
20
-4.28118
11
6.29069
21
-4.28073
0
LINE
8
BLACK
6
CONTINUOUS
10
6.29069
20
-4.28073
11
6.28878
21
-4.27945
0
LINE
8
BLACK
6
CONTINUOUS
10
6.28878
20
-4.27945
11
6.2875
21
-4.27754
0
LINE
8
BLACK
6
CONTINUOUS
10
6.2875
20
-4.27754
11
6.28705
21
-4.27528
0
LINE
8
BLACK
6
CONTINUOUS
10
6.28705
20
-4.27528
11
6.28705
21
-4.26346
0
LINE
8
BLACK
6
CONTINUOUS
10
6.28705
20
-4.26346
11
6.2875
21
-4.2612
0
LINE
8
BLACK
6
CONTINUOUS
10
6.2875
20
-4.2612
11
6.28878
21
-4.25929
0
LINE
8
BLACK
6
CONTINUOUS
10
6.28878
20
-4.25929
11
6.29069
21
-4.25801
0
LINE
8
BLACK
6
CONTINUOUS
10
6.29069
20
-4.25801
11
6.29295
21
-4.25756
0
LINE
8
BLACK
6
CONTINUOUS
10
6.29295
20
-4.25756
11
6.34807
21
-4.25756
0
LINE
8
BLACK
6
CONTINUOUS
10
6.34807
20
-4.25756
11
6.35033
21
-4.25801
0
LINE
8
BLACK
6
CONTINUOUS
10
5.86559
20
-4.24201
11
5.86847
21
-4.24393
0
LINE
8
BLACK
6
CONTINUOUS
10
5.86847
20
-4.24393
11
5.87039
21
-4.24681
0
LINE
8
BLACK
6
CONTINUOUS
10
5.87039
20
-4.24681
11
5.87106
21
-4.2502
0
LINE
8
BLACK
6
CONTINUOUS
10
5.87106
20
-4.2502
11
5.87106
21
-4.26988
0
LINE
8
BLACK
6
CONTINUOUS
10
5.87106
20
-4.26988
11
5.87039
21
-4.27327
0
LINE
8
BLACK
6
CONTINUOUS
10
5.87039
20
-4.27327
11
5.86847
21
-4.27615
0
LINE
8
BLACK
6
CONTINUOUS
10
5.86847
20
-4.27615
11
5.86559
21
-4.27807
0
LINE
8
BLACK
6
CONTINUOUS
10
5.86559
20
-4.27807
11
5.8622
21
-4.27874
0
LINE
8
BLACK
6
CONTINUOUS
10
5.8622
20
-4.27874
11
5.84449
21
-4.27874
0
LINE
8
BLACK
6
CONTINUOUS
10
5.84449
20
-4.27874
11
5.8411
21
-4.27807
0
LINE
8
BLACK
6
CONTINUOUS
10
5.8411
20
-4.27807
11
5.83822
21
-4.27615
0
LINE
8
BLACK
6
CONTINUOUS
10
5.83822
20
-4.27615
11
5.8363
21
-4.27327
0
LINE
8
BLACK
6
CONTINUOUS
10
5.8363
20
-4.27327
11
5.83563
21
-4.26988
0
LINE
8
BLACK
6
CONTINUOUS
10
5.83563
20
-4.26988
11
5.83563
21
-4.2502
0
LINE
8
BLACK
6
CONTINUOUS
10
5.83563
20
-4.2502
11
5.8363
21
-4.24681
0
LINE
8
BLACK
6
CONTINUOUS
10
5.8363
20
-4.24681
11
5.83822
21
-4.24393
0
LINE
8
BLACK
6
CONTINUOUS
10
5.83822
20
-4.24393
11
5.8411
21
-4.24201
0
LINE
8
BLACK
6
CONTINUOUS
10
5.8411
20
-4.24201
11
5.84449
21
-4.24134
0
LINE
8
BLACK
6
CONTINUOUS
10
5.84449
20
-4.24134
11
5.8622
21
-4.24134
0
LINE
8
BLACK
6
CONTINUOUS
10
5.8622
20
-4.24134
11
5.86559
21
-4.24201
0
LINE
8
BLACK
6
CONTINUOUS
10
5.92662
20
-4.24201
11
5.92949
21
-4.24393
0
LINE
8
BLACK
6
CONTINUOUS
10
5.92949
20
-4.24393
11
5.93141
21
-4.24681
0
LINE
8
BLACK
6
CONTINUOUS
10
5.93141
20
-4.24681
11
5.93209
21
-4.2502
0
LINE
8
BLACK
6
CONTINUOUS
10
5.93209
20
-4.2502
11
5.93209
21
-4.26988
0
LINE
8
BLACK
6
CONTINUOUS
10
5.93209
20
-4.26988
11
5.93141
21
-4.27327
0
LINE
8
BLACK
6
CONTINUOUS
10
5.93141
20
-4.27327
11
5.92949
21
-4.27615
0
LINE
8
BLACK
6
CONTINUOUS
10
5.92949
20
-4.27615
11
5.92662
21
-4.27807
0
LINE
8
BLACK
6
CONTINUOUS
10
5.92662
20
-4.27807
11
5.92323
21
-4.27874
0
LINE
8
BLACK
6
CONTINUOUS
10
5.92323
20
-4.27874
11
5.90551
21
-4.27874
0
LINE
8
BLACK
6
CONTINUOUS
10
5.90551
20
-4.27874
11
5.90212
21
-4.27807
0
LINE
8
BLACK
6
CONTINUOUS
10
5.90212
20
-4.27807
11
5.89925
21
-4.27615
0
LINE
8
BLACK
6
CONTINUOUS
10
5.89925
20
-4.27615
11
5.89733
21
-4.27327
0
LINE
8
BLACK
6
CONTINUOUS
10
5.89733
20
-4.27327
11
5.89665
21
-4.26988
0
LINE
8
BLACK
6
CONTINUOUS
10
5.89665
20
-4.26988
11
5.89665
21
-4.2502
0
LINE
8
BLACK
6
CONTINUOUS
10
5.89665
20
-4.2502
11
5.89733
21
-4.24681
0
LINE
8
BLACK
6
CONTINUOUS
10
5.89733
20
-4.24681
11
5.89925
21
-4.24393
0
LINE
8
BLACK
6
CONTINUOUS
10
5.89925
20
-4.24393
11
5.90212
21
-4.24201
0
LINE
8
BLACK
6
CONTINUOUS
10
5.90212
20
-4.24201
11
5.90551
21
-4.24134
0
LINE
8
BLACK
6
CONTINUOUS
10
5.90551
20
-4.24134
11
5.92323
21
-4.24134
0
LINE
8
BLACK
6
CONTINUOUS
10
5.92323
20
-4.24134
11
5.92662
21
-4.24201
0
LINE
8
BLACK
6
CONTINUOUS
10
5.78665
20
-4.24347
11
5.78945
21
-4.24534
0
LINE
8
BLACK
6
CONTINUOUS
10
5.78945
20
-4.24534
11
5.79131
21
-4.24813
0
LINE
8
BLACK
6
CONTINUOUS
10
5.79131
20
-4.24813
11
5.79197
21
-4.25143
0
LINE
8
BLACK
6
CONTINUOUS
10
5.79197
20
-4.25143
11
5.79197
21
-4.26865
0
LINE
8
BLACK
6
CONTINUOUS
10
5.79197
20
-4.26865
11
5.79131
21
-4.27195
0
LINE
8
BLACK
6
CONTINUOUS
10
5.79131
20
-4.27195
11
5.78945
21
-4.27474
0
LINE
8
BLACK
6
CONTINUOUS
10
5.78945
20
-4.27474
11
5.78665
21
-4.27661
0
LINE
8
BLACK
6
CONTINUOUS
10
5.78665
20
-4.27661
11
5.78336
21
-4.27726
0
LINE
8
BLACK
6
CONTINUOUS
10
5.78336
20
-4.27726
11
5.75334
21
-4.27726
0
LINE
8
BLACK
6
CONTINUOUS
10
5.75334
20
-4.27726
11
5.75004
21
-4.27661
0
LINE
8
BLACK
6
CONTINUOUS
10
5.75004
20
-4.27661
11
5.74725
21
-4.27474
0
LINE
8
BLACK
6
CONTINUOUS
10
5.74725
20
-4.27474
11
5.74538
21
-4.27195
0
LINE
8
BLACK
6
CONTINUOUS
10
5.74538
20
-4.27195
11
5.74472
21
-4.26865
0
LINE
8
BLACK
6
CONTINUOUS
10
5.74472
20
-4.26865
11
5.74472
21
-4.25143
0
LINE
8
BLACK
6
CONTINUOUS
10
5.74472
20
-4.25143
11
5.74538
21
-4.24813
0
LINE
8
BLACK
6
CONTINUOUS
10
5.74538
20
-4.24813
11
5.74725
21
-4.24534
0
LINE
8
BLACK
6
CONTINUOUS
10
5.74725
20
-4.24534
11
5.75004
21
-4.24347
0
LINE
8
BLACK
6
CONTINUOUS
10
5.75004
20
-4.24347
11
5.75334
21
-4.24281
0
LINE
8
BLACK
6
CONTINUOUS
10
5.75334
20
-4.24281
11
5.78336
21
-4.24281
0
LINE
8
BLACK
6
CONTINUOUS
10
5.78336
20
-4.24281
11
5.78665
21
-4.24347
0
LINE
8
BLACK
6
CONTINUOUS
10
6.35033
20
-4.2088
11
6.35225
21
-4.21008
0
LINE
8
BLACK
6
CONTINUOUS
10
6.35225
20
-4.21008
11
6.35353
21
-4.21199
0
LINE
8
BLACK
6
CONTINUOUS
10
6.35353
20
-4.21199
11
6.35398
21
-4.21425
0
LINE
8
BLACK
6
CONTINUOUS
10
6.35398
20
-4.21425
11
6.35398
21
-4.22606
0
LINE
8
BLACK
6
CONTINUOUS
10
6.35398
20
-4.22606
11
6.35353
21
-4.22832
0
LINE
8
BLACK
6
CONTINUOUS
10
6.35353
20
-4.22832
11
6.35225
21
-4.23024
0
LINE
8
BLACK
6
CONTINUOUS
10
6.35225
20
-4.23024
11
6.35033
21
-4.23152
0
LINE
8
BLACK
6
CONTINUOUS
10
6.35033
20
-4.23152
11
6.34807
21
-4.23197
0
LINE
8
BLACK
6
CONTINUOUS
10
6.34807
20
-4.23197
11
6.29295
21
-4.23197
0
LINE
8
BLACK
6
CONTINUOUS
10
6.29295
20
-4.23197
11
6.29069
21
-4.23152
0
LINE
8
BLACK
6
CONTINUOUS
10
6.29069
20
-4.23152
11
6.28878
21
-4.23024
0
LINE
8
BLACK
6
CONTINUOUS
10
6.28878
20
-4.23024
11
6.2875
21
-4.22832
0
LINE
8
BLACK
6
CONTINUOUS
10
6.2875
20
-4.22832
11
6.28705
21
-4.22606
0
LINE
8
BLACK
6
CONTINUOUS
10
6.28705
20
-4.22606
11
6.28705
21
-4.21425
0
LINE
8
BLACK
6
CONTINUOUS
10
6.28705
20
-4.21425
11
6.2875
21
-4.21199
0
LINE
8
BLACK
6
CONTINUOUS
10
6.2875
20
-4.21199
11
6.28878
21
-4.21008
0
LINE
8
BLACK
6
CONTINUOUS
10
6.28878
20
-4.21008
11
6.29069
21
-4.2088
0
LINE
8
BLACK
6
CONTINUOUS
10
6.29069
20
-4.2088
11
6.29295
21
-4.20835
0
LINE
8
BLACK
6
CONTINUOUS
10
6.29295
20
-4.20835
11
6.34807
21
-4.20835
0
LINE
8
BLACK
6
CONTINUOUS
10
6.34807
20
-4.20835
11
6.35033
21
-4.2088
0
LINE
8
BLACK
6
CONTINUOUS
10
6.35033
20
-4.15958
11
6.35225
21
-4.16086
0
LINE
8
BLACK
6
CONTINUOUS
10
6.35225
20
-4.16086
11
6.35353
21
-4.16278
0
LINE
8
BLACK
6
CONTINUOUS
10
6.35353
20
-4.16278
11
6.35398
21
-4.16504
0
LINE
8
BLACK
6
CONTINUOUS
10
6.35398
20
-4.16504
11
6.35398
21
-4.17685
0
LINE
8
BLACK
6
CONTINUOUS
10
6.35398
20
-4.17685
11
6.35353
21
-4.17911
0
LINE
8
BLACK
6
CONTINUOUS
10
6.35353
20
-4.17911
11
6.35225
21
-4.18103
0
LINE
8
BLACK
6
CONTINUOUS
10
6.35225
20
-4.18103
11
6.35033
21
-4.18231
0
LINE
8
BLACK
6
CONTINUOUS
10
6.35033
20
-4.18231
11
6.34807
21
-4.18276
0
LINE
8
BLACK
6
CONTINUOUS
10
6.34807
20
-4.18276
11
6.29295
21
-4.18276
0
LINE
8
BLACK
6
CONTINUOUS
10
6.29295
20
-4.18276
11
6.29069
21
-4.18231
0
LINE
8
BLACK
6
CONTINUOUS
10
6.29069
20
-4.18231
11
6.28878
21
-4.18103
0
LINE
8
BLACK
6
CONTINUOUS
10
6.28878
20
-4.18103
11
6.2875
21
-4.17911
0
LINE
8
BLACK
6
CONTINUOUS
10
6.2875
20
-4.17911
11
6.28705
21
-4.17685
0
LINE
8
BLACK
6
CONTINUOUS
10
6.28705
20
-4.17685
11
6.28705
21
-4.16504
0
LINE
8
BLACK
6
CONTINUOUS
10
6.28705
20
-4.16504
11
6.2875
21
-4.16278
0
LINE
8
BLACK
6
CONTINUOUS
10
6.2875
20
-4.16278
11
6.28878
21
-4.16086
0
LINE
8
BLACK
6
CONTINUOUS
10
6.28878
20
-4.16086
11
6.29069
21
-4.15958
0
LINE
8
BLACK
6
CONTINUOUS
10
6.29069
20
-4.15958
11
6.29295
21
-4.15913
0
LINE
8
BLACK
6
CONTINUOUS
10
6.29295
20
-4.15913
11
6.34807
21
-4.15913
0
LINE
8
BLACK
6
CONTINUOUS
10
6.34807
20
-4.15913
11
6.35033
21
-4.15958
0
LINE
8
BLACK
6
CONTINUOUS
10
5.84925
20
-4.14199
11
5.85204
21
-4.14386
0
LINE
8
BLACK
6
CONTINUOUS
10
5.85204
20
-4.14386
11
5.85391
21
-4.14666
0
LINE
8
BLACK
6
CONTINUOUS
10
5.85391
20
-4.14666
11
5.85457
21
-4.14995
0
LINE
8
BLACK
6
CONTINUOUS
10
5.85457
20
-4.14995
11
5.85457
21
-4.17013
0
LINE
8
BLACK
6
CONTINUOUS
10
5.85457
20
-4.17013
11
5.85391
21
-4.17342
0
LINE
8
BLACK
6
CONTINUOUS
10
5.85391
20
-4.17342
11
5.85204
21
-4.17622
0
LINE
8
BLACK
6
CONTINUOUS
10
5.85204
20
-4.17622
11
5.84925
21
-4.17808
0
LINE
8
BLACK
6
CONTINUOUS
10
5.84925
20
-4.17808
11
5.84595
21
-4.17874
0
LINE
8
BLACK
6
CONTINUOUS
10
5.84595
20
-4.17874
11
5.82873
21
-4.17874
0
LINE
8
BLACK
6
CONTINUOUS
10
5.82873
20
-4.17874
11
5.82543
21
-4.17808
0
LINE
8
BLACK
6
CONTINUOUS
10
5.82543
20
-4.17808
11
5.82264
21
-4.17622
0
LINE
8
BLACK
6
CONTINUOUS
10
5.82264
20
-4.17622
11
5.82077
21
-4.17342
0
LINE
8
BLACK
6
CONTINUOUS
10
5.82077
20
-4.17342
11
5.82012
21
-4.17013
0
LINE
8
BLACK
6
CONTINUOUS
10
5.82012
20
-4.17013
11
5.82012
21
-4.14995
0
LINE
8
BLACK
6
CONTINUOUS
10
5.82012
20
-4.14995
11
5.82077
21
-4.14666
0
LINE
8
BLACK
6
CONTINUOUS
10
5.82077
20
-4.14666
11
5.82264
21
-4.14386
0
LINE
8
BLACK
6
CONTINUOUS
10
5.82264
20
-4.14386
11
5.82543
21
-4.14199
0
LINE
8
BLACK
6
CONTINUOUS
10
5.82543
20
-4.14199
11
5.82873
21
-4.14134
0
LINE
8
BLACK
6
CONTINUOUS
10
5.82873
20
-4.14134
11
5.84595
21
-4.14134
0
LINE
8
BLACK
6
CONTINUOUS
10
5.84595
20
-4.14134
11
5.84925
21
-4.14199
0
LINE
8
BLACK
6
CONTINUOUS
10
5.91126
20
-4.14199
11
5.91405
21
-4.14386
0
LINE
8
BLACK
6
CONTINUOUS
10
5.91405
20
-4.14386
11
5.91592
21
-4.14666
0
LINE
8
BLACK
6
CONTINUOUS
10
5.91592
20
-4.14666
11
5.91657
21
-4.14995
0
LINE
8
BLACK
6
CONTINUOUS
10
5.91657
20
-4.14995
11
5.91657
21
-4.17013
0
LINE
8
BLACK
6
CONTINUOUS
10
5.91657
20
-4.17013
11
5.91592
21
-4.17342
0
LINE
8
BLACK
6
CONTINUOUS
10
5.91592
20
-4.17342
11
5.91405
21
-4.17622
0
LINE
8
BLACK
6
CONTINUOUS
10
5.91405
20
-4.17622
11
5.91126
21
-4.17808
0
LINE
8
BLACK
6
CONTINUOUS
10
5.91126
20
-4.17808
11
5.90796
21
-4.17874
0
LINE
8
BLACK
6
CONTINUOUS
10
5.90796
20
-4.17874
11
5.89074
21
-4.17874
0
LINE
8
BLACK
6
CONTINUOUS
10
5.89074
20
-4.17874
11
5.88744
21
-4.17808
0
LINE
8
BLACK
6
CONTINUOUS
10
5.88744
20
-4.17808
11
5.88465
21
-4.17622
0
LINE
8
BLACK
6
CONTINUOUS
10
5.88465
20
-4.17622
11
5.88278
21
-4.17342
0
LINE
8
BLACK
6
CONTINUOUS
10
5.88278
20
-4.17342
11
5.88213
21
-4.17013
0
LINE
8
BLACK
6
CONTINUOUS
10
5.88213
20
-4.17013
11
5.88213
21
-4.14995
0
LINE
8
BLACK
6
CONTINUOUS
10
5.88213
20
-4.14995
11
5.88278
21
-4.14666
0
LINE
8
BLACK
6
CONTINUOUS
10
5.88278
20
-4.14666
11
5.88465
21
-4.14386
0
LINE
8
BLACK
6
CONTINUOUS
10
5.88465
20
-4.14386
11
5.88744
21
-4.14199
0
LINE
8
BLACK
6
CONTINUOUS
10
5.88744
20
-4.14199
11
5.89074
21
-4.14134
0
LINE
8
BLACK
6
CONTINUOUS
10
5.89074
20
-4.14134
11
5.90796
21
-4.14134
0
LINE
8
BLACK
6
CONTINUOUS
10
5.90796
20
-4.14134
11
5.91126
21
-4.14199
0
LINE
8
BLACK
6
CONTINUOUS
10
6.18646
20
-4.13453
11
6.18933
21
-4.13645
0
LINE
8
BLACK
6
CONTINUOUS
10
6.18933
20
-4.13645
11
6.19125
21
-4.13933
0
LINE
8
BLACK
6
CONTINUOUS
10
6.19125
20
-4.13933
11
6.19193
21
-4.14272
0
LINE
8
BLACK
6
CONTINUOUS
10
6.19193
20
-4.14272
11
6.19193
21
-4.16043
0
LINE
8
BLACK
6
CONTINUOUS
10
6.19193
20
-4.16043
11
6.19125
21
-4.16382
0
LINE
8
BLACK
6
CONTINUOUS
10
6.19125
20
-4.16382
11
6.18933
21
-4.1667
0
LINE
8
BLACK
6
CONTINUOUS
10
6.18933
20
-4.1667
11
6.18646
21
-4.16862
0
LINE
8
BLACK
6
CONTINUOUS
10
6.18646
20
-4.16862
11
6.18307
21
-4.16929
0
LINE
8
BLACK
6
CONTINUOUS
10
6.18307
20
-4.16929
11
6.16339
21
-4.16929
0
LINE
8
BLACK
6
CONTINUOUS
10
6.16339
20
-4.16929
11
6.16
21
-4.16862
0
LINE
8
BLACK
6
CONTINUOUS
10
6.16
20
-4.16862
11
6.15712
21
-4.1667
0
LINE
8
BLACK
6
CONTINUOUS
10
6.15712
20
-4.1667
11
6.1552
21
-4.16382
0
LINE
8
BLACK
6
CONTINUOUS
10
6.1552
20
-4.16382
11
6.15453
21
-4.16043
0
LINE
8
BLACK
6
CONTINUOUS
10
6.15453
20
-4.16043
11
6.15453
21
-4.14272
0
LINE
8
BLACK
6
CONTINUOUS
10
6.15453
20
-4.14272
11
6.1552
21
-4.13933
0
LINE
8
BLACK
6
CONTINUOUS
10
6.1552
20
-4.13933
11
6.15712
21
-4.13645
0
LINE
8
BLACK
6
CONTINUOUS
10
6.15712
20
-4.13645
11
6.16
21
-4.13453
0
LINE
8
BLACK
6
CONTINUOUS
10
6.16
20
-4.13453
11
6.16339
21
-4.13386
0
LINE
8
BLACK
6
CONTINUOUS
10
6.16339
20
-4.13386
11
6.18307
21
-4.13386
0
LINE
8
BLACK
6
CONTINUOUS
10
6.18307
20
-4.13386
11
6.18646
21
-4.13453
0
LINE
8
BLACK
6
CONTINUOUS
10
6.35033
20
-4.11037
11
6.35225
21
-4.11165
0
LINE
8
BLACK
6
CONTINUOUS
10
6.35225
20
-4.11165
11
6.35353
21
-4.11357
0
LINE
8
BLACK
6
CONTINUOUS
10
6.35353
20
-4.11357
11
6.35398
21
-4.11583
0
LINE
8
BLACK
6
CONTINUOUS
10
6.35398
20
-4.11583
11
6.35398
21
-4.12764
0
LINE
8
BLACK
6
CONTINUOUS
10
6.35398
20
-4.12764
11
6.35353
21
-4.1299
0
LINE
8
BLACK
6
CONTINUOUS
10
6.35353
20
-4.1299
11
6.35225
21
-4.13181
0
LINE
8
BLACK
6
CONTINUOUS
10
6.35225
20
-4.13181
11
6.35033
21
-4.13309
0
LINE
8
BLACK
6
CONTINUOUS
10
6.35033
20
-4.13309
11
6.34807
21
-4.13354
0
LINE
8
BLACK
6
CONTINUOUS
10
6.34807
20
-4.13354
11
6.29295
21
-4.13354
0
LINE
8
BLACK
6
CONTINUOUS
10
6.29295
20
-4.13354
11
6.29069
21
-4.13309
0
LINE
8
BLACK
6
CONTINUOUS
10
6.29069
20
-4.13309
11
6.28878
21
-4.13181
0
LINE
8
BLACK
6
CONTINUOUS
10
6.28878
20
-4.13181
11
6.2875
21
-4.1299
0
LINE
8
BLACK
6
CONTINUOUS
10
6.2875
20
-4.1299
11
6.28705
21
-4.12764
0
LINE
8
BLACK
6
CONTINUOUS
10
6.28705
20
-4.12764
11
6.28705
21
-4.11583
0
LINE
8
BLACK
6
CONTINUOUS
10
6.28705
20
-4.11583
11
6.2875
21
-4.11357
0
LINE
8
BLACK
6
CONTINUOUS
10
6.2875
20
-4.11357
11
6.28878
21
-4.11165
0
LINE
8
BLACK
6
CONTINUOUS
10
6.28878
20
-4.11165
11
6.29069
21
-4.11037
0
LINE
8
BLACK
6
CONTINUOUS
10
6.29069
20
-4.11037
11
6.29295
21
-4.10992
0
LINE
8
BLACK
6
CONTINUOUS
10
6.29295
20
-4.10992
11
6.34807
21
-4.10992
0
LINE
8
BLACK
6
CONTINUOUS
10
6.34807
20
-4.10992
11
6.35033
21
-4.11037
0
LINE
8
BLACK
6
CONTINUOUS
10
6.18646
20
-4.07351
11
6.18933
21
-4.07543
0
LINE
8
BLACK
6
CONTINUOUS
10
6.18933
20
-4.07543
11
6.19125
21
-4.0783
0
LINE
8
BLACK
6
CONTINUOUS
10
6.19125
20
-4.0783
11
6.19193
21
-4.08169
0
LINE
8
BLACK
6
CONTINUOUS
10
6.19193
20
-4.08169
11
6.19193
21
-4.09941
0
LINE
8
BLACK
6
CONTINUOUS
10
6.19193
20
-4.09941
11
6.19125
21
-4.1028
0
LINE
8
BLACK
6
CONTINUOUS
10
6.19125
20
-4.1028
11
6.18933
21
-4.10567
0
LINE
8
BLACK
6
CONTINUOUS
10
6.18933
20
-4.10567
11
6.18646
21
-4.10759
0
LINE
8
BLACK
6
CONTINUOUS
10
6.18646
20
-4.10759
11
6.18307
21
-4.10827
0
LINE
8
BLACK
6
CONTINUOUS
10
6.18307
20
-4.10827
11
6.16339
21
-4.10827
0
LINE
8
BLACK
6
CONTINUOUS
10
6.16339
20
-4.10827
11
6.16
21
-4.10759
0
LINE
8
BLACK
6
CONTINUOUS
10
6.16
20
-4.10759
11
6.15712
21
-4.10567
0
LINE
8
BLACK
6
CONTINUOUS
10
6.15712
20
-4.10567
11
6.1552
21
-4.1028
0
LINE
8
BLACK
6
CONTINUOUS
10
6.1552
20
-4.1028
11
6.15453
21
-4.09941
0
LINE
8
BLACK
6
CONTINUOUS
10
6.15453
20
-4.09941
11
6.15453
21
-4.08169
0
LINE
8
BLACK
6
CONTINUOUS
10
6.15453
20
-4.08169
11
6.1552
21
-4.0783
0
LINE
8
BLACK
6
CONTINUOUS
10
6.1552
20
-4.0783
11
6.15712
21
-4.07543
0
LINE
8
BLACK
6
CONTINUOUS
10
6.15712
20
-4.07543
11
6.16
21
-4.07351
0
LINE
8
BLACK
6
CONTINUOUS
10
6.16
20
-4.07351
11
6.16339
21
-4.07283
0
LINE
8
BLACK
6
CONTINUOUS
10
6.16339
20
-4.07283
11
6.18307
21
-4.07283
0
LINE
8
BLACK
6
CONTINUOUS
10
6.18307
20
-4.07283
11
6.18646
21
-4.07351
0
LINE
8
BLACK
6
CONTINUOUS
10
5.66619
20
-4.08728
11
5.62091
21
-4.08728
0
LINE
8
BLACK
6
CONTINUOUS
10
5.62091
20
-4.08728
11
5.62091
21
-4.06366
0
LINE
8
BLACK
6
CONTINUOUS
10
5.62091
20
-4.06366
11
5.66619
21
-4.06366
0
LINE
8
BLACK
6
CONTINUOUS
10
5.66619
20
-4.06366
11
5.66619
21
-4.08728
0
LINE
8
BLACK
6
CONTINUOUS
10
6.49357
20
-4.02996
11
6.49676
21
-4.0321
0
LINE
8
BLACK
6
CONTINUOUS
10
6.49676
20
-4.0321
11
6.4989
21
-4.03529
0
LINE
8
BLACK
6
CONTINUOUS
10
6.4989
20
-4.03529
11
6.49965
21
-4.03906
0
LINE
8
BLACK
6
CONTINUOUS
10
6.49965
20
-4.03906
11
6.49965
21
-4.05874
0
LINE
8
BLACK
6
CONTINUOUS
10
6.49965
20
-4.05874
11
6.4989
21
-4.06251
0
LINE
8
BLACK
6
CONTINUOUS
10
6.4989
20
-4.06251
11
6.49676
21
-4.0657
0
LINE
8
BLACK
6
CONTINUOUS
10
6.49676
20
-4.0657
11
6.49357
21
-4.06783
0
LINE
8
BLACK
6
CONTINUOUS
10
6.49357
20
-4.06783
11
6.4898
21
-4.06858
0
LINE
8
BLACK
6
CONTINUOUS
10
6.4898
20
-4.06858
11
6.40319
21
-4.06858
0
LINE
8
BLACK
6
CONTINUOUS
10
6.40319
20
-4.06858
11
6.39942
21
-4.06783
0
LINE
8
BLACK
6
CONTINUOUS
10
6.39942
20
-4.06783
11
6.39623
21
-4.0657
0
LINE
8
BLACK
6
CONTINUOUS
10
6.39623
20
-4.0657
11
6.3941
21
-4.06251
0
LINE
8
BLACK
6
CONTINUOUS
10
6.3941
20
-4.06251
11
6.39335
21
-4.05874
0
LINE
8
BLACK
6
CONTINUOUS
10
6.39335
20
-4.05874
11
6.39335
21
-4.03906
0
LINE
8
BLACK
6
CONTINUOUS
10
6.39335
20
-4.03906
11
6.3941
21
-4.03529
0
LINE
8
BLACK
6
CONTINUOUS
10
6.3941
20
-4.03529
11
6.39623
21
-4.0321
0
LINE
8
BLACK
6
CONTINUOUS
10
6.39623
20
-4.0321
11
6.39942
21
-4.02996
0
LINE
8
BLACK
6
CONTINUOUS
10
6.39942
20
-4.02996
11
6.40319
21
-4.02921
0
LINE
8
BLACK
6
CONTINUOUS
10
6.40319
20
-4.02921
11
6.4898
21
-4.02921
0
LINE
8
BLACK
6
CONTINUOUS
10
6.4898
20
-4.02921
11
6.49357
21
-4.02996
0
LINE
8
BLACK
6
CONTINUOUS
10
5.66619
20
-4.05579
11
5.62091
21
-4.05579
0
LINE
8
BLACK
6
CONTINUOUS
10
5.62091
20
-4.05579
11
5.62091
21
-4.03217
0
LINE
8
BLACK
6
CONTINUOUS
10
5.62091
20
-4.03217
11
5.66619
21
-4.03217
0
LINE
8
BLACK
6
CONTINUOUS
10
5.66619
20
-4.03217
11
5.66619
21
-4.05579
0
LINE
8
BLACK
6
CONTINUOUS
10
6.06238
20
-4.00971
11
6.06318
21
-4.01025
0
LINE
8
BLACK
6
CONTINUOUS
10
6.06318
20
-4.01025
11
6.06371
21
-4.01105
0
LINE
8
BLACK
6
CONTINUOUS
10
6.06371
20
-4.01105
11
6.0639
21
-4.01199
0
LINE
8
BLACK
6
CONTINUOUS
10
6.0639
20
-4.01199
11
6.0639
21
-4.03955
0
LINE
8
BLACK
6
CONTINUOUS
10
6.0639
20
-4.03955
11
6.06371
21
-4.04049
0
LINE
8
BLACK
6
CONTINUOUS
10
6.06371
20
-4.04049
11
6.06318
21
-4.04129
0
LINE
8
BLACK
6
CONTINUOUS
10
6.06318
20
-4.04129
11
6.06238
21
-4.04182
0
LINE
8
BLACK
6
CONTINUOUS
10
6.06238
20
-4.04182
11
6.06144
21
-4.04201
0
LINE
8
BLACK
6
CONTINUOUS
10
6.06144
20
-4.04201
11
6.05652
21
-4.04201
0
LINE
8
BLACK
6
CONTINUOUS
10
6.05652
20
-4.04201
11
6.05557
21
-4.04182
0
LINE
8
BLACK
6
CONTINUOUS
10
6.05557
20
-4.04182
11
6.05478
21
-4.04129
0
LINE
8
BLACK
6
CONTINUOUS
10
6.05478
20
-4.04129
11
6.05424
21
-4.04049
0
LINE
8
BLACK
6
CONTINUOUS
10
6.05424
20
-4.04049
11
6.05406
21
-4.03955
0
LINE
8
BLACK
6
CONTINUOUS
10
6.05406
20
-4.03955
11
6.05406
21
-4.01199
0
LINE
8
BLACK
6
CONTINUOUS
10
6.05406
20
-4.01199
11
6.05424
21
-4.01105
0
LINE
8
BLACK
6
CONTINUOUS
10
6.05424
20
-4.01105
11
6.05478
21
-4.01025
0
LINE
8
BLACK
6
CONTINUOUS
10
6.05478
20
-4.01025
11
6.05557
21
-4.00971
0
LINE
8
BLACK
6
CONTINUOUS
10
6.05557
20
-4.00971
11
6.05652
21
-4.00953
0
LINE
8
BLACK
6
CONTINUOUS
10
6.05652
20
-4.00953
11
6.06144
21
-4.00953
0
LINE
8
BLACK
6
CONTINUOUS
10
6.06144
20
-4.00953
11
6.06238
21
-4.00971
0
LINE
8
BLACK
6
CONTINUOUS
10
6.08206
20
-4.00971
11
6.08286
21
-4.01025
0
LINE
8
BLACK
6
CONTINUOUS
10
6.08286
20
-4.01025
11
6.0834
21
-4.01105
0
LINE
8
BLACK
6
CONTINUOUS
10
6.0834
20
-4.01105
11
6.08358
21
-4.01199
0
LINE
8
BLACK
6
CONTINUOUS
10
6.08358
20
-4.01199
11
6.08358
21
-4.03955
0
LINE
8
BLACK
6
CONTINUOUS
10
6.08358
20
-4.03955
11
6.0834
21
-4.04049
0
LINE
8
BLACK
6
CONTINUOUS
10
6.0834
20
-4.04049
11
6.08286
21
-4.04129
0
LINE
8
BLACK
6
CONTINUOUS
10
6.08286
20
-4.04129
11
6.08206
21
-4.04182
0
LINE
8
BLACK
6
CONTINUOUS
10
6.08206
20
-4.04182
11
6.08112
21
-4.04201
0
LINE
8
BLACK
6
CONTINUOUS
10
6.08112
20
-4.04201
11
6.0762
21
-4.04201
0
LINE
8
BLACK
6
CONTINUOUS
10
6.0762
20
-4.04201
11
6.07526
21
-4.04182
0
LINE
8
BLACK
6
CONTINUOUS
10
6.07526
20
-4.04182
11
6.07446
21
-4.04129
0
LINE
8
BLACK
6
CONTINUOUS
10
6.07446
20
-4.04129
11
6.07393
21
-4.04049
0
LINE
8
BLACK
6
CONTINUOUS
10
6.07393
20
-4.04049
11
6.07374
21
-4.03955
0
LINE
8
BLACK
6
CONTINUOUS
10
6.07374
20
-4.03955
11
6.07374
21
-4.01199
0
LINE
8
BLACK
6
CONTINUOUS
10
6.07374
20
-4.01199
11
6.07393
21
-4.01105
0
LINE
8
BLACK
6
CONTINUOUS
10
6.07393
20
-4.01105
11
6.07446
21
-4.01025
0
LINE
8
BLACK
6
CONTINUOUS
10
6.07446
20
-4.01025
11
6.07526
21
-4.00971
0
LINE
8
BLACK
6
CONTINUOUS
10
6.07526
20
-4.00971
11
6.0762
21
-4.00953
0
LINE
8
BLACK
6
CONTINUOUS
10
6.0762
20
-4.00953
11
6.08112
21
-4.00953
0
LINE
8
BLACK
6
CONTINUOUS
10
6.08112
20
-4.00953
11
6.08206
21
-4.00971
0
LINE
8
BLACK
6
CONTINUOUS
10
6.10175
20
-4.00971
11
6.10255
21
-4.01025
0
LINE
8
BLACK
6
CONTINUOUS
10
6.10255
20
-4.01025
11
6.10308
21
-4.01105
0
LINE
8
BLACK
6
CONTINUOUS
10
6.10308
20
-4.01105
11
6.10327
21
-4.01199
0
LINE
8
BLACK
6
CONTINUOUS
10
6.10327
20
-4.01199
11
6.10327
21
-4.03955
0
LINE
8
BLACK
6
CONTINUOUS
10
6.10327
20
-4.03955
11
6.10308
21
-4.04049
0
LINE
8
BLACK
6
CONTINUOUS
10
6.10308
20
-4.04049
11
6.10255
21
-4.04129
0
LINE
8
BLACK
6
CONTINUOUS
10
6.10255
20
-4.04129
11
6.10175
21
-4.04182
0
LINE
8
BLACK
6
CONTINUOUS
10
6.10175
20
-4.04182
11
6.10081
21
-4.04201
0
LINE
8
BLACK
6
CONTINUOUS
10
6.10081
20
-4.04201
11
6.09589
21
-4.04201
0
LINE
8
BLACK
6
CONTINUOUS
10
6.09589
20
-4.04201
11
6.09494
21
-4.04182
0
LINE
8
BLACK
6
CONTINUOUS
10
6.09494
20
-4.04182
11
6.09415
21
-4.04129
0
LINE
8
BLACK
6
CONTINUOUS
10
6.09415
20
-4.04129
11
6.09361
21
-4.04049
0
LINE
8
BLACK
6
CONTINUOUS
10
6.09361
20
-4.04049
11
6.09343
21
-4.03955
0
LINE
8
BLACK
6
CONTINUOUS
10
6.09343
20
-4.03955
11
6.09343
21
-4.01199
0
LINE
8
BLACK
6
CONTINUOUS
10
6.09343
20
-4.01199
11
6.09361
21
-4.01105
0
LINE
8
BLACK
6
CONTINUOUS
10
6.09361
20
-4.01105
11
6.09415
21
-4.01025
0
LINE
8
BLACK
6
CONTINUOUS
10
6.09415
20
-4.01025
11
6.09494
21
-4.00971
0
LINE
8
BLACK
6
CONTINUOUS
10
6.09494
20
-4.00971
11
6.09589
21
-4.00953
0
LINE
8
BLACK
6
CONTINUOUS
10
6.09589
20
-4.00953
11
6.10081
21
-4.00953
0
LINE
8
BLACK
6
CONTINUOUS
10
6.10081
20
-4.00953
11
6.10175
21
-4.00971
0
LINE
8
BLACK
6
CONTINUOUS
10
6.12143
20
-4.00971
11
6.12223
21
-4.01025
0
LINE
8
BLACK
6
CONTINUOUS
10
6.12223
20
-4.01025
11
6.12277
21
-4.01105
0
LINE
8
BLACK
6
CONTINUOUS
10
6.12277
20
-4.01105
11
6.12295
21
-4.01199
0
LINE
8
BLACK
6
CONTINUOUS
10
6.12295
20
-4.01199
11
6.12295
21
-4.03955
0
LINE
8
BLACK
6
CONTINUOUS
10
6.12295
20
-4.03955
11
6.12277
21
-4.04049
0
LINE
8
BLACK
6
CONTINUOUS
10
6.12277
20
-4.04049
11
6.12223
21
-4.04129
0
LINE
8
BLACK
6
CONTINUOUS
10
6.12223
20
-4.04129
11
6.12143
21
-4.04182
0
LINE
8
BLACK
6
CONTINUOUS
10
6.12143
20
-4.04182
11
6.12049
21
-4.04201
0
LINE
8
BLACK
6
CONTINUOUS
10
6.12049
20
-4.04201
11
6.11557
21
-4.04201
0
LINE
8
BLACK
6
CONTINUOUS
10
6.11557
20
-4.04201
11
6.11463
21
-4.04182
0
LINE
8
BLACK
6
CONTINUOUS
10
6.11463
20
-4.04182
11
6.11383
21
-4.04129
0
LINE
8
BLACK
6
CONTINUOUS
10
6.11383
20
-4.04129
11
6.1133
21
-4.04049
0
LINE
8
BLACK
6
CONTINUOUS
10
6.1133
20
-4.04049
11
6.11311
21
-4.03955
0
LINE
8
BLACK
6
CONTINUOUS
10
6.11311
20
-4.03955
11
6.11311
21
-4.01199
0
LINE
8
BLACK
6
CONTINUOUS
10
6.11311
20
-4.01199
11
6.1133
21
-4.01105
0
LINE
8
BLACK
6
CONTINUOUS
10
6.1133
20
-4.01105
11
6.11383
21
-4.01025
0
LINE
8
BLACK
6
CONTINUOUS
10
6.11383
20
-4.01025
11
6.11463
21
-4.00971
0
LINE
8
BLACK
6
CONTINUOUS
10
6.11463
20
-4.00971
11
6.11557
21
-4.00953
0
LINE
8
BLACK
6
CONTINUOUS
10
6.11557
20
-4.00953
11
6.12049
21
-4.00953
0
LINE
8
BLACK
6
CONTINUOUS
10
6.12049
20
-4.00953
11
6.12143
21
-4.00971
0
LINE
8
BLACK
6
CONTINUOUS
10
6.14112
20
-4.00971
11
6.14192
21
-4.01025
0
LINE
8
BLACK
6
CONTINUOUS
10
6.14192
20
-4.01025
11
6.14245
21
-4.01105
0
LINE
8
BLACK
6
CONTINUOUS
10
6.14245
20
-4.01105
11
6.14264
21
-4.01199
0
LINE
8
BLACK
6
CONTINUOUS
10
6.14264
20
-4.01199
11
6.14264
21
-4.03955
0
LINE
8
BLACK
6
CONTINUOUS
10
6.14264
20
-4.03955
11
6.14245
21
-4.04049
0
LINE
8
BLACK
6
CONTINUOUS
10
6.14245
20
-4.04049
11
6.14192
21
-4.04129
0
LINE
8
BLACK
6
CONTINUOUS
10
6.14192
20
-4.04129
11
6.14112
21
-4.04182
0
LINE
8
BLACK
6
CONTINUOUS
10
6.14112
20
-4.04182
11
6.14018
21
-4.04201
0
LINE
8
BLACK
6
CONTINUOUS
10
6.14018
20
-4.04201
11
6.13526
21
-4.04201
0
LINE
8
BLACK
6
CONTINUOUS
10
6.13526
20
-4.04201
11
6.13431
21
-4.04182
0
LINE
8
BLACK
6
CONTINUOUS
10
6.13431
20
-4.04182
11
6.13352
21
-4.04129
0
LINE
8
BLACK
6
CONTINUOUS
10
6.13352
20
-4.04129
11
6.13298
21
-4.04049
0
LINE
8
BLACK
6
CONTINUOUS
10
6.13298
20
-4.04049
11
6.1328
21
-4.03955
0
LINE
8
BLACK
6
CONTINUOUS
10
6.1328
20
-4.03955
11
6.1328
21
-4.01199
0
LINE
8
BLACK
6
CONTINUOUS
10
6.1328
20
-4.01199
11
6.13298
21
-4.01105
0
LINE
8
BLACK
6
CONTINUOUS
10
6.13298
20
-4.01105
11
6.13352
21
-4.01025
0
LINE
8
BLACK
6
CONTINUOUS
10
6.13352
20
-4.01025
11
6.13431
21
-4.00971
0
LINE
8
BLACK
6
CONTINUOUS
10
6.13431
20
-4.00971
11
6.13526
21
-4.00953
0
LINE
8
BLACK
6
CONTINUOUS
10
6.13526
20
-4.00953
11
6.14018
21
-4.00953
0
LINE
8
BLACK
6
CONTINUOUS
10
6.14018
20
-4.00953
11
6.14112
21
-4.00971
0
LINE
8
BLACK
6
CONTINUOUS
10
5.66619
20
-4.02429
11
5.62091
21
-4.02429
0
LINE
8
BLACK
6
CONTINUOUS
10
5.62091
20
-4.02429
11
5.62091
21
-4.01248
0
LINE
8
BLACK
6
CONTINUOUS
10
5.62091
20
-4.01248
11
5.66619
21
-4.01248
0
LINE
8
BLACK
6
CONTINUOUS
10
5.66619
20
-4.01248
11
5.66619
21
-4.02429
0
LINE
8
BLACK
6
CONTINUOUS
10
5.66619
20
-4.00461
11
5.62091
21
-4.00461
0
LINE
8
BLACK
6
CONTINUOUS
10
5.62091
20
-4.00461
11
5.62091
21
-3.9928
0
LINE
8
BLACK
6
CONTINUOUS
10
5.62091
20
-3.9928
11
5.66619
21
-3.9928
0
LINE
8
BLACK
6
CONTINUOUS
10
5.66619
20
-3.9928
11
5.66619
21
-4.00461
0
LINE
8
BLACK
6
CONTINUOUS
10
5.851
20
-3.97553
11
5.85292
21
-3.97681
0
LINE
8
BLACK
6
CONTINUOUS
10
5.85292
20
-3.97681
11
5.8542
21
-3.97872
0
LINE
8
BLACK
6
CONTINUOUS
10
5.8542
20
-3.97872
11
5.85465
21
-3.98098
0
LINE
8
BLACK
6
CONTINUOUS
10
5.85465
20
-3.98098
11
5.85465
21
-3.9928
0
LINE
8
BLACK
6
CONTINUOUS
10
5.85465
20
-3.9928
11
5.8542
21
-3.99506
0
LINE
8
BLACK
6
CONTINUOUS
10
5.8542
20
-3.99506
11
5.85292
21
-3.99697
0
LINE
8
BLACK
6
CONTINUOUS
10
5.85292
20
-3.99697
11
5.851
21
-3.99825
0
LINE
8
BLACK
6
CONTINUOUS
10
5.851
20
-3.99825
11
5.84874
21
-3.9987
0
LINE
8
BLACK
6
CONTINUOUS
10
5.84874
20
-3.9987
11
5.80839
21
-3.9987
0
LINE
8
BLACK
6
CONTINUOUS
10
5.80839
20
-3.9987
11
5.80613
21
-3.99825
0
LINE
8
BLACK
6
CONTINUOUS
10
5.80613
20
-3.99825
11
5.80421
21
-3.99697
0
LINE
8
BLACK
6
CONTINUOUS
10
5.80421
20
-3.99697
11
5.80293
21
-3.99506
0
LINE
8
BLACK
6
CONTINUOUS
10
5.80293
20
-3.99506
11
5.80248
21
-3.9928
0
LINE
8
BLACK
6
CONTINUOUS
10
5.80248
20
-3.9928
11
5.80248
21
-3.98098
0
LINE
8
BLACK
6
CONTINUOUS
10
5.80248
20
-3.98098
11
5.80293
21
-3.97872
0
LINE
8
BLACK
6
CONTINUOUS
10
5.80293
20
-3.97872
11
5.80421
21
-3.97681
0
LINE
8
BLACK
6
CONTINUOUS
10
5.80421
20
-3.97681
11
5.80613
21
-3.97553
0
LINE
8
BLACK
6
CONTINUOUS
10
5.80613
20
-3.97553
11
5.80839
21
-3.97508
0
LINE
8
BLACK
6
CONTINUOUS
10
5.80839
20
-3.97508
11
5.84874
21
-3.97508
0
LINE
8
BLACK
6
CONTINUOUS
10
5.84874
20
-3.97508
11
5.851
21
-3.97553
0
LINE
8
BLACK
6
CONTINUOUS
10
5.94057
20
-3.97553
11
5.94248
21
-3.97681
0
LINE
8
BLACK
6
CONTINUOUS
10
5.94248
20
-3.97681
11
5.94376
21
-3.97872
0
LINE
8
BLACK
6
CONTINUOUS
10
5.94376
20
-3.97872
11
5.94421
21
-3.98098
0
LINE
8
BLACK
6
CONTINUOUS
10
5.94421
20
-3.98098
11
5.94421
21
-3.9928
0
LINE
8
BLACK
6
CONTINUOUS
10
5.94421
20
-3.9928
11
5.94376
21
-3.99506
0
LINE
8
BLACK
6
CONTINUOUS
10
5.94376
20
-3.99506
11
5.94248
21
-3.99697
0
LINE
8
BLACK
6
CONTINUOUS
10
5.94248
20
-3.99697
11
5.94057
21
-3.99825
0
LINE
8
BLACK
6
CONTINUOUS
10
5.94057
20
-3.99825
11
5.93831
21
-3.9987
0
LINE
8
BLACK
6
CONTINUOUS
10
5.93831
20
-3.9987
11
5.89795
21
-3.9987
0
LINE
8
BLACK
6
CONTINUOUS
10
5.89795
20
-3.9987
11
5.89569
21
-3.99825
0
LINE
8
BLACK
6
CONTINUOUS
10
5.89569
20
-3.99825
11
5.89378
21
-3.99697
0
LINE
8
BLACK
6
CONTINUOUS
10
5.89378
20
-3.99697
11
5.8925
21
-3.99506
0
LINE
8
BLACK
6
CONTINUOUS
10
5.8925
20
-3.99506
11
5.89205
21
-3.9928
0
LINE
8
BLACK
6
CONTINUOUS
10
5.89205
20
-3.9928
11
5.89205
21
-3.98098
0
LINE
8
BLACK
6
CONTINUOUS
10
5.89205
20
-3.98098
11
5.8925
21
-3.97872
0
LINE
8
BLACK
6
CONTINUOUS
10
5.8925
20
-3.97872
11
5.89378
21
-3.97681
0
LINE
8
BLACK
6
CONTINUOUS
10
5.89378
20
-3.97681
11
5.89569
21
-3.97553
0
LINE
8
BLACK
6
CONTINUOUS
10
5.89569
20
-3.97553
11
5.89795
21
-3.97508
0
LINE
8
BLACK
6
CONTINUOUS
10
5.89795
20
-3.97508
11
5.93831
21
-3.97508
0
LINE
8
BLACK
6
CONTINUOUS
10
5.93831
20
-3.97508
11
5.94057
21
-3.97553
0
LINE
8
BLACK
6
CONTINUOUS
10
6.08755
20
-3.95496
11
6.09074
21
-3.9571
0
LINE
8
BLACK
6
CONTINUOUS
10
6.09074
20
-3.9571
11
6.09287
21
-3.96029
0
LINE
8
BLACK
6
CONTINUOUS
10
6.09287
20
-3.96029
11
6.09362
21
-3.96406
0
LINE
8
BLACK
6
CONTINUOUS
10
6.09362
20
-3.96406
11
6.09362
21
-3.98413
0
LINE
8
BLACK
6
CONTINUOUS
10
6.09362
20
-3.98413
11
6.09287
21
-3.9879
0
LINE
8
BLACK
6
CONTINUOUS
10
6.09287
20
-3.9879
11
6.09074
21
-3.99109
0
LINE
8
BLACK
6
CONTINUOUS
10
6.09074
20
-3.99109
11
6.08755
21
-3.99323
0
LINE
8
BLACK
6
CONTINUOUS
10
6.08755
20
-3.99323
11
6.08378
21
-3.99398
0
LINE
8
BLACK
6
CONTINUOUS
10
6.08378
20
-3.99398
11
6.0637
21
-3.99398
0
LINE
8
BLACK
6
CONTINUOUS
10
6.0637
20
-3.99398
11
6.05993
21
-3.99323
0
LINE
8
BLACK
6
CONTINUOUS
10
6.05993
20
-3.99323
11
6.05674
21
-3.99109
0
LINE
8
BLACK
6
CONTINUOUS
10
6.05674
20
-3.99109
11
6.05461
21
-3.9879
0
LINE
8
BLACK
6
CONTINUOUS
10
6.05461
20
-3.9879
11
6.05386
21
-3.98413
0
LINE
8
BLACK
6
CONTINUOUS
10
6.05386
20
-3.98413
11
6.05386
21
-3.96406
0
LINE
8
BLACK
6
CONTINUOUS
10
6.05386
20
-3.96406
11
6.05461
21
-3.96029
0
LINE
8
BLACK
6
CONTINUOUS
10
6.05461
20
-3.96029
11
6.05674
21
-3.9571
0
LINE
8
BLACK
6
CONTINUOUS
10
6.05674
20
-3.9571
11
6.05993
21
-3.95496
0
LINE
8
BLACK
6
CONTINUOUS
10
6.05993
20
-3.95496
11
6.0637
21
-3.95421
0
LINE
8
BLACK
6
CONTINUOUS
10
6.0637
20
-3.95421
11
6.08378
21
-3.95421
0
LINE
8
BLACK
6
CONTINUOUS
10
6.08378
20
-3.95421
11
6.08755
21
-3.95496
0
LINE
8
BLACK
6
CONTINUOUS
10
6.13676
20
-3.95496
11
6.13995
21
-3.9571
0
LINE
8
BLACK
6
CONTINUOUS
10
6.13995
20
-3.9571
11
6.14209
21
-3.96029
0
LINE
8
BLACK
6
CONTINUOUS
10
6.14209
20
-3.96029
11
6.14283
21
-3.96406
0
LINE
8
BLACK
6
CONTINUOUS
10
6.14283
20
-3.96406
11
6.14283
21
-3.98413
0
LINE
8
BLACK
6
CONTINUOUS
10
6.14283
20
-3.98413
11
6.14209
21
-3.9879
0
LINE
8
BLACK
6
CONTINUOUS
10
6.14209
20
-3.9879
11
6.13995
21
-3.99109
0
LINE
8
BLACK
6
CONTINUOUS
10
6.13995
20
-3.99109
11
6.13676
21
-3.99323
0
LINE
8
BLACK
6
CONTINUOUS
10
6.13676
20
-3.99323
11
6.13299
21
-3.99398
0
LINE
8
BLACK
6
CONTINUOUS
10
6.13299
20
-3.99398
11
6.11291
21
-3.99398
0
LINE
8
BLACK
6
CONTINUOUS
10
6.11291
20
-3.99398
11
6.10915
21
-3.99323
0
LINE
8
BLACK
6
CONTINUOUS
10
6.10915
20
-3.99323
11
6.10595
21
-3.99109
0
LINE
8
BLACK
6
CONTINUOUS
10
6.10595
20
-3.99109
11
6.10382
21
-3.9879
0
LINE
8
BLACK
6
CONTINUOUS
10
6.10382
20
-3.9879
11
6.10307
21
-3.98413
0
LINE
8
BLACK
6
CONTINUOUS
10
6.10307
20
-3.98413
11
6.10307
21
-3.96406
0
LINE
8
BLACK
6
CONTINUOUS
10
6.10307
20
-3.96406
11
6.10382
21
-3.96029
0
LINE
8
BLACK
6
CONTINUOUS
10
6.10382
20
-3.96029
11
6.10595
21
-3.9571
0
LINE
8
BLACK
6
CONTINUOUS
10
6.10595
20
-3.9571
11
6.10915
21
-3.95496
0
LINE
8
BLACK
6
CONTINUOUS
10
6.10915
20
-3.95496
11
6.11291
21
-3.95421
0
LINE
8
BLACK
6
CONTINUOUS
10
6.11291
20
-3.95421
11
6.13299
21
-3.95421
0
LINE
8
BLACK
6
CONTINUOUS
10
6.13299
20
-3.95421
11
6.13676
21
-3.95496
0
LINE
8
BLACK
6
CONTINUOUS
10
6.03679
20
-3.98412
11
6.03759
21
-3.98466
0
LINE
8
BLACK
6
CONTINUOUS
10
6.03759
20
-3.98466
11
6.03812
21
-3.98546
0
LINE
8
BLACK
6
CONTINUOUS
10
6.03812
20
-3.98546
11
6.03831
21
-3.9864
0
LINE
8
BLACK
6
CONTINUOUS
10
6.03831
20
-3.9864
11
6.03831
21
-3.99132
0
LINE
8
BLACK
6
CONTINUOUS
10
6.03831
20
-3.99132
11
6.03812
21
-3.99226
0
LINE
8
BLACK
6
CONTINUOUS
10
6.03812
20
-3.99226
11
6.03759
21
-3.99306
0
LINE
8
BLACK
6
CONTINUOUS
10
6.03759
20
-3.99306
11
6.03679
21
-3.99359
0
LINE
8
BLACK
6
CONTINUOUS
10
6.03679
20
-3.99359
11
6.03585
21
-3.99378
0
LINE
8
BLACK
6
CONTINUOUS
10
6.03585
20
-3.99378
11
6.00829
21
-3.99378
0
LINE
8
BLACK
6
CONTINUOUS
10
6.00829
20
-3.99378
11
6.00735
21
-3.99359
0
LINE
8
BLACK
6
CONTINUOUS
10
6.00735
20
-3.99359
11
6.00655
21
-3.99306
0
LINE
8
BLACK
6
CONTINUOUS
10
6.00655
20
-3.99306
11
6.00601
21
-3.99226
0
LINE
8
BLACK
6
CONTINUOUS
10
6.00601
20
-3.99226
11
6.00583
21
-3.99132
0
LINE
8
BLACK
6
CONTINUOUS
10
6.00583
20
-3.99132
11
6.00583
21
-3.9864
0
LINE
8
BLACK
6
CONTINUOUS
10
6.00583
20
-3.9864
11
6.00601
21
-3.98546
0
LINE
8
BLACK
6
CONTINUOUS
10
6.00601
20
-3.98546
11
6.00655
21
-3.98466
0
LINE
8
BLACK
6
CONTINUOUS
10
6.00655
20
-3.98466
11
6.00735
21
-3.98412
0
LINE
8
BLACK
6
CONTINUOUS
10
6.00735
20
-3.98412
11
6.00829
21
-3.98394
0
LINE
8
BLACK
6
CONTINUOUS
10
6.00829
20
-3.98394
11
6.03585
21
-3.98394
0
LINE
8
BLACK
6
CONTINUOUS
10
6.03585
20
-3.98394
11
6.03679
21
-3.98412
0
LINE
8
BLACK
6
CONTINUOUS
10
6.18935
20
-3.98412
11
6.19015
21
-3.98466
0
LINE
8
BLACK
6
CONTINUOUS
10
6.19015
20
-3.98466
11
6.19068
21
-3.98546
0
LINE
8
BLACK
6
CONTINUOUS
10
6.19068
20
-3.98546
11
6.19087
21
-3.9864
0
LINE
8
BLACK
6
CONTINUOUS
10
6.19087
20
-3.9864
11
6.19087
21
-3.99132
0
LINE
8
BLACK
6
CONTINUOUS
10
6.19087
20
-3.99132
11
6.19068
21
-3.99226
0
LINE
8
BLACK
6
CONTINUOUS
10
6.19068
20
-3.99226
11
6.19015
21
-3.99306
0
LINE
8
BLACK
6
CONTINUOUS
10
6.19015
20
-3.99306
11
6.18935
21
-3.99359
0
LINE
8
BLACK
6
CONTINUOUS
10
6.18935
20
-3.99359
11
6.18841
21
-3.99378
0
LINE
8
BLACK
6
CONTINUOUS
10
6.18841
20
-3.99378
11
6.16085
21
-3.99378
0
LINE
8
BLACK
6
CONTINUOUS
10
6.16085
20
-3.99378
11
6.1599
21
-3.99359
0
LINE
8
BLACK
6
CONTINUOUS
10
6.1599
20
-3.99359
11
6.15911
21
-3.99306
0
LINE
8
BLACK
6
CONTINUOUS
10
6.15911
20
-3.99306
11
6.15857
21
-3.99226
0
LINE
8
BLACK
6
CONTINUOUS
10
6.15857
20
-3.99226
11
6.15839
21
-3.99132
0
LINE
8
BLACK
6
CONTINUOUS
10
6.15839
20
-3.99132
11
6.15839
21
-3.9864
0
LINE
8
BLACK
6
CONTINUOUS
10
6.15839
20
-3.9864
11
6.15857
21
-3.98546
0
LINE
8
BLACK
6
CONTINUOUS
10
6.15857
20
-3.98546
11
6.15911
21
-3.98466
0
LINE
8
BLACK
6
CONTINUOUS
10
6.15911
20
-3.98466
11
6.1599
21
-3.98412
0
LINE
8
BLACK
6
CONTINUOUS
10
6.1599
20
-3.98412
11
6.16085
21
-3.98394
0
LINE
8
BLACK
6
CONTINUOUS
10
6.16085
20
-3.98394
11
6.18841
21
-3.98394
0
LINE
8
BLACK
6
CONTINUOUS
10
6.18841
20
-3.98394
11
6.18935
21
-3.98412
0
LINE
8
BLACK
6
CONTINUOUS
10
5.66619
20
-3.98492
11
5.62091
21
-3.98492
0
LINE
8
BLACK
6
CONTINUOUS
10
5.62091
20
-3.98492
11
5.62091
21
-3.97311
0
LINE
8
BLACK
6
CONTINUOUS
10
5.62091
20
-3.97311
11
5.66619
21
-3.97311
0
LINE
8
BLACK
6
CONTINUOUS
10
5.66619
20
-3.97311
11
5.66619
21
-3.98492
0
LINE
8
BLACK
6
CONTINUOUS
10
6.03679
20
-3.96444
11
6.03759
21
-3.96497
0
LINE
8
BLACK
6
CONTINUOUS
10
6.03759
20
-3.96497
11
6.03812
21
-3.96577
0
LINE
8
BLACK
6
CONTINUOUS
10
6.03812
20
-3.96577
11
6.03831
21
-3.96671
0
LINE
8
BLACK
6
CONTINUOUS
10
6.03831
20
-3.96671
11
6.03831
21
-3.97163
0
LINE
8
BLACK
6
CONTINUOUS
10
6.03831
20
-3.97163
11
6.03812
21
-3.97258
0
LINE
8
BLACK
6
CONTINUOUS
10
6.03812
20
-3.97258
11
6.03759
21
-3.97337
0
LINE
8
BLACK
6
CONTINUOUS
10
6.03759
20
-3.97337
11
6.03679
21
-3.97391
0
LINE
8
BLACK
6
CONTINUOUS
10
6.03679
20
-3.97391
11
6.03585
21
-3.97409
0
LINE
8
BLACK
6
CONTINUOUS
10
6.03585
20
-3.97409
11
6.00829
21
-3.97409
0
LINE
8
BLACK
6
CONTINUOUS
10
6.00829
20
-3.97409
11
6.00735
21
-3.97391
0
LINE
8
BLACK
6
CONTINUOUS
10
6.00735
20
-3.97391
11
6.00655
21
-3.97337
0
LINE
8
BLACK
6
CONTINUOUS
10
6.00655
20
-3.97337
11
6.00601
21
-3.97258
0
LINE
8
BLACK
6
CONTINUOUS
10
6.00601
20
-3.97258
11
6.00583
21
-3.97163
0
LINE
8
BLACK
6
CONTINUOUS
10
6.00583
20
-3.97163
11
6.00583
21
-3.96671
0
LINE
8
BLACK
6
CONTINUOUS
10
6.00583
20
-3.96671
11
6.00601
21
-3.96577
0
LINE
8
BLACK
6
CONTINUOUS
10
6.00601
20
-3.96577
11
6.00655
21
-3.96497
0
LINE
8
BLACK
6
CONTINUOUS
10
6.00655
20
-3.96497
11
6.00735
21
-3.96444
0
LINE
8
BLACK
6
CONTINUOUS
10
6.00735
20
-3.96444
11
6.00829
21
-3.96425
0
LINE
8
BLACK
6
CONTINUOUS
10
6.00829
20
-3.96425
11
6.03585
21
-3.96425
0
LINE
8
BLACK
6
CONTINUOUS
10
6.03585
20
-3.96425
11
6.03679
21
-3.96444
0
LINE
8
BLACK
6
CONTINUOUS
10
6.18935
20
-3.96444
11
6.19015
21
-3.96497
0
LINE
8
BLACK
6
CONTINUOUS
10
6.19015
20
-3.96497
11
6.19068
21
-3.96577
0
LINE
8
BLACK
6
CONTINUOUS
10
6.19068
20
-3.96577
11
6.19087
21
-3.96671
0
LINE
8
BLACK
6
CONTINUOUS
10
6.19087
20
-3.96671
11
6.19087
21
-3.97163
0
LINE
8
BLACK
6
CONTINUOUS
10
6.19087
20
-3.97163
11
6.19068
21
-3.97258
0
LINE
8
BLACK
6
CONTINUOUS
10
6.19068
20
-3.97258
11
6.19015
21
-3.97337
0
LINE
8
BLACK
6
CONTINUOUS
10
6.19015
20
-3.97337
11
6.18935
21
-3.97391
0
LINE
8
BLACK
6
CONTINUOUS
10
6.18935
20
-3.97391
11
6.18841
21
-3.97409
0
LINE
8
BLACK
6
CONTINUOUS
10
6.18841
20
-3.97409
11
6.16085
21
-3.97409
0
LINE
8
BLACK
6
CONTINUOUS
10
6.16085
20
-3.97409
11
6.1599
21
-3.97391
0
LINE
8
BLACK
6
CONTINUOUS
10
6.1599
20
-3.97391
11
6.15911
21
-3.97337
0
LINE
8
BLACK
6
CONTINUOUS
10
6.15911
20
-3.97337
11
6.15857
21
-3.97258
0
LINE
8
BLACK
6
CONTINUOUS
10
6.15857
20
-3.97258
11
6.15839
21
-3.97163
0
LINE
8
BLACK
6
CONTINUOUS
10
6.15839
20
-3.97163
11
6.15839
21
-3.96671
0
LINE
8
BLACK
6
CONTINUOUS
10
6.15839
20
-3.96671
11
6.15857
21
-3.96577
0
LINE
8
BLACK
6
CONTINUOUS
10
6.15857
20
-3.96577
11
6.15911
21
-3.96497
0
LINE
8
BLACK
6
CONTINUOUS
10
6.15911
20
-3.96497
11
6.1599
21
-3.96444
0
LINE
8
BLACK
6
CONTINUOUS
10
6.1599
20
-3.96444
11
6.16085
21
-3.96425
0
LINE
8
BLACK
6
CONTINUOUS
10
6.16085
20
-3.96425
11
6.18841
21
-3.96425
0
LINE
8
BLACK
6
CONTINUOUS
10
6.18841
20
-3.96425
11
6.18935
21
-3.96444
0
LINE
8
BLACK
6
CONTINUOUS
10
5.66619
20
-3.96524
11
5.62091
21
-3.96524
0
LINE
8
BLACK
6
CONTINUOUS
10
5.62091
20
-3.96524
11
5.62091
21
-3.95343
0
LINE
8
BLACK
6
CONTINUOUS
10
5.62091
20
-3.95343
11
5.66619
21
-3.95343
0
LINE
8
BLACK
6
CONTINUOUS
10
5.66619
20
-3.95343
11
5.66619
21
-3.96524
0
LINE
8
BLACK
6
CONTINUOUS
10
5.851
20
-3.93813
11
5.85292
21
-3.93941
0
LINE
8
BLACK
6
CONTINUOUS
10
5.85292
20
-3.93941
11
5.8542
21
-3.94132
0
LINE
8
BLACK
6
CONTINUOUS
10
5.8542
20
-3.94132
11
5.85465
21
-3.94358
0
LINE
8
BLACK
6
CONTINUOUS
10
5.85465
20
-3.94358
11
5.85465
21
-3.95539
0
LINE
8
BLACK
6
CONTINUOUS
10
5.85465
20
-3.95539
11
5.8542
21
-3.95765
0
LINE
8
BLACK
6
CONTINUOUS
10
5.8542
20
-3.95765
11
5.85292
21
-3.95957
0
LINE
8
BLACK
6
CONTINUOUS
10
5.85292
20
-3.95957
11
5.851
21
-3.96085
0
LINE
8
BLACK
6
CONTINUOUS
10
5.851
20
-3.96085
11
5.84874
21
-3.9613
0
LINE
8
BLACK
6
CONTINUOUS
10
5.84874
20
-3.9613
11
5.80839
21
-3.9613
0
LINE
8
BLACK
6
CONTINUOUS
10
5.80839
20
-3.9613
11
5.80613
21
-3.96085
0
LINE
8
BLACK
6
CONTINUOUS
10
5.80613
20
-3.96085
11
5.80421
21
-3.95957
0
LINE
8
BLACK
6
CONTINUOUS
10
5.80421
20
-3.95957
11
5.80293
21
-3.95765
0
LINE
8
BLACK
6
CONTINUOUS
10
5.80293
20
-3.95765
11
5.80248
21
-3.95539
0
LINE
8
BLACK
6
CONTINUOUS
10
5.80248
20
-3.95539
11
5.80248
21
-3.94358
0
LINE
8
BLACK
6
CONTINUOUS
10
5.80248
20
-3.94358
11
5.80293
21
-3.94132
0
LINE
8
BLACK
6
CONTINUOUS
10
5.80293
20
-3.94132
11
5.80421
21
-3.93941
0
LINE
8
BLACK
6
CONTINUOUS
10
5.80421
20
-3.93941
11
5.80613
21
-3.93813
0
LINE
8
BLACK
6
CONTINUOUS
10
5.80613
20
-3.93813
11
5.80839
21
-3.93768
0
LINE
8
BLACK
6
CONTINUOUS
10
5.80839
20
-3.93768
11
5.84874
21
-3.93768
0
LINE
8
BLACK
6
CONTINUOUS
10
5.84874
20
-3.93768
11
5.851
21
-3.93813
0
LINE
8
BLACK
6
CONTINUOUS
10
5.94057
20
-3.93813
11
5.94248
21
-3.93941
0
LINE
8
BLACK
6
CONTINUOUS
10
5.94248
20
-3.93941
11
5.94376
21
-3.94132
0
LINE
8
BLACK
6
CONTINUOUS
10
5.94376
20
-3.94132
11
5.94421
21
-3.94358
0
LINE
8
BLACK
6
CONTINUOUS
10
5.94421
20
-3.94358
11
5.94421
21
-3.95539
0
LINE
8
BLACK
6
CONTINUOUS
10
5.94421
20
-3.95539
11
5.94376
21
-3.95765
0
LINE
8
BLACK
6
CONTINUOUS
10
5.94376
20
-3.95765
11
5.94248
21
-3.95957
0
LINE
8
BLACK
6
CONTINUOUS
10
5.94248
20
-3.95957
11
5.94057
21
-3.96085
0
LINE
8
BLACK
6
CONTINUOUS
10
5.94057
20
-3.96085
11
5.93831
21
-3.9613
0
LINE
8
BLACK
6
CONTINUOUS
10
5.93831
20
-3.9613
11
5.89795
21
-3.9613
0
LINE
8
BLACK
6
CONTINUOUS
10
5.89795
20
-3.9613
11
5.89569
21
-3.96085
0
LINE
8
BLACK
6
CONTINUOUS
10
5.89569
20
-3.96085
11
5.89378
21
-3.95957
0
LINE
8
BLACK
6
CONTINUOUS
10
5.89378
20
-3.95957
11
5.8925
21
-3.95765
0
LINE
8
BLACK
6
CONTINUOUS
10
5.8925
20
-3.95765
11
5.89205
21
-3.95539
0
LINE
8
BLACK
6
CONTINUOUS
10
5.89205
20
-3.95539
11
5.89205
21
-3.94358
0
LINE
8
BLACK
6
CONTINUOUS
10
5.89205
20
-3.94358
11
5.8925
21
-3.94132
0
LINE
8
BLACK
6
CONTINUOUS
10
5.8925
20
-3.94132
11
5.89378
21
-3.93941
0
LINE
8
BLACK
6
CONTINUOUS
10
5.89378
20
-3.93941
11
5.89569
21
-3.93813
0
LINE
8
BLACK
6
CONTINUOUS
10
5.89569
20
-3.93813
11
5.89795
21
-3.93768
0
LINE
8
BLACK
6
CONTINUOUS
10
5.89795
20
-3.93768
11
5.93831
21
-3.93768
0
LINE
8
BLACK
6
CONTINUOUS
10
5.93831
20
-3.93768
11
5.94057
21
-3.93813
0
LINE
8
BLACK
6
CONTINUOUS
10
6.87427
20
-3.92194
11
6.87683
21
-3.92364
0
LINE
8
BLACK
6
CONTINUOUS
10
6.87683
20
-3.92364
11
6.87853
21
-3.9262
0
LINE
8
BLACK
6
CONTINUOUS
10
6.87853
20
-3.9262
11
6.87913
21
-3.92921
0
LINE
8
BLACK
6
CONTINUOUS
10
6.87913
20
-3.92921
11
6.87913
21
-3.95087
0
LINE
8
BLACK
6
CONTINUOUS
10
6.87913
20
-3.95087
11
6.87853
21
-3.95388
0
LINE
8
BLACK
6
CONTINUOUS
10
6.87853
20
-3.95388
11
6.87683
21
-3.95643
0
LINE
8
BLACK
6
CONTINUOUS
10
6.87683
20
-3.95643
11
6.87427
21
-3.95814
0
LINE
8
BLACK
6
CONTINUOUS
10
6.87427
20
-3.95814
11
6.87126
21
-3.95874
0
LINE
8
BLACK
6
CONTINUOUS
10
6.87126
20
-3.95874
11
6.85551
21
-3.95874
0
LINE
8
BLACK
6
CONTINUOUS
10
6.85551
20
-3.95874
11
6.8525
21
-3.95814
0
LINE
8
BLACK
6
CONTINUOUS
10
6.8525
20
-3.95814
11
6.84994
21
-3.95643
0
LINE
8
BLACK
6
CONTINUOUS
10
6.84994
20
-3.95643
11
6.84824
21
-3.95388
0
LINE
8
BLACK
6
CONTINUOUS
10
6.84824
20
-3.95388
11
6.84764
21
-3.95087
0
LINE
8
BLACK
6
CONTINUOUS
10
6.84764
20
-3.95087
11
6.84764
21
-3.92921
0
LINE
8
BLACK
6
CONTINUOUS
10
6.84764
20
-3.92921
11
6.84824
21
-3.9262
0
LINE
8
BLACK
6
CONTINUOUS
10
6.84824
20
-3.9262
11
6.84994
21
-3.92364
0
LINE
8
BLACK
6
CONTINUOUS
10
6.84994
20
-3.92364
11
6.8525
21
-3.92194
0
LINE
8
BLACK
6
CONTINUOUS
10
6.8525
20
-3.92194
11
6.85551
21
-3.92134
0
LINE
8
BLACK
6
CONTINUOUS
10
6.85551
20
-3.92134
11
6.87126
21
-3.92134
0
LINE
8
BLACK
6
CONTINUOUS
10
6.87126
20
-3.92134
11
6.87427
21
-3.92194
0
LINE
8
BLACK
6
CONTINUOUS
10
6.93923
20
-3.92194
11
6.94179
21
-3.92364
0
LINE
8
BLACK
6
CONTINUOUS
10
6.94179
20
-3.92364
11
6.9435
21
-3.9262
0
LINE
8
BLACK
6
CONTINUOUS
10
6.9435
20
-3.9262
11
6.94409
21
-3.92921
0
LINE
8
BLACK
6
CONTINUOUS
10
6.94409
20
-3.92921
11
6.94409
21
-3.95087
0
LINE
8
BLACK
6
CONTINUOUS
10
6.94409
20
-3.95087
11
6.9435
21
-3.95388
0
LINE
8
BLACK
6
CONTINUOUS
10
6.9435
20
-3.95388
11
6.94179
21
-3.95643
0
LINE
8
BLACK
6
CONTINUOUS
10
6.94179
20
-3.95643
11
6.93923
21
-3.95814
0
LINE
8
BLACK
6
CONTINUOUS
10
6.93923
20
-3.95814
11
6.93622
21
-3.95874
0
LINE
8
BLACK
6
CONTINUOUS
10
6.93622
20
-3.95874
11
6.92047
21
-3.95874
0
LINE
8
BLACK
6
CONTINUOUS
10
6.92047
20
-3.95874
11
6.91746
21
-3.95814
0
LINE
8
BLACK
6
CONTINUOUS
10
6.91746
20
-3.95814
11
6.9149
21
-3.95643
0
LINE
8
BLACK
6
CONTINUOUS
10
6.9149
20
-3.95643
11
6.9132
21
-3.95388
0
LINE
8
BLACK
6
CONTINUOUS
10
6.9132
20
-3.95388
11
6.9126
21
-3.95087
0
LINE
8
BLACK
6
CONTINUOUS
10
6.9126
20
-3.95087
11
6.9126
21
-3.92921
0
LINE
8
BLACK
6
CONTINUOUS
10
6.9126
20
-3.92921
11
6.9132
21
-3.9262
0
LINE
8
BLACK
6
CONTINUOUS
10
6.9132
20
-3.9262
11
6.9149
21
-3.92364
0
LINE
8
BLACK
6
CONTINUOUS
10
6.9149
20
-3.92364
11
6.91746
21
-3.92194
0
LINE
8
BLACK
6
CONTINUOUS
10
6.91746
20
-3.92194
11
6.92047
21
-3.92134
0
LINE
8
BLACK
6
CONTINUOUS
10
6.92047
20
-3.92134
11
6.93622
21
-3.92134
0
LINE
8
BLACK
6
CONTINUOUS
10
6.93622
20
-3.92134
11
6.93923
21
-3.92194
0
LINE
8
BLACK
6
CONTINUOUS
10
6.03679
20
-3.94475
11
6.03759
21
-3.94529
0
LINE
8
BLACK
6
CONTINUOUS
10
6.03759
20
-3.94529
11
6.03812
21
-3.94609
0
LINE
8
BLACK
6
CONTINUOUS
10
6.03812
20
-3.94609
11
6.03831
21
-3.94703
0
LINE
8
BLACK
6
CONTINUOUS
10
6.03831
20
-3.94703
11
6.03831
21
-3.95195
0
LINE
8
BLACK
6
CONTINUOUS
10
6.03831
20
-3.95195
11
6.03812
21
-3.95289
0
LINE
8
BLACK
6
CONTINUOUS
10
6.03812
20
-3.95289
11
6.03759
21
-3.95369
0
LINE
8
BLACK
6
CONTINUOUS
10
6.03759
20
-3.95369
11
6.03679
21
-3.95422
0
LINE
8
BLACK
6
CONTINUOUS
10
6.03679
20
-3.95422
11
6.03585
21
-3.95441
0
LINE
8
BLACK
6
CONTINUOUS
10
6.03585
20
-3.95441
11
6.00829
21
-3.95441
0
LINE
8
BLACK
6
CONTINUOUS
10
6.00829
20
-3.95441
11
6.00735
21
-3.95422
0
LINE
8
BLACK
6
CONTINUOUS
10
6.00735
20
-3.95422
11
6.00655
21
-3.95369
0
LINE
8
BLACK
6
CONTINUOUS
10
6.00655
20
-3.95369
11
6.00601
21
-3.95289
0
LINE
8
BLACK
6
CONTINUOUS
10
6.00601
20
-3.95289
11
6.00583
21
-3.95195
0
LINE
8
BLACK
6
CONTINUOUS
10
6.00583
20
-3.95195
11
6.00583
21
-3.94703
0
LINE
8
BLACK
6
CONTINUOUS
10
6.00583
20
-3.94703
11
6.00601
21
-3.94609
0
LINE
8
BLACK
6
CONTINUOUS
10
6.00601
20
-3.94609
11
6.00655
21
-3.94529
0
LINE
8
BLACK
6
CONTINUOUS
10
6.00655
20
-3.94529
11
6.00735
21
-3.94475
0
LINE
8
BLACK
6
CONTINUOUS
10
6.00735
20
-3.94475
11
6.00829
21
-3.94457
0
LINE
8
BLACK
6
CONTINUOUS
10
6.00829
20
-3.94457
11
6.03585
21
-3.94457
0
LINE
8
BLACK
6
CONTINUOUS
10
6.03585
20
-3.94457
11
6.03679
21
-3.94475
0
LINE
8
BLACK
6
CONTINUOUS
10
6.18935
20
-3.94475
11
6.19015
21
-3.94529
0
LINE
8
BLACK
6
CONTINUOUS
10
6.19015
20
-3.94529
11
6.19068
21
-3.94609
0
LINE
8
BLACK
6
CONTINUOUS
10
6.19068
20
-3.94609
11
6.19087
21
-3.94703
0
LINE
8
BLACK
6
CONTINUOUS
10
6.19087
20
-3.94703
11
6.19087
21
-3.95195
0
LINE
8
BLACK
6
CONTINUOUS
10
6.19087
20
-3.95195
11
6.19068
21
-3.95289
0
LINE
8
BLACK
6
CONTINUOUS
10
6.19068
20
-3.95289
11
6.19015
21
-3.95369
0
LINE
8
BLACK
6
CONTINUOUS
10
6.19015
20
-3.95369
11
6.18935
21
-3.95422
0
LINE
8
BLACK
6
CONTINUOUS
10
6.18935
20
-3.95422
11
6.18841
21
-3.95441
0
LINE
8
BLACK
6
CONTINUOUS
10
6.18841
20
-3.95441
11
6.16085
21
-3.95441
0
LINE
8
BLACK
6
CONTINUOUS
10
6.16085
20
-3.95441
11
6.1599
21
-3.95422
0
LINE
8
BLACK
6
CONTINUOUS
10
6.1599
20
-3.95422
11
6.15911
21
-3.95369
0
LINE
8
BLACK
6
CONTINUOUS
10
6.15911
20
-3.95369
11
6.15857
21
-3.95289
0
LINE
8
BLACK
6
CONTINUOUS
10
6.15857
20
-3.95289
11
6.15839
21
-3.95195
0
LINE
8
BLACK
6
CONTINUOUS
10
6.15839
20
-3.95195
11
6.15839
21
-3.94703
0
LINE
8
BLACK
6
CONTINUOUS
10
6.15839
20
-3.94703
11
6.15857
21
-3.94609
0
LINE
8
BLACK
6
CONTINUOUS
10
6.15857
20
-3.94609
11
6.15911
21
-3.94529
0
LINE
8
BLACK
6
CONTINUOUS
10
6.15911
20
-3.94529
11
6.1599
21
-3.94475
0
LINE
8
BLACK
6
CONTINUOUS
10
6.1599
20
-3.94475
11
6.16085
21
-3.94457
0
LINE
8
BLACK
6
CONTINUOUS
10
6.16085
20
-3.94457
11
6.18841
21
-3.94457
0
LINE
8
BLACK
6
CONTINUOUS
10
6.18841
20
-3.94457
11
6.18935
21
-3.94475
0
LINE
8
BLACK
6
CONTINUOUS
10
5.66619
20
-3.94555
11
5.62091
21
-3.94555
0
LINE
8
BLACK
6
CONTINUOUS
10
5.62091
20
-3.94555
11
5.62091
21
-3.93374
0
LINE
8
BLACK
6
CONTINUOUS
10
5.62091
20
-3.93374
11
5.66619
21
-3.93374
0
LINE
8
BLACK
6
CONTINUOUS
10
5.66619
20
-3.93374
11
5.66619
21
-3.94555
0
LINE
8
BLACK
6
CONTINUOUS
10
6.08755
20
-3.90575
11
6.09074
21
-3.90788
0
LINE
8
BLACK
6
CONTINUOUS
10
6.09074
20
-3.90788
11
6.09287
21
-3.91108
0
LINE
8
BLACK
6
CONTINUOUS
10
6.09287
20
-3.91108
11
6.09362
21
-3.91484
0
LINE
8
BLACK
6
CONTINUOUS
10
6.09362
20
-3.91484
11
6.09362
21
-3.93492
0
LINE
8
BLACK
6
CONTINUOUS
10
6.09362
20
-3.93492
11
6.09287
21
-3.93869
0
LINE
8
BLACK
6
CONTINUOUS
10
6.09287
20
-3.93869
11
6.09074
21
-3.94188
0
LINE
8
BLACK
6
CONTINUOUS
10
6.09074
20
-3.94188
11
6.08755
21
-3.94401
0
LINE
8
BLACK
6
CONTINUOUS
10
6.08755
20
-3.94401
11
6.08378
21
-3.94476
0
LINE
8
BLACK
6
CONTINUOUS
10
6.08378
20
-3.94476
11
6.0637
21
-3.94476
0
LINE
8
BLACK
6
CONTINUOUS
10
6.0637
20
-3.94476
11
6.05993
21
-3.94401
0
LINE
8
BLACK
6
CONTINUOUS
10
6.05993
20
-3.94401
11
6.05674
21
-3.94188
0
LINE
8
BLACK
6
CONTINUOUS
10
6.05674
20
-3.94188
11
6.05461
21
-3.93869
0
LINE
8
BLACK
6
CONTINUOUS
10
6.05461
20
-3.93869
11
6.05386
21
-3.93492
0
LINE
8
BLACK
6
CONTINUOUS
10
6.05386
20
-3.93492
11
6.05386
21
-3.91484
0
LINE
8
BLACK
6
CONTINUOUS
10
6.05386
20
-3.91484
11
6.05461
21
-3.91108
0
LINE
8
BLACK
6
CONTINUOUS
10
6.05461
20
-3.91108
11
6.05674
21
-3.90788
0
LINE
8
BLACK
6
CONTINUOUS
10
6.05674
20
-3.90788
11
6.05993
21
-3.90575
0
LINE
8
BLACK
6
CONTINUOUS
10
6.05993
20
-3.90575
11
6.0637
21
-3.905
0
LINE
8
BLACK
6
CONTINUOUS
10
6.0637
20
-3.905
11
6.08378
21
-3.905
0
LINE
8
BLACK
6
CONTINUOUS
10
6.08378
20
-3.905
11
6.08755
21
-3.90575
0
LINE
8
BLACK
6
CONTINUOUS
10
6.13676
20
-3.90575
11
6.13995
21
-3.90788
0
LINE
8
BLACK
6
CONTINUOUS
10
6.13995
20
-3.90788
11
6.14209
21
-3.91108
0
LINE
8
BLACK
6
CONTINUOUS
10
6.14209
20
-3.91108
11
6.14283
21
-3.91484
0
LINE
8
BLACK
6
CONTINUOUS
10
6.14283
20
-3.91484
11
6.14283
21
-3.93492
0
LINE
8
BLACK
6
CONTINUOUS
10
6.14283
20
-3.93492
11
6.14209
21
-3.93869
0
LINE
8
BLACK
6
CONTINUOUS
10
6.14209
20
-3.93869
11
6.13995
21
-3.94188
0
LINE
8
BLACK
6
CONTINUOUS
10
6.13995
20
-3.94188
11
6.13676
21
-3.94401
0
LINE
8
BLACK
6
CONTINUOUS
10
6.13676
20
-3.94401
11
6.13299
21
-3.94476
0
LINE
8
BLACK
6
CONTINUOUS
10
6.13299
20
-3.94476
11
6.11291
21
-3.94476
0
LINE
8
BLACK
6
CONTINUOUS
10
6.11291
20
-3.94476
11
6.10915
21
-3.94401
0
LINE
8
BLACK
6
CONTINUOUS
10
6.10915
20
-3.94401
11
6.10595
21
-3.94188
0
LINE
8
BLACK
6
CONTINUOUS
10
6.10595
20
-3.94188
11
6.10382
21
-3.93869
0
LINE
8
BLACK
6
CONTINUOUS
10
6.10382
20
-3.93869
11
6.10307
21
-3.93492
0
LINE
8
BLACK
6
CONTINUOUS
10
6.10307
20
-3.93492
11
6.10307
21
-3.91484
0
LINE
8
BLACK
6
CONTINUOUS
10
6.10307
20
-3.91484
11
6.10382
21
-3.91108
0
LINE
8
BLACK
6
CONTINUOUS
10
6.10382
20
-3.91108
11
6.10595
21
-3.90788
0
LINE
8
BLACK
6
CONTINUOUS
10
6.10595
20
-3.90788
11
6.10915
21
-3.90575
0
LINE
8
BLACK
6
CONTINUOUS
10
6.10915
20
-3.90575
11
6.11291
21
-3.905
0
LINE
8
BLACK
6
CONTINUOUS
10
6.11291
20
-3.905
11
6.13299
21
-3.905
0
LINE
8
BLACK
6
CONTINUOUS
10
6.13299
20
-3.905
11
6.13676
21
-3.90575
0
LINE
8
BLACK
6
CONTINUOUS
10
6.03679
20
-3.92507
11
6.03759
21
-3.9256
0
LINE
8
BLACK
6
CONTINUOUS
10
6.03759
20
-3.9256
11
6.03812
21
-3.9264
0
LINE
8
BLACK
6
CONTINUOUS
10
6.03812
20
-3.9264
11
6.03831
21
-3.92734
0
LINE
8
BLACK
6
CONTINUOUS
10
6.03831
20
-3.92734
11
6.03831
21
-3.93226
0
LINE
8
BLACK
6
CONTINUOUS
10
6.03831
20
-3.93226
11
6.03812
21
-3.93321
0
LINE
8
BLACK
6
CONTINUOUS
10
6.03812
20
-3.93321
11
6.03759
21
-3.934
0
LINE
8
BLACK
6
CONTINUOUS
10
6.03759
20
-3.934
11
6.03679
21
-3.93454
0
LINE
8
BLACK
6
CONTINUOUS
10
6.03679
20
-3.93454
11
6.03585
21
-3.93472
0
LINE
8
BLACK
6
CONTINUOUS
10
6.03585
20
-3.93472
11
6.00829
21
-3.93472
0
LINE
8
BLACK
6
CONTINUOUS
10
6.00829
20
-3.93472
11
6.00735
21
-3.93454
0
LINE
8
BLACK
6
CONTINUOUS
10
6.00735
20
-3.93454
11
6.00655
21
-3.934
0
LINE
8
BLACK
6
CONTINUOUS
10
6.00655
20
-3.934
11
6.00601
21
-3.93321
0
LINE
8
BLACK
6
CONTINUOUS
10
6.00601
20
-3.93321
11
6.00583
21
-3.93226
0
LINE
8
BLACK
6
CONTINUOUS
10
6.00583
20
-3.93226
11
6.00583
21
-3.92734
0
LINE
8
BLACK
6
CONTINUOUS
10
6.00583
20
-3.92734
11
6.00601
21
-3.9264
0
LINE
8
BLACK
6
CONTINUOUS
10
6.00601
20
-3.9264
11
6.00655
21
-3.9256
0
LINE
8
BLACK
6
CONTINUOUS
10
6.00655
20
-3.9256
11
6.00735
21
-3.92507
0
LINE
8
BLACK
6
CONTINUOUS
10
6.00735
20
-3.92507
11
6.00829
21
-3.92488
0
LINE
8
BLACK
6
CONTINUOUS
10
6.00829
20
-3.92488
11
6.03585
21
-3.92488
0
LINE
8
BLACK
6
CONTINUOUS
10
6.03585
20
-3.92488
11
6.03679
21
-3.92507
0
LINE
8
BLACK
6
CONTINUOUS
10
6.18935
20
-3.92507
11
6.19015
21
-3.9256
0
LINE
8
BLACK
6
CONTINUOUS
10
6.19015
20
-3.9256
11
6.19068
21
-3.9264
0
LINE
8
BLACK
6
CONTINUOUS
10
6.19068
20
-3.9264
11
6.19087
21
-3.92734
0
LINE
8
BLACK
6
CONTINUOUS
10
6.19087
20
-3.92734
11
6.19087
21
-3.93226
0
LINE
8
BLACK
6
CONTINUOUS
10
6.19087
20
-3.93226
11
6.19068
21
-3.93321
0
LINE
8
BLACK
6
CONTINUOUS
10
6.19068
20
-3.93321
11
6.19015
21
-3.934
0
LINE
8
BLACK
6
CONTINUOUS
10
6.19015
20
-3.934
11
6.18935
21
-3.93454
0
LINE
8
BLACK
6
CONTINUOUS
10
6.18935
20
-3.93454
11
6.18841
21
-3.93472
0
LINE
8
BLACK
6
CONTINUOUS
10
6.18841
20
-3.93472
11
6.16085
21
-3.93472
0
LINE
8
BLACK
6
CONTINUOUS
10
6.16085
20
-3.93472
11
6.1599
21
-3.93454
0
LINE
8
BLACK
6
CONTINUOUS
10
6.1599
20
-3.93454
11
6.15911
21
-3.934
0
LINE
8
BLACK
6
CONTINUOUS
10
6.15911
20
-3.934
11
6.15857
21
-3.93321
0
LINE
8
BLACK
6
CONTINUOUS
10
6.15857
20
-3.93321
11
6.15839
21
-3.93226
0
LINE
8
BLACK
6
CONTINUOUS
10
6.15839
20
-3.93226
11
6.15839
21
-3.92734
0
LINE
8
BLACK
6
CONTINUOUS
10
6.15839
20
-3.92734
11
6.15857
21
-3.9264
0
LINE
8
BLACK
6
CONTINUOUS
10
6.15857
20
-3.9264
11
6.15911
21
-3.9256
0
LINE
8
BLACK
6
CONTINUOUS
10
6.15911
20
-3.9256
11
6.1599
21
-3.92507
0
LINE
8
BLACK
6
CONTINUOUS
10
6.1599
20
-3.92507
11
6.16085
21
-3.92488
0
LINE
8
BLACK
6
CONTINUOUS
10
6.16085
20
-3.92488
11
6.18841
21
-3.92488
0
LINE
8
BLACK
6
CONTINUOUS
10
6.18841
20
-3.92488
11
6.18935
21
-3.92507
0
LINE
8
BLACK
6
CONTINUOUS
10
5.66619
20
-3.92587
11
5.62091
21
-3.92587
0
LINE
8
BLACK
6
CONTINUOUS
10
5.62091
20
-3.92587
11
5.62091
21
-3.91406
0
LINE
8
BLACK
6
CONTINUOUS
10
5.62091
20
-3.91406
11
5.66619
21
-3.91406
0
LINE
8
BLACK
6
CONTINUOUS
10
5.66619
20
-3.91406
11
5.66619
21
-3.92587
0
LINE
8
BLACK
6
CONTINUOUS
10
5.851
20
-3.90073
11
5.85292
21
-3.90201
0
LINE
8
BLACK
6
CONTINUOUS
10
5.85292
20
-3.90201
11
5.8542
21
-3.90392
0
LINE
8
BLACK
6
CONTINUOUS
10
5.8542
20
-3.90392
11
5.85465
21
-3.90618
0
LINE
8
BLACK
6
CONTINUOUS
10
5.85465
20
-3.90618
11
5.85465
21
-3.91799
0
LINE
8
BLACK
6
CONTINUOUS
10
5.85465
20
-3.91799
11
5.8542
21
-3.92025
0
LINE
8
BLACK
6
CONTINUOUS
10
5.8542
20
-3.92025
11
5.85292
21
-3.92217
0
LINE
8
BLACK
6
CONTINUOUS
10
5.85292
20
-3.92217
11
5.851
21
-3.92345
0
LINE
8
BLACK
6
CONTINUOUS
10
5.851
20
-3.92345
11
5.84874
21
-3.9239
0
LINE
8
BLACK
6
CONTINUOUS
10
5.84874
20
-3.9239
11
5.80839
21
-3.9239
0
LINE
8
BLACK
6
CONTINUOUS
10
5.80839
20
-3.9239
11
5.80613
21
-3.92345
0
LINE
8
BLACK
6
CONTINUOUS
10
5.80613
20
-3.92345
11
5.80421
21
-3.92217
0
LINE
8
BLACK
6
CONTINUOUS
10
5.80421
20
-3.92217
11
5.80293
21
-3.92025
0
LINE
8
BLACK
6
CONTINUOUS
10
5.80293
20
-3.92025
11
5.80248
21
-3.91799
0
LINE
8
BLACK
6
CONTINUOUS
10
5.80248
20
-3.91799
11
5.80248
21
-3.90618
0
LINE
8
BLACK
6
CONTINUOUS
10
5.80248
20
-3.90618
11
5.80293
21
-3.90392
0
LINE
8
BLACK
6
CONTINUOUS
10
5.80293
20
-3.90392
11
5.80421
21
-3.90201
0
LINE
8
BLACK
6
CONTINUOUS
10
5.80421
20
-3.90201
11
5.80613
21
-3.90073
0
LINE
8
BLACK
6
CONTINUOUS
10
5.80613
20
-3.90073
11
5.80839
21
-3.90028
0
LINE
8
BLACK
6
CONTINUOUS
10
5.80839
20
-3.90028
11
5.84874
21
-3.90028
0
LINE
8
BLACK
6
CONTINUOUS
10
5.84874
20
-3.90028
11
5.851
21
-3.90073
0
LINE
8
BLACK
6
CONTINUOUS
10
5.94057
20
-3.90073
11
5.94248
21
-3.90201
0
LINE
8
BLACK
6
CONTINUOUS
10
5.94248
20
-3.90201
11
5.94376
21
-3.90392
0
LINE
8
BLACK
6
CONTINUOUS
10
5.94376
20
-3.90392
11
5.94421
21
-3.90618
0
LINE
8
BLACK
6
CONTINUOUS
10
5.94421
20
-3.90618
11
5.94421
21
-3.91799
0
LINE
8
BLACK
6
CONTINUOUS
10
5.94421
20
-3.91799
11
5.94376
21
-3.92025
0
LINE
8
BLACK
6
CONTINUOUS
10
5.94376
20
-3.92025
11
5.94248
21
-3.92217
0
LINE
8
BLACK
6
CONTINUOUS
10
5.94248
20
-3.92217
11
5.94057
21
-3.92345
0
LINE
8
BLACK
6
CONTINUOUS
10
5.94057
20
-3.92345
11
5.93831
21
-3.9239
0
LINE
8
BLACK
6
CONTINUOUS
10
5.93831
20
-3.9239
11
5.89795
21
-3.9239
0
LINE
8
BLACK
6
CONTINUOUS
10
5.89795
20
-3.9239
11
5.89569
21
-3.92345
0
LINE
8
BLACK
6
CONTINUOUS
10
5.89569
20
-3.92345
11
5.89378
21
-3.92217
0
LINE
8
BLACK
6
CONTINUOUS
10
5.89378
20
-3.92217
11
5.8925
21
-3.92025
0
LINE
8
BLACK
6
CONTINUOUS
10
5.8925
20
-3.92025
11
5.89205
21
-3.91799
0
LINE
8
BLACK
6
CONTINUOUS
10
5.89205
20
-3.91799
11
5.89205
21
-3.90618
0
LINE
8
BLACK
6
CONTINUOUS
10
5.89205
20
-3.90618
11
5.8925
21
-3.90392
0
LINE
8
BLACK
6
CONTINUOUS
10
5.8925
20
-3.90392
11
5.89378
21
-3.90201
0
LINE
8
BLACK
6
CONTINUOUS
10
5.89378
20
-3.90201
11
5.89569
21
-3.90073
0
LINE
8
BLACK
6
CONTINUOUS
10
5.89569
20
-3.90073
11
5.89795
21
-3.90028
0
LINE
8
BLACK
6
CONTINUOUS
10
5.89795
20
-3.90028
11
5.93831
21
-3.90028
0
LINE
8
BLACK
6
CONTINUOUS
10
5.93831
20
-3.90028
11
5.94057
21
-3.90073
0
LINE
8
BLACK
6
CONTINUOUS
10
6.03679
20
-3.90538
11
6.03759
21
-3.90592
0
LINE
8
BLACK
6
CONTINUOUS
10
6.03759
20
-3.90592
11
6.03812
21
-3.90672
0
LINE
8
BLACK
6
CONTINUOUS
10
6.03812
20
-3.90672
11
6.03831
21
-3.90766
0
LINE
8
BLACK
6
CONTINUOUS
10
6.03831
20
-3.90766
11
6.03831
21
-3.91258
0
LINE
8
BLACK
6
CONTINUOUS
10
6.03831
20
-3.91258
11
6.03812
21
-3.91352
0
LINE
8
BLACK
6
CONTINUOUS
10
6.03812
20
-3.91352
11
6.03759
21
-3.91432
0
LINE
8
BLACK
6
CONTINUOUS
10
6.03759
20
-3.91432
11
6.03679
21
-3.91485
0
LINE
8
BLACK
6
CONTINUOUS
10
6.03679
20
-3.91485
11
6.03585
21
-3.91504
0
LINE
8
BLACK
6
CONTINUOUS
10
6.03585
20
-3.91504
11
6.00829
21
-3.91504
0
LINE
8
BLACK
6
CONTINUOUS
10
6.00829
20
-3.91504
11
6.00735
21
-3.91485
0
LINE
8
BLACK
6
CONTINUOUS
10
6.00735
20
-3.91485
11
6.00655
21
-3.91432
0
LINE
8
BLACK
6
CONTINUOUS
10
6.00655
20
-3.91432
11
6.00601
21
-3.91352
0
LINE
8
BLACK
6
CONTINUOUS
10
6.00601
20
-3.91352
11
6.00583
21
-3.91258
0
LINE
8
BLACK
6
CONTINUOUS
10
6.00583
20
-3.91258
11
6.00583
21
-3.90766
0
LINE
8
BLACK
6
CONTINUOUS
10
6.00583
20
-3.90766
11
6.00601
21
-3.90672
0
LINE
8
BLACK
6
CONTINUOUS
10
6.00601
20
-3.90672
11
6.00655
21
-3.90592
0
LINE
8
BLACK
6
CONTINUOUS
10
6.00655
20
-3.90592
11
6.00735
21
-3.90538
0
LINE
8
BLACK
6
CONTINUOUS
10
6.00735
20
-3.90538
11
6.00829
21
-3.9052
0
LINE
8
BLACK
6
CONTINUOUS
10
6.00829
20
-3.9052
11
6.03585
21
-3.9052
0
LINE
8
BLACK
6
CONTINUOUS
10
6.03585
20
-3.9052
11
6.03679
21
-3.90538
0
LINE
8
BLACK
6
CONTINUOUS
10
6.18935
20
-3.90538
11
6.19015
21
-3.90592
0
LINE
8
BLACK
6
CONTINUOUS
10
6.19015
20
-3.90592
11
6.19068
21
-3.90672
0
LINE
8
BLACK
6
CONTINUOUS
10
6.19068
20
-3.90672
11
6.19087
21
-3.90766
0
LINE
8
BLACK
6
CONTINUOUS
10
6.19087
20
-3.90766
11
6.19087
21
-3.91258
0
LINE
8
BLACK
6
CONTINUOUS
10
6.19087
20
-3.91258
11
6.19068
21
-3.91352
0
LINE
8
BLACK
6
CONTINUOUS
10
6.19068
20
-3.91352
11
6.19015
21
-3.91432
0
LINE
8
BLACK
6
CONTINUOUS
10
6.19015
20
-3.91432
11
6.18935
21
-3.91485
0
LINE
8
BLACK
6
CONTINUOUS
10
6.18935
20
-3.91485
11
6.18841
21
-3.91504
0
LINE
8
BLACK
6
CONTINUOUS
10
6.18841
20
-3.91504
11
6.16085
21
-3.91504
0
LINE
8
BLACK
6
CONTINUOUS
10
6.16085
20
-3.91504
11
6.1599
21
-3.91485
0
LINE
8
BLACK
6
CONTINUOUS
10
6.1599
20
-3.91485
11
6.15911
21
-3.91432
0
LINE
8
BLACK
6
CONTINUOUS
10
6.15911
20
-3.91432
11
6.15857
21
-3.91352
0
LINE
8
BLACK
6
CONTINUOUS
10
6.15857
20
-3.91352
11
6.15839
21
-3.91258
0
LINE
8
BLACK
6
CONTINUOUS
10
6.15839
20
-3.91258
11
6.15839
21
-3.90766
0
LINE
8
BLACK
6
CONTINUOUS
10
6.15839
20
-3.90766
11
6.15857
21
-3.90672
0
LINE
8
BLACK
6
CONTINUOUS
10
6.15857
20
-3.90672
11
6.15911
21
-3.90592
0
LINE
8
BLACK
6
CONTINUOUS
10
6.15911
20
-3.90592
11
6.1599
21
-3.90538
0
LINE
8
BLACK
6
CONTINUOUS
10
6.1599
20
-3.90538
11
6.16085
21
-3.9052
0
LINE
8
BLACK
6
CONTINUOUS
10
6.16085
20
-3.9052
11
6.18841
21
-3.9052
0
LINE
8
BLACK
6
CONTINUOUS
10
6.18841
20
-3.9052
11
6.18935
21
-3.90538
0
LINE
8
BLACK
6
CONTINUOUS
10
5.66619
20
-3.90618
11
5.62091
21
-3.90618
0
LINE
8
BLACK
6
CONTINUOUS
10
5.62091
20
-3.90618
11
5.62091
21
-3.89437
0
LINE
8
BLACK
6
CONTINUOUS
10
5.62091
20
-3.89437
11
5.66619
21
-3.89437
0
LINE
8
BLACK
6
CONTINUOUS
10
5.66619
20
-3.89437
11
5.66619
21
-3.90618
0
LINE
8
BLACK
6
CONTINUOUS
10
6.06238
20
-3.85716
11
6.06318
21
-3.85769
0
LINE
8
BLACK
6
CONTINUOUS
10
6.06318
20
-3.85769
11
6.06371
21
-3.85849
0
LINE
8
BLACK
6
CONTINUOUS
10
6.06371
20
-3.85849
11
6.0639
21
-3.85943
0
LINE
8
BLACK
6
CONTINUOUS
10
6.0639
20
-3.85943
11
6.0639
21
-3.88699
0
LINE
8
BLACK
6
CONTINUOUS
10
6.0639
20
-3.88699
11
6.06371
21
-3.88793
0
LINE
8
BLACK
6
CONTINUOUS
10
6.06371
20
-3.88793
11
6.06318
21
-3.88873
0
LINE
8
BLACK
6
CONTINUOUS
10
6.06318
20
-3.88873
11
6.06238
21
-3.88926
0
LINE
8
BLACK
6
CONTINUOUS
10
6.06238
20
-3.88926
11
6.06144
21
-3.88945
0
LINE
8
BLACK
6
CONTINUOUS
10
6.06144
20
-3.88945
11
6.05652
21
-3.88945
0
LINE
8
BLACK
6
CONTINUOUS
10
6.05652
20
-3.88945
11
6.05557
21
-3.88926
0
LINE
8
BLACK
6
CONTINUOUS
10
6.05557
20
-3.88926
11
6.05478
21
-3.88873
0
LINE
8
BLACK
6
CONTINUOUS
10
6.05478
20
-3.88873
11
6.05424
21
-3.88793
0
LINE
8
BLACK
6
CONTINUOUS
10
6.05424
20
-3.88793
11
6.05406
21
-3.88699
0
LINE
8
BLACK
6
CONTINUOUS
10
6.05406
20
-3.88699
11
6.05406
21
-3.85943
0
LINE
8
BLACK
6
CONTINUOUS
10
6.05406
20
-3.85943
11
6.05424
21
-3.85849
0
LINE
8
BLACK
6
CONTINUOUS
10
6.05424
20
-3.85849
11
6.05478
21
-3.85769
0
LINE
8
BLACK
6
CONTINUOUS
10
6.05478
20
-3.85769
11
6.05557
21
-3.85716
0
LINE
8
BLACK
6
CONTINUOUS
10
6.05557
20
-3.85716
11
6.05652
21
-3.85697
0
LINE
8
BLACK
6
CONTINUOUS
10
6.05652
20
-3.85697
11
6.06144
21
-3.85697
0
LINE
8
BLACK
6
CONTINUOUS
10
6.06144
20
-3.85697
11
6.06238
21
-3.85716
0
LINE
8
BLACK
6
CONTINUOUS
10
6.08206
20
-3.85716
11
6.08286
21
-3.85769
0
LINE
8
BLACK
6
CONTINUOUS
10
6.08286
20
-3.85769
11
6.0834
21
-3.85849
0
LINE
8
BLACK
6
CONTINUOUS
10
6.0834
20
-3.85849
11
6.08358
21
-3.85943
0
LINE
8
BLACK
6
CONTINUOUS
10
6.08358
20
-3.85943
11
6.08358
21
-3.88699
0
LINE
8
BLACK
6
CONTINUOUS
10
6.08358
20
-3.88699
11
6.0834
21
-3.88793
0
LINE
8
BLACK
6
CONTINUOUS
10
6.0834
20
-3.88793
11
6.08286
21
-3.88873
0
LINE
8
BLACK
6
CONTINUOUS
10
6.08286
20
-3.88873
11
6.08206
21
-3.88926
0
LINE
8
BLACK
6
CONTINUOUS
10
6.08206
20
-3.88926
11
6.08112
21
-3.88945
0
LINE
8
BLACK
6
CONTINUOUS
10
6.08112
20
-3.88945
11
6.0762
21
-3.88945
0
LINE
8
BLACK
6
CONTINUOUS
10
6.0762
20
-3.88945
11
6.07526
21
-3.88926
0
LINE
8
BLACK
6
CONTINUOUS
10
6.07526
20
-3.88926
11
6.07446
21
-3.88873
0
LINE
8
BLACK
6
CONTINUOUS
10
6.07446
20
-3.88873
11
6.07393
21
-3.88793
0
LINE
8
BLACK
6
CONTINUOUS
10
6.07393
20
-3.88793
11
6.07374
21
-3.88699
0
LINE
8
BLACK
6
CONTINUOUS
10
6.07374
20
-3.88699
11
6.07374
21
-3.85943
0
LINE
8
BLACK
6
CONTINUOUS
10
6.07374
20
-3.85943
11
6.07393
21
-3.85849
0
LINE
8
BLACK
6
CONTINUOUS
10
6.07393
20
-3.85849
11
6.07446
21
-3.85769
0
LINE
8
BLACK
6
CONTINUOUS
10
6.07446
20
-3.85769
11
6.07526
21
-3.85716
0
LINE
8
BLACK
6
CONTINUOUS
10
6.07526
20
-3.85716
11
6.0762
21
-3.85697
0
LINE
8
BLACK
6
CONTINUOUS
10
6.0762
20
-3.85697
11
6.08112
21
-3.85697
0
LINE
8
BLACK
6
CONTINUOUS
10
6.08112
20
-3.85697
11
6.08206
21
-3.85716
0
LINE
8
BLACK
6
CONTINUOUS
10
6.10175
20
-3.85716
11
6.10255
21
-3.85769
0
LINE
8
BLACK
6
CONTINUOUS
10
6.10255
20
-3.85769
11
6.10308
21
-3.85849
0
LINE
8
BLACK
6
CONTINUOUS
10
6.10308
20
-3.85849
11
6.10327
21
-3.85943
0
LINE
8
BLACK
6
CONTINUOUS
10
6.10327
20
-3.85943
11
6.10327
21
-3.88699
0
LINE
8
BLACK
6
CONTINUOUS
10
6.10327
20
-3.88699
11
6.10308
21
-3.88793
0
LINE
8
BLACK
6
CONTINUOUS
10
6.10308
20
-3.88793
11
6.10255
21
-3.88873
0
LINE
8
BLACK
6
CONTINUOUS
10
6.10255
20
-3.88873
11
6.10175
21
-3.88926
0
LINE
8
BLACK
6
CONTINUOUS
10
6.10175
20
-3.88926
11
6.10081
21
-3.88945
0
LINE
8
BLACK
6
CONTINUOUS
10
6.10081
20
-3.88945
11
6.09589
21
-3.88945
0
LINE
8
BLACK
6
CONTINUOUS
10
6.09589
20
-3.88945
11
6.09494
21
-3.88926
0
LINE
8
BLACK
6
CONTINUOUS
10
6.09494
20
-3.88926
11
6.09415
21
-3.88873
0
LINE
8
BLACK
6
CONTINUOUS
10
6.09415
20
-3.88873
11
6.09361
21
-3.88793
0
LINE
8
BLACK
6
CONTINUOUS
10
6.09361
20
-3.88793
11
6.09343
21
-3.88699
0
LINE
8
BLACK
6
CONTINUOUS
10
6.09343
20
-3.88699
11
6.09343
21
-3.85943
0
LINE
8
BLACK
6
CONTINUOUS
10
6.09343
20
-3.85943
11
6.09361
21
-3.85849
0
LINE
8
BLACK
6
CONTINUOUS
10
6.09361
20
-3.85849
11
6.09415
21
-3.85769
0
LINE
8
BLACK
6
CONTINUOUS
10
6.09415
20
-3.85769
11
6.09494
21
-3.85716
0
LINE
8
BLACK
6
CONTINUOUS
10
6.09494
20
-3.85716
11
6.09589
21
-3.85697
0
LINE
8
BLACK
6
CONTINUOUS
10
6.09589
20
-3.85697
11
6.10081
21
-3.85697
0
LINE
8
BLACK
6
CONTINUOUS
10
6.10081
20
-3.85697
11
6.10175
21
-3.85716
0
LINE
8
BLACK
6
CONTINUOUS
10
6.12143
20
-3.85716
11
6.12223
21
-3.85769
0
LINE
8
BLACK
6
CONTINUOUS
10
6.12223
20
-3.85769
11
6.12277
21
-3.85849
0
LINE
8
BLACK
6
CONTINUOUS
10
6.12277
20
-3.85849
11
6.12295
21
-3.85943
0
LINE
8
BLACK
6
CONTINUOUS
10
6.12295
20
-3.85943
11
6.12295
21
-3.88699
0
LINE
8
BLACK
6
CONTINUOUS
10
6.12295
20
-3.88699
11
6.12277
21
-3.88793
0
LINE
8
BLACK
6
CONTINUOUS
10
6.12277
20
-3.88793
11
6.12223
21
-3.88873
0
LINE
8
BLACK
6
CONTINUOUS
10
6.12223
20
-3.88873
11
6.12143
21
-3.88926
0
LINE
8
BLACK
6
CONTINUOUS
10
6.12143
20
-3.88926
11
6.12049
21
-3.88945
0
LINE
8
BLACK
6
CONTINUOUS
10
6.12049
20
-3.88945
11
6.11557
21
-3.88945
0
LINE
8
BLACK
6
CONTINUOUS
10
6.11557
20
-3.88945
11
6.11463
21
-3.88926
0
LINE
8
BLACK
6
CONTINUOUS
10
6.11463
20
-3.88926
11
6.11383
21
-3.88873
0
LINE
8
BLACK
6
CONTINUOUS
10
6.11383
20
-3.88873
11
6.1133
21
-3.88793
0
LINE
8
BLACK
6
CONTINUOUS
10
6.1133
20
-3.88793
11
6.11311
21
-3.88699
0
LINE
8
BLACK
6
CONTINUOUS
10
6.11311
20
-3.88699
11
6.11311
21
-3.85943
0
LINE
8
BLACK
6
CONTINUOUS
10
6.11311
20
-3.85943
11
6.1133
21
-3.85849
0
LINE
8
BLACK
6
CONTINUOUS
10
6.1133
20
-3.85849
11
6.11383
21
-3.85769
0
LINE
8
BLACK
6
CONTINUOUS
10
6.11383
20
-3.85769
11
6.11463
21
-3.85716
0
LINE
8
BLACK
6
CONTINUOUS
10
6.11463
20
-3.85716
11
6.11557
21
-3.85697
0
LINE
8
BLACK
6
CONTINUOUS
10
6.11557
20
-3.85697
11
6.12049
21
-3.85697
0
LINE
8
BLACK
6
CONTINUOUS
10
6.12049
20
-3.85697
11
6.12143
21
-3.85716
0
LINE
8
BLACK
6
CONTINUOUS
10
6.14112
20
-3.85716
11
6.14192
21
-3.85769
0
LINE
8
BLACK
6
CONTINUOUS
10
6.14192
20
-3.85769
11
6.14245
21
-3.85849
0
LINE
8
BLACK
6
CONTINUOUS
10
6.14245
20
-3.85849
11
6.14264
21
-3.85943
0
LINE
8
BLACK
6
CONTINUOUS
10
6.14264
20
-3.85943
11
6.14264
21
-3.88699
0
LINE
8
BLACK
6
CONTINUOUS
10
6.14264
20
-3.88699
11
6.14245
21
-3.88793
0
LINE
8
BLACK
6
CONTINUOUS
10
6.14245
20
-3.88793
11
6.14192
21
-3.88873
0
LINE
8
BLACK
6
CONTINUOUS
10
6.14192
20
-3.88873
11
6.14112
21
-3.88926
0
LINE
8
BLACK
6
CONTINUOUS
10
6.14112
20
-3.88926
11
6.14018
21
-3.88945
0
LINE
8
BLACK
6
CONTINUOUS
10
6.14018
20
-3.88945
11
6.13526
21
-3.88945
0
LINE
8
BLACK
6
CONTINUOUS
10
6.13526
20
-3.88945
11
6.13431
21
-3.88926
0
LINE
8
BLACK
6
CONTINUOUS
10
6.13431
20
-3.88926
11
6.13352
21
-3.88873
0
LINE
8
BLACK
6
CONTINUOUS
10
6.13352
20
-3.88873
11
6.13298
21
-3.88793
0
LINE
8
BLACK
6
CONTINUOUS
10
6.13298
20
-3.88793
11
6.1328
21
-3.88699
0
LINE
8
BLACK
6
CONTINUOUS
10
6.1328
20
-3.88699
11
6.1328
21
-3.85943
0
LINE
8
BLACK
6
CONTINUOUS
10
6.1328
20
-3.85943
11
6.13298
21
-3.85849
0
LINE
8
BLACK
6
CONTINUOUS
10
6.13298
20
-3.85849
11
6.13352
21
-3.85769
0
LINE
8
BLACK
6
CONTINUOUS
10
6.13352
20
-3.85769
11
6.13431
21
-3.85716
0
LINE
8
BLACK
6
CONTINUOUS
10
6.13431
20
-3.85716
11
6.13526
21
-3.85697
0
LINE
8
BLACK
6
CONTINUOUS
10
6.13526
20
-3.85697
11
6.14018
21
-3.85697
0
LINE
8
BLACK
6
CONTINUOUS
10
6.14018
20
-3.85697
11
6.14112
21
-3.85716
0
LINE
8
BLACK
6
CONTINUOUS
10
5.66619
20
-3.8865
11
5.62091
21
-3.8865
0
LINE
8
BLACK
6
CONTINUOUS
10
5.62091
20
-3.8865
11
5.62091
21
-3.87469
0
LINE
8
BLACK
6
CONTINUOUS
10
5.62091
20
-3.87469
11
5.66619
21
-3.87469
0
LINE
8
BLACK
6
CONTINUOUS
10
5.66619
20
-3.87469
11
5.66619
21
-3.8865
0
LINE
8
BLACK
6
CONTINUOUS
10
6.49357
20
-3.83114
11
6.49676
21
-3.83328
0
LINE
8
BLACK
6
CONTINUOUS
10
6.49676
20
-3.83328
11
6.4989
21
-3.83647
0
LINE
8
BLACK
6
CONTINUOUS
10
6.4989
20
-3.83647
11
6.49965
21
-3.84024
0
LINE
8
BLACK
6
CONTINUOUS
10
6.49965
20
-3.84024
11
6.49965
21
-3.85992
0
LINE
8
BLACK
6
CONTINUOUS
10
6.49965
20
-3.85992
11
6.4989
21
-3.86369
0
LINE
8
BLACK
6
CONTINUOUS
10
6.4989
20
-3.86369
11
6.49676
21
-3.86688
0
LINE
8
BLACK
6
CONTINUOUS
10
6.49676
20
-3.86688
11
6.49357
21
-3.86901
0
LINE
8
BLACK
6
CONTINUOUS
10
6.49357
20
-3.86901
11
6.4898
21
-3.86976
0
LINE
8
BLACK
6
CONTINUOUS
10
6.4898
20
-3.86976
11
6.40319
21
-3.86976
0
LINE
8
BLACK
6
CONTINUOUS
10
6.40319
20
-3.86976
11
6.39942
21
-3.86901
0
LINE
8
BLACK
6
CONTINUOUS
10
6.39942
20
-3.86901
11
6.39623
21
-3.86688
0
LINE
8
BLACK
6
CONTINUOUS
10
6.39623
20
-3.86688
11
6.3941
21
-3.86369
0
LINE
8
BLACK
6
CONTINUOUS
10
6.3941
20
-3.86369
11
6.39335
21
-3.85992
0
LINE
8
BLACK
6
CONTINUOUS
10
6.39335
20
-3.85992
11
6.39335
21
-3.84024
0
LINE
8
BLACK
6
CONTINUOUS
10
6.39335
20
-3.84024
11
6.3941
21
-3.83647
0
LINE
8
BLACK
6
CONTINUOUS
10
6.3941
20
-3.83647
11
6.39623
21
-3.83328
0
LINE
8
BLACK
6
CONTINUOUS
10
6.39623
20
-3.83328
11
6.39942
21
-3.83114
0
LINE
8
BLACK
6
CONTINUOUS
10
6.39942
20
-3.83114
11
6.40319
21
-3.83039
0
LINE
8
BLACK
6
CONTINUOUS
10
6.40319
20
-3.83039
11
6.4898
21
-3.83039
0
LINE
8
BLACK
6
CONTINUOUS
10
6.4898
20
-3.83039
11
6.49357
21
-3.83114
0
LINE
8
BLACK
6
CONTINUOUS
10
5.66619
20
-3.86681
11
5.62091
21
-3.86681
0
LINE
8
BLACK
6
CONTINUOUS
10
5.62091
20
-3.86681
11
5.62091
21
-3.84319
0
LINE
8
BLACK
6
CONTINUOUS
10
5.62091
20
-3.84319
11
5.66619
21
-3.84319
0
LINE
8
BLACK
6
CONTINUOUS
10
5.66619
20
-3.84319
11
5.66619
21
-3.86681
0
LINE
8
BLACK
6
CONTINUOUS
10
5.66619
20
-3.83531
11
5.62091
21
-3.83531
0
LINE
8
BLACK
6
CONTINUOUS
10
5.62091
20
-3.83531
11
5.62091
21
-3.81169
0
LINE
8
BLACK
6
CONTINUOUS
10
5.62091
20
-3.81169
11
5.66619
21
-3.81169
0
LINE
8
BLACK
6
CONTINUOUS
10
5.66619
20
-3.81169
11
5.66619
21
-3.83531
0
LINE
8
BLACK
6
CONTINUOUS
10
5.90957
20
-3.77701
11
5.91244
21
-3.77893
0
LINE
8
BLACK
6
CONTINUOUS
10
5.91244
20
-3.77893
11
5.91437
21
-3.78181
0
LINE
8
BLACK
6
CONTINUOUS
10
5.91437
20
-3.78181
11
5.91504
21
-3.7852
0
LINE
8
BLACK
6
CONTINUOUS
10
5.91504
20
-3.7852
11
5.91504
21
-3.80488
0
LINE
8
BLACK
6
CONTINUOUS
10
5.91504
20
-3.80488
11
5.91437
21
-3.80827
0
LINE
8
BLACK
6
CONTINUOUS
10
5.91437
20
-3.80827
11
5.91244
21
-3.81115
0
LINE
8
BLACK
6
CONTINUOUS
10
5.91244
20
-3.81115
11
5.90957
21
-3.81307
0
LINE
8
BLACK
6
CONTINUOUS
10
5.90957
20
-3.81307
11
5.90618
21
-3.81374
0
LINE
8
BLACK
6
CONTINUOUS
10
5.90618
20
-3.81374
11
5.88846
21
-3.81374
0
LINE
8
BLACK
6
CONTINUOUS
10
5.88846
20
-3.81374
11
5.88507
21
-3.81307
0
LINE
8
BLACK
6
CONTINUOUS
10
5.88507
20
-3.81307
11
5.8822
21
-3.81115
0
LINE
8
BLACK
6
CONTINUOUS
10
5.8822
20
-3.81115
11
5.88028
21
-3.80827
0
LINE
8
BLACK
6
CONTINUOUS
10
5.88028
20
-3.80827
11
5.87961
21
-3.80488
0
LINE
8
BLACK
6
CONTINUOUS
10
5.87961
20
-3.80488
11
5.87961
21
-3.7852
0
LINE
8
BLACK
6
CONTINUOUS
10
5.87961
20
-3.7852
11
5.88028
21
-3.78181
0
LINE
8
BLACK
6
CONTINUOUS
10
5.88028
20
-3.78181
11
5.8822
21
-3.77893
0
LINE
8
BLACK
6
CONTINUOUS
10
5.8822
20
-3.77893
11
5.88507
21
-3.77701
0
LINE
8
BLACK
6
CONTINUOUS
10
5.88507
20
-3.77701
11
5.88846
21
-3.77634
0
LINE
8
BLACK
6
CONTINUOUS
10
5.88846
20
-3.77634
11
5.90618
21
-3.77634
0
LINE
8
BLACK
6
CONTINUOUS
10
5.90618
20
-3.77634
11
5.90957
21
-3.77701
0
LINE
8
BLACK
6
CONTINUOUS
10
5.97059
20
-3.77701
11
5.97347
21
-3.77893
0
LINE
8
BLACK
6
CONTINUOUS
10
5.97347
20
-3.77893
11
5.97539
21
-3.78181
0
LINE
8
BLACK
6
CONTINUOUS
10
5.97539
20
-3.78181
11
5.97606
21
-3.7852
0
LINE
8
BLACK
6
CONTINUOUS
10
5.97606
20
-3.7852
11
5.97606
21
-3.80488
0
LINE
8
BLACK
6
CONTINUOUS
10
5.97606
20
-3.80488
11
5.97539
21
-3.80827
0
LINE
8
BLACK
6
CONTINUOUS
10
5.97539
20
-3.80827
11
5.97347
21
-3.81115
0
LINE
8
BLACK
6
CONTINUOUS
10
5.97347
20
-3.81115
11
5.97059
21
-3.81307
0
LINE
8
BLACK
6
CONTINUOUS
10
5.97059
20
-3.81307
11
5.9672
21
-3.81374
0
LINE
8
BLACK
6
CONTINUOUS
10
5.9672
20
-3.81374
11
5.94949
21
-3.81374
0
LINE
8
BLACK
6
CONTINUOUS
10
5.94949
20
-3.81374
11
5.9461
21
-3.81307
0
LINE
8
BLACK
6
CONTINUOUS
10
5.9461
20
-3.81307
11
5.94322
21
-3.81115
0
LINE
8
BLACK
6
CONTINUOUS
10
5.94322
20
-3.81115
11
5.9413
21
-3.80827
0
LINE
8
BLACK
6
CONTINUOUS
10
5.9413
20
-3.80827
11
5.94063
21
-3.80488
0
LINE
8
BLACK
6
CONTINUOUS
10
5.94063
20
-3.80488
11
5.94063
21
-3.7852
0
LINE
8
BLACK
6
CONTINUOUS
10
5.94063
20
-3.7852
11
5.9413
21
-3.78181
0
LINE
8
BLACK
6
CONTINUOUS
10
5.9413
20
-3.78181
11
5.94322
21
-3.77893
0
LINE
8
BLACK
6
CONTINUOUS
10
5.94322
20
-3.77893
11
5.9461
21
-3.77701
0
LINE
8
BLACK
6
CONTINUOUS
10
5.9461
20
-3.77701
11
5.94949
21
-3.77634
0
LINE
8
BLACK
6
CONTINUOUS
10
5.94949
20
-3.77634
11
5.9672
21
-3.77634
0
LINE
8
BLACK
6
CONTINUOUS
10
5.9672
20
-3.77634
11
5.97059
21
-3.77701
0
LINE
8
BLACK
6
CONTINUOUS
10
6.35033
20
-3.76588
11
6.35225
21
-3.76716
0
LINE
8
BLACK
6
CONTINUOUS
10
6.35225
20
-3.76716
11
6.35353
21
-3.76908
0
LINE
8
BLACK
6
CONTINUOUS
10
6.35353
20
-3.76908
11
6.35398
21
-3.77134
0
LINE
8
BLACK
6
CONTINUOUS
10
6.35398
20
-3.77134
11
6.35398
21
-3.78315
0
LINE
8
BLACK
6
CONTINUOUS
10
6.35398
20
-3.78315
11
6.35353
21
-3.78541
0
LINE
8
BLACK
6
CONTINUOUS
10
6.35353
20
-3.78541
11
6.35225
21
-3.78733
0
LINE
8
BLACK
6
CONTINUOUS
10
6.35225
20
-3.78733
11
6.35033
21
-3.78861
0
LINE
8
BLACK
6
CONTINUOUS
10
6.35033
20
-3.78861
11
6.34807
21
-3.78906
0
LINE
8
BLACK
6
CONTINUOUS
10
6.34807
20
-3.78906
11
6.29295
21
-3.78906
0
LINE
8
BLACK
6
CONTINUOUS
10
6.29295
20
-3.78906
11
6.29069
21
-3.78861
0
LINE
8
BLACK
6
CONTINUOUS
10
6.29069
20
-3.78861
11
6.28878
21
-3.78733
0
LINE
8
BLACK
6
CONTINUOUS
10
6.28878
20
-3.78733
11
6.2875
21
-3.78541
0
LINE
8
BLACK
6
CONTINUOUS
10
6.2875
20
-3.78541
11
6.28705
21
-3.78315
0
LINE
8
BLACK
6
CONTINUOUS
10
6.28705
20
-3.78315
11
6.28705
21
-3.77134
0
LINE
8
BLACK
6
CONTINUOUS
10
6.28705
20
-3.77134
11
6.2875
21
-3.76908
0
LINE
8
BLACK
6
CONTINUOUS
10
6.2875
20
-3.76908
11
6.28878
21
-3.76716
0
LINE
8
BLACK
6
CONTINUOUS
10
6.28878
20
-3.76716
11
6.29069
21
-3.76588
0
LINE
8
BLACK
6
CONTINUOUS
10
6.29069
20
-3.76588
11
6.29295
21
-3.76543
0
LINE
8
BLACK
6
CONTINUOUS
10
6.29295
20
-3.76543
11
6.34807
21
-3.76543
0
LINE
8
BLACK
6
CONTINUOUS
10
6.34807
20
-3.76543
11
6.35033
21
-3.76588
0
LINE
8
BLACK
6
CONTINUOUS
10
6.10008
20
-3.75201
11
6.10296
21
-3.75393
0
LINE
8
BLACK
6
CONTINUOUS
10
6.10296
20
-3.75393
11
6.10488
21
-3.75681
0
LINE
8
BLACK
6
CONTINUOUS
10
6.10488
20
-3.75681
11
6.10555
21
-3.7602
0
LINE
8
BLACK
6
CONTINUOUS
10
6.10555
20
-3.7602
11
6.10555
21
-3.77988
0
LINE
8
BLACK
6
CONTINUOUS
10
6.10555
20
-3.77988
11
6.10488
21
-3.78327
0
LINE
8
BLACK
6
CONTINUOUS
10
6.10488
20
-3.78327
11
6.10296
21
-3.78615
0
LINE
8
BLACK
6
CONTINUOUS
10
6.10296
20
-3.78615
11
6.10008
21
-3.78807
0
LINE
8
BLACK
6
CONTINUOUS
10
6.10008
20
-3.78807
11
6.09669
21
-3.78874
0
LINE
8
BLACK
6
CONTINUOUS
10
6.09669
20
-3.78874
11
6.07898
21
-3.78874
0
LINE
8
BLACK
6
CONTINUOUS
10
6.07898
20
-3.78874
11
6.07559
21
-3.78807
0
LINE
8
BLACK
6
CONTINUOUS
10
6.07559
20
-3.78807
11
6.07271
21
-3.78615
0
LINE
8
BLACK
6
CONTINUOUS
10
6.07271
20
-3.78615
11
6.07079
21
-3.78327
0
LINE
8
BLACK
6
CONTINUOUS
10
6.07079
20
-3.78327
11
6.07012
21
-3.77988
0
LINE
8
BLACK
6
CONTINUOUS
10
6.07012
20
-3.77988
11
6.07012
21
-3.7602
0
LINE
8
BLACK
6
CONTINUOUS
10
6.07012
20
-3.7602
11
6.07079
21
-3.75681
0
LINE
8
BLACK
6
CONTINUOUS
10
6.07079
20
-3.75681
11
6.07271
21
-3.75393
0
LINE
8
BLACK
6
CONTINUOUS
10
6.07271
20
-3.75393
11
6.07559
21
-3.75201
0
LINE
8
BLACK
6
CONTINUOUS
10
6.07559
20
-3.75201
11
6.07898
21
-3.75134
0
LINE
8
BLACK
6
CONTINUOUS
10
6.07898
20
-3.75134
11
6.09669
21
-3.75134
0
LINE
8
BLACK
6
CONTINUOUS
10
6.09669
20
-3.75134
11
6.10008
21
-3.75201
0
LINE
8
BLACK
6
CONTINUOUS
10
6.16111
20
-3.75201
11
6.16398
21
-3.75393
0
LINE
8
BLACK
6
CONTINUOUS
10
6.16398
20
-3.75393
11
6.1659
21
-3.75681
0
LINE
8
BLACK
6
CONTINUOUS
10
6.1659
20
-3.75681
11
6.16657
21
-3.7602
0
LINE
8
BLACK
6
CONTINUOUS
10
6.16657
20
-3.7602
11
6.16657
21
-3.77988
0
LINE
8
BLACK
6
CONTINUOUS
10
6.16657
20
-3.77988
11
6.1659
21
-3.78327
0
LINE
8
BLACK
6
CONTINUOUS
10
6.1659
20
-3.78327
11
6.16398
21
-3.78615
0
LINE
8
BLACK
6
CONTINUOUS
10
6.16398
20
-3.78615
11
6.16111
21
-3.78807
0
LINE
8
BLACK
6
CONTINUOUS
10
6.16111
20
-3.78807
11
6.15772
21
-3.78874
0
LINE
8
BLACK
6
CONTINUOUS
10
6.15772
20
-3.78874
11
6.14
21
-3.78874
0
LINE
8
BLACK
6
CONTINUOUS
10
6.14
20
-3.78874
11
6.13661
21
-3.78807
0
LINE
8
BLACK
6
CONTINUOUS
10
6.13661
20
-3.78807
11
6.13374
21
-3.78615
0
LINE
8
BLACK
6
CONTINUOUS
10
6.13374
20
-3.78615
11
6.13182
21
-3.78327
0
LINE
8
BLACK
6
CONTINUOUS
10
6.13182
20
-3.78327
11
6.13114
21
-3.77988
0
LINE
8
BLACK
6
CONTINUOUS
10
6.13114
20
-3.77988
11
6.13114
21
-3.7602
0
LINE
8
BLACK
6
CONTINUOUS
10
6.13114
20
-3.7602
11
6.13182
21
-3.75681
0
LINE
8
BLACK
6
CONTINUOUS
10
6.13182
20
-3.75681
11
6.13374
21
-3.75393
0
LINE
8
BLACK
6
CONTINUOUS
10
6.13374
20
-3.75393
11
6.13661
21
-3.75201
0
LINE
8
BLACK
6
CONTINUOUS
10
6.13661
20
-3.75201
11
6.14
21
-3.75134
0
LINE
8
BLACK
6
CONTINUOUS
10
6.14
20
-3.75134
11
6.15772
21
-3.75134
0
LINE
8
BLACK
6
CONTINUOUS
10
6.15772
20
-3.75134
11
6.16111
21
-3.75201
0
LINE
8
BLACK
6
CONTINUOUS
10
6.35033
20
-3.71667
11
6.35225
21
-3.71795
0
LINE
8
BLACK
6
CONTINUOUS
10
6.35225
20
-3.71795
11
6.35353
21
-3.71987
0
LINE
8
BLACK
6
CONTINUOUS
10
6.35353
20
-3.71987
11
6.35398
21
-3.72213
0
LINE
8
BLACK
6
CONTINUOUS
10
6.35398
20
-3.72213
11
6.35398
21
-3.73394
0
LINE
8
BLACK
6
CONTINUOUS
10
6.35398
20
-3.73394
11
6.35353
21
-3.7362
0
LINE
8
BLACK
6
CONTINUOUS
10
6.35353
20
-3.7362
11
6.35225
21
-3.73811
0
LINE
8
BLACK
6
CONTINUOUS
10
6.35225
20
-3.73811
11
6.35033
21
-3.73939
0
LINE
8
BLACK
6
CONTINUOUS
10
6.35033
20
-3.73939
11
6.34807
21
-3.73984
0
LINE
8
BLACK
6
CONTINUOUS
10
6.34807
20
-3.73984
11
6.29295
21
-3.73984
0
LINE
8
BLACK
6
CONTINUOUS
10
6.29295
20
-3.73984
11
6.29069
21
-3.73939
0
LINE
8
BLACK
6
CONTINUOUS
10
6.29069
20
-3.73939
11
6.28878
21
-3.73811
0
LINE
8
BLACK
6
CONTINUOUS
10
6.28878
20
-3.73811
11
6.2875
21
-3.7362
0
LINE
8
BLACK
6
CONTINUOUS
10
6.2875
20
-3.7362
11
6.28705
21
-3.73394
0
LINE
8
BLACK
6
CONTINUOUS
10
6.28705
20
-3.73394
11
6.28705
21
-3.72213
0
LINE
8
BLACK
6
CONTINUOUS
10
6.28705
20
-3.72213
11
6.2875
21
-3.71987
0
LINE
8
BLACK
6
CONTINUOUS
10
6.2875
20
-3.71987
11
6.28878
21
-3.71795
0
LINE
8
BLACK
6
CONTINUOUS
10
6.28878
20
-3.71795
11
6.29069
21
-3.71667
0
LINE
8
BLACK
6
CONTINUOUS
10
6.29069
20
-3.71667
11
6.29295
21
-3.71622
0
LINE
8
BLACK
6
CONTINUOUS
10
6.29295
20
-3.71622
11
6.34807
21
-3.71622
0
LINE
8
BLACK
6
CONTINUOUS
10
6.34807
20
-3.71622
11
6.35033
21
-3.71667
0
LINE
8
BLACK
6
CONTINUOUS
10
5.94675
20
-3.69194
11
5.94931
21
-3.69364
0
LINE
8
BLACK
6
CONTINUOUS
10
5.94931
20
-3.69364
11
5.95101
21
-3.6962
0
LINE
8
BLACK
6
CONTINUOUS
10
5.95101
20
-3.6962
11
5.95161
21
-3.69921
0
LINE
8
BLACK
6
CONTINUOUS
10
5.95161
20
-3.69921
11
5.95161
21
-3.72087
0
LINE
8
BLACK
6
CONTINUOUS
10
5.95161
20
-3.72087
11
5.95101
21
-3.72388
0
LINE
8
BLACK
6
CONTINUOUS
10
5.95101
20
-3.72388
11
5.94931
21
-3.72643
0
LINE
8
BLACK
6
CONTINUOUS
10
5.94931
20
-3.72643
11
5.94675
21
-3.72814
0
LINE
8
BLACK
6
CONTINUOUS
10
5.94675
20
-3.72814
11
5.94374
21
-3.72874
0
LINE
8
BLACK
6
CONTINUOUS
10
5.94374
20
-3.72874
11
5.92799
21
-3.72874
0
LINE
8
BLACK
6
CONTINUOUS
10
5.92799
20
-3.72874
11
5.92498
21
-3.72814
0
LINE
8
BLACK
6
CONTINUOUS
10
5.92498
20
-3.72814
11
5.92242
21
-3.72643
0
LINE
8
BLACK
6
CONTINUOUS
10
5.92242
20
-3.72643
11
5.92072
21
-3.72388
0
LINE
8
BLACK
6
CONTINUOUS
10
5.92072
20
-3.72388
11
5.92012
21
-3.72087
0
LINE
8
BLACK
6
CONTINUOUS
10
5.92012
20
-3.72087
11
5.92012
21
-3.69921
0
LINE
8
BLACK
6
CONTINUOUS
10
5.92012
20
-3.69921
11
5.92072
21
-3.6962
0
LINE
8
BLACK
6
CONTINUOUS
10
5.92072
20
-3.6962
11
5.92242
21
-3.69364
0
LINE
8
BLACK
6
CONTINUOUS
10
5.92242
20
-3.69364
11
5.92498
21
-3.69194
0
LINE
8
BLACK
6
CONTINUOUS
10
5.92498
20
-3.69194
11
5.92799
21
-3.69134
0
LINE
8
BLACK
6
CONTINUOUS
10
5.92799
20
-3.69134
11
5.94374
21
-3.69134
0
LINE
8
BLACK
6
CONTINUOUS
10
5.94374
20
-3.69134
11
5.94675
21
-3.69194
0
LINE
8
BLACK
6
CONTINUOUS
10
6.01171
20
-3.69194
11
6.01427
21
-3.69364
0
LINE
8
BLACK
6
CONTINUOUS
10
6.01427
20
-3.69364
11
6.01598
21
-3.6962
0
LINE
8
BLACK
6
CONTINUOUS
10
6.01598
20
-3.6962
11
6.01657
21
-3.69921
0
LINE
8
BLACK
6
CONTINUOUS
10
6.01657
20
-3.69921
11
6.01657
21
-3.72087
0
LINE
8
BLACK
6
CONTINUOUS
10
6.01657
20
-3.72087
11
6.01598
21
-3.72388
0
LINE
8
BLACK
6
CONTINUOUS
10
6.01598
20
-3.72388
11
6.01427
21
-3.72643
0
LINE
8
BLACK
6
CONTINUOUS
10
6.01427
20
-3.72643
11
6.01171
21
-3.72814
0
LINE
8
BLACK
6
CONTINUOUS
10
6.01171
20
-3.72814
11
6.0087
21
-3.72874
0
LINE
8
BLACK
6
CONTINUOUS
10
6.0087
20
-3.72874
11
5.99295
21
-3.72874
0
LINE
8
BLACK
6
CONTINUOUS
10
5.99295
20
-3.72874
11
5.98994
21
-3.72814
0
LINE
8
BLACK
6
CONTINUOUS
10
5.98994
20
-3.72814
11
5.98738
21
-3.72643
0
LINE
8
BLACK
6
CONTINUOUS
10
5.98738
20
-3.72643
11
5.98568
21
-3.72388
0
LINE
8
BLACK
6
CONTINUOUS
10
5.98568
20
-3.72388
11
5.98508
21
-3.72087
0
LINE
8
BLACK
6
CONTINUOUS
10
5.98508
20
-3.72087
11
5.98508
21
-3.69921
0
LINE
8
BLACK
6
CONTINUOUS
10
5.98508
20
-3.69921
11
5.98568
21
-3.6962
0
LINE
8
BLACK
6
CONTINUOUS
10
5.98568
20
-3.6962
11
5.98738
21
-3.69364
0
LINE
8
BLACK
6
CONTINUOUS
10
5.98738
20
-3.69364
11
5.98994
21
-3.69194
0
LINE
8
BLACK
6
CONTINUOUS
10
5.98994
20
-3.69194
11
5.99295
21
-3.69134
0
LINE
8
BLACK
6
CONTINUOUS
10
5.99295
20
-3.69134
11
6.0087
21
-3.69134
0
LINE
8
BLACK
6
CONTINUOUS
10
6.0087
20
-3.69134
11
6.01171
21
-3.69194
0
LINE
8
BLACK
6
CONTINUOUS
10
6.35033
20
-3.66746
11
6.35225
21
-3.66874
0
LINE
8
BLACK
6
CONTINUOUS
10
6.35225
20
-3.66874
11
6.35353
21
-3.67065
0
LINE
8
BLACK
6
CONTINUOUS
10
6.35353
20
-3.67065
11
6.35398
21
-3.67291
0
LINE
8
BLACK
6
CONTINUOUS
10
6.35398
20
-3.67291
11
6.35398
21
-3.68472
0
LINE
8
BLACK
6
CONTINUOUS
10
6.35398
20
-3.68472
11
6.35353
21
-3.68698
0
LINE
8
BLACK
6
CONTINUOUS
10
6.35353
20
-3.68698
11
6.35225
21
-3.6889
0
LINE
8
BLACK
6
CONTINUOUS
10
6.35225
20
-3.6889
11
6.35033
21
-3.69018
0
LINE
8
BLACK
6
CONTINUOUS
10
6.35033
20
-3.69018
11
6.34807
21
-3.69063
0
LINE
8
BLACK
6
CONTINUOUS
10
6.34807
20
-3.69063
11
6.29295
21
-3.69063
0
LINE
8
BLACK
6
CONTINUOUS
10
6.29295
20
-3.69063
11
6.29069
21
-3.69018
0
LINE
8
BLACK
6
CONTINUOUS
10
6.29069
20
-3.69018
11
6.28878
21
-3.6889
0
LINE
8
BLACK
6
CONTINUOUS
10
6.28878
20
-3.6889
11
6.2875
21
-3.68698
0
LINE
8
BLACK
6
CONTINUOUS
10
6.2875
20
-3.68698
11
6.28705
21
-3.68472
0
LINE
8
BLACK
6
CONTINUOUS
10
6.28705
20
-3.68472
11
6.28705
21
-3.67291
0
LINE
8
BLACK
6
CONTINUOUS
10
6.28705
20
-3.67291
11
6.2875
21
-3.67065
0
LINE
8
BLACK
6
CONTINUOUS
10
6.2875
20
-3.67065
11
6.28878
21
-3.66874
0
LINE
8
BLACK
6
CONTINUOUS
10
6.28878
20
-3.66874
11
6.29069
21
-3.66746
0
LINE
8
BLACK
6
CONTINUOUS
10
6.29069
20
-3.66746
11
6.29295
21
-3.66701
0
LINE
8
BLACK
6
CONTINUOUS
10
6.29295
20
-3.66701
11
6.34807
21
-3.66701
0
LINE
8
BLACK
6
CONTINUOUS
10
6.34807
20
-3.66701
11
6.35033
21
-3.66746
0
LINE
8
BLACK
6
CONTINUOUS
10
5.71219
20
-3.65489
11
5.71474
21
-3.6566
0
LINE
8
BLACK
6
CONTINUOUS
10
5.71474
20
-3.6566
11
5.71645
21
-3.65915
0
LINE
8
BLACK
6
CONTINUOUS
10
5.71645
20
-3.65915
11
5.71705
21
-3.66217
0
LINE
8
BLACK
6
CONTINUOUS
10
5.71705
20
-3.66217
11
5.71705
21
-3.67791
0
LINE
8
BLACK
6
CONTINUOUS
10
5.71705
20
-3.67791
11
5.71645
21
-3.68093
0
LINE
8
BLACK
6
CONTINUOUS
10
5.71645
20
-3.68093
11
5.71474
21
-3.68348
0
LINE
8
BLACK
6
CONTINUOUS
10
5.71474
20
-3.68348
11
5.71219
21
-3.68519
0
LINE
8
BLACK
6
CONTINUOUS
10
5.71219
20
-3.68519
11
5.70917
21
-3.68579
0
LINE
8
BLACK
6
CONTINUOUS
10
5.70917
20
-3.68579
11
5.68752
21
-3.68579
0
LINE
8
BLACK
6
CONTINUOUS
10
5.68752
20
-3.68579
11
5.68451
21
-3.68519
0
LINE
8
BLACK
6
CONTINUOUS
10
5.68451
20
-3.68519
11
5.68195
21
-3.68348
0
LINE
8
BLACK
6
CONTINUOUS
10
5.68195
20
-3.68348
11
5.68025
21
-3.68093
0
LINE
8
BLACK
6
CONTINUOUS
10
5.68025
20
-3.68093
11
5.67965
21
-3.67791
0
LINE
8
BLACK
6
CONTINUOUS
10
5.67965
20
-3.67791
11
5.67965
21
-3.66217
0
LINE
8
BLACK
6
CONTINUOUS
10
5.67965
20
-3.66217
11
5.68025
21
-3.65915
0
LINE
8
BLACK
6
CONTINUOUS
10
5.68025
20
-3.65915
11
5.68195
21
-3.6566
0
LINE
8
BLACK
6
CONTINUOUS
10
5.68195
20
-3.6566
11
5.68451
21
-3.65489
0
LINE
8
BLACK
6
CONTINUOUS
10
5.68451
20
-3.65489
11
5.68752
21
-3.65429
0
LINE
8
BLACK
6
CONTINUOUS
10
5.68752
20
-3.65429
11
5.70917
21
-3.65429
0
LINE
8
BLACK
6
CONTINUOUS
10
5.70917
20
-3.65429
11
5.71219
21
-3.65489
0
LINE
8
BLACK
6
CONTINUOUS
10
5.51719
20
-3.65485
11
5.51974
21
-3.65656
0
LINE
8
BLACK
6
CONTINUOUS
10
5.51974
20
-3.65656
11
5.52145
21
-3.65911
0
LINE
8
BLACK
6
CONTINUOUS
10
5.52145
20
-3.65911
11
5.52205
21
-3.66213
0
LINE
8
BLACK
6
CONTINUOUS
10
5.52205
20
-3.66213
11
5.52205
21
-3.67787
0
LINE
8
BLACK
6
CONTINUOUS
10
5.52205
20
-3.67787
11
5.52145
21
-3.68089
0
LINE
8
BLACK
6
CONTINUOUS
10
5.52145
20
-3.68089
11
5.51974
21
-3.68344
0
LINE
8
BLACK
6
CONTINUOUS
10
5.51974
20
-3.68344
11
5.51719
21
-3.68515
0
LINE
8
BLACK
6
CONTINUOUS
10
5.51719
20
-3.68515
11
5.51417
21
-3.68575
0
LINE
8
BLACK
6
CONTINUOUS
10
5.51417
20
-3.68575
11
5.49252
21
-3.68575
0
LINE
8
BLACK
6
CONTINUOUS
10
5.49252
20
-3.68575
11
5.48951
21
-3.68515
0
LINE
8
BLACK
6
CONTINUOUS
10
5.48951
20
-3.68515
11
5.48695
21
-3.68344
0
LINE
8
BLACK
6
CONTINUOUS
10
5.48695
20
-3.68344
11
5.48525
21
-3.68089
0
LINE
8
BLACK
6
CONTINUOUS
10
5.48525
20
-3.68089
11
5.48465
21
-3.67787
0
LINE
8
BLACK
6
CONTINUOUS
10
5.48465
20
-3.67787
11
5.48465
21
-3.66213
0
LINE
8
BLACK
6
CONTINUOUS
10
5.48465
20
-3.66213
11
5.48525
21
-3.65911
0
LINE
8
BLACK
6
CONTINUOUS
10
5.48525
20
-3.65911
11
5.48695
21
-3.65656
0
LINE
8
BLACK
6
CONTINUOUS
10
5.48695
20
-3.65656
11
5.48951
21
-3.65485
0
LINE
8
BLACK
6
CONTINUOUS
10
5.48951
20
-3.65485
11
5.49252
21
-3.65425
0
LINE
8
BLACK
6
CONTINUOUS
10
5.49252
20
-3.65425
11
5.51417
21
-3.65425
0
LINE
8
BLACK
6
CONTINUOUS
10
5.51417
20
-3.65425
11
5.51719
21
-3.65485
0
LINE
8
BLACK
6
CONTINUOUS
10
5.60219
20
-3.65485
11
5.60474
21
-3.65656
0
LINE
8
BLACK
6
CONTINUOUS
10
5.60474
20
-3.65656
11
5.60645
21
-3.65911
0
LINE
8
BLACK
6
CONTINUOUS
10
5.60645
20
-3.65911
11
5.60705
21
-3.66213
0
LINE
8
BLACK
6
CONTINUOUS
10
5.60705
20
-3.66213
11
5.60705
21
-3.67787
0
LINE
8
BLACK
6
CONTINUOUS
10
5.60705
20
-3.67787
11
5.60645
21
-3.68089
0
LINE
8
BLACK
6
CONTINUOUS
10
5.60645
20
-3.68089
11
5.60474
21
-3.68344
0
LINE
8
BLACK
6
CONTINUOUS
10
5.60474
20
-3.68344
11
5.60219
21
-3.68515
0
LINE
8
BLACK
6
CONTINUOUS
10
5.60219
20
-3.68515
11
5.59917
21
-3.68575
0
LINE
8
BLACK
6
CONTINUOUS
10
5.59917
20
-3.68575
11
5.57752
21
-3.68575
0
LINE
8
BLACK
6
CONTINUOUS
10
5.57752
20
-3.68575
11
5.57451
21
-3.68515
0
LINE
8
BLACK
6
CONTINUOUS
10
5.57451
20
-3.68515
11
5.57195
21
-3.68344
0
LINE
8
BLACK
6
CONTINUOUS
10
5.57195
20
-3.68344
11
5.57025
21
-3.68089
0
LINE
8
BLACK
6
CONTINUOUS
10
5.57025
20
-3.68089
11
5.56965
21
-3.67787
0
LINE
8
BLACK
6
CONTINUOUS
10
5.56965
20
-3.67787
11
5.56965
21
-3.66213
0
LINE
8
BLACK
6
CONTINUOUS
10
5.56965
20
-3.66213
11
5.57025
21
-3.65911
0
LINE
8
BLACK
6
CONTINUOUS
10
5.57025
20
-3.65911
11
5.57195
21
-3.65656
0
LINE
8
BLACK
6
CONTINUOUS
10
5.57195
20
-3.65656
11
5.57451
21
-3.65485
0
LINE
8
BLACK
6
CONTINUOUS
10
5.57451
20
-3.65485
11
5.57752
21
-3.65425
0
LINE
8
BLACK
6
CONTINUOUS
10
5.57752
20
-3.65425
11
5.59917
21
-3.65425
0
LINE
8
BLACK
6
CONTINUOUS
10
5.59917
20
-3.65425
11
5.60219
21
-3.65485
0
LINE
8
BLACK
6
CONTINUOUS
10
5.81719
20
-3.65485
11
5.81974
21
-3.65656
0
LINE
8
BLACK
6
CONTINUOUS
10
5.81974
20
-3.65656
11
5.82145
21
-3.65911
0
LINE
8
BLACK
6
CONTINUOUS
10
5.82145
20
-3.65911
11
5.82205
21
-3.66213
0
LINE
8
BLACK
6
CONTINUOUS
10
5.82205
20
-3.66213
11
5.82205
21
-3.67787
0
LINE
8
BLACK
6
CONTINUOUS
10
5.82205
20
-3.67787
11
5.82145
21
-3.68089
0
LINE
8
BLACK
6
CONTINUOUS
10
5.82145
20
-3.68089
11
5.81974
21
-3.68344
0
LINE
8
BLACK
6
CONTINUOUS
10
5.81974
20
-3.68344
11
5.81719
21
-3.68515
0
LINE
8
BLACK
6
CONTINUOUS
10
5.81719
20
-3.68515
11
5.81417
21
-3.68575
0
LINE
8
BLACK
6
CONTINUOUS
10
5.81417
20
-3.68575
11
5.79252
21
-3.68575
0
LINE
8
BLACK
6
CONTINUOUS
10
5.79252
20
-3.68575
11
5.78951
21
-3.68515
0
LINE
8
BLACK
6
CONTINUOUS
10
5.78951
20
-3.68515
11
5.78695
21
-3.68344
0
LINE
8
BLACK
6
CONTINUOUS
10
5.78695
20
-3.68344
11
5.78525
21
-3.68089
0
LINE
8
BLACK
6
CONTINUOUS
10
5.78525
20
-3.68089
11
5.78465
21
-3.67787
0
LINE
8
BLACK
6
CONTINUOUS
10
5.78465
20
-3.67787
11
5.78465
21
-3.66213
0
LINE
8
BLACK
6
CONTINUOUS
10
5.78465
20
-3.66213
11
5.78525
21
-3.65911
0
LINE
8
BLACK
6
CONTINUOUS
10
5.78525
20
-3.65911
11
5.78695
21
-3.65656
0
LINE
8
BLACK
6
CONTINUOUS
10
5.78695
20
-3.65656
11
5.78951
21
-3.65485
0
LINE
8
BLACK
6
CONTINUOUS
10
5.78951
20
-3.65485
11
5.79252
21
-3.65425
0
LINE
8
BLACK
6
CONTINUOUS
10
5.79252
20
-3.65425
11
5.81417
21
-3.65425
0
LINE
8
BLACK
6
CONTINUOUS
10
5.81417
20
-3.65425
11
5.81719
21
-3.65485
0
LINE
8
BLACK
6
CONTINUOUS
10
5.94675
20
-3.61194
11
5.94931
21
-3.61364
0
LINE
8
BLACK
6
CONTINUOUS
10
5.94931
20
-3.61364
11
5.95101
21
-3.6162
0
LINE
8
BLACK
6
CONTINUOUS
10
5.95101
20
-3.6162
11
5.95161
21
-3.61921
0
LINE
8
BLACK
6
CONTINUOUS
10
5.95161
20
-3.61921
11
5.95161
21
-3.64087
0
LINE
8
BLACK
6
CONTINUOUS
10
5.95161
20
-3.64087
11
5.95101
21
-3.64388
0
LINE
8
BLACK
6
CONTINUOUS
10
5.95101
20
-3.64388
11
5.94931
21
-3.64643
0
LINE
8
BLACK
6
CONTINUOUS
10
5.94931
20
-3.64643
11
5.94675
21
-3.64814
0
LINE
8
BLACK
6
CONTINUOUS
10
5.94675
20
-3.64814
11
5.94374
21
-3.64874
0
LINE
8
BLACK
6
CONTINUOUS
10
5.94374
20
-3.64874
11
5.92799
21
-3.64874
0
LINE
8
BLACK
6
CONTINUOUS
10
5.92799
20
-3.64874
11
5.92498
21
-3.64814
0
LINE
8
BLACK
6
CONTINUOUS
10
5.92498
20
-3.64814
11
5.92242
21
-3.64643
0
LINE
8
BLACK
6
CONTINUOUS
10
5.92242
20
-3.64643
11
5.92072
21
-3.64388
0
LINE
8
BLACK
6
CONTINUOUS
10
5.92072
20
-3.64388
11
5.92012
21
-3.64087
0
LINE
8
BLACK
6
CONTINUOUS
10
5.92012
20
-3.64087
11
5.92012
21
-3.61921
0
LINE
8
BLACK
6
CONTINUOUS
10
5.92012
20
-3.61921
11
5.92072
21
-3.6162
0
LINE
8
BLACK
6
CONTINUOUS
10
5.92072
20
-3.6162
11
5.92242
21
-3.61364
0
LINE
8
BLACK
6
CONTINUOUS
10
5.92242
20
-3.61364
11
5.92498
21
-3.61194
0
LINE
8
BLACK
6
CONTINUOUS
10
5.92498
20
-3.61194
11
5.92799
21
-3.61134
0
LINE
8
BLACK
6
CONTINUOUS
10
5.92799
20
-3.61134
11
5.94374
21
-3.61134
0
LINE
8
BLACK
6
CONTINUOUS
10
5.94374
20
-3.61134
11
5.94675
21
-3.61194
0
LINE
8
BLACK
6
CONTINUOUS
10
6.01171
20
-3.61194
11
6.01427
21
-3.61364
0
LINE
8
BLACK
6
CONTINUOUS
10
6.01427
20
-3.61364
11
6.01598
21
-3.6162
0
LINE
8
BLACK
6
CONTINUOUS
10
6.01598
20
-3.6162
11
6.01657
21
-3.61921
0
LINE
8
BLACK
6
CONTINUOUS
10
6.01657
20
-3.61921
11
6.01657
21
-3.64087
0
LINE
8
BLACK
6
CONTINUOUS
10
6.01657
20
-3.64087
11
6.01598
21
-3.64388
0
LINE
8
BLACK
6
CONTINUOUS
10
6.01598
20
-3.64388
11
6.01427
21
-3.64643
0
LINE
8
BLACK
6
CONTINUOUS
10
6.01427
20
-3.64643
11
6.01171
21
-3.64814
0
LINE
8
BLACK
6
CONTINUOUS
10
6.01171
20
-3.64814
11
6.0087
21
-3.64874
0
LINE
8
BLACK
6
CONTINUOUS
10
6.0087
20
-3.64874
11
5.99295
21
-3.64874
0
LINE
8
BLACK
6
CONTINUOUS
10
5.99295
20
-3.64874
11
5.98994
21
-3.64814
0
LINE
8
BLACK
6
CONTINUOUS
10
5.98994
20
-3.64814
11
5.98738
21
-3.64643
0
LINE
8
BLACK
6
CONTINUOUS
10
5.98738
20
-3.64643
11
5.98568
21
-3.64388
0
LINE
8
BLACK
6
CONTINUOUS
10
5.98568
20
-3.64388
11
5.98508
21
-3.64087
0
LINE
8
BLACK
6
CONTINUOUS
10
5.98508
20
-3.64087
11
5.98508
21
-3.61921
0
LINE
8
BLACK
6
CONTINUOUS
10
5.98508
20
-3.61921
11
5.98568
21
-3.6162
0
LINE
8
BLACK
6
CONTINUOUS
10
5.98568
20
-3.6162
11
5.98738
21
-3.61364
0
LINE
8
BLACK
6
CONTINUOUS
10
5.98738
20
-3.61364
11
5.98994
21
-3.61194
0
LINE
8
BLACK
6
CONTINUOUS
10
5.98994
20
-3.61194
11
5.99295
21
-3.61134
0
LINE
8
BLACK
6
CONTINUOUS
10
5.99295
20
-3.61134
11
6.0087
21
-3.61134
0
LINE
8
BLACK
6
CONTINUOUS
10
6.0087
20
-3.61134
11
6.01171
21
-3.61194
0
LINE
8
BLACK
6
CONTINUOUS
10
6.35033
20
-3.61824
11
6.35225
21
-3.61952
0
LINE
8
BLACK
6
CONTINUOUS
10
6.35225
20
-3.61952
11
6.35353
21
-3.62144
0
LINE
8
BLACK
6
CONTINUOUS
10
6.35353
20
-3.62144
11
6.35398
21
-3.6237
0
LINE
8
BLACK
6
CONTINUOUS
10
6.35398
20
-3.6237
11
6.35398
21
-3.63551
0
LINE
8
BLACK
6
CONTINUOUS
10
6.35398
20
-3.63551
11
6.35353
21
-3.63777
0
LINE
8
BLACK
6
CONTINUOUS
10
6.35353
20
-3.63777
11
6.35225
21
-3.63969
0
LINE
8
BLACK
6
CONTINUOUS
10
6.35225
20
-3.63969
11
6.35033
21
-3.64097
0
LINE
8
BLACK
6
CONTINUOUS
10
6.35033
20
-3.64097
11
6.34807
21
-3.64142
0
LINE
8
BLACK
6
CONTINUOUS
10
6.34807
20
-3.64142
11
6.29295
21
-3.64142
0
LINE
8
BLACK
6
CONTINUOUS
10
6.29295
20
-3.64142
11
6.29069
21
-3.64097
0
LINE
8
BLACK
6
CONTINUOUS
10
6.29069
20
-3.64097
11
6.28878
21
-3.63969
0
LINE
8
BLACK
6
CONTINUOUS
10
6.28878
20
-3.63969
11
6.2875
21
-3.63777
0
LINE
8
BLACK
6
CONTINUOUS
10
6.2875
20
-3.63777
11
6.28705
21
-3.63551
0
LINE
8
BLACK
6
CONTINUOUS
10
6.28705
20
-3.63551
11
6.28705
21
-3.6237
0
LINE
8
BLACK
6
CONTINUOUS
10
6.28705
20
-3.6237
11
6.2875
21
-3.62144
0
LINE
8
BLACK
6
CONTINUOUS
10
6.2875
20
-3.62144
11
6.28878
21
-3.61952
0
LINE
8
BLACK
6
CONTINUOUS
10
6.28878
20
-3.61952
11
6.29069
21
-3.61824
0
LINE
8
BLACK
6
CONTINUOUS
10
6.29069
20
-3.61824
11
6.29295
21
-3.6178
0
LINE
8
BLACK
6
CONTINUOUS
10
6.29295
20
-3.6178
11
6.34807
21
-3.6178
0
LINE
8
BLACK
6
CONTINUOUS
10
6.34807
20
-3.6178
11
6.35033
21
-3.61824
0
LINE
8
BLACK
6
CONTINUOUS
10
5.71219
20
-3.58993
11
5.71474
21
-3.59164
0
LINE
8
BLACK
6
CONTINUOUS
10
5.71474
20
-3.59164
11
5.71645
21
-3.59419
0
LINE
8
BLACK
6
CONTINUOUS
10
5.71645
20
-3.59419
11
5.71705
21
-3.5972
0
LINE
8
BLACK
6
CONTINUOUS
10
5.71705
20
-3.5972
11
5.71705
21
-3.61295
0
LINE
8
BLACK
6
CONTINUOUS
10
5.71705
20
-3.61295
11
5.71645
21
-3.61597
0
LINE
8
BLACK
6
CONTINUOUS
10
5.71645
20
-3.61597
11
5.71474
21
-3.61852
0
LINE
8
BLACK
6
CONTINUOUS
10
5.71474
20
-3.61852
11
5.71219
21
-3.62023
0
LINE
8
BLACK
6
CONTINUOUS
10
5.71219
20
-3.62023
11
5.70917
21
-3.62083
0
LINE
8
BLACK
6
CONTINUOUS
10
5.70917
20
-3.62083
11
5.68752
21
-3.62083
0
LINE
8
BLACK
6
CONTINUOUS
10
5.68752
20
-3.62083
11
5.68451
21
-3.62023
0
LINE
8
BLACK
6
CONTINUOUS
10
5.68451
20
-3.62023
11
5.68195
21
-3.61852
0
LINE
8
BLACK
6
CONTINUOUS
10
5.68195
20
-3.61852
11
5.68025
21
-3.61597
0
LINE
8
BLACK
6
CONTINUOUS
10
5.68025
20
-3.61597
11
5.67965
21
-3.61295
0
LINE
8
BLACK
6
CONTINUOUS
10
5.67965
20
-3.61295
11
5.67965
21
-3.5972
0
LINE
8
BLACK
6
CONTINUOUS
10
5.67965
20
-3.5972
11
5.68025
21
-3.59419
0
LINE
8
BLACK
6
CONTINUOUS
10
5.68025
20
-3.59419
11
5.68195
21
-3.59164
0
LINE
8
BLACK
6
CONTINUOUS
10
5.68195
20
-3.59164
11
5.68451
21
-3.58993
0
LINE
8
BLACK
6
CONTINUOUS
10
5.68451
20
-3.58993
11
5.68752
21
-3.58933
0
LINE
8
BLACK
6
CONTINUOUS
10
5.68752
20
-3.58933
11
5.70917
21
-3.58933
0
LINE
8
BLACK
6
CONTINUOUS
10
5.70917
20
-3.58933
11
5.71219
21
-3.58993
0
LINE
8
BLACK
6
CONTINUOUS
10
5.51719
20
-3.58989
11
5.51974
21
-3.5916
0
LINE
8
BLACK
6
CONTINUOUS
10
5.51974
20
-3.5916
11
5.52145
21
-3.59415
0
LINE
8
BLACK
6
CONTINUOUS
10
5.52145
20
-3.59415
11
5.52205
21
-3.59717
0
LINE
8
BLACK
6
CONTINUOUS
10
5.52205
20
-3.59717
11
5.52205
21
-3.61291
0
LINE
8
BLACK
6
CONTINUOUS
10
5.52205
20
-3.61291
11
5.52145
21
-3.61593
0
LINE
8
BLACK
6
CONTINUOUS
10
5.52145
20
-3.61593
11
5.51974
21
-3.61848
0
LINE
8
BLACK
6
CONTINUOUS
10
5.51974
20
-3.61848
11
5.51719
21
-3.62019
0
LINE
8
BLACK
6
CONTINUOUS
10
5.51719
20
-3.62019
11
5.51417
21
-3.62079
0
LINE
8
BLACK
6
CONTINUOUS
10
5.51417
20
-3.62079
11
5.49252
21
-3.62079
0
LINE
8
BLACK
6
CONTINUOUS
10
5.49252
20
-3.62079
11
5.48951
21
-3.62019
0
LINE
8
BLACK
6
CONTINUOUS
10
5.48951
20
-3.62019
11
5.48695
21
-3.61848
0
LINE
8
BLACK
6
CONTINUOUS
10
5.48695
20
-3.61848
11
5.48525
21
-3.61593
0
LINE
8
BLACK
6
CONTINUOUS
10
5.48525
20
-3.61593
11
5.48465
21
-3.61291
0
LINE
8
BLACK
6
CONTINUOUS
10
5.48465
20
-3.61291
11
5.48465
21
-3.59717
0
LINE
8
BLACK
6
CONTINUOUS
10
5.48465
20
-3.59717
11
5.48525
21
-3.59415
0
LINE
8
BLACK
6
CONTINUOUS
10
5.48525
20
-3.59415
11
5.48695
21
-3.5916
0
LINE
8
BLACK
6
CONTINUOUS
10
5.48695
20
-3.5916
11
5.48951
21
-3.58989
0
LINE
8
BLACK
6
CONTINUOUS
10
5.48951
20
-3.58989
11
5.49252
21
-3.58929
0
LINE
8
BLACK
6
CONTINUOUS
10
5.49252
20
-3.58929
11
5.51417
21
-3.58929
0
LINE
8
BLACK
6
CONTINUOUS
10
5.51417
20
-3.58929
11
5.51719
21
-3.58989
0
LINE
8
BLACK
6
CONTINUOUS
10
5.60219
20
-3.58989
11
5.60474
21
-3.5916
0
LINE
8
BLACK
6
CONTINUOUS
10
5.60474
20
-3.5916
11
5.60645
21
-3.59415
0
LINE
8
BLACK
6
CONTINUOUS
10
5.60645
20
-3.59415
11
5.60705
21
-3.59717
0
LINE
8
BLACK
6
CONTINUOUS
10
5.60705
20
-3.59717
11
5.60705
21
-3.61291
0
LINE
8
BLACK
6
CONTINUOUS
10
5.60705
20
-3.61291
11
5.60645
21
-3.61593
0
LINE
8
BLACK
6
CONTINUOUS
10
5.60645
20
-3.61593
11
5.60474
21
-3.61848
0
LINE
8
BLACK
6
CONTINUOUS
10
5.60474
20
-3.61848
11
5.60219
21
-3.62019
0
LINE
8
BLACK
6
CONTINUOUS
10
5.60219
20
-3.62019
11
5.59917
21
-3.62079
0
LINE
8
BLACK
6
CONTINUOUS
10
5.59917
20
-3.62079
11
5.57752
21
-3.62079
0
LINE
8
BLACK
6
CONTINUOUS
10
5.57752
20
-3.62079
11
5.57451
21
-3.62019
0
LINE
8
BLACK
6
CONTINUOUS
10
5.57451
20
-3.62019
11
5.57195
21
-3.61848
0
LINE
8
BLACK
6
CONTINUOUS
10
5.57195
20
-3.61848
11
5.57025
21
-3.61593
0
LINE
8
BLACK
6
CONTINUOUS
10
5.57025
20
-3.61593
11
5.56965
21
-3.61291
0
LINE
8
BLACK
6
CONTINUOUS
10
5.56965
20
-3.61291
11
5.56965
21
-3.59717
0
LINE
8
BLACK
6
CONTINUOUS
10
5.56965
20
-3.59717
11
5.57025
21
-3.59415
0
LINE
8
BLACK
6
CONTINUOUS
10
5.57025
20
-3.59415
11
5.57195
21
-3.5916
0
LINE
8
BLACK
6
CONTINUOUS
10
5.57195
20
-3.5916
11
5.57451
21
-3.58989
0
LINE
8
BLACK
6
CONTINUOUS
10
5.57451
20
-3.58989
11
5.57752
21
-3.58929
0
LINE
8
BLACK
6
CONTINUOUS
10
5.57752
20
-3.58929
11
5.59917
21
-3.58929
0
LINE
8
BLACK
6
CONTINUOUS
10
5.59917
20
-3.58929
11
5.60219
21
-3.58989
0
LINE
8
BLACK
6
CONTINUOUS
10
5.81719
20
-3.58989
11
5.81974
21
-3.5916
0
LINE
8
BLACK
6
CONTINUOUS
10
5.81974
20
-3.5916
11
5.82145
21
-3.59415
0
LINE
8
BLACK
6
CONTINUOUS
10
5.82145
20
-3.59415
11
5.82205
21
-3.59717
0
LINE
8
BLACK
6
CONTINUOUS
10
5.82205
20
-3.59717
11
5.82205
21
-3.61291
0
LINE
8
BLACK
6
CONTINUOUS
10
5.82205
20
-3.61291
11
5.82145
21
-3.61593
0
LINE
8
BLACK
6
CONTINUOUS
10
5.82145
20
-3.61593
11
5.81974
21
-3.61848
0
LINE
8
BLACK
6
CONTINUOUS
10
5.81974
20
-3.61848
11
5.81719
21
-3.62019
0
LINE
8
BLACK
6
CONTINUOUS
10
5.81719
20
-3.62019
11
5.81417
21
-3.62079
0
LINE
8
BLACK
6
CONTINUOUS
10
5.81417
20
-3.62079
11
5.79252
21
-3.62079
0
LINE
8
BLACK
6
CONTINUOUS
10
5.79252
20
-3.62079
11
5.78951
21
-3.62019
0
LINE
8
BLACK
6
CONTINUOUS
10
5.78951
20
-3.62019
11
5.78695
21
-3.61848
0
LINE
8
BLACK
6
CONTINUOUS
10
5.78695
20
-3.61848
11
5.78525
21
-3.61593
0
LINE
8
BLACK
6
CONTINUOUS
10
5.78525
20
-3.61593
11
5.78465
21
-3.61291
0
LINE
8
BLACK
6
CONTINUOUS
10
5.78465
20
-3.61291
11
5.78465
21
-3.59717
0
LINE
8
BLACK
6
CONTINUOUS
10
5.78465
20
-3.59717
11
5.78525
21
-3.59415
0
LINE
8
BLACK
6
CONTINUOUS
10
5.78525
20
-3.59415
11
5.78695
21
-3.5916
0
LINE
8
BLACK
6
CONTINUOUS
10
5.78695
20
-3.5916
11
5.78951
21
-3.58989
0
LINE
8
BLACK
6
CONTINUOUS
10
5.78951
20
-3.58989
11
5.79252
21
-3.58929
0
LINE
8
BLACK
6
CONTINUOUS
10
5.79252
20
-3.58929
11
5.81417
21
-3.58929
0
LINE
8
BLACK
6
CONTINUOUS
10
5.81417
20
-3.58929
11
5.81719
21
-3.58989
0
LINE
8
BLACK
6
CONTINUOUS
10
6.35033
20
-3.56903
11
6.35225
21
-3.57031
0
LINE
8
BLACK
6
CONTINUOUS
10
6.35225
20
-3.57031
11
6.35353
21
-3.57223
0
LINE
8
BLACK
6
CONTINUOUS
10
6.35353
20
-3.57223
11
6.35398
21
-3.57449
0
LINE
8
BLACK
6
CONTINUOUS
10
6.35398
20
-3.57449
11
6.35398
21
-3.5863
0
LINE
8
BLACK
6
CONTINUOUS
10
6.35398
20
-3.5863
11
6.35353
21
-3.58856
0
LINE
8
BLACK
6
CONTINUOUS
10
6.35353
20
-3.58856
11
6.35225
21
-3.59048
0
LINE
8
BLACK
6
CONTINUOUS
10
6.35225
20
-3.59048
11
6.35033
21
-3.59176
0
LINE
8
BLACK
6
CONTINUOUS
10
6.35033
20
-3.59176
11
6.34807
21
-3.5922
0
LINE
8
BLACK
6
CONTINUOUS
10
6.34807
20
-3.5922
11
6.29295
21
-3.5922
0
LINE
8
BLACK
6
CONTINUOUS
10
6.29295
20
-3.5922
11
6.29069
21
-3.59176
0
LINE
8
BLACK
6
CONTINUOUS
10
6.29069
20
-3.59176
11
6.28878
21
-3.59048
0
LINE
8
BLACK
6
CONTINUOUS
10
6.28878
20
-3.59048
11
6.2875
21
-3.58856
0
LINE
8
BLACK
6
CONTINUOUS
10
6.2875
20
-3.58856
11
6.28705
21
-3.5863
0
LINE
8
BLACK
6
CONTINUOUS
10
6.28705
20
-3.5863
11
6.28705
21
-3.57449
0
LINE
8
BLACK
6
CONTINUOUS
10
6.28705
20
-3.57449
11
6.2875
21
-3.57223
0
LINE
8
BLACK
6
CONTINUOUS
10
6.2875
20
-3.57223
11
6.28878
21
-3.57031
0
LINE
8
BLACK
6
CONTINUOUS
10
6.28878
20
-3.57031
11
6.29069
21
-3.56903
0
LINE
8
BLACK
6
CONTINUOUS
10
6.29069
20
-3.56903
11
6.29295
21
-3.56858
0
LINE
8
BLACK
6
CONTINUOUS
10
6.29295
20
-3.56858
11
6.34807
21
-3.56858
0
LINE
8
BLACK
6
CONTINUOUS
10
6.34807
20
-3.56858
11
6.35033
21
-3.56903
0
LINE
8
BLACK
6
CONTINUOUS
10
6.35033
20
-3.51982
11
6.35225
21
-3.5211
0
LINE
8
BLACK
6
CONTINUOUS
10
6.35225
20
-3.5211
11
6.35353
21
-3.52302
0
LINE
8
BLACK
6
CONTINUOUS
10
6.35353
20
-3.52302
11
6.35398
21
-3.52528
0
LINE
8
BLACK
6
CONTINUOUS
10
6.35398
20
-3.52528
11
6.35398
21
-3.53709
0
LINE
8
BLACK
6
CONTINUOUS
10
6.35398
20
-3.53709
11
6.35353
21
-3.53935
0
LINE
8
BLACK
6
CONTINUOUS
10
6.35353
20
-3.53935
11
6.35225
21
-3.54126
0
LINE
8
BLACK
6
CONTINUOUS
10
6.35225
20
-3.54126
11
6.35033
21
-3.54254
0
LINE
8
BLACK
6
CONTINUOUS
10
6.35033
20
-3.54254
11
6.34807
21
-3.54299
0
LINE
8
BLACK
6
CONTINUOUS
10
6.34807
20
-3.54299
11
6.29295
21
-3.54299
0
LINE
8
BLACK
6
CONTINUOUS
10
6.29295
20
-3.54299
11
6.29069
21
-3.54254
0
LINE
8
BLACK
6
CONTINUOUS
10
6.29069
20
-3.54254
11
6.28878
21
-3.54126
0
LINE
8
BLACK
6
CONTINUOUS
10
6.28878
20
-3.54126
11
6.2875
21
-3.53935
0
LINE
8
BLACK
6
CONTINUOUS
10
6.2875
20
-3.53935
11
6.28705
21
-3.53709
0
LINE
8
BLACK
6
CONTINUOUS
10
6.28705
20
-3.53709
11
6.28705
21
-3.52528
0
LINE
8
BLACK
6
CONTINUOUS
10
6.28705
20
-3.52528
11
6.2875
21
-3.52302
0
LINE
8
BLACK
6
CONTINUOUS
10
6.2875
20
-3.52302
11
6.28878
21
-3.5211
0
LINE
8
BLACK
6
CONTINUOUS
10
6.28878
20
-3.5211
11
6.29069
21
-3.51982
0
LINE
8
BLACK
6
CONTINUOUS
10
6.29069
20
-3.51982
11
6.29295
21
-3.51937
0
LINE
8
BLACK
6
CONTINUOUS
10
6.29295
20
-3.51937
11
6.34807
21
-3.51937
0
LINE
8
BLACK
6
CONTINUOUS
10
6.34807
20
-3.51937
11
6.35033
21
-3.51982
0
LINE
8
BLACK
6
CONTINUOUS
10
5.54858
20
-3.49148
11
5.55138
21
-3.49335
0
LINE
8
BLACK
6
CONTINUOUS
10
5.55138
20
-3.49335
11
5.55324
21
-3.49614
0
LINE
8
BLACK
6
CONTINUOUS
10
5.55324
20
-3.49614
11
5.5539
21
-3.49944
0
LINE
8
BLACK
6
CONTINUOUS
10
5.5539
20
-3.49944
11
5.5539
21
-3.51666
0
LINE
8
BLACK
6
CONTINUOUS
10
5.5539
20
-3.51666
11
5.55324
21
-3.51996
0
LINE
8
BLACK
6
CONTINUOUS
10
5.55324
20
-3.51996
11
5.55138
21
-3.52275
0
LINE
8
BLACK
6
CONTINUOUS
10
5.55138
20
-3.52275
11
5.54858
21
-3.52462
0
LINE
8
BLACK
6
CONTINUOUS
10
5.54858
20
-3.52462
11
5.54529
21
-3.52528
0
LINE
8
BLACK
6
CONTINUOUS
10
5.54529
20
-3.52528
11
5.52511
21
-3.52528
0
LINE
8
BLACK
6
CONTINUOUS
10
5.52511
20
-3.52528
11
5.52181
21
-3.52462
0
LINE
8
BLACK
6
CONTINUOUS
10
5.52181
20
-3.52462
11
5.51902
21
-3.52275
0
LINE
8
BLACK
6
CONTINUOUS
10
5.51902
20
-3.52275
11
5.51715
21
-3.51996
0
LINE
8
BLACK
6
CONTINUOUS
10
5.51715
20
-3.51996
11
5.5165
21
-3.51666
0
LINE
8
BLACK
6
CONTINUOUS
10
5.5165
20
-3.51666
11
5.5165
21
-3.49944
0
LINE
8
BLACK
6
CONTINUOUS
10
5.5165
20
-3.49944
11
5.51715
21
-3.49614
0
LINE
8
BLACK
6
CONTINUOUS
10
5.51715
20
-3.49614
11
5.51902
21
-3.49335
0
LINE
8
BLACK
6
CONTINUOUS
10
5.51902
20
-3.49335
11
5.52181
21
-3.49148
0
LINE
8
BLACK
6
CONTINUOUS
10
5.52181
20
-3.49148
11
5.52511
21
-3.49083
0
LINE
8
BLACK
6
CONTINUOUS
10
5.52511
20
-3.49083
11
5.54529
21
-3.49083
0
LINE
8
BLACK
6
CONTINUOUS
10
5.54529
20
-3.49083
11
5.54858
21
-3.49148
0
LINE
8
BLACK
6
CONTINUOUS
10
5.66669
20
-3.49148
11
5.66949
21
-3.49335
0
LINE
8
BLACK
6
CONTINUOUS
10
5.66949
20
-3.49335
11
5.67135
21
-3.49614
0
LINE
8
BLACK
6
CONTINUOUS
10
5.67135
20
-3.49614
11
5.67201
21
-3.49944
0
LINE
8
BLACK
6
CONTINUOUS
10
5.67201
20
-3.49944
11
5.67201
21
-3.51666
0
LINE
8
BLACK
6
CONTINUOUS
10
5.67201
20
-3.51666
11
5.67135
21
-3.51996
0
LINE
8
BLACK
6
CONTINUOUS
10
5.67135
20
-3.51996
11
5.66949
21
-3.52275
0
LINE
8
BLACK
6
CONTINUOUS
10
5.66949
20
-3.52275
11
5.66669
21
-3.52462
0
LINE
8
BLACK
6
CONTINUOUS
10
5.66669
20
-3.52462
11
5.6634
21
-3.52528
0
LINE
8
BLACK
6
CONTINUOUS
10
5.6634
20
-3.52528
11
5.64322
21
-3.52528
0
LINE
8
BLACK
6
CONTINUOUS
10
5.64322
20
-3.52528
11
5.63992
21
-3.52462
0
LINE
8
BLACK
6
CONTINUOUS
10
5.63992
20
-3.52462
11
5.63713
21
-3.52275
0
LINE
8
BLACK
6
CONTINUOUS
10
5.63713
20
-3.52275
11
5.63526
21
-3.51996
0
LINE
8
BLACK
6
CONTINUOUS
10
5.63526
20
-3.51996
11
5.63461
21
-3.51666
0
LINE
8
BLACK
6
CONTINUOUS
10
5.63461
20
-3.51666
11
5.63461
21
-3.49944
0
LINE
8
BLACK
6
CONTINUOUS
10
5.63461
20
-3.49944
11
5.63526
21
-3.49614
0
LINE
8
BLACK
6
CONTINUOUS
10
5.63526
20
-3.49614
11
5.63713
21
-3.49335
0
LINE
8
BLACK
6
CONTINUOUS
10
5.63713
20
-3.49335
11
5.63992
21
-3.49148
0
LINE
8
BLACK
6
CONTINUOUS
10
5.63992
20
-3.49148
11
5.64322
21
-3.49083
0
LINE
8
BLACK
6
CONTINUOUS
10
5.64322
20
-3.49083
11
5.6634
21
-3.49083
0
LINE
8
BLACK
6
CONTINUOUS
10
5.6634
20
-3.49083
11
5.66669
21
-3.49148
0
LINE
8
BLACK
6
CONTINUOUS
10
6.49357
20
-3.43941
11
6.49676
21
-3.44154
0
LINE
8
BLACK
6
CONTINUOUS
10
6.49676
20
-3.44154
11
6.4989
21
-3.44474
0
LINE
8
BLACK
6
CONTINUOUS
10
6.4989
20
-3.44474
11
6.49965
21
-3.4485
0
LINE
8
BLACK
6
CONTINUOUS
10
6.49965
20
-3.4485
11
6.49965
21
-3.46819
0
LINE
8
BLACK
6
CONTINUOUS
10
6.49965
20
-3.46819
11
6.4989
21
-3.47196
0
LINE
8
BLACK
6
CONTINUOUS
10
6.4989
20
-3.47196
11
6.49676
21
-3.47515
0
LINE
8
BLACK
6
CONTINUOUS
10
6.49676
20
-3.47515
11
6.49357
21
-3.47728
0
LINE
8
BLACK
6
CONTINUOUS
10
6.49357
20
-3.47728
11
6.4898
21
-3.47803
0
LINE
8
BLACK
6
CONTINUOUS
10
6.4898
20
-3.47803
11
6.40319
21
-3.47803
0
LINE
8
BLACK
6
CONTINUOUS
10
6.40319
20
-3.47803
11
6.39942
21
-3.47728
0
LINE
8
BLACK
6
CONTINUOUS
10
6.39942
20
-3.47728
11
6.39623
21
-3.47515
0
LINE
8
BLACK
6
CONTINUOUS
10
6.39623
20
-3.47515
11
6.3941
21
-3.47196
0
LINE
8
BLACK
6
CONTINUOUS
10
6.3941
20
-3.47196
11
6.39335
21
-3.46819
0
LINE
8
BLACK
6
CONTINUOUS
10
6.39335
20
-3.46819
11
6.39335
21
-3.4485
0
LINE
8
BLACK
6
CONTINUOUS
10
6.39335
20
-3.4485
11
6.3941
21
-3.44474
0
LINE
8
BLACK
6
CONTINUOUS
10
6.3941
20
-3.44474
11
6.39623
21
-3.44154
0
LINE
8
BLACK
6
CONTINUOUS
10
6.39623
20
-3.44154
11
6.39942
21
-3.43941
0
LINE
8
BLACK
6
CONTINUOUS
10
6.39942
20
-3.43941
11
6.40319
21
-3.43866
0
LINE
8
BLACK
6
CONTINUOUS
10
6.40319
20
-3.43866
11
6.4898
21
-3.43866
0
LINE
8
BLACK
6
CONTINUOUS
10
6.4898
20
-3.43866
11
6.49357
21
-3.43941
0
LINE
8
BLACK
6
CONTINUOUS
10
5.54858
20
-3.42947
11
5.55138
21
-3.43134
0
LINE
8
BLACK
6
CONTINUOUS
10
5.55138
20
-3.43134
11
5.55324
21
-3.43414
0
LINE
8
BLACK
6
CONTINUOUS
10
5.55324
20
-3.43414
11
5.5539
21
-3.43743
0
LINE
8
BLACK
6
CONTINUOUS
10
5.5539
20
-3.43743
11
5.5539
21
-3.45466
0
LINE
8
BLACK
6
CONTINUOUS
10
5.5539
20
-3.45466
11
5.55324
21
-3.45795
0
LINE
8
BLACK
6
CONTINUOUS
10
5.55324
20
-3.45795
11
5.55138
21
-3.46075
0
LINE
8
BLACK
6
CONTINUOUS
10
5.55138
20
-3.46075
11
5.54858
21
-3.46261
0
LINE
8
BLACK
6
CONTINUOUS
10
5.54858
20
-3.46261
11
5.54529
21
-3.46327
0
LINE
8
BLACK
6
CONTINUOUS
10
5.54529
20
-3.46327
11
5.52511
21
-3.46327
0
LINE
8
BLACK
6
CONTINUOUS
10
5.52511
20
-3.46327
11
5.52181
21
-3.46261
0
LINE
8
BLACK
6
CONTINUOUS
10
5.52181
20
-3.46261
11
5.51902
21
-3.46075
0
LINE
8
BLACK
6
CONTINUOUS
10
5.51902
20
-3.46075
11
5.51715
21
-3.45795
0
LINE
8
BLACK
6
CONTINUOUS
10
5.51715
20
-3.45795
11
5.5165
21
-3.45466
0
LINE
8
BLACK
6
CONTINUOUS
10
5.5165
20
-3.45466
11
5.5165
21
-3.43743
0
LINE
8
BLACK
6
CONTINUOUS
10
5.5165
20
-3.43743
11
5.51715
21
-3.43414
0
LINE
8
BLACK
6
CONTINUOUS
10
5.51715
20
-3.43414
11
5.51902
21
-3.43134
0
LINE
8
BLACK
6
CONTINUOUS
10
5.51902
20
-3.43134
11
5.52181
21
-3.42947
0
LINE
8
BLACK
6
CONTINUOUS
10
5.52181
20
-3.42947
11
5.52511
21
-3.42882
0
LINE
8
BLACK
6
CONTINUOUS
10
5.52511
20
-3.42882
11
5.54529
21
-3.42882
0
LINE
8
BLACK
6
CONTINUOUS
10
5.54529
20
-3.42882
11
5.54858
21
-3.42947
0
LINE
8
BLACK
6
CONTINUOUS
10
5.66669
20
-3.42947
11
5.66949
21
-3.43134
0
LINE
8
BLACK
6
CONTINUOUS
10
5.66949
20
-3.43134
11
5.67135
21
-3.43414
0
LINE
8
BLACK
6
CONTINUOUS
10
5.67135
20
-3.43414
11
5.67201
21
-3.43743
0
LINE
8
BLACK
6
CONTINUOUS
10
5.67201
20
-3.43743
11
5.67201
21
-3.45466
0
LINE
8
BLACK
6
CONTINUOUS
10
5.67201
20
-3.45466
11
5.67135
21
-3.45795
0
LINE
8
BLACK
6
CONTINUOUS
10
5.67135
20
-3.45795
11
5.66949
21
-3.46075
0
LINE
8
BLACK
6
CONTINUOUS
10
5.66949
20
-3.46075
11
5.66669
21
-3.46261
0
LINE
8
BLACK
6
CONTINUOUS
10
5.66669
20
-3.46261
11
5.6634
21
-3.46327
0
LINE
8
BLACK
6
CONTINUOUS
10
5.6634
20
-3.46327
11
5.64322
21
-3.46327
0
LINE
8
BLACK
6
CONTINUOUS
10
5.64322
20
-3.46327
11
5.63992
21
-3.46261
0
LINE
8
BLACK
6
CONTINUOUS
10
5.63992
20
-3.46261
11
5.63713
21
-3.46075
0
LINE
8
BLACK
6
CONTINUOUS
10
5.63713
20
-3.46075
11
5.63526
21
-3.45795
0
LINE
8
BLACK
6
CONTINUOUS
10
5.63526
20
-3.45795
11
5.63461
21
-3.45466
0
LINE
8
BLACK
6
CONTINUOUS
10
5.63461
20
-3.45466
11
5.63461
21
-3.43743
0
LINE
8
BLACK
6
CONTINUOUS
10
5.63461
20
-3.43743
11
5.63526
21
-3.43414
0
LINE
8
BLACK
6
CONTINUOUS
10
5.63526
20
-3.43414
11
5.63713
21
-3.43134
0
LINE
8
BLACK
6
CONTINUOUS
10
5.63713
20
-3.43134
11
5.63992
21
-3.42947
0
LINE
8
BLACK
6
CONTINUOUS
10
5.63992
20
-3.42947
11
5.64322
21
-3.42882
0
LINE
8
BLACK
6
CONTINUOUS
10
5.64322
20
-3.42882
11
5.6634
21
-3.42882
0
LINE
8
BLACK
6
CONTINUOUS
10
5.6634
20
-3.42882
11
5.66669
21
-3.42947
  0
ENDSEC
  0
EOF
