  0
SECTION
  2
HEADER
  9
$ANGBASE
  50
0.0
  9
$ANGDIR
  70
1
  9
$MEASUREMENT
  70
0
  0
ENDSEC
  0
SECTION
  2
TABLES
  0
TABLE
  2
LTYPE
  70
4
  0
LTYPE
  5
40F
  2
CONTINUOUS
  70
0
  3
Solid line
  72
65
  73
0
  40
0.0
  0
LTYPE
  5
410
  2
DASHDOT
 70
0
  3
Dash Dot ____ _ ____ _
 72
65
 73
4
 40
2.0
 49
1.25
 49
-0.25
 49
0.25
 49
-0.25
  0
LTYPE
  5
411
  2
DASHED
 70
0
  3
Dashed __ __ __ __ __
 72
65
 73
2
 40
0.75
 49
0.5
 49
-0.25
  0
LTYPE
  5
43B
  2
DOTTED
 70
0
  3
Dotted .  .  .  .
 72
65
 73
2
 40
0.2
 49
0.0
 49
-0.2
  0
ENDTAB
  0
TABLE
  2
STYLE
  70
4
  0
STYLE
  2
KICAD
  70
0
  40
0
  41
1
  42
1
  50
0
  71
0
  3
isocp.shx
  0
STYLE
  2
KICADB
  70
0
  40
0
  41
1
  42
1
  50
0
  71
0
  3
isocp.shx
  0
STYLE
  2
KICADI
  70
0
  40
0
  41
1
  42
1
  50
15
  71
0
  3
isocp.shx
  0
STYLE
  2
KICADBI
  70
0
  40
0
  41
1
  42
1
  50
15
  71
0
  3
isocp.shx
  0
ENDTAB
  0
TABLE
  2
LAYER
  70
1
  0
LAYER
  2
BLACK
  70
0
  62
7
  6
CONTINUOUS
  0
ENDTAB
  0
ENDSEC
  0
SECTION
  2
ENTITIES
0
LINE
8
BLACK
6
CONTINUOUS
10
5.45127
20
-4.48279
11
5.46049
21
-4.48596
0
LINE
8
BLACK
6
CONTINUOUS
10
5.46049
20
-4.48596
11
5.46907
21
-4.4906
0
LINE
8
BLACK
6
CONTINUOUS
10
5.46907
20
-4.4906
11
5.47677
21
-4.49659
0
LINE
8
BLACK
6
CONTINUOUS
10
5.47677
20
-4.49659
11
5.48337
21
-4.50377
0
LINE
8
BLACK
6
CONTINUOUS
10
5.48337
20
-4.50377
11
5.48871
21
-4.51193
0
LINE
8
BLACK
6
CONTINUOUS
10
5.48871
20
-4.51193
11
5.49263
21
-4.52086
0
LINE
8
BLACK
6
CONTINUOUS
10
5.49263
20
-4.52086
11
5.49502
21
-4.53032
0
LINE
8
BLACK
6
CONTINUOUS
10
5.49502
20
-4.53032
11
5.49583
21
-4.54004
0
LINE
8
BLACK
6
CONTINUOUS
10
5.49583
20
-4.54004
11
5.49502
21
-4.54976
0
LINE
8
BLACK
6
CONTINUOUS
10
5.49502
20
-4.54976
11
5.49263
21
-4.55921
0
LINE
8
BLACK
6
CONTINUOUS
10
5.49263
20
-4.55921
11
5.48871
21
-4.56815
0
LINE
8
BLACK
6
CONTINUOUS
10
5.48871
20
-4.56815
11
5.48337
21
-4.57631
0
LINE
8
BLACK
6
CONTINUOUS
10
5.48337
20
-4.57631
11
5.47677
21
-4.58349
0
LINE
8
BLACK
6
CONTINUOUS
10
5.47677
20
-4.58349
11
5.46907
21
-4.58948
0
LINE
8
BLACK
6
CONTINUOUS
10
5.46907
20
-4.58948
11
5.46049
21
-4.59412
0
LINE
8
BLACK
6
CONTINUOUS
10
5.46049
20
-4.59412
11
5.45127
21
-4.59729
0
LINE
8
BLACK
6
CONTINUOUS
10
5.45127
20
-4.59729
11
5.44165
21
-4.59889
0
LINE
8
BLACK
6
CONTINUOUS
10
5.44165
20
-4.59889
11
5.43189
21
-4.59889
0
LINE
8
BLACK
6
CONTINUOUS
10
5.43189
20
-4.59889
11
5.42227
21
-4.59729
0
LINE
8
BLACK
6
CONTINUOUS
10
5.42227
20
-4.59729
11
5.41305
21
-4.59412
0
LINE
8
BLACK
6
CONTINUOUS
10
5.41305
20
-4.59412
11
5.40447
21
-4.58948
0
LINE
8
BLACK
6
CONTINUOUS
10
5.40447
20
-4.58948
11
5.39677
21
-4.58349
0
LINE
8
BLACK
6
CONTINUOUS
10
5.39677
20
-4.58349
11
5.39017
21
-4.57631
0
LINE
8
BLACK
6
CONTINUOUS
10
5.39017
20
-4.57631
11
5.38483
21
-4.56815
0
LINE
8
BLACK
6
CONTINUOUS
10
5.38483
20
-4.56815
11
5.38092
21
-4.55921
0
LINE
8
BLACK
6
CONTINUOUS
10
5.38092
20
-4.55921
11
5.37852
21
-4.54976
0
LINE
8
BLACK
6
CONTINUOUS
10
5.37852
20
-4.54976
11
5.37772
21
-4.54004
0
LINE
8
BLACK
6
CONTINUOUS
10
5.37772
20
-4.54004
11
5.37852
21
-4.53032
0
LINE
8
BLACK
6
CONTINUOUS
10
5.37852
20
-4.53032
11
5.38092
21
-4.52086
0
LINE
8
BLACK
6
CONTINUOUS
10
5.38092
20
-4.52086
11
5.38483
21
-4.51193
0
LINE
8
BLACK
6
CONTINUOUS
10
5.38483
20
-4.51193
11
5.39017
21
-4.50377
0
LINE
8
BLACK
6
CONTINUOUS
10
5.39017
20
-4.50377
11
5.39677
21
-4.49659
0
LINE
8
BLACK
6
CONTINUOUS
10
5.39677
20
-4.49659
11
5.40447
21
-4.4906
0
LINE
8
BLACK
6
CONTINUOUS
10
5.40447
20
-4.4906
11
5.41305
21
-4.48596
0
LINE
8
BLACK
6
CONTINUOUS
10
5.41305
20
-4.48596
11
5.42227
21
-4.48279
0
LINE
8
BLACK
6
CONTINUOUS
10
5.42227
20
-4.48279
11
5.43189
21
-4.48119
0
LINE
8
BLACK
6
CONTINUOUS
10
5.43189
20
-4.48119
11
5.44165
21
-4.48119
0
LINE
8
BLACK
6
CONTINUOUS
10
5.44165
20
-4.48119
11
5.45127
21
-4.48279
0
LINE
8
BLACK
6
CONTINUOUS
10
5.84497
20
-4.48279
11
5.85419
21
-4.48596
0
LINE
8
BLACK
6
CONTINUOUS
10
5.85419
20
-4.48596
11
5.86277
21
-4.4906
0
LINE
8
BLACK
6
CONTINUOUS
10
5.86277
20
-4.4906
11
5.87047
21
-4.49659
0
LINE
8
BLACK
6
CONTINUOUS
10
5.87047
20
-4.49659
11
5.87708
21
-4.50377
0
LINE
8
BLACK
6
CONTINUOUS
10
5.87708
20
-4.50377
11
5.88241
21
-4.51193
0
LINE
8
BLACK
6
CONTINUOUS
10
5.88241
20
-4.51193
11
5.88633
21
-4.52086
0
LINE
8
BLACK
6
CONTINUOUS
10
5.88633
20
-4.52086
11
5.88872
21
-4.53032
0
LINE
8
BLACK
6
CONTINUOUS
10
5.88872
20
-4.53032
11
5.88953
21
-4.54004
0
LINE
8
BLACK
6
CONTINUOUS
10
5.88953
20
-4.54004
11
5.88872
21
-4.54976
0
LINE
8
BLACK
6
CONTINUOUS
10
5.88872
20
-4.54976
11
5.88633
21
-4.55921
0
LINE
8
BLACK
6
CONTINUOUS
10
5.88633
20
-4.55921
11
5.88241
21
-4.56815
0
LINE
8
BLACK
6
CONTINUOUS
10
5.88241
20
-4.56815
11
5.87708
21
-4.57631
0
LINE
8
BLACK
6
CONTINUOUS
10
5.87708
20
-4.57631
11
5.87047
21
-4.58349
0
LINE
8
BLACK
6
CONTINUOUS
10
5.87047
20
-4.58349
11
5.86277
21
-4.58948
0
LINE
8
BLACK
6
CONTINUOUS
10
5.86277
20
-4.58948
11
5.85419
21
-4.59412
0
LINE
8
BLACK
6
CONTINUOUS
10
5.85419
20
-4.59412
11
5.84497
21
-4.59729
0
LINE
8
BLACK
6
CONTINUOUS
10
5.84497
20
-4.59729
11
5.83535
21
-4.59889
0
LINE
8
BLACK
6
CONTINUOUS
10
5.83535
20
-4.59889
11
5.8256
21
-4.59889
0
LINE
8
BLACK
6
CONTINUOUS
10
5.8256
20
-4.59889
11
5.81598
21
-4.59729
0
LINE
8
BLACK
6
CONTINUOUS
10
5.81598
20
-4.59729
11
5.80675
21
-4.59412
0
LINE
8
BLACK
6
CONTINUOUS
10
5.80675
20
-4.59412
11
5.79817
21
-4.58948
0
LINE
8
BLACK
6
CONTINUOUS
10
5.79817
20
-4.58948
11
5.79048
21
-4.58349
0
LINE
8
BLACK
6
CONTINUOUS
10
5.79048
20
-4.58349
11
5.78387
21
-4.57631
0
LINE
8
BLACK
6
CONTINUOUS
10
5.78387
20
-4.57631
11
5.77853
21
-4.56815
0
LINE
8
BLACK
6
CONTINUOUS
10
5.77853
20
-4.56815
11
5.77462
21
-4.55921
0
LINE
8
BLACK
6
CONTINUOUS
10
5.77462
20
-4.55921
11
5.77222
21
-4.54976
0
LINE
8
BLACK
6
CONTINUOUS
10
5.77222
20
-4.54976
11
5.77142
21
-4.54004
0
LINE
8
BLACK
6
CONTINUOUS
10
5.77142
20
-4.54004
11
5.77222
21
-4.53032
0
LINE
8
BLACK
6
CONTINUOUS
10
5.77222
20
-4.53032
11
5.77462
21
-4.52086
0
LINE
8
BLACK
6
CONTINUOUS
10
5.77462
20
-4.52086
11
5.77853
21
-4.51193
0
LINE
8
BLACK
6
CONTINUOUS
10
5.77853
20
-4.51193
11
5.78387
21
-4.50377
0
LINE
8
BLACK
6
CONTINUOUS
10
5.78387
20
-4.50377
11
5.79048
21
-4.49659
0
LINE
8
BLACK
6
CONTINUOUS
10
5.79048
20
-4.49659
11
5.79817
21
-4.4906
0
LINE
8
BLACK
6
CONTINUOUS
10
5.79817
20
-4.4906
11
5.80675
21
-4.48596
0
LINE
8
BLACK
6
CONTINUOUS
10
5.80675
20
-4.48596
11
5.81598
21
-4.48279
0
LINE
8
BLACK
6
CONTINUOUS
10
5.81598
20
-4.48279
11
5.8256
21
-4.48119
0
LINE
8
BLACK
6
CONTINUOUS
10
5.8256
20
-4.48119
11
5.83535
21
-4.48119
0
LINE
8
BLACK
6
CONTINUOUS
10
5.83535
20
-4.48119
11
5.84497
21
-4.48279
0
LINE
8
BLACK
6
CONTINUOUS
10
6.23867
20
-4.48279
11
6.2479
21
-4.48596
0
LINE
8
BLACK
6
CONTINUOUS
10
6.2479
20
-4.48596
11
6.25647
21
-4.4906
0
LINE
8
BLACK
6
CONTINUOUS
10
6.25647
20
-4.4906
11
6.26417
21
-4.49659
0
LINE
8
BLACK
6
CONTINUOUS
10
6.26417
20
-4.49659
11
6.27078
21
-4.50377
0
LINE
8
BLACK
6
CONTINUOUS
10
6.27078
20
-4.50377
11
6.27611
21
-4.51193
0
LINE
8
BLACK
6
CONTINUOUS
10
6.27611
20
-4.51193
11
6.28003
21
-4.52086
0
LINE
8
BLACK
6
CONTINUOUS
10
6.28003
20
-4.52086
11
6.28242
21
-4.53032
0
LINE
8
BLACK
6
CONTINUOUS
10
6.28242
20
-4.53032
11
6.28323
21
-4.54004
0
LINE
8
BLACK
6
CONTINUOUS
10
6.28323
20
-4.54004
11
6.28242
21
-4.54976
0
LINE
8
BLACK
6
CONTINUOUS
10
6.28242
20
-4.54976
11
6.28003
21
-4.55921
0
LINE
8
BLACK
6
CONTINUOUS
10
6.28003
20
-4.55921
11
6.27611
21
-4.56815
0
LINE
8
BLACK
6
CONTINUOUS
10
6.27611
20
-4.56815
11
6.27078
21
-4.57631
0
LINE
8
BLACK
6
CONTINUOUS
10
6.27078
20
-4.57631
11
6.26417
21
-4.58349
0
LINE
8
BLACK
6
CONTINUOUS
10
6.26417
20
-4.58349
11
6.25647
21
-4.58948
0
LINE
8
BLACK
6
CONTINUOUS
10
6.25647
20
-4.58948
11
6.2479
21
-4.59412
0
LINE
8
BLACK
6
CONTINUOUS
10
6.2479
20
-4.59412
11
6.23867
21
-4.59729
0
LINE
8
BLACK
6
CONTINUOUS
10
6.23867
20
-4.59729
11
6.22905
21
-4.59889
0
LINE
8
BLACK
6
CONTINUOUS
10
6.22905
20
-4.59889
11
6.2193
21
-4.59889
0
LINE
8
BLACK
6
CONTINUOUS
10
6.2193
20
-4.59889
11
6.20968
21
-4.59729
0
LINE
8
BLACK
6
CONTINUOUS
10
6.20968
20
-4.59729
11
6.20045
21
-4.59412
0
LINE
8
BLACK
6
CONTINUOUS
10
6.20045
20
-4.59412
11
6.19187
21
-4.58948
0
LINE
8
BLACK
6
CONTINUOUS
10
6.19187
20
-4.58948
11
6.18418
21
-4.58349
0
LINE
8
BLACK
6
CONTINUOUS
10
6.18418
20
-4.58349
11
6.17757
21
-4.57631
0
LINE
8
BLACK
6
CONTINUOUS
10
6.17757
20
-4.57631
11
6.17224
21
-4.56815
0
LINE
8
BLACK
6
CONTINUOUS
10
6.17224
20
-4.56815
11
6.16832
21
-4.55921
0
LINE
8
BLACK
6
CONTINUOUS
10
6.16832
20
-4.55921
11
6.16592
21
-4.54976
0
LINE
8
BLACK
6
CONTINUOUS
10
6.16592
20
-4.54976
11
6.16512
21
-4.54004
0
LINE
8
BLACK
6
CONTINUOUS
10
6.16512
20
-4.54004
11
6.16592
21
-4.53032
0
LINE
8
BLACK
6
CONTINUOUS
10
6.16592
20
-4.53032
11
6.16832
21
-4.52086
0
LINE
8
BLACK
6
CONTINUOUS
10
6.16832
20
-4.52086
11
6.17224
21
-4.51193
0
LINE
8
BLACK
6
CONTINUOUS
10
6.17224
20
-4.51193
11
6.17757
21
-4.50377
0
LINE
8
BLACK
6
CONTINUOUS
10
6.17757
20
-4.50377
11
6.18418
21
-4.49659
0
LINE
8
BLACK
6
CONTINUOUS
10
6.18418
20
-4.49659
11
6.19187
21
-4.4906
0
LINE
8
BLACK
6
CONTINUOUS
10
6.19187
20
-4.4906
11
6.20045
21
-4.48596
0
LINE
8
BLACK
6
CONTINUOUS
10
6.20045
20
-4.48596
11
6.20968
21
-4.48279
0
LINE
8
BLACK
6
CONTINUOUS
10
6.20968
20
-4.48279
11
6.2193
21
-4.48119
0
LINE
8
BLACK
6
CONTINUOUS
10
6.2193
20
-4.48119
11
6.22905
21
-4.48119
0
LINE
8
BLACK
6
CONTINUOUS
10
6.22905
20
-4.48119
11
6.23867
21
-4.48279
0
LINE
8
BLACK
6
CONTINUOUS
10
5.95887
20
-4.17797
11
5.96457
21
-4.18033
0
LINE
8
BLACK
6
CONTINUOUS
10
5.96457
20
-4.18033
11
5.96946
21
-4.18408
0
LINE
8
BLACK
6
CONTINUOUS
10
5.96946
20
-4.18408
11
5.97321
21
-4.18898
0
LINE
8
BLACK
6
CONTINUOUS
10
5.97321
20
-4.18898
11
5.97557
21
-4.19467
0
LINE
8
BLACK
6
CONTINUOUS
10
5.97557
20
-4.19467
11
5.97638
21
-4.20079
0
LINE
8
BLACK
6
CONTINUOUS
10
5.97638
20
-4.20079
11
5.97557
21
-4.2069
0
LINE
8
BLACK
6
CONTINUOUS
10
5.97557
20
-4.2069
11
5.97321
21
-4.2126
0
LINE
8
BLACK
6
CONTINUOUS
10
5.97321
20
-4.2126
11
5.96946
21
-4.21749
0
LINE
8
BLACK
6
CONTINUOUS
10
5.96946
20
-4.21749
11
5.96457
21
-4.22124
0
LINE
8
BLACK
6
CONTINUOUS
10
5.96457
20
-4.22124
11
5.95887
21
-4.2236
0
LINE
8
BLACK
6
CONTINUOUS
10
5.95887
20
-4.2236
11
5.95276
21
-4.22441
0
LINE
8
BLACK
6
CONTINUOUS
10
5.95276
20
-4.22441
11
5.94664
21
-4.2236
0
LINE
8
BLACK
6
CONTINUOUS
10
5.94664
20
-4.2236
11
5.94094
21
-4.22124
0
LINE
8
BLACK
6
CONTINUOUS
10
5.94094
20
-4.22124
11
5.93605
21
-4.21749
0
LINE
8
BLACK
6
CONTINUOUS
10
5.93605
20
-4.21749
11
5.9323
21
-4.2126
0
LINE
8
BLACK
6
CONTINUOUS
10
5.9323
20
-4.2126
11
5.92994
21
-4.2069
0
LINE
8
BLACK
6
CONTINUOUS
10
5.92994
20
-4.2069
11
5.92913
21
-4.20079
0
LINE
8
BLACK
6
CONTINUOUS
10
5.92913
20
-4.20079
11
5.92994
21
-4.19467
0
LINE
8
BLACK
6
CONTINUOUS
10
5.92994
20
-4.19467
11
5.9323
21
-4.18898
0
LINE
8
BLACK
6
CONTINUOUS
10
5.9323
20
-4.18898
11
5.93605
21
-4.18408
0
LINE
8
BLACK
6
CONTINUOUS
10
5.93605
20
-4.18408
11
5.94094
21
-4.18033
0
LINE
8
BLACK
6
CONTINUOUS
10
5.94094
20
-4.18033
11
5.94664
21
-4.17797
0
LINE
8
BLACK
6
CONTINUOUS
10
5.94664
20
-4.17797
11
5.95276
21
-4.17717
0
LINE
8
BLACK
6
CONTINUOUS
10
5.95276
20
-4.17717
11
5.95887
21
-4.17797
0
LINE
8
BLACK
6
CONTINUOUS
10
6.05336
20
-4.17797
11
6.05906
21
-4.18033
0
LINE
8
BLACK
6
CONTINUOUS
10
6.05906
20
-4.18033
11
6.06395
21
-4.18408
0
LINE
8
BLACK
6
CONTINUOUS
10
6.06395
20
-4.18408
11
6.0677
21
-4.18898
0
LINE
8
BLACK
6
CONTINUOUS
10
6.0677
20
-4.18898
11
6.07006
21
-4.19467
0
LINE
8
BLACK
6
CONTINUOUS
10
6.07006
20
-4.19467
11
6.07087
21
-4.20079
0
LINE
8
BLACK
6
CONTINUOUS
10
6.07087
20
-4.20079
11
6.07006
21
-4.2069
0
LINE
8
BLACK
6
CONTINUOUS
10
6.07006
20
-4.2069
11
6.0677
21
-4.2126
0
LINE
8
BLACK
6
CONTINUOUS
10
6.0677
20
-4.2126
11
6.06395
21
-4.21749
0
LINE
8
BLACK
6
CONTINUOUS
10
6.06395
20
-4.21749
11
6.05906
21
-4.22124
0
LINE
8
BLACK
6
CONTINUOUS
10
6.05906
20
-4.22124
11
6.05336
21
-4.2236
0
LINE
8
BLACK
6
CONTINUOUS
10
6.05336
20
-4.2236
11
6.04724
21
-4.22441
0
LINE
8
BLACK
6
CONTINUOUS
10
6.04724
20
-4.22441
11
6.04113
21
-4.2236
0
LINE
8
BLACK
6
CONTINUOUS
10
6.04113
20
-4.2236
11
6.03543
21
-4.22124
0
LINE
8
BLACK
6
CONTINUOUS
10
6.03543
20
-4.22124
11
6.03054
21
-4.21749
0
LINE
8
BLACK
6
CONTINUOUS
10
6.03054
20
-4.21749
11
6.02679
21
-4.2126
0
LINE
8
BLACK
6
CONTINUOUS
10
6.02679
20
-4.2126
11
6.02443
21
-4.2069
0
LINE
8
BLACK
6
CONTINUOUS
10
6.02443
20
-4.2069
11
6.02362
21
-4.20079
0
LINE
8
BLACK
6
CONTINUOUS
10
6.02362
20
-4.20079
11
6.02443
21
-4.19467
0
LINE
8
BLACK
6
CONTINUOUS
10
6.02443
20
-4.19467
11
6.02679
21
-4.18898
0
LINE
8
BLACK
6
CONTINUOUS
10
6.02679
20
-4.18898
11
6.03054
21
-4.18408
0
LINE
8
BLACK
6
CONTINUOUS
10
6.03054
20
-4.18408
11
6.03543
21
-4.18033
0
LINE
8
BLACK
6
CONTINUOUS
10
6.03543
20
-4.18033
11
6.04113
21
-4.17797
0
LINE
8
BLACK
6
CONTINUOUS
10
6.04113
20
-4.17797
11
6.04724
21
-4.17717
0
LINE
8
BLACK
6
CONTINUOUS
10
6.04724
20
-4.17717
11
6.05336
21
-4.17797
0
LINE
8
BLACK
6
CONTINUOUS
10
5.64467
20
-4.09515
11
5.65064
21
-4.09669
0
LINE
8
BLACK
6
CONTINUOUS
10
5.65064
20
-4.09669
11
5.65605
21
-4.09966
0
LINE
8
BLACK
6
CONTINUOUS
10
5.65605
20
-4.09966
11
5.66054
21
-4.10388
0
LINE
8
BLACK
6
CONTINUOUS
10
5.66054
20
-4.10388
11
5.66385
21
-4.10909
0
LINE
8
BLACK
6
CONTINUOUS
10
5.66385
20
-4.10909
11
5.66575
21
-4.11496
0
LINE
8
BLACK
6
CONTINUOUS
10
5.66575
20
-4.11496
11
5.66614
21
-4.12111
0
LINE
8
BLACK
6
CONTINUOUS
10
5.66614
20
-4.12111
11
5.66498
21
-4.12717
0
LINE
8
BLACK
6
CONTINUOUS
10
5.66498
20
-4.12717
11
5.66236
21
-4.13275
0
LINE
8
BLACK
6
CONTINUOUS
10
5.66236
20
-4.13275
11
5.65843
21
-4.1375
0
LINE
8
BLACK
6
CONTINUOUS
10
5.65843
20
-4.1375
11
5.65344
21
-4.14113
0
LINE
8
BLACK
6
CONTINUOUS
10
5.65344
20
-4.14113
11
5.6477
21
-4.1434
0
LINE
8
BLACK
6
CONTINUOUS
10
5.6477
20
-4.1434
11
5.64158
21
-4.14417
0
LINE
8
BLACK
6
CONTINUOUS
10
5.64158
20
-4.14417
11
5.60024
21
-4.14417
0
LINE
8
BLACK
6
CONTINUOUS
10
5.60024
20
-4.14417
11
5.59716
21
-4.14398
0
LINE
8
BLACK
6
CONTINUOUS
10
5.59716
20
-4.14398
11
5.59119
21
-4.14245
0
LINE
8
BLACK
6
CONTINUOUS
10
5.59119
20
-4.14245
11
5.58578
21
-4.13947
0
LINE
8
BLACK
6
CONTINUOUS
10
5.58578
20
-4.13947
11
5.58128
21
-4.13525
0
LINE
8
BLACK
6
CONTINUOUS
10
5.58128
20
-4.13525
11
5.57798
21
-4.13004
0
LINE
8
BLACK
6
CONTINUOUS
10
5.57798
20
-4.13004
11
5.57607
21
-4.12418
0
LINE
8
BLACK
6
CONTINUOUS
10
5.57607
20
-4.12418
11
5.57569
21
-4.11802
0
LINE
8
BLACK
6
CONTINUOUS
10
5.57569
20
-4.11802
11
5.57684
21
-4.11196
0
LINE
8
BLACK
6
CONTINUOUS
10
5.57684
20
-4.11196
11
5.57947
21
-4.10638
0
LINE
8
BLACK
6
CONTINUOUS
10
5.57947
20
-4.10638
11
5.5834
21
-4.10163
0
LINE
8
BLACK
6
CONTINUOUS
10
5.5834
20
-4.10163
11
5.58839
21
-4.098
0
LINE
8
BLACK
6
CONTINUOUS
10
5.58839
20
-4.098
11
5.59412
21
-4.09573
0
LINE
8
BLACK
6
CONTINUOUS
10
5.59412
20
-4.09573
11
5.60024
21
-4.09496
0
LINE
8
BLACK
6
CONTINUOUS
10
5.60024
20
-4.09496
11
5.64158
21
-4.09496
0
LINE
8
BLACK
6
CONTINUOUS
10
5.64158
20
-4.09496
11
5.64467
21
-4.09515
0
LINE
8
BLACK
6
CONTINUOUS
10
5.48215
20
-4.09675
11
5.48784
21
-4.09911
0
LINE
8
BLACK
6
CONTINUOUS
10
5.48784
20
-4.09911
11
5.49273
21
-4.10286
0
LINE
8
BLACK
6
CONTINUOUS
10
5.49273
20
-4.10286
11
5.49649
21
-4.10776
0
LINE
8
BLACK
6
CONTINUOUS
10
5.49649
20
-4.10776
11
5.49885
21
-4.11345
0
LINE
8
BLACK
6
CONTINUOUS
10
5.49885
20
-4.11345
11
5.49965
21
-4.11957
0
LINE
8
BLACK
6
CONTINUOUS
10
5.49965
20
-4.11957
11
5.49885
21
-4.12568
0
LINE
8
BLACK
6
CONTINUOUS
10
5.49885
20
-4.12568
11
5.49649
21
-4.13138
0
LINE
8
BLACK
6
CONTINUOUS
10
5.49649
20
-4.13138
11
5.49273
21
-4.13627
0
LINE
8
BLACK
6
CONTINUOUS
10
5.49273
20
-4.13627
11
5.48784
21
-4.14002
0
LINE
8
BLACK
6
CONTINUOUS
10
5.48784
20
-4.14002
11
5.48215
21
-4.14238
0
LINE
8
BLACK
6
CONTINUOUS
10
5.48215
20
-4.14238
11
5.47603
21
-4.14319
0
LINE
8
BLACK
6
CONTINUOUS
10
5.47603
20
-4.14319
11
5.43666
21
-4.14319
0
LINE
8
BLACK
6
CONTINUOUS
10
5.43666
20
-4.14319
11
5.43055
21
-4.14238
0
LINE
8
BLACK
6
CONTINUOUS
10
5.43055
20
-4.14238
11
5.42485
21
-4.14002
0
LINE
8
BLACK
6
CONTINUOUS
10
5.42485
20
-4.14002
11
5.41996
21
-4.13627
0
LINE
8
BLACK
6
CONTINUOUS
10
5.41996
20
-4.13627
11
5.4162
21
-4.13138
0
LINE
8
BLACK
6
CONTINUOUS
10
5.4162
20
-4.13138
11
5.41384
21
-4.12568
0
LINE
8
BLACK
6
CONTINUOUS
10
5.41384
20
-4.12568
11
5.41304
21
-4.11957
0
LINE
8
BLACK
6
CONTINUOUS
10
5.41304
20
-4.11957
11
5.41384
21
-4.11345
0
LINE
8
BLACK
6
CONTINUOUS
10
5.41384
20
-4.11345
11
5.4162
21
-4.10776
0
LINE
8
BLACK
6
CONTINUOUS
10
5.4162
20
-4.10776
11
5.41996
21
-4.10286
0
LINE
8
BLACK
6
CONTINUOUS
10
5.41996
20
-4.10286
11
5.42485
21
-4.09911
0
LINE
8
BLACK
6
CONTINUOUS
10
5.42485
20
-4.09911
11
5.43055
21
-4.09675
0
LINE
8
BLACK
6
CONTINUOUS
10
5.43055
20
-4.09675
11
5.43666
21
-4.09594
0
LINE
8
BLACK
6
CONTINUOUS
10
5.43666
20
-4.09594
11
5.47603
21
-4.09594
0
LINE
8
BLACK
6
CONTINUOUS
10
5.47603
20
-4.09594
11
5.48215
21
-4.09675
0
LINE
8
BLACK
6
CONTINUOUS
10
5.95887
20
-4.09529
11
5.96457
21
-4.09765
0
LINE
8
BLACK
6
CONTINUOUS
10
5.96457
20
-4.09765
11
5.96946
21
-4.10141
0
LINE
8
BLACK
6
CONTINUOUS
10
5.96946
20
-4.10141
11
5.97321
21
-4.1063
0
LINE
8
BLACK
6
CONTINUOUS
10
5.97321
20
-4.1063
11
5.97557
21
-4.112
0
LINE
8
BLACK
6
CONTINUOUS
10
5.97557
20
-4.112
11
5.97638
21
-4.11811
0
LINE
8
BLACK
6
CONTINUOUS
10
5.97638
20
-4.11811
11
5.97557
21
-4.12422
0
LINE
8
BLACK
6
CONTINUOUS
10
5.97557
20
-4.12422
11
5.97321
21
-4.12992
0
LINE
8
BLACK
6
CONTINUOUS
10
5.97321
20
-4.12992
11
5.96946
21
-4.13481
0
LINE
8
BLACK
6
CONTINUOUS
10
5.96946
20
-4.13481
11
5.96457
21
-4.13857
0
LINE
8
BLACK
6
CONTINUOUS
10
5.96457
20
-4.13857
11
5.95887
21
-4.14093
0
LINE
8
BLACK
6
CONTINUOUS
10
5.95887
20
-4.14093
11
5.95276
21
-4.14173
0
LINE
8
BLACK
6
CONTINUOUS
10
5.95276
20
-4.14173
11
5.94664
21
-4.14093
0
LINE
8
BLACK
6
CONTINUOUS
10
5.94664
20
-4.14093
11
5.94094
21
-4.13857
0
LINE
8
BLACK
6
CONTINUOUS
10
5.94094
20
-4.13857
11
5.93605
21
-4.13481
0
LINE
8
BLACK
6
CONTINUOUS
10
5.93605
20
-4.13481
11
5.9323
21
-4.12992
0
LINE
8
BLACK
6
CONTINUOUS
10
5.9323
20
-4.12992
11
5.92994
21
-4.12422
0
LINE
8
BLACK
6
CONTINUOUS
10
5.92994
20
-4.12422
11
5.92913
21
-4.11811
0
LINE
8
BLACK
6
CONTINUOUS
10
5.92913
20
-4.11811
11
5.92994
21
-4.112
0
LINE
8
BLACK
6
CONTINUOUS
10
5.92994
20
-4.112
11
5.9323
21
-4.1063
0
LINE
8
BLACK
6
CONTINUOUS
10
5.9323
20
-4.1063
11
5.93605
21
-4.10141
0
LINE
8
BLACK
6
CONTINUOUS
10
5.93605
20
-4.10141
11
5.94094
21
-4.09765
0
LINE
8
BLACK
6
CONTINUOUS
10
5.94094
20
-4.09765
11
5.94664
21
-4.09529
0
LINE
8
BLACK
6
CONTINUOUS
10
5.94664
20
-4.09529
11
5.95276
21
-4.09449
0
LINE
8
BLACK
6
CONTINUOUS
10
5.95276
20
-4.09449
11
5.95887
21
-4.09529
0
LINE
8
BLACK
6
CONTINUOUS
10
6.05336
20
-4.09529
11
6.05906
21
-4.09765
0
LINE
8
BLACK
6
CONTINUOUS
10
6.05906
20
-4.09765
11
6.06395
21
-4.10141
0
LINE
8
BLACK
6
CONTINUOUS
10
6.06395
20
-4.10141
11
6.0677
21
-4.1063
0
LINE
8
BLACK
6
CONTINUOUS
10
6.0677
20
-4.1063
11
6.07006
21
-4.112
0
LINE
8
BLACK
6
CONTINUOUS
10
6.07006
20
-4.112
11
6.07087
21
-4.11811
0
LINE
8
BLACK
6
CONTINUOUS
10
6.07087
20
-4.11811
11
6.07006
21
-4.12422
0
LINE
8
BLACK
6
CONTINUOUS
10
6.07006
20
-4.12422
11
6.0677
21
-4.12992
0
LINE
8
BLACK
6
CONTINUOUS
10
6.0677
20
-4.12992
11
6.06395
21
-4.13481
0
LINE
8
BLACK
6
CONTINUOUS
10
6.06395
20
-4.13481
11
6.05906
21
-4.13857
0
LINE
8
BLACK
6
CONTINUOUS
10
6.05906
20
-4.13857
11
6.05336
21
-4.14093
0
LINE
8
BLACK
6
CONTINUOUS
10
6.05336
20
-4.14093
11
6.04724
21
-4.14173
0
LINE
8
BLACK
6
CONTINUOUS
10
6.04724
20
-4.14173
11
6.04113
21
-4.14093
0
LINE
8
BLACK
6
CONTINUOUS
10
6.04113
20
-4.14093
11
6.03543
21
-4.13857
0
LINE
8
BLACK
6
CONTINUOUS
10
6.03543
20
-4.13857
11
6.03054
21
-4.13481
0
LINE
8
BLACK
6
CONTINUOUS
10
6.03054
20
-4.13481
11
6.02679
21
-4.12992
0
LINE
8
BLACK
6
CONTINUOUS
10
6.02679
20
-4.12992
11
6.02443
21
-4.12422
0
LINE
8
BLACK
6
CONTINUOUS
10
6.02443
20
-4.12422
11
6.02362
21
-4.11811
0
LINE
8
BLACK
6
CONTINUOUS
10
6.02362
20
-4.11811
11
6.02443
21
-4.112
0
LINE
8
BLACK
6
CONTINUOUS
10
6.02443
20
-4.112
11
6.02679
21
-4.1063
0
LINE
8
BLACK
6
CONTINUOUS
10
6.02679
20
-4.1063
11
6.03054
21
-4.10141
0
LINE
8
BLACK
6
CONTINUOUS
10
6.03054
20
-4.10141
11
6.03543
21
-4.09765
0
LINE
8
BLACK
6
CONTINUOUS
10
6.03543
20
-4.09765
11
6.04113
21
-4.09529
0
LINE
8
BLACK
6
CONTINUOUS
10
6.04113
20
-4.09529
11
6.04724
21
-4.09449
0
LINE
8
BLACK
6
CONTINUOUS
10
6.04724
20
-4.09449
11
6.05336
21
-4.09529
0
LINE
8
BLACK
6
CONTINUOUS
10
5.6064
20
-4.04735
11
5.61106
21
-4.04973
0
LINE
8
BLACK
6
CONTINUOUS
10
5.61106
20
-4.04973
11
5.61477
21
-4.05343
0
LINE
8
BLACK
6
CONTINUOUS
10
5.61477
20
-4.05343
11
5.61714
21
-4.0581
0
LINE
8
BLACK
6
CONTINUOUS
10
5.61714
20
-4.0581
11
5.61796
21
-4.06327
0
LINE
8
BLACK
6
CONTINUOUS
10
5.61796
20
-4.06327
11
5.61714
21
-4.06844
0
LINE
8
BLACK
6
CONTINUOUS
10
5.61714
20
-4.06844
11
5.61477
21
-4.0731
0
LINE
8
BLACK
6
CONTINUOUS
10
5.61477
20
-4.0731
11
5.61106
21
-4.0768
0
LINE
8
BLACK
6
CONTINUOUS
10
5.61106
20
-4.0768
11
5.6064
21
-4.07918
0
LINE
8
BLACK
6
CONTINUOUS
10
5.6064
20
-4.07918
11
5.60123
21
-4.08
0
LINE
8
BLACK
6
CONTINUOUS
10
5.60123
20
-4.08
11
5.59606
21
-4.07918
0
LINE
8
BLACK
6
CONTINUOUS
10
5.59606
20
-4.07918
11
5.59139
21
-4.0768
0
LINE
8
BLACK
6
CONTINUOUS
10
5.59139
20
-4.0768
11
5.58769
21
-4.0731
0
LINE
8
BLACK
6
CONTINUOUS
10
5.58769
20
-4.0731
11
5.58531
21
-4.06844
0
LINE
8
BLACK
6
CONTINUOUS
10
5.58531
20
-4.06844
11
5.5845
21
-4.06327
0
LINE
8
BLACK
6
CONTINUOUS
10
5.5845
20
-4.06327
11
5.58531
21
-4.0581
0
LINE
8
BLACK
6
CONTINUOUS
10
5.58531
20
-4.0581
11
5.58769
21
-4.05343
0
LINE
8
BLACK
6
CONTINUOUS
10
5.58769
20
-4.05343
11
5.59139
21
-4.04973
0
LINE
8
BLACK
6
CONTINUOUS
10
5.59139
20
-4.04973
11
5.59606
21
-4.04735
0
LINE
8
BLACK
6
CONTINUOUS
10
5.59606
20
-4.04735
11
5.60123
21
-4.04654
0
LINE
8
BLACK
6
CONTINUOUS
10
5.60123
20
-4.04654
11
5.6064
21
-4.04735
0
LINE
8
BLACK
6
CONTINUOUS
10
5.6064
20
-3.8198
11
5.61106
21
-3.82217
0
LINE
8
BLACK
6
CONTINUOUS
10
5.61106
20
-3.82217
11
5.61477
21
-3.82587
0
LINE
8
BLACK
6
CONTINUOUS
10
5.61477
20
-3.82587
11
5.61714
21
-3.83054
0
LINE
8
BLACK
6
CONTINUOUS
10
5.61714
20
-3.83054
11
5.61796
21
-3.83571
0
LINE
8
BLACK
6
CONTINUOUS
10
5.61796
20
-3.83571
11
5.61714
21
-3.84088
0
LINE
8
BLACK
6
CONTINUOUS
10
5.61714
20
-3.84088
11
5.61477
21
-3.84554
0
LINE
8
BLACK
6
CONTINUOUS
10
5.61477
20
-3.84554
11
5.61106
21
-3.84925
0
LINE
8
BLACK
6
CONTINUOUS
10
5.61106
20
-3.84925
11
5.6064
21
-3.85162
0
LINE
8
BLACK
6
CONTINUOUS
10
5.6064
20
-3.85162
11
5.60123
21
-3.85244
0
LINE
8
BLACK
6
CONTINUOUS
10
5.60123
20
-3.85244
11
5.59606
21
-3.85162
0
LINE
8
BLACK
6
CONTINUOUS
10
5.59606
20
-3.85162
11
5.59139
21
-3.84925
0
LINE
8
BLACK
6
CONTINUOUS
10
5.59139
20
-3.84925
11
5.58769
21
-3.84554
0
LINE
8
BLACK
6
CONTINUOUS
10
5.58769
20
-3.84554
11
5.58531
21
-3.84088
0
LINE
8
BLACK
6
CONTINUOUS
10
5.58531
20
-3.84088
11
5.5845
21
-3.83571
0
LINE
8
BLACK
6
CONTINUOUS
10
5.5845
20
-3.83571
11
5.58531
21
-3.83054
0
LINE
8
BLACK
6
CONTINUOUS
10
5.58531
20
-3.83054
11
5.58769
21
-3.82587
0
LINE
8
BLACK
6
CONTINUOUS
10
5.58769
20
-3.82587
11
5.59139
21
-3.82217
0
LINE
8
BLACK
6
CONTINUOUS
10
5.59139
20
-3.82217
11
5.59606
21
-3.8198
0
LINE
8
BLACK
6
CONTINUOUS
10
5.59606
20
-3.8198
11
5.60123
21
-3.81898
0
LINE
8
BLACK
6
CONTINUOUS
10
5.60123
20
-3.81898
11
5.6064
21
-3.8198
0
LINE
8
BLACK
6
CONTINUOUS
10
5.64467
20
-3.755
11
5.65064
21
-3.75653
0
LINE
8
BLACK
6
CONTINUOUS
10
5.65064
20
-3.75653
11
5.65605
21
-3.7595
0
LINE
8
BLACK
6
CONTINUOUS
10
5.65605
20
-3.7595
11
5.66054
21
-3.76372
0
LINE
8
BLACK
6
CONTINUOUS
10
5.66054
20
-3.76372
11
5.66385
21
-3.76893
0
LINE
8
BLACK
6
CONTINUOUS
10
5.66385
20
-3.76893
11
5.66575
21
-3.7748
0
LINE
8
BLACK
6
CONTINUOUS
10
5.66575
20
-3.7748
11
5.66614
21
-3.78095
0
LINE
8
BLACK
6
CONTINUOUS
10
5.66614
20
-3.78095
11
5.66498
21
-3.78701
0
LINE
8
BLACK
6
CONTINUOUS
10
5.66498
20
-3.78701
11
5.66236
21
-3.79259
0
LINE
8
BLACK
6
CONTINUOUS
10
5.66236
20
-3.79259
11
5.65843
21
-3.79735
0
LINE
8
BLACK
6
CONTINUOUS
10
5.65843
20
-3.79735
11
5.65344
21
-3.80097
0
LINE
8
BLACK
6
CONTINUOUS
10
5.65344
20
-3.80097
11
5.6477
21
-3.80324
0
LINE
8
BLACK
6
CONTINUOUS
10
5.6477
20
-3.80324
11
5.64158
21
-3.80402
0
LINE
8
BLACK
6
CONTINUOUS
10
5.64158
20
-3.80402
11
5.60024
21
-3.80402
0
LINE
8
BLACK
6
CONTINUOUS
10
5.60024
20
-3.80402
11
5.59716
21
-3.80382
0
LINE
8
BLACK
6
CONTINUOUS
10
5.59716
20
-3.80382
11
5.59119
21
-3.80229
0
LINE
8
BLACK
6
CONTINUOUS
10
5.59119
20
-3.80229
11
5.58578
21
-3.79932
0
LINE
8
BLACK
6
CONTINUOUS
10
5.58578
20
-3.79932
11
5.58128
21
-3.79509
0
LINE
8
BLACK
6
CONTINUOUS
10
5.58128
20
-3.79509
11
5.57798
21
-3.78989
0
LINE
8
BLACK
6
CONTINUOUS
10
5.57798
20
-3.78989
11
5.57607
21
-3.78402
0
LINE
8
BLACK
6
CONTINUOUS
10
5.57607
20
-3.78402
11
5.57569
21
-3.77786
0
LINE
8
BLACK
6
CONTINUOUS
10
5.57569
20
-3.77786
11
5.57684
21
-3.77181
0
LINE
8
BLACK
6
CONTINUOUS
10
5.57684
20
-3.77181
11
5.57947
21
-3.76622
0
LINE
8
BLACK
6
CONTINUOUS
10
5.57947
20
-3.76622
11
5.5834
21
-3.76147
0
LINE
8
BLACK
6
CONTINUOUS
10
5.5834
20
-3.76147
11
5.58839
21
-3.75785
0
LINE
8
BLACK
6
CONTINUOUS
10
5.58839
20
-3.75785
11
5.59412
21
-3.75558
0
LINE
8
BLACK
6
CONTINUOUS
10
5.59412
20
-3.75558
11
5.60024
21
-3.7548
0
LINE
8
BLACK
6
CONTINUOUS
10
5.60024
20
-3.7548
11
5.64158
21
-3.7548
0
LINE
8
BLACK
6
CONTINUOUS
10
5.64158
20
-3.7548
11
5.64467
21
-3.755
0
LINE
8
BLACK
6
CONTINUOUS
10
5.48215
20
-3.75659
11
5.48784
21
-3.75895
0
LINE
8
BLACK
6
CONTINUOUS
10
5.48784
20
-3.75895
11
5.49273
21
-3.76271
0
LINE
8
BLACK
6
CONTINUOUS
10
5.49273
20
-3.76271
11
5.49649
21
-3.7676
0
LINE
8
BLACK
6
CONTINUOUS
10
5.49649
20
-3.7676
11
5.49885
21
-3.7733
0
LINE
8
BLACK
6
CONTINUOUS
10
5.49885
20
-3.7733
11
5.49965
21
-3.77941
0
LINE
8
BLACK
6
CONTINUOUS
10
5.49965
20
-3.77941
11
5.49885
21
-3.78552
0
LINE
8
BLACK
6
CONTINUOUS
10
5.49885
20
-3.78552
11
5.49649
21
-3.79122
0
LINE
8
BLACK
6
CONTINUOUS
10
5.49649
20
-3.79122
11
5.49273
21
-3.79611
0
LINE
8
BLACK
6
CONTINUOUS
10
5.49273
20
-3.79611
11
5.48784
21
-3.79987
0
LINE
8
BLACK
6
CONTINUOUS
10
5.48784
20
-3.79987
11
5.48215
21
-3.80223
0
LINE
8
BLACK
6
CONTINUOUS
10
5.48215
20
-3.80223
11
5.47603
21
-3.80303
0
LINE
8
BLACK
6
CONTINUOUS
10
5.47603
20
-3.80303
11
5.43666
21
-3.80303
0
LINE
8
BLACK
6
CONTINUOUS
10
5.43666
20
-3.80303
11
5.43055
21
-3.80223
0
LINE
8
BLACK
6
CONTINUOUS
10
5.43055
20
-3.80223
11
5.42485
21
-3.79987
0
LINE
8
BLACK
6
CONTINUOUS
10
5.42485
20
-3.79987
11
5.41996
21
-3.79611
0
LINE
8
BLACK
6
CONTINUOUS
10
5.41996
20
-3.79611
11
5.4162
21
-3.79122
0
LINE
8
BLACK
6
CONTINUOUS
10
5.4162
20
-3.79122
11
5.41384
21
-3.78552
0
LINE
8
BLACK
6
CONTINUOUS
10
5.41384
20
-3.78552
11
5.41304
21
-3.77941
0
LINE
8
BLACK
6
CONTINUOUS
10
5.41304
20
-3.77941
11
5.41384
21
-3.7733
0
LINE
8
BLACK
6
CONTINUOUS
10
5.41384
20
-3.7733
11
5.4162
21
-3.7676
0
LINE
8
BLACK
6
CONTINUOUS
10
5.4162
20
-3.7676
11
5.41996
21
-3.76271
0
LINE
8
BLACK
6
CONTINUOUS
10
5.41996
20
-3.76271
11
5.42485
21
-3.75895
0
LINE
8
BLACK
6
CONTINUOUS
10
5.42485
20
-3.75895
11
5.43055
21
-3.75659
0
LINE
8
BLACK
6
CONTINUOUS
10
5.43055
20
-3.75659
11
5.43666
21
-3.75579
0
LINE
8
BLACK
6
CONTINUOUS
10
5.43666
20
-3.75579
11
5.47603
21
-3.75579
0
LINE
8
BLACK
6
CONTINUOUS
10
5.47603
20
-3.75579
11
5.48215
21
-3.75659
0
LINE
8
BLACK
6
CONTINUOUS
10
5.45127
20
-3.30169
11
5.46049
21
-3.30486
0
LINE
8
BLACK
6
CONTINUOUS
10
5.46049
20
-3.30486
11
5.46907
21
-3.3095
0
LINE
8
BLACK
6
CONTINUOUS
10
5.46907
20
-3.3095
11
5.47677
21
-3.31549
0
LINE
8
BLACK
6
CONTINUOUS
10
5.47677
20
-3.31549
11
5.48337
21
-3.32266
0
LINE
8
BLACK
6
CONTINUOUS
10
5.48337
20
-3.32266
11
5.48871
21
-3.33083
0
LINE
8
BLACK
6
CONTINUOUS
10
5.48871
20
-3.33083
11
5.49263
21
-3.33976
0
LINE
8
BLACK
6
CONTINUOUS
10
5.49263
20
-3.33976
11
5.49502
21
-3.34922
0
LINE
8
BLACK
6
CONTINUOUS
10
5.49502
20
-3.34922
11
5.49583
21
-3.35894
0
LINE
8
BLACK
6
CONTINUOUS
10
5.49583
20
-3.35894
11
5.49502
21
-3.36866
0
LINE
8
BLACK
6
CONTINUOUS
10
5.49502
20
-3.36866
11
5.49263
21
-3.37811
0
LINE
8
BLACK
6
CONTINUOUS
10
5.49263
20
-3.37811
11
5.48871
21
-3.38704
0
LINE
8
BLACK
6
CONTINUOUS
10
5.48871
20
-3.38704
11
5.48337
21
-3.39521
0
LINE
8
BLACK
6
CONTINUOUS
10
5.48337
20
-3.39521
11
5.47677
21
-3.40239
0
LINE
8
BLACK
6
CONTINUOUS
10
5.47677
20
-3.40239
11
5.46907
21
-3.40838
0
LINE
8
BLACK
6
CONTINUOUS
10
5.46907
20
-3.40838
11
5.46049
21
-3.41302
0
LINE
8
BLACK
6
CONTINUOUS
10
5.46049
20
-3.41302
11
5.45127
21
-3.41619
0
LINE
8
BLACK
6
CONTINUOUS
10
5.45127
20
-3.41619
11
5.44165
21
-3.41779
0
LINE
8
BLACK
6
CONTINUOUS
10
5.44165
20
-3.41779
11
5.43189
21
-3.41779
0
LINE
8
BLACK
6
CONTINUOUS
10
5.43189
20
-3.41779
11
5.42227
21
-3.41619
0
LINE
8
BLACK
6
CONTINUOUS
10
5.42227
20
-3.41619
11
5.41305
21
-3.41302
0
LINE
8
BLACK
6
CONTINUOUS
10
5.41305
20
-3.41302
11
5.40447
21
-3.40838
0
LINE
8
BLACK
6
CONTINUOUS
10
5.40447
20
-3.40838
11
5.39677
21
-3.40239
0
LINE
8
BLACK
6
CONTINUOUS
10
5.39677
20
-3.40239
11
5.39017
21
-3.39521
0
LINE
8
BLACK
6
CONTINUOUS
10
5.39017
20
-3.39521
11
5.38483
21
-3.38704
0
LINE
8
BLACK
6
CONTINUOUS
10
5.38483
20
-3.38704
11
5.38092
21
-3.37811
0
LINE
8
BLACK
6
CONTINUOUS
10
5.38092
20
-3.37811
11
5.37852
21
-3.36866
0
LINE
8
BLACK
6
CONTINUOUS
10
5.37852
20
-3.36866
11
5.37772
21
-3.35894
0
LINE
8
BLACK
6
CONTINUOUS
10
5.37772
20
-3.35894
11
5.37852
21
-3.34922
0
LINE
8
BLACK
6
CONTINUOUS
10
5.37852
20
-3.34922
11
5.38092
21
-3.33976
0
LINE
8
BLACK
6
CONTINUOUS
10
5.38092
20
-3.33976
11
5.38483
21
-3.33083
0
LINE
8
BLACK
6
CONTINUOUS
10
5.38483
20
-3.33083
11
5.39017
21
-3.32266
0
LINE
8
BLACK
6
CONTINUOUS
10
5.39017
20
-3.32266
11
5.39677
21
-3.31549
0
LINE
8
BLACK
6
CONTINUOUS
10
5.39677
20
-3.31549
11
5.40447
21
-3.3095
0
LINE
8
BLACK
6
CONTINUOUS
10
5.40447
20
-3.3095
11
5.41305
21
-3.30486
0
LINE
8
BLACK
6
CONTINUOUS
10
5.41305
20
-3.30486
11
5.42227
21
-3.30169
0
LINE
8
BLACK
6
CONTINUOUS
10
5.42227
20
-3.30169
11
5.43189
21
-3.30008
0
LINE
8
BLACK
6
CONTINUOUS
10
5.43189
20
-3.30008
11
5.44165
21
-3.30008
0
LINE
8
BLACK
6
CONTINUOUS
10
5.44165
20
-3.30008
11
5.45127
21
-3.30169
0
LINE
8
BLACK
6
CONTINUOUS
10
5.84497
20
-3.30169
11
5.85419
21
-3.30486
0
LINE
8
BLACK
6
CONTINUOUS
10
5.85419
20
-3.30486
11
5.86277
21
-3.3095
0
LINE
8
BLACK
6
CONTINUOUS
10
5.86277
20
-3.3095
11
5.87047
21
-3.31549
0
LINE
8
BLACK
6
CONTINUOUS
10
5.87047
20
-3.31549
11
5.87708
21
-3.32266
0
LINE
8
BLACK
6
CONTINUOUS
10
5.87708
20
-3.32266
11
5.88241
21
-3.33083
0
LINE
8
BLACK
6
CONTINUOUS
10
5.88241
20
-3.33083
11
5.88633
21
-3.33976
0
LINE
8
BLACK
6
CONTINUOUS
10
5.88633
20
-3.33976
11
5.88872
21
-3.34922
0
LINE
8
BLACK
6
CONTINUOUS
10
5.88872
20
-3.34922
11
5.88953
21
-3.35894
0
LINE
8
BLACK
6
CONTINUOUS
10
5.88953
20
-3.35894
11
5.88872
21
-3.36866
0
LINE
8
BLACK
6
CONTINUOUS
10
5.88872
20
-3.36866
11
5.88633
21
-3.37811
0
LINE
8
BLACK
6
CONTINUOUS
10
5.88633
20
-3.37811
11
5.88241
21
-3.38704
0
LINE
8
BLACK
6
CONTINUOUS
10
5.88241
20
-3.38704
11
5.87708
21
-3.39521
0
LINE
8
BLACK
6
CONTINUOUS
10
5.87708
20
-3.39521
11
5.87047
21
-3.40239
0
LINE
8
BLACK
6
CONTINUOUS
10
5.87047
20
-3.40239
11
5.86277
21
-3.40838
0
LINE
8
BLACK
6
CONTINUOUS
10
5.86277
20
-3.40838
11
5.85419
21
-3.41302
0
LINE
8
BLACK
6
CONTINUOUS
10
5.85419
20
-3.41302
11
5.84497
21
-3.41619
0
LINE
8
BLACK
6
CONTINUOUS
10
5.84497
20
-3.41619
11
5.83535
21
-3.41779
0
LINE
8
BLACK
6
CONTINUOUS
10
5.83535
20
-3.41779
11
5.8256
21
-3.41779
0
LINE
8
BLACK
6
CONTINUOUS
10
5.8256
20
-3.41779
11
5.81598
21
-3.41619
0
LINE
8
BLACK
6
CONTINUOUS
10
5.81598
20
-3.41619
11
5.80675
21
-3.41302
0
LINE
8
BLACK
6
CONTINUOUS
10
5.80675
20
-3.41302
11
5.79817
21
-3.40838
0
LINE
8
BLACK
6
CONTINUOUS
10
5.79817
20
-3.40838
11
5.79048
21
-3.40239
0
LINE
8
BLACK
6
CONTINUOUS
10
5.79048
20
-3.40239
11
5.78387
21
-3.39521
0
LINE
8
BLACK
6
CONTINUOUS
10
5.78387
20
-3.39521
11
5.77853
21
-3.38704
0
LINE
8
BLACK
6
CONTINUOUS
10
5.77853
20
-3.38704
11
5.77462
21
-3.37811
0
LINE
8
BLACK
6
CONTINUOUS
10
5.77462
20
-3.37811
11
5.77222
21
-3.36866
0
LINE
8
BLACK
6
CONTINUOUS
10
5.77222
20
-3.36866
11
5.77142
21
-3.35894
0
LINE
8
BLACK
6
CONTINUOUS
10
5.77142
20
-3.35894
11
5.77222
21
-3.34922
0
LINE
8
BLACK
6
CONTINUOUS
10
5.77222
20
-3.34922
11
5.77462
21
-3.33976
0
LINE
8
BLACK
6
CONTINUOUS
10
5.77462
20
-3.33976
11
5.77853
21
-3.33083
0
LINE
8
BLACK
6
CONTINUOUS
10
5.77853
20
-3.33083
11
5.78387
21
-3.32266
0
LINE
8
BLACK
6
CONTINUOUS
10
5.78387
20
-3.32266
11
5.79048
21
-3.31549
0
LINE
8
BLACK
6
CONTINUOUS
10
5.79048
20
-3.31549
11
5.79817
21
-3.3095
0
LINE
8
BLACK
6
CONTINUOUS
10
5.79817
20
-3.3095
11
5.80675
21
-3.30486
0
LINE
8
BLACK
6
CONTINUOUS
10
5.80675
20
-3.30486
11
5.81598
21
-3.30169
0
LINE
8
BLACK
6
CONTINUOUS
10
5.81598
20
-3.30169
11
5.8256
21
-3.30008
0
LINE
8
BLACK
6
CONTINUOUS
10
5.8256
20
-3.30008
11
5.83535
21
-3.30008
0
LINE
8
BLACK
6
CONTINUOUS
10
5.83535
20
-3.30008
11
5.84497
21
-3.30169
0
LINE
8
BLACK
6
CONTINUOUS
10
6.23867
20
-3.30169
11
6.2479
21
-3.30486
0
LINE
8
BLACK
6
CONTINUOUS
10
6.2479
20
-3.30486
11
6.25647
21
-3.3095
0
LINE
8
BLACK
6
CONTINUOUS
10
6.25647
20
-3.3095
11
6.26417
21
-3.31549
0
LINE
8
BLACK
6
CONTINUOUS
10
6.26417
20
-3.31549
11
6.27078
21
-3.32266
0
LINE
8
BLACK
6
CONTINUOUS
10
6.27078
20
-3.32266
11
6.27611
21
-3.33083
0
LINE
8
BLACK
6
CONTINUOUS
10
6.27611
20
-3.33083
11
6.28003
21
-3.33976
0
LINE
8
BLACK
6
CONTINUOUS
10
6.28003
20
-3.33976
11
6.28242
21
-3.34922
0
LINE
8
BLACK
6
CONTINUOUS
10
6.28242
20
-3.34922
11
6.28323
21
-3.35894
0
LINE
8
BLACK
6
CONTINUOUS
10
6.28323
20
-3.35894
11
6.28242
21
-3.36866
0
LINE
8
BLACK
6
CONTINUOUS
10
6.28242
20
-3.36866
11
6.28003
21
-3.37811
0
LINE
8
BLACK
6
CONTINUOUS
10
6.28003
20
-3.37811
11
6.27611
21
-3.38704
0
LINE
8
BLACK
6
CONTINUOUS
10
6.27611
20
-3.38704
11
6.27078
21
-3.39521
0
LINE
8
BLACK
6
CONTINUOUS
10
6.27078
20
-3.39521
11
6.26417
21
-3.40239
0
LINE
8
BLACK
6
CONTINUOUS
10
6.26417
20
-3.40239
11
6.25647
21
-3.40838
0
LINE
8
BLACK
6
CONTINUOUS
10
6.25647
20
-3.40838
11
6.2479
21
-3.41302
0
LINE
8
BLACK
6
CONTINUOUS
10
6.2479
20
-3.41302
11
6.23867
21
-3.41619
0
LINE
8
BLACK
6
CONTINUOUS
10
6.23867
20
-3.41619
11
6.22905
21
-3.41779
0
LINE
8
BLACK
6
CONTINUOUS
10
6.22905
20
-3.41779
11
6.2193
21
-3.41779
0
LINE
8
BLACK
6
CONTINUOUS
10
6.2193
20
-3.41779
11
6.20968
21
-3.41619
0
LINE
8
BLACK
6
CONTINUOUS
10
6.20968
20
-3.41619
11
6.20045
21
-3.41302
0
LINE
8
BLACK
6
CONTINUOUS
10
6.20045
20
-3.41302
11
6.19187
21
-3.40838
0
LINE
8
BLACK
6
CONTINUOUS
10
6.19187
20
-3.40838
11
6.18418
21
-3.40239
0
LINE
8
BLACK
6
CONTINUOUS
10
6.18418
20
-3.40239
11
6.17757
21
-3.39521
0
LINE
8
BLACK
6
CONTINUOUS
10
6.17757
20
-3.39521
11
6.17224
21
-3.38704
0
LINE
8
BLACK
6
CONTINUOUS
10
6.17224
20
-3.38704
11
6.16832
21
-3.37811
0
LINE
8
BLACK
6
CONTINUOUS
10
6.16832
20
-3.37811
11
6.16592
21
-3.36866
0
LINE
8
BLACK
6
CONTINUOUS
10
6.16592
20
-3.36866
11
6.16512
21
-3.35894
0
LINE
8
BLACK
6
CONTINUOUS
10
6.16512
20
-3.35894
11
6.16592
21
-3.34922
0
LINE
8
BLACK
6
CONTINUOUS
10
6.16592
20
-3.34922
11
6.16832
21
-3.33976
0
LINE
8
BLACK
6
CONTINUOUS
10
6.16832
20
-3.33976
11
6.17224
21
-3.33083
0
LINE
8
BLACK
6
CONTINUOUS
10
6.17224
20
-3.33083
11
6.17757
21
-3.32266
0
LINE
8
BLACK
6
CONTINUOUS
10
6.17757
20
-3.32266
11
6.18418
21
-3.31549
0
LINE
8
BLACK
6
CONTINUOUS
10
6.18418
20
-3.31549
11
6.19187
21
-3.3095
0
LINE
8
BLACK
6
CONTINUOUS
10
6.19187
20
-3.3095
11
6.20045
21
-3.30486
0
LINE
8
BLACK
6
CONTINUOUS
10
6.20045
20
-3.30486
11
6.20968
21
-3.30169
0
LINE
8
BLACK
6
CONTINUOUS
10
6.20968
20
-3.30169
11
6.2193
21
-3.30008
0
LINE
8
BLACK
6
CONTINUOUS
10
6.2193
20
-3.30008
11
6.22905
21
-3.30008
0
LINE
8
BLACK
6
CONTINUOUS
10
6.22905
20
-3.30008
11
6.23867
21
-3.30169
  0
ENDSEC
  0
EOF
