  0
SECTION
  2
HEADER
  9
$ANGBASE
  50
0.0
  9
$ANGDIR
  70
1
  9
$MEASUREMENT
  70
0
  0
ENDSEC
  0
SECTION
  2
TABLES
  0
TABLE
  2
LTYPE
  70
4
  0
LTYPE
  5
40F
  2
CONTINUOUS
  70
0
  3
Solid line
  72
65
  73
0
  40
0.0
  0
LTYPE
  5
410
  2
DASHDOT
 70
0
  3
Dash Dot ____ _ ____ _
 72
65
 73
4
 40
2.0
 49
1.25
 49
-0.25
 49
0.25
 49
-0.25
  0
LTYPE
  5
411
  2
DASHED
 70
0
  3
Dashed __ __ __ __ __
 72
65
 73
2
 40
0.75
 49
0.5
 49
-0.25
  0
LTYPE
  5
43B
  2
DOTTED
 70
0
  3
Dotted .  .  .  .
 72
65
 73
2
 40
0.2
 49
0.0
 49
-0.2
  0
ENDTAB
  0
TABLE
  2
STYLE
  70
4
  0
STYLE
  2
KICAD
  70
0
  40
0
  41
1
  42
1
  50
0
  71
0
  3
isocp.shx
  0
STYLE
  2
KICADB
  70
0
  40
0
  41
1
  42
1
  50
0
  71
0
  3
isocp.shx
  0
STYLE
  2
KICADI
  70
0
  40
0
  41
1
  42
1
  50
15
  71
0
  3
isocp.shx
  0
STYLE
  2
KICADBI
  70
0
  40
0
  41
1
  42
1
  50
15
  71
0
  3
isocp.shx
  0
ENDTAB
  0
TABLE
  2
LAYER
  70
1
  0
LAYER
  2
BLACK
  70
0
  62
7
  6
CONTINUOUS
  0
ENDTAB
  0
ENDSEC
  0
SECTION
  2
ENTITIES
0
LINE
8
BLACK
6
CONTINUOUS
10
5.45127
20
-4.48279
11
5.46049
21
-4.48596
0
LINE
8
BLACK
6
CONTINUOUS
10
5.46049
20
-4.48596
11
5.46907
21
-4.4906
0
LINE
8
BLACK
6
CONTINUOUS
10
5.46907
20
-4.4906
11
5.47677
21
-4.49659
0
LINE
8
BLACK
6
CONTINUOUS
10
5.47677
20
-4.49659
11
5.48337
21
-4.50377
0
LINE
8
BLACK
6
CONTINUOUS
10
5.48337
20
-4.50377
11
5.48871
21
-4.51193
0
LINE
8
BLACK
6
CONTINUOUS
10
5.48871
20
-4.51193
11
5.49263
21
-4.52086
0
LINE
8
BLACK
6
CONTINUOUS
10
5.49263
20
-4.52086
11
5.49502
21
-4.53032
0
LINE
8
BLACK
6
CONTINUOUS
10
5.49502
20
-4.53032
11
5.49583
21
-4.54004
0
LINE
8
BLACK
6
CONTINUOUS
10
5.49583
20
-4.54004
11
5.49502
21
-4.54976
0
LINE
8
BLACK
6
CONTINUOUS
10
5.49502
20
-4.54976
11
5.49263
21
-4.55921
0
LINE
8
BLACK
6
CONTINUOUS
10
5.49263
20
-4.55921
11
5.48871
21
-4.56815
0
LINE
8
BLACK
6
CONTINUOUS
10
5.48871
20
-4.56815
11
5.48337
21
-4.57631
0
LINE
8
BLACK
6
CONTINUOUS
10
5.48337
20
-4.57631
11
5.47677
21
-4.58349
0
LINE
8
BLACK
6
CONTINUOUS
10
5.47677
20
-4.58349
11
5.46907
21
-4.58948
0
LINE
8
BLACK
6
CONTINUOUS
10
5.46907
20
-4.58948
11
5.46049
21
-4.59412
0
LINE
8
BLACK
6
CONTINUOUS
10
5.46049
20
-4.59412
11
5.45127
21
-4.59729
0
LINE
8
BLACK
6
CONTINUOUS
10
5.45127
20
-4.59729
11
5.44165
21
-4.59889
0
LINE
8
BLACK
6
CONTINUOUS
10
5.44165
20
-4.59889
11
5.43189
21
-4.59889
0
LINE
8
BLACK
6
CONTINUOUS
10
5.43189
20
-4.59889
11
5.42227
21
-4.59729
0
LINE
8
BLACK
6
CONTINUOUS
10
5.42227
20
-4.59729
11
5.41305
21
-4.59412
0
LINE
8
BLACK
6
CONTINUOUS
10
5.41305
20
-4.59412
11
5.40447
21
-4.58948
0
LINE
8
BLACK
6
CONTINUOUS
10
5.40447
20
-4.58948
11
5.39677
21
-4.58349
0
LINE
8
BLACK
6
CONTINUOUS
10
5.39677
20
-4.58349
11
5.39017
21
-4.57631
0
LINE
8
BLACK
6
CONTINUOUS
10
5.39017
20
-4.57631
11
5.38483
21
-4.56815
0
LINE
8
BLACK
6
CONTINUOUS
10
5.38483
20
-4.56815
11
5.38092
21
-4.55921
0
LINE
8
BLACK
6
CONTINUOUS
10
5.38092
20
-4.55921
11
5.37852
21
-4.54976
0
LINE
8
BLACK
6
CONTINUOUS
10
5.37852
20
-4.54976
11
5.37772
21
-4.54004
0
LINE
8
BLACK
6
CONTINUOUS
10
5.37772
20
-4.54004
11
5.37852
21
-4.53032
0
LINE
8
BLACK
6
CONTINUOUS
10
5.37852
20
-4.53032
11
5.38092
21
-4.52086
0
LINE
8
BLACK
6
CONTINUOUS
10
5.38092
20
-4.52086
11
5.38483
21
-4.51193
0
LINE
8
BLACK
6
CONTINUOUS
10
5.38483
20
-4.51193
11
5.39017
21
-4.50377
0
LINE
8
BLACK
6
CONTINUOUS
10
5.39017
20
-4.50377
11
5.39677
21
-4.49659
0
LINE
8
BLACK
6
CONTINUOUS
10
5.39677
20
-4.49659
11
5.40447
21
-4.4906
0
LINE
8
BLACK
6
CONTINUOUS
10
5.40447
20
-4.4906
11
5.41305
21
-4.48596
0
LINE
8
BLACK
6
CONTINUOUS
10
5.41305
20
-4.48596
11
5.42227
21
-4.48279
0
LINE
8
BLACK
6
CONTINUOUS
10
5.42227
20
-4.48279
11
5.43189
21
-4.48119
0
LINE
8
BLACK
6
CONTINUOUS
10
5.43189
20
-4.48119
11
5.44165
21
-4.48119
0
LINE
8
BLACK
6
CONTINUOUS
10
5.44165
20
-4.48119
11
5.45127
21
-4.48279
0
LINE
8
BLACK
6
CONTINUOUS
10
5.84497
20
-4.48279
11
5.85419
21
-4.48596
0
LINE
8
BLACK
6
CONTINUOUS
10
5.85419
20
-4.48596
11
5.86277
21
-4.4906
0
LINE
8
BLACK
6
CONTINUOUS
10
5.86277
20
-4.4906
11
5.87047
21
-4.49659
0
LINE
8
BLACK
6
CONTINUOUS
10
5.87047
20
-4.49659
11
5.87708
21
-4.50377
0
LINE
8
BLACK
6
CONTINUOUS
10
5.87708
20
-4.50377
11
5.88241
21
-4.51193
0
LINE
8
BLACK
6
CONTINUOUS
10
5.88241
20
-4.51193
11
5.88633
21
-4.52086
0
LINE
8
BLACK
6
CONTINUOUS
10
5.88633
20
-4.52086
11
5.88872
21
-4.53032
0
LINE
8
BLACK
6
CONTINUOUS
10
5.88872
20
-4.53032
11
5.88953
21
-4.54004
0
LINE
8
BLACK
6
CONTINUOUS
10
5.88953
20
-4.54004
11
5.88872
21
-4.54976
0
LINE
8
BLACK
6
CONTINUOUS
10
5.88872
20
-4.54976
11
5.88633
21
-4.55921
0
LINE
8
BLACK
6
CONTINUOUS
10
5.88633
20
-4.55921
11
5.88241
21
-4.56815
0
LINE
8
BLACK
6
CONTINUOUS
10
5.88241
20
-4.56815
11
5.87708
21
-4.57631
0
LINE
8
BLACK
6
CONTINUOUS
10
5.87708
20
-4.57631
11
5.87047
21
-4.58349
0
LINE
8
BLACK
6
CONTINUOUS
10
5.87047
20
-4.58349
11
5.86277
21
-4.58948
0
LINE
8
BLACK
6
CONTINUOUS
10
5.86277
20
-4.58948
11
5.85419
21
-4.59412
0
LINE
8
BLACK
6
CONTINUOUS
10
5.85419
20
-4.59412
11
5.84497
21
-4.59729
0
LINE
8
BLACK
6
CONTINUOUS
10
5.84497
20
-4.59729
11
5.83535
21
-4.59889
0
LINE
8
BLACK
6
CONTINUOUS
10
5.83535
20
-4.59889
11
5.8256
21
-4.59889
0
LINE
8
BLACK
6
CONTINUOUS
10
5.8256
20
-4.59889
11
5.81598
21
-4.59729
0
LINE
8
BLACK
6
CONTINUOUS
10
5.81598
20
-4.59729
11
5.80675
21
-4.59412
0
LINE
8
BLACK
6
CONTINUOUS
10
5.80675
20
-4.59412
11
5.79817
21
-4.58948
0
LINE
8
BLACK
6
CONTINUOUS
10
5.79817
20
-4.58948
11
5.79048
21
-4.58349
0
LINE
8
BLACK
6
CONTINUOUS
10
5.79048
20
-4.58349
11
5.78387
21
-4.57631
0
LINE
8
BLACK
6
CONTINUOUS
10
5.78387
20
-4.57631
11
5.77853
21
-4.56815
0
LINE
8
BLACK
6
CONTINUOUS
10
5.77853
20
-4.56815
11
5.77462
21
-4.55921
0
LINE
8
BLACK
6
CONTINUOUS
10
5.77462
20
-4.55921
11
5.77222
21
-4.54976
0
LINE
8
BLACK
6
CONTINUOUS
10
5.77222
20
-4.54976
11
5.77142
21
-4.54004
0
LINE
8
BLACK
6
CONTINUOUS
10
5.77142
20
-4.54004
11
5.77222
21
-4.53032
0
LINE
8
BLACK
6
CONTINUOUS
10
5.77222
20
-4.53032
11
5.77462
21
-4.52086
0
LINE
8
BLACK
6
CONTINUOUS
10
5.77462
20
-4.52086
11
5.77853
21
-4.51193
0
LINE
8
BLACK
6
CONTINUOUS
10
5.77853
20
-4.51193
11
5.78387
21
-4.50377
0
LINE
8
BLACK
6
CONTINUOUS
10
5.78387
20
-4.50377
11
5.79048
21
-4.49659
0
LINE
8
BLACK
6
CONTINUOUS
10
5.79048
20
-4.49659
11
5.79817
21
-4.4906
0
LINE
8
BLACK
6
CONTINUOUS
10
5.79817
20
-4.4906
11
5.80675
21
-4.48596
0
LINE
8
BLACK
6
CONTINUOUS
10
5.80675
20
-4.48596
11
5.81598
21
-4.48279
0
LINE
8
BLACK
6
CONTINUOUS
10
5.81598
20
-4.48279
11
5.8256
21
-4.48119
0
LINE
8
BLACK
6
CONTINUOUS
10
5.8256
20
-4.48119
11
5.83535
21
-4.48119
0
LINE
8
BLACK
6
CONTINUOUS
10
5.83535
20
-4.48119
11
5.84497
21
-4.48279
0
LINE
8
BLACK
6
CONTINUOUS
10
6.23867
20
-4.48279
11
6.2479
21
-4.48596
0
LINE
8
BLACK
6
CONTINUOUS
10
6.2479
20
-4.48596
11
6.25647
21
-4.4906
0
LINE
8
BLACK
6
CONTINUOUS
10
6.25647
20
-4.4906
11
6.26417
21
-4.49659
0
LINE
8
BLACK
6
CONTINUOUS
10
6.26417
20
-4.49659
11
6.27078
21
-4.50377
0
LINE
8
BLACK
6
CONTINUOUS
10
6.27078
20
-4.50377
11
6.27611
21
-4.51193
0
LINE
8
BLACK
6
CONTINUOUS
10
6.27611
20
-4.51193
11
6.28003
21
-4.52086
0
LINE
8
BLACK
6
CONTINUOUS
10
6.28003
20
-4.52086
11
6.28242
21
-4.53032
0
LINE
8
BLACK
6
CONTINUOUS
10
6.28242
20
-4.53032
11
6.28323
21
-4.54004
0
LINE
8
BLACK
6
CONTINUOUS
10
6.28323
20
-4.54004
11
6.28242
21
-4.54976
0
LINE
8
BLACK
6
CONTINUOUS
10
6.28242
20
-4.54976
11
6.28003
21
-4.55921
0
LINE
8
BLACK
6
CONTINUOUS
10
6.28003
20
-4.55921
11
6.27611
21
-4.56815
0
LINE
8
BLACK
6
CONTINUOUS
10
6.27611
20
-4.56815
11
6.27078
21
-4.57631
0
LINE
8
BLACK
6
CONTINUOUS
10
6.27078
20
-4.57631
11
6.26417
21
-4.58349
0
LINE
8
BLACK
6
CONTINUOUS
10
6.26417
20
-4.58349
11
6.25647
21
-4.58948
0
LINE
8
BLACK
6
CONTINUOUS
10
6.25647
20
-4.58948
11
6.2479
21
-4.59412
0
LINE
8
BLACK
6
CONTINUOUS
10
6.2479
20
-4.59412
11
6.23867
21
-4.59729
0
LINE
8
BLACK
6
CONTINUOUS
10
6.23867
20
-4.59729
11
6.22905
21
-4.59889
0
LINE
8
BLACK
6
CONTINUOUS
10
6.22905
20
-4.59889
11
6.2193
21
-4.59889
0
LINE
8
BLACK
6
CONTINUOUS
10
6.2193
20
-4.59889
11
6.20968
21
-4.59729
0
LINE
8
BLACK
6
CONTINUOUS
10
6.20968
20
-4.59729
11
6.20045
21
-4.59412
0
LINE
8
BLACK
6
CONTINUOUS
10
6.20045
20
-4.59412
11
6.19187
21
-4.58948
0
LINE
8
BLACK
6
CONTINUOUS
10
6.19187
20
-4.58948
11
6.18418
21
-4.58349
0
LINE
8
BLACK
6
CONTINUOUS
10
6.18418
20
-4.58349
11
6.17757
21
-4.57631
0
LINE
8
BLACK
6
CONTINUOUS
10
6.17757
20
-4.57631
11
6.17224
21
-4.56815
0
LINE
8
BLACK
6
CONTINUOUS
10
6.17224
20
-4.56815
11
6.16832
21
-4.55921
0
LINE
8
BLACK
6
CONTINUOUS
10
6.16832
20
-4.55921
11
6.16592
21
-4.54976
0
LINE
8
BLACK
6
CONTINUOUS
10
6.16592
20
-4.54976
11
6.16512
21
-4.54004
0
LINE
8
BLACK
6
CONTINUOUS
10
6.16512
20
-4.54004
11
6.16592
21
-4.53032
0
LINE
8
BLACK
6
CONTINUOUS
10
6.16592
20
-4.53032
11
6.16832
21
-4.52086
0
LINE
8
BLACK
6
CONTINUOUS
10
6.16832
20
-4.52086
11
6.17224
21
-4.51193
0
LINE
8
BLACK
6
CONTINUOUS
10
6.17224
20
-4.51193
11
6.17757
21
-4.50377
0
LINE
8
BLACK
6
CONTINUOUS
10
6.17757
20
-4.50377
11
6.18418
21
-4.49659
0
LINE
8
BLACK
6
CONTINUOUS
10
6.18418
20
-4.49659
11
6.19187
21
-4.4906
0
LINE
8
BLACK
6
CONTINUOUS
10
6.19187
20
-4.4906
11
6.20045
21
-4.48596
0
LINE
8
BLACK
6
CONTINUOUS
10
6.20045
20
-4.48596
11
6.20968
21
-4.48279
0
LINE
8
BLACK
6
CONTINUOUS
10
6.20968
20
-4.48279
11
6.2193
21
-4.48119
0
LINE
8
BLACK
6
CONTINUOUS
10
6.2193
20
-4.48119
11
6.22905
21
-4.48119
0
LINE
8
BLACK
6
CONTINUOUS
10
6.22905
20
-4.48119
11
6.23867
21
-4.48279
0
LINE
8
BLACK
6
CONTINUOUS
10
6.4931
20
-4.42846
11
6.49808
21
-4.4302
0
LINE
8
BLACK
6
CONTINUOUS
10
6.49808
20
-4.4302
11
6.50233
21
-4.43334
0
LINE
8
BLACK
6
CONTINUOUS
10
6.50233
20
-4.43334
11
6.50547
21
-4.43759
0
LINE
8
BLACK
6
CONTINUOUS
10
6.50547
20
-4.43759
11
6.50721
21
-4.44257
0
LINE
8
BLACK
6
CONTINUOUS
10
6.50721
20
-4.44257
11
6.50752
21
-4.44587
0
LINE
8
BLACK
6
CONTINUOUS
10
6.50752
20
-4.44587
11
6.50752
21
-4.46555
0
LINE
8
BLACK
6
CONTINUOUS
10
6.50752
20
-4.46555
11
6.50721
21
-4.46884
0
LINE
8
BLACK
6
CONTINUOUS
10
6.50721
20
-4.46884
11
6.50547
21
-4.47383
0
LINE
8
BLACK
6
CONTINUOUS
10
6.50547
20
-4.47383
11
6.50233
21
-4.47808
0
LINE
8
BLACK
6
CONTINUOUS
10
6.50233
20
-4.47808
11
6.49808
21
-4.48121
0
LINE
8
BLACK
6
CONTINUOUS
10
6.49808
20
-4.48121
11
6.4931
21
-4.48296
0
LINE
8
BLACK
6
CONTINUOUS
10
6.4931
20
-4.48296
11
6.4898
21
-4.48327
0
LINE
8
BLACK
6
CONTINUOUS
10
6.4898
20
-4.48327
11
6.40319
21
-4.48327
0
LINE
8
BLACK
6
CONTINUOUS
10
6.40319
20
-4.48327
11
6.3999
21
-4.48296
0
LINE
8
BLACK
6
CONTINUOUS
10
6.3999
20
-4.48296
11
6.39491
21
-4.48121
0
LINE
8
BLACK
6
CONTINUOUS
10
6.39491
20
-4.48121
11
6.39066
21
-4.47808
0
LINE
8
BLACK
6
CONTINUOUS
10
6.39066
20
-4.47808
11
6.38753
21
-4.47383
0
LINE
8
BLACK
6
CONTINUOUS
10
6.38753
20
-4.47383
11
6.38578
21
-4.46884
0
LINE
8
BLACK
6
CONTINUOUS
10
6.38578
20
-4.46884
11
6.38547
21
-4.46555
0
LINE
8
BLACK
6
CONTINUOUS
10
6.38547
20
-4.46555
11
6.38547
21
-4.44587
0
LINE
8
BLACK
6
CONTINUOUS
10
6.38547
20
-4.44587
11
6.38578
21
-4.44257
0
LINE
8
BLACK
6
CONTINUOUS
10
6.38578
20
-4.44257
11
6.38753
21
-4.43759
0
LINE
8
BLACK
6
CONTINUOUS
10
6.38753
20
-4.43759
11
6.39066
21
-4.43334
0
LINE
8
BLACK
6
CONTINUOUS
10
6.39066
20
-4.43334
11
6.39491
21
-4.4302
0
LINE
8
BLACK
6
CONTINUOUS
10
6.39491
20
-4.4302
11
6.3999
21
-4.42846
0
LINE
8
BLACK
6
CONTINUOUS
10
6.3999
20
-4.42846
11
6.40319
21
-4.42815
0
LINE
8
BLACK
6
CONTINUOUS
10
6.40319
20
-4.42815
11
6.4898
21
-4.42815
0
LINE
8
BLACK
6
CONTINUOUS
10
6.4898
20
-4.42815
11
6.4931
21
-4.42846
0
LINE
8
BLACK
6
CONTINUOUS
10
5.61806
20
-4.42006
11
5.62245
21
-4.4223
0
LINE
8
BLACK
6
CONTINUOUS
10
5.62245
20
-4.4223
11
5.62593
21
-4.42578
0
LINE
8
BLACK
6
CONTINUOUS
10
5.62593
20
-4.42578
11
5.62817
21
-4.43017
0
LINE
8
BLACK
6
CONTINUOUS
10
5.62817
20
-4.43017
11
5.62894
21
-4.43504
0
LINE
8
BLACK
6
CONTINUOUS
10
5.62894
20
-4.43504
11
5.62894
21
-4.45079
0
LINE
8
BLACK
6
CONTINUOUS
10
5.62894
20
-4.45079
11
5.62817
21
-4.45565
0
LINE
8
BLACK
6
CONTINUOUS
10
5.62817
20
-4.45565
11
5.62593
21
-4.46004
0
LINE
8
BLACK
6
CONTINUOUS
10
5.62593
20
-4.46004
11
5.62245
21
-4.46353
0
LINE
8
BLACK
6
CONTINUOUS
10
5.62245
20
-4.46353
11
5.61806
21
-4.46576
0
LINE
8
BLACK
6
CONTINUOUS
10
5.61806
20
-4.46576
11
5.61319
21
-4.46654
0
LINE
8
BLACK
6
CONTINUOUS
10
5.61319
20
-4.46654
11
5.59154
21
-4.46654
0
LINE
8
BLACK
6
CONTINUOUS
10
5.59154
20
-4.46654
11
5.58667
21
-4.46576
0
LINE
8
BLACK
6
CONTINUOUS
10
5.58667
20
-4.46576
11
5.58228
21
-4.46353
0
LINE
8
BLACK
6
CONTINUOUS
10
5.58228
20
-4.46353
11
5.57879
21
-4.46004
0
LINE
8
BLACK
6
CONTINUOUS
10
5.57879
20
-4.46004
11
5.57656
21
-4.45565
0
LINE
8
BLACK
6
CONTINUOUS
10
5.57656
20
-4.45565
11
5.57579
21
-4.45079
0
LINE
8
BLACK
6
CONTINUOUS
10
5.57579
20
-4.45079
11
5.57579
21
-4.43504
0
LINE
8
BLACK
6
CONTINUOUS
10
5.57579
20
-4.43504
11
5.57656
21
-4.43017
0
LINE
8
BLACK
6
CONTINUOUS
10
5.57656
20
-4.43017
11
5.57879
21
-4.42578
0
LINE
8
BLACK
6
CONTINUOUS
10
5.57879
20
-4.42578
11
5.58228
21
-4.4223
0
LINE
8
BLACK
6
CONTINUOUS
10
5.58228
20
-4.4223
11
5.58667
21
-4.42006
0
LINE
8
BLACK
6
CONTINUOUS
10
5.58667
20
-4.42006
11
5.59154
21
-4.41929
0
LINE
8
BLACK
6
CONTINUOUS
10
5.59154
20
-4.41929
11
5.61319
21
-4.41929
0
LINE
8
BLACK
6
CONTINUOUS
10
5.61319
20
-4.41929
11
5.61806
21
-4.42006
0
LINE
8
BLACK
6
CONTINUOUS
10
5.55062
20
-4.41616
11
5.55521
21
-4.4185
0
LINE
8
BLACK
6
CONTINUOUS
10
5.55521
20
-4.4185
11
5.55886
21
-4.42215
0
LINE
8
BLACK
6
CONTINUOUS
10
5.55886
20
-4.42215
11
5.5612
21
-4.42675
0
LINE
8
BLACK
6
CONTINUOUS
10
5.5612
20
-4.42675
11
5.56201
21
-4.43184
0
LINE
8
BLACK
6
CONTINUOUS
10
5.56201
20
-4.43184
11
5.56201
21
-4.44906
0
LINE
8
BLACK
6
CONTINUOUS
10
5.56201
20
-4.44906
11
5.5612
21
-4.45416
0
LINE
8
BLACK
6
CONTINUOUS
10
5.5612
20
-4.45416
11
5.55886
21
-4.45876
0
LINE
8
BLACK
6
CONTINUOUS
10
5.55886
20
-4.45876
11
5.55521
21
-4.4624
0
LINE
8
BLACK
6
CONTINUOUS
10
5.55521
20
-4.4624
11
5.55062
21
-4.46474
0
LINE
8
BLACK
6
CONTINUOUS
10
5.55062
20
-4.46474
11
5.54552
21
-4.46555
0
LINE
8
BLACK
6
CONTINUOUS
10
5.54552
20
-4.46555
11
5.52534
21
-4.46555
0
LINE
8
BLACK
6
CONTINUOUS
10
5.52534
20
-4.46555
11
5.52025
21
-4.46474
0
LINE
8
BLACK
6
CONTINUOUS
10
5.52025
20
-4.46474
11
5.51565
21
-4.4624
0
LINE
8
BLACK
6
CONTINUOUS
10
5.51565
20
-4.4624
11
5.51201
21
-4.45876
0
LINE
8
BLACK
6
CONTINUOUS
10
5.51201
20
-4.45876
11
5.50967
21
-4.45416
0
LINE
8
BLACK
6
CONTINUOUS
10
5.50967
20
-4.45416
11
5.50886
21
-4.44906
0
LINE
8
BLACK
6
CONTINUOUS
10
5.50886
20
-4.44906
11
5.50886
21
-4.43184
0
LINE
8
BLACK
6
CONTINUOUS
10
5.50886
20
-4.43184
11
5.50967
21
-4.42675
0
LINE
8
BLACK
6
CONTINUOUS
10
5.50967
20
-4.42675
11
5.51201
21
-4.42215
0
LINE
8
BLACK
6
CONTINUOUS
10
5.51201
20
-4.42215
11
5.51565
21
-4.4185
0
LINE
8
BLACK
6
CONTINUOUS
10
5.51565
20
-4.4185
11
5.52025
21
-4.41616
0
LINE
8
BLACK
6
CONTINUOUS
10
5.52025
20
-4.41616
11
5.52534
21
-4.41535
0
LINE
8
BLACK
6
CONTINUOUS
10
5.52534
20
-4.41535
11
5.54552
21
-4.41535
0
LINE
8
BLACK
6
CONTINUOUS
10
5.54552
20
-4.41535
11
5.55062
21
-4.41616
0
LINE
8
BLACK
6
CONTINUOUS
10
5.55062
20
-4.35415
11
5.55521
21
-4.3565
0
LINE
8
BLACK
6
CONTINUOUS
10
5.55521
20
-4.3565
11
5.55886
21
-4.36014
0
LINE
8
BLACK
6
CONTINUOUS
10
5.55886
20
-4.36014
11
5.5612
21
-4.36474
0
LINE
8
BLACK
6
CONTINUOUS
10
5.5612
20
-4.36474
11
5.56201
21
-4.36983
0
LINE
8
BLACK
6
CONTINUOUS
10
5.56201
20
-4.36983
11
5.56201
21
-4.38706
0
LINE
8
BLACK
6
CONTINUOUS
10
5.56201
20
-4.38706
11
5.5612
21
-4.39215
0
LINE
8
BLACK
6
CONTINUOUS
10
5.5612
20
-4.39215
11
5.55886
21
-4.39675
0
LINE
8
BLACK
6
CONTINUOUS
10
5.55886
20
-4.39675
11
5.55521
21
-4.40039
0
LINE
8
BLACK
6
CONTINUOUS
10
5.55521
20
-4.40039
11
5.55062
21
-4.40274
0
LINE
8
BLACK
6
CONTINUOUS
10
5.55062
20
-4.40274
11
5.54552
21
-4.40354
0
LINE
8
BLACK
6
CONTINUOUS
10
5.54552
20
-4.40354
11
5.52534
21
-4.40354
0
LINE
8
BLACK
6
CONTINUOUS
10
5.52534
20
-4.40354
11
5.52025
21
-4.40274
0
LINE
8
BLACK
6
CONTINUOUS
10
5.52025
20
-4.40274
11
5.51565
21
-4.40039
0
LINE
8
BLACK
6
CONTINUOUS
10
5.51565
20
-4.40039
11
5.51201
21
-4.39675
0
LINE
8
BLACK
6
CONTINUOUS
10
5.51201
20
-4.39675
11
5.50967
21
-4.39215
0
LINE
8
BLACK
6
CONTINUOUS
10
5.50967
20
-4.39215
11
5.50886
21
-4.38706
0
LINE
8
BLACK
6
CONTINUOUS
10
5.50886
20
-4.38706
11
5.50886
21
-4.36983
0
LINE
8
BLACK
6
CONTINUOUS
10
5.50886
20
-4.36983
11
5.50967
21
-4.36474
0
LINE
8
BLACK
6
CONTINUOUS
10
5.50967
20
-4.36474
11
5.51201
21
-4.36014
0
LINE
8
BLACK
6
CONTINUOUS
10
5.51201
20
-4.36014
11
5.51565
21
-4.3565
0
LINE
8
BLACK
6
CONTINUOUS
10
5.51565
20
-4.3565
11
5.52025
21
-4.35415
0
LINE
8
BLACK
6
CONTINUOUS
10
5.52025
20
-4.35415
11
5.52534
21
-4.35335
0
LINE
8
BLACK
6
CONTINUOUS
10
5.52534
20
-4.35335
11
5.54552
21
-4.35335
0
LINE
8
BLACK
6
CONTINUOUS
10
5.54552
20
-4.35335
11
5.55062
21
-4.35415
0
LINE
8
BLACK
6
CONTINUOUS
10
6.352
20
-4.36376
11
6.35608
21
-4.36575
0
LINE
8
BLACK
6
CONTINUOUS
10
6.35608
20
-4.36575
11
6.35929
21
-4.36896
0
LINE
8
BLACK
6
CONTINUOUS
10
6.35929
20
-4.36896
11
6.36128
21
-4.37304
0
LINE
8
BLACK
6
CONTINUOUS
10
6.36128
20
-4.37304
11
6.36185
21
-4.37697
0
LINE
8
BLACK
6
CONTINUOUS
10
6.36185
20
-4.37697
11
6.36185
21
-4.38878
0
LINE
8
BLACK
6
CONTINUOUS
10
6.36185
20
-4.38878
11
6.36128
21
-4.39271
0
LINE
8
BLACK
6
CONTINUOUS
10
6.36128
20
-4.39271
11
6.35929
21
-4.39679
0
LINE
8
BLACK
6
CONTINUOUS
10
6.35929
20
-4.39679
11
6.35608
21
-4.39999
0
LINE
8
BLACK
6
CONTINUOUS
10
6.35608
20
-4.39999
11
6.352
21
-4.40199
0
LINE
8
BLACK
6
CONTINUOUS
10
6.352
20
-4.40199
11
6.34807
21
-4.40256
0
LINE
8
BLACK
6
CONTINUOUS
10
6.34807
20
-4.40256
11
6.29295
21
-4.40256
0
LINE
8
BLACK
6
CONTINUOUS
10
6.29295
20
-4.40256
11
6.28902
21
-4.40199
0
LINE
8
BLACK
6
CONTINUOUS
10
6.28902
20
-4.40199
11
6.28495
21
-4.39999
0
LINE
8
BLACK
6
CONTINUOUS
10
6.28495
20
-4.39999
11
6.28174
21
-4.39679
0
LINE
8
BLACK
6
CONTINUOUS
10
6.28174
20
-4.39679
11
6.27975
21
-4.39271
0
LINE
8
BLACK
6
CONTINUOUS
10
6.27975
20
-4.39271
11
6.27917
21
-4.38878
0
LINE
8
BLACK
6
CONTINUOUS
10
6.27917
20
-4.38878
11
6.27917
21
-4.37697
0
LINE
8
BLACK
6
CONTINUOUS
10
6.27917
20
-4.37697
11
6.27975
21
-4.37304
0
LINE
8
BLACK
6
CONTINUOUS
10
6.27975
20
-4.37304
11
6.28174
21
-4.36896
0
LINE
8
BLACK
6
CONTINUOUS
10
6.28174
20
-4.36896
11
6.28495
21
-4.36575
0
LINE
8
BLACK
6
CONTINUOUS
10
6.28495
20
-4.36575
11
6.28902
21
-4.36376
0
LINE
8
BLACK
6
CONTINUOUS
10
6.28902
20
-4.36376
11
6.29295
21
-4.36319
0
LINE
8
BLACK
6
CONTINUOUS
10
6.29295
20
-4.36319
11
6.34807
21
-4.36319
0
LINE
8
BLACK
6
CONTINUOUS
10
6.34807
20
-4.36319
11
6.352
21
-4.36376
0
LINE
8
BLACK
6
CONTINUOUS
10
5.61806
20
-4.3551
11
5.62245
21
-4.35734
0
LINE
8
BLACK
6
CONTINUOUS
10
5.62245
20
-4.35734
11
5.62593
21
-4.36082
0
LINE
8
BLACK
6
CONTINUOUS
10
5.62593
20
-4.36082
11
5.62817
21
-4.36521
0
LINE
8
BLACK
6
CONTINUOUS
10
5.62817
20
-4.36521
11
5.62894
21
-4.37008
0
LINE
8
BLACK
6
CONTINUOUS
10
5.62894
20
-4.37008
11
5.62894
21
-4.38583
0
LINE
8
BLACK
6
CONTINUOUS
10
5.62894
20
-4.38583
11
5.62817
21
-4.39069
0
LINE
8
BLACK
6
CONTINUOUS
10
5.62817
20
-4.39069
11
5.62593
21
-4.39508
0
LINE
8
BLACK
6
CONTINUOUS
10
5.62593
20
-4.39508
11
5.62245
21
-4.39857
0
LINE
8
BLACK
6
CONTINUOUS
10
5.62245
20
-4.39857
11
5.61806
21
-4.4008
0
LINE
8
BLACK
6
CONTINUOUS
10
5.61806
20
-4.4008
11
5.61319
21
-4.40157
0
LINE
8
BLACK
6
CONTINUOUS
10
5.61319
20
-4.40157
11
5.59154
21
-4.40157
0
LINE
8
BLACK
6
CONTINUOUS
10
5.59154
20
-4.40157
11
5.58667
21
-4.4008
0
LINE
8
BLACK
6
CONTINUOUS
10
5.58667
20
-4.4008
11
5.58228
21
-4.39857
0
LINE
8
BLACK
6
CONTINUOUS
10
5.58228
20
-4.39857
11
5.57879
21
-4.39508
0
LINE
8
BLACK
6
CONTINUOUS
10
5.57879
20
-4.39508
11
5.57656
21
-4.39069
0
LINE
8
BLACK
6
CONTINUOUS
10
5.57656
20
-4.39069
11
5.57579
21
-4.38583
0
LINE
8
BLACK
6
CONTINUOUS
10
5.57579
20
-4.38583
11
5.57579
21
-4.37008
0
LINE
8
BLACK
6
CONTINUOUS
10
5.57579
20
-4.37008
11
5.57656
21
-4.36521
0
LINE
8
BLACK
6
CONTINUOUS
10
5.57656
20
-4.36521
11
5.57879
21
-4.36082
0
LINE
8
BLACK
6
CONTINUOUS
10
5.57879
20
-4.36082
11
5.58228
21
-4.35734
0
LINE
8
BLACK
6
CONTINUOUS
10
5.58228
20
-4.35734
11
5.58667
21
-4.3551
0
LINE
8
BLACK
6
CONTINUOUS
10
5.58667
20
-4.3551
11
5.59154
21
-4.35433
0
LINE
8
BLACK
6
CONTINUOUS
10
5.59154
20
-4.35433
11
5.61319
21
-4.35433
0
LINE
8
BLACK
6
CONTINUOUS
10
5.61319
20
-4.35433
11
5.61806
21
-4.3551
0
LINE
8
BLACK
6
CONTINUOUS
10
6.352
20
-4.31455
11
6.35608
21
-4.31654
0
LINE
8
BLACK
6
CONTINUOUS
10
6.35608
20
-4.31654
11
6.35929
21
-4.31975
0
LINE
8
BLACK
6
CONTINUOUS
10
6.35929
20
-4.31975
11
6.36128
21
-4.32382
0
LINE
8
BLACK
6
CONTINUOUS
10
6.36128
20
-4.32382
11
6.36185
21
-4.32776
0
LINE
8
BLACK
6
CONTINUOUS
10
6.36185
20
-4.32776
11
6.36185
21
-4.33957
0
LINE
8
BLACK
6
CONTINUOUS
10
6.36185
20
-4.33957
11
6.36128
21
-4.3435
0
LINE
8
BLACK
6
CONTINUOUS
10
6.36128
20
-4.3435
11
6.35929
21
-4.34757
0
LINE
8
BLACK
6
CONTINUOUS
10
6.35929
20
-4.34757
11
6.35608
21
-4.35078
0
LINE
8
BLACK
6
CONTINUOUS
10
6.35608
20
-4.35078
11
6.352
21
-4.35277
0
LINE
8
BLACK
6
CONTINUOUS
10
6.352
20
-4.35277
11
6.34807
21
-4.35335
0
LINE
8
BLACK
6
CONTINUOUS
10
6.34807
20
-4.35335
11
6.29295
21
-4.35335
0
LINE
8
BLACK
6
CONTINUOUS
10
6.29295
20
-4.35335
11
6.28902
21
-4.35277
0
LINE
8
BLACK
6
CONTINUOUS
10
6.28902
20
-4.35277
11
6.28495
21
-4.35078
0
LINE
8
BLACK
6
CONTINUOUS
10
6.28495
20
-4.35078
11
6.28174
21
-4.34757
0
LINE
8
BLACK
6
CONTINUOUS
10
6.28174
20
-4.34757
11
6.27975
21
-4.3435
0
LINE
8
BLACK
6
CONTINUOUS
10
6.27975
20
-4.3435
11
6.27917
21
-4.33957
0
LINE
8
BLACK
6
CONTINUOUS
10
6.27917
20
-4.33957
11
6.27917
21
-4.32776
0
LINE
8
BLACK
6
CONTINUOUS
10
6.27917
20
-4.32776
11
6.27975
21
-4.32382
0
LINE
8
BLACK
6
CONTINUOUS
10
6.27975
20
-4.32382
11
6.28174
21
-4.31975
0
LINE
8
BLACK
6
CONTINUOUS
10
6.28174
20
-4.31975
11
6.28495
21
-4.31654
0
LINE
8
BLACK
6
CONTINUOUS
10
6.28495
20
-4.31654
11
6.28902
21
-4.31455
0
LINE
8
BLACK
6
CONTINUOUS
10
6.28902
20
-4.31455
11
6.29295
21
-4.31398
0
LINE
8
BLACK
6
CONTINUOUS
10
6.29295
20
-4.31398
11
6.34807
21
-4.31398
0
LINE
8
BLACK
6
CONTINUOUS
10
6.34807
20
-4.31398
11
6.352
21
-4.31455
0
LINE
8
BLACK
6
CONTINUOUS
10
5.88957
20
-4.23698
11
5.89696
21
-4.23922
0
LINE
8
BLACK
6
CONTINUOUS
10
5.89696
20
-4.23922
11
5.90376
21
-4.24286
0
LINE
8
BLACK
6
CONTINUOUS
10
5.90376
20
-4.24286
11
5.90973
21
-4.24775
0
LINE
8
BLACK
6
CONTINUOUS
10
5.90973
20
-4.24775
11
5.91462
21
-4.25372
0
LINE
8
BLACK
6
CONTINUOUS
10
5.91462
20
-4.25372
11
5.91826
21
-4.26052
0
LINE
8
BLACK
6
CONTINUOUS
10
5.91826
20
-4.26052
11
5.9205
21
-4.26791
0
LINE
8
BLACK
6
CONTINUOUS
10
5.9205
20
-4.26791
11
5.92126
21
-4.27559
0
LINE
8
BLACK
6
CONTINUOUS
10
5.92126
20
-4.27559
11
5.9205
21
-4.28327
0
LINE
8
BLACK
6
CONTINUOUS
10
5.9205
20
-4.28327
11
5.91826
21
-4.29066
0
LINE
8
BLACK
6
CONTINUOUS
10
5.91826
20
-4.29066
11
5.91462
21
-4.29746
0
LINE
8
BLACK
6
CONTINUOUS
10
5.91462
20
-4.29746
11
5.90973
21
-4.30343
0
LINE
8
BLACK
6
CONTINUOUS
10
5.90973
20
-4.30343
11
5.90376
21
-4.30833
0
LINE
8
BLACK
6
CONTINUOUS
10
5.90376
20
-4.30833
11
5.89696
21
-4.31196
0
LINE
8
BLACK
6
CONTINUOUS
10
5.89696
20
-4.31196
11
5.88957
21
-4.3142
0
LINE
8
BLACK
6
CONTINUOUS
10
5.88957
20
-4.3142
11
5.88189
21
-4.31496
0
LINE
8
BLACK
6
CONTINUOUS
10
5.88189
20
-4.31496
11
5.87421
21
-4.3142
0
LINE
8
BLACK
6
CONTINUOUS
10
5.87421
20
-4.3142
11
5.86682
21
-4.31196
0
LINE
8
BLACK
6
CONTINUOUS
10
5.86682
20
-4.31196
11
5.86002
21
-4.30833
0
LINE
8
BLACK
6
CONTINUOUS
10
5.86002
20
-4.30833
11
5.85405
21
-4.30343
0
LINE
8
BLACK
6
CONTINUOUS
10
5.85405
20
-4.30343
11
5.84915
21
-4.29746
0
LINE
8
BLACK
6
CONTINUOUS
10
5.84915
20
-4.29746
11
5.84552
21
-4.29066
0
LINE
8
BLACK
6
CONTINUOUS
10
5.84552
20
-4.29066
11
5.84328
21
-4.28327
0
LINE
8
BLACK
6
CONTINUOUS
10
5.84328
20
-4.28327
11
5.84252
21
-4.27559
0
LINE
8
BLACK
6
CONTINUOUS
10
5.84252
20
-4.27559
11
5.84328
21
-4.26791
0
LINE
8
BLACK
6
CONTINUOUS
10
5.84328
20
-4.26791
11
5.84552
21
-4.26052
0
LINE
8
BLACK
6
CONTINUOUS
10
5.84552
20
-4.26052
11
5.84915
21
-4.25372
0
LINE
8
BLACK
6
CONTINUOUS
10
5.84915
20
-4.25372
11
5.85405
21
-4.24775
0
LINE
8
BLACK
6
CONTINUOUS
10
5.85405
20
-4.24775
11
5.86002
21
-4.24286
0
LINE
8
BLACK
6
CONTINUOUS
10
5.86002
20
-4.24286
11
5.86682
21
-4.23922
0
LINE
8
BLACK
6
CONTINUOUS
10
5.86682
20
-4.23922
11
5.87421
21
-4.23698
0
LINE
8
BLACK
6
CONTINUOUS
10
5.87421
20
-4.23698
11
5.88189
21
-4.23622
0
LINE
8
BLACK
6
CONTINUOUS
10
5.88189
20
-4.23622
11
5.88957
21
-4.23698
0
LINE
8
BLACK
6
CONTINUOUS
10
6.352
20
-4.26534
11
6.35608
21
-4.26733
0
LINE
8
BLACK
6
CONTINUOUS
10
6.35608
20
-4.26733
11
6.35929
21
-4.27054
0
LINE
8
BLACK
6
CONTINUOUS
10
6.35929
20
-4.27054
11
6.36128
21
-4.27461
0
LINE
8
BLACK
6
CONTINUOUS
10
6.36128
20
-4.27461
11
6.36185
21
-4.27854
0
LINE
8
BLACK
6
CONTINUOUS
10
6.36185
20
-4.27854
11
6.36185
21
-4.29035
0
LINE
8
BLACK
6
CONTINUOUS
10
6.36185
20
-4.29035
11
6.36128
21
-4.29429
0
LINE
8
BLACK
6
CONTINUOUS
10
6.36128
20
-4.29429
11
6.35929
21
-4.29836
0
LINE
8
BLACK
6
CONTINUOUS
10
6.35929
20
-4.29836
11
6.35608
21
-4.30157
0
LINE
8
BLACK
6
CONTINUOUS
10
6.35608
20
-4.30157
11
6.352
21
-4.30356
0
LINE
8
BLACK
6
CONTINUOUS
10
6.352
20
-4.30356
11
6.34807
21
-4.30413
0
LINE
8
BLACK
6
CONTINUOUS
10
6.34807
20
-4.30413
11
6.29295
21
-4.30413
0
LINE
8
BLACK
6
CONTINUOUS
10
6.29295
20
-4.30413
11
6.28902
21
-4.30356
0
LINE
8
BLACK
6
CONTINUOUS
10
6.28902
20
-4.30356
11
6.28495
21
-4.30157
0
LINE
8
BLACK
6
CONTINUOUS
10
6.28495
20
-4.30157
11
6.28174
21
-4.29836
0
LINE
8
BLACK
6
CONTINUOUS
10
6.28174
20
-4.29836
11
6.27975
21
-4.29429
0
LINE
8
BLACK
6
CONTINUOUS
10
6.27975
20
-4.29429
11
6.27917
21
-4.29035
0
LINE
8
BLACK
6
CONTINUOUS
10
6.27917
20
-4.29035
11
6.27917
21
-4.27854
0
LINE
8
BLACK
6
CONTINUOUS
10
6.27917
20
-4.27854
11
6.27975
21
-4.27461
0
LINE
8
BLACK
6
CONTINUOUS
10
6.27975
20
-4.27461
11
6.28174
21
-4.27054
0
LINE
8
BLACK
6
CONTINUOUS
10
6.28174
20
-4.27054
11
6.28495
21
-4.26733
0
LINE
8
BLACK
6
CONTINUOUS
10
6.28495
20
-4.26733
11
6.28902
21
-4.26534
0
LINE
8
BLACK
6
CONTINUOUS
10
6.28902
20
-4.26534
11
6.29295
21
-4.26476
0
LINE
8
BLACK
6
CONTINUOUS
10
6.29295
20
-4.26476
11
6.34807
21
-4.26476
0
LINE
8
BLACK
6
CONTINUOUS
10
6.34807
20
-4.26476
11
6.352
21
-4.26534
0
LINE
8
BLACK
6
CONTINUOUS
10
5.7158
20
-4.22129
11
5.72046
21
-4.22367
0
LINE
8
BLACK
6
CONTINUOUS
10
5.72046
20
-4.22367
11
5.72417
21
-4.22737
0
LINE
8
BLACK
6
CONTINUOUS
10
5.72417
20
-4.22737
11
5.72654
21
-4.23203
0
LINE
8
BLACK
6
CONTINUOUS
10
5.72654
20
-4.23203
11
5.72736
21
-4.2372
0
LINE
8
BLACK
6
CONTINUOUS
10
5.72736
20
-4.2372
11
5.72736
21
-4.25492
0
LINE
8
BLACK
6
CONTINUOUS
10
5.72736
20
-4.25492
11
5.72654
21
-4.26009
0
LINE
8
BLACK
6
CONTINUOUS
10
5.72654
20
-4.26009
11
5.72417
21
-4.26476
0
LINE
8
BLACK
6
CONTINUOUS
10
5.72417
20
-4.26476
11
5.72046
21
-4.26846
0
LINE
8
BLACK
6
CONTINUOUS
10
5.72046
20
-4.26846
11
5.7158
21
-4.27083
0
LINE
8
BLACK
6
CONTINUOUS
10
5.7158
20
-4.27083
11
5.71063
21
-4.27165
0
LINE
8
BLACK
6
CONTINUOUS
10
5.71063
20
-4.27165
11
5.69094
21
-4.27165
0
LINE
8
BLACK
6
CONTINUOUS
10
5.69094
20
-4.27165
11
5.68577
21
-4.27083
0
LINE
8
BLACK
6
CONTINUOUS
10
5.68577
20
-4.27083
11
5.68111
21
-4.26846
0
LINE
8
BLACK
6
CONTINUOUS
10
5.68111
20
-4.26846
11
5.67741
21
-4.26476
0
LINE
8
BLACK
6
CONTINUOUS
10
5.67741
20
-4.26476
11
5.67503
21
-4.26009
0
LINE
8
BLACK
6
CONTINUOUS
10
5.67503
20
-4.26009
11
5.67421
21
-4.25492
0
LINE
8
BLACK
6
CONTINUOUS
10
5.67421
20
-4.25492
11
5.67421
21
-4.2372
0
LINE
8
BLACK
6
CONTINUOUS
10
5.67421
20
-4.2372
11
5.67503
21
-4.23203
0
LINE
8
BLACK
6
CONTINUOUS
10
5.67503
20
-4.23203
11
5.67741
21
-4.22737
0
LINE
8
BLACK
6
CONTINUOUS
10
5.67741
20
-4.22737
11
5.68111
21
-4.22367
0
LINE
8
BLACK
6
CONTINUOUS
10
5.68111
20
-4.22367
11
5.68577
21
-4.22129
0
LINE
8
BLACK
6
CONTINUOUS
10
5.68577
20
-4.22129
11
5.69094
21
-4.22047
0
LINE
8
BLACK
6
CONTINUOUS
10
5.69094
20
-4.22047
11
5.71063
21
-4.22047
0
LINE
8
BLACK
6
CONTINUOUS
10
5.71063
20
-4.22047
11
5.7158
21
-4.22129
0
LINE
8
BLACK
6
CONTINUOUS
10
6.352
20
-4.21612
11
6.35608
21
-4.21812
0
LINE
8
BLACK
6
CONTINUOUS
10
6.35608
20
-4.21812
11
6.35929
21
-4.22132
0
LINE
8
BLACK
6
CONTINUOUS
10
6.35929
20
-4.22132
11
6.36128
21
-4.2254
0
LINE
8
BLACK
6
CONTINUOUS
10
6.36128
20
-4.2254
11
6.36185
21
-4.22933
0
LINE
8
BLACK
6
CONTINUOUS
10
6.36185
20
-4.22933
11
6.36185
21
-4.24114
0
LINE
8
BLACK
6
CONTINUOUS
10
6.36185
20
-4.24114
11
6.36128
21
-4.24507
0
LINE
8
BLACK
6
CONTINUOUS
10
6.36128
20
-4.24507
11
6.35929
21
-4.24915
0
LINE
8
BLACK
6
CONTINUOUS
10
6.35929
20
-4.24915
11
6.35608
21
-4.25236
0
LINE
8
BLACK
6
CONTINUOUS
10
6.35608
20
-4.25236
11
6.352
21
-4.25435
0
LINE
8
BLACK
6
CONTINUOUS
10
6.352
20
-4.25435
11
6.34807
21
-4.25492
0
LINE
8
BLACK
6
CONTINUOUS
10
6.34807
20
-4.25492
11
6.29295
21
-4.25492
0
LINE
8
BLACK
6
CONTINUOUS
10
6.29295
20
-4.25492
11
6.28902
21
-4.25435
0
LINE
8
BLACK
6
CONTINUOUS
10
6.28902
20
-4.25435
11
6.28495
21
-4.25236
0
LINE
8
BLACK
6
CONTINUOUS
10
6.28495
20
-4.25236
11
6.28174
21
-4.24915
0
LINE
8
BLACK
6
CONTINUOUS
10
6.28174
20
-4.24915
11
6.27975
21
-4.24507
0
LINE
8
BLACK
6
CONTINUOUS
10
6.27975
20
-4.24507
11
6.27917
21
-4.24114
0
LINE
8
BLACK
6
CONTINUOUS
10
6.27917
20
-4.24114
11
6.27917
21
-4.22933
0
LINE
8
BLACK
6
CONTINUOUS
10
6.27917
20
-4.22933
11
6.27975
21
-4.2254
0
LINE
8
BLACK
6
CONTINUOUS
10
6.27975
20
-4.2254
11
6.28174
21
-4.22132
0
LINE
8
BLACK
6
CONTINUOUS
10
6.28174
20
-4.22132
11
6.28495
21
-4.21812
0
LINE
8
BLACK
6
CONTINUOUS
10
6.28495
20
-4.21812
11
6.28902
21
-4.21612
0
LINE
8
BLACK
6
CONTINUOUS
10
6.28902
20
-4.21612
11
6.29295
21
-4.21555
0
LINE
8
BLACK
6
CONTINUOUS
10
6.29295
20
-4.21555
11
6.34807
21
-4.21555
0
LINE
8
BLACK
6
CONTINUOUS
10
6.34807
20
-4.21555
11
6.352
21
-4.21612
0
LINE
8
BLACK
6
CONTINUOUS
10
5.78845
20
-4.1947
11
5.79305
21
-4.19705
0
LINE
8
BLACK
6
CONTINUOUS
10
5.79305
20
-4.19705
11
5.79669
21
-4.20069
0
LINE
8
BLACK
6
CONTINUOUS
10
5.79669
20
-4.20069
11
5.79904
21
-4.20529
0
LINE
8
BLACK
6
CONTINUOUS
10
5.79904
20
-4.20529
11
5.79984
21
-4.21038
0
LINE
8
BLACK
6
CONTINUOUS
10
5.79984
20
-4.21038
11
5.79984
21
-4.22761
0
LINE
8
BLACK
6
CONTINUOUS
10
5.79984
20
-4.22761
11
5.79904
21
-4.2327
0
LINE
8
BLACK
6
CONTINUOUS
10
5.79904
20
-4.2327
11
5.79669
21
-4.2373
0
LINE
8
BLACK
6
CONTINUOUS
10
5.79669
20
-4.2373
11
5.79305
21
-4.24095
0
LINE
8
BLACK
6
CONTINUOUS
10
5.79305
20
-4.24095
11
5.78845
21
-4.24329
0
LINE
8
BLACK
6
CONTINUOUS
10
5.78845
20
-4.24329
11
5.78336
21
-4.24409
0
LINE
8
BLACK
6
CONTINUOUS
10
5.78336
20
-4.24409
11
5.75334
21
-4.24409
0
LINE
8
BLACK
6
CONTINUOUS
10
5.75334
20
-4.24409
11
5.74824
21
-4.24329
0
LINE
8
BLACK
6
CONTINUOUS
10
5.74824
20
-4.24329
11
5.74365
21
-4.24095
0
LINE
8
BLACK
6
CONTINUOUS
10
5.74365
20
-4.24095
11
5.74
21
-4.2373
0
LINE
8
BLACK
6
CONTINUOUS
10
5.74
20
-4.2373
11
5.73766
21
-4.2327
0
LINE
8
BLACK
6
CONTINUOUS
10
5.73766
20
-4.2327
11
5.73685
21
-4.22761
0
LINE
8
BLACK
6
CONTINUOUS
10
5.73685
20
-4.22761
11
5.73685
21
-4.21038
0
LINE
8
BLACK
6
CONTINUOUS
10
5.73685
20
-4.21038
11
5.73766
21
-4.20529
0
LINE
8
BLACK
6
CONTINUOUS
10
5.73766
20
-4.20529
11
5.74
21
-4.20069
0
LINE
8
BLACK
6
CONTINUOUS
10
5.74
20
-4.20069
11
5.74365
21
-4.19705
0
LINE
8
BLACK
6
CONTINUOUS
10
5.74365
20
-4.19705
11
5.74824
21
-4.1947
0
LINE
8
BLACK
6
CONTINUOUS
10
5.74824
20
-4.1947
11
5.75334
21
-4.1939
0
LINE
8
BLACK
6
CONTINUOUS
10
5.75334
20
-4.1939
11
5.78336
21
-4.1939
0
LINE
8
BLACK
6
CONTINUOUS
10
5.78336
20
-4.1939
11
5.78845
21
-4.1947
0
LINE
8
BLACK
6
CONTINUOUS
10
6.06687
20
-4.19073
11
6.07126
21
-4.19297
0
LINE
8
BLACK
6
CONTINUOUS
10
6.07126
20
-4.19297
11
6.07475
21
-4.19645
0
LINE
8
BLACK
6
CONTINUOUS
10
6.07475
20
-4.19645
11
6.07699
21
-4.20084
0
LINE
8
BLACK
6
CONTINUOUS
10
6.07699
20
-4.20084
11
6.07776
21
-4.20571
0
LINE
8
BLACK
6
CONTINUOUS
10
6.07776
20
-4.20571
11
6.07776
21
-4.22146
0
LINE
8
BLACK
6
CONTINUOUS
10
6.07776
20
-4.22146
11
6.07699
21
-4.22632
0
LINE
8
BLACK
6
CONTINUOUS
10
6.07699
20
-4.22632
11
6.07475
21
-4.23071
0
LINE
8
BLACK
6
CONTINUOUS
10
6.07475
20
-4.23071
11
6.07126
21
-4.2342
0
LINE
8
BLACK
6
CONTINUOUS
10
6.07126
20
-4.2342
11
6.06687
21
-4.23643
0
LINE
8
BLACK
6
CONTINUOUS
10
6.06687
20
-4.23643
11
6.06201
21
-4.2372
0
LINE
8
BLACK
6
CONTINUOUS
10
6.06201
20
-4.2372
11
6.04035
21
-4.2372
0
LINE
8
BLACK
6
CONTINUOUS
10
6.04035
20
-4.2372
11
6.03549
21
-4.23643
0
LINE
8
BLACK
6
CONTINUOUS
10
6.03549
20
-4.23643
11
6.0311
21
-4.2342
0
LINE
8
BLACK
6
CONTINUOUS
10
6.0311
20
-4.2342
11
6.02761
21
-4.23071
0
LINE
8
BLACK
6
CONTINUOUS
10
6.02761
20
-4.23071
11
6.02538
21
-4.22632
0
LINE
8
BLACK
6
CONTINUOUS
10
6.02538
20
-4.22632
11
6.02461
21
-4.22146
0
LINE
8
BLACK
6
CONTINUOUS
10
6.02461
20
-4.22146
11
6.02461
21
-4.20571
0
LINE
8
BLACK
6
CONTINUOUS
10
6.02461
20
-4.20571
11
6.02538
21
-4.20084
0
LINE
8
BLACK
6
CONTINUOUS
10
6.02538
20
-4.20084
11
6.02761
21
-4.19645
0
LINE
8
BLACK
6
CONTINUOUS
10
6.02761
20
-4.19645
11
6.0311
21
-4.19297
0
LINE
8
BLACK
6
CONTINUOUS
10
6.0311
20
-4.19297
11
6.03549
21
-4.19073
0
LINE
8
BLACK
6
CONTINUOUS
10
6.03549
20
-4.19073
11
6.04035
21
-4.18996
0
LINE
8
BLACK
6
CONTINUOUS
10
6.04035
20
-4.18996
11
6.06201
21
-4.18996
0
LINE
8
BLACK
6
CONTINUOUS
10
6.06201
20
-4.18996
11
6.06687
21
-4.19073
0
LINE
8
BLACK
6
CONTINUOUS
10
5.7158
20
-4.16027
11
5.72046
21
-4.16264
0
LINE
8
BLACK
6
CONTINUOUS
10
5.72046
20
-4.16264
11
5.72417
21
-4.16635
0
LINE
8
BLACK
6
CONTINUOUS
10
5.72417
20
-4.16635
11
5.72654
21
-4.17101
0
LINE
8
BLACK
6
CONTINUOUS
10
5.72654
20
-4.17101
11
5.72736
21
-4.17618
0
LINE
8
BLACK
6
CONTINUOUS
10
5.72736
20
-4.17618
11
5.72736
21
-4.1939
0
LINE
8
BLACK
6
CONTINUOUS
10
5.72736
20
-4.1939
11
5.72654
21
-4.19907
0
LINE
8
BLACK
6
CONTINUOUS
10
5.72654
20
-4.19907
11
5.72417
21
-4.20373
0
LINE
8
BLACK
6
CONTINUOUS
10
5.72417
20
-4.20373
11
5.72046
21
-4.20743
0
LINE
8
BLACK
6
CONTINUOUS
10
5.72046
20
-4.20743
11
5.7158
21
-4.20981
0
LINE
8
BLACK
6
CONTINUOUS
10
5.7158
20
-4.20981
11
5.71063
21
-4.21063
0
LINE
8
BLACK
6
CONTINUOUS
10
5.71063
20
-4.21063
11
5.69094
21
-4.21063
0
LINE
8
BLACK
6
CONTINUOUS
10
5.69094
20
-4.21063
11
5.68577
21
-4.20981
0
LINE
8
BLACK
6
CONTINUOUS
10
5.68577
20
-4.20981
11
5.68111
21
-4.20743
0
LINE
8
BLACK
6
CONTINUOUS
10
5.68111
20
-4.20743
11
5.67741
21
-4.20373
0
LINE
8
BLACK
6
CONTINUOUS
10
5.67741
20
-4.20373
11
5.67503
21
-4.19907
0
LINE
8
BLACK
6
CONTINUOUS
10
5.67503
20
-4.19907
11
5.67421
21
-4.1939
0
LINE
8
BLACK
6
CONTINUOUS
10
5.67421
20
-4.1939
11
5.67421
21
-4.17618
0
LINE
8
BLACK
6
CONTINUOUS
10
5.67421
20
-4.17618
11
5.67503
21
-4.17101
0
LINE
8
BLACK
6
CONTINUOUS
10
5.67503
20
-4.17101
11
5.67741
21
-4.16635
0
LINE
8
BLACK
6
CONTINUOUS
10
5.67741
20
-4.16635
11
5.68111
21
-4.16264
0
LINE
8
BLACK
6
CONTINUOUS
10
5.68111
20
-4.16264
11
5.68577
21
-4.16027
0
LINE
8
BLACK
6
CONTINUOUS
10
5.68577
20
-4.16027
11
5.69094
21
-4.15945
0
LINE
8
BLACK
6
CONTINUOUS
10
5.69094
20
-4.15945
11
5.71063
21
-4.15945
0
LINE
8
BLACK
6
CONTINUOUS
10
5.71063
20
-4.15945
11
5.7158
21
-4.16027
0
LINE
8
BLACK
6
CONTINUOUS
10
6.352
20
-4.16691
11
6.35608
21
-4.1689
0
LINE
8
BLACK
6
CONTINUOUS
10
6.35608
20
-4.1689
11
6.35929
21
-4.17211
0
LINE
8
BLACK
6
CONTINUOUS
10
6.35929
20
-4.17211
11
6.36128
21
-4.17619
0
LINE
8
BLACK
6
CONTINUOUS
10
6.36128
20
-4.17619
11
6.36185
21
-4.18012
0
LINE
8
BLACK
6
CONTINUOUS
10
6.36185
20
-4.18012
11
6.36185
21
-4.19193
0
LINE
8
BLACK
6
CONTINUOUS
10
6.36185
20
-4.19193
11
6.36128
21
-4.19586
0
LINE
8
BLACK
6
CONTINUOUS
10
6.36128
20
-4.19586
11
6.35929
21
-4.19994
0
LINE
8
BLACK
6
CONTINUOUS
10
6.35929
20
-4.19994
11
6.35608
21
-4.20314
0
LINE
8
BLACK
6
CONTINUOUS
10
6.35608
20
-4.20314
11
6.352
21
-4.20514
0
LINE
8
BLACK
6
CONTINUOUS
10
6.352
20
-4.20514
11
6.34807
21
-4.20571
0
LINE
8
BLACK
6
CONTINUOUS
10
6.34807
20
-4.20571
11
6.29295
21
-4.20571
0
LINE
8
BLACK
6
CONTINUOUS
10
6.29295
20
-4.20571
11
6.28902
21
-4.20514
0
LINE
8
BLACK
6
CONTINUOUS
10
6.28902
20
-4.20514
11
6.28495
21
-4.20314
0
LINE
8
BLACK
6
CONTINUOUS
10
6.28495
20
-4.20314
11
6.28174
21
-4.19994
0
LINE
8
BLACK
6
CONTINUOUS
10
6.28174
20
-4.19994
11
6.27975
21
-4.19586
0
LINE
8
BLACK
6
CONTINUOUS
10
6.27975
20
-4.19586
11
6.27917
21
-4.19193
0
LINE
8
BLACK
6
CONTINUOUS
10
6.27917
20
-4.19193
11
6.27917
21
-4.18012
0
LINE
8
BLACK
6
CONTINUOUS
10
6.27917
20
-4.18012
11
6.27975
21
-4.17619
0
LINE
8
BLACK
6
CONTINUOUS
10
6.27975
20
-4.17619
11
6.28174
21
-4.17211
0
LINE
8
BLACK
6
CONTINUOUS
10
6.28174
20
-4.17211
11
6.28495
21
-4.1689
0
LINE
8
BLACK
6
CONTINUOUS
10
6.28495
20
-4.1689
11
6.28902
21
-4.16691
0
LINE
8
BLACK
6
CONTINUOUS
10
6.28902
20
-4.16691
11
6.29295
21
-4.16634
0
LINE
8
BLACK
6
CONTINUOUS
10
6.29295
20
-4.16634
11
6.34807
21
-4.16634
0
LINE
8
BLACK
6
CONTINUOUS
10
6.34807
20
-4.16634
11
6.352
21
-4.16691
0
LINE
8
BLACK
6
CONTINUOUS
10
5.92514
20
-4.14841
11
5.92953
21
-4.15065
0
LINE
8
BLACK
6
CONTINUOUS
10
5.92953
20
-4.15065
11
5.93302
21
-4.15413
0
LINE
8
BLACK
6
CONTINUOUS
10
5.93302
20
-4.15413
11
5.93525
21
-4.15852
0
LINE
8
BLACK
6
CONTINUOUS
10
5.93525
20
-4.15852
11
5.93602
21
-4.16339
0
LINE
8
BLACK
6
CONTINUOUS
10
5.93602
20
-4.16339
11
5.93602
21
-4.17913
0
LINE
8
BLACK
6
CONTINUOUS
10
5.93602
20
-4.17913
11
5.93525
21
-4.184
0
LINE
8
BLACK
6
CONTINUOUS
10
5.93525
20
-4.184
11
5.93302
21
-4.18839
0
LINE
8
BLACK
6
CONTINUOUS
10
5.93302
20
-4.18839
11
5.92953
21
-4.19187
0
LINE
8
BLACK
6
CONTINUOUS
10
5.92953
20
-4.19187
11
5.92514
21
-4.19411
0
LINE
8
BLACK
6
CONTINUOUS
10
5.92514
20
-4.19411
11
5.92028
21
-4.19488
0
LINE
8
BLACK
6
CONTINUOUS
10
5.92028
20
-4.19488
11
5.89862
21
-4.19488
0
LINE
8
BLACK
6
CONTINUOUS
10
5.89862
20
-4.19488
11
5.89376
21
-4.19411
0
LINE
8
BLACK
6
CONTINUOUS
10
5.89376
20
-4.19411
11
5.88937
21
-4.19187
0
LINE
8
BLACK
6
CONTINUOUS
10
5.88937
20
-4.19187
11
5.88588
21
-4.18839
0
LINE
8
BLACK
6
CONTINUOUS
10
5.88588
20
-4.18839
11
5.88364
21
-4.184
0
LINE
8
BLACK
6
CONTINUOUS
10
5.88364
20
-4.184
11
5.88287
21
-4.17913
0
LINE
8
BLACK
6
CONTINUOUS
10
5.88287
20
-4.17913
11
5.88287
21
-4.16339
0
LINE
8
BLACK
6
CONTINUOUS
10
5.88287
20
-4.16339
11
5.88364
21
-4.15852
0
LINE
8
BLACK
6
CONTINUOUS
10
5.88364
20
-4.15852
11
5.88588
21
-4.15413
0
LINE
8
BLACK
6
CONTINUOUS
10
5.88588
20
-4.15413
11
5.88937
21
-4.15065
0
LINE
8
BLACK
6
CONTINUOUS
10
5.88937
20
-4.15065
11
5.89376
21
-4.14841
0
LINE
8
BLACK
6
CONTINUOUS
10
5.89376
20
-4.14841
11
5.89862
21
-4.14764
0
LINE
8
BLACK
6
CONTINUOUS
10
5.89862
20
-4.14764
11
5.92028
21
-4.14764
0
LINE
8
BLACK
6
CONTINUOUS
10
5.92028
20
-4.14764
11
5.92514
21
-4.14841
0
LINE
8
BLACK
6
CONTINUOUS
10
6.12919
20
-4.14354
11
6.13385
21
-4.14591
0
LINE
8
BLACK
6
CONTINUOUS
10
6.13385
20
-4.14591
11
6.13755
21
-4.14961
0
LINE
8
BLACK
6
CONTINUOUS
10
6.13755
20
-4.14961
11
6.13993
21
-4.15428
0
LINE
8
BLACK
6
CONTINUOUS
10
6.13993
20
-4.15428
11
6.14075
21
-4.15945
0
LINE
8
BLACK
6
CONTINUOUS
10
6.14075
20
-4.15945
11
6.14075
21
-4.17717
0
LINE
8
BLACK
6
CONTINUOUS
10
6.14075
20
-4.17717
11
6.13993
21
-4.18234
0
LINE
8
BLACK
6
CONTINUOUS
10
6.13993
20
-4.18234
11
6.13755
21
-4.187
0
LINE
8
BLACK
6
CONTINUOUS
10
6.13755
20
-4.187
11
6.13385
21
-4.1907
0
LINE
8
BLACK
6
CONTINUOUS
10
6.13385
20
-4.1907
11
6.12919
21
-4.19308
0
LINE
8
BLACK
6
CONTINUOUS
10
6.12919
20
-4.19308
11
6.12402
21
-4.1939
0
LINE
8
BLACK
6
CONTINUOUS
10
6.12402
20
-4.1939
11
6.10433
21
-4.1939
0
LINE
8
BLACK
6
CONTINUOUS
10
6.10433
20
-4.1939
11
6.09916
21
-4.19308
0
LINE
8
BLACK
6
CONTINUOUS
10
6.09916
20
-4.19308
11
6.0945
21
-4.1907
0
LINE
8
BLACK
6
CONTINUOUS
10
6.0945
20
-4.1907
11
6.09079
21
-4.187
0
LINE
8
BLACK
6
CONTINUOUS
10
6.09079
20
-4.187
11
6.08842
21
-4.18234
0
LINE
8
BLACK
6
CONTINUOUS
10
6.08842
20
-4.18234
11
6.0876
21
-4.17717
0
LINE
8
BLACK
6
CONTINUOUS
10
6.0876
20
-4.17717
11
6.0876
21
-4.15945
0
LINE
8
BLACK
6
CONTINUOUS
10
6.0876
20
-4.15945
11
6.08842
21
-4.15428
0
LINE
8
BLACK
6
CONTINUOUS
10
6.08842
20
-4.15428
11
6.09079
21
-4.14961
0
LINE
8
BLACK
6
CONTINUOUS
10
6.09079
20
-4.14961
11
6.0945
21
-4.14591
0
LINE
8
BLACK
6
CONTINUOUS
10
6.0945
20
-4.14591
11
6.09916
21
-4.14354
0
LINE
8
BLACK
6
CONTINUOUS
10
6.09916
20
-4.14354
11
6.10433
21
-4.14272
0
LINE
8
BLACK
6
CONTINUOUS
10
6.10433
20
-4.14272
11
6.12402
21
-4.14272
0
LINE
8
BLACK
6
CONTINUOUS
10
6.12402
20
-4.14272
11
6.12919
21
-4.14354
0
LINE
8
BLACK
6
CONTINUOUS
10
5.84966
20
-4.14058
11
5.85432
21
-4.14296
0
LINE
8
BLACK
6
CONTINUOUS
10
5.85432
20
-4.14296
11
5.85802
21
-4.14666
0
LINE
8
BLACK
6
CONTINUOUS
10
5.85802
20
-4.14666
11
5.8604
21
-4.15133
0
LINE
8
BLACK
6
CONTINUOUS
10
5.8604
20
-4.15133
11
5.86122
21
-4.1565
0
LINE
8
BLACK
6
CONTINUOUS
10
5.86122
20
-4.1565
11
5.86122
21
-4.17421
0
LINE
8
BLACK
6
CONTINUOUS
10
5.86122
20
-4.17421
11
5.8604
21
-4.17938
0
LINE
8
BLACK
6
CONTINUOUS
10
5.8604
20
-4.17938
11
5.85802
21
-4.18405
0
LINE
8
BLACK
6
CONTINUOUS
10
5.85802
20
-4.18405
11
5.85432
21
-4.18775
0
LINE
8
BLACK
6
CONTINUOUS
10
5.85432
20
-4.18775
11
5.84966
21
-4.19013
0
LINE
8
BLACK
6
CONTINUOUS
10
5.84966
20
-4.19013
11
5.84449
21
-4.19094
0
LINE
8
BLACK
6
CONTINUOUS
10
5.84449
20
-4.19094
11
5.8248
21
-4.19094
0
LINE
8
BLACK
6
CONTINUOUS
10
5.8248
20
-4.19094
11
5.81963
21
-4.19013
0
LINE
8
BLACK
6
CONTINUOUS
10
5.81963
20
-4.19013
11
5.81497
21
-4.18775
0
LINE
8
BLACK
6
CONTINUOUS
10
5.81497
20
-4.18775
11
5.81127
21
-4.18405
0
LINE
8
BLACK
6
CONTINUOUS
10
5.81127
20
-4.18405
11
5.80889
21
-4.17938
0
LINE
8
BLACK
6
CONTINUOUS
10
5.80889
20
-4.17938
11
5.80807
21
-4.17421
0
LINE
8
BLACK
6
CONTINUOUS
10
5.80807
20
-4.17421
11
5.80807
21
-4.1565
0
LINE
8
BLACK
6
CONTINUOUS
10
5.80807
20
-4.1565
11
5.80889
21
-4.15133
0
LINE
8
BLACK
6
CONTINUOUS
10
5.80889
20
-4.15133
11
5.81127
21
-4.14666
0
LINE
8
BLACK
6
CONTINUOUS
10
5.81127
20
-4.14666
11
5.81497
21
-4.14296
0
LINE
8
BLACK
6
CONTINUOUS
10
5.81497
20
-4.14296
11
5.81963
21
-4.14058
0
LINE
8
BLACK
6
CONTINUOUS
10
5.81963
20
-4.14058
11
5.8248
21
-4.13976
0
LINE
8
BLACK
6
CONTINUOUS
10
5.8248
20
-4.13976
11
5.84449
21
-4.13976
0
LINE
8
BLACK
6
CONTINUOUS
10
5.84449
20
-4.13976
11
5.84966
21
-4.14058
0
LINE
8
BLACK
6
CONTINUOUS
10
6.06687
20
-4.12577
11
6.07126
21
-4.12801
0
LINE
8
BLACK
6
CONTINUOUS
10
6.07126
20
-4.12801
11
6.07475
21
-4.13149
0
LINE
8
BLACK
6
CONTINUOUS
10
6.07475
20
-4.13149
11
6.07699
21
-4.13588
0
LINE
8
BLACK
6
CONTINUOUS
10
6.07699
20
-4.13588
11
6.07776
21
-4.14075
0
LINE
8
BLACK
6
CONTINUOUS
10
6.07776
20
-4.14075
11
6.07776
21
-4.1565
0
LINE
8
BLACK
6
CONTINUOUS
10
6.07776
20
-4.1565
11
6.07699
21
-4.16136
0
LINE
8
BLACK
6
CONTINUOUS
10
6.07699
20
-4.16136
11
6.07475
21
-4.16575
0
LINE
8
BLACK
6
CONTINUOUS
10
6.07475
20
-4.16575
11
6.07126
21
-4.16924
0
LINE
8
BLACK
6
CONTINUOUS
10
6.07126
20
-4.16924
11
6.06687
21
-4.17147
0
LINE
8
BLACK
6
CONTINUOUS
10
6.06687
20
-4.17147
11
6.06201
21
-4.17224
0
LINE
8
BLACK
6
CONTINUOUS
10
6.06201
20
-4.17224
11
6.04035
21
-4.17224
0
LINE
8
BLACK
6
CONTINUOUS
10
6.04035
20
-4.17224
11
6.03549
21
-4.17147
0
LINE
8
BLACK
6
CONTINUOUS
10
6.03549
20
-4.17147
11
6.0311
21
-4.16924
0
LINE
8
BLACK
6
CONTINUOUS
10
6.0311
20
-4.16924
11
6.02761
21
-4.16575
0
LINE
8
BLACK
6
CONTINUOUS
10
6.02761
20
-4.16575
11
6.02538
21
-4.16136
0
LINE
8
BLACK
6
CONTINUOUS
10
6.02538
20
-4.16136
11
6.02461
21
-4.1565
0
LINE
8
BLACK
6
CONTINUOUS
10
6.02461
20
-4.1565
11
6.02461
21
-4.14075
0
LINE
8
BLACK
6
CONTINUOUS
10
6.02461
20
-4.14075
11
6.02538
21
-4.13588
0
LINE
8
BLACK
6
CONTINUOUS
10
6.02538
20
-4.13588
11
6.02761
21
-4.13149
0
LINE
8
BLACK
6
CONTINUOUS
10
6.02761
20
-4.13149
11
6.0311
21
-4.12801
0
LINE
8
BLACK
6
CONTINUOUS
10
6.0311
20
-4.12801
11
6.03549
21
-4.12577
0
LINE
8
BLACK
6
CONTINUOUS
10
6.03549
20
-4.12577
11
6.04035
21
-4.125
0
LINE
8
BLACK
6
CONTINUOUS
10
6.04035
20
-4.125
11
6.06201
21
-4.125
0
LINE
8
BLACK
6
CONTINUOUS
10
6.06201
20
-4.125
11
6.06687
21
-4.12577
0
LINE
8
BLACK
6
CONTINUOUS
10
5.78845
20
-4.11104
11
5.79305
21
-4.11338
0
LINE
8
BLACK
6
CONTINUOUS
10
5.79305
20
-4.11338
11
5.79669
21
-4.11703
0
LINE
8
BLACK
6
CONTINUOUS
10
5.79669
20
-4.11703
11
5.79904
21
-4.12163
0
LINE
8
BLACK
6
CONTINUOUS
10
5.79904
20
-4.12163
11
5.79984
21
-4.12672
0
LINE
8
BLACK
6
CONTINUOUS
10
5.79984
20
-4.12672
11
5.79984
21
-4.14395
0
LINE
8
BLACK
6
CONTINUOUS
10
5.79984
20
-4.14395
11
5.79904
21
-4.14904
0
LINE
8
BLACK
6
CONTINUOUS
10
5.79904
20
-4.14904
11
5.79669
21
-4.15364
0
LINE
8
BLACK
6
CONTINUOUS
10
5.79669
20
-4.15364
11
5.79305
21
-4.15728
0
LINE
8
BLACK
6
CONTINUOUS
10
5.79305
20
-4.15728
11
5.78845
21
-4.15963
0
LINE
8
BLACK
6
CONTINUOUS
10
5.78845
20
-4.15963
11
5.78336
21
-4.16043
0
LINE
8
BLACK
6
CONTINUOUS
10
5.78336
20
-4.16043
11
5.75334
21
-4.16043
0
LINE
8
BLACK
6
CONTINUOUS
10
5.75334
20
-4.16043
11
5.74824
21
-4.15963
0
LINE
8
BLACK
6
CONTINUOUS
10
5.74824
20
-4.15963
11
5.74365
21
-4.15728
0
LINE
8
BLACK
6
CONTINUOUS
10
5.74365
20
-4.15728
11
5.74
21
-4.15364
0
LINE
8
BLACK
6
CONTINUOUS
10
5.74
20
-4.15364
11
5.73766
21
-4.14904
0
LINE
8
BLACK
6
CONTINUOUS
10
5.73766
20
-4.14904
11
5.73685
21
-4.14395
0
LINE
8
BLACK
6
CONTINUOUS
10
5.73685
20
-4.14395
11
5.73685
21
-4.12672
0
LINE
8
BLACK
6
CONTINUOUS
10
5.73685
20
-4.12672
11
5.73766
21
-4.12163
0
LINE
8
BLACK
6
CONTINUOUS
10
5.73766
20
-4.12163
11
5.74
21
-4.11703
0
LINE
8
BLACK
6
CONTINUOUS
10
5.74
20
-4.11703
11
5.74365
21
-4.11338
0
LINE
8
BLACK
6
CONTINUOUS
10
5.74365
20
-4.11338
11
5.74824
21
-4.11104
0
LINE
8
BLACK
6
CONTINUOUS
10
5.74824
20
-4.11104
11
5.75334
21
-4.11024
0
LINE
8
BLACK
6
CONTINUOUS
10
5.75334
20
-4.11024
11
5.78336
21
-4.11024
0
LINE
8
BLACK
6
CONTINUOUS
10
5.78336
20
-4.11024
11
5.78845
21
-4.11104
0
LINE
8
BLACK
6
CONTINUOUS
10
6.352
20
-4.1177
11
6.35608
21
-4.11969
0
LINE
8
BLACK
6
CONTINUOUS
10
6.35608
20
-4.11969
11
6.35929
21
-4.1229
0
LINE
8
BLACK
6
CONTINUOUS
10
6.35929
20
-4.1229
11
6.36128
21
-4.12697
0
LINE
8
BLACK
6
CONTINUOUS
10
6.36128
20
-4.12697
11
6.36185
21
-4.13091
0
LINE
8
BLACK
6
CONTINUOUS
10
6.36185
20
-4.13091
11
6.36185
21
-4.14272
0
LINE
8
BLACK
6
CONTINUOUS
10
6.36185
20
-4.14272
11
6.36128
21
-4.14665
0
LINE
8
BLACK
6
CONTINUOUS
10
6.36128
20
-4.14665
11
6.35929
21
-4.15072
0
LINE
8
BLACK
6
CONTINUOUS
10
6.35929
20
-4.15072
11
6.35608
21
-4.15393
0
LINE
8
BLACK
6
CONTINUOUS
10
6.35608
20
-4.15393
11
6.352
21
-4.15592
0
LINE
8
BLACK
6
CONTINUOUS
10
6.352
20
-4.15592
11
6.34807
21
-4.1565
0
LINE
8
BLACK
6
CONTINUOUS
10
6.34807
20
-4.1565
11
6.29295
21
-4.1565
0
LINE
8
BLACK
6
CONTINUOUS
10
6.29295
20
-4.1565
11
6.28902
21
-4.15592
0
LINE
8
BLACK
6
CONTINUOUS
10
6.28902
20
-4.15592
11
6.28495
21
-4.15393
0
LINE
8
BLACK
6
CONTINUOUS
10
6.28495
20
-4.15393
11
6.28174
21
-4.15072
0
LINE
8
BLACK
6
CONTINUOUS
10
6.28174
20
-4.15072
11
6.27975
21
-4.14665
0
LINE
8
BLACK
6
CONTINUOUS
10
6.27975
20
-4.14665
11
6.27917
21
-4.14272
0
LINE
8
BLACK
6
CONTINUOUS
10
6.27917
20
-4.14272
11
6.27917
21
-4.13091
0
LINE
8
BLACK
6
CONTINUOUS
10
6.27917
20
-4.13091
11
6.27975
21
-4.12697
0
LINE
8
BLACK
6
CONTINUOUS
10
6.27975
20
-4.12697
11
6.28174
21
-4.1229
0
LINE
8
BLACK
6
CONTINUOUS
10
6.28174
20
-4.1229
11
6.28495
21
-4.11969
0
LINE
8
BLACK
6
CONTINUOUS
10
6.28495
20
-4.11969
11
6.28902
21
-4.1177
0
LINE
8
BLACK
6
CONTINUOUS
10
6.28902
20
-4.1177
11
6.29295
21
-4.11713
0
LINE
8
BLACK
6
CONTINUOUS
10
6.29295
20
-4.11713
11
6.34807
21
-4.11713
0
LINE
8
BLACK
6
CONTINUOUS
10
6.34807
20
-4.11713
11
6.352
21
-4.1177
0
LINE
8
BLACK
6
CONTINUOUS
10
5.6449
20
-3.75106
11
5.65135
21
-3.75259
0
LINE
8
BLACK
6
CONTINUOUS
10
5.65135
20
-3.75259
11
5.65727
21
-3.75556
0
LINE
8
BLACK
6
CONTINUOUS
10
5.65727
20
-3.75556
11
5.66234
21
-3.75982
0
LINE
8
BLACK
6
CONTINUOUS
10
5.66234
20
-3.75982
11
5.6663
21
-3.76514
0
LINE
8
BLACK
6
CONTINUOUS
10
5.6663
20
-3.76514
11
5.66893
21
-3.77122
0
LINE
8
BLACK
6
CONTINUOUS
10
5.66893
20
-3.77122
11
5.67008
21
-3.77775
0
LINE
8
BLACK
6
CONTINUOUS
10
5.67008
20
-3.77775
11
5.66969
21
-3.78437
0
LINE
8
BLACK
6
CONTINUOUS
10
5.66969
20
-3.78437
11
5.66779
21
-3.79071
0
LINE
8
BLACK
6
CONTINUOUS
10
5.66779
20
-3.79071
11
5.66448
21
-3.79645
0
LINE
8
BLACK
6
CONTINUOUS
10
5.66448
20
-3.79645
11
5.65993
21
-3.80127
0
LINE
8
BLACK
6
CONTINUOUS
10
5.65993
20
-3.80127
11
5.65606
21
-3.80382
0
LINE
8
BLACK
6
CONTINUOUS
10
5.65606
20
-3.80382
11
5.66619
21
-3.80382
0
LINE
8
BLACK
6
CONTINUOUS
10
5.66619
20
-3.80382
11
5.6692
21
-3.80442
0
LINE
8
BLACK
6
CONTINUOUS
10
5.6692
20
-3.80442
11
5.67176
21
-3.80613
0
LINE
8
BLACK
6
CONTINUOUS
10
5.67176
20
-3.80613
11
5.67346
21
-3.80868
0
LINE
8
BLACK
6
CONTINUOUS
10
5.67346
20
-3.80868
11
5.67406
21
-3.81169
0
LINE
8
BLACK
6
CONTINUOUS
10
5.67406
20
-3.81169
11
5.67406
21
-3.83531
0
LINE
8
BLACK
6
CONTINUOUS
10
5.67406
20
-3.83531
11
5.67346
21
-3.83833
0
LINE
8
BLACK
6
CONTINUOUS
10
5.67346
20
-3.83833
11
5.67285
21
-3.83925
0
LINE
8
BLACK
6
CONTINUOUS
10
5.67285
20
-3.83925
11
5.67346
21
-3.84018
0
LINE
8
BLACK
6
CONTINUOUS
10
5.67346
20
-3.84018
11
5.67406
21
-3.84319
0
LINE
8
BLACK
6
CONTINUOUS
10
5.67406
20
-3.84319
11
5.67406
21
-3.86681
0
LINE
8
BLACK
6
CONTINUOUS
10
5.67406
20
-3.86681
11
5.67346
21
-3.86982
0
LINE
8
BLACK
6
CONTINUOUS
10
5.67346
20
-3.86982
11
5.67285
21
-3.87075
0
LINE
8
BLACK
6
CONTINUOUS
10
5.67285
20
-3.87075
11
5.67346
21
-3.87167
0
LINE
8
BLACK
6
CONTINUOUS
10
5.67346
20
-3.87167
11
5.67406
21
-3.87469
0
LINE
8
BLACK
6
CONTINUOUS
10
5.67406
20
-3.87469
11
5.67406
21
-3.8865
0
LINE
8
BLACK
6
CONTINUOUS
10
5.67406
20
-3.8865
11
5.67346
21
-3.88951
0
LINE
8
BLACK
6
CONTINUOUS
10
5.67346
20
-3.88951
11
5.67285
21
-3.89043
0
LINE
8
BLACK
6
CONTINUOUS
10
5.67285
20
-3.89043
11
5.67346
21
-3.89136
0
LINE
8
BLACK
6
CONTINUOUS
10
5.67346
20
-3.89136
11
5.67406
21
-3.89437
0
LINE
8
BLACK
6
CONTINUOUS
10
5.67406
20
-3.89437
11
5.67406
21
-3.90618
0
LINE
8
BLACK
6
CONTINUOUS
10
5.67406
20
-3.90618
11
5.67346
21
-3.90919
0
LINE
8
BLACK
6
CONTINUOUS
10
5.67346
20
-3.90919
11
5.67285
21
-3.91012
0
LINE
8
BLACK
6
CONTINUOUS
10
5.67285
20
-3.91012
11
5.67346
21
-3.91104
0
LINE
8
BLACK
6
CONTINUOUS
10
5.67346
20
-3.91104
11
5.67406
21
-3.91406
0
LINE
8
BLACK
6
CONTINUOUS
10
5.67406
20
-3.91406
11
5.67406
21
-3.92587
0
LINE
8
BLACK
6
CONTINUOUS
10
5.67406
20
-3.92587
11
5.67346
21
-3.92888
0
LINE
8
BLACK
6
CONTINUOUS
10
5.67346
20
-3.92888
11
5.67285
21
-3.9298
0
LINE
8
BLACK
6
CONTINUOUS
10
5.67285
20
-3.9298
11
5.67346
21
-3.93073
0
LINE
8
BLACK
6
CONTINUOUS
10
5.67346
20
-3.93073
11
5.67406
21
-3.93374
0
LINE
8
BLACK
6
CONTINUOUS
10
5.67406
20
-3.93374
11
5.67406
21
-3.94555
0
LINE
8
BLACK
6
CONTINUOUS
10
5.67406
20
-3.94555
11
5.67346
21
-3.94856
0
LINE
8
BLACK
6
CONTINUOUS
10
5.67346
20
-3.94856
11
5.67285
21
-3.94949
0
LINE
8
BLACK
6
CONTINUOUS
10
5.67285
20
-3.94949
11
5.67346
21
-3.95041
0
LINE
8
BLACK
6
CONTINUOUS
10
5.67346
20
-3.95041
11
5.67406
21
-3.95343
0
LINE
8
BLACK
6
CONTINUOUS
10
5.67406
20
-3.95343
11
5.67406
21
-3.96524
0
LINE
8
BLACK
6
CONTINUOUS
10
5.67406
20
-3.96524
11
5.67346
21
-3.96825
0
LINE
8
BLACK
6
CONTINUOUS
10
5.67346
20
-3.96825
11
5.67285
21
-3.96917
0
LINE
8
BLACK
6
CONTINUOUS
10
5.67285
20
-3.96917
11
5.67346
21
-3.9701
0
LINE
8
BLACK
6
CONTINUOUS
10
5.67346
20
-3.9701
11
5.67406
21
-3.97311
0
LINE
8
BLACK
6
CONTINUOUS
10
5.67406
20
-3.97311
11
5.67406
21
-3.98492
0
LINE
8
BLACK
6
CONTINUOUS
10
5.67406
20
-3.98492
11
5.67346
21
-3.98793
0
LINE
8
BLACK
6
CONTINUOUS
10
5.67346
20
-3.98793
11
5.67285
21
-3.98886
0
LINE
8
BLACK
6
CONTINUOUS
10
5.67285
20
-3.98886
11
5.67346
21
-3.98978
0
LINE
8
BLACK
6
CONTINUOUS
10
5.67346
20
-3.98978
11
5.67406
21
-3.9928
0
LINE
8
BLACK
6
CONTINUOUS
10
5.67406
20
-3.9928
11
5.67406
21
-4.00461
0
LINE
8
BLACK
6
CONTINUOUS
10
5.67406
20
-4.00461
11
5.67346
21
-4.00762
0
LINE
8
BLACK
6
CONTINUOUS
10
5.67346
20
-4.00762
11
5.67285
21
-4.00854
0
LINE
8
BLACK
6
CONTINUOUS
10
5.67285
20
-4.00854
11
5.67346
21
-4.00947
0
LINE
8
BLACK
6
CONTINUOUS
10
5.67346
20
-4.00947
11
5.67406
21
-4.01248
0
LINE
8
BLACK
6
CONTINUOUS
10
5.67406
20
-4.01248
11
5.67406
21
-4.02429
0
LINE
8
BLACK
6
CONTINUOUS
10
5.67406
20
-4.02429
11
5.67346
21
-4.0273
0
LINE
8
BLACK
6
CONTINUOUS
10
5.67346
20
-4.0273
11
5.67285
21
-4.02823
0
LINE
8
BLACK
6
CONTINUOUS
10
5.67285
20
-4.02823
11
5.67346
21
-4.02915
0
LINE
8
BLACK
6
CONTINUOUS
10
5.67346
20
-4.02915
11
5.67406
21
-4.03217
0
LINE
8
BLACK
6
CONTINUOUS
10
5.67406
20
-4.03217
11
5.67406
21
-4.05579
0
LINE
8
BLACK
6
CONTINUOUS
10
5.67406
20
-4.05579
11
5.67346
21
-4.0588
0
LINE
8
BLACK
6
CONTINUOUS
10
5.67346
20
-4.0588
11
5.67285
21
-4.05972
0
LINE
8
BLACK
6
CONTINUOUS
10
5.67285
20
-4.05972
11
5.67346
21
-4.06065
0
LINE
8
BLACK
6
CONTINUOUS
10
5.67346
20
-4.06065
11
5.67406
21
-4.06366
0
LINE
8
BLACK
6
CONTINUOUS
10
5.67406
20
-4.06366
11
5.67406
21
-4.08728
0
LINE
8
BLACK
6
CONTINUOUS
10
5.67406
20
-4.08728
11
5.67346
21
-4.0903
0
LINE
8
BLACK
6
CONTINUOUS
10
5.67346
20
-4.0903
11
5.67176
21
-4.09285
0
LINE
8
BLACK
6
CONTINUOUS
10
5.67176
20
-4.09285
11
5.6692
21
-4.09456
0
LINE
8
BLACK
6
CONTINUOUS
10
5.6692
20
-4.09456
11
5.66619
21
-4.09516
0
LINE
8
BLACK
6
CONTINUOUS
10
5.66619
20
-4.09516
11
5.65615
21
-4.09516
0
LINE
8
BLACK
6
CONTINUOUS
10
5.65615
20
-4.09516
11
5.65727
21
-4.09572
0
LINE
8
BLACK
6
CONTINUOUS
10
5.65727
20
-4.09572
11
5.66234
21
-4.09998
0
LINE
8
BLACK
6
CONTINUOUS
10
5.66234
20
-4.09998
11
5.6663
21
-4.1053
0
LINE
8
BLACK
6
CONTINUOUS
10
5.6663
20
-4.1053
11
5.66893
21
-4.11138
0
LINE
8
BLACK
6
CONTINUOUS
10
5.66893
20
-4.11138
11
5.67008
21
-4.11791
0
LINE
8
BLACK
6
CONTINUOUS
10
5.67008
20
-4.11791
11
5.66969
21
-4.12452
0
LINE
8
BLACK
6
CONTINUOUS
10
5.66969
20
-4.12452
11
5.66779
21
-4.13087
0
LINE
8
BLACK
6
CONTINUOUS
10
5.66779
20
-4.13087
11
5.66448
21
-4.13661
0
LINE
8
BLACK
6
CONTINUOUS
10
5.66448
20
-4.13661
11
5.65993
21
-4.14143
0
LINE
8
BLACK
6
CONTINUOUS
10
5.65993
20
-4.14143
11
5.65439
21
-4.14507
0
LINE
8
BLACK
6
CONTINUOUS
10
5.65439
20
-4.14507
11
5.64817
21
-4.14734
0
LINE
8
BLACK
6
CONTINUOUS
10
5.64817
20
-4.14734
11
5.64158
21
-4.14811
0
LINE
8
BLACK
6
CONTINUOUS
10
5.64158
20
-4.14811
11
5.60024
21
-4.14811
0
LINE
8
BLACK
6
CONTINUOUS
10
5.60024
20
-4.14811
11
5.59693
21
-4.14792
0
LINE
8
BLACK
6
CONTINUOUS
10
5.59693
20
-4.14792
11
5.59048
21
-4.14639
0
LINE
8
BLACK
6
CONTINUOUS
10
5.59048
20
-4.14639
11
5.58456
21
-4.14341
0
LINE
8
BLACK
6
CONTINUOUS
10
5.58456
20
-4.14341
11
5.57948
21
-4.13915
0
LINE
8
BLACK
6
CONTINUOUS
10
5.57948
20
-4.13915
11
5.57552
21
-4.13384
0
LINE
8
BLACK
6
CONTINUOUS
10
5.57552
20
-4.13384
11
5.5729
21
-4.12775
0
LINE
8
BLACK
6
CONTINUOUS
10
5.5729
20
-4.12775
11
5.57175
21
-4.12123
0
LINE
8
BLACK
6
CONTINUOUS
10
5.57175
20
-4.12123
11
5.57213
21
-4.11461
0
LINE
8
BLACK
6
CONTINUOUS
10
5.57213
20
-4.11461
11
5.57404
21
-4.10826
0
LINE
8
BLACK
6
CONTINUOUS
10
5.57404
20
-4.10826
11
5.57735
21
-4.10252
0
LINE
8
BLACK
6
CONTINUOUS
10
5.57735
20
-4.10252
11
5.5819
21
-4.0977
0
LINE
8
BLACK
6
CONTINUOUS
10
5.5819
20
-4.0977
11
5.58743
21
-4.09406
0
LINE
8
BLACK
6
CONTINUOUS
10
5.58743
20
-4.09406
11
5.59366
21
-4.09179
0
LINE
8
BLACK
6
CONTINUOUS
10
5.59366
20
-4.09179
11
5.60024
21
-4.09102
0
LINE
8
BLACK
6
CONTINUOUS
10
5.60024
20
-4.09102
11
5.61412
21
-4.09102
0
LINE
8
BLACK
6
CONTINUOUS
10
5.61412
20
-4.09102
11
5.61364
21
-4.0903
0
LINE
8
BLACK
6
CONTINUOUS
10
5.61364
20
-4.0903
11
5.61304
21
-4.08728
0
LINE
8
BLACK
6
CONTINUOUS
10
5.61304
20
-4.08728
11
5.61304
21
-4.08003
0
LINE
8
BLACK
6
CONTINUOUS
10
5.61304
20
-4.08003
11
5.61156
21
-4.08117
0
LINE
8
BLACK
6
CONTINUOUS
10
5.61156
20
-4.08117
11
5.60658
21
-4.08323
0
LINE
8
BLACK
6
CONTINUOUS
10
5.60658
20
-4.08323
11
5.60123
21
-4.08394
0
LINE
8
BLACK
6
CONTINUOUS
10
5.60123
20
-4.08394
11
5.59588
21
-4.08323
0
LINE
8
BLACK
6
CONTINUOUS
10
5.59588
20
-4.08323
11
5.59089
21
-4.08117
0
LINE
8
BLACK
6
CONTINUOUS
10
5.59089
20
-4.08117
11
5.58661
21
-4.07788
0
LINE
8
BLACK
6
CONTINUOUS
10
5.58661
20
-4.07788
11
5.58333
21
-4.0736
0
LINE
8
BLACK
6
CONTINUOUS
10
5.58333
20
-4.0736
11
5.58126
21
-4.06862
0
LINE
8
BLACK
6
CONTINUOUS
10
5.58126
20
-4.06862
11
5.58056
21
-4.06327
0
LINE
8
BLACK
6
CONTINUOUS
10
5.58056
20
-4.06327
11
5.58126
21
-4.05792
0
LINE
8
BLACK
6
CONTINUOUS
10
5.58126
20
-4.05792
11
5.58333
21
-4.05293
0
LINE
8
BLACK
6
CONTINUOUS
10
5.58333
20
-4.05293
11
5.58661
21
-4.04865
0
LINE
8
BLACK
6
CONTINUOUS
10
5.58661
20
-4.04865
11
5.59089
21
-4.04537
0
LINE
8
BLACK
6
CONTINUOUS
10
5.59089
20
-4.04537
11
5.59588
21
-4.0433
0
LINE
8
BLACK
6
CONTINUOUS
10
5.59588
20
-4.0433
11
5.60123
21
-4.0426
0
LINE
8
BLACK
6
CONTINUOUS
10
5.60123
20
-4.0426
11
5.60658
21
-4.0433
0
LINE
8
BLACK
6
CONTINUOUS
10
5.60658
20
-4.0433
11
5.61156
21
-4.04537
0
LINE
8
BLACK
6
CONTINUOUS
10
5.61156
20
-4.04537
11
5.61304
21
-4.0465
0
LINE
8
BLACK
6
CONTINUOUS
10
5.61304
20
-4.0465
11
5.61304
21
-4.03217
0
LINE
8
BLACK
6
CONTINUOUS
10
5.61304
20
-4.03217
11
5.61364
21
-4.02915
0
LINE
8
BLACK
6
CONTINUOUS
10
5.61364
20
-4.02915
11
5.61426
21
-4.02823
0
LINE
8
BLACK
6
CONTINUOUS
10
5.61426
20
-4.02823
11
5.61364
21
-4.0273
0
LINE
8
BLACK
6
CONTINUOUS
10
5.61364
20
-4.0273
11
5.61304
21
-4.02429
0
LINE
8
BLACK
6
CONTINUOUS
10
5.61304
20
-4.02429
11
5.61304
21
-4.01248
0
LINE
8
BLACK
6
CONTINUOUS
10
5.61304
20
-4.01248
11
5.61364
21
-4.00947
0
LINE
8
BLACK
6
CONTINUOUS
10
5.61364
20
-4.00947
11
5.61426
21
-4.00854
0
LINE
8
BLACK
6
CONTINUOUS
10
5.61426
20
-4.00854
11
5.61364
21
-4.00762
0
LINE
8
BLACK
6
CONTINUOUS
10
5.61364
20
-4.00762
11
5.61304
21
-4.00461
0
LINE
8
BLACK
6
CONTINUOUS
10
5.61304
20
-4.00461
11
5.61304
21
-3.9928
0
LINE
8
BLACK
6
CONTINUOUS
10
5.61304
20
-3.9928
11
5.61364
21
-3.98978
0
LINE
8
BLACK
6
CONTINUOUS
10
5.61364
20
-3.98978
11
5.61426
21
-3.98886
0
LINE
8
BLACK
6
CONTINUOUS
10
5.61426
20
-3.98886
11
5.61364
21
-3.98793
0
LINE
8
BLACK
6
CONTINUOUS
10
5.61364
20
-3.98793
11
5.61304
21
-3.98492
0
LINE
8
BLACK
6
CONTINUOUS
10
5.61304
20
-3.98492
11
5.61304
21
-3.97311
0
LINE
8
BLACK
6
CONTINUOUS
10
5.61304
20
-3.97311
11
5.61364
21
-3.9701
0
LINE
8
BLACK
6
CONTINUOUS
10
5.61364
20
-3.9701
11
5.61426
21
-3.96917
0
LINE
8
BLACK
6
CONTINUOUS
10
5.61426
20
-3.96917
11
5.61364
21
-3.96825
0
LINE
8
BLACK
6
CONTINUOUS
10
5.61364
20
-3.96825
11
5.61304
21
-3.96524
0
LINE
8
BLACK
6
CONTINUOUS
10
5.61304
20
-3.96524
11
5.61304
21
-3.95343
0
LINE
8
BLACK
6
CONTINUOUS
10
5.61304
20
-3.95343
11
5.61364
21
-3.95041
0
LINE
8
BLACK
6
CONTINUOUS
10
5.61364
20
-3.95041
11
5.61426
21
-3.94949
0
LINE
8
BLACK
6
CONTINUOUS
10
5.61426
20
-3.94949
11
5.61364
21
-3.94856
0
LINE
8
BLACK
6
CONTINUOUS
10
5.61364
20
-3.94856
11
5.61304
21
-3.94555
0
LINE
8
BLACK
6
CONTINUOUS
10
5.61304
20
-3.94555
11
5.61304
21
-3.93374
0
LINE
8
BLACK
6
CONTINUOUS
10
5.61304
20
-3.93374
11
5.61364
21
-3.93073
0
LINE
8
BLACK
6
CONTINUOUS
10
5.61364
20
-3.93073
11
5.61426
21
-3.9298
0
LINE
8
BLACK
6
CONTINUOUS
10
5.61426
20
-3.9298
11
5.61364
21
-3.92888
0
LINE
8
BLACK
6
CONTINUOUS
10
5.61364
20
-3.92888
11
5.61304
21
-3.92587
0
LINE
8
BLACK
6
CONTINUOUS
10
5.61304
20
-3.92587
11
5.61304
21
-3.91406
0
LINE
8
BLACK
6
CONTINUOUS
10
5.61304
20
-3.91406
11
5.61364
21
-3.91104
0
LINE
8
BLACK
6
CONTINUOUS
10
5.61364
20
-3.91104
11
5.61426
21
-3.91012
0
LINE
8
BLACK
6
CONTINUOUS
10
5.61426
20
-3.91012
11
5.61364
21
-3.90919
0
LINE
8
BLACK
6
CONTINUOUS
10
5.61364
20
-3.90919
11
5.61304
21
-3.90618
0
LINE
8
BLACK
6
CONTINUOUS
10
5.61304
20
-3.90618
11
5.61304
21
-3.89437
0
LINE
8
BLACK
6
CONTINUOUS
10
5.61304
20
-3.89437
11
5.61364
21
-3.89136
0
LINE
8
BLACK
6
CONTINUOUS
10
5.61364
20
-3.89136
11
5.61426
21
-3.89043
0
LINE
8
BLACK
6
CONTINUOUS
10
5.61426
20
-3.89043
11
5.61364
21
-3.88951
0
LINE
8
BLACK
6
CONTINUOUS
10
5.61364
20
-3.88951
11
5.61304
21
-3.8865
0
LINE
8
BLACK
6
CONTINUOUS
10
5.61304
20
-3.8865
11
5.61304
21
-3.87469
0
LINE
8
BLACK
6
CONTINUOUS
10
5.61304
20
-3.87469
11
5.61364
21
-3.87167
0
LINE
8
BLACK
6
CONTINUOUS
10
5.61364
20
-3.87167
11
5.61426
21
-3.87075
0
LINE
8
BLACK
6
CONTINUOUS
10
5.61426
20
-3.87075
11
5.61364
21
-3.86982
0
LINE
8
BLACK
6
CONTINUOUS
10
5.61364
20
-3.86982
11
5.61304
21
-3.86681
0
LINE
8
BLACK
6
CONTINUOUS
10
5.61304
20
-3.86681
11
5.61304
21
-3.85248
0
LINE
8
BLACK
6
CONTINUOUS
10
5.61304
20
-3.85248
11
5.61156
21
-3.85361
0
LINE
8
BLACK
6
CONTINUOUS
10
5.61156
20
-3.85361
11
5.60658
21
-3.85567
0
LINE
8
BLACK
6
CONTINUOUS
10
5.60658
20
-3.85567
11
5.60123
21
-3.85638
0
LINE
8
BLACK
6
CONTINUOUS
10
5.60123
20
-3.85638
11
5.59588
21
-3.85567
0
LINE
8
BLACK
6
CONTINUOUS
10
5.59588
20
-3.85567
11
5.59089
21
-3.85361
0
LINE
8
BLACK
6
CONTINUOUS
10
5.59089
20
-3.85361
11
5.58661
21
-3.85032
0
LINE
8
BLACK
6
CONTINUOUS
10
5.58661
20
-3.85032
11
5.58333
21
-3.84604
0
LINE
8
BLACK
6
CONTINUOUS
10
5.58333
20
-3.84604
11
5.58126
21
-3.84106
0
LINE
8
BLACK
6
CONTINUOUS
10
5.58126
20
-3.84106
11
5.58056
21
-3.83571
0
LINE
8
BLACK
6
CONTINUOUS
10
5.58056
20
-3.83571
11
5.58126
21
-3.83036
0
LINE
8
BLACK
6
CONTINUOUS
10
5.58126
20
-3.83036
11
5.58333
21
-3.82537
0
LINE
8
BLACK
6
CONTINUOUS
10
5.58333
20
-3.82537
11
5.58661
21
-3.82109
0
LINE
8
BLACK
6
CONTINUOUS
10
5.58661
20
-3.82109
11
5.59089
21
-3.81781
0
LINE
8
BLACK
6
CONTINUOUS
10
5.59089
20
-3.81781
11
5.59588
21
-3.81574
0
LINE
8
BLACK
6
CONTINUOUS
10
5.59588
20
-3.81574
11
5.60123
21
-3.81504
0
LINE
8
BLACK
6
CONTINUOUS
10
5.60123
20
-3.81504
11
5.60658
21
-3.81574
0
LINE
8
BLACK
6
CONTINUOUS
10
5.60658
20
-3.81574
11
5.61156
21
-3.81781
0
LINE
8
BLACK
6
CONTINUOUS
10
5.61156
20
-3.81781
11
5.61304
21
-3.81894
0
LINE
8
BLACK
6
CONTINUOUS
10
5.61304
20
-3.81894
11
5.61304
21
-3.81169
0
LINE
8
BLACK
6
CONTINUOUS
10
5.61304
20
-3.81169
11
5.61364
21
-3.80868
0
LINE
8
BLACK
6
CONTINUOUS
10
5.61364
20
-3.80868
11
5.61412
21
-3.80795
0
LINE
8
BLACK
6
CONTINUOUS
10
5.61412
20
-3.80795
11
5.60024
21
-3.80795
0
LINE
8
BLACK
6
CONTINUOUS
10
5.60024
20
-3.80795
11
5.59693
21
-3.80776
0
LINE
8
BLACK
6
CONTINUOUS
10
5.59693
20
-3.80776
11
5.59048
21
-3.80623
0
LINE
8
BLACK
6
CONTINUOUS
10
5.59048
20
-3.80623
11
5.58456
21
-3.80326
0
LINE
8
BLACK
6
CONTINUOUS
10
5.58456
20
-3.80326
11
5.57948
21
-3.799
0
LINE
8
BLACK
6
CONTINUOUS
10
5.57948
20
-3.799
11
5.57552
21
-3.79368
0
LINE
8
BLACK
6
CONTINUOUS
10
5.57552
20
-3.79368
11
5.5729
21
-3.7876
0
LINE
8
BLACK
6
CONTINUOUS
10
5.5729
20
-3.7876
11
5.57175
21
-3.78107
0
LINE
8
BLACK
6
CONTINUOUS
10
5.57175
20
-3.78107
11
5.57213
21
-3.77445
0
LINE
8
BLACK
6
CONTINUOUS
10
5.57213
20
-3.77445
11
5.57404
21
-3.7681
0
LINE
8
BLACK
6
CONTINUOUS
10
5.57404
20
-3.7681
11
5.57735
21
-3.76236
0
LINE
8
BLACK
6
CONTINUOUS
10
5.57735
20
-3.76236
11
5.5819
21
-3.75754
0
LINE
8
BLACK
6
CONTINUOUS
10
5.5819
20
-3.75754
11
5.58743
21
-3.7539
0
LINE
8
BLACK
6
CONTINUOUS
10
5.58743
20
-3.7539
11
5.59366
21
-3.75164
0
LINE
8
BLACK
6
CONTINUOUS
10
5.59366
20
-3.75164
11
5.60024
21
-3.75087
0
LINE
8
BLACK
6
CONTINUOUS
10
5.60024
20
-3.75087
11
5.64158
21
-3.75087
0
LINE
8
BLACK
6
CONTINUOUS
10
5.64158
20
-3.75087
11
5.6449
21
-3.75106
0
LINE
8
BLACK
6
CONTINUOUS
10
5.48263
20
-4.09281
11
5.48884
21
-4.09516
0
LINE
8
BLACK
6
CONTINUOUS
10
5.48884
20
-4.09516
11
5.49431
21
-4.09894
0
LINE
8
BLACK
6
CONTINUOUS
10
5.49431
20
-4.09894
11
5.49871
21
-4.10391
0
LINE
8
BLACK
6
CONTINUOUS
10
5.49871
20
-4.10391
11
5.5018
21
-4.10979
0
LINE
8
BLACK
6
CONTINUOUS
10
5.5018
20
-4.10979
11
5.50339
21
-4.11625
0
LINE
8
BLACK
6
CONTINUOUS
10
5.50339
20
-4.11625
11
5.50339
21
-4.12289
0
LINE
8
BLACK
6
CONTINUOUS
10
5.50339
20
-4.12289
11
5.5018
21
-4.12934
0
LINE
8
BLACK
6
CONTINUOUS
10
5.5018
20
-4.12934
11
5.49871
21
-4.13522
0
LINE
8
BLACK
6
CONTINUOUS
10
5.49871
20
-4.13522
11
5.49431
21
-4.1402
0
LINE
8
BLACK
6
CONTINUOUS
10
5.49431
20
-4.1402
11
5.48884
21
-4.14397
0
LINE
8
BLACK
6
CONTINUOUS
10
5.48884
20
-4.14397
11
5.48263
21
-4.14633
0
LINE
8
BLACK
6
CONTINUOUS
10
5.48263
20
-4.14633
11
5.47603
21
-4.14713
0
LINE
8
BLACK
6
CONTINUOUS
10
5.47603
20
-4.14713
11
5.43666
21
-4.14713
0
LINE
8
BLACK
6
CONTINUOUS
10
5.43666
20
-4.14713
11
5.43007
21
-4.14633
0
LINE
8
BLACK
6
CONTINUOUS
10
5.43007
20
-4.14633
11
5.42385
21
-4.14397
0
LINE
8
BLACK
6
CONTINUOUS
10
5.42385
20
-4.14397
11
5.41839
21
-4.1402
0
LINE
8
BLACK
6
CONTINUOUS
10
5.41839
20
-4.1402
11
5.41398
21
-4.13522
0
LINE
8
BLACK
6
CONTINUOUS
10
5.41398
20
-4.13522
11
5.41089
21
-4.12934
0
LINE
8
BLACK
6
CONTINUOUS
10
5.41089
20
-4.12934
11
5.4093
21
-4.12289
0
LINE
8
BLACK
6
CONTINUOUS
10
5.4093
20
-4.12289
11
5.4093
21
-4.11625
0
LINE
8
BLACK
6
CONTINUOUS
10
5.4093
20
-4.11625
11
5.41089
21
-4.10979
0
LINE
8
BLACK
6
CONTINUOUS
10
5.41089
20
-4.10979
11
5.41398
21
-4.10391
0
LINE
8
BLACK
6
CONTINUOUS
10
5.41398
20
-4.10391
11
5.41839
21
-4.09894
0
LINE
8
BLACK
6
CONTINUOUS
10
5.41839
20
-4.09894
11
5.42385
21
-4.09516
0
LINE
8
BLACK
6
CONTINUOUS
10
5.42385
20
-4.09516
11
5.43007
21
-4.09281
0
LINE
8
BLACK
6
CONTINUOUS
10
5.43007
20
-4.09281
11
5.43666
21
-4.09201
0
LINE
8
BLACK
6
CONTINUOUS
10
5.43666
20
-4.09201
11
5.47603
21
-4.09201
0
LINE
8
BLACK
6
CONTINUOUS
10
5.47603
20
-4.09201
11
5.48263
21
-4.09281
0
LINE
8
BLACK
6
CONTINUOUS
10
6.12919
20
-4.08251
11
6.13385
21
-4.08489
0
LINE
8
BLACK
6
CONTINUOUS
10
6.13385
20
-4.08489
11
6.13755
21
-4.08859
0
LINE
8
BLACK
6
CONTINUOUS
10
6.13755
20
-4.08859
11
6.13993
21
-4.09325
0
LINE
8
BLACK
6
CONTINUOUS
10
6.13993
20
-4.09325
11
6.14075
21
-4.09843
0
LINE
8
BLACK
6
CONTINUOUS
10
6.14075
20
-4.09843
11
6.14075
21
-4.11614
0
LINE
8
BLACK
6
CONTINUOUS
10
6.14075
20
-4.11614
11
6.13993
21
-4.12131
0
LINE
8
BLACK
6
CONTINUOUS
10
6.13993
20
-4.12131
11
6.13755
21
-4.12598
0
LINE
8
BLACK
6
CONTINUOUS
10
6.13755
20
-4.12598
11
6.13385
21
-4.12968
0
LINE
8
BLACK
6
CONTINUOUS
10
6.13385
20
-4.12968
11
6.12919
21
-4.13206
0
LINE
8
BLACK
6
CONTINUOUS
10
6.12919
20
-4.13206
11
6.12402
21
-4.13287
0
LINE
8
BLACK
6
CONTINUOUS
10
6.12402
20
-4.13287
11
6.10433
21
-4.13287
0
LINE
8
BLACK
6
CONTINUOUS
10
6.10433
20
-4.13287
11
6.09916
21
-4.13206
0
LINE
8
BLACK
6
CONTINUOUS
10
6.09916
20
-4.13206
11
6.0945
21
-4.12968
0
LINE
8
BLACK
6
CONTINUOUS
10
6.0945
20
-4.12968
11
6.09079
21
-4.12598
0
LINE
8
BLACK
6
CONTINUOUS
10
6.09079
20
-4.12598
11
6.08842
21
-4.12131
0
LINE
8
BLACK
6
CONTINUOUS
10
6.08842
20
-4.12131
11
6.0876
21
-4.11614
0
LINE
8
BLACK
6
CONTINUOUS
10
6.0876
20
-4.11614
11
6.0876
21
-4.09843
0
LINE
8
BLACK
6
CONTINUOUS
10
6.0876
20
-4.09843
11
6.08842
21
-4.09325
0
LINE
8
BLACK
6
CONTINUOUS
10
6.08842
20
-4.09325
11
6.09079
21
-4.08859
0
LINE
8
BLACK
6
CONTINUOUS
10
6.09079
20
-4.08859
11
6.0945
21
-4.08489
0
LINE
8
BLACK
6
CONTINUOUS
10
6.0945
20
-4.08489
11
6.09916
21
-4.08251
0
LINE
8
BLACK
6
CONTINUOUS
10
6.09916
20
-4.08251
11
6.10433
21
-4.08169
0
LINE
8
BLACK
6
CONTINUOUS
10
6.10433
20
-4.08169
11
6.12402
21
-4.08169
0
LINE
8
BLACK
6
CONTINUOUS
10
6.12402
20
-4.08169
11
6.12919
21
-4.08251
0
LINE
8
BLACK
6
CONTINUOUS
10
5.84966
20
-4.07956
11
5.85432
21
-4.08194
0
LINE
8
BLACK
6
CONTINUOUS
10
5.85432
20
-4.08194
11
5.85802
21
-4.08564
0
LINE
8
BLACK
6
CONTINUOUS
10
5.85802
20
-4.08564
11
5.8604
21
-4.0903
0
LINE
8
BLACK
6
CONTINUOUS
10
5.8604
20
-4.0903
11
5.86122
21
-4.09547
0
LINE
8
BLACK
6
CONTINUOUS
10
5.86122
20
-4.09547
11
5.86122
21
-4.11319
0
LINE
8
BLACK
6
CONTINUOUS
10
5.86122
20
-4.11319
11
5.8604
21
-4.11836
0
LINE
8
BLACK
6
CONTINUOUS
10
5.8604
20
-4.11836
11
5.85802
21
-4.12302
0
LINE
8
BLACK
6
CONTINUOUS
10
5.85802
20
-4.12302
11
5.85432
21
-4.12673
0
LINE
8
BLACK
6
CONTINUOUS
10
5.85432
20
-4.12673
11
5.84966
21
-4.1291
0
LINE
8
BLACK
6
CONTINUOUS
10
5.84966
20
-4.1291
11
5.84449
21
-4.12992
0
LINE
8
BLACK
6
CONTINUOUS
10
5.84449
20
-4.12992
11
5.8248
21
-4.12992
0
LINE
8
BLACK
6
CONTINUOUS
10
5.8248
20
-4.12992
11
5.81963
21
-4.1291
0
LINE
8
BLACK
6
CONTINUOUS
10
5.81963
20
-4.1291
11
5.81497
21
-4.12673
0
LINE
8
BLACK
6
CONTINUOUS
10
5.81497
20
-4.12673
11
5.81127
21
-4.12302
0
LINE
8
BLACK
6
CONTINUOUS
10
5.81127
20
-4.12302
11
5.80889
21
-4.11836
0
LINE
8
BLACK
6
CONTINUOUS
10
5.80889
20
-4.11836
11
5.80807
21
-4.11319
0
LINE
8
BLACK
6
CONTINUOUS
10
5.80807
20
-4.11319
11
5.80807
21
-4.09547
0
LINE
8
BLACK
6
CONTINUOUS
10
5.80807
20
-4.09547
11
5.80889
21
-4.0903
0
LINE
8
BLACK
6
CONTINUOUS
10
5.80889
20
-4.0903
11
5.81127
21
-4.08564
0
LINE
8
BLACK
6
CONTINUOUS
10
5.81127
20
-4.08564
11
5.81497
21
-4.08194
0
LINE
8
BLACK
6
CONTINUOUS
10
5.81497
20
-4.08194
11
5.81963
21
-4.07956
0
LINE
8
BLACK
6
CONTINUOUS
10
5.81963
20
-4.07956
11
5.8248
21
-4.07874
0
LINE
8
BLACK
6
CONTINUOUS
10
5.8248
20
-4.07874
11
5.84449
21
-4.07874
0
LINE
8
BLACK
6
CONTINUOUS
10
5.84449
20
-4.07874
11
5.84966
21
-4.07956
0
LINE
8
BLACK
6
CONTINUOUS
10
5.92514
20
-4.08345
11
5.92953
21
-4.08568
0
LINE
8
BLACK
6
CONTINUOUS
10
5.92953
20
-4.08568
11
5.93302
21
-4.08917
0
LINE
8
BLACK
6
CONTINUOUS
10
5.93302
20
-4.08917
11
5.93525
21
-4.09356
0
LINE
8
BLACK
6
CONTINUOUS
10
5.93525
20
-4.09356
11
5.93602
21
-4.09843
0
LINE
8
BLACK
6
CONTINUOUS
10
5.93602
20
-4.09843
11
5.93602
21
-4.11417
0
LINE
8
BLACK
6
CONTINUOUS
10
5.93602
20
-4.11417
11
5.93525
21
-4.11904
0
LINE
8
BLACK
6
CONTINUOUS
10
5.93525
20
-4.11904
11
5.93302
21
-4.12343
0
LINE
8
BLACK
6
CONTINUOUS
10
5.93302
20
-4.12343
11
5.92953
21
-4.12691
0
LINE
8
BLACK
6
CONTINUOUS
10
5.92953
20
-4.12691
11
5.92514
21
-4.12915
0
LINE
8
BLACK
6
CONTINUOUS
10
5.92514
20
-4.12915
11
5.92028
21
-4.12992
0
LINE
8
BLACK
6
CONTINUOUS
10
5.92028
20
-4.12992
11
5.89862
21
-4.12992
0
LINE
8
BLACK
6
CONTINUOUS
10
5.89862
20
-4.12992
11
5.89376
21
-4.12915
0
LINE
8
BLACK
6
CONTINUOUS
10
5.89376
20
-4.12915
11
5.88937
21
-4.12691
0
LINE
8
BLACK
6
CONTINUOUS
10
5.88937
20
-4.12691
11
5.88588
21
-4.12343
0
LINE
8
BLACK
6
CONTINUOUS
10
5.88588
20
-4.12343
11
5.88364
21
-4.11904
0
LINE
8
BLACK
6
CONTINUOUS
10
5.88364
20
-4.11904
11
5.88287
21
-4.11417
0
LINE
8
BLACK
6
CONTINUOUS
10
5.88287
20
-4.11417
11
5.88287
21
-4.09843
0
LINE
8
BLACK
6
CONTINUOUS
10
5.88287
20
-4.09843
11
5.88364
21
-4.09356
0
LINE
8
BLACK
6
CONTINUOUS
10
5.88364
20
-4.09356
11
5.88588
21
-4.08917
0
LINE
8
BLACK
6
CONTINUOUS
10
5.88588
20
-4.08917
11
5.88937
21
-4.08568
0
LINE
8
BLACK
6
CONTINUOUS
10
5.88937
20
-4.08568
11
5.89376
21
-4.08345
0
LINE
8
BLACK
6
CONTINUOUS
10
5.89376
20
-4.08345
11
5.89862
21
-4.08268
0
LINE
8
BLACK
6
CONTINUOUS
10
5.89862
20
-4.08268
11
5.92028
21
-4.08268
0
LINE
8
BLACK
6
CONTINUOUS
10
5.92028
20
-4.08268
11
5.92514
21
-4.08345
0
LINE
8
BLACK
6
CONTINUOUS
10
6.4931
20
-4.03673
11
6.49808
21
-4.03847
0
LINE
8
BLACK
6
CONTINUOUS
10
6.49808
20
-4.03847
11
6.50233
21
-4.04161
0
LINE
8
BLACK
6
CONTINUOUS
10
6.50233
20
-4.04161
11
6.50547
21
-4.04586
0
LINE
8
BLACK
6
CONTINUOUS
10
6.50547
20
-4.04586
11
6.50721
21
-4.05084
0
LINE
8
BLACK
6
CONTINUOUS
10
6.50721
20
-4.05084
11
6.50752
21
-4.05413
0
LINE
8
BLACK
6
CONTINUOUS
10
6.50752
20
-4.05413
11
6.50752
21
-4.07382
0
LINE
8
BLACK
6
CONTINUOUS
10
6.50752
20
-4.07382
11
6.50721
21
-4.07711
0
LINE
8
BLACK
6
CONTINUOUS
10
6.50721
20
-4.07711
11
6.50547
21
-4.0821
0
LINE
8
BLACK
6
CONTINUOUS
10
6.50547
20
-4.0821
11
6.50233
21
-4.08635
0
LINE
8
BLACK
6
CONTINUOUS
10
6.50233
20
-4.08635
11
6.49808
21
-4.08948
0
LINE
8
BLACK
6
CONTINUOUS
10
6.49808
20
-4.08948
11
6.4931
21
-4.09123
0
LINE
8
BLACK
6
CONTINUOUS
10
6.4931
20
-4.09123
11
6.4898
21
-4.09154
0
LINE
8
BLACK
6
CONTINUOUS
10
6.4898
20
-4.09154
11
6.40319
21
-4.09154
0
LINE
8
BLACK
6
CONTINUOUS
10
6.40319
20
-4.09154
11
6.3999
21
-4.09123
0
LINE
8
BLACK
6
CONTINUOUS
10
6.3999
20
-4.09123
11
6.39491
21
-4.08948
0
LINE
8
BLACK
6
CONTINUOUS
10
6.39491
20
-4.08948
11
6.39066
21
-4.08635
0
LINE
8
BLACK
6
CONTINUOUS
10
6.39066
20
-4.08635
11
6.38753
21
-4.0821
0
LINE
8
BLACK
6
CONTINUOUS
10
6.38753
20
-4.0821
11
6.38578
21
-4.07711
0
LINE
8
BLACK
6
CONTINUOUS
10
6.38578
20
-4.07711
11
6.38547
21
-4.07382
0
LINE
8
BLACK
6
CONTINUOUS
10
6.38547
20
-4.07382
11
6.38547
21
-4.05413
0
LINE
8
BLACK
6
CONTINUOUS
10
6.38547
20
-4.05413
11
6.38578
21
-4.05084
0
LINE
8
BLACK
6
CONTINUOUS
10
6.38578
20
-4.05084
11
6.38753
21
-4.04586
0
LINE
8
BLACK
6
CONTINUOUS
10
6.38753
20
-4.04586
11
6.39066
21
-4.04161
0
LINE
8
BLACK
6
CONTINUOUS
10
6.39066
20
-4.04161
11
6.39491
21
-4.03847
0
LINE
8
BLACK
6
CONTINUOUS
10
6.39491
20
-4.03847
11
6.3999
21
-4.03673
0
LINE
8
BLACK
6
CONTINUOUS
10
6.3999
20
-4.03673
11
6.40319
21
-4.03642
0
LINE
8
BLACK
6
CONTINUOUS
10
6.40319
20
-4.03642
11
6.4898
21
-4.03642
0
LINE
8
BLACK
6
CONTINUOUS
10
6.4898
20
-4.03642
11
6.4931
21
-4.03673
0
LINE
8
BLACK
6
CONTINUOUS
10
6.18892
20
-4.0303
11
6.19331
21
-4.03254
0
LINE
8
BLACK
6
CONTINUOUS
10
6.19331
20
-4.03254
11
6.1968
21
-4.03602
0
LINE
8
BLACK
6
CONTINUOUS
10
6.1968
20
-4.03602
11
6.19903
21
-4.04041
0
LINE
8
BLACK
6
CONTINUOUS
10
6.19903
20
-4.04041
11
6.1998
21
-4.04528
0
LINE
8
BLACK
6
CONTINUOUS
10
6.1998
20
-4.04528
11
6.1998
21
-4.06102
0
LINE
8
BLACK
6
CONTINUOUS
10
6.1998
20
-4.06102
11
6.19903
21
-4.06589
0
LINE
8
BLACK
6
CONTINUOUS
10
6.19903
20
-4.06589
11
6.1968
21
-4.07028
0
LINE
8
BLACK
6
CONTINUOUS
10
6.1968
20
-4.07028
11
6.19331
21
-4.07376
0
LINE
8
BLACK
6
CONTINUOUS
10
6.19331
20
-4.07376
11
6.18892
21
-4.076
0
LINE
8
BLACK
6
CONTINUOUS
10
6.18892
20
-4.076
11
6.18406
21
-4.07677
0
LINE
8
BLACK
6
CONTINUOUS
10
6.18406
20
-4.07677
11
6.1624
21
-4.07677
0
LINE
8
BLACK
6
CONTINUOUS
10
6.1624
20
-4.07677
11
6.15754
21
-4.076
0
LINE
8
BLACK
6
CONTINUOUS
10
6.15754
20
-4.076
11
6.15315
21
-4.07376
0
LINE
8
BLACK
6
CONTINUOUS
10
6.15315
20
-4.07376
11
6.14966
21
-4.07028
0
LINE
8
BLACK
6
CONTINUOUS
10
6.14966
20
-4.07028
11
6.14742
21
-4.06589
0
LINE
8
BLACK
6
CONTINUOUS
10
6.14742
20
-4.06589
11
6.14665
21
-4.06102
0
LINE
8
BLACK
6
CONTINUOUS
10
6.14665
20
-4.06102
11
6.14665
21
-4.04528
0
LINE
8
BLACK
6
CONTINUOUS
10
6.14665
20
-4.04528
11
6.14742
21
-4.04041
0
LINE
8
BLACK
6
CONTINUOUS
10
6.14742
20
-4.04041
11
6.14966
21
-4.03602
0
LINE
8
BLACK
6
CONTINUOUS
10
6.14966
20
-4.03602
11
6.15315
21
-4.03254
0
LINE
8
BLACK
6
CONTINUOUS
10
6.15315
20
-4.03254
11
6.15754
21
-4.0303
0
LINE
8
BLACK
6
CONTINUOUS
10
6.15754
20
-4.0303
11
6.1624
21
-4.02953
0
LINE
8
BLACK
6
CONTINUOUS
10
6.1624
20
-4.02953
11
6.18406
21
-4.02953
0
LINE
8
BLACK
6
CONTINUOUS
10
6.18406
20
-4.02953
11
6.18892
21
-4.0303
0
LINE
8
BLACK
6
CONTINUOUS
10
6.00642
20
-3.86496
11
6.00977
21
-3.8672
0
LINE
8
BLACK
6
CONTINUOUS
10
6.00977
20
-3.8672
11
6.00984
21
-3.86731
0
LINE
8
BLACK
6
CONTINUOUS
10
6.00984
20
-3.86731
11
6.00992
21
-3.8672
0
LINE
8
BLACK
6
CONTINUOUS
10
6.00992
20
-3.8672
11
6.01327
21
-3.86496
0
LINE
8
BLACK
6
CONTINUOUS
10
6.01327
20
-3.86496
11
6.01722
21
-3.86417
0
LINE
8
BLACK
6
CONTINUOUS
10
6.01722
20
-3.86417
11
6.02215
21
-3.86417
0
LINE
8
BLACK
6
CONTINUOUS
10
6.02215
20
-3.86417
11
6.0261
21
-3.86496
0
LINE
8
BLACK
6
CONTINUOUS
10
6.0261
20
-3.86496
11
6.02945
21
-3.8672
0
LINE
8
BLACK
6
CONTINUOUS
10
6.02945
20
-3.8672
11
6.02953
21
-3.86731
0
LINE
8
BLACK
6
CONTINUOUS
10
6.02953
20
-3.86731
11
6.0296
21
-3.8672
0
LINE
8
BLACK
6
CONTINUOUS
10
6.0296
20
-3.8672
11
6.03295
21
-3.86496
0
LINE
8
BLACK
6
CONTINUOUS
10
6.03295
20
-3.86496
11
6.03691
21
-3.86417
0
LINE
8
BLACK
6
CONTINUOUS
10
6.03691
20
-3.86417
11
6.04183
21
-3.86417
0
LINE
8
BLACK
6
CONTINUOUS
10
6.04183
20
-3.86417
11
6.04579
21
-3.86496
0
LINE
8
BLACK
6
CONTINUOUS
10
6.04579
20
-3.86496
11
6.04914
21
-3.8672
0
LINE
8
BLACK
6
CONTINUOUS
10
6.04914
20
-3.8672
11
6.04921
21
-3.86731
0
LINE
8
BLACK
6
CONTINUOUS
10
6.04921
20
-3.86731
11
6.04929
21
-3.8672
0
LINE
8
BLACK
6
CONTINUOUS
10
6.04929
20
-3.8672
11
6.05264
21
-3.86496
0
LINE
8
BLACK
6
CONTINUOUS
10
6.05264
20
-3.86496
11
6.05659
21
-3.86417
0
LINE
8
BLACK
6
CONTINUOUS
10
6.05659
20
-3.86417
11
6.06152
21
-3.86417
0
LINE
8
BLACK
6
CONTINUOUS
10
6.06152
20
-3.86417
11
6.06547
21
-3.86496
0
LINE
8
BLACK
6
CONTINUOUS
10
6.06547
20
-3.86496
11
6.06882
21
-3.8672
0
LINE
8
BLACK
6
CONTINUOUS
10
6.06882
20
-3.8672
11
6.0689
21
-3.86731
0
LINE
8
BLACK
6
CONTINUOUS
10
6.0689
20
-3.86731
11
6.06897
21
-3.8672
0
LINE
8
BLACK
6
CONTINUOUS
10
6.06897
20
-3.8672
11
6.07232
21
-3.86496
0
LINE
8
BLACK
6
CONTINUOUS
10
6.07232
20
-3.86496
11
6.07628
21
-3.86417
0
LINE
8
BLACK
6
CONTINUOUS
10
6.07628
20
-3.86417
11
6.0812
21
-3.86417
0
LINE
8
BLACK
6
CONTINUOUS
10
6.0812
20
-3.86417
11
6.08516
21
-3.86496
0
LINE
8
BLACK
6
CONTINUOUS
10
6.08516
20
-3.86496
11
6.08851
21
-3.8672
0
LINE
8
BLACK
6
CONTINUOUS
10
6.08851
20
-3.8672
11
6.09075
21
-3.87055
0
LINE
8
BLACK
6
CONTINUOUS
10
6.09075
20
-3.87055
11
6.09154
21
-3.87451
0
LINE
8
BLACK
6
CONTINUOUS
10
6.09154
20
-3.87451
11
6.09154
21
-3.90207
0
LINE
8
BLACK
6
CONTINUOUS
10
6.09154
20
-3.90207
11
6.09075
21
-3.90602
0
LINE
8
BLACK
6
CONTINUOUS
10
6.09075
20
-3.90602
11
6.08963
21
-3.90769
0
LINE
8
BLACK
6
CONTINUOUS
10
6.08963
20
-3.90769
11
6.0916
21
-3.90808
0
LINE
8
BLACK
6
CONTINUOUS
10
6.0916
20
-3.90808
11
6.09415
21
-3.90979
0
LINE
8
BLACK
6
CONTINUOUS
10
6.09415
20
-3.90979
11
6.09586
21
-3.91234
0
LINE
8
BLACK
6
CONTINUOUS
10
6.09586
20
-3.91234
11
6.09625
21
-3.9143
0
LINE
8
BLACK
6
CONTINUOUS
10
6.09625
20
-3.9143
11
6.09792
21
-3.91319
0
LINE
8
BLACK
6
CONTINUOUS
10
6.09792
20
-3.91319
11
6.10187
21
-3.9124
0
LINE
8
BLACK
6
CONTINUOUS
10
6.10187
20
-3.9124
11
6.12943
21
-3.9124
0
LINE
8
BLACK
6
CONTINUOUS
10
6.12943
20
-3.9124
11
6.13338
21
-3.91319
0
LINE
8
BLACK
6
CONTINUOUS
10
6.13338
20
-3.91319
11
6.13674
21
-3.91543
0
LINE
8
BLACK
6
CONTINUOUS
10
6.13674
20
-3.91543
11
6.13898
21
-3.91878
0
LINE
8
BLACK
6
CONTINUOUS
10
6.13898
20
-3.91878
11
6.13976
21
-3.92274
0
LINE
8
BLACK
6
CONTINUOUS
10
6.13976
20
-3.92274
11
6.13976
21
-3.92766
0
LINE
8
BLACK
6
CONTINUOUS
10
6.13976
20
-3.92766
11
6.13898
21
-3.93161
0
LINE
8
BLACK
6
CONTINUOUS
10
6.13898
20
-3.93161
11
6.13674
21
-3.93497
0
LINE
8
BLACK
6
CONTINUOUS
10
6.13674
20
-3.93497
11
6.13663
21
-3.93504
0
LINE
8
BLACK
6
CONTINUOUS
10
6.13663
20
-3.93504
11
6.13674
21
-3.93511
0
LINE
8
BLACK
6
CONTINUOUS
10
6.13674
20
-3.93511
11
6.13898
21
-3.93847
0
LINE
8
BLACK
6
CONTINUOUS
10
6.13898
20
-3.93847
11
6.13976
21
-3.94242
0
LINE
8
BLACK
6
CONTINUOUS
10
6.13976
20
-3.94242
11
6.13976
21
-3.94734
0
LINE
8
BLACK
6
CONTINUOUS
10
6.13976
20
-3.94734
11
6.13898
21
-3.9513
0
LINE
8
BLACK
6
CONTINUOUS
10
6.13898
20
-3.9513
11
6.13674
21
-3.95465
0
LINE
8
BLACK
6
CONTINUOUS
10
6.13674
20
-3.95465
11
6.13663
21
-3.95472
0
LINE
8
BLACK
6
CONTINUOUS
10
6.13663
20
-3.95472
11
6.13674
21
-3.9548
0
LINE
8
BLACK
6
CONTINUOUS
10
6.13674
20
-3.9548
11
6.13898
21
-3.95815
0
LINE
8
BLACK
6
CONTINUOUS
10
6.13898
20
-3.95815
11
6.13976
21
-3.96211
0
LINE
8
BLACK
6
CONTINUOUS
10
6.13976
20
-3.96211
11
6.13976
21
-3.96703
0
LINE
8
BLACK
6
CONTINUOUS
10
6.13976
20
-3.96703
11
6.13898
21
-3.97098
0
LINE
8
BLACK
6
CONTINUOUS
10
6.13898
20
-3.97098
11
6.13674
21
-3.97434
0
LINE
8
BLACK
6
CONTINUOUS
10
6.13674
20
-3.97434
11
6.13663
21
-3.97441
0
LINE
8
BLACK
6
CONTINUOUS
10
6.13663
20
-3.97441
11
6.13674
21
-3.97448
0
LINE
8
BLACK
6
CONTINUOUS
10
6.13674
20
-3.97448
11
6.13898
21
-3.97784
0
LINE
8
BLACK
6
CONTINUOUS
10
6.13898
20
-3.97784
11
6.13976
21
-3.98179
0
LINE
8
BLACK
6
CONTINUOUS
10
6.13976
20
-3.98179
11
6.13976
21
-3.98671
0
LINE
8
BLACK
6
CONTINUOUS
10
6.13976
20
-3.98671
11
6.13898
21
-3.99067
0
LINE
8
BLACK
6
CONTINUOUS
10
6.13898
20
-3.99067
11
6.13674
21
-3.99402
0
LINE
8
BLACK
6
CONTINUOUS
10
6.13674
20
-3.99402
11
6.13663
21
-3.99409
0
LINE
8
BLACK
6
CONTINUOUS
10
6.13663
20
-3.99409
11
6.13674
21
-3.99417
0
LINE
8
BLACK
6
CONTINUOUS
10
6.13674
20
-3.99417
11
6.13898
21
-3.99752
0
LINE
8
BLACK
6
CONTINUOUS
10
6.13898
20
-3.99752
11
6.13976
21
-4.00148
0
LINE
8
BLACK
6
CONTINUOUS
10
6.13976
20
-4.00148
11
6.13976
21
-4.0064
0
LINE
8
BLACK
6
CONTINUOUS
10
6.13976
20
-4.0064
11
6.13898
21
-4.01035
0
LINE
8
BLACK
6
CONTINUOUS
10
6.13898
20
-4.01035
11
6.13674
21
-4.01371
0
LINE
8
BLACK
6
CONTINUOUS
10
6.13674
20
-4.01371
11
6.13338
21
-4.01595
0
LINE
8
BLACK
6
CONTINUOUS
10
6.13338
20
-4.01595
11
6.12943
21
-4.01673
0
LINE
8
BLACK
6
CONTINUOUS
10
6.12943
20
-4.01673
11
6.10187
21
-4.01673
0
LINE
8
BLACK
6
CONTINUOUS
10
6.10187
20
-4.01673
11
6.09792
21
-4.01595
0
LINE
8
BLACK
6
CONTINUOUS
10
6.09792
20
-4.01595
11
6.09625
21
-4.01483
0
LINE
8
BLACK
6
CONTINUOUS
10
6.09625
20
-4.01483
11
6.09586
21
-4.01679
0
LINE
8
BLACK
6
CONTINUOUS
10
6.09586
20
-4.01679
11
6.09415
21
-4.01935
0
LINE
8
BLACK
6
CONTINUOUS
10
6.09415
20
-4.01935
11
6.0916
21
-4.02105
0
LINE
8
BLACK
6
CONTINUOUS
10
6.0916
20
-4.02105
11
6.08963
21
-4.02144
0
LINE
8
BLACK
6
CONTINUOUS
10
6.08963
20
-4.02144
11
6.09075
21
-4.02311
0
LINE
8
BLACK
6
CONTINUOUS
10
6.09075
20
-4.02311
11
6.09154
21
-4.02707
0
LINE
8
BLACK
6
CONTINUOUS
10
6.09154
20
-4.02707
11
6.09154
21
-4.05463
0
LINE
8
BLACK
6
CONTINUOUS
10
6.09154
20
-4.05463
11
6.09075
21
-4.05858
0
LINE
8
BLACK
6
CONTINUOUS
10
6.09075
20
-4.05858
11
6.08851
21
-4.06193
0
LINE
8
BLACK
6
CONTINUOUS
10
6.08851
20
-4.06193
11
6.08516
21
-4.06417
0
LINE
8
BLACK
6
CONTINUOUS
10
6.08516
20
-4.06417
11
6.0812
21
-4.06496
0
LINE
8
BLACK
6
CONTINUOUS
10
6.0812
20
-4.06496
11
6.07628
21
-4.06496
0
LINE
8
BLACK
6
CONTINUOUS
10
6.07628
20
-4.06496
11
6.07232
21
-4.06417
0
LINE
8
BLACK
6
CONTINUOUS
10
6.07232
20
-4.06417
11
6.06897
21
-4.06193
0
LINE
8
BLACK
6
CONTINUOUS
10
6.06897
20
-4.06193
11
6.0689
21
-4.06182
0
LINE
8
BLACK
6
CONTINUOUS
10
6.0689
20
-4.06182
11
6.06882
21
-4.06193
0
LINE
8
BLACK
6
CONTINUOUS
10
6.06882
20
-4.06193
11
6.06547
21
-4.06417
0
LINE
8
BLACK
6
CONTINUOUS
10
6.06547
20
-4.06417
11
6.06152
21
-4.06496
0
LINE
8
BLACK
6
CONTINUOUS
10
6.06152
20
-4.06496
11
6.05659
21
-4.06496
0
LINE
8
BLACK
6
CONTINUOUS
10
6.05659
20
-4.06496
11
6.05264
21
-4.06417
0
LINE
8
BLACK
6
CONTINUOUS
10
6.05264
20
-4.06417
11
6.04929
21
-4.06193
0
LINE
8
BLACK
6
CONTINUOUS
10
6.04929
20
-4.06193
11
6.04921
21
-4.06182
0
LINE
8
BLACK
6
CONTINUOUS
10
6.04921
20
-4.06182
11
6.04914
21
-4.06193
0
LINE
8
BLACK
6
CONTINUOUS
10
6.04914
20
-4.06193
11
6.04579
21
-4.06417
0
LINE
8
BLACK
6
CONTINUOUS
10
6.04579
20
-4.06417
11
6.04183
21
-4.06496
0
LINE
8
BLACK
6
CONTINUOUS
10
6.04183
20
-4.06496
11
6.03691
21
-4.06496
0
LINE
8
BLACK
6
CONTINUOUS
10
6.03691
20
-4.06496
11
6.03295
21
-4.06417
0
LINE
8
BLACK
6
CONTINUOUS
10
6.03295
20
-4.06417
11
6.0296
21
-4.06193
0
LINE
8
BLACK
6
CONTINUOUS
10
6.0296
20
-4.06193
11
6.02953
21
-4.06182
0
LINE
8
BLACK
6
CONTINUOUS
10
6.02953
20
-4.06182
11
6.02945
21
-4.06193
0
LINE
8
BLACK
6
CONTINUOUS
10
6.02945
20
-4.06193
11
6.0261
21
-4.06417
0
LINE
8
BLACK
6
CONTINUOUS
10
6.0261
20
-4.06417
11
6.02215
21
-4.06496
0
LINE
8
BLACK
6
CONTINUOUS
10
6.02215
20
-4.06496
11
6.01722
21
-4.06496
0
LINE
8
BLACK
6
CONTINUOUS
10
6.01722
20
-4.06496
11
6.01327
21
-4.06417
0
LINE
8
BLACK
6
CONTINUOUS
10
6.01327
20
-4.06417
11
6.00992
21
-4.06193
0
LINE
8
BLACK
6
CONTINUOUS
10
6.00992
20
-4.06193
11
6.00984
21
-4.06182
0
LINE
8
BLACK
6
CONTINUOUS
10
6.00984
20
-4.06182
11
6.00977
21
-4.06193
0
LINE
8
BLACK
6
CONTINUOUS
10
6.00977
20
-4.06193
11
6.00642
21
-4.06417
0
LINE
8
BLACK
6
CONTINUOUS
10
6.00642
20
-4.06417
11
6.00246
21
-4.06496
0
LINE
8
BLACK
6
CONTINUOUS
10
6.00246
20
-4.06496
11
5.99754
21
-4.06496
0
LINE
8
BLACK
6
CONTINUOUS
10
5.99754
20
-4.06496
11
5.99358
21
-4.06417
0
LINE
8
BLACK
6
CONTINUOUS
10
5.99358
20
-4.06417
11
5.99023
21
-4.06193
0
LINE
8
BLACK
6
CONTINUOUS
10
5.99023
20
-4.06193
11
5.98799
21
-4.05858
0
LINE
8
BLACK
6
CONTINUOUS
10
5.98799
20
-4.05858
11
5.9872
21
-4.05463
0
LINE
8
BLACK
6
CONTINUOUS
10
5.9872
20
-4.05463
11
5.9872
21
-4.02707
0
LINE
8
BLACK
6
CONTINUOUS
10
5.9872
20
-4.02707
11
5.98799
21
-4.02311
0
LINE
8
BLACK
6
CONTINUOUS
10
5.98799
20
-4.02311
11
5.98911
21
-4.02144
0
LINE
8
BLACK
6
CONTINUOUS
10
5.98911
20
-4.02144
11
5.98714
21
-4.02105
0
LINE
8
BLACK
6
CONTINUOUS
10
5.98714
20
-4.02105
11
5.98459
21
-4.01935
0
LINE
8
BLACK
6
CONTINUOUS
10
5.98459
20
-4.01935
11
5.98288
21
-4.01679
0
LINE
8
BLACK
6
CONTINUOUS
10
5.98288
20
-4.01679
11
5.98249
21
-4.01483
0
LINE
8
BLACK
6
CONTINUOUS
10
5.98249
20
-4.01483
11
5.98082
21
-4.01595
0
LINE
8
BLACK
6
CONTINUOUS
10
5.98082
20
-4.01595
11
5.97687
21
-4.01673
0
LINE
8
BLACK
6
CONTINUOUS
10
5.97687
20
-4.01673
11
5.94931
21
-4.01673
0
LINE
8
BLACK
6
CONTINUOUS
10
5.94931
20
-4.01673
11
5.94536
21
-4.01595
0
LINE
8
BLACK
6
CONTINUOUS
10
5.94536
20
-4.01595
11
5.942
21
-4.01371
0
LINE
8
BLACK
6
CONTINUOUS
10
5.942
20
-4.01371
11
5.93976
21
-4.01035
0
LINE
8
BLACK
6
CONTINUOUS
10
5.93976
20
-4.01035
11
5.93898
21
-4.0064
0
LINE
8
BLACK
6
CONTINUOUS
10
5.93898
20
-4.0064
11
5.93898
21
-4.00148
0
LINE
8
BLACK
6
CONTINUOUS
10
5.93898
20
-4.00148
11
5.93976
21
-3.99752
0
LINE
8
BLACK
6
CONTINUOUS
10
5.93976
20
-3.99752
11
5.942
21
-3.99417
0
LINE
8
BLACK
6
CONTINUOUS
10
5.942
20
-3.99417
11
5.94211
21
-3.99409
0
LINE
8
BLACK
6
CONTINUOUS
10
5.94211
20
-3.99409
11
5.942
21
-3.99402
0
LINE
8
BLACK
6
CONTINUOUS
10
5.942
20
-3.99402
11
5.93976
21
-3.99067
0
LINE
8
BLACK
6
CONTINUOUS
10
5.93976
20
-3.99067
11
5.93898
21
-3.98671
0
LINE
8
BLACK
6
CONTINUOUS
10
5.93898
20
-3.98671
11
5.93898
21
-3.98179
0
LINE
8
BLACK
6
CONTINUOUS
10
5.93898
20
-3.98179
11
5.93976
21
-3.97784
0
LINE
8
BLACK
6
CONTINUOUS
10
5.93976
20
-3.97784
11
5.942
21
-3.97448
0
LINE
8
BLACK
6
CONTINUOUS
10
5.942
20
-3.97448
11
5.94211
21
-3.97441
0
LINE
8
BLACK
6
CONTINUOUS
10
5.94211
20
-3.97441
11
5.942
21
-3.97434
0
LINE
8
BLACK
6
CONTINUOUS
10
5.942
20
-3.97434
11
5.93976
21
-3.97098
0
LINE
8
BLACK
6
CONTINUOUS
10
5.93976
20
-3.97098
11
5.93898
21
-3.96703
0
LINE
8
BLACK
6
CONTINUOUS
10
5.93898
20
-3.96703
11
5.93898
21
-3.96211
0
LINE
8
BLACK
6
CONTINUOUS
10
5.93898
20
-3.96211
11
5.93976
21
-3.95815
0
LINE
8
BLACK
6
CONTINUOUS
10
5.93976
20
-3.95815
11
5.942
21
-3.9548
0
LINE
8
BLACK
6
CONTINUOUS
10
5.942
20
-3.9548
11
5.94211
21
-3.95472
0
LINE
8
BLACK
6
CONTINUOUS
10
5.94211
20
-3.95472
11
5.942
21
-3.95465
0
LINE
8
BLACK
6
CONTINUOUS
10
5.942
20
-3.95465
11
5.93976
21
-3.9513
0
LINE
8
BLACK
6
CONTINUOUS
10
5.93976
20
-3.9513
11
5.93898
21
-3.94734
0
LINE
8
BLACK
6
CONTINUOUS
10
5.93898
20
-3.94734
11
5.93898
21
-3.94242
0
LINE
8
BLACK
6
CONTINUOUS
10
5.93898
20
-3.94242
11
5.93976
21
-3.93847
0
LINE
8
BLACK
6
CONTINUOUS
10
5.93976
20
-3.93847
11
5.942
21
-3.93511
0
LINE
8
BLACK
6
CONTINUOUS
10
5.942
20
-3.93511
11
5.94211
21
-3.93504
0
LINE
8
BLACK
6
CONTINUOUS
10
5.94211
20
-3.93504
11
5.942
21
-3.93497
0
LINE
8
BLACK
6
CONTINUOUS
10
5.942
20
-3.93497
11
5.93976
21
-3.93161
0
LINE
8
BLACK
6
CONTINUOUS
10
5.93976
20
-3.93161
11
5.93898
21
-3.92766
0
LINE
8
BLACK
6
CONTINUOUS
10
5.93898
20
-3.92766
11
5.93898
21
-3.92274
0
LINE
8
BLACK
6
CONTINUOUS
10
5.93898
20
-3.92274
11
5.93976
21
-3.91878
0
LINE
8
BLACK
6
CONTINUOUS
10
5.93976
20
-3.91878
11
5.942
21
-3.91543
0
LINE
8
BLACK
6
CONTINUOUS
10
5.942
20
-3.91543
11
5.94536
21
-3.91319
0
LINE
8
BLACK
6
CONTINUOUS
10
5.94536
20
-3.91319
11
5.94931
21
-3.9124
0
LINE
8
BLACK
6
CONTINUOUS
10
5.94931
20
-3.9124
11
5.97687
21
-3.9124
0
LINE
8
BLACK
6
CONTINUOUS
10
5.97687
20
-3.9124
11
5.98082
21
-3.91319
0
LINE
8
BLACK
6
CONTINUOUS
10
5.98082
20
-3.91319
11
5.98249
21
-3.9143
0
LINE
8
BLACK
6
CONTINUOUS
10
5.98249
20
-3.9143
11
5.98288
21
-3.91234
0
LINE
8
BLACK
6
CONTINUOUS
10
5.98288
20
-3.91234
11
5.98459
21
-3.90979
0
LINE
8
BLACK
6
CONTINUOUS
10
5.98459
20
-3.90979
11
5.98714
21
-3.90808
0
LINE
8
BLACK
6
CONTINUOUS
10
5.98714
20
-3.90808
11
5.98911
21
-3.90769
0
LINE
8
BLACK
6
CONTINUOUS
10
5.98911
20
-3.90769
11
5.98799
21
-3.90602
0
LINE
8
BLACK
6
CONTINUOUS
10
5.98799
20
-3.90602
11
5.9872
21
-3.90207
0
LINE
8
BLACK
6
CONTINUOUS
10
5.9872
20
-3.90207
11
5.9872
21
-3.87451
0
LINE
8
BLACK
6
CONTINUOUS
10
5.9872
20
-3.87451
11
5.98799
21
-3.87055
0
LINE
8
BLACK
6
CONTINUOUS
10
5.98799
20
-3.87055
11
5.99023
21
-3.8672
0
LINE
8
BLACK
6
CONTINUOUS
10
5.99023
20
-3.8672
11
5.99358
21
-3.86496
0
LINE
8
BLACK
6
CONTINUOUS
10
5.99358
20
-3.86496
11
5.99754
21
-3.86417
0
LINE
8
BLACK
6
CONTINUOUS
10
5.99754
20
-3.86417
11
6.00246
21
-3.86417
0
LINE
8
BLACK
6
CONTINUOUS
10
6.00246
20
-3.86417
11
6.00642
21
-3.86496
0
LINE
8
BLACK
6
CONTINUOUS
10
6.18892
20
-3.96534
11
6.19331
21
-3.96757
0
LINE
8
BLACK
6
CONTINUOUS
10
6.19331
20
-3.96757
11
6.1968
21
-3.97106
0
LINE
8
BLACK
6
CONTINUOUS
10
6.1968
20
-3.97106
11
6.19903
21
-3.97545
0
LINE
8
BLACK
6
CONTINUOUS
10
6.19903
20
-3.97545
11
6.1998
21
-3.98031
0
LINE
8
BLACK
6
CONTINUOUS
10
6.1998
20
-3.98031
11
6.1998
21
-3.99606
0
LINE
8
BLACK
6
CONTINUOUS
10
6.1998
20
-3.99606
11
6.19903
21
-4.00093
0
LINE
8
BLACK
6
CONTINUOUS
10
6.19903
20
-4.00093
11
6.1968
21
-4.00532
0
LINE
8
BLACK
6
CONTINUOUS
10
6.1968
20
-4.00532
11
6.19331
21
-4.0088
0
LINE
8
BLACK
6
CONTINUOUS
10
6.19331
20
-4.0088
11
6.18892
21
-4.01104
0
LINE
8
BLACK
6
CONTINUOUS
10
6.18892
20
-4.01104
11
6.18406
21
-4.01181
0
LINE
8
BLACK
6
CONTINUOUS
10
6.18406
20
-4.01181
11
6.1624
21
-4.01181
0
LINE
8
BLACK
6
CONTINUOUS
10
6.1624
20
-4.01181
11
6.15754
21
-4.01104
0
LINE
8
BLACK
6
CONTINUOUS
10
6.15754
20
-4.01104
11
6.15315
21
-4.0088
0
LINE
8
BLACK
6
CONTINUOUS
10
6.15315
20
-4.0088
11
6.14966
21
-4.00532
0
LINE
8
BLACK
6
CONTINUOUS
10
6.14966
20
-4.00532
11
6.14742
21
-4.00093
0
LINE
8
BLACK
6
CONTINUOUS
10
6.14742
20
-4.00093
11
6.14665
21
-3.99606
0
LINE
8
BLACK
6
CONTINUOUS
10
6.14665
20
-3.99606
11
6.14665
21
-3.98031
0
LINE
8
BLACK
6
CONTINUOUS
10
6.14665
20
-3.98031
11
6.14742
21
-3.97545
0
LINE
8
BLACK
6
CONTINUOUS
10
6.14742
20
-3.97545
11
6.14966
21
-3.97106
0
LINE
8
BLACK
6
CONTINUOUS
10
6.14966
20
-3.97106
11
6.15315
21
-3.96757
0
LINE
8
BLACK
6
CONTINUOUS
10
6.15315
20
-3.96757
11
6.15754
21
-3.96534
0
LINE
8
BLACK
6
CONTINUOUS
10
6.15754
20
-3.96534
11
6.1624
21
-3.96457
0
LINE
8
BLACK
6
CONTINUOUS
10
6.1624
20
-3.96457
11
6.18406
21
-3.96457
0
LINE
8
BLACK
6
CONTINUOUS
10
6.18406
20
-3.96457
11
6.18892
21
-3.96534
0
LINE
8
BLACK
6
CONTINUOUS
10
5.80757
20
-3.89297
11
5.81165
21
-3.89497
0
LINE
8
BLACK
6
CONTINUOUS
10
5.81165
20
-3.89497
11
5.81486
21
-3.89817
0
LINE
8
BLACK
6
CONTINUOUS
10
5.81486
20
-3.89817
11
5.81685
21
-3.90225
0
LINE
8
BLACK
6
CONTINUOUS
10
5.81685
20
-3.90225
11
5.81742
21
-3.90618
0
LINE
8
BLACK
6
CONTINUOUS
10
5.81742
20
-3.90618
11
5.81742
21
-3.91799
0
LINE
8
BLACK
6
CONTINUOUS
10
5.81742
20
-3.91799
11
5.81685
21
-3.92192
0
LINE
8
BLACK
6
CONTINUOUS
10
5.81685
20
-3.92192
11
5.81486
21
-3.926
0
LINE
8
BLACK
6
CONTINUOUS
10
5.81486
20
-3.926
11
5.81165
21
-3.92921
0
LINE
8
BLACK
6
CONTINUOUS
10
5.81165
20
-3.92921
11
5.80842
21
-3.93079
0
LINE
8
BLACK
6
CONTINUOUS
10
5.80842
20
-3.93079
11
5.81165
21
-3.93237
0
LINE
8
BLACK
6
CONTINUOUS
10
5.81165
20
-3.93237
11
5.81486
21
-3.93558
0
LINE
8
BLACK
6
CONTINUOUS
10
5.81486
20
-3.93558
11
5.81685
21
-3.93965
0
LINE
8
BLACK
6
CONTINUOUS
10
5.81685
20
-3.93965
11
5.81742
21
-3.94358
0
LINE
8
BLACK
6
CONTINUOUS
10
5.81742
20
-3.94358
11
5.81742
21
-3.95539
0
LINE
8
BLACK
6
CONTINUOUS
10
5.81742
20
-3.95539
11
5.81685
21
-3.95933
0
LINE
8
BLACK
6
CONTINUOUS
10
5.81685
20
-3.95933
11
5.81486
21
-3.9634
0
LINE
8
BLACK
6
CONTINUOUS
10
5.81486
20
-3.9634
11
5.81165
21
-3.96661
0
LINE
8
BLACK
6
CONTINUOUS
10
5.81165
20
-3.96661
11
5.80842
21
-3.96819
0
LINE
8
BLACK
6
CONTINUOUS
10
5.80842
20
-3.96819
11
5.81165
21
-3.96977
0
LINE
8
BLACK
6
CONTINUOUS
10
5.81165
20
-3.96977
11
5.81486
21
-3.97298
0
LINE
8
BLACK
6
CONTINUOUS
10
5.81486
20
-3.97298
11
5.81685
21
-3.97705
0
LINE
8
BLACK
6
CONTINUOUS
10
5.81685
20
-3.97705
11
5.81742
21
-3.98098
0
LINE
8
BLACK
6
CONTINUOUS
10
5.81742
20
-3.98098
11
5.81742
21
-3.9928
0
LINE
8
BLACK
6
CONTINUOUS
10
5.81742
20
-3.9928
11
5.81685
21
-3.99673
0
LINE
8
BLACK
6
CONTINUOUS
10
5.81685
20
-3.99673
11
5.81486
21
-4.0008
0
LINE
8
BLACK
6
CONTINUOUS
10
5.81486
20
-4.0008
11
5.81165
21
-4.00401
0
LINE
8
BLACK
6
CONTINUOUS
10
5.81165
20
-4.00401
11
5.80757
21
-4.006
0
LINE
8
BLACK
6
CONTINUOUS
10
5.80757
20
-4.006
11
5.80364
21
-4.00657
0
LINE
8
BLACK
6
CONTINUOUS
10
5.80364
20
-4.00657
11
5.76329
21
-4.00657
0
LINE
8
BLACK
6
CONTINUOUS
10
5.76329
20
-4.00657
11
5.75936
21
-4.006
0
LINE
8
BLACK
6
CONTINUOUS
10
5.75936
20
-4.006
11
5.75528
21
-4.00401
0
LINE
8
BLACK
6
CONTINUOUS
10
5.75528
20
-4.00401
11
5.75207
21
-4.0008
0
LINE
8
BLACK
6
CONTINUOUS
10
5.75207
20
-4.0008
11
5.75008
21
-3.99673
0
LINE
8
BLACK
6
CONTINUOUS
10
5.75008
20
-3.99673
11
5.74951
21
-3.9928
0
LINE
8
BLACK
6
CONTINUOUS
10
5.74951
20
-3.9928
11
5.74951
21
-3.98098
0
LINE
8
BLACK
6
CONTINUOUS
10
5.74951
20
-3.98098
11
5.75008
21
-3.97705
0
LINE
8
BLACK
6
CONTINUOUS
10
5.75008
20
-3.97705
11
5.75207
21
-3.97298
0
LINE
8
BLACK
6
CONTINUOUS
10
5.75207
20
-3.97298
11
5.75528
21
-3.96977
0
LINE
8
BLACK
6
CONTINUOUS
10
5.75528
20
-3.96977
11
5.75851
21
-3.96819
0
LINE
8
BLACK
6
CONTINUOUS
10
5.75851
20
-3.96819
11
5.75528
21
-3.96661
0
LINE
8
BLACK
6
CONTINUOUS
10
5.75528
20
-3.96661
11
5.75207
21
-3.9634
0
LINE
8
BLACK
6
CONTINUOUS
10
5.75207
20
-3.9634
11
5.75008
21
-3.95933
0
LINE
8
BLACK
6
CONTINUOUS
10
5.75008
20
-3.95933
11
5.74951
21
-3.95539
0
LINE
8
BLACK
6
CONTINUOUS
10
5.74951
20
-3.95539
11
5.74951
21
-3.94358
0
LINE
8
BLACK
6
CONTINUOUS
10
5.74951
20
-3.94358
11
5.75008
21
-3.93965
0
LINE
8
BLACK
6
CONTINUOUS
10
5.75008
20
-3.93965
11
5.75207
21
-3.93558
0
LINE
8
BLACK
6
CONTINUOUS
10
5.75207
20
-3.93558
11
5.75528
21
-3.93237
0
LINE
8
BLACK
6
CONTINUOUS
10
5.75528
20
-3.93237
11
5.75851
21
-3.93079
0
LINE
8
BLACK
6
CONTINUOUS
10
5.75851
20
-3.93079
11
5.75528
21
-3.92921
0
LINE
8
BLACK
6
CONTINUOUS
10
5.75528
20
-3.92921
11
5.75207
21
-3.926
0
LINE
8
BLACK
6
CONTINUOUS
10
5.75207
20
-3.926
11
5.75008
21
-3.92192
0
LINE
8
BLACK
6
CONTINUOUS
10
5.75008
20
-3.92192
11
5.74951
21
-3.91799
0
LINE
8
BLACK
6
CONTINUOUS
10
5.74951
20
-3.91799
11
5.74951
21
-3.90618
0
LINE
8
BLACK
6
CONTINUOUS
10
5.74951
20
-3.90618
11
5.75008
21
-3.90225
0
LINE
8
BLACK
6
CONTINUOUS
10
5.75008
20
-3.90225
11
5.75207
21
-3.89817
0
LINE
8
BLACK
6
CONTINUOUS
10
5.75207
20
-3.89817
11
5.75528
21
-3.89497
0
LINE
8
BLACK
6
CONTINUOUS
10
5.75528
20
-3.89497
11
5.75936
21
-3.89297
0
LINE
8
BLACK
6
CONTINUOUS
10
5.75936
20
-3.89297
11
5.76329
21
-3.8924
0
LINE
8
BLACK
6
CONTINUOUS
10
5.76329
20
-3.8924
11
5.80364
21
-3.8924
0
LINE
8
BLACK
6
CONTINUOUS
10
5.80364
20
-3.8924
11
5.80757
21
-3.89297
0
LINE
8
BLACK
6
CONTINUOUS
10
5.89714
20
-3.89297
11
5.90122
21
-3.89497
0
LINE
8
BLACK
6
CONTINUOUS
10
5.90122
20
-3.89497
11
5.90442
21
-3.89817
0
LINE
8
BLACK
6
CONTINUOUS
10
5.90442
20
-3.89817
11
5.90642
21
-3.90225
0
LINE
8
BLACK
6
CONTINUOUS
10
5.90642
20
-3.90225
11
5.90699
21
-3.90618
0
LINE
8
BLACK
6
CONTINUOUS
10
5.90699
20
-3.90618
11
5.90699
21
-3.91799
0
LINE
8
BLACK
6
CONTINUOUS
10
5.90699
20
-3.91799
11
5.90642
21
-3.92192
0
LINE
8
BLACK
6
CONTINUOUS
10
5.90642
20
-3.92192
11
5.90442
21
-3.926
0
LINE
8
BLACK
6
CONTINUOUS
10
5.90442
20
-3.926
11
5.90122
21
-3.92921
0
LINE
8
BLACK
6
CONTINUOUS
10
5.90122
20
-3.92921
11
5.89798
21
-3.93079
0
LINE
8
BLACK
6
CONTINUOUS
10
5.89798
20
-3.93079
11
5.90122
21
-3.93237
0
LINE
8
BLACK
6
CONTINUOUS
10
5.90122
20
-3.93237
11
5.90442
21
-3.93558
0
LINE
8
BLACK
6
CONTINUOUS
10
5.90442
20
-3.93558
11
5.90642
21
-3.93965
0
LINE
8
BLACK
6
CONTINUOUS
10
5.90642
20
-3.93965
11
5.90699
21
-3.94358
0
LINE
8
BLACK
6
CONTINUOUS
10
5.90699
20
-3.94358
11
5.90699
21
-3.95539
0
LINE
8
BLACK
6
CONTINUOUS
10
5.90699
20
-3.95539
11
5.90642
21
-3.95933
0
LINE
8
BLACK
6
CONTINUOUS
10
5.90642
20
-3.95933
11
5.90442
21
-3.9634
0
LINE
8
BLACK
6
CONTINUOUS
10
5.90442
20
-3.9634
11
5.90122
21
-3.96661
0
LINE
8
BLACK
6
CONTINUOUS
10
5.90122
20
-3.96661
11
5.89798
21
-3.96819
0
LINE
8
BLACK
6
CONTINUOUS
10
5.89798
20
-3.96819
11
5.90122
21
-3.96977
0
LINE
8
BLACK
6
CONTINUOUS
10
5.90122
20
-3.96977
11
5.90442
21
-3.97298
0
LINE
8
BLACK
6
CONTINUOUS
10
5.90442
20
-3.97298
11
5.90642
21
-3.97705
0
LINE
8
BLACK
6
CONTINUOUS
10
5.90642
20
-3.97705
11
5.90699
21
-3.98098
0
LINE
8
BLACK
6
CONTINUOUS
10
5.90699
20
-3.98098
11
5.90699
21
-3.9928
0
LINE
8
BLACK
6
CONTINUOUS
10
5.90699
20
-3.9928
11
5.90642
21
-3.99673
0
LINE
8
BLACK
6
CONTINUOUS
10
5.90642
20
-3.99673
11
5.90442
21
-4.0008
0
LINE
8
BLACK
6
CONTINUOUS
10
5.90442
20
-4.0008
11
5.90122
21
-4.00401
0
LINE
8
BLACK
6
CONTINUOUS
10
5.90122
20
-4.00401
11
5.89714
21
-4.006
0
LINE
8
BLACK
6
CONTINUOUS
10
5.89714
20
-4.006
11
5.89321
21
-4.00657
0
LINE
8
BLACK
6
CONTINUOUS
10
5.89321
20
-4.00657
11
5.85285
21
-4.00657
0
LINE
8
BLACK
6
CONTINUOUS
10
5.85285
20
-4.00657
11
5.84892
21
-4.006
0
LINE
8
BLACK
6
CONTINUOUS
10
5.84892
20
-4.006
11
5.84485
21
-4.00401
0
LINE
8
BLACK
6
CONTINUOUS
10
5.84485
20
-4.00401
11
5.84164
21
-4.0008
0
LINE
8
BLACK
6
CONTINUOUS
10
5.84164
20
-4.0008
11
5.83965
21
-3.99673
0
LINE
8
BLACK
6
CONTINUOUS
10
5.83965
20
-3.99673
11
5.83907
21
-3.9928
0
LINE
8
BLACK
6
CONTINUOUS
10
5.83907
20
-3.9928
11
5.83907
21
-3.98098
0
LINE
8
BLACK
6
CONTINUOUS
10
5.83907
20
-3.98098
11
5.83965
21
-3.97705
0
LINE
8
BLACK
6
CONTINUOUS
10
5.83965
20
-3.97705
11
5.84164
21
-3.97298
0
LINE
8
BLACK
6
CONTINUOUS
10
5.84164
20
-3.97298
11
5.84485
21
-3.96977
0
LINE
8
BLACK
6
CONTINUOUS
10
5.84485
20
-3.96977
11
5.84808
21
-3.96819
0
LINE
8
BLACK
6
CONTINUOUS
10
5.84808
20
-3.96819
11
5.84485
21
-3.96661
0
LINE
8
BLACK
6
CONTINUOUS
10
5.84485
20
-3.96661
11
5.84164
21
-3.9634
0
LINE
8
BLACK
6
CONTINUOUS
10
5.84164
20
-3.9634
11
5.83965
21
-3.95933
0
LINE
8
BLACK
6
CONTINUOUS
10
5.83965
20
-3.95933
11
5.83907
21
-3.95539
0
LINE
8
BLACK
6
CONTINUOUS
10
5.83907
20
-3.95539
11
5.83907
21
-3.94358
0
LINE
8
BLACK
6
CONTINUOUS
10
5.83907
20
-3.94358
11
5.83965
21
-3.93965
0
LINE
8
BLACK
6
CONTINUOUS
10
5.83965
20
-3.93965
11
5.84164
21
-3.93558
0
LINE
8
BLACK
6
CONTINUOUS
10
5.84164
20
-3.93558
11
5.84485
21
-3.93237
0
LINE
8
BLACK
6
CONTINUOUS
10
5.84485
20
-3.93237
11
5.84808
21
-3.93079
0
LINE
8
BLACK
6
CONTINUOUS
10
5.84808
20
-3.93079
11
5.84485
21
-3.92921
0
LINE
8
BLACK
6
CONTINUOUS
10
5.84485
20
-3.92921
11
5.84164
21
-3.926
0
LINE
8
BLACK
6
CONTINUOUS
10
5.84164
20
-3.926
11
5.83965
21
-3.92192
0
LINE
8
BLACK
6
CONTINUOUS
10
5.83965
20
-3.92192
11
5.83907
21
-3.91799
0
LINE
8
BLACK
6
CONTINUOUS
10
5.83907
20
-3.91799
11
5.83907
21
-3.90618
0
LINE
8
BLACK
6
CONTINUOUS
10
5.83907
20
-3.90618
11
5.83965
21
-3.90225
0
LINE
8
BLACK
6
CONTINUOUS
10
5.83965
20
-3.90225
11
5.84164
21
-3.89817
0
LINE
8
BLACK
6
CONTINUOUS
10
5.84164
20
-3.89817
11
5.84485
21
-3.89497
0
LINE
8
BLACK
6
CONTINUOUS
10
5.84485
20
-3.89497
11
5.84892
21
-3.89297
0
LINE
8
BLACK
6
CONTINUOUS
10
5.84892
20
-3.89297
11
5.85285
21
-3.8924
0
LINE
8
BLACK
6
CONTINUOUS
10
5.85285
20
-3.8924
11
5.89321
21
-3.8924
0
LINE
8
BLACK
6
CONTINUOUS
10
5.89321
20
-3.8924
11
5.89714
21
-3.89297
0
LINE
8
BLACK
6
CONTINUOUS
10
6.33569
20
-3.90611
11
6.33824
21
-3.90782
0
LINE
8
BLACK
6
CONTINUOUS
10
6.33824
20
-3.90782
11
6.33995
21
-3.91037
0
LINE
8
BLACK
6
CONTINUOUS
10
6.33995
20
-3.91037
11
6.34055
21
-3.91339
0
LINE
8
BLACK
6
CONTINUOUS
10
6.34055
20
-3.91339
11
6.34055
21
-3.98425
0
LINE
8
BLACK
6
CONTINUOUS
10
6.34055
20
-3.98425
11
6.33995
21
-3.98727
0
LINE
8
BLACK
6
CONTINUOUS
10
6.33995
20
-3.98727
11
6.33824
21
-3.98982
0
LINE
8
BLACK
6
CONTINUOUS
10
6.33824
20
-3.98982
11
6.33569
21
-3.99153
0
LINE
8
BLACK
6
CONTINUOUS
10
6.33569
20
-3.99153
11
6.33268
21
-3.99213
0
LINE
8
BLACK
6
CONTINUOUS
10
6.33268
20
-3.99213
11
6.23425
21
-3.99213
0
LINE
8
BLACK
6
CONTINUOUS
10
6.23425
20
-3.99213
11
6.23124
21
-3.99153
0
LINE
8
BLACK
6
CONTINUOUS
10
6.23124
20
-3.99153
11
6.22868
21
-3.98982
0
LINE
8
BLACK
6
CONTINUOUS
10
6.22868
20
-3.98982
11
6.22698
21
-3.98727
0
LINE
8
BLACK
6
CONTINUOUS
10
6.22698
20
-3.98727
11
6.22638
21
-3.98425
0
LINE
8
BLACK
6
CONTINUOUS
10
6.22638
20
-3.98425
11
6.22638
21
-3.91339
0
LINE
8
BLACK
6
CONTINUOUS
10
6.22638
20
-3.91339
11
6.22698
21
-3.91037
0
LINE
8
BLACK
6
CONTINUOUS
10
6.22698
20
-3.91037
11
6.22868
21
-3.90782
0
LINE
8
BLACK
6
CONTINUOUS
10
6.22868
20
-3.90782
11
6.23124
21
-3.90611
0
LINE
8
BLACK
6
CONTINUOUS
10
6.23124
20
-3.90611
11
6.23425
21
-3.90551
0
LINE
8
BLACK
6
CONTINUOUS
10
6.23425
20
-3.90551
11
6.33268
21
-3.90551
0
LINE
8
BLACK
6
CONTINUOUS
10
6.33268
20
-3.90551
11
6.33569
21
-3.90611
0
LINE
8
BLACK
6
CONTINUOUS
10
6.49317
20
-3.90611
11
6.49573
21
-3.90782
0
LINE
8
BLACK
6
CONTINUOUS
10
6.49573
20
-3.90782
11
6.49743
21
-3.91037
0
LINE
8
BLACK
6
CONTINUOUS
10
6.49743
20
-3.91037
11
6.49803
21
-3.91339
0
LINE
8
BLACK
6
CONTINUOUS
10
6.49803
20
-3.91339
11
6.49803
21
-3.98425
0
LINE
8
BLACK
6
CONTINUOUS
10
6.49803
20
-3.98425
11
6.49743
21
-3.98727
0
LINE
8
BLACK
6
CONTINUOUS
10
6.49743
20
-3.98727
11
6.49573
21
-3.98982
0
LINE
8
BLACK
6
CONTINUOUS
10
6.49573
20
-3.98982
11
6.49317
21
-3.99153
0
LINE
8
BLACK
6
CONTINUOUS
10
6.49317
20
-3.99153
11
6.49016
21
-3.99213
0
LINE
8
BLACK
6
CONTINUOUS
10
6.49016
20
-3.99213
11
6.39173
21
-3.99213
0
LINE
8
BLACK
6
CONTINUOUS
10
6.39173
20
-3.99213
11
6.38872
21
-3.99153
0
LINE
8
BLACK
6
CONTINUOUS
10
6.38872
20
-3.99153
11
6.38616
21
-3.98982
0
LINE
8
BLACK
6
CONTINUOUS
10
6.38616
20
-3.98982
11
6.38446
21
-3.98727
0
LINE
8
BLACK
6
CONTINUOUS
10
6.38446
20
-3.98727
11
6.38386
21
-3.98425
0
LINE
8
BLACK
6
CONTINUOUS
10
6.38386
20
-3.98425
11
6.38386
21
-3.91339
0
LINE
8
BLACK
6
CONTINUOUS
10
6.38386
20
-3.91339
11
6.38446
21
-3.91037
0
LINE
8
BLACK
6
CONTINUOUS
10
6.38446
20
-3.91037
11
6.38616
21
-3.90782
0
LINE
8
BLACK
6
CONTINUOUS
10
6.38616
20
-3.90782
11
6.38872
21
-3.90611
0
LINE
8
BLACK
6
CONTINUOUS
10
6.38872
20
-3.90611
11
6.39173
21
-3.90551
0
LINE
8
BLACK
6
CONTINUOUS
10
6.39173
20
-3.90551
11
6.49016
21
-3.90551
0
LINE
8
BLACK
6
CONTINUOUS
10
6.49016
20
-3.90551
11
6.49317
21
-3.90611
0
LINE
8
BLACK
6
CONTINUOUS
10
6.4931
20
-3.80641
11
6.49808
21
-3.80816
0
LINE
8
BLACK
6
CONTINUOUS
10
6.49808
20
-3.80816
11
6.50233
21
-3.81129
0
LINE
8
BLACK
6
CONTINUOUS
10
6.50233
20
-3.81129
11
6.50547
21
-3.81554
0
LINE
8
BLACK
6
CONTINUOUS
10
6.50547
20
-3.81554
11
6.50721
21
-3.82053
0
LINE
8
BLACK
6
CONTINUOUS
10
6.50721
20
-3.82053
11
6.50752
21
-3.82382
0
LINE
8
BLACK
6
CONTINUOUS
10
6.50752
20
-3.82382
11
6.50752
21
-3.8435
0
LINE
8
BLACK
6
CONTINUOUS
10
6.50752
20
-3.8435
11
6.50721
21
-3.8468
0
LINE
8
BLACK
6
CONTINUOUS
10
6.50721
20
-3.8468
11
6.50547
21
-3.85178
0
LINE
8
BLACK
6
CONTINUOUS
10
6.50547
20
-3.85178
11
6.50233
21
-3.85603
0
LINE
8
BLACK
6
CONTINUOUS
10
6.50233
20
-3.85603
11
6.49808
21
-3.85917
0
LINE
8
BLACK
6
CONTINUOUS
10
6.49808
20
-3.85917
11
6.4931
21
-3.86091
0
LINE
8
BLACK
6
CONTINUOUS
10
6.4931
20
-3.86091
11
6.4898
21
-3.86122
0
LINE
8
BLACK
6
CONTINUOUS
10
6.4898
20
-3.86122
11
6.40319
21
-3.86122
0
LINE
8
BLACK
6
CONTINUOUS
10
6.40319
20
-3.86122
11
6.3999
21
-3.86091
0
LINE
8
BLACK
6
CONTINUOUS
10
6.3999
20
-3.86091
11
6.39491
21
-3.85917
0
LINE
8
BLACK
6
CONTINUOUS
10
6.39491
20
-3.85917
11
6.39066
21
-3.85603
0
LINE
8
BLACK
6
CONTINUOUS
10
6.39066
20
-3.85603
11
6.38753
21
-3.85178
0
LINE
8
BLACK
6
CONTINUOUS
10
6.38753
20
-3.85178
11
6.38578
21
-3.8468
0
LINE
8
BLACK
6
CONTINUOUS
10
6.38578
20
-3.8468
11
6.38547
21
-3.8435
0
LINE
8
BLACK
6
CONTINUOUS
10
6.38547
20
-3.8435
11
6.38547
21
-3.82382
0
LINE
8
BLACK
6
CONTINUOUS
10
6.38547
20
-3.82382
11
6.38578
21
-3.82053
0
LINE
8
BLACK
6
CONTINUOUS
10
6.38578
20
-3.82053
11
6.38753
21
-3.81554
0
LINE
8
BLACK
6
CONTINUOUS
10
6.38753
20
-3.81554
11
6.39066
21
-3.81129
0
LINE
8
BLACK
6
CONTINUOUS
10
6.39066
20
-3.81129
11
6.39491
21
-3.80816
0
LINE
8
BLACK
6
CONTINUOUS
10
6.39491
20
-3.80816
11
6.3999
21
-3.80641
0
LINE
8
BLACK
6
CONTINUOUS
10
6.3999
20
-3.80641
11
6.40319
21
-3.8061
0
LINE
8
BLACK
6
CONTINUOUS
10
6.40319
20
-3.8061
11
6.4898
21
-3.8061
0
LINE
8
BLACK
6
CONTINUOUS
10
6.4898
20
-3.8061
11
6.4931
21
-3.80641
0
LINE
8
BLACK
6
CONTINUOUS
10
5.97958
20
-3.80495
11
5.98424
21
-3.80733
0
LINE
8
BLACK
6
CONTINUOUS
10
5.98424
20
-3.80733
11
5.98795
21
-3.81103
0
LINE
8
BLACK
6
CONTINUOUS
10
5.98795
20
-3.81103
11
5.99032
21
-3.8157
0
LINE
8
BLACK
6
CONTINUOUS
10
5.99032
20
-3.8157
11
5.99114
21
-3.82087
0
LINE
8
BLACK
6
CONTINUOUS
10
5.99114
20
-3.82087
11
5.99114
21
-3.83858
0
LINE
8
BLACK
6
CONTINUOUS
10
5.99114
20
-3.83858
11
5.99032
21
-3.84375
0
LINE
8
BLACK
6
CONTINUOUS
10
5.99032
20
-3.84375
11
5.98795
21
-3.84842
0
LINE
8
BLACK
6
CONTINUOUS
10
5.98795
20
-3.84842
11
5.98424
21
-3.85212
0
LINE
8
BLACK
6
CONTINUOUS
10
5.98424
20
-3.85212
11
5.97958
21
-3.8545
0
LINE
8
BLACK
6
CONTINUOUS
10
5.97958
20
-3.8545
11
5.97441
21
-3.85531
0
LINE
8
BLACK
6
CONTINUOUS
10
5.97441
20
-3.85531
11
5.95472
21
-3.85531
0
LINE
8
BLACK
6
CONTINUOUS
10
5.95472
20
-3.85531
11
5.94955
21
-3.8545
0
LINE
8
BLACK
6
CONTINUOUS
10
5.94955
20
-3.8545
11
5.94489
21
-3.85212
0
LINE
8
BLACK
6
CONTINUOUS
10
5.94489
20
-3.85212
11
5.94119
21
-3.84842
0
LINE
8
BLACK
6
CONTINUOUS
10
5.94119
20
-3.84842
11
5.93881
21
-3.84375
0
LINE
8
BLACK
6
CONTINUOUS
10
5.93881
20
-3.84375
11
5.93799
21
-3.83858
0
LINE
8
BLACK
6
CONTINUOUS
10
5.93799
20
-3.83858
11
5.93799
21
-3.82087
0
LINE
8
BLACK
6
CONTINUOUS
10
5.93799
20
-3.82087
11
5.93881
21
-3.8157
0
LINE
8
BLACK
6
CONTINUOUS
10
5.93881
20
-3.8157
11
5.94119
21
-3.81103
0
LINE
8
BLACK
6
CONTINUOUS
10
5.94119
20
-3.81103
11
5.94489
21
-3.80733
0
LINE
8
BLACK
6
CONTINUOUS
10
5.94489
20
-3.80733
11
5.94955
21
-3.80495
0
LINE
8
BLACK
6
CONTINUOUS
10
5.94955
20
-3.80495
11
5.95472
21
-3.80413
0
LINE
8
BLACK
6
CONTINUOUS
10
5.95472
20
-3.80413
11
5.97441
21
-3.80413
0
LINE
8
BLACK
6
CONTINUOUS
10
5.97441
20
-3.80413
11
5.97958
21
-3.80495
0
LINE
8
BLACK
6
CONTINUOUS
10
6.16924
20
-3.80786
11
6.17363
21
-3.81009
0
LINE
8
BLACK
6
CONTINUOUS
10
6.17363
20
-3.81009
11
6.17711
21
-3.81358
0
LINE
8
BLACK
6
CONTINUOUS
10
6.17711
20
-3.81358
11
6.17935
21
-3.81797
0
LINE
8
BLACK
6
CONTINUOUS
10
6.17935
20
-3.81797
11
6.18012
21
-3.82283
0
LINE
8
BLACK
6
CONTINUOUS
10
6.18012
20
-3.82283
11
6.18012
21
-3.83858
0
LINE
8
BLACK
6
CONTINUOUS
10
6.18012
20
-3.83858
11
6.17935
21
-3.84345
0
LINE
8
BLACK
6
CONTINUOUS
10
6.17935
20
-3.84345
11
6.17711
21
-3.84784
0
LINE
8
BLACK
6
CONTINUOUS
10
6.17711
20
-3.84784
11
6.17363
21
-3.85132
0
LINE
8
BLACK
6
CONTINUOUS
10
6.17363
20
-3.85132
11
6.16924
21
-3.85356
0
LINE
8
BLACK
6
CONTINUOUS
10
6.16924
20
-3.85356
11
6.16437
21
-3.85433
0
LINE
8
BLACK
6
CONTINUOUS
10
6.16437
20
-3.85433
11
6.14272
21
-3.85433
0
LINE
8
BLACK
6
CONTINUOUS
10
6.14272
20
-3.85433
11
6.13785
21
-3.85356
0
LINE
8
BLACK
6
CONTINUOUS
10
6.13785
20
-3.85356
11
6.13346
21
-3.85132
0
LINE
8
BLACK
6
CONTINUOUS
10
6.13346
20
-3.85132
11
6.12998
21
-3.84784
0
LINE
8
BLACK
6
CONTINUOUS
10
6.12998
20
-3.84784
11
6.12774
21
-3.84345
0
LINE
8
BLACK
6
CONTINUOUS
10
6.12774
20
-3.84345
11
6.12697
21
-3.83858
0
LINE
8
BLACK
6
CONTINUOUS
10
6.12697
20
-3.83858
11
6.12697
21
-3.82283
0
LINE
8
BLACK
6
CONTINUOUS
10
6.12697
20
-3.82283
11
6.12774
21
-3.81797
0
LINE
8
BLACK
6
CONTINUOUS
10
6.12774
20
-3.81797
11
6.12998
21
-3.81358
0
LINE
8
BLACK
6
CONTINUOUS
10
6.12998
20
-3.81358
11
6.13346
21
-3.81009
0
LINE
8
BLACK
6
CONTINUOUS
10
6.13346
20
-3.81009
11
6.13785
21
-3.80786
0
LINE
8
BLACK
6
CONTINUOUS
10
6.13785
20
-3.80786
11
6.14272
21
-3.80709
0
LINE
8
BLACK
6
CONTINUOUS
10
6.14272
20
-3.80709
11
6.16437
21
-3.80709
0
LINE
8
BLACK
6
CONTINUOUS
10
6.16437
20
-3.80709
11
6.16924
21
-3.80786
0
LINE
8
BLACK
6
CONTINUOUS
10
6.05438
20
-3.78232
11
6.05905
21
-3.78469
0
LINE
8
BLACK
6
CONTINUOUS
10
6.05905
20
-3.78469
11
6.06275
21
-3.78839
0
LINE
8
BLACK
6
CONTINUOUS
10
6.06275
20
-3.78839
11
6.06513
21
-3.79306
0
LINE
8
BLACK
6
CONTINUOUS
10
6.06513
20
-3.79306
11
6.06594
21
-3.79823
0
LINE
8
BLACK
6
CONTINUOUS
10
6.06594
20
-3.79823
11
6.06594
21
-3.81594
0
LINE
8
BLACK
6
CONTINUOUS
10
6.06594
20
-3.81594
11
6.06513
21
-3.82112
0
LINE
8
BLACK
6
CONTINUOUS
10
6.06513
20
-3.82112
11
6.06275
21
-3.82578
0
LINE
8
BLACK
6
CONTINUOUS
10
6.06275
20
-3.82578
11
6.05905
21
-3.82948
0
LINE
8
BLACK
6
CONTINUOUS
10
6.05905
20
-3.82948
11
6.05438
21
-3.83186
0
LINE
8
BLACK
6
CONTINUOUS
10
6.05438
20
-3.83186
11
6.04921
21
-3.83268
0
LINE
8
BLACK
6
CONTINUOUS
10
6.04921
20
-3.83268
11
6.02953
21
-3.83268
0
LINE
8
BLACK
6
CONTINUOUS
10
6.02953
20
-3.83268
11
6.02436
21
-3.83186
0
LINE
8
BLACK
6
CONTINUOUS
10
6.02436
20
-3.83186
11
6.01969
21
-3.82948
0
LINE
8
BLACK
6
CONTINUOUS
10
6.01969
20
-3.82948
11
6.01599
21
-3.82578
0
LINE
8
BLACK
6
CONTINUOUS
10
6.01599
20
-3.82578
11
6.01361
21
-3.82112
0
LINE
8
BLACK
6
CONTINUOUS
10
6.01361
20
-3.82112
11
6.0128
21
-3.81594
0
LINE
8
BLACK
6
CONTINUOUS
10
6.0128
20
-3.81594
11
6.0128
21
-3.79823
0
LINE
8
BLACK
6
CONTINUOUS
10
6.0128
20
-3.79823
11
6.01361
21
-3.79306
0
LINE
8
BLACK
6
CONTINUOUS
10
6.01361
20
-3.79306
11
6.01599
21
-3.78839
0
LINE
8
BLACK
6
CONTINUOUS
10
6.01599
20
-3.78839
11
6.01969
21
-3.78469
0
LINE
8
BLACK
6
CONTINUOUS
10
6.01969
20
-3.78469
11
6.02436
21
-3.78232
0
LINE
8
BLACK
6
CONTINUOUS
10
6.02436
20
-3.78232
11
6.02953
21
-3.7815
0
LINE
8
BLACK
6
CONTINUOUS
10
6.02953
20
-3.7815
11
6.04921
21
-3.7815
0
LINE
8
BLACK
6
CONTINUOUS
10
6.04921
20
-3.7815
11
6.05438
21
-3.78232
0
LINE
8
BLACK
6
CONTINUOUS
10
5.48263
20
-3.75265
11
5.48884
21
-3.75501
0
LINE
8
BLACK
6
CONTINUOUS
10
5.48884
20
-3.75501
11
5.49431
21
-3.75878
0
LINE
8
BLACK
6
CONTINUOUS
10
5.49431
20
-3.75878
11
5.49871
21
-3.76375
0
LINE
8
BLACK
6
CONTINUOUS
10
5.49871
20
-3.76375
11
5.5018
21
-3.76964
0
LINE
8
BLACK
6
CONTINUOUS
10
5.5018
20
-3.76964
11
5.50339
21
-3.77609
0
LINE
8
BLACK
6
CONTINUOUS
10
5.50339
20
-3.77609
11
5.50339
21
-3.78273
0
LINE
8
BLACK
6
CONTINUOUS
10
5.50339
20
-3.78273
11
5.5018
21
-3.78918
0
LINE
8
BLACK
6
CONTINUOUS
10
5.5018
20
-3.78918
11
5.49871
21
-3.79506
0
LINE
8
BLACK
6
CONTINUOUS
10
5.49871
20
-3.79506
11
5.49431
21
-3.80004
0
LINE
8
BLACK
6
CONTINUOUS
10
5.49431
20
-3.80004
11
5.48884
21
-3.80381
0
LINE
8
BLACK
6
CONTINUOUS
10
5.48884
20
-3.80381
11
5.48263
21
-3.80617
0
LINE
8
BLACK
6
CONTINUOUS
10
5.48263
20
-3.80617
11
5.47603
21
-3.80697
0
LINE
8
BLACK
6
CONTINUOUS
10
5.47603
20
-3.80697
11
5.43666
21
-3.80697
0
LINE
8
BLACK
6
CONTINUOUS
10
5.43666
20
-3.80697
11
5.43007
21
-3.80617
0
LINE
8
BLACK
6
CONTINUOUS
10
5.43007
20
-3.80617
11
5.42385
21
-3.80381
0
LINE
8
BLACK
6
CONTINUOUS
10
5.42385
20
-3.80381
11
5.41839
21
-3.80004
0
LINE
8
BLACK
6
CONTINUOUS
10
5.41839
20
-3.80004
11
5.41398
21
-3.79506
0
LINE
8
BLACK
6
CONTINUOUS
10
5.41398
20
-3.79506
11
5.41089
21
-3.78918
0
LINE
8
BLACK
6
CONTINUOUS
10
5.41089
20
-3.78918
11
5.4093
21
-3.78273
0
LINE
8
BLACK
6
CONTINUOUS
10
5.4093
20
-3.78273
11
5.4093
21
-3.77609
0
LINE
8
BLACK
6
CONTINUOUS
10
5.4093
20
-3.77609
11
5.41089
21
-3.76964
0
LINE
8
BLACK
6
CONTINUOUS
10
5.41089
20
-3.76964
11
5.41398
21
-3.76375
0
LINE
8
BLACK
6
CONTINUOUS
10
5.41398
20
-3.76375
11
5.41839
21
-3.75878
0
LINE
8
BLACK
6
CONTINUOUS
10
5.41839
20
-3.75878
11
5.42385
21
-3.75501
0
LINE
8
BLACK
6
CONTINUOUS
10
5.42385
20
-3.75501
11
5.43007
21
-3.75265
0
LINE
8
BLACK
6
CONTINUOUS
10
5.43007
20
-3.75265
11
5.43666
21
-3.75185
0
LINE
8
BLACK
6
CONTINUOUS
10
5.43666
20
-3.75185
11
5.47603
21
-3.75185
0
LINE
8
BLACK
6
CONTINUOUS
10
5.47603
20
-3.75185
11
5.48263
21
-3.75265
0
LINE
8
BLACK
6
CONTINUOUS
10
5.97958
20
-3.74393
11
5.98424
21
-3.74631
0
LINE
8
BLACK
6
CONTINUOUS
10
5.98424
20
-3.74631
11
5.98795
21
-3.75001
0
LINE
8
BLACK
6
CONTINUOUS
10
5.98795
20
-3.75001
11
5.99032
21
-3.75467
0
LINE
8
BLACK
6
CONTINUOUS
10
5.99032
20
-3.75467
11
5.99114
21
-3.75984
0
LINE
8
BLACK
6
CONTINUOUS
10
5.99114
20
-3.75984
11
5.99114
21
-3.77756
0
LINE
8
BLACK
6
CONTINUOUS
10
5.99114
20
-3.77756
11
5.99032
21
-3.78273
0
LINE
8
BLACK
6
CONTINUOUS
10
5.99032
20
-3.78273
11
5.98795
21
-3.78739
0
LINE
8
BLACK
6
CONTINUOUS
10
5.98795
20
-3.78739
11
5.98424
21
-3.7911
0
LINE
8
BLACK
6
CONTINUOUS
10
5.98424
20
-3.7911
11
5.97958
21
-3.79347
0
LINE
8
BLACK
6
CONTINUOUS
10
5.97958
20
-3.79347
11
5.97441
21
-3.79429
0
LINE
8
BLACK
6
CONTINUOUS
10
5.97441
20
-3.79429
11
5.95472
21
-3.79429
0
LINE
8
BLACK
6
CONTINUOUS
10
5.95472
20
-3.79429
11
5.94955
21
-3.79347
0
LINE
8
BLACK
6
CONTINUOUS
10
5.94955
20
-3.79347
11
5.94489
21
-3.7911
0
LINE
8
BLACK
6
CONTINUOUS
10
5.94489
20
-3.7911
11
5.94119
21
-3.78739
0
LINE
8
BLACK
6
CONTINUOUS
10
5.94119
20
-3.78739
11
5.93881
21
-3.78273
0
LINE
8
BLACK
6
CONTINUOUS
10
5.93881
20
-3.78273
11
5.93799
21
-3.77756
0
LINE
8
BLACK
6
CONTINUOUS
10
5.93799
20
-3.77756
11
5.93799
21
-3.75984
0
LINE
8
BLACK
6
CONTINUOUS
10
5.93799
20
-3.75984
11
5.93881
21
-3.75467
0
LINE
8
BLACK
6
CONTINUOUS
10
5.93881
20
-3.75467
11
5.94119
21
-3.75001
0
LINE
8
BLACK
6
CONTINUOUS
10
5.94119
20
-3.75001
11
5.94489
21
-3.74631
0
LINE
8
BLACK
6
CONTINUOUS
10
5.94489
20
-3.74631
11
5.94955
21
-3.74393
0
LINE
8
BLACK
6
CONTINUOUS
10
5.94955
20
-3.74393
11
5.95472
21
-3.74311
0
LINE
8
BLACK
6
CONTINUOUS
10
5.95472
20
-3.74311
11
5.97441
21
-3.74311
0
LINE
8
BLACK
6
CONTINUOUS
10
5.97441
20
-3.74311
11
5.97958
21
-3.74393
0
LINE
8
BLACK
6
CONTINUOUS
10
6.16924
20
-3.7429
11
6.17363
21
-3.74513
0
LINE
8
BLACK
6
CONTINUOUS
10
6.17363
20
-3.74513
11
6.17711
21
-3.74862
0
LINE
8
BLACK
6
CONTINUOUS
10
6.17711
20
-3.74862
11
6.17935
21
-3.75301
0
LINE
8
BLACK
6
CONTINUOUS
10
6.17935
20
-3.75301
11
6.18012
21
-3.75787
0
LINE
8
BLACK
6
CONTINUOUS
10
6.18012
20
-3.75787
11
6.18012
21
-3.77362
0
LINE
8
BLACK
6
CONTINUOUS
10
6.18012
20
-3.77362
11
6.17935
21
-3.77849
0
LINE
8
BLACK
6
CONTINUOUS
10
6.17935
20
-3.77849
11
6.17711
21
-3.78288
0
LINE
8
BLACK
6
CONTINUOUS
10
6.17711
20
-3.78288
11
6.17363
21
-3.78636
0
LINE
8
BLACK
6
CONTINUOUS
10
6.17363
20
-3.78636
11
6.16924
21
-3.7886
0
LINE
8
BLACK
6
CONTINUOUS
10
6.16924
20
-3.7886
11
6.16437
21
-3.78937
0
LINE
8
BLACK
6
CONTINUOUS
10
6.16437
20
-3.78937
11
6.14272
21
-3.78937
0
LINE
8
BLACK
6
CONTINUOUS
10
6.14272
20
-3.78937
11
6.13785
21
-3.7886
0
LINE
8
BLACK
6
CONTINUOUS
10
6.13785
20
-3.7886
11
6.13346
21
-3.78636
0
LINE
8
BLACK
6
CONTINUOUS
10
6.13346
20
-3.78636
11
6.12998
21
-3.78288
0
LINE
8
BLACK
6
CONTINUOUS
10
6.12998
20
-3.78288
11
6.12774
21
-3.77849
0
LINE
8
BLACK
6
CONTINUOUS
10
6.12774
20
-3.77849
11
6.12697
21
-3.77362
0
LINE
8
BLACK
6
CONTINUOUS
10
6.12697
20
-3.77362
11
6.12697
21
-3.75787
0
LINE
8
BLACK
6
CONTINUOUS
10
6.12697
20
-3.75787
11
6.12774
21
-3.75301
0
LINE
8
BLACK
6
CONTINUOUS
10
6.12774
20
-3.75301
11
6.12998
21
-3.74862
0
LINE
8
BLACK
6
CONTINUOUS
10
6.12998
20
-3.74862
11
6.13346
21
-3.74513
0
LINE
8
BLACK
6
CONTINUOUS
10
6.13346
20
-3.74513
11
6.13785
21
-3.7429
0
LINE
8
BLACK
6
CONTINUOUS
10
6.13785
20
-3.7429
11
6.14272
21
-3.74213
0
LINE
8
BLACK
6
CONTINUOUS
10
6.14272
20
-3.74213
11
6.16437
21
-3.74213
0
LINE
8
BLACK
6
CONTINUOUS
10
6.16437
20
-3.74213
11
6.16924
21
-3.7429
0
LINE
8
BLACK
6
CONTINUOUS
10
6.352
20
-3.74171
11
6.35608
21
-3.74371
0
LINE
8
BLACK
6
CONTINUOUS
10
6.35608
20
-3.74371
11
6.35929
21
-3.74691
0
LINE
8
BLACK
6
CONTINUOUS
10
6.35929
20
-3.74691
11
6.36128
21
-3.75099
0
LINE
8
BLACK
6
CONTINUOUS
10
6.36128
20
-3.75099
11
6.36185
21
-3.75492
0
LINE
8
BLACK
6
CONTINUOUS
10
6.36185
20
-3.75492
11
6.36185
21
-3.76673
0
LINE
8
BLACK
6
CONTINUOUS
10
6.36185
20
-3.76673
11
6.36128
21
-3.77066
0
LINE
8
BLACK
6
CONTINUOUS
10
6.36128
20
-3.77066
11
6.35929
21
-3.77474
0
LINE
8
BLACK
6
CONTINUOUS
10
6.35929
20
-3.77474
11
6.35608
21
-3.77795
0
LINE
8
BLACK
6
CONTINUOUS
10
6.35608
20
-3.77795
11
6.352
21
-3.77994
0
LINE
8
BLACK
6
CONTINUOUS
10
6.352
20
-3.77994
11
6.34807
21
-3.78051
0
LINE
8
BLACK
6
CONTINUOUS
10
6.34807
20
-3.78051
11
6.29295
21
-3.78051
0
LINE
8
BLACK
6
CONTINUOUS
10
6.29295
20
-3.78051
11
6.28902
21
-3.77994
0
LINE
8
BLACK
6
CONTINUOUS
10
6.28902
20
-3.77994
11
6.28495
21
-3.77795
0
LINE
8
BLACK
6
CONTINUOUS
10
6.28495
20
-3.77795
11
6.28174
21
-3.77474
0
LINE
8
BLACK
6
CONTINUOUS
10
6.28174
20
-3.77474
11
6.27975
21
-3.77066
0
LINE
8
BLACK
6
CONTINUOUS
10
6.27975
20
-3.77066
11
6.27917
21
-3.76673
0
LINE
8
BLACK
6
CONTINUOUS
10
6.27917
20
-3.76673
11
6.27917
21
-3.75492
0
LINE
8
BLACK
6
CONTINUOUS
10
6.27917
20
-3.75492
11
6.27975
21
-3.75099
0
LINE
8
BLACK
6
CONTINUOUS
10
6.27975
20
-3.75099
11
6.28174
21
-3.74691
0
LINE
8
BLACK
6
CONTINUOUS
10
6.28174
20
-3.74691
11
6.28495
21
-3.74371
0
LINE
8
BLACK
6
CONTINUOUS
10
6.28495
20
-3.74371
11
6.28902
21
-3.74171
0
LINE
8
BLACK
6
CONTINUOUS
10
6.28902
20
-3.74171
11
6.29295
21
-3.74114
0
LINE
8
BLACK
6
CONTINUOUS
10
6.29295
20
-3.74114
11
6.34807
21
-3.74114
0
LINE
8
BLACK
6
CONTINUOUS
10
6.34807
20
-3.74114
11
6.352
21
-3.74171
0
LINE
8
BLACK
6
CONTINUOUS
10
6.05438
20
-3.72129
11
6.05905
21
-3.72367
0
LINE
8
BLACK
6
CONTINUOUS
10
6.05905
20
-3.72367
11
6.06275
21
-3.72737
0
LINE
8
BLACK
6
CONTINUOUS
10
6.06275
20
-3.72737
11
6.06513
21
-3.73203
0
LINE
8
BLACK
6
CONTINUOUS
10
6.06513
20
-3.73203
11
6.06594
21
-3.7372
0
LINE
8
BLACK
6
CONTINUOUS
10
6.06594
20
-3.7372
11
6.06594
21
-3.75492
0
LINE
8
BLACK
6
CONTINUOUS
10
6.06594
20
-3.75492
11
6.06513
21
-3.76009
0
LINE
8
BLACK
6
CONTINUOUS
10
6.06513
20
-3.76009
11
6.06275
21
-3.76476
0
LINE
8
BLACK
6
CONTINUOUS
10
6.06275
20
-3.76476
11
6.05905
21
-3.76846
0
LINE
8
BLACK
6
CONTINUOUS
10
6.05905
20
-3.76846
11
6.05438
21
-3.77083
0
LINE
8
BLACK
6
CONTINUOUS
10
6.05438
20
-3.77083
11
6.04921
21
-3.77165
0
LINE
8
BLACK
6
CONTINUOUS
10
6.04921
20
-3.77165
11
6.02953
21
-3.77165
0
LINE
8
BLACK
6
CONTINUOUS
10
6.02953
20
-3.77165
11
6.02436
21
-3.77083
0
LINE
8
BLACK
6
CONTINUOUS
10
6.02436
20
-3.77083
11
6.01969
21
-3.76846
0
LINE
8
BLACK
6
CONTINUOUS
10
6.01969
20
-3.76846
11
6.01599
21
-3.76476
0
LINE
8
BLACK
6
CONTINUOUS
10
6.01599
20
-3.76476
11
6.01361
21
-3.76009
0
LINE
8
BLACK
6
CONTINUOUS
10
6.01361
20
-3.76009
11
6.0128
21
-3.75492
0
LINE
8
BLACK
6
CONTINUOUS
10
6.0128
20
-3.75492
11
6.0128
21
-3.7372
0
LINE
8
BLACK
6
CONTINUOUS
10
6.0128
20
-3.7372
11
6.01361
21
-3.73203
0
LINE
8
BLACK
6
CONTINUOUS
10
6.01361
20
-3.73203
11
6.01599
21
-3.72737
0
LINE
8
BLACK
6
CONTINUOUS
10
6.01599
20
-3.72737
11
6.01969
21
-3.72367
0
LINE
8
BLACK
6
CONTINUOUS
10
6.01969
20
-3.72367
11
6.02436
21
-3.72129
0
LINE
8
BLACK
6
CONTINUOUS
10
6.02436
20
-3.72129
11
6.02953
21
-3.72047
0
LINE
8
BLACK
6
CONTINUOUS
10
6.02953
20
-3.72047
11
6.04921
21
-3.72047
0
LINE
8
BLACK
6
CONTINUOUS
10
6.04921
20
-3.72047
11
6.05438
21
-3.72129
0
LINE
8
BLACK
6
CONTINUOUS
10
6.352
20
-3.6925
11
6.35608
21
-3.69449
0
LINE
8
BLACK
6
CONTINUOUS
10
6.35608
20
-3.69449
11
6.35929
21
-3.6977
0
LINE
8
BLACK
6
CONTINUOUS
10
6.35929
20
-3.6977
11
6.36128
21
-3.70178
0
LINE
8
BLACK
6
CONTINUOUS
10
6.36128
20
-3.70178
11
6.36185
21
-3.70571
0
LINE
8
BLACK
6
CONTINUOUS
10
6.36185
20
-3.70571
11
6.36185
21
-3.71752
0
LINE
8
BLACK
6
CONTINUOUS
10
6.36185
20
-3.71752
11
6.36128
21
-3.72145
0
LINE
8
BLACK
6
CONTINUOUS
10
6.36128
20
-3.72145
11
6.35929
21
-3.72553
0
LINE
8
BLACK
6
CONTINUOUS
10
6.35929
20
-3.72553
11
6.35608
21
-3.72873
0
LINE
8
BLACK
6
CONTINUOUS
10
6.35608
20
-3.72873
11
6.352
21
-3.73073
0
LINE
8
BLACK
6
CONTINUOUS
10
6.352
20
-3.73073
11
6.34807
21
-3.7313
0
LINE
8
BLACK
6
CONTINUOUS
10
6.34807
20
-3.7313
11
6.29295
21
-3.7313
0
LINE
8
BLACK
6
CONTINUOUS
10
6.29295
20
-3.7313
11
6.28902
21
-3.73073
0
LINE
8
BLACK
6
CONTINUOUS
10
6.28902
20
-3.73073
11
6.28495
21
-3.72873
0
LINE
8
BLACK
6
CONTINUOUS
10
6.28495
20
-3.72873
11
6.28174
21
-3.72553
0
LINE
8
BLACK
6
CONTINUOUS
10
6.28174
20
-3.72553
11
6.27975
21
-3.72145
0
LINE
8
BLACK
6
CONTINUOUS
10
6.27975
20
-3.72145
11
6.27917
21
-3.71752
0
LINE
8
BLACK
6
CONTINUOUS
10
6.27917
20
-3.71752
11
6.27917
21
-3.70571
0
LINE
8
BLACK
6
CONTINUOUS
10
6.27917
20
-3.70571
11
6.27975
21
-3.70178
0
LINE
8
BLACK
6
CONTINUOUS
10
6.27975
20
-3.70178
11
6.28174
21
-3.6977
0
LINE
8
BLACK
6
CONTINUOUS
10
6.28174
20
-3.6977
11
6.28495
21
-3.69449
0
LINE
8
BLACK
6
CONTINUOUS
10
6.28495
20
-3.69449
11
6.28902
21
-3.6925
0
LINE
8
BLACK
6
CONTINUOUS
10
6.28902
20
-3.6925
11
6.29295
21
-3.69193
0
LINE
8
BLACK
6
CONTINUOUS
10
6.29295
20
-3.69193
11
6.34807
21
-3.69193
0
LINE
8
BLACK
6
CONTINUOUS
10
6.34807
20
-3.69193
11
6.352
21
-3.6925
0
LINE
8
BLACK
6
CONTINUOUS
10
5.94861
20
-3.66711
11
5.953
21
-3.66935
0
LINE
8
BLACK
6
CONTINUOUS
10
5.953
20
-3.66935
11
5.95648
21
-3.67283
0
LINE
8
BLACK
6
CONTINUOUS
10
5.95648
20
-3.67283
11
5.95872
21
-3.67722
0
LINE
8
BLACK
6
CONTINUOUS
10
5.95872
20
-3.67722
11
5.95949
21
-3.68209
0
LINE
8
BLACK
6
CONTINUOUS
10
5.95949
20
-3.68209
11
5.95949
21
-3.70374
0
LINE
8
BLACK
6
CONTINUOUS
10
5.95949
20
-3.70374
11
5.95872
21
-3.70861
0
LINE
8
BLACK
6
CONTINUOUS
10
5.95872
20
-3.70861
11
5.95648
21
-3.713
0
LINE
8
BLACK
6
CONTINUOUS
10
5.95648
20
-3.713
11
5.953
21
-3.71648
0
LINE
8
BLACK
6
CONTINUOUS
10
5.953
20
-3.71648
11
5.94861
21
-3.71872
0
LINE
8
BLACK
6
CONTINUOUS
10
5.94861
20
-3.71872
11
5.94374
21
-3.71949
0
LINE
8
BLACK
6
CONTINUOUS
10
5.94374
20
-3.71949
11
5.92799
21
-3.71949
0
LINE
8
BLACK
6
CONTINUOUS
10
5.92799
20
-3.71949
11
5.92313
21
-3.71872
0
LINE
8
BLACK
6
CONTINUOUS
10
5.92313
20
-3.71872
11
5.91874
21
-3.71648
0
LINE
8
BLACK
6
CONTINUOUS
10
5.91874
20
-3.71648
11
5.91525
21
-3.713
0
LINE
8
BLACK
6
CONTINUOUS
10
5.91525
20
-3.713
11
5.91301
21
-3.70861
0
LINE
8
BLACK
6
CONTINUOUS
10
5.91301
20
-3.70861
11
5.91224
21
-3.70374
0
LINE
8
BLACK
6
CONTINUOUS
10
5.91224
20
-3.70374
11
5.91224
21
-3.68209
0
LINE
8
BLACK
6
CONTINUOUS
10
5.91224
20
-3.68209
11
5.91301
21
-3.67722
0
LINE
8
BLACK
6
CONTINUOUS
10
5.91301
20
-3.67722
11
5.91525
21
-3.67283
0
LINE
8
BLACK
6
CONTINUOUS
10
5.91525
20
-3.67283
11
5.91874
21
-3.66935
0
LINE
8
BLACK
6
CONTINUOUS
10
5.91874
20
-3.66935
11
5.92313
21
-3.66711
0
LINE
8
BLACK
6
CONTINUOUS
10
5.92313
20
-3.66711
11
5.92799
21
-3.66634
0
LINE
8
BLACK
6
CONTINUOUS
10
5.92799
20
-3.66634
11
5.94374
21
-3.66634
0
LINE
8
BLACK
6
CONTINUOUS
10
5.94374
20
-3.66634
11
5.94861
21
-3.66711
0
LINE
8
BLACK
6
CONTINUOUS
10
6.01357
20
-3.66711
11
6.01796
21
-3.66935
0
LINE
8
BLACK
6
CONTINUOUS
10
6.01796
20
-3.66935
11
6.02144
21
-3.67283
0
LINE
8
BLACK
6
CONTINUOUS
10
6.02144
20
-3.67283
11
6.02368
21
-3.67722
0
LINE
8
BLACK
6
CONTINUOUS
10
6.02368
20
-3.67722
11
6.02445
21
-3.68209
0
LINE
8
BLACK
6
CONTINUOUS
10
6.02445
20
-3.68209
11
6.02445
21
-3.70374
0
LINE
8
BLACK
6
CONTINUOUS
10
6.02445
20
-3.70374
11
6.02368
21
-3.70861
0
LINE
8
BLACK
6
CONTINUOUS
10
6.02368
20
-3.70861
11
6.02144
21
-3.713
0
LINE
8
BLACK
6
CONTINUOUS
10
6.02144
20
-3.713
11
6.01796
21
-3.71648
0
LINE
8
BLACK
6
CONTINUOUS
10
6.01796
20
-3.71648
11
6.01357
21
-3.71872
0
LINE
8
BLACK
6
CONTINUOUS
10
6.01357
20
-3.71872
11
6.0087
21
-3.71949
0
LINE
8
BLACK
6
CONTINUOUS
10
6.0087
20
-3.71949
11
5.99295
21
-3.71949
0
LINE
8
BLACK
6
CONTINUOUS
10
5.99295
20
-3.71949
11
5.98809
21
-3.71872
0
LINE
8
BLACK
6
CONTINUOUS
10
5.98809
20
-3.71872
11
5.9837
21
-3.71648
0
LINE
8
BLACK
6
CONTINUOUS
10
5.9837
20
-3.71648
11
5.98021
21
-3.713
0
LINE
8
BLACK
6
CONTINUOUS
10
5.98021
20
-3.713
11
5.97798
21
-3.70861
0
LINE
8
BLACK
6
CONTINUOUS
10
5.97798
20
-3.70861
11
5.9772
21
-3.70374
0
LINE
8
BLACK
6
CONTINUOUS
10
5.9772
20
-3.70374
11
5.9772
21
-3.68209
0
LINE
8
BLACK
6
CONTINUOUS
10
5.9772
20
-3.68209
11
5.97798
21
-3.67722
0
LINE
8
BLACK
6
CONTINUOUS
10
5.97798
20
-3.67722
11
5.98021
21
-3.67283
0
LINE
8
BLACK
6
CONTINUOUS
10
5.98021
20
-3.67283
11
5.9837
21
-3.66935
0
LINE
8
BLACK
6
CONTINUOUS
10
5.9837
20
-3.66935
11
5.98809
21
-3.66711
0
LINE
8
BLACK
6
CONTINUOUS
10
5.98809
20
-3.66711
11
5.99295
21
-3.66634
0
LINE
8
BLACK
6
CONTINUOUS
10
5.99295
20
-3.66634
11
6.0087
21
-3.66634
0
LINE
8
BLACK
6
CONTINUOUS
10
6.0087
20
-3.66634
11
6.01357
21
-3.66711
0
LINE
8
BLACK
6
CONTINUOUS
10
5.71404
20
-3.64719
11
5.71843
21
-3.64942
0
LINE
8
BLACK
6
CONTINUOUS
10
5.71843
20
-3.64942
11
5.72191
21
-3.65291
0
LINE
8
BLACK
6
CONTINUOUS
10
5.72191
20
-3.65291
11
5.72415
21
-3.6573
0
LINE
8
BLACK
6
CONTINUOUS
10
5.72415
20
-3.6573
11
5.72492
21
-3.66217
0
LINE
8
BLACK
6
CONTINUOUS
10
5.72492
20
-3.66217
11
5.72492
21
-3.67791
0
LINE
8
BLACK
6
CONTINUOUS
10
5.72492
20
-3.67791
11
5.72415
21
-3.68278
0
LINE
8
BLACK
6
CONTINUOUS
10
5.72415
20
-3.68278
11
5.72191
21
-3.68717
0
LINE
8
BLACK
6
CONTINUOUS
10
5.72191
20
-3.68717
11
5.71843
21
-3.69065
0
LINE
8
BLACK
6
CONTINUOUS
10
5.71843
20
-3.69065
11
5.71404
21
-3.69289
0
LINE
8
BLACK
6
CONTINUOUS
10
5.71404
20
-3.69289
11
5.70917
21
-3.69366
0
LINE
8
BLACK
6
CONTINUOUS
10
5.70917
20
-3.69366
11
5.68752
21
-3.69366
0
LINE
8
BLACK
6
CONTINUOUS
10
5.68752
20
-3.69366
11
5.68265
21
-3.69289
0
LINE
8
BLACK
6
CONTINUOUS
10
5.68265
20
-3.69289
11
5.67826
21
-3.69065
0
LINE
8
BLACK
6
CONTINUOUS
10
5.67826
20
-3.69065
11
5.67478
21
-3.68717
0
LINE
8
BLACK
6
CONTINUOUS
10
5.67478
20
-3.68717
11
5.67254
21
-3.68278
0
LINE
8
BLACK
6
CONTINUOUS
10
5.67254
20
-3.68278
11
5.67177
21
-3.67791
0
LINE
8
BLACK
6
CONTINUOUS
10
5.67177
20
-3.67791
11
5.67177
21
-3.66217
0
LINE
8
BLACK
6
CONTINUOUS
10
5.67177
20
-3.66217
11
5.67254
21
-3.6573
0
LINE
8
BLACK
6
CONTINUOUS
10
5.67254
20
-3.6573
11
5.67478
21
-3.65291
0
LINE
8
BLACK
6
CONTINUOUS
10
5.67478
20
-3.65291
11
5.67826
21
-3.64942
0
LINE
8
BLACK
6
CONTINUOUS
10
5.67826
20
-3.64942
11
5.68265
21
-3.64719
0
LINE
8
BLACK
6
CONTINUOUS
10
5.68265
20
-3.64719
11
5.68752
21
-3.64642
0
LINE
8
BLACK
6
CONTINUOUS
10
5.68752
20
-3.64642
11
5.70917
21
-3.64642
0
LINE
8
BLACK
6
CONTINUOUS
10
5.70917
20
-3.64642
11
5.71404
21
-3.64719
0
LINE
8
BLACK
6
CONTINUOUS
10
5.51904
20
-3.64715
11
5.52343
21
-3.64939
0
LINE
8
BLACK
6
CONTINUOUS
10
5.52343
20
-3.64939
11
5.52691
21
-3.65287
0
LINE
8
BLACK
6
CONTINUOUS
10
5.52691
20
-3.65287
11
5.52915
21
-3.65726
0
LINE
8
BLACK
6
CONTINUOUS
10
5.52915
20
-3.65726
11
5.52992
21
-3.66213
0
LINE
8
BLACK
6
CONTINUOUS
10
5.52992
20
-3.66213
11
5.52992
21
-3.67787
0
LINE
8
BLACK
6
CONTINUOUS
10
5.52992
20
-3.67787
11
5.52915
21
-3.68274
0
LINE
8
BLACK
6
CONTINUOUS
10
5.52915
20
-3.68274
11
5.52691
21
-3.68713
0
LINE
8
BLACK
6
CONTINUOUS
10
5.52691
20
-3.68713
11
5.52343
21
-3.69061
0
LINE
8
BLACK
6
CONTINUOUS
10
5.52343
20
-3.69061
11
5.51904
21
-3.69285
0
LINE
8
BLACK
6
CONTINUOUS
10
5.51904
20
-3.69285
11
5.51417
21
-3.69362
0
LINE
8
BLACK
6
CONTINUOUS
10
5.51417
20
-3.69362
11
5.49252
21
-3.69362
0
LINE
8
BLACK
6
CONTINUOUS
10
5.49252
20
-3.69362
11
5.48765
21
-3.69285
0
LINE
8
BLACK
6
CONTINUOUS
10
5.48765
20
-3.69285
11
5.48326
21
-3.69061
0
LINE
8
BLACK
6
CONTINUOUS
10
5.48326
20
-3.69061
11
5.47978
21
-3.68713
0
LINE
8
BLACK
6
CONTINUOUS
10
5.47978
20
-3.68713
11
5.47754
21
-3.68274
0
LINE
8
BLACK
6
CONTINUOUS
10
5.47754
20
-3.68274
11
5.47677
21
-3.67787
0
LINE
8
BLACK
6
CONTINUOUS
10
5.47677
20
-3.67787
11
5.47677
21
-3.66213
0
LINE
8
BLACK
6
CONTINUOUS
10
5.47677
20
-3.66213
11
5.47754
21
-3.65726
0
LINE
8
BLACK
6
CONTINUOUS
10
5.47754
20
-3.65726
11
5.47978
21
-3.65287
0
LINE
8
BLACK
6
CONTINUOUS
10
5.47978
20
-3.65287
11
5.48326
21
-3.64939
0
LINE
8
BLACK
6
CONTINUOUS
10
5.48326
20
-3.64939
11
5.48765
21
-3.64715
0
LINE
8
BLACK
6
CONTINUOUS
10
5.48765
20
-3.64715
11
5.49252
21
-3.64638
0
LINE
8
BLACK
6
CONTINUOUS
10
5.49252
20
-3.64638
11
5.51417
21
-3.64638
0
LINE
8
BLACK
6
CONTINUOUS
10
5.51417
20
-3.64638
11
5.51904
21
-3.64715
0
LINE
8
BLACK
6
CONTINUOUS
10
5.60404
20
-3.64715
11
5.60843
21
-3.64939
0
LINE
8
BLACK
6
CONTINUOUS
10
5.60843
20
-3.64939
11
5.61191
21
-3.65287
0
LINE
8
BLACK
6
CONTINUOUS
10
5.61191
20
-3.65287
11
5.61415
21
-3.65726
0
LINE
8
BLACK
6
CONTINUOUS
10
5.61415
20
-3.65726
11
5.61492
21
-3.66213
0
LINE
8
BLACK
6
CONTINUOUS
10
5.61492
20
-3.66213
11
5.61492
21
-3.67787
0
LINE
8
BLACK
6
CONTINUOUS
10
5.61492
20
-3.67787
11
5.61415
21
-3.68274
0
LINE
8
BLACK
6
CONTINUOUS
10
5.61415
20
-3.68274
11
5.61191
21
-3.68713
0
LINE
8
BLACK
6
CONTINUOUS
10
5.61191
20
-3.68713
11
5.60843
21
-3.69061
0
LINE
8
BLACK
6
CONTINUOUS
10
5.60843
20
-3.69061
11
5.60404
21
-3.69285
0
LINE
8
BLACK
6
CONTINUOUS
10
5.60404
20
-3.69285
11
5.59917
21
-3.69362
0
LINE
8
BLACK
6
CONTINUOUS
10
5.59917
20
-3.69362
11
5.57752
21
-3.69362
0
LINE
8
BLACK
6
CONTINUOUS
10
5.57752
20
-3.69362
11
5.57265
21
-3.69285
0
LINE
8
BLACK
6
CONTINUOUS
10
5.57265
20
-3.69285
11
5.56826
21
-3.69061
0
LINE
8
BLACK
6
CONTINUOUS
10
5.56826
20
-3.69061
11
5.56478
21
-3.68713
0
LINE
8
BLACK
6
CONTINUOUS
10
5.56478
20
-3.68713
11
5.56254
21
-3.68274
0
LINE
8
BLACK
6
CONTINUOUS
10
5.56254
20
-3.68274
11
5.56177
21
-3.67787
0
LINE
8
BLACK
6
CONTINUOUS
10
5.56177
20
-3.67787
11
5.56177
21
-3.66213
0
LINE
8
BLACK
6
CONTINUOUS
10
5.56177
20
-3.66213
11
5.56254
21
-3.65726
0
LINE
8
BLACK
6
CONTINUOUS
10
5.56254
20
-3.65726
11
5.56478
21
-3.65287
0
LINE
8
BLACK
6
CONTINUOUS
10
5.56478
20
-3.65287
11
5.56826
21
-3.64939
0
LINE
8
BLACK
6
CONTINUOUS
10
5.56826
20
-3.64939
11
5.57265
21
-3.64715
0
LINE
8
BLACK
6
CONTINUOUS
10
5.57265
20
-3.64715
11
5.57752
21
-3.64638
0
LINE
8
BLACK
6
CONTINUOUS
10
5.57752
20
-3.64638
11
5.59917
21
-3.64638
0
LINE
8
BLACK
6
CONTINUOUS
10
5.59917
20
-3.64638
11
5.60404
21
-3.64715
0
LINE
8
BLACK
6
CONTINUOUS
10
5.81904
20
-3.64715
11
5.82343
21
-3.64939
0
LINE
8
BLACK
6
CONTINUOUS
10
5.82343
20
-3.64939
11
5.82691
21
-3.65287
0
LINE
8
BLACK
6
CONTINUOUS
10
5.82691
20
-3.65287
11
5.82915
21
-3.65726
0
LINE
8
BLACK
6
CONTINUOUS
10
5.82915
20
-3.65726
11
5.82992
21
-3.66213
0
LINE
8
BLACK
6
CONTINUOUS
10
5.82992
20
-3.66213
11
5.82992
21
-3.67787
0
LINE
8
BLACK
6
CONTINUOUS
10
5.82992
20
-3.67787
11
5.82915
21
-3.68274
0
LINE
8
BLACK
6
CONTINUOUS
10
5.82915
20
-3.68274
11
5.82691
21
-3.68713
0
LINE
8
BLACK
6
CONTINUOUS
10
5.82691
20
-3.68713
11
5.82343
21
-3.69061
0
LINE
8
BLACK
6
CONTINUOUS
10
5.82343
20
-3.69061
11
5.81904
21
-3.69285
0
LINE
8
BLACK
6
CONTINUOUS
10
5.81904
20
-3.69285
11
5.81417
21
-3.69362
0
LINE
8
BLACK
6
CONTINUOUS
10
5.81417
20
-3.69362
11
5.79252
21
-3.69362
0
LINE
8
BLACK
6
CONTINUOUS
10
5.79252
20
-3.69362
11
5.78765
21
-3.69285
0
LINE
8
BLACK
6
CONTINUOUS
10
5.78765
20
-3.69285
11
5.78326
21
-3.69061
0
LINE
8
BLACK
6
CONTINUOUS
10
5.78326
20
-3.69061
11
5.77978
21
-3.68713
0
LINE
8
BLACK
6
CONTINUOUS
10
5.77978
20
-3.68713
11
5.77754
21
-3.68274
0
LINE
8
BLACK
6
CONTINUOUS
10
5.77754
20
-3.68274
11
5.77677
21
-3.67787
0
LINE
8
BLACK
6
CONTINUOUS
10
5.77677
20
-3.67787
11
5.77677
21
-3.66213
0
LINE
8
BLACK
6
CONTINUOUS
10
5.77677
20
-3.66213
11
5.77754
21
-3.65726
0
LINE
8
BLACK
6
CONTINUOUS
10
5.77754
20
-3.65726
11
5.77978
21
-3.65287
0
LINE
8
BLACK
6
CONTINUOUS
10
5.77978
20
-3.65287
11
5.78326
21
-3.64939
0
LINE
8
BLACK
6
CONTINUOUS
10
5.78326
20
-3.64939
11
5.78765
21
-3.64715
0
LINE
8
BLACK
6
CONTINUOUS
10
5.78765
20
-3.64715
11
5.79252
21
-3.64638
0
LINE
8
BLACK
6
CONTINUOUS
10
5.79252
20
-3.64638
11
5.81417
21
-3.64638
0
LINE
8
BLACK
6
CONTINUOUS
10
5.81417
20
-3.64638
11
5.81904
21
-3.64715
0
LINE
8
BLACK
6
CONTINUOUS
10
6.352
20
-3.64329
11
6.35608
21
-3.64528
0
LINE
8
BLACK
6
CONTINUOUS
10
6.35608
20
-3.64528
11
6.35929
21
-3.64849
0
LINE
8
BLACK
6
CONTINUOUS
10
6.35929
20
-3.64849
11
6.36128
21
-3.65256
0
LINE
8
BLACK
6
CONTINUOUS
10
6.36128
20
-3.65256
11
6.36185
21
-3.6565
0
LINE
8
BLACK
6
CONTINUOUS
10
6.36185
20
-3.6565
11
6.36185
21
-3.66831
0
LINE
8
BLACK
6
CONTINUOUS
10
6.36185
20
-3.66831
11
6.36128
21
-3.67224
0
LINE
8
BLACK
6
CONTINUOUS
10
6.36128
20
-3.67224
11
6.35929
21
-3.67631
0
LINE
8
BLACK
6
CONTINUOUS
10
6.35929
20
-3.67631
11
6.35608
21
-3.67952
0
LINE
8
BLACK
6
CONTINUOUS
10
6.35608
20
-3.67952
11
6.352
21
-3.68151
0
LINE
8
BLACK
6
CONTINUOUS
10
6.352
20
-3.68151
11
6.34807
21
-3.68209
0
LINE
8
BLACK
6
CONTINUOUS
10
6.34807
20
-3.68209
11
6.29295
21
-3.68209
0
LINE
8
BLACK
6
CONTINUOUS
10
6.29295
20
-3.68209
11
6.28902
21
-3.68151
0
LINE
8
BLACK
6
CONTINUOUS
10
6.28902
20
-3.68151
11
6.28495
21
-3.67952
0
LINE
8
BLACK
6
CONTINUOUS
10
6.28495
20
-3.67952
11
6.28174
21
-3.67631
0
LINE
8
BLACK
6
CONTINUOUS
10
6.28174
20
-3.67631
11
6.27975
21
-3.67224
0
LINE
8
BLACK
6
CONTINUOUS
10
6.27975
20
-3.67224
11
6.27917
21
-3.66831
0
LINE
8
BLACK
6
CONTINUOUS
10
6.27917
20
-3.66831
11
6.27917
21
-3.6565
0
LINE
8
BLACK
6
CONTINUOUS
10
6.27917
20
-3.6565
11
6.27975
21
-3.65256
0
LINE
8
BLACK
6
CONTINUOUS
10
6.27975
20
-3.65256
11
6.28174
21
-3.64849
0
LINE
8
BLACK
6
CONTINUOUS
10
6.28174
20
-3.64849
11
6.28495
21
-3.64528
0
LINE
8
BLACK
6
CONTINUOUS
10
6.28495
20
-3.64528
11
6.28902
21
-3.64329
0
LINE
8
BLACK
6
CONTINUOUS
10
6.28902
20
-3.64329
11
6.29295
21
-3.64272
0
LINE
8
BLACK
6
CONTINUOUS
10
6.29295
20
-3.64272
11
6.34807
21
-3.64272
0
LINE
8
BLACK
6
CONTINUOUS
10
6.34807
20
-3.64272
11
6.352
21
-3.64329
0
LINE
8
BLACK
6
CONTINUOUS
10
5.94861
20
-3.60424
11
5.953
21
-3.60647
0
LINE
8
BLACK
6
CONTINUOUS
10
5.953
20
-3.60647
11
5.95648
21
-3.60996
0
LINE
8
BLACK
6
CONTINUOUS
10
5.95648
20
-3.60996
11
5.95872
21
-3.61435
0
LINE
8
BLACK
6
CONTINUOUS
10
5.95872
20
-3.61435
11
5.95949
21
-3.61921
0
LINE
8
BLACK
6
CONTINUOUS
10
5.95949
20
-3.61921
11
5.95949
21
-3.64087
0
LINE
8
BLACK
6
CONTINUOUS
10
5.95949
20
-3.64087
11
5.95872
21
-3.64573
0
LINE
8
BLACK
6
CONTINUOUS
10
5.95872
20
-3.64573
11
5.95648
21
-3.65012
0
LINE
8
BLACK
6
CONTINUOUS
10
5.95648
20
-3.65012
11
5.953
21
-3.65361
0
LINE
8
BLACK
6
CONTINUOUS
10
5.953
20
-3.65361
11
5.94861
21
-3.65584
0
LINE
8
BLACK
6
CONTINUOUS
10
5.94861
20
-3.65584
11
5.94374
21
-3.65661
0
LINE
8
BLACK
6
CONTINUOUS
10
5.94374
20
-3.65661
11
5.92799
21
-3.65661
0
LINE
8
BLACK
6
CONTINUOUS
10
5.92799
20
-3.65661
11
5.92313
21
-3.65584
0
LINE
8
BLACK
6
CONTINUOUS
10
5.92313
20
-3.65584
11
5.91874
21
-3.65361
0
LINE
8
BLACK
6
CONTINUOUS
10
5.91874
20
-3.65361
11
5.91525
21
-3.65012
0
LINE
8
BLACK
6
CONTINUOUS
10
5.91525
20
-3.65012
11
5.91301
21
-3.64573
0
LINE
8
BLACK
6
CONTINUOUS
10
5.91301
20
-3.64573
11
5.91224
21
-3.64087
0
LINE
8
BLACK
6
CONTINUOUS
10
5.91224
20
-3.64087
11
5.91224
21
-3.61921
0
LINE
8
BLACK
6
CONTINUOUS
10
5.91224
20
-3.61921
11
5.91301
21
-3.61435
0
LINE
8
BLACK
6
CONTINUOUS
10
5.91301
20
-3.61435
11
5.91525
21
-3.60996
0
LINE
8
BLACK
6
CONTINUOUS
10
5.91525
20
-3.60996
11
5.91874
21
-3.60647
0
LINE
8
BLACK
6
CONTINUOUS
10
5.91874
20
-3.60647
11
5.92313
21
-3.60424
0
LINE
8
BLACK
6
CONTINUOUS
10
5.92313
20
-3.60424
11
5.92799
21
-3.60346
0
LINE
8
BLACK
6
CONTINUOUS
10
5.92799
20
-3.60346
11
5.94374
21
-3.60346
0
LINE
8
BLACK
6
CONTINUOUS
10
5.94374
20
-3.60346
11
5.94861
21
-3.60424
0
LINE
8
BLACK
6
CONTINUOUS
10
6.01357
20
-3.60424
11
6.01796
21
-3.60647
0
LINE
8
BLACK
6
CONTINUOUS
10
6.01796
20
-3.60647
11
6.02144
21
-3.60996
0
LINE
8
BLACK
6
CONTINUOUS
10
6.02144
20
-3.60996
11
6.02368
21
-3.61435
0
LINE
8
BLACK
6
CONTINUOUS
10
6.02368
20
-3.61435
11
6.02445
21
-3.61921
0
LINE
8
BLACK
6
CONTINUOUS
10
6.02445
20
-3.61921
11
6.02445
21
-3.64087
0
LINE
8
BLACK
6
CONTINUOUS
10
6.02445
20
-3.64087
11
6.02368
21
-3.64573
0
LINE
8
BLACK
6
CONTINUOUS
10
6.02368
20
-3.64573
11
6.02144
21
-3.65012
0
LINE
8
BLACK
6
CONTINUOUS
10
6.02144
20
-3.65012
11
6.01796
21
-3.65361
0
LINE
8
BLACK
6
CONTINUOUS
10
6.01796
20
-3.65361
11
6.01357
21
-3.65584
0
LINE
8
BLACK
6
CONTINUOUS
10
6.01357
20
-3.65584
11
6.0087
21
-3.65661
0
LINE
8
BLACK
6
CONTINUOUS
10
6.0087
20
-3.65661
11
5.99295
21
-3.65661
0
LINE
8
BLACK
6
CONTINUOUS
10
5.99295
20
-3.65661
11
5.98809
21
-3.65584
0
LINE
8
BLACK
6
CONTINUOUS
10
5.98809
20
-3.65584
11
5.9837
21
-3.65361
0
LINE
8
BLACK
6
CONTINUOUS
10
5.9837
20
-3.65361
11
5.98021
21
-3.65012
0
LINE
8
BLACK
6
CONTINUOUS
10
5.98021
20
-3.65012
11
5.97798
21
-3.64573
0
LINE
8
BLACK
6
CONTINUOUS
10
5.97798
20
-3.64573
11
5.9772
21
-3.64087
0
LINE
8
BLACK
6
CONTINUOUS
10
5.9772
20
-3.64087
11
5.9772
21
-3.61921
0
LINE
8
BLACK
6
CONTINUOUS
10
5.9772
20
-3.61921
11
5.97798
21
-3.61435
0
LINE
8
BLACK
6
CONTINUOUS
10
5.97798
20
-3.61435
11
5.98021
21
-3.60996
0
LINE
8
BLACK
6
CONTINUOUS
10
5.98021
20
-3.60996
11
5.9837
21
-3.60647
0
LINE
8
BLACK
6
CONTINUOUS
10
5.9837
20
-3.60647
11
5.98809
21
-3.60424
0
LINE
8
BLACK
6
CONTINUOUS
10
5.98809
20
-3.60424
11
5.99295
21
-3.60346
0
LINE
8
BLACK
6
CONTINUOUS
10
5.99295
20
-3.60346
11
6.0087
21
-3.60346
0
LINE
8
BLACK
6
CONTINUOUS
10
6.0087
20
-3.60346
11
6.01357
21
-3.60424
0
LINE
8
BLACK
6
CONTINUOUS
10
6.15335
20
-3.56769
11
6.16074
21
-3.56993
0
LINE
8
BLACK
6
CONTINUOUS
10
6.16074
20
-3.56993
11
6.16754
21
-3.57356
0
LINE
8
BLACK
6
CONTINUOUS
10
6.16754
20
-3.57356
11
6.17351
21
-3.57846
0
LINE
8
BLACK
6
CONTINUOUS
10
6.17351
20
-3.57846
11
6.1784
21
-3.58443
0
LINE
8
BLACK
6
CONTINUOUS
10
6.1784
20
-3.58443
11
6.18204
21
-3.59123
0
LINE
8
BLACK
6
CONTINUOUS
10
6.18204
20
-3.59123
11
6.18428
21
-3.59862
0
LINE
8
BLACK
6
CONTINUOUS
10
6.18428
20
-3.59862
11
6.18504
21
-3.6063
0
LINE
8
BLACK
6
CONTINUOUS
10
6.18504
20
-3.6063
11
6.18428
21
-3.61398
0
LINE
8
BLACK
6
CONTINUOUS
10
6.18428
20
-3.61398
11
6.18204
21
-3.62137
0
LINE
8
BLACK
6
CONTINUOUS
10
6.18204
20
-3.62137
11
6.1784
21
-3.62817
0
LINE
8
BLACK
6
CONTINUOUS
10
6.1784
20
-3.62817
11
6.17351
21
-3.63414
0
LINE
8
BLACK
6
CONTINUOUS
10
6.17351
20
-3.63414
11
6.16754
21
-3.63903
0
LINE
8
BLACK
6
CONTINUOUS
10
6.16754
20
-3.63903
11
6.16074
21
-3.64267
0
LINE
8
BLACK
6
CONTINUOUS
10
6.16074
20
-3.64267
11
6.15335
21
-3.64491
0
LINE
8
BLACK
6
CONTINUOUS
10
6.15335
20
-3.64491
11
6.14567
21
-3.64567
0
LINE
8
BLACK
6
CONTINUOUS
10
6.14567
20
-3.64567
11
6.13799
21
-3.64491
0
LINE
8
BLACK
6
CONTINUOUS
10
6.13799
20
-3.64491
11
6.1306
21
-3.64267
0
LINE
8
BLACK
6
CONTINUOUS
10
6.1306
20
-3.64267
11
6.1238
21
-3.63903
0
LINE
8
BLACK
6
CONTINUOUS
10
6.1238
20
-3.63903
11
6.11783
21
-3.63414
0
LINE
8
BLACK
6
CONTINUOUS
10
6.11783
20
-3.63414
11
6.11293
21
-3.62817
0
LINE
8
BLACK
6
CONTINUOUS
10
6.11293
20
-3.62817
11
6.1093
21
-3.62137
0
LINE
8
BLACK
6
CONTINUOUS
10
6.1093
20
-3.62137
11
6.10706
21
-3.61398
0
LINE
8
BLACK
6
CONTINUOUS
10
6.10706
20
-3.61398
11
6.1063
21
-3.6063
0
LINE
8
BLACK
6
CONTINUOUS
10
6.1063
20
-3.6063
11
6.10706
21
-3.59862
0
LINE
8
BLACK
6
CONTINUOUS
10
6.10706
20
-3.59862
11
6.1093
21
-3.59123
0
LINE
8
BLACK
6
CONTINUOUS
10
6.1093
20
-3.59123
11
6.11293
21
-3.58443
0
LINE
8
BLACK
6
CONTINUOUS
10
6.11293
20
-3.58443
11
6.11783
21
-3.57846
0
LINE
8
BLACK
6
CONTINUOUS
10
6.11783
20
-3.57846
11
6.1238
21
-3.57356
0
LINE
8
BLACK
6
CONTINUOUS
10
6.1238
20
-3.57356
11
6.1306
21
-3.56993
0
LINE
8
BLACK
6
CONTINUOUS
10
6.1306
20
-3.56993
11
6.13799
21
-3.56769
0
LINE
8
BLACK
6
CONTINUOUS
10
6.13799
20
-3.56769
11
6.14567
21
-3.56693
0
LINE
8
BLACK
6
CONTINUOUS
10
6.14567
20
-3.56693
11
6.15335
21
-3.56769
0
LINE
8
BLACK
6
CONTINUOUS
10
6.352
20
-3.59408
11
6.35608
21
-3.59607
0
LINE
8
BLACK
6
CONTINUOUS
10
6.35608
20
-3.59607
11
6.35929
21
-3.59928
0
LINE
8
BLACK
6
CONTINUOUS
10
6.35929
20
-3.59928
11
6.36128
21
-3.60335
0
LINE
8
BLACK
6
CONTINUOUS
10
6.36128
20
-3.60335
11
6.36185
21
-3.60728
0
LINE
8
BLACK
6
CONTINUOUS
10
6.36185
20
-3.60728
11
6.36185
21
-3.61909
0
LINE
8
BLACK
6
CONTINUOUS
10
6.36185
20
-3.61909
11
6.36128
21
-3.62303
0
LINE
8
BLACK
6
CONTINUOUS
10
6.36128
20
-3.62303
11
6.35929
21
-3.6271
0
LINE
8
BLACK
6
CONTINUOUS
10
6.35929
20
-3.6271
11
6.35608
21
-3.63031
0
LINE
8
BLACK
6
CONTINUOUS
10
6.35608
20
-3.63031
11
6.352
21
-3.6323
0
LINE
8
BLACK
6
CONTINUOUS
10
6.352
20
-3.6323
11
6.34807
21
-3.63287
0
LINE
8
BLACK
6
CONTINUOUS
10
6.34807
20
-3.63287
11
6.29295
21
-3.63287
0
LINE
8
BLACK
6
CONTINUOUS
10
6.29295
20
-3.63287
11
6.28902
21
-3.6323
0
LINE
8
BLACK
6
CONTINUOUS
10
6.28902
20
-3.6323
11
6.28495
21
-3.63031
0
LINE
8
BLACK
6
CONTINUOUS
10
6.28495
20
-3.63031
11
6.28174
21
-3.6271
0
LINE
8
BLACK
6
CONTINUOUS
10
6.28174
20
-3.6271
11
6.27975
21
-3.62303
0
LINE
8
BLACK
6
CONTINUOUS
10
6.27975
20
-3.62303
11
6.27917
21
-3.61909
0
LINE
8
BLACK
6
CONTINUOUS
10
6.27917
20
-3.61909
11
6.27917
21
-3.60728
0
LINE
8
BLACK
6
CONTINUOUS
10
6.27917
20
-3.60728
11
6.27975
21
-3.60335
0
LINE
8
BLACK
6
CONTINUOUS
10
6.27975
20
-3.60335
11
6.28174
21
-3.59928
0
LINE
8
BLACK
6
CONTINUOUS
10
6.28174
20
-3.59928
11
6.28495
21
-3.59607
0
LINE
8
BLACK
6
CONTINUOUS
10
6.28495
20
-3.59607
11
6.28902
21
-3.59408
0
LINE
8
BLACK
6
CONTINUOUS
10
6.28902
20
-3.59408
11
6.29295
21
-3.5935
0
LINE
8
BLACK
6
CONTINUOUS
10
6.29295
20
-3.5935
11
6.34807
21
-3.5935
0
LINE
8
BLACK
6
CONTINUOUS
10
6.34807
20
-3.5935
11
6.352
21
-3.59408
0
LINE
8
BLACK
6
CONTINUOUS
10
5.71404
20
-3.58223
11
5.71843
21
-3.58446
0
LINE
8
BLACK
6
CONTINUOUS
10
5.71843
20
-3.58446
11
5.72191
21
-3.58795
0
LINE
8
BLACK
6
CONTINUOUS
10
5.72191
20
-3.58795
11
5.72415
21
-3.59234
0
LINE
8
BLACK
6
CONTINUOUS
10
5.72415
20
-3.59234
11
5.72492
21
-3.5972
0
LINE
8
BLACK
6
CONTINUOUS
10
5.72492
20
-3.5972
11
5.72492
21
-3.61295
0
LINE
8
BLACK
6
CONTINUOUS
10
5.72492
20
-3.61295
11
5.72415
21
-3.61782
0
LINE
8
BLACK
6
CONTINUOUS
10
5.72415
20
-3.61782
11
5.72191
21
-3.62221
0
LINE
8
BLACK
6
CONTINUOUS
10
5.72191
20
-3.62221
11
5.71843
21
-3.62569
0
LINE
8
BLACK
6
CONTINUOUS
10
5.71843
20
-3.62569
11
5.71404
21
-3.62793
0
LINE
8
BLACK
6
CONTINUOUS
10
5.71404
20
-3.62793
11
5.70917
21
-3.6287
0
LINE
8
BLACK
6
CONTINUOUS
10
5.70917
20
-3.6287
11
5.68752
21
-3.6287
0
LINE
8
BLACK
6
CONTINUOUS
10
5.68752
20
-3.6287
11
5.68265
21
-3.62793
0
LINE
8
BLACK
6
CONTINUOUS
10
5.68265
20
-3.62793
11
5.67826
21
-3.62569
0
LINE
8
BLACK
6
CONTINUOUS
10
5.67826
20
-3.62569
11
5.67478
21
-3.62221
0
LINE
8
BLACK
6
CONTINUOUS
10
5.67478
20
-3.62221
11
5.67254
21
-3.61782
0
LINE
8
BLACK
6
CONTINUOUS
10
5.67254
20
-3.61782
11
5.67177
21
-3.61295
0
LINE
8
BLACK
6
CONTINUOUS
10
5.67177
20
-3.61295
11
5.67177
21
-3.5972
0
LINE
8
BLACK
6
CONTINUOUS
10
5.67177
20
-3.5972
11
5.67254
21
-3.59234
0
LINE
8
BLACK
6
CONTINUOUS
10
5.67254
20
-3.59234
11
5.67478
21
-3.58795
0
LINE
8
BLACK
6
CONTINUOUS
10
5.67478
20
-3.58795
11
5.67826
21
-3.58446
0
LINE
8
BLACK
6
CONTINUOUS
10
5.67826
20
-3.58446
11
5.68265
21
-3.58223
0
LINE
8
BLACK
6
CONTINUOUS
10
5.68265
20
-3.58223
11
5.68752
21
-3.58146
0
LINE
8
BLACK
6
CONTINUOUS
10
5.68752
20
-3.58146
11
5.70917
21
-3.58146
0
LINE
8
BLACK
6
CONTINUOUS
10
5.70917
20
-3.58146
11
5.71404
21
-3.58223
0
LINE
8
BLACK
6
CONTINUOUS
10
5.51904
20
-3.58219
11
5.52343
21
-3.58442
0
LINE
8
BLACK
6
CONTINUOUS
10
5.52343
20
-3.58442
11
5.52691
21
-3.58791
0
LINE
8
BLACK
6
CONTINUOUS
10
5.52691
20
-3.58791
11
5.52915
21
-3.5923
0
LINE
8
BLACK
6
CONTINUOUS
10
5.52915
20
-3.5923
11
5.52992
21
-3.59717
0
LINE
8
BLACK
6
CONTINUOUS
10
5.52992
20
-3.59717
11
5.52992
21
-3.61291
0
LINE
8
BLACK
6
CONTINUOUS
10
5.52992
20
-3.61291
11
5.52915
21
-3.61778
0
LINE
8
BLACK
6
CONTINUOUS
10
5.52915
20
-3.61778
11
5.52691
21
-3.62217
0
LINE
8
BLACK
6
CONTINUOUS
10
5.52691
20
-3.62217
11
5.52343
21
-3.62565
0
LINE
8
BLACK
6
CONTINUOUS
10
5.52343
20
-3.62565
11
5.51904
21
-3.62789
0
LINE
8
BLACK
6
CONTINUOUS
10
5.51904
20
-3.62789
11
5.51417
21
-3.62866
0
LINE
8
BLACK
6
CONTINUOUS
10
5.51417
20
-3.62866
11
5.49252
21
-3.62866
0
LINE
8
BLACK
6
CONTINUOUS
10
5.49252
20
-3.62866
11
5.48765
21
-3.62789
0
LINE
8
BLACK
6
CONTINUOUS
10
5.48765
20
-3.62789
11
5.48326
21
-3.62565
0
LINE
8
BLACK
6
CONTINUOUS
10
5.48326
20
-3.62565
11
5.47978
21
-3.62217
0
LINE
8
BLACK
6
CONTINUOUS
10
5.47978
20
-3.62217
11
5.47754
21
-3.61778
0
LINE
8
BLACK
6
CONTINUOUS
10
5.47754
20
-3.61778
11
5.47677
21
-3.61291
0
LINE
8
BLACK
6
CONTINUOUS
10
5.47677
20
-3.61291
11
5.47677
21
-3.59717
0
LINE
8
BLACK
6
CONTINUOUS
10
5.47677
20
-3.59717
11
5.47754
21
-3.5923
0
LINE
8
BLACK
6
CONTINUOUS
10
5.47754
20
-3.5923
11
5.47978
21
-3.58791
0
LINE
8
BLACK
6
CONTINUOUS
10
5.47978
20
-3.58791
11
5.48326
21
-3.58442
0
LINE
8
BLACK
6
CONTINUOUS
10
5.48326
20
-3.58442
11
5.48765
21
-3.58219
0
LINE
8
BLACK
6
CONTINUOUS
10
5.48765
20
-3.58219
11
5.49252
21
-3.58142
0
LINE
8
BLACK
6
CONTINUOUS
10
5.49252
20
-3.58142
11
5.51417
21
-3.58142
0
LINE
8
BLACK
6
CONTINUOUS
10
5.51417
20
-3.58142
11
5.51904
21
-3.58219
0
LINE
8
BLACK
6
CONTINUOUS
10
5.60404
20
-3.58219
11
5.60843
21
-3.58442
0
LINE
8
BLACK
6
CONTINUOUS
10
5.60843
20
-3.58442
11
5.61191
21
-3.58791
0
LINE
8
BLACK
6
CONTINUOUS
10
5.61191
20
-3.58791
11
5.61415
21
-3.5923
0
LINE
8
BLACK
6
CONTINUOUS
10
5.61415
20
-3.5923
11
5.61492
21
-3.59717
0
LINE
8
BLACK
6
CONTINUOUS
10
5.61492
20
-3.59717
11
5.61492
21
-3.61291
0
LINE
8
BLACK
6
CONTINUOUS
10
5.61492
20
-3.61291
11
5.61415
21
-3.61778
0
LINE
8
BLACK
6
CONTINUOUS
10
5.61415
20
-3.61778
11
5.61191
21
-3.62217
0
LINE
8
BLACK
6
CONTINUOUS
10
5.61191
20
-3.62217
11
5.60843
21
-3.62565
0
LINE
8
BLACK
6
CONTINUOUS
10
5.60843
20
-3.62565
11
5.60404
21
-3.62789
0
LINE
8
BLACK
6
CONTINUOUS
10
5.60404
20
-3.62789
11
5.59917
21
-3.62866
0
LINE
8
BLACK
6
CONTINUOUS
10
5.59917
20
-3.62866
11
5.57752
21
-3.62866
0
LINE
8
BLACK
6
CONTINUOUS
10
5.57752
20
-3.62866
11
5.57265
21
-3.62789
0
LINE
8
BLACK
6
CONTINUOUS
10
5.57265
20
-3.62789
11
5.56826
21
-3.62565
0
LINE
8
BLACK
6
CONTINUOUS
10
5.56826
20
-3.62565
11
5.56478
21
-3.62217
0
LINE
8
BLACK
6
CONTINUOUS
10
5.56478
20
-3.62217
11
5.56254
21
-3.61778
0
LINE
8
BLACK
6
CONTINUOUS
10
5.56254
20
-3.61778
11
5.56177
21
-3.61291
0
LINE
8
BLACK
6
CONTINUOUS
10
5.56177
20
-3.61291
11
5.56177
21
-3.59717
0
LINE
8
BLACK
6
CONTINUOUS
10
5.56177
20
-3.59717
11
5.56254
21
-3.5923
0
LINE
8
BLACK
6
CONTINUOUS
10
5.56254
20
-3.5923
11
5.56478
21
-3.58791
0
LINE
8
BLACK
6
CONTINUOUS
10
5.56478
20
-3.58791
11
5.56826
21
-3.58442
0
LINE
8
BLACK
6
CONTINUOUS
10
5.56826
20
-3.58442
11
5.57265
21
-3.58219
0
LINE
8
BLACK
6
CONTINUOUS
10
5.57265
20
-3.58219
11
5.57752
21
-3.58142
0
LINE
8
BLACK
6
CONTINUOUS
10
5.57752
20
-3.58142
11
5.59917
21
-3.58142
0
LINE
8
BLACK
6
CONTINUOUS
10
5.59917
20
-3.58142
11
5.60404
21
-3.58219
0
LINE
8
BLACK
6
CONTINUOUS
10
5.81904
20
-3.58219
11
5.82343
21
-3.58442
0
LINE
8
BLACK
6
CONTINUOUS
10
5.82343
20
-3.58442
11
5.82691
21
-3.58791
0
LINE
8
BLACK
6
CONTINUOUS
10
5.82691
20
-3.58791
11
5.82915
21
-3.5923
0
LINE
8
BLACK
6
CONTINUOUS
10
5.82915
20
-3.5923
11
5.82992
21
-3.59717
0
LINE
8
BLACK
6
CONTINUOUS
10
5.82992
20
-3.59717
11
5.82992
21
-3.61291
0
LINE
8
BLACK
6
CONTINUOUS
10
5.82992
20
-3.61291
11
5.82915
21
-3.61778
0
LINE
8
BLACK
6
CONTINUOUS
10
5.82915
20
-3.61778
11
5.82691
21
-3.62217
0
LINE
8
BLACK
6
CONTINUOUS
10
5.82691
20
-3.62217
11
5.82343
21
-3.62565
0
LINE
8
BLACK
6
CONTINUOUS
10
5.82343
20
-3.62565
11
5.81904
21
-3.62789
0
LINE
8
BLACK
6
CONTINUOUS
10
5.81904
20
-3.62789
11
5.81417
21
-3.62866
0
LINE
8
BLACK
6
CONTINUOUS
10
5.81417
20
-3.62866
11
5.79252
21
-3.62866
0
LINE
8
BLACK
6
CONTINUOUS
10
5.79252
20
-3.62866
11
5.78765
21
-3.62789
0
LINE
8
BLACK
6
CONTINUOUS
10
5.78765
20
-3.62789
11
5.78326
21
-3.62565
0
LINE
8
BLACK
6
CONTINUOUS
10
5.78326
20
-3.62565
11
5.77978
21
-3.62217
0
LINE
8
BLACK
6
CONTINUOUS
10
5.77978
20
-3.62217
11
5.77754
21
-3.61778
0
LINE
8
BLACK
6
CONTINUOUS
10
5.77754
20
-3.61778
11
5.77677
21
-3.61291
0
LINE
8
BLACK
6
CONTINUOUS
10
5.77677
20
-3.61291
11
5.77677
21
-3.59717
0
LINE
8
BLACK
6
CONTINUOUS
10
5.77677
20
-3.59717
11
5.77754
21
-3.5923
0
LINE
8
BLACK
6
CONTINUOUS
10
5.77754
20
-3.5923
11
5.77978
21
-3.58791
0
LINE
8
BLACK
6
CONTINUOUS
10
5.77978
20
-3.58791
11
5.78326
21
-3.58442
0
LINE
8
BLACK
6
CONTINUOUS
10
5.78326
20
-3.58442
11
5.78765
21
-3.58219
0
LINE
8
BLACK
6
CONTINUOUS
10
5.78765
20
-3.58219
11
5.79252
21
-3.58142
0
LINE
8
BLACK
6
CONTINUOUS
10
5.79252
20
-3.58142
11
5.81417
21
-3.58142
0
LINE
8
BLACK
6
CONTINUOUS
10
5.81417
20
-3.58142
11
5.81904
21
-3.58219
0
LINE
8
BLACK
6
CONTINUOUS
10
6.352
20
-3.54486
11
6.35608
21
-3.54686
0
LINE
8
BLACK
6
CONTINUOUS
10
6.35608
20
-3.54686
11
6.35929
21
-3.55006
0
LINE
8
BLACK
6
CONTINUOUS
10
6.35929
20
-3.55006
11
6.36128
21
-3.55414
0
LINE
8
BLACK
6
CONTINUOUS
10
6.36128
20
-3.55414
11
6.36185
21
-3.55807
0
LINE
8
BLACK
6
CONTINUOUS
10
6.36185
20
-3.55807
11
6.36185
21
-3.56988
0
LINE
8
BLACK
6
CONTINUOUS
10
6.36185
20
-3.56988
11
6.36128
21
-3.57381
0
LINE
8
BLACK
6
CONTINUOUS
10
6.36128
20
-3.57381
11
6.35929
21
-3.57789
0
LINE
8
BLACK
6
CONTINUOUS
10
6.35929
20
-3.57789
11
6.35608
21
-3.5811
0
LINE
8
BLACK
6
CONTINUOUS
10
6.35608
20
-3.5811
11
6.352
21
-3.58309
0
LINE
8
BLACK
6
CONTINUOUS
10
6.352
20
-3.58309
11
6.34807
21
-3.58366
0
LINE
8
BLACK
6
CONTINUOUS
10
6.34807
20
-3.58366
11
6.29295
21
-3.58366
0
LINE
8
BLACK
6
CONTINUOUS
10
6.29295
20
-3.58366
11
6.28902
21
-3.58309
0
LINE
8
BLACK
6
CONTINUOUS
10
6.28902
20
-3.58309
11
6.28495
21
-3.5811
0
LINE
8
BLACK
6
CONTINUOUS
10
6.28495
20
-3.5811
11
6.28174
21
-3.57789
0
LINE
8
BLACK
6
CONTINUOUS
10
6.28174
20
-3.57789
11
6.27975
21
-3.57381
0
LINE
8
BLACK
6
CONTINUOUS
10
6.27975
20
-3.57381
11
6.27917
21
-3.56988
0
LINE
8
BLACK
6
CONTINUOUS
10
6.27917
20
-3.56988
11
6.27917
21
-3.55807
0
LINE
8
BLACK
6
CONTINUOUS
10
6.27917
20
-3.55807
11
6.27975
21
-3.55414
0
LINE
8
BLACK
6
CONTINUOUS
10
6.27975
20
-3.55414
11
6.28174
21
-3.55006
0
LINE
8
BLACK
6
CONTINUOUS
10
6.28174
20
-3.55006
11
6.28495
21
-3.54686
0
LINE
8
BLACK
6
CONTINUOUS
10
6.28495
20
-3.54686
11
6.28902
21
-3.54486
0
LINE
8
BLACK
6
CONTINUOUS
10
6.28902
20
-3.54486
11
6.29295
21
-3.54429
0
LINE
8
BLACK
6
CONTINUOUS
10
6.29295
20
-3.54429
11
6.34807
21
-3.54429
0
LINE
8
BLACK
6
CONTINUOUS
10
6.34807
20
-3.54429
11
6.352
21
-3.54486
0
LINE
8
BLACK
6
CONTINUOUS
10
6.09257
20
-3.48849
11
6.09748
21
-3.49021
0
LINE
8
BLACK
6
CONTINUOUS
10
6.09748
20
-3.49021
11
6.10167
21
-3.49331
0
LINE
8
BLACK
6
CONTINUOUS
10
6.10167
20
-3.49331
11
6.10477
21
-3.4975
0
LINE
8
BLACK
6
CONTINUOUS
10
6.10477
20
-3.4975
11
6.10649
21
-3.50241
0
LINE
8
BLACK
6
CONTINUOUS
10
6.10649
20
-3.50241
11
6.10679
21
-3.50566
0
LINE
8
BLACK
6
CONTINUOUS
10
6.10679
20
-3.50566
11
6.10679
21
-3.54158
0
LINE
8
BLACK
6
CONTINUOUS
10
6.10679
20
-3.54158
11
6.10649
21
-3.54483
0
LINE
8
BLACK
6
CONTINUOUS
10
6.10649
20
-3.54483
11
6.10477
21
-3.54975
0
LINE
8
BLACK
6
CONTINUOUS
10
6.10477
20
-3.54975
11
6.10167
21
-3.55394
0
LINE
8
BLACK
6
CONTINUOUS
10
6.10167
20
-3.55394
11
6.09748
21
-3.55703
0
LINE
8
BLACK
6
CONTINUOUS
10
6.09748
20
-3.55703
11
6.09257
21
-3.55875
0
LINE
8
BLACK
6
CONTINUOUS
10
6.09257
20
-3.55875
11
6.08932
21
-3.55906
0
LINE
8
BLACK
6
CONTINUOUS
10
6.08932
20
-3.55906
11
6.07013
21
-3.55906
0
LINE
8
BLACK
6
CONTINUOUS
10
6.07013
20
-3.55906
11
6.06688
21
-3.55875
0
LINE
8
BLACK
6
CONTINUOUS
10
6.06688
20
-3.55875
11
6.06196
21
-3.55703
0
LINE
8
BLACK
6
CONTINUOUS
10
6.06196
20
-3.55703
11
6.05777
21
-3.55394
0
LINE
8
BLACK
6
CONTINUOUS
10
6.05777
20
-3.55394
11
6.05468
21
-3.54975
0
LINE
8
BLACK
6
CONTINUOUS
10
6.05468
20
-3.54975
11
6.05296
21
-3.54483
0
LINE
8
BLACK
6
CONTINUOUS
10
6.05296
20
-3.54483
11
6.05266
21
-3.54158
0
LINE
8
BLACK
6
CONTINUOUS
10
6.05266
20
-3.54158
11
6.05266
21
-3.50566
0
LINE
8
BLACK
6
CONTINUOUS
10
6.05266
20
-3.50566
11
6.05296
21
-3.50241
0
LINE
8
BLACK
6
CONTINUOUS
10
6.05296
20
-3.50241
11
6.05468
21
-3.4975
0
LINE
8
BLACK
6
CONTINUOUS
10
6.05468
20
-3.4975
11
6.05777
21
-3.49331
0
LINE
8
BLACK
6
CONTINUOUS
10
6.05777
20
-3.49331
11
6.06196
21
-3.49021
0
LINE
8
BLACK
6
CONTINUOUS
10
6.06196
20
-3.49021
11
6.06688
21
-3.48849
0
LINE
8
BLACK
6
CONTINUOUS
10
6.06688
20
-3.48849
11
6.07013
21
-3.48819
0
LINE
8
BLACK
6
CONTINUOUS
10
6.07013
20
-3.48819
11
6.08932
21
-3.48819
0
LINE
8
BLACK
6
CONTINUOUS
10
6.08932
20
-3.48819
11
6.09257
21
-3.48849
0
LINE
8
BLACK
6
CONTINUOUS
10
6.16639
20
-3.48849
11
6.1713
21
-3.49021
0
LINE
8
BLACK
6
CONTINUOUS
10
6.1713
20
-3.49021
11
6.17549
21
-3.49331
0
LINE
8
BLACK
6
CONTINUOUS
10
6.17549
20
-3.49331
11
6.17859
21
-3.4975
0
LINE
8
BLACK
6
CONTINUOUS
10
6.17859
20
-3.4975
11
6.18031
21
-3.50241
0
LINE
8
BLACK
6
CONTINUOUS
10
6.18031
20
-3.50241
11
6.18061
21
-3.50566
0
LINE
8
BLACK
6
CONTINUOUS
10
6.18061
20
-3.50566
11
6.18061
21
-3.54158
0
LINE
8
BLACK
6
CONTINUOUS
10
6.18061
20
-3.54158
11
6.18031
21
-3.54483
0
LINE
8
BLACK
6
CONTINUOUS
10
6.18031
20
-3.54483
11
6.17859
21
-3.54975
0
LINE
8
BLACK
6
CONTINUOUS
10
6.17859
20
-3.54975
11
6.17549
21
-3.55394
0
LINE
8
BLACK
6
CONTINUOUS
10
6.17549
20
-3.55394
11
6.1713
21
-3.55703
0
LINE
8
BLACK
6
CONTINUOUS
10
6.1713
20
-3.55703
11
6.16639
21
-3.55875
0
LINE
8
BLACK
6
CONTINUOUS
10
6.16639
20
-3.55875
11
6.16314
21
-3.55906
0
LINE
8
BLACK
6
CONTINUOUS
10
6.16314
20
-3.55906
11
6.14395
21
-3.55906
0
LINE
8
BLACK
6
CONTINUOUS
10
6.14395
20
-3.55906
11
6.1407
21
-3.55875
0
LINE
8
BLACK
6
CONTINUOUS
10
6.1407
20
-3.55875
11
6.13578
21
-3.55703
0
LINE
8
BLACK
6
CONTINUOUS
10
6.13578
20
-3.55703
11
6.13159
21
-3.55394
0
LINE
8
BLACK
6
CONTINUOUS
10
6.13159
20
-3.55394
11
6.1285
21
-3.54975
0
LINE
8
BLACK
6
CONTINUOUS
10
6.1285
20
-3.54975
11
6.12678
21
-3.54483
0
LINE
8
BLACK
6
CONTINUOUS
10
6.12678
20
-3.54483
11
6.12648
21
-3.54158
0
LINE
8
BLACK
6
CONTINUOUS
10
6.12648
20
-3.54158
11
6.12648
21
-3.50566
0
LINE
8
BLACK
6
CONTINUOUS
10
6.12648
20
-3.50566
11
6.12678
21
-3.50241
0
LINE
8
BLACK
6
CONTINUOUS
10
6.12678
20
-3.50241
11
6.1285
21
-3.4975
0
LINE
8
BLACK
6
CONTINUOUS
10
6.1285
20
-3.4975
11
6.13159
21
-3.49331
0
LINE
8
BLACK
6
CONTINUOUS
10
6.13159
20
-3.49331
11
6.13578
21
-3.49021
0
LINE
8
BLACK
6
CONTINUOUS
10
6.13578
20
-3.49021
11
6.1407
21
-3.48849
0
LINE
8
BLACK
6
CONTINUOUS
10
6.1407
20
-3.48849
11
6.14395
21
-3.48819
0
LINE
8
BLACK
6
CONTINUOUS
10
6.14395
20
-3.48819
11
6.16314
21
-3.48819
0
LINE
8
BLACK
6
CONTINUOUS
10
6.16314
20
-3.48819
11
6.16639
21
-3.48849
0
LINE
8
BLACK
6
CONTINUOUS
10
6.352
20
-3.49565
11
6.35608
21
-3.49764
0
LINE
8
BLACK
6
CONTINUOUS
10
6.35608
20
-3.49764
11
6.35929
21
-3.50085
0
LINE
8
BLACK
6
CONTINUOUS
10
6.35929
20
-3.50085
11
6.36128
21
-3.50493
0
LINE
8
BLACK
6
CONTINUOUS
10
6.36128
20
-3.50493
11
6.36185
21
-3.50886
0
LINE
8
BLACK
6
CONTINUOUS
10
6.36185
20
-3.50886
11
6.36185
21
-3.52067
0
LINE
8
BLACK
6
CONTINUOUS
10
6.36185
20
-3.52067
11
6.36128
21
-3.5246
0
LINE
8
BLACK
6
CONTINUOUS
10
6.36128
20
-3.5246
11
6.35929
21
-3.52868
0
LINE
8
BLACK
6
CONTINUOUS
10
6.35929
20
-3.52868
11
6.35608
21
-3.53188
0
LINE
8
BLACK
6
CONTINUOUS
10
6.35608
20
-3.53188
11
6.352
21
-3.53388
0
LINE
8
BLACK
6
CONTINUOUS
10
6.352
20
-3.53388
11
6.34807
21
-3.53445
0
LINE
8
BLACK
6
CONTINUOUS
10
6.34807
20
-3.53445
11
6.29295
21
-3.53445
0
LINE
8
BLACK
6
CONTINUOUS
10
6.29295
20
-3.53445
11
6.28902
21
-3.53388
0
LINE
8
BLACK
6
CONTINUOUS
10
6.28902
20
-3.53388
11
6.28495
21
-3.53188
0
LINE
8
BLACK
6
CONTINUOUS
10
6.28495
20
-3.53188
11
6.28174
21
-3.52868
0
LINE
8
BLACK
6
CONTINUOUS
10
6.28174
20
-3.52868
11
6.27975
21
-3.5246
0
LINE
8
BLACK
6
CONTINUOUS
10
6.27975
20
-3.5246
11
6.27917
21
-3.52067
0
LINE
8
BLACK
6
CONTINUOUS
10
6.27917
20
-3.52067
11
6.27917
21
-3.50886
0
LINE
8
BLACK
6
CONTINUOUS
10
6.27917
20
-3.50886
11
6.27975
21
-3.50493
0
LINE
8
BLACK
6
CONTINUOUS
10
6.27975
20
-3.50493
11
6.28174
21
-3.50085
0
LINE
8
BLACK
6
CONTINUOUS
10
6.28174
20
-3.50085
11
6.28495
21
-3.49764
0
LINE
8
BLACK
6
CONTINUOUS
10
6.28495
20
-3.49764
11
6.28902
21
-3.49565
0
LINE
8
BLACK
6
CONTINUOUS
10
6.28902
20
-3.49565
11
6.29295
21
-3.49508
0
LINE
8
BLACK
6
CONTINUOUS
10
6.29295
20
-3.49508
11
6.34807
21
-3.49508
0
LINE
8
BLACK
6
CONTINUOUS
10
6.34807
20
-3.49508
11
6.352
21
-3.49565
0
LINE
8
BLACK
6
CONTINUOUS
10
5.55038
20
-3.48376
11
5.55498
21
-3.4861
0
LINE
8
BLACK
6
CONTINUOUS
10
5.55498
20
-3.4861
11
5.55862
21
-3.48975
0
LINE
8
BLACK
6
CONTINUOUS
10
5.55862
20
-3.48975
11
5.56096
21
-3.49434
0
LINE
8
BLACK
6
CONTINUOUS
10
5.56096
20
-3.49434
11
5.56177
21
-3.49944
0
LINE
8
BLACK
6
CONTINUOUS
10
5.56177
20
-3.49944
11
5.56177
21
-3.51666
0
LINE
8
BLACK
6
CONTINUOUS
10
5.56177
20
-3.51666
11
5.56096
21
-3.52176
0
LINE
8
BLACK
6
CONTINUOUS
10
5.56096
20
-3.52176
11
5.55862
21
-3.52635
0
LINE
8
BLACK
6
CONTINUOUS
10
5.55862
20
-3.52635
11
5.55498
21
-3.53
0
LINE
8
BLACK
6
CONTINUOUS
10
5.55498
20
-3.53
11
5.55038
21
-3.53234
0
LINE
8
BLACK
6
CONTINUOUS
10
5.55038
20
-3.53234
11
5.54529
21
-3.53315
0
LINE
8
BLACK
6
CONTINUOUS
10
5.54529
20
-3.53315
11
5.52511
21
-3.53315
0
LINE
8
BLACK
6
CONTINUOUS
10
5.52511
20
-3.53315
11
5.52001
21
-3.53234
0
LINE
8
BLACK
6
CONTINUOUS
10
5.52001
20
-3.53234
11
5.51542
21
-3.53
0
LINE
8
BLACK
6
CONTINUOUS
10
5.51542
20
-3.53
11
5.51177
21
-3.52635
0
LINE
8
BLACK
6
CONTINUOUS
10
5.51177
20
-3.52635
11
5.50943
21
-3.52176
0
LINE
8
BLACK
6
CONTINUOUS
10
5.50943
20
-3.52176
11
5.50862
21
-3.51666
0
LINE
8
BLACK
6
CONTINUOUS
10
5.50862
20
-3.51666
11
5.50862
21
-3.49944
0
LINE
8
BLACK
6
CONTINUOUS
10
5.50862
20
-3.49944
11
5.50943
21
-3.49434
0
LINE
8
BLACK
6
CONTINUOUS
10
5.50943
20
-3.49434
11
5.51177
21
-3.48975
0
LINE
8
BLACK
6
CONTINUOUS
10
5.51177
20
-3.48975
11
5.51542
21
-3.4861
0
LINE
8
BLACK
6
CONTINUOUS
10
5.51542
20
-3.4861
11
5.52001
21
-3.48376
0
LINE
8
BLACK
6
CONTINUOUS
10
5.52001
20
-3.48376
11
5.52511
21
-3.48295
0
LINE
8
BLACK
6
CONTINUOUS
10
5.52511
20
-3.48295
11
5.54529
21
-3.48295
0
LINE
8
BLACK
6
CONTINUOUS
10
5.54529
20
-3.48295
11
5.55038
21
-3.48376
0
LINE
8
BLACK
6
CONTINUOUS
10
5.66849
20
-3.48376
11
5.67309
21
-3.4861
0
LINE
8
BLACK
6
CONTINUOUS
10
5.67309
20
-3.4861
11
5.67673
21
-3.48975
0
LINE
8
BLACK
6
CONTINUOUS
10
5.67673
20
-3.48975
11
5.67908
21
-3.49434
0
LINE
8
BLACK
6
CONTINUOUS
10
5.67908
20
-3.49434
11
5.67988
21
-3.49944
0
LINE
8
BLACK
6
CONTINUOUS
10
5.67988
20
-3.49944
11
5.67988
21
-3.51666
0
LINE
8
BLACK
6
CONTINUOUS
10
5.67988
20
-3.51666
11
5.67908
21
-3.52176
0
LINE
8
BLACK
6
CONTINUOUS
10
5.67908
20
-3.52176
11
5.67673
21
-3.52635
0
LINE
8
BLACK
6
CONTINUOUS
10
5.67673
20
-3.52635
11
5.67309
21
-3.53
0
LINE
8
BLACK
6
CONTINUOUS
10
5.67309
20
-3.53
11
5.66849
21
-3.53234
0
LINE
8
BLACK
6
CONTINUOUS
10
5.66849
20
-3.53234
11
5.6634
21
-3.53315
0
LINE
8
BLACK
6
CONTINUOUS
10
5.6634
20
-3.53315
11
5.64322
21
-3.53315
0
LINE
8
BLACK
6
CONTINUOUS
10
5.64322
20
-3.53315
11
5.63812
21
-3.53234
0
LINE
8
BLACK
6
CONTINUOUS
10
5.63812
20
-3.53234
11
5.63353
21
-3.53
0
LINE
8
BLACK
6
CONTINUOUS
10
5.63353
20
-3.53
11
5.62988
21
-3.52635
0
LINE
8
BLACK
6
CONTINUOUS
10
5.62988
20
-3.52635
11
5.62754
21
-3.52176
0
LINE
8
BLACK
6
CONTINUOUS
10
5.62754
20
-3.52176
11
5.62673
21
-3.51666
0
LINE
8
BLACK
6
CONTINUOUS
10
5.62673
20
-3.51666
11
5.62673
21
-3.49944
0
LINE
8
BLACK
6
CONTINUOUS
10
5.62673
20
-3.49944
11
5.62754
21
-3.49434
0
LINE
8
BLACK
6
CONTINUOUS
10
5.62754
20
-3.49434
11
5.62988
21
-3.48975
0
LINE
8
BLACK
6
CONTINUOUS
10
5.62988
20
-3.48975
11
5.63353
21
-3.4861
0
LINE
8
BLACK
6
CONTINUOUS
10
5.63353
20
-3.4861
11
5.63812
21
-3.48376
0
LINE
8
BLACK
6
CONTINUOUS
10
5.63812
20
-3.48376
11
5.64322
21
-3.48295
0
LINE
8
BLACK
6
CONTINUOUS
10
5.64322
20
-3.48295
11
5.6634
21
-3.48295
0
LINE
8
BLACK
6
CONTINUOUS
10
5.6634
20
-3.48295
11
5.66849
21
-3.48376
0
LINE
8
BLACK
6
CONTINUOUS
10
5.55038
20
-3.42175
11
5.55498
21
-3.42409
0
LINE
8
BLACK
6
CONTINUOUS
10
5.55498
20
-3.42409
11
5.55862
21
-3.42774
0
LINE
8
BLACK
6
CONTINUOUS
10
5.55862
20
-3.42774
11
5.56096
21
-3.43234
0
LINE
8
BLACK
6
CONTINUOUS
10
5.56096
20
-3.43234
11
5.56177
21
-3.43743
0
LINE
8
BLACK
6
CONTINUOUS
10
5.56177
20
-3.43743
11
5.56177
21
-3.45466
0
LINE
8
BLACK
6
CONTINUOUS
10
5.56177
20
-3.45466
11
5.56096
21
-3.45975
0
LINE
8
BLACK
6
CONTINUOUS
10
5.56096
20
-3.45975
11
5.55862
21
-3.46435
0
LINE
8
BLACK
6
CONTINUOUS
10
5.55862
20
-3.46435
11
5.55498
21
-3.46799
0
LINE
8
BLACK
6
CONTINUOUS
10
5.55498
20
-3.46799
11
5.55038
21
-3.47033
0
LINE
8
BLACK
6
CONTINUOUS
10
5.55038
20
-3.47033
11
5.54529
21
-3.47114
0
LINE
8
BLACK
6
CONTINUOUS
10
5.54529
20
-3.47114
11
5.52511
21
-3.47114
0
LINE
8
BLACK
6
CONTINUOUS
10
5.52511
20
-3.47114
11
5.52001
21
-3.47033
0
LINE
8
BLACK
6
CONTINUOUS
10
5.52001
20
-3.47033
11
5.51542
21
-3.46799
0
LINE
8
BLACK
6
CONTINUOUS
10
5.51542
20
-3.46799
11
5.51177
21
-3.46435
0
LINE
8
BLACK
6
CONTINUOUS
10
5.51177
20
-3.46435
11
5.50943
21
-3.45975
0
LINE
8
BLACK
6
CONTINUOUS
10
5.50943
20
-3.45975
11
5.50862
21
-3.45466
0
LINE
8
BLACK
6
CONTINUOUS
10
5.50862
20
-3.45466
11
5.50862
21
-3.43743
0
LINE
8
BLACK
6
CONTINUOUS
10
5.50862
20
-3.43743
11
5.50943
21
-3.43234
0
LINE
8
BLACK
6
CONTINUOUS
10
5.50943
20
-3.43234
11
5.51177
21
-3.42774
0
LINE
8
BLACK
6
CONTINUOUS
10
5.51177
20
-3.42774
11
5.51542
21
-3.42409
0
LINE
8
BLACK
6
CONTINUOUS
10
5.51542
20
-3.42409
11
5.52001
21
-3.42175
0
LINE
8
BLACK
6
CONTINUOUS
10
5.52001
20
-3.42175
11
5.52511
21
-3.42094
0
LINE
8
BLACK
6
CONTINUOUS
10
5.52511
20
-3.42094
11
5.54529
21
-3.42094
0
LINE
8
BLACK
6
CONTINUOUS
10
5.54529
20
-3.42094
11
5.55038
21
-3.42175
0
LINE
8
BLACK
6
CONTINUOUS
10
5.66849
20
-3.42175
11
5.67309
21
-3.42409
0
LINE
8
BLACK
6
CONTINUOUS
10
5.67309
20
-3.42409
11
5.67673
21
-3.42774
0
LINE
8
BLACK
6
CONTINUOUS
10
5.67673
20
-3.42774
11
5.67908
21
-3.43234
0
LINE
8
BLACK
6
CONTINUOUS
10
5.67908
20
-3.43234
11
5.67988
21
-3.43743
0
LINE
8
BLACK
6
CONTINUOUS
10
5.67988
20
-3.43743
11
5.67988
21
-3.45466
0
LINE
8
BLACK
6
CONTINUOUS
10
5.67988
20
-3.45466
11
5.67908
21
-3.45975
0
LINE
8
BLACK
6
CONTINUOUS
10
5.67908
20
-3.45975
11
5.67673
21
-3.46435
0
LINE
8
BLACK
6
CONTINUOUS
10
5.67673
20
-3.46435
11
5.67309
21
-3.46799
0
LINE
8
BLACK
6
CONTINUOUS
10
5.67309
20
-3.46799
11
5.66849
21
-3.47033
0
LINE
8
BLACK
6
CONTINUOUS
10
5.66849
20
-3.47033
11
5.6634
21
-3.47114
0
LINE
8
BLACK
6
CONTINUOUS
10
5.6634
20
-3.47114
11
5.64322
21
-3.47114
0
LINE
8
BLACK
6
CONTINUOUS
10
5.64322
20
-3.47114
11
5.63812
21
-3.47033
0
LINE
8
BLACK
6
CONTINUOUS
10
5.63812
20
-3.47033
11
5.63353
21
-3.46799
0
LINE
8
BLACK
6
CONTINUOUS
10
5.63353
20
-3.46799
11
5.62988
21
-3.46435
0
LINE
8
BLACK
6
CONTINUOUS
10
5.62988
20
-3.46435
11
5.62754
21
-3.45975
0
LINE
8
BLACK
6
CONTINUOUS
10
5.62754
20
-3.45975
11
5.62673
21
-3.45466
0
LINE
8
BLACK
6
CONTINUOUS
10
5.62673
20
-3.45466
11
5.62673
21
-3.43743
0
LINE
8
BLACK
6
CONTINUOUS
10
5.62673
20
-3.43743
11
5.62754
21
-3.43234
0
LINE
8
BLACK
6
CONTINUOUS
10
5.62754
20
-3.43234
11
5.62988
21
-3.42774
0
LINE
8
BLACK
6
CONTINUOUS
10
5.62988
20
-3.42774
11
5.63353
21
-3.42409
0
LINE
8
BLACK
6
CONTINUOUS
10
5.63353
20
-3.42409
11
5.63812
21
-3.42175
0
LINE
8
BLACK
6
CONTINUOUS
10
5.63812
20
-3.42175
11
5.64322
21
-3.42094
0
LINE
8
BLACK
6
CONTINUOUS
10
5.64322
20
-3.42094
11
5.6634
21
-3.42094
0
LINE
8
BLACK
6
CONTINUOUS
10
5.6634
20
-3.42094
11
5.66849
21
-3.42175
0
LINE
8
BLACK
6
CONTINUOUS
10
6.4931
20
-3.41468
11
6.49808
21
-3.41642
0
LINE
8
BLACK
6
CONTINUOUS
10
6.49808
20
-3.41642
11
6.50233
21
-3.41956
0
LINE
8
BLACK
6
CONTINUOUS
10
6.50233
20
-3.41956
11
6.50547
21
-3.42381
0
LINE
8
BLACK
6
CONTINUOUS
10
6.50547
20
-3.42381
11
6.50721
21
-3.42879
0
LINE
8
BLACK
6
CONTINUOUS
10
6.50721
20
-3.42879
11
6.50752
21
-3.43209
0
LINE
8
BLACK
6
CONTINUOUS
10
6.50752
20
-3.43209
11
6.50752
21
-3.45177
0
LINE
8
BLACK
6
CONTINUOUS
10
6.50752
20
-3.45177
11
6.50721
21
-3.45507
0
LINE
8
BLACK
6
CONTINUOUS
10
6.50721
20
-3.45507
11
6.50547
21
-3.46005
0
LINE
8
BLACK
6
CONTINUOUS
10
6.50547
20
-3.46005
11
6.50233
21
-3.4643
0
LINE
8
BLACK
6
CONTINUOUS
10
6.50233
20
-3.4643
11
6.49808
21
-3.46744
0
LINE
8
BLACK
6
CONTINUOUS
10
6.49808
20
-3.46744
11
6.4931
21
-3.46918
0
LINE
8
BLACK
6
CONTINUOUS
10
6.4931
20
-3.46918
11
6.4898
21
-3.46949
0
LINE
8
BLACK
6
CONTINUOUS
10
6.4898
20
-3.46949
11
6.40319
21
-3.46949
0
LINE
8
BLACK
6
CONTINUOUS
10
6.40319
20
-3.46949
11
6.3999
21
-3.46918
0
LINE
8
BLACK
6
CONTINUOUS
10
6.3999
20
-3.46918
11
6.39491
21
-3.46744
0
LINE
8
BLACK
6
CONTINUOUS
10
6.39491
20
-3.46744
11
6.39066
21
-3.4643
0
LINE
8
BLACK
6
CONTINUOUS
10
6.39066
20
-3.4643
11
6.38753
21
-3.46005
0
LINE
8
BLACK
6
CONTINUOUS
10
6.38753
20
-3.46005
11
6.38578
21
-3.45507
0
LINE
8
BLACK
6
CONTINUOUS
10
6.38578
20
-3.45507
11
6.38547
21
-3.45177
0
LINE
8
BLACK
6
CONTINUOUS
10
6.38547
20
-3.45177
11
6.38547
21
-3.43209
0
LINE
8
BLACK
6
CONTINUOUS
10
6.38547
20
-3.43209
11
6.38578
21
-3.42879
0
LINE
8
BLACK
6
CONTINUOUS
10
6.38578
20
-3.42879
11
6.38753
21
-3.42381
0
LINE
8
BLACK
6
CONTINUOUS
10
6.38753
20
-3.42381
11
6.39066
21
-3.41956
0
LINE
8
BLACK
6
CONTINUOUS
10
6.39066
20
-3.41956
11
6.39491
21
-3.41642
0
LINE
8
BLACK
6
CONTINUOUS
10
6.39491
20
-3.41642
11
6.3999
21
-3.41468
0
LINE
8
BLACK
6
CONTINUOUS
10
6.3999
20
-3.41468
11
6.40319
21
-3.41437
0
LINE
8
BLACK
6
CONTINUOUS
10
6.40319
20
-3.41437
11
6.4898
21
-3.41437
0
LINE
8
BLACK
6
CONTINUOUS
10
6.4898
20
-3.41437
11
6.4931
21
-3.41468
0
LINE
8
BLACK
6
CONTINUOUS
10
5.45127
20
-3.30169
11
5.46049
21
-3.30486
0
LINE
8
BLACK
6
CONTINUOUS
10
5.46049
20
-3.30486
11
5.46907
21
-3.3095
0
LINE
8
BLACK
6
CONTINUOUS
10
5.46907
20
-3.3095
11
5.47677
21
-3.31549
0
LINE
8
BLACK
6
CONTINUOUS
10
5.47677
20
-3.31549
11
5.48337
21
-3.32266
0
LINE
8
BLACK
6
CONTINUOUS
10
5.48337
20
-3.32266
11
5.48871
21
-3.33083
0
LINE
8
BLACK
6
CONTINUOUS
10
5.48871
20
-3.33083
11
5.49263
21
-3.33976
0
LINE
8
BLACK
6
CONTINUOUS
10
5.49263
20
-3.33976
11
5.49502
21
-3.34922
0
LINE
8
BLACK
6
CONTINUOUS
10
5.49502
20
-3.34922
11
5.49583
21
-3.35894
0
LINE
8
BLACK
6
CONTINUOUS
10
5.49583
20
-3.35894
11
5.49502
21
-3.36866
0
LINE
8
BLACK
6
CONTINUOUS
10
5.49502
20
-3.36866
11
5.49263
21
-3.37811
0
LINE
8
BLACK
6
CONTINUOUS
10
5.49263
20
-3.37811
11
5.48871
21
-3.38704
0
LINE
8
BLACK
6
CONTINUOUS
10
5.48871
20
-3.38704
11
5.48337
21
-3.39521
0
LINE
8
BLACK
6
CONTINUOUS
10
5.48337
20
-3.39521
11
5.47677
21
-3.40239
0
LINE
8
BLACK
6
CONTINUOUS
10
5.47677
20
-3.40239
11
5.46907
21
-3.40838
0
LINE
8
BLACK
6
CONTINUOUS
10
5.46907
20
-3.40838
11
5.46049
21
-3.41302
0
LINE
8
BLACK
6
CONTINUOUS
10
5.46049
20
-3.41302
11
5.45127
21
-3.41619
0
LINE
8
BLACK
6
CONTINUOUS
10
5.45127
20
-3.41619
11
5.44165
21
-3.41779
0
LINE
8
BLACK
6
CONTINUOUS
10
5.44165
20
-3.41779
11
5.43189
21
-3.41779
0
LINE
8
BLACK
6
CONTINUOUS
10
5.43189
20
-3.41779
11
5.42227
21
-3.41619
0
LINE
8
BLACK
6
CONTINUOUS
10
5.42227
20
-3.41619
11
5.41305
21
-3.41302
0
LINE
8
BLACK
6
CONTINUOUS
10
5.41305
20
-3.41302
11
5.40447
21
-3.40838
0
LINE
8
BLACK
6
CONTINUOUS
10
5.40447
20
-3.40838
11
5.39677
21
-3.40239
0
LINE
8
BLACK
6
CONTINUOUS
10
5.39677
20
-3.40239
11
5.39017
21
-3.39521
0
LINE
8
BLACK
6
CONTINUOUS
10
5.39017
20
-3.39521
11
5.38483
21
-3.38704
0
LINE
8
BLACK
6
CONTINUOUS
10
5.38483
20
-3.38704
11
5.38092
21
-3.37811
0
LINE
8
BLACK
6
CONTINUOUS
10
5.38092
20
-3.37811
11
5.37852
21
-3.36866
0
LINE
8
BLACK
6
CONTINUOUS
10
5.37852
20
-3.36866
11
5.37772
21
-3.35894
0
LINE
8
BLACK
6
CONTINUOUS
10
5.37772
20
-3.35894
11
5.37852
21
-3.34922
0
LINE
8
BLACK
6
CONTINUOUS
10
5.37852
20
-3.34922
11
5.38092
21
-3.33976
0
LINE
8
BLACK
6
CONTINUOUS
10
5.38092
20
-3.33976
11
5.38483
21
-3.33083
0
LINE
8
BLACK
6
CONTINUOUS
10
5.38483
20
-3.33083
11
5.39017
21
-3.32266
0
LINE
8
BLACK
6
CONTINUOUS
10
5.39017
20
-3.32266
11
5.39677
21
-3.31549
0
LINE
8
BLACK
6
CONTINUOUS
10
5.39677
20
-3.31549
11
5.40447
21
-3.3095
0
LINE
8
BLACK
6
CONTINUOUS
10
5.40447
20
-3.3095
11
5.41305
21
-3.30486
0
LINE
8
BLACK
6
CONTINUOUS
10
5.41305
20
-3.30486
11
5.42227
21
-3.30169
0
LINE
8
BLACK
6
CONTINUOUS
10
5.42227
20
-3.30169
11
5.43189
21
-3.30008
0
LINE
8
BLACK
6
CONTINUOUS
10
5.43189
20
-3.30008
11
5.44165
21
-3.30008
0
LINE
8
BLACK
6
CONTINUOUS
10
5.44165
20
-3.30008
11
5.45127
21
-3.30169
0
LINE
8
BLACK
6
CONTINUOUS
10
5.84497
20
-3.30169
11
5.85419
21
-3.30486
0
LINE
8
BLACK
6
CONTINUOUS
10
5.85419
20
-3.30486
11
5.86277
21
-3.3095
0
LINE
8
BLACK
6
CONTINUOUS
10
5.86277
20
-3.3095
11
5.87047
21
-3.31549
0
LINE
8
BLACK
6
CONTINUOUS
10
5.87047
20
-3.31549
11
5.87708
21
-3.32266
0
LINE
8
BLACK
6
CONTINUOUS
10
5.87708
20
-3.32266
11
5.88241
21
-3.33083
0
LINE
8
BLACK
6
CONTINUOUS
10
5.88241
20
-3.33083
11
5.88633
21
-3.33976
0
LINE
8
BLACK
6
CONTINUOUS
10
5.88633
20
-3.33976
11
5.88872
21
-3.34922
0
LINE
8
BLACK
6
CONTINUOUS
10
5.88872
20
-3.34922
11
5.88953
21
-3.35894
0
LINE
8
BLACK
6
CONTINUOUS
10
5.88953
20
-3.35894
11
5.88872
21
-3.36866
0
LINE
8
BLACK
6
CONTINUOUS
10
5.88872
20
-3.36866
11
5.88633
21
-3.37811
0
LINE
8
BLACK
6
CONTINUOUS
10
5.88633
20
-3.37811
11
5.88241
21
-3.38704
0
LINE
8
BLACK
6
CONTINUOUS
10
5.88241
20
-3.38704
11
5.87708
21
-3.39521
0
LINE
8
BLACK
6
CONTINUOUS
10
5.87708
20
-3.39521
11
5.87047
21
-3.40239
0
LINE
8
BLACK
6
CONTINUOUS
10
5.87047
20
-3.40239
11
5.86277
21
-3.40838
0
LINE
8
BLACK
6
CONTINUOUS
10
5.86277
20
-3.40838
11
5.85419
21
-3.41302
0
LINE
8
BLACK
6
CONTINUOUS
10
5.85419
20
-3.41302
11
5.84497
21
-3.41619
0
LINE
8
BLACK
6
CONTINUOUS
10
5.84497
20
-3.41619
11
5.83535
21
-3.41779
0
LINE
8
BLACK
6
CONTINUOUS
10
5.83535
20
-3.41779
11
5.8256
21
-3.41779
0
LINE
8
BLACK
6
CONTINUOUS
10
5.8256
20
-3.41779
11
5.81598
21
-3.41619
0
LINE
8
BLACK
6
CONTINUOUS
10
5.81598
20
-3.41619
11
5.80675
21
-3.41302
0
LINE
8
BLACK
6
CONTINUOUS
10
5.80675
20
-3.41302
11
5.79817
21
-3.40838
0
LINE
8
BLACK
6
CONTINUOUS
10
5.79817
20
-3.40838
11
5.79048
21
-3.40239
0
LINE
8
BLACK
6
CONTINUOUS
10
5.79048
20
-3.40239
11
5.78387
21
-3.39521
0
LINE
8
BLACK
6
CONTINUOUS
10
5.78387
20
-3.39521
11
5.77853
21
-3.38704
0
LINE
8
BLACK
6
CONTINUOUS
10
5.77853
20
-3.38704
11
5.77462
21
-3.37811
0
LINE
8
BLACK
6
CONTINUOUS
10
5.77462
20
-3.37811
11
5.77222
21
-3.36866
0
LINE
8
BLACK
6
CONTINUOUS
10
5.77222
20
-3.36866
11
5.77142
21
-3.35894
0
LINE
8
BLACK
6
CONTINUOUS
10
5.77142
20
-3.35894
11
5.77222
21
-3.34922
0
LINE
8
BLACK
6
CONTINUOUS
10
5.77222
20
-3.34922
11
5.77462
21
-3.33976
0
LINE
8
BLACK
6
CONTINUOUS
10
5.77462
20
-3.33976
11
5.77853
21
-3.33083
0
LINE
8
BLACK
6
CONTINUOUS
10
5.77853
20
-3.33083
11
5.78387
21
-3.32266
0
LINE
8
BLACK
6
CONTINUOUS
10
5.78387
20
-3.32266
11
5.79048
21
-3.31549
0
LINE
8
BLACK
6
CONTINUOUS
10
5.79048
20
-3.31549
11
5.79817
21
-3.3095
0
LINE
8
BLACK
6
CONTINUOUS
10
5.79817
20
-3.3095
11
5.80675
21
-3.30486
0
LINE
8
BLACK
6
CONTINUOUS
10
5.80675
20
-3.30486
11
5.81598
21
-3.30169
0
LINE
8
BLACK
6
CONTINUOUS
10
5.81598
20
-3.30169
11
5.8256
21
-3.30008
0
LINE
8
BLACK
6
CONTINUOUS
10
5.8256
20
-3.30008
11
5.83535
21
-3.30008
0
LINE
8
BLACK
6
CONTINUOUS
10
5.83535
20
-3.30008
11
5.84497
21
-3.30169
0
LINE
8
BLACK
6
CONTINUOUS
10
6.23867
20
-3.30169
11
6.2479
21
-3.30486
0
LINE
8
BLACK
6
CONTINUOUS
10
6.2479
20
-3.30486
11
6.25647
21
-3.3095
0
LINE
8
BLACK
6
CONTINUOUS
10
6.25647
20
-3.3095
11
6.26417
21
-3.31549
0
LINE
8
BLACK
6
CONTINUOUS
10
6.26417
20
-3.31549
11
6.27078
21
-3.32266
0
LINE
8
BLACK
6
CONTINUOUS
10
6.27078
20
-3.32266
11
6.27611
21
-3.33083
0
LINE
8
BLACK
6
CONTINUOUS
10
6.27611
20
-3.33083
11
6.28003
21
-3.33976
0
LINE
8
BLACK
6
CONTINUOUS
10
6.28003
20
-3.33976
11
6.28242
21
-3.34922
0
LINE
8
BLACK
6
CONTINUOUS
10
6.28242
20
-3.34922
11
6.28323
21
-3.35894
0
LINE
8
BLACK
6
CONTINUOUS
10
6.28323
20
-3.35894
11
6.28242
21
-3.36866
0
LINE
8
BLACK
6
CONTINUOUS
10
6.28242
20
-3.36866
11
6.28003
21
-3.37811
0
LINE
8
BLACK
6
CONTINUOUS
10
6.28003
20
-3.37811
11
6.27611
21
-3.38704
0
LINE
8
BLACK
6
CONTINUOUS
10
6.27611
20
-3.38704
11
6.27078
21
-3.39521
0
LINE
8
BLACK
6
CONTINUOUS
10
6.27078
20
-3.39521
11
6.26417
21
-3.40239
0
LINE
8
BLACK
6
CONTINUOUS
10
6.26417
20
-3.40239
11
6.25647
21
-3.40838
0
LINE
8
BLACK
6
CONTINUOUS
10
6.25647
20
-3.40838
11
6.2479
21
-3.41302
0
LINE
8
BLACK
6
CONTINUOUS
10
6.2479
20
-3.41302
11
6.23867
21
-3.41619
0
LINE
8
BLACK
6
CONTINUOUS
10
6.23867
20
-3.41619
11
6.22905
21
-3.41779
0
LINE
8
BLACK
6
CONTINUOUS
10
6.22905
20
-3.41779
11
6.2193
21
-3.41779
0
LINE
8
BLACK
6
CONTINUOUS
10
6.2193
20
-3.41779
11
6.20968
21
-3.41619
0
LINE
8
BLACK
6
CONTINUOUS
10
6.20968
20
-3.41619
11
6.20045
21
-3.41302
0
LINE
8
BLACK
6
CONTINUOUS
10
6.20045
20
-3.41302
11
6.19187
21
-3.40838
0
LINE
8
BLACK
6
CONTINUOUS
10
6.19187
20
-3.40838
11
6.18418
21
-3.40239
0
LINE
8
BLACK
6
CONTINUOUS
10
6.18418
20
-3.40239
11
6.17757
21
-3.39521
0
LINE
8
BLACK
6
CONTINUOUS
10
6.17757
20
-3.39521
11
6.17224
21
-3.38704
0
LINE
8
BLACK
6
CONTINUOUS
10
6.17224
20
-3.38704
11
6.16832
21
-3.37811
0
LINE
8
BLACK
6
CONTINUOUS
10
6.16832
20
-3.37811
11
6.16592
21
-3.36866
0
LINE
8
BLACK
6
CONTINUOUS
10
6.16592
20
-3.36866
11
6.16512
21
-3.35894
0
LINE
8
BLACK
6
CONTINUOUS
10
6.16512
20
-3.35894
11
6.16592
21
-3.34922
0
LINE
8
BLACK
6
CONTINUOUS
10
6.16592
20
-3.34922
11
6.16832
21
-3.33976
0
LINE
8
BLACK
6
CONTINUOUS
10
6.16832
20
-3.33976
11
6.17224
21
-3.33083
0
LINE
8
BLACK
6
CONTINUOUS
10
6.17224
20
-3.33083
11
6.17757
21
-3.32266
0
LINE
8
BLACK
6
CONTINUOUS
10
6.17757
20
-3.32266
11
6.18418
21
-3.31549
0
LINE
8
BLACK
6
CONTINUOUS
10
6.18418
20
-3.31549
11
6.19187
21
-3.3095
0
LINE
8
BLACK
6
CONTINUOUS
10
6.19187
20
-3.3095
11
6.20045
21
-3.30486
0
LINE
8
BLACK
6
CONTINUOUS
10
6.20045
20
-3.30486
11
6.20968
21
-3.30169
0
LINE
8
BLACK
6
CONTINUOUS
10
6.20968
20
-3.30169
11
6.2193
21
-3.30008
0
LINE
8
BLACK
6
CONTINUOUS
10
6.2193
20
-3.30008
11
6.22905
21
-3.30008
0
LINE
8
BLACK
6
CONTINUOUS
10
6.22905
20
-3.30008
11
6.23867
21
-3.30169
  0
ENDSEC
  0
EOF
