  0
SECTION
  2
HEADER
  9
$ANGBASE
  50
0.0
  9
$ANGDIR
  70
1
  9
$MEASUREMENT
  70
0
  0
ENDSEC
  0
SECTION
  2
TABLES
  0
TABLE
  2
LTYPE
  70
4
  0
LTYPE
  5
40F
  2
CONTINUOUS
  70
0
  3
Solid line
  72
65
  73
0
  40
0.0
  0
LTYPE
  5
410
  2
DASHDOT
 70
0
  3
Dash Dot ____ _ ____ _
 72
65
 73
4
 40
2.0
 49
1.25
 49
-0.25
 49
0.25
 49
-0.25
  0
LTYPE
  5
411
  2
DASHED
 70
0
  3
Dashed __ __ __ __ __
 72
65
 73
2
 40
0.75
 49
0.5
 49
-0.25
  0
LTYPE
  5
43B
  2
DOTTED
 70
0
  3
Dotted .  .  .  .
 72
65
 73
2
 40
0.2
 49
0.0
 49
-0.2
  0
ENDTAB
  0
TABLE
  2
STYLE
  70
4
  0
STYLE
  2
KICAD
  70
0
  40
0
  41
1
  42
1
  50
0
  71
0
  3
isocp.shx
  0
STYLE
  2
KICADB
  70
0
  40
0
  41
1
  42
1
  50
0
  71
0
  3
isocp.shx
  0
STYLE
  2
KICADI
  70
0
  40
0
  41
1
  42
1
  50
15
  71
0
  3
isocp.shx
  0
STYLE
  2
KICADBI
  70
0
  40
0
  41
1
  42
1
  50
15
  71
0
  3
isocp.shx
  0
ENDTAB
  0
TABLE
  2
LAYER
  70
1
  0
LAYER
  2
BLACK
  70
0
  62
7
  6
CONTINUOUS
  0
ENDTAB
  0
ENDSEC
  0
SECTION
  2
ENTITIES
0
LINE
8
BLACK
6
CONTINUOUS
10
5.96063
20
-4.16121
11
5.9682
21
-4.1635
0
LINE
8
BLACK
6
CONTINUOUS
10
5.9682
20
-4.1635
11
5.97518
21
-4.16723
0
LINE
8
BLACK
6
CONTINUOUS
10
5.97518
20
-4.16723
11
5.98129
21
-4.17225
0
LINE
8
BLACK
6
CONTINUOUS
10
5.98129
20
-4.17225
11
5.98631
21
-4.17837
0
LINE
8
BLACK
6
CONTINUOUS
10
5.98631
20
-4.17837
11
5.99004
21
-4.18534
0
LINE
8
BLACK
6
CONTINUOUS
10
5.99004
20
-4.18534
11
5.99233
21
-4.19291
0
LINE
8
BLACK
6
CONTINUOUS
10
5.99233
20
-4.19291
11
5.99311
21
-4.20079
0
LINE
8
BLACK
6
CONTINUOUS
10
5.99311
20
-4.20079
11
5.99233
21
-4.20866
0
LINE
8
BLACK
6
CONTINUOUS
10
5.99233
20
-4.20866
11
5.99004
21
-4.21623
0
LINE
8
BLACK
6
CONTINUOUS
10
5.99004
20
-4.21623
11
5.98631
21
-4.22321
0
LINE
8
BLACK
6
CONTINUOUS
10
5.98631
20
-4.22321
11
5.98129
21
-4.22932
0
LINE
8
BLACK
6
CONTINUOUS
10
5.98129
20
-4.22932
11
5.97518
21
-4.23434
0
LINE
8
BLACK
6
CONTINUOUS
10
5.97518
20
-4.23434
11
5.9682
21
-4.23807
0
LINE
8
BLACK
6
CONTINUOUS
10
5.9682
20
-4.23807
11
5.96063
21
-4.24037
0
LINE
8
BLACK
6
CONTINUOUS
10
5.96063
20
-4.24037
11
5.95276
21
-4.24114
0
LINE
8
BLACK
6
CONTINUOUS
10
5.95276
20
-4.24114
11
5.94488
21
-4.24037
0
LINE
8
BLACK
6
CONTINUOUS
10
5.94488
20
-4.24037
11
5.93731
21
-4.23807
0
LINE
8
BLACK
6
CONTINUOUS
10
5.93731
20
-4.23807
11
5.93034
21
-4.23434
0
LINE
8
BLACK
6
CONTINUOUS
10
5.93034
20
-4.23434
11
5.92422
21
-4.22932
0
LINE
8
BLACK
6
CONTINUOUS
10
5.92422
20
-4.22932
11
5.9192
21
-4.22321
0
LINE
8
BLACK
6
CONTINUOUS
10
5.9192
20
-4.22321
11
5.91547
21
-4.21623
0
LINE
8
BLACK
6
CONTINUOUS
10
5.91547
20
-4.21623
11
5.91318
21
-4.20866
0
LINE
8
BLACK
6
CONTINUOUS
10
5.91318
20
-4.20866
11
5.9124
21
-4.20079
0
LINE
8
BLACK
6
CONTINUOUS
10
5.9124
20
-4.20079
11
5.91318
21
-4.19291
0
LINE
8
BLACK
6
CONTINUOUS
10
5.91318
20
-4.19291
11
5.91547
21
-4.18534
0
LINE
8
BLACK
6
CONTINUOUS
10
5.91547
20
-4.18534
11
5.9192
21
-4.17837
0
LINE
8
BLACK
6
CONTINUOUS
10
5.9192
20
-4.17837
11
5.92422
21
-4.17225
0
LINE
8
BLACK
6
CONTINUOUS
10
5.92422
20
-4.17225
11
5.93034
21
-4.16723
0
LINE
8
BLACK
6
CONTINUOUS
10
5.93034
20
-4.16723
11
5.93731
21
-4.1635
0
LINE
8
BLACK
6
CONTINUOUS
10
5.93731
20
-4.1635
11
5.94488
21
-4.16121
0
LINE
8
BLACK
6
CONTINUOUS
10
5.94488
20
-4.16121
11
5.95276
21
-4.16043
0
LINE
8
BLACK
6
CONTINUOUS
10
5.95276
20
-4.16043
11
5.96063
21
-4.16121
0
LINE
8
BLACK
6
CONTINUOUS
10
5.91493
20
-4.20831
11
5.91712
21
-4.21555
0
LINE
8
BLACK
6
CONTINUOUS
10
5.91712
20
-4.21555
11
5.92068
21
-4.22222
0
LINE
8
BLACK
6
CONTINUOUS
10
5.92068
20
-4.22222
11
5.92548
21
-4.22806
0
LINE
8
BLACK
6
CONTINUOUS
10
5.92548
20
-4.22806
11
5.93133
21
-4.23286
0
LINE
8
BLACK
6
CONTINUOUS
10
5.93133
20
-4.23286
11
5.938
21
-4.23642
0
LINE
8
BLACK
6
CONTINUOUS
10
5.938
20
-4.23642
11
5.94523
21
-4.23862
0
LINE
8
BLACK
6
CONTINUOUS
10
5.94523
20
-4.23862
11
5.95276
21
-4.23936
0
LINE
8
BLACK
6
CONTINUOUS
10
5.95276
20
-4.23936
11
5.96028
21
-4.23862
0
LINE
8
BLACK
6
CONTINUOUS
10
5.96028
20
-4.23862
11
5.96752
21
-4.23642
0
LINE
8
BLACK
6
CONTINUOUS
10
5.96752
20
-4.23642
11
5.97419
21
-4.23286
0
LINE
8
BLACK
6
CONTINUOUS
10
5.97419
20
-4.23286
11
5.98003
21
-4.22806
0
LINE
8
BLACK
6
CONTINUOUS
10
5.98003
20
-4.22806
11
5.98483
21
-4.22222
0
LINE
8
BLACK
6
CONTINUOUS
10
5.98483
20
-4.22222
11
5.98839
21
-4.21555
0
LINE
8
BLACK
6
CONTINUOUS
10
5.98839
20
-4.21555
11
5.99059
21
-4.20831
0
LINE
8
BLACK
6
CONTINUOUS
10
5.99059
20
-4.20831
11
5.99133
21
-4.20079
0
LINE
8
BLACK
6
CONTINUOUS
10
5.99133
20
-4.20079
11
5.99059
21
-4.19326
0
LINE
8
BLACK
6
CONTINUOUS
10
5.99059
20
-4.19326
11
5.98839
21
-4.18603
0
LINE
8
BLACK
6
CONTINUOUS
10
5.98839
20
-4.18603
11
5.98483
21
-4.17936
0
LINE
8
BLACK
6
CONTINUOUS
10
5.98483
20
-4.17936
11
5.98003
21
-4.17351
0
LINE
8
BLACK
6
CONTINUOUS
10
5.98003
20
-4.17351
11
5.97419
21
-4.16872
0
LINE
8
BLACK
6
CONTINUOUS
10
5.97419
20
-4.16872
11
5.96752
21
-4.16515
0
LINE
8
BLACK
6
CONTINUOUS
10
5.96752
20
-4.16515
11
5.96028
21
-4.16296
0
LINE
8
BLACK
6
CONTINUOUS
10
5.96028
20
-4.16296
11
5.95276
21
-4.16222
0
LINE
8
BLACK
6
CONTINUOUS
10
5.95276
20
-4.16222
11
5.94523
21
-4.16296
0
LINE
8
BLACK
6
CONTINUOUS
10
5.94523
20
-4.16296
11
5.938
21
-4.16515
0
LINE
8
BLACK
6
CONTINUOUS
10
5.938
20
-4.16515
11
5.93133
21
-4.16872
0
LINE
8
BLACK
6
CONTINUOUS
10
5.93133
20
-4.16872
11
5.92548
21
-4.17351
0
LINE
8
BLACK
6
CONTINUOUS
10
5.92548
20
-4.17351
11
5.92068
21
-4.17936
0
LINE
8
BLACK
6
CONTINUOUS
10
5.92068
20
-4.17936
11
5.91712
21
-4.18603
0
LINE
8
BLACK
6
CONTINUOUS
10
5.91712
20
-4.18603
11
5.91493
21
-4.19326
0
LINE
8
BLACK
6
CONTINUOUS
10
5.91493
20
-4.19326
11
5.91418
21
-4.20079
0
LINE
8
BLACK
6
CONTINUOUS
10
5.91418
20
-4.20079
11
5.91493
21
-4.20831
0
LINE
8
BLACK
6
CONTINUOUS
10
6.05512
20
-4.16121
11
6.06269
21
-4.1635
0
LINE
8
BLACK
6
CONTINUOUS
10
6.06269
20
-4.1635
11
6.06966
21
-4.16723
0
LINE
8
BLACK
6
CONTINUOUS
10
6.06966
20
-4.16723
11
6.07578
21
-4.17225
0
LINE
8
BLACK
6
CONTINUOUS
10
6.07578
20
-4.17225
11
6.0808
21
-4.17837
0
LINE
8
BLACK
6
CONTINUOUS
10
6.0808
20
-4.17837
11
6.08453
21
-4.18534
0
LINE
8
BLACK
6
CONTINUOUS
10
6.08453
20
-4.18534
11
6.08682
21
-4.19291
0
LINE
8
BLACK
6
CONTINUOUS
10
6.08682
20
-4.19291
11
6.0876
21
-4.20079
0
LINE
8
BLACK
6
CONTINUOUS
10
6.0876
20
-4.20079
11
6.08682
21
-4.20866
0
LINE
8
BLACK
6
CONTINUOUS
10
6.08682
20
-4.20866
11
6.08453
21
-4.21623
0
LINE
8
BLACK
6
CONTINUOUS
10
6.08453
20
-4.21623
11
6.0808
21
-4.22321
0
LINE
8
BLACK
6
CONTINUOUS
10
6.0808
20
-4.22321
11
6.07578
21
-4.22932
0
LINE
8
BLACK
6
CONTINUOUS
10
6.07578
20
-4.22932
11
6.06966
21
-4.23434
0
LINE
8
BLACK
6
CONTINUOUS
10
6.06966
20
-4.23434
11
6.06269
21
-4.23807
0
LINE
8
BLACK
6
CONTINUOUS
10
6.06269
20
-4.23807
11
6.05512
21
-4.24037
0
LINE
8
BLACK
6
CONTINUOUS
10
6.05512
20
-4.24037
11
6.04724
21
-4.24114
0
LINE
8
BLACK
6
CONTINUOUS
10
6.04724
20
-4.24114
11
6.03937
21
-4.24037
0
LINE
8
BLACK
6
CONTINUOUS
10
6.03937
20
-4.24037
11
6.0318
21
-4.23807
0
LINE
8
BLACK
6
CONTINUOUS
10
6.0318
20
-4.23807
11
6.02482
21
-4.23434
0
LINE
8
BLACK
6
CONTINUOUS
10
6.02482
20
-4.23434
11
6.01871
21
-4.22932
0
LINE
8
BLACK
6
CONTINUOUS
10
6.01871
20
-4.22932
11
6.01369
21
-4.22321
0
LINE
8
BLACK
6
CONTINUOUS
10
6.01369
20
-4.22321
11
6.00996
21
-4.21623
0
LINE
8
BLACK
6
CONTINUOUS
10
6.00996
20
-4.21623
11
6.00767
21
-4.20866
0
LINE
8
BLACK
6
CONTINUOUS
10
6.00767
20
-4.20866
11
6.00689
21
-4.20079
0
LINE
8
BLACK
6
CONTINUOUS
10
6.00689
20
-4.20079
11
6.00767
21
-4.19291
0
LINE
8
BLACK
6
CONTINUOUS
10
6.00767
20
-4.19291
11
6.00996
21
-4.18534
0
LINE
8
BLACK
6
CONTINUOUS
10
6.00996
20
-4.18534
11
6.01369
21
-4.17837
0
LINE
8
BLACK
6
CONTINUOUS
10
6.01369
20
-4.17837
11
6.01871
21
-4.17225
0
LINE
8
BLACK
6
CONTINUOUS
10
6.01871
20
-4.17225
11
6.02482
21
-4.16723
0
LINE
8
BLACK
6
CONTINUOUS
10
6.02482
20
-4.16723
11
6.0318
21
-4.1635
0
LINE
8
BLACK
6
CONTINUOUS
10
6.0318
20
-4.1635
11
6.03937
21
-4.16121
0
LINE
8
BLACK
6
CONTINUOUS
10
6.03937
20
-4.16121
11
6.04724
21
-4.16043
0
LINE
8
BLACK
6
CONTINUOUS
10
6.04724
20
-4.16043
11
6.05512
21
-4.16121
0
LINE
8
BLACK
6
CONTINUOUS
10
6.00941
20
-4.20831
11
6.01161
21
-4.21555
0
LINE
8
BLACK
6
CONTINUOUS
10
6.01161
20
-4.21555
11
6.01517
21
-4.22222
0
LINE
8
BLACK
6
CONTINUOUS
10
6.01517
20
-4.22222
11
6.01997
21
-4.22806
0
LINE
8
BLACK
6
CONTINUOUS
10
6.01997
20
-4.22806
11
6.02581
21
-4.23286
0
LINE
8
BLACK
6
CONTINUOUS
10
6.02581
20
-4.23286
11
6.03248
21
-4.23642
0
LINE
8
BLACK
6
CONTINUOUS
10
6.03248
20
-4.23642
11
6.03972
21
-4.23862
0
LINE
8
BLACK
6
CONTINUOUS
10
6.03972
20
-4.23862
11
6.04724
21
-4.23936
0
LINE
8
BLACK
6
CONTINUOUS
10
6.04724
20
-4.23936
11
6.05477
21
-4.23862
0
LINE
8
BLACK
6
CONTINUOUS
10
6.05477
20
-4.23862
11
6.062
21
-4.23642
0
LINE
8
BLACK
6
CONTINUOUS
10
6.062
20
-4.23642
11
6.06867
21
-4.23286
0
LINE
8
BLACK
6
CONTINUOUS
10
6.06867
20
-4.23286
11
6.07452
21
-4.22806
0
LINE
8
BLACK
6
CONTINUOUS
10
6.07452
20
-4.22806
11
6.07932
21
-4.22222
0
LINE
8
BLACK
6
CONTINUOUS
10
6.07932
20
-4.22222
11
6.08288
21
-4.21555
0
LINE
8
BLACK
6
CONTINUOUS
10
6.08288
20
-4.21555
11
6.08507
21
-4.20831
0
LINE
8
BLACK
6
CONTINUOUS
10
6.08507
20
-4.20831
11
6.08582
21
-4.20079
0
LINE
8
BLACK
6
CONTINUOUS
10
6.08582
20
-4.20079
11
6.08507
21
-4.19326
0
LINE
8
BLACK
6
CONTINUOUS
10
6.08507
20
-4.19326
11
6.08288
21
-4.18603
0
LINE
8
BLACK
6
CONTINUOUS
10
6.08288
20
-4.18603
11
6.07932
21
-4.17936
0
LINE
8
BLACK
6
CONTINUOUS
10
6.07932
20
-4.17936
11
6.07452
21
-4.17351
0
LINE
8
BLACK
6
CONTINUOUS
10
6.07452
20
-4.17351
11
6.06867
21
-4.16872
0
LINE
8
BLACK
6
CONTINUOUS
10
6.06867
20
-4.16872
11
6.062
21
-4.16515
0
LINE
8
BLACK
6
CONTINUOUS
10
6.062
20
-4.16515
11
6.05477
21
-4.16296
0
LINE
8
BLACK
6
CONTINUOUS
10
6.05477
20
-4.16296
11
6.04724
21
-4.16222
0
LINE
8
BLACK
6
CONTINUOUS
10
6.04724
20
-4.16222
11
6.03972
21
-4.16296
0
LINE
8
BLACK
6
CONTINUOUS
10
6.03972
20
-4.16296
11
6.03248
21
-4.16515
0
LINE
8
BLACK
6
CONTINUOUS
10
6.03248
20
-4.16515
11
6.02581
21
-4.16872
0
LINE
8
BLACK
6
CONTINUOUS
10
6.02581
20
-4.16872
11
6.01997
21
-4.17351
0
LINE
8
BLACK
6
CONTINUOUS
10
6.01997
20
-4.17351
11
6.01517
21
-4.17936
0
LINE
8
BLACK
6
CONTINUOUS
10
6.01517
20
-4.17936
11
6.01161
21
-4.18603
0
LINE
8
BLACK
6
CONTINUOUS
10
6.01161
20
-4.18603
11
6.00941
21
-4.19326
0
LINE
8
BLACK
6
CONTINUOUS
10
6.00941
20
-4.19326
11
6.00867
21
-4.20079
0
LINE
8
BLACK
6
CONTINUOUS
10
6.00867
20
-4.20079
11
6.00941
21
-4.20831
0
LINE
8
BLACK
6
CONTINUOUS
10
5.96063
20
-4.07853
11
5.9682
21
-4.08083
0
LINE
8
BLACK
6
CONTINUOUS
10
5.9682
20
-4.08083
11
5.97518
21
-4.08456
0
LINE
8
BLACK
6
CONTINUOUS
10
5.97518
20
-4.08456
11
5.98129
21
-4.08958
0
LINE
8
BLACK
6
CONTINUOUS
10
5.98129
20
-4.08958
11
5.98631
21
-4.09569
0
LINE
8
BLACK
6
CONTINUOUS
10
5.98631
20
-4.09569
11
5.99004
21
-4.10267
0
LINE
8
BLACK
6
CONTINUOUS
10
5.99004
20
-4.10267
11
5.99233
21
-4.11024
0
LINE
8
BLACK
6
CONTINUOUS
10
5.99233
20
-4.11024
11
5.99311
21
-4.11811
0
LINE
8
BLACK
6
CONTINUOUS
10
5.99311
20
-4.11811
11
5.99233
21
-4.12598
0
LINE
8
BLACK
6
CONTINUOUS
10
5.99233
20
-4.12598
11
5.99004
21
-4.13355
0
LINE
8
BLACK
6
CONTINUOUS
10
5.99004
20
-4.13355
11
5.98631
21
-4.14053
0
LINE
8
BLACK
6
CONTINUOUS
10
5.98631
20
-4.14053
11
5.98129
21
-4.14665
0
LINE
8
BLACK
6
CONTINUOUS
10
5.98129
20
-4.14665
11
5.97518
21
-4.15166
0
LINE
8
BLACK
6
CONTINUOUS
10
5.97518
20
-4.15166
11
5.9682
21
-4.15539
0
LINE
8
BLACK
6
CONTINUOUS
10
5.9682
20
-4.15539
11
5.96063
21
-4.15769
0
LINE
8
BLACK
6
CONTINUOUS
10
5.96063
20
-4.15769
11
5.95276
21
-4.15846
0
LINE
8
BLACK
6
CONTINUOUS
10
5.95276
20
-4.15846
11
5.94488
21
-4.15769
0
LINE
8
BLACK
6
CONTINUOUS
10
5.94488
20
-4.15769
11
5.93731
21
-4.15539
0
LINE
8
BLACK
6
CONTINUOUS
10
5.93731
20
-4.15539
11
5.93034
21
-4.15166
0
LINE
8
BLACK
6
CONTINUOUS
10
5.93034
20
-4.15166
11
5.92422
21
-4.14665
0
LINE
8
BLACK
6
CONTINUOUS
10
5.92422
20
-4.14665
11
5.9192
21
-4.14053
0
LINE
8
BLACK
6
CONTINUOUS
10
5.9192
20
-4.14053
11
5.91547
21
-4.13355
0
LINE
8
BLACK
6
CONTINUOUS
10
5.91547
20
-4.13355
11
5.91318
21
-4.12598
0
LINE
8
BLACK
6
CONTINUOUS
10
5.91318
20
-4.12598
11
5.9124
21
-4.11811
0
LINE
8
BLACK
6
CONTINUOUS
10
5.9124
20
-4.11811
11
5.91318
21
-4.11024
0
LINE
8
BLACK
6
CONTINUOUS
10
5.91318
20
-4.11024
11
5.91547
21
-4.10267
0
LINE
8
BLACK
6
CONTINUOUS
10
5.91547
20
-4.10267
11
5.9192
21
-4.09569
0
LINE
8
BLACK
6
CONTINUOUS
10
5.9192
20
-4.09569
11
5.92422
21
-4.08958
0
LINE
8
BLACK
6
CONTINUOUS
10
5.92422
20
-4.08958
11
5.93034
21
-4.08456
0
LINE
8
BLACK
6
CONTINUOUS
10
5.93034
20
-4.08456
11
5.93731
21
-4.08083
0
LINE
8
BLACK
6
CONTINUOUS
10
5.93731
20
-4.08083
11
5.94488
21
-4.07853
0
LINE
8
BLACK
6
CONTINUOUS
10
5.94488
20
-4.07853
11
5.95276
21
-4.07776
0
LINE
8
BLACK
6
CONTINUOUS
10
5.95276
20
-4.07776
11
5.96063
21
-4.07853
0
LINE
8
BLACK
6
CONTINUOUS
10
5.91493
20
-4.12564
11
5.91712
21
-4.13287
0
LINE
8
BLACK
6
CONTINUOUS
10
5.91712
20
-4.13287
11
5.92068
21
-4.13954
0
LINE
8
BLACK
6
CONTINUOUS
10
5.92068
20
-4.13954
11
5.92548
21
-4.14538
0
LINE
8
BLACK
6
CONTINUOUS
10
5.92548
20
-4.14538
11
5.93133
21
-4.15018
0
LINE
8
BLACK
6
CONTINUOUS
10
5.93133
20
-4.15018
11
5.938
21
-4.15375
0
LINE
8
BLACK
6
CONTINUOUS
10
5.938
20
-4.15375
11
5.94523
21
-4.15594
0
LINE
8
BLACK
6
CONTINUOUS
10
5.94523
20
-4.15594
11
5.95276
21
-4.15668
0
LINE
8
BLACK
6
CONTINUOUS
10
5.95276
20
-4.15668
11
5.96028
21
-4.15594
0
LINE
8
BLACK
6
CONTINUOUS
10
5.96028
20
-4.15594
11
5.96752
21
-4.15375
0
LINE
8
BLACK
6
CONTINUOUS
10
5.96752
20
-4.15375
11
5.97419
21
-4.15018
0
LINE
8
BLACK
6
CONTINUOUS
10
5.97419
20
-4.15018
11
5.98003
21
-4.14538
0
LINE
8
BLACK
6
CONTINUOUS
10
5.98003
20
-4.14538
11
5.98483
21
-4.13954
0
LINE
8
BLACK
6
CONTINUOUS
10
5.98483
20
-4.13954
11
5.98839
21
-4.13287
0
LINE
8
BLACK
6
CONTINUOUS
10
5.98839
20
-4.13287
11
5.99059
21
-4.12564
0
LINE
8
BLACK
6
CONTINUOUS
10
5.99059
20
-4.12564
11
5.99133
21
-4.11811
0
LINE
8
BLACK
6
CONTINUOUS
10
5.99133
20
-4.11811
11
5.99059
21
-4.11059
0
LINE
8
BLACK
6
CONTINUOUS
10
5.99059
20
-4.11059
11
5.98839
21
-4.10335
0
LINE
8
BLACK
6
CONTINUOUS
10
5.98839
20
-4.10335
11
5.98483
21
-4.09668
0
LINE
8
BLACK
6
CONTINUOUS
10
5.98483
20
-4.09668
11
5.98003
21
-4.09084
0
LINE
8
BLACK
6
CONTINUOUS
10
5.98003
20
-4.09084
11
5.97419
21
-4.08604
0
LINE
8
BLACK
6
CONTINUOUS
10
5.97419
20
-4.08604
11
5.96752
21
-4.08247
0
LINE
8
BLACK
6
CONTINUOUS
10
5.96752
20
-4.08247
11
5.96028
21
-4.08028
0
LINE
8
BLACK
6
CONTINUOUS
10
5.96028
20
-4.08028
11
5.95276
21
-4.07954
0
LINE
8
BLACK
6
CONTINUOUS
10
5.95276
20
-4.07954
11
5.94523
21
-4.08028
0
LINE
8
BLACK
6
CONTINUOUS
10
5.94523
20
-4.08028
11
5.938
21
-4.08247
0
LINE
8
BLACK
6
CONTINUOUS
10
5.938
20
-4.08247
11
5.93133
21
-4.08604
0
LINE
8
BLACK
6
CONTINUOUS
10
5.93133
20
-4.08604
11
5.92548
21
-4.09084
0
LINE
8
BLACK
6
CONTINUOUS
10
5.92548
20
-4.09084
11
5.92068
21
-4.09668
0
LINE
8
BLACK
6
CONTINUOUS
10
5.92068
20
-4.09668
11
5.91712
21
-4.10335
0
LINE
8
BLACK
6
CONTINUOUS
10
5.91712
20
-4.10335
11
5.91493
21
-4.11059
0
LINE
8
BLACK
6
CONTINUOUS
10
5.91493
20
-4.11059
11
5.91418
21
-4.11811
0
LINE
8
BLACK
6
CONTINUOUS
10
5.91418
20
-4.11811
11
5.91493
21
-4.12564
0
LINE
8
BLACK
6
CONTINUOUS
10
6.05512
20
-4.07853
11
6.06269
21
-4.08083
0
LINE
8
BLACK
6
CONTINUOUS
10
6.06269
20
-4.08083
11
6.06966
21
-4.08456
0
LINE
8
BLACK
6
CONTINUOUS
10
6.06966
20
-4.08456
11
6.07578
21
-4.08958
0
LINE
8
BLACK
6
CONTINUOUS
10
6.07578
20
-4.08958
11
6.0808
21
-4.09569
0
LINE
8
BLACK
6
CONTINUOUS
10
6.0808
20
-4.09569
11
6.08453
21
-4.10267
0
LINE
8
BLACK
6
CONTINUOUS
10
6.08453
20
-4.10267
11
6.08682
21
-4.11024
0
LINE
8
BLACK
6
CONTINUOUS
10
6.08682
20
-4.11024
11
6.0876
21
-4.11811
0
LINE
8
BLACK
6
CONTINUOUS
10
6.0876
20
-4.11811
11
6.08682
21
-4.12598
0
LINE
8
BLACK
6
CONTINUOUS
10
6.08682
20
-4.12598
11
6.08453
21
-4.13355
0
LINE
8
BLACK
6
CONTINUOUS
10
6.08453
20
-4.13355
11
6.0808
21
-4.14053
0
LINE
8
BLACK
6
CONTINUOUS
10
6.0808
20
-4.14053
11
6.07578
21
-4.14665
0
LINE
8
BLACK
6
CONTINUOUS
10
6.07578
20
-4.14665
11
6.06966
21
-4.15166
0
LINE
8
BLACK
6
CONTINUOUS
10
6.06966
20
-4.15166
11
6.06269
21
-4.15539
0
LINE
8
BLACK
6
CONTINUOUS
10
6.06269
20
-4.15539
11
6.05512
21
-4.15769
0
LINE
8
BLACK
6
CONTINUOUS
10
6.05512
20
-4.15769
11
6.04724
21
-4.15846
0
LINE
8
BLACK
6
CONTINUOUS
10
6.04724
20
-4.15846
11
6.03937
21
-4.15769
0
LINE
8
BLACK
6
CONTINUOUS
10
6.03937
20
-4.15769
11
6.0318
21
-4.15539
0
LINE
8
BLACK
6
CONTINUOUS
10
6.0318
20
-4.15539
11
6.02482
21
-4.15166
0
LINE
8
BLACK
6
CONTINUOUS
10
6.02482
20
-4.15166
11
6.01871
21
-4.14665
0
LINE
8
BLACK
6
CONTINUOUS
10
6.01871
20
-4.14665
11
6.01369
21
-4.14053
0
LINE
8
BLACK
6
CONTINUOUS
10
6.01369
20
-4.14053
11
6.00996
21
-4.13355
0
LINE
8
BLACK
6
CONTINUOUS
10
6.00996
20
-4.13355
11
6.00767
21
-4.12598
0
LINE
8
BLACK
6
CONTINUOUS
10
6.00767
20
-4.12598
11
6.00689
21
-4.11811
0
LINE
8
BLACK
6
CONTINUOUS
10
6.00689
20
-4.11811
11
6.00767
21
-4.11024
0
LINE
8
BLACK
6
CONTINUOUS
10
6.00767
20
-4.11024
11
6.00996
21
-4.10267
0
LINE
8
BLACK
6
CONTINUOUS
10
6.00996
20
-4.10267
11
6.01369
21
-4.09569
0
LINE
8
BLACK
6
CONTINUOUS
10
6.01369
20
-4.09569
11
6.01871
21
-4.08958
0
LINE
8
BLACK
6
CONTINUOUS
10
6.01871
20
-4.08958
11
6.02482
21
-4.08456
0
LINE
8
BLACK
6
CONTINUOUS
10
6.02482
20
-4.08456
11
6.0318
21
-4.08083
0
LINE
8
BLACK
6
CONTINUOUS
10
6.0318
20
-4.08083
11
6.03937
21
-4.07853
0
LINE
8
BLACK
6
CONTINUOUS
10
6.03937
20
-4.07853
11
6.04724
21
-4.07776
0
LINE
8
BLACK
6
CONTINUOUS
10
6.04724
20
-4.07776
11
6.05512
21
-4.07853
0
LINE
8
BLACK
6
CONTINUOUS
10
6.00941
20
-4.12564
11
6.01161
21
-4.13287
0
LINE
8
BLACK
6
CONTINUOUS
10
6.01161
20
-4.13287
11
6.01517
21
-4.13954
0
LINE
8
BLACK
6
CONTINUOUS
10
6.01517
20
-4.13954
11
6.01997
21
-4.14538
0
LINE
8
BLACK
6
CONTINUOUS
10
6.01997
20
-4.14538
11
6.02581
21
-4.15018
0
LINE
8
BLACK
6
CONTINUOUS
10
6.02581
20
-4.15018
11
6.03248
21
-4.15375
0
LINE
8
BLACK
6
CONTINUOUS
10
6.03248
20
-4.15375
11
6.03972
21
-4.15594
0
LINE
8
BLACK
6
CONTINUOUS
10
6.03972
20
-4.15594
11
6.04724
21
-4.15668
0
LINE
8
BLACK
6
CONTINUOUS
10
6.04724
20
-4.15668
11
6.05477
21
-4.15594
0
LINE
8
BLACK
6
CONTINUOUS
10
6.05477
20
-4.15594
11
6.062
21
-4.15375
0
LINE
8
BLACK
6
CONTINUOUS
10
6.062
20
-4.15375
11
6.06867
21
-4.15018
0
LINE
8
BLACK
6
CONTINUOUS
10
6.06867
20
-4.15018
11
6.07452
21
-4.14538
0
LINE
8
BLACK
6
CONTINUOUS
10
6.07452
20
-4.14538
11
6.07932
21
-4.13954
0
LINE
8
BLACK
6
CONTINUOUS
10
6.07932
20
-4.13954
11
6.08288
21
-4.13287
0
LINE
8
BLACK
6
CONTINUOUS
10
6.08288
20
-4.13287
11
6.08507
21
-4.12564
0
LINE
8
BLACK
6
CONTINUOUS
10
6.08507
20
-4.12564
11
6.08582
21
-4.11811
0
LINE
8
BLACK
6
CONTINUOUS
10
6.08582
20
-4.11811
11
6.08507
21
-4.11059
0
LINE
8
BLACK
6
CONTINUOUS
10
6.08507
20
-4.11059
11
6.08288
21
-4.10335
0
LINE
8
BLACK
6
CONTINUOUS
10
6.08288
20
-4.10335
11
6.07932
21
-4.09668
0
LINE
8
BLACK
6
CONTINUOUS
10
6.07932
20
-4.09668
11
6.07452
21
-4.09084
0
LINE
8
BLACK
6
CONTINUOUS
10
6.07452
20
-4.09084
11
6.06867
21
-4.08604
0
LINE
8
BLACK
6
CONTINUOUS
10
6.06867
20
-4.08604
11
6.062
21
-4.08247
0
LINE
8
BLACK
6
CONTINUOUS
10
6.062
20
-4.08247
11
6.05477
21
-4.08028
0
LINE
8
BLACK
6
CONTINUOUS
10
6.05477
20
-4.08028
11
6.04724
21
-4.07954
0
LINE
8
BLACK
6
CONTINUOUS
10
6.04724
20
-4.07954
11
6.03972
21
-4.08028
0
LINE
8
BLACK
6
CONTINUOUS
10
6.03972
20
-4.08028
11
6.03248
21
-4.08247
0
LINE
8
BLACK
6
CONTINUOUS
10
6.03248
20
-4.08247
11
6.02581
21
-4.08604
0
LINE
8
BLACK
6
CONTINUOUS
10
6.02581
20
-4.08604
11
6.01997
21
-4.09084
0
LINE
8
BLACK
6
CONTINUOUS
10
6.01997
20
-4.09084
11
6.01517
21
-4.09668
0
LINE
8
BLACK
6
CONTINUOUS
10
6.01517
20
-4.09668
11
6.01161
21
-4.10335
0
LINE
8
BLACK
6
CONTINUOUS
10
6.01161
20
-4.10335
11
6.00941
21
-4.11059
0
LINE
8
BLACK
6
CONTINUOUS
10
6.00941
20
-4.11059
11
6.00867
21
-4.11811
0
LINE
8
BLACK
6
CONTINUOUS
10
6.00867
20
-4.11811
11
6.00941
21
-4.12564
  0
ENDSEC
  0
EOF
