  0
SECTION
  2
HEADER
  9
$ANGBASE
  50
0.0
  9
$ANGDIR
  70
1
  9
$MEASUREMENT
  70
0
  0
ENDSEC
  0
SECTION
  2
TABLES
  0
TABLE
  2
LTYPE
  70
4
  0
LTYPE
  5
40F
  2
CONTINUOUS
  70
0
  3
Solid line
  72
65
  73
0
  40
0.0
  0
LTYPE
  5
410
  2
DASHDOT
 70
0
  3
Dash Dot ____ _ ____ _
 72
65
 73
4
 40
2.0
 49
1.25
 49
-0.25
 49
0.25
 49
-0.25
  0
LTYPE
  5
411
  2
DASHED
 70
0
  3
Dashed __ __ __ __ __
 72
65
 73
2
 40
0.75
 49
0.5
 49
-0.25
  0
LTYPE
  5
43B
  2
DOTTED
 70
0
  3
Dotted .  .  .  .
 72
65
 73
2
 40
0.2
 49
0.0
 49
-0.2
  0
ENDTAB
  0
TABLE
  2
STYLE
  70
4
  0
STYLE
  2
KICAD
  70
0
  40
0
  41
1
  42
1
  50
0
  71
0
  3
isocp.shx
  0
STYLE
  2
KICADB
  70
0
  40
0
  41
1
  42
1
  50
0
  71
0
  3
isocp.shx
  0
STYLE
  2
KICADI
  70
0
  40
0
  41
1
  42
1
  50
15
  71
0
  3
isocp.shx
  0
STYLE
  2
KICADBI
  70
0
  40
0
  41
1
  42
1
  50
15
  71
0
  3
isocp.shx
  0
ENDTAB
  0
TABLE
  2
LAYER
  70
1
  0
LAYER
  2
BLACK
  70
0
  62
7
  6
CONTINUOUS
  0
ENDTAB
  0
ENDSEC
  0
SECTION
  2
ENTITIES
0
LINE
8
BLACK
6
CONTINUOUS
10
6.51933
20
-4.02343
11
6.52003
21
-4.02371
0
LINE
8
BLACK
6
CONTINUOUS
10
6.52003
20
-4.02371
11
6.52031
21
-4.02441
0
LINE
8
BLACK
6
CONTINUOUS
10
6.52031
20
-4.02441
11
6.52031
21
-4.49528
0
LINE
8
BLACK
6
CONTINUOUS
10
6.52031
20
-4.49528
11
6.52003
21
-4.49597
0
LINE
8
BLACK
6
CONTINUOUS
10
6.52003
20
-4.49597
11
6.51933
21
-4.49626
0
LINE
8
BLACK
6
CONTINUOUS
10
6.51933
20
-4.49626
11
6.26736
21
-4.49626
0
LINE
8
BLACK
6
CONTINUOUS
10
6.26736
20
-4.49626
11
6.26667
21
-4.49597
0
LINE
8
BLACK
6
CONTINUOUS
10
6.26667
20
-4.49597
11
6.26638
21
-4.49528
0
LINE
8
BLACK
6
CONTINUOUS
10
6.26638
20
-4.49528
11
6.26638
21
-4.49528
0
LINE
8
BLACK
6
CONTINUOUS
10
6.26638
20
-4.49528
11
6.26638
21
-4.02441
0
LINE
8
BLACK
6
CONTINUOUS
10
6.26638
20
-4.02441
11
6.26667
21
-4.02371
0
LINE
8
BLACK
6
CONTINUOUS
10
6.26667
20
-4.02371
11
6.26736
21
-4.02343
0
LINE
8
BLACK
6
CONTINUOUS
10
6.26736
20
-4.02343
11
6.51933
21
-4.02343
0
LINE
8
BLACK
6
CONTINUOUS
10
6.26835
20
-4.02539
11
6.26835
21
-4.49429
0
LINE
8
BLACK
6
CONTINUOUS
10
6.26835
20
-4.49429
11
6.51835
21
-4.49429
0
LINE
8
BLACK
6
CONTINUOUS
10
6.51835
20
-4.49429
11
6.51835
21
-4.02539
0
LINE
8
BLACK
6
CONTINUOUS
10
6.51835
20
-4.02539
11
6.26835
21
-4.02539
0
LINE
8
BLACK
6
CONTINUOUS
10
5.6311
20
-4.35118
11
5.6318
21
-4.35147
0
LINE
8
BLACK
6
CONTINUOUS
10
5.6318
20
-4.35147
11
5.63209
21
-4.35217
0
LINE
8
BLACK
6
CONTINUOUS
10
5.63209
20
-4.35217
11
5.63209
21
-4.4687
0
LINE
8
BLACK
6
CONTINUOUS
10
5.63209
20
-4.4687
11
5.6318
21
-4.4694
0
LINE
8
BLACK
6
CONTINUOUS
10
5.6318
20
-4.4694
11
5.6311
21
-4.46969
0
LINE
8
BLACK
6
CONTINUOUS
10
5.6311
20
-4.46969
11
5.57362
21
-4.46969
0
LINE
8
BLACK
6
CONTINUOUS
10
5.57362
20
-4.46969
11
5.57293
21
-4.4694
0
LINE
8
BLACK
6
CONTINUOUS
10
5.57293
20
-4.4694
11
5.57264
21
-4.4687
0
LINE
8
BLACK
6
CONTINUOUS
10
5.57264
20
-4.4687
11
5.57264
21
-4.35217
0
LINE
8
BLACK
6
CONTINUOUS
10
5.57264
20
-4.35217
11
5.57293
21
-4.35147
0
LINE
8
BLACK
6
CONTINUOUS
10
5.57293
20
-4.35147
11
5.57362
21
-4.35118
0
LINE
8
BLACK
6
CONTINUOUS
10
5.57362
20
-4.35118
11
5.6311
21
-4.35118
0
LINE
8
BLACK
6
CONTINUOUS
10
5.57461
20
-4.35315
11
5.57461
21
-4.46772
0
LINE
8
BLACK
6
CONTINUOUS
10
5.57461
20
-4.46772
11
5.63012
21
-4.46772
0
LINE
8
BLACK
6
CONTINUOUS
10
5.63012
20
-4.46772
11
5.63012
21
-4.35315
0
LINE
8
BLACK
6
CONTINUOUS
10
5.63012
20
-4.35315
11
5.57461
21
-4.35315
0
LINE
8
BLACK
6
CONTINUOUS
10
5.56417
20
-4.3502
11
5.56487
21
-4.35049
0
LINE
8
BLACK
6
CONTINUOUS
10
5.56487
20
-4.35049
11
5.56516
21
-4.35118
0
LINE
8
BLACK
6
CONTINUOUS
10
5.56516
20
-4.35118
11
5.56516
21
-4.46772
0
LINE
8
BLACK
6
CONTINUOUS
10
5.56516
20
-4.46772
11
5.56487
21
-4.46841
0
LINE
8
BLACK
6
CONTINUOUS
10
5.56487
20
-4.46841
11
5.56417
21
-4.4687
0
LINE
8
BLACK
6
CONTINUOUS
10
5.56417
20
-4.4687
11
5.50669
21
-4.4687
0
LINE
8
BLACK
6
CONTINUOUS
10
5.50669
20
-4.4687
11
5.506
21
-4.46841
0
LINE
8
BLACK
6
CONTINUOUS
10
5.506
20
-4.46841
11
5.50571
21
-4.46772
0
LINE
8
BLACK
6
CONTINUOUS
10
5.50571
20
-4.46772
11
5.50571
21
-4.35118
0
LINE
8
BLACK
6
CONTINUOUS
10
5.50571
20
-4.35118
11
5.506
21
-4.35049
0
LINE
8
BLACK
6
CONTINUOUS
10
5.506
20
-4.35049
11
5.50669
21
-4.3502
0
LINE
8
BLACK
6
CONTINUOUS
10
5.50669
20
-4.3502
11
5.56417
21
-4.3502
0
LINE
8
BLACK
6
CONTINUOUS
10
5.50768
20
-4.35217
11
5.50768
21
-4.46673
0
LINE
8
BLACK
6
CONTINUOUS
10
5.50768
20
-4.46673
11
5.56319
21
-4.46673
0
LINE
8
BLACK
6
CONTINUOUS
10
5.56319
20
-4.46673
11
5.56319
21
-4.35217
0
LINE
8
BLACK
6
CONTINUOUS
10
5.56319
20
-4.35217
11
5.50768
21
-4.35217
0
LINE
8
BLACK
6
CONTINUOUS
10
5.88868
20
-4.24584
11
5.89513
21
-4.2481
0
LINE
8
BLACK
6
CONTINUOUS
10
5.89513
20
-4.2481
11
5.90091
21
-4.25174
0
LINE
8
BLACK
6
CONTINUOUS
10
5.90091
20
-4.25174
11
5.90574
21
-4.25657
0
LINE
8
BLACK
6
CONTINUOUS
10
5.90574
20
-4.25657
11
5.90938
21
-4.26235
0
LINE
8
BLACK
6
CONTINUOUS
10
5.90938
20
-4.26235
11
5.91164
21
-4.2688
0
LINE
8
BLACK
6
CONTINUOUS
10
5.91164
20
-4.2688
11
5.9124
21
-4.27559
0
LINE
8
BLACK
6
CONTINUOUS
10
5.9124
20
-4.27559
11
5.91164
21
-4.28238
0
LINE
8
BLACK
6
CONTINUOUS
10
5.91164
20
-4.28238
11
5.90938
21
-4.28883
0
LINE
8
BLACK
6
CONTINUOUS
10
5.90938
20
-4.28883
11
5.90574
21
-4.29461
0
LINE
8
BLACK
6
CONTINUOUS
10
5.90574
20
-4.29461
11
5.90091
21
-4.29945
0
LINE
8
BLACK
6
CONTINUOUS
10
5.90091
20
-4.29945
11
5.89513
21
-4.30308
0
LINE
8
BLACK
6
CONTINUOUS
10
5.89513
20
-4.30308
11
5.88868
21
-4.30534
0
LINE
8
BLACK
6
CONTINUOUS
10
5.88868
20
-4.30534
11
5.88189
21
-4.3061
0
LINE
8
BLACK
6
CONTINUOUS
10
5.88189
20
-4.3061
11
5.8751
21
-4.30534
0
LINE
8
BLACK
6
CONTINUOUS
10
5.8751
20
-4.30534
11
5.86865
21
-4.30308
0
LINE
8
BLACK
6
CONTINUOUS
10
5.86865
20
-4.30308
11
5.86287
21
-4.29945
0
LINE
8
BLACK
6
CONTINUOUS
10
5.86287
20
-4.29945
11
5.85803
21
-4.29461
0
LINE
8
BLACK
6
CONTINUOUS
10
5.85803
20
-4.29461
11
5.8544
21
-4.28883
0
LINE
8
BLACK
6
CONTINUOUS
10
5.8544
20
-4.28883
11
5.85214
21
-4.28238
0
LINE
8
BLACK
6
CONTINUOUS
10
5.85214
20
-4.28238
11
5.85138
21
-4.27559
0
LINE
8
BLACK
6
CONTINUOUS
10
5.85138
20
-4.27559
11
5.85214
21
-4.2688
0
LINE
8
BLACK
6
CONTINUOUS
10
5.85214
20
-4.2688
11
5.8544
21
-4.26235
0
LINE
8
BLACK
6
CONTINUOUS
10
5.8544
20
-4.26235
11
5.85803
21
-4.25657
0
LINE
8
BLACK
6
CONTINUOUS
10
5.85803
20
-4.25657
11
5.86287
21
-4.25174
0
LINE
8
BLACK
6
CONTINUOUS
10
5.86287
20
-4.25174
11
5.86865
21
-4.2481
0
LINE
8
BLACK
6
CONTINUOUS
10
5.86865
20
-4.2481
11
5.8751
21
-4.24584
0
LINE
8
BLACK
6
CONTINUOUS
10
5.8751
20
-4.24584
11
5.88189
21
-4.24508
0
LINE
8
BLACK
6
CONTINUOUS
10
5.88189
20
-4.24508
11
5.88868
21
-4.24584
0
LINE
8
BLACK
6
CONTINUOUS
10
5.85389
20
-4.28198
11
5.85601
21
-4.28805
0
LINE
8
BLACK
6
CONTINUOUS
10
5.85601
20
-4.28805
11
5.85943
21
-4.2935
0
LINE
8
BLACK
6
CONTINUOUS
10
5.85943
20
-4.2935
11
5.86398
21
-4.29805
0
LINE
8
BLACK
6
CONTINUOUS
10
5.86398
20
-4.29805
11
5.86943
21
-4.30147
0
LINE
8
BLACK
6
CONTINUOUS
10
5.86943
20
-4.30147
11
5.8755
21
-4.30359
0
LINE
8
BLACK
6
CONTINUOUS
10
5.8755
20
-4.30359
11
5.88189
21
-4.30431
0
LINE
8
BLACK
6
CONTINUOUS
10
5.88189
20
-4.30431
11
5.88828
21
-4.30359
0
LINE
8
BLACK
6
CONTINUOUS
10
5.88828
20
-4.30359
11
5.89435
21
-4.30147
0
LINE
8
BLACK
6
CONTINUOUS
10
5.89435
20
-4.30147
11
5.8998
21
-4.29805
0
LINE
8
BLACK
6
CONTINUOUS
10
5.8998
20
-4.29805
11
5.90435
21
-4.2935
0
LINE
8
BLACK
6
CONTINUOUS
10
5.90435
20
-4.2935
11
5.90777
21
-4.28805
0
LINE
8
BLACK
6
CONTINUOUS
10
5.90777
20
-4.28805
11
5.90989
21
-4.28198
0
LINE
8
BLACK
6
CONTINUOUS
10
5.90989
20
-4.28198
11
5.91061
21
-4.27559
0
LINE
8
BLACK
6
CONTINUOUS
10
5.91061
20
-4.27559
11
5.90989
21
-4.2692
0
LINE
8
BLACK
6
CONTINUOUS
10
5.90989
20
-4.2692
11
5.90777
21
-4.26313
0
LINE
8
BLACK
6
CONTINUOUS
10
5.90777
20
-4.26313
11
5.90435
21
-4.25768
0
LINE
8
BLACK
6
CONTINUOUS
10
5.90435
20
-4.25768
11
5.8998
21
-4.25313
0
LINE
8
BLACK
6
CONTINUOUS
10
5.8998
20
-4.25313
11
5.89435
21
-4.24971
0
LINE
8
BLACK
6
CONTINUOUS
10
5.89435
20
-4.24971
11
5.88828
21
-4.24759
0
LINE
8
BLACK
6
CONTINUOUS
10
5.88828
20
-4.24759
11
5.88189
21
-4.24687
0
LINE
8
BLACK
6
CONTINUOUS
10
5.88189
20
-4.24687
11
5.8755
21
-4.24759
0
LINE
8
BLACK
6
CONTINUOUS
10
5.8755
20
-4.24759
11
5.86943
21
-4.24971
0
LINE
8
BLACK
6
CONTINUOUS
10
5.86943
20
-4.24971
11
5.86398
21
-4.25313
0
LINE
8
BLACK
6
CONTINUOUS
10
5.86398
20
-4.25313
11
5.85943
21
-4.25768
0
LINE
8
BLACK
6
CONTINUOUS
10
5.85943
20
-4.25768
11
5.85601
21
-4.26313
0
LINE
8
BLACK
6
CONTINUOUS
10
5.85601
20
-4.26313
11
5.85389
21
-4.2692
0
LINE
8
BLACK
6
CONTINUOUS
10
5.85389
20
-4.2692
11
5.85317
21
-4.27559
0
LINE
8
BLACK
6
CONTINUOUS
10
5.85317
20
-4.27559
11
5.85389
21
-4.28198
0
LINE
8
BLACK
6
CONTINUOUS
10
5.72953
20
-4.1563
11
5.73022
21
-4.15659
0
LINE
8
BLACK
6
CONTINUOUS
10
5.73022
20
-4.15659
11
5.73051
21
-4.15728
0
LINE
8
BLACK
6
CONTINUOUS
10
5.73051
20
-4.15728
11
5.73051
21
-4.27382
0
LINE
8
BLACK
6
CONTINUOUS
10
5.73051
20
-4.27382
11
5.73022
21
-4.27451
0
LINE
8
BLACK
6
CONTINUOUS
10
5.73022
20
-4.27451
11
5.72953
21
-4.2748
0
LINE
8
BLACK
6
CONTINUOUS
10
5.72953
20
-4.2748
11
5.67205
21
-4.2748
0
LINE
8
BLACK
6
CONTINUOUS
10
5.67205
20
-4.2748
11
5.67135
21
-4.27451
0
LINE
8
BLACK
6
CONTINUOUS
10
5.67135
20
-4.27451
11
5.67106
21
-4.27382
0
LINE
8
BLACK
6
CONTINUOUS
10
5.67106
20
-4.27382
11
5.67106
21
-4.15728
0
LINE
8
BLACK
6
CONTINUOUS
10
5.67106
20
-4.15728
11
5.67135
21
-4.15659
0
LINE
8
BLACK
6
CONTINUOUS
10
5.67135
20
-4.15659
11
5.67205
21
-4.1563
0
LINE
8
BLACK
6
CONTINUOUS
10
5.67205
20
-4.1563
11
5.72953
21
-4.1563
0
LINE
8
BLACK
6
CONTINUOUS
10
5.67303
20
-4.15827
11
5.67303
21
-4.27283
0
LINE
8
BLACK
6
CONTINUOUS
10
5.67303
20
-4.27283
11
5.72854
21
-4.27283
0
LINE
8
BLACK
6
CONTINUOUS
10
5.72854
20
-4.27283
11
5.72854
21
-4.15827
0
LINE
8
BLACK
6
CONTINUOUS
10
5.72854
20
-4.15827
11
5.67303
21
-4.15827
0
LINE
8
BLACK
6
CONTINUOUS
10
5.80181
20
-4.10728
11
5.80251
21
-4.10757
0
LINE
8
BLACK
6
CONTINUOUS
10
5.80251
20
-4.10757
11
5.8028
21
-4.10827
0
LINE
8
BLACK
6
CONTINUOUS
10
5.8028
20
-4.10827
11
5.8028
21
-4.24606
0
LINE
8
BLACK
6
CONTINUOUS
10
5.8028
20
-4.24606
11
5.80251
21
-4.24676
0
LINE
8
BLACK
6
CONTINUOUS
10
5.80251
20
-4.24676
11
5.80181
21
-4.24705
0
LINE
8
BLACK
6
CONTINUOUS
10
5.80181
20
-4.24705
11
5.73488
21
-4.24705
0
LINE
8
BLACK
6
CONTINUOUS
10
5.73488
20
-4.24705
11
5.73419
21
-4.24676
0
LINE
8
BLACK
6
CONTINUOUS
10
5.73419
20
-4.24676
11
5.7339
21
-4.24606
0
LINE
8
BLACK
6
CONTINUOUS
10
5.7339
20
-4.24606
11
5.7339
21
-4.10827
0
LINE
8
BLACK
6
CONTINUOUS
10
5.7339
20
-4.10827
11
5.73419
21
-4.10757
0
LINE
8
BLACK
6
CONTINUOUS
10
5.73419
20
-4.10757
11
5.73488
21
-4.10728
0
LINE
8
BLACK
6
CONTINUOUS
10
5.73488
20
-4.10728
11
5.80181
21
-4.10728
0
LINE
8
BLACK
6
CONTINUOUS
10
5.73587
20
-4.10925
11
5.73587
21
-4.24508
0
LINE
8
BLACK
6
CONTINUOUS
10
5.73587
20
-4.24508
11
5.80083
21
-4.24508
0
LINE
8
BLACK
6
CONTINUOUS
10
5.80083
20
-4.24508
11
5.80083
21
-4.10925
0
LINE
8
BLACK
6
CONTINUOUS
10
5.80083
20
-4.10925
11
5.73587
21
-4.10925
0
LINE
8
BLACK
6
CONTINUOUS
10
6.07992
20
-4.12185
11
6.08062
21
-4.12214
0
LINE
8
BLACK
6
CONTINUOUS
10
6.08062
20
-4.12214
11
6.08091
21
-4.12283
0
LINE
8
BLACK
6
CONTINUOUS
10
6.08091
20
-4.12283
11
6.08091
21
-4.23937
0
LINE
8
BLACK
6
CONTINUOUS
10
6.08091
20
-4.23937
11
6.08062
21
-4.24007
0
LINE
8
BLACK
6
CONTINUOUS
10
6.08062
20
-4.24007
11
6.07992
21
-4.24035
0
LINE
8
BLACK
6
CONTINUOUS
10
6.07992
20
-4.24035
11
6.02244
21
-4.24035
0
LINE
8
BLACK
6
CONTINUOUS
10
6.02244
20
-4.24035
11
6.02174
21
-4.24007
0
LINE
8
BLACK
6
CONTINUOUS
10
6.02174
20
-4.24007
11
6.02146
21
-4.23937
0
LINE
8
BLACK
6
CONTINUOUS
10
6.02146
20
-4.23937
11
6.02146
21
-4.12283
0
LINE
8
BLACK
6
CONTINUOUS
10
6.02146
20
-4.12283
11
6.02174
21
-4.12214
0
LINE
8
BLACK
6
CONTINUOUS
10
6.02174
20
-4.12214
11
6.02244
21
-4.12185
0
LINE
8
BLACK
6
CONTINUOUS
10
6.02244
20
-4.12185
11
6.07992
21
-4.12185
0
LINE
8
BLACK
6
CONTINUOUS
10
6.02343
20
-4.12382
11
6.02343
21
-4.23839
0
LINE
8
BLACK
6
CONTINUOUS
10
6.02343
20
-4.23839
11
6.07894
21
-4.23839
0
LINE
8
BLACK
6
CONTINUOUS
10
6.07894
20
-4.23839
11
6.07894
21
-4.12382
0
LINE
8
BLACK
6
CONTINUOUS
10
6.07894
20
-4.12382
11
6.02343
21
-4.12382
0
LINE
8
BLACK
6
CONTINUOUS
10
5.86339
20
-4.11004
11
5.86408
21
-4.11033
0
LINE
8
BLACK
6
CONTINUOUS
10
5.86408
20
-4.11033
11
5.86417
21
-4.11055
0
LINE
8
BLACK
6
CONTINUOUS
10
5.86417
20
-4.11055
11
5.86426
21
-4.11033
0
LINE
8
BLACK
6
CONTINUOUS
10
5.86426
20
-4.11033
11
5.86496
21
-4.11004
0
LINE
8
BLACK
6
CONTINUOUS
10
5.86496
20
-4.11004
11
5.92244
21
-4.11004
0
LINE
8
BLACK
6
CONTINUOUS
10
5.92244
20
-4.11004
11
5.92314
21
-4.11033
0
LINE
8
BLACK
6
CONTINUOUS
10
5.92314
20
-4.11033
11
5.92343
21
-4.11102
0
LINE
8
BLACK
6
CONTINUOUS
10
5.92343
20
-4.11102
11
5.92343
21
-4.22756
0
LINE
8
BLACK
6
CONTINUOUS
10
5.92343
20
-4.22756
11
5.92314
21
-4.22826
0
LINE
8
BLACK
6
CONTINUOUS
10
5.92314
20
-4.22826
11
5.92244
21
-4.22854
0
LINE
8
BLACK
6
CONTINUOUS
10
5.92244
20
-4.22854
11
5.86496
21
-4.22854
0
LINE
8
BLACK
6
CONTINUOUS
10
5.86496
20
-4.22854
11
5.86426
21
-4.22826
0
LINE
8
BLACK
6
CONTINUOUS
10
5.86426
20
-4.22826
11
5.86417
21
-4.22803
0
LINE
8
BLACK
6
CONTINUOUS
10
5.86417
20
-4.22803
11
5.86408
21
-4.22826
0
LINE
8
BLACK
6
CONTINUOUS
10
5.86408
20
-4.22826
11
5.86339
21
-4.22854
0
LINE
8
BLACK
6
CONTINUOUS
10
5.86339
20
-4.22854
11
5.80591
21
-4.22854
0
LINE
8
BLACK
6
CONTINUOUS
10
5.80591
20
-4.22854
11
5.80521
21
-4.22826
0
LINE
8
BLACK
6
CONTINUOUS
10
5.80521
20
-4.22826
11
5.80492
21
-4.22756
0
LINE
8
BLACK
6
CONTINUOUS
10
5.80492
20
-4.22756
11
5.80492
21
-4.11102
0
LINE
8
BLACK
6
CONTINUOUS
10
5.80492
20
-4.11102
11
5.80521
21
-4.11033
0
LINE
8
BLACK
6
CONTINUOUS
10
5.80521
20
-4.11033
11
5.80591
21
-4.11004
0
LINE
8
BLACK
6
CONTINUOUS
10
5.80591
20
-4.11004
11
5.86339
21
-4.11004
0
LINE
8
BLACK
6
CONTINUOUS
10
5.86594
20
-4.11201
11
5.86594
21
-4.22657
0
LINE
8
BLACK
6
CONTINUOUS
10
5.86594
20
-4.22657
11
5.92146
21
-4.22657
0
LINE
8
BLACK
6
CONTINUOUS
10
5.92146
20
-4.22657
11
5.92146
21
-4.11201
0
LINE
8
BLACK
6
CONTINUOUS
10
5.92146
20
-4.11201
11
5.86594
21
-4.11201
0
LINE
8
BLACK
6
CONTINUOUS
10
5.80689
20
-4.11201
11
5.80689
21
-4.22657
0
LINE
8
BLACK
6
CONTINUOUS
10
5.80689
20
-4.22657
11
5.8624
21
-4.22657
0
LINE
8
BLACK
6
CONTINUOUS
10
5.8624
20
-4.22657
11
5.8624
21
-4.11201
0
LINE
8
BLACK
6
CONTINUOUS
10
5.8624
20
-4.11201
11
5.80689
21
-4.11201
0
LINE
8
BLACK
6
CONTINUOUS
10
6.20197
20
-3.96142
11
6.20266
21
-3.96171
0
LINE
8
BLACK
6
CONTINUOUS
10
6.20266
20
-3.96171
11
6.20295
21
-3.9624
0
LINE
8
BLACK
6
CONTINUOUS
10
6.20295
20
-3.9624
11
6.20295
21
-4.07894
0
LINE
8
BLACK
6
CONTINUOUS
10
6.20295
20
-4.07894
11
6.20266
21
-4.07963
0
LINE
8
BLACK
6
CONTINUOUS
10
6.20266
20
-4.07963
11
6.20197
21
-4.07992
0
LINE
8
BLACK
6
CONTINUOUS
10
6.20197
20
-4.07992
11
6.14449
21
-4.07992
0
LINE
8
BLACK
6
CONTINUOUS
10
6.14449
20
-4.07992
11
6.1439
21
-4.07968
0
LINE
8
BLACK
6
CONTINUOUS
10
6.1439
20
-4.07968
11
6.1439
21
-4.19606
0
LINE
8
BLACK
6
CONTINUOUS
10
6.1439
20
-4.19606
11
6.14361
21
-4.19676
0
LINE
8
BLACK
6
CONTINUOUS
10
6.14361
20
-4.19676
11
6.14291
21
-4.19705
0
LINE
8
BLACK
6
CONTINUOUS
10
6.14291
20
-4.19705
11
6.08543
21
-4.19705
0
LINE
8
BLACK
6
CONTINUOUS
10
6.08543
20
-4.19705
11
6.08474
21
-4.19676
0
LINE
8
BLACK
6
CONTINUOUS
10
6.08474
20
-4.19676
11
6.08445
21
-4.19606
0
LINE
8
BLACK
6
CONTINUOUS
10
6.08445
20
-4.19606
11
6.08445
21
-4.07953
0
LINE
8
BLACK
6
CONTINUOUS
10
6.08445
20
-4.07953
11
6.08474
21
-4.07883
0
LINE
8
BLACK
6
CONTINUOUS
10
6.08474
20
-4.07883
11
6.08543
21
-4.07854
0
LINE
8
BLACK
6
CONTINUOUS
10
6.08543
20
-4.07854
11
6.14291
21
-4.07854
0
LINE
8
BLACK
6
CONTINUOUS
10
6.14291
20
-4.07854
11
6.1435
21
-4.07879
0
LINE
8
BLACK
6
CONTINUOUS
10
6.1435
20
-4.07879
11
6.1435
21
-3.9624
0
LINE
8
BLACK
6
CONTINUOUS
10
6.1435
20
-3.9624
11
6.14379
21
-3.96171
0
LINE
8
BLACK
6
CONTINUOUS
10
6.14379
20
-3.96171
11
6.14449
21
-3.96142
0
LINE
8
BLACK
6
CONTINUOUS
10
6.14449
20
-3.96142
11
6.20197
21
-3.96142
0
LINE
8
BLACK
6
CONTINUOUS
10
6.08642
20
-4.08051
11
6.08642
21
-4.19508
0
LINE
8
BLACK
6
CONTINUOUS
10
6.08642
20
-4.19508
11
6.14193
21
-4.19508
0
LINE
8
BLACK
6
CONTINUOUS
10
6.14193
20
-4.19508
11
6.14193
21
-4.08051
0
LINE
8
BLACK
6
CONTINUOUS
10
6.14193
20
-4.08051
11
6.08642
21
-4.08051
0
LINE
8
BLACK
6
CONTINUOUS
10
6.14547
20
-3.96339
11
6.14547
21
-4.07795
0
LINE
8
BLACK
6
CONTINUOUS
10
6.14547
20
-4.07795
11
6.20098
21
-4.07795
0
LINE
8
BLACK
6
CONTINUOUS
10
6.20098
20
-4.07795
11
6.20098
21
-3.96339
0
LINE
8
BLACK
6
CONTINUOUS
10
6.20098
20
-3.96339
11
6.14547
21
-3.96339
0
LINE
8
BLACK
6
CONTINUOUS
10
5.67603
20
-3.74772
11
5.67673
21
-3.748
0
LINE
8
BLACK
6
CONTINUOUS
10
5.67673
20
-3.748
11
5.67702
21
-3.7487
0
LINE
8
BLACK
6
CONTINUOUS
10
5.67702
20
-3.7487
11
5.67702
21
-4.15028
0
LINE
8
BLACK
6
CONTINUOUS
10
5.67702
20
-4.15028
11
5.67673
21
-4.15097
0
LINE
8
BLACK
6
CONTINUOUS
10
5.67673
20
-4.15097
11
5.67603
21
-4.15126
0
LINE
8
BLACK
6
CONTINUOUS
10
5.67603
20
-4.15126
11
5.34414
21
-4.15126
0
LINE
8
BLACK
6
CONTINUOUS
10
5.34414
20
-4.15126
11
5.34345
21
-4.15097
0
LINE
8
BLACK
6
CONTINUOUS
10
5.34345
20
-4.15097
11
5.34316
21
-4.15028
0
LINE
8
BLACK
6
CONTINUOUS
10
5.34316
20
-4.15028
11
5.34316
21
-3.7487
0
LINE
8
BLACK
6
CONTINUOUS
10
5.34316
20
-3.7487
11
5.34345
21
-3.748
0
LINE
8
BLACK
6
CONTINUOUS
10
5.34345
20
-3.748
11
5.34414
21
-3.74772
0
LINE
8
BLACK
6
CONTINUOUS
10
5.34414
20
-3.74772
11
5.67603
21
-3.74772
0
LINE
8
BLACK
6
CONTINUOUS
10
5.34513
20
-3.74969
11
5.34513
21
-4.14929
0
LINE
8
BLACK
6
CONTINUOUS
10
5.34513
20
-4.14929
11
5.67505
21
-4.14929
0
LINE
8
BLACK
6
CONTINUOUS
10
5.67505
20
-4.14929
11
5.67505
21
-3.74969
0
LINE
8
BLACK
6
CONTINUOUS
10
5.67505
20
-3.74969
11
5.34513
21
-3.74969
0
LINE
8
BLACK
6
CONTINUOUS
10
6.14173
20
-3.86122
11
6.14243
21
-3.86151
0
LINE
8
BLACK
6
CONTINUOUS
10
6.14243
20
-3.86151
11
6.14272
21
-3.8622
0
LINE
8
BLACK
6
CONTINUOUS
10
6.14272
20
-3.8622
11
6.14272
21
-4.06693
0
LINE
8
BLACK
6
CONTINUOUS
10
6.14272
20
-4.06693
11
6.14243
21
-4.06763
0
LINE
8
BLACK
6
CONTINUOUS
10
6.14243
20
-4.06763
11
6.14173
21
-4.06791
0
LINE
8
BLACK
6
CONTINUOUS
10
6.14173
20
-4.06791
11
5.93701
21
-4.06791
0
LINE
8
BLACK
6
CONTINUOUS
10
5.93701
20
-4.06791
11
5.93631
21
-4.06763
0
LINE
8
BLACK
6
CONTINUOUS
10
5.93631
20
-4.06763
11
5.93602
21
-4.06693
0
LINE
8
BLACK
6
CONTINUOUS
10
5.93602
20
-4.06693
11
5.93602
21
-3.8622
0
LINE
8
BLACK
6
CONTINUOUS
10
5.93602
20
-3.8622
11
5.93631
21
-3.86151
0
LINE
8
BLACK
6
CONTINUOUS
10
5.93631
20
-3.86151
11
5.93701
21
-3.86122
0
LINE
8
BLACK
6
CONTINUOUS
10
5.93701
20
-3.86122
11
6.14173
21
-3.86122
0
LINE
8
BLACK
6
CONTINUOUS
10
5.93799
20
-3.86319
11
5.93799
21
-4.06594
0
LINE
8
BLACK
6
CONTINUOUS
10
5.93799
20
-4.06594
11
6.14075
21
-4.06594
0
LINE
8
BLACK
6
CONTINUOUS
10
6.14075
20
-4.06594
11
6.14075
21
-3.86319
0
LINE
8
BLACK
6
CONTINUOUS
10
6.14075
20
-3.86319
11
5.93799
21
-3.86319
0
LINE
8
BLACK
6
CONTINUOUS
10
6.5
20
-3.87894
11
6.5007
21
-3.87923
0
LINE
8
BLACK
6
CONTINUOUS
10
6.5007
20
-3.87923
11
6.50098
21
-3.87992
0
LINE
8
BLACK
6
CONTINUOUS
10
6.50098
20
-3.87992
11
6.50098
21
-4.01772
0
LINE
8
BLACK
6
CONTINUOUS
10
6.50098
20
-4.01772
11
6.5007
21
-4.01841
0
LINE
8
BLACK
6
CONTINUOUS
10
6.5007
20
-4.01841
11
6.5
21
-4.0187
0
LINE
8
BLACK
6
CONTINUOUS
10
6.5
20
-4.0187
11
6.22441
21
-4.0187
0
LINE
8
BLACK
6
CONTINUOUS
10
6.22441
20
-4.0187
11
6.22371
21
-4.01841
0
LINE
8
BLACK
6
CONTINUOUS
10
6.22371
20
-4.01841
11
6.22343
21
-4.01772
0
LINE
8
BLACK
6
CONTINUOUS
10
6.22343
20
-4.01772
11
6.22343
21
-4.01772
0
LINE
8
BLACK
6
CONTINUOUS
10
6.22343
20
-4.01772
11
6.22343
21
-3.87992
0
LINE
8
BLACK
6
CONTINUOUS
10
6.22343
20
-3.87992
11
6.22371
21
-3.87923
0
LINE
8
BLACK
6
CONTINUOUS
10
6.22371
20
-3.87923
11
6.22441
21
-3.87894
0
LINE
8
BLACK
6
CONTINUOUS
10
6.22441
20
-3.87894
11
6.5
21
-3.87894
0
LINE
8
BLACK
6
CONTINUOUS
10
6.22539
20
-3.88091
11
6.22539
21
-4.01673
0
LINE
8
BLACK
6
CONTINUOUS
10
6.22539
20
-4.01673
11
6.49902
21
-4.01673
0
LINE
8
BLACK
6
CONTINUOUS
10
6.49902
20
-4.01673
11
6.49902
21
-3.88091
0
LINE
8
BLACK
6
CONTINUOUS
10
6.49902
20
-3.88091
11
6.22539
21
-3.88091
0
LINE
8
BLACK
6
CONTINUOUS
10
5.90896
20
-3.88157
11
5.90965
21
-3.88186
0
LINE
8
BLACK
6
CONTINUOUS
10
5.90965
20
-3.88186
11
5.90994
21
-3.88256
0
LINE
8
BLACK
6
CONTINUOUS
10
5.90994
20
-3.88256
11
5.90994
21
-4.01642
0
LINE
8
BLACK
6
CONTINUOUS
10
5.90994
20
-4.01642
11
5.90965
21
-4.01711
0
LINE
8
BLACK
6
CONTINUOUS
10
5.90965
20
-4.01711
11
5.90896
21
-4.0174
0
LINE
8
BLACK
6
CONTINUOUS
10
5.90896
20
-4.0174
11
5.74754
21
-4.0174
0
LINE
8
BLACK
6
CONTINUOUS
10
5.74754
20
-4.0174
11
5.74684
21
-4.01711
0
LINE
8
BLACK
6
CONTINUOUS
10
5.74684
20
-4.01711
11
5.74656
21
-4.01642
0
LINE
8
BLACK
6
CONTINUOUS
10
5.74656
20
-4.01642
11
5.74656
21
-4.01642
0
LINE
8
BLACK
6
CONTINUOUS
10
5.74656
20
-4.01642
11
5.74656
21
-3.88256
0
LINE
8
BLACK
6
CONTINUOUS
10
5.74656
20
-3.88256
11
5.74684
21
-3.88186
0
LINE
8
BLACK
6
CONTINUOUS
10
5.74684
20
-3.88186
11
5.74754
21
-3.88157
0
LINE
8
BLACK
6
CONTINUOUS
10
5.74754
20
-3.88157
11
5.90896
21
-3.88157
0
LINE
8
BLACK
6
CONTINUOUS
10
5.74852
20
-3.88354
11
5.74852
21
-4.01543
0
LINE
8
BLACK
6
CONTINUOUS
10
5.74852
20
-4.01543
11
5.90797
21
-4.01543
0
LINE
8
BLACK
6
CONTINUOUS
10
5.90797
20
-4.01543
11
5.90797
21
-3.88354
0
LINE
8
BLACK
6
CONTINUOUS
10
5.90797
20
-3.88354
11
5.74852
21
-3.88354
0
LINE
8
BLACK
6
CONTINUOUS
10
6.51933
20
-3.40138
11
6.52003
21
-3.40167
0
LINE
8
BLACK
6
CONTINUOUS
10
6.52003
20
-3.40167
11
6.52031
21
-3.40236
0
LINE
8
BLACK
6
CONTINUOUS
10
6.52031
20
-3.40236
11
6.52031
21
-3.87323
0
LINE
8
BLACK
6
CONTINUOUS
10
6.52031
20
-3.87323
11
6.52003
21
-3.87392
0
LINE
8
BLACK
6
CONTINUOUS
10
6.52003
20
-3.87392
11
6.51933
21
-3.87421
0
LINE
8
BLACK
6
CONTINUOUS
10
6.51933
20
-3.87421
11
6.26736
21
-3.87421
0
LINE
8
BLACK
6
CONTINUOUS
10
6.26736
20
-3.87421
11
6.26667
21
-3.87392
0
LINE
8
BLACK
6
CONTINUOUS
10
6.26667
20
-3.87392
11
6.26638
21
-3.87323
0
LINE
8
BLACK
6
CONTINUOUS
10
6.26638
20
-3.87323
11
6.26638
21
-3.87323
0
LINE
8
BLACK
6
CONTINUOUS
10
6.26638
20
-3.87323
11
6.26638
21
-3.40236
0
LINE
8
BLACK
6
CONTINUOUS
10
6.26638
20
-3.40236
11
6.26667
21
-3.40167
0
LINE
8
BLACK
6
CONTINUOUS
10
6.26667
20
-3.40167
11
6.26736
21
-3.40138
0
LINE
8
BLACK
6
CONTINUOUS
10
6.26736
20
-3.40138
11
6.51933
21
-3.40138
0
LINE
8
BLACK
6
CONTINUOUS
10
6.26835
20
-3.40335
11
6.26835
21
-3.87224
0
LINE
8
BLACK
6
CONTINUOUS
10
6.26835
20
-3.87224
11
6.51835
21
-3.87224
0
LINE
8
BLACK
6
CONTINUOUS
10
6.51835
20
-3.87224
11
6.51835
21
-3.40335
0
LINE
8
BLACK
6
CONTINUOUS
10
6.51835
20
-3.40335
11
6.26835
21
-3.40335
0
LINE
8
BLACK
6
CONTINUOUS
10
6.18228
20
-3.73898
11
6.18298
21
-3.73926
0
LINE
8
BLACK
6
CONTINUOUS
10
6.18298
20
-3.73926
11
6.18327
21
-3.73996
0
LINE
8
BLACK
6
CONTINUOUS
10
6.18327
20
-3.73996
11
6.18327
21
-3.8565
0
LINE
8
BLACK
6
CONTINUOUS
10
6.18327
20
-3.8565
11
6.18298
21
-3.85719
0
LINE
8
BLACK
6
CONTINUOUS
10
6.18298
20
-3.85719
11
6.18228
21
-3.85748
0
LINE
8
BLACK
6
CONTINUOUS
10
6.18228
20
-3.85748
11
6.1248
21
-3.85748
0
LINE
8
BLACK
6
CONTINUOUS
10
6.1248
20
-3.85748
11
6.12411
21
-3.85719
0
LINE
8
BLACK
6
CONTINUOUS
10
6.12411
20
-3.85719
11
6.12382
21
-3.8565
0
LINE
8
BLACK
6
CONTINUOUS
10
6.12382
20
-3.8565
11
6.12382
21
-3.73996
0
LINE
8
BLACK
6
CONTINUOUS
10
6.12382
20
-3.73996
11
6.12411
21
-3.73926
0
LINE
8
BLACK
6
CONTINUOUS
10
6.12411
20
-3.73926
11
6.1248
21
-3.73898
0
LINE
8
BLACK
6
CONTINUOUS
10
6.1248
20
-3.73898
11
6.18228
21
-3.73898
0
LINE
8
BLACK
6
CONTINUOUS
10
6.12579
20
-3.74094
11
6.12579
21
-3.85551
0
LINE
8
BLACK
6
CONTINUOUS
10
6.12579
20
-3.85551
11
6.1813
21
-3.85551
0
LINE
8
BLACK
6
CONTINUOUS
10
6.1813
20
-3.85551
11
6.1813
21
-3.74094
0
LINE
8
BLACK
6
CONTINUOUS
10
6.1813
20
-3.74094
11
6.12579
21
-3.74094
0
LINE
8
BLACK
6
CONTINUOUS
10
5.99331
20
-3.73307
11
5.994
21
-3.73336
0
LINE
8
BLACK
6
CONTINUOUS
10
5.994
20
-3.73336
11
5.99429
21
-3.73406
0
LINE
8
BLACK
6
CONTINUOUS
10
5.99429
20
-3.73406
11
5.99429
21
-3.85059
0
LINE
8
BLACK
6
CONTINUOUS
10
5.99429
20
-3.85059
11
5.994
21
-3.85129
0
LINE
8
BLACK
6
CONTINUOUS
10
5.994
20
-3.85129
11
5.99331
21
-3.85157
0
LINE
8
BLACK
6
CONTINUOUS
10
5.99331
20
-3.85157
11
5.93583
21
-3.85157
0
LINE
8
BLACK
6
CONTINUOUS
10
5.93583
20
-3.85157
11
5.93513
21
-3.85129
0
LINE
8
BLACK
6
CONTINUOUS
10
5.93513
20
-3.85129
11
5.93484
21
-3.85059
0
LINE
8
BLACK
6
CONTINUOUS
10
5.93484
20
-3.85059
11
5.93484
21
-3.73406
0
LINE
8
BLACK
6
CONTINUOUS
10
5.93484
20
-3.73406
11
5.93513
21
-3.73336
0
LINE
8
BLACK
6
CONTINUOUS
10
5.93513
20
-3.73336
11
5.93583
21
-3.73307
0
LINE
8
BLACK
6
CONTINUOUS
10
5.93583
20
-3.73307
11
5.99331
21
-3.73307
0
LINE
8
BLACK
6
CONTINUOUS
10
5.93681
20
-3.73504
11
5.93681
21
-3.84961
0
LINE
8
BLACK
6
CONTINUOUS
10
5.93681
20
-3.84961
11
5.99232
21
-3.84961
0
LINE
8
BLACK
6
CONTINUOUS
10
5.99232
20
-3.84961
11
5.99232
21
-3.73504
0
LINE
8
BLACK
6
CONTINUOUS
10
5.99232
20
-3.73504
11
5.93681
21
-3.73504
0
LINE
8
BLACK
6
CONTINUOUS
10
6.06417
20
-3.73307
11
6.06487
21
-3.73336
0
LINE
8
BLACK
6
CONTINUOUS
10
6.06487
20
-3.73336
11
6.06516
21
-3.73406
0
LINE
8
BLACK
6
CONTINUOUS
10
6.06516
20
-3.73406
11
6.06516
21
-3.85059
0
LINE
8
BLACK
6
CONTINUOUS
10
6.06516
20
-3.85059
11
6.06487
21
-3.85129
0
LINE
8
BLACK
6
CONTINUOUS
10
6.06487
20
-3.85129
11
6.06417
21
-3.85157
0
LINE
8
BLACK
6
CONTINUOUS
10
6.06417
20
-3.85157
11
6.00669
21
-3.85157
0
LINE
8
BLACK
6
CONTINUOUS
10
6.00669
20
-3.85157
11
6.006
21
-3.85129
0
LINE
8
BLACK
6
CONTINUOUS
10
6.006
20
-3.85129
11
6.00571
21
-3.85059
0
LINE
8
BLACK
6
CONTINUOUS
10
6.00571
20
-3.85059
11
6.00571
21
-3.73406
0
LINE
8
BLACK
6
CONTINUOUS
10
6.00571
20
-3.73406
11
6.006
21
-3.73336
0
LINE
8
BLACK
6
CONTINUOUS
10
6.006
20
-3.73336
11
6.00669
21
-3.73307
0
LINE
8
BLACK
6
CONTINUOUS
10
6.00669
20
-3.73307
11
6.06417
21
-3.73307
0
LINE
8
BLACK
6
CONTINUOUS
10
6.00768
20
-3.73504
11
6.00768
21
-3.84961
0
LINE
8
BLACK
6
CONTINUOUS
10
6.00768
20
-3.84961
11
6.06319
21
-3.84961
0
LINE
8
BLACK
6
CONTINUOUS
10
6.06319
20
-3.84961
11
6.06319
21
-3.73504
0
LINE
8
BLACK
6
CONTINUOUS
10
6.06319
20
-3.73504
11
6.00768
21
-3.73504
0
LINE
8
BLACK
6
CONTINUOUS
10
6.02661
20
-3.66319
11
6.02731
21
-3.66348
0
LINE
8
BLACK
6
CONTINUOUS
10
6.02731
20
-3.66348
11
6.0276
21
-3.66417
0
LINE
8
BLACK
6
CONTINUOUS
10
6.0276
20
-3.66417
11
6.0276
21
-3.72165
0
LINE
8
BLACK
6
CONTINUOUS
10
6.0276
20
-3.72165
11
6.02731
21
-3.72235
0
LINE
8
BLACK
6
CONTINUOUS
10
6.02731
20
-3.72235
11
6.02661
21
-3.72264
0
LINE
8
BLACK
6
CONTINUOUS
10
6.02661
20
-3.72264
11
5.91008
21
-3.72264
0
LINE
8
BLACK
6
CONTINUOUS
10
5.91008
20
-3.72264
11
5.90938
21
-3.72235
0
LINE
8
BLACK
6
CONTINUOUS
10
5.90938
20
-3.72235
11
5.90909
21
-3.72165
0
LINE
8
BLACK
6
CONTINUOUS
10
5.90909
20
-3.72165
11
5.90909
21
-3.66417
0
LINE
8
BLACK
6
CONTINUOUS
10
5.90909
20
-3.66417
11
5.90938
21
-3.66348
0
LINE
8
BLACK
6
CONTINUOUS
10
5.90938
20
-3.66348
11
5.91008
21
-3.66319
0
LINE
8
BLACK
6
CONTINUOUS
10
5.91008
20
-3.66319
11
6.02661
21
-3.66319
0
LINE
8
BLACK
6
CONTINUOUS
10
5.91106
20
-3.66516
11
5.91106
21
-3.72067
0
LINE
8
BLACK
6
CONTINUOUS
10
5.91106
20
-3.72067
11
6.02563
21
-3.72067
0
LINE
8
BLACK
6
CONTINUOUS
10
6.02563
20
-3.72067
11
6.02563
21
-3.66516
0
LINE
8
BLACK
6
CONTINUOUS
10
6.02563
20
-3.66516
11
5.91106
21
-3.66516
0
LINE
8
BLACK
6
CONTINUOUS
10
5.72709
20
-3.57831
11
5.72778
21
-3.5786
0
LINE
8
BLACK
6
CONTINUOUS
10
5.72778
20
-3.5786
11
5.72807
21
-3.57929
0
LINE
8
BLACK
6
CONTINUOUS
10
5.72807
20
-3.57929
11
5.72807
21
-3.69583
0
LINE
8
BLACK
6
CONTINUOUS
10
5.72807
20
-3.69583
11
5.72778
21
-3.69652
0
LINE
8
BLACK
6
CONTINUOUS
10
5.72778
20
-3.69652
11
5.72709
21
-3.69681
0
LINE
8
BLACK
6
CONTINUOUS
10
5.72709
20
-3.69681
11
5.66961
21
-3.69681
0
LINE
8
BLACK
6
CONTINUOUS
10
5.66961
20
-3.69681
11
5.66891
21
-3.69652
0
LINE
8
BLACK
6
CONTINUOUS
10
5.66891
20
-3.69652
11
5.66862
21
-3.69583
0
LINE
8
BLACK
6
CONTINUOUS
10
5.66862
20
-3.69583
11
5.66862
21
-3.57929
0
LINE
8
BLACK
6
CONTINUOUS
10
5.66862
20
-3.57929
11
5.66891
21
-3.5786
0
LINE
8
BLACK
6
CONTINUOUS
10
5.66891
20
-3.5786
11
5.66961
21
-3.57831
0
LINE
8
BLACK
6
CONTINUOUS
10
5.66961
20
-3.57831
11
5.72709
21
-3.57831
0
LINE
8
BLACK
6
CONTINUOUS
10
5.67059
20
-3.58028
11
5.67059
21
-3.69484
0
LINE
8
BLACK
6
CONTINUOUS
10
5.67059
20
-3.69484
11
5.7261
21
-3.69484
0
LINE
8
BLACK
6
CONTINUOUS
10
5.7261
20
-3.69484
11
5.7261
21
-3.58028
0
LINE
8
BLACK
6
CONTINUOUS
10
5.7261
20
-3.58028
11
5.67059
21
-3.58028
0
LINE
8
BLACK
6
CONTINUOUS
10
5.53209
20
-3.57827
11
5.53278
21
-3.57856
0
LINE
8
BLACK
6
CONTINUOUS
10
5.53278
20
-3.57856
11
5.53307
21
-3.57925
0
LINE
8
BLACK
6
CONTINUOUS
10
5.53307
20
-3.57925
11
5.53307
21
-3.69579
0
LINE
8
BLACK
6
CONTINUOUS
10
5.53307
20
-3.69579
11
5.53278
21
-3.69648
0
LINE
8
BLACK
6
CONTINUOUS
10
5.53278
20
-3.69648
11
5.53209
21
-3.69677
0
LINE
8
BLACK
6
CONTINUOUS
10
5.53209
20
-3.69677
11
5.47461
21
-3.69677
0
LINE
8
BLACK
6
CONTINUOUS
10
5.47461
20
-3.69677
11
5.47391
21
-3.69648
0
LINE
8
BLACK
6
CONTINUOUS
10
5.47391
20
-3.69648
11
5.47362
21
-3.69579
0
LINE
8
BLACK
6
CONTINUOUS
10
5.47362
20
-3.69579
11
5.47362
21
-3.57925
0
LINE
8
BLACK
6
CONTINUOUS
10
5.47362
20
-3.57925
11
5.47391
21
-3.57856
0
LINE
8
BLACK
6
CONTINUOUS
10
5.47391
20
-3.57856
11
5.47461
21
-3.57827
0
LINE
8
BLACK
6
CONTINUOUS
10
5.47461
20
-3.57827
11
5.53209
21
-3.57827
0
LINE
8
BLACK
6
CONTINUOUS
10
5.47559
20
-3.58024
11
5.47559
21
-3.6948
0
LINE
8
BLACK
6
CONTINUOUS
10
5.47559
20
-3.6948
11
5.5311
21
-3.6948
0
LINE
8
BLACK
6
CONTINUOUS
10
5.5311
20
-3.6948
11
5.5311
21
-3.58024
0
LINE
8
BLACK
6
CONTINUOUS
10
5.5311
20
-3.58024
11
5.47559
21
-3.58024
0
LINE
8
BLACK
6
CONTINUOUS
10
5.61709
20
-3.57827
11
5.61778
21
-3.57856
0
LINE
8
BLACK
6
CONTINUOUS
10
5.61778
20
-3.57856
11
5.61807
21
-3.57925
0
LINE
8
BLACK
6
CONTINUOUS
10
5.61807
20
-3.57925
11
5.61807
21
-3.69579
0
LINE
8
BLACK
6
CONTINUOUS
10
5.61807
20
-3.69579
11
5.61778
21
-3.69648
0
LINE
8
BLACK
6
CONTINUOUS
10
5.61778
20
-3.69648
11
5.61709
21
-3.69677
0
LINE
8
BLACK
6
CONTINUOUS
10
5.61709
20
-3.69677
11
5.55961
21
-3.69677
0
LINE
8
BLACK
6
CONTINUOUS
10
5.55961
20
-3.69677
11
5.55891
21
-3.69648
0
LINE
8
BLACK
6
CONTINUOUS
10
5.55891
20
-3.69648
11
5.55862
21
-3.69579
0
LINE
8
BLACK
6
CONTINUOUS
10
5.55862
20
-3.69579
11
5.55862
21
-3.57925
0
LINE
8
BLACK
6
CONTINUOUS
10
5.55862
20
-3.57925
11
5.55891
21
-3.57856
0
LINE
8
BLACK
6
CONTINUOUS
10
5.55891
20
-3.57856
11
5.55961
21
-3.57827
0
LINE
8
BLACK
6
CONTINUOUS
10
5.55961
20
-3.57827
11
5.61709
21
-3.57827
0
LINE
8
BLACK
6
CONTINUOUS
10
5.56059
20
-3.58024
11
5.56059
21
-3.6948
0
LINE
8
BLACK
6
CONTINUOUS
10
5.56059
20
-3.6948
11
5.6161
21
-3.6948
0
LINE
8
BLACK
6
CONTINUOUS
10
5.6161
20
-3.6948
11
5.6161
21
-3.58024
0
LINE
8
BLACK
6
CONTINUOUS
10
5.6161
20
-3.58024
11
5.56059
21
-3.58024
0
LINE
8
BLACK
6
CONTINUOUS
10
5.83209
20
-3.57827
11
5.83278
21
-3.57856
0
LINE
8
BLACK
6
CONTINUOUS
10
5.83278
20
-3.57856
11
5.83307
21
-3.57925
0
LINE
8
BLACK
6
CONTINUOUS
10
5.83307
20
-3.57925
11
5.83307
21
-3.69579
0
LINE
8
BLACK
6
CONTINUOUS
10
5.83307
20
-3.69579
11
5.83278
21
-3.69648
0
LINE
8
BLACK
6
CONTINUOUS
10
5.83278
20
-3.69648
11
5.83209
21
-3.69677
0
LINE
8
BLACK
6
CONTINUOUS
10
5.83209
20
-3.69677
11
5.77461
21
-3.69677
0
LINE
8
BLACK
6
CONTINUOUS
10
5.77461
20
-3.69677
11
5.77391
21
-3.69648
0
LINE
8
BLACK
6
CONTINUOUS
10
5.77391
20
-3.69648
11
5.77362
21
-3.69579
0
LINE
8
BLACK
6
CONTINUOUS
10
5.77362
20
-3.69579
11
5.77362
21
-3.57925
0
LINE
8
BLACK
6
CONTINUOUS
10
5.77362
20
-3.57925
11
5.77391
21
-3.57856
0
LINE
8
BLACK
6
CONTINUOUS
10
5.77391
20
-3.57856
11
5.77461
21
-3.57827
0
LINE
8
BLACK
6
CONTINUOUS
10
5.77461
20
-3.57827
11
5.83209
21
-3.57827
0
LINE
8
BLACK
6
CONTINUOUS
10
5.77559
20
-3.58024
11
5.77559
21
-3.6948
0
LINE
8
BLACK
6
CONTINUOUS
10
5.77559
20
-3.6948
11
5.8311
21
-3.6948
0
LINE
8
BLACK
6
CONTINUOUS
10
5.8311
20
-3.6948
11
5.8311
21
-3.58024
0
LINE
8
BLACK
6
CONTINUOUS
10
5.8311
20
-3.58024
11
5.77559
21
-3.58024
0
LINE
8
BLACK
6
CONTINUOUS
10
6.02661
20
-3.60031
11
6.02731
21
-3.6006
0
LINE
8
BLACK
6
CONTINUOUS
10
6.02731
20
-3.6006
11
6.0276
21
-3.6013
0
LINE
8
BLACK
6
CONTINUOUS
10
6.0276
20
-3.6013
11
6.0276
21
-3.65878
0
LINE
8
BLACK
6
CONTINUOUS
10
6.0276
20
-3.65878
11
6.02731
21
-3.65948
0
LINE
8
BLACK
6
CONTINUOUS
10
6.02731
20
-3.65948
11
6.02661
21
-3.65976
0
LINE
8
BLACK
6
CONTINUOUS
10
6.02661
20
-3.65976
11
5.91008
21
-3.65976
0
LINE
8
BLACK
6
CONTINUOUS
10
5.91008
20
-3.65976
11
5.90938
21
-3.65948
0
LINE
8
BLACK
6
CONTINUOUS
10
5.90938
20
-3.65948
11
5.90909
21
-3.65878
0
LINE
8
BLACK
6
CONTINUOUS
10
5.90909
20
-3.65878
11
5.90909
21
-3.6013
0
LINE
8
BLACK
6
CONTINUOUS
10
5.90909
20
-3.6013
11
5.90938
21
-3.6006
0
LINE
8
BLACK
6
CONTINUOUS
10
5.90938
20
-3.6006
11
5.91008
21
-3.60031
0
LINE
8
BLACK
6
CONTINUOUS
10
5.91008
20
-3.60031
11
6.02661
21
-3.60031
0
LINE
8
BLACK
6
CONTINUOUS
10
5.91106
20
-3.60228
11
5.91106
21
-3.6578
0
LINE
8
BLACK
6
CONTINUOUS
10
5.91106
20
-3.6578
11
6.02563
21
-3.6578
0
LINE
8
BLACK
6
CONTINUOUS
10
6.02563
20
-3.6578
11
6.02563
21
-3.60228
0
LINE
8
BLACK
6
CONTINUOUS
10
6.02563
20
-3.60228
11
5.91106
21
-3.60228
0
LINE
8
BLACK
6
CONTINUOUS
10
6.15246
20
-3.57655
11
6.15891
21
-3.57881
0
LINE
8
BLACK
6
CONTINUOUS
10
6.15891
20
-3.57881
11
6.16469
21
-3.58244
0
LINE
8
BLACK
6
CONTINUOUS
10
6.16469
20
-3.58244
11
6.16952
21
-3.58728
0
LINE
8
BLACK
6
CONTINUOUS
10
6.16952
20
-3.58728
11
6.17316
21
-3.59306
0
LINE
8
BLACK
6
CONTINUOUS
10
6.17316
20
-3.59306
11
6.17542
21
-3.59951
0
LINE
8
BLACK
6
CONTINUOUS
10
6.17542
20
-3.59951
11
6.17618
21
-3.6063
0
LINE
8
BLACK
6
CONTINUOUS
10
6.17618
20
-3.6063
11
6.17542
21
-3.61309
0
LINE
8
BLACK
6
CONTINUOUS
10
6.17542
20
-3.61309
11
6.17316
21
-3.61954
0
LINE
8
BLACK
6
CONTINUOUS
10
6.17316
20
-3.61954
11
6.16952
21
-3.62532
0
LINE
8
BLACK
6
CONTINUOUS
10
6.16952
20
-3.62532
11
6.16469
21
-3.63015
0
LINE
8
BLACK
6
CONTINUOUS
10
6.16469
20
-3.63015
11
6.15891
21
-3.63379
0
LINE
8
BLACK
6
CONTINUOUS
10
6.15891
20
-3.63379
11
6.15246
21
-3.63605
0
LINE
8
BLACK
6
CONTINUOUS
10
6.15246
20
-3.63605
11
6.14567
21
-3.63681
0
LINE
8
BLACK
6
CONTINUOUS
10
6.14567
20
-3.63681
11
6.13888
21
-3.63605
0
LINE
8
BLACK
6
CONTINUOUS
10
6.13888
20
-3.63605
11
6.13243
21
-3.63379
0
LINE
8
BLACK
6
CONTINUOUS
10
6.13243
20
-3.63379
11
6.12665
21
-3.63015
0
LINE
8
BLACK
6
CONTINUOUS
10
6.12665
20
-3.63015
11
6.12181
21
-3.62532
0
LINE
8
BLACK
6
CONTINUOUS
10
6.12181
20
-3.62532
11
6.11818
21
-3.61954
0
LINE
8
BLACK
6
CONTINUOUS
10
6.11818
20
-3.61954
11
6.11592
21
-3.61309
0
LINE
8
BLACK
6
CONTINUOUS
10
6.11592
20
-3.61309
11
6.11516
21
-3.6063
0
LINE
8
BLACK
6
CONTINUOUS
10
6.11516
20
-3.6063
11
6.11592
21
-3.59951
0
LINE
8
BLACK
6
CONTINUOUS
10
6.11592
20
-3.59951
11
6.11818
21
-3.59306
0
LINE
8
BLACK
6
CONTINUOUS
10
6.11818
20
-3.59306
11
6.12181
21
-3.58728
0
LINE
8
BLACK
6
CONTINUOUS
10
6.12181
20
-3.58728
11
6.12665
21
-3.58244
0
LINE
8
BLACK
6
CONTINUOUS
10
6.12665
20
-3.58244
11
6.13243
21
-3.57881
0
LINE
8
BLACK
6
CONTINUOUS
10
6.13243
20
-3.57881
11
6.13888
21
-3.57655
0
LINE
8
BLACK
6
CONTINUOUS
10
6.13888
20
-3.57655
11
6.14567
21
-3.57579
0
LINE
8
BLACK
6
CONTINUOUS
10
6.14567
20
-3.57579
11
6.15246
21
-3.57655
0
LINE
8
BLACK
6
CONTINUOUS
10
6.11767
20
-3.61269
11
6.11979
21
-3.61876
0
LINE
8
BLACK
6
CONTINUOUS
10
6.11979
20
-3.61876
11
6.12321
21
-3.62421
0
LINE
8
BLACK
6
CONTINUOUS
10
6.12321
20
-3.62421
11
6.12776
21
-3.62876
0
LINE
8
BLACK
6
CONTINUOUS
10
6.12776
20
-3.62876
11
6.13321
21
-3.63218
0
LINE
8
BLACK
6
CONTINUOUS
10
6.13321
20
-3.63218
11
6.13928
21
-3.6343
0
LINE
8
BLACK
6
CONTINUOUS
10
6.13928
20
-3.6343
11
6.14567
21
-3.63502
0
LINE
8
BLACK
6
CONTINUOUS
10
6.14567
20
-3.63502
11
6.15206
21
-3.6343
0
LINE
8
BLACK
6
CONTINUOUS
10
6.15206
20
-3.6343
11
6.15813
21
-3.63218
0
LINE
8
BLACK
6
CONTINUOUS
10
6.15813
20
-3.63218
11
6.16358
21
-3.62876
0
LINE
8
BLACK
6
CONTINUOUS
10
6.16358
20
-3.62876
11
6.16813
21
-3.62421
0
LINE
8
BLACK
6
CONTINUOUS
10
6.16813
20
-3.62421
11
6.17155
21
-3.61876
0
LINE
8
BLACK
6
CONTINUOUS
10
6.17155
20
-3.61876
11
6.17367
21
-3.61269
0
LINE
8
BLACK
6
CONTINUOUS
10
6.17367
20
-3.61269
11
6.17439
21
-3.6063
0
LINE
8
BLACK
6
CONTINUOUS
10
6.17439
20
-3.6063
11
6.17367
21
-3.59991
0
LINE
8
BLACK
6
CONTINUOUS
10
6.17367
20
-3.59991
11
6.17155
21
-3.59384
0
LINE
8
BLACK
6
CONTINUOUS
10
6.17155
20
-3.59384
11
6.16813
21
-3.58839
0
LINE
8
BLACK
6
CONTINUOUS
10
6.16813
20
-3.58839
11
6.16358
21
-3.58384
0
LINE
8
BLACK
6
CONTINUOUS
10
6.16358
20
-3.58384
11
6.15813
21
-3.58042
0
LINE
8
BLACK
6
CONTINUOUS
10
6.15813
20
-3.58042
11
6.15206
21
-3.5783
0
LINE
8
BLACK
6
CONTINUOUS
10
6.15206
20
-3.5783
11
6.14567
21
-3.57758
0
LINE
8
BLACK
6
CONTINUOUS
10
6.14567
20
-3.57758
11
6.13928
21
-3.5783
0
LINE
8
BLACK
6
CONTINUOUS
10
6.13928
20
-3.5783
11
6.13321
21
-3.58042
0
LINE
8
BLACK
6
CONTINUOUS
10
6.13321
20
-3.58042
11
6.12776
21
-3.58384
0
LINE
8
BLACK
6
CONTINUOUS
10
6.12776
20
-3.58384
11
6.12321
21
-3.58839
0
LINE
8
BLACK
6
CONTINUOUS
10
6.12321
20
-3.58839
11
6.11979
21
-3.59384
0
LINE
8
BLACK
6
CONTINUOUS
10
6.11979
20
-3.59384
11
6.11767
21
-3.59991
0
LINE
8
BLACK
6
CONTINUOUS
10
6.11767
20
-3.59991
11
6.11695
21
-3.6063
0
LINE
8
BLACK
6
CONTINUOUS
10
6.11695
20
-3.6063
11
6.11767
21
-3.61269
0
LINE
8
BLACK
6
CONTINUOUS
10
6.18278
20
-3.48524
11
6.18347
21
-3.48552
0
LINE
8
BLACK
6
CONTINUOUS
10
6.18347
20
-3.48552
11
6.18376
21
-3.48622
0
LINE
8
BLACK
6
CONTINUOUS
10
6.18376
20
-3.48622
11
6.18376
21
-3.56102
0
LINE
8
BLACK
6
CONTINUOUS
10
6.18376
20
-3.56102
11
6.18347
21
-3.56172
0
LINE
8
BLACK
6
CONTINUOUS
10
6.18347
20
-3.56172
11
6.18278
21
-3.56201
0
LINE
8
BLACK
6
CONTINUOUS
10
6.18278
20
-3.56201
11
6.05049
21
-3.56201
0
LINE
8
BLACK
6
CONTINUOUS
10
6.05049
20
-3.56201
11
6.0498
21
-3.56172
0
LINE
8
BLACK
6
CONTINUOUS
10
6.0498
20
-3.56172
11
6.04951
21
-3.56102
0
LINE
8
BLACK
6
CONTINUOUS
10
6.04951
20
-3.56102
11
6.04951
21
-3.48622
0
LINE
8
BLACK
6
CONTINUOUS
10
6.04951
20
-3.48622
11
6.0498
21
-3.48552
0
LINE
8
BLACK
6
CONTINUOUS
10
6.0498
20
-3.48552
11
6.05049
21
-3.48524
0
LINE
8
BLACK
6
CONTINUOUS
10
6.05049
20
-3.48524
11
6.18278
21
-3.48524
0
LINE
8
BLACK
6
CONTINUOUS
10
6.05148
20
-3.4872
11
6.05148
21
-3.56004
0
LINE
8
BLACK
6
CONTINUOUS
10
6.05148
20
-3.56004
11
6.18179
21
-3.56004
0
LINE
8
BLACK
6
CONTINUOUS
10
6.18179
20
-3.56004
11
6.18179
21
-3.4872
0
LINE
8
BLACK
6
CONTINUOUS
10
6.18179
20
-3.4872
11
6.05148
21
-3.4872
0
LINE
8
BLACK
6
CONTINUOUS
10
5.56394
20
-3.4178
11
5.56463
21
-3.41808
0
LINE
8
BLACK
6
CONTINUOUS
10
5.56463
20
-3.41808
11
5.56492
21
-3.41878
0
LINE
8
BLACK
6
CONTINUOUS
10
5.56492
20
-3.41878
11
5.56492
21
-3.53531
0
LINE
8
BLACK
6
CONTINUOUS
10
5.56492
20
-3.53531
11
5.56463
21
-3.53601
0
LINE
8
BLACK
6
CONTINUOUS
10
5.56463
20
-3.53601
11
5.56394
21
-3.5363
0
LINE
8
BLACK
6
CONTINUOUS
10
5.56394
20
-3.5363
11
5.50646
21
-3.5363
0
LINE
8
BLACK
6
CONTINUOUS
10
5.50646
20
-3.5363
11
5.50576
21
-3.53601
0
LINE
8
BLACK
6
CONTINUOUS
10
5.50576
20
-3.53601
11
5.50547
21
-3.53531
0
LINE
8
BLACK
6
CONTINUOUS
10
5.50547
20
-3.53531
11
5.50547
21
-3.41878
0
LINE
8
BLACK
6
CONTINUOUS
10
5.50547
20
-3.41878
11
5.50576
21
-3.41808
0
LINE
8
BLACK
6
CONTINUOUS
10
5.50576
20
-3.41808
11
5.50646
21
-3.4178
0
LINE
8
BLACK
6
CONTINUOUS
10
5.50646
20
-3.4178
11
5.56394
21
-3.4178
0
LINE
8
BLACK
6
CONTINUOUS
10
5.50744
20
-3.41976
11
5.50744
21
-3.53433
0
LINE
8
BLACK
6
CONTINUOUS
10
5.50744
20
-3.53433
11
5.56295
21
-3.53433
0
LINE
8
BLACK
6
CONTINUOUS
10
5.56295
20
-3.53433
11
5.56295
21
-3.41976
0
LINE
8
BLACK
6
CONTINUOUS
10
5.56295
20
-3.41976
11
5.50744
21
-3.41976
0
LINE
8
BLACK
6
CONTINUOUS
10
5.68205
20
-3.4178
11
5.68274
21
-3.41808
0
LINE
8
BLACK
6
CONTINUOUS
10
5.68274
20
-3.41808
11
5.68303
21
-3.41878
0
LINE
8
BLACK
6
CONTINUOUS
10
5.68303
20
-3.41878
11
5.68303
21
-3.53531
0
LINE
8
BLACK
6
CONTINUOUS
10
5.68303
20
-3.53531
11
5.68274
21
-3.53601
0
LINE
8
BLACK
6
CONTINUOUS
10
5.68274
20
-3.53601
11
5.68205
21
-3.5363
0
LINE
8
BLACK
6
CONTINUOUS
10
5.68205
20
-3.5363
11
5.62457
21
-3.5363
0
LINE
8
BLACK
6
CONTINUOUS
10
5.62457
20
-3.5363
11
5.62387
21
-3.53601
0
LINE
8
BLACK
6
CONTINUOUS
10
5.62387
20
-3.53601
11
5.62358
21
-3.53531
0
LINE
8
BLACK
6
CONTINUOUS
10
5.62358
20
-3.53531
11
5.62358
21
-3.41878
0
LINE
8
BLACK
6
CONTINUOUS
10
5.62358
20
-3.41878
11
5.62387
21
-3.41808
0
LINE
8
BLACK
6
CONTINUOUS
10
5.62387
20
-3.41808
11
5.62457
21
-3.4178
0
LINE
8
BLACK
6
CONTINUOUS
10
5.62457
20
-3.4178
11
5.68205
21
-3.4178
0
LINE
8
BLACK
6
CONTINUOUS
10
5.62555
20
-3.41976
11
5.62555
21
-3.53433
0
LINE
8
BLACK
6
CONTINUOUS
10
5.62555
20
-3.53433
11
5.68106
21
-3.53433
0
LINE
8
BLACK
6
CONTINUOUS
10
5.68106
20
-3.53433
11
5.68106
21
-3.41976
0
LINE
8
BLACK
6
CONTINUOUS
10
5.68106
20
-3.41976
11
5.62555
21
-3.41976
  0
ENDSEC
  0
EOF
