  0
SECTION
  2
HEADER
  9
$ANGBASE
  50
0.0
  9
$ANGDIR
  70
1
  9
$MEASUREMENT
  70
0
  0
ENDSEC
  0
SECTION
  2
TABLES
  0
TABLE
  2
LTYPE
  70
4
  0
LTYPE
  5
40F
  2
CONTINUOUS
  70
0
  3
Solid line
  72
65
  73
0
  40
0.0
  0
LTYPE
  5
410
  2
DASHDOT
 70
0
  3
Dash Dot ____ _ ____ _
 72
65
 73
4
 40
2.0
 49
1.25
 49
-0.25
 49
0.25
 49
-0.25
  0
LTYPE
  5
411
  2
DASHED
 70
0
  3
Dashed __ __ __ __ __
 72
65
 73
2
 40
0.75
 49
0.5
 49
-0.25
  0
LTYPE
  5
43B
  2
DOTTED
 70
0
  3
Dotted .  .  .  .
 72
65
 73
2
 40
0.2
 49
0.0
 49
-0.2
  0
ENDTAB
  0
TABLE
  2
STYLE
  70
4
  0
STYLE
  2
KICAD
  70
0
  40
0
  41
1
  42
1
  50
0
  71
0
  3
isocp.shx
  0
STYLE
  2
KICADB
  70
0
  40
0
  41
1
  42
1
  50
0
  71
0
  3
isocp.shx
  0
STYLE
  2
KICADI
  70
0
  40
0
  41
1
  42
1
  50
15
  71
0
  3
isocp.shx
  0
STYLE
  2
KICADBI
  70
0
  40
0
  41
1
  42
1
  50
15
  71
0
  3
isocp.shx
  0
ENDTAB
  0
TABLE
  2
LAYER
  70
1
  0
LAYER
  2
BLACK
  70
0
  62
7
  6
CONTINUOUS
  0
ENDTAB
  0
ENDSEC
  0
SECTION
  2
ENTITIES
0
LINE
8
BLACK
6
CONTINUOUS
10
6.47848
20
-4.36693
11
6.48064
21
-4.36909
0
LINE
8
BLACK
6
CONTINUOUS
10
6.48064
20
-4.36909
11
6.48143
21
-4.37205
0
LINE
8
BLACK
6
CONTINUOUS
10
6.48143
20
-4.37205
11
6.48143
21
-4.37767
0
LINE
8
BLACK
6
CONTINUOUS
10
6.48143
20
-4.37767
11
6.48108
21
-4.37898
0
LINE
8
BLACK
6
CONTINUOUS
10
6.48108
20
-4.37898
11
6.48081
21
-4.38031
0
LINE
8
BLACK
6
CONTINUOUS
10
6.48081
20
-4.38031
11
6.47799
21
-4.38594
0
LINE
8
BLACK
6
CONTINUOUS
10
6.47799
20
-4.38594
11
6.47776
21
-4.38621
0
LINE
8
BLACK
6
CONTINUOUS
10
6.47776
20
-4.38621
11
6.47764
21
-4.38655
0
LINE
8
BLACK
6
CONTINUOUS
10
6.47764
20
-4.38655
11
6.47675
21
-4.38734
0
LINE
8
BLACK
6
CONTINUOUS
10
6.47675
20
-4.38734
11
6.47597
21
-4.38822
0
LINE
8
BLACK
6
CONTINUOUS
10
6.47597
20
-4.38822
11
6.47562
21
-4.38834
0
LINE
8
BLACK
6
CONTINUOUS
10
6.47562
20
-4.38834
11
6.47535
21
-4.38858
0
LINE
8
BLACK
6
CONTINUOUS
10
6.47535
20
-4.38858
11
6.46973
21
-4.39139
0
LINE
8
BLACK
6
CONTINUOUS
10
6.46973
20
-4.39139
11
6.4684
21
-4.39166
0
LINE
8
BLACK
6
CONTINUOUS
10
6.4684
20
-4.39166
11
6.46709
21
-4.39201
0
LINE
8
BLACK
6
CONTINUOUS
10
6.46709
20
-4.39201
11
6.44206
21
-4.39201
0
LINE
8
BLACK
6
CONTINUOUS
10
6.44206
20
-4.39201
11
6.44206
21
-4.39454
0
LINE
8
BLACK
6
CONTINUOUS
10
6.44206
20
-4.39454
11
6.44127
21
-4.3975
0
LINE
8
BLACK
6
CONTINUOUS
10
6.44127
20
-4.3975
11
6.43911
21
-4.39966
0
LINE
8
BLACK
6
CONTINUOUS
10
6.43911
20
-4.39966
11
6.43615
21
-4.40045
0
LINE
8
BLACK
6
CONTINUOUS
10
6.43615
20
-4.40045
11
6.4332
21
-4.39966
0
LINE
8
BLACK
6
CONTINUOUS
10
6.4332
20
-4.39966
11
6.43104
21
-4.3975
0
LINE
8
BLACK
6
CONTINUOUS
10
6.43104
20
-4.3975
11
6.43025
21
-4.39454
0
LINE
8
BLACK
6
CONTINUOUS
10
6.43025
20
-4.39454
11
6.43025
21
-4.39201
0
LINE
8
BLACK
6
CONTINUOUS
10
6.43025
20
-4.39201
11
6.41647
21
-4.39201
0
LINE
8
BLACK
6
CONTINUOUS
10
6.41647
20
-4.39201
11
6.41352
21
-4.39122
0
LINE
8
BLACK
6
CONTINUOUS
10
6.41352
20
-4.39122
11
6.41136
21
-4.38906
0
LINE
8
BLACK
6
CONTINUOUS
10
6.41136
20
-4.38906
11
6.41056
21
-4.38611
0
LINE
8
BLACK
6
CONTINUOUS
10
6.41056
20
-4.38611
11
6.41136
21
-4.38316
0
LINE
8
BLACK
6
CONTINUOUS
10
6.41136
20
-4.38316
11
6.41352
21
-4.38099
0
LINE
8
BLACK
6
CONTINUOUS
10
6.41352
20
-4.38099
11
6.41647
21
-4.3802
0
LINE
8
BLACK
6
CONTINUOUS
10
6.41647
20
-4.3802
11
6.43025
21
-4.3802
0
LINE
8
BLACK
6
CONTINUOUS
10
6.43025
20
-4.3802
11
6.43025
21
-4.37205
0
LINE
8
BLACK
6
CONTINUOUS
10
6.43025
20
-4.37205
11
6.43104
21
-4.36909
0
LINE
8
BLACK
6
CONTINUOUS
10
6.43104
20
-4.36909
11
6.4332
21
-4.36693
0
LINE
8
BLACK
6
CONTINUOUS
10
6.4332
20
-4.36693
11
6.43615
21
-4.36614
0
LINE
8
BLACK
6
CONTINUOUS
10
6.43615
20
-4.36614
11
6.43911
21
-4.36693
0
LINE
8
BLACK
6
CONTINUOUS
10
6.43911
20
-4.36693
11
6.44127
21
-4.36909
0
LINE
8
BLACK
6
CONTINUOUS
10
6.44127
20
-4.36909
11
6.44206
21
-4.37205
0
LINE
8
BLACK
6
CONTINUOUS
10
6.44206
20
-4.37205
11
6.44206
21
-4.3802
0
LINE
8
BLACK
6
CONTINUOUS
10
6.44206
20
-4.3802
11
6.46569
21
-4.3802
0
LINE
8
BLACK
6
CONTINUOUS
10
6.46569
20
-4.3802
11
6.46831
21
-4.37889
0
LINE
8
BLACK
6
CONTINUOUS
10
6.46831
20
-4.37889
11
6.46962
21
-4.37628
0
LINE
8
BLACK
6
CONTINUOUS
10
6.46962
20
-4.37628
11
6.46962
21
-4.37205
0
LINE
8
BLACK
6
CONTINUOUS
10
6.46962
20
-4.37205
11
6.47041
21
-4.36909
0
LINE
8
BLACK
6
CONTINUOUS
10
6.47041
20
-4.36909
11
6.47257
21
-4.36693
0
LINE
8
BLACK
6
CONTINUOUS
10
6.47257
20
-4.36693
11
6.47552
21
-4.36614
0
LINE
8
BLACK
6
CONTINUOUS
10
6.47552
20
-4.36614
11
6.47848
21
-4.36693
0
LINE
8
BLACK
6
CONTINUOUS
10
6.46559
20
-4.31869
11
6.46692
21
-4.31896
0
LINE
8
BLACK
6
CONTINUOUS
10
6.46692
20
-4.31896
11
6.47254
21
-4.32177
0
LINE
8
BLACK
6
CONTINUOUS
10
6.47254
20
-4.32177
11
6.47325
21
-4.3224
0
LINE
8
BLACK
6
CONTINUOUS
10
6.47325
20
-4.3224
11
6.47408
21
-4.32288
0
LINE
8
BLACK
6
CONTINUOUS
10
6.47408
20
-4.32288
11
6.47689
21
-4.32569
0
LINE
8
BLACK
6
CONTINUOUS
10
6.47689
20
-4.32569
11
6.47736
21
-4.32651
0
LINE
8
BLACK
6
CONTINUOUS
10
6.47736
20
-4.32651
11
6.47799
21
-4.32722
0
LINE
8
BLACK
6
CONTINUOUS
10
6.47799
20
-4.32722
11
6.48081
21
-4.33285
0
LINE
8
BLACK
6
CONTINUOUS
10
6.48081
20
-4.33285
11
6.48108
21
-4.33418
0
LINE
8
BLACK
6
CONTINUOUS
10
6.48108
20
-4.33418
11
6.48143
21
-4.33549
0
LINE
8
BLACK
6
CONTINUOUS
10
6.48143
20
-4.33549
11
6.48143
21
-4.34393
0
LINE
8
BLACK
6
CONTINUOUS
10
6.48143
20
-4.34393
11
6.48108
21
-4.34524
0
LINE
8
BLACK
6
CONTINUOUS
10
6.48108
20
-4.34524
11
6.48081
21
-4.34657
0
LINE
8
BLACK
6
CONTINUOUS
10
6.48081
20
-4.34657
11
6.47799
21
-4.35219
0
LINE
8
BLACK
6
CONTINUOUS
10
6.47799
20
-4.35219
11
6.47736
21
-4.3529
0
LINE
8
BLACK
6
CONTINUOUS
10
6.47736
20
-4.3529
11
6.47689
21
-4.35373
0
LINE
8
BLACK
6
CONTINUOUS
10
6.47689
20
-4.35373
11
6.47408
21
-4.35654
0
LINE
8
BLACK
6
CONTINUOUS
10
6.47408
20
-4.35654
11
6.47325
21
-4.35701
0
LINE
8
BLACK
6
CONTINUOUS
10
6.47325
20
-4.35701
11
6.47254
21
-4.35764
0
LINE
8
BLACK
6
CONTINUOUS
10
6.47254
20
-4.35764
11
6.46692
21
-4.36046
0
LINE
8
BLACK
6
CONTINUOUS
10
6.46692
20
-4.36046
11
6.46559
21
-4.36073
0
LINE
8
BLACK
6
CONTINUOUS
10
6.46559
20
-4.36073
11
6.46428
21
-4.36108
0
LINE
8
BLACK
6
CONTINUOUS
10
6.46428
20
-4.36108
11
6.4474
21
-4.36108
0
LINE
8
BLACK
6
CONTINUOUS
10
6.4474
20
-4.36108
11
6.44609
21
-4.36073
0
LINE
8
BLACK
6
CONTINUOUS
10
6.44609
20
-4.36073
11
6.44476
21
-4.36046
0
LINE
8
BLACK
6
CONTINUOUS
10
6.44476
20
-4.36046
11
6.43914
21
-4.35764
0
LINE
8
BLACK
6
CONTINUOUS
10
6.43914
20
-4.35764
11
6.43843
21
-4.35701
0
LINE
8
BLACK
6
CONTINUOUS
10
6.43843
20
-4.35701
11
6.4376
21
-4.35654
0
LINE
8
BLACK
6
CONTINUOUS
10
6.4376
20
-4.35654
11
6.43479
21
-4.35373
0
LINE
8
BLACK
6
CONTINUOUS
10
6.43479
20
-4.35373
11
6.43432
21
-4.3529
0
LINE
8
BLACK
6
CONTINUOUS
10
6.43432
20
-4.3529
11
6.43368
21
-4.35219
0
LINE
8
BLACK
6
CONTINUOUS
10
6.43368
20
-4.35219
11
6.43087
21
-4.34657
0
LINE
8
BLACK
6
CONTINUOUS
10
6.43087
20
-4.34657
11
6.4306
21
-4.34524
0
LINE
8
BLACK
6
CONTINUOUS
10
6.4306
20
-4.34524
11
6.43025
21
-4.34393
0
LINE
8
BLACK
6
CONTINUOUS
10
6.43025
20
-4.34393
11
6.43025
21
-4.33549
0
LINE
8
BLACK
6
CONTINUOUS
10
6.43025
20
-4.33549
11
6.4306
21
-4.33418
0
LINE
8
BLACK
6
CONTINUOUS
10
6.4306
20
-4.33418
11
6.43087
21
-4.33285
0
LINE
8
BLACK
6
CONTINUOUS
10
6.43087
20
-4.33285
11
6.43368
21
-4.32722
0
LINE
8
BLACK
6
CONTINUOUS
10
6.43368
20
-4.32722
11
6.43432
21
-4.32651
0
LINE
8
BLACK
6
CONTINUOUS
10
6.43432
20
-4.32651
11
6.43479
21
-4.32569
0
LINE
8
BLACK
6
CONTINUOUS
10
6.43479
20
-4.32569
11
6.4376
21
-4.32288
0
LINE
8
BLACK
6
CONTINUOUS
10
6.4376
20
-4.32288
11
6.43843
21
-4.3224
0
LINE
8
BLACK
6
CONTINUOUS
10
6.43843
20
-4.3224
11
6.43914
21
-4.32177
0
LINE
8
BLACK
6
CONTINUOUS
10
6.43914
20
-4.32177
11
6.44476
21
-4.31896
0
LINE
8
BLACK
6
CONTINUOUS
10
6.44476
20
-4.31896
11
6.44609
21
-4.31869
0
LINE
8
BLACK
6
CONTINUOUS
10
6.44609
20
-4.31869
11
6.4474
21
-4.31834
0
LINE
8
BLACK
6
CONTINUOUS
10
6.4474
20
-4.31834
11
6.46428
21
-4.31834
0
LINE
8
BLACK
6
CONTINUOUS
10
6.46428
20
-4.31834
11
6.46559
21
-4.31869
0
LINE
8
BLACK
6
CONTINUOUS
10
6.44528
20
-4.33191
11
6.44382
21
-4.33336
0
LINE
8
BLACK
6
CONTINUOUS
10
6.44382
20
-4.33336
11
6.44206
21
-4.33688
0
LINE
8
BLACK
6
CONTINUOUS
10
6.44206
20
-4.33688
11
6.44206
21
-4.34253
0
LINE
8
BLACK
6
CONTINUOUS
10
6.44206
20
-4.34253
11
6.44382
21
-4.34605
0
LINE
8
BLACK
6
CONTINUOUS
10
6.44382
20
-4.34605
11
6.44528
21
-4.34751
0
LINE
8
BLACK
6
CONTINUOUS
10
6.44528
20
-4.34751
11
6.4488
21
-4.34927
0
LINE
8
BLACK
6
CONTINUOUS
10
6.4488
20
-4.34927
11
6.46288
21
-4.34927
0
LINE
8
BLACK
6
CONTINUOUS
10
6.46288
20
-4.34927
11
6.4664
21
-4.34751
0
LINE
8
BLACK
6
CONTINUOUS
10
6.4664
20
-4.34751
11
6.46786
21
-4.34605
0
LINE
8
BLACK
6
CONTINUOUS
10
6.46786
20
-4.34605
11
6.46962
21
-4.34253
0
LINE
8
BLACK
6
CONTINUOUS
10
6.46962
20
-4.34253
11
6.46962
21
-4.33688
0
LINE
8
BLACK
6
CONTINUOUS
10
6.46962
20
-4.33688
11
6.46786
21
-4.33336
0
LINE
8
BLACK
6
CONTINUOUS
10
6.46786
20
-4.33336
11
6.4664
21
-4.33191
0
LINE
8
BLACK
6
CONTINUOUS
10
6.4664
20
-4.33191
11
6.46288
21
-4.33015
0
LINE
8
BLACK
6
CONTINUOUS
10
6.46288
20
-4.33015
11
6.4488
21
-4.33015
0
LINE
8
BLACK
6
CONTINUOUS
10
6.4488
20
-4.33015
11
6.44528
21
-4.33191
0
LINE
8
BLACK
6
CONTINUOUS
10
6.41942
20
-4.2207
11
6.42158
21
-4.22286
0
LINE
8
BLACK
6
CONTINUOUS
10
6.42158
20
-4.22286
11
6.42238
21
-4.22582
0
LINE
8
BLACK
6
CONTINUOUS
10
6.42238
20
-4.22582
11
6.42238
21
-4.24803
0
LINE
8
BLACK
6
CONTINUOUS
10
6.42238
20
-4.24803
11
6.43869
21
-4.24803
0
LINE
8
BLACK
6
CONTINUOUS
10
6.43869
20
-4.24803
11
6.43869
21
-4.23425
0
LINE
8
BLACK
6
CONTINUOUS
10
6.43869
20
-4.23425
11
6.43948
21
-4.2313
0
LINE
8
BLACK
6
CONTINUOUS
10
6.43948
20
-4.2313
11
6.44164
21
-4.22914
0
LINE
8
BLACK
6
CONTINUOUS
10
6.44164
20
-4.22914
11
6.44459
21
-4.22835
0
LINE
8
BLACK
6
CONTINUOUS
10
6.44459
20
-4.22835
11
6.44754
21
-4.22914
0
LINE
8
BLACK
6
CONTINUOUS
10
6.44754
20
-4.22914
11
6.44971
21
-4.2313
0
LINE
8
BLACK
6
CONTINUOUS
10
6.44971
20
-4.2313
11
6.4505
21
-4.23425
0
LINE
8
BLACK
6
CONTINUOUS
10
6.4505
20
-4.23425
11
6.4505
21
-4.24803
0
LINE
8
BLACK
6
CONTINUOUS
10
6.4505
20
-4.24803
11
6.47552
21
-4.24803
0
LINE
8
BLACK
6
CONTINUOUS
10
6.47552
20
-4.24803
11
6.47848
21
-4.24882
0
LINE
8
BLACK
6
CONTINUOUS
10
6.47848
20
-4.24882
11
6.48064
21
-4.25098
0
LINE
8
BLACK
6
CONTINUOUS
10
6.48064
20
-4.25098
11
6.48143
21
-4.25394
0
LINE
8
BLACK
6
CONTINUOUS
10
6.48143
20
-4.25394
11
6.48064
21
-4.25689
0
LINE
8
BLACK
6
CONTINUOUS
10
6.48064
20
-4.25689
11
6.47848
21
-4.25905
0
LINE
8
BLACK
6
CONTINUOUS
10
6.47848
20
-4.25905
11
6.47552
21
-4.25984
0
LINE
8
BLACK
6
CONTINUOUS
10
6.47552
20
-4.25984
11
6.44459
21
-4.25984
0
LINE
8
BLACK
6
CONTINUOUS
10
6.44459
20
-4.25984
11
6.41647
21
-4.25984
0
LINE
8
BLACK
6
CONTINUOUS
10
6.41647
20
-4.25984
11
6.41352
21
-4.25905
0
LINE
8
BLACK
6
CONTINUOUS
10
6.41352
20
-4.25905
11
6.41136
21
-4.25689
0
LINE
8
BLACK
6
CONTINUOUS
10
6.41136
20
-4.25689
11
6.41056
21
-4.25394
0
LINE
8
BLACK
6
CONTINUOUS
10
6.41056
20
-4.25394
11
6.41056
21
-4.22582
0
LINE
8
BLACK
6
CONTINUOUS
10
6.41056
20
-4.22582
11
6.41136
21
-4.22286
0
LINE
8
BLACK
6
CONTINUOUS
10
6.41136
20
-4.22286
11
6.41352
21
-4.2207
0
LINE
8
BLACK
6
CONTINUOUS
10
6.41352
20
-4.2207
11
6.41647
21
-4.21991
0
LINE
8
BLACK
6
CONTINUOUS
10
6.41647
20
-4.21991
11
6.41942
21
-4.2207
0
LINE
8
BLACK
6
CONTINUOUS
10
6.47848
20
-4.15883
11
6.48064
21
-4.161
0
LINE
8
BLACK
6
CONTINUOUS
10
6.48064
20
-4.161
11
6.48143
21
-4.16395
0
LINE
8
BLACK
6
CONTINUOUS
10
6.48143
20
-4.16395
11
6.48064
21
-4.1669
0
LINE
8
BLACK
6
CONTINUOUS
10
6.48064
20
-4.1669
11
6.47848
21
-4.16906
0
LINE
8
BLACK
6
CONTINUOUS
10
6.47848
20
-4.16906
11
6.47552
21
-4.16985
0
LINE
8
BLACK
6
CONTINUOUS
10
6.47552
20
-4.16985
11
6.44309
21
-4.16985
0
LINE
8
BLACK
6
CONTINUOUS
10
6.44309
20
-4.16985
11
6.46115
21
-4.17828
0
LINE
8
BLACK
6
CONTINUOUS
10
6.46115
20
-4.17828
11
6.46155
21
-4.17862
0
LINE
8
BLACK
6
CONTINUOUS
10
6.46155
20
-4.17862
11
6.46204
21
-4.17879
0
LINE
8
BLACK
6
CONTINUOUS
10
6.46204
20
-4.17879
11
6.4627
21
-4.17958
0
LINE
8
BLACK
6
CONTINUOUS
10
6.4627
20
-4.17958
11
6.46349
21
-4.18025
0
LINE
8
BLACK
6
CONTINUOUS
10
6.46349
20
-4.18025
11
6.46367
21
-4.18074
0
LINE
8
BLACK
6
CONTINUOUS
10
6.46367
20
-4.18074
11
6.464
21
-4.18114
0
LINE
8
BLACK
6
CONTINUOUS
10
6.464
20
-4.18114
11
6.46418
21
-4.18215
0
LINE
8
BLACK
6
CONTINUOUS
10
6.46418
20
-4.18215
11
6.46454
21
-4.18312
0
LINE
8
BLACK
6
CONTINUOUS
10
6.46454
20
-4.18312
11
6.46444
21
-4.18363
0
LINE
8
BLACK
6
CONTINUOUS
10
6.46444
20
-4.18363
11
6.46454
21
-4.18415
0
LINE
8
BLACK
6
CONTINUOUS
10
6.46454
20
-4.18415
11
6.46418
21
-4.18512
0
LINE
8
BLACK
6
CONTINUOUS
10
6.46418
20
-4.18512
11
6.464
21
-4.18613
0
LINE
8
BLACK
6
CONTINUOUS
10
6.464
20
-4.18613
11
6.46367
21
-4.18653
0
LINE
8
BLACK
6
CONTINUOUS
10
6.46367
20
-4.18653
11
6.46349
21
-4.18702
0
LINE
8
BLACK
6
CONTINUOUS
10
6.46349
20
-4.18702
11
6.4627
21
-4.18768
0
LINE
8
BLACK
6
CONTINUOUS
10
6.4627
20
-4.18768
11
6.46204
21
-4.18847
0
LINE
8
BLACK
6
CONTINUOUS
10
6.46204
20
-4.18847
11
6.46155
21
-4.18865
0
LINE
8
BLACK
6
CONTINUOUS
10
6.46155
20
-4.18865
11
6.46115
21
-4.18898
0
LINE
8
BLACK
6
CONTINUOUS
10
6.46115
20
-4.18898
11
6.44309
21
-4.19741
0
LINE
8
BLACK
6
CONTINUOUS
10
6.44309
20
-4.19741
11
6.47552
21
-4.19741
0
LINE
8
BLACK
6
CONTINUOUS
10
6.47552
20
-4.19741
11
6.47848
21
-4.1982
0
LINE
8
BLACK
6
CONTINUOUS
10
6.47848
20
-4.1982
11
6.48064
21
-4.20037
0
LINE
8
BLACK
6
CONTINUOUS
10
6.48064
20
-4.20037
11
6.48143
21
-4.20332
0
LINE
8
BLACK
6
CONTINUOUS
10
6.48143
20
-4.20332
11
6.48064
21
-4.20627
0
LINE
8
BLACK
6
CONTINUOUS
10
6.48064
20
-4.20627
11
6.47848
21
-4.20843
0
LINE
8
BLACK
6
CONTINUOUS
10
6.47848
20
-4.20843
11
6.47552
21
-4.20922
0
LINE
8
BLACK
6
CONTINUOUS
10
6.47552
20
-4.20922
11
6.41647
21
-4.20922
0
LINE
8
BLACK
6
CONTINUOUS
10
6.41647
20
-4.20922
11
6.41622
21
-4.20916
0
LINE
8
BLACK
6
CONTINUOUS
10
6.41622
20
-4.20916
11
6.41596
21
-4.2092
0
LINE
8
BLACK
6
CONTINUOUS
10
6.41596
20
-4.2092
11
6.41475
21
-4.20876
0
LINE
8
BLACK
6
CONTINUOUS
10
6.41475
20
-4.20876
11
6.41352
21
-4.20843
0
LINE
8
BLACK
6
CONTINUOUS
10
6.41352
20
-4.20843
11
6.41333
21
-4.20825
0
LINE
8
BLACK
6
CONTINUOUS
10
6.41333
20
-4.20825
11
6.41308
21
-4.20816
0
LINE
8
BLACK
6
CONTINUOUS
10
6.41308
20
-4.20816
11
6.41226
21
-4.20718
0
LINE
8
BLACK
6
CONTINUOUS
10
6.41226
20
-4.20718
11
6.41136
21
-4.20627
0
LINE
8
BLACK
6
CONTINUOUS
10
6.41136
20
-4.20627
11
6.41129
21
-4.20602
0
LINE
8
BLACK
6
CONTINUOUS
10
6.41129
20
-4.20602
11
6.41112
21
-4.20582
0
LINE
8
BLACK
6
CONTINUOUS
10
6.41112
20
-4.20582
11
6.4109
21
-4.20456
0
LINE
8
BLACK
6
CONTINUOUS
10
6.4109
20
-4.20456
11
6.41056
21
-4.20332
0
LINE
8
BLACK
6
CONTINUOUS
10
6.41056
20
-4.20332
11
6.41063
21
-4.20306
0
LINE
8
BLACK
6
CONTINUOUS
10
6.41063
20
-4.20306
11
6.41059
21
-4.20281
0
LINE
8
BLACK
6
CONTINUOUS
10
6.41059
20
-4.20281
11
6.41102
21
-4.2016
0
LINE
8
BLACK
6
CONTINUOUS
10
6.41102
20
-4.2016
11
6.41136
21
-4.20037
0
LINE
8
BLACK
6
CONTINUOUS
10
6.41136
20
-4.20037
11
6.41154
21
-4.20018
0
LINE
8
BLACK
6
CONTINUOUS
10
6.41154
20
-4.20018
11
6.41163
21
-4.19993
0
LINE
8
BLACK
6
CONTINUOUS
10
6.41163
20
-4.19993
11
6.41261
21
-4.19911
0
LINE
8
BLACK
6
CONTINUOUS
10
6.41261
20
-4.19911
11
6.41352
21
-4.1982
0
LINE
8
BLACK
6
CONTINUOUS
10
6.41352
20
-4.1982
11
6.41377
21
-4.19814
0
LINE
8
BLACK
6
CONTINUOUS
10
6.41377
20
-4.19814
11
6.41397
21
-4.19797
0
LINE
8
BLACK
6
CONTINUOUS
10
6.41397
20
-4.19797
11
6.44469
21
-4.18363
0
LINE
8
BLACK
6
CONTINUOUS
10
6.44469
20
-4.18363
11
6.41397
21
-4.1693
0
LINE
8
BLACK
6
CONTINUOUS
10
6.41397
20
-4.1693
11
6.41377
21
-4.16913
0
LINE
8
BLACK
6
CONTINUOUS
10
6.41377
20
-4.16913
11
6.41352
21
-4.16906
0
LINE
8
BLACK
6
CONTINUOUS
10
6.41352
20
-4.16906
11
6.41261
21
-4.16816
0
LINE
8
BLACK
6
CONTINUOUS
10
6.41261
20
-4.16816
11
6.41163
21
-4.16733
0
LINE
8
BLACK
6
CONTINUOUS
10
6.41163
20
-4.16733
11
6.41154
21
-4.16709
0
LINE
8
BLACK
6
CONTINUOUS
10
6.41154
20
-4.16709
11
6.41136
21
-4.1669
0
LINE
8
BLACK
6
CONTINUOUS
10
6.41136
20
-4.1669
11
6.41102
21
-4.16566
0
LINE
8
BLACK
6
CONTINUOUS
10
6.41102
20
-4.16566
11
6.41059
21
-4.16446
0
LINE
8
BLACK
6
CONTINUOUS
10
6.41059
20
-4.16446
11
6.41063
21
-4.1642
0
LINE
8
BLACK
6
CONTINUOUS
10
6.41063
20
-4.1642
11
6.41056
21
-4.16395
0
LINE
8
BLACK
6
CONTINUOUS
10
6.41056
20
-4.16395
11
6.4109
21
-4.16271
0
LINE
8
BLACK
6
CONTINUOUS
10
6.4109
20
-4.16271
11
6.41112
21
-4.16145
0
LINE
8
BLACK
6
CONTINUOUS
10
6.41112
20
-4.16145
11
6.41129
21
-4.16125
0
LINE
8
BLACK
6
CONTINUOUS
10
6.41129
20
-4.16125
11
6.41136
21
-4.161
0
LINE
8
BLACK
6
CONTINUOUS
10
6.41136
20
-4.161
11
6.41226
21
-4.16009
0
LINE
8
BLACK
6
CONTINUOUS
10
6.41226
20
-4.16009
11
6.41308
21
-4.15911
0
LINE
8
BLACK
6
CONTINUOUS
10
6.41308
20
-4.15911
11
6.41333
21
-4.15902
0
LINE
8
BLACK
6
CONTINUOUS
10
6.41333
20
-4.15902
11
6.41352
21
-4.15883
0
LINE
8
BLACK
6
CONTINUOUS
10
6.41352
20
-4.15883
11
6.41475
21
-4.1585
0
LINE
8
BLACK
6
CONTINUOUS
10
6.41475
20
-4.1585
11
6.41596
21
-4.15807
0
LINE
8
BLACK
6
CONTINUOUS
10
6.41596
20
-4.15807
11
6.41622
21
-4.15811
0
LINE
8
BLACK
6
CONTINUOUS
10
6.41622
20
-4.15811
11
6.41647
21
-4.15804
0
LINE
8
BLACK
6
CONTINUOUS
10
6.41647
20
-4.15804
11
6.47552
21
-4.15804
0
LINE
8
BLACK
6
CONTINUOUS
10
6.47552
20
-4.15804
11
6.47848
21
-4.15883
0
LINE
8
BLACK
6
CONTINUOUS
10
6.46559
20
-4.09653
11
6.46692
21
-4.0968
0
LINE
8
BLACK
6
CONTINUOUS
10
6.46692
20
-4.0968
11
6.47254
21
-4.09961
0
LINE
8
BLACK
6
CONTINUOUS
10
6.47254
20
-4.09961
11
6.47325
21
-4.10024
0
LINE
8
BLACK
6
CONTINUOUS
10
6.47325
20
-4.10024
11
6.47408
21
-4.10072
0
LINE
8
BLACK
6
CONTINUOUS
10
6.47408
20
-4.10072
11
6.47689
21
-4.10353
0
LINE
8
BLACK
6
CONTINUOUS
10
6.47689
20
-4.10353
11
6.47736
21
-4.10435
0
LINE
8
BLACK
6
CONTINUOUS
10
6.47736
20
-4.10435
11
6.47799
21
-4.10506
0
LINE
8
BLACK
6
CONTINUOUS
10
6.47799
20
-4.10506
11
6.48081
21
-4.11069
0
LINE
8
BLACK
6
CONTINUOUS
10
6.48081
20
-4.11069
11
6.48108
21
-4.11202
0
LINE
8
BLACK
6
CONTINUOUS
10
6.48108
20
-4.11202
11
6.48143
21
-4.11333
0
LINE
8
BLACK
6
CONTINUOUS
10
6.48143
20
-4.11333
11
6.48143
21
-4.12458
0
LINE
8
BLACK
6
CONTINUOUS
10
6.48143
20
-4.12458
11
6.48108
21
-4.12589
0
LINE
8
BLACK
6
CONTINUOUS
10
6.48108
20
-4.12589
11
6.48081
21
-4.12722
0
LINE
8
BLACK
6
CONTINUOUS
10
6.48081
20
-4.12722
11
6.47799
21
-4.13284
0
LINE
8
BLACK
6
CONTINUOUS
10
6.47799
20
-4.13284
11
6.47736
21
-4.13355
0
LINE
8
BLACK
6
CONTINUOUS
10
6.47736
20
-4.13355
11
6.47689
21
-4.13438
0
LINE
8
BLACK
6
CONTINUOUS
10
6.47689
20
-4.13438
11
6.47408
21
-4.13719
0
LINE
8
BLACK
6
CONTINUOUS
10
6.47408
20
-4.13719
11
6.47325
21
-4.13767
0
LINE
8
BLACK
6
CONTINUOUS
10
6.47325
20
-4.13767
11
6.47254
21
-4.1383
0
LINE
8
BLACK
6
CONTINUOUS
10
6.47254
20
-4.1383
11
6.46692
21
-4.14111
0
LINE
8
BLACK
6
CONTINUOUS
10
6.46692
20
-4.14111
11
6.46559
21
-4.14138
0
LINE
8
BLACK
6
CONTINUOUS
10
6.46559
20
-4.14138
11
6.46428
21
-4.14173
0
LINE
8
BLACK
6
CONTINUOUS
10
6.46428
20
-4.14173
11
6.41647
21
-4.14173
0
LINE
8
BLACK
6
CONTINUOUS
10
6.41647
20
-4.14173
11
6.41352
21
-4.14094
0
LINE
8
BLACK
6
CONTINUOUS
10
6.41352
20
-4.14094
11
6.41136
21
-4.13878
0
LINE
8
BLACK
6
CONTINUOUS
10
6.41136
20
-4.13878
11
6.41056
21
-4.13583
0
LINE
8
BLACK
6
CONTINUOUS
10
6.41056
20
-4.13583
11
6.41136
21
-4.13287
0
LINE
8
BLACK
6
CONTINUOUS
10
6.41136
20
-4.13287
11
6.41352
21
-4.13071
0
LINE
8
BLACK
6
CONTINUOUS
10
6.41352
20
-4.13071
11
6.41647
21
-4.12992
0
LINE
8
BLACK
6
CONTINUOUS
10
6.41647
20
-4.12992
11
6.46288
21
-4.12992
0
LINE
8
BLACK
6
CONTINUOUS
10
6.46288
20
-4.12992
11
6.4664
21
-4.12816
0
LINE
8
BLACK
6
CONTINUOUS
10
6.4664
20
-4.12816
11
6.46786
21
-4.1267
0
LINE
8
BLACK
6
CONTINUOUS
10
6.46786
20
-4.1267
11
6.46962
21
-4.12318
0
LINE
8
BLACK
6
CONTINUOUS
10
6.46962
20
-4.12318
11
6.46962
21
-4.11472
0
LINE
8
BLACK
6
CONTINUOUS
10
6.46962
20
-4.11472
11
6.46786
21
-4.1112
0
LINE
8
BLACK
6
CONTINUOUS
10
6.46786
20
-4.1112
11
6.4664
21
-4.10975
0
LINE
8
BLACK
6
CONTINUOUS
10
6.4664
20
-4.10975
11
6.46288
21
-4.10799
0
LINE
8
BLACK
6
CONTINUOUS
10
6.46288
20
-4.10799
11
6.41647
21
-4.10799
0
LINE
8
BLACK
6
CONTINUOUS
10
6.41647
20
-4.10799
11
6.41352
21
-4.1072
0
LINE
8
BLACK
6
CONTINUOUS
10
6.41352
20
-4.1072
11
6.41136
21
-4.10503
0
LINE
8
BLACK
6
CONTINUOUS
10
6.41136
20
-4.10503
11
6.41056
21
-4.10208
0
LINE
8
BLACK
6
CONTINUOUS
10
6.41056
20
-4.10208
11
6.41136
21
-4.09913
0
LINE
8
BLACK
6
CONTINUOUS
10
6.41136
20
-4.09913
11
6.41352
21
-4.09697
0
LINE
8
BLACK
6
CONTINUOUS
10
6.41352
20
-4.09697
11
6.41647
21
-4.09618
0
LINE
8
BLACK
6
CONTINUOUS
10
6.41647
20
-4.09618
11
6.46428
21
-4.09618
0
LINE
8
BLACK
6
CONTINUOUS
10
6.46428
20
-4.09618
11
6.46559
21
-4.09653
0
LINE
8
BLACK
6
CONTINUOUS
10
6.47848
20
-3.84219
11
6.48064
21
-3.84435
0
LINE
8
BLACK
6
CONTINUOUS
10
6.48064
20
-3.84435
11
6.48143
21
-3.8473
0
LINE
8
BLACK
6
CONTINUOUS
10
6.48143
20
-3.8473
11
6.48143
21
-3.85292
0
LINE
8
BLACK
6
CONTINUOUS
10
6.48143
20
-3.85292
11
6.48108
21
-3.85424
0
LINE
8
BLACK
6
CONTINUOUS
10
6.48108
20
-3.85424
11
6.48081
21
-3.85557
0
LINE
8
BLACK
6
CONTINUOUS
10
6.48081
20
-3.85557
11
6.47799
21
-3.86119
0
LINE
8
BLACK
6
CONTINUOUS
10
6.47799
20
-3.86119
11
6.47776
21
-3.86146
0
LINE
8
BLACK
6
CONTINUOUS
10
6.47776
20
-3.86146
11
6.47764
21
-3.8618
0
LINE
8
BLACK
6
CONTINUOUS
10
6.47764
20
-3.8618
11
6.47675
21
-3.86259
0
LINE
8
BLACK
6
CONTINUOUS
10
6.47675
20
-3.86259
11
6.47597
21
-3.86348
0
LINE
8
BLACK
6
CONTINUOUS
10
6.47597
20
-3.86348
11
6.47562
21
-3.86359
0
LINE
8
BLACK
6
CONTINUOUS
10
6.47562
20
-3.86359
11
6.47535
21
-3.86383
0
LINE
8
BLACK
6
CONTINUOUS
10
6.47535
20
-3.86383
11
6.46973
21
-3.86664
0
LINE
8
BLACK
6
CONTINUOUS
10
6.46973
20
-3.86664
11
6.4684
21
-3.86692
0
LINE
8
BLACK
6
CONTINUOUS
10
6.4684
20
-3.86692
11
6.46709
21
-3.86727
0
LINE
8
BLACK
6
CONTINUOUS
10
6.46709
20
-3.86727
11
6.44206
21
-3.86727
0
LINE
8
BLACK
6
CONTINUOUS
10
6.44206
20
-3.86727
11
6.44206
21
-3.8698
0
LINE
8
BLACK
6
CONTINUOUS
10
6.44206
20
-3.8698
11
6.44127
21
-3.87275
0
LINE
8
BLACK
6
CONTINUOUS
10
6.44127
20
-3.87275
11
6.43911
21
-3.87491
0
LINE
8
BLACK
6
CONTINUOUS
10
6.43911
20
-3.87491
11
6.43615
21
-3.8757
0
LINE
8
BLACK
6
CONTINUOUS
10
6.43615
20
-3.8757
11
6.4332
21
-3.87491
0
LINE
8
BLACK
6
CONTINUOUS
10
6.4332
20
-3.87491
11
6.43104
21
-3.87275
0
LINE
8
BLACK
6
CONTINUOUS
10
6.43104
20
-3.87275
11
6.43025
21
-3.8698
0
LINE
8
BLACK
6
CONTINUOUS
10
6.43025
20
-3.8698
11
6.43025
21
-3.86727
0
LINE
8
BLACK
6
CONTINUOUS
10
6.43025
20
-3.86727
11
6.41647
21
-3.86727
0
LINE
8
BLACK
6
CONTINUOUS
10
6.41647
20
-3.86727
11
6.41352
21
-3.86648
0
LINE
8
BLACK
6
CONTINUOUS
10
6.41352
20
-3.86648
11
6.41136
21
-3.86431
0
LINE
8
BLACK
6
CONTINUOUS
10
6.41136
20
-3.86431
11
6.41056
21
-3.86136
0
LINE
8
BLACK
6
CONTINUOUS
10
6.41056
20
-3.86136
11
6.41136
21
-3.85841
0
LINE
8
BLACK
6
CONTINUOUS
10
6.41136
20
-3.85841
11
6.41352
21
-3.85625
0
LINE
8
BLACK
6
CONTINUOUS
10
6.41352
20
-3.85625
11
6.41647
21
-3.85546
0
LINE
8
BLACK
6
CONTINUOUS
10
6.41647
20
-3.85546
11
6.43025
21
-3.85546
0
LINE
8
BLACK
6
CONTINUOUS
10
6.43025
20
-3.85546
11
6.43025
21
-3.8473
0
LINE
8
BLACK
6
CONTINUOUS
10
6.43025
20
-3.8473
11
6.43104
21
-3.84435
0
LINE
8
BLACK
6
CONTINUOUS
10
6.43104
20
-3.84435
11
6.4332
21
-3.84219
0
LINE
8
BLACK
6
CONTINUOUS
10
6.4332
20
-3.84219
11
6.43615
21
-3.84139
0
LINE
8
BLACK
6
CONTINUOUS
10
6.43615
20
-3.84139
11
6.43911
21
-3.84219
0
LINE
8
BLACK
6
CONTINUOUS
10
6.43911
20
-3.84219
11
6.44127
21
-3.84435
0
LINE
8
BLACK
6
CONTINUOUS
10
6.44127
20
-3.84435
11
6.44206
21
-3.8473
0
LINE
8
BLACK
6
CONTINUOUS
10
6.44206
20
-3.8473
11
6.44206
21
-3.85546
0
LINE
8
BLACK
6
CONTINUOUS
10
6.44206
20
-3.85546
11
6.46569
21
-3.85546
0
LINE
8
BLACK
6
CONTINUOUS
10
6.46569
20
-3.85546
11
6.46831
21
-3.85415
0
LINE
8
BLACK
6
CONTINUOUS
10
6.46831
20
-3.85415
11
6.46962
21
-3.85153
0
LINE
8
BLACK
6
CONTINUOUS
10
6.46962
20
-3.85153
11
6.46962
21
-3.8473
0
LINE
8
BLACK
6
CONTINUOUS
10
6.46962
20
-3.8473
11
6.47041
21
-3.84435
0
LINE
8
BLACK
6
CONTINUOUS
10
6.47041
20
-3.84435
11
6.47257
21
-3.84219
0
LINE
8
BLACK
6
CONTINUOUS
10
6.47257
20
-3.84219
11
6.47552
21
-3.84139
0
LINE
8
BLACK
6
CONTINUOUS
10
6.47552
20
-3.84139
11
6.47848
21
-3.84219
0
LINE
8
BLACK
6
CONTINUOUS
10
6.46559
20
-3.79394
11
6.46692
21
-3.79421
0
LINE
8
BLACK
6
CONTINUOUS
10
6.46692
20
-3.79421
11
6.47254
21
-3.79702
0
LINE
8
BLACK
6
CONTINUOUS
10
6.47254
20
-3.79702
11
6.47325
21
-3.79765
0
LINE
8
BLACK
6
CONTINUOUS
10
6.47325
20
-3.79765
11
6.47408
21
-3.79813
0
LINE
8
BLACK
6
CONTINUOUS
10
6.47408
20
-3.79813
11
6.47689
21
-3.80094
0
LINE
8
BLACK
6
CONTINUOUS
10
6.47689
20
-3.80094
11
6.47736
21
-3.80177
0
LINE
8
BLACK
6
CONTINUOUS
10
6.47736
20
-3.80177
11
6.47799
21
-3.80248
0
LINE
8
BLACK
6
CONTINUOUS
10
6.47799
20
-3.80248
11
6.48081
21
-3.8081
0
LINE
8
BLACK
6
CONTINUOUS
10
6.48081
20
-3.8081
11
6.48108
21
-3.80943
0
LINE
8
BLACK
6
CONTINUOUS
10
6.48108
20
-3.80943
11
6.48143
21
-3.81074
0
LINE
8
BLACK
6
CONTINUOUS
10
6.48143
20
-3.81074
11
6.48143
21
-3.81918
0
LINE
8
BLACK
6
CONTINUOUS
10
6.48143
20
-3.81918
11
6.48108
21
-3.82049
0
LINE
8
BLACK
6
CONTINUOUS
10
6.48108
20
-3.82049
11
6.48081
21
-3.82182
0
LINE
8
BLACK
6
CONTINUOUS
10
6.48081
20
-3.82182
11
6.47799
21
-3.82744
0
LINE
8
BLACK
6
CONTINUOUS
10
6.47799
20
-3.82744
11
6.47736
21
-3.82816
0
LINE
8
BLACK
6
CONTINUOUS
10
6.47736
20
-3.82816
11
6.47689
21
-3.82898
0
LINE
8
BLACK
6
CONTINUOUS
10
6.47689
20
-3.82898
11
6.47408
21
-3.83179
0
LINE
8
BLACK
6
CONTINUOUS
10
6.47408
20
-3.83179
11
6.47325
21
-3.83227
0
LINE
8
BLACK
6
CONTINUOUS
10
6.47325
20
-3.83227
11
6.47254
21
-3.8329
0
LINE
8
BLACK
6
CONTINUOUS
10
6.47254
20
-3.8329
11
6.46692
21
-3.83571
0
LINE
8
BLACK
6
CONTINUOUS
10
6.46692
20
-3.83571
11
6.46559
21
-3.83598
0
LINE
8
BLACK
6
CONTINUOUS
10
6.46559
20
-3.83598
11
6.46428
21
-3.83633
0
LINE
8
BLACK
6
CONTINUOUS
10
6.46428
20
-3.83633
11
6.4474
21
-3.83633
0
LINE
8
BLACK
6
CONTINUOUS
10
6.4474
20
-3.83633
11
6.44609
21
-3.83598
0
LINE
8
BLACK
6
CONTINUOUS
10
6.44609
20
-3.83598
11
6.44476
21
-3.83571
0
LINE
8
BLACK
6
CONTINUOUS
10
6.44476
20
-3.83571
11
6.43914
21
-3.8329
0
LINE
8
BLACK
6
CONTINUOUS
10
6.43914
20
-3.8329
11
6.43843
21
-3.83227
0
LINE
8
BLACK
6
CONTINUOUS
10
6.43843
20
-3.83227
11
6.4376
21
-3.83179
0
LINE
8
BLACK
6
CONTINUOUS
10
6.4376
20
-3.83179
11
6.43479
21
-3.82898
0
LINE
8
BLACK
6
CONTINUOUS
10
6.43479
20
-3.82898
11
6.43432
21
-3.82816
0
LINE
8
BLACK
6
CONTINUOUS
10
6.43432
20
-3.82816
11
6.43368
21
-3.82744
0
LINE
8
BLACK
6
CONTINUOUS
10
6.43368
20
-3.82744
11
6.43087
21
-3.82182
0
LINE
8
BLACK
6
CONTINUOUS
10
6.43087
20
-3.82182
11
6.4306
21
-3.82049
0
LINE
8
BLACK
6
CONTINUOUS
10
6.4306
20
-3.82049
11
6.43025
21
-3.81918
0
LINE
8
BLACK
6
CONTINUOUS
10
6.43025
20
-3.81918
11
6.43025
21
-3.81074
0
LINE
8
BLACK
6
CONTINUOUS
10
6.43025
20
-3.81074
11
6.4306
21
-3.80943
0
LINE
8
BLACK
6
CONTINUOUS
10
6.4306
20
-3.80943
11
6.43087
21
-3.8081
0
LINE
8
BLACK
6
CONTINUOUS
10
6.43087
20
-3.8081
11
6.43368
21
-3.80248
0
LINE
8
BLACK
6
CONTINUOUS
10
6.43368
20
-3.80248
11
6.43432
21
-3.80177
0
LINE
8
BLACK
6
CONTINUOUS
10
6.43432
20
-3.80177
11
6.43479
21
-3.80094
0
LINE
8
BLACK
6
CONTINUOUS
10
6.43479
20
-3.80094
11
6.4376
21
-3.79813
0
LINE
8
BLACK
6
CONTINUOUS
10
6.4376
20
-3.79813
11
6.43843
21
-3.79765
0
LINE
8
BLACK
6
CONTINUOUS
10
6.43843
20
-3.79765
11
6.43914
21
-3.79702
0
LINE
8
BLACK
6
CONTINUOUS
10
6.43914
20
-3.79702
11
6.44476
21
-3.79421
0
LINE
8
BLACK
6
CONTINUOUS
10
6.44476
20
-3.79421
11
6.44609
21
-3.79394
0
LINE
8
BLACK
6
CONTINUOUS
10
6.44609
20
-3.79394
11
6.4474
21
-3.79359
0
LINE
8
BLACK
6
CONTINUOUS
10
6.4474
20
-3.79359
11
6.46428
21
-3.79359
0
LINE
8
BLACK
6
CONTINUOUS
10
6.46428
20
-3.79359
11
6.46559
21
-3.79394
0
LINE
8
BLACK
6
CONTINUOUS
10
6.44528
20
-3.80716
11
6.44382
21
-3.80862
0
LINE
8
BLACK
6
CONTINUOUS
10
6.44382
20
-3.80862
11
6.44206
21
-3.81214
0
LINE
8
BLACK
6
CONTINUOUS
10
6.44206
20
-3.81214
11
6.44206
21
-3.81778
0
LINE
8
BLACK
6
CONTINUOUS
10
6.44206
20
-3.81778
11
6.44382
21
-3.8213
0
LINE
8
BLACK
6
CONTINUOUS
10
6.44382
20
-3.8213
11
6.44528
21
-3.82276
0
LINE
8
BLACK
6
CONTINUOUS
10
6.44528
20
-3.82276
11
6.4488
21
-3.82452
0
LINE
8
BLACK
6
CONTINUOUS
10
6.4488
20
-3.82452
11
6.46288
21
-3.82452
0
LINE
8
BLACK
6
CONTINUOUS
10
6.46288
20
-3.82452
11
6.4664
21
-3.82276
0
LINE
8
BLACK
6
CONTINUOUS
10
6.4664
20
-3.82276
11
6.46786
21
-3.8213
0
LINE
8
BLACK
6
CONTINUOUS
10
6.46786
20
-3.8213
11
6.46962
21
-3.81778
0
LINE
8
BLACK
6
CONTINUOUS
10
6.46962
20
-3.81778
11
6.46962
21
-3.81214
0
LINE
8
BLACK
6
CONTINUOUS
10
6.46962
20
-3.81214
11
6.46786
21
-3.80862
0
LINE
8
BLACK
6
CONTINUOUS
10
6.46786
20
-3.80862
11
6.4664
21
-3.80716
0
LINE
8
BLACK
6
CONTINUOUS
10
6.4664
20
-3.80716
11
6.46288
21
-3.8054
0
LINE
8
BLACK
6
CONTINUOUS
10
6.46288
20
-3.8054
11
6.4488
21
-3.8054
0
LINE
8
BLACK
6
CONTINUOUS
10
6.4488
20
-3.8054
11
6.44528
21
-3.80716
0
LINE
8
BLACK
6
CONTINUOUS
10
6.45092
20
-3.68973
11
6.45165
21
-3.68972
0
LINE
8
BLACK
6
CONTINUOUS
10
6.45165
20
-3.68972
11
6.4629
21
-3.69253
0
LINE
8
BLACK
6
CONTINUOUS
10
6.4629
20
-3.69253
11
6.46347
21
-3.69284
0
LINE
8
BLACK
6
CONTINUOUS
10
6.46347
20
-3.69284
11
6.4641
21
-3.69297
0
LINE
8
BLACK
6
CONTINUOUS
10
6.4641
20
-3.69297
11
6.46973
21
-3.69579
0
LINE
8
BLACK
6
CONTINUOUS
10
6.46973
20
-3.69579
11
6.47044
21
-3.69642
0
LINE
8
BLACK
6
CONTINUOUS
10
6.47044
20
-3.69642
11
6.47126
21
-3.69689
0
LINE
8
BLACK
6
CONTINUOUS
10
6.47126
20
-3.69689
11
6.47689
21
-3.70252
0
LINE
8
BLACK
6
CONTINUOUS
10
6.47689
20
-3.70252
11
6.47757
21
-3.70369
0
LINE
8
BLACK
6
CONTINUOUS
10
6.47757
20
-3.70369
11
6.47832
21
-3.70483
0
LINE
8
BLACK
6
CONTINUOUS
10
6.47832
20
-3.70483
11
6.48113
21
-3.71326
0
LINE
8
BLACK
6
CONTINUOUS
10
6.48113
20
-3.71326
11
6.48118
21
-3.71421
0
LINE
8
BLACK
6
CONTINUOUS
10
6.48118
20
-3.71421
11
6.48143
21
-3.71513
0
LINE
8
BLACK
6
CONTINUOUS
10
6.48143
20
-3.71513
11
6.48143
21
-3.72919
0
LINE
8
BLACK
6
CONTINUOUS
10
6.48143
20
-3.72919
11
6.48064
21
-3.73214
0
LINE
8
BLACK
6
CONTINUOUS
10
6.48064
20
-3.73214
11
6.47848
21
-3.7343
0
LINE
8
BLACK
6
CONTINUOUS
10
6.47848
20
-3.7343
11
6.47552
21
-3.7351
0
LINE
8
BLACK
6
CONTINUOUS
10
6.47552
20
-3.7351
11
6.41647
21
-3.7351
0
LINE
8
BLACK
6
CONTINUOUS
10
6.41647
20
-3.7351
11
6.41352
21
-3.7343
0
LINE
8
BLACK
6
CONTINUOUS
10
6.41352
20
-3.7343
11
6.41136
21
-3.73214
0
LINE
8
BLACK
6
CONTINUOUS
10
6.41136
20
-3.73214
11
6.41056
21
-3.72919
0
LINE
8
BLACK
6
CONTINUOUS
10
6.41056
20
-3.72919
11
6.41056
21
-3.72919
0
LINE
8
BLACK
6
CONTINUOUS
10
6.41056
20
-3.72919
11
6.41056
21
-3.71513
0
LINE
8
BLACK
6
CONTINUOUS
10
6.41056
20
-3.71513
11
6.41081
21
-3.71421
0
LINE
8
BLACK
6
CONTINUOUS
10
6.41081
20
-3.71421
11
6.41087
21
-3.71326
0
LINE
8
BLACK
6
CONTINUOUS
10
6.41087
20
-3.71326
11
6.41368
21
-3.70483
0
LINE
8
BLACK
6
CONTINUOUS
10
6.41368
20
-3.70483
11
6.41443
21
-3.70369
0
LINE
8
BLACK
6
CONTINUOUS
10
6.41443
20
-3.70369
11
6.41511
21
-3.70252
0
LINE
8
BLACK
6
CONTINUOUS
10
6.41511
20
-3.70252
11
6.42073
21
-3.69689
0
LINE
8
BLACK
6
CONTINUOUS
10
6.42073
20
-3.69689
11
6.42155
21
-3.69642
0
LINE
8
BLACK
6
CONTINUOUS
10
6.42155
20
-3.69642
11
6.42227
21
-3.69579
0
LINE
8
BLACK
6
CONTINUOUS
10
6.42227
20
-3.69579
11
6.42789
21
-3.69297
0
LINE
8
BLACK
6
CONTINUOUS
10
6.42789
20
-3.69297
11
6.42853
21
-3.69284
0
LINE
8
BLACK
6
CONTINUOUS
10
6.42853
20
-3.69284
11
6.4291
21
-3.69253
0
LINE
8
BLACK
6
CONTINUOUS
10
6.4291
20
-3.69253
11
6.44035
21
-3.68972
0
LINE
8
BLACK
6
CONTINUOUS
10
6.44035
20
-3.68972
11
6.44108
21
-3.68973
0
LINE
8
BLACK
6
CONTINUOUS
10
6.44108
20
-3.68973
11
6.44178
21
-3.68954
0
LINE
8
BLACK
6
CONTINUOUS
10
6.44178
20
-3.68954
11
6.45022
21
-3.68954
0
LINE
8
BLACK
6
CONTINUOUS
10
6.45022
20
-3.68954
11
6.45092
21
-3.68973
0
LINE
8
BLACK
6
CONTINUOUS
10
6.43259
20
-3.70383
11
6.4284
21
-3.70592
0
LINE
8
BLACK
6
CONTINUOUS
10
6.4284
20
-3.70592
11
6.42444
21
-3.70988
0
LINE
8
BLACK
6
CONTINUOUS
10
6.42444
20
-3.70988
11
6.42238
21
-3.71609
0
LINE
8
BLACK
6
CONTINUOUS
10
6.42238
20
-3.71609
11
6.42238
21
-3.72328
0
LINE
8
BLACK
6
CONTINUOUS
10
6.42238
20
-3.72328
11
6.46962
21
-3.72328
0
LINE
8
BLACK
6
CONTINUOUS
10
6.46962
20
-3.72328
11
6.46962
21
-3.71609
0
LINE
8
BLACK
6
CONTINUOUS
10
6.46962
20
-3.71609
11
6.46755
21
-3.70988
0
LINE
8
BLACK
6
CONTINUOUS
10
6.46755
20
-3.70988
11
6.46359
21
-3.70592
0
LINE
8
BLACK
6
CONTINUOUS
10
6.46359
20
-3.70592
11
6.4594
21
-3.70383
0
LINE
8
BLACK
6
CONTINUOUS
10
6.4594
20
-3.70383
11
6.44949
21
-3.70135
0
LINE
8
BLACK
6
CONTINUOUS
10
6.44949
20
-3.70135
11
6.44251
21
-3.70135
0
LINE
8
BLACK
6
CONTINUOUS
10
6.44251
20
-3.70135
11
6.43259
21
-3.70383
0
LINE
8
BLACK
6
CONTINUOUS
10
5.74592
20
-3.61214
11
5.74725
21
-3.61241
0
LINE
8
BLACK
6
CONTINUOUS
10
5.74725
20
-3.61241
11
5.75287
21
-3.61522
0
LINE
8
BLACK
6
CONTINUOUS
10
5.75287
20
-3.61522
11
5.75358
21
-3.61585
0
LINE
8
BLACK
6
CONTINUOUS
10
5.75358
20
-3.61585
11
5.75441
21
-3.61633
0
LINE
8
BLACK
6
CONTINUOUS
10
5.75441
20
-3.61633
11
5.75722
21
-3.61914
0
LINE
8
BLACK
6
CONTINUOUS
10
5.75722
20
-3.61914
11
5.75769
21
-3.61996
0
LINE
8
BLACK
6
CONTINUOUS
10
5.75769
20
-3.61996
11
5.75832
21
-3.62067
0
LINE
8
BLACK
6
CONTINUOUS
10
5.75832
20
-3.62067
11
5.76114
21
-3.6263
0
LINE
8
BLACK
6
CONTINUOUS
10
5.76114
20
-3.6263
11
5.76141
21
-3.62763
0
LINE
8
BLACK
6
CONTINUOUS
10
5.76141
20
-3.62763
11
5.76176
21
-3.62894
0
LINE
8
BLACK
6
CONTINUOUS
10
5.76176
20
-3.62894
11
5.76176
21
-3.63456
0
LINE
8
BLACK
6
CONTINUOUS
10
5.76176
20
-3.63456
11
5.76151
21
-3.63548
0
LINE
8
BLACK
6
CONTINUOUS
10
5.76151
20
-3.63548
11
5.76146
21
-3.63643
0
LINE
8
BLACK
6
CONTINUOUS
10
5.76146
20
-3.63643
11
5.75865
21
-3.64487
0
LINE
8
BLACK
6
CONTINUOUS
10
5.75865
20
-3.64487
11
5.7579
21
-3.646
0
LINE
8
BLACK
6
CONTINUOUS
10
5.7579
20
-3.646
11
5.75722
21
-3.64718
0
LINE
8
BLACK
6
CONTINUOUS
10
5.75722
20
-3.64718
11
5.73355
21
-3.67084
0
LINE
8
BLACK
6
CONTINUOUS
10
5.73355
20
-3.67084
11
5.75585
21
-3.67084
0
LINE
8
BLACK
6
CONTINUOUS
10
5.75585
20
-3.67084
11
5.75881
21
-3.67163
0
LINE
8
BLACK
6
CONTINUOUS
10
5.75881
20
-3.67163
11
5.76097
21
-3.67379
0
LINE
8
BLACK
6
CONTINUOUS
10
5.76097
20
-3.67379
11
5.76176
21
-3.67675
0
LINE
8
BLACK
6
CONTINUOUS
10
5.76176
20
-3.67675
11
5.76097
21
-3.6797
0
LINE
8
BLACK
6
CONTINUOUS
10
5.76097
20
-3.6797
11
5.75881
21
-3.68186
0
LINE
8
BLACK
6
CONTINUOUS
10
5.75881
20
-3.68186
11
5.75585
21
-3.68265
0
LINE
8
BLACK
6
CONTINUOUS
10
5.75585
20
-3.68265
11
5.7193
21
-3.68265
0
LINE
8
BLACK
6
CONTINUOUS
10
5.7193
20
-3.68265
11
5.71855
21
-3.68245
0
LINE
8
BLACK
6
CONTINUOUS
10
5.71855
20
-3.68245
11
5.71777
21
-3.68245
0
LINE
8
BLACK
6
CONTINUOUS
10
5.71777
20
-3.68245
11
5.7171
21
-3.68206
0
LINE
8
BLACK
6
CONTINUOUS
10
5.7171
20
-3.68206
11
5.71634
21
-3.68186
0
LINE
8
BLACK
6
CONTINUOUS
10
5.71634
20
-3.68186
11
5.71579
21
-3.68131
0
LINE
8
BLACK
6
CONTINUOUS
10
5.71579
20
-3.68131
11
5.71512
21
-3.68092
0
LINE
8
BLACK
6
CONTINUOUS
10
5.71512
20
-3.68092
11
5.71473
21
-3.68025
0
LINE
8
BLACK
6
CONTINUOUS
10
5.71473
20
-3.68025
11
5.71418
21
-3.6797
0
LINE
8
BLACK
6
CONTINUOUS
10
5.71418
20
-3.6797
11
5.71398
21
-3.67895
0
LINE
8
BLACK
6
CONTINUOUS
10
5.71398
20
-3.67895
11
5.71359
21
-3.67827
0
LINE
8
BLACK
6
CONTINUOUS
10
5.71359
20
-3.67827
11
5.71359
21
-3.6775
0
LINE
8
BLACK
6
CONTINUOUS
10
5.71359
20
-3.6775
11
5.71339
21
-3.67675
0
LINE
8
BLACK
6
CONTINUOUS
10
5.71339
20
-3.67675
11
5.71359
21
-3.67599
0
LINE
8
BLACK
6
CONTINUOUS
10
5.71359
20
-3.67599
11
5.71359
21
-3.67522
0
LINE
8
BLACK
6
CONTINUOUS
10
5.71359
20
-3.67522
11
5.71398
21
-3.67454
0
LINE
8
BLACK
6
CONTINUOUS
10
5.71398
20
-3.67454
11
5.71418
21
-3.67379
0
LINE
8
BLACK
6
CONTINUOUS
10
5.71418
20
-3.67379
11
5.71473
21
-3.67324
0
LINE
8
BLACK
6
CONTINUOUS
10
5.71473
20
-3.67324
11
5.71512
21
-3.67257
0
LINE
8
BLACK
6
CONTINUOUS
10
5.71512
20
-3.67257
11
5.74788
21
-3.63981
0
LINE
8
BLACK
6
CONTINUOUS
10
5.74788
20
-3.63981
11
5.74995
21
-3.6336
0
LINE
8
BLACK
6
CONTINUOUS
10
5.74995
20
-3.6336
11
5.74995
21
-3.63033
0
LINE
8
BLACK
6
CONTINUOUS
10
5.74995
20
-3.63033
11
5.74819
21
-3.62681
0
LINE
8
BLACK
6
CONTINUOUS
10
5.74819
20
-3.62681
11
5.74673
21
-3.62536
0
LINE
8
BLACK
6
CONTINUOUS
10
5.74673
20
-3.62536
11
5.74321
21
-3.6236
0
LINE
8
BLACK
6
CONTINUOUS
10
5.74321
20
-3.6236
11
5.73194
21
-3.6236
0
LINE
8
BLACK
6
CONTINUOUS
10
5.73194
20
-3.6236
11
5.72842
21
-3.62536
0
LINE
8
BLACK
6
CONTINUOUS
10
5.72842
20
-3.62536
11
5.72628
21
-3.62749
0
LINE
8
BLACK
6
CONTINUOUS
10
5.72628
20
-3.62749
11
5.72364
21
-3.62902
0
LINE
8
BLACK
6
CONTINUOUS
10
5.72364
20
-3.62902
11
5.72058
21
-3.62902
0
LINE
8
BLACK
6
CONTINUOUS
10
5.72058
20
-3.62902
11
5.71793
21
-3.62749
0
LINE
8
BLACK
6
CONTINUOUS
10
5.71793
20
-3.62749
11
5.7164
21
-3.62484
0
LINE
8
BLACK
6
CONTINUOUS
10
5.7164
20
-3.62484
11
5.7164
21
-3.62179
0
LINE
8
BLACK
6
CONTINUOUS
10
5.7164
20
-3.62179
11
5.71793
21
-3.61914
0
LINE
8
BLACK
6
CONTINUOUS
10
5.71793
20
-3.61914
11
5.72075
21
-3.61633
0
LINE
8
BLACK
6
CONTINUOUS
10
5.72075
20
-3.61633
11
5.72157
21
-3.61585
0
LINE
8
BLACK
6
CONTINUOUS
10
5.72157
20
-3.61585
11
5.72228
21
-3.61522
0
LINE
8
BLACK
6
CONTINUOUS
10
5.72228
20
-3.61522
11
5.7279
21
-3.61241
0
LINE
8
BLACK
6
CONTINUOUS
10
5.7279
20
-3.61241
11
5.72923
21
-3.61214
0
LINE
8
BLACK
6
CONTINUOUS
10
5.72923
20
-3.61214
11
5.73055
21
-3.61178
0
LINE
8
BLACK
6
CONTINUOUS
10
5.73055
20
-3.61178
11
5.74461
21
-3.61178
0
LINE
8
BLACK
6
CONTINUOUS
10
5.74461
20
-3.61178
11
5.74592
21
-3.61214
0
LINE
8
BLACK
6
CONTINUOUS
10
5.79935
20
-3.61214
11
5.80068
21
-3.61241
0
LINE
8
BLACK
6
CONTINUOUS
10
5.80068
20
-3.61241
11
5.8063
21
-3.61522
0
LINE
8
BLACK
6
CONTINUOUS
10
5.8063
20
-3.61522
11
5.80701
21
-3.61585
0
LINE
8
BLACK
6
CONTINUOUS
10
5.80701
20
-3.61585
11
5.80784
21
-3.61633
0
LINE
8
BLACK
6
CONTINUOUS
10
5.80784
20
-3.61633
11
5.81065
21
-3.61914
0
LINE
8
BLACK
6
CONTINUOUS
10
5.81065
20
-3.61914
11
5.81112
21
-3.61996
0
LINE
8
BLACK
6
CONTINUOUS
10
5.81112
20
-3.61996
11
5.81176
21
-3.62067
0
LINE
8
BLACK
6
CONTINUOUS
10
5.81176
20
-3.62067
11
5.81457
21
-3.6263
0
LINE
8
BLACK
6
CONTINUOUS
10
5.81457
20
-3.6263
11
5.8147
21
-3.62694
0
LINE
8
BLACK
6
CONTINUOUS
10
5.8147
20
-3.62694
11
5.81501
21
-3.62751
0
LINE
8
BLACK
6
CONTINUOUS
10
5.81501
20
-3.62751
11
5.81783
21
-3.63875
0
LINE
8
BLACK
6
CONTINUOUS
10
5.81783
20
-3.63875
11
5.81781
21
-3.63948
0
LINE
8
BLACK
6
CONTINUOUS
10
5.81781
20
-3.63948
11
5.818
21
-3.64019
0
LINE
8
BLACK
6
CONTINUOUS
10
5.818
20
-3.64019
11
5.818
21
-3.65425
0
LINE
8
BLACK
6
CONTINUOUS
10
5.818
20
-3.65425
11
5.81781
21
-3.65495
0
LINE
8
BLACK
6
CONTINUOUS
10
5.81781
20
-3.65495
11
5.81783
21
-3.65568
0
LINE
8
BLACK
6
CONTINUOUS
10
5.81783
20
-3.65568
11
5.81501
21
-3.66693
0
LINE
8
BLACK
6
CONTINUOUS
10
5.81501
20
-3.66693
11
5.8147
21
-3.6675
0
LINE
8
BLACK
6
CONTINUOUS
10
5.8147
20
-3.6675
11
5.81457
21
-3.66814
0
LINE
8
BLACK
6
CONTINUOUS
10
5.81457
20
-3.66814
11
5.81176
21
-3.67376
0
LINE
8
BLACK
6
CONTINUOUS
10
5.81176
20
-3.67376
11
5.81112
21
-3.67447
0
LINE
8
BLACK
6
CONTINUOUS
10
5.81112
20
-3.67447
11
5.81065
21
-3.6753
0
LINE
8
BLACK
6
CONTINUOUS
10
5.81065
20
-3.6753
11
5.80784
21
-3.67811
0
LINE
8
BLACK
6
CONTINUOUS
10
5.80784
20
-3.67811
11
5.80701
21
-3.67858
0
LINE
8
BLACK
6
CONTINUOUS
10
5.80701
20
-3.67858
11
5.8063
21
-3.67922
0
LINE
8
BLACK
6
CONTINUOUS
10
5.8063
20
-3.67922
11
5.80068
21
-3.68203
0
LINE
8
BLACK
6
CONTINUOUS
10
5.80068
20
-3.68203
11
5.79935
21
-3.6823
0
LINE
8
BLACK
6
CONTINUOUS
10
5.79935
20
-3.6823
11
5.79804
21
-3.68265
0
LINE
8
BLACK
6
CONTINUOUS
10
5.79804
20
-3.68265
11
5.79241
21
-3.68265
0
LINE
8
BLACK
6
CONTINUOUS
10
5.79241
20
-3.68265
11
5.7911
21
-3.6823
0
LINE
8
BLACK
6
CONTINUOUS
10
5.7911
20
-3.6823
11
5.78977
21
-3.68203
0
LINE
8
BLACK
6
CONTINUOUS
10
5.78977
20
-3.68203
11
5.78415
21
-3.67922
0
LINE
8
BLACK
6
CONTINUOUS
10
5.78415
20
-3.67922
11
5.78344
21
-3.67858
0
LINE
8
BLACK
6
CONTINUOUS
10
5.78344
20
-3.67858
11
5.78261
21
-3.67811
0
LINE
8
BLACK
6
CONTINUOUS
10
5.78261
20
-3.67811
11
5.7798
21
-3.6753
0
LINE
8
BLACK
6
CONTINUOUS
10
5.7798
20
-3.6753
11
5.77933
21
-3.67447
0
LINE
8
BLACK
6
CONTINUOUS
10
5.77933
20
-3.67447
11
5.77869
21
-3.67376
0
LINE
8
BLACK
6
CONTINUOUS
10
5.77869
20
-3.67376
11
5.77588
21
-3.66814
0
LINE
8
BLACK
6
CONTINUOUS
10
5.77588
20
-3.66814
11
5.77575
21
-3.6675
0
LINE
8
BLACK
6
CONTINUOUS
10
5.77575
20
-3.6675
11
5.77544
21
-3.66693
0
LINE
8
BLACK
6
CONTINUOUS
10
5.77544
20
-3.66693
11
5.77262
21
-3.65568
0
LINE
8
BLACK
6
CONTINUOUS
10
5.77262
20
-3.65568
11
5.77264
21
-3.65495
0
LINE
8
BLACK
6
CONTINUOUS
10
5.77264
20
-3.65495
11
5.77245
21
-3.65425
0
LINE
8
BLACK
6
CONTINUOUS
10
5.77245
20
-3.65425
11
5.77245
21
-3.64019
0
LINE
8
BLACK
6
CONTINUOUS
10
5.77245
20
-3.64019
11
5.77264
21
-3.63948
0
LINE
8
BLACK
6
CONTINUOUS
10
5.77264
20
-3.63948
11
5.77262
21
-3.63875
0
LINE
8
BLACK
6
CONTINUOUS
10
5.77262
20
-3.63875
11
5.77544
21
-3.62751
0
LINE
8
BLACK
6
CONTINUOUS
10
5.77544
20
-3.62751
11
5.77575
21
-3.62694
0
LINE
8
BLACK
6
CONTINUOUS
10
5.77575
20
-3.62694
11
5.77588
21
-3.6263
0
LINE
8
BLACK
6
CONTINUOUS
10
5.77588
20
-3.6263
11
5.77869
21
-3.62067
0
LINE
8
BLACK
6
CONTINUOUS
10
5.77869
20
-3.62067
11
5.77933
21
-3.61996
0
LINE
8
BLACK
6
CONTINUOUS
10
5.77933
20
-3.61996
11
5.7798
21
-3.61914
0
LINE
8
BLACK
6
CONTINUOUS
10
5.7798
20
-3.61914
11
5.78261
21
-3.61633
0
LINE
8
BLACK
6
CONTINUOUS
10
5.78261
20
-3.61633
11
5.78344
21
-3.61585
0
LINE
8
BLACK
6
CONTINUOUS
10
5.78344
20
-3.61585
11
5.78415
21
-3.61522
0
LINE
8
BLACK
6
CONTINUOUS
10
5.78415
20
-3.61522
11
5.78977
21
-3.61241
0
LINE
8
BLACK
6
CONTINUOUS
10
5.78977
20
-3.61241
11
5.7911
21
-3.61214
0
LINE
8
BLACK
6
CONTINUOUS
10
5.7911
20
-3.61214
11
5.79241
21
-3.61178
0
LINE
8
BLACK
6
CONTINUOUS
10
5.79241
20
-3.61178
11
5.79804
21
-3.61178
0
LINE
8
BLACK
6
CONTINUOUS
10
5.79804
20
-3.61178
11
5.79935
21
-3.61214
0
LINE
8
BLACK
6
CONTINUOUS
10
5.79029
20
-3.62536
11
5.78883
21
-3.62681
0
LINE
8
BLACK
6
CONTINUOUS
10
5.78883
20
-3.62681
11
5.78674
21
-3.631
0
LINE
8
BLACK
6
CONTINUOUS
10
5.78674
20
-3.631
11
5.78426
21
-3.64091
0
LINE
8
BLACK
6
CONTINUOUS
10
5.78426
20
-3.64091
11
5.78426
21
-3.65352
0
LINE
8
BLACK
6
CONTINUOUS
10
5.78426
20
-3.65352
11
5.78674
21
-3.66344
0
LINE
8
BLACK
6
CONTINUOUS
10
5.78674
20
-3.66344
11
5.78883
21
-3.66762
0
LINE
8
BLACK
6
CONTINUOUS
10
5.78883
20
-3.66762
11
5.79029
21
-3.66908
0
LINE
8
BLACK
6
CONTINUOUS
10
5.79029
20
-3.66908
11
5.79381
21
-3.67084
0
LINE
8
BLACK
6
CONTINUOUS
10
5.79381
20
-3.67084
11
5.79664
21
-3.67084
0
LINE
8
BLACK
6
CONTINUOUS
10
5.79664
20
-3.67084
11
5.80016
21
-3.66908
0
LINE
8
BLACK
6
CONTINUOUS
10
5.80016
20
-3.66908
11
5.80162
21
-3.66762
0
LINE
8
BLACK
6
CONTINUOUS
10
5.80162
20
-3.66762
11
5.80371
21
-3.66344
0
LINE
8
BLACK
6
CONTINUOUS
10
5.80371
20
-3.66344
11
5.80619
21
-3.65352
0
LINE
8
BLACK
6
CONTINUOUS
10
5.80619
20
-3.65352
11
5.80619
21
-3.64091
0
LINE
8
BLACK
6
CONTINUOUS
10
5.80619
20
-3.64091
11
5.80371
21
-3.631
0
LINE
8
BLACK
6
CONTINUOUS
10
5.80371
20
-3.631
11
5.80162
21
-3.62681
0
LINE
8
BLACK
6
CONTINUOUS
10
5.80162
20
-3.62681
11
5.80016
21
-3.62536
0
LINE
8
BLACK
6
CONTINUOUS
10
5.80016
20
-3.62536
11
5.79664
21
-3.6236
0
LINE
8
BLACK
6
CONTINUOUS
10
5.79664
20
-3.6236
11
5.79381
21
-3.6236
0
LINE
8
BLACK
6
CONTINUOUS
10
5.79381
20
-3.6236
11
5.79029
21
-3.62536
0
LINE
8
BLACK
6
CONTINUOUS
10
5.8584
20
-3.61214
11
5.85973
21
-3.61241
0
LINE
8
BLACK
6
CONTINUOUS
10
5.85973
20
-3.61241
11
5.86536
21
-3.61522
0
LINE
8
BLACK
6
CONTINUOUS
10
5.86536
20
-3.61522
11
5.86607
21
-3.61585
0
LINE
8
BLACK
6
CONTINUOUS
10
5.86607
20
-3.61585
11
5.86689
21
-3.61633
0
LINE
8
BLACK
6
CONTINUOUS
10
5.86689
20
-3.61633
11
5.8697
21
-3.61914
0
LINE
8
BLACK
6
CONTINUOUS
10
5.8697
20
-3.61914
11
5.87018
21
-3.61996
0
LINE
8
BLACK
6
CONTINUOUS
10
5.87018
20
-3.61996
11
5.87081
21
-3.62067
0
LINE
8
BLACK
6
CONTINUOUS
10
5.87081
20
-3.62067
11
5.87362
21
-3.6263
0
LINE
8
BLACK
6
CONTINUOUS
10
5.87362
20
-3.6263
11
5.8739
21
-3.62763
0
LINE
8
BLACK
6
CONTINUOUS
10
5.8739
20
-3.62763
11
5.87425
21
-3.62894
0
LINE
8
BLACK
6
CONTINUOUS
10
5.87425
20
-3.62894
11
5.87425
21
-3.63456
0
LINE
8
BLACK
6
CONTINUOUS
10
5.87425
20
-3.63456
11
5.874
21
-3.63548
0
LINE
8
BLACK
6
CONTINUOUS
10
5.874
20
-3.63548
11
5.87394
21
-3.63643
0
LINE
8
BLACK
6
CONTINUOUS
10
5.87394
20
-3.63643
11
5.87113
21
-3.64487
0
LINE
8
BLACK
6
CONTINUOUS
10
5.87113
20
-3.64487
11
5.87038
21
-3.646
0
LINE
8
BLACK
6
CONTINUOUS
10
5.87038
20
-3.646
11
5.8697
21
-3.64718
0
LINE
8
BLACK
6
CONTINUOUS
10
5.8697
20
-3.64718
11
5.84604
21
-3.67084
0
LINE
8
BLACK
6
CONTINUOUS
10
5.84604
20
-3.67084
11
5.86834
21
-3.67084
0
LINE
8
BLACK
6
CONTINUOUS
10
5.86834
20
-3.67084
11
5.87129
21
-3.67163
0
LINE
8
BLACK
6
CONTINUOUS
10
5.87129
20
-3.67163
11
5.87346
21
-3.67379
0
LINE
8
BLACK
6
CONTINUOUS
10
5.87346
20
-3.67379
11
5.87425
21
-3.67675
0
LINE
8
BLACK
6
CONTINUOUS
10
5.87425
20
-3.67675
11
5.87346
21
-3.6797
0
LINE
8
BLACK
6
CONTINUOUS
10
5.87346
20
-3.6797
11
5.87129
21
-3.68186
0
LINE
8
BLACK
6
CONTINUOUS
10
5.87129
20
-3.68186
11
5.86834
21
-3.68265
0
LINE
8
BLACK
6
CONTINUOUS
10
5.86834
20
-3.68265
11
5.83178
21
-3.68265
0
LINE
8
BLACK
6
CONTINUOUS
10
5.83178
20
-3.68265
11
5.83103
21
-3.68245
0
LINE
8
BLACK
6
CONTINUOUS
10
5.83103
20
-3.68245
11
5.83025
21
-3.68245
0
LINE
8
BLACK
6
CONTINUOUS
10
5.83025
20
-3.68245
11
5.82958
21
-3.68206
0
LINE
8
BLACK
6
CONTINUOUS
10
5.82958
20
-3.68206
11
5.82883
21
-3.68186
0
LINE
8
BLACK
6
CONTINUOUS
10
5.82883
20
-3.68186
11
5.82828
21
-3.68131
0
LINE
8
BLACK
6
CONTINUOUS
10
5.82828
20
-3.68131
11
5.82761
21
-3.68092
0
LINE
8
BLACK
6
CONTINUOUS
10
5.82761
20
-3.68092
11
5.82722
21
-3.68025
0
LINE
8
BLACK
6
CONTINUOUS
10
5.82722
20
-3.68025
11
5.82667
21
-3.6797
0
LINE
8
BLACK
6
CONTINUOUS
10
5.82667
20
-3.6797
11
5.82647
21
-3.67895
0
LINE
8
BLACK
6
CONTINUOUS
10
5.82647
20
-3.67895
11
5.82608
21
-3.67827
0
LINE
8
BLACK
6
CONTINUOUS
10
5.82608
20
-3.67827
11
5.82608
21
-3.6775
0
LINE
8
BLACK
6
CONTINUOUS
10
5.82608
20
-3.6775
11
5.82588
21
-3.67675
0
LINE
8
BLACK
6
CONTINUOUS
10
5.82588
20
-3.67675
11
5.82608
21
-3.67599
0
LINE
8
BLACK
6
CONTINUOUS
10
5.82608
20
-3.67599
11
5.82608
21
-3.67522
0
LINE
8
BLACK
6
CONTINUOUS
10
5.82608
20
-3.67522
11
5.82647
21
-3.67454
0
LINE
8
BLACK
6
CONTINUOUS
10
5.82647
20
-3.67454
11
5.82667
21
-3.67379
0
LINE
8
BLACK
6
CONTINUOUS
10
5.82667
20
-3.67379
11
5.82722
21
-3.67324
0
LINE
8
BLACK
6
CONTINUOUS
10
5.82722
20
-3.67324
11
5.82761
21
-3.67257
0
LINE
8
BLACK
6
CONTINUOUS
10
5.82761
20
-3.67257
11
5.86037
21
-3.63981
0
LINE
8
BLACK
6
CONTINUOUS
10
5.86037
20
-3.63981
11
5.86244
21
-3.6336
0
LINE
8
BLACK
6
CONTINUOUS
10
5.86244
20
-3.6336
11
5.86244
21
-3.63033
0
LINE
8
BLACK
6
CONTINUOUS
10
5.86244
20
-3.63033
11
5.86068
21
-3.62681
0
LINE
8
BLACK
6
CONTINUOUS
10
5.86068
20
-3.62681
11
5.85922
21
-3.62536
0
LINE
8
BLACK
6
CONTINUOUS
10
5.85922
20
-3.62536
11
5.8557
21
-3.6236
0
LINE
8
BLACK
6
CONTINUOUS
10
5.8557
20
-3.6236
11
5.84443
21
-3.6236
0
LINE
8
BLACK
6
CONTINUOUS
10
5.84443
20
-3.6236
11
5.84091
21
-3.62536
0
LINE
8
BLACK
6
CONTINUOUS
10
5.84091
20
-3.62536
11
5.83877
21
-3.62749
0
LINE
8
BLACK
6
CONTINUOUS
10
5.83877
20
-3.62749
11
5.83612
21
-3.62902
0
LINE
8
BLACK
6
CONTINUOUS
10
5.83612
20
-3.62902
11
5.83307
21
-3.62902
0
LINE
8
BLACK
6
CONTINUOUS
10
5.83307
20
-3.62902
11
5.83042
21
-3.62749
0
LINE
8
BLACK
6
CONTINUOUS
10
5.83042
20
-3.62749
11
5.82889
21
-3.62484
0
LINE
8
BLACK
6
CONTINUOUS
10
5.82889
20
-3.62484
11
5.82889
21
-3.62179
0
LINE
8
BLACK
6
CONTINUOUS
10
5.82889
20
-3.62179
11
5.83042
21
-3.61914
0
LINE
8
BLACK
6
CONTINUOUS
10
5.83042
20
-3.61914
11
5.83323
21
-3.61633
0
LINE
8
BLACK
6
CONTINUOUS
10
5.83323
20
-3.61633
11
5.83405
21
-3.61585
0
LINE
8
BLACK
6
CONTINUOUS
10
5.83405
20
-3.61585
11
5.83477
21
-3.61522
0
LINE
8
BLACK
6
CONTINUOUS
10
5.83477
20
-3.61522
11
5.84039
21
-3.61241
0
LINE
8
BLACK
6
CONTINUOUS
10
5.84039
20
-3.61241
11
5.84172
21
-3.61214
0
LINE
8
BLACK
6
CONTINUOUS
10
5.84172
20
-3.61214
11
5.84303
21
-3.61178
0
LINE
8
BLACK
6
CONTINUOUS
10
5.84303
20
-3.61178
11
5.85709
21
-3.61178
0
LINE
8
BLACK
6
CONTINUOUS
10
5.85709
20
-3.61178
11
5.8584
21
-3.61214
0
LINE
8
BLACK
6
CONTINUOUS
10
5.92515
20
-3.61194
11
5.92573
21
-3.6119
0
LINE
8
BLACK
6
CONTINUOUS
10
5.92573
20
-3.6119
11
5.9266
21
-3.61232
0
LINE
8
BLACK
6
CONTINUOUS
10
5.9266
20
-3.61232
11
5.92754
21
-3.61258
0
LINE
8
BLACK
6
CONTINUOUS
10
5.92754
20
-3.61258
11
5.92795
21
-3.61299
0
LINE
8
BLACK
6
CONTINUOUS
10
5.92795
20
-3.61299
11
5.92847
21
-3.61325
0
LINE
8
BLACK
6
CONTINUOUS
10
5.92847
20
-3.61325
11
5.92901
21
-3.61405
0
LINE
8
BLACK
6
CONTINUOUS
10
5.92901
20
-3.61405
11
5.9297
21
-3.61474
0
LINE
8
BLACK
6
CONTINUOUS
10
5.9297
20
-3.61474
11
5.92985
21
-3.6153
0
LINE
8
BLACK
6
CONTINUOUS
10
5.92985
20
-3.6153
11
5.93017
21
-3.61579
0
LINE
8
BLACK
6
CONTINUOUS
10
5.93017
20
-3.61579
11
5.93024
21
-3.61675
0
LINE
8
BLACK
6
CONTINUOUS
10
5.93024
20
-3.61675
11
5.93049
21
-3.61769
0
LINE
8
BLACK
6
CONTINUOUS
10
5.93049
20
-3.61769
11
5.93034
21
-3.61825
0
LINE
8
BLACK
6
CONTINUOUS
10
5.93034
20
-3.61825
11
5.93038
21
-3.61884
0
LINE
8
BLACK
6
CONTINUOUS
10
5.93038
20
-3.61884
11
5.92995
21
-3.61971
0
LINE
8
BLACK
6
CONTINUOUS
10
5.92995
20
-3.61971
11
5.9297
21
-3.62064
0
LINE
8
BLACK
6
CONTINUOUS
10
5.9297
20
-3.62064
11
5.92929
21
-3.62106
0
LINE
8
BLACK
6
CONTINUOUS
10
5.92929
20
-3.62106
11
5.92903
21
-3.62158
0
LINE
8
BLACK
6
CONTINUOUS
10
5.92903
20
-3.62158
11
5.91694
21
-3.63539
0
LINE
8
BLACK
6
CONTINUOUS
10
5.91694
20
-3.63539
11
5.9216
21
-3.63772
0
LINE
8
BLACK
6
CONTINUOUS
10
5.9216
20
-3.63772
11
5.92231
21
-3.63835
0
LINE
8
BLACK
6
CONTINUOUS
10
5.92231
20
-3.63835
11
5.92314
21
-3.63882
0
LINE
8
BLACK
6
CONTINUOUS
10
5.92314
20
-3.63882
11
5.92595
21
-3.64164
0
LINE
8
BLACK
6
CONTINUOUS
10
5.92595
20
-3.64164
11
5.92642
21
-3.64246
0
LINE
8
BLACK
6
CONTINUOUS
10
5.92642
20
-3.64246
11
5.92705
21
-3.64317
0
LINE
8
BLACK
6
CONTINUOUS
10
5.92705
20
-3.64317
11
5.92987
21
-3.64879
0
LINE
8
BLACK
6
CONTINUOUS
10
5.92987
20
-3.64879
11
5.93014
21
-3.65012
0
LINE
8
BLACK
6
CONTINUOUS
10
5.93014
20
-3.65012
11
5.93049
21
-3.65144
0
LINE
8
BLACK
6
CONTINUOUS
10
5.93049
20
-3.65144
11
5.93049
21
-3.6655
0
LINE
8
BLACK
6
CONTINUOUS
10
5.93049
20
-3.6655
11
5.93014
21
-3.66681
0
LINE
8
BLACK
6
CONTINUOUS
10
5.93014
20
-3.66681
11
5.92987
21
-3.66814
0
LINE
8
BLACK
6
CONTINUOUS
10
5.92987
20
-3.66814
11
5.92705
21
-3.67376
0
LINE
8
BLACK
6
CONTINUOUS
10
5.92705
20
-3.67376
11
5.92642
21
-3.67447
0
LINE
8
BLACK
6
CONTINUOUS
10
5.92642
20
-3.67447
11
5.92595
21
-3.6753
0
LINE
8
BLACK
6
CONTINUOUS
10
5.92595
20
-3.6753
11
5.92314
21
-3.67811
0
LINE
8
BLACK
6
CONTINUOUS
10
5.92314
20
-3.67811
11
5.92231
21
-3.67858
0
LINE
8
BLACK
6
CONTINUOUS
10
5.92231
20
-3.67858
11
5.9216
21
-3.67922
0
LINE
8
BLACK
6
CONTINUOUS
10
5.9216
20
-3.67922
11
5.91598
21
-3.68203
0
LINE
8
BLACK
6
CONTINUOUS
10
5.91598
20
-3.68203
11
5.91465
21
-3.6823
0
LINE
8
BLACK
6
CONTINUOUS
10
5.91465
20
-3.6823
11
5.91334
21
-3.68265
0
LINE
8
BLACK
6
CONTINUOUS
10
5.91334
20
-3.68265
11
5.89646
21
-3.68265
0
LINE
8
BLACK
6
CONTINUOUS
10
5.89646
20
-3.68265
11
5.89515
21
-3.6823
0
LINE
8
BLACK
6
CONTINUOUS
10
5.89515
20
-3.6823
11
5.89382
21
-3.68203
0
LINE
8
BLACK
6
CONTINUOUS
10
5.89382
20
-3.68203
11
5.8882
21
-3.67922
0
LINE
8
BLACK
6
CONTINUOUS
10
5.8882
20
-3.67922
11
5.88749
21
-3.67858
0
LINE
8
BLACK
6
CONTINUOUS
10
5.88749
20
-3.67858
11
5.88666
21
-3.67811
0
LINE
8
BLACK
6
CONTINUOUS
10
5.88666
20
-3.67811
11
5.88385
21
-3.6753
0
LINE
8
BLACK
6
CONTINUOUS
10
5.88385
20
-3.6753
11
5.88232
21
-3.67265
0
LINE
8
BLACK
6
CONTINUOUS
10
5.88232
20
-3.67265
11
5.88232
21
-3.66959
0
LINE
8
BLACK
6
CONTINUOUS
10
5.88232
20
-3.66959
11
5.88385
21
-3.66695
0
LINE
8
BLACK
6
CONTINUOUS
10
5.88385
20
-3.66695
11
5.8865
21
-3.66542
0
LINE
8
BLACK
6
CONTINUOUS
10
5.8865
20
-3.66542
11
5.88955
21
-3.66542
0
LINE
8
BLACK
6
CONTINUOUS
10
5.88955
20
-3.66542
11
5.8922
21
-3.66695
0
LINE
8
BLACK
6
CONTINUOUS
10
5.8922
20
-3.66695
11
5.89434
21
-3.66908
0
LINE
8
BLACK
6
CONTINUOUS
10
5.89434
20
-3.66908
11
5.89786
21
-3.67084
0
LINE
8
BLACK
6
CONTINUOUS
10
5.89786
20
-3.67084
11
5.91194
21
-3.67084
0
LINE
8
BLACK
6
CONTINUOUS
10
5.91194
20
-3.67084
11
5.91546
21
-3.66908
0
LINE
8
BLACK
6
CONTINUOUS
10
5.91546
20
-3.66908
11
5.91692
21
-3.66762
0
LINE
8
BLACK
6
CONTINUOUS
10
5.91692
20
-3.66762
11
5.91868
21
-3.6641
0
LINE
8
BLACK
6
CONTINUOUS
10
5.91868
20
-3.6641
11
5.91868
21
-3.65283
0
LINE
8
BLACK
6
CONTINUOUS
10
5.91868
20
-3.65283
11
5.91692
21
-3.64931
0
LINE
8
BLACK
6
CONTINUOUS
10
5.91692
20
-3.64931
11
5.91546
21
-3.64785
0
LINE
8
BLACK
6
CONTINUOUS
10
5.91546
20
-3.64785
11
5.91194
21
-3.64609
0
LINE
8
BLACK
6
CONTINUOUS
10
5.91194
20
-3.64609
11
5.9049
21
-3.64609
0
LINE
8
BLACK
6
CONTINUOUS
10
5.9049
20
-3.64609
11
5.90434
21
-3.64594
0
LINE
8
BLACK
6
CONTINUOUS
10
5.90434
20
-3.64594
11
5.90375
21
-3.64598
0
LINE
8
BLACK
6
CONTINUOUS
10
5.90375
20
-3.64598
11
5.90288
21
-3.64555
0
LINE
8
BLACK
6
CONTINUOUS
10
5.90288
20
-3.64555
11
5.90195
21
-3.6453
0
LINE
8
BLACK
6
CONTINUOUS
10
5.90195
20
-3.6453
11
5.90153
21
-3.64489
0
LINE
8
BLACK
6
CONTINUOUS
10
5.90153
20
-3.64489
11
5.90101
21
-3.64463
0
LINE
8
BLACK
6
CONTINUOUS
10
5.90101
20
-3.64463
11
5.90047
21
-3.64383
0
LINE
8
BLACK
6
CONTINUOUS
10
5.90047
20
-3.64383
11
5.89978
21
-3.64314
0
LINE
8
BLACK
6
CONTINUOUS
10
5.89978
20
-3.64314
11
5.89963
21
-3.64258
0
LINE
8
BLACK
6
CONTINUOUS
10
5.89963
20
-3.64258
11
5.89931
21
-3.64209
0
LINE
8
BLACK
6
CONTINUOUS
10
5.89931
20
-3.64209
11
5.89924
21
-3.64112
0
LINE
8
BLACK
6
CONTINUOUS
10
5.89924
20
-3.64112
11
5.89899
21
-3.64019
0
LINE
8
BLACK
6
CONTINUOUS
10
5.89899
20
-3.64019
11
5.89914
21
-3.63962
0
LINE
8
BLACK
6
CONTINUOUS
10
5.89914
20
-3.63962
11
5.89911
21
-3.63904
0
LINE
8
BLACK
6
CONTINUOUS
10
5.89911
20
-3.63904
11
5.89953
21
-3.63817
0
LINE
8
BLACK
6
CONTINUOUS
10
5.89953
20
-3.63817
11
5.89978
21
-3.63723
0
LINE
8
BLACK
6
CONTINUOUS
10
5.89978
20
-3.63723
11
5.9002
21
-3.63682
0
LINE
8
BLACK
6
CONTINUOUS
10
5.9002
20
-3.63682
11
5.90045
21
-3.6363
0
LINE
8
BLACK
6
CONTINUOUS
10
5.90045
20
-3.6363
11
5.91157
21
-3.6236
0
LINE
8
BLACK
6
CONTINUOUS
10
5.91157
20
-3.6236
11
5.88803
21
-3.6236
0
LINE
8
BLACK
6
CONTINUOUS
10
5.88803
20
-3.6236
11
5.88507
21
-3.6228
0
LINE
8
BLACK
6
CONTINUOUS
10
5.88507
20
-3.6228
11
5.88291
21
-3.62064
0
LINE
8
BLACK
6
CONTINUOUS
10
5.88291
20
-3.62064
11
5.88212
21
-3.61769
0
LINE
8
BLACK
6
CONTINUOUS
10
5.88212
20
-3.61769
11
5.88291
21
-3.61474
0
LINE
8
BLACK
6
CONTINUOUS
10
5.88291
20
-3.61474
11
5.88507
21
-3.61258
0
LINE
8
BLACK
6
CONTINUOUS
10
5.88507
20
-3.61258
11
5.88803
21
-3.61178
0
LINE
8
BLACK
6
CONTINUOUS
10
5.88803
20
-3.61178
11
5.92458
21
-3.61178
0
LINE
8
BLACK
6
CONTINUOUS
10
5.92458
20
-3.61178
11
5.92515
21
-3.61194
0
LINE
8
BLACK
6
CONTINUOUS
10
6.47848
20
-3.6369
11
6.48064
21
-3.63906
0
LINE
8
BLACK
6
CONTINUOUS
10
6.48064
20
-3.63906
11
6.48143
21
-3.64201
0
LINE
8
BLACK
6
CONTINUOUS
10
6.48143
20
-3.64201
11
6.48143
21
-3.67013
0
LINE
8
BLACK
6
CONTINUOUS
10
6.48143
20
-3.67013
11
6.48064
21
-3.67309
0
LINE
8
BLACK
6
CONTINUOUS
10
6.48064
20
-3.67309
11
6.47848
21
-3.67525
0
LINE
8
BLACK
6
CONTINUOUS
10
6.47848
20
-3.67525
11
6.47552
21
-3.67604
0
LINE
8
BLACK
6
CONTINUOUS
10
6.47552
20
-3.67604
11
6.44459
21
-3.67604
0
LINE
8
BLACK
6
CONTINUOUS
10
6.44459
20
-3.67604
11
6.41647
21
-3.67604
0
LINE
8
BLACK
6
CONTINUOUS
10
6.41647
20
-3.67604
11
6.41352
21
-3.67525
0
LINE
8
BLACK
6
CONTINUOUS
10
6.41352
20
-3.67525
11
6.41136
21
-3.67309
0
LINE
8
BLACK
6
CONTINUOUS
10
6.41136
20
-3.67309
11
6.41056
21
-3.67013
0
LINE
8
BLACK
6
CONTINUOUS
10
6.41056
20
-3.67013
11
6.41056
21
-3.67013
0
LINE
8
BLACK
6
CONTINUOUS
10
6.41056
20
-3.67013
11
6.41056
21
-3.64201
0
LINE
8
BLACK
6
CONTINUOUS
10
6.41056
20
-3.64201
11
6.41136
21
-3.63906
0
LINE
8
BLACK
6
CONTINUOUS
10
6.41136
20
-3.63906
11
6.41352
21
-3.6369
0
LINE
8
BLACK
6
CONTINUOUS
10
6.41352
20
-3.6369
11
6.41647
21
-3.63611
0
LINE
8
BLACK
6
CONTINUOUS
10
6.41647
20
-3.63611
11
6.41942
21
-3.6369
0
LINE
8
BLACK
6
CONTINUOUS
10
6.41942
20
-3.6369
11
6.42158
21
-3.63906
0
LINE
8
BLACK
6
CONTINUOUS
10
6.42158
20
-3.63906
11
6.42238
21
-3.64201
0
LINE
8
BLACK
6
CONTINUOUS
10
6.42238
20
-3.64201
11
6.42238
21
-3.66423
0
LINE
8
BLACK
6
CONTINUOUS
10
6.42238
20
-3.66423
11
6.43869
21
-3.66423
0
LINE
8
BLACK
6
CONTINUOUS
10
6.43869
20
-3.66423
11
6.43869
21
-3.65045
0
LINE
8
BLACK
6
CONTINUOUS
10
6.43869
20
-3.65045
11
6.43948
21
-3.6475
0
LINE
8
BLACK
6
CONTINUOUS
10
6.43948
20
-3.6475
11
6.44164
21
-3.64534
0
LINE
8
BLACK
6
CONTINUOUS
10
6.44164
20
-3.64534
11
6.44459
21
-3.64454
0
LINE
8
BLACK
6
CONTINUOUS
10
6.44459
20
-3.64454
11
6.44754
21
-3.64534
0
LINE
8
BLACK
6
CONTINUOUS
10
6.44754
20
-3.64534
11
6.44971
21
-3.6475
0
LINE
8
BLACK
6
CONTINUOUS
10
6.44971
20
-3.6475
11
6.4505
21
-3.65045
0
LINE
8
BLACK
6
CONTINUOUS
10
6.4505
20
-3.65045
11
6.4505
21
-3.66423
0
LINE
8
BLACK
6
CONTINUOUS
10
6.4505
20
-3.66423
11
6.46962
21
-3.66423
0
LINE
8
BLACK
6
CONTINUOUS
10
6.46962
20
-3.66423
11
6.46962
21
-3.64201
0
LINE
8
BLACK
6
CONTINUOUS
10
6.46962
20
-3.64201
11
6.47041
21
-3.63906
0
LINE
8
BLACK
6
CONTINUOUS
10
6.47041
20
-3.63906
11
6.47257
21
-3.6369
0
LINE
8
BLACK
6
CONTINUOUS
10
6.47257
20
-3.6369
11
6.47552
21
-3.63611
0
LINE
8
BLACK
6
CONTINUOUS
10
6.47552
20
-3.63611
11
6.47848
21
-3.6369
0
LINE
8
BLACK
6
CONTINUOUS
10
6.41834
20
-3.58017
11
6.47739
21
-3.59985
0
LINE
8
BLACK
6
CONTINUOUS
10
6.47739
20
-3.59985
11
6.47838
21
-3.60051
0
LINE
8
BLACK
6
CONTINUOUS
10
6.47838
20
-3.60051
11
6.47944
21
-3.60104
0
LINE
8
BLACK
6
CONTINUOUS
10
6.47944
20
-3.60104
11
6.47964
21
-3.60134
0
LINE
8
BLACK
6
CONTINUOUS
10
6.47964
20
-3.60134
11
6.47994
21
-3.60154
0
LINE
8
BLACK
6
CONTINUOUS
10
6.47994
20
-3.60154
11
6.48047
21
-3.6026
0
LINE
8
BLACK
6
CONTINUOUS
10
6.48047
20
-3.6026
11
6.48113
21
-3.60359
0
LINE
8
BLACK
6
CONTINUOUS
10
6.48113
20
-3.60359
11
6.48115
21
-3.60395
0
LINE
8
BLACK
6
CONTINUOUS
10
6.48115
20
-3.60395
11
6.48131
21
-3.60427
0
LINE
8
BLACK
6
CONTINUOUS
10
6.48131
20
-3.60427
11
6.48124
21
-3.60546
0
LINE
8
BLACK
6
CONTINUOUS
10
6.48124
20
-3.60546
11
6.48131
21
-3.60664
0
LINE
8
BLACK
6
CONTINUOUS
10
6.48131
20
-3.60664
11
6.48115
21
-3.60696
0
LINE
8
BLACK
6
CONTINUOUS
10
6.48115
20
-3.60696
11
6.48113
21
-3.60732
0
LINE
8
BLACK
6
CONTINUOUS
10
6.48113
20
-3.60732
11
6.48047
21
-3.60831
0
LINE
8
BLACK
6
CONTINUOUS
10
6.48047
20
-3.60831
11
6.47994
21
-3.60937
0
LINE
8
BLACK
6
CONTINUOUS
10
6.47994
20
-3.60937
11
6.47964
21
-3.60957
0
LINE
8
BLACK
6
CONTINUOUS
10
6.47964
20
-3.60957
11
6.47944
21
-3.60987
0
LINE
8
BLACK
6
CONTINUOUS
10
6.47944
20
-3.60987
11
6.47838
21
-3.6104
0
LINE
8
BLACK
6
CONTINUOUS
10
6.47838
20
-3.6104
11
6.47739
21
-3.61106
0
LINE
8
BLACK
6
CONTINUOUS
10
6.47739
20
-3.61106
11
6.41834
21
-3.63074
0
LINE
8
BLACK
6
CONTINUOUS
10
6.41834
20
-3.63074
11
6.41529
21
-3.63093
0
LINE
8
BLACK
6
CONTINUOUS
10
6.41529
20
-3.63093
11
6.41255
21
-3.62956
0
LINE
8
BLACK
6
CONTINUOUS
10
6.41255
20
-3.62956
11
6.41087
21
-3.62701
0
LINE
8
BLACK
6
CONTINUOUS
10
6.41087
20
-3.62701
11
6.41068
21
-3.62396
0
LINE
8
BLACK
6
CONTINUOUS
10
6.41068
20
-3.62396
11
6.41205
21
-3.62122
0
LINE
8
BLACK
6
CONTINUOUS
10
6.41205
20
-3.62122
11
6.4146
21
-3.61954
0
LINE
8
BLACK
6
CONTINUOUS
10
6.4146
20
-3.61954
11
6.45685
21
-3.60546
0
LINE
8
BLACK
6
CONTINUOUS
10
6.45685
20
-3.60546
11
6.4146
21
-3.59137
0
LINE
8
BLACK
6
CONTINUOUS
10
6.4146
20
-3.59137
11
6.41205
21
-3.58969
0
LINE
8
BLACK
6
CONTINUOUS
10
6.41205
20
-3.58969
11
6.41068
21
-3.58695
0
LINE
8
BLACK
6
CONTINUOUS
10
6.41068
20
-3.58695
11
6.41087
21
-3.5839
0
LINE
8
BLACK
6
CONTINUOUS
10
6.41087
20
-3.5839
11
6.41255
21
-3.58135
0
LINE
8
BLACK
6
CONTINUOUS
10
6.41255
20
-3.58135
11
6.41529
21
-3.57998
0
LINE
8
BLACK
6
CONTINUOUS
10
6.41529
20
-3.57998
11
6.41834
21
-3.58017
0
LINE
8
BLACK
6
CONTINUOUS
10
6.47848
20
-3.56097
11
6.48064
21
-3.56313
0
LINE
8
BLACK
6
CONTINUOUS
10
6.48064
20
-3.56313
11
6.48143
21
-3.56609
0
LINE
8
BLACK
6
CONTINUOUS
10
6.48143
20
-3.56609
11
6.48064
21
-3.56904
0
LINE
8
BLACK
6
CONTINUOUS
10
6.48064
20
-3.56904
11
6.47848
21
-3.5712
0
LINE
8
BLACK
6
CONTINUOUS
10
6.47848
20
-3.5712
11
6.47552
21
-3.57199
0
LINE
8
BLACK
6
CONTINUOUS
10
6.47552
20
-3.57199
11
6.41647
21
-3.57199
0
LINE
8
BLACK
6
CONTINUOUS
10
6.41647
20
-3.57199
11
6.41352
21
-3.5712
0
LINE
8
BLACK
6
CONTINUOUS
10
6.41352
20
-3.5712
11
6.41136
21
-3.56904
0
LINE
8
BLACK
6
CONTINUOUS
10
6.41136
20
-3.56904
11
6.41056
21
-3.56609
0
LINE
8
BLACK
6
CONTINUOUS
10
6.41056
20
-3.56609
11
6.41136
21
-3.56313
0
LINE
8
BLACK
6
CONTINUOUS
10
6.41136
20
-3.56313
11
6.41352
21
-3.56097
0
LINE
8
BLACK
6
CONTINUOUS
10
6.41352
20
-3.56097
11
6.41647
21
-3.56018
0
LINE
8
BLACK
6
CONTINUOUS
10
6.41647
20
-3.56018
11
6.47552
21
-3.56018
0
LINE
8
BLACK
6
CONTINUOUS
10
6.47552
20
-3.56018
11
6.47848
21
-3.56097
0
LINE
8
BLACK
6
CONTINUOUS
10
5.52009
20
-3.48758
11
5.52225
21
-3.48974
0
LINE
8
BLACK
6
CONTINUOUS
10
5.52225
20
-3.48974
11
5.52304
21
-3.49269
0
LINE
8
BLACK
6
CONTINUOUS
10
5.52304
20
-3.49269
11
5.52225
21
-3.49564
0
LINE
8
BLACK
6
CONTINUOUS
10
5.52225
20
-3.49564
11
5.52009
21
-3.4978
0
LINE
8
BLACK
6
CONTINUOUS
10
5.52009
20
-3.4978
11
5.51714
21
-3.4986
0
LINE
8
BLACK
6
CONTINUOUS
10
5.51714
20
-3.4986
11
5.50617
21
-3.4986
0
LINE
8
BLACK
6
CONTINUOUS
10
5.50617
20
-3.4986
11
5.50617
21
-3.55175
0
LINE
8
BLACK
6
CONTINUOUS
10
5.50617
20
-3.55175
11
5.50538
21
-3.5547
0
LINE
8
BLACK
6
CONTINUOUS
10
5.50538
20
-3.5547
11
5.50322
21
-3.55686
0
LINE
8
BLACK
6
CONTINUOUS
10
5.50322
20
-3.55686
11
5.50026
21
-3.55765
0
LINE
8
BLACK
6
CONTINUOUS
10
5.50026
20
-3.55765
11
5.49731
21
-3.55686
0
LINE
8
BLACK
6
CONTINUOUS
10
5.49731
20
-3.55686
11
5.49515
21
-3.5547
0
LINE
8
BLACK
6
CONTINUOUS
10
5.49515
20
-3.5547
11
5.49436
21
-3.55175
0
LINE
8
BLACK
6
CONTINUOUS
10
5.49436
20
-3.55175
11
5.49436
21
-3.4986
0
LINE
8
BLACK
6
CONTINUOUS
10
5.49436
20
-3.4986
11
5.48339
21
-3.4986
0
LINE
8
BLACK
6
CONTINUOUS
10
5.48339
20
-3.4986
11
5.48044
21
-3.4978
0
LINE
8
BLACK
6
CONTINUOUS
10
5.48044
20
-3.4978
11
5.47828
21
-3.49564
0
LINE
8
BLACK
6
CONTINUOUS
10
5.47828
20
-3.49564
11
5.47749
21
-3.49269
0
LINE
8
BLACK
6
CONTINUOUS
10
5.47749
20
-3.49269
11
5.47828
21
-3.48974
0
LINE
8
BLACK
6
CONTINUOUS
10
5.47828
20
-3.48974
11
5.48044
21
-3.48758
0
LINE
8
BLACK
6
CONTINUOUS
10
5.48044
20
-3.48758
11
5.48339
21
-3.48678
0
LINE
8
BLACK
6
CONTINUOUS
10
5.48339
20
-3.48678
11
5.51714
21
-3.48678
0
LINE
8
BLACK
6
CONTINUOUS
10
5.51714
20
-3.48678
11
5.52009
21
-3.48758
0
LINE
8
BLACK
6
CONTINUOUS
10
5.5679
20
-3.48758
11
5.57006
21
-3.48974
0
LINE
8
BLACK
6
CONTINUOUS
10
5.57006
20
-3.48974
11
5.57085
21
-3.49269
0
LINE
8
BLACK
6
CONTINUOUS
10
5.57085
20
-3.49269
11
5.57006
21
-3.49564
0
LINE
8
BLACK
6
CONTINUOUS
10
5.57006
20
-3.49564
11
5.5679
21
-3.4978
0
LINE
8
BLACK
6
CONTINUOUS
10
5.5679
20
-3.4978
11
5.56494
21
-3.4986
0
LINE
8
BLACK
6
CONTINUOUS
10
5.56494
20
-3.4986
11
5.54273
21
-3.4986
0
LINE
8
BLACK
6
CONTINUOUS
10
5.54273
20
-3.4986
11
5.54273
21
-3.51491
0
LINE
8
BLACK
6
CONTINUOUS
10
5.54273
20
-3.51491
11
5.55651
21
-3.51491
0
LINE
8
BLACK
6
CONTINUOUS
10
5.55651
20
-3.51491
11
5.55946
21
-3.5157
0
LINE
8
BLACK
6
CONTINUOUS
10
5.55946
20
-3.5157
11
5.56162
21
-3.51786
0
LINE
8
BLACK
6
CONTINUOUS
10
5.56162
20
-3.51786
11
5.56241
21
-3.52081
0
LINE
8
BLACK
6
CONTINUOUS
10
5.56241
20
-3.52081
11
5.56162
21
-3.52376
0
LINE
8
BLACK
6
CONTINUOUS
10
5.56162
20
-3.52376
11
5.55946
21
-3.52593
0
LINE
8
BLACK
6
CONTINUOUS
10
5.55946
20
-3.52593
11
5.55651
21
-3.52672
0
LINE
8
BLACK
6
CONTINUOUS
10
5.55651
20
-3.52672
11
5.54273
21
-3.52672
0
LINE
8
BLACK
6
CONTINUOUS
10
5.54273
20
-3.52672
11
5.54273
21
-3.55175
0
LINE
8
BLACK
6
CONTINUOUS
10
5.54273
20
-3.55175
11
5.54194
21
-3.5547
0
LINE
8
BLACK
6
CONTINUOUS
10
5.54194
20
-3.5547
11
5.53978
21
-3.55686
0
LINE
8
BLACK
6
CONTINUOUS
10
5.53978
20
-3.55686
11
5.53682
21
-3.55765
0
LINE
8
BLACK
6
CONTINUOUS
10
5.53682
20
-3.55765
11
5.53387
21
-3.55686
0
LINE
8
BLACK
6
CONTINUOUS
10
5.53387
20
-3.55686
11
5.53171
21
-3.5547
0
LINE
8
BLACK
6
CONTINUOUS
10
5.53171
20
-3.5547
11
5.53092
21
-3.55175
0
LINE
8
BLACK
6
CONTINUOUS
10
5.53092
20
-3.55175
11
5.53092
21
-3.49269
0
LINE
8
BLACK
6
CONTINUOUS
10
5.53092
20
-3.49269
11
5.53171
21
-3.48974
0
LINE
8
BLACK
6
CONTINUOUS
10
5.53171
20
-3.48974
11
5.53387
21
-3.48758
0
LINE
8
BLACK
6
CONTINUOUS
10
5.53387
20
-3.48758
11
5.53682
21
-3.48678
0
LINE
8
BLACK
6
CONTINUOUS
10
5.53682
20
-3.48678
11
5.56494
21
-3.48678
0
LINE
8
BLACK
6
CONTINUOUS
10
5.56494
20
-3.48678
11
5.5679
21
-3.48758
0
LINE
8
BLACK
6
CONTINUOUS
10
5.62414
20
-3.48758
11
5.6263
21
-3.48974
0
LINE
8
BLACK
6
CONTINUOUS
10
5.6263
20
-3.48974
11
5.62709
21
-3.49269
0
LINE
8
BLACK
6
CONTINUOUS
10
5.62709
20
-3.49269
11
5.62709
21
-3.5405
0
LINE
8
BLACK
6
CONTINUOUS
10
5.62709
20
-3.5405
11
5.62674
21
-3.54181
0
LINE
8
BLACK
6
CONTINUOUS
10
5.62674
20
-3.54181
11
5.62647
21
-3.54314
0
LINE
8
BLACK
6
CONTINUOUS
10
5.62647
20
-3.54314
11
5.62366
21
-3.54876
0
LINE
8
BLACK
6
CONTINUOUS
10
5.62366
20
-3.54876
11
5.62303
21
-3.54947
0
LINE
8
BLACK
6
CONTINUOUS
10
5.62303
20
-3.54947
11
5.62255
21
-3.5503
0
LINE
8
BLACK
6
CONTINUOUS
10
5.62255
20
-3.5503
11
5.61974
21
-3.55311
0
LINE
8
BLACK
6
CONTINUOUS
10
5.61974
20
-3.55311
11
5.61891
21
-3.55358
0
LINE
8
BLACK
6
CONTINUOUS
10
5.61891
20
-3.55358
11
5.6182
21
-3.55422
0
LINE
8
BLACK
6
CONTINUOUS
10
5.6182
20
-3.55422
11
5.61258
21
-3.55703
0
LINE
8
BLACK
6
CONTINUOUS
10
5.61258
20
-3.55703
11
5.61125
21
-3.5573
0
LINE
8
BLACK
6
CONTINUOUS
10
5.61125
20
-3.5573
11
5.60994
21
-3.55765
0
LINE
8
BLACK
6
CONTINUOUS
10
5.60994
20
-3.55765
11
5.59869
21
-3.55765
0
LINE
8
BLACK
6
CONTINUOUS
10
5.59869
20
-3.55765
11
5.59738
21
-3.5573
0
LINE
8
BLACK
6
CONTINUOUS
10
5.59738
20
-3.5573
11
5.59605
21
-3.55703
0
LINE
8
BLACK
6
CONTINUOUS
10
5.59605
20
-3.55703
11
5.59042
21
-3.55422
0
LINE
8
BLACK
6
CONTINUOUS
10
5.59042
20
-3.55422
11
5.58971
21
-3.55358
0
LINE
8
BLACK
6
CONTINUOUS
10
5.58971
20
-3.55358
11
5.58889
21
-3.55311
0
LINE
8
BLACK
6
CONTINUOUS
10
5.58889
20
-3.55311
11
5.58608
21
-3.5503
0
LINE
8
BLACK
6
CONTINUOUS
10
5.58608
20
-3.5503
11
5.5856
21
-3.54947
0
LINE
8
BLACK
6
CONTINUOUS
10
5.5856
20
-3.54947
11
5.58497
21
-3.54876
0
LINE
8
BLACK
6
CONTINUOUS
10
5.58497
20
-3.54876
11
5.58216
21
-3.54314
0
LINE
8
BLACK
6
CONTINUOUS
10
5.58216
20
-3.54314
11
5.58189
21
-3.54181
0
LINE
8
BLACK
6
CONTINUOUS
10
5.58189
20
-3.54181
11
5.58154
21
-3.5405
0
LINE
8
BLACK
6
CONTINUOUS
10
5.58154
20
-3.5405
11
5.58154
21
-3.49269
0
LINE
8
BLACK
6
CONTINUOUS
10
5.58154
20
-3.49269
11
5.58233
21
-3.48974
0
LINE
8
BLACK
6
CONTINUOUS
10
5.58233
20
-3.48974
11
5.58449
21
-3.48758
0
LINE
8
BLACK
6
CONTINUOUS
10
5.58449
20
-3.48758
11
5.58744
21
-3.48678
0
LINE
8
BLACK
6
CONTINUOUS
10
5.58744
20
-3.48678
11
5.59039
21
-3.48758
0
LINE
8
BLACK
6
CONTINUOUS
10
5.59039
20
-3.48758
11
5.59256
21
-3.48974
0
LINE
8
BLACK
6
CONTINUOUS
10
5.59256
20
-3.48974
11
5.59335
21
-3.49269
0
LINE
8
BLACK
6
CONTINUOUS
10
5.59335
20
-3.49269
11
5.59335
21
-3.5391
0
LINE
8
BLACK
6
CONTINUOUS
10
5.59335
20
-3.5391
11
5.59511
21
-3.54262
0
LINE
8
BLACK
6
CONTINUOUS
10
5.59511
20
-3.54262
11
5.59656
21
-3.54408
0
LINE
8
BLACK
6
CONTINUOUS
10
5.59656
20
-3.54408
11
5.60008
21
-3.54584
0
LINE
8
BLACK
6
CONTINUOUS
10
5.60008
20
-3.54584
11
5.60854
21
-3.54584
0
LINE
8
BLACK
6
CONTINUOUS
10
5.60854
20
-3.54584
11
5.61206
21
-3.54408
0
LINE
8
BLACK
6
CONTINUOUS
10
5.61206
20
-3.54408
11
5.61352
21
-3.54262
0
LINE
8
BLACK
6
CONTINUOUS
10
5.61352
20
-3.54262
11
5.61528
21
-3.5391
0
LINE
8
BLACK
6
CONTINUOUS
10
5.61528
20
-3.5391
11
5.61528
21
-3.49269
0
LINE
8
BLACK
6
CONTINUOUS
10
5.61528
20
-3.49269
11
5.61607
21
-3.48974
0
LINE
8
BLACK
6
CONTINUOUS
10
5.61607
20
-3.48974
11
5.61823
21
-3.48758
0
LINE
8
BLACK
6
CONTINUOUS
10
5.61823
20
-3.48758
11
5.62119
21
-3.48678
0
LINE
8
BLACK
6
CONTINUOUS
10
5.62119
20
-3.48678
11
5.62414
21
-3.48758
0
LINE
8
BLACK
6
CONTINUOUS
10
5.67272
20
-3.48703
11
5.67367
21
-3.48709
0
LINE
8
BLACK
6
CONTINUOUS
10
5.67367
20
-3.48709
11
5.68211
21
-3.4899
0
LINE
8
BLACK
6
CONTINUOUS
10
5.68211
20
-3.4899
11
5.68466
21
-3.49158
0
LINE
8
BLACK
6
CONTINUOUS
10
5.68466
20
-3.49158
11
5.68603
21
-3.49432
0
LINE
8
BLACK
6
CONTINUOUS
10
5.68603
20
-3.49432
11
5.68584
21
-3.49737
0
LINE
8
BLACK
6
CONTINUOUS
10
5.68584
20
-3.49737
11
5.68416
21
-3.49992
0
LINE
8
BLACK
6
CONTINUOUS
10
5.68416
20
-3.49992
11
5.68143
21
-3.50129
0
LINE
8
BLACK
6
CONTINUOUS
10
5.68143
20
-3.50129
11
5.67837
21
-3.5011
0
LINE
8
BLACK
6
CONTINUOUS
10
5.67837
20
-3.5011
11
5.67085
21
-3.4986
0
LINE
8
BLACK
6
CONTINUOUS
10
5.67085
20
-3.4986
11
5.65914
21
-3.4986
0
LINE
8
BLACK
6
CONTINUOUS
10
5.65914
20
-3.4986
11
5.65562
21
-3.50036
0
LINE
8
BLACK
6
CONTINUOUS
10
5.65562
20
-3.50036
11
5.65416
21
-3.50181
0
LINE
8
BLACK
6
CONTINUOUS
10
5.65416
20
-3.50181
11
5.6524
21
-3.50533
0
LINE
8
BLACK
6
CONTINUOUS
10
5.6524
20
-3.50533
11
5.6524
21
-3.50817
0
LINE
8
BLACK
6
CONTINUOUS
10
5.6524
20
-3.50817
11
5.65416
21
-3.51169
0
LINE
8
BLACK
6
CONTINUOUS
10
5.65416
20
-3.51169
11
5.65562
21
-3.51315
0
LINE
8
BLACK
6
CONTINUOUS
10
5.65562
20
-3.51315
11
5.65981
21
-3.51524
0
LINE
8
BLACK
6
CONTINUOUS
10
5.65981
20
-3.51524
11
5.67043
21
-3.51789
0
LINE
8
BLACK
6
CONTINUOUS
10
5.67043
20
-3.51789
11
5.671
21
-3.51821
0
LINE
8
BLACK
6
CONTINUOUS
10
5.671
20
-3.51821
11
5.67163
21
-3.51834
0
LINE
8
BLACK
6
CONTINUOUS
10
5.67163
20
-3.51834
11
5.67726
21
-3.52115
0
LINE
8
BLACK
6
CONTINUOUS
10
5.67726
20
-3.52115
11
5.67797
21
-3.52178
0
LINE
8
BLACK
6
CONTINUOUS
10
5.67797
20
-3.52178
11
5.67879
21
-3.52226
0
LINE
8
BLACK
6
CONTINUOUS
10
5.67879
20
-3.52226
11
5.68161
21
-3.52507
0
LINE
8
BLACK
6
CONTINUOUS
10
5.68161
20
-3.52507
11
5.68208
21
-3.5259
0
LINE
8
BLACK
6
CONTINUOUS
10
5.68208
20
-3.5259
11
5.68271
21
-3.52661
0
LINE
8
BLACK
6
CONTINUOUS
10
5.68271
20
-3.52661
11
5.68552
21
-3.53223
0
LINE
8
BLACK
6
CONTINUOUS
10
5.68552
20
-3.53223
11
5.6858
21
-3.53356
0
LINE
8
BLACK
6
CONTINUOUS
10
5.6858
20
-3.53356
11
5.68615
21
-3.53487
0
LINE
8
BLACK
6
CONTINUOUS
10
5.68615
20
-3.53487
11
5.68615
21
-3.5405
0
LINE
8
BLACK
6
CONTINUOUS
10
5.68615
20
-3.5405
11
5.6858
21
-3.54181
0
LINE
8
BLACK
6
CONTINUOUS
10
5.6858
20
-3.54181
11
5.68552
21
-3.54314
0
LINE
8
BLACK
6
CONTINUOUS
10
5.68552
20
-3.54314
11
5.68271
21
-3.54876
0
LINE
8
BLACK
6
CONTINUOUS
10
5.68271
20
-3.54876
11
5.68208
21
-3.54947
0
LINE
8
BLACK
6
CONTINUOUS
10
5.68208
20
-3.54947
11
5.68161
21
-3.5503
0
LINE
8
BLACK
6
CONTINUOUS
10
5.68161
20
-3.5503
11
5.67879
21
-3.55311
0
LINE
8
BLACK
6
CONTINUOUS
10
5.67879
20
-3.55311
11
5.67797
21
-3.55358
0
LINE
8
BLACK
6
CONTINUOUS
10
5.67797
20
-3.55358
11
5.67726
21
-3.55422
0
LINE
8
BLACK
6
CONTINUOUS
10
5.67726
20
-3.55422
11
5.67163
21
-3.55703
0
LINE
8
BLACK
6
CONTINUOUS
10
5.67163
20
-3.55703
11
5.6703
21
-3.5573
0
LINE
8
BLACK
6
CONTINUOUS
10
5.6703
20
-3.5573
11
5.66899
21
-3.55765
0
LINE
8
BLACK
6
CONTINUOUS
10
5.66899
20
-3.55765
11
5.65493
21
-3.55765
0
LINE
8
BLACK
6
CONTINUOUS
10
5.65493
20
-3.55765
11
5.65401
21
-3.5574
0
LINE
8
BLACK
6
CONTINUOUS
10
5.65401
20
-3.5574
11
5.65307
21
-3.55735
0
LINE
8
BLACK
6
CONTINUOUS
10
5.65307
20
-3.55735
11
5.64463
21
-3.55454
0
LINE
8
BLACK
6
CONTINUOUS
10
5.64463
20
-3.55454
11
5.64208
21
-3.55285
0
LINE
8
BLACK
6
CONTINUOUS
10
5.64208
20
-3.55285
11
5.64071
21
-3.55012
0
LINE
8
BLACK
6
CONTINUOUS
10
5.64071
20
-3.55012
11
5.64089
21
-3.54707
0
LINE
8
BLACK
6
CONTINUOUS
10
5.64089
20
-3.54707
11
5.64258
21
-3.54451
0
LINE
8
BLACK
6
CONTINUOUS
10
5.64258
20
-3.54451
11
5.64531
21
-3.54315
0
LINE
8
BLACK
6
CONTINUOUS
10
5.64531
20
-3.54315
11
5.64836
21
-3.54333
0
LINE
8
BLACK
6
CONTINUOUS
10
5.64836
20
-3.54333
11
5.65589
21
-3.54584
0
LINE
8
BLACK
6
CONTINUOUS
10
5.65589
20
-3.54584
11
5.6676
21
-3.54584
0
LINE
8
BLACK
6
CONTINUOUS
10
5.6676
20
-3.54584
11
5.67112
21
-3.54408
0
LINE
8
BLACK
6
CONTINUOUS
10
5.67112
20
-3.54408
11
5.67258
21
-3.54262
0
LINE
8
BLACK
6
CONTINUOUS
10
5.67258
20
-3.54262
11
5.67434
21
-3.5391
0
LINE
8
BLACK
6
CONTINUOUS
10
5.67434
20
-3.5391
11
5.67434
21
-3.53627
0
LINE
8
BLACK
6
CONTINUOUS
10
5.67434
20
-3.53627
11
5.67258
21
-3.53275
0
LINE
8
BLACK
6
CONTINUOUS
10
5.67258
20
-3.53275
11
5.67112
21
-3.53129
0
LINE
8
BLACK
6
CONTINUOUS
10
5.67112
20
-3.53129
11
5.66693
21
-3.5292
0
LINE
8
BLACK
6
CONTINUOUS
10
5.66693
20
-3.5292
11
5.65631
21
-3.52654
0
LINE
8
BLACK
6
CONTINUOUS
10
5.65631
20
-3.52654
11
5.65574
21
-3.52622
0
LINE
8
BLACK
6
CONTINUOUS
10
5.65574
20
-3.52622
11
5.6551
21
-3.52609
0
LINE
8
BLACK
6
CONTINUOUS
10
5.6551
20
-3.52609
11
5.64948
21
-3.52328
0
LINE
8
BLACK
6
CONTINUOUS
10
5.64948
20
-3.52328
11
5.64877
21
-3.52265
0
LINE
8
BLACK
6
CONTINUOUS
10
5.64877
20
-3.52265
11
5.64794
21
-3.52218
0
LINE
8
BLACK
6
CONTINUOUS
10
5.64794
20
-3.52218
11
5.64513
21
-3.51936
0
LINE
8
BLACK
6
CONTINUOUS
10
5.64513
20
-3.51936
11
5.64466
21
-3.51854
0
LINE
8
BLACK
6
CONTINUOUS
10
5.64466
20
-3.51854
11
5.64403
21
-3.51783
0
LINE
8
BLACK
6
CONTINUOUS
10
5.64403
20
-3.51783
11
5.64121
21
-3.5122
0
LINE
8
BLACK
6
CONTINUOUS
10
5.64121
20
-3.5122
11
5.64094
21
-3.51087
0
LINE
8
BLACK
6
CONTINUOUS
10
5.64094
20
-3.51087
11
5.64059
21
-3.50956
0
LINE
8
BLACK
6
CONTINUOUS
10
5.64059
20
-3.50956
11
5.64059
21
-3.50394
0
LINE
8
BLACK
6
CONTINUOUS
10
5.64059
20
-3.50394
11
5.64094
21
-3.50263
0
LINE
8
BLACK
6
CONTINUOUS
10
5.64094
20
-3.50263
11
5.64121
21
-3.5013
0
LINE
8
BLACK
6
CONTINUOUS
10
5.64121
20
-3.5013
11
5.64403
21
-3.49567
0
LINE
8
BLACK
6
CONTINUOUS
10
5.64403
20
-3.49567
11
5.64466
21
-3.49496
0
LINE
8
BLACK
6
CONTINUOUS
10
5.64466
20
-3.49496
11
5.64513
21
-3.49414
0
LINE
8
BLACK
6
CONTINUOUS
10
5.64513
20
-3.49414
11
5.64794
21
-3.49133
0
LINE
8
BLACK
6
CONTINUOUS
10
5.64794
20
-3.49133
11
5.64877
21
-3.49085
0
LINE
8
BLACK
6
CONTINUOUS
10
5.64877
20
-3.49085
11
5.64948
21
-3.49022
0
LINE
8
BLACK
6
CONTINUOUS
10
5.64948
20
-3.49022
11
5.6551
21
-3.48741
0
LINE
8
BLACK
6
CONTINUOUS
10
5.6551
20
-3.48741
11
5.65643
21
-3.48714
0
LINE
8
BLACK
6
CONTINUOUS
10
5.65643
20
-3.48714
11
5.65774
21
-3.48678
0
LINE
8
BLACK
6
CONTINUOUS
10
5.65774
20
-3.48678
11
5.67181
21
-3.48678
0
LINE
8
BLACK
6
CONTINUOUS
10
5.67181
20
-3.48678
11
5.67272
21
-3.48703
0
LINE
8
BLACK
6
CONTINUOUS
10
5.72655
20
-3.48714
11
5.72788
21
-3.48741
0
LINE
8
BLACK
6
CONTINUOUS
10
5.72788
20
-3.48741
11
5.7335
21
-3.49022
0
LINE
8
BLACK
6
CONTINUOUS
10
5.7335
20
-3.49022
11
5.73421
21
-3.49085
0
LINE
8
BLACK
6
CONTINUOUS
10
5.73421
20
-3.49085
11
5.73504
21
-3.49133
0
LINE
8
BLACK
6
CONTINUOUS
10
5.73504
20
-3.49133
11
5.73785
21
-3.49414
0
LINE
8
BLACK
6
CONTINUOUS
10
5.73785
20
-3.49414
11
5.73832
21
-3.49496
0
LINE
8
BLACK
6
CONTINUOUS
10
5.73832
20
-3.49496
11
5.73895
21
-3.49567
0
LINE
8
BLACK
6
CONTINUOUS
10
5.73895
20
-3.49567
11
5.74177
21
-3.5013
0
LINE
8
BLACK
6
CONTINUOUS
10
5.74177
20
-3.5013
11
5.74204
21
-3.50263
0
LINE
8
BLACK
6
CONTINUOUS
10
5.74204
20
-3.50263
11
5.74239
21
-3.50394
0
LINE
8
BLACK
6
CONTINUOUS
10
5.74239
20
-3.50394
11
5.74239
21
-3.50956
0
LINE
8
BLACK
6
CONTINUOUS
10
5.74239
20
-3.50956
11
5.74204
21
-3.51087
0
LINE
8
BLACK
6
CONTINUOUS
10
5.74204
20
-3.51087
11
5.74177
21
-3.5122
0
LINE
8
BLACK
6
CONTINUOUS
10
5.74177
20
-3.5122
11
5.73895
21
-3.51783
0
LINE
8
BLACK
6
CONTINUOUS
10
5.73895
20
-3.51783
11
5.73832
21
-3.51854
0
LINE
8
BLACK
6
CONTINUOUS
10
5.73832
20
-3.51854
11
5.73785
21
-3.51936
0
LINE
8
BLACK
6
CONTINUOUS
10
5.73785
20
-3.51936
11
5.73779
21
-3.51942
0
LINE
8
BLACK
6
CONTINUOUS
10
5.73779
20
-3.51942
11
5.73785
21
-3.51945
0
LINE
8
BLACK
6
CONTINUOUS
10
5.73785
20
-3.51945
11
5.74066
21
-3.52226
0
LINE
8
BLACK
6
CONTINUOUS
10
5.74066
20
-3.52226
11
5.74114
21
-3.52308
0
LINE
8
BLACK
6
CONTINUOUS
10
5.74114
20
-3.52308
11
5.74177
21
-3.52379
0
LINE
8
BLACK
6
CONTINUOUS
10
5.74177
20
-3.52379
11
5.74458
21
-3.52942
0
LINE
8
BLACK
6
CONTINUOUS
10
5.74458
20
-3.52942
11
5.74485
21
-3.53075
0
LINE
8
BLACK
6
CONTINUOUS
10
5.74485
20
-3.53075
11
5.7452
21
-3.53206
0
LINE
8
BLACK
6
CONTINUOUS
10
5.7452
20
-3.53206
11
5.7452
21
-3.5405
0
LINE
8
BLACK
6
CONTINUOUS
10
5.7452
20
-3.5405
11
5.74485
21
-3.54181
0
LINE
8
BLACK
6
CONTINUOUS
10
5.74485
20
-3.54181
11
5.74458
21
-3.54314
0
LINE
8
BLACK
6
CONTINUOUS
10
5.74458
20
-3.54314
11
5.74177
21
-3.54876
0
LINE
8
BLACK
6
CONTINUOUS
10
5.74177
20
-3.54876
11
5.74114
21
-3.54947
0
LINE
8
BLACK
6
CONTINUOUS
10
5.74114
20
-3.54947
11
5.74066
21
-3.5503
0
LINE
8
BLACK
6
CONTINUOUS
10
5.74066
20
-3.5503
11
5.73785
21
-3.55311
0
LINE
8
BLACK
6
CONTINUOUS
10
5.73785
20
-3.55311
11
5.73703
21
-3.55358
0
LINE
8
BLACK
6
CONTINUOUS
10
5.73703
20
-3.55358
11
5.73631
21
-3.55422
0
LINE
8
BLACK
6
CONTINUOUS
10
5.73631
20
-3.55422
11
5.73069
21
-3.55703
0
LINE
8
BLACK
6
CONTINUOUS
10
5.73069
20
-3.55703
11
5.72936
21
-3.5573
0
LINE
8
BLACK
6
CONTINUOUS
10
5.72936
20
-3.5573
11
5.72805
21
-3.55765
0
LINE
8
BLACK
6
CONTINUOUS
10
5.72805
20
-3.55765
11
5.70555
21
-3.55765
0
LINE
8
BLACK
6
CONTINUOUS
10
5.70555
20
-3.55765
11
5.7026
21
-3.55686
0
LINE
8
BLACK
6
CONTINUOUS
10
5.7026
20
-3.55686
11
5.70044
21
-3.5547
0
LINE
8
BLACK
6
CONTINUOUS
10
5.70044
20
-3.5547
11
5.69965
21
-3.55175
0
LINE
8
BLACK
6
CONTINUOUS
10
5.69965
20
-3.55175
11
5.69965
21
-3.49269
0
LINE
8
BLACK
6
CONTINUOUS
10
5.69965
20
-3.49269
11
5.70044
21
-3.48974
0
LINE
8
BLACK
6
CONTINUOUS
10
5.70044
20
-3.48974
11
5.7026
21
-3.48758
0
LINE
8
BLACK
6
CONTINUOUS
10
5.7026
20
-3.48758
11
5.70555
21
-3.48678
0
LINE
8
BLACK
6
CONTINUOUS
10
5.70555
20
-3.48678
11
5.72524
21
-3.48678
0
LINE
8
BLACK
6
CONTINUOUS
10
5.72524
20
-3.48678
11
5.72655
21
-3.48714
0
LINE
8
BLACK
6
CONTINUOUS
10
5.71146
20
-3.54584
11
5.72665
21
-3.54584
0
LINE
8
BLACK
6
CONTINUOUS
10
5.72665
20
-3.54584
11
5.73017
21
-3.54408
0
LINE
8
BLACK
6
CONTINUOUS
10
5.73017
20
-3.54408
11
5.73163
21
-3.54262
0
LINE
8
BLACK
6
CONTINUOUS
10
5.73163
20
-3.54262
11
5.73339
21
-3.5391
0
LINE
8
BLACK
6
CONTINUOUS
10
5.73339
20
-3.5391
11
5.73339
21
-3.53345
0
LINE
8
BLACK
6
CONTINUOUS
10
5.73339
20
-3.53345
11
5.73163
21
-3.52993
0
LINE
8
BLACK
6
CONTINUOUS
10
5.73163
20
-3.52993
11
5.73048
21
-3.52879
0
LINE
8
BLACK
6
CONTINUOUS
10
5.73048
20
-3.52879
11
5.72428
21
-3.52672
0
LINE
8
BLACK
6
CONTINUOUS
10
5.72428
20
-3.52672
11
5.71146
21
-3.52672
0
LINE
8
BLACK
6
CONTINUOUS
10
5.71146
20
-3.52672
11
5.71146
21
-3.54584
0
LINE
8
BLACK
6
CONTINUOUS
10
5.71146
20
-3.51491
11
5.72384
21
-3.51491
0
LINE
8
BLACK
6
CONTINUOUS
10
5.72384
20
-3.51491
11
5.72736
21
-3.51315
0
LINE
8
BLACK
6
CONTINUOUS
10
5.72736
20
-3.51315
11
5.72882
21
-3.51169
0
LINE
8
BLACK
6
CONTINUOUS
10
5.72882
20
-3.51169
11
5.73058
21
-3.50817
0
LINE
8
BLACK
6
CONTINUOUS
10
5.73058
20
-3.50817
11
5.73058
21
-3.50533
0
LINE
8
BLACK
6
CONTINUOUS
10
5.73058
20
-3.50533
11
5.72882
21
-3.50181
0
LINE
8
BLACK
6
CONTINUOUS
10
5.72882
20
-3.50181
11
5.72736
21
-3.50036
0
LINE
8
BLACK
6
CONTINUOUS
10
5.72736
20
-3.50036
11
5.72384
21
-3.4986
0
LINE
8
BLACK
6
CONTINUOUS
10
5.72384
20
-3.4986
11
5.71146
21
-3.4986
0
LINE
8
BLACK
6
CONTINUOUS
10
5.71146
20
-3.4986
11
5.71146
21
-3.51491
0
LINE
8
BLACK
6
CONTINUOUS
10
5.78802
20
-3.48703
11
5.78897
21
-3.48709
0
LINE
8
BLACK
6
CONTINUOUS
10
5.78897
20
-3.48709
11
5.79741
21
-3.4899
0
LINE
8
BLACK
6
CONTINUOUS
10
5.79741
20
-3.4899
11
5.79996
21
-3.49158
0
LINE
8
BLACK
6
CONTINUOUS
10
5.79996
20
-3.49158
11
5.80133
21
-3.49432
0
LINE
8
BLACK
6
CONTINUOUS
10
5.80133
20
-3.49432
11
5.80114
21
-3.49737
0
LINE
8
BLACK
6
CONTINUOUS
10
5.80114
20
-3.49737
11
5.79946
21
-3.49992
0
LINE
8
BLACK
6
CONTINUOUS
10
5.79946
20
-3.49992
11
5.79672
21
-3.50129
0
LINE
8
BLACK
6
CONTINUOUS
10
5.79672
20
-3.50129
11
5.79367
21
-3.5011
0
LINE
8
BLACK
6
CONTINUOUS
10
5.79367
20
-3.5011
11
5.78615
21
-3.4986
0
LINE
8
BLACK
6
CONTINUOUS
10
5.78615
20
-3.4986
11
5.77444
21
-3.4986
0
LINE
8
BLACK
6
CONTINUOUS
10
5.77444
20
-3.4986
11
5.77092
21
-3.50036
0
LINE
8
BLACK
6
CONTINUOUS
10
5.77092
20
-3.50036
11
5.76946
21
-3.50181
0
LINE
8
BLACK
6
CONTINUOUS
10
5.76946
20
-3.50181
11
5.7677
21
-3.50533
0
LINE
8
BLACK
6
CONTINUOUS
10
5.7677
20
-3.50533
11
5.7677
21
-3.50817
0
LINE
8
BLACK
6
CONTINUOUS
10
5.7677
20
-3.50817
11
5.76946
21
-3.51169
0
LINE
8
BLACK
6
CONTINUOUS
10
5.76946
20
-3.51169
11
5.77092
21
-3.51315
0
LINE
8
BLACK
6
CONTINUOUS
10
5.77092
20
-3.51315
11
5.7751
21
-3.51524
0
LINE
8
BLACK
6
CONTINUOUS
10
5.7751
20
-3.51524
11
5.78572
21
-3.51789
0
LINE
8
BLACK
6
CONTINUOUS
10
5.78572
20
-3.51789
11
5.78629
21
-3.51821
0
LINE
8
BLACK
6
CONTINUOUS
10
5.78629
20
-3.51821
11
5.78693
21
-3.51834
0
LINE
8
BLACK
6
CONTINUOUS
10
5.78693
20
-3.51834
11
5.79256
21
-3.52115
0
LINE
8
BLACK
6
CONTINUOUS
10
5.79256
20
-3.52115
11
5.79327
21
-3.52178
0
LINE
8
BLACK
6
CONTINUOUS
10
5.79327
20
-3.52178
11
5.79409
21
-3.52226
0
LINE
8
BLACK
6
CONTINUOUS
10
5.79409
20
-3.52226
11
5.7969
21
-3.52507
0
LINE
8
BLACK
6
CONTINUOUS
10
5.7969
20
-3.52507
11
5.79738
21
-3.5259
0
LINE
8
BLACK
6
CONTINUOUS
10
5.79738
20
-3.5259
11
5.79801
21
-3.52661
0
LINE
8
BLACK
6
CONTINUOUS
10
5.79801
20
-3.52661
11
5.80082
21
-3.53223
0
LINE
8
BLACK
6
CONTINUOUS
10
5.80082
20
-3.53223
11
5.80109
21
-3.53356
0
LINE
8
BLACK
6
CONTINUOUS
10
5.80109
20
-3.53356
11
5.80145
21
-3.53487
0
LINE
8
BLACK
6
CONTINUOUS
10
5.80145
20
-3.53487
11
5.80145
21
-3.5405
0
LINE
8
BLACK
6
CONTINUOUS
10
5.80145
20
-3.5405
11
5.80109
21
-3.54181
0
LINE
8
BLACK
6
CONTINUOUS
10
5.80109
20
-3.54181
11
5.80082
21
-3.54314
0
LINE
8
BLACK
6
CONTINUOUS
10
5.80082
20
-3.54314
11
5.79801
21
-3.54876
0
LINE
8
BLACK
6
CONTINUOUS
10
5.79801
20
-3.54876
11
5.79738
21
-3.54947
0
LINE
8
BLACK
6
CONTINUOUS
10
5.79738
20
-3.54947
11
5.7969
21
-3.5503
0
LINE
8
BLACK
6
CONTINUOUS
10
5.7969
20
-3.5503
11
5.79409
21
-3.55311
0
LINE
8
BLACK
6
CONTINUOUS
10
5.79409
20
-3.55311
11
5.79327
21
-3.55358
0
LINE
8
BLACK
6
CONTINUOUS
10
5.79327
20
-3.55358
11
5.79256
21
-3.55422
0
LINE
8
BLACK
6
CONTINUOUS
10
5.79256
20
-3.55422
11
5.78693
21
-3.55703
0
LINE
8
BLACK
6
CONTINUOUS
10
5.78693
20
-3.55703
11
5.7856
21
-3.5573
0
LINE
8
BLACK
6
CONTINUOUS
10
5.7856
20
-3.5573
11
5.78429
21
-3.55765
0
LINE
8
BLACK
6
CONTINUOUS
10
5.78429
20
-3.55765
11
5.77023
21
-3.55765
0
LINE
8
BLACK
6
CONTINUOUS
10
5.77023
20
-3.55765
11
5.76931
21
-3.5574
0
LINE
8
BLACK
6
CONTINUOUS
10
5.76931
20
-3.5574
11
5.76836
21
-3.55735
0
LINE
8
BLACK
6
CONTINUOUS
10
5.76836
20
-3.55735
11
5.75993
21
-3.55454
0
LINE
8
BLACK
6
CONTINUOUS
10
5.75993
20
-3.55454
11
5.75738
21
-3.55285
0
LINE
8
BLACK
6
CONTINUOUS
10
5.75738
20
-3.55285
11
5.75601
21
-3.55012
0
LINE
8
BLACK
6
CONTINUOUS
10
5.75601
20
-3.55012
11
5.75619
21
-3.54707
0
LINE
8
BLACK
6
CONTINUOUS
10
5.75619
20
-3.54707
11
5.75788
21
-3.54451
0
LINE
8
BLACK
6
CONTINUOUS
10
5.75788
20
-3.54451
11
5.76061
21
-3.54315
0
LINE
8
BLACK
6
CONTINUOUS
10
5.76061
20
-3.54315
11
5.76366
21
-3.54333
0
LINE
8
BLACK
6
CONTINUOUS
10
5.76366
20
-3.54333
11
5.77119
21
-3.54584
0
LINE
8
BLACK
6
CONTINUOUS
10
5.77119
20
-3.54584
11
5.7829
21
-3.54584
0
LINE
8
BLACK
6
CONTINUOUS
10
5.7829
20
-3.54584
11
5.78642
21
-3.54408
0
LINE
8
BLACK
6
CONTINUOUS
10
5.78642
20
-3.54408
11
5.78787
21
-3.54262
0
LINE
8
BLACK
6
CONTINUOUS
10
5.78787
20
-3.54262
11
5.78963
21
-3.5391
0
LINE
8
BLACK
6
CONTINUOUS
10
5.78963
20
-3.5391
11
5.78963
21
-3.53627
0
LINE
8
BLACK
6
CONTINUOUS
10
5.78963
20
-3.53627
11
5.78787
21
-3.53275
0
LINE
8
BLACK
6
CONTINUOUS
10
5.78787
20
-3.53275
11
5.78642
21
-3.53129
0
LINE
8
BLACK
6
CONTINUOUS
10
5.78642
20
-3.53129
11
5.78223
21
-3.5292
0
LINE
8
BLACK
6
CONTINUOUS
10
5.78223
20
-3.5292
11
5.77161
21
-3.52654
0
LINE
8
BLACK
6
CONTINUOUS
10
5.77161
20
-3.52654
11
5.77104
21
-3.52622
0
LINE
8
BLACK
6
CONTINUOUS
10
5.77104
20
-3.52622
11
5.7704
21
-3.52609
0
LINE
8
BLACK
6
CONTINUOUS
10
5.7704
20
-3.52609
11
5.76478
21
-3.52328
0
LINE
8
BLACK
6
CONTINUOUS
10
5.76478
20
-3.52328
11
5.76407
21
-3.52265
0
LINE
8
BLACK
6
CONTINUOUS
10
5.76407
20
-3.52265
11
5.76324
21
-3.52218
0
LINE
8
BLACK
6
CONTINUOUS
10
5.76324
20
-3.52218
11
5.76043
21
-3.51936
0
LINE
8
BLACK
6
CONTINUOUS
10
5.76043
20
-3.51936
11
5.75996
21
-3.51854
0
LINE
8
BLACK
6
CONTINUOUS
10
5.75996
20
-3.51854
11
5.75932
21
-3.51783
0
LINE
8
BLACK
6
CONTINUOUS
10
5.75932
20
-3.51783
11
5.75651
21
-3.5122
0
LINE
8
BLACK
6
CONTINUOUS
10
5.75651
20
-3.5122
11
5.75624
21
-3.51087
0
LINE
8
BLACK
6
CONTINUOUS
10
5.75624
20
-3.51087
11
5.75589
21
-3.50956
0
LINE
8
BLACK
6
CONTINUOUS
10
5.75589
20
-3.50956
11
5.75589
21
-3.50394
0
LINE
8
BLACK
6
CONTINUOUS
10
5.75589
20
-3.50394
11
5.75624
21
-3.50263
0
LINE
8
BLACK
6
CONTINUOUS
10
5.75624
20
-3.50263
11
5.75651
21
-3.5013
0
LINE
8
BLACK
6
CONTINUOUS
10
5.75651
20
-3.5013
11
5.75932
21
-3.49567
0
LINE
8
BLACK
6
CONTINUOUS
10
5.75932
20
-3.49567
11
5.75996
21
-3.49496
0
LINE
8
BLACK
6
CONTINUOUS
10
5.75996
20
-3.49496
11
5.76043
21
-3.49414
0
LINE
8
BLACK
6
CONTINUOUS
10
5.76043
20
-3.49414
11
5.76324
21
-3.49133
0
LINE
8
BLACK
6
CONTINUOUS
10
5.76324
20
-3.49133
11
5.76407
21
-3.49085
0
LINE
8
BLACK
6
CONTINUOUS
10
5.76407
20
-3.49085
11
5.76478
21
-3.49022
0
LINE
8
BLACK
6
CONTINUOUS
10
5.76478
20
-3.49022
11
5.7704
21
-3.48741
0
LINE
8
BLACK
6
CONTINUOUS
10
5.7704
20
-3.48741
11
5.77173
21
-3.48714
0
LINE
8
BLACK
6
CONTINUOUS
10
5.77173
20
-3.48714
11
5.77304
21
-3.48678
0
LINE
8
BLACK
6
CONTINUOUS
10
5.77304
20
-3.48678
11
5.7871
21
-3.48678
0
LINE
8
BLACK
6
CONTINUOUS
10
5.7871
20
-3.48678
11
5.78802
21
-3.48703
0
LINE
8
BLACK
6
CONTINUOUS
10
5.85192
20
-3.48758
11
5.85409
21
-3.48974
0
LINE
8
BLACK
6
CONTINUOUS
10
5.85409
20
-3.48974
11
5.85488
21
-3.49269
0
LINE
8
BLACK
6
CONTINUOUS
10
5.85488
20
-3.49269
11
5.85409
21
-3.49564
0
LINE
8
BLACK
6
CONTINUOUS
10
5.85409
20
-3.49564
11
5.85192
21
-3.4978
0
LINE
8
BLACK
6
CONTINUOUS
10
5.85192
20
-3.4978
11
5.84897
21
-3.4986
0
LINE
8
BLACK
6
CONTINUOUS
10
5.84897
20
-3.4986
11
5.82675
21
-3.4986
0
LINE
8
BLACK
6
CONTINUOUS
10
5.82675
20
-3.4986
11
5.82675
21
-3.51491
0
LINE
8
BLACK
6
CONTINUOUS
10
5.82675
20
-3.51491
11
5.84053
21
-3.51491
0
LINE
8
BLACK
6
CONTINUOUS
10
5.84053
20
-3.51491
11
5.84349
21
-3.5157
0
LINE
8
BLACK
6
CONTINUOUS
10
5.84349
20
-3.5157
11
5.84565
21
-3.51786
0
LINE
8
BLACK
6
CONTINUOUS
10
5.84565
20
-3.51786
11
5.84644
21
-3.52081
0
LINE
8
BLACK
6
CONTINUOUS
10
5.84644
20
-3.52081
11
5.84565
21
-3.52376
0
LINE
8
BLACK
6
CONTINUOUS
10
5.84565
20
-3.52376
11
5.84349
21
-3.52593
0
LINE
8
BLACK
6
CONTINUOUS
10
5.84349
20
-3.52593
11
5.84053
21
-3.52672
0
LINE
8
BLACK
6
CONTINUOUS
10
5.84053
20
-3.52672
11
5.82675
21
-3.52672
0
LINE
8
BLACK
6
CONTINUOUS
10
5.82675
20
-3.52672
11
5.82675
21
-3.54584
0
LINE
8
BLACK
6
CONTINUOUS
10
5.82675
20
-3.54584
11
5.84897
21
-3.54584
0
LINE
8
BLACK
6
CONTINUOUS
10
5.84897
20
-3.54584
11
5.85192
21
-3.54663
0
LINE
8
BLACK
6
CONTINUOUS
10
5.85192
20
-3.54663
11
5.85409
21
-3.54879
0
LINE
8
BLACK
6
CONTINUOUS
10
5.85409
20
-3.54879
11
5.85488
21
-3.55175
0
LINE
8
BLACK
6
CONTINUOUS
10
5.85488
20
-3.55175
11
5.85409
21
-3.5547
0
LINE
8
BLACK
6
CONTINUOUS
10
5.85409
20
-3.5547
11
5.85192
21
-3.55686
0
LINE
8
BLACK
6
CONTINUOUS
10
5.85192
20
-3.55686
11
5.84897
21
-3.55765
0
LINE
8
BLACK
6
CONTINUOUS
10
5.84897
20
-3.55765
11
5.82085
21
-3.55765
0
LINE
8
BLACK
6
CONTINUOUS
10
5.82085
20
-3.55765
11
5.8179
21
-3.55686
0
LINE
8
BLACK
6
CONTINUOUS
10
5.8179
20
-3.55686
11
5.81573
21
-3.5547
0
LINE
8
BLACK
6
CONTINUOUS
10
5.81573
20
-3.5547
11
5.81494
21
-3.55175
0
LINE
8
BLACK
6
CONTINUOUS
10
5.81494
20
-3.55175
11
5.81494
21
-3.49269
0
LINE
8
BLACK
6
CONTINUOUS
10
5.81494
20
-3.49269
11
5.81573
21
-3.48974
0
LINE
8
BLACK
6
CONTINUOUS
10
5.81573
20
-3.48974
11
5.8179
21
-3.48758
0
LINE
8
BLACK
6
CONTINUOUS
10
5.8179
20
-3.48758
11
5.82085
21
-3.48678
0
LINE
8
BLACK
6
CONTINUOUS
10
5.82085
20
-3.48678
11
5.84897
21
-3.48678
0
LINE
8
BLACK
6
CONTINUOUS
10
5.84897
20
-3.48678
11
5.85192
21
-3.48758
0
LINE
8
BLACK
6
CONTINUOUS
10
5.89809
20
-3.48714
11
5.89942
21
-3.48741
0
LINE
8
BLACK
6
CONTINUOUS
10
5.89942
20
-3.48741
11
5.90504
21
-3.49022
0
LINE
8
BLACK
6
CONTINUOUS
10
5.90504
20
-3.49022
11
5.90575
21
-3.49085
0
LINE
8
BLACK
6
CONTINUOUS
10
5.90575
20
-3.49085
11
5.90658
21
-3.49133
0
LINE
8
BLACK
6
CONTINUOUS
10
5.90658
20
-3.49133
11
5.90939
21
-3.49414
0
LINE
8
BLACK
6
CONTINUOUS
10
5.90939
20
-3.49414
11
5.90986
21
-3.49496
0
LINE
8
BLACK
6
CONTINUOUS
10
5.90986
20
-3.49496
11
5.9105
21
-3.49567
0
LINE
8
BLACK
6
CONTINUOUS
10
5.9105
20
-3.49567
11
5.91331
21
-3.5013
0
LINE
8
BLACK
6
CONTINUOUS
10
5.91331
20
-3.5013
11
5.91358
21
-3.50263
0
LINE
8
BLACK
6
CONTINUOUS
10
5.91358
20
-3.50263
11
5.91393
21
-3.50394
0
LINE
8
BLACK
6
CONTINUOUS
10
5.91393
20
-3.50394
11
5.91393
21
-3.51238
0
LINE
8
BLACK
6
CONTINUOUS
10
5.91393
20
-3.51238
11
5.91358
21
-3.51369
0
LINE
8
BLACK
6
CONTINUOUS
10
5.91358
20
-3.51369
11
5.91331
21
-3.51502
0
LINE
8
BLACK
6
CONTINUOUS
10
5.91331
20
-3.51502
11
5.9105
21
-3.52064
0
LINE
8
BLACK
6
CONTINUOUS
10
5.9105
20
-3.52064
11
5.90986
21
-3.52135
0
LINE
8
BLACK
6
CONTINUOUS
10
5.90986
20
-3.52135
11
5.90939
21
-3.52218
0
LINE
8
BLACK
6
CONTINUOUS
10
5.90939
20
-3.52218
11
5.90658
21
-3.52499
0
LINE
8
BLACK
6
CONTINUOUS
10
5.90658
20
-3.52499
11
5.90575
21
-3.52546
0
LINE
8
BLACK
6
CONTINUOUS
10
5.90575
20
-3.52546
11
5.90504
21
-3.52609
0
LINE
8
BLACK
6
CONTINUOUS
10
5.90504
20
-3.52609
11
5.89942
21
-3.52891
0
LINE
8
BLACK
6
CONTINUOUS
10
5.89942
20
-3.52891
11
5.89927
21
-3.52894
0
LINE
8
BLACK
6
CONTINUOUS
10
5.89927
20
-3.52894
11
5.91286
21
-3.54836
0
LINE
8
BLACK
6
CONTINUOUS
10
5.91286
20
-3.54836
11
5.91391
21
-3.55123
0
LINE
8
BLACK
6
CONTINUOUS
10
5.91391
20
-3.55123
11
5.91338
21
-3.55424
0
LINE
8
BLACK
6
CONTINUOUS
10
5.91338
20
-3.55424
11
5.91141
21
-3.55658
0
LINE
8
BLACK
6
CONTINUOUS
10
5.91141
20
-3.55658
11
5.90854
21
-3.55763
0
LINE
8
BLACK
6
CONTINUOUS
10
5.90854
20
-3.55763
11
5.90553
21
-3.5571
0
LINE
8
BLACK
6
CONTINUOUS
10
5.90553
20
-3.5571
11
5.90319
21
-3.55513
0
LINE
8
BLACK
6
CONTINUOUS
10
5.90319
20
-3.55513
11
5.88527
21
-3.52953
0
LINE
8
BLACK
6
CONTINUOUS
10
5.88527
20
-3.52953
11
5.88019
21
-3.52953
0
LINE
8
BLACK
6
CONTINUOUS
10
5.88019
20
-3.52953
11
5.88019
21
-3.55175
0
LINE
8
BLACK
6
CONTINUOUS
10
5.88019
20
-3.55175
11
5.87939
21
-3.5547
0
LINE
8
BLACK
6
CONTINUOUS
10
5.87939
20
-3.5547
11
5.87723
21
-3.55686
0
LINE
8
BLACK
6
CONTINUOUS
10
5.87723
20
-3.55686
11
5.87428
21
-3.55765
0
LINE
8
BLACK
6
CONTINUOUS
10
5.87428
20
-3.55765
11
5.87133
21
-3.55686
0
LINE
8
BLACK
6
CONTINUOUS
10
5.87133
20
-3.55686
11
5.86917
21
-3.5547
0
LINE
8
BLACK
6
CONTINUOUS
10
5.86917
20
-3.5547
11
5.86837
21
-3.55175
0
LINE
8
BLACK
6
CONTINUOUS
10
5.86837
20
-3.55175
11
5.86837
21
-3.49269
0
LINE
8
BLACK
6
CONTINUOUS
10
5.86837
20
-3.49269
11
5.86917
21
-3.48974
0
LINE
8
BLACK
6
CONTINUOUS
10
5.86917
20
-3.48974
11
5.87133
21
-3.48758
0
LINE
8
BLACK
6
CONTINUOUS
10
5.87133
20
-3.48758
11
5.87428
21
-3.48678
0
LINE
8
BLACK
6
CONTINUOUS
10
5.87428
20
-3.48678
11
5.89678
21
-3.48678
0
LINE
8
BLACK
6
CONTINUOUS
10
5.89678
20
-3.48678
11
5.89809
21
-3.48714
0
LINE
8
BLACK
6
CONTINUOUS
10
5.88019
20
-3.51772
11
5.89538
21
-3.51772
0
LINE
8
BLACK
6
CONTINUOUS
10
5.89538
20
-3.51772
11
5.8989
21
-3.51596
0
LINE
8
BLACK
6
CONTINUOUS
10
5.8989
20
-3.51596
11
5.90036
21
-3.5145
0
LINE
8
BLACK
6
CONTINUOUS
10
5.90036
20
-3.5145
11
5.90212
21
-3.51098
0
LINE
8
BLACK
6
CONTINUOUS
10
5.90212
20
-3.51098
11
5.90212
21
-3.50533
0
LINE
8
BLACK
6
CONTINUOUS
10
5.90212
20
-3.50533
11
5.90036
21
-3.50181
0
LINE
8
BLACK
6
CONTINUOUS
10
5.90036
20
-3.50181
11
5.8989
21
-3.50036
0
LINE
8
BLACK
6
CONTINUOUS
10
5.8989
20
-3.50036
11
5.89538
21
-3.4986
0
LINE
8
BLACK
6
CONTINUOUS
10
5.89538
20
-3.4986
11
5.88019
21
-3.4986
0
LINE
8
BLACK
6
CONTINUOUS
10
5.88019
20
-3.4986
11
5.88019
21
-3.51772
0
LINE
8
BLACK
6
CONTINUOUS
10
5.93629
20
-3.48758
11
5.93845
21
-3.48974
0
LINE
8
BLACK
6
CONTINUOUS
10
5.93845
20
-3.48974
11
5.93924
21
-3.49269
0
LINE
8
BLACK
6
CONTINUOUS
10
5.93924
20
-3.49269
11
5.93924
21
-3.55175
0
LINE
8
BLACK
6
CONTINUOUS
10
5.93924
20
-3.55175
11
5.93845
21
-3.5547
0
LINE
8
BLACK
6
CONTINUOUS
10
5.93845
20
-3.5547
11
5.93629
21
-3.55686
0
LINE
8
BLACK
6
CONTINUOUS
10
5.93629
20
-3.55686
11
5.93334
21
-3.55765
0
LINE
8
BLACK
6
CONTINUOUS
10
5.93334
20
-3.55765
11
5.93038
21
-3.55686
0
LINE
8
BLACK
6
CONTINUOUS
10
5.93038
20
-3.55686
11
5.92822
21
-3.5547
0
LINE
8
BLACK
6
CONTINUOUS
10
5.92822
20
-3.5547
11
5.92743
21
-3.55175
0
LINE
8
BLACK
6
CONTINUOUS
10
5.92743
20
-3.55175
11
5.92743
21
-3.49269
0
LINE
8
BLACK
6
CONTINUOUS
10
5.92743
20
-3.49269
11
5.92822
21
-3.48974
0
LINE
8
BLACK
6
CONTINUOUS
10
5.92822
20
-3.48974
11
5.93038
21
-3.48758
0
LINE
8
BLACK
6
CONTINUOUS
10
5.93038
20
-3.48758
11
5.93334
21
-3.48678
0
LINE
8
BLACK
6
CONTINUOUS
10
5.93334
20
-3.48678
11
5.93629
21
-3.48758
0
LINE
8
BLACK
6
CONTINUOUS
10
6.01503
20
-3.48758
11
6.01719
21
-3.48974
0
LINE
8
BLACK
6
CONTINUOUS
10
6.01719
20
-3.48974
11
6.01798
21
-3.49269
0
LINE
8
BLACK
6
CONTINUOUS
10
6.01798
20
-3.49269
11
6.01798
21
-3.54584
0
LINE
8
BLACK
6
CONTINUOUS
10
6.01798
20
-3.54584
11
6.0402
21
-3.54584
0
LINE
8
BLACK
6
CONTINUOUS
10
6.0402
20
-3.54584
11
6.04315
21
-3.54663
0
LINE
8
BLACK
6
CONTINUOUS
10
6.04315
20
-3.54663
11
6.04531
21
-3.54879
0
LINE
8
BLACK
6
CONTINUOUS
10
6.04531
20
-3.54879
11
6.0461
21
-3.55175
0
LINE
8
BLACK
6
CONTINUOUS
10
6.0461
20
-3.55175
11
6.04531
21
-3.5547
0
LINE
8
BLACK
6
CONTINUOUS
10
6.04531
20
-3.5547
11
6.04315
21
-3.55686
0
LINE
8
BLACK
6
CONTINUOUS
10
6.04315
20
-3.55686
11
6.0402
21
-3.55765
0
LINE
8
BLACK
6
CONTINUOUS
10
6.0402
20
-3.55765
11
6.01208
21
-3.55765
0
LINE
8
BLACK
6
CONTINUOUS
10
6.01208
20
-3.55765
11
6.00912
21
-3.55686
0
LINE
8
BLACK
6
CONTINUOUS
10
6.00912
20
-3.55686
11
6.00696
21
-3.5547
0
LINE
8
BLACK
6
CONTINUOUS
10
6.00696
20
-3.5547
11
6.00617
21
-3.55175
0
LINE
8
BLACK
6
CONTINUOUS
10
6.00617
20
-3.55175
11
6.00617
21
-3.49269
0
LINE
8
BLACK
6
CONTINUOUS
10
6.00617
20
-3.49269
11
6.00696
21
-3.48974
0
LINE
8
BLACK
6
CONTINUOUS
10
6.00696
20
-3.48974
11
6.00912
21
-3.48758
0
LINE
8
BLACK
6
CONTINUOUS
10
6.00912
20
-3.48758
11
6.01208
21
-3.48678
0
LINE
8
BLACK
6
CONTINUOUS
10
6.01208
20
-3.48678
11
6.01503
21
-3.48758
0
LINE
8
BLACK
6
CONTINUOUS
10
6.07807
20
-3.48714
11
6.0794
21
-3.48741
0
LINE
8
BLACK
6
CONTINUOUS
10
6.0794
20
-3.48741
11
6.08502
21
-3.49022
0
LINE
8
BLACK
6
CONTINUOUS
10
6.08502
20
-3.49022
11
6.08573
21
-3.49085
0
LINE
8
BLACK
6
CONTINUOUS
10
6.08573
20
-3.49085
11
6.08655
21
-3.49133
0
LINE
8
BLACK
6
CONTINUOUS
10
6.08655
20
-3.49133
11
6.08937
21
-3.49414
0
LINE
8
BLACK
6
CONTINUOUS
10
6.08937
20
-3.49414
11
6.08984
21
-3.49496
0
LINE
8
BLACK
6
CONTINUOUS
10
6.08984
20
-3.49496
11
6.09047
21
-3.49567
0
LINE
8
BLACK
6
CONTINUOUS
10
6.09047
20
-3.49567
11
6.09329
21
-3.5013
0
LINE
8
BLACK
6
CONTINUOUS
10
6.09329
20
-3.5013
11
6.09342
21
-3.50194
0
LINE
8
BLACK
6
CONTINUOUS
10
6.09342
20
-3.50194
11
6.09373
21
-3.50251
0
LINE
8
BLACK
6
CONTINUOUS
10
6.09373
20
-3.50251
11
6.09654
21
-3.51375
0
LINE
8
BLACK
6
CONTINUOUS
10
6.09654
20
-3.51375
11
6.09653
21
-3.51448
0
LINE
8
BLACK
6
CONTINUOUS
10
6.09653
20
-3.51448
11
6.09672
21
-3.51519
0
LINE
8
BLACK
6
CONTINUOUS
10
6.09672
20
-3.51519
11
6.09672
21
-3.52925
0
LINE
8
BLACK
6
CONTINUOUS
10
6.09672
20
-3.52925
11
6.09653
21
-3.52995
0
LINE
8
BLACK
6
CONTINUOUS
10
6.09653
20
-3.52995
11
6.09654
21
-3.53068
0
LINE
8
BLACK
6
CONTINUOUS
10
6.09654
20
-3.53068
11
6.09373
21
-3.54193
0
LINE
8
BLACK
6
CONTINUOUS
10
6.09373
20
-3.54193
11
6.09342
21
-3.5425
0
LINE
8
BLACK
6
CONTINUOUS
10
6.09342
20
-3.5425
11
6.09329
21
-3.54314
0
LINE
8
BLACK
6
CONTINUOUS
10
6.09329
20
-3.54314
11
6.09047
21
-3.54876
0
LINE
8
BLACK
6
CONTINUOUS
10
6.09047
20
-3.54876
11
6.08984
21
-3.54947
0
LINE
8
BLACK
6
CONTINUOUS
10
6.08984
20
-3.54947
11
6.08937
21
-3.5503
0
LINE
8
BLACK
6
CONTINUOUS
10
6.08937
20
-3.5503
11
6.08655
21
-3.55311
0
LINE
8
BLACK
6
CONTINUOUS
10
6.08655
20
-3.55311
11
6.08573
21
-3.55358
0
LINE
8
BLACK
6
CONTINUOUS
10
6.08573
20
-3.55358
11
6.08502
21
-3.55422
0
LINE
8
BLACK
6
CONTINUOUS
10
6.08502
20
-3.55422
11
6.0794
21
-3.55703
0
LINE
8
BLACK
6
CONTINUOUS
10
6.0794
20
-3.55703
11
6.07807
21
-3.5573
0
LINE
8
BLACK
6
CONTINUOUS
10
6.07807
20
-3.5573
11
6.07675
21
-3.55765
0
LINE
8
BLACK
6
CONTINUOUS
10
6.07675
20
-3.55765
11
6.07113
21
-3.55765
0
LINE
8
BLACK
6
CONTINUOUS
10
6.07113
20
-3.55765
11
6.06982
21
-3.5573
0
LINE
8
BLACK
6
CONTINUOUS
10
6.06982
20
-3.5573
11
6.06849
21
-3.55703
0
LINE
8
BLACK
6
CONTINUOUS
10
6.06849
20
-3.55703
11
6.06287
21
-3.55422
0
LINE
8
BLACK
6
CONTINUOUS
10
6.06287
20
-3.55422
11
6.06215
21
-3.55358
0
LINE
8
BLACK
6
CONTINUOUS
10
6.06215
20
-3.55358
11
6.06133
21
-3.55311
0
LINE
8
BLACK
6
CONTINUOUS
10
6.06133
20
-3.55311
11
6.05852
21
-3.5503
0
LINE
8
BLACK
6
CONTINUOUS
10
6.05852
20
-3.5503
11
6.05804
21
-3.54947
0
LINE
8
BLACK
6
CONTINUOUS
10
6.05804
20
-3.54947
11
6.05741
21
-3.54876
0
LINE
8
BLACK
6
CONTINUOUS
10
6.05741
20
-3.54876
11
6.0546
21
-3.54314
0
LINE
8
BLACK
6
CONTINUOUS
10
6.0546
20
-3.54314
11
6.05447
21
-3.5425
0
LINE
8
BLACK
6
CONTINUOUS
10
6.05447
20
-3.5425
11
6.05415
21
-3.54193
0
LINE
8
BLACK
6
CONTINUOUS
10
6.05415
20
-3.54193
11
6.05134
21
-3.53068
0
LINE
8
BLACK
6
CONTINUOUS
10
6.05134
20
-3.53068
11
6.05135
21
-3.52995
0
LINE
8
BLACK
6
CONTINUOUS
10
6.05135
20
-3.52995
11
6.05116
21
-3.52925
0
LINE
8
BLACK
6
CONTINUOUS
10
6.05116
20
-3.52925
11
6.05116
21
-3.51519
0
LINE
8
BLACK
6
CONTINUOUS
10
6.05116
20
-3.51519
11
6.05135
21
-3.51448
0
LINE
8
BLACK
6
CONTINUOUS
10
6.05135
20
-3.51448
11
6.05134
21
-3.51375
0
LINE
8
BLACK
6
CONTINUOUS
10
6.05134
20
-3.51375
11
6.05415
21
-3.50251
0
LINE
8
BLACK
6
CONTINUOUS
10
6.05415
20
-3.50251
11
6.05447
21
-3.50194
0
LINE
8
BLACK
6
CONTINUOUS
10
6.05447
20
-3.50194
11
6.0546
21
-3.5013
0
LINE
8
BLACK
6
CONTINUOUS
10
6.0546
20
-3.5013
11
6.05741
21
-3.49567
0
LINE
8
BLACK
6
CONTINUOUS
10
6.05741
20
-3.49567
11
6.05804
21
-3.49496
0
LINE
8
BLACK
6
CONTINUOUS
10
6.05804
20
-3.49496
11
6.05852
21
-3.49414
0
LINE
8
BLACK
6
CONTINUOUS
10
6.05852
20
-3.49414
11
6.06133
21
-3.49133
0
LINE
8
BLACK
6
CONTINUOUS
10
6.06133
20
-3.49133
11
6.06215
21
-3.49085
0
LINE
8
BLACK
6
CONTINUOUS
10
6.06215
20
-3.49085
11
6.06287
21
-3.49022
0
LINE
8
BLACK
6
CONTINUOUS
10
6.06287
20
-3.49022
11
6.06849
21
-3.48741
0
LINE
8
BLACK
6
CONTINUOUS
10
6.06849
20
-3.48741
11
6.06982
21
-3.48714
0
LINE
8
BLACK
6
CONTINUOUS
10
6.06982
20
-3.48714
11
6.07113
21
-3.48678
0
LINE
8
BLACK
6
CONTINUOUS
10
6.07113
20
-3.48678
11
6.07675
21
-3.48678
0
LINE
8
BLACK
6
CONTINUOUS
10
6.07675
20
-3.48678
11
6.07807
21
-3.48714
0
LINE
8
BLACK
6
CONTINUOUS
10
6.069
20
-3.50036
11
6.06755
21
-3.50181
0
LINE
8
BLACK
6
CONTINUOUS
10
6.06755
20
-3.50181
11
6.06545
21
-3.506
0
LINE
8
BLACK
6
CONTINUOUS
10
6.06545
20
-3.506
11
6.06298
21
-3.51591
0
LINE
8
BLACK
6
CONTINUOUS
10
6.06298
20
-3.51591
11
6.06298
21
-3.52852
0
LINE
8
BLACK
6
CONTINUOUS
10
6.06298
20
-3.52852
11
6.06545
21
-3.53844
0
LINE
8
BLACK
6
CONTINUOUS
10
6.06545
20
-3.53844
11
6.06755
21
-3.54262
0
LINE
8
BLACK
6
CONTINUOUS
10
6.06755
20
-3.54262
11
6.069
21
-3.54408
0
LINE
8
BLACK
6
CONTINUOUS
10
6.069
20
-3.54408
11
6.07252
21
-3.54584
0
LINE
8
BLACK
6
CONTINUOUS
10
6.07252
20
-3.54584
11
6.07536
21
-3.54584
0
LINE
8
BLACK
6
CONTINUOUS
10
6.07536
20
-3.54584
11
6.07888
21
-3.54408
0
LINE
8
BLACK
6
CONTINUOUS
10
6.07888
20
-3.54408
11
6.08034
21
-3.54262
0
LINE
8
BLACK
6
CONTINUOUS
10
6.08034
20
-3.54262
11
6.08243
21
-3.53844
0
LINE
8
BLACK
6
CONTINUOUS
10
6.08243
20
-3.53844
11
6.08491
21
-3.52852
0
LINE
8
BLACK
6
CONTINUOUS
10
6.08491
20
-3.52852
11
6.08491
21
-3.51591
0
LINE
8
BLACK
6
CONTINUOUS
10
6.08491
20
-3.51591
11
6.08243
21
-3.506
0
LINE
8
BLACK
6
CONTINUOUS
10
6.08243
20
-3.506
11
6.08034
21
-3.50181
0
LINE
8
BLACK
6
CONTINUOUS
10
6.08034
20
-3.50181
11
6.07888
21
-3.50036
0
LINE
8
BLACK
6
CONTINUOUS
10
6.07888
20
-3.50036
11
6.07536
21
-3.4986
0
LINE
8
BLACK
6
CONTINUOUS
10
6.07536
20
-3.4986
11
6.07252
21
-3.4986
0
LINE
8
BLACK
6
CONTINUOUS
10
6.07252
20
-3.4986
11
6.069
21
-3.50036
0
LINE
8
BLACK
6
CONTINUOUS
10
6.13037
20
-3.48684
11
6.13057
21
-3.4868
0
LINE
8
BLACK
6
CONTINUOUS
10
6.13057
20
-3.4868
11
6.13184
21
-3.48723
0
LINE
8
BLACK
6
CONTINUOUS
10
6.13184
20
-3.48723
11
6.13314
21
-3.48758
0
LINE
8
BLACK
6
CONTINUOUS
10
6.13314
20
-3.48758
11
6.13328
21
-3.48771
0
LINE
8
BLACK
6
CONTINUOUS
10
6.13328
20
-3.48771
11
6.13346
21
-3.48778
0
LINE
8
BLACK
6
CONTINUOUS
10
6.13346
20
-3.48778
11
6.13435
21
-3.48879
0
LINE
8
BLACK
6
CONTINUOUS
10
6.13435
20
-3.48879
11
6.1353
21
-3.48974
0
LINE
8
BLACK
6
CONTINUOUS
10
6.1353
20
-3.48974
11
6.13535
21
-3.48993
0
LINE
8
BLACK
6
CONTINUOUS
10
6.13535
20
-3.48993
11
6.13548
21
-3.49007
0
LINE
8
BLACK
6
CONTINUOUS
10
6.13548
20
-3.49007
11
6.13574
21
-3.49139
0
LINE
8
BLACK
6
CONTINUOUS
10
6.13574
20
-3.49139
11
6.13609
21
-3.49269
0
LINE
8
BLACK
6
CONTINUOUS
10
6.13609
20
-3.49269
11
6.13609
21
-3.54584
0
LINE
8
BLACK
6
CONTINUOUS
10
6.13609
20
-3.54584
11
6.14706
21
-3.54584
0
LINE
8
BLACK
6
CONTINUOUS
10
6.14706
20
-3.54584
11
6.15001
21
-3.54663
0
LINE
8
BLACK
6
CONTINUOUS
10
6.15001
20
-3.54663
11
6.15217
21
-3.54879
0
LINE
8
BLACK
6
CONTINUOUS
10
6.15217
20
-3.54879
11
6.15296
21
-3.55175
0
LINE
8
BLACK
6
CONTINUOUS
10
6.15296
20
-3.55175
11
6.15217
21
-3.5547
0
LINE
8
BLACK
6
CONTINUOUS
10
6.15217
20
-3.5547
11
6.15001
21
-3.55686
0
LINE
8
BLACK
6
CONTINUOUS
10
6.15001
20
-3.55686
11
6.14706
21
-3.55765
0
LINE
8
BLACK
6
CONTINUOUS
10
6.14706
20
-3.55765
11
6.13019
21
-3.55765
0
LINE
8
BLACK
6
CONTINUOUS
10
6.13019
20
-3.55765
11
6.11331
21
-3.55765
0
LINE
8
BLACK
6
CONTINUOUS
10
6.11331
20
-3.55765
11
6.11036
21
-3.55686
0
LINE
8
BLACK
6
CONTINUOUS
10
6.11036
20
-3.55686
11
6.1082
21
-3.5547
0
LINE
8
BLACK
6
CONTINUOUS
10
6.1082
20
-3.5547
11
6.10741
21
-3.55175
0
LINE
8
BLACK
6
CONTINUOUS
10
6.10741
20
-3.55175
11
6.1082
21
-3.54879
0
LINE
8
BLACK
6
CONTINUOUS
10
6.1082
20
-3.54879
11
6.11036
21
-3.54663
0
LINE
8
BLACK
6
CONTINUOUS
10
6.11036
20
-3.54663
11
6.11331
21
-3.54584
0
LINE
8
BLACK
6
CONTINUOUS
10
6.11331
20
-3.54584
11
6.12428
21
-3.54584
0
LINE
8
BLACK
6
CONTINUOUS
10
6.12428
20
-3.54584
11
6.12428
21
-3.50976
0
LINE
8
BLACK
6
CONTINUOUS
10
6.12428
20
-3.50976
11
6.12311
21
-3.51093
0
LINE
8
BLACK
6
CONTINUOUS
10
6.12311
20
-3.51093
11
6.12229
21
-3.5114
0
LINE
8
BLACK
6
CONTINUOUS
10
6.12229
20
-3.5114
11
6.12158
21
-3.51203
0
LINE
8
BLACK
6
CONTINUOUS
10
6.12158
20
-3.51203
11
6.11595
21
-3.51485
0
LINE
8
BLACK
6
CONTINUOUS
10
6.11595
20
-3.51485
11
6.11296
21
-3.51546
0
LINE
8
BLACK
6
CONTINUOUS
10
6.11296
20
-3.51546
11
6.11006
21
-3.51449
0
LINE
8
BLACK
6
CONTINUOUS
10
6.11006
20
-3.51449
11
6.10803
21
-3.5122
0
LINE
8
BLACK
6
CONTINUOUS
10
6.10803
20
-3.5122
11
6.10742
21
-3.50921
0
LINE
8
BLACK
6
CONTINUOUS
10
6.10742
20
-3.50921
11
6.10838
21
-3.50631
0
LINE
8
BLACK
6
CONTINUOUS
10
6.10838
20
-3.50631
11
6.11067
21
-3.50428
0
LINE
8
BLACK
6
CONTINUOUS
10
6.11067
20
-3.50428
11
6.11544
21
-3.5019
0
LINE
8
BLACK
6
CONTINUOUS
10
6.11544
20
-3.5019
11
6.11997
21
-3.49736
0
LINE
8
BLACK
6
CONTINUOUS
10
6.11997
20
-3.49736
11
6.12527
21
-3.48941
0
LINE
8
BLACK
6
CONTINUOUS
10
6.12527
20
-3.48941
11
6.12628
21
-3.48853
0
LINE
8
BLACK
6
CONTINUOUS
10
6.12628
20
-3.48853
11
6.12723
21
-3.48758
0
LINE
8
BLACK
6
CONTINUOUS
10
6.12723
20
-3.48758
11
6.12742
21
-3.48753
0
LINE
8
BLACK
6
CONTINUOUS
10
6.12742
20
-3.48753
11
6.12757
21
-3.4874
0
LINE
8
BLACK
6
CONTINUOUS
10
6.12757
20
-3.4874
11
6.12889
21
-3.48713
0
LINE
8
BLACK
6
CONTINUOUS
10
6.12889
20
-3.48713
11
6.13019
21
-3.48678
0
LINE
8
BLACK
6
CONTINUOUS
10
6.13019
20
-3.48678
11
6.13037
21
-3.48684
0
LINE
8
BLACK
6
CONTINUOUS
10
5.97421
20
-3.48707
11
5.97457
21
-3.48709
0
LINE
8
BLACK
6
CONTINUOUS
10
5.97457
20
-3.48709
11
5.97556
21
-3.48774
0
LINE
8
BLACK
6
CONTINUOUS
10
5.97556
20
-3.48774
11
5.97662
21
-3.48827
0
LINE
8
BLACK
6
CONTINUOUS
10
5.97662
20
-3.48827
11
5.97682
21
-3.48857
0
LINE
8
BLACK
6
CONTINUOUS
10
5.97682
20
-3.48857
11
5.97712
21
-3.48877
0
LINE
8
BLACK
6
CONTINUOUS
10
5.97712
20
-3.48877
11
5.97765
21
-3.48983
0
LINE
8
BLACK
6
CONTINUOUS
10
5.97765
20
-3.48983
11
5.97831
21
-3.49082
0
LINE
8
BLACK
6
CONTINUOUS
10
5.97831
20
-3.49082
11
5.99799
21
-3.54988
0
LINE
8
BLACK
6
CONTINUOUS
10
5.99799
20
-3.54988
11
5.99818
21
-3.55293
0
LINE
8
BLACK
6
CONTINUOUS
10
5.99818
20
-3.55293
11
5.99681
21
-3.55566
0
LINE
8
BLACK
6
CONTINUOUS
10
5.99681
20
-3.55566
11
5.99426
21
-3.55735
0
LINE
8
BLACK
6
CONTINUOUS
10
5.99426
20
-3.55735
11
5.99121
21
-3.55753
0
LINE
8
BLACK
6
CONTINUOUS
10
5.99121
20
-3.55753
11
5.98847
21
-3.55616
0
LINE
8
BLACK
6
CONTINUOUS
10
5.98847
20
-3.55616
11
5.98679
21
-3.55361
0
LINE
8
BLACK
6
CONTINUOUS
10
5.98679
20
-3.55361
11
5.98251
21
-3.54078
0
LINE
8
BLACK
6
CONTINUOUS
10
5.98251
20
-3.54078
11
5.9629
21
-3.54078
0
LINE
8
BLACK
6
CONTINUOUS
10
5.9629
20
-3.54078
11
5.95862
21
-3.55361
0
LINE
8
BLACK
6
CONTINUOUS
10
5.95862
20
-3.55361
11
5.95694
21
-3.55616
0
LINE
8
BLACK
6
CONTINUOUS
10
5.95694
20
-3.55616
11
5.9542
21
-3.55753
0
LINE
8
BLACK
6
CONTINUOUS
10
5.9542
20
-3.55753
11
5.95115
21
-3.55735
0
LINE
8
BLACK
6
CONTINUOUS
10
5.95115
20
-3.55735
11
5.9486
21
-3.55566
0
LINE
8
BLACK
6
CONTINUOUS
10
5.9486
20
-3.55566
11
5.94723
21
-3.55293
0
LINE
8
BLACK
6
CONTINUOUS
10
5.94723
20
-3.55293
11
5.94742
21
-3.54988
0
LINE
8
BLACK
6
CONTINUOUS
10
5.94742
20
-3.54988
11
5.9671
21
-3.49082
0
LINE
8
BLACK
6
CONTINUOUS
10
5.9671
20
-3.49082
11
5.96776
21
-3.48983
0
LINE
8
BLACK
6
CONTINUOUS
10
5.96776
20
-3.48983
11
5.96829
21
-3.48877
0
LINE
8
BLACK
6
CONTINUOUS
10
5.96829
20
-3.48877
11
5.96859
21
-3.48857
0
LINE
8
BLACK
6
CONTINUOUS
10
5.96859
20
-3.48857
11
5.96879
21
-3.48827
0
LINE
8
BLACK
6
CONTINUOUS
10
5.96879
20
-3.48827
11
5.96985
21
-3.48774
0
LINE
8
BLACK
6
CONTINUOUS
10
5.96985
20
-3.48774
11
5.97084
21
-3.48709
0
LINE
8
BLACK
6
CONTINUOUS
10
5.97084
20
-3.48709
11
5.9712
21
-3.48707
0
LINE
8
BLACK
6
CONTINUOUS
10
5.9712
20
-3.48707
11
5.97152
21
-3.4869
0
LINE
8
BLACK
6
CONTINUOUS
10
5.97152
20
-3.4869
11
5.97271
21
-3.48698
0
LINE
8
BLACK
6
CONTINUOUS
10
5.97271
20
-3.48698
11
5.97389
21
-3.4869
0
LINE
8
BLACK
6
CONTINUOUS
10
5.97389
20
-3.4869
11
5.97421
21
-3.48707
0
LINE
8
BLACK
6
CONTINUOUS
10
5.96684
20
-3.52897
11
5.97857
21
-3.52897
0
LINE
8
BLACK
6
CONTINUOUS
10
5.97857
20
-3.52897
11
5.97271
21
-3.51136
0
LINE
8
BLACK
6
CONTINUOUS
10
5.97271
20
-3.51136
11
5.96684
21
-3.52897
0
LINE
8
BLACK
6
CONTINUOUS
10
6.18512
20
-3.48707
11
6.18548
21
-3.48709
0
LINE
8
BLACK
6
CONTINUOUS
10
6.18548
20
-3.48709
11
6.18647
21
-3.48774
0
LINE
8
BLACK
6
CONTINUOUS
10
6.18647
20
-3.48774
11
6.18753
21
-3.48827
0
LINE
8
BLACK
6
CONTINUOUS
10
6.18753
20
-3.48827
11
6.18773
21
-3.48857
0
LINE
8
BLACK
6
CONTINUOUS
10
6.18773
20
-3.48857
11
6.18803
21
-3.48877
0
LINE
8
BLACK
6
CONTINUOUS
10
6.18803
20
-3.48877
11
6.18857
21
-3.48983
0
LINE
8
BLACK
6
CONTINUOUS
10
6.18857
20
-3.48983
11
6.18922
21
-3.49082
0
LINE
8
BLACK
6
CONTINUOUS
10
6.18922
20
-3.49082
11
6.2089
21
-3.54988
0
LINE
8
BLACK
6
CONTINUOUS
10
6.2089
20
-3.54988
11
6.20909
21
-3.55293
0
LINE
8
BLACK
6
CONTINUOUS
10
6.20909
20
-3.55293
11
6.20772
21
-3.55566
0
LINE
8
BLACK
6
CONTINUOUS
10
6.20772
20
-3.55566
11
6.20517
21
-3.55735
0
LINE
8
BLACK
6
CONTINUOUS
10
6.20517
20
-3.55735
11
6.20212
21
-3.55753
0
LINE
8
BLACK
6
CONTINUOUS
10
6.20212
20
-3.55753
11
6.19938
21
-3.55616
0
LINE
8
BLACK
6
CONTINUOUS
10
6.19938
20
-3.55616
11
6.1977
21
-3.55361
0
LINE
8
BLACK
6
CONTINUOUS
10
6.1977
20
-3.55361
11
6.19342
21
-3.54078
0
LINE
8
BLACK
6
CONTINUOUS
10
6.19342
20
-3.54078
11
6.17381
21
-3.54078
0
LINE
8
BLACK
6
CONTINUOUS
10
6.17381
20
-3.54078
11
6.16953
21
-3.55361
0
LINE
8
BLACK
6
CONTINUOUS
10
6.16953
20
-3.55361
11
6.16785
21
-3.55616
0
LINE
8
BLACK
6
CONTINUOUS
10
6.16785
20
-3.55616
11
6.16512
21
-3.55753
0
LINE
8
BLACK
6
CONTINUOUS
10
6.16512
20
-3.55753
11
6.16206
21
-3.55735
0
LINE
8
BLACK
6
CONTINUOUS
10
6.16206
20
-3.55735
11
6.15951
21
-3.55566
0
LINE
8
BLACK
6
CONTINUOUS
10
6.15951
20
-3.55566
11
6.15815
21
-3.55293
0
LINE
8
BLACK
6
CONTINUOUS
10
6.15815
20
-3.55293
11
6.15833
21
-3.54988
0
LINE
8
BLACK
6
CONTINUOUS
10
6.15833
20
-3.54988
11
6.17801
21
-3.49082
0
LINE
8
BLACK
6
CONTINUOUS
10
6.17801
20
-3.49082
11
6.17867
21
-3.48983
0
LINE
8
BLACK
6
CONTINUOUS
10
6.17867
20
-3.48983
11
6.1792
21
-3.48877
0
LINE
8
BLACK
6
CONTINUOUS
10
6.1792
20
-3.48877
11
6.1795
21
-3.48857
0
LINE
8
BLACK
6
CONTINUOUS
10
6.1795
20
-3.48857
11
6.1797
21
-3.48827
0
LINE
8
BLACK
6
CONTINUOUS
10
6.1797
20
-3.48827
11
6.18076
21
-3.48774
0
LINE
8
BLACK
6
CONTINUOUS
10
6.18076
20
-3.48774
11
6.18175
21
-3.48709
0
LINE
8
BLACK
6
CONTINUOUS
10
6.18175
20
-3.48709
11
6.18211
21
-3.48707
0
LINE
8
BLACK
6
CONTINUOUS
10
6.18211
20
-3.48707
11
6.18243
21
-3.4869
0
LINE
8
BLACK
6
CONTINUOUS
10
6.18243
20
-3.4869
11
6.18362
21
-3.48698
0
LINE
8
BLACK
6
CONTINUOUS
10
6.18362
20
-3.48698
11
6.1848
21
-3.4869
0
LINE
8
BLACK
6
CONTINUOUS
10
6.1848
20
-3.4869
11
6.18512
21
-3.48707
0
LINE
8
BLACK
6
CONTINUOUS
10
6.17775
20
-3.52897
11
6.18948
21
-3.52897
0
LINE
8
BLACK
6
CONTINUOUS
10
6.18948
20
-3.52897
11
6.18362
21
-3.51136
0
LINE
8
BLACK
6
CONTINUOUS
10
6.18362
20
-3.51136
11
6.17775
21
-3.52897
0
LINE
8
BLACK
6
CONTINUOUS
10
6.42627
20
-3.50004
11
6.4278
21
-3.50269
0
LINE
8
BLACK
6
CONTINUOUS
10
6.4278
20
-3.50269
11
6.4278
21
-3.50575
0
LINE
8
BLACK
6
CONTINUOUS
10
6.4278
20
-3.50575
11
6.42627
21
-3.50839
0
LINE
8
BLACK
6
CONTINUOUS
10
6.42627
20
-3.50839
11
6.42444
21
-3.51022
0
LINE
8
BLACK
6
CONTINUOUS
10
6.42444
20
-3.51022
11
6.42238
21
-3.51643
0
LINE
8
BLACK
6
CONTINUOUS
10
6.42238
20
-3.51643
11
6.42238
21
-3.52013
0
LINE
8
BLACK
6
CONTINUOUS
10
6.42238
20
-3.52013
11
6.42444
21
-3.52634
0
LINE
8
BLACK
6
CONTINUOUS
10
6.42444
20
-3.52634
11
6.4284
21
-3.5303
0
LINE
8
BLACK
6
CONTINUOUS
10
6.4284
20
-3.5303
11
6.43259
21
-3.53239
0
LINE
8
BLACK
6
CONTINUOUS
10
6.43259
20
-3.53239
11
6.44251
21
-3.53487
0
LINE
8
BLACK
6
CONTINUOUS
10
6.44251
20
-3.53487
11
6.44949
21
-3.53487
0
LINE
8
BLACK
6
CONTINUOUS
10
6.44949
20
-3.53487
11
6.4594
21
-3.53239
0
LINE
8
BLACK
6
CONTINUOUS
10
6.4594
20
-3.53239
11
6.46359
21
-3.5303
0
LINE
8
BLACK
6
CONTINUOUS
10
6.46359
20
-3.5303
11
6.46755
21
-3.52634
0
LINE
8
BLACK
6
CONTINUOUS
10
6.46755
20
-3.52634
11
6.46962
21
-3.52013
0
LINE
8
BLACK
6
CONTINUOUS
10
6.46962
20
-3.52013
11
6.46962
21
-3.51643
0
LINE
8
BLACK
6
CONTINUOUS
10
6.46962
20
-3.51643
11
6.46755
21
-3.51022
0
LINE
8
BLACK
6
CONTINUOUS
10
6.46755
20
-3.51022
11
6.46572
21
-3.50839
0
LINE
8
BLACK
6
CONTINUOUS
10
6.46572
20
-3.50839
11
6.4642
21
-3.50575
0
LINE
8
BLACK
6
CONTINUOUS
10
6.4642
20
-3.50575
11
6.4642
21
-3.50269
0
LINE
8
BLACK
6
CONTINUOUS
10
6.4642
20
-3.50269
11
6.46572
21
-3.50004
0
LINE
8
BLACK
6
CONTINUOUS
10
6.46572
20
-3.50004
11
6.46837
21
-3.49851
0
LINE
8
BLACK
6
CONTINUOUS
10
6.46837
20
-3.49851
11
6.47143
21
-3.49851
0
LINE
8
BLACK
6
CONTINUOUS
10
6.47143
20
-3.49851
11
6.47408
21
-3.50004
0
LINE
8
BLACK
6
CONTINUOUS
10
6.47408
20
-3.50004
11
6.47689
21
-3.50285
0
LINE
8
BLACK
6
CONTINUOUS
10
6.47689
20
-3.50285
11
6.47757
21
-3.50403
0
LINE
8
BLACK
6
CONTINUOUS
10
6.47757
20
-3.50403
11
6.47832
21
-3.50516
0
LINE
8
BLACK
6
CONTINUOUS
10
6.47832
20
-3.50516
11
6.48113
21
-3.5136
0
LINE
8
BLACK
6
CONTINUOUS
10
6.48113
20
-3.5136
11
6.48118
21
-3.51455
0
LINE
8
BLACK
6
CONTINUOUS
10
6.48118
20
-3.51455
11
6.48143
21
-3.51547
0
LINE
8
BLACK
6
CONTINUOUS
10
6.48143
20
-3.51547
11
6.48143
21
-3.52109
0
LINE
8
BLACK
6
CONTINUOUS
10
6.48143
20
-3.52109
11
6.48118
21
-3.52201
0
LINE
8
BLACK
6
CONTINUOUS
10
6.48118
20
-3.52201
11
6.48113
21
-3.52296
0
LINE
8
BLACK
6
CONTINUOUS
10
6.48113
20
-3.52296
11
6.47832
21
-3.53139
0
LINE
8
BLACK
6
CONTINUOUS
10
6.47832
20
-3.53139
11
6.47757
21
-3.53253
0
LINE
8
BLACK
6
CONTINUOUS
10
6.47757
20
-3.53253
11
6.47689
21
-3.5337
0
LINE
8
BLACK
6
CONTINUOUS
10
6.47689
20
-3.5337
11
6.47126
21
-3.53933
0
LINE
8
BLACK
6
CONTINUOUS
10
6.47126
20
-3.53933
11
6.47044
21
-3.5398
0
LINE
8
BLACK
6
CONTINUOUS
10
6.47044
20
-3.5398
11
6.46973
21
-3.54043
0
LINE
8
BLACK
6
CONTINUOUS
10
6.46973
20
-3.54043
11
6.4641
21
-3.54325
0
LINE
8
BLACK
6
CONTINUOUS
10
6.4641
20
-3.54325
11
6.46347
21
-3.54338
0
LINE
8
BLACK
6
CONTINUOUS
10
6.46347
20
-3.54338
11
6.4629
21
-3.54369
0
LINE
8
BLACK
6
CONTINUOUS
10
6.4629
20
-3.54369
11
6.45165
21
-3.54651
0
LINE
8
BLACK
6
CONTINUOUS
10
6.45165
20
-3.54651
11
6.45092
21
-3.54649
0
LINE
8
BLACK
6
CONTINUOUS
10
6.45092
20
-3.54649
11
6.45022
21
-3.54668
0
LINE
8
BLACK
6
CONTINUOUS
10
6.45022
20
-3.54668
11
6.44178
21
-3.54668
0
LINE
8
BLACK
6
CONTINUOUS
10
6.44178
20
-3.54668
11
6.44108
21
-3.54649
0
LINE
8
BLACK
6
CONTINUOUS
10
6.44108
20
-3.54649
11
6.44035
21
-3.54651
0
LINE
8
BLACK
6
CONTINUOUS
10
6.44035
20
-3.54651
11
6.4291
21
-3.54369
0
LINE
8
BLACK
6
CONTINUOUS
10
6.4291
20
-3.54369
11
6.42853
21
-3.54338
0
LINE
8
BLACK
6
CONTINUOUS
10
6.42853
20
-3.54338
11
6.42789
21
-3.54325
0
LINE
8
BLACK
6
CONTINUOUS
10
6.42789
20
-3.54325
11
6.42227
21
-3.54043
0
LINE
8
BLACK
6
CONTINUOUS
10
6.42227
20
-3.54043
11
6.42155
21
-3.5398
0
LINE
8
BLACK
6
CONTINUOUS
10
6.42155
20
-3.5398
11
6.42073
21
-3.53933
0
LINE
8
BLACK
6
CONTINUOUS
10
6.42073
20
-3.53933
11
6.41511
21
-3.5337
0
LINE
8
BLACK
6
CONTINUOUS
10
6.41511
20
-3.5337
11
6.41443
21
-3.53253
0
LINE
8
BLACK
6
CONTINUOUS
10
6.41443
20
-3.53253
11
6.41368
21
-3.53139
0
LINE
8
BLACK
6
CONTINUOUS
10
6.41368
20
-3.53139
11
6.41087
21
-3.52296
0
LINE
8
BLACK
6
CONTINUOUS
10
6.41087
20
-3.52296
11
6.41081
21
-3.52201
0
LINE
8
BLACK
6
CONTINUOUS
10
6.41081
20
-3.52201
11
6.41056
21
-3.52109
0
LINE
8
BLACK
6
CONTINUOUS
10
6.41056
20
-3.52109
11
6.41056
21
-3.51547
0
LINE
8
BLACK
6
CONTINUOUS
10
6.41056
20
-3.51547
11
6.41081
21
-3.51455
0
LINE
8
BLACK
6
CONTINUOUS
10
6.41081
20
-3.51455
11
6.41087
21
-3.5136
0
LINE
8
BLACK
6
CONTINUOUS
10
6.41087
20
-3.5136
11
6.41368
21
-3.50516
0
LINE
8
BLACK
6
CONTINUOUS
10
6.41368
20
-3.50516
11
6.41443
21
-3.50403
0
LINE
8
BLACK
6
CONTINUOUS
10
6.41443
20
-3.50403
11
6.41511
21
-3.50285
0
LINE
8
BLACK
6
CONTINUOUS
10
6.41511
20
-3.50285
11
6.41792
21
-3.50004
0
LINE
8
BLACK
6
CONTINUOUS
10
6.41792
20
-3.50004
11
6.42057
21
-3.49851
0
LINE
8
BLACK
6
CONTINUOUS
10
6.42057
20
-3.49851
11
6.42362
21
-3.49851
0
LINE
8
BLACK
6
CONTINUOUS
10
6.42362
20
-3.49851
11
6.42627
21
-3.50004
0
LINE
8
BLACK
6
CONTINUOUS
10
6.47848
20
-3.44567
11
6.48064
21
-3.44783
0
LINE
8
BLACK
6
CONTINUOUS
10
6.48064
20
-3.44783
11
6.48143
21
-3.45079
0
LINE
8
BLACK
6
CONTINUOUS
10
6.48143
20
-3.45079
11
6.48143
21
-3.47891
0
LINE
8
BLACK
6
CONTINUOUS
10
6.48143
20
-3.47891
11
6.48064
21
-3.48186
0
LINE
8
BLACK
6
CONTINUOUS
10
6.48064
20
-3.48186
11
6.47848
21
-3.48402
0
LINE
8
BLACK
6
CONTINUOUS
10
6.47848
20
-3.48402
11
6.47552
21
-3.48481
0
LINE
8
BLACK
6
CONTINUOUS
10
6.47552
20
-3.48481
11
6.44459
21
-3.48481
0
LINE
8
BLACK
6
CONTINUOUS
10
6.44459
20
-3.48481
11
6.41647
21
-3.48481
0
LINE
8
BLACK
6
CONTINUOUS
10
6.41647
20
-3.48481
11
6.41352
21
-3.48402
0
LINE
8
BLACK
6
CONTINUOUS
10
6.41352
20
-3.48402
11
6.41136
21
-3.48186
0
LINE
8
BLACK
6
CONTINUOUS
10
6.41136
20
-3.48186
11
6.41056
21
-3.47891
0
LINE
8
BLACK
6
CONTINUOUS
10
6.41056
20
-3.47891
11
6.41056
21
-3.45079
0
LINE
8
BLACK
6
CONTINUOUS
10
6.41056
20
-3.45079
11
6.41136
21
-3.44783
0
LINE
8
BLACK
6
CONTINUOUS
10
6.41136
20
-3.44783
11
6.41352
21
-3.44567
0
LINE
8
BLACK
6
CONTINUOUS
10
6.41352
20
-3.44567
11
6.41647
21
-3.44488
0
LINE
8
BLACK
6
CONTINUOUS
10
6.41647
20
-3.44488
11
6.41942
21
-3.44567
0
LINE
8
BLACK
6
CONTINUOUS
10
6.41942
20
-3.44567
11
6.42158
21
-3.44783
0
LINE
8
BLACK
6
CONTINUOUS
10
6.42158
20
-3.44783
11
6.42238
21
-3.45079
0
LINE
8
BLACK
6
CONTINUOUS
10
6.42238
20
-3.45079
11
6.42238
21
-3.473
0
LINE
8
BLACK
6
CONTINUOUS
10
6.42238
20
-3.473
11
6.43869
21
-3.473
0
LINE
8
BLACK
6
CONTINUOUS
10
6.43869
20
-3.473
11
6.43869
21
-3.45922
0
LINE
8
BLACK
6
CONTINUOUS
10
6.43869
20
-3.45922
11
6.43948
21
-3.45627
0
LINE
8
BLACK
6
CONTINUOUS
10
6.43948
20
-3.45627
11
6.44164
21
-3.45411
0
LINE
8
BLACK
6
CONTINUOUS
10
6.44164
20
-3.45411
11
6.44459
21
-3.45332
0
LINE
8
BLACK
6
CONTINUOUS
10
6.44459
20
-3.45332
11
6.44754
21
-3.45411
0
LINE
8
BLACK
6
CONTINUOUS
10
6.44754
20
-3.45411
11
6.44971
21
-3.45627
0
LINE
8
BLACK
6
CONTINUOUS
10
6.44971
20
-3.45627
11
6.4505
21
-3.45922
0
LINE
8
BLACK
6
CONTINUOUS
10
6.4505
20
-3.45922
11
6.4505
21
-3.473
0
LINE
8
BLACK
6
CONTINUOUS
10
6.4505
20
-3.473
11
6.46962
21
-3.473
0
LINE
8
BLACK
6
CONTINUOUS
10
6.46962
20
-3.473
11
6.46962
21
-3.45079
0
LINE
8
BLACK
6
CONTINUOUS
10
6.46962
20
-3.45079
11
6.47041
21
-3.44783
0
LINE
8
BLACK
6
CONTINUOUS
10
6.47041
20
-3.44783
11
6.47257
21
-3.44567
0
LINE
8
BLACK
6
CONTINUOUS
10
6.47257
20
-3.44567
11
6.47552
21
-3.44488
0
LINE
8
BLACK
6
CONTINUOUS
10
6.47552
20
-3.44488
11
6.47848
21
-3.44567
0
CIRCLE
8
BLACK
10
5.83047
20
-3.35894
40
0.00688976
0
CIRCLE
8
BLACK
10
6.22417
20
-4.54004
40
0.00688976
0
CIRCLE
8
BLACK
10
5.43677
20
-4.54004
40
0.00688976
0
CIRCLE
8
BLACK
10
6.22417
20
-3.35894
40
0.00688976
0
CIRCLE
8
BLACK
10
5.83047
20
-4.54004
40
0.00688976
0
CIRCLE
8
BLACK
10
5.43677
20
-3.35894
40
0.00688976
0
CIRCLE
8
BLACK
10
5.60123
20
-4.06327
40
0.00688976
0
CIRCLE
8
BLACK
10
5.60123
20
-3.83571
40
0.00688976
0
LINE
8
BLACK
6
CONTINUOUS
10
5.47426
20
-4.10796
11
5.47831
21
-4.10952
0
LINE
8
BLACK
6
CONTINUOUS
10
5.47831
20
-4.10952
11
5.48152
21
-4.11245
0
LINE
8
BLACK
6
CONTINUOUS
10
5.48152
20
-4.11245
11
5.48345
21
-4.11633
0
LINE
8
BLACK
6
CONTINUOUS
10
5.48345
20
-4.11633
11
5.48386
21
-4.12066
0
LINE
8
BLACK
6
CONTINUOUS
10
5.48386
20
-4.12066
11
5.48267
21
-4.12483
0
LINE
8
BLACK
6
CONTINUOUS
10
5.48267
20
-4.12483
11
5.48005
21
-4.1283
0
LINE
8
BLACK
6
CONTINUOUS
10
5.48005
20
-4.1283
11
5.47636
21
-4.13058
0
LINE
8
BLACK
6
CONTINUOUS
10
5.47636
20
-4.13058
11
5.47209
21
-4.13138
0
LINE
8
BLACK
6
CONTINUOUS
10
5.47209
20
-4.13138
11
5.4406
21
-4.13138
0
LINE
8
BLACK
6
CONTINUOUS
10
5.4406
20
-4.13138
11
5.43843
21
-4.13118
0
LINE
8
BLACK
6
CONTINUOUS
10
5.43843
20
-4.13118
11
5.43438
21
-4.12961
0
LINE
8
BLACK
6
CONTINUOUS
10
5.43438
20
-4.12961
11
5.43117
21
-4.12668
0
LINE
8
BLACK
6
CONTINUOUS
10
5.43117
20
-4.12668
11
5.42924
21
-4.1228
0
LINE
8
BLACK
6
CONTINUOUS
10
5.42924
20
-4.1228
11
5.42884
21
-4.11848
0
LINE
8
BLACK
6
CONTINUOUS
10
5.42884
20
-4.11848
11
5.43003
21
-4.1143
0
LINE
8
BLACK
6
CONTINUOUS
10
5.43003
20
-4.1143
11
5.43264
21
-4.11084
0
LINE
8
BLACK
6
CONTINUOUS
10
5.43264
20
-4.11084
11
5.43633
21
-4.10855
0
LINE
8
BLACK
6
CONTINUOUS
10
5.43633
20
-4.10855
11
5.4406
21
-4.10776
0
LINE
8
BLACK
6
CONTINUOUS
10
5.4406
20
-4.10776
11
5.47209
21
-4.10776
0
LINE
8
BLACK
6
CONTINUOUS
10
5.47209
20
-4.10776
11
5.47426
21
-4.10796
0
LINE
8
BLACK
6
CONTINUOUS
10
5.47426
20
-3.7678
11
5.47831
21
-3.76937
0
LINE
8
BLACK
6
CONTINUOUS
10
5.47831
20
-3.76937
11
5.48152
21
-3.77229
0
LINE
8
BLACK
6
CONTINUOUS
10
5.48152
20
-3.77229
11
5.48345
21
-3.77618
0
LINE
8
BLACK
6
CONTINUOUS
10
5.48345
20
-3.77618
11
5.48386
21
-3.7805
0
LINE
8
BLACK
6
CONTINUOUS
10
5.48386
20
-3.7805
11
5.48267
21
-3.78467
0
LINE
8
BLACK
6
CONTINUOUS
10
5.48267
20
-3.78467
11
5.48005
21
-3.78814
0
LINE
8
BLACK
6
CONTINUOUS
10
5.48005
20
-3.78814
11
5.47636
21
-3.79042
0
LINE
8
BLACK
6
CONTINUOUS
10
5.47636
20
-3.79042
11
5.47209
21
-3.79122
0
LINE
8
BLACK
6
CONTINUOUS
10
5.47209
20
-3.79122
11
5.4406
21
-3.79122
0
LINE
8
BLACK
6
CONTINUOUS
10
5.4406
20
-3.79122
11
5.43843
21
-3.79102
0
LINE
8
BLACK
6
CONTINUOUS
10
5.43843
20
-3.79102
11
5.43438
21
-3.78945
0
LINE
8
BLACK
6
CONTINUOUS
10
5.43438
20
-3.78945
11
5.43117
21
-3.78653
0
LINE
8
BLACK
6
CONTINUOUS
10
5.43117
20
-3.78653
11
5.42924
21
-3.78264
0
LINE
8
BLACK
6
CONTINUOUS
10
5.42924
20
-3.78264
11
5.42884
21
-3.77832
0
LINE
8
BLACK
6
CONTINUOUS
10
5.42884
20
-3.77832
11
5.43003
21
-3.77414
0
LINE
8
BLACK
6
CONTINUOUS
10
5.43003
20
-3.77414
11
5.43264
21
-3.77068
0
LINE
8
BLACK
6
CONTINUOUS
10
5.43264
20
-3.77068
11
5.43633
21
-3.7684
0
LINE
8
BLACK
6
CONTINUOUS
10
5.43633
20
-3.7684
11
5.4406
21
-3.7676
0
LINE
8
BLACK
6
CONTINUOUS
10
5.4406
20
-3.7676
11
5.47209
21
-3.7676
0
LINE
8
BLACK
6
CONTINUOUS
10
5.47209
20
-3.7676
11
5.47426
21
-3.7678
0
LINE
8
BLACK
6
CONTINUOUS
10
5.64474
20
-4.10796
11
5.64878
21
-4.10952
0
LINE
8
BLACK
6
CONTINUOUS
10
5.64878
20
-4.10952
11
5.65199
21
-4.11245
0
LINE
8
BLACK
6
CONTINUOUS
10
5.65199
20
-4.11245
11
5.65393
21
-4.11633
0
LINE
8
BLACK
6
CONTINUOUS
10
5.65393
20
-4.11633
11
5.65433
21
-4.12066
0
LINE
8
BLACK
6
CONTINUOUS
10
5.65433
20
-4.12066
11
5.65314
21
-4.12483
0
LINE
8
BLACK
6
CONTINUOUS
10
5.65314
20
-4.12483
11
5.65052
21
-4.1283
0
LINE
8
BLACK
6
CONTINUOUS
10
5.65052
20
-4.1283
11
5.64683
21
-4.13058
0
LINE
8
BLACK
6
CONTINUOUS
10
5.64683
20
-4.13058
11
5.64257
21
-4.13138
0
LINE
8
BLACK
6
CONTINUOUS
10
5.64257
20
-4.13138
11
5.59926
21
-4.13138
0
LINE
8
BLACK
6
CONTINUOUS
10
5.59926
20
-4.13138
11
5.59709
21
-4.13118
0
LINE
8
BLACK
6
CONTINUOUS
10
5.59709
20
-4.13118
11
5.59304
21
-4.12961
0
LINE
8
BLACK
6
CONTINUOUS
10
5.59304
20
-4.12961
11
5.58983
21
-4.12668
0
LINE
8
BLACK
6
CONTINUOUS
10
5.58983
20
-4.12668
11
5.5879
21
-4.1228
0
LINE
8
BLACK
6
CONTINUOUS
10
5.5879
20
-4.1228
11
5.5875
21
-4.11848
0
LINE
8
BLACK
6
CONTINUOUS
10
5.5875
20
-4.11848
11
5.58869
21
-4.1143
0
LINE
8
BLACK
6
CONTINUOUS
10
5.58869
20
-4.1143
11
5.5913
21
-4.11084
0
LINE
8
BLACK
6
CONTINUOUS
10
5.5913
20
-4.11084
11
5.59499
21
-4.10855
0
LINE
8
BLACK
6
CONTINUOUS
10
5.59499
20
-4.10855
11
5.59926
21
-4.10776
0
LINE
8
BLACK
6
CONTINUOUS
10
5.59926
20
-4.10776
11
5.64257
21
-4.10776
0
LINE
8
BLACK
6
CONTINUOUS
10
5.64257
20
-4.10776
11
5.64474
21
-4.10796
0
LINE
8
BLACK
6
CONTINUOUS
10
5.64474
20
-3.7678
11
5.64878
21
-3.76937
0
LINE
8
BLACK
6
CONTINUOUS
10
5.64878
20
-3.76937
11
5.65199
21
-3.77229
0
LINE
8
BLACK
6
CONTINUOUS
10
5.65199
20
-3.77229
11
5.65393
21
-3.77618
0
LINE
8
BLACK
6
CONTINUOUS
10
5.65393
20
-3.77618
11
5.65433
21
-3.7805
0
LINE
8
BLACK
6
CONTINUOUS
10
5.65433
20
-3.7805
11
5.65314
21
-3.78467
0
LINE
8
BLACK
6
CONTINUOUS
10
5.65314
20
-3.78467
11
5.65052
21
-3.78814
0
LINE
8
BLACK
6
CONTINUOUS
10
5.65052
20
-3.78814
11
5.64683
21
-3.79042
0
LINE
8
BLACK
6
CONTINUOUS
10
5.64683
20
-3.79042
11
5.64257
21
-3.79122
0
LINE
8
BLACK
6
CONTINUOUS
10
5.64257
20
-3.79122
11
5.59926
21
-3.79122
0
LINE
8
BLACK
6
CONTINUOUS
10
5.59926
20
-3.79122
11
5.59709
21
-3.79102
0
LINE
8
BLACK
6
CONTINUOUS
10
5.59709
20
-3.79102
11
5.59304
21
-3.78945
0
LINE
8
BLACK
6
CONTINUOUS
10
5.59304
20
-3.78945
11
5.58983
21
-3.78653
0
LINE
8
BLACK
6
CONTINUOUS
10
5.58983
20
-3.78653
11
5.5879
21
-3.78264
0
LINE
8
BLACK
6
CONTINUOUS
10
5.5879
20
-3.78264
11
5.5875
21
-3.77832
0
LINE
8
BLACK
6
CONTINUOUS
10
5.5875
20
-3.77832
11
5.58869
21
-3.77414
0
LINE
8
BLACK
6
CONTINUOUS
10
5.58869
20
-3.77414
11
5.5913
21
-3.77068
0
LINE
8
BLACK
6
CONTINUOUS
10
5.5913
20
-3.77068
11
5.59499
21
-3.7684
0
LINE
8
BLACK
6
CONTINUOUS
10
5.59499
20
-3.7684
11
5.59926
21
-3.7676
0
LINE
8
BLACK
6
CONTINUOUS
10
5.59926
20
-3.7676
11
5.64257
21
-3.7676
0
LINE
8
BLACK
6
CONTINUOUS
10
5.64257
20
-3.7676
11
5.64474
21
-3.7678
  0
ENDSEC
  0
EOF
