  0
SECTION
  2
HEADER
  9
$ANGBASE
  50
0.0
  9
$ANGDIR
  70
1
  9
$MEASUREMENT
  70
0
  0
ENDSEC
  0
SECTION
  2
TABLES
  0
TABLE
  2
LTYPE
  70
4
  0
LTYPE
  5
40F
  2
CONTINUOUS
  70
0
  3
Solid line
  72
65
  73
0
  40
0.0
  0
LTYPE
  5
410
  2
DASHDOT
 70
0
  3
Dash Dot ____ _ ____ _
 72
65
 73
4
 40
2.0
 49
1.25
 49
-0.25
 49
0.25
 49
-0.25
  0
LTYPE
  5
411
  2
DASHED
 70
0
  3
Dashed __ __ __ __ __
 72
65
 73
2
 40
0.75
 49
0.5
 49
-0.25
  0
LTYPE
  5
43B
  2
DOTTED
 70
0
  3
Dotted .  .  .  .
 72
65
 73
2
 40
0.2
 49
0.0
 49
-0.2
  0
ENDTAB
  0
TABLE
  2
STYLE
  70
4
  0
STYLE
  2
KICAD
  70
0
  40
0
  41
1
  42
1
  50
0
  71
0
  3
isocp.shx
  0
STYLE
  2
KICADB
  70
0
  40
0
  41
1
  42
1
  50
0
  71
0
  3
isocp.shx
  0
STYLE
  2
KICADI
  70
0
  40
0
  41
1
  42
1
  50
15
  71
0
  3
isocp.shx
  0
STYLE
  2
KICADBI
  70
0
  40
0
  41
1
  42
1
  50
15
  71
0
  3
isocp.shx
  0
ENDTAB
  0
TABLE
  2
LAYER
  70
1
  0
LAYER
  2
BLACK
  70
0
  62
7
  6
CONTINUOUS
  0
ENDTAB
  0
ENDSEC
  0
SECTION
  2
ENTITIES
0
LINE
8
BLACK
6
CONTINUOUS
10
5.50093
20
-3.43778
11
5.50532
21
-3.44002
0
LINE
8
BLACK
6
CONTINUOUS
10
5.50532
20
-3.44002
11
5.5088
21
-3.4435
0
LINE
8
BLACK
6
CONTINUOUS
10
5.5088
20
-3.4435
11
5.51104
21
-3.44789
0
LINE
8
BLACK
6
CONTINUOUS
10
5.51104
20
-3.44789
11
5.51181
21
-3.45276
0
LINE
8
BLACK
6
CONTINUOUS
10
5.51181
20
-3.45276
11
5.51118
21
-3.45674
0
LINE
8
BLACK
6
CONTINUOUS
10
5.51118
20
-3.45674
11
5.52919
21
-3.47475
0
LINE
8
BLACK
6
CONTINUOUS
10
5.52919
20
-3.47475
11
5.52989
21
-3.47587
0
LINE
8
BLACK
6
CONTINUOUS
10
5.52989
20
-3.47587
11
5.53072
21
-3.4769
0
LINE
8
BLACK
6
CONTINUOUS
10
5.53072
20
-3.4769
11
5.53082
21
-3.47734
0
LINE
8
BLACK
6
CONTINUOUS
10
5.53082
20
-3.47734
11
5.53105
21
-3.47771
0
LINE
8
BLACK
6
CONTINUOUS
10
5.53105
20
-3.47771
11
5.5312
21
-3.47903
0
LINE
8
BLACK
6
CONTINUOUS
10
5.5312
20
-3.47903
11
5.5315
21
-3.48031
0
LINE
8
BLACK
6
CONTINUOUS
10
5.5315
20
-3.48031
11
5.5315
21
-4.15585
0
LINE
8
BLACK
6
CONTINUOUS
10
5.5315
20
-4.15585
11
5.53288
21
-4.15655
0
LINE
8
BLACK
6
CONTINUOUS
10
5.53288
20
-4.15655
11
5.53636
21
-4.16003
0
LINE
8
BLACK
6
CONTINUOUS
10
5.53636
20
-4.16003
11
5.5386
21
-4.16442
0
LINE
8
BLACK
6
CONTINUOUS
10
5.5386
20
-4.16442
11
5.53937
21
-4.16929
0
LINE
8
BLACK
6
CONTINUOUS
10
5.53937
20
-4.16929
11
5.5386
21
-4.17416
0
LINE
8
BLACK
6
CONTINUOUS
10
5.5386
20
-4.17416
11
5.53636
21
-4.17855
0
LINE
8
BLACK
6
CONTINUOUS
10
5.53636
20
-4.17855
11
5.53288
21
-4.18203
0
LINE
8
BLACK
6
CONTINUOUS
10
5.53288
20
-4.18203
11
5.52849
21
-4.18427
0
LINE
8
BLACK
6
CONTINUOUS
10
5.52849
20
-4.18427
11
5.52362
21
-4.18504
0
LINE
8
BLACK
6
CONTINUOUS
10
5.52362
20
-4.18504
11
5.51876
21
-4.18427
0
LINE
8
BLACK
6
CONTINUOUS
10
5.51876
20
-4.18427
11
5.51437
21
-4.18203
0
LINE
8
BLACK
6
CONTINUOUS
10
5.51437
20
-4.18203
11
5.51088
21
-4.17855
0
LINE
8
BLACK
6
CONTINUOUS
10
5.51088
20
-4.17855
11
5.50864
21
-4.17416
0
LINE
8
BLACK
6
CONTINUOUS
10
5.50864
20
-4.17416
11
5.50787
21
-4.16929
0
LINE
8
BLACK
6
CONTINUOUS
10
5.50787
20
-4.16929
11
5.50864
21
-4.16442
0
LINE
8
BLACK
6
CONTINUOUS
10
5.50864
20
-4.16442
11
5.51088
21
-4.16003
0
LINE
8
BLACK
6
CONTINUOUS
10
5.51088
20
-4.16003
11
5.51437
21
-4.15655
0
LINE
8
BLACK
6
CONTINUOUS
10
5.51437
20
-4.15655
11
5.51575
21
-4.15585
0
LINE
8
BLACK
6
CONTINUOUS
10
5.51575
20
-4.15585
11
5.51575
21
-3.48358
0
LINE
8
BLACK
6
CONTINUOUS
10
5.51575
20
-3.48358
11
5.50004
21
-3.46787
0
LINE
8
BLACK
6
CONTINUOUS
10
5.50004
20
-3.46787
11
5.49606
21
-3.4685
0
LINE
8
BLACK
6
CONTINUOUS
10
5.49606
20
-3.4685
11
5.4912
21
-3.46773
0
LINE
8
BLACK
6
CONTINUOUS
10
5.4912
20
-3.46773
11
5.48681
21
-3.4655
0
LINE
8
BLACK
6
CONTINUOUS
10
5.48681
20
-3.4655
11
5.48332
21
-3.46201
0
LINE
8
BLACK
6
CONTINUOUS
10
5.48332
20
-3.46201
11
5.48109
21
-3.45762
0
LINE
8
BLACK
6
CONTINUOUS
10
5.48109
20
-3.45762
11
5.48031
21
-3.45276
0
LINE
8
BLACK
6
CONTINUOUS
10
5.48031
20
-3.45276
11
5.48109
21
-3.44789
0
LINE
8
BLACK
6
CONTINUOUS
10
5.48109
20
-3.44789
11
5.48332
21
-3.4435
0
LINE
8
BLACK
6
CONTINUOUS
10
5.48332
20
-3.4435
11
5.48681
21
-3.44002
0
LINE
8
BLACK
6
CONTINUOUS
10
5.48681
20
-3.44002
11
5.4912
21
-3.43778
0
LINE
8
BLACK
6
CONTINUOUS
10
5.4912
20
-3.43778
11
5.49606
21
-3.43701
0
LINE
8
BLACK
6
CONTINUOUS
10
5.49606
20
-3.43701
11
5.50093
21
-3.43778
0
LINE
8
BLACK
6
CONTINUOUS
10
6.38676
20
-3.64644
11
6.39115
21
-3.64868
0
LINE
8
BLACK
6
CONTINUOUS
10
6.39115
20
-3.64868
11
6.39463
21
-3.65216
0
LINE
8
BLACK
6
CONTINUOUS
10
6.39463
20
-3.65216
11
6.39687
21
-3.65655
0
LINE
8
BLACK
6
CONTINUOUS
10
6.39687
20
-3.65655
11
6.39764
21
-3.66142
0
LINE
8
BLACK
6
CONTINUOUS
10
6.39764
20
-3.66142
11
6.39687
21
-3.66628
0
LINE
8
BLACK
6
CONTINUOUS
10
6.39687
20
-3.66628
11
6.39463
21
-3.67067
0
LINE
8
BLACK
6
CONTINUOUS
10
6.39463
20
-3.67067
11
6.39115
21
-3.67416
0
LINE
8
BLACK
6
CONTINUOUS
10
6.39115
20
-3.67416
11
6.3878
21
-3.67587
0
LINE
8
BLACK
6
CONTINUOUS
10
6.3878
20
-3.67587
11
6.3878
21
-4.31645
0
LINE
8
BLACK
6
CONTINUOUS
10
6.3878
20
-4.31645
11
6.39161
21
-4.32026
0
LINE
8
BLACK
6
CONTINUOUS
10
6.39161
20
-4.32026
11
6.39277
21
-4.31967
0
LINE
8
BLACK
6
CONTINUOUS
10
6.39277
20
-4.31967
11
6.39764
21
-4.3189
0
LINE
8
BLACK
6
CONTINUOUS
10
6.39764
20
-4.3189
11
6.4025
21
-4.31967
0
LINE
8
BLACK
6
CONTINUOUS
10
6.4025
20
-4.31967
11
6.40689
21
-4.32191
0
LINE
8
BLACK
6
CONTINUOUS
10
6.40689
20
-4.32191
11
6.41038
21
-4.32539
0
LINE
8
BLACK
6
CONTINUOUS
10
6.41038
20
-4.32539
11
6.41262
21
-4.32978
0
LINE
8
BLACK
6
CONTINUOUS
10
6.41262
20
-4.32978
11
6.41339
21
-4.33465
0
LINE
8
BLACK
6
CONTINUOUS
10
6.41339
20
-4.33465
11
6.41262
21
-4.33951
0
LINE
8
BLACK
6
CONTINUOUS
10
6.41262
20
-4.33951
11
6.41038
21
-4.3439
0
LINE
8
BLACK
6
CONTINUOUS
10
6.41038
20
-4.3439
11
6.40689
21
-4.34739
0
LINE
8
BLACK
6
CONTINUOUS
10
6.40689
20
-4.34739
11
6.4025
21
-4.34962
0
LINE
8
BLACK
6
CONTINUOUS
10
6.4025
20
-4.34962
11
6.39764
21
-4.35039
0
LINE
8
BLACK
6
CONTINUOUS
10
6.39764
20
-4.35039
11
6.39277
21
-4.34962
0
LINE
8
BLACK
6
CONTINUOUS
10
6.39277
20
-4.34962
11
6.38838
21
-4.34739
0
LINE
8
BLACK
6
CONTINUOUS
10
6.38838
20
-4.34739
11
6.3849
21
-4.3439
0
LINE
8
BLACK
6
CONTINUOUS
10
6.3849
20
-4.3439
11
6.38266
21
-4.33951
0
LINE
8
BLACK
6
CONTINUOUS
10
6.38266
20
-4.33951
11
6.38189
21
-4.33465
0
LINE
8
BLACK
6
CONTINUOUS
10
6.38189
20
-4.33465
11
6.38266
21
-4.32978
0
LINE
8
BLACK
6
CONTINUOUS
10
6.38266
20
-4.32978
11
6.38325
21
-4.32861
0
LINE
8
BLACK
6
CONTINUOUS
10
6.38325
20
-4.32861
11
6.37771
21
-4.32307
0
LINE
8
BLACK
6
CONTINUOUS
10
6.37771
20
-4.32307
11
6.37733
21
-4.3224
0
LINE
8
BLACK
6
CONTINUOUS
10
6.37733
20
-4.3224
11
6.37678
21
-4.32185
0
LINE
8
BLACK
6
CONTINUOUS
10
6.37678
20
-4.32185
11
6.37657
21
-4.3211
0
LINE
8
BLACK
6
CONTINUOUS
10
6.37657
20
-4.3211
11
6.37619
21
-4.32043
0
LINE
8
BLACK
6
CONTINUOUS
10
6.37619
20
-4.32043
11
6.37619
21
-4.31965
0
LINE
8
BLACK
6
CONTINUOUS
10
6.37619
20
-4.31965
11
6.37598
21
-4.3189
0
LINE
8
BLACK
6
CONTINUOUS
10
6.37598
20
-4.3189
11
6.37598
21
-3.67587
0
LINE
8
BLACK
6
CONTINUOUS
10
6.37598
20
-3.67587
11
6.37263
21
-3.67416
0
LINE
8
BLACK
6
CONTINUOUS
10
6.37263
20
-3.67416
11
6.36915
21
-3.67067
0
LINE
8
BLACK
6
CONTINUOUS
10
6.36915
20
-3.67067
11
6.36691
21
-3.66628
0
LINE
8
BLACK
6
CONTINUOUS
10
6.36691
20
-3.66628
11
6.36614
21
-3.66142
0
LINE
8
BLACK
6
CONTINUOUS
10
6.36614
20
-3.66142
11
6.36691
21
-3.65655
0
LINE
8
BLACK
6
CONTINUOUS
10
6.36691
20
-3.65655
11
6.36915
21
-3.65216
0
LINE
8
BLACK
6
CONTINUOUS
10
6.36915
20
-3.65216
11
6.37263
21
-3.64868
0
LINE
8
BLACK
6
CONTINUOUS
10
6.37263
20
-3.64868
11
6.37702
21
-3.64644
0
LINE
8
BLACK
6
CONTINUOUS
10
6.37702
20
-3.64644
11
6.38189
21
-3.64567
0
LINE
8
BLACK
6
CONTINUOUS
10
6.38189
20
-3.64567
11
6.38676
21
-3.64644
0
LINE
8
BLACK
6
CONTINUOUS
10
6.2214
20
-3.8551
11
6.22579
21
-3.85734
0
LINE
8
BLACK
6
CONTINUOUS
10
6.22579
20
-3.85734
11
6.22928
21
-3.86082
0
LINE
8
BLACK
6
CONTINUOUS
10
6.22928
20
-3.86082
11
6.23151
21
-3.86521
0
LINE
8
BLACK
6
CONTINUOUS
10
6.23151
20
-3.86521
11
6.23228
21
-3.87008
0
LINE
8
BLACK
6
CONTINUOUS
10
6.23228
20
-3.87008
11
6.23151
21
-3.87495
0
LINE
8
BLACK
6
CONTINUOUS
10
6.23151
20
-3.87495
11
6.22928
21
-3.87934
0
LINE
8
BLACK
6
CONTINUOUS
10
6.22928
20
-3.87934
11
6.22579
21
-3.88282
0
LINE
8
BLACK
6
CONTINUOUS
10
6.22579
20
-3.88282
11
6.22244
21
-3.88453
0
LINE
8
BLACK
6
CONTINUOUS
10
6.22244
20
-3.88453
11
6.22244
21
-4.13141
0
LINE
8
BLACK
6
CONTINUOUS
10
6.22244
20
-4.13141
11
6.26956
21
-4.17853
0
LINE
8
BLACK
6
CONTINUOUS
10
6.26956
20
-4.17853
11
6.27072
21
-4.17794
0
LINE
8
BLACK
6
CONTINUOUS
10
6.27072
20
-4.17794
11
6.27559
21
-4.17717
0
LINE
8
BLACK
6
CONTINUOUS
10
6.27559
20
-4.17717
11
6.28046
21
-4.17794
0
LINE
8
BLACK
6
CONTINUOUS
10
6.28046
20
-4.17794
11
6.28485
21
-4.18017
0
LINE
8
BLACK
6
CONTINUOUS
10
6.28485
20
-4.18017
11
6.28833
21
-4.18366
0
LINE
8
BLACK
6
CONTINUOUS
10
6.28833
20
-4.18366
11
6.29057
21
-4.18805
0
LINE
8
BLACK
6
CONTINUOUS
10
6.29057
20
-4.18805
11
6.29134
21
-4.19291
0
LINE
8
BLACK
6
CONTINUOUS
10
6.29134
20
-4.19291
11
6.29057
21
-4.19778
0
LINE
8
BLACK
6
CONTINUOUS
10
6.29057
20
-4.19778
11
6.28833
21
-4.20217
0
LINE
8
BLACK
6
CONTINUOUS
10
6.28833
20
-4.20217
11
6.28485
21
-4.20565
0
LINE
8
BLACK
6
CONTINUOUS
10
6.28485
20
-4.20565
11
6.28046
21
-4.20789
0
LINE
8
BLACK
6
CONTINUOUS
10
6.28046
20
-4.20789
11
6.27559
21
-4.20866
0
LINE
8
BLACK
6
CONTINUOUS
10
6.27559
20
-4.20866
11
6.27072
21
-4.20789
0
LINE
8
BLACK
6
CONTINUOUS
10
6.27072
20
-4.20789
11
6.26633
21
-4.20565
0
LINE
8
BLACK
6
CONTINUOUS
10
6.26633
20
-4.20565
11
6.26285
21
-4.20217
0
LINE
8
BLACK
6
CONTINUOUS
10
6.26285
20
-4.20217
11
6.26061
21
-4.19778
0
LINE
8
BLACK
6
CONTINUOUS
10
6.26061
20
-4.19778
11
6.25984
21
-4.19291
0
LINE
8
BLACK
6
CONTINUOUS
10
6.25984
20
-4.19291
11
6.26061
21
-4.18805
0
LINE
8
BLACK
6
CONTINUOUS
10
6.26061
20
-4.18805
11
6.26121
21
-4.18688
0
LINE
8
BLACK
6
CONTINUOUS
10
6.26121
20
-4.18688
11
6.22835
21
-4.15402
0
LINE
8
BLACK
6
CONTINUOUS
10
6.22835
20
-4.15402
11
6.16166
21
-4.22071
0
LINE
8
BLACK
6
CONTINUOUS
10
6.16166
20
-4.22071
11
6.16098
21
-4.2211
0
LINE
8
BLACK
6
CONTINUOUS
10
6.16098
20
-4.2211
11
6.16043
21
-4.22165
0
LINE
8
BLACK
6
CONTINUOUS
10
6.16043
20
-4.22165
11
6.15968
21
-4.22185
0
LINE
8
BLACK
6
CONTINUOUS
10
6.15968
20
-4.22185
11
6.15901
21
-4.22224
0
LINE
8
BLACK
6
CONTINUOUS
10
6.15901
20
-4.22224
11
6.15823
21
-4.22224
0
LINE
8
BLACK
6
CONTINUOUS
10
6.15823
20
-4.22224
11
6.15748
21
-4.22244
0
LINE
8
BLACK
6
CONTINUOUS
10
6.15748
20
-4.22244
11
6.12468
21
-4.22244
0
LINE
8
BLACK
6
CONTINUOUS
10
6.12468
20
-4.22244
11
6.12298
21
-4.22579
0
LINE
8
BLACK
6
CONTINUOUS
10
6.12298
20
-4.22579
11
6.11949
21
-4.22928
0
LINE
8
BLACK
6
CONTINUOUS
10
6.11949
20
-4.22928
11
6.1151
21
-4.23151
0
LINE
8
BLACK
6
CONTINUOUS
10
6.1151
20
-4.23151
11
6.11024
21
-4.23228
0
LINE
8
BLACK
6
CONTINUOUS
10
6.11024
20
-4.23228
11
6.10537
21
-4.23151
0
LINE
8
BLACK
6
CONTINUOUS
10
6.10537
20
-4.23151
11
6.10098
21
-4.22928
0
LINE
8
BLACK
6
CONTINUOUS
10
6.10098
20
-4.22928
11
6.0975
21
-4.22579
0
LINE
8
BLACK
6
CONTINUOUS
10
6.0975
20
-4.22579
11
6.09526
21
-4.2214
0
LINE
8
BLACK
6
CONTINUOUS
10
6.09526
20
-4.2214
11
6.09449
21
-4.21654
0
LINE
8
BLACK
6
CONTINUOUS
10
6.09449
20
-4.21654
11
6.09526
21
-4.21167
0
LINE
8
BLACK
6
CONTINUOUS
10
6.09526
20
-4.21167
11
6.0975
21
-4.20728
0
LINE
8
BLACK
6
CONTINUOUS
10
6.0975
20
-4.20728
11
6.10098
21
-4.20379
0
LINE
8
BLACK
6
CONTINUOUS
10
6.10098
20
-4.20379
11
6.10537
21
-4.20156
0
LINE
8
BLACK
6
CONTINUOUS
10
6.10537
20
-4.20156
11
6.11024
21
-4.20079
0
LINE
8
BLACK
6
CONTINUOUS
10
6.11024
20
-4.20079
11
6.1151
21
-4.20156
0
LINE
8
BLACK
6
CONTINUOUS
10
6.1151
20
-4.20156
11
6.11949
21
-4.20379
0
LINE
8
BLACK
6
CONTINUOUS
10
6.11949
20
-4.20379
11
6.12298
21
-4.20728
0
LINE
8
BLACK
6
CONTINUOUS
10
6.12298
20
-4.20728
11
6.12468
21
-4.21063
0
LINE
8
BLACK
6
CONTINUOUS
10
6.12468
20
-4.21063
11
6.15503
21
-4.21063
0
LINE
8
BLACK
6
CONTINUOUS
10
6.15503
20
-4.21063
11
6.21999
21
-4.14567
0
LINE
8
BLACK
6
CONTINUOUS
10
6.21999
20
-4.14567
11
6.21236
21
-4.13803
0
LINE
8
BLACK
6
CONTINUOUS
10
6.21236
20
-4.13803
11
6.21197
21
-4.13736
0
LINE
8
BLACK
6
CONTINUOUS
10
6.21197
20
-4.13736
11
6.21142
21
-4.13681
0
LINE
8
BLACK
6
CONTINUOUS
10
6.21142
20
-4.13681
11
6.21122
21
-4.13606
0
LINE
8
BLACK
6
CONTINUOUS
10
6.21122
20
-4.13606
11
6.21083
21
-4.13539
0
LINE
8
BLACK
6
CONTINUOUS
10
6.21083
20
-4.13539
11
6.21083
21
-4.13461
0
LINE
8
BLACK
6
CONTINUOUS
10
6.21083
20
-4.13461
11
6.21063
21
-4.13386
0
LINE
8
BLACK
6
CONTINUOUS
10
6.21063
20
-4.13386
11
6.21063
21
-3.88453
0
LINE
8
BLACK
6
CONTINUOUS
10
6.21063
20
-3.88453
11
6.20728
21
-3.88282
0
LINE
8
BLACK
6
CONTINUOUS
10
6.20728
20
-3.88282
11
6.20379
21
-3.87934
0
LINE
8
BLACK
6
CONTINUOUS
10
6.20379
20
-3.87934
11
6.20156
21
-3.87495
0
LINE
8
BLACK
6
CONTINUOUS
10
6.20156
20
-3.87495
11
6.20079
21
-3.87008
0
LINE
8
BLACK
6
CONTINUOUS
10
6.20079
20
-3.87008
11
6.20156
21
-3.86521
0
LINE
8
BLACK
6
CONTINUOUS
10
6.20156
20
-3.86521
11
6.20379
21
-3.86082
0
LINE
8
BLACK
6
CONTINUOUS
10
6.20379
20
-3.86082
11
6.20728
21
-3.85734
0
LINE
8
BLACK
6
CONTINUOUS
10
6.20728
20
-3.85734
11
6.21167
21
-3.8551
0
LINE
8
BLACK
6
CONTINUOUS
10
6.21167
20
-3.8551
11
6.21654
21
-3.85433
0
LINE
8
BLACK
6
CONTINUOUS
10
6.21654
20
-3.85433
11
6.2214
21
-3.8551
0
LINE
8
BLACK
6
CONTINUOUS
10
6.17809
20
-3.93384
11
6.18248
21
-3.93608
0
LINE
8
BLACK
6
CONTINUOUS
10
6.18248
20
-3.93608
11
6.18597
21
-3.93956
0
LINE
8
BLACK
6
CONTINUOUS
10
6.18597
20
-3.93956
11
6.18821
21
-3.94395
0
LINE
8
BLACK
6
CONTINUOUS
10
6.18821
20
-3.94395
11
6.18898
21
-3.94882
0
LINE
8
BLACK
6
CONTINUOUS
10
6.18898
20
-3.94882
11
6.18821
21
-3.95369
0
LINE
8
BLACK
6
CONTINUOUS
10
6.18821
20
-3.95369
11
6.18597
21
-3.95808
0
LINE
8
BLACK
6
CONTINUOUS
10
6.18597
20
-3.95808
11
6.18248
21
-3.96156
0
LINE
8
BLACK
6
CONTINUOUS
10
6.18248
20
-3.96156
11
6.17913
21
-3.96327
0
LINE
8
BLACK
6
CONTINUOUS
10
6.17913
20
-3.96327
11
6.17913
21
-4.0748
0
LINE
8
BLACK
6
CONTINUOUS
10
6.17913
20
-4.0748
11
6.17893
21
-4.07555
0
LINE
8
BLACK
6
CONTINUOUS
10
6.17893
20
-4.07555
11
6.17893
21
-4.07633
0
LINE
8
BLACK
6
CONTINUOUS
10
6.17893
20
-4.07633
11
6.17854
21
-4.077
0
LINE
8
BLACK
6
CONTINUOUS
10
6.17854
20
-4.077
11
6.17834
21
-4.07776
0
LINE
8
BLACK
6
CONTINUOUS
10
6.17834
20
-4.07776
11
6.17779
21
-4.07831
0
LINE
8
BLACK
6
CONTINUOUS
10
6.17779
20
-4.07831
11
6.1774
21
-4.07898
0
LINE
8
BLACK
6
CONTINUOUS
10
6.1774
20
-4.07898
11
6.06457
21
-4.19182
0
LINE
8
BLACK
6
CONTINUOUS
10
6.06457
20
-4.19182
11
6.06613
21
-4.19524
0
LINE
8
BLACK
6
CONTINUOUS
10
6.06613
20
-4.19524
11
6.06693
21
-4.20079
0
LINE
8
BLACK
6
CONTINUOUS
10
6.06693
20
-4.20079
11
6.06613
21
-4.20633
0
LINE
8
BLACK
6
CONTINUOUS
10
6.06613
20
-4.20633
11
6.0638
21
-4.21143
0
LINE
8
BLACK
6
CONTINUOUS
10
6.0638
20
-4.21143
11
6.06014
21
-4.21566
0
LINE
8
BLACK
6
CONTINUOUS
10
6.06014
20
-4.21566
11
6.05542
21
-4.21869
0
LINE
8
BLACK
6
CONTINUOUS
10
6.05542
20
-4.21869
11
6.05005
21
-4.22027
0
LINE
8
BLACK
6
CONTINUOUS
10
6.05005
20
-4.22027
11
6.04444
21
-4.22027
0
LINE
8
BLACK
6
CONTINUOUS
10
6.04444
20
-4.22027
11
6.03907
21
-4.21869
0
LINE
8
BLACK
6
CONTINUOUS
10
6.03907
20
-4.21869
11
6.03435
21
-4.21566
0
LINE
8
BLACK
6
CONTINUOUS
10
6.03435
20
-4.21566
11
6.03068
21
-4.21143
0
LINE
8
BLACK
6
CONTINUOUS
10
6.03068
20
-4.21143
11
6.02836
21
-4.20633
0
LINE
8
BLACK
6
CONTINUOUS
10
6.02836
20
-4.20633
11
6.02756
21
-4.20079
0
LINE
8
BLACK
6
CONTINUOUS
10
6.02756
20
-4.20079
11
6.02836
21
-4.19524
0
LINE
8
BLACK
6
CONTINUOUS
10
6.02836
20
-4.19524
11
6.03068
21
-4.19014
0
LINE
8
BLACK
6
CONTINUOUS
10
6.03068
20
-4.19014
11
6.03435
21
-4.18591
0
LINE
8
BLACK
6
CONTINUOUS
10
6.03435
20
-4.18591
11
6.03907
21
-4.18288
0
LINE
8
BLACK
6
CONTINUOUS
10
6.03907
20
-4.18288
11
6.04444
21
-4.1813
0
LINE
8
BLACK
6
CONTINUOUS
10
6.04444
20
-4.1813
11
6.05005
21
-4.1813
0
LINE
8
BLACK
6
CONTINUOUS
10
6.05005
20
-4.1813
11
6.05542
21
-4.18288
0
LINE
8
BLACK
6
CONTINUOUS
10
6.05542
20
-4.18288
11
6.05626
21
-4.18342
0
LINE
8
BLACK
6
CONTINUOUS
10
6.05626
20
-4.18342
11
6.16732
21
-4.07236
0
LINE
8
BLACK
6
CONTINUOUS
10
6.16732
20
-4.07236
11
6.16732
21
-3.96327
0
LINE
8
BLACK
6
CONTINUOUS
10
6.16732
20
-3.96327
11
6.16397
21
-3.96156
0
LINE
8
BLACK
6
CONTINUOUS
10
6.16397
20
-3.96156
11
6.16049
21
-3.95808
0
LINE
8
BLACK
6
CONTINUOUS
10
6.16049
20
-3.95808
11
6.15825
21
-3.95369
0
LINE
8
BLACK
6
CONTINUOUS
10
6.15825
20
-3.95369
11
6.15748
21
-3.94882
0
LINE
8
BLACK
6
CONTINUOUS
10
6.15748
20
-3.94882
11
6.15825
21
-3.94395
0
LINE
8
BLACK
6
CONTINUOUS
10
6.15825
20
-3.94395
11
6.16049
21
-3.93956
0
LINE
8
BLACK
6
CONTINUOUS
10
6.16049
20
-3.93956
11
6.16397
21
-3.93608
0
LINE
8
BLACK
6
CONTINUOUS
10
6.16397
20
-3.93608
11
6.16836
21
-3.93384
0
LINE
8
BLACK
6
CONTINUOUS
10
6.16836
20
-3.93384
11
6.17323
21
-3.93307
0
LINE
8
BLACK
6
CONTINUOUS
10
6.17323
20
-3.93307
11
6.17809
21
-3.93384
0
LINE
8
BLACK
6
CONTINUOUS
10
5.98518
20
-4.18187
11
5.98957
21
-4.18411
0
LINE
8
BLACK
6
CONTINUOUS
10
5.98957
20
-4.18411
11
5.99306
21
-4.18759
0
LINE
8
BLACK
6
CONTINUOUS
10
5.99306
20
-4.18759
11
5.99529
21
-4.19198
0
LINE
8
BLACK
6
CONTINUOUS
10
5.99529
20
-4.19198
11
5.99606
21
-4.19685
0
LINE
8
BLACK
6
CONTINUOUS
10
5.99606
20
-4.19685
11
5.99529
21
-4.20172
0
LINE
8
BLACK
6
CONTINUOUS
10
5.99529
20
-4.20172
11
5.99306
21
-4.20611
0
LINE
8
BLACK
6
CONTINUOUS
10
5.99306
20
-4.20611
11
5.98957
21
-4.20959
0
LINE
8
BLACK
6
CONTINUOUS
10
5.98957
20
-4.20959
11
5.98518
21
-4.21183
0
LINE
8
BLACK
6
CONTINUOUS
10
5.98518
20
-4.21183
11
5.98031
21
-4.2126
0
LINE
8
BLACK
6
CONTINUOUS
10
5.98031
20
-4.2126
11
5.97545
21
-4.21183
0
LINE
8
BLACK
6
CONTINUOUS
10
5.97545
20
-4.21183
11
5.97106
21
-4.20959
0
LINE
8
BLACK
6
CONTINUOUS
10
5.97106
20
-4.20959
11
5.97044
21
-4.20897
0
LINE
8
BLACK
6
CONTINUOUS
10
5.97044
20
-4.20897
11
5.96932
21
-4.21143
0
LINE
8
BLACK
6
CONTINUOUS
10
5.96932
20
-4.21143
11
5.96565
21
-4.21566
0
LINE
8
BLACK
6
CONTINUOUS
10
5.96565
20
-4.21566
11
5.96093
21
-4.21869
0
LINE
8
BLACK
6
CONTINUOUS
10
5.96093
20
-4.21869
11
5.95556
21
-4.22027
0
LINE
8
BLACK
6
CONTINUOUS
10
5.95556
20
-4.22027
11
5.94995
21
-4.22027
0
LINE
8
BLACK
6
CONTINUOUS
10
5.94995
20
-4.22027
11
5.94458
21
-4.21869
0
LINE
8
BLACK
6
CONTINUOUS
10
5.94458
20
-4.21869
11
5.93986
21
-4.21566
0
LINE
8
BLACK
6
CONTINUOUS
10
5.93986
20
-4.21566
11
5.9362
21
-4.21143
0
LINE
8
BLACK
6
CONTINUOUS
10
5.9362
20
-4.21143
11
5.93387
21
-4.20633
0
LINE
8
BLACK
6
CONTINUOUS
10
5.93387
20
-4.20633
11
5.93307
21
-4.20079
0
LINE
8
BLACK
6
CONTINUOUS
10
5.93307
20
-4.20079
11
5.93387
21
-4.19524
0
LINE
8
BLACK
6
CONTINUOUS
10
5.93387
20
-4.19524
11
5.9362
21
-4.19014
0
LINE
8
BLACK
6
CONTINUOUS
10
5.9362
20
-4.19014
11
5.93986
21
-4.18591
0
LINE
8
BLACK
6
CONTINUOUS
10
5.93986
20
-4.18591
11
5.94458
21
-4.18288
0
LINE
8
BLACK
6
CONTINUOUS
10
5.94458
20
-4.18288
11
5.94995
21
-4.1813
0
LINE
8
BLACK
6
CONTINUOUS
10
5.94995
20
-4.1813
11
5.95556
21
-4.1813
0
LINE
8
BLACK
6
CONTINUOUS
10
5.95556
20
-4.1813
11
5.96093
21
-4.18288
0
LINE
8
BLACK
6
CONTINUOUS
10
5.96093
20
-4.18288
11
5.96565
21
-4.18591
0
LINE
8
BLACK
6
CONTINUOUS
10
5.96565
20
-4.18591
11
5.9674
21
-4.18793
0
LINE
8
BLACK
6
CONTINUOUS
10
5.9674
20
-4.18793
11
5.96757
21
-4.18759
0
LINE
8
BLACK
6
CONTINUOUS
10
5.96757
20
-4.18759
11
5.97106
21
-4.18411
0
LINE
8
BLACK
6
CONTINUOUS
10
5.97106
20
-4.18411
11
5.97545
21
-4.18187
0
LINE
8
BLACK
6
CONTINUOUS
10
5.97545
20
-4.18187
11
5.98031
21
-4.1811
0
LINE
8
BLACK
6
CONTINUOUS
10
5.98031
20
-4.1811
11
5.98518
21
-4.18187
0
LINE
8
BLACK
6
CONTINUOUS
10
5.96093
20
-4.1002
11
5.96565
21
-4.10323
0
LINE
8
BLACK
6
CONTINUOUS
10
5.96565
20
-4.10323
11
5.96932
21
-4.10747
0
LINE
8
BLACK
6
CONTINUOUS
10
5.96932
20
-4.10747
11
5.97164
21
-4.11256
0
LINE
8
BLACK
6
CONTINUOUS
10
5.97164
20
-4.11256
11
5.97244
21
-4.11811
0
LINE
8
BLACK
6
CONTINUOUS
10
5.97244
20
-4.11811
11
5.97164
21
-4.12366
0
LINE
8
BLACK
6
CONTINUOUS
10
5.97164
20
-4.12366
11
5.96932
21
-4.12875
0
LINE
8
BLACK
6
CONTINUOUS
10
5.96932
20
-4.12875
11
5.96565
21
-4.13299
0
LINE
8
BLACK
6
CONTINUOUS
10
5.96565
20
-4.13299
11
5.96093
21
-4.13602
0
LINE
8
BLACK
6
CONTINUOUS
10
5.96093
20
-4.13602
11
5.96057
21
-4.13612
0
LINE
8
BLACK
6
CONTINUOUS
10
5.96057
20
-4.13612
11
5.96203
21
-4.13687
0
LINE
8
BLACK
6
CONTINUOUS
10
5.96203
20
-4.13687
11
5.96552
21
-4.14035
0
LINE
8
BLACK
6
CONTINUOUS
10
5.96552
20
-4.14035
11
5.96775
21
-4.14474
0
LINE
8
BLACK
6
CONTINUOUS
10
5.96775
20
-4.14474
11
5.96852
21
-4.14961
0
LINE
8
BLACK
6
CONTINUOUS
10
5.96852
20
-4.14961
11
5.96775
21
-4.15447
0
LINE
8
BLACK
6
CONTINUOUS
10
5.96775
20
-4.15447
11
5.96552
21
-4.15886
0
LINE
8
BLACK
6
CONTINUOUS
10
5.96552
20
-4.15886
11
5.96203
21
-4.16235
0
LINE
8
BLACK
6
CONTINUOUS
10
5.96203
20
-4.16235
11
5.95764
21
-4.16458
0
LINE
8
BLACK
6
CONTINUOUS
10
5.95764
20
-4.16458
11
5.95278
21
-4.16535
0
LINE
8
BLACK
6
CONTINUOUS
10
5.95278
20
-4.16535
11
5.94791
21
-4.16458
0
LINE
8
BLACK
6
CONTINUOUS
10
5.94791
20
-4.16458
11
5.94352
21
-4.16235
0
LINE
8
BLACK
6
CONTINUOUS
10
5.94352
20
-4.16235
11
5.94004
21
-4.15886
0
LINE
8
BLACK
6
CONTINUOUS
10
5.94004
20
-4.15886
11
5.9378
21
-4.15447
0
LINE
8
BLACK
6
CONTINUOUS
10
5.9378
20
-4.15447
11
5.93703
21
-4.14961
0
LINE
8
BLACK
6
CONTINUOUS
10
5.93703
20
-4.14961
11
5.9378
21
-4.14474
0
LINE
8
BLACK
6
CONTINUOUS
10
5.9378
20
-4.14474
11
5.94004
21
-4.14035
0
LINE
8
BLACK
6
CONTINUOUS
10
5.94004
20
-4.14035
11
5.94352
21
-4.13687
0
LINE
8
BLACK
6
CONTINUOUS
10
5.94352
20
-4.13687
11
5.94496
21
-4.13613
0
LINE
8
BLACK
6
CONTINUOUS
10
5.94496
20
-4.13613
11
5.94458
21
-4.13602
0
LINE
8
BLACK
6
CONTINUOUS
10
5.94458
20
-4.13602
11
5.93986
21
-4.13299
0
LINE
8
BLACK
6
CONTINUOUS
10
5.93986
20
-4.13299
11
5.9362
21
-4.12875
0
LINE
8
BLACK
6
CONTINUOUS
10
5.9362
20
-4.12875
11
5.93387
21
-4.12366
0
LINE
8
BLACK
6
CONTINUOUS
10
5.93387
20
-4.12366
11
5.93307
21
-4.11811
0
LINE
8
BLACK
6
CONTINUOUS
10
5.93307
20
-4.11811
11
5.93387
21
-4.11256
0
LINE
8
BLACK
6
CONTINUOUS
10
5.93387
20
-4.11256
11
5.9362
21
-4.10747
0
LINE
8
BLACK
6
CONTINUOUS
10
5.9362
20
-4.10747
11
5.93986
21
-4.10323
0
LINE
8
BLACK
6
CONTINUOUS
10
5.93986
20
-4.10323
11
5.94458
21
-4.1002
0
LINE
8
BLACK
6
CONTINUOUS
10
5.94458
20
-4.1002
11
5.94995
21
-4.09863
0
LINE
8
BLACK
6
CONTINUOUS
10
5.94995
20
-4.09863
11
5.95556
21
-4.09863
0
LINE
8
BLACK
6
CONTINUOUS
10
5.95556
20
-4.09863
11
5.96093
21
-4.1002
0
LINE
8
BLACK
6
CONTINUOUS
10
6.0541
20
-4.09132
11
6.05849
21
-4.09356
0
LINE
8
BLACK
6
CONTINUOUS
10
6.05849
20
-4.09356
11
6.06197
21
-4.09704
0
LINE
8
BLACK
6
CONTINUOUS
10
6.06197
20
-4.09704
11
6.06421
21
-4.10143
0
LINE
8
BLACK
6
CONTINUOUS
10
6.06421
20
-4.10143
11
6.06498
21
-4.1063
0
LINE
8
BLACK
6
CONTINUOUS
10
6.06498
20
-4.1063
11
6.06454
21
-4.10908
0
LINE
8
BLACK
6
CONTINUOUS
10
6.06454
20
-4.10908
11
6.06613
21
-4.11256
0
LINE
8
BLACK
6
CONTINUOUS
10
6.06613
20
-4.11256
11
6.06693
21
-4.11811
0
LINE
8
BLACK
6
CONTINUOUS
10
6.06693
20
-4.11811
11
6.06613
21
-4.12366
0
LINE
8
BLACK
6
CONTINUOUS
10
6.06613
20
-4.12366
11
6.0638
21
-4.12875
0
LINE
8
BLACK
6
CONTINUOUS
10
6.0638
20
-4.12875
11
6.06014
21
-4.13299
0
LINE
8
BLACK
6
CONTINUOUS
10
6.06014
20
-4.13299
11
6.05542
21
-4.13602
0
LINE
8
BLACK
6
CONTINUOUS
10
6.05542
20
-4.13602
11
6.05005
21
-4.13759
0
LINE
8
BLACK
6
CONTINUOUS
10
6.05005
20
-4.13759
11
6.04444
21
-4.13759
0
LINE
8
BLACK
6
CONTINUOUS
10
6.04444
20
-4.13759
11
6.03907
21
-4.13602
0
LINE
8
BLACK
6
CONTINUOUS
10
6.03907
20
-4.13602
11
6.03435
21
-4.13299
0
LINE
8
BLACK
6
CONTINUOUS
10
6.03435
20
-4.13299
11
6.03068
21
-4.12875
0
LINE
8
BLACK
6
CONTINUOUS
10
6.03068
20
-4.12875
11
6.02836
21
-4.12366
0
LINE
8
BLACK
6
CONTINUOUS
10
6.02836
20
-4.12366
11
6.02756
21
-4.11811
0
LINE
8
BLACK
6
CONTINUOUS
10
6.02756
20
-4.11811
11
6.02836
21
-4.11256
0
LINE
8
BLACK
6
CONTINUOUS
10
6.02836
20
-4.11256
11
6.03068
21
-4.10747
0
LINE
8
BLACK
6
CONTINUOUS
10
6.03068
20
-4.10747
11
6.03388
21
-4.10377
0
LINE
8
BLACK
6
CONTINUOUS
10
6.03388
20
-4.10377
11
6.03425
21
-4.10143
0
LINE
8
BLACK
6
CONTINUOUS
10
6.03425
20
-4.10143
11
6.03649
21
-4.09704
0
LINE
8
BLACK
6
CONTINUOUS
10
6.03649
20
-4.09704
11
6.03998
21
-4.09356
0
LINE
8
BLACK
6
CONTINUOUS
10
6.03998
20
-4.09356
11
6.04437
21
-4.09132
0
LINE
8
BLACK
6
CONTINUOUS
10
6.04437
20
-4.09132
11
6.04923
21
-4.09055
0
LINE
8
BLACK
6
CONTINUOUS
10
6.04923
20
-4.09055
11
6.0541
21
-4.09132
0
LINE
8
BLACK
6
CONTINUOUS
10
6.15841
20
-3.73305
11
6.1628
21
-3.73529
0
LINE
8
BLACK
6
CONTINUOUS
10
6.1628
20
-3.73529
11
6.16628
21
-3.73878
0
LINE
8
BLACK
6
CONTINUOUS
10
6.16628
20
-3.73878
11
6.16799
21
-3.74213
0
LINE
8
BLACK
6
CONTINUOUS
10
6.16799
20
-3.74213
11
6.18898
21
-3.74213
0
LINE
8
BLACK
6
CONTINUOUS
10
6.18898
20
-3.74213
11
6.18973
21
-3.74233
0
LINE
8
BLACK
6
CONTINUOUS
10
6.18973
20
-3.74233
11
6.1905
21
-3.74233
0
LINE
8
BLACK
6
CONTINUOUS
10
6.1905
20
-3.74233
11
6.19118
21
-3.74272
0
LINE
8
BLACK
6
CONTINUOUS
10
6.19118
20
-3.74272
11
6.19193
21
-3.74292
0
LINE
8
BLACK
6
CONTINUOUS
10
6.19193
20
-3.74292
11
6.19248
21
-3.74347
0
LINE
8
BLACK
6
CONTINUOUS
10
6.19248
20
-3.74347
11
6.19315
21
-3.74386
0
LINE
8
BLACK
6
CONTINUOUS
10
6.19315
20
-3.74386
11
6.28764
21
-3.83834
0
LINE
8
BLACK
6
CONTINUOUS
10
6.28764
20
-3.83834
11
6.28803
21
-3.83902
0
LINE
8
BLACK
6
CONTINUOUS
10
6.28803
20
-3.83902
11
6.28858
21
-3.83957
0
LINE
8
BLACK
6
CONTINUOUS
10
6.28858
20
-3.83957
11
6.28878
21
-3.84032
0
LINE
8
BLACK
6
CONTINUOUS
10
6.28878
20
-3.84032
11
6.28917
21
-3.84099
0
LINE
8
BLACK
6
CONTINUOUS
10
6.28917
20
-3.84099
11
6.28917
21
-3.84177
0
LINE
8
BLACK
6
CONTINUOUS
10
6.28917
20
-3.84177
11
6.28937
21
-3.84252
0
LINE
8
BLACK
6
CONTINUOUS
10
6.28937
20
-3.84252
11
6.28937
21
-4.06299
0
LINE
8
BLACK
6
CONTINUOUS
10
6.28937
20
-4.06299
11
6.28917
21
-4.06374
0
LINE
8
BLACK
6
CONTINUOUS
10
6.28917
20
-4.06374
11
6.28917
21
-4.06452
0
LINE
8
BLACK
6
CONTINUOUS
10
6.28917
20
-4.06452
11
6.28878
21
-4.06519
0
LINE
8
BLACK
6
CONTINUOUS
10
6.28878
20
-4.06519
11
6.28858
21
-4.06594
0
LINE
8
BLACK
6
CONTINUOUS
10
6.28858
20
-4.06594
11
6.28803
21
-4.06649
0
LINE
8
BLACK
6
CONTINUOUS
10
6.28803
20
-4.06649
11
6.28764
21
-4.06717
0
LINE
8
BLACK
6
CONTINUOUS
10
6.28764
20
-4.06717
11
6.2821
21
-4.07271
0
LINE
8
BLACK
6
CONTINUOUS
10
6.2821
20
-4.07271
11
6.28269
21
-4.07387
0
LINE
8
BLACK
6
CONTINUOUS
10
6.28269
20
-4.07387
11
6.28346
21
-4.07874
0
LINE
8
BLACK
6
CONTINUOUS
10
6.28346
20
-4.07874
11
6.28269
21
-4.08361
0
LINE
8
BLACK
6
CONTINUOUS
10
6.28269
20
-4.08361
11
6.28046
21
-4.088
0
LINE
8
BLACK
6
CONTINUOUS
10
6.28046
20
-4.088
11
6.27697
21
-4.09148
0
LINE
8
BLACK
6
CONTINUOUS
10
6.27697
20
-4.09148
11
6.27258
21
-4.09372
0
LINE
8
BLACK
6
CONTINUOUS
10
6.27258
20
-4.09372
11
6.26772
21
-4.09449
0
LINE
8
BLACK
6
CONTINUOUS
10
6.26772
20
-4.09449
11
6.26285
21
-4.09372
0
LINE
8
BLACK
6
CONTINUOUS
10
6.26285
20
-4.09372
11
6.25846
21
-4.09148
0
LINE
8
BLACK
6
CONTINUOUS
10
6.25846
20
-4.09148
11
6.25498
21
-4.088
0
LINE
8
BLACK
6
CONTINUOUS
10
6.25498
20
-4.088
11
6.25274
21
-4.08361
0
LINE
8
BLACK
6
CONTINUOUS
10
6.25274
20
-4.08361
11
6.25197
21
-4.07874
0
LINE
8
BLACK
6
CONTINUOUS
10
6.25197
20
-4.07874
11
6.25274
21
-4.07387
0
LINE
8
BLACK
6
CONTINUOUS
10
6.25274
20
-4.07387
11
6.25498
21
-4.06948
0
LINE
8
BLACK
6
CONTINUOUS
10
6.25498
20
-4.06948
11
6.25846
21
-4.066
0
LINE
8
BLACK
6
CONTINUOUS
10
6.25846
20
-4.066
11
6.26285
21
-4.06376
0
LINE
8
BLACK
6
CONTINUOUS
10
6.26285
20
-4.06376
11
6.26772
21
-4.06299
0
LINE
8
BLACK
6
CONTINUOUS
10
6.26772
20
-4.06299
11
6.27258
21
-4.06376
0
LINE
8
BLACK
6
CONTINUOUS
10
6.27258
20
-4.06376
11
6.27375
21
-4.06436
0
LINE
8
BLACK
6
CONTINUOUS
10
6.27375
20
-4.06436
11
6.27756
21
-4.06055
0
LINE
8
BLACK
6
CONTINUOUS
10
6.27756
20
-4.06055
11
6.27756
21
-3.84497
0
LINE
8
BLACK
6
CONTINUOUS
10
6.27756
20
-3.84497
11
6.18653
21
-3.75394
0
LINE
8
BLACK
6
CONTINUOUS
10
6.18653
20
-3.75394
11
6.16799
21
-3.75394
0
LINE
8
BLACK
6
CONTINUOUS
10
6.16799
20
-3.75394
11
6.16628
21
-3.75729
0
LINE
8
BLACK
6
CONTINUOUS
10
6.16628
20
-3.75729
11
6.1628
21
-3.76077
0
LINE
8
BLACK
6
CONTINUOUS
10
6.1628
20
-3.76077
11
6.15841
21
-3.76301
0
LINE
8
BLACK
6
CONTINUOUS
10
6.15841
20
-3.76301
11
6.15354
21
-3.76378
0
LINE
8
BLACK
6
CONTINUOUS
10
6.15354
20
-3.76378
11
6.14868
21
-3.76301
0
LINE
8
BLACK
6
CONTINUOUS
10
6.14868
20
-3.76301
11
6.14429
21
-3.76077
0
LINE
8
BLACK
6
CONTINUOUS
10
6.14429
20
-3.76077
11
6.1408
21
-3.75729
0
LINE
8
BLACK
6
CONTINUOUS
10
6.1408
20
-3.75729
11
6.13857
21
-3.7529
0
LINE
8
BLACK
6
CONTINUOUS
10
6.13857
20
-3.7529
11
6.1378
21
-3.74803
0
LINE
8
BLACK
6
CONTINUOUS
10
6.1378
20
-3.74803
11
6.13857
21
-3.74317
0
LINE
8
BLACK
6
CONTINUOUS
10
6.13857
20
-3.74317
11
6.1408
21
-3.73878
0
LINE
8
BLACK
6
CONTINUOUS
10
6.1408
20
-3.73878
11
6.14429
21
-3.73529
0
LINE
8
BLACK
6
CONTINUOUS
10
6.14429
20
-3.73529
11
6.14868
21
-3.73305
0
LINE
8
BLACK
6
CONTINUOUS
10
6.14868
20
-3.73305
11
6.15354
21
-3.73228
0
LINE
8
BLACK
6
CONTINUOUS
10
6.15354
20
-3.73228
11
6.15841
21
-3.73305
0
LINE
8
BLACK
6
CONTINUOUS
10
5.77258
20
-3.84002
11
5.77697
21
-3.84226
0
LINE
8
BLACK
6
CONTINUOUS
10
5.77697
20
-3.84226
11
5.78046
21
-3.84574
0
LINE
8
BLACK
6
CONTINUOUS
10
5.78046
20
-3.84574
11
5.78269
21
-3.85013
0
LINE
8
BLACK
6
CONTINUOUS
10
5.78269
20
-3.85013
11
5.78346
21
-3.855
0
LINE
8
BLACK
6
CONTINUOUS
10
5.78346
20
-3.855
11
5.78269
21
-3.85987
0
LINE
8
BLACK
6
CONTINUOUS
10
5.78269
20
-3.85987
11
5.78046
21
-3.86426
0
LINE
8
BLACK
6
CONTINUOUS
10
5.78046
20
-3.86426
11
5.77697
21
-3.86774
0
LINE
8
BLACK
6
CONTINUOUS
10
5.77697
20
-3.86774
11
5.77559
21
-3.86844
0
LINE
8
BLACK
6
CONTINUOUS
10
5.77559
20
-3.86844
11
5.77559
21
-3.94083
0
LINE
8
BLACK
6
CONTINUOUS
10
5.77559
20
-3.94083
11
5.77718
21
-3.94395
0
LINE
8
BLACK
6
CONTINUOUS
10
5.77718
20
-3.94395
11
5.77795
21
-3.94882
0
LINE
8
BLACK
6
CONTINUOUS
10
5.77795
20
-3.94882
11
5.77718
21
-3.95369
0
LINE
8
BLACK
6
CONTINUOUS
10
5.77718
20
-3.95369
11
5.77622
21
-3.95557
0
LINE
8
BLACK
6
CONTINUOUS
10
5.77622
20
-3.95557
11
5.77622
21
-4.03774
0
LINE
8
BLACK
6
CONTINUOUS
10
5.77622
20
-4.03774
11
5.7776
21
-4.03844
0
LINE
8
BLACK
6
CONTINUOUS
10
5.7776
20
-4.03844
11
5.78109
21
-4.04192
0
LINE
8
BLACK
6
CONTINUOUS
10
5.78109
20
-4.04192
11
5.78332
21
-4.04631
0
LINE
8
BLACK
6
CONTINUOUS
10
5.78332
20
-4.04631
11
5.78409
21
-4.05118
0
LINE
8
BLACK
6
CONTINUOUS
10
5.78409
20
-4.05118
11
5.78332
21
-4.05605
0
LINE
8
BLACK
6
CONTINUOUS
10
5.78332
20
-4.05605
11
5.78109
21
-4.06044
0
LINE
8
BLACK
6
CONTINUOUS
10
5.78109
20
-4.06044
11
5.7776
21
-4.06392
0
LINE
8
BLACK
6
CONTINUOUS
10
5.7776
20
-4.06392
11
5.77321
21
-4.06616
0
LINE
8
BLACK
6
CONTINUOUS
10
5.77321
20
-4.06616
11
5.76835
21
-4.06693
0
LINE
8
BLACK
6
CONTINUOUS
10
5.76835
20
-4.06693
11
5.76348
21
-4.06616
0
LINE
8
BLACK
6
CONTINUOUS
10
5.76348
20
-4.06616
11
5.75909
21
-4.06392
0
LINE
8
BLACK
6
CONTINUOUS
10
5.75909
20
-4.06392
11
5.75561
21
-4.06044
0
LINE
8
BLACK
6
CONTINUOUS
10
5.75561
20
-4.06044
11
5.75337
21
-4.05605
0
LINE
8
BLACK
6
CONTINUOUS
10
5.75337
20
-4.05605
11
5.7526
21
-4.05118
0
LINE
8
BLACK
6
CONTINUOUS
10
5.7526
20
-4.05118
11
5.75337
21
-4.04631
0
LINE
8
BLACK
6
CONTINUOUS
10
5.75337
20
-4.04631
11
5.75561
21
-4.04192
0
LINE
8
BLACK
6
CONTINUOUS
10
5.75561
20
-4.04192
11
5.75909
21
-4.03844
0
LINE
8
BLACK
6
CONTINUOUS
10
5.75909
20
-4.03844
11
5.76047
21
-4.03774
0
LINE
8
BLACK
6
CONTINUOUS
10
5.76047
20
-4.03774
11
5.76047
21
-3.96429
0
LINE
8
BLACK
6
CONTINUOUS
10
5.76047
20
-3.96429
11
5.75734
21
-3.9638
0
LINE
8
BLACK
6
CONTINUOUS
10
5.75734
20
-3.9638
11
5.75295
21
-3.96156
0
LINE
8
BLACK
6
CONTINUOUS
10
5.75295
20
-3.96156
11
5.74946
21
-3.95808
0
LINE
8
BLACK
6
CONTINUOUS
10
5.74946
20
-3.95808
11
5.74723
21
-3.95369
0
LINE
8
BLACK
6
CONTINUOUS
10
5.74723
20
-3.95369
11
5.74645
21
-3.94882
0
LINE
8
BLACK
6
CONTINUOUS
10
5.74645
20
-3.94882
11
5.74723
21
-3.94395
0
LINE
8
BLACK
6
CONTINUOUS
10
5.74723
20
-3.94395
11
5.74946
21
-3.93956
0
LINE
8
BLACK
6
CONTINUOUS
10
5.74946
20
-3.93956
11
5.75295
21
-3.93608
0
LINE
8
BLACK
6
CONTINUOUS
10
5.75295
20
-3.93608
11
5.75734
21
-3.93384
0
LINE
8
BLACK
6
CONTINUOUS
10
5.75734
20
-3.93384
11
5.75984
21
-3.93345
0
LINE
8
BLACK
6
CONTINUOUS
10
5.75984
20
-3.93345
11
5.75984
21
-3.86844
0
LINE
8
BLACK
6
CONTINUOUS
10
5.75984
20
-3.86844
11
5.75846
21
-3.86774
0
LINE
8
BLACK
6
CONTINUOUS
10
5.75846
20
-3.86774
11
5.75498
21
-3.86426
0
LINE
8
BLACK
6
CONTINUOUS
10
5.75498
20
-3.86426
11
5.75274
21
-3.85987
0
LINE
8
BLACK
6
CONTINUOUS
10
5.75274
20
-3.85987
11
5.75197
21
-3.855
0
LINE
8
BLACK
6
CONTINUOUS
10
5.75197
20
-3.855
11
5.75274
21
-3.85013
0
LINE
8
BLACK
6
CONTINUOUS
10
5.75274
20
-3.85013
11
5.75498
21
-3.84574
0
LINE
8
BLACK
6
CONTINUOUS
10
5.75498
20
-3.84574
11
5.75846
21
-3.84226
0
LINE
8
BLACK
6
CONTINUOUS
10
5.75846
20
-3.84226
11
5.76285
21
-3.84002
0
LINE
8
BLACK
6
CONTINUOUS
10
5.76285
20
-3.84002
11
5.76772
21
-3.83925
0
LINE
8
BLACK
6
CONTINUOUS
10
5.76772
20
-3.83925
11
5.77258
21
-3.84002
0
LINE
8
BLACK
6
CONTINUOUS
10
5.76274
20
-3.77046
11
5.76713
21
-3.77269
0
LINE
8
BLACK
6
CONTINUOUS
10
5.76713
20
-3.77269
11
5.77061
21
-3.77618
0
LINE
8
BLACK
6
CONTINUOUS
10
5.77061
20
-3.77618
11
5.77285
21
-3.78057
0
LINE
8
BLACK
6
CONTINUOUS
10
5.77285
20
-3.78057
11
5.77362
21
-3.78543
0
LINE
8
BLACK
6
CONTINUOUS
10
5.77362
20
-3.78543
11
5.77285
21
-3.7903
0
LINE
8
BLACK
6
CONTINUOUS
10
5.77285
20
-3.7903
11
5.77255
21
-3.79089
0
LINE
8
BLACK
6
CONTINUOUS
10
5.77255
20
-3.79089
11
5.92544
21
-3.94378
0
LINE
8
BLACK
6
CONTINUOUS
10
5.92544
20
-3.94378
11
5.92582
21
-3.94445
0
LINE
8
BLACK
6
CONTINUOUS
10
5.92582
20
-3.94445
11
5.92637
21
-3.945
0
LINE
8
BLACK
6
CONTINUOUS
10
5.92637
20
-3.945
11
5.92658
21
-3.94575
0
LINE
8
BLACK
6
CONTINUOUS
10
5.92658
20
-3.94575
11
5.92696
21
-3.94642
0
LINE
8
BLACK
6
CONTINUOUS
10
5.92696
20
-3.94642
11
5.92696
21
-3.9472
0
LINE
8
BLACK
6
CONTINUOUS
10
5.92696
20
-3.9472
11
5.92717
21
-3.94795
0
LINE
8
BLACK
6
CONTINUOUS
10
5.92717
20
-3.94795
11
5.92717
21
-4.0013
0
LINE
8
BLACK
6
CONTINUOUS
10
5.92717
20
-4.0013
11
5.93052
21
-4.00301
0
LINE
8
BLACK
6
CONTINUOUS
10
5.93052
20
-4.00301
11
5.934
21
-4.00649
0
LINE
8
BLACK
6
CONTINUOUS
10
5.934
20
-4.00649
11
5.93624
21
-4.01088
0
LINE
8
BLACK
6
CONTINUOUS
10
5.93624
20
-4.01088
11
5.93701
21
-4.01575
0
LINE
8
BLACK
6
CONTINUOUS
10
5.93701
20
-4.01575
11
5.93624
21
-4.02061
0
LINE
8
BLACK
6
CONTINUOUS
10
5.93624
20
-4.02061
11
5.934
21
-4.025
0
LINE
8
BLACK
6
CONTINUOUS
10
5.934
20
-4.025
11
5.93052
21
-4.02849
0
LINE
8
BLACK
6
CONTINUOUS
10
5.93052
20
-4.02849
11
5.92613
21
-4.03073
0
LINE
8
BLACK
6
CONTINUOUS
10
5.92613
20
-4.03073
11
5.92126
21
-4.0315
0
LINE
8
BLACK
6
CONTINUOUS
10
5.92126
20
-4.0315
11
5.91639
21
-4.03073
0
LINE
8
BLACK
6
CONTINUOUS
10
5.91639
20
-4.03073
11
5.912
21
-4.02849
0
LINE
8
BLACK
6
CONTINUOUS
10
5.912
20
-4.02849
11
5.90852
21
-4.025
0
LINE
8
BLACK
6
CONTINUOUS
10
5.90852
20
-4.025
11
5.90628
21
-4.02061
0
LINE
8
BLACK
6
CONTINUOUS
10
5.90628
20
-4.02061
11
5.90551
21
-4.01575
0
LINE
8
BLACK
6
CONTINUOUS
10
5.90551
20
-4.01575
11
5.90628
21
-4.01088
0
LINE
8
BLACK
6
CONTINUOUS
10
5.90628
20
-4.01088
11
5.90852
21
-4.00649
0
LINE
8
BLACK
6
CONTINUOUS
10
5.90852
20
-4.00649
11
5.912
21
-4.00301
0
LINE
8
BLACK
6
CONTINUOUS
10
5.912
20
-4.00301
11
5.91535
21
-4.0013
0
LINE
8
BLACK
6
CONTINUOUS
10
5.91535
20
-4.0013
11
5.91535
21
-3.9504
0
LINE
8
BLACK
6
CONTINUOUS
10
5.91535
20
-3.9504
11
5.76448
21
-3.79952
0
LINE
8
BLACK
6
CONTINUOUS
10
5.76448
20
-3.79952
11
5.76274
21
-3.80041
0
LINE
8
BLACK
6
CONTINUOUS
10
5.76274
20
-3.80041
11
5.75787
21
-3.80118
0
LINE
8
BLACK
6
CONTINUOUS
10
5.75787
20
-3.80118
11
5.75301
21
-3.80041
0
LINE
8
BLACK
6
CONTINUOUS
10
5.75301
20
-3.80041
11
5.74862
21
-3.79817
0
LINE
8
BLACK
6
CONTINUOUS
10
5.74862
20
-3.79817
11
5.74513
21
-3.79469
0
LINE
8
BLACK
6
CONTINUOUS
10
5.74513
20
-3.79469
11
5.7429
21
-3.7903
0
LINE
8
BLACK
6
CONTINUOUS
10
5.7429
20
-3.7903
11
5.74213
21
-3.78543
0
LINE
8
BLACK
6
CONTINUOUS
10
5.74213
20
-3.78543
11
5.7429
21
-3.78057
0
LINE
8
BLACK
6
CONTINUOUS
10
5.7429
20
-3.78057
11
5.74513
21
-3.77618
0
LINE
8
BLACK
6
CONTINUOUS
10
5.74513
20
-3.77618
11
5.74862
21
-3.77269
0
LINE
8
BLACK
6
CONTINUOUS
10
5.74862
20
-3.77269
11
5.75301
21
-3.77046
0
LINE
8
BLACK
6
CONTINUOUS
10
5.75301
20
-3.77046
11
5.75787
21
-3.76969
0
LINE
8
BLACK
6
CONTINUOUS
10
5.75787
20
-3.76969
11
5.76274
21
-3.77046
0
LINE
8
BLACK
6
CONTINUOUS
10
5.9655
20
-3.89053
11
5.96989
21
-3.89277
0
LINE
8
BLACK
6
CONTINUOUS
10
5.96989
20
-3.89277
11
5.97337
21
-3.89626
0
LINE
8
BLACK
6
CONTINUOUS
10
5.97337
20
-3.89626
11
5.97561
21
-3.90065
0
LINE
8
BLACK
6
CONTINUOUS
10
5.97561
20
-3.90065
11
5.97638
21
-3.90551
0
LINE
8
BLACK
6
CONTINUOUS
10
5.97638
20
-3.90551
11
5.97561
21
-3.91038
0
LINE
8
BLACK
6
CONTINUOUS
10
5.97561
20
-3.91038
11
5.97501
21
-3.91154
0
LINE
8
BLACK
6
CONTINUOUS
10
5.97501
20
-3.91154
11
6.09848
21
-4.03501
0
LINE
8
BLACK
6
CONTINUOUS
10
6.09848
20
-4.03501
11
6.09899
21
-4.0345
0
LINE
8
BLACK
6
CONTINUOUS
10
6.09899
20
-4.0345
11
6.10338
21
-4.03227
0
LINE
8
BLACK
6
CONTINUOUS
10
6.10338
20
-4.03227
11
6.10825
21
-4.0315
0
LINE
8
BLACK
6
CONTINUOUS
10
6.10825
20
-4.0315
11
6.11311
21
-4.03227
0
LINE
8
BLACK
6
CONTINUOUS
10
6.11311
20
-4.03227
11
6.1175
21
-4.0345
0
LINE
8
BLACK
6
CONTINUOUS
10
6.1175
20
-4.0345
11
6.12099
21
-4.03799
0
LINE
8
BLACK
6
CONTINUOUS
10
6.12099
20
-4.03799
11
6.12323
21
-4.04238
0
LINE
8
BLACK
6
CONTINUOUS
10
6.12323
20
-4.04238
11
6.124
21
-4.04724
0
LINE
8
BLACK
6
CONTINUOUS
10
6.124
20
-4.04724
11
6.12323
21
-4.05211
0
LINE
8
BLACK
6
CONTINUOUS
10
6.12323
20
-4.05211
11
6.12099
21
-4.0565
0
LINE
8
BLACK
6
CONTINUOUS
10
6.12099
20
-4.0565
11
6.1175
21
-4.05998
0
LINE
8
BLACK
6
CONTINUOUS
10
6.1175
20
-4.05998
11
6.11311
21
-4.06222
0
LINE
8
BLACK
6
CONTINUOUS
10
6.11311
20
-4.06222
11
6.10825
21
-4.06299
0
LINE
8
BLACK
6
CONTINUOUS
10
6.10825
20
-4.06299
11
6.10338
21
-4.06222
0
LINE
8
BLACK
6
CONTINUOUS
10
6.10338
20
-4.06222
11
6.09899
21
-4.05998
0
LINE
8
BLACK
6
CONTINUOUS
10
6.09899
20
-4.05998
11
6.09551
21
-4.0565
0
LINE
8
BLACK
6
CONTINUOUS
10
6.09551
20
-4.0565
11
6.09327
21
-4.05211
0
LINE
8
BLACK
6
CONTINUOUS
10
6.09327
20
-4.05211
11
6.0925
21
-4.04724
0
LINE
8
BLACK
6
CONTINUOUS
10
6.0925
20
-4.04724
11
6.09271
21
-4.04594
0
LINE
8
BLACK
6
CONTINUOUS
10
6.09271
20
-4.04594
11
5.96666
21
-3.9199
0
LINE
8
BLACK
6
CONTINUOUS
10
5.96666
20
-3.9199
11
5.9655
21
-3.92049
0
LINE
8
BLACK
6
CONTINUOUS
10
5.9655
20
-3.92049
11
5.96063
21
-3.92126
0
LINE
8
BLACK
6
CONTINUOUS
10
5.96063
20
-3.92126
11
5.95576
21
-3.92049
0
LINE
8
BLACK
6
CONTINUOUS
10
5.95576
20
-3.92049
11
5.95137
21
-3.91825
0
LINE
8
BLACK
6
CONTINUOUS
10
5.95137
20
-3.91825
11
5.94789
21
-3.91477
0
LINE
8
BLACK
6
CONTINUOUS
10
5.94789
20
-3.91477
11
5.94565
21
-3.91038
0
LINE
8
BLACK
6
CONTINUOUS
10
5.94565
20
-3.91038
11
5.94488
21
-3.90551
0
LINE
8
BLACK
6
CONTINUOUS
10
5.94488
20
-3.90551
11
5.94565
21
-3.90065
0
LINE
8
BLACK
6
CONTINUOUS
10
5.94565
20
-3.90065
11
5.94789
21
-3.89626
0
LINE
8
BLACK
6
CONTINUOUS
10
5.94789
20
-3.89626
11
5.95137
21
-3.89277
0
LINE
8
BLACK
6
CONTINUOUS
10
5.95137
20
-3.89277
11
5.95576
21
-3.89053
0
LINE
8
BLACK
6
CONTINUOUS
10
5.95576
20
-3.89053
11
5.96063
21
-3.88976
0
LINE
8
BLACK
6
CONTINUOUS
10
5.96063
20
-3.88976
11
5.9655
21
-3.89053
0
LINE
8
BLACK
6
CONTINUOUS
10
5.71318
20
-3.8949
11
5.71757
21
-3.89714
0
LINE
8
BLACK
6
CONTINUOUS
10
5.71757
20
-3.89714
11
5.72105
21
-3.90062
0
LINE
8
BLACK
6
CONTINUOUS
10
5.72105
20
-3.90062
11
5.72329
21
-3.90501
0
LINE
8
BLACK
6
CONTINUOUS
10
5.72329
20
-3.90501
11
5.72406
21
-3.90988
0
LINE
8
BLACK
6
CONTINUOUS
10
5.72406
20
-3.90988
11
5.72329
21
-3.91474
0
LINE
8
BLACK
6
CONTINUOUS
10
5.72329
20
-3.91474
11
5.72105
21
-3.91913
0
LINE
8
BLACK
6
CONTINUOUS
10
5.72105
20
-3.91913
11
5.71757
21
-3.92262
0
LINE
8
BLACK
6
CONTINUOUS
10
5.71757
20
-3.92262
11
5.71422
21
-3.92432
0
LINE
8
BLACK
6
CONTINUOUS
10
5.71422
20
-3.92432
11
5.71422
21
-3.95505
0
LINE
8
BLACK
6
CONTINUOUS
10
5.71422
20
-3.95505
11
5.71689
21
-3.95641
0
LINE
8
BLACK
6
CONTINUOUS
10
5.71689
20
-3.95641
11
5.72038
21
-3.9599
0
LINE
8
BLACK
6
CONTINUOUS
10
5.72038
20
-3.9599
11
5.72262
21
-3.96429
0
LINE
8
BLACK
6
CONTINUOUS
10
5.72262
20
-3.96429
11
5.72339
21
-3.96915
0
LINE
8
BLACK
6
CONTINUOUS
10
5.72339
20
-3.96915
11
5.72262
21
-3.97402
0
LINE
8
BLACK
6
CONTINUOUS
10
5.72262
20
-3.97402
11
5.72038
21
-3.97841
0
LINE
8
BLACK
6
CONTINUOUS
10
5.72038
20
-3.97841
11
5.71689
21
-3.98189
0
LINE
8
BLACK
6
CONTINUOUS
10
5.71689
20
-3.98189
11
5.7125
21
-3.98413
0
LINE
8
BLACK
6
CONTINUOUS
10
5.7125
20
-3.98413
11
5.70764
21
-3.9849
0
LINE
8
BLACK
6
CONTINUOUS
10
5.70764
20
-3.9849
11
5.70277
21
-3.98413
0
LINE
8
BLACK
6
CONTINUOUS
10
5.70277
20
-3.98413
11
5.69838
21
-3.98189
0
LINE
8
BLACK
6
CONTINUOUS
10
5.69838
20
-3.98189
11
5.6949
21
-3.97841
0
LINE
8
BLACK
6
CONTINUOUS
10
5.6949
20
-3.97841
11
5.69266
21
-3.97402
0
LINE
8
BLACK
6
CONTINUOUS
10
5.69266
20
-3.97402
11
5.69189
21
-3.96915
0
LINE
8
BLACK
6
CONTINUOUS
10
5.69189
20
-3.96915
11
5.69266
21
-3.96429
0
LINE
8
BLACK
6
CONTINUOUS
10
5.69266
20
-3.96429
11
5.6949
21
-3.9599
0
LINE
8
BLACK
6
CONTINUOUS
10
5.6949
20
-3.9599
11
5.69838
21
-3.95641
0
LINE
8
BLACK
6
CONTINUOUS
10
5.69838
20
-3.95641
11
5.70241
21
-3.95436
0
LINE
8
BLACK
6
CONTINUOUS
10
5.70241
20
-3.95436
11
5.70241
21
-3.92432
0
LINE
8
BLACK
6
CONTINUOUS
10
5.70241
20
-3.92432
11
5.69906
21
-3.92262
0
LINE
8
BLACK
6
CONTINUOUS
10
5.69906
20
-3.92262
11
5.69557
21
-3.91913
0
LINE
8
BLACK
6
CONTINUOUS
10
5.69557
20
-3.91913
11
5.69334
21
-3.91474
0
LINE
8
BLACK
6
CONTINUOUS
10
5.69334
20
-3.91474
11
5.69257
21
-3.90988
0
LINE
8
BLACK
6
CONTINUOUS
10
5.69257
20
-3.90988
11
5.69334
21
-3.90501
0
LINE
8
BLACK
6
CONTINUOUS
10
5.69334
20
-3.90501
11
5.69557
21
-3.90062
0
LINE
8
BLACK
6
CONTINUOUS
10
5.69557
20
-3.90062
11
5.69906
21
-3.89714
0
LINE
8
BLACK
6
CONTINUOUS
10
5.69906
20
-3.89714
11
5.70345
21
-3.8949
0
LINE
8
BLACK
6
CONTINUOUS
10
5.70345
20
-3.8949
11
5.70831
21
-3.89413
0
LINE
8
BLACK
6
CONTINUOUS
10
5.70831
20
-3.89413
11
5.71318
21
-3.8949
0
LINE
8
BLACK
6
CONTINUOUS
10
6.39286
20
-3.50471
11
6.39725
21
-3.50694
0
LINE
8
BLACK
6
CONTINUOUS
10
6.39725
20
-3.50694
11
6.40073
21
-3.51043
0
LINE
8
BLACK
6
CONTINUOUS
10
6.40073
20
-3.51043
11
6.40297
21
-3.51482
0
LINE
8
BLACK
6
CONTINUOUS
10
6.40297
20
-3.51482
11
6.40374
21
-3.51969
0
LINE
8
BLACK
6
CONTINUOUS
10
6.40374
20
-3.51969
11
6.40311
21
-3.52367
0
LINE
8
BLACK
6
CONTINUOUS
10
6.40311
20
-3.52367
11
6.45236
21
-3.57292
0
LINE
8
BLACK
6
CONTINUOUS
10
6.45236
20
-3.57292
11
6.45306
21
-3.57404
0
LINE
8
BLACK
6
CONTINUOUS
10
6.45306
20
-3.57404
11
6.45389
21
-3.57507
0
LINE
8
BLACK
6
CONTINUOUS
10
6.45389
20
-3.57507
11
6.45399
21
-3.5755
0
LINE
8
BLACK
6
CONTINUOUS
10
6.45399
20
-3.5755
11
6.45422
21
-3.57588
0
LINE
8
BLACK
6
CONTINUOUS
10
6.45422
20
-3.57588
11
6.45437
21
-3.5772
0
LINE
8
BLACK
6
CONTINUOUS
10
6.45437
20
-3.5772
11
6.45467
21
-3.57848
0
LINE
8
BLACK
6
CONTINUOUS
10
6.45467
20
-3.57848
11
6.45467
21
-3.90117
0
LINE
8
BLACK
6
CONTINUOUS
10
6.45467
20
-3.90117
11
6.45762
21
-3.90413
0
LINE
8
BLACK
6
CONTINUOUS
10
6.45762
20
-3.90413
11
6.45986
21
-3.90852
0
LINE
8
BLACK
6
CONTINUOUS
10
6.45986
20
-3.90852
11
6.46063
21
-3.91339
0
LINE
8
BLACK
6
CONTINUOUS
10
6.46063
20
-3.91339
11
6.45986
21
-3.91825
0
LINE
8
BLACK
6
CONTINUOUS
10
6.45986
20
-3.91825
11
6.45762
21
-3.92264
0
LINE
8
BLACK
6
CONTINUOUS
10
6.45762
20
-3.92264
11
6.45414
21
-3.92613
0
LINE
8
BLACK
6
CONTINUOUS
10
6.45414
20
-3.92613
11
6.44975
21
-3.92836
0
LINE
8
BLACK
6
CONTINUOUS
10
6.44975
20
-3.92836
11
6.44488
21
-3.92913
0
LINE
8
BLACK
6
CONTINUOUS
10
6.44488
20
-3.92913
11
6.44002
21
-3.92836
0
LINE
8
BLACK
6
CONTINUOUS
10
6.44002
20
-3.92836
11
6.43563
21
-3.92613
0
LINE
8
BLACK
6
CONTINUOUS
10
6.43563
20
-3.92613
11
6.43214
21
-3.92264
0
LINE
8
BLACK
6
CONTINUOUS
10
6.43214
20
-3.92264
11
6.4299
21
-3.91825
0
LINE
8
BLACK
6
CONTINUOUS
10
6.4299
20
-3.91825
11
6.42913
21
-3.91339
0
LINE
8
BLACK
6
CONTINUOUS
10
6.42913
20
-3.91339
11
6.4299
21
-3.90852
0
LINE
8
BLACK
6
CONTINUOUS
10
6.4299
20
-3.90852
11
6.43214
21
-3.90413
0
LINE
8
BLACK
6
CONTINUOUS
10
6.43214
20
-3.90413
11
6.43563
21
-3.90065
0
LINE
8
BLACK
6
CONTINUOUS
10
6.43563
20
-3.90065
11
6.43892
21
-3.89897
0
LINE
8
BLACK
6
CONTINUOUS
10
6.43892
20
-3.89897
11
6.43892
21
-3.58175
0
LINE
8
BLACK
6
CONTINUOUS
10
6.43892
20
-3.58175
11
6.39197
21
-3.5348
0
LINE
8
BLACK
6
CONTINUOUS
10
6.39197
20
-3.5348
11
6.38799
21
-3.53543
0
LINE
8
BLACK
6
CONTINUOUS
10
6.38799
20
-3.53543
11
6.38313
21
-3.53466
0
LINE
8
BLACK
6
CONTINUOUS
10
6.38313
20
-3.53466
11
6.37874
21
-3.53243
0
LINE
8
BLACK
6
CONTINUOUS
10
6.37874
20
-3.53243
11
6.37525
21
-3.52894
0
LINE
8
BLACK
6
CONTINUOUS
10
6.37525
20
-3.52894
11
6.37301
21
-3.52455
0
LINE
8
BLACK
6
CONTINUOUS
10
6.37301
20
-3.52455
11
6.37224
21
-3.51969
0
LINE
8
BLACK
6
CONTINUOUS
10
6.37224
20
-3.51969
11
6.37301
21
-3.51482
0
LINE
8
BLACK
6
CONTINUOUS
10
6.37301
20
-3.51482
11
6.37525
21
-3.51043
0
LINE
8
BLACK
6
CONTINUOUS
10
6.37525
20
-3.51043
11
6.37874
21
-3.50694
0
LINE
8
BLACK
6
CONTINUOUS
10
6.37874
20
-3.50694
11
6.38313
21
-3.50471
0
LINE
8
BLACK
6
CONTINUOUS
10
6.38313
20
-3.50471
11
6.38799
21
-3.50394
0
LINE
8
BLACK
6
CONTINUOUS
10
6.38799
20
-3.50394
11
6.39286
21
-3.50471
0
LINE
8
BLACK
6
CONTINUOUS
10
5.83951
20
-3.65502
11
5.8439
21
-3.65726
0
LINE
8
BLACK
6
CONTINUOUS
10
5.8439
20
-3.65726
11
5.84739
21
-3.66074
0
LINE
8
BLACK
6
CONTINUOUS
10
5.84739
20
-3.66074
11
5.84909
21
-3.66409
0
LINE
8
BLACK
6
CONTINUOUS
10
5.84909
20
-3.66409
11
5.91016
21
-3.66409
0
LINE
8
BLACK
6
CONTINUOUS
10
5.91016
20
-3.66409
11
5.91091
21
-3.6643
0
LINE
8
BLACK
6
CONTINUOUS
10
5.91091
20
-3.6643
11
5.91169
21
-3.6643
0
LINE
8
BLACK
6
CONTINUOUS
10
5.91169
20
-3.6643
11
5.91236
21
-3.66468
0
LINE
8
BLACK
6
CONTINUOUS
10
5.91236
20
-3.66468
11
5.91311
21
-3.66489
0
LINE
8
BLACK
6
CONTINUOUS
10
5.91311
20
-3.66489
11
5.91366
21
-3.66544
0
LINE
8
BLACK
6
CONTINUOUS
10
5.91366
20
-3.66544
11
5.91433
21
-3.66582
0
LINE
8
BLACK
6
CONTINUOUS
10
5.91433
20
-3.66582
11
6.0883
21
-3.83979
0
LINE
8
BLACK
6
CONTINUOUS
10
6.0883
20
-3.83979
11
6.08962
21
-3.8372
0
LINE
8
BLACK
6
CONTINUOUS
10
6.08962
20
-3.8372
11
6.09311
21
-3.83372
0
LINE
8
BLACK
6
CONTINUOUS
10
6.09311
20
-3.83372
11
6.0975
21
-3.83148
0
LINE
8
BLACK
6
CONTINUOUS
10
6.0975
20
-3.83148
11
6.10236
21
-3.83071
0
LINE
8
BLACK
6
CONTINUOUS
10
6.10236
20
-3.83071
11
6.10723
21
-3.83148
0
LINE
8
BLACK
6
CONTINUOUS
10
6.10723
20
-3.83148
11
6.11162
21
-3.83372
0
LINE
8
BLACK
6
CONTINUOUS
10
6.11162
20
-3.83372
11
6.1151
21
-3.8372
0
LINE
8
BLACK
6
CONTINUOUS
10
6.1151
20
-3.8372
11
6.11734
21
-3.84159
0
LINE
8
BLACK
6
CONTINUOUS
10
6.11734
20
-3.84159
11
6.11811
21
-3.84646
0
LINE
8
BLACK
6
CONTINUOUS
10
6.11811
20
-3.84646
11
6.11734
21
-3.85132
0
LINE
8
BLACK
6
CONTINUOUS
10
6.11734
20
-3.85132
11
6.1151
21
-3.85571
0
LINE
8
BLACK
6
CONTINUOUS
10
6.1151
20
-3.85571
11
6.11162
21
-3.8592
0
LINE
8
BLACK
6
CONTINUOUS
10
6.11162
20
-3.8592
11
6.10723
21
-3.86143
0
LINE
8
BLACK
6
CONTINUOUS
10
6.10723
20
-3.86143
11
6.10236
21
-3.8622
0
LINE
8
BLACK
6
CONTINUOUS
10
6.10236
20
-3.8622
11
6.0975
21
-3.86143
0
LINE
8
BLACK
6
CONTINUOUS
10
6.0975
20
-3.86143
11
6.09311
21
-3.8592
0
LINE
8
BLACK
6
CONTINUOUS
10
6.09311
20
-3.8592
11
6.08962
21
-3.85571
0
LINE
8
BLACK
6
CONTINUOUS
10
6.08962
20
-3.85571
11
6.08791
21
-3.85236
0
LINE
8
BLACK
6
CONTINUOUS
10
6.08791
20
-3.85236
11
6.08661
21
-3.85236
0
LINE
8
BLACK
6
CONTINUOUS
10
6.08661
20
-3.85236
11
6.08586
21
-3.85216
0
LINE
8
BLACK
6
CONTINUOUS
10
6.08586
20
-3.85216
11
6.08509
21
-3.85216
0
LINE
8
BLACK
6
CONTINUOUS
10
6.08509
20
-3.85216
11
6.08441
21
-3.85177
0
LINE
8
BLACK
6
CONTINUOUS
10
6.08441
20
-3.85177
11
6.08366
21
-3.85157
0
LINE
8
BLACK
6
CONTINUOUS
10
6.08366
20
-3.85157
11
6.08311
21
-3.85102
0
LINE
8
BLACK
6
CONTINUOUS
10
6.08311
20
-3.85102
11
6.08244
21
-3.85063
0
LINE
8
BLACK
6
CONTINUOUS
10
6.08244
20
-3.85063
11
5.90771
21
-3.67591
0
LINE
8
BLACK
6
CONTINUOUS
10
5.90771
20
-3.67591
11
5.84909
21
-3.67591
0
LINE
8
BLACK
6
CONTINUOUS
10
5.84909
20
-3.67591
11
5.84739
21
-3.67926
0
LINE
8
BLACK
6
CONTINUOUS
10
5.84739
20
-3.67926
11
5.8439
21
-3.68274
0
LINE
8
BLACK
6
CONTINUOUS
10
5.8439
20
-3.68274
11
5.83951
21
-3.68498
0
LINE
8
BLACK
6
CONTINUOUS
10
5.83951
20
-3.68498
11
5.83465
21
-3.68575
0
LINE
8
BLACK
6
CONTINUOUS
10
5.83465
20
-3.68575
11
5.82978
21
-3.68498
0
LINE
8
BLACK
6
CONTINUOUS
10
5.82978
20
-3.68498
11
5.82539
21
-3.68274
0
LINE
8
BLACK
6
CONTINUOUS
10
5.82539
20
-3.68274
11
5.82191
21
-3.67926
0
LINE
8
BLACK
6
CONTINUOUS
10
5.82191
20
-3.67926
11
5.81967
21
-3.67487
0
LINE
8
BLACK
6
CONTINUOUS
10
5.81967
20
-3.67487
11
5.8189
21
-3.67
0
LINE
8
BLACK
6
CONTINUOUS
10
5.8189
20
-3.67
11
5.81967
21
-3.66513
0
LINE
8
BLACK
6
CONTINUOUS
10
5.81967
20
-3.66513
11
5.82191
21
-3.66074
0
LINE
8
BLACK
6
CONTINUOUS
10
5.82191
20
-3.66074
11
5.82539
21
-3.65726
0
LINE
8
BLACK
6
CONTINUOUS
10
5.82539
20
-3.65726
11
5.82978
21
-3.65502
0
LINE
8
BLACK
6
CONTINUOUS
10
5.82978
20
-3.65502
11
5.83465
21
-3.65425
0
LINE
8
BLACK
6
CONTINUOUS
10
5.83465
20
-3.65425
11
5.83951
21
-3.65502
0
LINE
8
BLACK
6
CONTINUOUS
10
6.49814
20
-3.37939
11
6.49955
21
-3.38133
0
LINE
8
BLACK
6
CONTINUOUS
10
6.49955
20
-3.38133
11
6.49974
21
-3.38254
0
LINE
8
BLACK
6
CONTINUOUS
10
6.49974
20
-3.38254
11
6.49974
21
-4.51644
0
LINE
8
BLACK
6
CONTINUOUS
10
6.49974
20
-4.51644
11
6.499
21
-4.51873
0
LINE
8
BLACK
6
CONTINUOUS
10
6.499
20
-4.51873
11
6.49705
21
-4.52014
0
LINE
8
BLACK
6
CONTINUOUS
10
6.49705
20
-4.52014
11
6.49585
21
-4.52033
0
LINE
8
BLACK
6
CONTINUOUS
10
6.49585
20
-4.52033
11
5.36195
21
-4.52033
0
LINE
8
BLACK
6
CONTINUOUS
10
5.36195
20
-4.52033
11
5.35966
21
-4.51959
0
LINE
8
BLACK
6
CONTINUOUS
10
5.35966
20
-4.51959
11
5.35824
21
-4.51764
0
LINE
8
BLACK
6
CONTINUOUS
10
5.35824
20
-4.51764
11
5.35805
21
-4.51644
0
LINE
8
BLACK
6
CONTINUOUS
10
5.35805
20
-4.51644
11
5.35805
21
-4.20079
0
LINE
8
BLACK
6
CONTINUOUS
10
5.35805
20
-4.20079
11
5.35805
21
-4.10957
0
LINE
8
BLACK
6
CONTINUOUS
10
5.35805
20
-4.10957
11
5.35805
21
-3.38254
0
LINE
8
BLACK
6
CONTINUOUS
10
5.35805
20
-3.38254
11
5.3588
21
-3.38025
0
LINE
8
BLACK
6
CONTINUOUS
10
5.3588
20
-3.38025
11
5.36074
21
-3.37883
0
LINE
8
BLACK
6
CONTINUOUS
10
5.36074
20
-3.37883
11
5.36195
21
-3.37864
0
LINE
8
BLACK
6
CONTINUOUS
10
5.36195
20
-3.37864
11
6.49585
21
-3.37864
0
LINE
8
BLACK
6
CONTINUOUS
10
6.49585
20
-3.37864
11
6.49814
21
-3.37939
0
LINE
8
BLACK
6
CONTINUOUS
10
5.48989
20
-3.42972
11
5.48989
21
-3.42972
0
LINE
8
BLACK
6
CONTINUOUS
10
5.48989
20
-3.42972
11
5.48414
21
-3.4321
0
LINE
8
BLACK
6
CONTINUOUS
10
5.48414
20
-3.4321
11
5.48414
21
-3.4321
0
LINE
8
BLACK
6
CONTINUOUS
10
5.48414
20
-3.4321
11
5.4792
21
-3.43589
0
LINE
8
BLACK
6
CONTINUOUS
10
5.4792
20
-3.43589
11
5.4792
21
-3.43589
0
LINE
8
BLACK
6
CONTINUOUS
10
5.4792
20
-3.43589
11
5.47541
21
-3.44083
0
LINE
8
BLACK
6
CONTINUOUS
10
5.47541
20
-3.44083
11
5.47541
21
-3.44083
0
LINE
8
BLACK
6
CONTINUOUS
10
5.47541
20
-3.44083
11
5.47303
21
-3.44658
0
LINE
8
BLACK
6
CONTINUOUS
10
5.47303
20
-3.44658
11
5.47303
21
-3.44658
0
LINE
8
BLACK
6
CONTINUOUS
10
5.47303
20
-3.44658
11
5.47222
21
-3.45276
0
LINE
8
BLACK
6
CONTINUOUS
10
5.47222
20
-3.45276
11
5.47222
21
-3.45276
0
LINE
8
BLACK
6
CONTINUOUS
10
5.47222
20
-3.45276
11
5.47303
21
-3.45893
0
LINE
8
BLACK
6
CONTINUOUS
10
5.47303
20
-3.45893
11
5.47303
21
-3.45893
0
LINE
8
BLACK
6
CONTINUOUS
10
5.47303
20
-3.45893
11
5.47541
21
-3.46468
0
LINE
8
BLACK
6
CONTINUOUS
10
5.47541
20
-3.46468
11
5.47541
21
-3.46468
0
LINE
8
BLACK
6
CONTINUOUS
10
5.47541
20
-3.46468
11
5.47541
21
-3.46468
0
LINE
8
BLACK
6
CONTINUOUS
10
5.47541
20
-3.46468
11
5.4792
21
-3.46962
0
LINE
8
BLACK
6
CONTINUOUS
10
5.4792
20
-3.46962
11
5.48414
21
-3.47341
0
LINE
8
BLACK
6
CONTINUOUS
10
5.48414
20
-3.47341
11
5.48414
21
-3.47341
0
LINE
8
BLACK
6
CONTINUOUS
10
5.48414
20
-3.47341
11
5.48414
21
-3.47341
0
LINE
8
BLACK
6
CONTINUOUS
10
5.48414
20
-3.47341
11
5.4862
21
-3.47426
0
LINE
8
BLACK
6
CONTINUOUS
10
5.4862
20
-3.47426
11
5.48989
21
-3.47579
0
LINE
8
BLACK
6
CONTINUOUS
10
5.48989
20
-3.47579
11
5.49606
21
-3.4766
0
LINE
8
BLACK
6
CONTINUOUS
10
5.49606
20
-3.4766
11
5.49632
21
-3.47663
0
LINE
8
BLACK
6
CONTINUOUS
10
5.49632
20
-3.47663
11
5.49631
21
-3.4767
0
LINE
8
BLACK
6
CONTINUOUS
10
5.49631
20
-3.4767
11
5.49829
21
-3.47735
0
LINE
8
BLACK
6
CONTINUOUS
10
5.49829
20
-3.47735
11
5.49875
21
-3.47774
0
LINE
8
BLACK
6
CONTINUOUS
10
5.49875
20
-3.47774
11
5.50671
21
-3.4857
0
LINE
8
BLACK
6
CONTINUOUS
10
5.50671
20
-3.4857
11
5.50781
21
-3.48785
0
LINE
8
BLACK
6
CONTINUOUS
10
5.50781
20
-3.48785
11
5.50785
21
-3.48846
0
LINE
8
BLACK
6
CONTINUOUS
10
5.50785
20
-3.48846
11
5.50785
21
-3.76493
0
LINE
8
BLACK
6
CONTINUOUS
10
5.50785
20
-3.76493
11
5.50711
21
-3.76722
0
LINE
8
BLACK
6
CONTINUOUS
10
5.50711
20
-3.76722
11
5.50516
21
-3.76863
0
LINE
8
BLACK
6
CONTINUOUS
10
5.50516
20
-3.76863
11
5.50275
21
-3.76863
0
LINE
8
BLACK
6
CONTINUOUS
10
5.50275
20
-3.76863
11
5.5008
21
-3.76722
0
LINE
8
BLACK
6
CONTINUOUS
10
5.5008
20
-3.76722
11
5.50051
21
-3.76674
0
LINE
8
BLACK
6
CONTINUOUS
10
5.50051
20
-3.76674
11
5.49888
21
-3.76364
0
LINE
8
BLACK
6
CONTINUOUS
10
5.49888
20
-3.76364
11
5.49888
21
-3.76364
0
LINE
8
BLACK
6
CONTINUOUS
10
5.49888
20
-3.76364
11
5.49444
21
-3.75863
0
LINE
8
BLACK
6
CONTINUOUS
10
5.49444
20
-3.75863
11
5.49444
21
-3.75863
0
LINE
8
BLACK
6
CONTINUOUS
10
5.49444
20
-3.75863
11
5.48893
21
-3.75483
0
LINE
8
BLACK
6
CONTINUOUS
10
5.48893
20
-3.75483
11
5.48893
21
-3.75483
0
LINE
8
BLACK
6
CONTINUOUS
10
5.48893
20
-3.75483
11
5.48268
21
-3.75245
0
LINE
8
BLACK
6
CONTINUOUS
10
5.48268
20
-3.75245
11
5.48268
21
-3.75245
0
LINE
8
BLACK
6
CONTINUOUS
10
5.48268
20
-3.75245
11
5.4777
21
-3.75185
0
LINE
8
BLACK
6
CONTINUOUS
10
5.4777
20
-3.75185
11
5.46635
21
-3.75185
0
LINE
8
BLACK
6
CONTINUOUS
10
5.46635
20
-3.75185
11
5.46635
21
-3.75185
0
LINE
8
BLACK
6
CONTINUOUS
10
5.46635
20
-3.75185
11
5.46635
21
-3.75972
0
LINE
8
BLACK
6
CONTINUOUS
10
5.46635
20
-3.75972
11
5.47603
21
-3.75972
0
LINE
8
BLACK
6
CONTINUOUS
10
5.47603
20
-3.75972
11
5.48158
21
-3.76052
0
LINE
8
BLACK
6
CONTINUOUS
10
5.48158
20
-3.76052
11
5.48667
21
-3.76285
0
LINE
8
BLACK
6
CONTINUOUS
10
5.48667
20
-3.76285
11
5.49091
21
-3.76652
0
LINE
8
BLACK
6
CONTINUOUS
10
5.49091
20
-3.76652
11
5.49394
21
-3.77123
0
LINE
8
BLACK
6
CONTINUOUS
10
5.49394
20
-3.77123
11
5.49552
21
-3.77661
0
LINE
8
BLACK
6
CONTINUOUS
10
5.49552
20
-3.77661
11
5.49552
21
-3.78221
0
LINE
8
BLACK
6
CONTINUOUS
10
5.49552
20
-3.78221
11
5.49394
21
-3.78759
0
LINE
8
BLACK
6
CONTINUOUS
10
5.49394
20
-3.78759
11
5.49091
21
-3.7923
0
LINE
8
BLACK
6
CONTINUOUS
10
5.49091
20
-3.7923
11
5.48667
21
-3.79597
0
LINE
8
BLACK
6
CONTINUOUS
10
5.48667
20
-3.79597
11
5.48158
21
-3.7983
0
LINE
8
BLACK
6
CONTINUOUS
10
5.48158
20
-3.7983
11
5.47603
21
-3.79909
0
LINE
8
BLACK
6
CONTINUOUS
10
5.47603
20
-3.79909
11
5.46635
21
-3.79909
0
LINE
8
BLACK
6
CONTINUOUS
10
5.46635
20
-3.79909
11
5.46635
21
-3.80697
0
LINE
8
BLACK
6
CONTINUOUS
10
5.46635
20
-3.80697
11
5.46635
21
-3.80697
0
LINE
8
BLACK
6
CONTINUOUS
10
5.46635
20
-3.80697
11
5.4777
21
-3.80697
0
LINE
8
BLACK
6
CONTINUOUS
10
5.4777
20
-3.80697
11
5.4777
21
-3.80697
0
LINE
8
BLACK
6
CONTINUOUS
10
5.4777
20
-3.80697
11
5.48268
21
-3.80636
0
LINE
8
BLACK
6
CONTINUOUS
10
5.48268
20
-3.80636
11
5.48268
21
-3.80636
0
LINE
8
BLACK
6
CONTINUOUS
10
5.48268
20
-3.80636
11
5.48893
21
-3.80399
0
LINE
8
BLACK
6
CONTINUOUS
10
5.48893
20
-3.80399
11
5.48893
21
-3.80399
0
LINE
8
BLACK
6
CONTINUOUS
10
5.48893
20
-3.80399
11
5.49444
21
-3.80019
0
LINE
8
BLACK
6
CONTINUOUS
10
5.49444
20
-3.80019
11
5.49444
21
-3.80019
0
LINE
8
BLACK
6
CONTINUOUS
10
5.49444
20
-3.80019
11
5.49888
21
-3.79518
0
LINE
8
BLACK
6
CONTINUOUS
10
5.49888
20
-3.79518
11
5.50051
21
-3.79208
0
LINE
8
BLACK
6
CONTINUOUS
10
5.50051
20
-3.79208
11
5.50223
21
-3.7904
0
LINE
8
BLACK
6
CONTINUOUS
10
5.50223
20
-3.7904
11
5.50461
21
-3.79005
0
LINE
8
BLACK
6
CONTINUOUS
10
5.50461
20
-3.79005
11
5.50675
21
-3.79117
0
LINE
8
BLACK
6
CONTINUOUS
10
5.50675
20
-3.79117
11
5.50781
21
-3.79333
0
LINE
8
BLACK
6
CONTINUOUS
10
5.50781
20
-3.79333
11
5.50785
21
-3.79389
0
LINE
8
BLACK
6
CONTINUOUS
10
5.50785
20
-3.79389
11
5.50785
21
-4.10508
0
LINE
8
BLACK
6
CONTINUOUS
10
5.50785
20
-4.10508
11
5.50711
21
-4.10738
0
LINE
8
BLACK
6
CONTINUOUS
10
5.50711
20
-4.10738
11
5.50516
21
-4.10879
0
LINE
8
BLACK
6
CONTINUOUS
10
5.50516
20
-4.10879
11
5.50275
21
-4.10879
0
LINE
8
BLACK
6
CONTINUOUS
10
5.50275
20
-4.10879
11
5.5008
21
-4.10738
0
LINE
8
BLACK
6
CONTINUOUS
10
5.5008
20
-4.10738
11
5.50051
21
-4.1069
0
LINE
8
BLACK
6
CONTINUOUS
10
5.50051
20
-4.1069
11
5.49888
21
-4.1038
0
LINE
8
BLACK
6
CONTINUOUS
10
5.49888
20
-4.1038
11
5.49888
21
-4.1038
0
LINE
8
BLACK
6
CONTINUOUS
10
5.49888
20
-4.1038
11
5.49444
21
-4.09879
0
LINE
8
BLACK
6
CONTINUOUS
10
5.49444
20
-4.09879
11
5.49444
21
-4.09879
0
LINE
8
BLACK
6
CONTINUOUS
10
5.49444
20
-4.09879
11
5.48893
21
-4.09499
0
LINE
8
BLACK
6
CONTINUOUS
10
5.48893
20
-4.09499
11
5.48893
21
-4.09499
0
LINE
8
BLACK
6
CONTINUOUS
10
5.48893
20
-4.09499
11
5.48268
21
-4.09261
0
LINE
8
BLACK
6
CONTINUOUS
10
5.48268
20
-4.09261
11
5.48268
21
-4.09261
0
LINE
8
BLACK
6
CONTINUOUS
10
5.48268
20
-4.09261
11
5.4777
21
-4.09201
0
LINE
8
BLACK
6
CONTINUOUS
10
5.4777
20
-4.09201
11
5.46635
21
-4.09201
0
LINE
8
BLACK
6
CONTINUOUS
10
5.46635
20
-4.09201
11
5.46635
21
-4.09201
0
LINE
8
BLACK
6
CONTINUOUS
10
5.46635
20
-4.09201
11
5.46635
21
-4.09988
0
LINE
8
BLACK
6
CONTINUOUS
10
5.46635
20
-4.09988
11
5.47603
21
-4.09988
0
LINE
8
BLACK
6
CONTINUOUS
10
5.47603
20
-4.09988
11
5.48158
21
-4.10068
0
LINE
8
BLACK
6
CONTINUOUS
10
5.48158
20
-4.10068
11
5.48667
21
-4.10301
0
LINE
8
BLACK
6
CONTINUOUS
10
5.48667
20
-4.10301
11
5.49091
21
-4.10668
0
LINE
8
BLACK
6
CONTINUOUS
10
5.49091
20
-4.10668
11
5.49394
21
-4.11139
0
LINE
8
BLACK
6
CONTINUOUS
10
5.49394
20
-4.11139
11
5.49552
21
-4.11677
0
LINE
8
BLACK
6
CONTINUOUS
10
5.49552
20
-4.11677
11
5.49552
21
-4.12237
0
LINE
8
BLACK
6
CONTINUOUS
10
5.49552
20
-4.12237
11
5.49394
21
-4.12774
0
LINE
8
BLACK
6
CONTINUOUS
10
5.49394
20
-4.12774
11
5.49091
21
-4.13246
0
LINE
8
BLACK
6
CONTINUOUS
10
5.49091
20
-4.13246
11
5.48667
21
-4.13613
0
LINE
8
BLACK
6
CONTINUOUS
10
5.48667
20
-4.13613
11
5.48158
21
-4.13845
0
LINE
8
BLACK
6
CONTINUOUS
10
5.48158
20
-4.13845
11
5.47603
21
-4.13925
0
LINE
8
BLACK
6
CONTINUOUS
10
5.47603
20
-4.13925
11
5.46635
21
-4.13925
0
LINE
8
BLACK
6
CONTINUOUS
10
5.46635
20
-4.13925
11
5.46635
21
-4.14713
0
LINE
8
BLACK
6
CONTINUOUS
10
5.46635
20
-4.14713
11
5.46635
21
-4.14713
0
LINE
8
BLACK
6
CONTINUOUS
10
5.46635
20
-4.14713
11
5.4777
21
-4.14713
0
LINE
8
BLACK
6
CONTINUOUS
10
5.4777
20
-4.14713
11
5.4777
21
-4.14713
0
LINE
8
BLACK
6
CONTINUOUS
10
5.4777
20
-4.14713
11
5.48268
21
-4.14652
0
LINE
8
BLACK
6
CONTINUOUS
10
5.48268
20
-4.14652
11
5.48268
21
-4.14652
0
LINE
8
BLACK
6
CONTINUOUS
10
5.48268
20
-4.14652
11
5.48893
21
-4.14415
0
LINE
8
BLACK
6
CONTINUOUS
10
5.48893
20
-4.14415
11
5.48893
21
-4.14415
0
LINE
8
BLACK
6
CONTINUOUS
10
5.48893
20
-4.14415
11
5.49444
21
-4.14035
0
LINE
8
BLACK
6
CONTINUOUS
10
5.49444
20
-4.14035
11
5.49444
21
-4.14035
0
LINE
8
BLACK
6
CONTINUOUS
10
5.49444
20
-4.14035
11
5.49888
21
-4.13534
0
LINE
8
BLACK
6
CONTINUOUS
10
5.49888
20
-4.13534
11
5.50051
21
-4.13224
0
LINE
8
BLACK
6
CONTINUOUS
10
5.50051
20
-4.13224
11
5.50223
21
-4.13056
0
LINE
8
BLACK
6
CONTINUOUS
10
5.50223
20
-4.13056
11
5.50461
21
-4.13021
0
LINE
8
BLACK
6
CONTINUOUS
10
5.50461
20
-4.13021
11
5.50675
21
-4.13133
0
LINE
8
BLACK
6
CONTINUOUS
10
5.50675
20
-4.13133
11
5.50781
21
-4.13349
0
LINE
8
BLACK
6
CONTINUOUS
10
5.50781
20
-4.13349
11
5.50785
21
-4.13405
0
LINE
8
BLACK
6
CONTINUOUS
10
5.50785
20
-4.13405
11
5.50785
21
-4.14972
0
LINE
8
BLACK
6
CONTINUOUS
10
5.50785
20
-4.14972
11
5.50711
21
-4.15201
0
LINE
8
BLACK
6
CONTINUOUS
10
5.50711
20
-4.15201
11
5.50682
21
-4.15235
0
LINE
8
BLACK
6
CONTINUOUS
10
5.50682
20
-4.15235
11
5.50297
21
-4.15737
0
LINE
8
BLACK
6
CONTINUOUS
10
5.50297
20
-4.15737
11
5.50297
21
-4.15737
0
LINE
8
BLACK
6
CONTINUOUS
10
5.50297
20
-4.15737
11
5.50059
21
-4.16312
0
LINE
8
BLACK
6
CONTINUOUS
10
5.50059
20
-4.16312
11
5.50059
21
-4.16312
0
LINE
8
BLACK
6
CONTINUOUS
10
5.50059
20
-4.16312
11
5.49978
21
-4.16929
0
LINE
8
BLACK
6
CONTINUOUS
10
5.49978
20
-4.16929
11
5.49978
21
-4.16929
0
LINE
8
BLACK
6
CONTINUOUS
10
5.49978
20
-4.16929
11
5.50059
21
-4.17546
0
LINE
8
BLACK
6
CONTINUOUS
10
5.50059
20
-4.17546
11
5.50059
21
-4.17546
0
LINE
8
BLACK
6
CONTINUOUS
10
5.50059
20
-4.17546
11
5.50297
21
-4.18121
0
LINE
8
BLACK
6
CONTINUOUS
10
5.50297
20
-4.18121
11
5.50297
21
-4.18121
0
LINE
8
BLACK
6
CONTINUOUS
10
5.50297
20
-4.18121
11
5.50582
21
-4.18493
0
LINE
8
BLACK
6
CONTINUOUS
10
5.50582
20
-4.18493
11
5.50676
21
-4.18615
0
LINE
8
BLACK
6
CONTINUOUS
10
5.50676
20
-4.18615
11
5.5117
21
-4.18994
0
LINE
8
BLACK
6
CONTINUOUS
10
5.5117
20
-4.18994
11
5.5117
21
-4.18994
0
LINE
8
BLACK
6
CONTINUOUS
10
5.5117
20
-4.18994
11
5.5117
21
-4.18994
0
LINE
8
BLACK
6
CONTINUOUS
10
5.5117
20
-4.18994
11
5.51423
21
-4.19099
0
LINE
8
BLACK
6
CONTINUOUS
10
5.51423
20
-4.19099
11
5.51745
21
-4.19232
0
LINE
8
BLACK
6
CONTINUOUS
10
5.51745
20
-4.19232
11
5.52192
21
-4.19291
0
LINE
8
BLACK
6
CONTINUOUS
10
5.52192
20
-4.19291
11
5.52362
21
-4.19314
0
LINE
8
BLACK
6
CONTINUOUS
10
5.52362
20
-4.19314
11
5.52362
21
-4.19314
0
LINE
8
BLACK
6
CONTINUOUS
10
5.52362
20
-4.19314
11
5.52362
21
-4.19314
0
LINE
8
BLACK
6
CONTINUOUS
10
5.52362
20
-4.19314
11
5.52486
21
-4.19297
0
LINE
8
BLACK
6
CONTINUOUS
10
5.52486
20
-4.19297
11
5.52979
21
-4.19232
0
LINE
8
BLACK
6
CONTINUOUS
10
5.52979
20
-4.19232
11
5.53554
21
-4.18994
0
LINE
8
BLACK
6
CONTINUOUS
10
5.53554
20
-4.18994
11
5.54048
21
-4.18615
0
LINE
8
BLACK
6
CONTINUOUS
10
5.54048
20
-4.18615
11
5.54427
21
-4.18121
0
LINE
8
BLACK
6
CONTINUOUS
10
5.54427
20
-4.18121
11
5.54666
21
-4.17546
0
LINE
8
BLACK
6
CONTINUOUS
10
5.54666
20
-4.17546
11
5.54747
21
-4.16929
0
LINE
8
BLACK
6
CONTINUOUS
10
5.54747
20
-4.16929
11
5.54666
21
-4.16312
0
LINE
8
BLACK
6
CONTINUOUS
10
5.54666
20
-4.16312
11
5.54427
21
-4.15737
0
LINE
8
BLACK
6
CONTINUOUS
10
5.54427
20
-4.15737
11
5.54427
21
-4.15737
0
LINE
8
BLACK
6
CONTINUOUS
10
5.54427
20
-4.15737
11
5.54033
21
-4.15223
0
LINE
8
BLACK
6
CONTINUOUS
10
5.54033
20
-4.15223
11
5.54038
21
-4.15219
0
LINE
8
BLACK
6
CONTINUOUS
10
5.54038
20
-4.15219
11
5.53944
21
-4.15033
0
LINE
8
BLACK
6
CONTINUOUS
10
5.53944
20
-4.15033
11
5.53939
21
-4.14972
0
LINE
8
BLACK
6
CONTINUOUS
10
5.53939
20
-4.14972
11
5.53939
21
-4.14811
0
LINE
8
BLACK
6
CONTINUOUS
10
5.53939
20
-4.14811
11
5.53939
21
-4.12124
0
LINE
8
BLACK
6
CONTINUOUS
10
5.53939
20
-4.12124
11
5.53939
21
-4.09102
0
LINE
8
BLACK
6
CONTINUOUS
10
5.53939
20
-4.09102
11
5.53939
21
-4.06553
0
LINE
8
BLACK
6
CONTINUOUS
10
5.53939
20
-4.06553
11
5.53939
21
-3.96915
0
LINE
8
BLACK
6
CONTINUOUS
10
5.53939
20
-3.96915
11
5.53939
21
-3.83804
0
LINE
8
BLACK
6
CONTINUOUS
10
5.53939
20
-3.83804
11
5.53939
21
-3.80795
0
LINE
8
BLACK
6
CONTINUOUS
10
5.53939
20
-3.80795
11
5.53939
21
-3.78108
0
LINE
8
BLACK
6
CONTINUOUS
10
5.53939
20
-3.78108
11
5.53939
21
-3.75087
0
LINE
8
BLACK
6
CONTINUOUS
10
5.53939
20
-3.75087
11
5.53939
21
-3.67
0
LINE
8
BLACK
6
CONTINUOUS
10
5.53939
20
-3.67
11
5.53939
21
-3.51969
0
LINE
8
BLACK
6
CONTINUOUS
10
5.53939
20
-3.51969
11
5.53939
21
-3.479
0
LINE
8
BLACK
6
CONTINUOUS
10
5.53939
20
-3.479
11
5.53939
21
-3.479
0
LINE
8
BLACK
6
CONTINUOUS
10
5.53939
20
-3.479
11
5.53939
21
-3.47782
0
LINE
8
BLACK
6
CONTINUOUS
10
5.53939
20
-3.47782
11
5.53939
21
-3.47782
0
LINE
8
BLACK
6
CONTINUOUS
10
5.53939
20
-3.47782
11
5.5391
21
-3.47691
0
LINE
8
BLACK
6
CONTINUOUS
10
5.5391
20
-3.47691
11
5.53895
21
-3.47632
0
LINE
8
BLACK
6
CONTINUOUS
10
5.53895
20
-3.47632
11
5.5388
21
-3.47538
0
LINE
8
BLACK
6
CONTINUOUS
10
5.5388
20
-3.47538
11
5.5388
21
-3.47538
0
LINE
8
BLACK
6
CONTINUOUS
10
5.5388
20
-3.47538
11
5.53837
21
-3.47454
0
LINE
8
BLACK
6
CONTINUOUS
10
5.53837
20
-3.47454
11
5.53814
21
-3.47397
0
LINE
8
BLACK
6
CONTINUOUS
10
5.53814
20
-3.47397
11
5.53785
21
-3.47307
0
LINE
8
BLACK
6
CONTINUOUS
10
5.53785
20
-3.47307
11
5.53785
21
-3.47307
0
LINE
8
BLACK
6
CONTINUOUS
10
5.53785
20
-3.47307
11
5.53785
21
-3.47307
0
LINE
8
BLACK
6
CONTINUOUS
10
5.53785
20
-3.47307
11
5.53729
21
-3.4723
0
LINE
8
BLACK
6
CONTINUOUS
10
5.53729
20
-3.4723
11
5.53697
21
-3.47178
0
LINE
8
BLACK
6
CONTINUOUS
10
5.53697
20
-3.47178
11
5.53654
21
-3.47093
0
LINE
8
BLACK
6
CONTINUOUS
10
5.53654
20
-3.47093
11
5.53654
21
-3.47093
0
LINE
8
BLACK
6
CONTINUOUS
10
5.53654
20
-3.47093
11
5.53301
21
-3.4674
0
LINE
8
BLACK
6
CONTINUOUS
10
5.53301
20
-3.4674
11
5.52671
21
-3.46111
0
LINE
8
BLACK
6
CONTINUOUS
10
5.52671
20
-3.46111
11
5.52105
21
-3.45544
0
LINE
8
BLACK
6
CONTINUOUS
10
5.52105
20
-3.45544
11
5.51996
21
-3.4533
0
LINE
8
BLACK
6
CONTINUOUS
10
5.51996
20
-3.4533
11
5.51992
21
-3.45286
0
LINE
8
BLACK
6
CONTINUOUS
10
5.51992
20
-3.45286
11
5.5191
21
-3.44658
0
LINE
8
BLACK
6
CONTINUOUS
10
5.5191
20
-3.44658
11
5.5191
21
-3.44658
0
LINE
8
BLACK
6
CONTINUOUS
10
5.5191
20
-3.44658
11
5.51671
21
-3.44083
0
LINE
8
BLACK
6
CONTINUOUS
10
5.51671
20
-3.44083
11
5.51671
21
-3.44083
0
LINE
8
BLACK
6
CONTINUOUS
10
5.51671
20
-3.44083
11
5.51292
21
-3.43589
0
LINE
8
BLACK
6
CONTINUOUS
10
5.51292
20
-3.43589
11
5.51292
21
-3.43589
0
LINE
8
BLACK
6
CONTINUOUS
10
5.51292
20
-3.43589
11
5.51292
21
-3.43589
0
LINE
8
BLACK
6
CONTINUOUS
10
5.51292
20
-3.43589
11
5.51292
21
-3.43589
0
LINE
8
BLACK
6
CONTINUOUS
10
5.51292
20
-3.43589
11
5.51292
21
-3.43589
0
LINE
8
BLACK
6
CONTINUOUS
10
5.51292
20
-3.43589
11
5.50799
21
-3.4321
0
LINE
8
BLACK
6
CONTINUOUS
10
5.50799
20
-3.4321
11
5.50223
21
-3.42972
0
LINE
8
BLACK
6
CONTINUOUS
10
5.50223
20
-3.42972
11
5.50223
21
-3.42972
0
LINE
8
BLACK
6
CONTINUOUS
10
5.50223
20
-3.42972
11
5.49606
21
-3.42891
0
LINE
8
BLACK
6
CONTINUOUS
10
5.49606
20
-3.42891
11
5.49606
21
-3.42891
0
LINE
8
BLACK
6
CONTINUOUS
10
5.49606
20
-3.42891
11
5.48989
21
-3.42972
0
LINE
8
BLACK
6
CONTINUOUS
10
6.35886
20
-3.66759
11
6.35886
21
-3.66759
0
LINE
8
BLACK
6
CONTINUOUS
10
6.35886
20
-3.66759
11
6.36124
21
-3.67334
0
LINE
8
BLACK
6
CONTINUOUS
10
6.36124
20
-3.67334
11
6.36124
21
-3.67334
0
LINE
8
BLACK
6
CONTINUOUS
10
6.36124
20
-3.67334
11
6.36503
21
-3.67828
0
LINE
8
BLACK
6
CONTINUOUS
10
6.36503
20
-3.67828
11
6.36503
21
-3.67828
0
LINE
8
BLACK
6
CONTINUOUS
10
6.36503
20
-3.67828
11
6.36503
21
-3.67828
0
LINE
8
BLACK
6
CONTINUOUS
10
6.36503
20
-3.67828
11
6.36657
21
-3.67946
0
LINE
8
BLACK
6
CONTINUOUS
10
6.36657
20
-3.67946
11
6.36793
21
-3.68144
0
LINE
8
BLACK
6
CONTINUOUS
10
6.36793
20
-3.68144
11
6.36809
21
-3.68255
0
LINE
8
BLACK
6
CONTINUOUS
10
6.36809
20
-3.68255
11
6.36809
21
-4.31706
0
LINE
8
BLACK
6
CONTINUOUS
10
6.36809
20
-4.31706
11
6.36801
21
-4.31786
0
LINE
8
BLACK
6
CONTINUOUS
10
6.36801
20
-4.31786
11
6.36791
21
-4.31832
0
LINE
8
BLACK
6
CONTINUOUS
10
6.36791
20
-4.31832
11
6.36808
21
-4.31963
0
LINE
8
BLACK
6
CONTINUOUS
10
6.36808
20
-4.31963
11
6.36809
21
-4.31988
0
LINE
8
BLACK
6
CONTINUOUS
10
6.36809
20
-4.31988
11
6.36809
21
-4.32004
0
LINE
8
BLACK
6
CONTINUOUS
10
6.36809
20
-4.32004
11
6.36823
21
-4.32089
0
LINE
8
BLACK
6
CONTINUOUS
10
6.36823
20
-4.32089
11
6.36848
21
-4.32289
0
LINE
8
BLACK
6
CONTINUOUS
10
6.36848
20
-4.32289
11
6.36856
21
-4.32317
0
LINE
8
BLACK
6
CONTINUOUS
10
6.36856
20
-4.32317
11
6.36866
21
-4.32344
0
LINE
8
BLACK
6
CONTINUOUS
10
6.36866
20
-4.32344
11
6.36962
21
-4.32521
0
LINE
8
BLACK
6
CONTINUOUS
10
6.36962
20
-4.32521
11
6.3705
21
-4.32703
0
LINE
8
BLACK
6
CONTINUOUS
10
6.3705
20
-4.32703
11
6.37067
21
-4.32726
0
LINE
8
BLACK
6
CONTINUOUS
10
6.37067
20
-4.32726
11
6.37085
21
-4.32749
0
LINE
8
BLACK
6
CONTINUOUS
10
6.37085
20
-4.32749
11
6.37233
21
-4.32886
0
LINE
8
BLACK
6
CONTINUOUS
10
6.37233
20
-4.32886
11
6.37294
21
-4.32946
0
LINE
8
BLACK
6
CONTINUOUS
10
6.37294
20
-4.32946
11
6.37403
21
-4.33161
0
LINE
8
BLACK
6
CONTINUOUS
10
6.37403
20
-4.33161
11
6.37404
21
-4.33272
0
LINE
8
BLACK
6
CONTINUOUS
10
6.37404
20
-4.33272
11
6.37379
21
-4.33465
0
LINE
8
BLACK
6
CONTINUOUS
10
6.37379
20
-4.33465
11
6.37379
21
-4.33465
0
LINE
8
BLACK
6
CONTINUOUS
10
6.37379
20
-4.33465
11
6.3746
21
-4.34082
0
LINE
8
BLACK
6
CONTINUOUS
10
6.3746
20
-4.34082
11
6.3746
21
-4.34082
0
LINE
8
BLACK
6
CONTINUOUS
10
6.3746
20
-4.34082
11
6.37699
21
-4.34657
0
LINE
8
BLACK
6
CONTINUOUS
10
6.37699
20
-4.34657
11
6.37699
21
-4.34657
0
LINE
8
BLACK
6
CONTINUOUS
10
6.37699
20
-4.34657
11
6.37699
21
-4.34657
0
LINE
8
BLACK
6
CONTINUOUS
10
6.37699
20
-4.34657
11
6.38078
21
-4.35151
0
LINE
8
BLACK
6
CONTINUOUS
10
6.38078
20
-4.35151
11
6.38571
21
-4.3553
0
LINE
8
BLACK
6
CONTINUOUS
10
6.38571
20
-4.3553
11
6.39147
21
-4.35768
0
LINE
8
BLACK
6
CONTINUOUS
10
6.39147
20
-4.35768
11
6.39609
21
-4.35829
0
LINE
8
BLACK
6
CONTINUOUS
10
6.39609
20
-4.35829
11
6.39764
21
-4.35849
0
LINE
8
BLACK
6
CONTINUOUS
10
6.39764
20
-4.35849
11
6.39764
21
-4.35849
0
LINE
8
BLACK
6
CONTINUOUS
10
6.39764
20
-4.35849
11
6.39764
21
-4.35849
0
LINE
8
BLACK
6
CONTINUOUS
10
6.39764
20
-4.35849
11
6.39887
21
-4.35833
0
LINE
8
BLACK
6
CONTINUOUS
10
6.39887
20
-4.35833
11
6.40381
21
-4.35768
0
LINE
8
BLACK
6
CONTINUOUS
10
6.40381
20
-4.35768
11
6.40956
21
-4.3553
0
LINE
8
BLACK
6
CONTINUOUS
10
6.40956
20
-4.3553
11
6.4145
21
-4.35151
0
LINE
8
BLACK
6
CONTINUOUS
10
6.4145
20
-4.35151
11
6.41829
21
-4.34657
0
LINE
8
BLACK
6
CONTINUOUS
10
6.41829
20
-4.34657
11
6.42067
21
-4.34082
0
LINE
8
BLACK
6
CONTINUOUS
10
6.42067
20
-4.34082
11
6.42148
21
-4.33465
0
LINE
8
BLACK
6
CONTINUOUS
10
6.42148
20
-4.33465
11
6.42067
21
-4.32847
0
LINE
8
BLACK
6
CONTINUOUS
10
6.42067
20
-4.32847
11
6.41859
21
-4.32344
0
LINE
8
BLACK
6
CONTINUOUS
10
6.41859
20
-4.32344
11
6.41829
21
-4.32272
0
LINE
8
BLACK
6
CONTINUOUS
10
6.41829
20
-4.32272
11
6.41829
21
-4.32272
0
LINE
8
BLACK
6
CONTINUOUS
10
6.41829
20
-4.32272
11
6.4145
21
-4.31778
0
LINE
8
BLACK
6
CONTINUOUS
10
6.4145
20
-4.31778
11
6.4145
21
-4.31778
0
LINE
8
BLACK
6
CONTINUOUS
10
6.4145
20
-4.31778
11
6.4145
21
-4.31778
0
LINE
8
BLACK
6
CONTINUOUS
10
6.4145
20
-4.31778
11
6.4145
21
-4.31778
0
LINE
8
BLACK
6
CONTINUOUS
10
6.4145
20
-4.31778
11
6.4145
21
-4.31778
0
LINE
8
BLACK
6
CONTINUOUS
10
6.4145
20
-4.31778
11
6.40956
21
-4.31399
0
LINE
8
BLACK
6
CONTINUOUS
10
6.40956
20
-4.31399
11
6.40381
21
-4.31161
0
LINE
8
BLACK
6
CONTINUOUS
10
6.40381
20
-4.31161
11
6.40381
21
-4.31161
0
LINE
8
BLACK
6
CONTINUOUS
10
6.40381
20
-4.31161
11
6.39908
21
-4.31099
0
LINE
8
BLACK
6
CONTINUOUS
10
6.39908
20
-4.31099
11
6.3969
21
-4.30995
0
LINE
8
BLACK
6
CONTINUOUS
10
6.3969
20
-4.30995
11
6.39575
21
-4.30784
0
LINE
8
BLACK
6
CONTINUOUS
10
6.39575
20
-4.30784
11
6.39569
21
-4.30713
0
LINE
8
BLACK
6
CONTINUOUS
10
6.39569
20
-4.30713
11
6.39569
21
-3.68255
0
LINE
8
BLACK
6
CONTINUOUS
10
6.39569
20
-3.68255
11
6.39643
21
-3.68026
0
LINE
8
BLACK
6
CONTINUOUS
10
6.39643
20
-3.68026
11
6.39721
21
-3.67946
0
LINE
8
BLACK
6
CONTINUOUS
10
6.39721
20
-3.67946
11
6.39875
21
-3.67828
0
LINE
8
BLACK
6
CONTINUOUS
10
6.39875
20
-3.67828
11
6.40254
21
-3.67334
0
LINE
8
BLACK
6
CONTINUOUS
10
6.40254
20
-3.67334
11
6.40492
21
-3.66759
0
LINE
8
BLACK
6
CONTINUOUS
10
6.40492
20
-3.66759
11
6.40574
21
-3.66142
0
LINE
8
BLACK
6
CONTINUOUS
10
6.40574
20
-3.66142
11
6.40492
21
-3.65525
0
LINE
8
BLACK
6
CONTINUOUS
10
6.40492
20
-3.65525
11
6.40254
21
-3.64949
0
LINE
8
BLACK
6
CONTINUOUS
10
6.40254
20
-3.64949
11
6.40254
21
-3.64949
0
LINE
8
BLACK
6
CONTINUOUS
10
6.40254
20
-3.64949
11
6.39875
21
-3.64456
0
LINE
8
BLACK
6
CONTINUOUS
10
6.39875
20
-3.64456
11
6.39875
21
-3.64456
0
LINE
8
BLACK
6
CONTINUOUS
10
6.39875
20
-3.64456
11
6.39875
21
-3.64456
0
LINE
8
BLACK
6
CONTINUOUS
10
6.39875
20
-3.64456
11
6.39875
21
-3.64456
0
LINE
8
BLACK
6
CONTINUOUS
10
6.39875
20
-3.64456
11
6.39875
21
-3.64456
0
LINE
8
BLACK
6
CONTINUOUS
10
6.39875
20
-3.64456
11
6.39381
21
-3.64077
0
LINE
8
BLACK
6
CONTINUOUS
10
6.39381
20
-3.64077
11
6.38806
21
-3.63838
0
LINE
8
BLACK
6
CONTINUOUS
10
6.38806
20
-3.63838
11
6.38806
21
-3.63838
0
LINE
8
BLACK
6
CONTINUOUS
10
6.38806
20
-3.63838
11
6.38189
21
-3.63757
0
LINE
8
BLACK
6
CONTINUOUS
10
6.38189
20
-3.63757
11
6.38189
21
-3.63757
0
LINE
8
BLACK
6
CONTINUOUS
10
6.38189
20
-3.63757
11
6.37572
21
-3.63838
0
LINE
8
BLACK
6
CONTINUOUS
10
6.37572
20
-3.63838
11
6.37572
21
-3.63838
0
LINE
8
BLACK
6
CONTINUOUS
10
6.37572
20
-3.63838
11
6.36997
21
-3.64077
0
LINE
8
BLACK
6
CONTINUOUS
10
6.36997
20
-3.64077
11
6.36997
21
-3.64077
0
LINE
8
BLACK
6
CONTINUOUS
10
6.36997
20
-3.64077
11
6.36503
21
-3.64456
0
LINE
8
BLACK
6
CONTINUOUS
10
6.36503
20
-3.64456
11
6.36503
21
-3.64456
0
LINE
8
BLACK
6
CONTINUOUS
10
6.36503
20
-3.64456
11
6.36124
21
-3.64949
0
LINE
8
BLACK
6
CONTINUOUS
10
6.36124
20
-3.64949
11
6.36124
21
-3.64949
0
LINE
8
BLACK
6
CONTINUOUS
10
6.36124
20
-3.64949
11
6.35886
21
-3.65525
0
LINE
8
BLACK
6
CONTINUOUS
10
6.35886
20
-3.65525
11
6.35886
21
-3.65525
0
LINE
8
BLACK
6
CONTINUOUS
10
6.35886
20
-3.65525
11
6.35804
21
-3.66142
0
LINE
8
BLACK
6
CONTINUOUS
10
6.35804
20
-3.66142
11
6.35804
21
-3.66142
0
LINE
8
BLACK
6
CONTINUOUS
10
6.35804
20
-3.66142
11
6.35886
21
-3.66759
0
LINE
8
BLACK
6
CONTINUOUS
10
6.02027
20
-4.20744
11
6.02264
21
-4.2137
0
LINE
8
BLACK
6
CONTINUOUS
10
6.02264
20
-4.2137
11
6.02645
21
-4.21921
0
LINE
8
BLACK
6
CONTINUOUS
10
6.02645
20
-4.21921
11
6.02645
21
-4.21921
0
LINE
8
BLACK
6
CONTINUOUS
10
6.02645
20
-4.21921
11
6.02812
21
-4.22069
0
LINE
8
BLACK
6
CONTINUOUS
10
6.02812
20
-4.22069
11
6.03146
21
-4.22365
0
LINE
8
BLACK
6
CONTINUOUS
10
6.03146
20
-4.22365
11
6.03739
21
-4.22676
0
LINE
8
BLACK
6
CONTINUOUS
10
6.03739
20
-4.22676
11
6.0439
21
-4.22837
0
LINE
8
BLACK
6
CONTINUOUS
10
6.0439
20
-4.22837
11
6.0439
21
-4.22837
0
LINE
8
BLACK
6
CONTINUOUS
10
6.0439
20
-4.22837
11
6.05059
21
-4.22837
0
LINE
8
BLACK
6
CONTINUOUS
10
6.05059
20
-4.22837
11
6.05059
21
-4.22837
0
LINE
8
BLACK
6
CONTINUOUS
10
6.05059
20
-4.22837
11
6.0571
21
-4.22676
0
LINE
8
BLACK
6
CONTINUOUS
10
6.0571
20
-4.22676
11
6.06303
21
-4.22365
0
LINE
8
BLACK
6
CONTINUOUS
10
6.06303
20
-4.22365
11
6.06804
21
-4.21921
0
LINE
8
BLACK
6
CONTINUOUS
10
6.06804
20
-4.21921
11
6.07184
21
-4.2137
0
LINE
8
BLACK
6
CONTINUOUS
10
6.07184
20
-4.2137
11
6.07422
21
-4.20744
0
LINE
8
BLACK
6
CONTINUOUS
10
6.07422
20
-4.20744
11
6.07503
21
-4.20079
0
LINE
8
BLACK
6
CONTINUOUS
10
6.07503
20
-4.20079
11
6.07436
21
-4.1953
0
LINE
8
BLACK
6
CONTINUOUS
10
6.07436
20
-4.1953
11
6.07482
21
-4.19294
0
LINE
8
BLACK
6
CONTINUOUS
10
6.07482
20
-4.19294
11
6.07547
21
-4.19207
0
LINE
8
BLACK
6
CONTINUOUS
10
6.07547
20
-4.19207
11
6.18169
21
-4.08586
0
LINE
8
BLACK
6
CONTINUOUS
10
6.18169
20
-4.08586
11
6.18231
21
-4.08535
0
LINE
8
BLACK
6
CONTINUOUS
10
6.18231
20
-4.08535
11
6.1827
21
-4.0851
0
LINE
8
BLACK
6
CONTINUOUS
10
6.1827
20
-4.0851
11
6.18352
21
-4.08405
0
LINE
8
BLACK
6
CONTINUOUS
10
6.18352
20
-4.08405
11
6.18368
21
-4.08387
0
LINE
8
BLACK
6
CONTINUOUS
10
6.18368
20
-4.08387
11
6.18379
21
-4.08375
0
LINE
8
BLACK
6
CONTINUOUS
10
6.18379
20
-4.08375
11
6.18429
21
-4.08305
0
LINE
8
BLACK
6
CONTINUOUS
10
6.18429
20
-4.08305
11
6.18553
21
-4.08146
0
LINE
8
BLACK
6
CONTINUOUS
10
6.18553
20
-4.08146
11
6.18553
21
-4.08146
0
LINE
8
BLACK
6
CONTINUOUS
10
6.18553
20
-4.08146
11
6.18567
21
-4.08121
0
LINE
8
BLACK
6
CONTINUOUS
10
6.18567
20
-4.08121
11
6.1858
21
-4.08095
0
LINE
8
BLACK
6
CONTINUOUS
10
6.1858
20
-4.08095
11
6.1858
21
-4.08095
0
LINE
8
BLACK
6
CONTINUOUS
10
6.1858
20
-4.08095
11
6.1858
21
-4.08095
0
LINE
8
BLACK
6
CONTINUOUS
10
6.1858
20
-4.08095
11
6.18637
21
-4.07901
0
LINE
8
BLACK
6
CONTINUOUS
10
6.18637
20
-4.07901
11
6.18703
21
-4.07711
0
LINE
8
BLACK
6
CONTINUOUS
10
6.18703
20
-4.07711
11
6.18703
21
-4.07711
0
LINE
8
BLACK
6
CONTINUOUS
10
6.18703
20
-4.07711
11
6.18708
21
-4.07682
0
LINE
8
BLACK
6
CONTINUOUS
10
6.18708
20
-4.07682
11
6.18711
21
-4.07653
0
LINE
8
BLACK
6
CONTINUOUS
10
6.18711
20
-4.07653
11
6.18703
21
-4.07452
0
LINE
8
BLACK
6
CONTINUOUS
10
6.18703
20
-4.07452
11
6.18703
21
-3.96995
0
LINE
8
BLACK
6
CONTINUOUS
10
6.18703
20
-3.96995
11
6.18777
21
-3.96766
0
LINE
8
BLACK
6
CONTINUOUS
10
6.18777
20
-3.96766
11
6.18855
21
-3.96686
0
LINE
8
BLACK
6
CONTINUOUS
10
6.18855
20
-3.96686
11
6.19009
21
-3.96568
0
LINE
8
BLACK
6
CONTINUOUS
10
6.19009
20
-3.96568
11
6.19388
21
-3.96074
0
LINE
8
BLACK
6
CONTINUOUS
10
6.19388
20
-3.96074
11
6.19524
21
-3.95746
0
LINE
8
BLACK
6
CONTINUOUS
10
6.19524
20
-3.95746
11
6.1968
21
-3.95563
0
LINE
8
BLACK
6
CONTINUOUS
10
6.1968
20
-3.95563
11
6.19914
21
-3.95507
0
LINE
8
BLACK
6
CONTINUOUS
10
6.19914
20
-3.95507
11
6.20137
21
-3.95599
0
LINE
8
BLACK
6
CONTINUOUS
10
6.20137
20
-3.95599
11
6.20263
21
-3.95804
0
LINE
8
BLACK
6
CONTINUOUS
10
6.20263
20
-3.95804
11
6.20274
21
-3.95895
0
LINE
8
BLACK
6
CONTINUOUS
10
6.20274
20
-3.95895
11
6.20274
21
-4.13202
0
LINE
8
BLACK
6
CONTINUOUS
10
6.20274
20
-4.13202
11
6.20265
21
-4.13282
0
LINE
8
BLACK
6
CONTINUOUS
10
6.20265
20
-4.13282
11
6.20256
21
-4.13328
0
LINE
8
BLACK
6
CONTINUOUS
10
6.20256
20
-4.13328
11
6.20272
21
-4.13459
0
LINE
8
BLACK
6
CONTINUOUS
10
6.20272
20
-4.13459
11
6.20274
21
-4.13484
0
LINE
8
BLACK
6
CONTINUOUS
10
6.20274
20
-4.13484
11
6.20274
21
-4.135
0
LINE
8
BLACK
6
CONTINUOUS
10
6.20274
20
-4.135
11
6.2028
21
-4.13537
0
LINE
8
BLACK
6
CONTINUOUS
10
6.2028
20
-4.13537
11
6.20288
21
-4.13585
0
LINE
8
BLACK
6
CONTINUOUS
10
6.20288
20
-4.13585
11
6.20313
21
-4.13785
0
LINE
8
BLACK
6
CONTINUOUS
10
6.20313
20
-4.13785
11
6.20321
21
-4.13813
0
LINE
8
BLACK
6
CONTINUOUS
10
6.20321
20
-4.13813
11
6.2033
21
-4.1384
0
LINE
8
BLACK
6
CONTINUOUS
10
6.2033
20
-4.1384
11
6.20426
21
-4.14017
0
LINE
8
BLACK
6
CONTINUOUS
10
6.20426
20
-4.14017
11
6.20515
21
-4.14199
0
LINE
8
BLACK
6
CONTINUOUS
10
6.20515
20
-4.14199
11
6.20532
21
-4.14222
0
LINE
8
BLACK
6
CONTINUOUS
10
6.20532
20
-4.14222
11
6.2055
21
-4.14245
0
LINE
8
BLACK
6
CONTINUOUS
10
6.2055
20
-4.14245
11
6.20592
21
-4.14284
0
LINE
8
BLACK
6
CONTINUOUS
10
6.20592
20
-4.14284
11
6.2071
21
-4.14494
0
LINE
8
BLACK
6
CONTINUOUS
10
6.2071
20
-4.14494
11
6.20682
21
-4.14733
0
LINE
8
BLACK
6
CONTINUOUS
10
6.20682
20
-4.14733
11
6.20604
21
-4.14847
0
LINE
8
BLACK
6
CONTINUOUS
10
6.20604
20
-4.14847
11
6.15291
21
-4.20159
0
LINE
8
BLACK
6
CONTINUOUS
10
6.15291
20
-4.20159
11
6.15076
21
-4.20269
0
LINE
8
BLACK
6
CONTINUOUS
10
6.15076
20
-4.20269
11
6.15015
21
-4.20274
0
LINE
8
BLACK
6
CONTINUOUS
10
6.15015
20
-4.20274
11
6.13137
21
-4.20274
0
LINE
8
BLACK
6
CONTINUOUS
10
6.13137
20
-4.20274
11
6.12908
21
-4.20199
0
LINE
8
BLACK
6
CONTINUOUS
10
6.12908
20
-4.20199
11
6.12828
21
-4.20121
0
LINE
8
BLACK
6
CONTINUOUS
10
6.12828
20
-4.20121
11
6.1271
21
-4.19967
0
LINE
8
BLACK
6
CONTINUOUS
10
6.1271
20
-4.19967
11
6.1271
21
-4.19967
0
LINE
8
BLACK
6
CONTINUOUS
10
6.1271
20
-4.19967
11
6.1271
21
-4.19967
0
LINE
8
BLACK
6
CONTINUOUS
10
6.1271
20
-4.19967
11
6.1271
21
-4.19967
0
LINE
8
BLACK
6
CONTINUOUS
10
6.1271
20
-4.19967
11
6.12216
21
-4.19588
0
LINE
8
BLACK
6
CONTINUOUS
10
6.12216
20
-4.19588
11
6.11641
21
-4.1935
0
LINE
8
BLACK
6
CONTINUOUS
10
6.11641
20
-4.1935
11
6.11641
21
-4.1935
0
LINE
8
BLACK
6
CONTINUOUS
10
6.11641
20
-4.1935
11
6.11024
21
-4.19269
0
LINE
8
BLACK
6
CONTINUOUS
10
6.11024
20
-4.19269
11
6.11024
21
-4.19269
0
LINE
8
BLACK
6
CONTINUOUS
10
6.11024
20
-4.19269
11
6.10406
21
-4.1935
0
LINE
8
BLACK
6
CONTINUOUS
10
6.10406
20
-4.1935
11
6.10406
21
-4.1935
0
LINE
8
BLACK
6
CONTINUOUS
10
6.10406
20
-4.1935
11
6.09831
21
-4.19588
0
LINE
8
BLACK
6
CONTINUOUS
10
6.09831
20
-4.19588
11
6.09831
21
-4.19588
0
LINE
8
BLACK
6
CONTINUOUS
10
6.09831
20
-4.19588
11
6.09337
21
-4.19967
0
LINE
8
BLACK
6
CONTINUOUS
10
6.09337
20
-4.19967
11
6.09337
21
-4.19967
0
LINE
8
BLACK
6
CONTINUOUS
10
6.09337
20
-4.19967
11
6.08959
21
-4.20461
0
LINE
8
BLACK
6
CONTINUOUS
10
6.08959
20
-4.20461
11
6.08959
21
-4.20461
0
LINE
8
BLACK
6
CONTINUOUS
10
6.08959
20
-4.20461
11
6.0872
21
-4.21036
0
LINE
8
BLACK
6
CONTINUOUS
10
6.0872
20
-4.21036
11
6.0872
21
-4.21036
0
LINE
8
BLACK
6
CONTINUOUS
10
6.0872
20
-4.21036
11
6.08639
21
-4.21654
0
LINE
8
BLACK
6
CONTINUOUS
10
6.08639
20
-4.21654
11
6.08639
21
-4.21654
0
LINE
8
BLACK
6
CONTINUOUS
10
6.08639
20
-4.21654
11
6.0872
21
-4.22271
0
LINE
8
BLACK
6
CONTINUOUS
10
6.0872
20
-4.22271
11
6.0872
21
-4.22271
0
LINE
8
BLACK
6
CONTINUOUS
10
6.0872
20
-4.22271
11
6.08959
21
-4.22846
0
LINE
8
BLACK
6
CONTINUOUS
10
6.08959
20
-4.22846
11
6.08959
21
-4.22846
0
LINE
8
BLACK
6
CONTINUOUS
10
6.08959
20
-4.22846
11
6.09337
21
-4.2334
0
LINE
8
BLACK
6
CONTINUOUS
10
6.09337
20
-4.2334
11
6.09337
21
-4.2334
0
LINE
8
BLACK
6
CONTINUOUS
10
6.09337
20
-4.2334
11
6.09831
21
-4.23719
0
LINE
8
BLACK
6
CONTINUOUS
10
6.09831
20
-4.23719
11
6.10406
21
-4.23957
0
LINE
8
BLACK
6
CONTINUOUS
10
6.10406
20
-4.23957
11
6.10869
21
-4.24018
0
LINE
8
BLACK
6
CONTINUOUS
10
6.10869
20
-4.24018
11
6.11024
21
-4.24038
0
LINE
8
BLACK
6
CONTINUOUS
10
6.11024
20
-4.24038
11
6.11024
21
-4.24038
0
LINE
8
BLACK
6
CONTINUOUS
10
6.11024
20
-4.24038
11
6.11024
21
-4.24038
0
LINE
8
BLACK
6
CONTINUOUS
10
6.11024
20
-4.24038
11
6.11147
21
-4.24022
0
LINE
8
BLACK
6
CONTINUOUS
10
6.11147
20
-4.24022
11
6.11641
21
-4.23957
0
LINE
8
BLACK
6
CONTINUOUS
10
6.11641
20
-4.23957
11
6.12216
21
-4.23719
0
LINE
8
BLACK
6
CONTINUOUS
10
6.12216
20
-4.23719
11
6.1271
21
-4.2334
0
LINE
8
BLACK
6
CONTINUOUS
10
6.1271
20
-4.2334
11
6.12828
21
-4.23186
0
LINE
8
BLACK
6
CONTINUOUS
10
6.12828
20
-4.23186
11
6.13026
21
-4.2305
0
LINE
8
BLACK
6
CONTINUOUS
10
6.13026
20
-4.2305
11
6.13137
21
-4.23033
0
LINE
8
BLACK
6
CONTINUOUS
10
6.13137
20
-4.23033
11
6.15564
21
-4.23033
0
LINE
8
BLACK
6
CONTINUOUS
10
6.15564
20
-4.23033
11
6.15644
21
-4.23042
0
LINE
8
BLACK
6
CONTINUOUS
10
6.15644
20
-4.23042
11
6.15653
21
-4.23044
0
LINE
8
BLACK
6
CONTINUOUS
10
6.15653
20
-4.23044
11
6.1569
21
-4.23051
0
LINE
8
BLACK
6
CONTINUOUS
10
6.1569
20
-4.23051
11
6.15822
21
-4.23035
0
LINE
8
BLACK
6
CONTINUOUS
10
6.15822
20
-4.23035
11
6.15846
21
-4.23033
0
LINE
8
BLACK
6
CONTINUOUS
10
6.15846
20
-4.23033
11
6.15862
21
-4.23033
0
LINE
8
BLACK
6
CONTINUOUS
10
6.15862
20
-4.23033
11
6.15905
21
-4.23026
0
LINE
8
BLACK
6
CONTINUOUS
10
6.15905
20
-4.23026
11
6.15947
21
-4.23019
0
LINE
8
BLACK
6
CONTINUOUS
10
6.15947
20
-4.23019
11
6.16147
21
-4.22994
0
LINE
8
BLACK
6
CONTINUOUS
10
6.16147
20
-4.22994
11
6.16147
21
-4.22994
0
LINE
8
BLACK
6
CONTINUOUS
10
6.16147
20
-4.22994
11
6.16175
21
-4.22986
0
LINE
8
BLACK
6
CONTINUOUS
10
6.16175
20
-4.22986
11
6.16202
21
-4.22977
0
LINE
8
BLACK
6
CONTINUOUS
10
6.16202
20
-4.22977
11
6.16202
21
-4.22977
0
LINE
8
BLACK
6
CONTINUOUS
10
6.16202
20
-4.22977
11
6.1638
21
-4.22881
0
LINE
8
BLACK
6
CONTINUOUS
10
6.1638
20
-4.22881
11
6.16561
21
-4.22792
0
LINE
8
BLACK
6
CONTINUOUS
10
6.16561
20
-4.22792
11
6.16585
21
-4.22775
0
LINE
8
BLACK
6
CONTINUOUS
10
6.16585
20
-4.22775
11
6.16607
21
-4.22758
0
LINE
8
BLACK
6
CONTINUOUS
10
6.16607
20
-4.22758
11
6.16744
21
-4.22609
0
LINE
8
BLACK
6
CONTINUOUS
10
6.16744
20
-4.22609
11
6.19445
21
-4.19908
0
LINE
8
BLACK
6
CONTINUOUS
10
6.19445
20
-4.19908
11
6.22559
21
-4.16794
0
LINE
8
BLACK
6
CONTINUOUS
10
6.22559
20
-4.16794
11
6.22774
21
-4.16685
0
LINE
8
BLACK
6
CONTINUOUS
10
6.22774
20
-4.16685
11
6.23012
21
-4.16722
0
LINE
8
BLACK
6
CONTINUOUS
10
6.23012
20
-4.16722
11
6.2311
21
-4.16794
0
LINE
8
BLACK
6
CONTINUOUS
10
6.2311
20
-4.16794
11
6.25089
21
-4.18773
0
LINE
8
BLACK
6
CONTINUOUS
10
6.25089
20
-4.18773
11
6.25198
21
-4.18987
0
LINE
8
BLACK
6
CONTINUOUS
10
6.25198
20
-4.18987
11
6.252
21
-4.19099
0
LINE
8
BLACK
6
CONTINUOUS
10
6.252
20
-4.19099
11
6.25174
21
-4.19291
0
LINE
8
BLACK
6
CONTINUOUS
10
6.25174
20
-4.19291
11
6.25174
21
-4.19291
0
LINE
8
BLACK
6
CONTINUOUS
10
6.25174
20
-4.19291
11
6.25256
21
-4.19908
0
LINE
8
BLACK
6
CONTINUOUS
10
6.25256
20
-4.19908
11
6.25256
21
-4.19909
0
LINE
8
BLACK
6
CONTINUOUS
10
6.25256
20
-4.19909
11
6.25494
21
-4.20484
0
LINE
8
BLACK
6
CONTINUOUS
10
6.25494
20
-4.20484
11
6.25494
21
-4.20484
0
LINE
8
BLACK
6
CONTINUOUS
10
6.25494
20
-4.20484
11
6.25693
21
-4.20744
0
LINE
8
BLACK
6
CONTINUOUS
10
6.25693
20
-4.20744
11
6.25873
21
-4.20977
0
LINE
8
BLACK
6
CONTINUOUS
10
6.25873
20
-4.20977
11
6.26367
21
-4.21356
0
LINE
8
BLACK
6
CONTINUOUS
10
6.26367
20
-4.21356
11
6.26367
21
-4.21356
0
LINE
8
BLACK
6
CONTINUOUS
10
6.26367
20
-4.21356
11
6.26367
21
-4.21356
0
LINE
8
BLACK
6
CONTINUOUS
10
6.26367
20
-4.21356
11
6.26402
21
-4.21371
0
LINE
8
BLACK
6
CONTINUOUS
10
6.26402
20
-4.21371
11
6.26942
21
-4.21595
0
LINE
8
BLACK
6
CONTINUOUS
10
6.26942
20
-4.21595
11
6.27389
21
-4.21654
0
LINE
8
BLACK
6
CONTINUOUS
10
6.27389
20
-4.21654
11
6.27559
21
-4.21676
0
LINE
8
BLACK
6
CONTINUOUS
10
6.27559
20
-4.21676
11
6.27559
21
-4.21676
0
LINE
8
BLACK
6
CONTINUOUS
10
6.27559
20
-4.21676
11
6.27559
21
-4.21676
0
LINE
8
BLACK
6
CONTINUOUS
10
6.27559
20
-4.21676
11
6.27729
21
-4.21654
0
LINE
8
BLACK
6
CONTINUOUS
10
6.27729
20
-4.21654
11
6.28176
21
-4.21595
0
LINE
8
BLACK
6
CONTINUOUS
10
6.28176
20
-4.21595
11
6.28751
21
-4.21356
0
LINE
8
BLACK
6
CONTINUOUS
10
6.28751
20
-4.21356
11
6.29245
21
-4.20977
0
LINE
8
BLACK
6
CONTINUOUS
10
6.29245
20
-4.20977
11
6.29624
21
-4.20484
0
LINE
8
BLACK
6
CONTINUOUS
10
6.29624
20
-4.20484
11
6.29862
21
-4.19909
0
LINE
8
BLACK
6
CONTINUOUS
10
6.29862
20
-4.19909
11
6.29944
21
-4.19291
0
LINE
8
BLACK
6
CONTINUOUS
10
6.29944
20
-4.19291
11
6.29862
21
-4.18674
0
LINE
8
BLACK
6
CONTINUOUS
10
6.29862
20
-4.18674
11
6.29787
21
-4.18493
0
LINE
8
BLACK
6
CONTINUOUS
10
6.29787
20
-4.18493
11
6.29624
21
-4.18099
0
LINE
8
BLACK
6
CONTINUOUS
10
6.29624
20
-4.18099
11
6.29624
21
-4.18099
0
LINE
8
BLACK
6
CONTINUOUS
10
6.29624
20
-4.18099
11
6.29245
21
-4.17605
0
LINE
8
BLACK
6
CONTINUOUS
10
6.29245
20
-4.17605
11
6.29245
21
-4.17605
0
LINE
8
BLACK
6
CONTINUOUS
10
6.29245
20
-4.17605
11
6.29245
21
-4.17605
0
LINE
8
BLACK
6
CONTINUOUS
10
6.29245
20
-4.17605
11
6.29245
21
-4.17605
0
LINE
8
BLACK
6
CONTINUOUS
10
6.29245
20
-4.17605
11
6.29245
21
-4.17605
0
LINE
8
BLACK
6
CONTINUOUS
10
6.29245
20
-4.17605
11
6.28751
21
-4.17226
0
LINE
8
BLACK
6
CONTINUOUS
10
6.28751
20
-4.17226
11
6.28176
21
-4.16988
0
LINE
8
BLACK
6
CONTINUOUS
10
6.28176
20
-4.16988
11
6.28176
21
-4.16988
0
LINE
8
BLACK
6
CONTINUOUS
10
6.28176
20
-4.16988
11
6.27559
21
-4.16907
0
LINE
8
BLACK
6
CONTINUOUS
10
6.27559
20
-4.16907
11
6.27559
21
-4.16907
0
LINE
8
BLACK
6
CONTINUOUS
10
6.27559
20
-4.16907
11
6.27367
21
-4.16932
0
LINE
8
BLACK
6
CONTINUOUS
10
6.27367
20
-4.16932
11
6.2713
21
-4.16888
0
LINE
8
BLACK
6
CONTINUOUS
10
6.2713
20
-4.16888
11
6.2704
21
-4.16821
0
LINE
8
BLACK
6
CONTINUOUS
10
6.2704
20
-4.16821
11
6.23796
21
-4.13577
0
LINE
8
BLACK
6
CONTINUOUS
10
6.23796
20
-4.13577
11
6.23764
21
-4.13534
0
LINE
8
BLACK
6
CONTINUOUS
10
6.23764
20
-4.13534
11
6.23762
21
-4.13536
0
LINE
8
BLACK
6
CONTINUOUS
10
6.23762
20
-4.13536
11
6.23742
21
-4.13511
0
LINE
8
BLACK
6
CONTINUOUS
10
6.23742
20
-4.13511
11
6.23593
21
-4.13374
0
LINE
8
BLACK
6
CONTINUOUS
10
6.23593
20
-4.13374
11
6.23148
21
-4.12928
0
LINE
8
BLACK
6
CONTINUOUS
10
6.23148
20
-4.12928
11
6.23038
21
-4.12714
0
LINE
8
BLACK
6
CONTINUOUS
10
6.23038
20
-4.12714
11
6.23033
21
-4.12653
0
LINE
8
BLACK
6
CONTINUOUS
10
6.23033
20
-4.12653
11
6.23033
21
-3.89121
0
LINE
8
BLACK
6
CONTINUOUS
10
6.23033
20
-3.89121
11
6.23108
21
-3.88892
0
LINE
8
BLACK
6
CONTINUOUS
10
6.23108
20
-3.88892
11
6.23186
21
-3.88812
0
LINE
8
BLACK
6
CONTINUOUS
10
6.23186
20
-3.88812
11
6.2334
21
-3.88694
0
LINE
8
BLACK
6
CONTINUOUS
10
6.2334
20
-3.88694
11
6.23719
21
-3.882
0
LINE
8
BLACK
6
CONTINUOUS
10
6.23719
20
-3.882
11
6.23957
21
-3.87625
0
LINE
8
BLACK
6
CONTINUOUS
10
6.23957
20
-3.87625
11
6.24038
21
-3.87008
0
LINE
8
BLACK
6
CONTINUOUS
10
6.24038
20
-3.87008
11
6.23957
21
-3.86391
0
LINE
8
BLACK
6
CONTINUOUS
10
6.23957
20
-3.86391
11
6.23844
21
-3.86117
0
LINE
8
BLACK
6
CONTINUOUS
10
6.23844
20
-3.86117
11
6.23719
21
-3.85816
0
LINE
8
BLACK
6
CONTINUOUS
10
6.23719
20
-3.85816
11
6.23719
21
-3.85816
0
LINE
8
BLACK
6
CONTINUOUS
10
6.23719
20
-3.85816
11
6.2334
21
-3.85322
0
LINE
8
BLACK
6
CONTINUOUS
10
6.2334
20
-3.85322
11
6.2334
21
-3.85322
0
LINE
8
BLACK
6
CONTINUOUS
10
6.2334
20
-3.85322
11
6.2334
21
-3.85322
0
LINE
8
BLACK
6
CONTINUOUS
10
6.2334
20
-3.85322
11
6.2334
21
-3.85322
0
LINE
8
BLACK
6
CONTINUOUS
10
6.2334
20
-3.85322
11
6.2334
21
-3.85322
0
LINE
8
BLACK
6
CONTINUOUS
10
6.2334
20
-3.85322
11
6.22846
21
-3.84943
0
LINE
8
BLACK
6
CONTINUOUS
10
6.22846
20
-3.84943
11
6.22271
21
-3.84705
0
LINE
8
BLACK
6
CONTINUOUS
10
6.22271
20
-3.84705
11
6.22271
21
-3.84705
0
LINE
8
BLACK
6
CONTINUOUS
10
6.22271
20
-3.84705
11
6.21654
21
-3.84623
0
LINE
8
BLACK
6
CONTINUOUS
10
6.21654
20
-3.84623
11
6.21654
21
-3.84623
0
LINE
8
BLACK
6
CONTINUOUS
10
6.21654
20
-3.84623
11
6.21036
21
-3.84705
0
LINE
8
BLACK
6
CONTINUOUS
10
6.21036
20
-3.84705
11
6.21036
21
-3.84705
0
LINE
8
BLACK
6
CONTINUOUS
10
6.21036
20
-3.84705
11
6.20461
21
-3.84943
0
LINE
8
BLACK
6
CONTINUOUS
10
6.20461
20
-3.84943
11
6.20461
21
-3.84943
0
LINE
8
BLACK
6
CONTINUOUS
10
6.20461
20
-3.84943
11
6.19967
21
-3.85322
0
LINE
8
BLACK
6
CONTINUOUS
10
6.19967
20
-3.85322
11
6.19967
21
-3.85322
0
LINE
8
BLACK
6
CONTINUOUS
10
6.19967
20
-3.85322
11
6.19588
21
-3.85816
0
LINE
8
BLACK
6
CONTINUOUS
10
6.19588
20
-3.85816
11
6.19588
21
-3.85816
0
LINE
8
BLACK
6
CONTINUOUS
10
6.19588
20
-3.85816
11
6.1935
21
-3.86391
0
LINE
8
BLACK
6
CONTINUOUS
10
6.1935
20
-3.86391
11
6.1935
21
-3.86391
0
LINE
8
BLACK
6
CONTINUOUS
10
6.1935
20
-3.86391
11
6.19269
21
-3.87008
0
LINE
8
BLACK
6
CONTINUOUS
10
6.19269
20
-3.87008
11
6.19269
21
-3.87008
0
LINE
8
BLACK
6
CONTINUOUS
10
6.19269
20
-3.87008
11
6.1935
21
-3.87625
0
LINE
8
BLACK
6
CONTINUOUS
10
6.1935
20
-3.87625
11
6.1935
21
-3.87625
0
LINE
8
BLACK
6
CONTINUOUS
10
6.1935
20
-3.87625
11
6.19588
21
-3.882
0
LINE
8
BLACK
6
CONTINUOUS
10
6.19588
20
-3.882
11
6.19588
21
-3.882
0
LINE
8
BLACK
6
CONTINUOUS
10
6.19588
20
-3.882
11
6.19967
21
-3.88694
0
LINE
8
BLACK
6
CONTINUOUS
10
6.19967
20
-3.88694
11
6.19967
21
-3.88694
0
LINE
8
BLACK
6
CONTINUOUS
10
6.19967
20
-3.88694
11
6.19967
21
-3.88694
0
LINE
8
BLACK
6
CONTINUOUS
10
6.19967
20
-3.88694
11
6.20121
21
-3.88812
0
LINE
8
BLACK
6
CONTINUOUS
10
6.20121
20
-3.88812
11
6.20258
21
-3.89011
0
LINE
8
BLACK
6
CONTINUOUS
10
6.20258
20
-3.89011
11
6.20274
21
-3.89121
0
LINE
8
BLACK
6
CONTINUOUS
10
6.20274
20
-3.89121
11
6.20274
21
-3.93868
0
LINE
8
BLACK
6
CONTINUOUS
10
6.20274
20
-3.93868
11
6.20199
21
-3.94097
0
LINE
8
BLACK
6
CONTINUOUS
10
6.20199
20
-3.94097
11
6.20004
21
-3.94239
0
LINE
8
BLACK
6
CONTINUOUS
10
6.20004
20
-3.94239
11
6.19763
21
-3.94239
0
LINE
8
BLACK
6
CONTINUOUS
10
6.19763
20
-3.94239
11
6.19569
21
-3.94097
0
LINE
8
BLACK
6
CONTINUOUS
10
6.19569
20
-3.94097
11
6.19524
21
-3.94018
0
LINE
8
BLACK
6
CONTINUOUS
10
6.19524
20
-3.94018
11
6.19462
21
-3.93868
0
LINE
8
BLACK
6
CONTINUOUS
10
6.19462
20
-3.93868
11
6.19388
21
-3.9369
0
LINE
8
BLACK
6
CONTINUOUS
10
6.19388
20
-3.9369
11
6.19009
21
-3.93196
0
LINE
8
BLACK
6
CONTINUOUS
10
6.19009
20
-3.93196
11
6.19009
21
-3.93196
0
LINE
8
BLACK
6
CONTINUOUS
10
6.19009
20
-3.93196
11
6.19009
21
-3.93196
0
LINE
8
BLACK
6
CONTINUOUS
10
6.19009
20
-3.93196
11
6.18635
21
-3.92909
0
LINE
8
BLACK
6
CONTINUOUS
10
6.18635
20
-3.92909
11
6.18515
21
-3.92817
0
LINE
8
BLACK
6
CONTINUOUS
10
6.18515
20
-3.92817
11
6.18515
21
-3.92817
0
LINE
8
BLACK
6
CONTINUOUS
10
6.18515
20
-3.92817
11
6.18515
21
-3.92817
0
LINE
8
BLACK
6
CONTINUOUS
10
6.18515
20
-3.92817
11
6.1794
21
-3.92579
0
LINE
8
BLACK
6
CONTINUOUS
10
6.1794
20
-3.92579
11
6.1794
21
-3.92579
0
LINE
8
BLACK
6
CONTINUOUS
10
6.1794
20
-3.92579
11
6.17323
21
-3.92497
0
LINE
8
BLACK
6
CONTINUOUS
10
6.17323
20
-3.92497
11
6.17323
21
-3.92497
0
LINE
8
BLACK
6
CONTINUOUS
10
6.17323
20
-3.92497
11
6.16706
21
-3.92579
0
LINE
8
BLACK
6
CONTINUOUS
10
6.16706
20
-3.92579
11
6.16706
21
-3.92579
0
LINE
8
BLACK
6
CONTINUOUS
10
6.16706
20
-3.92579
11
6.16131
21
-3.92817
0
LINE
8
BLACK
6
CONTINUOUS
10
6.16131
20
-3.92817
11
6.16131
21
-3.92817
0
LINE
8
BLACK
6
CONTINUOUS
10
6.16131
20
-3.92817
11
6.15637
21
-3.93196
0
LINE
8
BLACK
6
CONTINUOUS
10
6.15637
20
-3.93196
11
6.15637
21
-3.93196
0
LINE
8
BLACK
6
CONTINUOUS
10
6.15637
20
-3.93196
11
6.15258
21
-3.9369
0
LINE
8
BLACK
6
CONTINUOUS
10
6.15258
20
-3.9369
11
6.15258
21
-3.9369
0
LINE
8
BLACK
6
CONTINUOUS
10
6.15258
20
-3.9369
11
6.1502
21
-3.94265
0
LINE
8
BLACK
6
CONTINUOUS
10
6.1502
20
-3.94265
11
6.1502
21
-3.94265
0
LINE
8
BLACK
6
CONTINUOUS
10
6.1502
20
-3.94265
11
6.14938
21
-3.94882
0
LINE
8
BLACK
6
CONTINUOUS
10
6.14938
20
-3.94882
11
6.14938
21
-3.94882
0
LINE
8
BLACK
6
CONTINUOUS
10
6.14938
20
-3.94882
11
6.1502
21
-3.95499
0
LINE
8
BLACK
6
CONTINUOUS
10
6.1502
20
-3.95499
11
6.1502
21
-3.95499
0
LINE
8
BLACK
6
CONTINUOUS
10
6.1502
20
-3.95499
11
6.15258
21
-3.96074
0
LINE
8
BLACK
6
CONTINUOUS
10
6.15258
20
-3.96074
11
6.15258
21
-3.96074
0
LINE
8
BLACK
6
CONTINUOUS
10
6.15258
20
-3.96074
11
6.15637
21
-3.96568
0
LINE
8
BLACK
6
CONTINUOUS
10
6.15637
20
-3.96568
11
6.15637
21
-3.96568
0
LINE
8
BLACK
6
CONTINUOUS
10
6.15637
20
-3.96568
11
6.15637
21
-3.96568
0
LINE
8
BLACK
6
CONTINUOUS
10
6.15637
20
-3.96568
11
6.1579
21
-3.96686
0
LINE
8
BLACK
6
CONTINUOUS
10
6.1579
20
-3.96686
11
6.15927
21
-3.96885
0
LINE
8
BLACK
6
CONTINUOUS
10
6.15927
20
-3.96885
11
6.15943
21
-3.96995
0
LINE
8
BLACK
6
CONTINUOUS
10
6.15943
20
-3.96995
11
6.15943
21
-4.06747
0
LINE
8
BLACK
6
CONTINUOUS
10
6.15943
20
-4.06747
11
6.15868
21
-4.06976
0
LINE
8
BLACK
6
CONTINUOUS
10
6.15868
20
-4.06976
11
6.15829
21
-4.07023
0
LINE
8
BLACK
6
CONTINUOUS
10
6.15829
20
-4.07023
11
6.05593
21
-4.17259
0
LINE
8
BLACK
6
CONTINUOUS
10
6.05593
20
-4.17259
11
6.05378
21
-4.17368
0
LINE
8
BLACK
6
CONTINUOUS
10
6.05378
20
-4.17368
11
6.05224
21
-4.17361
0
LINE
8
BLACK
6
CONTINUOUS
10
6.05224
20
-4.17361
11
6.05206
21
-4.17357
0
LINE
8
BLACK
6
CONTINUOUS
10
6.05206
20
-4.17357
11
6.05059
21
-4.17321
0
LINE
8
BLACK
6
CONTINUOUS
10
6.05059
20
-4.17321
11
6.0439
21
-4.17321
0
LINE
8
BLACK
6
CONTINUOUS
10
6.0439
20
-4.17321
11
6.0439
21
-4.17321
0
LINE
8
BLACK
6
CONTINUOUS
10
6.0439
20
-4.17321
11
6.03739
21
-4.17481
0
LINE
8
BLACK
6
CONTINUOUS
10
6.03739
20
-4.17481
11
6.03146
21
-4.17792
0
LINE
8
BLACK
6
CONTINUOUS
10
6.03146
20
-4.17792
11
6.02645
21
-4.18236
0
LINE
8
BLACK
6
CONTINUOUS
10
6.02645
20
-4.18236
11
6.02645
21
-4.18236
0
LINE
8
BLACK
6
CONTINUOUS
10
6.02645
20
-4.18236
11
6.02264
21
-4.18788
0
LINE
8
BLACK
6
CONTINUOUS
10
6.02264
20
-4.18788
11
6.02065
21
-4.19314
0
LINE
8
BLACK
6
CONTINUOUS
10
6.02065
20
-4.19314
11
6.02027
21
-4.19414
0
LINE
8
BLACK
6
CONTINUOUS
10
6.02027
20
-4.19414
11
6.0196
21
-4.19967
0
LINE
8
BLACK
6
CONTINUOUS
10
6.0196
20
-4.19967
11
6.01946
21
-4.20079
0
LINE
8
BLACK
6
CONTINUOUS
10
6.01946
20
-4.20079
11
6.02027
21
-4.20744
0
LINE
8
BLACK
6
CONTINUOUS
10
5.92578
20
-4.20744
11
5.92816
21
-4.2137
0
LINE
8
BLACK
6
CONTINUOUS
10
5.92816
20
-4.2137
11
5.93196
21
-4.21921
0
LINE
8
BLACK
6
CONTINUOUS
10
5.93196
20
-4.21921
11
5.93196
21
-4.21921
0
LINE
8
BLACK
6
CONTINUOUS
10
5.93196
20
-4.21921
11
5.93363
21
-4.22069
0
LINE
8
BLACK
6
CONTINUOUS
10
5.93363
20
-4.22069
11
5.93697
21
-4.22365
0
LINE
8
BLACK
6
CONTINUOUS
10
5.93697
20
-4.22365
11
5.9429
21
-4.22676
0
LINE
8
BLACK
6
CONTINUOUS
10
5.9429
20
-4.22676
11
5.94941
21
-4.22837
0
LINE
8
BLACK
6
CONTINUOUS
10
5.94941
20
-4.22837
11
5.94941
21
-4.22837
0
LINE
8
BLACK
6
CONTINUOUS
10
5.94941
20
-4.22837
11
5.9561
21
-4.22837
0
LINE
8
BLACK
6
CONTINUOUS
10
5.9561
20
-4.22837
11
5.9561
21
-4.22837
0
LINE
8
BLACK
6
CONTINUOUS
10
5.9561
20
-4.22837
11
5.96261
21
-4.22676
0
LINE
8
BLACK
6
CONTINUOUS
10
5.96261
20
-4.22676
11
5.96854
21
-4.22365
0
LINE
8
BLACK
6
CONTINUOUS
10
5.96854
20
-4.22365
11
5.96854
21
-4.22365
0
LINE
8
BLACK
6
CONTINUOUS
10
5.96854
20
-4.22365
11
5.96854
21
-4.22365
0
LINE
8
BLACK
6
CONTINUOUS
10
5.96854
20
-4.22365
11
5.97163
21
-4.22091
0
LINE
8
BLACK
6
CONTINUOUS
10
5.97163
20
-4.22091
11
5.97384
21
-4.21995
0
LINE
8
BLACK
6
CONTINUOUS
10
5.97384
20
-4.21995
11
5.97473
21
-4.21996
0
LINE
8
BLACK
6
CONTINUOUS
10
5.97473
20
-4.21996
11
5.97833
21
-4.22044
0
LINE
8
BLACK
6
CONTINUOUS
10
5.97833
20
-4.22044
11
5.98031
21
-4.2207
0
LINE
8
BLACK
6
CONTINUOUS
10
5.98031
20
-4.2207
11
5.98031
21
-4.2207
0
LINE
8
BLACK
6
CONTINUOUS
10
5.98031
20
-4.2207
11
5.98032
21
-4.2207
0
LINE
8
BLACK
6
CONTINUOUS
10
5.98032
20
-4.2207
11
5.98155
21
-4.22053
0
LINE
8
BLACK
6
CONTINUOUS
10
5.98155
20
-4.22053
11
5.98649
21
-4.21988
0
LINE
8
BLACK
6
CONTINUOUS
10
5.98649
20
-4.21988
11
5.99224
21
-4.2175
0
LINE
8
BLACK
6
CONTINUOUS
10
5.99224
20
-4.2175
11
5.99718
21
-4.21371
0
LINE
8
BLACK
6
CONTINUOUS
10
5.99718
20
-4.21371
11
6.00097
21
-4.20877
0
LINE
8
BLACK
6
CONTINUOUS
10
6.00097
20
-4.20877
11
6.00335
21
-4.20302
0
LINE
8
BLACK
6
CONTINUOUS
10
6.00335
20
-4.20302
11
6.00364
21
-4.20079
0
LINE
8
BLACK
6
CONTINUOUS
10
6.00364
20
-4.20079
11
6.00416
21
-4.19685
0
LINE
8
BLACK
6
CONTINUOUS
10
6.00416
20
-4.19685
11
6.00335
21
-4.19068
0
LINE
8
BLACK
6
CONTINUOUS
10
6.00335
20
-4.19068
11
6.00097
21
-4.18493
0
LINE
8
BLACK
6
CONTINUOUS
10
6.00097
20
-4.18493
11
6.00097
21
-4.18493
0
LINE
8
BLACK
6
CONTINUOUS
10
6.00097
20
-4.18493
11
5.99718
21
-4.17999
0
LINE
8
BLACK
6
CONTINUOUS
10
5.99718
20
-4.17999
11
5.99718
21
-4.17999
0
LINE
8
BLACK
6
CONTINUOUS
10
5.99718
20
-4.17999
11
5.99718
21
-4.17999
0
LINE
8
BLACK
6
CONTINUOUS
10
5.99718
20
-4.17999
11
5.99718
21
-4.17999
0
LINE
8
BLACK
6
CONTINUOUS
10
5.99718
20
-4.17999
11
5.99718
21
-4.17999
0
LINE
8
BLACK
6
CONTINUOUS
10
5.99718
20
-4.17999
11
5.99224
21
-4.1762
0
LINE
8
BLACK
6
CONTINUOUS
10
5.99224
20
-4.1762
11
5.98649
21
-4.17382
0
LINE
8
BLACK
6
CONTINUOUS
10
5.98649
20
-4.17382
11
5.98649
21
-4.17382
0
LINE
8
BLACK
6
CONTINUOUS
10
5.98649
20
-4.17382
11
5.98032
21
-4.173
0
LINE
8
BLACK
6
CONTINUOUS
10
5.98032
20
-4.173
11
5.98031
21
-4.173
0
LINE
8
BLACK
6
CONTINUOUS
10
5.98031
20
-4.173
11
5.97414
21
-4.17382
0
LINE
8
BLACK
6
CONTINUOUS
10
5.97414
20
-4.17382
11
5.97414
21
-4.17382
0
LINE
8
BLACK
6
CONTINUOUS
10
5.97414
20
-4.17382
11
5.97089
21
-4.17516
0
LINE
8
BLACK
6
CONTINUOUS
10
5.97089
20
-4.17516
11
5.96849
21
-4.17535
0
LINE
8
BLACK
6
CONTINUOUS
10
5.96849
20
-4.17535
11
5.96644
21
-4.17409
0
LINE
8
BLACK
6
CONTINUOUS
10
5.96644
20
-4.17409
11
5.96551
21
-4.17187
0
LINE
8
BLACK
6
CONTINUOUS
10
5.96551
20
-4.17187
11
5.96608
21
-4.16953
0
LINE
8
BLACK
6
CONTINUOUS
10
5.96608
20
-4.16953
11
5.96703
21
-4.16847
0
LINE
8
BLACK
6
CONTINUOUS
10
5.96703
20
-4.16847
11
5.96964
21
-4.16647
0
LINE
8
BLACK
6
CONTINUOUS
10
5.96964
20
-4.16647
11
5.97343
21
-4.16153
0
LINE
8
BLACK
6
CONTINUOUS
10
5.97343
20
-4.16153
11
5.97581
21
-4.15578
0
LINE
8
BLACK
6
CONTINUOUS
10
5.97581
20
-4.15578
11
5.97662
21
-4.14961
0
LINE
8
BLACK
6
CONTINUOUS
10
5.97662
20
-4.14961
11
5.97581
21
-4.14343
0
LINE
8
BLACK
6
CONTINUOUS
10
5.97581
20
-4.14343
11
5.97399
21
-4.13904
0
LINE
8
BLACK
6
CONTINUOUS
10
5.97399
20
-4.13904
11
5.9738
21
-4.13663
0
LINE
8
BLACK
6
CONTINUOUS
10
5.9738
20
-4.13663
11
5.97438
21
-4.13533
0
LINE
8
BLACK
6
CONTINUOUS
10
5.97438
20
-4.13533
11
5.97736
21
-4.13102
0
LINE
8
BLACK
6
CONTINUOUS
10
5.97736
20
-4.13102
11
5.97973
21
-4.12476
0
LINE
8
BLACK
6
CONTINUOUS
10
5.97973
20
-4.12476
11
5.98054
21
-4.11811
0
LINE
8
BLACK
6
CONTINUOUS
10
5.98054
20
-4.11811
11
5.97973
21
-4.11146
0
LINE
8
BLACK
6
CONTINUOUS
10
5.97973
20
-4.11146
11
5.97736
21
-4.1052
0
LINE
8
BLACK
6
CONTINUOUS
10
5.97736
20
-4.1052
11
5.97355
21
-4.09969
0
LINE
8
BLACK
6
CONTINUOUS
10
5.97355
20
-4.09969
11
5.96854
21
-4.09525
0
LINE
8
BLACK
6
CONTINUOUS
10
5.96854
20
-4.09525
11
5.96261
21
-4.09213
0
LINE
8
BLACK
6
CONTINUOUS
10
5.96261
20
-4.09213
11
5.96261
21
-4.09213
0
LINE
8
BLACK
6
CONTINUOUS
10
5.96261
20
-4.09213
11
5.96261
21
-4.09213
0
LINE
8
BLACK
6
CONTINUOUS
10
5.96261
20
-4.09213
11
5.9561
21
-4.09053
0
LINE
8
BLACK
6
CONTINUOUS
10
5.9561
20
-4.09053
11
5.9561
21
-4.09053
0
LINE
8
BLACK
6
CONTINUOUS
10
5.9561
20
-4.09053
11
5.94941
21
-4.09053
0
LINE
8
BLACK
6
CONTINUOUS
10
5.94941
20
-4.09053
11
5.94941
21
-4.09053
0
LINE
8
BLACK
6
CONTINUOUS
10
5.94941
20
-4.09053
11
5.9429
21
-4.09213
0
LINE
8
BLACK
6
CONTINUOUS
10
5.9429
20
-4.09213
11
5.93697
21
-4.09525
0
LINE
8
BLACK
6
CONTINUOUS
10
5.93697
20
-4.09525
11
5.93196
21
-4.09969
0
LINE
8
BLACK
6
CONTINUOUS
10
5.93196
20
-4.09969
11
5.93196
21
-4.09969
0
LINE
8
BLACK
6
CONTINUOUS
10
5.93196
20
-4.09969
11
5.92913
21
-4.1038
0
LINE
8
BLACK
6
CONTINUOUS
10
5.92913
20
-4.1038
11
5.92816
21
-4.1052
0
LINE
8
BLACK
6
CONTINUOUS
10
5.92816
20
-4.1052
11
5.92583
21
-4.11133
0
LINE
8
BLACK
6
CONTINUOUS
10
5.92583
20
-4.11133
11
5.92578
21
-4.11146
0
LINE
8
BLACK
6
CONTINUOUS
10
5.92578
20
-4.11146
11
5.92545
21
-4.11421
0
LINE
8
BLACK
6
CONTINUOUS
10
5.92545
20
-4.11421
11
5.92497
21
-4.11811
0
LINE
8
BLACK
6
CONTINUOUS
10
5.92497
20
-4.11811
11
5.92578
21
-4.12476
0
LINE
8
BLACK
6
CONTINUOUS
10
5.92578
20
-4.12476
11
5.92806
21
-4.13077
0
LINE
8
BLACK
6
CONTINUOUS
10
5.92806
20
-4.13077
11
5.92816
21
-4.13102
0
LINE
8
BLACK
6
CONTINUOUS
10
5.92816
20
-4.13102
11
5.92816
21
-4.13102
0
LINE
8
BLACK
6
CONTINUOUS
10
5.92816
20
-4.13102
11
5.93116
21
-4.13537
0
LINE
8
BLACK
6
CONTINUOUS
10
5.93116
20
-4.13537
11
5.93185
21
-4.13767
0
LINE
8
BLACK
6
CONTINUOUS
10
5.93185
20
-4.13767
11
5.93155
21
-4.13907
0
LINE
8
BLACK
6
CONTINUOUS
10
5.93155
20
-4.13907
11
5.93102
21
-4.14035
0
LINE
8
BLACK
6
CONTINUOUS
10
5.93102
20
-4.14035
11
5.92974
21
-4.14343
0
LINE
8
BLACK
6
CONTINUOUS
10
5.92974
20
-4.14343
11
5.92974
21
-4.14343
0
LINE
8
BLACK
6
CONTINUOUS
10
5.92974
20
-4.14343
11
5.92893
21
-4.14961
0
LINE
8
BLACK
6
CONTINUOUS
10
5.92893
20
-4.14961
11
5.92893
21
-4.14961
0
LINE
8
BLACK
6
CONTINUOUS
10
5.92893
20
-4.14961
11
5.92974
21
-4.15578
0
LINE
8
BLACK
6
CONTINUOUS
10
5.92974
20
-4.15578
11
5.92974
21
-4.15578
0
LINE
8
BLACK
6
CONTINUOUS
10
5.92974
20
-4.15578
11
5.93212
21
-4.16153
0
LINE
8
BLACK
6
CONTINUOUS
10
5.93212
20
-4.16153
11
5.93212
21
-4.16153
0
LINE
8
BLACK
6
CONTINUOUS
10
5.93212
20
-4.16153
11
5.93493
21
-4.16518
0
LINE
8
BLACK
6
CONTINUOUS
10
5.93493
20
-4.16518
11
5.93591
21
-4.16647
0
LINE
8
BLACK
6
CONTINUOUS
10
5.93591
20
-4.16647
11
5.93591
21
-4.16647
0
LINE
8
BLACK
6
CONTINUOUS
10
5.93591
20
-4.16647
11
5.93591
21
-4.16647
0
LINE
8
BLACK
6
CONTINUOUS
10
5.93591
20
-4.16647
11
5.94037
21
-4.16989
0
LINE
8
BLACK
6
CONTINUOUS
10
5.94037
20
-4.16989
11
5.94174
21
-4.17188
0
LINE
8
BLACK
6
CONTINUOUS
10
5.94174
20
-4.17188
11
5.94168
21
-4.17428
0
LINE
8
BLACK
6
CONTINUOUS
10
5.94168
20
-4.17428
11
5.94021
21
-4.17619
0
LINE
8
BLACK
6
CONTINUOUS
10
5.94021
20
-4.17619
11
5.93981
21
-4.17643
0
LINE
8
BLACK
6
CONTINUOUS
10
5.93981
20
-4.17643
11
5.93697
21
-4.17792
0
LINE
8
BLACK
6
CONTINUOUS
10
5.93697
20
-4.17792
11
5.93196
21
-4.18236
0
LINE
8
BLACK
6
CONTINUOUS
10
5.93196
20
-4.18236
11
5.93196
21
-4.18236
0
LINE
8
BLACK
6
CONTINUOUS
10
5.93196
20
-4.18236
11
5.92816
21
-4.18788
0
LINE
8
BLACK
6
CONTINUOUS
10
5.92816
20
-4.18788
11
5.92616
21
-4.19314
0
LINE
8
BLACK
6
CONTINUOUS
10
5.92616
20
-4.19314
11
5.92578
21
-4.19414
0
LINE
8
BLACK
6
CONTINUOUS
10
5.92578
20
-4.19414
11
5.92511
21
-4.19967
0
LINE
8
BLACK
6
CONTINUOUS
10
5.92511
20
-4.19967
11
5.92497
21
-4.20079
0
LINE
8
BLACK
6
CONTINUOUS
10
5.92497
20
-4.20079
11
5.92578
21
-4.20744
0
LINE
8
BLACK
6
CONTINUOUS
10
5.41079
20
-4.12957
11
5.41381
21
-4.13534
0
LINE
8
BLACK
6
CONTINUOUS
10
5.41381
20
-4.13534
11
5.41381
21
-4.13534
0
LINE
8
BLACK
6
CONTINUOUS
10
5.41381
20
-4.13534
11
5.41825
21
-4.14035
0
LINE
8
BLACK
6
CONTINUOUS
10
5.41825
20
-4.14035
11
5.41825
21
-4.14035
0
LINE
8
BLACK
6
CONTINUOUS
10
5.41825
20
-4.14035
11
5.42376
21
-4.14415
0
LINE
8
BLACK
6
CONTINUOUS
10
5.42376
20
-4.14415
11
5.42376
21
-4.14415
0
LINE
8
BLACK
6
CONTINUOUS
10
5.42376
20
-4.14415
11
5.43002
21
-4.14652
0
LINE
8
BLACK
6
CONTINUOUS
10
5.43002
20
-4.14652
11
5.43002
21
-4.14652
0
LINE
8
BLACK
6
CONTINUOUS
10
5.43002
20
-4.14652
11
5.43499
21
-4.14713
0
LINE
8
BLACK
6
CONTINUOUS
10
5.43499
20
-4.14713
11
5.43499
21
-4.14713
0
LINE
8
BLACK
6
CONTINUOUS
10
5.43499
20
-4.14713
11
5.44635
21
-4.14713
0
LINE
8
BLACK
6
CONTINUOUS
10
5.44635
20
-4.14713
11
5.44635
21
-4.14713
0
LINE
8
BLACK
6
CONTINUOUS
10
5.44635
20
-4.14713
11
5.44635
21
-4.13925
0
LINE
8
BLACK
6
CONTINUOUS
10
5.44635
20
-4.13925
11
5.43666
21
-4.13925
0
LINE
8
BLACK
6
CONTINUOUS
10
5.43666
20
-4.13925
11
5.43112
21
-4.13845
0
LINE
8
BLACK
6
CONTINUOUS
10
5.43112
20
-4.13845
11
5.42602
21
-4.13613
0
LINE
8
BLACK
6
CONTINUOUS
10
5.42602
20
-4.13613
11
5.42178
21
-4.13246
0
LINE
8
BLACK
6
CONTINUOUS
10
5.42178
20
-4.13246
11
5.41993
21
-4.12957
0
LINE
8
BLACK
6
CONTINUOUS
10
5.41993
20
-4.12957
11
5.41079
21
-4.12957
0
LINE
8
BLACK
6
CONTINUOUS
10
5.65817
20
-4.09623
11
5.65229
21
-4.10211
0
LINE
8
BLACK
6
CONTINUOUS
10
5.65229
20
-4.10211
11
5.65463
21
-4.10353
0
LINE
8
BLACK
6
CONTINUOUS
10
5.65463
20
-4.10353
11
5.65847
21
-4.10765
0
LINE
8
BLACK
6
CONTINUOUS
10
5.65847
20
-4.10765
11
5.66106
21
-4.11265
0
LINE
8
BLACK
6
CONTINUOUS
10
5.66106
20
-4.11265
11
5.6622
21
-4.11816
0
LINE
8
BLACK
6
CONTINUOUS
10
5.6622
20
-4.11816
11
5.66182
21
-4.12377
0
LINE
8
BLACK
6
CONTINUOUS
10
5.66182
20
-4.12377
11
5.65993
21
-4.12908
0
LINE
8
BLACK
6
CONTINUOUS
10
5.65993
20
-4.12908
11
5.65669
21
-4.13367
0
LINE
8
BLACK
6
CONTINUOUS
10
5.65669
20
-4.13367
11
5.65242
21
-4.13715
0
LINE
8
BLACK
6
CONTINUOUS
10
5.65242
20
-4.13715
11
5.65812
21
-4.14285
0
LINE
8
BLACK
6
CONTINUOUS
10
5.65812
20
-4.14285
11
5.66005
21
-4.14158
0
LINE
8
BLACK
6
CONTINUOUS
10
5.66005
20
-4.14158
11
5.66463
21
-4.13673
0
LINE
8
BLACK
6
CONTINUOUS
10
5.66463
20
-4.13673
11
5.66463
21
-4.13673
0
LINE
8
BLACK
6
CONTINUOUS
10
5.66463
20
-4.13673
11
5.66797
21
-4.13095
0
LINE
8
BLACK
6
CONTINUOUS
10
5.66797
20
-4.13095
11
5.66988
21
-4.12456
0
LINE
8
BLACK
6
CONTINUOUS
10
5.66988
20
-4.12456
11
5.67027
21
-4.1179
0
LINE
8
BLACK
6
CONTINUOUS
10
5.67027
20
-4.1179
11
5.66911
21
-4.11133
0
LINE
8
BLACK
6
CONTINUOUS
10
5.66911
20
-4.11133
11
5.66647
21
-4.1052
0
LINE
8
BLACK
6
CONTINUOUS
10
5.66647
20
-4.1052
11
5.66249
21
-4.09985
0
LINE
8
BLACK
6
CONTINUOUS
10
5.66249
20
-4.09985
11
5.66249
21
-4.09985
0
LINE
8
BLACK
6
CONTINUOUS
10
5.66249
20
-4.09985
11
5.65817
21
-4.09623
0
LINE
8
BLACK
6
CONTINUOUS
10
5.65817
20
-4.09623
11
5.65817
21
-4.09623
0
LINE
8
BLACK
6
CONTINUOUS
10
6.02027
20
-4.12476
11
6.02264
21
-4.13102
0
LINE
8
BLACK
6
CONTINUOUS
10
6.02264
20
-4.13102
11
6.02645
21
-4.13653
0
LINE
8
BLACK
6
CONTINUOUS
10
6.02645
20
-4.13653
11
6.03146
21
-4.14097
0
LINE
8
BLACK
6
CONTINUOUS
10
6.03146
20
-4.14097
11
6.03739
21
-4.14409
0
LINE
8
BLACK
6
CONTINUOUS
10
6.03739
20
-4.14409
11
6.0439
21
-4.14569
0
LINE
8
BLACK
6
CONTINUOUS
10
6.0439
20
-4.14569
11
6.0439
21
-4.14569
0
LINE
8
BLACK
6
CONTINUOUS
10
6.0439
20
-4.14569
11
6.05059
21
-4.14569
0
LINE
8
BLACK
6
CONTINUOUS
10
6.05059
20
-4.14569
11
6.05059
21
-4.14569
0
LINE
8
BLACK
6
CONTINUOUS
10
6.05059
20
-4.14569
11
6.0571
21
-4.14409
0
LINE
8
BLACK
6
CONTINUOUS
10
6.0571
20
-4.14409
11
6.06303
21
-4.14097
0
LINE
8
BLACK
6
CONTINUOUS
10
6.06303
20
-4.14097
11
6.06804
21
-4.13653
0
LINE
8
BLACK
6
CONTINUOUS
10
6.06804
20
-4.13653
11
6.07184
21
-4.13102
0
LINE
8
BLACK
6
CONTINUOUS
10
6.07184
20
-4.13102
11
6.07422
21
-4.12476
0
LINE
8
BLACK
6
CONTINUOUS
10
6.07422
20
-4.12476
11
6.07503
21
-4.11811
0
LINE
8
BLACK
6
CONTINUOUS
10
6.07503
20
-4.11811
11
6.07422
21
-4.11146
0
LINE
8
BLACK
6
CONTINUOUS
10
6.07422
20
-4.11146
11
6.07322
21
-4.10882
0
LINE
8
BLACK
6
CONTINUOUS
10
6.07322
20
-4.10882
11
6.073
21
-4.10693
0
LINE
8
BLACK
6
CONTINUOUS
10
6.073
20
-4.10693
11
6.07308
21
-4.1063
0
LINE
8
BLACK
6
CONTINUOUS
10
6.07308
20
-4.1063
11
6.07227
21
-4.10013
0
LINE
8
BLACK
6
CONTINUOUS
10
6.07227
20
-4.10013
11
6.07208
21
-4.09969
0
LINE
8
BLACK
6
CONTINUOUS
10
6.07208
20
-4.09969
11
6.06988
21
-4.09438
0
LINE
8
BLACK
6
CONTINUOUS
10
6.06988
20
-4.09438
11
6.06988
21
-4.09438
0
LINE
8
BLACK
6
CONTINUOUS
10
6.06988
20
-4.09438
11
6.06609
21
-4.08944
0
LINE
8
BLACK
6
CONTINUOUS
10
6.06609
20
-4.08944
11
6.06609
21
-4.08944
0
LINE
8
BLACK
6
CONTINUOUS
10
6.06609
20
-4.08944
11
6.06609
21
-4.08944
0
LINE
8
BLACK
6
CONTINUOUS
10
6.06609
20
-4.08944
11
6.06609
21
-4.08944
0
LINE
8
BLACK
6
CONTINUOUS
10
6.06609
20
-4.08944
11
6.06609
21
-4.08944
0
LINE
8
BLACK
6
CONTINUOUS
10
6.06609
20
-4.08944
11
6.06116
21
-4.08565
0
LINE
8
BLACK
6
CONTINUOUS
10
6.06116
20
-4.08565
11
6.0554
21
-4.08327
0
LINE
8
BLACK
6
CONTINUOUS
10
6.0554
20
-4.08327
11
6.0554
21
-4.08327
0
LINE
8
BLACK
6
CONTINUOUS
10
6.0554
20
-4.08327
11
6.04923
21
-4.08245
0
LINE
8
BLACK
6
CONTINUOUS
10
6.04923
20
-4.08245
11
6.04923
21
-4.08245
0
LINE
8
BLACK
6
CONTINUOUS
10
6.04923
20
-4.08245
11
6.04306
21
-4.08327
0
LINE
8
BLACK
6
CONTINUOUS
10
6.04306
20
-4.08327
11
6.04306
21
-4.08327
0
LINE
8
BLACK
6
CONTINUOUS
10
6.04306
20
-4.08327
11
6.03731
21
-4.08565
0
LINE
8
BLACK
6
CONTINUOUS
10
6.03731
20
-4.08565
11
6.03731
21
-4.08565
0
LINE
8
BLACK
6
CONTINUOUS
10
6.03731
20
-4.08565
11
6.03237
21
-4.08944
0
LINE
8
BLACK
6
CONTINUOUS
10
6.03237
20
-4.08944
11
6.03237
21
-4.08944
0
LINE
8
BLACK
6
CONTINUOUS
10
6.03237
20
-4.08944
11
6.02858
21
-4.09438
0
LINE
8
BLACK
6
CONTINUOUS
10
6.02858
20
-4.09438
11
6.02644
21
-4.09955
0
LINE
8
BLACK
6
CONTINUOUS
10
6.02644
20
-4.09955
11
6.02604
21
-4.10028
0
LINE
8
BLACK
6
CONTINUOUS
10
6.02604
20
-4.10028
11
6.02264
21
-4.1052
0
LINE
8
BLACK
6
CONTINUOUS
10
6.02264
20
-4.1052
11
6.02128
21
-4.10879
0
LINE
8
BLACK
6
CONTINUOUS
10
6.02128
20
-4.10879
11
6.02032
21
-4.11133
0
LINE
8
BLACK
6
CONTINUOUS
10
6.02032
20
-4.11133
11
6.02027
21
-4.11146
0
LINE
8
BLACK
6
CONTINUOUS
10
6.02027
20
-4.11146
11
6.01994
21
-4.11421
0
LINE
8
BLACK
6
CONTINUOUS
10
6.01994
20
-4.11421
11
6.01946
21
-4.11811
0
LINE
8
BLACK
6
CONTINUOUS
10
6.01946
20
-4.11811
11
6.02027
21
-4.12476
0
LINE
8
BLACK
6
CONTINUOUS
10
5.61416
20
-4.0989
11
5.62766
21
-4.0989
0
LINE
8
BLACK
6
CONTINUOUS
10
5.62766
20
-4.0989
11
5.63554
21
-4.09102
0
LINE
8
BLACK
6
CONTINUOUS
10
5.63554
20
-4.09102
11
5.60629
21
-4.09102
0
LINE
8
BLACK
6
CONTINUOUS
10
5.60629
20
-4.09102
11
5.61416
21
-4.0989
0
LINE
8
BLACK
6
CONTINUOUS
10
6.13051
20
-3.7542
11
6.13051
21
-3.7542
0
LINE
8
BLACK
6
CONTINUOUS
10
6.13051
20
-3.7542
11
6.13289
21
-3.75995
0
LINE
8
BLACK
6
CONTINUOUS
10
6.13289
20
-3.75995
11
6.13289
21
-3.75995
0
LINE
8
BLACK
6
CONTINUOUS
10
6.13289
20
-3.75995
11
6.13668
21
-3.76489
0
LINE
8
BLACK
6
CONTINUOUS
10
6.13668
20
-3.76489
11
6.13668
21
-3.76489
0
LINE
8
BLACK
6
CONTINUOUS
10
6.13668
20
-3.76489
11
6.14162
21
-3.76868
0
LINE
8
BLACK
6
CONTINUOUS
10
6.14162
20
-3.76868
11
6.14162
21
-3.76868
0
LINE
8
BLACK
6
CONTINUOUS
10
6.14162
20
-3.76868
11
6.14162
21
-3.76868
0
LINE
8
BLACK
6
CONTINUOUS
10
6.14162
20
-3.76868
11
6.14338
21
-3.76941
0
LINE
8
BLACK
6
CONTINUOUS
10
6.14338
20
-3.76941
11
6.14737
21
-3.77106
0
LINE
8
BLACK
6
CONTINUOUS
10
6.14737
20
-3.77106
11
6.152
21
-3.77167
0
LINE
8
BLACK
6
CONTINUOUS
10
6.152
20
-3.77167
11
6.15354
21
-3.77188
0
LINE
8
BLACK
6
CONTINUOUS
10
6.15354
20
-3.77188
11
6.15354
21
-3.77188
0
LINE
8
BLACK
6
CONTINUOUS
10
6.15354
20
-3.77188
11
6.15354
21
-3.77188
0
LINE
8
BLACK
6
CONTINUOUS
10
6.15354
20
-3.77188
11
6.15478
21
-3.77171
0
LINE
8
BLACK
6
CONTINUOUS
10
6.15478
20
-3.77171
11
6.15972
21
-3.77106
0
LINE
8
BLACK
6
CONTINUOUS
10
6.15972
20
-3.77106
11
6.16547
21
-3.76868
0
LINE
8
BLACK
6
CONTINUOUS
10
6.16547
20
-3.76868
11
6.1704
21
-3.76489
0
LINE
8
BLACK
6
CONTINUOUS
10
6.1704
20
-3.76489
11
6.17158
21
-3.76336
0
LINE
8
BLACK
6
CONTINUOUS
10
6.17158
20
-3.76336
11
6.17357
21
-3.76199
0
LINE
8
BLACK
6
CONTINUOUS
10
6.17357
20
-3.76199
11
6.17468
21
-3.76183
0
LINE
8
BLACK
6
CONTINUOUS
10
6.17468
20
-3.76183
11
6.18165
21
-3.76183
0
LINE
8
BLACK
6
CONTINUOUS
10
6.18165
20
-3.76183
11
6.18394
21
-3.76258
0
LINE
8
BLACK
6
CONTINUOUS
10
6.18394
20
-3.76258
11
6.1844
21
-3.76297
0
LINE
8
BLACK
6
CONTINUOUS
10
6.1844
20
-3.76297
11
6.26852
21
-3.84709
0
LINE
8
BLACK
6
CONTINUOUS
10
6.26852
20
-3.84709
11
6.26962
21
-3.84924
0
LINE
8
BLACK
6
CONTINUOUS
10
6.26962
20
-3.84924
11
6.26967
21
-3.84985
0
LINE
8
BLACK
6
CONTINUOUS
10
6.26967
20
-3.84985
11
6.26967
21
-4.05122
0
LINE
8
BLACK
6
CONTINUOUS
10
6.26967
20
-4.05122
11
6.26892
21
-4.05351
0
LINE
8
BLACK
6
CONTINUOUS
10
6.26892
20
-4.05351
11
6.26697
21
-4.05493
0
LINE
8
BLACK
6
CONTINUOUS
10
6.26697
20
-4.05493
11
6.26628
21
-4.05508
0
LINE
8
BLACK
6
CONTINUOUS
10
6.26628
20
-4.05508
11
6.26154
21
-4.05571
0
LINE
8
BLACK
6
CONTINUOUS
10
6.26154
20
-4.05571
11
6.26154
21
-4.05571
0
LINE
8
BLACK
6
CONTINUOUS
10
6.26154
20
-4.05571
11
6.25579
21
-4.05809
0
LINE
8
BLACK
6
CONTINUOUS
10
6.25579
20
-4.05809
11
6.25579
21
-4.05809
0
LINE
8
BLACK
6
CONTINUOUS
10
6.25579
20
-4.05809
11
6.25086
21
-4.06188
0
LINE
8
BLACK
6
CONTINUOUS
10
6.25086
20
-4.06188
11
6.25085
21
-4.06188
0
LINE
8
BLACK
6
CONTINUOUS
10
6.25085
20
-4.06188
11
6.24707
21
-4.06682
0
LINE
8
BLACK
6
CONTINUOUS
10
6.24707
20
-4.06682
11
6.24707
21
-4.06682
0
LINE
8
BLACK
6
CONTINUOUS
10
6.24707
20
-4.06682
11
6.24468
21
-4.07257
0
LINE
8
BLACK
6
CONTINUOUS
10
6.24468
20
-4.07257
11
6.24468
21
-4.07257
0
LINE
8
BLACK
6
CONTINUOUS
10
6.24468
20
-4.07257
11
6.24387
21
-4.07874
0
LINE
8
BLACK
6
CONTINUOUS
10
6.24387
20
-4.07874
11
6.24387
21
-4.07874
0
LINE
8
BLACK
6
CONTINUOUS
10
6.24387
20
-4.07874
11
6.24468
21
-4.08491
0
LINE
8
BLACK
6
CONTINUOUS
10
6.24468
20
-4.08491
11
6.24468
21
-4.08491
0
LINE
8
BLACK
6
CONTINUOUS
10
6.24468
20
-4.08491
11
6.24707
21
-4.09066
0
LINE
8
BLACK
6
CONTINUOUS
10
6.24707
20
-4.09066
11
6.24707
21
-4.09066
0
LINE
8
BLACK
6
CONTINUOUS
10
6.24707
20
-4.09066
11
6.25085
21
-4.0956
0
LINE
8
BLACK
6
CONTINUOUS
10
6.25085
20
-4.0956
11
6.25086
21
-4.0956
0
LINE
8
BLACK
6
CONTINUOUS
10
6.25086
20
-4.0956
11
6.25579
21
-4.09939
0
LINE
8
BLACK
6
CONTINUOUS
10
6.25579
20
-4.09939
11
6.25579
21
-4.09939
0
LINE
8
BLACK
6
CONTINUOUS
10
6.25579
20
-4.09939
11
6.25579
21
-4.09939
0
LINE
8
BLACK
6
CONTINUOUS
10
6.25579
20
-4.09939
11
6.25793
21
-4.10028
0
LINE
8
BLACK
6
CONTINUOUS
10
6.25793
20
-4.10028
11
6.26154
21
-4.10177
0
LINE
8
BLACK
6
CONTINUOUS
10
6.26154
20
-4.10177
11
6.26617
21
-4.10238
0
LINE
8
BLACK
6
CONTINUOUS
10
6.26617
20
-4.10238
11
6.26772
21
-4.10259
0
LINE
8
BLACK
6
CONTINUOUS
10
6.26772
20
-4.10259
11
6.26772
21
-4.10259
0
LINE
8
BLACK
6
CONTINUOUS
10
6.26772
20
-4.10259
11
6.26772
21
-4.10259
0
LINE
8
BLACK
6
CONTINUOUS
10
6.26772
20
-4.10259
11
6.26908
21
-4.10241
0
LINE
8
BLACK
6
CONTINUOUS
10
6.26908
20
-4.10241
11
6.27389
21
-4.10177
0
LINE
8
BLACK
6
CONTINUOUS
10
6.27389
20
-4.10177
11
6.27964
21
-4.09939
0
LINE
8
BLACK
6
CONTINUOUS
10
6.27964
20
-4.09939
11
6.28458
21
-4.0956
0
LINE
8
BLACK
6
CONTINUOUS
10
6.28458
20
-4.0956
11
6.28837
21
-4.09066
0
LINE
8
BLACK
6
CONTINUOUS
10
6.28837
20
-4.09066
11
6.29075
21
-4.08491
0
LINE
8
BLACK
6
CONTINUOUS
10
6.29075
20
-4.08491
11
6.29156
21
-4.07874
0
LINE
8
BLACK
6
CONTINUOUS
10
6.29156
20
-4.07874
11
6.29133
21
-4.07698
0
LINE
8
BLACK
6
CONTINUOUS
10
6.29133
20
-4.07698
11
6.29177
21
-4.07461
0
LINE
8
BLACK
6
CONTINUOUS
10
6.29177
20
-4.07461
11
6.29274
21
-4.07355
0
LINE
8
BLACK
6
CONTINUOUS
10
6.29274
20
-4.07355
11
6.2927
21
-4.0735
0
LINE
8
BLACK
6
CONTINUOUS
10
6.2927
20
-4.0735
11
6.29294
21
-4.07329
0
LINE
8
BLACK
6
CONTINUOUS
10
6.29294
20
-4.07329
11
6.29294
21
-4.07328
0
LINE
8
BLACK
6
CONTINUOUS
10
6.29294
20
-4.07328
11
6.29375
21
-4.07224
0
LINE
8
BLACK
6
CONTINUOUS
10
6.29375
20
-4.07224
11
6.29391
21
-4.07206
0
LINE
8
BLACK
6
CONTINUOUS
10
6.29391
20
-4.07206
11
6.29403
21
-4.07194
0
LINE
8
BLACK
6
CONTINUOUS
10
6.29403
20
-4.07194
11
6.29453
21
-4.07124
0
LINE
8
BLACK
6
CONTINUOUS
10
6.29453
20
-4.07124
11
6.29577
21
-4.06965
0
LINE
8
BLACK
6
CONTINUOUS
10
6.29577
20
-4.06965
11
6.29577
21
-4.06965
0
LINE
8
BLACK
6
CONTINUOUS
10
6.29577
20
-4.06965
11
6.29591
21
-4.0694
0
LINE
8
BLACK
6
CONTINUOUS
10
6.29591
20
-4.0694
11
6.29603
21
-4.06914
0
LINE
8
BLACK
6
CONTINUOUS
10
6.29603
20
-4.06914
11
6.29603
21
-4.06914
0
LINE
8
BLACK
6
CONTINUOUS
10
6.29603
20
-4.06914
11
6.29603
21
-4.06914
0
LINE
8
BLACK
6
CONTINUOUS
10
6.29603
20
-4.06914
11
6.29661
21
-4.0672
0
LINE
8
BLACK
6
CONTINUOUS
10
6.29661
20
-4.0672
11
6.29726
21
-4.06529
0
LINE
8
BLACK
6
CONTINUOUS
10
6.29726
20
-4.06529
11
6.29726
21
-4.06529
0
LINE
8
BLACK
6
CONTINUOUS
10
6.29726
20
-4.06529
11
6.29731
21
-4.06501
0
LINE
8
BLACK
6
CONTINUOUS
10
6.29731
20
-4.06501
11
6.29735
21
-4.06472
0
LINE
8
BLACK
6
CONTINUOUS
10
6.29735
20
-4.06472
11
6.29726
21
-4.06271
0
LINE
8
BLACK
6
CONTINUOUS
10
6.29726
20
-4.06271
11
6.29726
21
-3.84436
0
LINE
8
BLACK
6
CONTINUOUS
10
6.29726
20
-3.84436
11
6.29735
21
-3.84356
0
LINE
8
BLACK
6
CONTINUOUS
10
6.29735
20
-3.84356
11
6.29735
21
-3.84355
0
LINE
8
BLACK
6
CONTINUOUS
10
6.29735
20
-3.84355
11
6.29744
21
-3.8431
0
LINE
8
BLACK
6
CONTINUOUS
10
6.29744
20
-3.8431
11
6.29728
21
-3.84178
0
LINE
8
BLACK
6
CONTINUOUS
10
6.29728
20
-3.84178
11
6.29726
21
-3.84154
0
LINE
8
BLACK
6
CONTINUOUS
10
6.29726
20
-3.84154
11
6.29726
21
-3.84138
0
LINE
8
BLACK
6
CONTINUOUS
10
6.29726
20
-3.84138
11
6.29712
21
-3.84053
0
LINE
8
BLACK
6
CONTINUOUS
10
6.29712
20
-3.84053
11
6.29709
21
-3.84028
0
LINE
8
BLACK
6
CONTINUOUS
10
6.29709
20
-3.84028
11
6.29687
21
-3.83853
0
LINE
8
BLACK
6
CONTINUOUS
10
6.29687
20
-3.83853
11
6.29687
21
-3.83853
0
LINE
8
BLACK
6
CONTINUOUS
10
6.29687
20
-3.83853
11
6.29679
21
-3.83825
0
LINE
8
BLACK
6
CONTINUOUS
10
6.29679
20
-3.83825
11
6.2967
21
-3.83798
0
LINE
8
BLACK
6
CONTINUOUS
10
6.2967
20
-3.83798
11
6.29574
21
-3.8362
0
LINE
8
BLACK
6
CONTINUOUS
10
6.29574
20
-3.8362
11
6.29492
21
-3.83453
0
LINE
8
BLACK
6
CONTINUOUS
10
6.29492
20
-3.83453
11
6.29485
21
-3.83439
0
LINE
8
BLACK
6
CONTINUOUS
10
6.29485
20
-3.83439
11
6.29485
21
-3.83439
0
LINE
8
BLACK
6
CONTINUOUS
10
6.29485
20
-3.83439
11
6.29468
21
-3.83416
0
LINE
8
BLACK
6
CONTINUOUS
10
6.29468
20
-3.83416
11
6.2945
21
-3.83393
0
LINE
8
BLACK
6
CONTINUOUS
10
6.2945
20
-3.83393
11
6.29302
21
-3.83256
0
LINE
8
BLACK
6
CONTINUOUS
10
6.29302
20
-3.83256
11
6.20003
21
-3.73957
0
LINE
8
BLACK
6
CONTINUOUS
10
6.20003
20
-3.73957
11
6.19952
21
-3.73895
0
LINE
8
BLACK
6
CONTINUOUS
10
6.19952
20
-3.73895
11
6.19927
21
-3.73856
0
LINE
8
BLACK
6
CONTINUOUS
10
6.19927
20
-3.73856
11
6.19822
21
-3.73774
0
LINE
8
BLACK
6
CONTINUOUS
10
6.19822
20
-3.73774
11
6.19804
21
-3.73758
0
LINE
8
BLACK
6
CONTINUOUS
10
6.19804
20
-3.73758
11
6.19793
21
-3.73747
0
LINE
8
BLACK
6
CONTINUOUS
10
6.19793
20
-3.73747
11
6.19723
21
-3.73697
0
LINE
8
BLACK
6
CONTINUOUS
10
6.19723
20
-3.73697
11
6.19563
21
-3.73573
0
LINE
8
BLACK
6
CONTINUOUS
10
6.19563
20
-3.73573
11
6.19538
21
-3.73559
0
LINE
8
BLACK
6
CONTINUOUS
10
6.19538
20
-3.73559
11
6.19512
21
-3.73546
0
LINE
8
BLACK
6
CONTINUOUS
10
6.19512
20
-3.73546
11
6.19512
21
-3.73546
0
LINE
8
BLACK
6
CONTINUOUS
10
6.19512
20
-3.73546
11
6.19319
21
-3.73489
0
LINE
8
BLACK
6
CONTINUOUS
10
6.19319
20
-3.73489
11
6.19128
21
-3.73423
0
LINE
8
BLACK
6
CONTINUOUS
10
6.19128
20
-3.73423
11
6.19128
21
-3.73423
0
LINE
8
BLACK
6
CONTINUOUS
10
6.19128
20
-3.73423
11
6.19099
21
-3.73418
0
LINE
8
BLACK
6
CONTINUOUS
10
6.19099
20
-3.73418
11
6.19071
21
-3.73415
0
LINE
8
BLACK
6
CONTINUOUS
10
6.19071
20
-3.73415
11
6.19071
21
-3.73415
0
LINE
8
BLACK
6
CONTINUOUS
10
6.19071
20
-3.73415
11
6.19071
21
-3.73415
0
LINE
8
BLACK
6
CONTINUOUS
10
6.19071
20
-3.73415
11
6.18869
21
-3.73423
0
LINE
8
BLACK
6
CONTINUOUS
10
6.18869
20
-3.73423
11
6.17468
21
-3.73423
0
LINE
8
BLACK
6
CONTINUOUS
10
6.17468
20
-3.73423
11
6.17239
21
-3.73349
0
LINE
8
BLACK
6
CONTINUOUS
10
6.17239
20
-3.73349
11
6.17158
21
-3.73271
0
LINE
8
BLACK
6
CONTINUOUS
10
6.17158
20
-3.73271
11
6.1704
21
-3.73117
0
LINE
8
BLACK
6
CONTINUOUS
10
6.1704
20
-3.73117
11
6.1704
21
-3.73117
0
LINE
8
BLACK
6
CONTINUOUS
10
6.1704
20
-3.73117
11
6.1704
21
-3.73117
0
LINE
8
BLACK
6
CONTINUOUS
10
6.1704
20
-3.73117
11
6.1704
21
-3.73117
0
LINE
8
BLACK
6
CONTINUOUS
10
6.1704
20
-3.73117
11
6.16547
21
-3.72738
0
LINE
8
BLACK
6
CONTINUOUS
10
6.16547
20
-3.72738
11
6.15972
21
-3.725
0
LINE
8
BLACK
6
CONTINUOUS
10
6.15972
20
-3.725
11
6.15971
21
-3.725
0
LINE
8
BLACK
6
CONTINUOUS
10
6.15971
20
-3.725
11
6.15354
21
-3.72419
0
LINE
8
BLACK
6
CONTINUOUS
10
6.15354
20
-3.72419
11
6.15354
21
-3.72419
0
LINE
8
BLACK
6
CONTINUOUS
10
6.15354
20
-3.72419
11
6.14737
21
-3.725
0
LINE
8
BLACK
6
CONTINUOUS
10
6.14737
20
-3.725
11
6.14737
21
-3.725
0
LINE
8
BLACK
6
CONTINUOUS
10
6.14737
20
-3.725
11
6.14162
21
-3.72738
0
LINE
8
BLACK
6
CONTINUOUS
10
6.14162
20
-3.72738
11
6.14162
21
-3.72738
0
LINE
8
BLACK
6
CONTINUOUS
10
6.14162
20
-3.72738
11
6.13668
21
-3.73117
0
LINE
8
BLACK
6
CONTINUOUS
10
6.13668
20
-3.73117
11
6.13668
21
-3.73117
0
LINE
8
BLACK
6
CONTINUOUS
10
6.13668
20
-3.73117
11
6.13289
21
-3.73611
0
LINE
8
BLACK
6
CONTINUOUS
10
6.13289
20
-3.73611
11
6.13289
21
-3.73611
0
LINE
8
BLACK
6
CONTINUOUS
10
6.13289
20
-3.73611
11
6.13051
21
-3.74186
0
LINE
8
BLACK
6
CONTINUOUS
10
6.13051
20
-3.74186
11
6.13051
21
-3.74186
0
LINE
8
BLACK
6
CONTINUOUS
10
6.13051
20
-3.74186
11
6.1297
21
-3.74803
0
LINE
8
BLACK
6
CONTINUOUS
10
6.1297
20
-3.74803
11
6.1297
21
-3.74803
0
LINE
8
BLACK
6
CONTINUOUS
10
6.1297
20
-3.74803
11
6.13051
21
-3.7542
0
LINE
8
BLACK
6
CONTINUOUS
10
5.7517
20
-3.7624
11
5.7517
21
-3.7624
0
LINE
8
BLACK
6
CONTINUOUS
10
5.7517
20
-3.7624
11
5.74595
21
-3.76478
0
LINE
8
BLACK
6
CONTINUOUS
10
5.74595
20
-3.76478
11
5.74595
21
-3.76478
0
LINE
8
BLACK
6
CONTINUOUS
10
5.74595
20
-3.76478
11
5.74101
21
-3.76857
0
LINE
8
BLACK
6
CONTINUOUS
10
5.74101
20
-3.76857
11
5.74101
21
-3.76857
0
LINE
8
BLACK
6
CONTINUOUS
10
5.74101
20
-3.76857
11
5.73722
21
-3.77351
0
LINE
8
BLACK
6
CONTINUOUS
10
5.73722
20
-3.77351
11
5.73722
21
-3.77351
0
LINE
8
BLACK
6
CONTINUOUS
10
5.73722
20
-3.77351
11
5.73484
21
-3.77926
0
LINE
8
BLACK
6
CONTINUOUS
10
5.73484
20
-3.77926
11
5.73484
21
-3.77926
0
LINE
8
BLACK
6
CONTINUOUS
10
5.73484
20
-3.77926
11
5.73403
21
-3.78543
0
LINE
8
BLACK
6
CONTINUOUS
10
5.73403
20
-3.78543
11
5.73403
21
-3.78543
0
LINE
8
BLACK
6
CONTINUOUS
10
5.73403
20
-3.78543
11
5.73484
21
-3.7916
0
LINE
8
BLACK
6
CONTINUOUS
10
5.73484
20
-3.7916
11
5.73484
21
-3.7916
0
LINE
8
BLACK
6
CONTINUOUS
10
5.73484
20
-3.7916
11
5.73722
21
-3.79736
0
LINE
8
BLACK
6
CONTINUOUS
10
5.73722
20
-3.79736
11
5.73722
21
-3.79736
0
LINE
8
BLACK
6
CONTINUOUS
10
5.73722
20
-3.79736
11
5.74101
21
-3.80229
0
LINE
8
BLACK
6
CONTINUOUS
10
5.74101
20
-3.80229
11
5.74101
21
-3.80229
0
LINE
8
BLACK
6
CONTINUOUS
10
5.74101
20
-3.80229
11
5.74595
21
-3.80608
0
LINE
8
BLACK
6
CONTINUOUS
10
5.74595
20
-3.80608
11
5.74595
21
-3.80608
0
LINE
8
BLACK
6
CONTINUOUS
10
5.74595
20
-3.80608
11
5.74595
21
-3.80608
0
LINE
8
BLACK
6
CONTINUOUS
10
5.74595
20
-3.80608
11
5.75046
21
-3.80795
0
LINE
8
BLACK
6
CONTINUOUS
10
5.75046
20
-3.80795
11
5.7517
21
-3.80847
0
LINE
8
BLACK
6
CONTINUOUS
10
5.7517
20
-3.80847
11
5.75787
21
-3.80928
0
LINE
8
BLACK
6
CONTINUOUS
10
5.75787
20
-3.80928
11
5.76056
21
-3.80893
0
LINE
8
BLACK
6
CONTINUOUS
10
5.76056
20
-3.80893
11
5.76293
21
-3.80936
0
LINE
8
BLACK
6
CONTINUOUS
10
5.76293
20
-3.80936
11
5.76383
21
-3.81003
0
LINE
8
BLACK
6
CONTINUOUS
10
5.76383
20
-3.81003
11
5.7803
21
-3.8265
0
LINE
8
BLACK
6
CONTINUOUS
10
5.7803
20
-3.8265
11
5.78139
21
-3.82865
0
LINE
8
BLACK
6
CONTINUOUS
10
5.78139
20
-3.82865
11
5.78101
21
-3.83103
0
LINE
8
BLACK
6
CONTINUOUS
10
5.78101
20
-3.83103
11
5.77931
21
-3.83273
0
LINE
8
BLACK
6
CONTINUOUS
10
5.77931
20
-3.83273
11
5.77693
21
-3.83311
0
LINE
8
BLACK
6
CONTINUOUS
10
5.77693
20
-3.83311
11
5.77605
21
-3.83286
0
LINE
8
BLACK
6
CONTINUOUS
10
5.77605
20
-3.83286
11
5.77389
21
-3.83197
0
LINE
8
BLACK
6
CONTINUOUS
10
5.77389
20
-3.83197
11
5.77389
21
-3.83197
0
LINE
8
BLACK
6
CONTINUOUS
10
5.77389
20
-3.83197
11
5.76772
21
-3.83115
0
LINE
8
BLACK
6
CONTINUOUS
10
5.76772
20
-3.83115
11
5.76772
21
-3.83115
0
LINE
8
BLACK
6
CONTINUOUS
10
5.76772
20
-3.83115
11
5.76154
21
-3.83197
0
LINE
8
BLACK
6
CONTINUOUS
10
5.76154
20
-3.83197
11
5.76154
21
-3.83197
0
LINE
8
BLACK
6
CONTINUOUS
10
5.76154
20
-3.83197
11
5.75579
21
-3.83435
0
LINE
8
BLACK
6
CONTINUOUS
10
5.75579
20
-3.83435
11
5.75579
21
-3.83435
0
LINE
8
BLACK
6
CONTINUOUS
10
5.75579
20
-3.83435
11
5.75086
21
-3.83814
0
LINE
8
BLACK
6
CONTINUOUS
10
5.75086
20
-3.83814
11
5.75085
21
-3.83814
0
LINE
8
BLACK
6
CONTINUOUS
10
5.75085
20
-3.83814
11
5.74707
21
-3.84308
0
LINE
8
BLACK
6
CONTINUOUS
10
5.74707
20
-3.84308
11
5.74707
21
-3.84308
0
LINE
8
BLACK
6
CONTINUOUS
10
5.74707
20
-3.84308
11
5.74468
21
-3.84883
0
LINE
8
BLACK
6
CONTINUOUS
10
5.74468
20
-3.84883
11
5.74468
21
-3.84883
0
LINE
8
BLACK
6
CONTINUOUS
10
5.74468
20
-3.84883
11
5.74387
21
-3.855
0
LINE
8
BLACK
6
CONTINUOUS
10
5.74387
20
-3.855
11
5.74387
21
-3.855
0
LINE
8
BLACK
6
CONTINUOUS
10
5.74387
20
-3.855
11
5.74468
21
-3.86117
0
LINE
8
BLACK
6
CONTINUOUS
10
5.74468
20
-3.86117
11
5.74468
21
-3.86117
0
LINE
8
BLACK
6
CONTINUOUS
10
5.74468
20
-3.86117
11
5.74707
21
-3.86692
0
LINE
8
BLACK
6
CONTINUOUS
10
5.74707
20
-3.86692
11
5.74707
21
-3.86692
0
LINE
8
BLACK
6
CONTINUOUS
10
5.74707
20
-3.86692
11
5.75101
21
-3.87206
0
LINE
8
BLACK
6
CONTINUOUS
10
5.75101
20
-3.87206
11
5.75096
21
-3.87211
0
LINE
8
BLACK
6
CONTINUOUS
10
5.75096
20
-3.87211
11
5.7519
21
-3.87396
0
LINE
8
BLACK
6
CONTINUOUS
10
5.7519
20
-3.87396
11
5.75195
21
-3.87457
0
LINE
8
BLACK
6
CONTINUOUS
10
5.75195
20
-3.87457
11
5.75195
21
-3.92497
0
LINE
8
BLACK
6
CONTINUOUS
10
5.75195
20
-3.92497
11
5.7512
21
-3.92726
0
LINE
8
BLACK
6
CONTINUOUS
10
5.7512
20
-3.92726
11
5.75042
21
-3.92806
0
LINE
8
BLACK
6
CONTINUOUS
10
5.75042
20
-3.92806
11
5.74534
21
-3.93196
0
LINE
8
BLACK
6
CONTINUOUS
10
5.74534
20
-3.93196
11
5.74534
21
-3.93196
0
LINE
8
BLACK
6
CONTINUOUS
10
5.74534
20
-3.93196
11
5.74155
21
-3.9369
0
LINE
8
BLACK
6
CONTINUOUS
10
5.74155
20
-3.9369
11
5.74155
21
-3.9369
0
LINE
8
BLACK
6
CONTINUOUS
10
5.74155
20
-3.9369
11
5.73917
21
-3.94265
0
LINE
8
BLACK
6
CONTINUOUS
10
5.73917
20
-3.94265
11
5.73917
21
-3.94265
0
LINE
8
BLACK
6
CONTINUOUS
10
5.73917
20
-3.94265
11
5.73836
21
-3.94882
0
LINE
8
BLACK
6
CONTINUOUS
10
5.73836
20
-3.94882
11
5.73836
21
-3.94882
0
LINE
8
BLACK
6
CONTINUOUS
10
5.73836
20
-3.94882
11
5.73917
21
-3.95499
0
LINE
8
BLACK
6
CONTINUOUS
10
5.73917
20
-3.95499
11
5.73917
21
-3.95499
0
LINE
8
BLACK
6
CONTINUOUS
10
5.73917
20
-3.95499
11
5.74155
21
-3.96074
0
LINE
8
BLACK
6
CONTINUOUS
10
5.74155
20
-3.96074
11
5.74155
21
-3.96074
0
LINE
8
BLACK
6
CONTINUOUS
10
5.74155
20
-3.96074
11
5.74534
21
-3.96568
0
LINE
8
BLACK
6
CONTINUOUS
10
5.74534
20
-3.96568
11
5.74534
21
-3.96568
0
LINE
8
BLACK
6
CONTINUOUS
10
5.74534
20
-3.96568
11
5.74534
21
-3.96568
0
LINE
8
BLACK
6
CONTINUOUS
10
5.74534
20
-3.96568
11
5.74534
21
-3.96568
0
LINE
8
BLACK
6
CONTINUOUS
10
5.74534
20
-3.96568
11
5.75028
21
-3.96947
0
LINE
8
BLACK
6
CONTINUOUS
10
5.75028
20
-3.96947
11
5.7505
21
-3.9696
0
LINE
8
BLACK
6
CONTINUOUS
10
5.7505
20
-3.9696
11
5.75046
21
-3.96967
0
LINE
8
BLACK
6
CONTINUOUS
10
5.75046
20
-3.96967
11
5.752
21
-3.97099
0
LINE
8
BLACK
6
CONTINUOUS
10
5.752
20
-3.97099
11
5.75258
21
-3.97303
0
LINE
8
BLACK
6
CONTINUOUS
10
5.75258
20
-3.97303
11
5.75258
21
-4.03161
0
LINE
8
BLACK
6
CONTINUOUS
10
5.75258
20
-4.03161
11
5.75183
21
-4.0339
0
LINE
8
BLACK
6
CONTINUOUS
10
5.75183
20
-4.0339
11
5.75155
21
-4.03424
0
LINE
8
BLACK
6
CONTINUOUS
10
5.75155
20
-4.03424
11
5.7477
21
-4.03926
0
LINE
8
BLACK
6
CONTINUOUS
10
5.7477
20
-4.03926
11
5.7477
21
-4.03926
0
LINE
8
BLACK
6
CONTINUOUS
10
5.7477
20
-4.03926
11
5.74531
21
-4.04501
0
LINE
8
BLACK
6
CONTINUOUS
10
5.74531
20
-4.04501
11
5.74531
21
-4.04501
0
LINE
8
BLACK
6
CONTINUOUS
10
5.74531
20
-4.04501
11
5.7445
21
-4.05118
0
LINE
8
BLACK
6
CONTINUOUS
10
5.7445
20
-4.05118
11
5.7445
21
-4.05118
0
LINE
8
BLACK
6
CONTINUOUS
10
5.7445
20
-4.05118
11
5.74531
21
-4.05735
0
LINE
8
BLACK
6
CONTINUOUS
10
5.74531
20
-4.05735
11
5.74531
21
-4.05735
0
LINE
8
BLACK
6
CONTINUOUS
10
5.74531
20
-4.05735
11
5.7477
21
-4.0631
0
LINE
8
BLACK
6
CONTINUOUS
10
5.7477
20
-4.0631
11
5.7477
21
-4.0631
0
LINE
8
BLACK
6
CONTINUOUS
10
5.7477
20
-4.0631
11
5.75137
21
-4.0679
0
LINE
8
BLACK
6
CONTINUOUS
10
5.75137
20
-4.0679
11
5.75148
21
-4.06804
0
LINE
8
BLACK
6
CONTINUOUS
10
5.75148
20
-4.06804
11
5.75642
21
-4.07183
0
LINE
8
BLACK
6
CONTINUOUS
10
5.75642
20
-4.07183
11
5.75642
21
-4.07183
0
LINE
8
BLACK
6
CONTINUOUS
10
5.75642
20
-4.07183
11
5.75642
21
-4.07183
0
LINE
8
BLACK
6
CONTINUOUS
10
5.75642
20
-4.07183
11
5.76057
21
-4.07355
0
LINE
8
BLACK
6
CONTINUOUS
10
5.76057
20
-4.07355
11
5.76217
21
-4.07421
0
LINE
8
BLACK
6
CONTINUOUS
10
5.76217
20
-4.07421
11
5.7668
21
-4.07482
0
LINE
8
BLACK
6
CONTINUOUS
10
5.7668
20
-4.07482
11
5.76835
21
-4.07503
0
LINE
8
BLACK
6
CONTINUOUS
10
5.76835
20
-4.07503
11
5.76835
21
-4.07503
0
LINE
8
BLACK
6
CONTINUOUS
10
5.76835
20
-4.07503
11
5.76835
21
-4.07503
0
LINE
8
BLACK
6
CONTINUOUS
10
5.76835
20
-4.07503
11
5.76958
21
-4.07486
0
LINE
8
BLACK
6
CONTINUOUS
10
5.76958
20
-4.07486
11
5.77452
21
-4.07421
0
LINE
8
BLACK
6
CONTINUOUS
10
5.77452
20
-4.07421
11
5.78027
21
-4.07183
0
LINE
8
BLACK
6
CONTINUOUS
10
5.78027
20
-4.07183
11
5.78521
21
-4.06804
0
LINE
8
BLACK
6
CONTINUOUS
10
5.78521
20
-4.06804
11
5.789
21
-4.0631
0
LINE
8
BLACK
6
CONTINUOUS
10
5.789
20
-4.0631
11
5.79138
21
-4.05735
0
LINE
8
BLACK
6
CONTINUOUS
10
5.79138
20
-4.05735
11
5.79219
21
-4.05118
0
LINE
8
BLACK
6
CONTINUOUS
10
5.79219
20
-4.05118
11
5.79138
21
-4.04501
0
LINE
8
BLACK
6
CONTINUOUS
10
5.79138
20
-4.04501
11
5.78975
21
-4.04107
0
LINE
8
BLACK
6
CONTINUOUS
10
5.78975
20
-4.04107
11
5.789
21
-4.03926
0
LINE
8
BLACK
6
CONTINUOUS
10
5.789
20
-4.03926
11
5.789
21
-4.03926
0
LINE
8
BLACK
6
CONTINUOUS
10
5.789
20
-4.03926
11
5.78505
21
-4.03412
0
LINE
8
BLACK
6
CONTINUOUS
10
5.78505
20
-4.03412
11
5.78511
21
-4.03408
0
LINE
8
BLACK
6
CONTINUOUS
10
5.78511
20
-4.03408
11
5.78416
21
-4.03222
0
LINE
8
BLACK
6
CONTINUOUS
10
5.78416
20
-4.03222
11
5.78411
21
-4.03161
0
LINE
8
BLACK
6
CONTINUOUS
10
5.78411
20
-4.03161
11
5.78411
21
-3.95847
0
LINE
8
BLACK
6
CONTINUOUS
10
5.78411
20
-3.95847
11
5.78441
21
-3.95698
0
LINE
8
BLACK
6
CONTINUOUS
10
5.78441
20
-3.95698
11
5.78497
21
-3.95563
0
LINE
8
BLACK
6
CONTINUOUS
10
5.78497
20
-3.95563
11
5.78524
21
-3.95499
0
LINE
8
BLACK
6
CONTINUOUS
10
5.78524
20
-3.95499
11
5.78605
21
-3.94882
0
LINE
8
BLACK
6
CONTINUOUS
10
5.78605
20
-3.94882
11
5.78524
21
-3.94265
0
LINE
8
BLACK
6
CONTINUOUS
10
5.78524
20
-3.94265
11
5.78524
21
-3.94265
0
LINE
8
BLACK
6
CONTINUOUS
10
5.78524
20
-3.94265
11
5.78378
21
-3.93914
0
LINE
8
BLACK
6
CONTINUOUS
10
5.78378
20
-3.93914
11
5.78348
21
-3.93764
0
LINE
8
BLACK
6
CONTINUOUS
10
5.78348
20
-3.93764
11
5.78348
21
-3.87457
0
LINE
8
BLACK
6
CONTINUOUS
10
5.78348
20
-3.87457
11
5.78423
21
-3.87228
0
LINE
8
BLACK
6
CONTINUOUS
10
5.78423
20
-3.87228
11
5.78452
21
-3.87194
0
LINE
8
BLACK
6
CONTINUOUS
10
5.78452
20
-3.87194
11
5.78595
21
-3.87008
0
LINE
8
BLACK
6
CONTINUOUS
10
5.78595
20
-3.87008
11
5.78837
21
-3.86692
0
LINE
8
BLACK
6
CONTINUOUS
10
5.78837
20
-3.86692
11
5.79075
21
-3.86117
0
LINE
8
BLACK
6
CONTINUOUS
10
5.79075
20
-3.86117
11
5.79156
21
-3.855
0
LINE
8
BLACK
6
CONTINUOUS
10
5.79156
20
-3.855
11
5.79075
21
-3.84883
0
LINE
8
BLACK
6
CONTINUOUS
10
5.79075
20
-3.84883
11
5.78985
21
-3.84667
0
LINE
8
BLACK
6
CONTINUOUS
10
5.78985
20
-3.84667
11
5.78967
21
-3.84427
0
LINE
8
BLACK
6
CONTINUOUS
10
5.78967
20
-3.84427
11
5.79092
21
-3.84221
0
LINE
8
BLACK
6
CONTINUOUS
10
5.79092
20
-3.84221
11
5.79315
21
-3.84129
0
LINE
8
BLACK
6
CONTINUOUS
10
5.79315
20
-3.84129
11
5.79549
21
-3.84185
0
LINE
8
BLACK
6
CONTINUOUS
10
5.79549
20
-3.84185
11
5.79621
21
-3.84242
0
LINE
8
BLACK
6
CONTINUOUS
10
5.79621
20
-3.84242
11
5.90632
21
-3.95253
0
LINE
8
BLACK
6
CONTINUOUS
10
5.90632
20
-3.95253
11
5.90741
21
-3.95467
0
LINE
8
BLACK
6
CONTINUOUS
10
5.90741
20
-3.95467
11
5.90746
21
-3.95528
0
LINE
8
BLACK
6
CONTINUOUS
10
5.90746
20
-3.95528
11
5.90746
21
-3.99461
0
LINE
8
BLACK
6
CONTINUOUS
10
5.90746
20
-3.99461
11
5.90672
21
-3.99691
0
LINE
8
BLACK
6
CONTINUOUS
10
5.90672
20
-3.99691
11
5.90594
21
-3.99771
0
LINE
8
BLACK
6
CONTINUOUS
10
5.90594
20
-3.99771
11
5.9044
21
-3.99889
0
LINE
8
BLACK
6
CONTINUOUS
10
5.9044
20
-3.99889
11
5.9044
21
-3.99889
0
LINE
8
BLACK
6
CONTINUOUS
10
5.9044
20
-3.99889
11
5.90061
21
-4.00383
0
LINE
8
BLACK
6
CONTINUOUS
10
5.90061
20
-4.00383
11
5.90061
21
-4.00383
0
LINE
8
BLACK
6
CONTINUOUS
10
5.90061
20
-4.00383
11
5.89823
21
-4.00958
0
LINE
8
BLACK
6
CONTINUOUS
10
5.89823
20
-4.00958
11
5.89823
21
-4.00958
0
LINE
8
BLACK
6
CONTINUOUS
10
5.89823
20
-4.00958
11
5.89741
21
-4.01575
0
LINE
8
BLACK
6
CONTINUOUS
10
5.89741
20
-4.01575
11
5.89741
21
-4.01575
0
LINE
8
BLACK
6
CONTINUOUS
10
5.89741
20
-4.01575
11
5.89823
21
-4.02192
0
LINE
8
BLACK
6
CONTINUOUS
10
5.89823
20
-4.02192
11
5.89823
21
-4.02192
0
LINE
8
BLACK
6
CONTINUOUS
10
5.89823
20
-4.02192
11
5.90061
21
-4.02767
0
LINE
8
BLACK
6
CONTINUOUS
10
5.90061
20
-4.02767
11
5.90061
21
-4.02767
0
LINE
8
BLACK
6
CONTINUOUS
10
5.90061
20
-4.02767
11
5.9044
21
-4.03261
0
LINE
8
BLACK
6
CONTINUOUS
10
5.9044
20
-4.03261
11
5.9044
21
-4.03261
0
LINE
8
BLACK
6
CONTINUOUS
10
5.9044
20
-4.03261
11
5.90934
21
-4.0364
0
LINE
8
BLACK
6
CONTINUOUS
10
5.90934
20
-4.0364
11
5.91509
21
-4.03878
0
LINE
8
BLACK
6
CONTINUOUS
10
5.91509
20
-4.03878
11
5.91972
21
-4.03939
0
LINE
8
BLACK
6
CONTINUOUS
10
5.91972
20
-4.03939
11
5.92126
21
-4.03959
0
LINE
8
BLACK
6
CONTINUOUS
10
5.92126
20
-4.03959
11
5.92126
21
-4.03959
0
LINE
8
BLACK
6
CONTINUOUS
10
5.92126
20
-4.03959
11
5.92126
21
-4.03959
0
LINE
8
BLACK
6
CONTINUOUS
10
5.92126
20
-4.03959
11
5.92249
21
-4.03943
0
LINE
8
BLACK
6
CONTINUOUS
10
5.92249
20
-4.03943
11
5.92743
21
-4.03878
0
LINE
8
BLACK
6
CONTINUOUS
10
5.92743
20
-4.03878
11
5.93318
21
-4.0364
0
LINE
8
BLACK
6
CONTINUOUS
10
5.93318
20
-4.0364
11
5.93812
21
-4.03261
0
LINE
8
BLACK
6
CONTINUOUS
10
5.93812
20
-4.03261
11
5.94191
21
-4.02767
0
LINE
8
BLACK
6
CONTINUOUS
10
5.94191
20
-4.02767
11
5.94429
21
-4.02192
0
LINE
8
BLACK
6
CONTINUOUS
10
5.94429
20
-4.02192
11
5.94511
21
-4.01575
0
LINE
8
BLACK
6
CONTINUOUS
10
5.94511
20
-4.01575
11
5.94429
21
-4.00958
0
LINE
8
BLACK
6
CONTINUOUS
10
5.94429
20
-4.00958
11
5.94191
21
-4.00383
0
LINE
8
BLACK
6
CONTINUOUS
10
5.94191
20
-4.00383
11
5.94191
21
-4.00383
0
LINE
8
BLACK
6
CONTINUOUS
10
5.94191
20
-4.00383
11
5.93812
21
-3.99889
0
LINE
8
BLACK
6
CONTINUOUS
10
5.93812
20
-3.99889
11
5.93812
21
-3.99889
0
LINE
8
BLACK
6
CONTINUOUS
10
5.93812
20
-3.99889
11
5.93658
21
-3.99771
0
LINE
8
BLACK
6
CONTINUOUS
10
5.93658
20
-3.99771
11
5.93522
21
-3.99572
0
LINE
8
BLACK
6
CONTINUOUS
10
5.93522
20
-3.99572
11
5.93506
21
-3.99461
0
LINE
8
BLACK
6
CONTINUOUS
10
5.93506
20
-3.99461
11
5.93506
21
-3.94979
0
LINE
8
BLACK
6
CONTINUOUS
10
5.93506
20
-3.94979
11
5.93514
21
-3.94899
0
LINE
8
BLACK
6
CONTINUOUS
10
5.93514
20
-3.94899
11
5.93524
21
-3.94854
0
LINE
8
BLACK
6
CONTINUOUS
10
5.93524
20
-3.94854
11
5.93524
21
-3.94853
0
LINE
8
BLACK
6
CONTINUOUS
10
5.93524
20
-3.94853
11
5.93507
21
-3.94722
0
LINE
8
BLACK
6
CONTINUOUS
10
5.93507
20
-3.94722
11
5.93506
21
-3.94697
0
LINE
8
BLACK
6
CONTINUOUS
10
5.93506
20
-3.94697
11
5.93506
21
-3.94681
0
LINE
8
BLACK
6
CONTINUOUS
10
5.93506
20
-3.94681
11
5.93506
21
-3.94681
0
LINE
8
BLACK
6
CONTINUOUS
10
5.93506
20
-3.94681
11
5.93492
21
-3.94596
0
LINE
8
BLACK
6
CONTINUOUS
10
5.93492
20
-3.94596
11
5.93467
21
-3.94396
0
LINE
8
BLACK
6
CONTINUOUS
10
5.93467
20
-3.94396
11
5.93467
21
-3.94396
0
LINE
8
BLACK
6
CONTINUOUS
10
5.93467
20
-3.94396
11
5.93467
21
-3.94396
0
LINE
8
BLACK
6
CONTINUOUS
10
5.93467
20
-3.94396
11
5.93459
21
-3.94368
0
LINE
8
BLACK
6
CONTINUOUS
10
5.93459
20
-3.94368
11
5.93449
21
-3.94341
0
LINE
8
BLACK
6
CONTINUOUS
10
5.93449
20
-3.94341
11
5.93353
21
-3.94164
0
LINE
8
BLACK
6
CONTINUOUS
10
5.93353
20
-3.94164
11
5.93265
21
-3.93982
0
LINE
8
BLACK
6
CONTINUOUS
10
5.93265
20
-3.93982
11
5.93248
21
-3.93959
0
LINE
8
BLACK
6
CONTINUOUS
10
5.93248
20
-3.93959
11
5.9323
21
-3.93936
0
LINE
8
BLACK
6
CONTINUOUS
10
5.9323
20
-3.93936
11
5.93082
21
-3.93799
0
LINE
8
BLACK
6
CONTINUOUS
10
5.93082
20
-3.93799
11
5.89833
21
-3.90551
0
LINE
8
BLACK
6
CONTINUOUS
10
5.89833
20
-3.90551
11
5.78268
21
-3.78985
0
LINE
8
BLACK
6
CONTINUOUS
10
5.78268
20
-3.78985
11
5.78158
21
-3.78771
0
LINE
8
BLACK
6
CONTINUOUS
10
5.78158
20
-3.78771
11
5.78157
21
-3.78659
0
LINE
8
BLACK
6
CONTINUOUS
10
5.78157
20
-3.78659
11
5.78172
21
-3.78543
0
LINE
8
BLACK
6
CONTINUOUS
10
5.78172
20
-3.78543
11
5.78091
21
-3.77926
0
LINE
8
BLACK
6
CONTINUOUS
10
5.78091
20
-3.77926
11
5.7789
21
-3.77442
0
LINE
8
BLACK
6
CONTINUOUS
10
5.7789
20
-3.77442
11
5.77853
21
-3.77351
0
LINE
8
BLACK
6
CONTINUOUS
10
5.77853
20
-3.77351
11
5.77853
21
-3.77351
0
LINE
8
BLACK
6
CONTINUOUS
10
5.77853
20
-3.77351
11
5.77474
21
-3.76857
0
LINE
8
BLACK
6
CONTINUOUS
10
5.77474
20
-3.76857
11
5.77474
21
-3.76857
0
LINE
8
BLACK
6
CONTINUOUS
10
5.77474
20
-3.76857
11
5.77474
21
-3.76857
0
LINE
8
BLACK
6
CONTINUOUS
10
5.77474
20
-3.76857
11
5.77474
21
-3.76857
0
LINE
8
BLACK
6
CONTINUOUS
10
5.77474
20
-3.76857
11
5.77474
21
-3.76857
0
LINE
8
BLACK
6
CONTINUOUS
10
5.77474
20
-3.76857
11
5.77193
21
-3.76642
0
LINE
8
BLACK
6
CONTINUOUS
10
5.77193
20
-3.76642
11
5.7698
21
-3.76478
0
LINE
8
BLACK
6
CONTINUOUS
10
5.7698
20
-3.76478
11
5.7698
21
-3.76478
0
LINE
8
BLACK
6
CONTINUOUS
10
5.7698
20
-3.76478
11
5.7698
21
-3.76478
0
LINE
8
BLACK
6
CONTINUOUS
10
5.7698
20
-3.76478
11
5.76405
21
-3.7624
0
LINE
8
BLACK
6
CONTINUOUS
10
5.76405
20
-3.7624
11
5.76405
21
-3.7624
0
LINE
8
BLACK
6
CONTINUOUS
10
5.76405
20
-3.7624
11
5.75787
21
-3.76159
0
LINE
8
BLACK
6
CONTINUOUS
10
5.75787
20
-3.76159
11
5.75787
21
-3.76159
0
LINE
8
BLACK
6
CONTINUOUS
10
5.75787
20
-3.76159
11
5.7517
21
-3.7624
0
LINE
8
BLACK
6
CONTINUOUS
10
5.9376
20
-3.91168
11
5.9376
21
-3.91168
0
LINE
8
BLACK
6
CONTINUOUS
10
5.9376
20
-3.91168
11
5.93998
21
-3.91743
0
LINE
8
BLACK
6
CONTINUOUS
10
5.93998
20
-3.91743
11
5.93998
21
-3.91743
0
LINE
8
BLACK
6
CONTINUOUS
10
5.93998
20
-3.91743
11
5.94333
21
-3.9218
0
LINE
8
BLACK
6
CONTINUOUS
10
5.94333
20
-3.9218
11
5.94377
21
-3.92237
0
LINE
8
BLACK
6
CONTINUOUS
10
5.94377
20
-3.92237
11
5.94871
21
-3.92616
0
LINE
8
BLACK
6
CONTINUOUS
10
5.94871
20
-3.92616
11
5.94871
21
-3.92616
0
LINE
8
BLACK
6
CONTINUOUS
10
5.94871
20
-3.92616
11
5.94871
21
-3.92616
0
LINE
8
BLACK
6
CONTINUOUS
10
5.94871
20
-3.92616
11
5.95446
21
-3.92854
0
LINE
8
BLACK
6
CONTINUOUS
10
5.95446
20
-3.92854
11
5.95446
21
-3.92855
0
LINE
8
BLACK
6
CONTINUOUS
10
5.95446
20
-3.92855
11
5.96063
21
-3.92936
0
LINE
8
BLACK
6
CONTINUOUS
10
5.96063
20
-3.92936
11
5.96255
21
-3.9291
0
LINE
8
BLACK
6
CONTINUOUS
10
5.96255
20
-3.9291
11
5.96492
21
-3.92954
0
LINE
8
BLACK
6
CONTINUOUS
10
5.96492
20
-3.92954
11
5.96582
21
-3.93021
0
LINE
8
BLACK
6
CONTINUOUS
10
5.96582
20
-3.93021
11
6.0837
21
-4.0481
0
LINE
8
BLACK
6
CONTINUOUS
10
6.0837
20
-4.0481
11
6.0848
21
-4.05025
0
LINE
8
BLACK
6
CONTINUOUS
10
6.0848
20
-4.05025
11
6.08481
21
-4.05035
0
LINE
8
BLACK
6
CONTINUOUS
10
6.08481
20
-4.05035
11
6.08521
21
-4.05342
0
LINE
8
BLACK
6
CONTINUOUS
10
6.08521
20
-4.05342
11
6.0876
21
-4.05917
0
LINE
8
BLACK
6
CONTINUOUS
10
6.0876
20
-4.05917
11
6.0876
21
-4.05917
0
LINE
8
BLACK
6
CONTINUOUS
10
6.0876
20
-4.05917
11
6.09031
21
-4.06271
0
LINE
8
BLACK
6
CONTINUOUS
10
6.09031
20
-4.06271
11
6.09139
21
-4.06411
0
LINE
8
BLACK
6
CONTINUOUS
10
6.09139
20
-4.06411
11
6.09633
21
-4.0679
0
LINE
8
BLACK
6
CONTINUOUS
10
6.09633
20
-4.0679
11
6.09633
21
-4.0679
0
LINE
8
BLACK
6
CONTINUOUS
10
6.09633
20
-4.0679
11
6.09633
21
-4.0679
0
LINE
8
BLACK
6
CONTINUOUS
10
6.09633
20
-4.0679
11
6.10091
21
-4.06979
0
LINE
8
BLACK
6
CONTINUOUS
10
6.10091
20
-4.06979
11
6.10208
21
-4.07028
0
LINE
8
BLACK
6
CONTINUOUS
10
6.10208
20
-4.07028
11
6.10671
21
-4.07089
0
LINE
8
BLACK
6
CONTINUOUS
10
6.10671
20
-4.07089
11
6.10825
21
-4.07109
0
LINE
8
BLACK
6
CONTINUOUS
10
6.10825
20
-4.07109
11
6.10825
21
-4.07109
0
LINE
8
BLACK
6
CONTINUOUS
10
6.10825
20
-4.07109
11
6.10825
21
-4.07109
0
LINE
8
BLACK
6
CONTINUOUS
10
6.10825
20
-4.07109
11
6.10948
21
-4.07093
0
LINE
8
BLACK
6
CONTINUOUS
10
6.10948
20
-4.07093
11
6.11442
21
-4.07028
0
LINE
8
BLACK
6
CONTINUOUS
10
6.11442
20
-4.07028
11
6.12017
21
-4.0679
0
LINE
8
BLACK
6
CONTINUOUS
10
6.12017
20
-4.0679
11
6.12511
21
-4.06411
0
LINE
8
BLACK
6
CONTINUOUS
10
6.12511
20
-4.06411
11
6.1289
21
-4.05917
0
LINE
8
BLACK
6
CONTINUOUS
10
6.1289
20
-4.05917
11
6.13128
21
-4.05342
0
LINE
8
BLACK
6
CONTINUOUS
10
6.13128
20
-4.05342
11
6.13209
21
-4.04724
0
LINE
8
BLACK
6
CONTINUOUS
10
6.13209
20
-4.04724
11
6.13128
21
-4.04107
0
LINE
8
BLACK
6
CONTINUOUS
10
6.13128
20
-4.04107
11
6.13053
21
-4.03926
0
LINE
8
BLACK
6
CONTINUOUS
10
6.13053
20
-4.03926
11
6.1289
21
-4.03532
0
LINE
8
BLACK
6
CONTINUOUS
10
6.1289
20
-4.03532
11
6.1289
21
-4.03532
0
LINE
8
BLACK
6
CONTINUOUS
10
6.1289
20
-4.03532
11
6.12511
21
-4.03038
0
LINE
8
BLACK
6
CONTINUOUS
10
6.12511
20
-4.03038
11
6.12511
21
-4.03038
0
LINE
8
BLACK
6
CONTINUOUS
10
6.12511
20
-4.03038
11
6.12511
21
-4.03038
0
LINE
8
BLACK
6
CONTINUOUS
10
6.12511
20
-4.03038
11
6.12511
21
-4.03038
0
LINE
8
BLACK
6
CONTINUOUS
10
6.12511
20
-4.03038
11
6.12511
21
-4.03038
0
LINE
8
BLACK
6
CONTINUOUS
10
6.12511
20
-4.03038
11
6.12158
21
-4.02767
0
LINE
8
BLACK
6
CONTINUOUS
10
6.12158
20
-4.02767
11
6.12017
21
-4.02659
0
LINE
8
BLACK
6
CONTINUOUS
10
6.12017
20
-4.02659
11
6.12017
21
-4.02659
0
LINE
8
BLACK
6
CONTINUOUS
10
6.12017
20
-4.02659
11
6.12017
21
-4.02659
0
LINE
8
BLACK
6
CONTINUOUS
10
6.12017
20
-4.02659
11
6.11442
21
-4.02421
0
LINE
8
BLACK
6
CONTINUOUS
10
6.11442
20
-4.02421
11
6.11442
21
-4.02421
0
LINE
8
BLACK
6
CONTINUOUS
10
6.11442
20
-4.02421
11
6.10825
21
-4.0234
0
LINE
8
BLACK
6
CONTINUOUS
10
6.10825
20
-4.0234
11
6.10825
21
-4.0234
0
LINE
8
BLACK
6
CONTINUOUS
10
6.10825
20
-4.0234
11
6.10208
21
-4.02421
0
LINE
8
BLACK
6
CONTINUOUS
10
6.10208
20
-4.02421
11
6.10183
21
-4.02428
0
LINE
8
BLACK
6
CONTINUOUS
10
6.10183
20
-4.02428
11
6.10181
21
-4.02419
0
LINE
8
BLACK
6
CONTINUOUS
10
6.10181
20
-4.02419
11
6.0998
21
-4.02435
0
LINE
8
BLACK
6
CONTINUOUS
10
6.0998
20
-4.02435
11
6.09795
21
-4.02332
0
LINE
8
BLACK
6
CONTINUOUS
10
6.09795
20
-4.02332
11
5.98533
21
-3.9107
0
LINE
8
BLACK
6
CONTINUOUS
10
5.98533
20
-3.9107
11
5.98424
21
-3.90855
0
LINE
8
BLACK
6
CONTINUOUS
10
5.98424
20
-3.90855
11
5.98422
21
-3.90743
0
LINE
8
BLACK
6
CONTINUOUS
10
5.98422
20
-3.90743
11
5.98448
21
-3.90551
0
LINE
8
BLACK
6
CONTINUOUS
10
5.98448
20
-3.90551
11
5.98366
21
-3.89934
0
LINE
8
BLACK
6
CONTINUOUS
10
5.98366
20
-3.89934
11
5.98309
21
-3.89795
0
LINE
8
BLACK
6
CONTINUOUS
10
5.98309
20
-3.89795
11
5.98128
21
-3.89359
0
LINE
8
BLACK
6
CONTINUOUS
10
5.98128
20
-3.89359
11
5.98128
21
-3.89359
0
LINE
8
BLACK
6
CONTINUOUS
10
5.98128
20
-3.89359
11
5.97749
21
-3.88865
0
LINE
8
BLACK
6
CONTINUOUS
10
5.97749
20
-3.88865
11
5.97749
21
-3.88865
0
LINE
8
BLACK
6
CONTINUOUS
10
5.97749
20
-3.88865
11
5.97749
21
-3.88865
0
LINE
8
BLACK
6
CONTINUOUS
10
5.97749
20
-3.88865
11
5.97749
21
-3.88865
0
LINE
8
BLACK
6
CONTINUOUS
10
5.97749
20
-3.88865
11
5.97749
21
-3.88865
0
LINE
8
BLACK
6
CONTINUOUS
10
5.97749
20
-3.88865
11
5.97255
21
-3.88486
0
LINE
8
BLACK
6
CONTINUOUS
10
5.97255
20
-3.88486
11
5.9668
21
-3.88248
0
LINE
8
BLACK
6
CONTINUOUS
10
5.9668
20
-3.88248
11
5.9668
21
-3.88248
0
LINE
8
BLACK
6
CONTINUOUS
10
5.9668
20
-3.88248
11
5.96063
21
-3.88167
0
LINE
8
BLACK
6
CONTINUOUS
10
5.96063
20
-3.88167
11
5.96063
21
-3.88167
0
LINE
8
BLACK
6
CONTINUOUS
10
5.96063
20
-3.88167
11
5.95446
21
-3.88248
0
LINE
8
BLACK
6
CONTINUOUS
10
5.95446
20
-3.88248
11
5.95446
21
-3.88248
0
LINE
8
BLACK
6
CONTINUOUS
10
5.95446
20
-3.88248
11
5.94871
21
-3.88486
0
LINE
8
BLACK
6
CONTINUOUS
10
5.94871
20
-3.88486
11
5.94871
21
-3.88486
0
LINE
8
BLACK
6
CONTINUOUS
10
5.94871
20
-3.88486
11
5.94377
21
-3.88865
0
LINE
8
BLACK
6
CONTINUOUS
10
5.94377
20
-3.88865
11
5.94377
21
-3.88865
0
LINE
8
BLACK
6
CONTINUOUS
10
5.94377
20
-3.88865
11
5.93998
21
-3.89359
0
LINE
8
BLACK
6
CONTINUOUS
10
5.93998
20
-3.89359
11
5.93998
21
-3.89359
0
LINE
8
BLACK
6
CONTINUOUS
10
5.93998
20
-3.89359
11
5.9376
21
-3.89934
0
LINE
8
BLACK
6
CONTINUOUS
10
5.9376
20
-3.89934
11
5.9376
21
-3.89934
0
LINE
8
BLACK
6
CONTINUOUS
10
5.9376
20
-3.89934
11
5.93678
21
-3.90551
0
LINE
8
BLACK
6
CONTINUOUS
10
5.93678
20
-3.90551
11
5.93678
21
-3.90551
0
LINE
8
BLACK
6
CONTINUOUS
10
5.93678
20
-3.90551
11
5.9376
21
-3.91168
0
LINE
8
BLACK
6
CONTINUOUS
10
5.6846
20
-3.97533
11
5.6846
21
-3.97533
0
LINE
8
BLACK
6
CONTINUOUS
10
5.6846
20
-3.97533
11
5.68699
21
-3.98108
0
LINE
8
BLACK
6
CONTINUOUS
10
5.68699
20
-3.98108
11
5.68699
21
-3.98108
0
LINE
8
BLACK
6
CONTINUOUS
10
5.68699
20
-3.98108
11
5.68699
21
-3.98108
0
LINE
8
BLACK
6
CONTINUOUS
10
5.68699
20
-3.98108
11
5.69078
21
-3.98602
0
LINE
8
BLACK
6
CONTINUOUS
10
5.69078
20
-3.98602
11
5.69571
21
-3.9898
0
LINE
8
BLACK
6
CONTINUOUS
10
5.69571
20
-3.9898
11
5.70147
21
-3.99219
0
LINE
8
BLACK
6
CONTINUOUS
10
5.70147
20
-3.99219
11
5.70609
21
-3.9928
0
LINE
8
BLACK
6
CONTINUOUS
10
5.70609
20
-3.9928
11
5.70764
21
-3.993
0
LINE
8
BLACK
6
CONTINUOUS
10
5.70764
20
-3.993
11
5.70764
21
-3.993
0
LINE
8
BLACK
6
CONTINUOUS
10
5.70764
20
-3.993
11
5.70764
21
-3.993
0
LINE
8
BLACK
6
CONTINUOUS
10
5.70764
20
-3.993
11
5.70887
21
-3.99284
0
LINE
8
BLACK
6
CONTINUOUS
10
5.70887
20
-3.99284
11
5.71381
21
-3.99219
0
LINE
8
BLACK
6
CONTINUOUS
10
5.71381
20
-3.99219
11
5.71956
21
-3.9898
0
LINE
8
BLACK
6
CONTINUOUS
10
5.71956
20
-3.9898
11
5.7245
21
-3.98602
0
LINE
8
BLACK
6
CONTINUOUS
10
5.7245
20
-3.98602
11
5.72829
21
-3.98108
0
LINE
8
BLACK
6
CONTINUOUS
10
5.72829
20
-3.98108
11
5.73067
21
-3.97533
0
LINE
8
BLACK
6
CONTINUOUS
10
5.73067
20
-3.97533
11
5.73148
21
-3.96915
0
LINE
8
BLACK
6
CONTINUOUS
10
5.73148
20
-3.96915
11
5.73067
21
-3.96298
0
LINE
8
BLACK
6
CONTINUOUS
10
5.73067
20
-3.96298
11
5.72974
21
-3.96074
0
LINE
8
BLACK
6
CONTINUOUS
10
5.72974
20
-3.96074
11
5.72829
21
-3.95723
0
LINE
8
BLACK
6
CONTINUOUS
10
5.72829
20
-3.95723
11
5.72829
21
-3.95723
0
LINE
8
BLACK
6
CONTINUOUS
10
5.72829
20
-3.95723
11
5.7245
21
-3.95229
0
LINE
8
BLACK
6
CONTINUOUS
10
5.7245
20
-3.95229
11
5.7245
21
-3.95229
0
LINE
8
BLACK
6
CONTINUOUS
10
5.7245
20
-3.95229
11
5.7245
21
-3.95229
0
LINE
8
BLACK
6
CONTINUOUS
10
5.7245
20
-3.95229
11
5.72438
21
-3.9522
0
LINE
8
BLACK
6
CONTINUOUS
10
5.72438
20
-3.9522
11
5.72364
21
-3.95163
0
LINE
8
BLACK
6
CONTINUOUS
10
5.72364
20
-3.95163
11
5.72227
21
-3.94965
0
LINE
8
BLACK
6
CONTINUOUS
10
5.72227
20
-3.94965
11
5.72211
21
-3.94854
0
LINE
8
BLACK
6
CONTINUOUS
10
5.72211
20
-3.94854
11
5.72211
21
-3.93101
0
LINE
8
BLACK
6
CONTINUOUS
10
5.72211
20
-3.93101
11
5.72286
21
-3.92872
0
LINE
8
BLACK
6
CONTINUOUS
10
5.72286
20
-3.92872
11
5.72364
21
-3.92792
0
LINE
8
BLACK
6
CONTINUOUS
10
5.72364
20
-3.92792
11
5.72518
21
-3.92674
0
LINE
8
BLACK
6
CONTINUOUS
10
5.72518
20
-3.92674
11
5.72897
21
-3.9218
0
LINE
8
BLACK
6
CONTINUOUS
10
5.72897
20
-3.9218
11
5.73135
21
-3.91605
0
LINE
8
BLACK
6
CONTINUOUS
10
5.73135
20
-3.91605
11
5.73216
21
-3.90988
0
LINE
8
BLACK
6
CONTINUOUS
10
5.73216
20
-3.90988
11
5.73135
21
-3.9037
0
LINE
8
BLACK
6
CONTINUOUS
10
5.73135
20
-3.9037
11
5.72897
21
-3.89795
0
LINE
8
BLACK
6
CONTINUOUS
10
5.72897
20
-3.89795
11
5.72897
21
-3.89795
0
LINE
8
BLACK
6
CONTINUOUS
10
5.72897
20
-3.89795
11
5.72518
21
-3.89302
0
LINE
8
BLACK
6
CONTINUOUS
10
5.72518
20
-3.89302
11
5.72518
21
-3.89302
0
LINE
8
BLACK
6
CONTINUOUS
10
5.72518
20
-3.89302
11
5.72518
21
-3.89302
0
LINE
8
BLACK
6
CONTINUOUS
10
5.72518
20
-3.89302
11
5.72518
21
-3.89301
0
LINE
8
BLACK
6
CONTINUOUS
10
5.72518
20
-3.89301
11
5.72518
21
-3.89301
0
LINE
8
BLACK
6
CONTINUOUS
10
5.72518
20
-3.89301
11
5.72024
21
-3.88923
0
LINE
8
BLACK
6
CONTINUOUS
10
5.72024
20
-3.88923
11
5.71449
21
-3.88684
0
LINE
8
BLACK
6
CONTINUOUS
10
5.71449
20
-3.88684
11
5.71449
21
-3.88684
0
LINE
8
BLACK
6
CONTINUOUS
10
5.71449
20
-3.88684
11
5.70831
21
-3.88603
0
LINE
8
BLACK
6
CONTINUOUS
10
5.70831
20
-3.88603
11
5.70831
21
-3.88603
0
LINE
8
BLACK
6
CONTINUOUS
10
5.70831
20
-3.88603
11
5.70214
21
-3.88684
0
LINE
8
BLACK
6
CONTINUOUS
10
5.70214
20
-3.88684
11
5.70214
21
-3.88684
0
LINE
8
BLACK
6
CONTINUOUS
10
5.70214
20
-3.88684
11
5.69639
21
-3.88923
0
LINE
8
BLACK
6
CONTINUOUS
10
5.69639
20
-3.88923
11
5.69639
21
-3.88923
0
LINE
8
BLACK
6
CONTINUOUS
10
5.69639
20
-3.88923
11
5.69145
21
-3.89301
0
LINE
8
BLACK
6
CONTINUOUS
10
5.69145
20
-3.89301
11
5.69145
21
-3.89302
0
LINE
8
BLACK
6
CONTINUOUS
10
5.69145
20
-3.89302
11
5.68766
21
-3.89795
0
LINE
8
BLACK
6
CONTINUOUS
10
5.68766
20
-3.89795
11
5.68766
21
-3.89795
0
LINE
8
BLACK
6
CONTINUOUS
10
5.68766
20
-3.89795
11
5.68528
21
-3.9037
0
LINE
8
BLACK
6
CONTINUOUS
10
5.68528
20
-3.9037
11
5.68528
21
-3.9037
0
LINE
8
BLACK
6
CONTINUOUS
10
5.68528
20
-3.9037
11
5.68447
21
-3.90988
0
LINE
8
BLACK
6
CONTINUOUS
10
5.68447
20
-3.90988
11
5.68447
21
-3.90988
0
LINE
8
BLACK
6
CONTINUOUS
10
5.68447
20
-3.90988
11
5.68528
21
-3.91605
0
LINE
8
BLACK
6
CONTINUOUS
10
5.68528
20
-3.91605
11
5.68528
21
-3.91605
0
LINE
8
BLACK
6
CONTINUOUS
10
5.68528
20
-3.91605
11
5.68766
21
-3.9218
0
LINE
8
BLACK
6
CONTINUOUS
10
5.68766
20
-3.9218
11
5.68766
21
-3.9218
0
LINE
8
BLACK
6
CONTINUOUS
10
5.68766
20
-3.9218
11
5.69036
21
-3.92531
0
LINE
8
BLACK
6
CONTINUOUS
10
5.69036
20
-3.92531
11
5.69145
21
-3.92674
0
LINE
8
BLACK
6
CONTINUOUS
10
5.69145
20
-3.92674
11
5.69242
21
-3.92748
0
LINE
8
BLACK
6
CONTINUOUS
10
5.69242
20
-3.92748
11
5.69299
21
-3.92792
0
LINE
8
BLACK
6
CONTINUOUS
10
5.69299
20
-3.92792
11
5.69435
21
-3.9299
0
LINE
8
BLACK
6
CONTINUOUS
10
5.69435
20
-3.9299
11
5.69452
21
-3.93101
0
LINE
8
BLACK
6
CONTINUOUS
10
5.69452
20
-3.93101
11
5.69452
21
-3.9475
0
LINE
8
BLACK
6
CONTINUOUS
10
5.69452
20
-3.9475
11
5.69377
21
-3.94979
0
LINE
8
BLACK
6
CONTINUOUS
10
5.69377
20
-3.94979
11
5.69299
21
-3.95059
0
LINE
8
BLACK
6
CONTINUOUS
10
5.69299
20
-3.95059
11
5.69078
21
-3.95229
0
LINE
8
BLACK
6
CONTINUOUS
10
5.69078
20
-3.95229
11
5.69078
21
-3.95229
0
LINE
8
BLACK
6
CONTINUOUS
10
5.69078
20
-3.95229
11
5.68699
21
-3.95723
0
LINE
8
BLACK
6
CONTINUOUS
10
5.68699
20
-3.95723
11
5.68699
21
-3.95723
0
LINE
8
BLACK
6
CONTINUOUS
10
5.68699
20
-3.95723
11
5.6846
21
-3.96298
0
LINE
8
BLACK
6
CONTINUOUS
10
5.6846
20
-3.96298
11
5.6846
21
-3.96298
0
LINE
8
BLACK
6
CONTINUOUS
10
5.6846
20
-3.96298
11
5.68379
21
-3.96915
0
LINE
8
BLACK
6
CONTINUOUS
10
5.68379
20
-3.96915
11
5.68379
21
-3.96915
0
LINE
8
BLACK
6
CONTINUOUS
10
5.68379
20
-3.96915
11
5.6846
21
-3.97533
0
LINE
8
BLACK
6
CONTINUOUS
10
6.36496
20
-3.52586
11
6.36496
21
-3.52586
0
LINE
8
BLACK
6
CONTINUOUS
10
6.36496
20
-3.52586
11
6.36734
21
-3.53161
0
LINE
8
BLACK
6
CONTINUOUS
10
6.36734
20
-3.53161
11
6.36734
21
-3.53161
0
LINE
8
BLACK
6
CONTINUOUS
10
6.36734
20
-3.53161
11
6.36734
21
-3.53161
0
LINE
8
BLACK
6
CONTINUOUS
10
6.36734
20
-3.53161
11
6.37113
21
-3.53655
0
LINE
8
BLACK
6
CONTINUOUS
10
6.37113
20
-3.53655
11
6.37607
21
-3.54034
0
LINE
8
BLACK
6
CONTINUOUS
10
6.37607
20
-3.54034
11
6.38182
21
-3.54272
0
LINE
8
BLACK
6
CONTINUOUS
10
6.38182
20
-3.54272
11
6.38799
21
-3.54353
0
LINE
8
BLACK
6
CONTINUOUS
10
6.38799
20
-3.54353
11
6.38825
21
-3.54356
0
LINE
8
BLACK
6
CONTINUOUS
10
6.38825
20
-3.54356
11
6.38824
21
-3.54363
0
LINE
8
BLACK
6
CONTINUOUS
10
6.38824
20
-3.54363
11
6.39022
21
-3.54428
0
LINE
8
BLACK
6
CONTINUOUS
10
6.39022
20
-3.54428
11
6.39068
21
-3.54467
0
LINE
8
BLACK
6
CONTINUOUS
10
6.39068
20
-3.54467
11
6.42988
21
-3.58387
0
LINE
8
BLACK
6
CONTINUOUS
10
6.42988
20
-3.58387
11
6.43098
21
-3.58602
0
LINE
8
BLACK
6
CONTINUOUS
10
6.43098
20
-3.58602
11
6.43102
21
-3.58663
0
LINE
8
BLACK
6
CONTINUOUS
10
6.43102
20
-3.58663
11
6.43102
21
-3.8923
0
LINE
8
BLACK
6
CONTINUOUS
10
6.43102
20
-3.8923
11
6.43028
21
-3.89459
0
LINE
8
BLACK
6
CONTINUOUS
10
6.43028
20
-3.89459
11
6.4295
21
-3.89539
0
LINE
8
BLACK
6
CONTINUOUS
10
6.4295
20
-3.89539
11
6.42802
21
-3.89652
0
LINE
8
BLACK
6
CONTINUOUS
10
6.42802
20
-3.89652
11
6.42802
21
-3.89652
0
LINE
8
BLACK
6
CONTINUOUS
10
6.42802
20
-3.89652
11
6.42423
21
-3.90146
0
LINE
8
BLACK
6
CONTINUOUS
10
6.42423
20
-3.90146
11
6.42423
21
-3.90146
0
LINE
8
BLACK
6
CONTINUOUS
10
6.42423
20
-3.90146
11
6.42185
21
-3.90721
0
LINE
8
BLACK
6
CONTINUOUS
10
6.42185
20
-3.90721
11
6.42185
21
-3.90721
0
LINE
8
BLACK
6
CONTINUOUS
10
6.42185
20
-3.90721
11
6.42104
21
-3.91339
0
LINE
8
BLACK
6
CONTINUOUS
10
6.42104
20
-3.91339
11
6.42104
21
-3.91339
0
LINE
8
BLACK
6
CONTINUOUS
10
6.42104
20
-3.91339
11
6.42185
21
-3.91956
0
LINE
8
BLACK
6
CONTINUOUS
10
6.42185
20
-3.91956
11
6.42185
21
-3.91956
0
LINE
8
BLACK
6
CONTINUOUS
10
6.42185
20
-3.91956
11
6.42423
21
-3.92531
0
LINE
8
BLACK
6
CONTINUOUS
10
6.42423
20
-3.92531
11
6.42423
21
-3.92531
0
LINE
8
BLACK
6
CONTINUOUS
10
6.42423
20
-3.92531
11
6.42802
21
-3.93025
0
LINE
8
BLACK
6
CONTINUOUS
10
6.42802
20
-3.93025
11
6.42802
21
-3.93025
0
LINE
8
BLACK
6
CONTINUOUS
10
6.42802
20
-3.93025
11
6.43296
21
-3.93404
0
LINE
8
BLACK
6
CONTINUOUS
10
6.43296
20
-3.93404
11
6.43871
21
-3.93642
0
LINE
8
BLACK
6
CONTINUOUS
10
6.43871
20
-3.93642
11
6.44234
21
-3.9369
0
LINE
8
BLACK
6
CONTINUOUS
10
6.44234
20
-3.9369
11
6.44488
21
-3.93723
0
LINE
8
BLACK
6
CONTINUOUS
10
6.44488
20
-3.93723
11
6.44488
21
-3.93723
0
LINE
8
BLACK
6
CONTINUOUS
10
6.44488
20
-3.93723
11
6.44488
21
-3.93723
0
LINE
8
BLACK
6
CONTINUOUS
10
6.44488
20
-3.93723
11
6.44612
21
-3.93707
0
LINE
8
BLACK
6
CONTINUOUS
10
6.44612
20
-3.93707
11
6.45105
21
-3.93642
0
LINE
8
BLACK
6
CONTINUOUS
10
6.45105
20
-3.93642
11
6.4568
21
-3.93404
0
LINE
8
BLACK
6
CONTINUOUS
10
6.4568
20
-3.93404
11
6.46174
21
-3.93025
0
LINE
8
BLACK
6
CONTINUOUS
10
6.46174
20
-3.93025
11
6.46553
21
-3.92531
0
LINE
8
BLACK
6
CONTINUOUS
10
6.46553
20
-3.92531
11
6.46792
21
-3.91956
0
LINE
8
BLACK
6
CONTINUOUS
10
6.46792
20
-3.91956
11
6.46873
21
-3.91339
0
LINE
8
BLACK
6
CONTINUOUS
10
6.46873
20
-3.91339
11
6.46792
21
-3.90721
0
LINE
8
BLACK
6
CONTINUOUS
10
6.46792
20
-3.90721
11
6.46553
21
-3.90146
0
LINE
8
BLACK
6
CONTINUOUS
10
6.46553
20
-3.90146
11
6.46336
21
-3.89864
0
LINE
8
BLACK
6
CONTINUOUS
10
6.46336
20
-3.89864
11
6.46256
21
-3.89637
0
LINE
8
BLACK
6
CONTINUOUS
10
6.46256
20
-3.89637
11
6.46256
21
-3.89626
0
LINE
8
BLACK
6
CONTINUOUS
10
6.46256
20
-3.89626
11
6.46256
21
-3.57599
0
LINE
8
BLACK
6
CONTINUOUS
10
6.46256
20
-3.57599
11
6.46256
21
-3.57599
0
LINE
8
BLACK
6
CONTINUOUS
10
6.46256
20
-3.57599
11
6.46227
21
-3.57508
0
LINE
8
BLACK
6
CONTINUOUS
10
6.46227
20
-3.57508
11
6.46212
21
-3.57449
0
LINE
8
BLACK
6
CONTINUOUS
10
6.46212
20
-3.57449
11
6.46197
21
-3.57355
0
LINE
8
BLACK
6
CONTINUOUS
10
6.46197
20
-3.57355
11
6.46154
21
-3.57271
0
LINE
8
BLACK
6
CONTINUOUS
10
6.46154
20
-3.57271
11
6.46131
21
-3.57214
0
LINE
8
BLACK
6
CONTINUOUS
10
6.46131
20
-3.57214
11
6.46102
21
-3.57124
0
LINE
8
BLACK
6
CONTINUOUS
10
6.46102
20
-3.57124
11
6.46046
21
-3.57047
0
LINE
8
BLACK
6
CONTINUOUS
10
6.46046
20
-3.57047
11
6.46014
21
-3.56995
0
LINE
8
BLACK
6
CONTINUOUS
10
6.46014
20
-3.56995
11
6.45971
21
-3.5691
0
LINE
8
BLACK
6
CONTINUOUS
10
6.45971
20
-3.5691
11
6.45882
21
-3.56821
0
LINE
8
BLACK
6
CONTINUOUS
10
6.45882
20
-3.56821
11
6.41298
21
-3.52237
0
LINE
8
BLACK
6
CONTINUOUS
10
6.41298
20
-3.52237
11
6.41189
21
-3.52023
0
LINE
8
BLACK
6
CONTINUOUS
10
6.41189
20
-3.52023
11
6.41185
21
-3.51979
0
LINE
8
BLACK
6
CONTINUOUS
10
6.41185
20
-3.51979
11
6.41103
21
-3.51351
0
LINE
8
BLACK
6
CONTINUOUS
10
6.41103
20
-3.51351
11
6.41103
21
-3.51351
0
LINE
8
BLACK
6
CONTINUOUS
10
6.41103
20
-3.51351
11
6.40864
21
-3.50776
0
LINE
8
BLACK
6
CONTINUOUS
10
6.40864
20
-3.50776
11
6.40864
21
-3.50776
0
LINE
8
BLACK
6
CONTINUOUS
10
6.40864
20
-3.50776
11
6.40485
21
-3.50282
0
LINE
8
BLACK
6
CONTINUOUS
10
6.40485
20
-3.50282
11
6.40485
21
-3.50282
0
LINE
8
BLACK
6
CONTINUOUS
10
6.40485
20
-3.50282
11
6.40485
21
-3.50282
0
LINE
8
BLACK
6
CONTINUOUS
10
6.40485
20
-3.50282
11
6.40485
21
-3.50282
0
LINE
8
BLACK
6
CONTINUOUS
10
6.40485
20
-3.50282
11
6.40485
21
-3.50282
0
LINE
8
BLACK
6
CONTINUOUS
10
6.40485
20
-3.50282
11
6.39991
21
-3.49903
0
LINE
8
BLACK
6
CONTINUOUS
10
6.39991
20
-3.49903
11
6.39416
21
-3.49665
0
LINE
8
BLACK
6
CONTINUOUS
10
6.39416
20
-3.49665
11
6.39416
21
-3.49665
0
LINE
8
BLACK
6
CONTINUOUS
10
6.39416
20
-3.49665
11
6.38799
21
-3.49584
0
LINE
8
BLACK
6
CONTINUOUS
10
6.38799
20
-3.49584
11
6.38799
21
-3.49584
0
LINE
8
BLACK
6
CONTINUOUS
10
6.38799
20
-3.49584
11
6.38182
21
-3.49665
0
LINE
8
BLACK
6
CONTINUOUS
10
6.38182
20
-3.49665
11
6.38182
21
-3.49665
0
LINE
8
BLACK
6
CONTINUOUS
10
6.38182
20
-3.49665
11
6.37607
21
-3.49903
0
LINE
8
BLACK
6
CONTINUOUS
10
6.37607
20
-3.49903
11
6.37607
21
-3.49903
0
LINE
8
BLACK
6
CONTINUOUS
10
6.37607
20
-3.49903
11
6.37113
21
-3.50282
0
LINE
8
BLACK
6
CONTINUOUS
10
6.37113
20
-3.50282
11
6.37113
21
-3.50282
0
LINE
8
BLACK
6
CONTINUOUS
10
6.37113
20
-3.50282
11
6.36734
21
-3.50776
0
LINE
8
BLACK
6
CONTINUOUS
10
6.36734
20
-3.50776
11
6.36734
21
-3.50776
0
LINE
8
BLACK
6
CONTINUOUS
10
6.36734
20
-3.50776
11
6.36496
21
-3.51351
0
LINE
8
BLACK
6
CONTINUOUS
10
6.36496
20
-3.51351
11
6.36496
21
-3.51351
0
LINE
8
BLACK
6
CONTINUOUS
10
6.36496
20
-3.51351
11
6.36415
21
-3.51968
0
LINE
8
BLACK
6
CONTINUOUS
10
6.36415
20
-3.51968
11
6.36415
21
-3.51969
0
LINE
8
BLACK
6
CONTINUOUS
10
6.36415
20
-3.51969
11
6.36496
21
-3.52586
0
LINE
8
BLACK
6
CONTINUOUS
10
5.81161
20
-3.67617
11
5.81161
21
-3.67617
0
LINE
8
BLACK
6
CONTINUOUS
10
5.81161
20
-3.67617
11
5.81399
21
-3.68192
0
LINE
8
BLACK
6
CONTINUOUS
10
5.81399
20
-3.68192
11
5.81399
21
-3.68192
0
LINE
8
BLACK
6
CONTINUOUS
10
5.81399
20
-3.68192
11
5.81778
21
-3.68686
0
LINE
8
BLACK
6
CONTINUOUS
10
5.81778
20
-3.68686
11
5.81778
21
-3.68686
0
LINE
8
BLACK
6
CONTINUOUS
10
5.81778
20
-3.68686
11
5.82272
21
-3.69065
0
LINE
8
BLACK
6
CONTINUOUS
10
5.82272
20
-3.69065
11
5.82847
21
-3.69303
0
LINE
8
BLACK
6
CONTINUOUS
10
5.82847
20
-3.69303
11
5.8331
21
-3.69364
0
LINE
8
BLACK
6
CONTINUOUS
10
5.8331
20
-3.69364
11
5.83465
21
-3.69385
0
LINE
8
BLACK
6
CONTINUOUS
10
5.83465
20
-3.69385
11
5.83465
21
-3.69385
0
LINE
8
BLACK
6
CONTINUOUS
10
5.83465
20
-3.69385
11
5.83465
21
-3.69385
0
LINE
8
BLACK
6
CONTINUOUS
10
5.83465
20
-3.69385
11
5.83588
21
-3.69368
0
LINE
8
BLACK
6
CONTINUOUS
10
5.83588
20
-3.69368
11
5.84082
21
-3.69303
0
LINE
8
BLACK
6
CONTINUOUS
10
5.84082
20
-3.69303
11
5.84657
21
-3.69065
0
LINE
8
BLACK
6
CONTINUOUS
10
5.84657
20
-3.69065
11
5.85151
21
-3.68686
0
LINE
8
BLACK
6
CONTINUOUS
10
5.85151
20
-3.68686
11
5.85269
21
-3.68532
0
LINE
8
BLACK
6
CONTINUOUS
10
5.85269
20
-3.68532
11
5.85467
21
-3.68396
0
LINE
8
BLACK
6
CONTINUOUS
10
5.85467
20
-3.68396
11
5.85578
21
-3.6838
0
LINE
8
BLACK
6
CONTINUOUS
10
5.85578
20
-3.6838
11
5.90283
21
-3.6838
0
LINE
8
BLACK
6
CONTINUOUS
10
5.90283
20
-3.6838
11
5.90512
21
-3.68454
0
LINE
8
BLACK
6
CONTINUOUS
10
5.90512
20
-3.68454
11
5.90558
21
-3.68494
0
LINE
8
BLACK
6
CONTINUOUS
10
5.90558
20
-3.68494
11
6.07556
21
-3.85492
0
LINE
8
BLACK
6
CONTINUOUS
10
6.07556
20
-3.85492
11
6.07607
21
-3.85554
0
LINE
8
BLACK
6
CONTINUOUS
10
6.07607
20
-3.85554
11
6.07632
21
-3.85593
0
LINE
8
BLACK
6
CONTINUOUS
10
6.07632
20
-3.85593
11
6.07737
21
-3.85675
0
LINE
8
BLACK
6
CONTINUOUS
10
6.07737
20
-3.85675
11
6.07755
21
-3.85691
0
LINE
8
BLACK
6
CONTINUOUS
10
6.07755
20
-3.85691
11
6.07766
21
-3.85702
0
LINE
8
BLACK
6
CONTINUOUS
10
6.07766
20
-3.85702
11
6.07766
21
-3.85702
0
LINE
8
BLACK
6
CONTINUOUS
10
6.07766
20
-3.85702
11
6.07767
21
-3.85702
0
LINE
8
BLACK
6
CONTINUOUS
10
6.07767
20
-3.85702
11
6.07836
21
-3.85752
0
LINE
8
BLACK
6
CONTINUOUS
10
6.07836
20
-3.85752
11
6.07996
21
-3.85876
0
LINE
8
BLACK
6
CONTINUOUS
10
6.07996
20
-3.85876
11
6.07996
21
-3.85876
0
LINE
8
BLACK
6
CONTINUOUS
10
6.07996
20
-3.85876
11
6.07996
21
-3.85876
0
LINE
8
BLACK
6
CONTINUOUS
10
6.07996
20
-3.85876
11
6.08021
21
-3.8589
0
LINE
8
BLACK
6
CONTINUOUS
10
6.08021
20
-3.8589
11
6.08047
21
-3.85903
0
LINE
8
BLACK
6
CONTINUOUS
10
6.08047
20
-3.85903
11
6.08047
21
-3.85903
0
LINE
8
BLACK
6
CONTINUOUS
10
6.08047
20
-3.85903
11
6.08047
21
-3.85903
0
LINE
8
BLACK
6
CONTINUOUS
10
6.08047
20
-3.85903
11
6.08151
21
-3.85933
0
LINE
8
BLACK
6
CONTINUOUS
10
6.08151
20
-3.85933
11
6.08349
21
-3.8607
0
LINE
8
BLACK
6
CONTINUOUS
10
6.08349
20
-3.8607
11
6.0855
21
-3.86332
0
LINE
8
BLACK
6
CONTINUOUS
10
6.0855
20
-3.86332
11
6.0855
21
-3.86332
0
LINE
8
BLACK
6
CONTINUOUS
10
6.0855
20
-3.86332
11
6.09044
21
-3.86711
0
LINE
8
BLACK
6
CONTINUOUS
10
6.09044
20
-3.86711
11
6.09619
21
-3.86949
0
LINE
8
BLACK
6
CONTINUOUS
10
6.09619
20
-3.86949
11
6.10066
21
-3.87008
0
LINE
8
BLACK
6
CONTINUOUS
10
6.10066
20
-3.87008
11
6.10236
21
-3.8703
0
LINE
8
BLACK
6
CONTINUOUS
10
6.10236
20
-3.8703
11
6.10236
21
-3.8703
0
LINE
8
BLACK
6
CONTINUOUS
10
6.10236
20
-3.8703
11
6.10236
21
-3.8703
0
LINE
8
BLACK
6
CONTINUOUS
10
6.10236
20
-3.8703
11
6.10406
21
-3.87008
0
LINE
8
BLACK
6
CONTINUOUS
10
6.10406
20
-3.87008
11
6.10853
21
-3.86949
0
LINE
8
BLACK
6
CONTINUOUS
10
6.10853
20
-3.86949
11
6.11429
21
-3.86711
0
LINE
8
BLACK
6
CONTINUOUS
10
6.11429
20
-3.86711
11
6.11922
21
-3.86332
0
LINE
8
BLACK
6
CONTINUOUS
10
6.11922
20
-3.86332
11
6.12301
21
-3.85838
0
LINE
8
BLACK
6
CONTINUOUS
10
6.12301
20
-3.85838
11
6.1254
21
-3.85263
0
LINE
8
BLACK
6
CONTINUOUS
10
6.1254
20
-3.85263
11
6.12621
21
-3.84646
0
LINE
8
BLACK
6
CONTINUOUS
10
6.12621
20
-3.84646
11
6.1254
21
-3.84028
0
LINE
8
BLACK
6
CONTINUOUS
10
6.1254
20
-3.84028
11
6.12444
21
-3.83798
0
LINE
8
BLACK
6
CONTINUOUS
10
6.12444
20
-3.83798
11
6.12301
21
-3.83453
0
LINE
8
BLACK
6
CONTINUOUS
10
6.12301
20
-3.83453
11
6.12301
21
-3.83453
0
LINE
8
BLACK
6
CONTINUOUS
10
6.12301
20
-3.83453
11
6.11922
21
-3.8296
0
LINE
8
BLACK
6
CONTINUOUS
10
6.11922
20
-3.8296
11
6.11922
21
-3.8296
0
LINE
8
BLACK
6
CONTINUOUS
10
6.11922
20
-3.8296
11
6.11922
21
-3.8296
0
LINE
8
BLACK
6
CONTINUOUS
10
6.11922
20
-3.8296
11
6.11922
21
-3.8296
0
LINE
8
BLACK
6
CONTINUOUS
10
6.11922
20
-3.8296
11
6.11922
21
-3.82959
0
LINE
8
BLACK
6
CONTINUOUS
10
6.11922
20
-3.82959
11
6.11642
21
-3.82744
0
LINE
8
BLACK
6
CONTINUOUS
10
6.11642
20
-3.82744
11
6.11429
21
-3.82581
0
LINE
8
BLACK
6
CONTINUOUS
10
6.11429
20
-3.82581
11
6.11429
21
-3.82581
0
LINE
8
BLACK
6
CONTINUOUS
10
6.11429
20
-3.82581
11
6.11428
21
-3.82581
0
LINE
8
BLACK
6
CONTINUOUS
10
6.11428
20
-3.82581
11
6.10853
21
-3.82342
0
LINE
8
BLACK
6
CONTINUOUS
10
6.10853
20
-3.82342
11
6.10853
21
-3.82342
0
LINE
8
BLACK
6
CONTINUOUS
10
6.10853
20
-3.82342
11
6.10236
21
-3.82261
0
LINE
8
BLACK
6
CONTINUOUS
10
6.10236
20
-3.82261
11
6.10236
21
-3.82261
0
LINE
8
BLACK
6
CONTINUOUS
10
6.10236
20
-3.82261
11
6.09619
21
-3.82342
0
LINE
8
BLACK
6
CONTINUOUS
10
6.09619
20
-3.82342
11
6.09619
21
-3.82342
0
LINE
8
BLACK
6
CONTINUOUS
10
6.09619
20
-3.82342
11
6.09044
21
-3.82581
0
LINE
8
BLACK
6
CONTINUOUS
10
6.09044
20
-3.82581
11
6.09044
21
-3.82581
0
LINE
8
BLACK
6
CONTINUOUS
10
6.09044
20
-3.82581
11
6.09034
21
-3.82588
0
LINE
8
BLACK
6
CONTINUOUS
10
6.09034
20
-3.82588
11
6.09026
21
-3.82591
0
LINE
8
BLACK
6
CONTINUOUS
10
6.09026
20
-3.82591
11
6.09022
21
-3.82593
0
LINE
8
BLACK
6
CONTINUOUS
10
6.09022
20
-3.82593
11
6.09021
21
-3.82593
0
LINE
8
BLACK
6
CONTINUOUS
10
6.09021
20
-3.82593
11
6.08807
21
-3.82668
0
LINE
8
BLACK
6
CONTINUOUS
10
6.08807
20
-3.82668
11
6.08576
21
-3.826
0
LINE
8
BLACK
6
CONTINUOUS
10
6.08576
20
-3.826
11
6.08522
21
-3.82554
0
LINE
8
BLACK
6
CONTINUOUS
10
6.08522
20
-3.82554
11
6.0077
21
-3.74803
0
LINE
8
BLACK
6
CONTINUOUS
10
6.0077
20
-3.74803
11
5.92121
21
-3.66154
0
LINE
8
BLACK
6
CONTINUOUS
10
5.92121
20
-3.66154
11
5.92111
21
-3.66142
0
LINE
8
BLACK
6
CONTINUOUS
10
5.92111
20
-3.66142
11
5.92071
21
-3.66092
0
LINE
8
BLACK
6
CONTINUOUS
10
5.92071
20
-3.66092
11
5.92045
21
-3.66052
0
LINE
8
BLACK
6
CONTINUOUS
10
5.92045
20
-3.66052
11
5.9194
21
-3.65971
0
LINE
8
BLACK
6
CONTINUOUS
10
5.9194
20
-3.65971
11
5.91922
21
-3.65955
0
LINE
8
BLACK
6
CONTINUOUS
10
5.91922
20
-3.65955
11
5.91911
21
-3.65943
0
LINE
8
BLACK
6
CONTINUOUS
10
5.91911
20
-3.65943
11
5.91841
21
-3.65894
0
LINE
8
BLACK
6
CONTINUOUS
10
5.91841
20
-3.65894
11
5.91682
21
-3.6577
0
LINE
8
BLACK
6
CONTINUOUS
10
5.91682
20
-3.6577
11
5.91656
21
-3.65756
0
LINE
8
BLACK
6
CONTINUOUS
10
5.91656
20
-3.65756
11
5.9163
21
-3.65743
0
LINE
8
BLACK
6
CONTINUOUS
10
5.9163
20
-3.65743
11
5.9163
21
-3.65743
0
LINE
8
BLACK
6
CONTINUOUS
10
5.9163
20
-3.65743
11
5.91437
21
-3.65686
0
LINE
8
BLACK
6
CONTINUOUS
10
5.91437
20
-3.65686
11
5.91246
21
-3.6562
0
LINE
8
BLACK
6
CONTINUOUS
10
5.91246
20
-3.6562
11
5.91246
21
-3.6562
0
LINE
8
BLACK
6
CONTINUOUS
10
5.91246
20
-3.6562
11
5.91218
21
-3.65615
0
LINE
8
BLACK
6
CONTINUOUS
10
5.91218
20
-3.65615
11
5.91189
21
-3.65612
0
LINE
8
BLACK
6
CONTINUOUS
10
5.91189
20
-3.65612
11
5.91189
21
-3.65612
0
LINE
8
BLACK
6
CONTINUOUS
10
5.91189
20
-3.65612
11
5.91189
21
-3.65612
0
LINE
8
BLACK
6
CONTINUOUS
10
5.91189
20
-3.65612
11
5.90987
21
-3.6562
0
LINE
8
BLACK
6
CONTINUOUS
10
5.90987
20
-3.6562
11
5.85578
21
-3.6562
0
LINE
8
BLACK
6
CONTINUOUS
10
5.85578
20
-3.6562
11
5.85349
21
-3.65546
0
LINE
8
BLACK
6
CONTINUOUS
10
5.85349
20
-3.65546
11
5.85269
21
-3.65468
0
LINE
8
BLACK
6
CONTINUOUS
10
5.85269
20
-3.65468
11
5.85151
21
-3.65314
0
LINE
8
BLACK
6
CONTINUOUS
10
5.85151
20
-3.65314
11
5.85151
21
-3.65314
0
LINE
8
BLACK
6
CONTINUOUS
10
5.85151
20
-3.65314
11
5.85151
21
-3.65314
0
LINE
8
BLACK
6
CONTINUOUS
10
5.85151
20
-3.65314
11
5.85151
21
-3.65314
0
LINE
8
BLACK
6
CONTINUOUS
10
5.85151
20
-3.65314
11
5.84676
21
-3.64949
0
LINE
8
BLACK
6
CONTINUOUS
10
5.84676
20
-3.64949
11
5.84657
21
-3.64935
0
LINE
8
BLACK
6
CONTINUOUS
10
5.84657
20
-3.64935
11
5.84657
21
-3.64935
0
LINE
8
BLACK
6
CONTINUOUS
10
5.84657
20
-3.64935
11
5.84657
21
-3.64935
0
LINE
8
BLACK
6
CONTINUOUS
10
5.84657
20
-3.64935
11
5.84082
21
-3.64697
0
LINE
8
BLACK
6
CONTINUOUS
10
5.84082
20
-3.64697
11
5.84082
21
-3.64697
0
LINE
8
BLACK
6
CONTINUOUS
10
5.84082
20
-3.64697
11
5.83465
21
-3.64615
0
LINE
8
BLACK
6
CONTINUOUS
10
5.83465
20
-3.64615
11
5.83465
21
-3.64615
0
LINE
8
BLACK
6
CONTINUOUS
10
5.83465
20
-3.64615
11
5.82847
21
-3.64697
0
LINE
8
BLACK
6
CONTINUOUS
10
5.82847
20
-3.64697
11
5.82847
21
-3.64697
0
LINE
8
BLACK
6
CONTINUOUS
10
5.82847
20
-3.64697
11
5.82272
21
-3.64935
0
LINE
8
BLACK
6
CONTINUOUS
10
5.82272
20
-3.64935
11
5.82272
21
-3.64935
0
LINE
8
BLACK
6
CONTINUOUS
10
5.82272
20
-3.64935
11
5.81778
21
-3.65314
0
LINE
8
BLACK
6
CONTINUOUS
10
5.81778
20
-3.65314
11
5.81778
21
-3.65314
0
LINE
8
BLACK
6
CONTINUOUS
10
5.81778
20
-3.65314
11
5.81399
21
-3.65808
0
LINE
8
BLACK
6
CONTINUOUS
10
5.81399
20
-3.65808
11
5.81399
21
-3.65808
0
LINE
8
BLACK
6
CONTINUOUS
10
5.81399
20
-3.65808
11
5.81161
21
-3.66383
0
LINE
8
BLACK
6
CONTINUOUS
10
5.81161
20
-3.66383
11
5.81161
21
-3.66383
0
LINE
8
BLACK
6
CONTINUOUS
10
5.81161
20
-3.66383
11
5.8108
21
-3.67
0
LINE
8
BLACK
6
CONTINUOUS
10
5.8108
20
-3.67
11
5.8108
21
-3.67
0
LINE
8
BLACK
6
CONTINUOUS
10
5.8108
20
-3.67
11
5.81161
21
-3.67617
0
LINE
8
BLACK
6
CONTINUOUS
10
5.41079
20
-3.78941
11
5.41381
21
-3.79518
0
LINE
8
BLACK
6
CONTINUOUS
10
5.41381
20
-3.79518
11
5.41381
21
-3.79518
0
LINE
8
BLACK
6
CONTINUOUS
10
5.41381
20
-3.79518
11
5.41825
21
-3.80019
0
LINE
8
BLACK
6
CONTINUOUS
10
5.41825
20
-3.80019
11
5.41825
21
-3.80019
0
LINE
8
BLACK
6
CONTINUOUS
10
5.41825
20
-3.80019
11
5.42376
21
-3.80399
0
LINE
8
BLACK
6
CONTINUOUS
10
5.42376
20
-3.80399
11
5.42376
21
-3.80399
0
LINE
8
BLACK
6
CONTINUOUS
10
5.42376
20
-3.80399
11
5.43002
21
-3.80636
0
LINE
8
BLACK
6
CONTINUOUS
10
5.43002
20
-3.80636
11
5.43002
21
-3.80636
0
LINE
8
BLACK
6
CONTINUOUS
10
5.43002
20
-3.80636
11
5.43499
21
-3.80697
0
LINE
8
BLACK
6
CONTINUOUS
10
5.43499
20
-3.80697
11
5.43499
21
-3.80697
0
LINE
8
BLACK
6
CONTINUOUS
10
5.43499
20
-3.80697
11
5.44635
21
-3.80697
0
LINE
8
BLACK
6
CONTINUOUS
10
5.44635
20
-3.80697
11
5.44635
21
-3.80697
0
LINE
8
BLACK
6
CONTINUOUS
10
5.44635
20
-3.80697
11
5.44635
21
-3.79909
0
LINE
8
BLACK
6
CONTINUOUS
10
5.44635
20
-3.79909
11
5.43666
21
-3.79909
0
LINE
8
BLACK
6
CONTINUOUS
10
5.43666
20
-3.79909
11
5.43112
21
-3.7983
0
LINE
8
BLACK
6
CONTINUOUS
10
5.43112
20
-3.7983
11
5.42602
21
-3.79597
0
LINE
8
BLACK
6
CONTINUOUS
10
5.42602
20
-3.79597
11
5.42178
21
-3.7923
0
LINE
8
BLACK
6
CONTINUOUS
10
5.42178
20
-3.7923
11
5.41993
21
-3.78941
0
LINE
8
BLACK
6
CONTINUOUS
10
5.41993
20
-3.78941
11
5.41079
21
-3.78941
0
LINE
8
BLACK
6
CONTINUOUS
10
5.65817
20
-3.75607
11
5.65229
21
-3.76195
0
LINE
8
BLACK
6
CONTINUOUS
10
5.65229
20
-3.76195
11
5.65463
21
-3.76338
0
LINE
8
BLACK
6
CONTINUOUS
10
5.65463
20
-3.76338
11
5.65847
21
-3.76749
0
LINE
8
BLACK
6
CONTINUOUS
10
5.65847
20
-3.76749
11
5.66106
21
-3.77249
0
LINE
8
BLACK
6
CONTINUOUS
10
5.66106
20
-3.77249
11
5.6622
21
-3.778
0
LINE
8
BLACK
6
CONTINUOUS
10
5.6622
20
-3.778
11
5.66182
21
-3.78361
0
LINE
8
BLACK
6
CONTINUOUS
10
5.66182
20
-3.78361
11
5.65993
21
-3.78892
0
LINE
8
BLACK
6
CONTINUOUS
10
5.65993
20
-3.78892
11
5.65669
21
-3.79352
0
LINE
8
BLACK
6
CONTINUOUS
10
5.65669
20
-3.79352
11
5.65242
21
-3.79699
0
LINE
8
BLACK
6
CONTINUOUS
10
5.65242
20
-3.79699
11
5.65812
21
-3.8027
0
LINE
8
BLACK
6
CONTINUOUS
10
5.65812
20
-3.8027
11
5.66005
21
-3.80142
0
LINE
8
BLACK
6
CONTINUOUS
10
5.66005
20
-3.80142
11
5.66463
21
-3.79657
0
LINE
8
BLACK
6
CONTINUOUS
10
5.66463
20
-3.79657
11
5.66463
21
-3.79657
0
LINE
8
BLACK
6
CONTINUOUS
10
5.66463
20
-3.79657
11
5.66797
21
-3.79079
0
LINE
8
BLACK
6
CONTINUOUS
10
5.66797
20
-3.79079
11
5.66957
21
-3.78543
0
LINE
8
BLACK
6
CONTINUOUS
10
5.66957
20
-3.78543
11
5.66988
21
-3.7844
0
LINE
8
BLACK
6
CONTINUOUS
10
5.66988
20
-3.7844
11
5.67027
21
-3.77774
0
LINE
8
BLACK
6
CONTINUOUS
10
5.67027
20
-3.77774
11
5.66911
21
-3.77117
0
LINE
8
BLACK
6
CONTINUOUS
10
5.66911
20
-3.77117
11
5.66647
21
-3.76504
0
LINE
8
BLACK
6
CONTINUOUS
10
5.66647
20
-3.76504
11
5.66249
21
-3.75969
0
LINE
8
BLACK
6
CONTINUOUS
10
5.66249
20
-3.75969
11
5.66249
21
-3.75969
0
LINE
8
BLACK
6
CONTINUOUS
10
5.66249
20
-3.75969
11
5.65817
21
-3.75607
0
LINE
8
BLACK
6
CONTINUOUS
10
5.65817
20
-3.75607
11
5.65817
21
-3.75607
0
LINE
8
BLACK
6
CONTINUOUS
10
5.43002
20
-3.75245
11
5.43002
21
-3.75245
0
LINE
8
BLACK
6
CONTINUOUS
10
5.43002
20
-3.75245
11
5.42376
21
-3.75483
0
LINE
8
BLACK
6
CONTINUOUS
10
5.42376
20
-3.75483
11
5.42376
21
-3.75483
0
LINE
8
BLACK
6
CONTINUOUS
10
5.42376
20
-3.75483
11
5.41825
21
-3.75863
0
LINE
8
BLACK
6
CONTINUOUS
10
5.41825
20
-3.75863
11
5.41825
21
-3.75863
0
LINE
8
BLACK
6
CONTINUOUS
10
5.41825
20
-3.75863
11
5.41381
21
-3.76364
0
LINE
8
BLACK
6
CONTINUOUS
10
5.41381
20
-3.76364
11
5.41381
21
-3.76364
0
LINE
8
BLACK
6
CONTINUOUS
10
5.41381
20
-3.76364
11
5.41079
21
-3.76941
0
LINE
8
BLACK
6
CONTINUOUS
10
5.41079
20
-3.76941
11
5.41993
21
-3.76941
0
LINE
8
BLACK
6
CONTINUOUS
10
5.41993
20
-3.76941
11
5.42178
21
-3.76652
0
LINE
8
BLACK
6
CONTINUOUS
10
5.42178
20
-3.76652
11
5.42602
21
-3.76285
0
LINE
8
BLACK
6
CONTINUOUS
10
5.42602
20
-3.76285
11
5.43112
21
-3.76052
0
LINE
8
BLACK
6
CONTINUOUS
10
5.43112
20
-3.76052
11
5.43666
21
-3.75972
0
LINE
8
BLACK
6
CONTINUOUS
10
5.43666
20
-3.75972
11
5.44635
21
-3.75972
0
LINE
8
BLACK
6
CONTINUOUS
10
5.44635
20
-3.75972
11
5.44635
21
-3.75185
0
LINE
8
BLACK
6
CONTINUOUS
10
5.44635
20
-3.75185
11
5.44635
21
-3.75185
0
LINE
8
BLACK
6
CONTINUOUS
10
5.44635
20
-3.75185
11
5.43499
21
-3.75185
0
LINE
8
BLACK
6
CONTINUOUS
10
5.43499
20
-3.75185
11
5.43002
21
-3.75245
0
LINE
8
BLACK
6
CONTINUOUS
10
5.61416
20
-3.75874
11
5.62766
21
-3.75874
0
LINE
8
BLACK
6
CONTINUOUS
10
5.62766
20
-3.75874
11
5.63554
21
-3.75087
0
LINE
8
BLACK
6
CONTINUOUS
10
5.63554
20
-3.75087
11
5.60629
21
-3.75087
0
LINE
8
BLACK
6
CONTINUOUS
10
5.60629
20
-3.75087
11
5.61416
21
-3.75874
0
LINE
8
BLACK
6
CONTINUOUS
10
5.63554
20
-4.14811
11
5.62766
21
-4.14024
0
LINE
8
BLACK
6
CONTINUOUS
10
5.62766
20
-4.14024
11
5.61416
21
-4.14024
0
LINE
8
BLACK
6
CONTINUOUS
10
5.61416
20
-4.14024
11
5.60629
21
-4.14811
0
LINE
8
BLACK
6
CONTINUOUS
10
5.60629
20
-4.14811
11
5.63554
21
-4.14811
0
LINE
8
BLACK
6
CONTINUOUS
10
5.57271
20
-4.12781
11
5.57536
21
-4.13394
0
LINE
8
BLACK
6
CONTINUOUS
10
5.57536
20
-4.13394
11
5.57934
21
-4.13929
0
LINE
8
BLACK
6
CONTINUOUS
10
5.57934
20
-4.13929
11
5.57934
21
-4.13929
0
LINE
8
BLACK
6
CONTINUOUS
10
5.57934
20
-4.13929
11
5.58365
21
-4.14291
0
LINE
8
BLACK
6
CONTINUOUS
10
5.58365
20
-4.14291
11
5.58954
21
-4.13702
0
LINE
8
BLACK
6
CONTINUOUS
10
5.58954
20
-4.13702
11
5.5872
21
-4.1356
0
LINE
8
BLACK
6
CONTINUOUS
10
5.5872
20
-4.1356
11
5.58336
21
-4.13149
0
LINE
8
BLACK
6
CONTINUOUS
10
5.58336
20
-4.13149
11
5.58077
21
-4.12649
0
LINE
8
BLACK
6
CONTINUOUS
10
5.58077
20
-4.12649
11
5.57962
21
-4.12098
0
LINE
8
BLACK
6
CONTINUOUS
10
5.57962
20
-4.12098
11
5.58001
21
-4.11536
0
LINE
8
BLACK
6
CONTINUOUS
10
5.58001
20
-4.11536
11
5.58189
21
-4.11006
0
LINE
8
BLACK
6
CONTINUOUS
10
5.58189
20
-4.11006
11
5.58514
21
-4.10546
0
LINE
8
BLACK
6
CONTINUOUS
10
5.58514
20
-4.10546
11
5.58941
21
-4.10198
0
LINE
8
BLACK
6
CONTINUOUS
10
5.58941
20
-4.10198
11
5.58371
21
-4.09628
0
LINE
8
BLACK
6
CONTINUOUS
10
5.58371
20
-4.09628
11
5.58177
21
-4.09755
0
LINE
8
BLACK
6
CONTINUOUS
10
5.58177
20
-4.09755
11
5.57719
21
-4.10241
0
LINE
8
BLACK
6
CONTINUOUS
10
5.57719
20
-4.10241
11
5.57719
21
-4.10241
0
LINE
8
BLACK
6
CONTINUOUS
10
5.57719
20
-4.10241
11
5.57386
21
-4.10818
0
LINE
8
BLACK
6
CONTINUOUS
10
5.57386
20
-4.10818
11
5.57194
21
-4.11458
0
LINE
8
BLACK
6
CONTINUOUS
10
5.57194
20
-4.11458
11
5.57156
21
-4.12124
0
LINE
8
BLACK
6
CONTINUOUS
10
5.57156
20
-4.12124
11
5.57271
21
-4.12781
0
LINE
8
BLACK
6
CONTINUOUS
10
5.41993
20
-4.10957
11
5.42178
21
-4.10668
0
LINE
8
BLACK
6
CONTINUOUS
10
5.42178
20
-4.10668
11
5.42602
21
-4.10301
0
LINE
8
BLACK
6
CONTINUOUS
10
5.42602
20
-4.10301
11
5.43112
21
-4.10068
0
LINE
8
BLACK
6
CONTINUOUS
10
5.43112
20
-4.10068
11
5.43666
21
-4.09988
0
LINE
8
BLACK
6
CONTINUOUS
10
5.43666
20
-4.09988
11
5.44635
21
-4.09988
0
LINE
8
BLACK
6
CONTINUOUS
10
5.44635
20
-4.09988
11
5.44635
21
-4.09201
0
LINE
8
BLACK
6
CONTINUOUS
10
5.44635
20
-4.09201
11
5.44635
21
-4.09201
0
LINE
8
BLACK
6
CONTINUOUS
10
5.44635
20
-4.09201
11
5.43499
21
-4.09201
0
LINE
8
BLACK
6
CONTINUOUS
10
5.43499
20
-4.09201
11
5.43002
21
-4.09261
0
LINE
8
BLACK
6
CONTINUOUS
10
5.43002
20
-4.09261
11
5.43002
21
-4.09261
0
LINE
8
BLACK
6
CONTINUOUS
10
5.43002
20
-4.09261
11
5.42376
21
-4.09499
0
LINE
8
BLACK
6
CONTINUOUS
10
5.42376
20
-4.09499
11
5.42376
21
-4.09499
0
LINE
8
BLACK
6
CONTINUOUS
10
5.42376
20
-4.09499
11
5.41825
21
-4.09879
0
LINE
8
BLACK
6
CONTINUOUS
10
5.41825
20
-4.09879
11
5.41825
21
-4.09879
0
LINE
8
BLACK
6
CONTINUOUS
10
5.41825
20
-4.09879
11
5.41381
21
-4.1038
0
LINE
8
BLACK
6
CONTINUOUS
10
5.41381
20
-4.1038
11
5.41381
21
-4.1038
0
LINE
8
BLACK
6
CONTINUOUS
10
5.41381
20
-4.1038
11
5.41079
21
-4.10957
0
LINE
8
BLACK
6
CONTINUOUS
10
5.41079
20
-4.10957
11
5.41993
21
-4.10957
0
LINE
8
BLACK
6
CONTINUOUS
10
5.58969
20
-4.06914
11
5.58992
21
-4.06979
0
LINE
8
BLACK
6
CONTINUOUS
10
5.58992
20
-4.06979
11
5.59284
21
-4.07327
0
LINE
8
BLACK
6
CONTINUOUS
10
5.59284
20
-4.07327
11
5.59676
21
-4.07553
0
LINE
8
BLACK
6
CONTINUOUS
10
5.59676
20
-4.07553
11
5.6001
21
-4.07612
0
LINE
8
BLACK
6
CONTINUOUS
10
5.6001
20
-4.07612
11
5.6001
21
-4.07612
0
LINE
8
BLACK
6
CONTINUOUS
10
5.6001
20
-4.07612
11
5.60235
21
-4.07612
0
LINE
8
BLACK
6
CONTINUOUS
10
5.60235
20
-4.07612
11
5.60235
21
-4.07612
0
LINE
8
BLACK
6
CONTINUOUS
10
5.60235
20
-4.07612
11
5.60569
21
-4.07553
0
LINE
8
BLACK
6
CONTINUOUS
10
5.60569
20
-4.07553
11
5.60962
21
-4.07327
0
LINE
8
BLACK
6
CONTINUOUS
10
5.60962
20
-4.07327
11
5.61253
21
-4.06979
0
LINE
8
BLACK
6
CONTINUOUS
10
5.61253
20
-4.06979
11
5.61408
21
-4.06553
0
LINE
8
BLACK
6
CONTINUOUS
10
5.61408
20
-4.06553
11
5.61408
21
-4.061
0
LINE
8
BLACK
6
CONTINUOUS
10
5.61408
20
-4.061
11
5.61253
21
-4.05674
0
LINE
8
BLACK
6
CONTINUOUS
10
5.61253
20
-4.05674
11
5.60962
21
-4.05327
0
LINE
8
BLACK
6
CONTINUOUS
10
5.60962
20
-4.05327
11
5.60962
21
-4.05327
0
LINE
8
BLACK
6
CONTINUOUS
10
5.60962
20
-4.05327
11
5.60569
21
-4.051
0
LINE
8
BLACK
6
CONTINUOUS
10
5.60569
20
-4.051
11
5.60235
21
-4.05041
0
LINE
8
BLACK
6
CONTINUOUS
10
5.60235
20
-4.05041
11
5.60235
21
-4.05041
0
LINE
8
BLACK
6
CONTINUOUS
10
5.60235
20
-4.05041
11
5.6001
21
-4.05041
0
LINE
8
BLACK
6
CONTINUOUS
10
5.6001
20
-4.05041
11
5.6001
21
-4.05041
0
LINE
8
BLACK
6
CONTINUOUS
10
5.6001
20
-4.05041
11
5.59676
21
-4.051
0
LINE
8
BLACK
6
CONTINUOUS
10
5.59676
20
-4.051
11
5.59284
21
-4.05327
0
LINE
8
BLACK
6
CONTINUOUS
10
5.59284
20
-4.05327
11
5.58992
21
-4.05674
0
LINE
8
BLACK
6
CONTINUOUS
10
5.58992
20
-4.05674
11
5.58992
21
-4.05674
0
LINE
8
BLACK
6
CONTINUOUS
10
5.58992
20
-4.05674
11
5.58837
21
-4.061
0
LINE
8
BLACK
6
CONTINUOUS
10
5.58837
20
-4.061
11
5.58837
21
-4.06553
0
LINE
8
BLACK
6
CONTINUOUS
10
5.58837
20
-4.06553
11
5.58969
21
-4.06914
0
LINE
8
BLACK
6
CONTINUOUS
10
5.58961
20
-3.84241
11
5.58961
21
-3.84241
0
LINE
8
BLACK
6
CONTINUOUS
10
5.58961
20
-3.84241
11
5.58961
21
-3.84241
0
LINE
8
BLACK
6
CONTINUOUS
10
5.58961
20
-3.84241
11
5.59261
21
-3.84598
0
LINE
8
BLACK
6
CONTINUOUS
10
5.59261
20
-3.84598
11
5.59261
21
-3.84598
0
LINE
8
BLACK
6
CONTINUOUS
10
5.59261
20
-3.84598
11
5.59664
21
-3.84831
0
LINE
8
BLACK
6
CONTINUOUS
10
5.59664
20
-3.84831
11
5.60007
21
-3.84892
0
LINE
8
BLACK
6
CONTINUOUS
10
5.60007
20
-3.84892
11
5.60007
21
-3.84892
0
LINE
8
BLACK
6
CONTINUOUS
10
5.60007
20
-3.84892
11
5.60238
21
-3.84892
0
LINE
8
BLACK
6
CONTINUOUS
10
5.60238
20
-3.84892
11
5.60238
21
-3.84892
0
LINE
8
BLACK
6
CONTINUOUS
10
5.60238
20
-3.84892
11
5.60582
21
-3.84831
0
LINE
8
BLACK
6
CONTINUOUS
10
5.60582
20
-3.84831
11
5.60985
21
-3.84598
0
LINE
8
BLACK
6
CONTINUOUS
10
5.60985
20
-3.84598
11
5.61284
21
-3.84241
0
LINE
8
BLACK
6
CONTINUOUS
10
5.61284
20
-3.84241
11
5.61444
21
-3.83804
0
LINE
8
BLACK
6
CONTINUOUS
10
5.61444
20
-3.83804
11
5.61444
21
-3.83338
0
LINE
8
BLACK
6
CONTINUOUS
10
5.61444
20
-3.83338
11
5.61284
21
-3.829
0
LINE
8
BLACK
6
CONTINUOUS
10
5.61284
20
-3.829
11
5.61255
21
-3.82865
0
LINE
8
BLACK
6
CONTINUOUS
10
5.61255
20
-3.82865
11
5.60985
21
-3.82543
0
LINE
8
BLACK
6
CONTINUOUS
10
5.60985
20
-3.82543
11
5.60985
21
-3.82543
0
LINE
8
BLACK
6
CONTINUOUS
10
5.60985
20
-3.82543
11
5.60582
21
-3.82311
0
LINE
8
BLACK
6
CONTINUOUS
10
5.60582
20
-3.82311
11
5.60582
21
-3.82311
0
LINE
8
BLACK
6
CONTINUOUS
10
5.60582
20
-3.82311
11
5.60582
21
-3.82311
0
LINE
8
BLACK
6
CONTINUOUS
10
5.60582
20
-3.82311
11
5.60238
21
-3.8225
0
LINE
8
BLACK
6
CONTINUOUS
10
5.60238
20
-3.8225
11
5.60238
21
-3.8225
0
LINE
8
BLACK
6
CONTINUOUS
10
5.60238
20
-3.8225
11
5.60007
21
-3.8225
0
LINE
8
BLACK
6
CONTINUOUS
10
5.60007
20
-3.8225
11
5.60007
21
-3.8225
0
LINE
8
BLACK
6
CONTINUOUS
10
5.60007
20
-3.8225
11
5.59664
21
-3.82311
0
LINE
8
BLACK
6
CONTINUOUS
10
5.59664
20
-3.82311
11
5.59261
21
-3.82543
0
LINE
8
BLACK
6
CONTINUOUS
10
5.59261
20
-3.82543
11
5.58961
21
-3.829
0
LINE
8
BLACK
6
CONTINUOUS
10
5.58961
20
-3.829
11
5.58961
21
-3.829
0
LINE
8
BLACK
6
CONTINUOUS
10
5.58961
20
-3.829
11
5.58961
21
-3.829
0
LINE
8
BLACK
6
CONTINUOUS
10
5.58961
20
-3.829
11
5.58961
21
-3.829
0
LINE
8
BLACK
6
CONTINUOUS
10
5.58961
20
-3.829
11
5.58802
21
-3.83338
0
LINE
8
BLACK
6
CONTINUOUS
10
5.58802
20
-3.83338
11
5.58802
21
-3.83804
0
LINE
8
BLACK
6
CONTINUOUS
10
5.58802
20
-3.83804
11
5.58961
21
-3.84241
0
LINE
8
BLACK
6
CONTINUOUS
10
5.63554
20
-3.80795
11
5.62766
21
-3.80008
0
LINE
8
BLACK
6
CONTINUOUS
10
5.62766
20
-3.80008
11
5.61416
21
-3.80008
0
LINE
8
BLACK
6
CONTINUOUS
10
5.61416
20
-3.80008
11
5.60629
21
-3.80795
0
LINE
8
BLACK
6
CONTINUOUS
10
5.60629
20
-3.80795
11
5.63554
21
-3.80795
0
LINE
8
BLACK
6
CONTINUOUS
10
5.57271
20
-3.78765
11
5.57536
21
-3.79378
0
LINE
8
BLACK
6
CONTINUOUS
10
5.57536
20
-3.79378
11
5.57934
21
-3.79913
0
LINE
8
BLACK
6
CONTINUOUS
10
5.57934
20
-3.79913
11
5.57934
21
-3.79913
0
LINE
8
BLACK
6
CONTINUOUS
10
5.57934
20
-3.79913
11
5.58365
21
-3.80275
0
LINE
8
BLACK
6
CONTINUOUS
10
5.58365
20
-3.80275
11
5.58954
21
-3.79686
0
LINE
8
BLACK
6
CONTINUOUS
10
5.58954
20
-3.79686
11
5.5872
21
-3.79544
0
LINE
8
BLACK
6
CONTINUOUS
10
5.5872
20
-3.79544
11
5.58336
21
-3.79133
0
LINE
8
BLACK
6
CONTINUOUS
10
5.58336
20
-3.79133
11
5.58077
21
-3.78633
0
LINE
8
BLACK
6
CONTINUOUS
10
5.58077
20
-3.78633
11
5.57962
21
-3.78082
0
LINE
8
BLACK
6
CONTINUOUS
10
5.57962
20
-3.78082
11
5.58001
21
-3.7752
0
LINE
8
BLACK
6
CONTINUOUS
10
5.58001
20
-3.7752
11
5.58189
21
-3.7699
0
LINE
8
BLACK
6
CONTINUOUS
10
5.58189
20
-3.7699
11
5.58514
21
-3.7653
0
LINE
8
BLACK
6
CONTINUOUS
10
5.58514
20
-3.7653
11
5.58941
21
-3.76183
0
LINE
8
BLACK
6
CONTINUOUS
10
5.58941
20
-3.76183
11
5.58371
21
-3.75612
0
LINE
8
BLACK
6
CONTINUOUS
10
5.58371
20
-3.75612
11
5.58177
21
-3.7574
0
LINE
8
BLACK
6
CONTINUOUS
10
5.58177
20
-3.7574
11
5.57719
21
-3.76225
0
LINE
8
BLACK
6
CONTINUOUS
10
5.57719
20
-3.76225
11
5.57719
21
-3.76225
0
LINE
8
BLACK
6
CONTINUOUS
10
5.57719
20
-3.76225
11
5.57386
21
-3.76803
0
LINE
8
BLACK
6
CONTINUOUS
10
5.57386
20
-3.76803
11
5.57194
21
-3.77442
0
LINE
8
BLACK
6
CONTINUOUS
10
5.57194
20
-3.77442
11
5.57156
21
-3.78108
0
LINE
8
BLACK
6
CONTINUOUS
10
5.57156
20
-3.78108
11
5.57271
21
-3.78765
0
CIRCLE
8
BLACK
10
5.83047
20
-3.35894
40
0.00688976
0
CIRCLE
8
BLACK
10
6.22417
20
-4.54004
40
0.00688976
0
CIRCLE
8
BLACK
10
5.43677
20
-4.54004
40
0.00688976
0
CIRCLE
8
BLACK
10
6.22417
20
-3.35894
40
0.00688976
0
CIRCLE
8
BLACK
10
5.83047
20
-4.54004
40
0.00688976
0
CIRCLE
8
BLACK
10
5.43677
20
-3.35894
40
0.00688976
0
CIRCLE
8
BLACK
10
5.60123
20
-4.06327
40
0.00688976
0
CIRCLE
8
BLACK
10
5.60123
20
-3.83571
40
0.00688976
0
LINE
8
BLACK
6
CONTINUOUS
10
5.47426
20
-4.10796
11
5.47831
21
-4.10952
0
LINE
8
BLACK
6
CONTINUOUS
10
5.47831
20
-4.10952
11
5.48152
21
-4.11245
0
LINE
8
BLACK
6
CONTINUOUS
10
5.48152
20
-4.11245
11
5.48345
21
-4.11633
0
LINE
8
BLACK
6
CONTINUOUS
10
5.48345
20
-4.11633
11
5.48386
21
-4.12066
0
LINE
8
BLACK
6
CONTINUOUS
10
5.48386
20
-4.12066
11
5.48267
21
-4.12483
0
LINE
8
BLACK
6
CONTINUOUS
10
5.48267
20
-4.12483
11
5.48005
21
-4.1283
0
LINE
8
BLACK
6
CONTINUOUS
10
5.48005
20
-4.1283
11
5.47636
21
-4.13058
0
LINE
8
BLACK
6
CONTINUOUS
10
5.47636
20
-4.13058
11
5.47209
21
-4.13138
0
LINE
8
BLACK
6
CONTINUOUS
10
5.47209
20
-4.13138
11
5.4406
21
-4.13138
0
LINE
8
BLACK
6
CONTINUOUS
10
5.4406
20
-4.13138
11
5.43843
21
-4.13118
0
LINE
8
BLACK
6
CONTINUOUS
10
5.43843
20
-4.13118
11
5.43438
21
-4.12961
0
LINE
8
BLACK
6
CONTINUOUS
10
5.43438
20
-4.12961
11
5.43117
21
-4.12668
0
LINE
8
BLACK
6
CONTINUOUS
10
5.43117
20
-4.12668
11
5.42924
21
-4.1228
0
LINE
8
BLACK
6
CONTINUOUS
10
5.42924
20
-4.1228
11
5.42884
21
-4.11848
0
LINE
8
BLACK
6
CONTINUOUS
10
5.42884
20
-4.11848
11
5.43003
21
-4.1143
0
LINE
8
BLACK
6
CONTINUOUS
10
5.43003
20
-4.1143
11
5.43264
21
-4.11084
0
LINE
8
BLACK
6
CONTINUOUS
10
5.43264
20
-4.11084
11
5.43633
21
-4.10855
0
LINE
8
BLACK
6
CONTINUOUS
10
5.43633
20
-4.10855
11
5.4406
21
-4.10776
0
LINE
8
BLACK
6
CONTINUOUS
10
5.4406
20
-4.10776
11
5.47209
21
-4.10776
0
LINE
8
BLACK
6
CONTINUOUS
10
5.47209
20
-4.10776
11
5.47426
21
-4.10796
0
LINE
8
BLACK
6
CONTINUOUS
10
5.47426
20
-3.7678
11
5.47831
21
-3.76937
0
LINE
8
BLACK
6
CONTINUOUS
10
5.47831
20
-3.76937
11
5.48152
21
-3.77229
0
LINE
8
BLACK
6
CONTINUOUS
10
5.48152
20
-3.77229
11
5.48345
21
-3.77618
0
LINE
8
BLACK
6
CONTINUOUS
10
5.48345
20
-3.77618
11
5.48386
21
-3.7805
0
LINE
8
BLACK
6
CONTINUOUS
10
5.48386
20
-3.7805
11
5.48267
21
-3.78467
0
LINE
8
BLACK
6
CONTINUOUS
10
5.48267
20
-3.78467
11
5.48005
21
-3.78814
0
LINE
8
BLACK
6
CONTINUOUS
10
5.48005
20
-3.78814
11
5.47636
21
-3.79042
0
LINE
8
BLACK
6
CONTINUOUS
10
5.47636
20
-3.79042
11
5.47209
21
-3.79122
0
LINE
8
BLACK
6
CONTINUOUS
10
5.47209
20
-3.79122
11
5.4406
21
-3.79122
0
LINE
8
BLACK
6
CONTINUOUS
10
5.4406
20
-3.79122
11
5.43843
21
-3.79102
0
LINE
8
BLACK
6
CONTINUOUS
10
5.43843
20
-3.79102
11
5.43438
21
-3.78945
0
LINE
8
BLACK
6
CONTINUOUS
10
5.43438
20
-3.78945
11
5.43117
21
-3.78653
0
LINE
8
BLACK
6
CONTINUOUS
10
5.43117
20
-3.78653
11
5.42924
21
-3.78264
0
LINE
8
BLACK
6
CONTINUOUS
10
5.42924
20
-3.78264
11
5.42884
21
-3.77832
0
LINE
8
BLACK
6
CONTINUOUS
10
5.42884
20
-3.77832
11
5.43003
21
-3.77414
0
LINE
8
BLACK
6
CONTINUOUS
10
5.43003
20
-3.77414
11
5.43264
21
-3.77068
0
LINE
8
BLACK
6
CONTINUOUS
10
5.43264
20
-3.77068
11
5.43633
21
-3.7684
0
LINE
8
BLACK
6
CONTINUOUS
10
5.43633
20
-3.7684
11
5.4406
21
-3.7676
0
LINE
8
BLACK
6
CONTINUOUS
10
5.4406
20
-3.7676
11
5.47209
21
-3.7676
0
LINE
8
BLACK
6
CONTINUOUS
10
5.47209
20
-3.7676
11
5.47426
21
-3.7678
0
LINE
8
BLACK
6
CONTINUOUS
10
5.64474
20
-4.10796
11
5.64878
21
-4.10952
0
LINE
8
BLACK
6
CONTINUOUS
10
5.64878
20
-4.10952
11
5.65199
21
-4.11245
0
LINE
8
BLACK
6
CONTINUOUS
10
5.65199
20
-4.11245
11
5.65393
21
-4.11633
0
LINE
8
BLACK
6
CONTINUOUS
10
5.65393
20
-4.11633
11
5.65433
21
-4.12066
0
LINE
8
BLACK
6
CONTINUOUS
10
5.65433
20
-4.12066
11
5.65314
21
-4.12483
0
LINE
8
BLACK
6
CONTINUOUS
10
5.65314
20
-4.12483
11
5.65052
21
-4.1283
0
LINE
8
BLACK
6
CONTINUOUS
10
5.65052
20
-4.1283
11
5.64683
21
-4.13058
0
LINE
8
BLACK
6
CONTINUOUS
10
5.64683
20
-4.13058
11
5.64257
21
-4.13138
0
LINE
8
BLACK
6
CONTINUOUS
10
5.64257
20
-4.13138
11
5.59926
21
-4.13138
0
LINE
8
BLACK
6
CONTINUOUS
10
5.59926
20
-4.13138
11
5.59709
21
-4.13118
0
LINE
8
BLACK
6
CONTINUOUS
10
5.59709
20
-4.13118
11
5.59304
21
-4.12961
0
LINE
8
BLACK
6
CONTINUOUS
10
5.59304
20
-4.12961
11
5.58983
21
-4.12668
0
LINE
8
BLACK
6
CONTINUOUS
10
5.58983
20
-4.12668
11
5.5879
21
-4.1228
0
LINE
8
BLACK
6
CONTINUOUS
10
5.5879
20
-4.1228
11
5.5875
21
-4.11848
0
LINE
8
BLACK
6
CONTINUOUS
10
5.5875
20
-4.11848
11
5.58869
21
-4.1143
0
LINE
8
BLACK
6
CONTINUOUS
10
5.58869
20
-4.1143
11
5.5913
21
-4.11084
0
LINE
8
BLACK
6
CONTINUOUS
10
5.5913
20
-4.11084
11
5.59499
21
-4.10855
0
LINE
8
BLACK
6
CONTINUOUS
10
5.59499
20
-4.10855
11
5.59926
21
-4.10776
0
LINE
8
BLACK
6
CONTINUOUS
10
5.59926
20
-4.10776
11
5.64257
21
-4.10776
0
LINE
8
BLACK
6
CONTINUOUS
10
5.64257
20
-4.10776
11
5.64474
21
-4.10796
0
LINE
8
BLACK
6
CONTINUOUS
10
5.64474
20
-3.7678
11
5.64878
21
-3.76937
0
LINE
8
BLACK
6
CONTINUOUS
10
5.64878
20
-3.76937
11
5.65199
21
-3.77229
0
LINE
8
BLACK
6
CONTINUOUS
10
5.65199
20
-3.77229
11
5.65393
21
-3.77618
0
LINE
8
BLACK
6
CONTINUOUS
10
5.65393
20
-3.77618
11
5.65433
21
-3.7805
0
LINE
8
BLACK
6
CONTINUOUS
10
5.65433
20
-3.7805
11
5.65314
21
-3.78467
0
LINE
8
BLACK
6
CONTINUOUS
10
5.65314
20
-3.78467
11
5.65052
21
-3.78814
0
LINE
8
BLACK
6
CONTINUOUS
10
5.65052
20
-3.78814
11
5.64683
21
-3.79042
0
LINE
8
BLACK
6
CONTINUOUS
10
5.64683
20
-3.79042
11
5.64257
21
-3.79122
0
LINE
8
BLACK
6
CONTINUOUS
10
5.64257
20
-3.79122
11
5.59926
21
-3.79122
0
LINE
8
BLACK
6
CONTINUOUS
10
5.59926
20
-3.79122
11
5.59709
21
-3.79102
0
LINE
8
BLACK
6
CONTINUOUS
10
5.59709
20
-3.79102
11
5.59304
21
-3.78945
0
LINE
8
BLACK
6
CONTINUOUS
10
5.59304
20
-3.78945
11
5.58983
21
-3.78653
0
LINE
8
BLACK
6
CONTINUOUS
10
5.58983
20
-3.78653
11
5.5879
21
-3.78264
0
LINE
8
BLACK
6
CONTINUOUS
10
5.5879
20
-3.78264
11
5.5875
21
-3.77832
0
LINE
8
BLACK
6
CONTINUOUS
10
5.5875
20
-3.77832
11
5.58869
21
-3.77414
0
LINE
8
BLACK
6
CONTINUOUS
10
5.58869
20
-3.77414
11
5.5913
21
-3.77068
0
LINE
8
BLACK
6
CONTINUOUS
10
5.5913
20
-3.77068
11
5.59499
21
-3.7684
0
LINE
8
BLACK
6
CONTINUOUS
10
5.59499
20
-3.7684
11
5.59926
21
-3.7676
0
LINE
8
BLACK
6
CONTINUOUS
10
5.59926
20
-3.7676
11
5.64257
21
-3.7676
0
LINE
8
BLACK
6
CONTINUOUS
10
5.64257
20
-3.7676
11
5.64474
21
-3.7678
0
CIRCLE
8
BLACK
10
5.82835
20
-4.05004
40
0.00787402
0
CIRCLE
8
BLACK
10
5.94673
20
-3.41732
40
0.00787402
0
CIRCLE
8
BLACK
10
6.39335
20
-3.40004
40
0.00787402
0
CIRCLE
8
BLACK
10
5.41835
20
-3.53004
40
0.00787402
0
CIRCLE
8
BLACK
10
6.3189
20
-4.4252
40
0.00787402
0
CIRCLE
8
BLACK
10
5.69291
20
-3.77165
40
0.00787402
0
CIRCLE
8
BLACK
10
6.07673
20
-3.41732
40
0.00787402
0
CIRCLE
8
BLACK
10
6.42335
20
-4.50004
40
0.00787402
0
CIRCLE
8
BLACK
10
6.43835
20
-3.40004
40
0.00787402
0
CIRCLE
8
BLACK
10
6.11811
20
-4.25984
40
0.00787402
0
CIRCLE
8
BLACK
10
5.42335
20
-4.41004
40
0.00787402
0
CIRCLE
8
BLACK
10
6.47835
20
-3.40004
40
0.00787402
0
CIRCLE
8
BLACK
10
5.42335
20
-4.24004
40
0.00787402
0
CIRCLE
8
BLACK
10
5.71835
20
-3.81004
40
0.00787402
0
CIRCLE
8
BLACK
10
5.41835
20
-3.65504
40
0.00787402
0
CIRCLE
8
BLACK
10
5.84417
20
-3.82913
40
0.00787402
0
CIRCLE
8
BLACK
10
6.14173
20
-3.41732
40
0.00787402
0
CIRCLE
8
BLACK
10
6.1063
20
-4.368
40
0.00787402
0
CIRCLE
8
BLACK
10
5.71335
20
-4.10004
40
0.00787402
0
CIRCLE
8
BLACK
10
5.75591
20
-3.55906
40
0.00787402
0
CIRCLE
8
BLACK
10
6.09843
20
-3.80315
40
0.00787402
0
CIRCLE
8
BLACK
10
6.33835
20
-4.50004
40
0.00787402
0
CIRCLE
8
BLACK
10
5.70835
20
-4.33504
40
0.00787402
0
CIRCLE
8
BLACK
10
6.01173
20
-3.41732
40
0.00787402
0
CIRCLE
8
BLACK
10
5.42335
20
-4.31004
40
0.00787402
0
CIRCLE
8
BLACK
10
6.11024
20
-3.88976
40
0.00787402
0
CIRCLE
8
BLACK
10
5.73622
20
-4.49213
40
0.00787402
0
CIRCLE
8
BLACK
10
5.41835
20
-3.59504
40
0.00787402
0
CIRCLE
8
BLACK
10
6.38335
20
-4.50004
40
0.00787402
0
CIRCLE
8
BLACK
10
6.34835
20
-3.40004
40
0.00787402
0
CIRCLE
8
BLACK
10
6.46835
20
-4.50004
40
0.00787402
0
CIRCLE
8
BLACK
10
5.64173
20
-3.6378
40
0.00787402
0
CIRCLE
8
BLACK
10
5.80315
20
-3.76772
40
0.00787402
0
CIRCLE
8
BLACK
10
5.96063
20
-3.90551
40
0.00787402
0
CIRCLE
8
BLACK
10
6.10825
20
-4.04724
40
0.00787402
0
CIRCLE
8
BLACK
10
6.38799
20
-3.51969
40
0.00787402
0
CIRCLE
8
BLACK
10
6.44488
20
-3.91339
40
0.00787402
0
CIRCLE
8
BLACK
10
5.76835
20
-4.05118
40
0.00787402
0
CIRCLE
8
BLACK
10
5.7622
20
-3.94882
40
0.00787402
0
CIRCLE
8
BLACK
10
5.76772
20
-3.855
40
0.00787402
0
CIRCLE
8
BLACK
10
5.70831
20
-3.90988
40
0.00787402
0
CIRCLE
8
BLACK
10
5.70764
20
-3.96915
40
0.00787402
0
CIRCLE
8
BLACK
10
6.15354
20
-3.74803
40
0.00787402
0
CIRCLE
8
BLACK
10
6.26772
20
-4.07874
40
0.00787402
0
CIRCLE
8
BLACK
10
6.27559
20
-4.19291
40
0.00787402
0
CIRCLE
8
BLACK
10
6.11024
20
-4.21654
40
0.00787402
0
CIRCLE
8
BLACK
10
6.21654
20
-3.87008
40
0.00787402
0
CIRCLE
8
BLACK
10
6.39764
20
-4.33465
40
0.00787402
0
CIRCLE
8
BLACK
10
6.38189
20
-3.66142
40
0.00787402
0
CIRCLE
8
BLACK
10
5.83465
20
-3.67
40
0.00787402
0
CIRCLE
8
BLACK
10
6.10236
20
-3.84646
40
0.00787402
0
CIRCLE
8
BLACK
10
5.92126
20
-4.01575
40
0.00787402
0
CIRCLE
8
BLACK
10
5.75787
20
-3.78543
40
0.00787402
0
CIRCLE
8
BLACK
10
5.52362
20
-4.16929
40
0.00787402
0
CIRCLE
8
BLACK
10
5.49606
20
-3.45276
40
0.00787402
0
CIRCLE
8
BLACK
10
6.04923
20
-4.1063
40
0.00787402
0
CIRCLE
8
BLACK
10
5.98031
20
-4.19685
40
0.00787402
0
CIRCLE
8
BLACK
10
5.95278
20
-4.14961
40
0.00787402
0
CIRCLE
8
BLACK
10
6.17323
20
-3.94882
40
0.00787402
  0
ENDSEC
  0
EOF
