  0
SECTION
  2
HEADER
  9
$ANGBASE
  50
0.0
  9
$ANGDIR
  70
1
  9
$MEASUREMENT
  70
0
  0
ENDSEC
  0
SECTION
  2
TABLES
  0
TABLE
  2
LTYPE
  70
4
  0
LTYPE
  5
40F
  2
CONTINUOUS
  70
0
  3
Solid line
  72
65
  73
0
  40
0.0
  0
LTYPE
  5
410
  2
DASHDOT
 70
0
  3
Dash Dot ____ _ ____ _
 72
65
 73
4
 40
2.0
 49
1.25
 49
-0.25
 49
0.25
 49
-0.25
  0
LTYPE
  5
411
  2
DASHED
 70
0
  3
Dashed __ __ __ __ __
 72
65
 73
2
 40
0.75
 49
0.5
 49
-0.25
  0
LTYPE
  5
43B
  2
DOTTED
 70
0
  3
Dotted .  .  .  .
 72
65
 73
2
 40
0.2
 49
0.0
 49
-0.2
  0
ENDTAB
  0
TABLE
  2
STYLE
  70
4
  0
STYLE
  2
KICAD
  70
0
  40
0
  41
1
  42
1
  50
0
  71
0
  3
isocp.shx
  0
STYLE
  2
KICADB
  70
0
  40
0
  41
1
  42
1
  50
0
  71
0
  3
isocp.shx
  0
STYLE
  2
KICADI
  70
0
  40
0
  41
1
  42
1
  50
15
  71
0
  3
isocp.shx
  0
STYLE
  2
KICADBI
  70
0
  40
0
  41
1
  42
1
  50
15
  71
0
  3
isocp.shx
  0
ENDTAB
  0
TABLE
  2
LAYER
  70
1
  0
LAYER
  2
BLACK
  70
0
  62
7
  6
CONTINUOUS
  0
ENDTAB
  0
ENDSEC
  0
SECTION
  2
ENTITIES
0
LINE
8
BLACK
6
CONTINUOUS
10
5.4505577952755901
20
-4.4826159448818901
11
5.4593710629921262
21
-4.4854795669291336
0
LINE
8
BLACK
6
CONTINUOUS
10
5.4593710629921262
20
-4.4854795669291336
11
5.467627874015748
21
-4.4896866141732286
0
LINE
8
BLACK
6
CONTINUOUS
10
5.467627874015748
20
-4.4896866141732286
11
5.475124881889764
21
-4.4951335039370077
0
LINE
8
BLACK
6
CONTINUOUS
10
5.475124881889764
20
-4.4951335039370077
11
5.4816775196850394
21
-4.5016861417322831
0
LINE
8
BLACK
6
CONTINUOUS
10
5.4816775196850394
20
-4.5016861417322831
11
5.4871244094488185
21
-4.5091831496062991
0
LINE
8
BLACK
6
CONTINUOUS
10
5.4871244094488185
20
-4.5091831496062991
11
5.4913314566929134
21
-4.5174399606299209
0
LINE
8
BLACK
6
CONTINUOUS
10
5.4913314566929134
20
-4.5174399606299209
11
5.494195078740157
21
-4.5262532283464569
0
LINE
8
BLACK
6
CONTINUOUS
10
5.494195078740157
20
-4.5262532283464569
11
5.4956447244094484
21
-4.53540594488189
0
LINE
8
BLACK
6
CONTINUOUS
10
5.4956447244094484
20
-4.53540594488189
11
5.4956447244094484
21
-4.5446727952755905
0
LINE
8
BLACK
6
CONTINUOUS
10
5.4956447244094484
20
-4.5446727952755905
11
5.494195078740157
21
-4.5538255118110236
0
LINE
8
BLACK
6
CONTINUOUS
10
5.494195078740157
20
-4.5538255118110236
11
5.4913314566929134
21
-4.5626387795275587
0
LINE
8
BLACK
6
CONTINUOUS
10
5.4913314566929134
20
-4.5626387795275587
11
5.4871244094488185
21
-4.5708955905511814
0
LINE
8
BLACK
6
CONTINUOUS
10
5.4871244094488185
20
-4.5708955905511814
11
5.4816775196850394
21
-4.5783925984251965
0
LINE
8
BLACK
6
CONTINUOUS
10
5.4816775196850394
20
-4.5783925984251965
11
5.475124881889764
21
-4.5849452362204719
0
LINE
8
BLACK
6
CONTINUOUS
10
5.475124881889764
20
-4.5849452362204719
11
5.467627874015748
21
-4.5903921259842519
0
LINE
8
BLACK
6
CONTINUOUS
10
5.467627874015748
20
-4.5903921259842519
11
5.4593710629921262
21
-4.594599173228346
0
LINE
8
BLACK
6
CONTINUOUS
10
5.4593710629921262
20
-4.594599173228346
11
5.4505577952755901
21
-4.5974627952755904
0
LINE
8
BLACK
6
CONTINUOUS
10
5.4505577952755901
20
-4.5974627952755904
11
5.4414050787401571
21
-4.5989124409448818
0
LINE
8
BLACK
6
CONTINUOUS
10
5.4414050787401571
20
-4.5989124409448818
11
5.4321382283464565
21
-4.5989124409448818
0
LINE
8
BLACK
6
CONTINUOUS
10
5.4321382283464565
20
-4.5989124409448818
11
5.4229855118110235
21
-4.5974627952755904
0
LINE
8
BLACK
6
CONTINUOUS
10
5.4229855118110235
20
-4.5974627952755904
11
5.4141722440944884
21
-4.594599173228346
0
LINE
8
BLACK
6
CONTINUOUS
10
5.4141722440944884
20
-4.594599173228346
11
5.4059154330708656
21
-4.5903921259842519
0
LINE
8
BLACK
6
CONTINUOUS
10
5.4059154330708656
20
-4.5903921259842519
11
5.3984184251968506
21
-4.5849452362204719
0
LINE
8
BLACK
6
CONTINUOUS
10
5.3984184251968506
20
-4.5849452362204719
11
5.3918657874015743
21
-4.5783925984251965
0
LINE
8
BLACK
6
CONTINUOUS
10
5.3918657874015743
20
-4.5783925984251965
11
5.3864188976377951
21
-4.5708955905511814
0
LINE
8
BLACK
6
CONTINUOUS
10
5.3864188976377951
20
-4.5708955905511814
11
5.3822118503937011
21
-4.5626387795275587
0
LINE
8
BLACK
6
CONTINUOUS
10
5.3822118503937011
20
-4.5626387795275587
11
5.3793482283464567
21
-4.5538255118110236
0
LINE
8
BLACK
6
CONTINUOUS
10
5.3793482283464567
20
-4.5538255118110236
11
5.3778985826771653
21
-4.5446727952755905
0
LINE
8
BLACK
6
CONTINUOUS
10
5.3778985826771653
20
-4.5446727952755905
11
5.3778985826771653
21
-4.53540594488189
0
LINE
8
BLACK
6
CONTINUOUS
10
5.3778985826771653
20
-4.53540594488189
11
5.3793482283464567
21
-4.5262532283464569
0
LINE
8
BLACK
6
CONTINUOUS
10
5.3793482283464567
20
-4.5262532283464569
11
5.3822118503937011
21
-4.5174399606299209
0
LINE
8
BLACK
6
CONTINUOUS
10
5.3822118503937011
20
-4.5174399606299209
11
5.3864188976377951
21
-4.5091831496062991
0
LINE
8
BLACK
6
CONTINUOUS
10
5.3864188976377951
20
-4.5091831496062991
11
5.3918657874015743
21
-4.5016861417322831
0
LINE
8
BLACK
6
CONTINUOUS
10
5.3918657874015743
20
-4.5016861417322831
11
5.3984184251968506
21
-4.4951335039370077
0
LINE
8
BLACK
6
CONTINUOUS
10
5.3984184251968506
20
-4.4951335039370077
11
5.4059154330708656
21
-4.4896866141732286
0
LINE
8
BLACK
6
CONTINUOUS
10
5.4059154330708656
20
-4.4896866141732286
11
5.4141722440944884
21
-4.4854795669291336
0
LINE
8
BLACK
6
CONTINUOUS
10
5.4141722440944884
20
-4.4854795669291336
11
5.4229855118110235
21
-4.4826159448818901
0
LINE
8
BLACK
6
CONTINUOUS
10
5.4229855118110235
20
-4.4826159448818901
11
5.4321382283464565
21
-4.4811662992125987
0
LINE
8
BLACK
6
CONTINUOUS
10
5.4321382283464565
20
-4.4811662992125987
11
5.4414050787401571
21
-4.4811662992125987
0
LINE
8
BLACK
6
CONTINUOUS
10
5.4414050787401571
20
-4.4811662992125987
11
5.4505577952755901
21
-4.4826159448818901
0
LINE
8
BLACK
6
CONTINUOUS
10
5.8442585826771651
20
-4.4826159448818901
11
5.8530718503937003
21
-4.4854795669291336
0
LINE
8
BLACK
6
CONTINUOUS
10
5.8530718503937003
20
-4.4854795669291336
11
5.861328661417323
21
-4.4896866141732286
0
LINE
8
BLACK
6
CONTINUOUS
10
5.861328661417323
20
-4.4896866141732286
11
5.8688256692913381
21
-4.4951335039370077
0
LINE
8
BLACK
6
CONTINUOUS
10
5.8688256692913381
20
-4.4951335039370077
11
5.8753783070866143
21
-4.5016861417322831
0
LINE
8
BLACK
6
CONTINUOUS
10
5.8753783070866143
20
-4.5016861417322831
11
5.8808251968503935
21
-4.5091831496062991
0
LINE
8
BLACK
6
CONTINUOUS
10
5.8808251968503935
20
-4.5091831496062991
11
5.8850322440944884
21
-4.5174399606299209
0
LINE
8
BLACK
6
CONTINUOUS
10
5.8850322440944884
20
-4.5174399606299209
11
5.887895866141732
21
-4.5262532283464569
0
LINE
8
BLACK
6
CONTINUOUS
10
5.887895866141732
20
-4.5262532283464569
11
5.8893455118110234
21
-4.53540594488189
0
LINE
8
BLACK
6
CONTINUOUS
10
5.8893455118110234
20
-4.53540594488189
11
5.8893455118110234
21
-4.5446727952755905
0
LINE
8
BLACK
6
CONTINUOUS
10
5.8893455118110234
20
-4.5446727952755905
11
5.887895866141732
21
-4.5538255118110236
0
LINE
8
BLACK
6
CONTINUOUS
10
5.887895866141732
20
-4.5538255118110236
11
5.8850322440944884
21
-4.5626387795275587
0
LINE
8
BLACK
6
CONTINUOUS
10
5.8850322440944884
20
-4.5626387795275587
11
5.8808251968503935
21
-4.5708955905511814
0
LINE
8
BLACK
6
CONTINUOUS
10
5.8808251968503935
20
-4.5708955905511814
11
5.8753783070866143
21
-4.5783925984251965
0
LINE
8
BLACK
6
CONTINUOUS
10
5.8753783070866143
20
-4.5783925984251965
11
5.8688256692913381
21
-4.5849452362204719
0
LINE
8
BLACK
6
CONTINUOUS
10
5.8688256692913381
20
-4.5849452362204719
11
5.861328661417323
21
-4.5903921259842519
0
LINE
8
BLACK
6
CONTINUOUS
10
5.861328661417323
20
-4.5903921259842519
11
5.8530718503937003
21
-4.594599173228346
0
LINE
8
BLACK
6
CONTINUOUS
10
5.8530718503937003
20
-4.594599173228346
11
5.8442585826771651
21
-4.5974627952755904
0
LINE
8
BLACK
6
CONTINUOUS
10
5.8442585826771651
20
-4.5974627952755904
11
5.8351058661417321
21
-4.5989124409448818
0
LINE
8
BLACK
6
CONTINUOUS
10
5.8351058661417321
20
-4.5989124409448818
11
5.8258390157480315
21
-4.5989124409448818
0
LINE
8
BLACK
6
CONTINUOUS
10
5.8258390157480315
20
-4.5989124409448818
11
5.8166862992125985
21
-4.5974627952755904
0
LINE
8
BLACK
6
CONTINUOUS
10
5.8166862992125985
20
-4.5974627952755904
11
5.8078730314960625
21
-4.594599173228346
0
LINE
8
BLACK
6
CONTINUOUS
10
5.8078730314960625
20
-4.594599173228346
11
5.7996162204724406
21
-4.5903921259842519
0
LINE
8
BLACK
6
CONTINUOUS
10
5.7996162204724406
20
-4.5903921259842519
11
5.7921192125984247
21
-4.5849452362204719
0
LINE
8
BLACK
6
CONTINUOUS
10
5.7921192125984247
20
-4.5849452362204719
11
5.7855665748031493
21
-4.5783925984251965
0
LINE
8
BLACK
6
CONTINUOUS
10
5.7855665748031493
20
-4.5783925984251965
11
5.7801196850393701
21
-4.5708955905511814
0
LINE
8
BLACK
6
CONTINUOUS
10
5.7801196850393701
20
-4.5708955905511814
11
5.7759126377952752
21
-4.5626387795275587
0
LINE
8
BLACK
6
CONTINUOUS
10
5.7759126377952752
20
-4.5626387795275587
11
5.7730490157480316
21
-4.5538255118110236
0
LINE
8
BLACK
6
CONTINUOUS
10
5.7730490157480316
20
-4.5538255118110236
11
5.7715993700787402
21
-4.5446727952755905
0
LINE
8
BLACK
6
CONTINUOUS
10
5.7715993700787402
20
-4.5446727952755905
11
5.7715993700787402
21
-4.53540594488189
0
LINE
8
BLACK
6
CONTINUOUS
10
5.7715993700787402
20
-4.53540594488189
11
5.7730490157480316
21
-4.5262532283464569
0
LINE
8
BLACK
6
CONTINUOUS
10
5.7730490157480316
20
-4.5262532283464569
11
5.7759126377952752
21
-4.5174399606299209
0
LINE
8
BLACK
6
CONTINUOUS
10
5.7759126377952752
20
-4.5174399606299209
11
5.7801196850393701
21
-4.5091831496062991
0
LINE
8
BLACK
6
CONTINUOUS
10
5.7801196850393701
20
-4.5091831496062991
11
5.7855665748031493
21
-4.5016861417322831
0
LINE
8
BLACK
6
CONTINUOUS
10
5.7855665748031493
20
-4.5016861417322831
11
5.7921192125984247
21
-4.4951335039370077
0
LINE
8
BLACK
6
CONTINUOUS
10
5.7921192125984247
20
-4.4951335039370077
11
5.7996162204724406
21
-4.4896866141732286
0
LINE
8
BLACK
6
CONTINUOUS
10
5.7996162204724406
20
-4.4896866141732286
11
5.8078730314960625
21
-4.4854795669291336
0
LINE
8
BLACK
6
CONTINUOUS
10
5.8078730314960625
20
-4.4854795669291336
11
5.8166862992125985
21
-4.4826159448818901
0
LINE
8
BLACK
6
CONTINUOUS
10
5.8166862992125985
20
-4.4826159448818901
11
5.8258390157480315
21
-4.4811662992125987
0
LINE
8
BLACK
6
CONTINUOUS
10
5.8258390157480315
20
-4.4811662992125987
11
5.8351058661417321
21
-4.4811662992125987
0
LINE
8
BLACK
6
CONTINUOUS
10
5.8351058661417321
20
-4.4811662992125987
11
5.8442585826771651
21
-4.4826159448818901
0
LINE
8
BLACK
6
CONTINUOUS
10
6.2379593700787401
20
-4.4826159448818901
11
6.2467726377952753
21
-4.4854795669291336
0
LINE
8
BLACK
6
CONTINUOUS
10
6.2467726377952753
20
-4.4854795669291336
11
6.2550294488188971
21
-4.4896866141732286
0
LINE
8
BLACK
6
CONTINUOUS
10
6.2550294488188971
20
-4.4896866141732286
11
6.2625264566929131
21
-4.4951335039370077
0
LINE
8
BLACK
6
CONTINUOUS
10
6.2625264566929131
20
-4.4951335039370077
11
6.2690790944881885
21
-4.5016861417322831
0
LINE
8
BLACK
6
CONTINUOUS
10
6.2690790944881885
20
-4.5016861417322831
11
6.2745259842519685
21
-4.5091831496062991
0
LINE
8
BLACK
6
CONTINUOUS
10
6.2745259842519685
20
-4.5091831496062991
11
6.2787330314960625
21
-4.5174399606299209
0
LINE
8
BLACK
6
CONTINUOUS
10
6.2787330314960625
20
-4.5174399606299209
11
6.281596653543307
21
-4.5262532283464569
0
LINE
8
BLACK
6
CONTINUOUS
10
6.281596653543307
20
-4.5262532283464569
11
6.2830462992125984
21
-4.53540594488189
0
LINE
8
BLACK
6
CONTINUOUS
10
6.2830462992125984
20
-4.53540594488189
11
6.2830462992125984
21
-4.5446727952755905
0
LINE
8
BLACK
6
CONTINUOUS
10
6.2830462992125984
20
-4.5446727952755905
11
6.281596653543307
21
-4.5538255118110236
0
LINE
8
BLACK
6
CONTINUOUS
10
6.281596653543307
20
-4.5538255118110236
11
6.2787330314960625
21
-4.5626387795275587
0
LINE
8
BLACK
6
CONTINUOUS
10
6.2787330314960625
20
-4.5626387795275587
11
6.2745259842519685
21
-4.5708955905511814
0
LINE
8
BLACK
6
CONTINUOUS
10
6.2745259842519685
20
-4.5708955905511814
11
6.2690790944881885
21
-4.5783925984251965
0
LINE
8
BLACK
6
CONTINUOUS
10
6.2690790944881885
20
-4.5783925984251965
11
6.2625264566929131
21
-4.5849452362204719
0
LINE
8
BLACK
6
CONTINUOUS
10
6.2625264566929131
20
-4.5849452362204719
11
6.2550294488188971
21
-4.5903921259842519
0
LINE
8
BLACK
6
CONTINUOUS
10
6.2550294488188971
20
-4.5903921259842519
11
6.2467726377952753
21
-4.594599173228346
0
LINE
8
BLACK
6
CONTINUOUS
10
6.2467726377952753
20
-4.594599173228346
11
6.2379593700787401
21
-4.5974627952755904
0
LINE
8
BLACK
6
CONTINUOUS
10
6.2379593700787401
20
-4.5974627952755904
11
6.2288066535433071
21
-4.5989124409448818
0
LINE
8
BLACK
6
CONTINUOUS
10
6.2288066535433071
20
-4.5989124409448818
11
6.2195398031496065
21
-4.5989124409448818
0
LINE
8
BLACK
6
CONTINUOUS
10
6.2195398031496065
20
-4.5989124409448818
11
6.2103870866141735
21
-4.5974627952755904
0
LINE
8
BLACK
6
CONTINUOUS
10
6.2103870866141735
20
-4.5974627952755904
11
6.2015738188976375
21
-4.594599173228346
0
LINE
8
BLACK
6
CONTINUOUS
10
6.2015738188976375
20
-4.594599173228346
11
6.1933170078740156
21
-4.5903921259842519
0
LINE
8
BLACK
6
CONTINUOUS
10
6.1933170078740156
20
-4.5903921259842519
11
6.1858199999999997
21
-4.5849452362204719
0
LINE
8
BLACK
6
CONTINUOUS
10
6.1858199999999997
20
-4.5849452362204719
11
6.1792673622047243
21
-4.5783925984251965
0
LINE
8
BLACK
6
CONTINUOUS
10
6.1792673622047243
20
-4.5783925984251965
11
6.1738204724409451
21
-4.5708955905511814
0
LINE
8
BLACK
6
CONTINUOUS
10
6.1738204724409451
20
-4.5708955905511814
11
6.1696134251968502
21
-4.5626387795275587
0
LINE
8
BLACK
6
CONTINUOUS
10
6.1696134251968502
20
-4.5626387795275587
11
6.1667498031496057
21
-4.5538255118110236
0
LINE
8
BLACK
6
CONTINUOUS
10
6.1667498031496057
20
-4.5538255118110236
11
6.1653001574803152
21
-4.5446727952755905
0
LINE
8
BLACK
6
CONTINUOUS
10
6.1653001574803152
20
-4.5446727952755905
11
6.1653001574803152
21
-4.53540594488189
0
LINE
8
BLACK
6
CONTINUOUS
10
6.1653001574803152
20
-4.53540594488189
11
6.1667498031496057
21
-4.5262532283464569
0
LINE
8
BLACK
6
CONTINUOUS
10
6.1667498031496057
20
-4.5262532283464569
11
6.1696134251968502
21
-4.5174399606299209
0
LINE
8
BLACK
6
CONTINUOUS
10
6.1696134251968502
20
-4.5174399606299209
11
6.1738204724409451
21
-4.5091831496062991
0
LINE
8
BLACK
6
CONTINUOUS
10
6.1738204724409451
20
-4.5091831496062991
11
6.1792673622047243
21
-4.5016861417322831
0
LINE
8
BLACK
6
CONTINUOUS
10
6.1792673622047243
20
-4.5016861417322831
11
6.1858199999999997
21
-4.4951335039370077
0
LINE
8
BLACK
6
CONTINUOUS
10
6.1858199999999997
20
-4.4951335039370077
11
6.1933170078740156
21
-4.4896866141732286
0
LINE
8
BLACK
6
CONTINUOUS
10
6.1933170078740156
20
-4.4896866141732286
11
6.2015738188976375
21
-4.4854795669291336
0
LINE
8
BLACK
6
CONTINUOUS
10
6.2015738188976375
20
-4.4854795669291336
11
6.2103870866141735
21
-4.4826159448818901
0
LINE
8
BLACK
6
CONTINUOUS
10
6.2103870866141735
20
-4.4826159448818901
11
6.2195398031496065
21
-4.4811662992125987
0
LINE
8
BLACK
6
CONTINUOUS
10
6.2195398031496065
20
-4.4811662992125987
11
6.2288066535433071
21
-4.4811662992125987
0
LINE
8
BLACK
6
CONTINUOUS
10
6.2288066535433071
20
-4.4811662992125987
11
6.2379593700787401
21
-4.4826159448818901
0
LINE
8
BLACK
6
CONTINUOUS
10
5.9607558661417324
20
-4.1744150393700785
11
5.9657471653543306
21
-4.1764824803149603
0
LINE
8
BLACK
6
CONTINUOUS
10
5.9657471653543306
20
-4.1764824803149603
11
5.9702391732283466
21
-4.179483976377953
0
LINE
8
BLACK
6
CONTINUOUS
10
5.9702391732283466
20
-4.179483976377953
11
5.9740593307086609
21
-4.1833041338582673
0
LINE
8
BLACK
6
CONTINUOUS
10
5.9740593307086609
20
-4.1833041338582673
11
5.9770608267716536
21
-4.1877961417322833
0
LINE
8
BLACK
6
CONTINUOUS
10
5.9770608267716536
20
-4.1877961417322833
11
5.9791282677165354
21
-4.1927874409448815
0
LINE
8
BLACK
6
CONTINUOUS
10
5.9791282677165354
20
-4.1927874409448815
11
5.9801822440944878
21
-4.1980861417322837
0
LINE
8
BLACK
6
CONTINUOUS
10
5.9801822440944878
20
-4.1980861417322837
11
5.9801822440944878
21
-4.2034886614173228
0
LINE
8
BLACK
6
CONTINUOUS
10
5.9801822440944878
20
-4.2034886614173228
11
5.9791282677165354
21
-4.208787362204724
0
LINE
8
BLACK
6
CONTINUOUS
10
5.9791282677165354
20
-4.208787362204724
11
5.9770608267716536
21
-4.2137786614173232
0
LINE
8
BLACK
6
CONTINUOUS
10
5.9770608267716536
20
-4.2137786614173232
11
5.9740593307086609
21
-4.2182706692913383
0
LINE
8
BLACK
6
CONTINUOUS
10
5.9740593307086609
20
-4.2182706692913383
11
5.9702391732283466
21
-4.2220908267716535
0
LINE
8
BLACK
6
CONTINUOUS
10
5.9702391732283466
20
-4.2220908267716535
11
5.9657471653543306
21
-4.2250923228346453
0
LINE
8
BLACK
6
CONTINUOUS
10
5.9657471653543306
20
-4.2250923228346453
11
5.9607558661417324
21
-4.2271597637795271
0
LINE
8
BLACK
6
CONTINUOUS
10
5.9607558661417324
20
-4.2271597637795271
11
5.9554571653543302
21
-4.2282137401574804
0
LINE
8
BLACK
6
CONTINUOUS
10
5.9554571653543302
20
-4.2282137401574804
11
5.9500546456692911
21
-4.2282137401574804
0
LINE
8
BLACK
6
CONTINUOUS
10
5.9500546456692911
20
-4.2282137401574804
11
5.9447559448818899
21
-4.2271597637795271
0
LINE
8
BLACK
6
CONTINUOUS
10
5.9447559448818899
20
-4.2271597637795271
11
5.9397646456692916
21
-4.2250923228346453
0
LINE
8
BLACK
6
CONTINUOUS
10
5.9397646456692916
20
-4.2250923228346453
11
5.9352726377952756
21
-4.2220908267716535
0
LINE
8
BLACK
6
CONTINUOUS
10
5.9352726377952756
20
-4.2220908267716535
11
5.9314524803149604
21
-4.2182706692913383
0
LINE
8
BLACK
6
CONTINUOUS
10
5.9314524803149604
20
-4.2182706692913383
11
5.9284509842519686
21
-4.2137786614173232
0
LINE
8
BLACK
6
CONTINUOUS
10
5.9284509842519686
20
-4.2137786614173232
11
5.9263835433070868
21
-4.208787362204724
0
LINE
8
BLACK
6
CONTINUOUS
10
5.9263835433070868
20
-4.208787362204724
11
5.9253295669291335
21
-4.2034886614173228
0
LINE
8
BLACK
6
CONTINUOUS
10
5.9253295669291335
20
-4.2034886614173228
11
5.9253295669291335
21
-4.1980861417322837
0
LINE
8
BLACK
6
CONTINUOUS
10
5.9253295669291335
20
-4.1980861417322837
11
5.9263835433070868
21
-4.1927874409448815
0
LINE
8
BLACK
6
CONTINUOUS
10
5.9263835433070868
20
-4.1927874409448815
11
5.9284509842519686
21
-4.1877961417322833
0
LINE
8
BLACK
6
CONTINUOUS
10
5.9284509842519686
20
-4.1877961417322833
11
5.9314524803149604
21
-4.1833041338582673
0
LINE
8
BLACK
6
CONTINUOUS
10
5.9314524803149604
20
-4.1833041338582673
11
5.9352726377952756
21
-4.179483976377953
0
LINE
8
BLACK
6
CONTINUOUS
10
5.9352726377952756
20
-4.179483976377953
11
5.9397646456692916
21
-4.1764824803149603
0
LINE
8
BLACK
6
CONTINUOUS
10
5.9397646456692916
20
-4.1764824803149603
11
5.9447559448818899
21
-4.1744150393700785
0
LINE
8
BLACK
6
CONTINUOUS
10
5.9447559448818899
20
-4.1744150393700785
11
5.9500546456692911
21
-4.1733610629921261
0
LINE
8
BLACK
6
CONTINUOUS
10
5.9500546456692911
20
-4.1733610629921261
11
5.9554571653543302
21
-4.1733610629921261
0
LINE
8
BLACK
6
CONTINUOUS
10
5.9554571653543302
20
-4.1733610629921261
11
5.9607558661417324
21
-4.1744150393700785
0
LINE
8
BLACK
6
CONTINUOUS
10
6.0552440551181101
20
-4.1744150393700785
11
6.0602353543307084
21
-4.1764824803149603
0
LINE
8
BLACK
6
CONTINUOUS
10
6.0602353543307084
20
-4.1764824803149603
11
6.0647273622047244
21
-4.179483976377953
0
LINE
8
BLACK
6
CONTINUOUS
10
6.0647273622047244
20
-4.179483976377953
11
6.0685475196850396
21
-4.1833041338582673
0
LINE
8
BLACK
6
CONTINUOUS
10
6.0685475196850396
20
-4.1833041338582673
11
6.0715490157480314
21
-4.1877961417322833
0
LINE
8
BLACK
6
CONTINUOUS
10
6.0715490157480314
20
-4.1877961417322833
11
6.0736164566929132
21
-4.1927874409448815
0
LINE
8
BLACK
6
CONTINUOUS
10
6.0736164566929132
20
-4.1927874409448815
11
6.0746704330708656
21
-4.1980861417322837
0
LINE
8
BLACK
6
CONTINUOUS
10
6.0746704330708656
20
-4.1980861417322837
11
6.0746704330708656
21
-4.2034886614173228
0
LINE
8
BLACK
6
CONTINUOUS
10
6.0746704330708656
20
-4.2034886614173228
11
6.0736164566929132
21
-4.208787362204724
0
LINE
8
BLACK
6
CONTINUOUS
10
6.0736164566929132
20
-4.208787362204724
11
6.0715490157480314
21
-4.2137786614173232
0
LINE
8
BLACK
6
CONTINUOUS
10
6.0715490157480314
20
-4.2137786614173232
11
6.0685475196850396
21
-4.2182706692913383
0
LINE
8
BLACK
6
CONTINUOUS
10
6.0685475196850396
20
-4.2182706692913383
11
6.0647273622047244
21
-4.2220908267716535
0
LINE
8
BLACK
6
CONTINUOUS
10
6.0647273622047244
20
-4.2220908267716535
11
6.0602353543307084
21
-4.2250923228346453
0
LINE
8
BLACK
6
CONTINUOUS
10
6.0602353543307084
20
-4.2250923228346453
11
6.0552440551181101
21
-4.2271597637795271
0
LINE
8
BLACK
6
CONTINUOUS
10
6.0552440551181101
20
-4.2271597637795271
11
6.0499453543307089
21
-4.2282137401574804
0
LINE
8
BLACK
6
CONTINUOUS
10
6.0499453543307089
20
-4.2282137401574804
11
6.0445428346456689
21
-4.2282137401574804
0
LINE
8
BLACK
6
CONTINUOUS
10
6.0445428346456689
20
-4.2282137401574804
11
6.0392441338582676
21
-4.2271597637795271
0
LINE
8
BLACK
6
CONTINUOUS
10
6.0392441338582676
20
-4.2271597637795271
11
6.0342528346456694
21
-4.2250923228346453
0
LINE
8
BLACK
6
CONTINUOUS
10
6.0342528346456694
20
-4.2250923228346453
11
6.0297608267716534
21
-4.2220908267716535
0
LINE
8
BLACK
6
CONTINUOUS
10
6.0297608267716534
20
-4.2220908267716535
11
6.0259406692913382
21
-4.2182706692913383
0
LINE
8
BLACK
6
CONTINUOUS
10
6.0259406692913382
20
-4.2182706692913383
11
6.0229391732283464
21
-4.2137786614173232
0
LINE
8
BLACK
6
CONTINUOUS
10
6.0229391732283464
20
-4.2137786614173232
11
6.0208717322834646
21
-4.208787362204724
0
LINE
8
BLACK
6
CONTINUOUS
10
6.0208717322834646
20
-4.208787362204724
11
6.0198177559055113
21
-4.2034886614173228
0
LINE
8
BLACK
6
CONTINUOUS
10
6.0198177559055113
20
-4.2034886614173228
11
6.0198177559055113
21
-4.1980861417322837
0
LINE
8
BLACK
6
CONTINUOUS
10
6.0198177559055113
20
-4.1980861417322837
11
6.0208717322834646
21
-4.1927874409448815
0
LINE
8
BLACK
6
CONTINUOUS
10
6.0208717322834646
20
-4.1927874409448815
11
6.0229391732283464
21
-4.1877961417322833
0
LINE
8
BLACK
6
CONTINUOUS
10
6.0229391732283464
20
-4.1877961417322833
11
6.0259406692913382
21
-4.1833041338582673
0
LINE
8
BLACK
6
CONTINUOUS
10
6.0259406692913382
20
-4.1833041338582673
11
6.0297608267716534
21
-4.179483976377953
0
LINE
8
BLACK
6
CONTINUOUS
10
6.0297608267716534
20
-4.179483976377953
11
6.0342528346456694
21
-4.1764824803149603
0
LINE
8
BLACK
6
CONTINUOUS
10
6.0342528346456694
20
-4.1764824803149603
11
6.0392441338582676
21
-4.1744150393700785
0
LINE
8
BLACK
6
CONTINUOUS
10
6.0392441338582676
20
-4.1744150393700785
11
6.0445428346456689
21
-4.1733610629921261
0
LINE
8
BLACK
6
CONTINUOUS
10
6.0445428346456689
20
-4.1733610629921261
11
6.0499453543307089
21
-4.1733610629921261
0
LINE
8
BLACK
6
CONTINUOUS
10
6.0499453543307089
20
-4.1733610629921261
11
6.0552440551181101
21
-4.1744150393700785
0
LINE
8
BLACK
6
CONTINUOUS
10
5.6443803937007875
20
-4.0911610629921258
11
5.6498683464566932
21
-4.0922526771653542
0
LINE
8
BLACK
6
CONTINUOUS
10
5.6498683464566932
20
-4.0922526771653542
11
5.6550379133858266
21
-4.0943939763779529
0
LINE
8
BLACK
6
CONTINUOUS
10
5.6550379133858266
20
-4.0943939763779529
11
5.6596903543307082
21
-4.0975026377952757
0
LINE
8
BLACK
6
CONTINUOUS
10
5.6596903543307082
20
-4.0975026377952757
11
5.6636469685039366
21
-4.101459251968504
0
LINE
8
BLACK
6
CONTINUOUS
10
5.6636469685039366
20
-4.101459251968504
11
5.6667556299212594
21
-4.1061116929133856
0
LINE
8
BLACK
6
CONTINUOUS
10
5.6667556299212594
20
-4.1061116929133856
11
5.668896929133858
21
-4.1112812598425199
0
LINE
8
BLACK
6
CONTINUOUS
10
5.668896929133858
20
-4.1112812598425199
11
5.6699885433070865
21
-4.1167692125984248
0
LINE
8
BLACK
6
CONTINUOUS
10
5.6699885433070865
20
-4.1167692125984248
11
5.6699885433070865
21
-4.1223646456692915
0
LINE
8
BLACK
6
CONTINUOUS
10
5.6699885433070865
20
-4.1223646456692915
11
5.668896929133858
21
-4.1278525984251964
0
LINE
8
BLACK
6
CONTINUOUS
10
5.668896929133858
20
-4.1278525984251964
11
5.6667556299212594
21
-4.1330221653543306
0
LINE
8
BLACK
6
CONTINUOUS
10
5.6667556299212594
20
-4.1330221653543306
11
5.6636469685039366
21
-4.1376746062992122
0
LINE
8
BLACK
6
CONTINUOUS
10
5.6636469685039366
20
-4.1376746062992122
11
5.6596903543307082
21
-4.1416312204724406
0
LINE
8
BLACK
6
CONTINUOUS
10
5.6596903543307082
20
-4.1416312204724406
11
5.6550379133858266
21
-4.1447398818897634
0
LINE
8
BLACK
6
CONTINUOUS
10
5.6550379133858266
20
-4.1447398818897634
11
5.6498683464566932
21
-4.146881181102362
0
LINE
8
BLACK
6
CONTINUOUS
10
5.6498683464566932
20
-4.146881181102362
11
5.6443803937007875
21
-4.1479727952755905
0
LINE
8
BLACK
6
CONTINUOUS
10
5.6443803937007875
20
-4.1479727952755905
11
5.6415826771653546
21
-4.1481102362204725
0
LINE
8
BLACK
6
CONTINUOUS
10
5.6415826771653546
20
-4.1481102362204725
11
5.6002440944881888
21
-4.1481102362204725
0
LINE
8
BLACK
6
CONTINUOUS
10
5.6002440944881888
20
-4.1481102362204725
11
5.5974463779527559
21
-4.1479727952755905
0
LINE
8
BLACK
6
CONTINUOUS
10
5.5974463779527559
20
-4.1479727952755905
11
5.5919584251968502
21
-4.146881181102362
0
LINE
8
BLACK
6
CONTINUOUS
10
5.5919584251968502
20
-4.146881181102362
11
5.5867888582677168
21
-4.1447398818897634
0
LINE
8
BLACK
6
CONTINUOUS
10
5.5867888582677168
20
-4.1447398818897634
11
5.5821364173228343
21
-4.1416312204724406
0
LINE
8
BLACK
6
CONTINUOUS
10
5.5821364173228343
20
-4.1416312204724406
11
5.5781798031496059
21
-4.1376746062992122
0
LINE
8
BLACK
6
CONTINUOUS
10
5.5781798031496059
20
-4.1376746062992122
11
5.5750711417322831
21
-4.1330221653543306
0
LINE
8
BLACK
6
CONTINUOUS
10
5.5750711417322831
20
-4.1330221653543306
11
5.5729298425196845
21
-4.1278525984251964
0
LINE
8
BLACK
6
CONTINUOUS
10
5.5729298425196845
20
-4.1278525984251964
11
5.5718382283464569
21
-4.1223646456692915
0
LINE
8
BLACK
6
CONTINUOUS
10
5.5718382283464569
20
-4.1223646456692915
11
5.5718382283464569
21
-4.1167692125984248
0
LINE
8
BLACK
6
CONTINUOUS
10
5.5718382283464569
20
-4.1167692125984248
11
5.5729298425196845
21
-4.1112812598425199
0
LINE
8
BLACK
6
CONTINUOUS
10
5.5729298425196845
20
-4.1112812598425199
11
5.5750711417322831
21
-4.1061116929133856
0
LINE
8
BLACK
6
CONTINUOUS
10
5.5750711417322831
20
-4.1061116929133856
11
5.5781798031496059
21
-4.101459251968504
0
LINE
8
BLACK
6
CONTINUOUS
10
5.5781798031496059
20
-4.101459251968504
11
5.5821364173228343
21
-4.0975026377952757
0
LINE
8
BLACK
6
CONTINUOUS
10
5.5821364173228343
20
-4.0975026377952757
11
5.5867888582677168
21
-4.0943939763779529
0
LINE
8
BLACK
6
CONTINUOUS
10
5.5867888582677168
20
-4.0943939763779529
11
5.5919584251968502
21
-4.0922526771653542
0
LINE
8
BLACK
6
CONTINUOUS
10
5.5919584251968502
20
-4.0922526771653542
11
5.5974463779527559
21
-4.0911610629921258
0
LINE
8
BLACK
6
CONTINUOUS
10
5.5974463779527559
20
-4.0911610629921258
11
5.6002440944881888
21
-4.0910236220472438
0
LINE
8
BLACK
6
CONTINUOUS
10
5.6002440944881888
20
-4.0910236220472438
11
5.6415826771653546
21
-4.0910236220472438
0
LINE
8
BLACK
6
CONTINUOUS
10
5.6415826771653546
20
-4.0910236220472438
11
5.6443803937007875
21
-4.0911610629921258
0
LINE
8
BLACK
6
CONTINUOUS
10
5.4787327559055115
20
-4.092140590551181
11
5.4840314566929136
21
-4.0931945669291334
0
LINE
8
BLACK
6
CONTINUOUS
10
5.4840314566929136
20
-4.0931945669291334
11
5.4890227559055118
21
-4.0952620078740161
0
LINE
8
BLACK
6
CONTINUOUS
10
5.4890227559055118
20
-4.0952620078740161
11
5.4935147637795279
21
-4.0982635039370079
0
LINE
8
BLACK
6
CONTINUOUS
10
5.4935147637795279
20
-4.0982635039370079
11
5.4973349212598421
21
-4.1020836614173231
0
LINE
8
BLACK
6
CONTINUOUS
10
5.4973349212598421
20
-4.1020836614173231
11
5.5003364173228348
21
-4.1065756692913382
0
LINE
8
BLACK
6
CONTINUOUS
10
5.5003364173228348
20
-4.1065756692913382
11
5.5024038582677166
21
-4.1115669685039373
0
LINE
8
BLACK
6
CONTINUOUS
10
5.5024038582677166
20
-4.1115669685039373
11
5.5034578346456691
21
-4.1168656692913386
0
LINE
8
BLACK
6
CONTINUOUS
10
5.5034578346456691
20
-4.1168656692913386
11
5.5034578346456691
21
-4.1222681889763777
0
LINE
8
BLACK
6
CONTINUOUS
10
5.5034578346456691
20
-4.1222681889763777
11
5.5024038582677166
21
-4.1275668897637798
0
LINE
8
BLACK
6
CONTINUOUS
10
5.5024038582677166
20
-4.1275668897637798
11
5.5003364173228348
21
-4.1325581889763781
0
LINE
8
BLACK
6
CONTINUOUS
10
5.5003364173228348
20
-4.1325581889763781
11
5.4973349212598421
21
-4.1370501968503932
0
LINE
8
BLACK
6
CONTINUOUS
10
5.4973349212598421
20
-4.1370501968503932
11
5.4935147637795279
21
-4.1408703543307084
0
LINE
8
BLACK
6
CONTINUOUS
10
5.4935147637795279
20
-4.1408703543307084
11
5.4890227559055118
21
-4.1438718503937011
0
LINE
8
BLACK
6
CONTINUOUS
10
5.4890227559055118
20
-4.1438718503937011
11
5.4840314566929136
21
-4.1459392913385829
0
LINE
8
BLACK
6
CONTINUOUS
10
5.4840314566929136
20
-4.1459392913385829
11
5.4787327559055115
21
-4.1469932677165353
0
LINE
8
BLACK
6
CONTINUOUS
10
5.4787327559055115
20
-4.1469932677165353
11
5.4760314960629923
21
-4.1471259842519688
0
LINE
8
BLACK
6
CONTINUOUS
10
5.4760314960629923
20
-4.1471259842519688
11
5.4366614173228349
21
-4.1471259842519688
0
LINE
8
BLACK
6
CONTINUOUS
10
5.4366614173228349
20
-4.1471259842519688
11
5.4339601574803149
21
-4.1469932677165353
0
LINE
8
BLACK
6
CONTINUOUS
10
5.4339601574803149
20
-4.1469932677165353
11
5.4286614566929137
21
-4.1459392913385829
0
LINE
8
BLACK
6
CONTINUOUS
10
5.4286614566929137
20
-4.1459392913385829
11
5.4236701574803146
21
-4.1438718503937011
0
LINE
8
BLACK
6
CONTINUOUS
10
5.4236701574803146
20
-4.1438718503937011
11
5.4191781496062994
21
-4.1408703543307084
0
LINE
8
BLACK
6
CONTINUOUS
10
5.4191781496062994
20
-4.1408703543307084
11
5.4153579921259842
21
-4.1370501968503932
0
LINE
8
BLACK
6
CONTINUOUS
10
5.4153579921259842
20
-4.1370501968503932
11
5.4123564960629924
21
-4.1325581889763781
0
LINE
8
BLACK
6
CONTINUOUS
10
5.4123564960629924
20
-4.1325581889763781
11
5.4102890551181098
21
-4.1275668897637798
0
LINE
8
BLACK
6
CONTINUOUS
10
5.4102890551181098
20
-4.1275668897637798
11
5.4092350787401573
21
-4.1222681889763777
0
LINE
8
BLACK
6
CONTINUOUS
10
5.4092350787401573
20
-4.1222681889763777
11
5.4092350787401573
21
-4.1168656692913386
0
LINE
8
BLACK
6
CONTINUOUS
10
5.4092350787401573
20
-4.1168656692913386
11
5.4102890551181098
21
-4.1115669685039373
0
LINE
8
BLACK
6
CONTINUOUS
10
5.4102890551181098
20
-4.1115669685039373
11
5.4123564960629924
21
-4.1065756692913382
0
LINE
8
BLACK
6
CONTINUOUS
10
5.4123564960629924
20
-4.1065756692913382
11
5.4153579921259842
21
-4.1020836614173231
0
LINE
8
BLACK
6
CONTINUOUS
10
5.4153579921259842
20
-4.1020836614173231
11
5.4191781496062994
21
-4.0982635039370079
0
LINE
8
BLACK
6
CONTINUOUS
10
5.4191781496062994
20
-4.0982635039370079
11
5.4236701574803146
21
-4.0952620078740161
0
LINE
8
BLACK
6
CONTINUOUS
10
5.4236701574803146
20
-4.0952620078740161
11
5.4286614566929137
21
-4.0931945669291334
0
LINE
8
BLACK
6
CONTINUOUS
10
5.4286614566929137
20
-4.0931945669291334
11
5.4339601574803149
21
-4.092140590551181
0
LINE
8
BLACK
6
CONTINUOUS
10
5.4339601574803149
20
-4.092140590551181
11
5.4366614173228349
21
-4.0920078740157475
0
LINE
8
BLACK
6
CONTINUOUS
10
5.4366614173228349
20
-4.0920078740157475
11
5.4760314960629923
21
-4.0920078740157475
0
LINE
8
BLACK
6
CONTINUOUS
10
5.4760314960629923
20
-4.0920078740157475
11
5.4787327559055115
21
-4.092140590551181
0
LINE
8
BLACK
6
CONTINUOUS
10
5.9607558661417324
20
-4.091737874015748
11
5.9657471653543306
21
-4.0938053149606297
0
LINE
8
BLACK
6
CONTINUOUS
10
5.9657471653543306
20
-4.0938053149606297
11
5.9702391732283466
21
-4.0968068110236215
0
LINE
8
BLACK
6
CONTINUOUS
10
5.9702391732283466
20
-4.0968068110236215
11
5.9740593307086609
21
-4.1006269685039367
0
LINE
8
BLACK
6
CONTINUOUS
10
5.9740593307086609
20
-4.1006269685039367
11
5.9770608267716536
21
-4.1051189763779528
0
LINE
8
BLACK
6
CONTINUOUS
10
5.9770608267716536
20
-4.1051189763779528
11
5.9791282677165354
21
-4.110110275590551
0
LINE
8
BLACK
6
CONTINUOUS
10
5.9791282677165354
20
-4.110110275590551
11
5.9801822440944878
21
-4.1154089763779522
0
LINE
8
BLACK
6
CONTINUOUS
10
5.9801822440944878
20
-4.1154089763779522
11
5.9801822440944878
21
-4.1208114960629922
0
LINE
8
BLACK
6
CONTINUOUS
10
5.9801822440944878
20
-4.1208114960629922
11
5.9791282677165354
21
-4.1261101968503935
0
LINE
8
BLACK
6
CONTINUOUS
10
5.9791282677165354
20
-4.1261101968503935
11
5.9770608267716536
21
-4.1311014960629917
0
LINE
8
BLACK
6
CONTINUOUS
10
5.9770608267716536
20
-4.1311014960629917
11
5.9740593307086609
21
-4.1355935039370078
0
LINE
8
BLACK
6
CONTINUOUS
10
5.9740593307086609
20
-4.1355935039370078
11
5.9702391732283466
21
-4.1394136614173229
0
LINE
8
BLACK
6
CONTINUOUS
10
5.9702391732283466
20
-4.1394136614173229
11
5.9657471653543306
21
-4.1424151574803147
0
LINE
8
BLACK
6
CONTINUOUS
10
5.9657471653543306
20
-4.1424151574803147
11
5.9607558661417324
21
-4.1444825984251965
0
LINE
8
BLACK
6
CONTINUOUS
10
5.9607558661417324
20
-4.1444825984251965
11
5.9554571653543302
21
-4.1455365748031499
0
LINE
8
BLACK
6
CONTINUOUS
10
5.9554571653543302
20
-4.1455365748031499
11
5.9500546456692911
21
-4.1455365748031499
0
LINE
8
BLACK
6
CONTINUOUS
10
5.9500546456692911
20
-4.1455365748031499
11
5.9447559448818899
21
-4.1444825984251965
0
LINE
8
BLACK
6
CONTINUOUS
10
5.9447559448818899
20
-4.1444825984251965
11
5.9397646456692916
21
-4.1424151574803147
0
LINE
8
BLACK
6
CONTINUOUS
10
5.9397646456692916
20
-4.1424151574803147
11
5.9352726377952756
21
-4.1394136614173229
0
LINE
8
BLACK
6
CONTINUOUS
10
5.9352726377952756
20
-4.1394136614173229
11
5.9314524803149604
21
-4.1355935039370078
0
LINE
8
BLACK
6
CONTINUOUS
10
5.9314524803149604
20
-4.1355935039370078
11
5.9284509842519686
21
-4.1311014960629917
0
LINE
8
BLACK
6
CONTINUOUS
10
5.9284509842519686
20
-4.1311014960629917
11
5.9263835433070868
21
-4.1261101968503935
0
LINE
8
BLACK
6
CONTINUOUS
10
5.9263835433070868
20
-4.1261101968503935
11
5.9253295669291335
21
-4.1208114960629922
0
LINE
8
BLACK
6
CONTINUOUS
10
5.9253295669291335
20
-4.1208114960629922
11
5.9253295669291335
21
-4.1154089763779522
0
LINE
8
BLACK
6
CONTINUOUS
10
5.9253295669291335
20
-4.1154089763779522
11
5.9263835433070868
21
-4.110110275590551
0
LINE
8
BLACK
6
CONTINUOUS
10
5.9263835433070868
20
-4.110110275590551
11
5.9284509842519686
21
-4.1051189763779528
0
LINE
8
BLACK
6
CONTINUOUS
10
5.9284509842519686
20
-4.1051189763779528
11
5.9314524803149604
21
-4.1006269685039367
0
LINE
8
BLACK
6
CONTINUOUS
10
5.9314524803149604
20
-4.1006269685039367
11
5.9352726377952756
21
-4.0968068110236215
0
LINE
8
BLACK
6
CONTINUOUS
10
5.9352726377952756
20
-4.0968068110236215
11
5.9397646456692916
21
-4.0938053149606297
0
LINE
8
BLACK
6
CONTINUOUS
10
5.9397646456692916
20
-4.0938053149606297
11
5.9447559448818899
21
-4.091737874015748
0
LINE
8
BLACK
6
CONTINUOUS
10
5.9447559448818899
20
-4.091737874015748
11
5.9500546456692911
21
-4.0906838976377955
0
LINE
8
BLACK
6
CONTINUOUS
10
5.9500546456692911
20
-4.0906838976377955
11
5.9554571653543302
21
-4.0906838976377955
0
LINE
8
BLACK
6
CONTINUOUS
10
5.9554571653543302
20
-4.0906838976377955
11
5.9607558661417324
21
-4.091737874015748
0
LINE
8
BLACK
6
CONTINUOUS
10
6.0552440551181101
20
-4.091737874015748
11
6.0602353543307084
21
-4.0938053149606297
0
LINE
8
BLACK
6
CONTINUOUS
10
6.0602353543307084
20
-4.0938053149606297
11
6.0647273622047244
21
-4.0968068110236215
0
LINE
8
BLACK
6
CONTINUOUS
10
6.0647273622047244
20
-4.0968068110236215
11
6.0685475196850396
21
-4.1006269685039367
0
LINE
8
BLACK
6
CONTINUOUS
10
6.0685475196850396
20
-4.1006269685039367
11
6.0715490157480314
21
-4.1051189763779528
0
LINE
8
BLACK
6
CONTINUOUS
10
6.0715490157480314
20
-4.1051189763779528
11
6.0736164566929132
21
-4.110110275590551
0
LINE
8
BLACK
6
CONTINUOUS
10
6.0736164566929132
20
-4.110110275590551
11
6.0746704330708656
21
-4.1154089763779522
0
LINE
8
BLACK
6
CONTINUOUS
10
6.0746704330708656
20
-4.1154089763779522
11
6.0746704330708656
21
-4.1208114960629922
0
LINE
8
BLACK
6
CONTINUOUS
10
6.0746704330708656
20
-4.1208114960629922
11
6.0736164566929132
21
-4.1261101968503935
0
LINE
8
BLACK
6
CONTINUOUS
10
6.0736164566929132
20
-4.1261101968503935
11
6.0715490157480314
21
-4.1311014960629917
0
LINE
8
BLACK
6
CONTINUOUS
10
6.0715490157480314
20
-4.1311014960629917
11
6.0685475196850396
21
-4.1355935039370078
0
LINE
8
BLACK
6
CONTINUOUS
10
6.0685475196850396
20
-4.1355935039370078
11
6.0647273622047244
21
-4.1394136614173229
0
LINE
8
BLACK
6
CONTINUOUS
10
6.0647273622047244
20
-4.1394136614173229
11
6.0602353543307084
21
-4.1424151574803147
0
LINE
8
BLACK
6
CONTINUOUS
10
6.0602353543307084
20
-4.1424151574803147
11
6.0552440551181101
21
-4.1444825984251965
0
LINE
8
BLACK
6
CONTINUOUS
10
6.0552440551181101
20
-4.1444825984251965
11
6.0499453543307089
21
-4.1455365748031499
0
LINE
8
BLACK
6
CONTINUOUS
10
6.0499453543307089
20
-4.1455365748031499
11
6.0445428346456689
21
-4.1455365748031499
0
LINE
8
BLACK
6
CONTINUOUS
10
6.0445428346456689
20
-4.1455365748031499
11
6.0392441338582676
21
-4.1444825984251965
0
LINE
8
BLACK
6
CONTINUOUS
10
6.0392441338582676
20
-4.1444825984251965
11
6.0342528346456694
21
-4.1424151574803147
0
LINE
8
BLACK
6
CONTINUOUS
10
6.0342528346456694
20
-4.1424151574803147
11
6.0297608267716534
21
-4.1394136614173229
0
LINE
8
BLACK
6
CONTINUOUS
10
6.0297608267716534
20
-4.1394136614173229
11
6.0259406692913382
21
-4.1355935039370078
0
LINE
8
BLACK
6
CONTINUOUS
10
6.0259406692913382
20
-4.1355935039370078
11
6.0229391732283464
21
-4.1311014960629917
0
LINE
8
BLACK
6
CONTINUOUS
10
6.0229391732283464
20
-4.1311014960629917
11
6.0208717322834646
21
-4.1261101968503935
0
LINE
8
BLACK
6
CONTINUOUS
10
6.0208717322834646
20
-4.1261101968503935
11
6.0198177559055113
21
-4.1208114960629922
0
LINE
8
BLACK
6
CONTINUOUS
10
6.0198177559055113
20
-4.1208114960629922
11
6.0198177559055113
21
-4.1154089763779522
0
LINE
8
BLACK
6
CONTINUOUS
10
6.0198177559055113
20
-4.1154089763779522
11
6.0208717322834646
21
-4.110110275590551
0
LINE
8
BLACK
6
CONTINUOUS
10
6.0208717322834646
20
-4.110110275590551
11
6.0229391732283464
21
-4.1051189763779528
0
LINE
8
BLACK
6
CONTINUOUS
10
6.0229391732283464
20
-4.1051189763779528
11
6.0259406692913382
21
-4.1006269685039367
0
LINE
8
BLACK
6
CONTINUOUS
10
6.0259406692913382
20
-4.1006269685039367
11
6.0297608267716534
21
-4.0968068110236215
0
LINE
8
BLACK
6
CONTINUOUS
10
6.0297608267716534
20
-4.0968068110236215
11
6.0342528346456694
21
-4.0938053149606297
0
LINE
8
BLACK
6
CONTINUOUS
10
6.0342528346456694
20
-4.0938053149606297
11
6.0392441338582676
21
-4.091737874015748
0
LINE
8
BLACK
6
CONTINUOUS
10
6.0392441338582676
20
-4.091737874015748
11
6.0445428346456689
21
-4.0906838976377955
0
LINE
8
BLACK
6
CONTINUOUS
10
6.0445428346456689
20
-4.0906838976377955
11
6.0499453543307089
21
-4.0906838976377955
0
LINE
8
BLACK
6
CONTINUOUS
10
6.0499453543307089
20
-4.0906838976377955
11
6.0552440551181101
21
-4.091737874015748
0
LINE
8
BLACK
6
CONTINUOUS
10
5.6091381496062995
20
-4.0441717716535432
11
5.6138110236220475
21
-4.0468696456692914
0
LINE
8
BLACK
6
CONTINUOUS
10
5.6138110236220475
20
-4.0468696456692914
11
5.6176264173228345
21
-4.0506850393700784
0
LINE
8
BLACK
6
CONTINUOUS
10
5.6176264173228345
20
-4.0506850393700784
11
5.6203242913385827
21
-4.0553579133858264
0
LINE
8
BLACK
6
CONTINUOUS
10
5.6203242913385827
20
-4.0553579133858264
11
5.6217208267716536
21
-4.0605698425196852
0
LINE
8
BLACK
6
CONTINUOUS
10
5.6217208267716536
20
-4.0605698425196852
11
5.6217208267716536
21
-4.0659655905511807
0
LINE
8
BLACK
6
CONTINUOUS
10
5.6217208267716536
20
-4.0659655905511807
11
5.6203242913385827
21
-4.0711775196850395
0
LINE
8
BLACK
6
CONTINUOUS
10
5.6203242913385827
20
-4.0711775196850395
11
5.6176264173228345
21
-4.0758503937007875
0
LINE
8
BLACK
6
CONTINUOUS
10
5.6176264173228345
20
-4.0758503937007875
11
5.6138110236220475
21
-4.0796657874015745
0
LINE
8
BLACK
6
CONTINUOUS
10
5.6138110236220475
20
-4.0796657874015745
11
5.6091381496062995
21
-4.0823636614173227
0
LINE
8
BLACK
6
CONTINUOUS
10
5.6091381496062995
20
-4.0823636614173227
11
5.6039262204724407
21
-4.0837601968503936
0
LINE
8
BLACK
6
CONTINUOUS
10
5.6039262204724407
20
-4.0837601968503936
11
5.5985304724409444
21
-4.0837601968503936
0
LINE
8
BLACK
6
CONTINUOUS
10
5.5985304724409444
20
-4.0837601968503936
11
5.5933185433070864
21
-4.0823636614173227
0
LINE
8
BLACK
6
CONTINUOUS
10
5.5933185433070864
20
-4.0823636614173227
11
5.5886456692913384
21
-4.0796657874015745
0
LINE
8
BLACK
6
CONTINUOUS
10
5.5886456692913384
20
-4.0796657874015745
11
5.5848302755905515
21
-4.0758503937007875
0
LINE
8
BLACK
6
CONTINUOUS
10
5.5848302755905515
20
-4.0758503937007875
11
5.5821324015748033
21
-4.0711775196850395
0
LINE
8
BLACK
6
CONTINUOUS
10
5.5821324015748033
20
-4.0711775196850395
11
5.5807358661417323
21
-4.0659655905511807
0
LINE
8
BLACK
6
CONTINUOUS
10
5.5807358661417323
20
-4.0659655905511807
11
5.5807358661417323
21
-4.0605698425196852
0
LINE
8
BLACK
6
CONTINUOUS
10
5.5807358661417323
20
-4.0605698425196852
11
5.5821324015748033
21
-4.0553579133858264
0
LINE
8
BLACK
6
CONTINUOUS
10
5.5821324015748033
20
-4.0553579133858264
11
5.5848302755905515
21
-4.0506850393700784
0
LINE
8
BLACK
6
CONTINUOUS
10
5.5848302755905515
20
-4.0506850393700784
11
5.5886456692913384
21
-4.0468696456692914
0
LINE
8
BLACK
6
CONTINUOUS
10
5.5886456692913384
20
-4.0468696456692914
11
5.5933185433070864
21
-4.0441717716535432
0
LINE
8
BLACK
6
CONTINUOUS
10
5.5933185433070864
20
-4.0441717716535432
11
5.5985304724409444
21
-4.0427752362204723
0
LINE
8
BLACK
6
CONTINUOUS
10
5.5985304724409444
20
-4.0427752362204723
11
5.6039262204724407
21
-4.0427752362204723
0
LINE
8
BLACK
6
CONTINUOUS
10
5.6039262204724407
20
-4.0427752362204723
11
5.6091381496062995
21
-4.0441717716535432
0
LINE
8
BLACK
6
CONTINUOUS
10
5.6091381496062995
20
-3.8166127165354329
11
5.6138110236220475
21
-3.8193105905511811
0
LINE
8
BLACK
6
CONTINUOUS
10
5.6138110236220475
20
-3.8193105905511811
11
5.6176264173228345
21
-3.8231259842519685
0
LINE
8
BLACK
6
CONTINUOUS
10
5.6176264173228345
20
-3.8231259842519685
11
5.6203242913385827
21
-3.8277988582677165
0
LINE
8
BLACK
6
CONTINUOUS
10
5.6203242913385827
20
-3.8277988582677165
11
5.6217208267716536
21
-3.8330107874015749
0
LINE
8
BLACK
6
CONTINUOUS
10
5.6217208267716536
20
-3.8330107874015749
11
5.6217208267716536
21
-3.8384065354330708
0
LINE
8
BLACK
6
CONTINUOUS
10
5.6217208267716536
20
-3.8384065354330708
11
5.6203242913385827
21
-3.8436184645669291
0
LINE
8
BLACK
6
CONTINUOUS
10
5.6203242913385827
20
-3.8436184645669291
11
5.6176264173228345
21
-3.8482913385826771
0
LINE
8
BLACK
6
CONTINUOUS
10
5.6176264173228345
20
-3.8482913385826771
11
5.6138110236220475
21
-3.8521067322834646
0
LINE
8
BLACK
6
CONTINUOUS
10
5.6138110236220475
20
-3.8521067322834646
11
5.6091381496062995
21
-3.8548046062992127
0
LINE
8
BLACK
6
CONTINUOUS
10
5.6091381496062995
20
-3.8548046062992127
11
5.6039262204724407
21
-3.8562011417322832
0
LINE
8
BLACK
6
CONTINUOUS
10
5.6039262204724407
20
-3.8562011417322832
11
5.5985304724409444
21
-3.8562011417322832
0
LINE
8
BLACK
6
CONTINUOUS
10
5.5985304724409444
20
-3.8562011417322832
11
5.5933185433070864
21
-3.8548046062992127
0
LINE
8
BLACK
6
CONTINUOUS
10
5.5933185433070864
20
-3.8548046062992127
11
5.5886456692913384
21
-3.8521067322834646
0
LINE
8
BLACK
6
CONTINUOUS
10
5.5886456692913384
20
-3.8521067322834646
11
5.5848302755905515
21
-3.8482913385826771
0
LINE
8
BLACK
6
CONTINUOUS
10
5.5848302755905515
20
-3.8482913385826771
11
5.5821324015748033
21
-3.8436184645669291
0
LINE
8
BLACK
6
CONTINUOUS
10
5.5821324015748033
20
-3.8436184645669291
11
5.5807358661417323
21
-3.8384065354330708
0
LINE
8
BLACK
6
CONTINUOUS
10
5.5807358661417323
20
-3.8384065354330708
11
5.5807358661417323
21
-3.8330107874015749
0
LINE
8
BLACK
6
CONTINUOUS
10
5.5807358661417323
20
-3.8330107874015749
11
5.5821324015748033
21
-3.8277988582677165
0
LINE
8
BLACK
6
CONTINUOUS
10
5.5821324015748033
20
-3.8277988582677165
11
5.5848302755905515
21
-3.8231259842519685
0
LINE
8
BLACK
6
CONTINUOUS
10
5.5848302755905515
20
-3.8231259842519685
11
5.5886456692913384
21
-3.8193105905511811
0
LINE
8
BLACK
6
CONTINUOUS
10
5.5886456692913384
20
-3.8193105905511811
11
5.5933185433070864
21
-3.8166127165354329
0
LINE
8
BLACK
6
CONTINUOUS
10
5.5933185433070864
20
-3.8166127165354329
11
5.5985304724409444
21
-3.8152161811023619
0
LINE
8
BLACK
6
CONTINUOUS
10
5.5985304724409444
20
-3.8152161811023619
11
5.6039262204724407
21
-3.8152161811023619
0
LINE
8
BLACK
6
CONTINUOUS
10
5.6039262204724407
20
-3.8152161811023619
11
5.6091381496062995
21
-3.8166127165354329
0
LINE
8
BLACK
6
CONTINUOUS
10
5.6443803937007875
20
-3.751003582677165
11
5.6498683464566932
21
-3.7520951968503935
0
LINE
8
BLACK
6
CONTINUOUS
10
5.6498683464566932
20
-3.7520951968503935
11
5.6550379133858266
21
-3.7542364960629921
0
LINE
8
BLACK
6
CONTINUOUS
10
5.6550379133858266
20
-3.7542364960629921
11
5.6596903543307082
21
-3.7573451574803149
0
LINE
8
BLACK
6
CONTINUOUS
10
5.6596903543307082
20
-3.7573451574803149
11
5.6636469685039366
21
-3.7613017716535433
0
LINE
8
BLACK
6
CONTINUOUS
10
5.6636469685039366
20
-3.7613017716535433
11
5.6667556299212594
21
-3.7659542125984253
0
LINE
8
BLACK
6
CONTINUOUS
10
5.6667556299212594
20
-3.7659542125984253
11
5.668896929133858
21
-3.7711237795275592
0
LINE
8
BLACK
6
CONTINUOUS
10
5.668896929133858
20
-3.7711237795275592
11
5.6699885433070865
21
-3.7766117322834645
0
LINE
8
BLACK
6
CONTINUOUS
10
5.6699885433070865
20
-3.7766117322834645
11
5.6699885433070865
21
-3.7822071653543308
0
LINE
8
BLACK
6
CONTINUOUS
10
5.6699885433070865
20
-3.7822071653543308
11
5.668896929133858
21
-3.7876951181102361
0
LINE
8
BLACK
6
CONTINUOUS
10
5.668896929133858
20
-3.7876951181102361
11
5.6667556299212594
21
-3.7928646850393699
0
LINE
8
BLACK
6
CONTINUOUS
10
5.6667556299212594
20
-3.7928646850393699
11
5.6636469685039366
21
-3.797517125984252
0
LINE
8
BLACK
6
CONTINUOUS
10
5.6636469685039366
20
-3.797517125984252
11
5.6596903543307082
21
-3.8014737401574803
0
LINE
8
BLACK
6
CONTINUOUS
10
5.6596903543307082
20
-3.8014737401574803
11
5.6550379133858266
21
-3.8045824015748031
0
LINE
8
BLACK
6
CONTINUOUS
10
5.6550379133858266
20
-3.8045824015748031
11
5.6498683464566932
21
-3.8067237007874013
0
LINE
8
BLACK
6
CONTINUOUS
10
5.6498683464566932
20
-3.8067237007874013
11
5.6443803937007875
21
-3.8078153149606297
0
LINE
8
BLACK
6
CONTINUOUS
10
5.6443803937007875
20
-3.8078153149606297
11
5.6415826771653546
21
-3.8079527559055117
0
LINE
8
BLACK
6
CONTINUOUS
10
5.6415826771653546
20
-3.8079527559055117
11
5.6002440944881888
21
-3.8079527559055117
0
LINE
8
BLACK
6
CONTINUOUS
10
5.6002440944881888
20
-3.8079527559055117
11
5.5974463779527559
21
-3.8078153149606297
0
LINE
8
BLACK
6
CONTINUOUS
10
5.5974463779527559
20
-3.8078153149606297
11
5.5919584251968502
21
-3.8067237007874013
0
LINE
8
BLACK
6
CONTINUOUS
10
5.5919584251968502
20
-3.8067237007874013
11
5.5867888582677168
21
-3.8045824015748031
0
LINE
8
BLACK
6
CONTINUOUS
10
5.5867888582677168
20
-3.8045824015748031
11
5.5821364173228343
21
-3.8014737401574803
0
LINE
8
BLACK
6
CONTINUOUS
10
5.5821364173228343
20
-3.8014737401574803
11
5.5781798031496059
21
-3.797517125984252
0
LINE
8
BLACK
6
CONTINUOUS
10
5.5781798031496059
20
-3.797517125984252
11
5.5750711417322831
21
-3.7928646850393699
0
LINE
8
BLACK
6
CONTINUOUS
10
5.5750711417322831
20
-3.7928646850393699
11
5.5729298425196845
21
-3.7876951181102361
0
LINE
8
BLACK
6
CONTINUOUS
10
5.5729298425196845
20
-3.7876951181102361
11
5.5718382283464569
21
-3.7822071653543308
0
LINE
8
BLACK
6
CONTINUOUS
10
5.5718382283464569
20
-3.7822071653543308
11
5.5718382283464569
21
-3.7766117322834645
0
LINE
8
BLACK
6
CONTINUOUS
10
5.5718382283464569
20
-3.7766117322834645
11
5.5729298425196845
21
-3.7711237795275592
0
LINE
8
BLACK
6
CONTINUOUS
10
5.5729298425196845
20
-3.7711237795275592
11
5.5750711417322831
21
-3.7659542125984253
0
LINE
8
BLACK
6
CONTINUOUS
10
5.5750711417322831
20
-3.7659542125984253
11
5.5781798031496059
21
-3.7613017716535433
0
LINE
8
BLACK
6
CONTINUOUS
10
5.5781798031496059
20
-3.7613017716535433
11
5.5821364173228343
21
-3.7573451574803149
0
LINE
8
BLACK
6
CONTINUOUS
10
5.5821364173228343
20
-3.7573451574803149
11
5.5867888582677168
21
-3.7542364960629921
0
LINE
8
BLACK
6
CONTINUOUS
10
5.5867888582677168
20
-3.7542364960629921
11
5.5919584251968502
21
-3.7520951968503935
0
LINE
8
BLACK
6
CONTINUOUS
10
5.5919584251968502
20
-3.7520951968503935
11
5.5974463779527559
21
-3.751003582677165
0
LINE
8
BLACK
6
CONTINUOUS
10
5.5974463779527559
20
-3.751003582677165
11
5.6002440944881888
21
-3.7508661417322835
0
LINE
8
BLACK
6
CONTINUOUS
10
5.6002440944881888
20
-3.7508661417322835
11
5.6415826771653546
21
-3.7508661417322835
0
LINE
8
BLACK
6
CONTINUOUS
10
5.6415826771653546
20
-3.7508661417322835
11
5.6443803937007875
21
-3.751003582677165
0
LINE
8
BLACK
6
CONTINUOUS
10
5.4787327559055115
20
-3.7519831102362202
11
5.4840314566929136
21
-3.7530370866141731
0
LINE
8
BLACK
6
CONTINUOUS
10
5.4840314566929136
20
-3.7530370866141731
11
5.4890227559055118
21
-3.7551045275590549
0
LINE
8
BLACK
6
CONTINUOUS
10
5.4890227559055118
20
-3.7551045275590549
11
5.4935147637795279
21
-3.7581060236220472
0
LINE
8
BLACK
6
CONTINUOUS
10
5.4935147637795279
20
-3.7581060236220472
11
5.4973349212598421
21
-3.7619261811023623
0
LINE
8
BLACK
6
CONTINUOUS
10
5.4973349212598421
20
-3.7619261811023623
11
5.5003364173228348
21
-3.7664181889763779
0
LINE
8
BLACK
6
CONTINUOUS
10
5.5003364173228348
20
-3.7664181889763779
11
5.5024038582677166
21
-3.7714094881889761
0
LINE
8
BLACK
6
CONTINUOUS
10
5.5024038582677166
20
-3.7714094881889761
11
5.5034578346456691
21
-3.7767081889763778
0
LINE
8
BLACK
6
CONTINUOUS
10
5.5034578346456691
20
-3.7767081889763778
11
5.5034578346456691
21
-3.7821107086614174
0
LINE
8
BLACK
6
CONTINUOUS
10
5.5034578346456691
20
-3.7821107086614174
11
5.5024038582677166
21
-3.7874094094488187
0
LINE
8
BLACK
6
CONTINUOUS
10
5.5024038582677166
20
-3.7874094094488187
11
5.5003364173228348
21
-3.7924007086614173
0
LINE
8
BLACK
6
CONTINUOUS
10
5.5003364173228348
20
-3.7924007086614173
11
5.4973349212598421
21
-3.7968927165354329
0
LINE
8
BLACK
6
CONTINUOUS
10
5.4973349212598421
20
-3.7968927165354329
11
5.4935147637795279
21
-3.8007128740157481
0
LINE
8
BLACK
6
CONTINUOUS
10
5.4935147637795279
20
-3.8007128740157481
11
5.4890227559055118
21
-3.8037143700787399
0
LINE
8
BLACK
6
CONTINUOUS
10
5.4890227559055118
20
-3.8037143700787399
11
5.4840314566929136
21
-3.8057818110236221
0
LINE
8
BLACK
6
CONTINUOUS
10
5.4840314566929136
20
-3.8057818110236221
11
5.4787327559055115
21
-3.8068357874015746
0
LINE
8
BLACK
6
CONTINUOUS
10
5.4787327559055115
20
-3.8068357874015746
11
5.4760314960629923
21
-3.8069685039370076
0
LINE
8
BLACK
6
CONTINUOUS
10
5.4760314960629923
20
-3.8069685039370076
11
5.4366614173228349
21
-3.8069685039370076
0
LINE
8
BLACK
6
CONTINUOUS
10
5.4366614173228349
20
-3.8069685039370076
11
5.4339601574803149
21
-3.8068357874015746
0
LINE
8
BLACK
6
CONTINUOUS
10
5.4339601574803149
20
-3.8068357874015746
11
5.4286614566929137
21
-3.8057818110236221
0
LINE
8
BLACK
6
CONTINUOUS
10
5.4286614566929137
20
-3.8057818110236221
11
5.4236701574803146
21
-3.8037143700787399
0
LINE
8
BLACK
6
CONTINUOUS
10
5.4236701574803146
20
-3.8037143700787399
11
5.4191781496062994
21
-3.8007128740157481
0
LINE
8
BLACK
6
CONTINUOUS
10
5.4191781496062994
20
-3.8007128740157481
11
5.4153579921259842
21
-3.7968927165354329
0
LINE
8
BLACK
6
CONTINUOUS
10
5.4153579921259842
20
-3.7968927165354329
11
5.4123564960629924
21
-3.7924007086614173
0
LINE
8
BLACK
6
CONTINUOUS
10
5.4123564960629924
20
-3.7924007086614173
11
5.4102890551181098
21
-3.7874094094488187
0
LINE
8
BLACK
6
CONTINUOUS
10
5.4102890551181098
20
-3.7874094094488187
11
5.4092350787401573
21
-3.7821107086614174
0
LINE
8
BLACK
6
CONTINUOUS
10
5.4092350787401573
20
-3.7821107086614174
11
5.4092350787401573
21
-3.7767081889763778
0
LINE
8
BLACK
6
CONTINUOUS
10
5.4092350787401573
20
-3.7767081889763778
11
5.4102890551181098
21
-3.7714094881889761
0
LINE
8
BLACK
6
CONTINUOUS
10
5.4102890551181098
20
-3.7714094881889761
11
5.4123564960629924
21
-3.7664181889763779
0
LINE
8
BLACK
6
CONTINUOUS
10
5.4123564960629924
20
-3.7664181889763779
11
5.4153579921259842
21
-3.7619261811023623
0
LINE
8
BLACK
6
CONTINUOUS
10
5.4153579921259842
20
-3.7619261811023623
11
5.4191781496062994
21
-3.7581060236220472
0
LINE
8
BLACK
6
CONTINUOUS
10
5.4191781496062994
20
-3.7581060236220472
11
5.4236701574803146
21
-3.7551045275590549
0
LINE
8
BLACK
6
CONTINUOUS
10
5.4236701574803146
20
-3.7551045275590549
11
5.4286614566929137
21
-3.7530370866141731
0
LINE
8
BLACK
6
CONTINUOUS
10
5.4286614566929137
20
-3.7530370866141731
11
5.4339601574803149
21
-3.7519831102362202
0
LINE
8
BLACK
6
CONTINUOUS
10
5.4339601574803149
20
-3.7519831102362202
11
5.4366614173228349
21
-3.7518503937007872
0
LINE
8
BLACK
6
CONTINUOUS
10
5.4366614173228349
20
-3.7518503937007872
11
5.4760314960629923
21
-3.7518503937007872
0
LINE
8
BLACK
6
CONTINUOUS
10
5.4760314960629923
20
-3.7518503937007872
11
5.4787327559055115
21
-3.7519831102362202
0
LINE
8
BLACK
6
CONTINUOUS
10
5.4505577952755901
20
-3.3015135826771651
11
5.4593710629921262
21
-3.3043772047244095
0
LINE
8
BLACK
6
CONTINUOUS
10
5.4593710629921262
20
-3.3043772047244095
11
5.467627874015748
21
-3.308584251968504
0
LINE
8
BLACK
6
CONTINUOUS
10
5.467627874015748
20
-3.308584251968504
11
5.475124881889764
21
-3.3140311417322832
0
LINE
8
BLACK
6
CONTINUOUS
10
5.475124881889764
20
-3.3140311417322832
11
5.4816775196850394
21
-3.320583779527559
0
LINE
8
BLACK
6
CONTINUOUS
10
5.4816775196850394
20
-3.320583779527559
11
5.4871244094488185
21
-3.3280807874015745
0
LINE
8
BLACK
6
CONTINUOUS
10
5.4871244094488185
20
-3.3280807874015745
11
5.4913314566929134
21
-3.3363375984251968
0
LINE
8
BLACK
6
CONTINUOUS
10
5.4913314566929134
20
-3.3363375984251968
11
5.494195078740157
21
-3.3451508661417324
0
LINE
8
BLACK
6
CONTINUOUS
10
5.494195078740157
20
-3.3451508661417324
11
5.4956447244094484
21
-3.3543035826771654
0
LINE
8
BLACK
6
CONTINUOUS
10
5.4956447244094484
20
-3.3543035826771654
11
5.4956447244094484
21
-3.363570433070866
0
LINE
8
BLACK
6
CONTINUOUS
10
5.4956447244094484
20
-3.363570433070866
11
5.494195078740157
21
-3.372723149606299
0
LINE
8
BLACK
6
CONTINUOUS
10
5.494195078740157
20
-3.372723149606299
11
5.4913314566929134
21
-3.3815364173228346
0
LINE
8
BLACK
6
CONTINUOUS
10
5.4913314566929134
20
-3.3815364173228346
11
5.4871244094488185
21
-3.3897932283464565
0
LINE
8
BLACK
6
CONTINUOUS
10
5.4871244094488185
20
-3.3897932283464565
11
5.4816775196850394
21
-3.3972902362204724
0
LINE
8
BLACK
6
CONTINUOUS
10
5.4816775196850394
20
-3.3972902362204724
11
5.475124881889764
21
-3.4038428740157478
0
LINE
8
BLACK
6
CONTINUOUS
10
5.475124881889764
20
-3.4038428740157478
11
5.467627874015748
21
-3.4092897637795274
0
LINE
8
BLACK
6
CONTINUOUS
10
5.467627874015748
20
-3.4092897637795274
11
5.4593710629921262
21
-3.4134968110236219
0
LINE
8
BLACK
6
CONTINUOUS
10
5.4593710629921262
20
-3.4134968110236219
11
5.4505577952755901
21
-3.4163604330708659
0
LINE
8
BLACK
6
CONTINUOUS
10
5.4505577952755901
20
-3.4163604330708659
11
5.4414050787401571
21
-3.4178100787401573
0
LINE
8
BLACK
6
CONTINUOUS
10
5.4414050787401571
20
-3.4178100787401573
11
5.4321382283464565
21
-3.4178100787401573
0
LINE
8
BLACK
6
CONTINUOUS
10
5.4321382283464565
20
-3.4178100787401573
11
5.4229855118110235
21
-3.4163604330708659
0
LINE
8
BLACK
6
CONTINUOUS
10
5.4229855118110235
20
-3.4163604330708659
11
5.4141722440944884
21
-3.4134968110236219
0
LINE
8
BLACK
6
CONTINUOUS
10
5.4141722440944884
20
-3.4134968110236219
11
5.4059154330708656
21
-3.4092897637795274
0
LINE
8
BLACK
6
CONTINUOUS
10
5.4059154330708656
20
-3.4092897637795274
11
5.3984184251968506
21
-3.4038428740157478
0
LINE
8
BLACK
6
CONTINUOUS
10
5.3984184251968506
20
-3.4038428740157478
11
5.3918657874015743
21
-3.3972902362204724
0
LINE
8
BLACK
6
CONTINUOUS
10
5.3918657874015743
20
-3.3972902362204724
11
5.3864188976377951
21
-3.3897932283464565
0
LINE
8
BLACK
6
CONTINUOUS
10
5.3864188976377951
20
-3.3897932283464565
11
5.3822118503937011
21
-3.3815364173228346
0
LINE
8
BLACK
6
CONTINUOUS
10
5.3822118503937011
20
-3.3815364173228346
11
5.3793482283464567
21
-3.372723149606299
0
LINE
8
BLACK
6
CONTINUOUS
10
5.3793482283464567
20
-3.372723149606299
11
5.3778985826771653
21
-3.363570433070866
0
LINE
8
BLACK
6
CONTINUOUS
10
5.3778985826771653
20
-3.363570433070866
11
5.3778985826771653
21
-3.3543035826771654
0
LINE
8
BLACK
6
CONTINUOUS
10
5.3778985826771653
20
-3.3543035826771654
11
5.3793482283464567
21
-3.3451508661417324
0
LINE
8
BLACK
6
CONTINUOUS
10
5.3793482283464567
20
-3.3451508661417324
11
5.3822118503937011
21
-3.3363375984251968
0
LINE
8
BLACK
6
CONTINUOUS
10
5.3822118503937011
20
-3.3363375984251968
11
5.3864188976377951
21
-3.3280807874015745
0
LINE
8
BLACK
6
CONTINUOUS
10
5.3864188976377951
20
-3.3280807874015745
11
5.3918657874015743
21
-3.320583779527559
0
LINE
8
BLACK
6
CONTINUOUS
10
5.3918657874015743
20
-3.320583779527559
11
5.3984184251968506
21
-3.3140311417322832
0
LINE
8
BLACK
6
CONTINUOUS
10
5.3984184251968506
20
-3.3140311417322832
11
5.4059154330708656
21
-3.308584251968504
0
LINE
8
BLACK
6
CONTINUOUS
10
5.4059154330708656
20
-3.308584251968504
11
5.4141722440944884
21
-3.3043772047244095
0
LINE
8
BLACK
6
CONTINUOUS
10
5.4141722440944884
20
-3.3043772047244095
11
5.4229855118110235
21
-3.3015135826771651
0
LINE
8
BLACK
6
CONTINUOUS
10
5.4229855118110235
20
-3.3015135826771651
11
5.4321382283464565
21
-3.3000639370078741
0
LINE
8
BLACK
6
CONTINUOUS
10
5.4321382283464565
20
-3.3000639370078741
11
5.4414050787401571
21
-3.3000639370078741
0
LINE
8
BLACK
6
CONTINUOUS
10
5.4414050787401571
20
-3.3000639370078741
11
5.4505577952755901
21
-3.3015135826771651
0
LINE
8
BLACK
6
CONTINUOUS
10
5.8442585826771651
20
-3.3015135826771651
11
5.8530718503937003
21
-3.3043772047244095
0
LINE
8
BLACK
6
CONTINUOUS
10
5.8530718503937003
20
-3.3043772047244095
11
5.861328661417323
21
-3.308584251968504
0
LINE
8
BLACK
6
CONTINUOUS
10
5.861328661417323
20
-3.308584251968504
11
5.8688256692913381
21
-3.3140311417322832
0
LINE
8
BLACK
6
CONTINUOUS
10
5.8688256692913381
20
-3.3140311417322832
11
5.8753783070866143
21
-3.320583779527559
0
LINE
8
BLACK
6
CONTINUOUS
10
5.8753783070866143
20
-3.320583779527559
11
5.8808251968503935
21
-3.3280807874015745
0
LINE
8
BLACK
6
CONTINUOUS
10
5.8808251968503935
20
-3.3280807874015745
11
5.8850322440944884
21
-3.3363375984251968
0
LINE
8
BLACK
6
CONTINUOUS
10
5.8850322440944884
20
-3.3363375984251968
11
5.887895866141732
21
-3.3451508661417324
0
LINE
8
BLACK
6
CONTINUOUS
10
5.887895866141732
20
-3.3451508661417324
11
5.8893455118110234
21
-3.3543035826771654
0
LINE
8
BLACK
6
CONTINUOUS
10
5.8893455118110234
20
-3.3543035826771654
11
5.8893455118110234
21
-3.363570433070866
0
LINE
8
BLACK
6
CONTINUOUS
10
5.8893455118110234
20
-3.363570433070866
11
5.887895866141732
21
-3.372723149606299
0
LINE
8
BLACK
6
CONTINUOUS
10
5.887895866141732
20
-3.372723149606299
11
5.8850322440944884
21
-3.3815364173228346
0
LINE
8
BLACK
6
CONTINUOUS
10
5.8850322440944884
20
-3.3815364173228346
11
5.8808251968503935
21
-3.3897932283464565
0
LINE
8
BLACK
6
CONTINUOUS
10
5.8808251968503935
20
-3.3897932283464565
11
5.8753783070866143
21
-3.3972902362204724
0
LINE
8
BLACK
6
CONTINUOUS
10
5.8753783070866143
20
-3.3972902362204724
11
5.8688256692913381
21
-3.4038428740157478
0
LINE
8
BLACK
6
CONTINUOUS
10
5.8688256692913381
20
-3.4038428740157478
11
5.861328661417323
21
-3.4092897637795274
0
LINE
8
BLACK
6
CONTINUOUS
10
5.861328661417323
20
-3.4092897637795274
11
5.8530718503937003
21
-3.4134968110236219
0
LINE
8
BLACK
6
CONTINUOUS
10
5.8530718503937003
20
-3.4134968110236219
11
5.8442585826771651
21
-3.4163604330708659
0
LINE
8
BLACK
6
CONTINUOUS
10
5.8442585826771651
20
-3.4163604330708659
11
5.8351058661417321
21
-3.4178100787401573
0
LINE
8
BLACK
6
CONTINUOUS
10
5.8351058661417321
20
-3.4178100787401573
11
5.8258390157480315
21
-3.4178100787401573
0
LINE
8
BLACK
6
CONTINUOUS
10
5.8258390157480315
20
-3.4178100787401573
11
5.8166862992125985
21
-3.4163604330708659
0
LINE
8
BLACK
6
CONTINUOUS
10
5.8166862992125985
20
-3.4163604330708659
11
5.8078730314960625
21
-3.4134968110236219
0
LINE
8
BLACK
6
CONTINUOUS
10
5.8078730314960625
20
-3.4134968110236219
11
5.7996162204724406
21
-3.4092897637795274
0
LINE
8
BLACK
6
CONTINUOUS
10
5.7996162204724406
20
-3.4092897637795274
11
5.7921192125984247
21
-3.4038428740157478
0
LINE
8
BLACK
6
CONTINUOUS
10
5.7921192125984247
20
-3.4038428740157478
11
5.7855665748031493
21
-3.3972902362204724
0
LINE
8
BLACK
6
CONTINUOUS
10
5.7855665748031493
20
-3.3972902362204724
11
5.7801196850393701
21
-3.3897932283464565
0
LINE
8
BLACK
6
CONTINUOUS
10
5.7801196850393701
20
-3.3897932283464565
11
5.7759126377952752
21
-3.3815364173228346
0
LINE
8
BLACK
6
CONTINUOUS
10
5.7759126377952752
20
-3.3815364173228346
11
5.7730490157480316
21
-3.372723149606299
0
LINE
8
BLACK
6
CONTINUOUS
10
5.7730490157480316
20
-3.372723149606299
11
5.7715993700787402
21
-3.363570433070866
0
LINE
8
BLACK
6
CONTINUOUS
10
5.7715993700787402
20
-3.363570433070866
11
5.7715993700787402
21
-3.3543035826771654
0
LINE
8
BLACK
6
CONTINUOUS
10
5.7715993700787402
20
-3.3543035826771654
11
5.7730490157480316
21
-3.3451508661417324
0
LINE
8
BLACK
6
CONTINUOUS
10
5.7730490157480316
20
-3.3451508661417324
11
5.7759126377952752
21
-3.3363375984251968
0
LINE
8
BLACK
6
CONTINUOUS
10
5.7759126377952752
20
-3.3363375984251968
11
5.7801196850393701
21
-3.3280807874015745
0
LINE
8
BLACK
6
CONTINUOUS
10
5.7801196850393701
20
-3.3280807874015745
11
5.7855665748031493
21
-3.320583779527559
0
LINE
8
BLACK
6
CONTINUOUS
10
5.7855665748031493
20
-3.320583779527559
11
5.7921192125984247
21
-3.3140311417322832
0
LINE
8
BLACK
6
CONTINUOUS
10
5.7921192125984247
20
-3.3140311417322832
11
5.7996162204724406
21
-3.308584251968504
0
LINE
8
BLACK
6
CONTINUOUS
10
5.7996162204724406
20
-3.308584251968504
11
5.8078730314960625
21
-3.3043772047244095
0
LINE
8
BLACK
6
CONTINUOUS
10
5.8078730314960625
20
-3.3043772047244095
11
5.8166862992125985
21
-3.3015135826771651
0
LINE
8
BLACK
6
CONTINUOUS
10
5.8166862992125985
20
-3.3015135826771651
11
5.8258390157480315
21
-3.3000639370078741
0
LINE
8
BLACK
6
CONTINUOUS
10
5.8258390157480315
20
-3.3000639370078741
11
5.8351058661417321
21
-3.3000639370078741
0
LINE
8
BLACK
6
CONTINUOUS
10
5.8351058661417321
20
-3.3000639370078741
11
5.8442585826771651
21
-3.3015135826771651
0
LINE
8
BLACK
6
CONTINUOUS
10
6.2379593700787401
20
-3.3015135826771651
11
6.2467726377952753
21
-3.3043772047244095
0
LINE
8
BLACK
6
CONTINUOUS
10
6.2467726377952753
20
-3.3043772047244095
11
6.2550294488188971
21
-3.308584251968504
0
LINE
8
BLACK
6
CONTINUOUS
10
6.2550294488188971
20
-3.308584251968504
11
6.2625264566929131
21
-3.3140311417322832
0
LINE
8
BLACK
6
CONTINUOUS
10
6.2625264566929131
20
-3.3140311417322832
11
6.2690790944881885
21
-3.320583779527559
0
LINE
8
BLACK
6
CONTINUOUS
10
6.2690790944881885
20
-3.320583779527559
11
6.2745259842519685
21
-3.3280807874015745
0
LINE
8
BLACK
6
CONTINUOUS
10
6.2745259842519685
20
-3.3280807874015745
11
6.2787330314960625
21
-3.3363375984251968
0
LINE
8
BLACK
6
CONTINUOUS
10
6.2787330314960625
20
-3.3363375984251968
11
6.281596653543307
21
-3.3451508661417324
0
LINE
8
BLACK
6
CONTINUOUS
10
6.281596653543307
20
-3.3451508661417324
11
6.2830462992125984
21
-3.3543035826771654
0
LINE
8
BLACK
6
CONTINUOUS
10
6.2830462992125984
20
-3.3543035826771654
11
6.2830462992125984
21
-3.363570433070866
0
LINE
8
BLACK
6
CONTINUOUS
10
6.2830462992125984
20
-3.363570433070866
11
6.281596653543307
21
-3.372723149606299
0
LINE
8
BLACK
6
CONTINUOUS
10
6.281596653543307
20
-3.372723149606299
11
6.2787330314960625
21
-3.3815364173228346
0
LINE
8
BLACK
6
CONTINUOUS
10
6.2787330314960625
20
-3.3815364173228346
11
6.2745259842519685
21
-3.3897932283464565
0
LINE
8
BLACK
6
CONTINUOUS
10
6.2745259842519685
20
-3.3897932283464565
11
6.2690790944881885
21
-3.3972902362204724
0
LINE
8
BLACK
6
CONTINUOUS
10
6.2690790944881885
20
-3.3972902362204724
11
6.2625264566929131
21
-3.4038428740157478
0
LINE
8
BLACK
6
CONTINUOUS
10
6.2625264566929131
20
-3.4038428740157478
11
6.2550294488188971
21
-3.4092897637795274
0
LINE
8
BLACK
6
CONTINUOUS
10
6.2550294488188971
20
-3.4092897637795274
11
6.2467726377952753
21
-3.4134968110236219
0
LINE
8
BLACK
6
CONTINUOUS
10
6.2467726377952753
20
-3.4134968110236219
11
6.2379593700787401
21
-3.4163604330708659
0
LINE
8
BLACK
6
CONTINUOUS
10
6.2379593700787401
20
-3.4163604330708659
11
6.2288066535433071
21
-3.4178100787401573
0
LINE
8
BLACK
6
CONTINUOUS
10
6.2288066535433071
20
-3.4178100787401573
11
6.2195398031496065
21
-3.4178100787401573
0
LINE
8
BLACK
6
CONTINUOUS
10
6.2195398031496065
20
-3.4178100787401573
11
6.2103870866141735
21
-3.4163604330708659
0
LINE
8
BLACK
6
CONTINUOUS
10
6.2103870866141735
20
-3.4163604330708659
11
6.2015738188976375
21
-3.4134968110236219
0
LINE
8
BLACK
6
CONTINUOUS
10
6.2015738188976375
20
-3.4134968110236219
11
6.1933170078740156
21
-3.4092897637795274
0
LINE
8
BLACK
6
CONTINUOUS
10
6.1933170078740156
20
-3.4092897637795274
11
6.1858199999999997
21
-3.4038428740157478
0
LINE
8
BLACK
6
CONTINUOUS
10
6.1858199999999997
20
-3.4038428740157478
11
6.1792673622047243
21
-3.3972902362204724
0
LINE
8
BLACK
6
CONTINUOUS
10
6.1792673622047243
20
-3.3972902362204724
11
6.1738204724409451
21
-3.3897932283464565
0
LINE
8
BLACK
6
CONTINUOUS
10
6.1738204724409451
20
-3.3897932283464565
11
6.1696134251968502
21
-3.3815364173228346
0
LINE
8
BLACK
6
CONTINUOUS
10
6.1696134251968502
20
-3.3815364173228346
11
6.1667498031496057
21
-3.372723149606299
0
LINE
8
BLACK
6
CONTINUOUS
10
6.1667498031496057
20
-3.372723149606299
11
6.1653001574803152
21
-3.363570433070866
0
LINE
8
BLACK
6
CONTINUOUS
10
6.1653001574803152
20
-3.363570433070866
11
6.1653001574803152
21
-3.3543035826771654
0
LINE
8
BLACK
6
CONTINUOUS
10
6.1653001574803152
20
-3.3543035826771654
11
6.1667498031496057
21
-3.3451508661417324
0
LINE
8
BLACK
6
CONTINUOUS
10
6.1667498031496057
20
-3.3451508661417324
11
6.1696134251968502
21
-3.3363375984251968
0
LINE
8
BLACK
6
CONTINUOUS
10
6.1696134251968502
20
-3.3363375984251968
11
6.1738204724409451
21
-3.3280807874015745
0
LINE
8
BLACK
6
CONTINUOUS
10
6.1738204724409451
20
-3.3280807874015745
11
6.1792673622047243
21
-3.320583779527559
0
LINE
8
BLACK
6
CONTINUOUS
10
6.1792673622047243
20
-3.320583779527559
11
6.1858199999999997
21
-3.3140311417322832
0
LINE
8
BLACK
6
CONTINUOUS
10
6.1858199999999997
20
-3.3140311417322832
11
6.1933170078740156
21
-3.308584251968504
0
LINE
8
BLACK
6
CONTINUOUS
10
6.1933170078740156
20
-3.308584251968504
11
6.2015738188976375
21
-3.3043772047244095
0
LINE
8
BLACK
6
CONTINUOUS
10
6.2015738188976375
20
-3.3043772047244095
11
6.2103870866141735
21
-3.3015135826771651
0
LINE
8
BLACK
6
CONTINUOUS
10
6.2103870866141735
20
-3.3015135826771651
11
6.2195398031496065
21
-3.3000639370078741
0
LINE
8
BLACK
6
CONTINUOUS
10
6.2195398031496065
20
-3.3000639370078741
11
6.2288066535433071
21
-3.3000639370078741
0
LINE
8
BLACK
6
CONTINUOUS
10
6.2288066535433071
20
-3.3000639370078741
11
6.2379593700787401
21
-3.3015135826771651
0
CIRCLE
8
BLACK
10
5.8304724409448818
20
-3.3589370078740157
40
0.0068897637795276
0
CIRCLE
8
BLACK
10
6.2241732283464568
20
-4.5400393700787403
40
0.0068897637795276
0
CIRCLE
8
BLACK
10
5.4367716535433068
20
-4.5400393700787403
40
0.0068897637795276
0
CIRCLE
8
BLACK
10
6.2241732283464568
20
-3.3589370078740157
40
0.0068897637795276
0
CIRCLE
8
BLACK
10
5.8304724409448818
20
-4.5400393700787403
40
0.0068897637795276
0
CIRCLE
8
BLACK
10
5.4367716535433068
20
-3.3589370078740157
40
0.0068897637795276
0
CIRCLE
8
BLACK
10
5.6012283464566925
20
-4.0632677165354334
40
0.0068897637795276
0
CIRCLE
8
BLACK
10
5.6012283464566925
20
-3.8357086614173226
40
0.0068897637795276
0
LINE
8
BLACK
6
CONTINUOUS
10
5.4736361417322836
20
-4.1078569685039366
11
5.4766143700787397
21
-4.108654960629921
0
LINE
8
BLACK
6
CONTINUOUS
10
5.4766143700787397
20
-4.108654960629921
11
5.4792845669291337
21
-4.110196614173228
0
LINE
8
BLACK
6
CONTINUOUS
10
5.4792845669291337
20
-4.110196614173228
11
5.4814648031496063
21
-4.1123768503937006
0
LINE
8
BLACK
6
CONTINUOUS
10
5.4814648031496063
20
-4.1123768503937006
11
5.4830064566929133
21
-4.1150470472440945
0
LINE
8
BLACK
6
CONTINUOUS
10
5.4830064566929133
20
-4.1150470472440945
11
5.4838044488188977
21
-4.1180252755905506
0
LINE
8
BLACK
6
CONTINUOUS
10
5.4838044488188977
20
-4.1180252755905506
11
5.4838044488188977
21
-4.1211085826771656
0
LINE
8
BLACK
6
CONTINUOUS
10
5.4838044488188977
20
-4.1211085826771656
11
5.4830064566929133
21
-4.1240868110236217
0
LINE
8
BLACK
6
CONTINUOUS
10
5.4830064566929133
20
-4.1240868110236217
11
5.4814648031496063
21
-4.1267570078740157
0
LINE
8
BLACK
6
CONTINUOUS
10
5.4814648031496063
20
-4.1267570078740157
11
5.4792845669291337
21
-4.1289372440944883
0
LINE
8
BLACK
6
CONTINUOUS
10
5.4792845669291337
20
-4.1289372440944883
11
5.4766143700787397
21
-4.1304788976377953
0
LINE
8
BLACK
6
CONTINUOUS
10
5.4766143700787397
20
-4.1304788976377953
11
5.4736361417322836
21
-4.1312768897637797
0
LINE
8
BLACK
6
CONTINUOUS
10
5.4736361417322836
20
-4.1312768897637797
11
5.4720944881889766
21
-4.1313779527559058
0
LINE
8
BLACK
6
CONTINUOUS
10
5.4720944881889766
20
-4.1313779527559058
11
5.4405984251968507
21
-4.1313779527559058
0
LINE
8
BLACK
6
CONTINUOUS
10
5.4405984251968507
20
-4.1313779527559058
11
5.4390567716535436
21
-4.1312768897637797
0
LINE
8
BLACK
6
CONTINUOUS
10
5.4390567716535436
20
-4.1312768897637797
11
5.4360785433070866
21
-4.1304788976377953
0
LINE
8
BLACK
6
CONTINUOUS
10
5.4360785433070866
20
-4.1304788976377953
11
5.4334083464566927
21
-4.1289372440944883
0
LINE
8
BLACK
6
CONTINUOUS
10
5.4334083464566927
20
-4.1289372440944883
11
5.4312281102362201
21
-4.1267570078740157
0
LINE
8
BLACK
6
CONTINUOUS
10
5.4312281102362201
20
-4.1267570078740157
11
5.4296864566929131
21
-4.1240868110236217
0
LINE
8
BLACK
6
CONTINUOUS
10
5.4296864566929131
20
-4.1240868110236217
11
5.4288884645669286
21
-4.1211085826771656
0
LINE
8
BLACK
6
CONTINUOUS
10
5.4288884645669286
20
-4.1211085826771656
11
5.4288884645669286
21
-4.1180252755905506
0
LINE
8
BLACK
6
CONTINUOUS
10
5.4288884645669286
20
-4.1180252755905506
11
5.4296864566929131
21
-4.1150470472440945
0
LINE
8
BLACK
6
CONTINUOUS
10
5.4296864566929131
20
-4.1150470472440945
11
5.4312281102362201
21
-4.1123768503937006
0
LINE
8
BLACK
6
CONTINUOUS
10
5.4312281102362201
20
-4.1123768503937006
11
5.4334083464566927
21
-4.110196614173228
0
LINE
8
BLACK
6
CONTINUOUS
10
5.4334083464566927
20
-4.110196614173228
11
5.4360785433070866
21
-4.108654960629921
0
LINE
8
BLACK
6
CONTINUOUS
10
5.4360785433070866
20
-4.108654960629921
11
5.4390567716535436
21
-4.1078569685039366
0
LINE
8
BLACK
6
CONTINUOUS
10
5.4390567716535436
20
-4.1078569685039366
11
5.4405984251968507
21
-4.1077559055118114
0
LINE
8
BLACK
6
CONTINUOUS
10
5.4405984251968507
20
-4.1077559055118114
11
5.4720944881889766
21
-4.1077559055118114
0
LINE
8
BLACK
6
CONTINUOUS
10
5.4720944881889766
20
-4.1077559055118114
11
5.4736361417322836
21
-4.1078569685039366
0
LINE
8
BLACK
6
CONTINUOUS
10
5.4736361417322836
20
-3.7676994881889763
11
5.4766143700787397
21
-3.7684974803149607
0
LINE
8
BLACK
6
CONTINUOUS
10
5.4766143700787397
20
-3.7684974803149607
11
5.4792845669291337
21
-3.7700391338582677
0
LINE
8
BLACK
6
CONTINUOUS
10
5.4792845669291337
20
-3.7700391338582677
11
5.4814648031496063
21
-3.7722193700787399
0
LINE
8
BLACK
6
CONTINUOUS
10
5.4814648031496063
20
-3.7722193700787399
11
5.4830064566929133
21
-3.7748895669291338
0
LINE
8
BLACK
6
CONTINUOUS
10
5.4830064566929133
20
-3.7748895669291338
11
5.4838044488188977
21
-3.7778677952755904
0
LINE
8
BLACK
6
CONTINUOUS
10
5.4838044488188977
20
-3.7778677952755904
11
5.4838044488188977
21
-3.7809511023622044
0
LINE
8
BLACK
6
CONTINUOUS
10
5.4838044488188977
20
-3.7809511023622044
11
5.4830064566929133
21
-3.7839293307086614
0
LINE
8
BLACK
6
CONTINUOUS
10
5.4830064566929133
20
-3.7839293307086614
11
5.4814648031496063
21
-3.7865995275590549
0
LINE
8
BLACK
6
CONTINUOUS
10
5.4814648031496063
20
-3.7865995275590549
11
5.4792845669291337
21
-3.7887797637795275
0
LINE
8
BLACK
6
CONTINUOUS
10
5.4792845669291337
20
-3.7887797637795275
11
5.4766143700787397
21
-3.7903214173228346
0
LINE
8
BLACK
6
CONTINUOUS
10
5.4766143700787397
20
-3.7903214173228346
11
5.4736361417322836
21
-3.791119409448819
0
LINE
8
BLACK
6
CONTINUOUS
10
5.4736361417322836
20
-3.791119409448819
11
5.4720944881889766
21
-3.7912204724409446
0
LINE
8
BLACK
6
CONTINUOUS
10
5.4720944881889766
20
-3.7912204724409446
11
5.4405984251968507
21
-3.7912204724409446
0
LINE
8
BLACK
6
CONTINUOUS
10
5.4405984251968507
20
-3.7912204724409446
11
5.4390567716535436
21
-3.791119409448819
0
LINE
8
BLACK
6
CONTINUOUS
10
5.4390567716535436
20
-3.791119409448819
11
5.4360785433070866
21
-3.7903214173228346
0
LINE
8
BLACK
6
CONTINUOUS
10
5.4360785433070866
20
-3.7903214173228346
11
5.4334083464566927
21
-3.7887797637795275
0
LINE
8
BLACK
6
CONTINUOUS
10
5.4334083464566927
20
-3.7887797637795275
11
5.4312281102362201
21
-3.7865995275590549
0
LINE
8
BLACK
6
CONTINUOUS
10
5.4312281102362201
20
-3.7865995275590549
11
5.4296864566929131
21
-3.7839293307086614
0
LINE
8
BLACK
6
CONTINUOUS
10
5.4296864566929131
20
-3.7839293307086614
11
5.4288884645669286
21
-3.7809511023622044
0
LINE
8
BLACK
6
CONTINUOUS
10
5.4288884645669286
20
-3.7809511023622044
11
5.4288884645669286
21
-3.7778677952755904
0
LINE
8
BLACK
6
CONTINUOUS
10
5.4288884645669286
20
-3.7778677952755904
11
5.4296864566929131
21
-3.7748895669291338
0
LINE
8
BLACK
6
CONTINUOUS
10
5.4296864566929131
20
-3.7748895669291338
11
5.4312281102362201
21
-3.7722193700787399
0
LINE
8
BLACK
6
CONTINUOUS
10
5.4312281102362201
20
-3.7722193700787399
11
5.4334083464566927
21
-3.7700391338582677
0
LINE
8
BLACK
6
CONTINUOUS
10
5.4334083464566927
20
-3.7700391338582677
11
5.4360785433070866
21
-3.7684974803149607
0
LINE
8
BLACK
6
CONTINUOUS
10
5.4360785433070866
20
-3.7684974803149607
11
5.4390567716535436
21
-3.7676994881889763
0
LINE
8
BLACK
6
CONTINUOUS
10
5.4390567716535436
20
-3.7676994881889763
11
5.4405984251968507
21
-3.7675984251968502
0
LINE
8
BLACK
6
CONTINUOUS
10
5.4405984251968507
20
-3.7675984251968502
11
5.4720944881889766
21
-3.7675984251968502
0
LINE
8
BLACK
6
CONTINUOUS
10
5.4720944881889766
20
-3.7675984251968502
11
5.4736361417322836
21
-3.7676994881889763
0
LINE
8
BLACK
6
CONTINUOUS
10
5.6441085826771653
20
-4.1078569685039366
11
5.6470868110236223
21
-4.108654960629921
0
LINE
8
BLACK
6
CONTINUOUS
10
5.6470868110236223
20
-4.108654960629921
11
5.6497570078740154
21
-4.110196614173228
0
LINE
8
BLACK
6
CONTINUOUS
10
5.6497570078740154
20
-4.110196614173228
11
5.6519372440944879
21
-4.1123768503937006
0
LINE
8
BLACK
6
CONTINUOUS
10
5.6519372440944879
20
-4.1123768503937006
11
5.653478897637795
21
-4.1150470472440945
0
LINE
8
BLACK
6
CONTINUOUS
10
5.653478897637795
20
-4.1150470472440945
11
5.6542768897637794
21
-4.1180252755905506
0
LINE
8
BLACK
6
CONTINUOUS
10
5.6542768897637794
20
-4.1180252755905506
11
5.6542768897637794
21
-4.1211085826771656
0
LINE
8
BLACK
6
CONTINUOUS
10
5.6542768897637794
20
-4.1211085826771656
11
5.653478897637795
21
-4.1240868110236217
0
LINE
8
BLACK
6
CONTINUOUS
10
5.653478897637795
20
-4.1240868110236217
11
5.6519372440944879
21
-4.1267570078740157
0
LINE
8
BLACK
6
CONTINUOUS
10
5.6519372440944879
20
-4.1267570078740157
11
5.6497570078740154
21
-4.1289372440944883
0
LINE
8
BLACK
6
CONTINUOUS
10
5.6497570078740154
20
-4.1289372440944883
11
5.6470868110236223
21
-4.1304788976377953
0
LINE
8
BLACK
6
CONTINUOUS
10
5.6470868110236223
20
-4.1304788976377953
11
5.6441085826771653
21
-4.1312768897637797
0
LINE
8
BLACK
6
CONTINUOUS
10
5.6441085826771653
20
-4.1312768897637797
11
5.6425669291338583
21
-4.1313779527559058
0
LINE
8
BLACK
6
CONTINUOUS
10
5.6425669291338583
20
-4.1313779527559058
11
5.5992598425196851
21
-4.1313779527559058
0
LINE
8
BLACK
6
CONTINUOUS
10
5.5992598425196851
20
-4.1313779527559058
11
5.5977181889763781
21
-4.1312768897637797
0
LINE
8
BLACK
6
CONTINUOUS
10
5.5977181889763781
20
-4.1312768897637797
11
5.5947399606299211
21
-4.1304788976377953
0
LINE
8
BLACK
6
CONTINUOUS
10
5.5947399606299211
20
-4.1304788976377953
11
5.5920697637795271
21
-4.1289372440944883
0
LINE
8
BLACK
6
CONTINUOUS
10
5.5920697637795271
20
-4.1289372440944883
11
5.5898895275590545
21
-4.1267570078740157
0
LINE
8
BLACK
6
CONTINUOUS
10
5.5898895275590545
20
-4.1267570078740157
11
5.5883478740157475
21
-4.1240868110236217
0
LINE
8
BLACK
6
CONTINUOUS
10
5.5883478740157475
20
-4.1240868110236217
11
5.587549881889764
21
-4.1211085826771656
0
LINE
8
BLACK
6
CONTINUOUS
10
5.587549881889764
20
-4.1211085826771656
11
5.587549881889764
21
-4.1180252755905506
0
LINE
8
BLACK
6
CONTINUOUS
10
5.587549881889764
20
-4.1180252755905506
11
5.5883478740157475
21
-4.1150470472440945
0
LINE
8
BLACK
6
CONTINUOUS
10
5.5883478740157475
20
-4.1150470472440945
11
5.5898895275590545
21
-4.1123768503937006
0
LINE
8
BLACK
6
CONTINUOUS
10
5.5898895275590545
20
-4.1123768503937006
11
5.5920697637795271
21
-4.110196614173228
0
LINE
8
BLACK
6
CONTINUOUS
10
5.5920697637795271
20
-4.110196614173228
11
5.5947399606299211
21
-4.108654960629921
0
LINE
8
BLACK
6
CONTINUOUS
10
5.5947399606299211
20
-4.108654960629921
11
5.5977181889763781
21
-4.1078569685039366
0
LINE
8
BLACK
6
CONTINUOUS
10
5.5977181889763781
20
-4.1078569685039366
11
5.5992598425196851
21
-4.1077559055118114
0
LINE
8
BLACK
6
CONTINUOUS
10
5.5992598425196851
20
-4.1077559055118114
11
5.6425669291338583
21
-4.1077559055118114
0
LINE
8
BLACK
6
CONTINUOUS
10
5.6425669291338583
20
-4.1077559055118114
11
5.6441085826771653
21
-4.1078569685039366
0
LINE
8
BLACK
6
CONTINUOUS
10
5.6441085826771653
20
-3.7676994881889763
11
5.6470868110236223
21
-3.7684974803149607
0
LINE
8
BLACK
6
CONTINUOUS
10
5.6470868110236223
20
-3.7684974803149607
11
5.6497570078740154
21
-3.7700391338582677
0
LINE
8
BLACK
6
CONTINUOUS
10
5.6497570078740154
20
-3.7700391338582677
11
5.6519372440944879
21
-3.7722193700787399
0
LINE
8
BLACK
6
CONTINUOUS
10
5.6519372440944879
20
-3.7722193700787399
11
5.653478897637795
21
-3.7748895669291338
0
LINE
8
BLACK
6
CONTINUOUS
10
5.653478897637795
20
-3.7748895669291338
11
5.6542768897637794
21
-3.7778677952755904
0
LINE
8
BLACK
6
CONTINUOUS
10
5.6542768897637794
20
-3.7778677952755904
11
5.6542768897637794
21
-3.7809511023622044
0
LINE
8
BLACK
6
CONTINUOUS
10
5.6542768897637794
20
-3.7809511023622044
11
5.653478897637795
21
-3.7839293307086614
0
LINE
8
BLACK
6
CONTINUOUS
10
5.653478897637795
20
-3.7839293307086614
11
5.6519372440944879
21
-3.7865995275590549
0
LINE
8
BLACK
6
CONTINUOUS
10
5.6519372440944879
20
-3.7865995275590549
11
5.6497570078740154
21
-3.7887797637795275
0
LINE
8
BLACK
6
CONTINUOUS
10
5.6497570078740154
20
-3.7887797637795275
11
5.6470868110236223
21
-3.7903214173228346
0
LINE
8
BLACK
6
CONTINUOUS
10
5.6470868110236223
20
-3.7903214173228346
11
5.6441085826771653
21
-3.791119409448819
0
LINE
8
BLACK
6
CONTINUOUS
10
5.6441085826771653
20
-3.791119409448819
11
5.6425669291338583
21
-3.7912204724409446
0
LINE
8
BLACK
6
CONTINUOUS
10
5.6425669291338583
20
-3.7912204724409446
11
5.5992598425196851
21
-3.7912204724409446
0
LINE
8
BLACK
6
CONTINUOUS
10
5.5992598425196851
20
-3.7912204724409446
11
5.5977181889763781
21
-3.791119409448819
0
LINE
8
BLACK
6
CONTINUOUS
10
5.5977181889763781
20
-3.791119409448819
11
5.5947399606299211
21
-3.7903214173228346
0
LINE
8
BLACK
6
CONTINUOUS
10
5.5947399606299211
20
-3.7903214173228346
11
5.5920697637795271
21
-3.7887797637795275
0
LINE
8
BLACK
6
CONTINUOUS
10
5.5920697637795271
20
-3.7887797637795275
11
5.5898895275590545
21
-3.7865995275590549
0
LINE
8
BLACK
6
CONTINUOUS
10
5.5898895275590545
20
-3.7865995275590549
11
5.5883478740157475
21
-3.7839293307086614
0
LINE
8
BLACK
6
CONTINUOUS
10
5.5883478740157475
20
-3.7839293307086614
11
5.587549881889764
21
-3.7809511023622044
0
LINE
8
BLACK
6
CONTINUOUS
10
5.587549881889764
20
-3.7809511023622044
11
5.587549881889764
21
-3.7778677952755904
0
LINE
8
BLACK
6
CONTINUOUS
10
5.587549881889764
20
-3.7778677952755904
11
5.5883478740157475
21
-3.7748895669291338
0
LINE
8
BLACK
6
CONTINUOUS
10
5.5883478740157475
20
-3.7748895669291338
11
5.5898895275590545
21
-3.7722193700787399
0
LINE
8
BLACK
6
CONTINUOUS
10
5.5898895275590545
20
-3.7722193700787399
11
5.5920697637795271
21
-3.7700391338582677
0
LINE
8
BLACK
6
CONTINUOUS
10
5.5920697637795271
20
-3.7700391338582677
11
5.5947399606299211
21
-3.7684974803149607
0
LINE
8
BLACK
6
CONTINUOUS
10
5.5947399606299211
20
-3.7684974803149607
11
5.5977181889763781
21
-3.7676994881889763
0
LINE
8
BLACK
6
CONTINUOUS
10
5.5977181889763781
20
-3.7676994881889763
11
5.5992598425196851
21
-3.7675984251968502
0
LINE
8
BLACK
6
CONTINUOUS
10
5.5992598425196851
20
-3.7675984251968502
11
5.6425669291338583
21
-3.7675984251968502
0
LINE
8
BLACK
6
CONTINUOUS
10
5.6425669291338583
20
-3.7675984251968502
11
5.6441085826771653
21
-3.7676994881889763
0
CIRCLE
8
WHITE
10
5.8304724409448818
20
-3.3589370078740157
40
0.0068897637795276
0
CIRCLE
8
WHITE
10
6.2241732283464568
20
-4.5400393700787403
40
0.0068897637795276
0
CIRCLE
8
WHITE
10
5.4367716535433068
20
-4.5400393700787403
40
0.0068897637795276
0
CIRCLE
8
WHITE
10
6.2241732283464568
20
-3.3589370078740157
40
0.0068897637795276
0
CIRCLE
8
WHITE
10
5.8304724409448818
20
-4.5400393700787403
40
0.0068897637795276
0
CIRCLE
8
WHITE
10
5.4367716535433068
20
-3.3589370078740157
40
0.0068897637795276
0
CIRCLE
8
WHITE
10
5.6012283464566925
20
-4.0632677165354334
40
0.0068897637795276
0
CIRCLE
8
WHITE
10
5.6012283464566925
20
-3.8357086614173226
40
0.0068897637795276
0
LINE
8
WHITE
6
CONTINUOUS
10
5.4405984251968507
20
-4.1313779527559058
11
5.4720944881889766
21
-4.1313779527559058
0
ARC
8
WHITE
10
5.4720944881889766
20
-4.1195669291338586
40
0.0118110236220472
50
-90.00000000
51
90.00000000
0
LINE
8
WHITE
6
CONTINUOUS
10
5.4720944881889766
20
-4.1077559055118114
11
5.4405984251968507
21
-4.1077559055118114
0
ARC
8
WHITE
10
5.4405984251968507
20
-4.1195669291338586
40
0.0118110236220472
50
90.00000000
51
270.00000000
0
LINE
8
WHITE
6
CONTINUOUS
10
5.4405984251968507
20
-3.7912204724409446
11
5.4720944881889766
21
-3.7912204724409446
0
ARC
8
WHITE
10
5.4720944881889766
20
-3.7794094488188974
40
0.0118110236220472
50
-90.00000000
51
90.00000000
0
LINE
8
WHITE
6
CONTINUOUS
10
5.4720944881889766
20
-3.7675984251968502
11
5.4405984251968507
21
-3.7675984251968502
0
ARC
8
WHITE
10
5.4405984251968507
20
-3.7794094488188974
40
0.0118110236220472
50
90.00000000
51
270.00000000
0
LINE
8
WHITE
6
CONTINUOUS
10
5.5992598425196851
20
-4.1313779527559058
11
5.6425669291338583
21
-4.1313779527559058
0
ARC
8
WHITE
10
5.6425669291338583
20
-4.1195669291338586
40
0.0118110236220472
50
-90.00000000
51
90.00000000
0
LINE
8
WHITE
6
CONTINUOUS
10
5.6425669291338583
20
-4.1077559055118114
11
5.5992598425196851
21
-4.1077559055118114
0
ARC
8
WHITE
10
5.5992598425196851
20
-4.1195669291338586
40
0.0118110236220472
50
90.00000000
51
270.00000000
0
LINE
8
WHITE
6
CONTINUOUS
10
5.5992598425196851
20
-3.7912204724409446
11
5.6425669291338583
21
-3.7912204724409446
0
ARC
8
WHITE
10
5.6425669291338583
20
-3.7794094488188974
40
0.0118110236220472
50
-90.00000000
51
90.00000000
0
LINE
8
WHITE
6
CONTINUOUS
10
5.6425669291338583
20
-3.7675984251968502
11
5.5992598425196851
21
-3.7675984251968502
0
ARC
8
WHITE
10
5.5992598425196851
20
-3.7794094488188974
40
0.0118110236220472
50
90.00000000
51
270.00000000
  0
ENDSEC
  0
EOF
