  0
SECTION
  2
HEADER
  9
$ANGBASE
  50
0.0
  9
$ANGDIR
  70
1
  9
$MEASUREMENT
  70
0
  0
ENDSEC
  0
SECTION
  2
TABLES
  0
TABLE
  2
LTYPE
  70
4
  0
LTYPE
  5
40F
  2
CONTINUOUS
  70
0
  3
Solid line
  72
65
  73
0
  40
0.0
  0
LTYPE
  5
410
  2
DASHDOT
 70
0
  3
Dash Dot ____ _ ____ _
 72
65
 73
4
 40
2.0
 49
1.25
 49
-0.25
 49
0.25
 49
-0.25
  0
LTYPE
  5
411
  2
DASHED
 70
0
  3
Dashed __ __ __ __ __
 72
65
 73
2
 40
0.75
 49
0.5
 49
-0.25
  0
LTYPE
  5
43B
  2
DOTTED
 70
0
  3
Dotted .  .  .  .
 72
65
 73
2
 40
0.2
 49
0.0
 49
-0.2
  0
ENDTAB
  0
TABLE
  2
STYLE
  70
4
  0
STYLE
  2
KICAD
  70
0
  40
0
  41
1
  42
1
  50
0
  71
0
  3
isocp.shx
  0
STYLE
  2
KICADB
  70
0
  40
0
  41
1
  42
1
  50
0
  71
0
  3
isocp.shx
  0
STYLE
  2
KICADI
  70
0
  40
0
  41
1
  42
1
  50
15
  71
0
  3
isocp.shx
  0
STYLE
  2
KICADBI
  70
0
  40
0
  41
1
  42
1
  50
15
  71
0
  3
isocp.shx
  0
ENDTAB
  0
TABLE
  2
LAYER
  70
1
  0
LAYER
  2
BLACK
  70
0
  62
7
  6
CONTINUOUS
  0
ENDTAB
  0
ENDSEC
  0
SECTION
  2
ENTITIES
0
LINE
8
BLACK
6
CONTINUOUS
10
5.9606286614173225
20
-4.1612084645669292
11
5.9681988582677166
21
-4.1635048425196848
0
LINE
8
BLACK
6
CONTINUOUS
10
5.9681988582677166
20
-4.1635048425196848
11
5.9751755511811027
21
-4.167234015748031
0
LINE
8
BLACK
6
CONTINUOUS
10
5.9751755511811027
20
-4.167234015748031
11
5.9812907086614171
21
-4.1722525984251968
0
LINE
8
BLACK
6
CONTINUOUS
10
5.9812907086614171
20
-4.1722525984251968
11
5.9863092913385829
21
-4.1783677559055121
0
LINE
8
BLACK
6
CONTINUOUS
10
5.9863092913385829
20
-4.1783677559055121
11
5.9900384645669291
21
-4.1853444488188973
0
LINE
8
BLACK
6
CONTINUOUS
10
5.9900384645669291
20
-4.1853444488188973
11
5.9923348425196847
21
-4.1929146456692914
0
LINE
8
BLACK
6
CONTINUOUS
10
5.9923348425196847
20
-4.1929146456692914
11
5.9931102362204722
21
-4.2007874015748028
0
LINE
8
BLACK
6
CONTINUOUS
10
5.9931102362204722
20
-4.2007874015748028
11
5.9923348425196847
21
-4.2086601574803151
0
LINE
8
BLACK
6
CONTINUOUS
10
5.9923348425196847
20
-4.2086601574803151
11
5.9900384645669291
21
-4.2162303543307083
0
LINE
8
BLACK
6
CONTINUOUS
10
5.9900384645669291
20
-4.2162303543307083
11
5.9863092913385829
21
-4.2232070472440943
0
LINE
8
BLACK
6
CONTINUOUS
10
5.9863092913385829
20
-4.2232070472440943
11
5.9812907086614171
21
-4.2293222047244097
0
LINE
8
BLACK
6
CONTINUOUS
10
5.9812907086614171
20
-4.2293222047244097
11
5.9751755511811027
21
-4.2343407874015746
0
LINE
8
BLACK
6
CONTINUOUS
10
5.9751755511811027
20
-4.2343407874015746
11
5.9681988582677166
21
-4.2380699606299208
0
LINE
8
BLACK
6
CONTINUOUS
10
5.9681988582677166
20
-4.2380699606299208
11
5.9606286614173225
21
-4.2403663385826773
0
LINE
8
BLACK
6
CONTINUOUS
10
5.9606286614173225
20
-4.2403663385826773
11
5.9527559055118111
21
-4.2411417322834648
0
LINE
8
BLACK
6
CONTINUOUS
10
5.9527559055118111
20
-4.2411417322834648
11
5.9448831496062988
21
-4.2403663385826773
0
LINE
8
BLACK
6
CONTINUOUS
10
5.9448831496062988
20
-4.2403663385826773
11
5.9373129527559056
21
-4.2380699606299208
0
LINE
8
BLACK
6
CONTINUOUS
10
5.9373129527559056
20
-4.2380699606299208
11
5.9303362598425196
21
-4.2343407874015746
0
LINE
8
BLACK
6
CONTINUOUS
10
5.9303362598425196
20
-4.2343407874015746
11
5.9242211023622042
21
-4.2293222047244097
0
LINE
8
BLACK
6
CONTINUOUS
10
5.9242211023622042
20
-4.2293222047244097
11
5.9192025196850393
21
-4.2232070472440943
0
LINE
8
BLACK
6
CONTINUOUS
10
5.9192025196850393
20
-4.2232070472440943
11
5.9154733464566931
21
-4.2162303543307083
0
LINE
8
BLACK
6
CONTINUOUS
10
5.9154733464566931
20
-4.2162303543307083
11
5.9131769685039366
21
-4.2086601574803151
0
LINE
8
BLACK
6
CONTINUOUS
10
5.9131769685039366
20
-4.2086601574803151
11
5.9124015748031491
21
-4.2007874015748028
0
LINE
8
BLACK
6
CONTINUOUS
10
5.9124015748031491
20
-4.2007874015748028
11
5.9131769685039366
21
-4.1929146456692914
0
LINE
8
BLACK
6
CONTINUOUS
10
5.9131769685039366
20
-4.1929146456692914
11
5.9154733464566931
21
-4.1853444488188973
0
LINE
8
BLACK
6
CONTINUOUS
10
5.9154733464566931
20
-4.1853444488188973
11
5.9192025196850393
21
-4.1783677559055121
0
LINE
8
BLACK
6
CONTINUOUS
10
5.9192025196850393
20
-4.1783677559055121
11
5.9242211023622042
21
-4.1722525984251968
0
LINE
8
BLACK
6
CONTINUOUS
10
5.9242211023622042
20
-4.1722525984251968
11
5.9303362598425196
21
-4.167234015748031
0
LINE
8
BLACK
6
CONTINUOUS
10
5.9303362598425196
20
-4.167234015748031
11
5.9373129527559056
21
-4.1635048425196848
0
LINE
8
BLACK
6
CONTINUOUS
10
5.9373129527559056
20
-4.1635048425196848
11
5.9448831496062988
21
-4.1612084645669292
0
LINE
8
BLACK
6
CONTINUOUS
10
5.9448831496062988
20
-4.1612084645669292
11
5.9527559055118111
21
-4.1604330708661417
0
LINE
8
BLACK
6
CONTINUOUS
10
5.9527559055118111
20
-4.1604330708661417
11
5.9606286614173225
21
-4.1612084645669292
0
LINE
8
BLACK
6
CONTINUOUS
10
5.9149254724409444
20
-4.2083123622047243
11
5.917120433070866
21
-4.2155481102362202
0
LINE
8
BLACK
6
CONTINUOUS
10
5.917120433070866
20
-4.2155481102362202
11
5.920684803149606
21
-4.2222166141732282
0
LINE
8
BLACK
6
CONTINUOUS
10
5.920684803149606
20
-4.2222166141732282
11
5.9254816929133858
21
-4.2280616141732281
0
LINE
8
BLACK
6
CONTINUOUS
10
5.9254816929133858
20
-4.2280616141732281
11
5.9313266929133857
21
-4.2328585039370079
0
LINE
8
BLACK
6
CONTINUOUS
10
5.9313266929133857
20
-4.2328585039370079
11
5.9379951968503937
21
-4.2364228740157479
0
LINE
8
BLACK
6
CONTINUOUS
10
5.9379951968503937
20
-4.2364228740157479
11
5.9452309448818896
21
-4.2386178346456695
0
LINE
8
BLACK
6
CONTINUOUS
10
5.9452309448818896
20
-4.2386178346456695
11
5.9527559055118111
21
-4.2393589763779529
0
LINE
8
BLACK
6
CONTINUOUS
10
5.9527559055118111
20
-4.2393589763779529
11
5.9602808661417326
21
-4.2386178346456695
0
LINE
8
BLACK
6
CONTINUOUS
10
5.9602808661417326
20
-4.2386178346456695
11
5.9675166141732285
21
-4.2364228740157479
0
LINE
8
BLACK
6
CONTINUOUS
10
5.9675166141732285
20
-4.2364228740157479
11
5.9741851181102357
21
-4.2328585039370079
0
LINE
8
BLACK
6
CONTINUOUS
10
5.9741851181102357
20
-4.2328585039370079
11
5.9800301181102364
21
-4.2280616141732281
0
LINE
8
BLACK
6
CONTINUOUS
10
5.9800301181102364
20
-4.2280616141732281
11
5.9848270078740153
21
-4.2222166141732282
0
LINE
8
BLACK
6
CONTINUOUS
10
5.9848270078740153
20
-4.2222166141732282
11
5.9883913779527553
21
-4.2155481102362202
0
LINE
8
BLACK
6
CONTINUOUS
10
5.9883913779527553
20
-4.2155481102362202
11
5.990586338582677
21
-4.2083123622047243
0
LINE
8
BLACK
6
CONTINUOUS
10
5.990586338582677
20
-4.2083123622047243
11
5.9913274803149603
21
-4.2007874015748028
0
LINE
8
BLACK
6
CONTINUOUS
10
5.9913274803149603
20
-4.2007874015748028
11
5.990586338582677
21
-4.1932624409448822
0
LINE
8
BLACK
6
CONTINUOUS
10
5.990586338582677
20
-4.1932624409448822
11
5.9883913779527553
21
-4.1860266929133854
0
LINE
8
BLACK
6
CONTINUOUS
10
5.9883913779527553
20
-4.1860266929133854
11
5.9848270078740153
21
-4.1793581889763782
0
LINE
8
BLACK
6
CONTINUOUS
10
5.9848270078740153
20
-4.1793581889763782
11
5.9800301181102364
21
-4.1735131889763775
0
LINE
8
BLACK
6
CONTINUOUS
10
5.9800301181102364
20
-4.1735131889763775
11
5.9741851181102357
21
-4.1687162992125986
0
LINE
8
BLACK
6
CONTINUOUS
10
5.9741851181102357
20
-4.1687162992125986
11
5.9675166141732285
21
-4.1651519291338586
0
LINE
8
BLACK
6
CONTINUOUS
10
5.9675166141732285
20
-4.1651519291338586
11
5.9602808661417326
21
-4.1629569685039369
0
LINE
8
BLACK
6
CONTINUOUS
10
5.9602808661417326
20
-4.1629569685039369
11
5.9527559055118111
21
-4.1622158267716536
0
LINE
8
BLACK
6
CONTINUOUS
10
5.9527559055118111
20
-4.1622158267716536
11
5.9452309448818896
21
-4.1629569685039369
0
LINE
8
BLACK
6
CONTINUOUS
10
5.9452309448818896
20
-4.1629569685039369
11
5.9379951968503937
21
-4.1651519291338586
0
LINE
8
BLACK
6
CONTINUOUS
10
5.9379951968503937
20
-4.1651519291338586
11
5.9313266929133857
21
-4.1687162992125986
0
LINE
8
BLACK
6
CONTINUOUS
10
5.9313266929133857
20
-4.1687162992125986
11
5.9254816929133858
21
-4.1735131889763775
0
LINE
8
BLACK
6
CONTINUOUS
10
5.9254816929133858
20
-4.1735131889763775
11
5.920684803149606
21
-4.1793581889763782
0
LINE
8
BLACK
6
CONTINUOUS
10
5.920684803149606
20
-4.1793581889763782
11
5.917120433070866
21
-4.1860266929133854
0
LINE
8
BLACK
6
CONTINUOUS
10
5.917120433070866
20
-4.1860266929133854
11
5.9149254724409444
21
-4.1932624409448822
0
LINE
8
BLACK
6
CONTINUOUS
10
5.9149254724409444
20
-4.1932624409448822
11
5.914184330708661
21
-4.2007874015748028
0
LINE
8
BLACK
6
CONTINUOUS
10
5.914184330708661
20
-4.2007874015748028
11
5.9149254724409444
21
-4.2083123622047243
0
LINE
8
BLACK
6
CONTINUOUS
10
6.0551168503937003
20
-4.1612084645669292
11
6.0626870472440944
21
-4.1635048425196848
0
LINE
8
BLACK
6
CONTINUOUS
10
6.0626870472440944
20
-4.1635048425196848
11
6.0696637401574804
21
-4.167234015748031
0
LINE
8
BLACK
6
CONTINUOUS
10
6.0696637401574804
20
-4.167234015748031
11
6.0757788976377949
21
-4.1722525984251968
0
LINE
8
BLACK
6
CONTINUOUS
10
6.0757788976377949
20
-4.1722525984251968
11
6.0807974803149607
21
-4.1783677559055121
0
LINE
8
BLACK
6
CONTINUOUS
10
6.0807974803149607
20
-4.1783677559055121
11
6.0845266535433069
21
-4.1853444488188973
0
LINE
8
BLACK
6
CONTINUOUS
10
6.0845266535433069
20
-4.1853444488188973
11
6.0868230314960625
21
-4.1929146456692914
0
LINE
8
BLACK
6
CONTINUOUS
10
6.0868230314960625
20
-4.1929146456692914
11
6.08759842519685
21
-4.2007874015748028
0
LINE
8
BLACK
6
CONTINUOUS
10
6.08759842519685
20
-4.2007874015748028
11
6.0868230314960625
21
-4.2086601574803151
0
LINE
8
BLACK
6
CONTINUOUS
10
6.0868230314960625
20
-4.2086601574803151
11
6.0845266535433069
21
-4.2162303543307083
0
LINE
8
BLACK
6
CONTINUOUS
10
6.0845266535433069
20
-4.2162303543307083
11
6.0807974803149607
21
-4.2232070472440943
0
LINE
8
BLACK
6
CONTINUOUS
10
6.0807974803149607
20
-4.2232070472440943
11
6.0757788976377949
21
-4.2293222047244097
0
LINE
8
BLACK
6
CONTINUOUS
10
6.0757788976377949
20
-4.2293222047244097
11
6.0696637401574804
21
-4.2343407874015746
0
LINE
8
BLACK
6
CONTINUOUS
10
6.0696637401574804
20
-4.2343407874015746
11
6.0626870472440944
21
-4.2380699606299208
0
LINE
8
BLACK
6
CONTINUOUS
10
6.0626870472440944
20
-4.2380699606299208
11
6.0551168503937003
21
-4.2403663385826773
0
LINE
8
BLACK
6
CONTINUOUS
10
6.0551168503937003
20
-4.2403663385826773
11
6.0472440944881889
21
-4.2411417322834648
0
LINE
8
BLACK
6
CONTINUOUS
10
6.0472440944881889
20
-4.2411417322834648
11
6.0393713385826766
21
-4.2403663385826773
0
LINE
8
BLACK
6
CONTINUOUS
10
6.0393713385826766
20
-4.2403663385826773
11
6.0318011417322834
21
-4.2380699606299208
0
LINE
8
BLACK
6
CONTINUOUS
10
6.0318011417322834
20
-4.2380699606299208
11
6.0248244488188973
21
-4.2343407874015746
0
LINE
8
BLACK
6
CONTINUOUS
10
6.0248244488188973
20
-4.2343407874015746
11
6.0187092913385829
21
-4.2293222047244097
0
LINE
8
BLACK
6
CONTINUOUS
10
6.0187092913385829
20
-4.2293222047244097
11
6.0136907086614171
21
-4.2232070472440943
0
LINE
8
BLACK
6
CONTINUOUS
10
6.0136907086614171
20
-4.2232070472440943
11
6.0099615354330709
21
-4.2162303543307083
0
LINE
8
BLACK
6
CONTINUOUS
10
6.0099615354330709
20
-4.2162303543307083
11
6.0076651574803153
21
-4.2086601574803151
0
LINE
8
BLACK
6
CONTINUOUS
10
6.0076651574803153
20
-4.2086601574803151
11
6.0068897637795278
21
-4.2007874015748028
0
LINE
8
BLACK
6
CONTINUOUS
10
6.0068897637795278
20
-4.2007874015748028
11
6.0076651574803153
21
-4.1929146456692914
0
LINE
8
BLACK
6
CONTINUOUS
10
6.0076651574803153
20
-4.1929146456692914
11
6.0099615354330709
21
-4.1853444488188973
0
LINE
8
BLACK
6
CONTINUOUS
10
6.0099615354330709
20
-4.1853444488188973
11
6.0136907086614171
21
-4.1783677559055121
0
LINE
8
BLACK
6
CONTINUOUS
10
6.0136907086614171
20
-4.1783677559055121
11
6.0187092913385829
21
-4.1722525984251968
0
LINE
8
BLACK
6
CONTINUOUS
10
6.0187092913385829
20
-4.1722525984251968
11
6.0248244488188973
21
-4.167234015748031
0
LINE
8
BLACK
6
CONTINUOUS
10
6.0248244488188973
20
-4.167234015748031
11
6.0318011417322834
21
-4.1635048425196848
0
LINE
8
BLACK
6
CONTINUOUS
10
6.0318011417322834
20
-4.1635048425196848
11
6.0393713385826766
21
-4.1612084645669292
0
LINE
8
BLACK
6
CONTINUOUS
10
6.0393713385826766
20
-4.1612084645669292
11
6.0472440944881889
21
-4.1604330708661417
0
LINE
8
BLACK
6
CONTINUOUS
10
6.0472440944881889
20
-4.1604330708661417
11
6.0551168503937003
21
-4.1612084645669292
0
LINE
8
BLACK
6
CONTINUOUS
10
6.009413661417323
20
-4.2083123622047243
11
6.0116086220472438
21
-4.2155481102362202
0
LINE
8
BLACK
6
CONTINUOUS
10
6.0116086220472438
20
-4.2155481102362202
11
6.0151729921259838
21
-4.2222166141732282
0
LINE
8
BLACK
6
CONTINUOUS
10
6.0151729921259838
20
-4.2222166141732282
11
6.0199698818897636
21
-4.2280616141732281
0
LINE
8
BLACK
6
CONTINUOUS
10
6.0199698818897636
20
-4.2280616141732281
11
6.0258148818897634
21
-4.2328585039370079
0
LINE
8
BLACK
6
CONTINUOUS
10
6.0258148818897634
20
-4.2328585039370079
11
6.0324833858267715
21
-4.2364228740157479
0
LINE
8
BLACK
6
CONTINUOUS
10
6.0324833858267715
20
-4.2364228740157479
11
6.0397191338582674
21
-4.2386178346456695
0
LINE
8
BLACK
6
CONTINUOUS
10
6.0397191338582674
20
-4.2386178346456695
11
6.0472440944881889
21
-4.2393589763779529
0
LINE
8
BLACK
6
CONTINUOUS
10
6.0472440944881889
20
-4.2393589763779529
11
6.0547690551181104
21
-4.2386178346456695
0
LINE
8
BLACK
6
CONTINUOUS
10
6.0547690551181104
20
-4.2386178346456695
11
6.0620048031496063
21
-4.2364228740157479
0
LINE
8
BLACK
6
CONTINUOUS
10
6.0620048031496063
20
-4.2364228740157479
11
6.0686733070866143
21
-4.2328585039370079
0
LINE
8
BLACK
6
CONTINUOUS
10
6.0686733070866143
20
-4.2328585039370079
11
6.0745183070866142
21
-4.2280616141732281
0
LINE
8
BLACK
6
CONTINUOUS
10
6.0745183070866142
20
-4.2280616141732281
11
6.0793151968503931
21
-4.2222166141732282
0
LINE
8
BLACK
6
CONTINUOUS
10
6.0793151968503931
20
-4.2222166141732282
11
6.082879566929134
21
-4.2155481102362202
0
LINE
8
BLACK
6
CONTINUOUS
10
6.082879566929134
20
-4.2155481102362202
11
6.0850745275590548
21
-4.2083123622047243
0
LINE
8
BLACK
6
CONTINUOUS
10
6.0850745275590548
20
-4.2083123622047243
11
6.0858156692913381
21
-4.2007874015748028
0
LINE
8
BLACK
6
CONTINUOUS
10
6.0858156692913381
20
-4.2007874015748028
11
6.0850745275590548
21
-4.1932624409448822
0
LINE
8
BLACK
6
CONTINUOUS
10
6.0850745275590548
20
-4.1932624409448822
11
6.082879566929134
21
-4.1860266929133854
0
LINE
8
BLACK
6
CONTINUOUS
10
6.082879566929134
20
-4.1860266929133854
11
6.0793151968503931
21
-4.1793581889763782
0
LINE
8
BLACK
6
CONTINUOUS
10
6.0793151968503931
20
-4.1793581889763782
11
6.0745183070866142
21
-4.1735131889763775
0
LINE
8
BLACK
6
CONTINUOUS
10
6.0745183070866142
20
-4.1735131889763775
11
6.0686733070866143
21
-4.1687162992125986
0
LINE
8
BLACK
6
CONTINUOUS
10
6.0686733070866143
20
-4.1687162992125986
11
6.0620048031496063
21
-4.1651519291338586
0
LINE
8
BLACK
6
CONTINUOUS
10
6.0620048031496063
20
-4.1651519291338586
11
6.0547690551181104
21
-4.1629569685039369
0
LINE
8
BLACK
6
CONTINUOUS
10
6.0547690551181104
20
-4.1629569685039369
11
6.0472440944881889
21
-4.1622158267716536
0
LINE
8
BLACK
6
CONTINUOUS
10
6.0472440944881889
20
-4.1622158267716536
11
6.0397191338582674
21
-4.1629569685039369
0
LINE
8
BLACK
6
CONTINUOUS
10
6.0397191338582674
20
-4.1629569685039369
11
6.0324833858267715
21
-4.1651519291338586
0
LINE
8
BLACK
6
CONTINUOUS
10
6.0324833858267715
20
-4.1651519291338586
11
6.0258148818897634
21
-4.1687162992125986
0
LINE
8
BLACK
6
CONTINUOUS
10
6.0258148818897634
20
-4.1687162992125986
11
6.0199698818897636
21
-4.1735131889763775
0
LINE
8
BLACK
6
CONTINUOUS
10
6.0199698818897636
20
-4.1735131889763775
11
6.0151729921259838
21
-4.1793581889763782
0
LINE
8
BLACK
6
CONTINUOUS
10
6.0151729921259838
20
-4.1793581889763782
11
6.0116086220472438
21
-4.1860266929133854
0
LINE
8
BLACK
6
CONTINUOUS
10
6.0116086220472438
20
-4.1860266929133854
11
6.009413661417323
21
-4.1932624409448822
0
LINE
8
BLACK
6
CONTINUOUS
10
6.009413661417323
20
-4.1932624409448822
11
6.0086725196850388
21
-4.2007874015748028
0
LINE
8
BLACK
6
CONTINUOUS
10
6.0086725196850388
20
-4.2007874015748028
11
6.009413661417323
21
-4.2083123622047243
0
LINE
8
BLACK
6
CONTINUOUS
10
5.9606286614173225
20
-4.0785312992125986
11
5.9681988582677166
21
-4.0808276771653542
0
LINE
8
BLACK
6
CONTINUOUS
10
5.9681988582677166
20
-4.0808276771653542
11
5.9751755511811027
21
-4.0845568503937004
0
LINE
8
BLACK
6
CONTINUOUS
10
5.9751755511811027
20
-4.0845568503937004
11
5.9812907086614171
21
-4.0895754330708662
0
LINE
8
BLACK
6
CONTINUOUS
10
5.9812907086614171
20
-4.0895754330708662
11
5.9863092913385829
21
-4.0956905905511807
0
LINE
8
BLACK
6
CONTINUOUS
10
5.9863092913385829
20
-4.0956905905511807
11
5.9900384645669291
21
-4.1026672834645668
0
LINE
8
BLACK
6
CONTINUOUS
10
5.9900384645669291
20
-4.1026672834645668
11
5.9923348425196847
21
-4.1102374803149608
0
LINE
8
BLACK
6
CONTINUOUS
10
5.9923348425196847
20
-4.1102374803149608
11
5.9931102362204722
21
-4.1181102362204722
0
LINE
8
BLACK
6
CONTINUOUS
10
5.9931102362204722
20
-4.1181102362204722
11
5.9923348425196847
21
-4.1259829921259845
0
LINE
8
BLACK
6
CONTINUOUS
10
5.9923348425196847
20
-4.1259829921259845
11
5.9900384645669291
21
-4.1335531889763777
0
LINE
8
BLACK
6
CONTINUOUS
10
5.9900384645669291
20
-4.1335531889763777
11
5.9863092913385829
21
-4.1405298818897638
0
LINE
8
BLACK
6
CONTINUOUS
10
5.9863092913385829
20
-4.1405298818897638
11
5.9812907086614171
21
-4.1466450393700782
0
LINE
8
BLACK
6
CONTINUOUS
10
5.9812907086614171
20
-4.1466450393700782
11
5.9751755511811027
21
-4.151663622047244
0
LINE
8
BLACK
6
CONTINUOUS
10
5.9751755511811027
20
-4.151663622047244
11
5.9681988582677166
21
-4.1553927952755902
0
LINE
8
BLACK
6
CONTINUOUS
10
5.9681988582677166
20
-4.1553927952755902
11
5.9606286614173225
21
-4.1576891732283467
0
LINE
8
BLACK
6
CONTINUOUS
10
5.9606286614173225
20
-4.1576891732283467
11
5.9527559055118111
21
-4.1584645669291334
0
LINE
8
BLACK
6
CONTINUOUS
10
5.9527559055118111
20
-4.1584645669291334
11
5.9448831496062988
21
-4.1576891732283467
0
LINE
8
BLACK
6
CONTINUOUS
10
5.9448831496062988
20
-4.1576891732283467
11
5.9373129527559056
21
-4.1553927952755902
0
LINE
8
BLACK
6
CONTINUOUS
10
5.9373129527559056
20
-4.1553927952755902
11
5.9303362598425196
21
-4.151663622047244
0
LINE
8
BLACK
6
CONTINUOUS
10
5.9303362598425196
20
-4.151663622047244
11
5.9242211023622042
21
-4.1466450393700782
0
LINE
8
BLACK
6
CONTINUOUS
10
5.9242211023622042
20
-4.1466450393700782
11
5.9192025196850393
21
-4.1405298818897638
0
LINE
8
BLACK
6
CONTINUOUS
10
5.9192025196850393
20
-4.1405298818897638
11
5.9154733464566931
21
-4.1335531889763777
0
LINE
8
BLACK
6
CONTINUOUS
10
5.9154733464566931
20
-4.1335531889763777
11
5.9131769685039366
21
-4.1259829921259845
0
LINE
8
BLACK
6
CONTINUOUS
10
5.9131769685039366
20
-4.1259829921259845
11
5.9124015748031491
21
-4.1181102362204722
0
LINE
8
BLACK
6
CONTINUOUS
10
5.9124015748031491
20
-4.1181102362204722
11
5.9131769685039366
21
-4.1102374803149608
0
LINE
8
BLACK
6
CONTINUOUS
10
5.9131769685039366
20
-4.1102374803149608
11
5.9154733464566931
21
-4.1026672834645668
0
LINE
8
BLACK
6
CONTINUOUS
10
5.9154733464566931
20
-4.1026672834645668
11
5.9192025196850393
21
-4.0956905905511807
0
LINE
8
BLACK
6
CONTINUOUS
10
5.9192025196850393
20
-4.0956905905511807
11
5.9242211023622042
21
-4.0895754330708662
0
LINE
8
BLACK
6
CONTINUOUS
10
5.9242211023622042
20
-4.0895754330708662
11
5.9303362598425196
21
-4.0845568503937004
0
LINE
8
BLACK
6
CONTINUOUS
10
5.9303362598425196
20
-4.0845568503937004
11
5.9373129527559056
21
-4.0808276771653542
0
LINE
8
BLACK
6
CONTINUOUS
10
5.9373129527559056
20
-4.0808276771653542
11
5.9448831496062988
21
-4.0785312992125986
0
LINE
8
BLACK
6
CONTINUOUS
10
5.9448831496062988
20
-4.0785312992125986
11
5.9527559055118111
21
-4.0777559055118111
0
LINE
8
BLACK
6
CONTINUOUS
10
5.9527559055118111
20
-4.0777559055118111
11
5.9606286614173225
21
-4.0785312992125986
0
LINE
8
BLACK
6
CONTINUOUS
10
5.9149254724409444
20
-4.1256351968503937
11
5.917120433070866
21
-4.1328709448818897
0
LINE
8
BLACK
6
CONTINUOUS
10
5.917120433070866
20
-4.1328709448818897
11
5.920684803149606
21
-4.1395394488188977
0
LINE
8
BLACK
6
CONTINUOUS
10
5.920684803149606
20
-4.1395394488188977
11
5.9254816929133858
21
-4.1453844488188976
0
LINE
8
BLACK
6
CONTINUOUS
10
5.9254816929133858
20
-4.1453844488188976
11
5.9313266929133857
21
-4.1501813385826773
0
LINE
8
BLACK
6
CONTINUOUS
10
5.9313266929133857
20
-4.1501813385826773
11
5.9379951968503937
21
-4.1537457086614173
0
LINE
8
BLACK
6
CONTINUOUS
10
5.9379951968503937
20
-4.1537457086614173
11
5.9452309448818896
21
-4.1559406692913381
0
LINE
8
BLACK
6
CONTINUOUS
10
5.9452309448818896
20
-4.1559406692913381
11
5.9527559055118111
21
-4.1566818110236223
0
LINE
8
BLACK
6
CONTINUOUS
10
5.9527559055118111
20
-4.1566818110236223
11
5.9602808661417326
21
-4.1559406692913381
0
LINE
8
BLACK
6
CONTINUOUS
10
5.9602808661417326
20
-4.1559406692913381
11
5.9675166141732285
21
-4.1537457086614173
0
LINE
8
BLACK
6
CONTINUOUS
10
5.9675166141732285
20
-4.1537457086614173
11
5.9741851181102357
21
-4.1501813385826773
0
LINE
8
BLACK
6
CONTINUOUS
10
5.9741851181102357
20
-4.1501813385826773
11
5.9800301181102364
21
-4.1453844488188976
0
LINE
8
BLACK
6
CONTINUOUS
10
5.9800301181102364
20
-4.1453844488188976
11
5.9848270078740153
21
-4.1395394488188977
0
LINE
8
BLACK
6
CONTINUOUS
10
5.9848270078740153
20
-4.1395394488188977
11
5.9883913779527553
21
-4.1328709448818897
0
LINE
8
BLACK
6
CONTINUOUS
10
5.9883913779527553
20
-4.1328709448818897
11
5.990586338582677
21
-4.1256351968503937
0
LINE
8
BLACK
6
CONTINUOUS
10
5.990586338582677
20
-4.1256351968503937
11
5.9913274803149603
21
-4.1181102362204722
0
LINE
8
BLACK
6
CONTINUOUS
10
5.9913274803149603
20
-4.1181102362204722
11
5.990586338582677
21
-4.1105852755905508
0
LINE
8
BLACK
6
CONTINUOUS
10
5.990586338582677
20
-4.1105852755905508
11
5.9883913779527553
21
-4.1033495275590548
0
LINE
8
BLACK
6
CONTINUOUS
10
5.9883913779527553
20
-4.1033495275590548
11
5.9848270078740153
21
-4.0966810236220468
0
LINE
8
BLACK
6
CONTINUOUS
10
5.9848270078740153
20
-4.0966810236220468
11
5.9800301181102364
21
-4.0908360236220469
0
LINE
8
BLACK
6
CONTINUOUS
10
5.9800301181102364
20
-4.0908360236220469
11
5.9741851181102357
21
-4.086039133858268
0
LINE
8
BLACK
6
CONTINUOUS
10
5.9741851181102357
20
-4.086039133858268
11
5.9675166141732285
21
-4.0824747637795271
0
LINE
8
BLACK
6
CONTINUOUS
10
5.9675166141732285
20
-4.0824747637795271
11
5.9602808661417326
21
-4.0802798031496064
0
LINE
8
BLACK
6
CONTINUOUS
10
5.9602808661417326
20
-4.0802798031496064
11
5.9527559055118111
21
-4.079538661417323
0
LINE
8
BLACK
6
CONTINUOUS
10
5.9527559055118111
20
-4.079538661417323
11
5.9452309448818896
21
-4.0802798031496064
0
LINE
8
BLACK
6
CONTINUOUS
10
5.9452309448818896
20
-4.0802798031496064
11
5.9379951968503937
21
-4.0824747637795271
0
LINE
8
BLACK
6
CONTINUOUS
10
5.9379951968503937
20
-4.0824747637795271
11
5.9313266929133857
21
-4.086039133858268
0
LINE
8
BLACK
6
CONTINUOUS
10
5.9313266929133857
20
-4.086039133858268
11
5.9254816929133858
21
-4.0908360236220469
0
LINE
8
BLACK
6
CONTINUOUS
10
5.9254816929133858
20
-4.0908360236220469
11
5.920684803149606
21
-4.0966810236220468
0
LINE
8
BLACK
6
CONTINUOUS
10
5.920684803149606
20
-4.0966810236220468
11
5.917120433070866
21
-4.1033495275590548
0
LINE
8
BLACK
6
CONTINUOUS
10
5.917120433070866
20
-4.1033495275590548
11
5.9149254724409444
21
-4.1105852755905508
0
LINE
8
BLACK
6
CONTINUOUS
10
5.9149254724409444
20
-4.1105852755905508
11
5.914184330708661
21
-4.1181102362204722
0
LINE
8
BLACK
6
CONTINUOUS
10
5.914184330708661
20
-4.1181102362204722
11
5.9149254724409444
21
-4.1256351968503937
0
LINE
8
BLACK
6
CONTINUOUS
10
6.0551168503937003
20
-4.0785312992125986
11
6.0626870472440944
21
-4.0808276771653542
0
LINE
8
BLACK
6
CONTINUOUS
10
6.0626870472440944
20
-4.0808276771653542
11
6.0696637401574804
21
-4.0845568503937004
0
LINE
8
BLACK
6
CONTINUOUS
10
6.0696637401574804
20
-4.0845568503937004
11
6.0757788976377949
21
-4.0895754330708662
0
LINE
8
BLACK
6
CONTINUOUS
10
6.0757788976377949
20
-4.0895754330708662
11
6.0807974803149607
21
-4.0956905905511807
0
LINE
8
BLACK
6
CONTINUOUS
10
6.0807974803149607
20
-4.0956905905511807
11
6.0845266535433069
21
-4.1026672834645668
0
LINE
8
BLACK
6
CONTINUOUS
10
6.0845266535433069
20
-4.1026672834645668
11
6.0868230314960625
21
-4.1102374803149608
0
LINE
8
BLACK
6
CONTINUOUS
10
6.0868230314960625
20
-4.1102374803149608
11
6.08759842519685
21
-4.1181102362204722
0
LINE
8
BLACK
6
CONTINUOUS
10
6.08759842519685
20
-4.1181102362204722
11
6.0868230314960625
21
-4.1259829921259845
0
LINE
8
BLACK
6
CONTINUOUS
10
6.0868230314960625
20
-4.1259829921259845
11
6.0845266535433069
21
-4.1335531889763777
0
LINE
8
BLACK
6
CONTINUOUS
10
6.0845266535433069
20
-4.1335531889763777
11
6.0807974803149607
21
-4.1405298818897638
0
LINE
8
BLACK
6
CONTINUOUS
10
6.0807974803149607
20
-4.1405298818897638
11
6.0757788976377949
21
-4.1466450393700782
0
LINE
8
BLACK
6
CONTINUOUS
10
6.0757788976377949
20
-4.1466450393700782
11
6.0696637401574804
21
-4.151663622047244
0
LINE
8
BLACK
6
CONTINUOUS
10
6.0696637401574804
20
-4.151663622047244
11
6.0626870472440944
21
-4.1553927952755902
0
LINE
8
BLACK
6
CONTINUOUS
10
6.0626870472440944
20
-4.1553927952755902
11
6.0551168503937003
21
-4.1576891732283467
0
LINE
8
BLACK
6
CONTINUOUS
10
6.0551168503937003
20
-4.1576891732283467
11
6.0472440944881889
21
-4.1584645669291334
0
LINE
8
BLACK
6
CONTINUOUS
10
6.0472440944881889
20
-4.1584645669291334
11
6.0393713385826766
21
-4.1576891732283467
0
LINE
8
BLACK
6
CONTINUOUS
10
6.0393713385826766
20
-4.1576891732283467
11
6.0318011417322834
21
-4.1553927952755902
0
LINE
8
BLACK
6
CONTINUOUS
10
6.0318011417322834
20
-4.1553927952755902
11
6.0248244488188973
21
-4.151663622047244
0
LINE
8
BLACK
6
CONTINUOUS
10
6.0248244488188973
20
-4.151663622047244
11
6.0187092913385829
21
-4.1466450393700782
0
LINE
8
BLACK
6
CONTINUOUS
10
6.0187092913385829
20
-4.1466450393700782
11
6.0136907086614171
21
-4.1405298818897638
0
LINE
8
BLACK
6
CONTINUOUS
10
6.0136907086614171
20
-4.1405298818897638
11
6.0099615354330709
21
-4.1335531889763777
0
LINE
8
BLACK
6
CONTINUOUS
10
6.0099615354330709
20
-4.1335531889763777
11
6.0076651574803153
21
-4.1259829921259845
0
LINE
8
BLACK
6
CONTINUOUS
10
6.0076651574803153
20
-4.1259829921259845
11
6.0068897637795278
21
-4.1181102362204722
0
LINE
8
BLACK
6
CONTINUOUS
10
6.0068897637795278
20
-4.1181102362204722
11
6.0076651574803153
21
-4.1102374803149608
0
LINE
8
BLACK
6
CONTINUOUS
10
6.0076651574803153
20
-4.1102374803149608
11
6.0099615354330709
21
-4.1026672834645668
0
LINE
8
BLACK
6
CONTINUOUS
10
6.0099615354330709
20
-4.1026672834645668
11
6.0136907086614171
21
-4.0956905905511807
0
LINE
8
BLACK
6
CONTINUOUS
10
6.0136907086614171
20
-4.0956905905511807
11
6.0187092913385829
21
-4.0895754330708662
0
LINE
8
BLACK
6
CONTINUOUS
10
6.0187092913385829
20
-4.0895754330708662
11
6.0248244488188973
21
-4.0845568503937004
0
LINE
8
BLACK
6
CONTINUOUS
10
6.0248244488188973
20
-4.0845568503937004
11
6.0318011417322834
21
-4.0808276771653542
0
LINE
8
BLACK
6
CONTINUOUS
10
6.0318011417322834
20
-4.0808276771653542
11
6.0393713385826766
21
-4.0785312992125986
0
LINE
8
BLACK
6
CONTINUOUS
10
6.0393713385826766
20
-4.0785312992125986
11
6.0472440944881889
21
-4.0777559055118111
0
LINE
8
BLACK
6
CONTINUOUS
10
6.0472440944881889
20
-4.0777559055118111
11
6.0551168503937003
21
-4.0785312992125986
0
LINE
8
BLACK
6
CONTINUOUS
10
6.009413661417323
20
-4.1256351968503937
11
6.0116086220472438
21
-4.1328709448818897
0
LINE
8
BLACK
6
CONTINUOUS
10
6.0116086220472438
20
-4.1328709448818897
11
6.0151729921259838
21
-4.1395394488188977
0
LINE
8
BLACK
6
CONTINUOUS
10
6.0151729921259838
20
-4.1395394488188977
11
6.0199698818897636
21
-4.1453844488188976
0
LINE
8
BLACK
6
CONTINUOUS
10
6.0199698818897636
20
-4.1453844488188976
11
6.0258148818897634
21
-4.1501813385826773
0
LINE
8
BLACK
6
CONTINUOUS
10
6.0258148818897634
20
-4.1501813385826773
11
6.0324833858267715
21
-4.1537457086614173
0
LINE
8
BLACK
6
CONTINUOUS
10
6.0324833858267715
20
-4.1537457086614173
11
6.0397191338582674
21
-4.1559406692913381
0
LINE
8
BLACK
6
CONTINUOUS
10
6.0397191338582674
20
-4.1559406692913381
11
6.0472440944881889
21
-4.1566818110236223
0
LINE
8
BLACK
6
CONTINUOUS
10
6.0472440944881889
20
-4.1566818110236223
11
6.0547690551181104
21
-4.1559406692913381
0
LINE
8
BLACK
6
CONTINUOUS
10
6.0547690551181104
20
-4.1559406692913381
11
6.0620048031496063
21
-4.1537457086614173
0
LINE
8
BLACK
6
CONTINUOUS
10
6.0620048031496063
20
-4.1537457086614173
11
6.0686733070866143
21
-4.1501813385826773
0
LINE
8
BLACK
6
CONTINUOUS
10
6.0686733070866143
20
-4.1501813385826773
11
6.0745183070866142
21
-4.1453844488188976
0
LINE
8
BLACK
6
CONTINUOUS
10
6.0745183070866142
20
-4.1453844488188976
11
6.0793151968503931
21
-4.1395394488188977
0
LINE
8
BLACK
6
CONTINUOUS
10
6.0793151968503931
20
-4.1395394488188977
11
6.082879566929134
21
-4.1328709448818897
0
LINE
8
BLACK
6
CONTINUOUS
10
6.082879566929134
20
-4.1328709448818897
11
6.0850745275590548
21
-4.1256351968503937
0
LINE
8
BLACK
6
CONTINUOUS
10
6.0850745275590548
20
-4.1256351968503937
11
6.0858156692913381
21
-4.1181102362204722
0
LINE
8
BLACK
6
CONTINUOUS
10
6.0858156692913381
20
-4.1181102362204722
11
6.0850745275590548
21
-4.1105852755905508
0
LINE
8
BLACK
6
CONTINUOUS
10
6.0850745275590548
20
-4.1105852755905508
11
6.082879566929134
21
-4.1033495275590548
0
LINE
8
BLACK
6
CONTINUOUS
10
6.082879566929134
20
-4.1033495275590548
11
6.0793151968503931
21
-4.0966810236220468
0
LINE
8
BLACK
6
CONTINUOUS
10
6.0793151968503931
20
-4.0966810236220468
11
6.0745183070866142
21
-4.0908360236220469
0
LINE
8
BLACK
6
CONTINUOUS
10
6.0745183070866142
20
-4.0908360236220469
11
6.0686733070866143
21
-4.086039133858268
0
LINE
8
BLACK
6
CONTINUOUS
10
6.0686733070866143
20
-4.086039133858268
11
6.0620048031496063
21
-4.0824747637795271
0
LINE
8
BLACK
6
CONTINUOUS
10
6.0620048031496063
20
-4.0824747637795271
11
6.0547690551181104
21
-4.0802798031496064
0
LINE
8
BLACK
6
CONTINUOUS
10
6.0547690551181104
20
-4.0802798031496064
11
6.0472440944881889
21
-4.079538661417323
0
LINE
8
BLACK
6
CONTINUOUS
10
6.0472440944881889
20
-4.079538661417323
11
6.0397191338582674
21
-4.0802798031496064
0
LINE
8
BLACK
6
CONTINUOUS
10
6.0397191338582674
20
-4.0802798031496064
11
6.0324833858267715
21
-4.0824747637795271
0
LINE
8
BLACK
6
CONTINUOUS
10
6.0324833858267715
20
-4.0824747637795271
11
6.0258148818897634
21
-4.086039133858268
0
LINE
8
BLACK
6
CONTINUOUS
10
6.0258148818897634
20
-4.086039133858268
11
6.0199698818897636
21
-4.0908360236220469
0
LINE
8
BLACK
6
CONTINUOUS
10
6.0199698818897636
20
-4.0908360236220469
11
6.0151729921259838
21
-4.0966810236220468
0
LINE
8
BLACK
6
CONTINUOUS
10
6.0151729921259838
20
-4.0966810236220468
11
6.0116086220472438
21
-4.1033495275590548
0
LINE
8
BLACK
6
CONTINUOUS
10
6.0116086220472438
20
-4.1033495275590548
11
6.009413661417323
21
-4.1105852755905508
0
LINE
8
BLACK
6
CONTINUOUS
10
6.009413661417323
20
-4.1105852755905508
11
6.0086725196850388
21
-4.1181102362204722
0
LINE
8
BLACK
6
CONTINUOUS
10
6.0086725196850388
20
-4.1181102362204722
11
6.009413661417323
21
-4.1256351968503937
  0
ENDSEC
  0
EOF
