  0
SECTION
  2
HEADER
  9
$ANGBASE
  50
0.0
  9
$ANGDIR
  70
1
  9
$MEASUREMENT
  70
0
  0
ENDSEC
  0
SECTION
  2
TABLES
  0
TABLE
  2
LTYPE
  70
4
  0
LTYPE
  5
40F
  2
CONTINUOUS
  70
0
  3
Solid line
  72
65
  73
0
  40
0.0
  0
LTYPE
  5
410
  2
DASHDOT
 70
0
  3
Dash Dot ____ _ ____ _
 72
65
 73
4
 40
2.0
 49
1.25
 49
-0.25
 49
0.25
 49
-0.25
  0
LTYPE
  5
411
  2
DASHED
 70
0
  3
Dashed __ __ __ __ __
 72
65
 73
2
 40
0.75
 49
0.5
 49
-0.25
  0
LTYPE
  5
43B
  2
DOTTED
 70
0
  3
Dotted .  .  .  .
 72
65
 73
2
 40
0.2
 49
0.0
 49
-0.2
  0
ENDTAB
  0
TABLE
  2
STYLE
  70
4
  0
STYLE
  2
KICAD
  70
0
  40
0
  41
1
  42
1
  50
0
  71
0
  3
isocp.shx
  0
STYLE
  2
KICADB
  70
0
  40
0
  41
1
  42
1
  50
0
  71
0
  3
isocp.shx
  0
STYLE
  2
KICADI
  70
0
  40
0
  41
1
  42
1
  50
15
  71
0
  3
isocp.shx
  0
STYLE
  2
KICADBI
  70
0
  40
0
  41
1
  42
1
  50
15
  71
0
  3
isocp.shx
  0
ENDTAB
  0
TABLE
  2
LAYER
  70
1
  0
LAYER
  2
BLACK
  70
0
  62
7
  6
CONTINUOUS
  0
ENDTAB
  0
ENDSEC
  0
SECTION
  2
ENTITIES
0
LINE
8
BLACK
6
CONTINUOUS
10
5.45127
20
-4.48279
11
5.46049
21
-4.48596
0
LINE
8
BLACK
6
CONTINUOUS
10
5.46049
20
-4.48596
11
5.46907
21
-4.4906
0
LINE
8
BLACK
6
CONTINUOUS
10
5.46907
20
-4.4906
11
5.47677
21
-4.49659
0
LINE
8
BLACK
6
CONTINUOUS
10
5.47677
20
-4.49659
11
5.48337
21
-4.50377
0
LINE
8
BLACK
6
CONTINUOUS
10
5.48337
20
-4.50377
11
5.48871
21
-4.51193
0
LINE
8
BLACK
6
CONTINUOUS
10
5.48871
20
-4.51193
11
5.49263
21
-4.52086
0
LINE
8
BLACK
6
CONTINUOUS
10
5.49263
20
-4.52086
11
5.49502
21
-4.53032
0
LINE
8
BLACK
6
CONTINUOUS
10
5.49502
20
-4.53032
11
5.49583
21
-4.54004
0
LINE
8
BLACK
6
CONTINUOUS
10
5.49583
20
-4.54004
11
5.49502
21
-4.54976
0
LINE
8
BLACK
6
CONTINUOUS
10
5.49502
20
-4.54976
11
5.49263
21
-4.55921
0
LINE
8
BLACK
6
CONTINUOUS
10
5.49263
20
-4.55921
11
5.48871
21
-4.56815
0
LINE
8
BLACK
6
CONTINUOUS
10
5.48871
20
-4.56815
11
5.48337
21
-4.57631
0
LINE
8
BLACK
6
CONTINUOUS
10
5.48337
20
-4.57631
11
5.47677
21
-4.58349
0
LINE
8
BLACK
6
CONTINUOUS
10
5.47677
20
-4.58349
11
5.46907
21
-4.58948
0
LINE
8
BLACK
6
CONTINUOUS
10
5.46907
20
-4.58948
11
5.46049
21
-4.59412
0
LINE
8
BLACK
6
CONTINUOUS
10
5.46049
20
-4.59412
11
5.45127
21
-4.59729
0
LINE
8
BLACK
6
CONTINUOUS
10
5.45127
20
-4.59729
11
5.44165
21
-4.59889
0
LINE
8
BLACK
6
CONTINUOUS
10
5.44165
20
-4.59889
11
5.43189
21
-4.59889
0
LINE
8
BLACK
6
CONTINUOUS
10
5.43189
20
-4.59889
11
5.42227
21
-4.59729
0
LINE
8
BLACK
6
CONTINUOUS
10
5.42227
20
-4.59729
11
5.41305
21
-4.59412
0
LINE
8
BLACK
6
CONTINUOUS
10
5.41305
20
-4.59412
11
5.40447
21
-4.58948
0
LINE
8
BLACK
6
CONTINUOUS
10
5.40447
20
-4.58948
11
5.39677
21
-4.58349
0
LINE
8
BLACK
6
CONTINUOUS
10
5.39677
20
-4.58349
11
5.39017
21
-4.57631
0
LINE
8
BLACK
6
CONTINUOUS
10
5.39017
20
-4.57631
11
5.38483
21
-4.56815
0
LINE
8
BLACK
6
CONTINUOUS
10
5.38483
20
-4.56815
11
5.38092
21
-4.55921
0
LINE
8
BLACK
6
CONTINUOUS
10
5.38092
20
-4.55921
11
5.37852
21
-4.54976
0
LINE
8
BLACK
6
CONTINUOUS
10
5.37852
20
-4.54976
11
5.37772
21
-4.54004
0
LINE
8
BLACK
6
CONTINUOUS
10
5.37772
20
-4.54004
11
5.37852
21
-4.53032
0
LINE
8
BLACK
6
CONTINUOUS
10
5.37852
20
-4.53032
11
5.38092
21
-4.52086
0
LINE
8
BLACK
6
CONTINUOUS
10
5.38092
20
-4.52086
11
5.38483
21
-4.51193
0
LINE
8
BLACK
6
CONTINUOUS
10
5.38483
20
-4.51193
11
5.39017
21
-4.50377
0
LINE
8
BLACK
6
CONTINUOUS
10
5.39017
20
-4.50377
11
5.39677
21
-4.49659
0
LINE
8
BLACK
6
CONTINUOUS
10
5.39677
20
-4.49659
11
5.40447
21
-4.4906
0
LINE
8
BLACK
6
CONTINUOUS
10
5.40447
20
-4.4906
11
5.41305
21
-4.48596
0
LINE
8
BLACK
6
CONTINUOUS
10
5.41305
20
-4.48596
11
5.42227
21
-4.48279
0
LINE
8
BLACK
6
CONTINUOUS
10
5.42227
20
-4.48279
11
5.43189
21
-4.48119
0
LINE
8
BLACK
6
CONTINUOUS
10
5.43189
20
-4.48119
11
5.44165
21
-4.48119
0
LINE
8
BLACK
6
CONTINUOUS
10
5.44165
20
-4.48119
11
5.45127
21
-4.48279
0
LINE
8
BLACK
6
CONTINUOUS
10
5.84497
20
-4.48279
11
5.85419
21
-4.48596
0
LINE
8
BLACK
6
CONTINUOUS
10
5.85419
20
-4.48596
11
5.86277
21
-4.4906
0
LINE
8
BLACK
6
CONTINUOUS
10
5.86277
20
-4.4906
11
5.87047
21
-4.49659
0
LINE
8
BLACK
6
CONTINUOUS
10
5.87047
20
-4.49659
11
5.87708
21
-4.50377
0
LINE
8
BLACK
6
CONTINUOUS
10
5.87708
20
-4.50377
11
5.88241
21
-4.51193
0
LINE
8
BLACK
6
CONTINUOUS
10
5.88241
20
-4.51193
11
5.88633
21
-4.52086
0
LINE
8
BLACK
6
CONTINUOUS
10
5.88633
20
-4.52086
11
5.88872
21
-4.53032
0
LINE
8
BLACK
6
CONTINUOUS
10
5.88872
20
-4.53032
11
5.88953
21
-4.54004
0
LINE
8
BLACK
6
CONTINUOUS
10
5.88953
20
-4.54004
11
5.88872
21
-4.54976
0
LINE
8
BLACK
6
CONTINUOUS
10
5.88872
20
-4.54976
11
5.88633
21
-4.55921
0
LINE
8
BLACK
6
CONTINUOUS
10
5.88633
20
-4.55921
11
5.88241
21
-4.56815
0
LINE
8
BLACK
6
CONTINUOUS
10
5.88241
20
-4.56815
11
5.87708
21
-4.57631
0
LINE
8
BLACK
6
CONTINUOUS
10
5.87708
20
-4.57631
11
5.87047
21
-4.58349
0
LINE
8
BLACK
6
CONTINUOUS
10
5.87047
20
-4.58349
11
5.86277
21
-4.58948
0
LINE
8
BLACK
6
CONTINUOUS
10
5.86277
20
-4.58948
11
5.85419
21
-4.59412
0
LINE
8
BLACK
6
CONTINUOUS
10
5.85419
20
-4.59412
11
5.84497
21
-4.59729
0
LINE
8
BLACK
6
CONTINUOUS
10
5.84497
20
-4.59729
11
5.83535
21
-4.59889
0
LINE
8
BLACK
6
CONTINUOUS
10
5.83535
20
-4.59889
11
5.8256
21
-4.59889
0
LINE
8
BLACK
6
CONTINUOUS
10
5.8256
20
-4.59889
11
5.81598
21
-4.59729
0
LINE
8
BLACK
6
CONTINUOUS
10
5.81598
20
-4.59729
11
5.80675
21
-4.59412
0
LINE
8
BLACK
6
CONTINUOUS
10
5.80675
20
-4.59412
11
5.79817
21
-4.58948
0
LINE
8
BLACK
6
CONTINUOUS
10
5.79817
20
-4.58948
11
5.79048
21
-4.58349
0
LINE
8
BLACK
6
CONTINUOUS
10
5.79048
20
-4.58349
11
5.78387
21
-4.57631
0
LINE
8
BLACK
6
CONTINUOUS
10
5.78387
20
-4.57631
11
5.77853
21
-4.56815
0
LINE
8
BLACK
6
CONTINUOUS
10
5.77853
20
-4.56815
11
5.77462
21
-4.55921
0
LINE
8
BLACK
6
CONTINUOUS
10
5.77462
20
-4.55921
11
5.77222
21
-4.54976
0
LINE
8
BLACK
6
CONTINUOUS
10
5.77222
20
-4.54976
11
5.77142
21
-4.54004
0
LINE
8
BLACK
6
CONTINUOUS
10
5.77142
20
-4.54004
11
5.77222
21
-4.53032
0
LINE
8
BLACK
6
CONTINUOUS
10
5.77222
20
-4.53032
11
5.77462
21
-4.52086
0
LINE
8
BLACK
6
CONTINUOUS
10
5.77462
20
-4.52086
11
5.77853
21
-4.51193
0
LINE
8
BLACK
6
CONTINUOUS
10
5.77853
20
-4.51193
11
5.78387
21
-4.50377
0
LINE
8
BLACK
6
CONTINUOUS
10
5.78387
20
-4.50377
11
5.79048
21
-4.49659
0
LINE
8
BLACK
6
CONTINUOUS
10
5.79048
20
-4.49659
11
5.79817
21
-4.4906
0
LINE
8
BLACK
6
CONTINUOUS
10
5.79817
20
-4.4906
11
5.80675
21
-4.48596
0
LINE
8
BLACK
6
CONTINUOUS
10
5.80675
20
-4.48596
11
5.81598
21
-4.48279
0
LINE
8
BLACK
6
CONTINUOUS
10
5.81598
20
-4.48279
11
5.8256
21
-4.48119
0
LINE
8
BLACK
6
CONTINUOUS
10
5.8256
20
-4.48119
11
5.83535
21
-4.48119
0
LINE
8
BLACK
6
CONTINUOUS
10
5.83535
20
-4.48119
11
5.84497
21
-4.48279
0
LINE
8
BLACK
6
CONTINUOUS
10
6.23867
20
-4.48279
11
6.2479
21
-4.48596
0
LINE
8
BLACK
6
CONTINUOUS
10
6.2479
20
-4.48596
11
6.25647
21
-4.4906
0
LINE
8
BLACK
6
CONTINUOUS
10
6.25647
20
-4.4906
11
6.26417
21
-4.49659
0
LINE
8
BLACK
6
CONTINUOUS
10
6.26417
20
-4.49659
11
6.27078
21
-4.50377
0
LINE
8
BLACK
6
CONTINUOUS
10
6.27078
20
-4.50377
11
6.27611
21
-4.51193
0
LINE
8
BLACK
6
CONTINUOUS
10
6.27611
20
-4.51193
11
6.28003
21
-4.52086
0
LINE
8
BLACK
6
CONTINUOUS
10
6.28003
20
-4.52086
11
6.28242
21
-4.53032
0
LINE
8
BLACK
6
CONTINUOUS
10
6.28242
20
-4.53032
11
6.28323
21
-4.54004
0
LINE
8
BLACK
6
CONTINUOUS
10
6.28323
20
-4.54004
11
6.28242
21
-4.54976
0
LINE
8
BLACK
6
CONTINUOUS
10
6.28242
20
-4.54976
11
6.28003
21
-4.55921
0
LINE
8
BLACK
6
CONTINUOUS
10
6.28003
20
-4.55921
11
6.27611
21
-4.56815
0
LINE
8
BLACK
6
CONTINUOUS
10
6.27611
20
-4.56815
11
6.27078
21
-4.57631
0
LINE
8
BLACK
6
CONTINUOUS
10
6.27078
20
-4.57631
11
6.26417
21
-4.58349
0
LINE
8
BLACK
6
CONTINUOUS
10
6.26417
20
-4.58349
11
6.25647
21
-4.58948
0
LINE
8
BLACK
6
CONTINUOUS
10
6.25647
20
-4.58948
11
6.2479
21
-4.59412
0
LINE
8
BLACK
6
CONTINUOUS
10
6.2479
20
-4.59412
11
6.23867
21
-4.59729
0
LINE
8
BLACK
6
CONTINUOUS
10
6.23867
20
-4.59729
11
6.22905
21
-4.59889
0
LINE
8
BLACK
6
CONTINUOUS
10
6.22905
20
-4.59889
11
6.2193
21
-4.59889
0
LINE
8
BLACK
6
CONTINUOUS
10
6.2193
20
-4.59889
11
6.20968
21
-4.59729
0
LINE
8
BLACK
6
CONTINUOUS
10
6.20968
20
-4.59729
11
6.20045
21
-4.59412
0
LINE
8
BLACK
6
CONTINUOUS
10
6.20045
20
-4.59412
11
6.19187
21
-4.58948
0
LINE
8
BLACK
6
CONTINUOUS
10
6.19187
20
-4.58948
11
6.18418
21
-4.58349
0
LINE
8
BLACK
6
CONTINUOUS
10
6.18418
20
-4.58349
11
6.17757
21
-4.57631
0
LINE
8
BLACK
6
CONTINUOUS
10
6.17757
20
-4.57631
11
6.17224
21
-4.56815
0
LINE
8
BLACK
6
CONTINUOUS
10
6.17224
20
-4.56815
11
6.16832
21
-4.55921
0
LINE
8
BLACK
6
CONTINUOUS
10
6.16832
20
-4.55921
11
6.16592
21
-4.54976
0
LINE
8
BLACK
6
CONTINUOUS
10
6.16592
20
-4.54976
11
6.16512
21
-4.54004
0
LINE
8
BLACK
6
CONTINUOUS
10
6.16512
20
-4.54004
11
6.16592
21
-4.53032
0
LINE
8
BLACK
6
CONTINUOUS
10
6.16592
20
-4.53032
11
6.16832
21
-4.52086
0
LINE
8
BLACK
6
CONTINUOUS
10
6.16832
20
-4.52086
11
6.17224
21
-4.51193
0
LINE
8
BLACK
6
CONTINUOUS
10
6.17224
20
-4.51193
11
6.17757
21
-4.50377
0
LINE
8
BLACK
6
CONTINUOUS
10
6.17757
20
-4.50377
11
6.18418
21
-4.49659
0
LINE
8
BLACK
6
CONTINUOUS
10
6.18418
20
-4.49659
11
6.19187
21
-4.4906
0
LINE
8
BLACK
6
CONTINUOUS
10
6.19187
20
-4.4906
11
6.20045
21
-4.48596
0
LINE
8
BLACK
6
CONTINUOUS
10
6.20045
20
-4.48596
11
6.20968
21
-4.48279
0
LINE
8
BLACK
6
CONTINUOUS
10
6.20968
20
-4.48279
11
6.2193
21
-4.48119
0
LINE
8
BLACK
6
CONTINUOUS
10
6.2193
20
-4.48119
11
6.22905
21
-4.48119
0
LINE
8
BLACK
6
CONTINUOUS
10
6.22905
20
-4.48119
11
6.23867
21
-4.48279
0
LINE
8
BLACK
6
CONTINUOUS
10
5.6449
20
-4.09122
11
5.65135
21
-4.09274
0
LINE
8
BLACK
6
CONTINUOUS
10
5.65135
20
-4.09274
11
5.65727
21
-4.09572
0
LINE
8
BLACK
6
CONTINUOUS
10
5.65727
20
-4.09572
11
5.66234
21
-4.09998
0
LINE
8
BLACK
6
CONTINUOUS
10
5.66234
20
-4.09998
11
5.6663
21
-4.1053
0
LINE
8
BLACK
6
CONTINUOUS
10
5.6663
20
-4.1053
11
5.66893
21
-4.11138
0
LINE
8
BLACK
6
CONTINUOUS
10
5.66893
20
-4.11138
11
5.67008
21
-4.11791
0
LINE
8
BLACK
6
CONTINUOUS
10
5.67008
20
-4.11791
11
5.66969
21
-4.12452
0
LINE
8
BLACK
6
CONTINUOUS
10
5.66969
20
-4.12452
11
5.66779
21
-4.13087
0
LINE
8
BLACK
6
CONTINUOUS
10
5.66779
20
-4.13087
11
5.66448
21
-4.13661
0
LINE
8
BLACK
6
CONTINUOUS
10
5.66448
20
-4.13661
11
5.65993
21
-4.14143
0
LINE
8
BLACK
6
CONTINUOUS
10
5.65993
20
-4.14143
11
5.65439
21
-4.14507
0
LINE
8
BLACK
6
CONTINUOUS
10
5.65439
20
-4.14507
11
5.64817
21
-4.14734
0
LINE
8
BLACK
6
CONTINUOUS
10
5.64817
20
-4.14734
11
5.64158
21
-4.14811
0
LINE
8
BLACK
6
CONTINUOUS
10
5.64158
20
-4.14811
11
5.60024
21
-4.14811
0
LINE
8
BLACK
6
CONTINUOUS
10
5.60024
20
-4.14811
11
5.59693
21
-4.14792
0
LINE
8
BLACK
6
CONTINUOUS
10
5.59693
20
-4.14792
11
5.59048
21
-4.14639
0
LINE
8
BLACK
6
CONTINUOUS
10
5.59048
20
-4.14639
11
5.58456
21
-4.14341
0
LINE
8
BLACK
6
CONTINUOUS
10
5.58456
20
-4.14341
11
5.57948
21
-4.13915
0
LINE
8
BLACK
6
CONTINUOUS
10
5.57948
20
-4.13915
11
5.57552
21
-4.13384
0
LINE
8
BLACK
6
CONTINUOUS
10
5.57552
20
-4.13384
11
5.5729
21
-4.12775
0
LINE
8
BLACK
6
CONTINUOUS
10
5.5729
20
-4.12775
11
5.57175
21
-4.12123
0
LINE
8
BLACK
6
CONTINUOUS
10
5.57175
20
-4.12123
11
5.57213
21
-4.11461
0
LINE
8
BLACK
6
CONTINUOUS
10
5.57213
20
-4.11461
11
5.57404
21
-4.10826
0
LINE
8
BLACK
6
CONTINUOUS
10
5.57404
20
-4.10826
11
5.57735
21
-4.10252
0
LINE
8
BLACK
6
CONTINUOUS
10
5.57735
20
-4.10252
11
5.5819
21
-4.0977
0
LINE
8
BLACK
6
CONTINUOUS
10
5.5819
20
-4.0977
11
5.58743
21
-4.09406
0
LINE
8
BLACK
6
CONTINUOUS
10
5.58743
20
-4.09406
11
5.59366
21
-4.09179
0
LINE
8
BLACK
6
CONTINUOUS
10
5.59366
20
-4.09179
11
5.60024
21
-4.09102
0
LINE
8
BLACK
6
CONTINUOUS
10
5.60024
20
-4.09102
11
5.64158
21
-4.09102
0
LINE
8
BLACK
6
CONTINUOUS
10
5.64158
20
-4.09102
11
5.6449
21
-4.09122
0
LINE
8
BLACK
6
CONTINUOUS
10
5.48263
20
-4.09281
11
5.48884
21
-4.09516
0
LINE
8
BLACK
6
CONTINUOUS
10
5.48884
20
-4.09516
11
5.49431
21
-4.09894
0
LINE
8
BLACK
6
CONTINUOUS
10
5.49431
20
-4.09894
11
5.49871
21
-4.10391
0
LINE
8
BLACK
6
CONTINUOUS
10
5.49871
20
-4.10391
11
5.5018
21
-4.10979
0
LINE
8
BLACK
6
CONTINUOUS
10
5.5018
20
-4.10979
11
5.50339
21
-4.11625
0
LINE
8
BLACK
6
CONTINUOUS
10
5.50339
20
-4.11625
11
5.50339
21
-4.12289
0
LINE
8
BLACK
6
CONTINUOUS
10
5.50339
20
-4.12289
11
5.5018
21
-4.12934
0
LINE
8
BLACK
6
CONTINUOUS
10
5.5018
20
-4.12934
11
5.49871
21
-4.13522
0
LINE
8
BLACK
6
CONTINUOUS
10
5.49871
20
-4.13522
11
5.49431
21
-4.1402
0
LINE
8
BLACK
6
CONTINUOUS
10
5.49431
20
-4.1402
11
5.48884
21
-4.14397
0
LINE
8
BLACK
6
CONTINUOUS
10
5.48884
20
-4.14397
11
5.48263
21
-4.14633
0
LINE
8
BLACK
6
CONTINUOUS
10
5.48263
20
-4.14633
11
5.47603
21
-4.14713
0
LINE
8
BLACK
6
CONTINUOUS
10
5.47603
20
-4.14713
11
5.43666
21
-4.14713
0
LINE
8
BLACK
6
CONTINUOUS
10
5.43666
20
-4.14713
11
5.43007
21
-4.14633
0
LINE
8
BLACK
6
CONTINUOUS
10
5.43007
20
-4.14633
11
5.42385
21
-4.14397
0
LINE
8
BLACK
6
CONTINUOUS
10
5.42385
20
-4.14397
11
5.41839
21
-4.1402
0
LINE
8
BLACK
6
CONTINUOUS
10
5.41839
20
-4.1402
11
5.41398
21
-4.13522
0
LINE
8
BLACK
6
CONTINUOUS
10
5.41398
20
-4.13522
11
5.41089
21
-4.12934
0
LINE
8
BLACK
6
CONTINUOUS
10
5.41089
20
-4.12934
11
5.4093
21
-4.12289
0
LINE
8
BLACK
6
CONTINUOUS
10
5.4093
20
-4.12289
11
5.4093
21
-4.11625
0
LINE
8
BLACK
6
CONTINUOUS
10
5.4093
20
-4.11625
11
5.41089
21
-4.10979
0
LINE
8
BLACK
6
CONTINUOUS
10
5.41089
20
-4.10979
11
5.41398
21
-4.10391
0
LINE
8
BLACK
6
CONTINUOUS
10
5.41398
20
-4.10391
11
5.41839
21
-4.09894
0
LINE
8
BLACK
6
CONTINUOUS
10
5.41839
20
-4.09894
11
5.42385
21
-4.09516
0
LINE
8
BLACK
6
CONTINUOUS
10
5.42385
20
-4.09516
11
5.43007
21
-4.09281
0
LINE
8
BLACK
6
CONTINUOUS
10
5.43007
20
-4.09281
11
5.43666
21
-4.09201
0
LINE
8
BLACK
6
CONTINUOUS
10
5.43666
20
-4.09201
11
5.47603
21
-4.09201
0
LINE
8
BLACK
6
CONTINUOUS
10
5.47603
20
-4.09201
11
5.48263
21
-4.09281
0
LINE
8
BLACK
6
CONTINUOUS
10
5.60658
20
-4.0433
11
5.61156
21
-4.04537
0
LINE
8
BLACK
6
CONTINUOUS
10
5.61156
20
-4.04537
11
5.61584
21
-4.04865
0
LINE
8
BLACK
6
CONTINUOUS
10
5.61584
20
-4.04865
11
5.61913
21
-4.05293
0
LINE
8
BLACK
6
CONTINUOUS
10
5.61913
20
-4.05293
11
5.62119
21
-4.05792
0
LINE
8
BLACK
6
CONTINUOUS
10
5.62119
20
-4.05792
11
5.6219
21
-4.06327
0
LINE
8
BLACK
6
CONTINUOUS
10
5.6219
20
-4.06327
11
5.62119
21
-4.06862
0
LINE
8
BLACK
6
CONTINUOUS
10
5.62119
20
-4.06862
11
5.61913
21
-4.0736
0
LINE
8
BLACK
6
CONTINUOUS
10
5.61913
20
-4.0736
11
5.61584
21
-4.07788
0
LINE
8
BLACK
6
CONTINUOUS
10
5.61584
20
-4.07788
11
5.61156
21
-4.08117
0
LINE
8
BLACK
6
CONTINUOUS
10
5.61156
20
-4.08117
11
5.60658
21
-4.08323
0
LINE
8
BLACK
6
CONTINUOUS
10
5.60658
20
-4.08323
11
5.60123
21
-4.08394
0
LINE
8
BLACK
6
CONTINUOUS
10
5.60123
20
-4.08394
11
5.59588
21
-4.08323
0
LINE
8
BLACK
6
CONTINUOUS
10
5.59588
20
-4.08323
11
5.59089
21
-4.08117
0
LINE
8
BLACK
6
CONTINUOUS
10
5.59089
20
-4.08117
11
5.58661
21
-4.07788
0
LINE
8
BLACK
6
CONTINUOUS
10
5.58661
20
-4.07788
11
5.58333
21
-4.0736
0
LINE
8
BLACK
6
CONTINUOUS
10
5.58333
20
-4.0736
11
5.58126
21
-4.06862
0
LINE
8
BLACK
6
CONTINUOUS
10
5.58126
20
-4.06862
11
5.58056
21
-4.06327
0
LINE
8
BLACK
6
CONTINUOUS
10
5.58056
20
-4.06327
11
5.58126
21
-4.05792
0
LINE
8
BLACK
6
CONTINUOUS
10
5.58126
20
-4.05792
11
5.58333
21
-4.05293
0
LINE
8
BLACK
6
CONTINUOUS
10
5.58333
20
-4.05293
11
5.58661
21
-4.04865
0
LINE
8
BLACK
6
CONTINUOUS
10
5.58661
20
-4.04865
11
5.59089
21
-4.04537
0
LINE
8
BLACK
6
CONTINUOUS
10
5.59089
20
-4.04537
11
5.59588
21
-4.0433
0
LINE
8
BLACK
6
CONTINUOUS
10
5.59588
20
-4.0433
11
5.60123
21
-4.0426
0
LINE
8
BLACK
6
CONTINUOUS
10
5.60123
20
-4.0426
11
5.60658
21
-4.0433
0
LINE
8
BLACK
6
CONTINUOUS
10
5.60658
20
-3.81574
11
5.61156
21
-3.81781
0
LINE
8
BLACK
6
CONTINUOUS
10
5.61156
20
-3.81781
11
5.61584
21
-3.82109
0
LINE
8
BLACK
6
CONTINUOUS
10
5.61584
20
-3.82109
11
5.61913
21
-3.82537
0
LINE
8
BLACK
6
CONTINUOUS
10
5.61913
20
-3.82537
11
5.62119
21
-3.83036
0
LINE
8
BLACK
6
CONTINUOUS
10
5.62119
20
-3.83036
11
5.6219
21
-3.83571
0
LINE
8
BLACK
6
CONTINUOUS
10
5.6219
20
-3.83571
11
5.62119
21
-3.84106
0
LINE
8
BLACK
6
CONTINUOUS
10
5.62119
20
-3.84106
11
5.61913
21
-3.84604
0
LINE
8
BLACK
6
CONTINUOUS
10
5.61913
20
-3.84604
11
5.61584
21
-3.85032
0
LINE
8
BLACK
6
CONTINUOUS
10
5.61584
20
-3.85032
11
5.61156
21
-3.85361
0
LINE
8
BLACK
6
CONTINUOUS
10
5.61156
20
-3.85361
11
5.60658
21
-3.85567
0
LINE
8
BLACK
6
CONTINUOUS
10
5.60658
20
-3.85567
11
5.60123
21
-3.85638
0
LINE
8
BLACK
6
CONTINUOUS
10
5.60123
20
-3.85638
11
5.59588
21
-3.85567
0
LINE
8
BLACK
6
CONTINUOUS
10
5.59588
20
-3.85567
11
5.59089
21
-3.85361
0
LINE
8
BLACK
6
CONTINUOUS
10
5.59089
20
-3.85361
11
5.58661
21
-3.85032
0
LINE
8
BLACK
6
CONTINUOUS
10
5.58661
20
-3.85032
11
5.58333
21
-3.84604
0
LINE
8
BLACK
6
CONTINUOUS
10
5.58333
20
-3.84604
11
5.58126
21
-3.84106
0
LINE
8
BLACK
6
CONTINUOUS
10
5.58126
20
-3.84106
11
5.58056
21
-3.83571
0
LINE
8
BLACK
6
CONTINUOUS
10
5.58056
20
-3.83571
11
5.58126
21
-3.83036
0
LINE
8
BLACK
6
CONTINUOUS
10
5.58126
20
-3.83036
11
5.58333
21
-3.82537
0
LINE
8
BLACK
6
CONTINUOUS
10
5.58333
20
-3.82537
11
5.58661
21
-3.82109
0
LINE
8
BLACK
6
CONTINUOUS
10
5.58661
20
-3.82109
11
5.59089
21
-3.81781
0
LINE
8
BLACK
6
CONTINUOUS
10
5.59089
20
-3.81781
11
5.59588
21
-3.81574
0
LINE
8
BLACK
6
CONTINUOUS
10
5.59588
20
-3.81574
11
5.60123
21
-3.81504
0
LINE
8
BLACK
6
CONTINUOUS
10
5.60123
20
-3.81504
11
5.60658
21
-3.81574
0
LINE
8
BLACK
6
CONTINUOUS
10
5.6449
20
-3.75106
11
5.65135
21
-3.75259
0
LINE
8
BLACK
6
CONTINUOUS
10
5.65135
20
-3.75259
11
5.65727
21
-3.75556
0
LINE
8
BLACK
6
CONTINUOUS
10
5.65727
20
-3.75556
11
5.66234
21
-3.75982
0
LINE
8
BLACK
6
CONTINUOUS
10
5.66234
20
-3.75982
11
5.6663
21
-3.76514
0
LINE
8
BLACK
6
CONTINUOUS
10
5.6663
20
-3.76514
11
5.66893
21
-3.77122
0
LINE
8
BLACK
6
CONTINUOUS
10
5.66893
20
-3.77122
11
5.67008
21
-3.77775
0
LINE
8
BLACK
6
CONTINUOUS
10
5.67008
20
-3.77775
11
5.66969
21
-3.78437
0
LINE
8
BLACK
6
CONTINUOUS
10
5.66969
20
-3.78437
11
5.66779
21
-3.79071
0
LINE
8
BLACK
6
CONTINUOUS
10
5.66779
20
-3.79071
11
5.66448
21
-3.79645
0
LINE
8
BLACK
6
CONTINUOUS
10
5.66448
20
-3.79645
11
5.65993
21
-3.80127
0
LINE
8
BLACK
6
CONTINUOUS
10
5.65993
20
-3.80127
11
5.65439
21
-3.80492
0
LINE
8
BLACK
6
CONTINUOUS
10
5.65439
20
-3.80492
11
5.64817
21
-3.80718
0
LINE
8
BLACK
6
CONTINUOUS
10
5.64817
20
-3.80718
11
5.64158
21
-3.80795
0
LINE
8
BLACK
6
CONTINUOUS
10
5.64158
20
-3.80795
11
5.60024
21
-3.80795
0
LINE
8
BLACK
6
CONTINUOUS
10
5.60024
20
-3.80795
11
5.59693
21
-3.80776
0
LINE
8
BLACK
6
CONTINUOUS
10
5.59693
20
-3.80776
11
5.59048
21
-3.80623
0
LINE
8
BLACK
6
CONTINUOUS
10
5.59048
20
-3.80623
11
5.58456
21
-3.80326
0
LINE
8
BLACK
6
CONTINUOUS
10
5.58456
20
-3.80326
11
5.57948
21
-3.799
0
LINE
8
BLACK
6
CONTINUOUS
10
5.57948
20
-3.799
11
5.57552
21
-3.79368
0
LINE
8
BLACK
6
CONTINUOUS
10
5.57552
20
-3.79368
11
5.5729
21
-3.7876
0
LINE
8
BLACK
6
CONTINUOUS
10
5.5729
20
-3.7876
11
5.57175
21
-3.78107
0
LINE
8
BLACK
6
CONTINUOUS
10
5.57175
20
-3.78107
11
5.57213
21
-3.77445
0
LINE
8
BLACK
6
CONTINUOUS
10
5.57213
20
-3.77445
11
5.57404
21
-3.7681
0
LINE
8
BLACK
6
CONTINUOUS
10
5.57404
20
-3.7681
11
5.57735
21
-3.76236
0
LINE
8
BLACK
6
CONTINUOUS
10
5.57735
20
-3.76236
11
5.5819
21
-3.75754
0
LINE
8
BLACK
6
CONTINUOUS
10
5.5819
20
-3.75754
11
5.58743
21
-3.7539
0
LINE
8
BLACK
6
CONTINUOUS
10
5.58743
20
-3.7539
11
5.59366
21
-3.75164
0
LINE
8
BLACK
6
CONTINUOUS
10
5.59366
20
-3.75164
11
5.60024
21
-3.75087
0
LINE
8
BLACK
6
CONTINUOUS
10
5.60024
20
-3.75087
11
5.64158
21
-3.75087
0
LINE
8
BLACK
6
CONTINUOUS
10
5.64158
20
-3.75087
11
5.6449
21
-3.75106
0
LINE
8
BLACK
6
CONTINUOUS
10
5.48263
20
-3.75265
11
5.48884
21
-3.75501
0
LINE
8
BLACK
6
CONTINUOUS
10
5.48884
20
-3.75501
11
5.49431
21
-3.75878
0
LINE
8
BLACK
6
CONTINUOUS
10
5.49431
20
-3.75878
11
5.49871
21
-3.76375
0
LINE
8
BLACK
6
CONTINUOUS
10
5.49871
20
-3.76375
11
5.5018
21
-3.76964
0
LINE
8
BLACK
6
CONTINUOUS
10
5.5018
20
-3.76964
11
5.50339
21
-3.77609
0
LINE
8
BLACK
6
CONTINUOUS
10
5.50339
20
-3.77609
11
5.50339
21
-3.78273
0
LINE
8
BLACK
6
CONTINUOUS
10
5.50339
20
-3.78273
11
5.5018
21
-3.78918
0
LINE
8
BLACK
6
CONTINUOUS
10
5.5018
20
-3.78918
11
5.49871
21
-3.79506
0
LINE
8
BLACK
6
CONTINUOUS
10
5.49871
20
-3.79506
11
5.49431
21
-3.80004
0
LINE
8
BLACK
6
CONTINUOUS
10
5.49431
20
-3.80004
11
5.48884
21
-3.80381
0
LINE
8
BLACK
6
CONTINUOUS
10
5.48884
20
-3.80381
11
5.48263
21
-3.80617
0
LINE
8
BLACK
6
CONTINUOUS
10
5.48263
20
-3.80617
11
5.47603
21
-3.80697
0
LINE
8
BLACK
6
CONTINUOUS
10
5.47603
20
-3.80697
11
5.43666
21
-3.80697
0
LINE
8
BLACK
6
CONTINUOUS
10
5.43666
20
-3.80697
11
5.43007
21
-3.80617
0
LINE
8
BLACK
6
CONTINUOUS
10
5.43007
20
-3.80617
11
5.42385
21
-3.80381
0
LINE
8
BLACK
6
CONTINUOUS
10
5.42385
20
-3.80381
11
5.41839
21
-3.80004
0
LINE
8
BLACK
6
CONTINUOUS
10
5.41839
20
-3.80004
11
5.41398
21
-3.79506
0
LINE
8
BLACK
6
CONTINUOUS
10
5.41398
20
-3.79506
11
5.41089
21
-3.78918
0
LINE
8
BLACK
6
CONTINUOUS
10
5.41089
20
-3.78918
11
5.4093
21
-3.78273
0
LINE
8
BLACK
6
CONTINUOUS
10
5.4093
20
-3.78273
11
5.4093
21
-3.77609
0
LINE
8
BLACK
6
CONTINUOUS
10
5.4093
20
-3.77609
11
5.41089
21
-3.76964
0
LINE
8
BLACK
6
CONTINUOUS
10
5.41089
20
-3.76964
11
5.41398
21
-3.76375
0
LINE
8
BLACK
6
CONTINUOUS
10
5.41398
20
-3.76375
11
5.41839
21
-3.75878
0
LINE
8
BLACK
6
CONTINUOUS
10
5.41839
20
-3.75878
11
5.42385
21
-3.75501
0
LINE
8
BLACK
6
CONTINUOUS
10
5.42385
20
-3.75501
11
5.43007
21
-3.75265
0
LINE
8
BLACK
6
CONTINUOUS
10
5.43007
20
-3.75265
11
5.43666
21
-3.75185
0
LINE
8
BLACK
6
CONTINUOUS
10
5.43666
20
-3.75185
11
5.47603
21
-3.75185
0
LINE
8
BLACK
6
CONTINUOUS
10
5.47603
20
-3.75185
11
5.48263
21
-3.75265
0
LINE
8
BLACK
6
CONTINUOUS
10
5.45127
20
-3.30169
11
5.46049
21
-3.30486
0
LINE
8
BLACK
6
CONTINUOUS
10
5.46049
20
-3.30486
11
5.46907
21
-3.3095
0
LINE
8
BLACK
6
CONTINUOUS
10
5.46907
20
-3.3095
11
5.47677
21
-3.31549
0
LINE
8
BLACK
6
CONTINUOUS
10
5.47677
20
-3.31549
11
5.48337
21
-3.32266
0
LINE
8
BLACK
6
CONTINUOUS
10
5.48337
20
-3.32266
11
5.48871
21
-3.33083
0
LINE
8
BLACK
6
CONTINUOUS
10
5.48871
20
-3.33083
11
5.49263
21
-3.33976
0
LINE
8
BLACK
6
CONTINUOUS
10
5.49263
20
-3.33976
11
5.49502
21
-3.34922
0
LINE
8
BLACK
6
CONTINUOUS
10
5.49502
20
-3.34922
11
5.49583
21
-3.35894
0
LINE
8
BLACK
6
CONTINUOUS
10
5.49583
20
-3.35894
11
5.49502
21
-3.36866
0
LINE
8
BLACK
6
CONTINUOUS
10
5.49502
20
-3.36866
11
5.49263
21
-3.37811
0
LINE
8
BLACK
6
CONTINUOUS
10
5.49263
20
-3.37811
11
5.48871
21
-3.38704
0
LINE
8
BLACK
6
CONTINUOUS
10
5.48871
20
-3.38704
11
5.48337
21
-3.39521
0
LINE
8
BLACK
6
CONTINUOUS
10
5.48337
20
-3.39521
11
5.47677
21
-3.40239
0
LINE
8
BLACK
6
CONTINUOUS
10
5.47677
20
-3.40239
11
5.46907
21
-3.40838
0
LINE
8
BLACK
6
CONTINUOUS
10
5.46907
20
-3.40838
11
5.46049
21
-3.41302
0
LINE
8
BLACK
6
CONTINUOUS
10
5.46049
20
-3.41302
11
5.45127
21
-3.41619
0
LINE
8
BLACK
6
CONTINUOUS
10
5.45127
20
-3.41619
11
5.44165
21
-3.41779
0
LINE
8
BLACK
6
CONTINUOUS
10
5.44165
20
-3.41779
11
5.43189
21
-3.41779
0
LINE
8
BLACK
6
CONTINUOUS
10
5.43189
20
-3.41779
11
5.42227
21
-3.41619
0
LINE
8
BLACK
6
CONTINUOUS
10
5.42227
20
-3.41619
11
5.41305
21
-3.41302
0
LINE
8
BLACK
6
CONTINUOUS
10
5.41305
20
-3.41302
11
5.40447
21
-3.40838
0
LINE
8
BLACK
6
CONTINUOUS
10
5.40447
20
-3.40838
11
5.39677
21
-3.40239
0
LINE
8
BLACK
6
CONTINUOUS
10
5.39677
20
-3.40239
11
5.39017
21
-3.39521
0
LINE
8
BLACK
6
CONTINUOUS
10
5.39017
20
-3.39521
11
5.38483
21
-3.38704
0
LINE
8
BLACK
6
CONTINUOUS
10
5.38483
20
-3.38704
11
5.38092
21
-3.37811
0
LINE
8
BLACK
6
CONTINUOUS
10
5.38092
20
-3.37811
11
5.37852
21
-3.36866
0
LINE
8
BLACK
6
CONTINUOUS
10
5.37852
20
-3.36866
11
5.37772
21
-3.35894
0
LINE
8
BLACK
6
CONTINUOUS
10
5.37772
20
-3.35894
11
5.37852
21
-3.34922
0
LINE
8
BLACK
6
CONTINUOUS
10
5.37852
20
-3.34922
11
5.38092
21
-3.33976
0
LINE
8
BLACK
6
CONTINUOUS
10
5.38092
20
-3.33976
11
5.38483
21
-3.33083
0
LINE
8
BLACK
6
CONTINUOUS
10
5.38483
20
-3.33083
11
5.39017
21
-3.32266
0
LINE
8
BLACK
6
CONTINUOUS
10
5.39017
20
-3.32266
11
5.39677
21
-3.31549
0
LINE
8
BLACK
6
CONTINUOUS
10
5.39677
20
-3.31549
11
5.40447
21
-3.3095
0
LINE
8
BLACK
6
CONTINUOUS
10
5.40447
20
-3.3095
11
5.41305
21
-3.30486
0
LINE
8
BLACK
6
CONTINUOUS
10
5.41305
20
-3.30486
11
5.42227
21
-3.30169
0
LINE
8
BLACK
6
CONTINUOUS
10
5.42227
20
-3.30169
11
5.43189
21
-3.30008
0
LINE
8
BLACK
6
CONTINUOUS
10
5.43189
20
-3.30008
11
5.44165
21
-3.30008
0
LINE
8
BLACK
6
CONTINUOUS
10
5.44165
20
-3.30008
11
5.45127
21
-3.30169
0
LINE
8
BLACK
6
CONTINUOUS
10
5.84497
20
-3.30169
11
5.85419
21
-3.30486
0
LINE
8
BLACK
6
CONTINUOUS
10
5.85419
20
-3.30486
11
5.86277
21
-3.3095
0
LINE
8
BLACK
6
CONTINUOUS
10
5.86277
20
-3.3095
11
5.87047
21
-3.31549
0
LINE
8
BLACK
6
CONTINUOUS
10
5.87047
20
-3.31549
11
5.87708
21
-3.32266
0
LINE
8
BLACK
6
CONTINUOUS
10
5.87708
20
-3.32266
11
5.88241
21
-3.33083
0
LINE
8
BLACK
6
CONTINUOUS
10
5.88241
20
-3.33083
11
5.88633
21
-3.33976
0
LINE
8
BLACK
6
CONTINUOUS
10
5.88633
20
-3.33976
11
5.88872
21
-3.34922
0
LINE
8
BLACK
6
CONTINUOUS
10
5.88872
20
-3.34922
11
5.88953
21
-3.35894
0
LINE
8
BLACK
6
CONTINUOUS
10
5.88953
20
-3.35894
11
5.88872
21
-3.36866
0
LINE
8
BLACK
6
CONTINUOUS
10
5.88872
20
-3.36866
11
5.88633
21
-3.37811
0
LINE
8
BLACK
6
CONTINUOUS
10
5.88633
20
-3.37811
11
5.88241
21
-3.38704
0
LINE
8
BLACK
6
CONTINUOUS
10
5.88241
20
-3.38704
11
5.87708
21
-3.39521
0
LINE
8
BLACK
6
CONTINUOUS
10
5.87708
20
-3.39521
11
5.87047
21
-3.40239
0
LINE
8
BLACK
6
CONTINUOUS
10
5.87047
20
-3.40239
11
5.86277
21
-3.40838
0
LINE
8
BLACK
6
CONTINUOUS
10
5.86277
20
-3.40838
11
5.85419
21
-3.41302
0
LINE
8
BLACK
6
CONTINUOUS
10
5.85419
20
-3.41302
11
5.84497
21
-3.41619
0
LINE
8
BLACK
6
CONTINUOUS
10
5.84497
20
-3.41619
11
5.83535
21
-3.41779
0
LINE
8
BLACK
6
CONTINUOUS
10
5.83535
20
-3.41779
11
5.8256
21
-3.41779
0
LINE
8
BLACK
6
CONTINUOUS
10
5.8256
20
-3.41779
11
5.81598
21
-3.41619
0
LINE
8
BLACK
6
CONTINUOUS
10
5.81598
20
-3.41619
11
5.80675
21
-3.41302
0
LINE
8
BLACK
6
CONTINUOUS
10
5.80675
20
-3.41302
11
5.79817
21
-3.40838
0
LINE
8
BLACK
6
CONTINUOUS
10
5.79817
20
-3.40838
11
5.79048
21
-3.40239
0
LINE
8
BLACK
6
CONTINUOUS
10
5.79048
20
-3.40239
11
5.78387
21
-3.39521
0
LINE
8
BLACK
6
CONTINUOUS
10
5.78387
20
-3.39521
11
5.77853
21
-3.38704
0
LINE
8
BLACK
6
CONTINUOUS
10
5.77853
20
-3.38704
11
5.77462
21
-3.37811
0
LINE
8
BLACK
6
CONTINUOUS
10
5.77462
20
-3.37811
11
5.77222
21
-3.36866
0
LINE
8
BLACK
6
CONTINUOUS
10
5.77222
20
-3.36866
11
5.77142
21
-3.35894
0
LINE
8
BLACK
6
CONTINUOUS
10
5.77142
20
-3.35894
11
5.77222
21
-3.34922
0
LINE
8
BLACK
6
CONTINUOUS
10
5.77222
20
-3.34922
11
5.77462
21
-3.33976
0
LINE
8
BLACK
6
CONTINUOUS
10
5.77462
20
-3.33976
11
5.77853
21
-3.33083
0
LINE
8
BLACK
6
CONTINUOUS
10
5.77853
20
-3.33083
11
5.78387
21
-3.32266
0
LINE
8
BLACK
6
CONTINUOUS
10
5.78387
20
-3.32266
11
5.79048
21
-3.31549
0
LINE
8
BLACK
6
CONTINUOUS
10
5.79048
20
-3.31549
11
5.79817
21
-3.3095
0
LINE
8
BLACK
6
CONTINUOUS
10
5.79817
20
-3.3095
11
5.80675
21
-3.30486
0
LINE
8
BLACK
6
CONTINUOUS
10
5.80675
20
-3.30486
11
5.81598
21
-3.30169
0
LINE
8
BLACK
6
CONTINUOUS
10
5.81598
20
-3.30169
11
5.8256
21
-3.30008
0
LINE
8
BLACK
6
CONTINUOUS
10
5.8256
20
-3.30008
11
5.83535
21
-3.30008
0
LINE
8
BLACK
6
CONTINUOUS
10
5.83535
20
-3.30008
11
5.84497
21
-3.30169
0
LINE
8
BLACK
6
CONTINUOUS
10
6.23867
20
-3.30169
11
6.2479
21
-3.30486
0
LINE
8
BLACK
6
CONTINUOUS
10
6.2479
20
-3.30486
11
6.25647
21
-3.3095
0
LINE
8
BLACK
6
CONTINUOUS
10
6.25647
20
-3.3095
11
6.26417
21
-3.31549
0
LINE
8
BLACK
6
CONTINUOUS
10
6.26417
20
-3.31549
11
6.27078
21
-3.32266
0
LINE
8
BLACK
6
CONTINUOUS
10
6.27078
20
-3.32266
11
6.27611
21
-3.33083
0
LINE
8
BLACK
6
CONTINUOUS
10
6.27611
20
-3.33083
11
6.28003
21
-3.33976
0
LINE
8
BLACK
6
CONTINUOUS
10
6.28003
20
-3.33976
11
6.28242
21
-3.34922
0
LINE
8
BLACK
6
CONTINUOUS
10
6.28242
20
-3.34922
11
6.28323
21
-3.35894
0
LINE
8
BLACK
6
CONTINUOUS
10
6.28323
20
-3.35894
11
6.28242
21
-3.36866
0
LINE
8
BLACK
6
CONTINUOUS
10
6.28242
20
-3.36866
11
6.28003
21
-3.37811
0
LINE
8
BLACK
6
CONTINUOUS
10
6.28003
20
-3.37811
11
6.27611
21
-3.38704
0
LINE
8
BLACK
6
CONTINUOUS
10
6.27611
20
-3.38704
11
6.27078
21
-3.39521
0
LINE
8
BLACK
6
CONTINUOUS
10
6.27078
20
-3.39521
11
6.26417
21
-3.40239
0
LINE
8
BLACK
6
CONTINUOUS
10
6.26417
20
-3.40239
11
6.25647
21
-3.40838
0
LINE
8
BLACK
6
CONTINUOUS
10
6.25647
20
-3.40838
11
6.2479
21
-3.41302
0
LINE
8
BLACK
6
CONTINUOUS
10
6.2479
20
-3.41302
11
6.23867
21
-3.41619
0
LINE
8
BLACK
6
CONTINUOUS
10
6.23867
20
-3.41619
11
6.22905
21
-3.41779
0
LINE
8
BLACK
6
CONTINUOUS
10
6.22905
20
-3.41779
11
6.2193
21
-3.41779
0
LINE
8
BLACK
6
CONTINUOUS
10
6.2193
20
-3.41779
11
6.20968
21
-3.41619
0
LINE
8
BLACK
6
CONTINUOUS
10
6.20968
20
-3.41619
11
6.20045
21
-3.41302
0
LINE
8
BLACK
6
CONTINUOUS
10
6.20045
20
-3.41302
11
6.19187
21
-3.40838
0
LINE
8
BLACK
6
CONTINUOUS
10
6.19187
20
-3.40838
11
6.18418
21
-3.40239
0
LINE
8
BLACK
6
CONTINUOUS
10
6.18418
20
-3.40239
11
6.17757
21
-3.39521
0
LINE
8
BLACK
6
CONTINUOUS
10
6.17757
20
-3.39521
11
6.17224
21
-3.38704
0
LINE
8
BLACK
6
CONTINUOUS
10
6.17224
20
-3.38704
11
6.16832
21
-3.37811
0
LINE
8
BLACK
6
CONTINUOUS
10
6.16832
20
-3.37811
11
6.16592
21
-3.36866
0
LINE
8
BLACK
6
CONTINUOUS
10
6.16592
20
-3.36866
11
6.16512
21
-3.35894
0
LINE
8
BLACK
6
CONTINUOUS
10
6.16512
20
-3.35894
11
6.16592
21
-3.34922
0
LINE
8
BLACK
6
CONTINUOUS
10
6.16592
20
-3.34922
11
6.16832
21
-3.33976
0
LINE
8
BLACK
6
CONTINUOUS
10
6.16832
20
-3.33976
11
6.17224
21
-3.33083
0
LINE
8
BLACK
6
CONTINUOUS
10
6.17224
20
-3.33083
11
6.17757
21
-3.32266
0
LINE
8
BLACK
6
CONTINUOUS
10
6.17757
20
-3.32266
11
6.18418
21
-3.31549
0
LINE
8
BLACK
6
CONTINUOUS
10
6.18418
20
-3.31549
11
6.19187
21
-3.3095
0
LINE
8
BLACK
6
CONTINUOUS
10
6.19187
20
-3.3095
11
6.20045
21
-3.30486
0
LINE
8
BLACK
6
CONTINUOUS
10
6.20045
20
-3.30486
11
6.20968
21
-3.30169
0
LINE
8
BLACK
6
CONTINUOUS
10
6.20968
20
-3.30169
11
6.2193
21
-3.30008
0
LINE
8
BLACK
6
CONTINUOUS
10
6.2193
20
-3.30008
11
6.22905
21
-3.30008
0
LINE
8
BLACK
6
CONTINUOUS
10
6.22905
20
-3.30008
11
6.23867
21
-3.30169
  0
ENDSEC
  0
EOF
