<?xml version='1.0' encoding='ASCII' standalone='yes'?>
<svg xmlns:svg="http://www.w3.org/2000/svg" xmlns="http://www.w3.org/2000/svg" xmlns:xlink="http://www.w3.org/1999/xlink" version="1.1" width="297.0022mm" height="210.0072mm" viewBox="0.0000 0.0000 297.0022 210.0072">
<title>SVG Image created as TFUSBSERIAL01-F_Fab.svg date 2023/10/04 13:21:54 </title>
  <desc>Image generated by PCBNEW </desc>
<g style="fill:#848484; fill-opacity:1.0000;stroke:#848484; stroke-opacity:1.0000; stroke-linecap:round; stroke-linejoin:round;" transform="translate(0 0) scale(1 1)">
</g>
<g style="fill:#848484; fill-opacity:0.0;  stroke:#848484; stroke-width:0.0000; stroke-opacity:1;  stroke-linecap:round; stroke-linejoin:round;">
</g>
<g style="fill:#848484; fill-opacity:0.01;  stroke:#848484; stroke-width:1.0448; stroke-opacity:1;  stroke-linecap:round; stroke-linejoin:round;">
<text x="152.7220" y="128.2185" textLength="20.6468" font-size="9.2869" lengthAdjust="spacingAndGlyphs" text-anchor="middle" opacity="0.01" style="font-family:monospace">TP3</text>
<g class="stroked-text"><desc>TP3</desc>
<path d="M143.9326 120.9387 L147.9127 120.9387 "/>
<path d="M145.9227 127.9038 L145.9227 120.9387 "/>
<path d="M150.2344 127.9038 L150.2344 120.9387 "/>
<path d="M150.2344 120.9387 L152.8878 120.9387 "/>
<path d="M152.8878 120.9387 L153.5512 121.2703 "/>
<path d="M153.5512 121.2703 L153.8829 121.6020 "/>
<path d="M153.8829 121.6020 L154.2145 122.2654 "/>
<path d="M154.2145 122.2654 L154.2145 123.2604 "/>
<path d="M154.2145 123.2604 L153.8829 123.9237 "/>
<path d="M153.8829 123.9237 L153.5512 124.2554 "/>
<path d="M153.5512 124.2554 L152.8878 124.5871 "/>
<path d="M152.8878 124.5871 L150.2344 124.5871 "/>
<path d="M156.5363 120.9387 L160.8480 120.9387 "/>
<path d="M160.8480 120.9387 L158.5263 123.5921 "/>
<path d="M158.5263 123.5921 L159.5213 123.5921 "/>
<path d="M159.5213 123.5921 L160.1847 123.9237 "/>
<path d="M160.1847 123.9237 L160.5164 124.2554 "/>
<path d="M160.5164 124.2554 L160.8480 124.9188 "/>
<path d="M160.8480 124.9188 L160.8480 126.5771 "/>
<path d="M160.8480 126.5771 L160.5164 127.2405 "/>
<path d="M160.5164 127.2405 L160.1847 127.5722 "/>
<path d="M160.1847 127.5722 L159.5213 127.9038 "/>
<path d="M159.5213 127.9038 L157.5313 127.9038 "/>
<path d="M157.5313 127.9038 L156.8679 127.5722 "/>
<path d="M156.8679 127.5722 L156.5363 127.2405 "/>
</g><text x="169.4384" y="142.8454" textLength="20.6468" font-size="9.2869" lengthAdjust="spacingAndGlyphs" text-anchor="middle" opacity="0.01" style="font-family:monospace">TP1</text>
<g class="stroked-text"><desc>TP1</desc>
<path d="M160.6490 135.5655 L164.6291 135.5655 "/>
<path d="M162.6391 142.5307 L162.6391 135.5655 "/>
<path d="M166.9508 142.5307 L166.9508 135.5655 "/>
<path d="M166.9508 135.5655 L169.6042 135.5655 "/>
<path d="M169.6042 135.5655 L170.2676 135.8972 "/>
<path d="M170.2676 135.8972 L170.5993 136.2289 "/>
<path d="M170.5993 136.2289 L170.9309 136.8922 "/>
<path d="M170.9309 136.8922 L170.9309 137.8872 "/>
<path d="M170.9309 137.8872 L170.5993 138.5506 "/>
<path d="M170.5993 138.5506 L170.2676 138.8823 "/>
<path d="M170.2676 138.8823 L169.6042 139.2139 "/>
<path d="M169.6042 139.2139 L166.9508 139.2139 "/>
<path d="M177.5644 142.5307 L173.5843 142.5307 "/>
<path d="M175.5744 142.5307 L175.5744 135.5655 "/>
<path d="M175.5744 135.5655 L174.9110 136.5605 "/>
<path d="M174.9110 136.5605 L174.2477 137.2239 "/>
<path d="M174.2477 137.2239 L173.5843 137.5556 "/>
</g><text x="169.4384" y="128.2185" textLength="20.6468" font-size="9.2869" lengthAdjust="spacingAndGlyphs" text-anchor="middle" opacity="0.01" style="font-family:monospace">TP4</text>
<g class="stroked-text"><desc>TP4</desc>
<path d="M160.6490 120.9387 L164.6291 120.9387 "/>
<path d="M162.6391 127.9038 L162.6391 120.9387 "/>
<path d="M166.9508 127.9038 L166.9508 120.9387 "/>
<path d="M166.9508 120.9387 L169.6042 120.9387 "/>
<path d="M169.6042 120.9387 L170.2676 121.2703 "/>
<path d="M170.2676 121.2703 L170.5993 121.6020 "/>
<path d="M170.5993 121.6020 L170.9309 122.2654 "/>
<path d="M170.9309 122.2654 L170.9309 123.2604 "/>
<path d="M170.9309 123.2604 L170.5993 123.9237 "/>
<path d="M170.5993 123.9237 L170.2676 124.2554 "/>
<path d="M170.2676 124.2554 L169.6042 124.5871 "/>
<path d="M169.6042 124.5871 L166.9508 124.5871 "/>
<path d="M176.9011 123.2604 L176.9011 127.9038 "/>
<path d="M175.2427 120.6070 L173.5843 125.5821 "/>
<path d="M173.5843 125.5821 L177.8961 125.5821 "/>
</g><text x="152.7220" y="142.8454" textLength="20.6468" font-size="9.2869" lengthAdjust="spacingAndGlyphs" text-anchor="middle" opacity="0.01" style="font-family:monospace">TP2</text>
<g class="stroked-text"><desc>TP2</desc>
<path d="M143.9326 135.5655 L147.9127 135.5655 "/>
<path d="M145.9227 142.5307 L145.9227 135.5655 "/>
<path d="M150.2344 142.5307 L150.2344 135.5655 "/>
<path d="M150.2344 135.5655 L152.8878 135.5655 "/>
<path d="M152.8878 135.5655 L153.5512 135.8972 "/>
<path d="M153.5512 135.8972 L153.8829 136.2289 "/>
<path d="M153.8829 136.2289 L154.2145 136.8922 "/>
<path d="M154.2145 136.8922 L154.2145 137.8872 "/>
<path d="M154.2145 137.8872 L153.8829 138.5506 "/>
<path d="M153.8829 138.5506 L153.5512 138.8823 "/>
<path d="M153.5512 138.8823 L152.8878 139.2139 "/>
<path d="M152.8878 139.2139 L150.2344 139.2139 "/>
<path d="M156.8679 136.2289 L157.1996 135.8972 "/>
<path d="M157.1996 135.8972 L157.8630 135.5655 "/>
<path d="M157.8630 135.5655 L159.5213 135.5655 "/>
<path d="M159.5213 135.5655 L160.1847 135.8972 "/>
<path d="M160.1847 135.8972 L160.5164 136.2289 "/>
<path d="M160.5164 136.2289 L160.8480 136.8922 "/>
<path d="M160.8480 136.8922 L160.8480 137.5556 "/>
<path d="M160.8480 137.5556 L160.5164 138.5506 "/>
<path d="M160.5164 138.5506 L156.5363 142.5307 "/>
<path d="M156.5363 142.5307 L160.8480 142.5307 "/>
</g><g>
</g>
<g>
</g>
<g>
</g>
<g>
</g>
<g>
</g>
<g>
</g>
<g>
</g>
<g>
</g>
<g>
</g>
<g>
</g>
<g>
</g>
<g>
</g>
<g>
</g>
<g>
</g>
<g>
</g>
<g>
</g>
<g>
</g>
<g>
</g>
<g>
</g>
<g>
</g>
<g>
</g>
<g>
</g>
<g>
</g>
<g>
</g>
<g>
</g>
<g>
</g>
<g>
</g>
<g>
</g>
<g>
</g>
<g>
</g>
<g>
</g>
<g>
</g>
<g>
</g>
<g>
</g>
<g>
</g>
<g>
</g>
<g>
</g>
<g>
</g>
<g>
</g>
<g>
</g>
<g>
</g>
<g>
</g>
</g> 
<svg:g><svg:g><svg:title>SVG Image created as TFUSBSERIAL01-Edge_Cuts.svg date 2023/10/04 13:21:54 </svg:title>
  <svg:desc>Image generated by PCBNEW </svg:desc>
<svg:g style="fill:#C2C200; fill-opacity:1.0000;stroke:#C2C200; stroke-opacity:1.0000; stroke-linecap:round; stroke-linejoin:round;" transform="translate(0 0) scale(1 1)">
</svg:g>
<svg:g style="fill:#C2C200; fill-opacity:0.0;  stroke:#C2C200; stroke-width:0.0000; stroke-opacity:1;  stroke-linecap:round; stroke-linejoin:round;">
</svg:g>
<svg:g style="fill:#C2C200; fill-opacity:0.0;  stroke:#C2C200; stroke-width:1.0448; stroke-opacity:1;  stroke-linecap:round; stroke-linejoin:round;">
<svg:path d="M44.0235 0.5260 L44.0235 209.4812 "/>
<svg:path d="M252.9787 209.4812 L252.9787 0.5260 "/>
<svg:path d="M44.0235 209.4812 L252.9787 209.4812 "/>
<svg:path d="M252.9787 0.5260 L44.0235 0.5260 "/>
<svg:g>
</svg:g>
<svg:g>
</svg:g>
<svg:g>
</svg:g>
<svg:g>
</svg:g>
<svg:g>
</svg:g>
<svg:g>
</svg:g>
<svg:g>
</svg:g>
<svg:g>
</svg:g>
<svg:g>
</svg:g>
<svg:g>
</svg:g>
<svg:g>
</svg:g>
<svg:g>
</svg:g>
<svg:g>
</svg:g>
<svg:g>
</svg:g>
<svg:g>
</svg:g>
<svg:g>
</svg:g>
<svg:g>
</svg:g>
<svg:g>
</svg:g>
<svg:g>
</svg:g>
<svg:g>
</svg:g>
<svg:g>
</svg:g>
<svg:g>
</svg:g>
<svg:g>
</svg:g>
<svg:g>
</svg:g>
<svg:g>
</svg:g>
<svg:g>
</svg:g>
<svg:g>
</svg:g>
<svg:g>
</svg:g>
<svg:g>
</svg:g>
<svg:g>
</svg:g>
<svg:g>
</svg:g>
<svg:g>
</svg:g>
<svg:g>
</svg:g>
<svg:g>
</svg:g>
<svg:g>
</svg:g>
<svg:g>
</svg:g>
<svg:g>
</svg:g>
<svg:g>
</svg:g>
<svg:g>
</svg:g>
<svg:g>
</svg:g>
<svg:g>
</svg:g>
<svg:g>
</svg:g>
</svg:g> 
</svg:g></svg:g></svg>
