<?xml version='1.0' encoding='ASCII' standalone='yes'?>
<svg xmlns:svg="http://www.w3.org/2000/svg" xmlns="http://www.w3.org/2000/svg" xmlns:xlink="http://www.w3.org/1999/xlink" version="1.1" width="297.0022mm" height="210.0072mm" viewBox="0.0000 0.0000 297.0022 210.0072">
<title>SVG Image created as TFUSBSERIAL01-B_Fab.svg date 2023/11/13 01:14:19 </title>
  <desc>Image generated by PCBNEW </desc>
<g style="fill:#000084; fill-opacity:1.0000;stroke:#000084; stroke-opacity:1.0000; stroke-linecap:round; stroke-linejoin:round;" transform="translate(0 0) scale(1 1)">
</g>
<g style="fill:#000084; fill-opacity:0.0;  stroke:#000084; stroke-width:0.0000; stroke-opacity:1;  stroke-linecap:round; stroke-linejoin:round;">
</g>
<g style="fill:#000084; fill-opacity:0.01;  stroke:#000084; stroke-width:1.0448; stroke-opacity:1;  stroke-linecap:round; stroke-linejoin:round;">
<text x="71.8424" y="121.2534" transform="scale(-1 1) translate(-143.684788 0)" textLength="15.3400" font-size="9.2869" lengthAdjust="spacingAndGlyphs" text-anchor="middle" opacity="0.01" style="font-family:monospace">D1</text>
<g class="stroked-text"><desc>D1</desc>
<path d="M66.7014 120.9387 L66.7014 113.9735 "/>
<path d="M66.7014 113.9735 L68.3598 113.9735 "/>
<path d="M68.3598 113.9735 L69.3548 114.3052 "/>
<path d="M69.3548 114.3052 L70.0182 114.9685 "/>
<path d="M70.0182 114.9685 L70.3499 115.6319 "/>
<path d="M70.3499 115.6319 L70.6815 116.9586 "/>
<path d="M70.6815 116.9586 L70.6815 117.9536 "/>
<path d="M70.6815 117.9536 L70.3499 119.2803 "/>
<path d="M70.3499 119.2803 L70.0182 119.9436 "/>
<path d="M70.0182 119.9436 L69.3548 120.6070 "/>
<path d="M69.3548 120.6070 L68.3598 120.9387 "/>
<path d="M68.3598 120.9387 L66.7014 120.9387 "/>
<path d="M77.3150 120.9387 L73.3349 120.9387 "/>
<path d="M75.3250 120.9387 L75.3250 113.9735 "/>
<path d="M75.3250 113.9735 L74.6616 114.9685 "/>
<path d="M74.6616 114.9685 L73.9983 115.6319 "/>
<path d="M73.9983 115.6319 L73.3349 115.9635 "/>
</g><g transform="rotate(-90.000000 228.1130 21.4215)">
<text x="228.1130" y="24.2076" transform="scale(-1 1) translate(-456.226082 0)" textLength="29.0846" font-size="7.4295" lengthAdjust="spacingAndGlyphs" text-anchor="middle" opacity="0.01" style="font-family:monospace">GREEN</text>
</g>
<g class="stroked-text"><desc>GREEN</desc>
<path d="M230.8964 12.1346 L231.1617 11.6039 "/>
<path d="M231.1617 11.6039 L231.1617 10.8079 "/>
<path d="M231.1617 10.8079 L230.8964 10.0119 "/>
<path d="M230.8964 10.0119 L230.3657 9.4812 "/>
<path d="M230.3657 9.4812 L229.8350 9.2159 "/>
<path d="M229.8350 9.2159 L228.7737 8.9505 "/>
<path d="M228.7737 8.9505 L227.9777 8.9505 "/>
<path d="M227.9777 8.9505 L226.9163 9.2159 "/>
<path d="M226.9163 9.2159 L226.3856 9.4812 "/>
<path d="M226.3856 9.4812 L225.8549 10.0119 "/>
<path d="M225.8549 10.0119 L225.5896 10.8079 "/>
<path d="M225.5896 10.8079 L225.5896 11.3386 "/>
<path d="M225.5896 11.3386 L225.8549 12.1346 "/>
<path d="M225.8549 12.1346 L226.1203 12.4000 "/>
<path d="M226.1203 12.4000 L227.9777 12.4000 "/>
<path d="M227.9777 12.4000 L227.9777 11.3386 "/>
<path d="M225.5896 17.9721 L228.2430 16.1147 "/>
<path d="M225.5896 14.7880 L231.1617 14.7880 "/>
<path d="M231.1617 14.7880 L231.1617 16.9107 "/>
<path d="M231.1617 16.9107 L230.8964 17.4414 "/>
<path d="M230.8964 17.4414 L230.6311 17.7067 "/>
<path d="M230.6311 17.7067 L230.1004 17.9721 "/>
<path d="M230.1004 17.9721 L229.3044 17.9721 "/>
<path d="M229.3044 17.9721 L228.7737 17.7067 "/>
<path d="M228.7737 17.7067 L228.5083 17.4414 "/>
<path d="M228.5083 17.4414 L228.2430 16.9107 "/>
<path d="M228.2430 16.9107 L228.2430 14.7880 "/>
<path d="M228.5083 20.3602 L228.5083 22.2175 "/>
<path d="M225.5896 23.0135 L225.5896 20.3602 "/>
<path d="M225.5896 20.3602 L231.1617 20.3602 "/>
<path d="M231.1617 20.3602 L231.1617 23.0135 "/>
<path d="M228.5083 25.4016 L228.5083 27.2590 "/>
<path d="M225.5896 28.0550 L225.5896 25.4016 "/>
<path d="M225.5896 25.4016 L231.1617 25.4016 "/>
<path d="M231.1617 25.4016 L231.1617 28.0550 "/>
<path d="M225.5896 30.4431 L231.1617 30.4431 "/>
<path d="M231.1617 30.4431 L225.5896 33.6272 "/>
<path d="M225.5896 33.6272 L231.1617 33.6272 "/>
</g></g>
<g style="fill:#000084; fill-opacity:0.0;  stroke:#000084; stroke-width:0.4179; stroke-opacity:1;  stroke-linecap:round; stroke-linejoin:round;">
<g transform="rotate(-90.000000 218.1528 21.4215)">
<text x="218.1528" y="22.8145" transform="scale(-1 1) translate(-436.305684 0)" textLength="6.1360" font-size="3.7148" lengthAdjust="spacingAndGlyphs" text-anchor="middle" opacity="0.01" style="font-family:monospace">D3</text>
</g>
<g class="stroked-text"><desc>D3</desc>
<path d="M216.8857 19.3651 L219.6718 19.3651 "/>
<path d="M219.6718 19.3651 L219.6718 20.0285 "/>
<path d="M219.6718 20.0285 L219.5391 20.4265 "/>
<path d="M219.5391 20.4265 L219.2737 20.6918 "/>
<path d="M219.2737 20.6918 L219.0084 20.8245 "/>
<path d="M219.0084 20.8245 L218.4777 20.9572 "/>
<path d="M218.4777 20.9572 L218.0797 20.9572 "/>
<path d="M218.0797 20.9572 L217.5490 20.8245 "/>
<path d="M217.5490 20.8245 L217.2837 20.6918 "/>
<path d="M217.2837 20.6918 L217.0184 20.4265 "/>
<path d="M217.0184 20.4265 L216.8857 20.0285 "/>
<path d="M216.8857 20.0285 L216.8857 19.3651 "/>
<path d="M219.6718 21.8859 L219.6718 23.6106 "/>
<path d="M219.6718 23.6106 L218.6104 22.6819 "/>
<path d="M218.6104 22.6819 L218.6104 23.0799 "/>
<path d="M218.6104 23.0799 L218.4777 23.3452 "/>
<path d="M218.4777 23.3452 L218.3451 23.4779 "/>
<path d="M218.3451 23.4779 L218.0797 23.6106 "/>
<path d="M218.0797 23.6106 L217.4164 23.6106 "/>
<path d="M217.4164 23.6106 L217.1510 23.4779 "/>
<path d="M217.1510 23.4779 L217.0184 23.3452 "/>
<path d="M217.0184 23.3452 L216.8857 23.0799 "/>
<path d="M216.8857 23.0799 L216.8857 22.2839 "/>
<path d="M216.8857 22.2839 L217.0184 22.0185 "/>
<path d="M217.0184 22.0185 L217.1510 21.8859 "/>
</g><g transform="rotate(-90.000000 115.7230 138.3180)">
<text x="115.7230" y="139.7111" transform="scale(-1 1) translate(-231.445982 0)" textLength="6.1360" font-size="3.7148" lengthAdjust="spacingAndGlyphs" text-anchor="middle" opacity="0.01" style="font-family:monospace">C5</text>
</g>
<g class="stroked-text"><desc>C5</desc>
<path d="M114.7212 137.8537 L114.5885 137.7210 "/>
<path d="M114.5885 137.7210 L114.4558 137.3230 "/>
<path d="M114.4558 137.3230 L114.4558 137.0577 "/>
<path d="M114.4558 137.0577 L114.5885 136.6596 "/>
<path d="M114.5885 136.6596 L114.8538 136.3943 "/>
<path d="M114.8538 136.3943 L115.1192 136.2616 "/>
<path d="M115.1192 136.2616 L115.6499 136.1290 "/>
<path d="M115.6499 136.1290 L116.0479 136.1290 "/>
<path d="M116.0479 136.1290 L116.5786 136.2616 "/>
<path d="M116.5786 136.2616 L116.8439 136.3943 "/>
<path d="M116.8439 136.3943 L117.1092 136.6596 "/>
<path d="M117.1092 136.6596 L117.2419 137.0577 "/>
<path d="M117.2419 137.0577 L117.2419 137.3230 "/>
<path d="M117.2419 137.3230 L117.1092 137.7210 "/>
<path d="M117.1092 137.7210 L116.9766 137.8537 "/>
<path d="M117.2419 140.3744 L117.2419 139.0477 "/>
<path d="M117.2419 139.0477 L115.9152 138.9150 "/>
<path d="M115.9152 138.9150 L116.0479 139.0477 "/>
<path d="M116.0479 139.0477 L116.1805 139.3131 "/>
<path d="M116.1805 139.3131 L116.1805 139.9764 "/>
<path d="M116.1805 139.9764 L116.0479 140.2417 "/>
<path d="M116.0479 140.2417 L115.9152 140.3744 "/>
<path d="M115.9152 140.3744 L115.6499 140.5071 "/>
<path d="M115.6499 140.5071 L114.9865 140.5071 "/>
<path d="M114.9865 140.5071 L114.7212 140.3744 "/>
<path d="M114.7212 140.3744 L114.5885 140.2417 "/>
<path d="M114.5885 140.2417 L114.4558 139.9764 "/>
<path d="M114.4558 139.9764 L114.4558 139.3131 "/>
<path d="M114.4558 139.3131 L114.5885 139.0477 "/>
<path d="M114.5885 139.0477 L114.7212 138.9150 "/>
</g></g>
<g style="fill:#000084; fill-opacity:0.0;  stroke:#000084; stroke-width:1.0448; stroke-opacity:1;  stroke-linecap:round; stroke-linejoin:round;">
<g transform="rotate(-90.000000 228.0712 186.3777)">
<text x="228.0712" y="189.1638" transform="scale(-1 1) translate(-456.142500 0)" textLength="29.0846" font-size="7.4295" lengthAdjust="spacingAndGlyphs" text-anchor="middle" opacity="0.01" style="font-family:monospace">GREEN</text>
</g>
<g class="stroked-text"><desc>GREEN</desc>
<path d="M230.8546 177.0908 L231.1199 176.5602 "/>
<path d="M231.1199 176.5602 L231.1199 175.7641 "/>
<path d="M231.1199 175.7641 L230.8546 174.9681 "/>
<path d="M230.8546 174.9681 L230.3239 174.4374 "/>
<path d="M230.3239 174.4374 L229.7932 174.1721 "/>
<path d="M229.7932 174.1721 L228.7319 173.9067 "/>
<path d="M228.7319 173.9067 L227.9359 173.9067 "/>
<path d="M227.9359 173.9067 L226.8745 174.1721 "/>
<path d="M226.8745 174.1721 L226.3438 174.4374 "/>
<path d="M226.3438 174.4374 L225.8131 174.9681 "/>
<path d="M225.8131 174.9681 L225.5478 175.7641 "/>
<path d="M225.5478 175.7641 L225.5478 176.2948 "/>
<path d="M225.5478 176.2948 L225.8131 177.0908 "/>
<path d="M225.8131 177.0908 L226.0785 177.3562 "/>
<path d="M226.0785 177.3562 L227.9359 177.3562 "/>
<path d="M227.9359 177.3562 L227.9359 176.2948 "/>
<path d="M225.5478 182.9283 L228.2012 181.0709 "/>
<path d="M225.5478 179.7442 L231.1199 179.7442 "/>
<path d="M231.1199 179.7442 L231.1199 181.8670 "/>
<path d="M231.1199 181.8670 L230.8546 182.3976 "/>
<path d="M230.8546 182.3976 L230.5893 182.6630 "/>
<path d="M230.5893 182.6630 L230.0586 182.9283 "/>
<path d="M230.0586 182.9283 L229.2626 182.9283 "/>
<path d="M229.2626 182.9283 L228.7319 182.6630 "/>
<path d="M228.7319 182.6630 L228.4665 182.3976 "/>
<path d="M228.4665 182.3976 L228.2012 181.8670 "/>
<path d="M228.2012 181.8670 L228.2012 179.7442 "/>
<path d="M228.4665 185.3164 L228.4665 187.1737 "/>
<path d="M225.5478 187.9698 L225.5478 185.3164 "/>
<path d="M225.5478 185.3164 L231.1199 185.3164 "/>
<path d="M231.1199 185.3164 L231.1199 187.9698 "/>
<path d="M228.4665 190.3578 L228.4665 192.2152 "/>
<path d="M225.5478 193.0112 L225.5478 190.3578 "/>
<path d="M225.5478 190.3578 L231.1199 190.3578 "/>
<path d="M231.1199 190.3578 L231.1199 193.0112 "/>
<path d="M225.5478 195.3993 L231.1199 195.3993 "/>
<path d="M231.1199 195.3993 L225.5478 198.5834 "/>
<path d="M225.5478 198.5834 L231.1199 198.5834 "/>
</g></g>
<g style="fill:#000084; fill-opacity:0.0;  stroke:#000084; stroke-width:0.4179; stroke-opacity:1;  stroke-linecap:round; stroke-linejoin:round;">
<g transform="rotate(-90.000000 218.1111 186.3777)">
<text x="218.1111" y="187.7708" transform="scale(-1 1) translate(-436.222101 0)" textLength="6.1360" font-size="3.7148" lengthAdjust="spacingAndGlyphs" text-anchor="middle" opacity="0.01" style="font-family:monospace">D4</text>
</g>
<g class="stroked-text"><desc>D4</desc>
<path d="M216.8439 184.3213 L219.6300 184.3213 "/>
<path d="M219.6300 184.3213 L219.6300 184.9847 "/>
<path d="M219.6300 184.9847 L219.4973 185.3827 "/>
<path d="M219.4973 185.3827 L219.2320 185.6480 "/>
<path d="M219.2320 185.6480 L218.9666 185.7807 "/>
<path d="M218.9666 185.7807 L218.4359 185.9134 "/>
<path d="M218.4359 185.9134 L218.0379 185.9134 "/>
<path d="M218.0379 185.9134 L217.5072 185.7807 "/>
<path d="M217.5072 185.7807 L217.2419 185.6480 "/>
<path d="M217.2419 185.6480 L216.9766 185.3827 "/>
<path d="M216.9766 185.3827 L216.8439 184.9847 "/>
<path d="M216.8439 184.9847 L216.8439 184.3213 "/>
<path d="M218.7013 188.3014 L216.8439 188.3014 "/>
<path d="M219.7626 187.6381 L217.7726 186.9747 "/>
<path d="M217.7726 186.9747 L217.7726 188.6995 "/>
</g><g transform="rotate(-90.000000 170.7130 49.8116)">
<text x="170.7130" y="51.2046" transform="scale(-1 1) translate(-341.426082 0)" textLength="6.1360" font-size="3.7148" lengthAdjust="spacingAndGlyphs" text-anchor="middle" opacity="0.01" style="font-family:monospace">R5</text>
</g>
<g class="stroked-text"><desc>R5</desc>
<path d="M169.4459 49.3472 L170.7726 48.4185 "/>
<path d="M169.4459 47.7552 L172.2320 47.7552 "/>
<path d="M172.2320 47.7552 L172.2320 48.8165 "/>
<path d="M172.2320 48.8165 L172.0993 49.0819 "/>
<path d="M172.0993 49.0819 L171.9666 49.2145 "/>
<path d="M171.9666 49.2145 L171.7013 49.3472 "/>
<path d="M171.7013 49.3472 L171.3033 49.3472 "/>
<path d="M171.3033 49.3472 L171.0379 49.2145 "/>
<path d="M171.0379 49.2145 L170.9053 49.0819 "/>
<path d="M170.9053 49.0819 L170.7726 48.8165 "/>
<path d="M170.7726 48.8165 L170.7726 47.7552 "/>
<path d="M172.2320 51.8679 L172.2320 50.5412 "/>
<path d="M172.2320 50.5412 L170.9053 50.4086 "/>
<path d="M170.9053 50.4086 L171.0379 50.5412 "/>
<path d="M171.0379 50.5412 L171.1706 50.8066 "/>
<path d="M171.1706 50.8066 L171.1706 51.4699 "/>
<path d="M171.1706 51.4699 L171.0379 51.7353 "/>
<path d="M171.0379 51.7353 L170.9053 51.8679 "/>
<path d="M170.9053 51.8679 L170.6399 52.0006 "/>
<path d="M170.6399 52.0006 L169.9766 52.0006 "/>
<path d="M169.9766 52.0006 L169.7112 51.8679 "/>
<path d="M169.7112 51.8679 L169.5786 51.7353 "/>
<path d="M169.5786 51.7353 L169.4459 51.4699 "/>
<path d="M169.4459 51.4699 L169.4459 50.8066 "/>
<path d="M169.4459 50.8066 L169.5786 50.5412 "/>
<path d="M169.5786 50.5412 L169.7112 50.4086 "/>
</g><g transform="rotate(-90.000000 189.2892 49.8185)">
<text x="189.2892" y="51.2116" transform="scale(-1 1) translate(-378.578320 0)" textLength="6.1360" font-size="3.7148" lengthAdjust="spacingAndGlyphs" text-anchor="middle" opacity="0.01" style="font-family:monospace">R6</text>
</g>
<g class="stroked-text"><desc>R6</desc>
<path d="M188.0220 49.3542 L189.3487 48.4255 "/>
<path d="M188.0220 47.7621 L190.8081 47.7621 "/>
<path d="M190.8081 47.7621 L190.8081 48.8235 "/>
<path d="M190.8081 48.8235 L190.6754 49.0888 "/>
<path d="M190.6754 49.0888 L190.5427 49.2215 "/>
<path d="M190.5427 49.2215 L190.2774 49.3542 "/>
<path d="M190.2774 49.3542 L189.8794 49.3542 "/>
<path d="M189.8794 49.3542 L189.6140 49.2215 "/>
<path d="M189.6140 49.2215 L189.4814 49.0888 "/>
<path d="M189.4814 49.0888 L189.3487 48.8235 "/>
<path d="M189.3487 48.8235 L189.3487 47.7621 "/>
<path d="M190.8081 51.7422 L190.8081 51.2116 "/>
<path d="M190.8081 51.2116 L190.6754 50.9462 "/>
<path d="M190.6754 50.9462 L190.5427 50.8136 "/>
<path d="M190.5427 50.8136 L190.1447 50.5482 "/>
<path d="M190.1447 50.5482 L189.6140 50.4155 "/>
<path d="M189.6140 50.4155 L188.5527 50.4155 "/>
<path d="M188.5527 50.4155 L188.2873 50.5482 "/>
<path d="M188.2873 50.5482 L188.1547 50.6809 "/>
<path d="M188.1547 50.6809 L188.0220 50.9462 "/>
<path d="M188.0220 50.9462 L188.0220 51.4769 "/>
<path d="M188.0220 51.4769 L188.1547 51.7422 "/>
<path d="M188.1547 51.7422 L188.2873 51.8749 "/>
<path d="M188.2873 51.8749 L188.5527 52.0076 "/>
<path d="M188.5527 52.0076 L189.2160 52.0076 "/>
<path d="M189.2160 52.0076 L189.4814 51.8749 "/>
<path d="M189.4814 51.8749 L189.6140 51.7422 "/>
<path d="M189.6140 51.7422 L189.7467 51.4769 "/>
<path d="M189.7467 51.4769 L189.7467 50.9462 "/>
<path d="M189.7467 50.9462 L189.6140 50.6809 "/>
<path d="M189.6140 50.6809 L189.4814 50.5482 "/>
<path d="M189.4814 50.5482 L189.2160 50.4155 "/>
</g><g transform="rotate(-90.000000 142.1907 77.1986)">
<text x="142.1907" y="78.5917" transform="scale(-1 1) translate(-284.381305 0)" textLength="6.1360" font-size="3.7148" lengthAdjust="spacingAndGlyphs" text-anchor="middle" opacity="0.01" style="font-family:monospace">C2</text>
</g>
<g class="stroked-text"><desc>C2</desc>
<path d="M141.1888 76.7343 L141.0562 76.6016 "/>
<path d="M141.0562 76.6016 L140.9235 76.2036 "/>
<path d="M140.9235 76.2036 L140.9235 75.9383 "/>
<path d="M140.9235 75.9383 L141.0562 75.5402 "/>
<path d="M141.0562 75.5402 L141.3215 75.2749 "/>
<path d="M141.3215 75.2749 L141.5868 75.1422 "/>
<path d="M141.5868 75.1422 L142.1175 75.0096 "/>
<path d="M142.1175 75.0096 L142.5155 75.0096 "/>
<path d="M142.5155 75.0096 L143.0462 75.1422 "/>
<path d="M143.0462 75.1422 L143.3116 75.2749 "/>
<path d="M143.3116 75.2749 L143.5769 75.5402 "/>
<path d="M143.5769 75.5402 L143.7096 75.9383 "/>
<path d="M143.7096 75.9383 L143.7096 76.2036 "/>
<path d="M143.7096 76.2036 L143.5769 76.6016 "/>
<path d="M143.5769 76.6016 L143.4442 76.7343 "/>
<path d="M143.4442 77.7956 L143.5769 77.9283 "/>
<path d="M143.5769 77.9283 L143.7096 78.1936 "/>
<path d="M143.7096 78.1936 L143.7096 78.8570 "/>
<path d="M143.7096 78.8570 L143.5769 79.1223 "/>
<path d="M143.5769 79.1223 L143.4442 79.2550 "/>
<path d="M143.4442 79.2550 L143.1789 79.3877 "/>
<path d="M143.1789 79.3877 L142.9135 79.3877 "/>
<path d="M142.9135 79.3877 L142.5155 79.2550 "/>
<path d="M142.5155 79.2550 L140.9235 77.6630 "/>
<path d="M140.9235 77.6630 L140.9235 79.3877 "/>
</g><g transform="rotate(-90.000000 206.2703 186.5519)">
<text x="206.2703" y="187.9449" transform="scale(-1 1) translate(-412.540509 0)" textLength="6.1360" font-size="3.7148" lengthAdjust="spacingAndGlyphs" text-anchor="middle" opacity="0.01" style="font-family:monospace">R7</text>
</g>
<g class="stroked-text"><desc>R7</desc>
<path d="M205.0031 186.0875 L206.3298 185.1588 "/>
<path d="M205.0031 184.4955 L207.7892 184.4955 "/>
<path d="M207.7892 184.4955 L207.7892 185.5568 "/>
<path d="M207.7892 185.5568 L207.6565 185.8222 "/>
<path d="M207.6565 185.8222 L207.5238 185.9548 "/>
<path d="M207.5238 185.9548 L207.2585 186.0875 "/>
<path d="M207.2585 186.0875 L206.8605 186.0875 "/>
<path d="M206.8605 186.0875 L206.5951 185.9548 "/>
<path d="M206.5951 185.9548 L206.4625 185.8222 "/>
<path d="M206.4625 185.8222 L206.3298 185.5568 "/>
<path d="M206.3298 185.5568 L206.3298 184.4955 "/>
<path d="M207.7892 187.0162 L207.7892 188.8736 "/>
<path d="M207.7892 188.8736 L205.0031 187.6795 "/>
</g></g>
<g style="fill:#000084; fill-opacity:0.0;  stroke:#000084; stroke-width:0.5572; stroke-opacity:1;  stroke-linecap:round; stroke-linejoin:round;">
<g transform="rotate(-90.000000 176.9051 145.2832)">
<text x="176.9051" y="147.0245" transform="scale(-1 1) translate(-353.810161 0)" textLength="10.7595" font-size="4.6434" lengthAdjust="spacingAndGlyphs" text-anchor="middle" opacity="0.01" style="font-family:monospace">FB1</text>
</g>
<g class="stroked-text"><desc>FB1</desc>
<path d="M177.1472 142.3811 L177.1472 141.2202 "/>
<path d="M175.3229 141.2202 L178.8055 141.2202 "/>
<path d="M178.8055 141.2202 L178.8055 142.8786 "/>
<path d="M177.1472 145.3661 L176.9813 145.8636 "/>
<path d="M176.9813 145.8636 L176.8155 146.0295 "/>
<path d="M176.8155 146.0295 L176.4838 146.1953 "/>
<path d="M176.4838 146.1953 L175.9863 146.1953 "/>
<path d="M175.9863 146.1953 L175.6546 146.0295 "/>
<path d="M175.6546 146.0295 L175.4888 145.8636 "/>
<path d="M175.4888 145.8636 L175.3229 145.5320 "/>
<path d="M175.3229 145.5320 L175.3229 144.2053 "/>
<path d="M175.3229 144.2053 L178.8055 144.2053 "/>
<path d="M178.8055 144.2053 L178.8055 145.3661 "/>
<path d="M178.8055 145.3661 L178.6397 145.6978 "/>
<path d="M178.6397 145.6978 L178.4739 145.8636 "/>
<path d="M178.4739 145.8636 L178.1422 146.0295 "/>
<path d="M178.1422 146.0295 L177.8105 146.0295 "/>
<path d="M177.8105 146.0295 L177.4788 145.8636 "/>
<path d="M177.4788 145.8636 L177.3130 145.6978 "/>
<path d="M177.3130 145.6978 L177.1472 145.3661 "/>
<path d="M177.1472 145.3661 L177.1472 144.2053 "/>
<path d="M175.3229 149.5121 L175.3229 147.5220 "/>
<path d="M175.3229 148.5170 L178.8055 148.5170 "/>
<path d="M178.8055 148.5170 L178.3080 148.1854 "/>
<path d="M178.3080 148.1854 L177.9763 147.8537 "/>
<path d="M177.9763 147.8537 L177.8105 147.5220 "/>
</g></g>
<g style="fill:#000084; fill-opacity:0.0;  stroke:#000084; stroke-width:1.0448; stroke-opacity:1;  stroke-linecap:round; stroke-linejoin:round;">
<g transform="rotate(-90.000000 66.3329 49.8603)">
<text x="66.3329" y="53.3429" transform="scale(-1 1) translate(-132.665883 0)" textLength="13.6816" font-size="9.2869" lengthAdjust="spacingAndGlyphs" text-anchor="middle" opacity="0.01" style="font-family:monospace">J2</text>
</g>
<g class="stroked-text"><desc>J2</desc>
<path d="M70.1302 47.5386 L65.1551 47.5386 "/>
<path d="M65.1551 47.5386 L64.1601 47.2069 "/>
<path d="M64.1601 47.2069 L63.4967 46.5436 "/>
<path d="M63.4967 46.5436 L63.1650 45.5485 "/>
<path d="M63.1650 45.5485 L63.1650 44.8852 "/>
<path d="M69.4669 50.5237 L69.7985 50.8553 "/>
<path d="M69.7985 50.8553 L70.1302 51.5187 "/>
<path d="M70.1302 51.5187 L70.1302 53.1771 "/>
<path d="M70.1302 53.1771 L69.7985 53.8404 "/>
<path d="M69.7985 53.8404 L69.4669 54.1721 "/>
<path d="M69.4669 54.1721 L68.8035 54.5038 "/>
<path d="M68.8035 54.5038 L68.1402 54.5038 "/>
<path d="M68.1402 54.5038 L67.1452 54.1721 "/>
<path d="M67.1452 54.1721 L63.1650 50.1920 "/>
<path d="M63.1650 50.1920 L63.1650 54.5038 "/>
</g><g transform="rotate(-90.000000 128.9568 107.6713)">
<text x="128.9568" y="111.1538" transform="scale(-1 1) translate(-257.913644 0)" textLength="15.6716" font-size="9.2869" lengthAdjust="spacingAndGlyphs" text-anchor="middle" opacity="0.01" style="font-family:monospace">U2</text>
</g>
<g class="stroked-text"><desc>U2</desc>
<path d="M132.7541 102.3645 L127.1156 102.3645 "/>
<path d="M127.1156 102.3645 L126.4523 102.6961 "/>
<path d="M126.4523 102.6961 L126.1206 103.0278 "/>
<path d="M126.1206 103.0278 L125.7889 103.6912 "/>
<path d="M125.7889 103.6912 L125.7889 105.0179 "/>
<path d="M125.7889 105.0179 L126.1206 105.6812 "/>
<path d="M126.1206 105.6812 L126.4523 106.0129 "/>
<path d="M126.4523 106.0129 L127.1156 106.3446 "/>
<path d="M127.1156 106.3446 L132.7541 106.3446 "/>
<path d="M132.0908 109.3296 L132.4224 109.6613 "/>
<path d="M132.4224 109.6613 L132.7541 110.3247 "/>
<path d="M132.7541 110.3247 L132.7541 111.9830 "/>
<path d="M132.7541 111.9830 L132.4224 112.6464 "/>
<path d="M132.4224 112.6464 L132.0908 112.9781 "/>
<path d="M132.0908 112.9781 L131.4274 113.3097 "/>
<path d="M131.4274 113.3097 L130.7641 113.3097 "/>
<path d="M130.7641 113.3097 L129.7690 112.9781 "/>
<path d="M129.7690 112.9781 L125.7889 108.9980 "/>
<path d="M125.7889 108.9980 L125.7889 113.3097 "/>
</g></g>
<g style="fill:#000084; fill-opacity:0.0;  stroke:#000084; stroke-width:0.4179; stroke-opacity:1;  stroke-linecap:round; stroke-linejoin:round;">
<g transform="rotate(-90.000000 126.8673 145.9797)">
<text x="126.8673" y="147.3728" transform="scale(-1 1) translate(-253.734539 0)" textLength="6.1360" font-size="3.7148" lengthAdjust="spacingAndGlyphs" text-anchor="middle" opacity="0.01" style="font-family:monospace">R9</text>
</g>
<g class="stroked-text"><desc>R9</desc>
<path d="M125.6001 145.5154 L126.9268 144.5867 "/>
<path d="M125.6001 143.9233 L128.3862 143.9233 "/>
<path d="M128.3862 143.9233 L128.3862 144.9847 "/>
<path d="M128.3862 144.9847 L128.2535 145.2500 "/>
<path d="M128.2535 145.2500 L128.1208 145.3827 "/>
<path d="M128.1208 145.3827 L127.8555 145.5154 "/>
<path d="M127.8555 145.5154 L127.4575 145.5154 "/>
<path d="M127.4575 145.5154 L127.1922 145.3827 "/>
<path d="M127.1922 145.3827 L127.0595 145.2500 "/>
<path d="M127.0595 145.2500 L126.9268 144.9847 "/>
<path d="M126.9268 144.9847 L126.9268 143.9233 "/>
<path d="M125.6001 146.8421 L125.6001 147.3728 "/>
<path d="M125.6001 147.3728 L125.7328 147.6381 "/>
<path d="M125.7328 147.6381 L125.8655 147.7708 "/>
<path d="M125.8655 147.7708 L126.2635 148.0361 "/>
<path d="M126.2635 148.0361 L126.7941 148.1688 "/>
<path d="M126.7941 148.1688 L127.8555 148.1688 "/>
<path d="M127.8555 148.1688 L128.1208 148.0361 "/>
<path d="M128.1208 148.0361 L128.2535 147.9034 "/>
<path d="M128.2535 147.9034 L128.3862 147.6381 "/>
<path d="M128.3862 147.6381 L128.3862 147.1074 "/>
<path d="M128.3862 147.1074 L128.2535 146.8421 "/>
<path d="M128.2535 146.8421 L128.1208 146.7094 "/>
<path d="M128.1208 146.7094 L127.8555 146.5767 "/>
<path d="M127.8555 146.5767 L127.1922 146.5767 "/>
<path d="M127.1922 146.5767 L126.9268 146.7094 "/>
<path d="M126.9268 146.7094 L126.7941 146.8421 "/>
<path d="M126.7941 146.8421 L126.6615 147.1074 "/>
<path d="M126.6615 147.1074 L126.6615 147.6381 "/>
<path d="M126.6615 147.6381 L126.7941 147.9034 "/>
<path d="M126.7941 147.9034 L126.9268 148.0361 "/>
<path d="M126.9268 148.0361 L127.1922 148.1688 "/>
</g><g transform="rotate(-90.000000 208.7499 49.8116)">
<text x="208.7499" y="51.2046" transform="scale(-1 1) translate(-417.499713 0)" textLength="6.1360" font-size="3.7148" lengthAdjust="spacingAndGlyphs" text-anchor="middle" opacity="0.01" style="font-family:monospace">R2</text>
</g>
<g class="stroked-text"><desc>R2</desc>
<path d="M207.4827 49.3472 L208.8094 48.4185 "/>
<path d="M207.4827 47.7552 L210.2688 47.7552 "/>
<path d="M210.2688 47.7552 L210.2688 48.8165 "/>
<path d="M210.2688 48.8165 L210.1361 49.0819 "/>
<path d="M210.1361 49.0819 L210.0034 49.2145 "/>
<path d="M210.0034 49.2145 L209.7381 49.3472 "/>
<path d="M209.7381 49.3472 L209.3401 49.3472 "/>
<path d="M209.3401 49.3472 L209.0747 49.2145 "/>
<path d="M209.0747 49.2145 L208.9421 49.0819 "/>
<path d="M208.9421 49.0819 L208.8094 48.8165 "/>
<path d="M208.8094 48.8165 L208.8094 47.7552 "/>
<path d="M210.0034 50.4086 L210.1361 50.5412 "/>
<path d="M210.1361 50.5412 L210.2688 50.8066 "/>
<path d="M210.2688 50.8066 L210.2688 51.4699 "/>
<path d="M210.2688 51.4699 L210.1361 51.7353 "/>
<path d="M210.1361 51.7353 L210.0034 51.8679 "/>
<path d="M210.0034 51.8679 L209.7381 52.0006 "/>
<path d="M209.7381 52.0006 L209.4728 52.0006 "/>
<path d="M209.4728 52.0006 L209.0747 51.8679 "/>
<path d="M209.0747 51.8679 L207.4827 50.2759 "/>
<path d="M207.4827 50.2759 L207.4827 52.0006 "/>
</g><g transform="rotate(-90.000000 165.1757 143.8902)">
<text x="165.1757" y="145.2832" transform="scale(-1 1) translate(-330.351455 0)" textLength="6.1360" font-size="3.7148" lengthAdjust="spacingAndGlyphs" text-anchor="middle" opacity="0.01" style="font-family:monospace">C1</text>
</g>
<g class="stroked-text"><desc>C1</desc>
<path d="M164.1739 143.4258 L164.0412 143.2931 "/>
<path d="M164.0412 143.2931 L163.9086 142.8951 "/>
<path d="M163.9086 142.8951 L163.9086 142.6298 "/>
<path d="M163.9086 142.6298 L164.0412 142.2318 "/>
<path d="M164.0412 142.2318 L164.3066 141.9664 "/>
<path d="M164.3066 141.9664 L164.5719 141.8338 "/>
<path d="M164.5719 141.8338 L165.1026 141.7011 "/>
<path d="M165.1026 141.7011 L165.5006 141.7011 "/>
<path d="M165.5006 141.7011 L166.0313 141.8338 "/>
<path d="M166.0313 141.8338 L166.2966 141.9664 "/>
<path d="M166.2966 141.9664 L166.5620 142.2318 "/>
<path d="M166.5620 142.2318 L166.6946 142.6298 "/>
<path d="M166.6946 142.6298 L166.6946 142.8951 "/>
<path d="M166.6946 142.8951 L166.5620 143.2931 "/>
<path d="M166.5620 143.2931 L166.4293 143.4258 "/>
<path d="M163.9086 146.0792 L163.9086 144.4872 "/>
<path d="M163.9086 145.2832 L166.6946 145.2832 "/>
<path d="M166.6946 145.2832 L166.2966 145.0179 "/>
<path d="M166.2966 145.0179 L166.0313 144.7525 "/>
<path d="M166.0313 144.7525 L165.8986 144.4872 "/>
</g><g transform="rotate(-90.000000 188.8573 152.0742)">
<text x="188.8573" y="153.4673" transform="scale(-1 1) translate(-377.714639 0)" textLength="6.1360" font-size="3.7148" lengthAdjust="spacingAndGlyphs" text-anchor="middle" opacity="0.01" style="font-family:monospace">C3</text>
</g>
<g class="stroked-text"><desc>C3</desc>
<path d="M187.8555 151.6099 L187.7228 151.4772 "/>
<path d="M187.7228 151.4772 L187.5902 151.0792 "/>
<path d="M187.5902 151.0792 L187.5902 150.8139 "/>
<path d="M187.5902 150.8139 L187.7228 150.4159 "/>
<path d="M187.7228 150.4159 L187.9882 150.1505 "/>
<path d="M187.9882 150.1505 L188.2535 150.0179 "/>
<path d="M188.2535 150.0179 L188.7842 149.8852 "/>
<path d="M188.7842 149.8852 L189.1822 149.8852 "/>
<path d="M189.1822 149.8852 L189.7129 150.0179 "/>
<path d="M189.7129 150.0179 L189.9782 150.1505 "/>
<path d="M189.9782 150.1505 L190.2436 150.4159 "/>
<path d="M190.2436 150.4159 L190.3762 150.8139 "/>
<path d="M190.3762 150.8139 L190.3762 151.0792 "/>
<path d="M190.3762 151.0792 L190.2436 151.4772 "/>
<path d="M190.2436 151.4772 L190.1109 151.6099 "/>
<path d="M190.3762 152.5386 L190.3762 154.2633 "/>
<path d="M190.3762 154.2633 L189.3149 153.3346 "/>
<path d="M189.3149 153.3346 L189.3149 153.7326 "/>
<path d="M189.3149 153.7326 L189.1822 153.9980 "/>
<path d="M189.1822 153.9980 L189.0495 154.1306 "/>
<path d="M189.0495 154.1306 L188.7842 154.2633 "/>
<path d="M188.7842 154.2633 L188.1208 154.2633 "/>
<path d="M188.1208 154.2633 L187.8555 154.1306 "/>
<path d="M187.8555 154.1306 L187.7228 153.9980 "/>
<path d="M187.7228 153.9980 L187.5902 153.7326 "/>
<path d="M187.5902 153.7326 L187.5902 152.9366 "/>
<path d="M187.5902 152.9366 L187.7228 152.6713 "/>
<path d="M187.7228 152.6713 L187.8555 152.5386 "/>
</g></g>
<g style="fill:#000084; fill-opacity:0.0;  stroke:#000084; stroke-width:0.1045; stroke-opacity:1;  stroke-linecap:round; stroke-linejoin:round;">
<g transform="rotate(-90.000000 249.5156 67.3917)">
<text x="249.5156" y="68.5061" transform="scale(-1 1) translate(-499.031256 0)" textLength="15.0451" font-size="2.9718" lengthAdjust="spacingAndGlyphs" text-anchor="middle" opacity="0.01" style="font-family:monospace">PCB~{EDGE}</text>
</g>
<g class="stroked-text"><desc>PCB~{EDGE}</desc>
<path d="M248.4900 60.3336 L250.7188 60.3336 "/>
<path d="M250.7188 60.3336 L250.7188 61.1827 "/>
<path d="M250.7188 61.1827 L250.6127 61.3950 "/>
<path d="M250.6127 61.3950 L250.5065 61.5011 "/>
<path d="M250.5065 61.5011 L250.2943 61.6072 "/>
<path d="M250.2943 61.6072 L249.9759 61.6072 "/>
<path d="M249.9759 61.6072 L249.7636 61.5011 "/>
<path d="M249.7636 61.5011 L249.6574 61.3950 "/>
<path d="M249.6574 61.3950 L249.5513 61.1827 "/>
<path d="M249.5513 61.1827 L249.5513 60.3336 "/>
<path d="M248.7022 63.8361 L248.5961 63.7300 "/>
<path d="M248.5961 63.7300 L248.4900 63.4116 "/>
<path d="M248.4900 63.4116 L248.4900 63.1993 "/>
<path d="M248.4900 63.1993 L248.5961 62.8809 "/>
<path d="M248.5961 62.8809 L248.8084 62.6686 "/>
<path d="M248.8084 62.6686 L249.0206 62.5625 "/>
<path d="M249.0206 62.5625 L249.4452 62.4563 "/>
<path d="M249.4452 62.4563 L249.7636 62.4563 "/>
<path d="M249.7636 62.4563 L250.1881 62.5625 "/>
<path d="M250.1881 62.5625 L250.4004 62.6686 "/>
<path d="M250.4004 62.6686 L250.6127 62.8809 "/>
<path d="M250.6127 62.8809 L250.7188 63.1993 "/>
<path d="M250.7188 63.1993 L250.7188 63.4116 "/>
<path d="M250.7188 63.4116 L250.6127 63.7300 "/>
<path d="M250.6127 63.7300 L250.5065 63.8361 "/>
<path d="M249.6574 65.5343 L249.5513 65.8527 "/>
<path d="M249.5513 65.8527 L249.4452 65.9588 "/>
<path d="M249.4452 65.9588 L249.2329 66.0650 "/>
<path d="M249.2329 66.0650 L248.9145 66.0650 "/>
<path d="M248.9145 66.0650 L248.7022 65.9588 "/>
<path d="M248.7022 65.9588 L248.5961 65.8527 "/>
<path d="M248.5961 65.8527 L248.4900 65.6404 "/>
<path d="M248.4900 65.6404 L248.4900 64.7913 "/>
<path d="M248.4900 64.7913 L250.7188 64.7913 "/>
<path d="M250.7188 64.7913 L250.7188 65.5343 "/>
<path d="M250.7188 65.5343 L250.6127 65.7465 "/>
<path d="M250.6127 65.7465 L250.5065 65.8527 "/>
<path d="M250.5065 65.8527 L250.2943 65.9588 "/>
<path d="M250.2943 65.9588 L250.0820 65.9588 "/>
<path d="M250.0820 65.9588 L249.8697 65.8527 "/>
<path d="M249.8697 65.8527 L249.7636 65.7465 "/>
<path d="M249.7636 65.7465 L249.6574 65.5343 "/>
<path d="M249.6574 65.5343 L249.6574 64.7913 "/>
<path d="M249.6574 67.0202 L249.6574 67.7631 "/>
<path d="M248.4900 68.0815 L248.4900 67.0202 "/>
<path d="M248.4900 67.0202 L250.7188 67.0202 "/>
<path d="M250.7188 67.0202 L250.7188 68.0815 "/>
<path d="M248.4900 69.0368 L250.7188 69.0368 "/>
<path d="M250.7188 69.0368 L250.7188 69.5674 "/>
<path d="M250.7188 69.5674 L250.6127 69.8859 "/>
<path d="M250.6127 69.8859 L250.4004 70.0981 "/>
<path d="M250.4004 70.0981 L250.1881 70.2043 "/>
<path d="M250.1881 70.2043 L249.7636 70.3104 "/>
<path d="M249.7636 70.3104 L249.4452 70.3104 "/>
<path d="M249.4452 70.3104 L249.0206 70.2043 "/>
<path d="M249.0206 70.2043 L248.8084 70.0981 "/>
<path d="M248.8084 70.0981 L248.5961 69.8859 "/>
<path d="M248.5961 69.8859 L248.4900 69.5674 "/>
<path d="M248.4900 69.5674 L248.4900 69.0368 "/>
<path d="M250.6127 72.4331 L250.7188 72.2208 "/>
<path d="M250.7188 72.2208 L250.7188 71.9024 "/>
<path d="M250.7188 71.9024 L250.6127 71.5840 "/>
<path d="M250.6127 71.5840 L250.4004 71.3718 "/>
<path d="M250.4004 71.3718 L250.1881 71.2656 "/>
<path d="M250.1881 71.2656 L249.7636 71.1595 "/>
<path d="M249.7636 71.1595 L249.4452 71.1595 "/>
<path d="M249.4452 71.1595 L249.0206 71.2656 "/>
<path d="M249.0206 71.2656 L248.8084 71.3718 "/>
<path d="M248.8084 71.3718 L248.5961 71.5840 "/>
<path d="M248.5961 71.5840 L248.4900 71.9024 "/>
<path d="M248.4900 71.9024 L248.4900 72.1147 "/>
<path d="M248.4900 72.1147 L248.5961 72.4331 "/>
<path d="M248.5961 72.4331 L248.7022 72.5393 "/>
<path d="M248.7022 72.5393 L249.4452 72.5393 "/>
<path d="M249.4452 72.5393 L249.4452 72.1147 "/>
<path d="M249.6574 73.4945 L249.6574 74.2374 "/>
<path d="M248.4900 74.5558 L248.4900 73.4945 "/>
<path d="M248.4900 73.4945 L250.7188 73.4945 "/>
<path d="M250.7188 73.4945 L250.7188 74.5558 "/>
<path d="M251.3376 66.7124 L251.3376 74.7575 "/>
</g></g>
<g style="fill:#000084; fill-opacity:0.01;  stroke:#000084; stroke-width:0.4179; stroke-opacity:1;  stroke-linecap:round; stroke-linejoin:round;">
<text x="166.3076" y="106.3966" transform="scale(-1 1) translate(-332.615136 0)" textLength="6.2687" font-size="3.7148" lengthAdjust="spacingAndGlyphs" text-anchor="middle" opacity="0.01" style="font-family:monospace">U1</text>
<g class="stroked-text"><desc>U1</desc>
<path d="M164.1849 103.4847 L164.1849 105.7401 "/>
<path d="M164.1849 105.7401 L164.3175 106.0054 "/>
<path d="M164.3175 106.0054 L164.4502 106.1381 "/>
<path d="M164.4502 106.1381 L164.7155 106.2708 "/>
<path d="M164.7155 106.2708 L165.2462 106.2708 "/>
<path d="M165.2462 106.2708 L165.5116 106.1381 "/>
<path d="M165.5116 106.1381 L165.6442 106.0054 "/>
<path d="M165.6442 106.0054 L165.7769 105.7401 "/>
<path d="M165.7769 105.7401 L165.7769 103.4847 "/>
<path d="M168.5630 106.2708 L166.9709 106.2708 "/>
<path d="M167.7669 106.2708 L167.7669 103.4847 "/>
<path d="M167.7669 103.4847 L167.5016 103.8827 "/>
<path d="M167.5016 103.8827 L167.2363 104.1480 "/>
<path d="M167.2363 104.1480 L166.9709 104.2807 "/>
</g></g>
<g style="fill:#000084; fill-opacity:0.01;  stroke:#000084; stroke-width:0.5572; stroke-opacity:1;  stroke-linecap:round; stroke-linejoin:round;">
<text x="115.2877" y="31.4026" transform="scale(-1 1) translate(-230.575335 0)" textLength="7.2769" font-size="4.6434" lengthAdjust="spacingAndGlyphs" text-anchor="middle" opacity="0.01" style="font-family:monospace">F1</text>
<g class="stroked-text"><desc>F1</desc>
<path d="M114.1268 29.4192 L112.9660 29.4192 "/>
<path d="M112.9660 31.2434 L112.9660 27.7609 "/>
<path d="M112.9660 27.7609 L114.6243 27.7609 "/>
<path d="M117.7752 31.2434 L115.7852 31.2434 "/>
<path d="M116.7802 31.2434 L116.7802 27.7609 "/>
<path d="M116.7802 27.7609 L116.4485 28.2584 "/>
<path d="M116.4485 28.2584 L116.1169 28.5900 "/>
<path d="M116.1169 28.5900 L115.7852 28.7559 "/>
</g></g>
<g style="fill:#000084; fill-opacity:0.01;  stroke:#000084; stroke-width:0.4179; stroke-opacity:1;  stroke-linecap:round; stroke-linejoin:round;">
<g transform="rotate(-90.000000 105.2752 117.5966)">
<text x="105.2752" y="118.9897" transform="scale(-1 1) translate(-210.550460 0)" textLength="8.7894" font-size="3.7148" lengthAdjust="spacingAndGlyphs" text-anchor="middle" opacity="0.01" style="font-family:monospace">R10</text>
</g>
<g class="stroked-text"><desc>R10</desc>
<path d="M104.0081 115.8056 L105.3348 114.8769 "/>
<path d="M104.0081 114.2136 L106.7941 114.2136 "/>
<path d="M106.7941 114.2136 L106.7941 115.2749 "/>
<path d="M106.7941 115.2749 L106.6615 115.5403 "/>
<path d="M106.6615 115.5403 L106.5288 115.6729 "/>
<path d="M106.5288 115.6729 L106.2635 115.8056 "/>
<path d="M106.2635 115.8056 L105.8655 115.8056 "/>
<path d="M105.8655 115.8056 L105.6001 115.6729 "/>
<path d="M105.6001 115.6729 L105.4674 115.5403 "/>
<path d="M105.4674 115.5403 L105.3348 115.2749 "/>
<path d="M105.3348 115.2749 L105.3348 114.2136 "/>
<path d="M104.0081 118.4590 L104.0081 116.8670 "/>
<path d="M104.0081 117.6630 L106.7941 117.6630 "/>
<path d="M106.7941 117.6630 L106.3961 117.3976 "/>
<path d="M106.3961 117.3976 L106.1308 117.1323 "/>
<path d="M106.1308 117.1323 L105.9981 116.8670 "/>
<path d="M106.7941 120.1837 L106.7941 120.4490 "/>
<path d="M106.7941 120.4490 L106.6615 120.7144 "/>
<path d="M106.6615 120.7144 L106.5288 120.8470 "/>
<path d="M106.5288 120.8470 L106.2635 120.9797 "/>
<path d="M106.2635 120.9797 L105.7328 121.1124 "/>
<path d="M105.7328 121.1124 L105.0694 121.1124 "/>
<path d="M105.0694 121.1124 L104.5388 120.9797 "/>
<path d="M104.5388 120.9797 L104.2734 120.8470 "/>
<path d="M104.2734 120.8470 L104.1407 120.7144 "/>
<path d="M104.1407 120.7144 L104.0081 120.4490 "/>
<path d="M104.0081 120.4490 L104.0081 120.1837 "/>
<path d="M104.0081 120.1837 L104.1407 119.9184 "/>
<path d="M104.1407 119.9184 L104.2734 119.7857 "/>
<path d="M104.2734 119.7857 L104.5388 119.6530 "/>
<path d="M104.5388 119.6530 L105.0694 119.5203 "/>
<path d="M105.0694 119.5203 L105.7328 119.5203 "/>
<path d="M105.7328 119.5203 L106.2635 119.6530 "/>
<path d="M106.2635 119.6530 L106.5288 119.7857 "/>
<path d="M106.5288 119.7857 L106.6615 119.9184 "/>
<path d="M106.6615 119.9184 L106.7941 120.1837 "/>
</g><g transform="rotate(-90.000000 223.7877 49.8116)">
<text x="223.7877" y="51.2046" transform="scale(-1 1) translate(-447.575335 0)" textLength="6.1360" font-size="3.7148" lengthAdjust="spacingAndGlyphs" text-anchor="middle" opacity="0.01" style="font-family:monospace">R1</text>
</g>
<g class="stroked-text"><desc>R1</desc>
<path d="M222.5205 49.3472 L223.8472 48.4185 "/>
<path d="M222.5205 47.7552 L225.3066 47.7552 "/>
<path d="M225.3066 47.7552 L225.3066 48.8165 "/>
<path d="M225.3066 48.8165 L225.1739 49.0819 "/>
<path d="M225.1739 49.0819 L225.0412 49.2145 "/>
<path d="M225.0412 49.2145 L224.7759 49.3472 "/>
<path d="M224.7759 49.3472 L224.3779 49.3472 "/>
<path d="M224.3779 49.3472 L224.1126 49.2145 "/>
<path d="M224.1126 49.2145 L223.9799 49.0819 "/>
<path d="M223.9799 49.0819 L223.8472 48.8165 "/>
<path d="M223.8472 48.8165 L223.8472 47.7552 "/>
<path d="M222.5205 52.0006 L222.5205 50.4086 "/>
<path d="M222.5205 51.2046 L225.3066 51.2046 "/>
<path d="M225.3066 51.2046 L224.9086 50.9393 "/>
<path d="M224.9086 50.9393 L224.6432 50.6739 "/>
<path d="M224.6432 50.6739 L224.5106 50.4086 "/>
</g><g transform="rotate(-90.000000 154.7280 143.8902)">
<text x="154.7280" y="145.2832" transform="scale(-1 1) translate(-309.455932 0)" textLength="8.7894" font-size="3.7148" lengthAdjust="spacingAndGlyphs" text-anchor="middle" opacity="0.01" style="font-family:monospace">R11</text>
</g>
<g class="stroked-text"><desc>R11</desc>
<path d="M153.4608 142.0991 L154.7875 141.1704 "/>
<path d="M153.4608 140.5071 L156.2469 140.5071 "/>
<path d="M156.2469 140.5071 L156.2469 141.5684 "/>
<path d="M156.2469 141.5684 L156.1142 141.8338 "/>
<path d="M156.1142 141.8338 L155.9815 141.9664 "/>
<path d="M155.9815 141.9664 L155.7162 142.0991 "/>
<path d="M155.7162 142.0991 L155.3182 142.0991 "/>
<path d="M155.3182 142.0991 L155.0528 141.9664 "/>
<path d="M155.0528 141.9664 L154.9202 141.8338 "/>
<path d="M154.9202 141.8338 L154.7875 141.5684 "/>
<path d="M154.7875 141.5684 L154.7875 140.5071 "/>
<path d="M153.4608 144.7525 L153.4608 143.1605 "/>
<path d="M153.4608 143.9565 L156.2469 143.9565 "/>
<path d="M156.2469 143.9565 L155.8489 143.6912 "/>
<path d="M155.8489 143.6912 L155.5835 143.4258 "/>
<path d="M155.5835 143.4258 L155.4509 143.1605 "/>
<path d="M153.4608 147.4059 L153.4608 145.8139 "/>
<path d="M153.4608 146.6099 L156.2469 146.6099 "/>
<path d="M156.2469 146.6099 L155.8489 146.3446 "/>
<path d="M155.8489 146.3446 L155.5835 146.0792 "/>
<path d="M155.5835 146.0792 L155.4509 145.8139 "/>
</g><g transform="rotate(-90.000000 129.6533 77.1986)">
<text x="129.6533" y="78.5917" transform="scale(-1 1) translate(-259.306679 0)" textLength="6.1360" font-size="3.7148" lengthAdjust="spacingAndGlyphs" text-anchor="middle" opacity="0.01" style="font-family:monospace">C4</text>
</g>
<g class="stroked-text"><desc>C4</desc>
<path d="M128.6515 76.7343 L128.5189 76.6016 "/>
<path d="M128.5189 76.6016 L128.3862 76.2036 "/>
<path d="M128.3862 76.2036 L128.3862 75.9383 "/>
<path d="M128.3862 75.9383 L128.5189 75.5402 "/>
<path d="M128.5189 75.5402 L128.7842 75.2749 "/>
<path d="M128.7842 75.2749 L129.0495 75.1422 "/>
<path d="M129.0495 75.1422 L129.5802 75.0096 "/>
<path d="M129.5802 75.0096 L129.9782 75.0096 "/>
<path d="M129.9782 75.0096 L130.5089 75.1422 "/>
<path d="M130.5089 75.1422 L130.7742 75.2749 "/>
<path d="M130.7742 75.2749 L131.0396 75.5402 "/>
<path d="M131.0396 75.5402 L131.1723 75.9383 "/>
<path d="M131.1723 75.9383 L131.1723 76.2036 "/>
<path d="M131.1723 76.2036 L131.0396 76.6016 "/>
<path d="M131.0396 76.6016 L130.9069 76.7343 "/>
<path d="M130.2436 79.1223 L128.3862 79.1223 "/>
<path d="M131.3049 78.4590 L129.3149 77.7956 "/>
<path d="M129.3149 77.7956 L129.3149 79.5203 "/>
</g><text x="141.5220" y="61.0046" transform="scale(-1 1) translate(-283.043992 0)" textLength="6.1360" font-size="3.7148" lengthAdjust="spacingAndGlyphs" text-anchor="middle" opacity="0.01" style="font-family:monospace">R3</text>
<g class="stroked-text"><desc>R3</desc>
<path d="M141.0577 60.8787 L140.1290 59.5520 "/>
<path d="M139.4656 60.8787 L139.4656 58.0926 "/>
<path d="M139.4656 58.0926 L140.5270 58.0926 "/>
<path d="M140.5270 58.0926 L140.7923 58.2253 "/>
<path d="M140.7923 58.2253 L140.9250 58.3580 "/>
<path d="M140.9250 58.3580 L141.0577 58.6233 "/>
<path d="M141.0577 58.6233 L141.0577 59.0213 "/>
<path d="M141.0577 59.0213 L140.9250 59.2867 "/>
<path d="M140.9250 59.2867 L140.7923 59.4193 "/>
<path d="M140.7923 59.4193 L140.5270 59.5520 "/>
<path d="M140.5270 59.5520 L139.4656 59.5520 "/>
<path d="M141.9863 58.0926 L143.7111 58.0926 "/>
<path d="M143.7111 58.0926 L142.7824 59.1540 "/>
<path d="M142.7824 59.1540 L143.1804 59.1540 "/>
<path d="M143.1804 59.1540 L143.4457 59.2867 "/>
<path d="M143.4457 59.2867 L143.5784 59.4193 "/>
<path d="M143.5784 59.4193 L143.7111 59.6847 "/>
<path d="M143.7111 59.6847 L143.7111 60.3480 "/>
<path d="M143.7111 60.3480 L143.5784 60.6134 "/>
<path d="M143.5784 60.6134 L143.4457 60.7460 "/>
<path d="M143.4457 60.7460 L143.1804 60.8787 "/>
<path d="M143.1804 60.8787 L142.3844 60.8787 "/>
<path d="M142.3844 60.8787 L142.1190 60.7460 "/>
<path d="M142.1190 60.7460 L141.9863 60.6134 "/>
</g></g>
<g style="fill:#000084; fill-opacity:0.0;  stroke:#000084; stroke-width:1.0448; stroke-opacity:1;  stroke-linecap:round; stroke-linejoin:round;">
<g transform="rotate(-90.000000 207.2175 21.4215)">
<text x="207.2175" y="24.2076" transform="scale(-1 1) translate(-414.435037 0)" textLength="18.2056" font-size="7.4295" lengthAdjust="spacingAndGlyphs" text-anchor="middle" opacity="0.01" style="font-family:monospace">RED</text>
</g>
<g class="stroked-text"><desc>RED</desc>
<path d="M204.6941 17.8394 L207.3475 15.9820 "/>
<path d="M204.6941 14.6553 L210.2662 14.6553 "/>
<path d="M210.2662 14.6553 L210.2662 16.7781 "/>
<path d="M210.2662 16.7781 L210.0009 17.3087 "/>
<path d="M210.0009 17.3087 L209.7355 17.5741 "/>
<path d="M209.7355 17.5741 L209.2048 17.8394 "/>
<path d="M209.2048 17.8394 L208.4088 17.8394 "/>
<path d="M208.4088 17.8394 L207.8782 17.5741 "/>
<path d="M207.8782 17.5741 L207.6128 17.3087 "/>
<path d="M207.6128 17.3087 L207.3475 16.7781 "/>
<path d="M207.3475 16.7781 L207.3475 14.6553 "/>
<path d="M207.6128 20.2275 L207.6128 22.0849 "/>
<path d="M204.6941 22.8809 L204.6941 20.2275 "/>
<path d="M204.6941 20.2275 L210.2662 20.2275 "/>
<path d="M210.2662 20.2275 L210.2662 22.8809 "/>
<path d="M204.6941 25.2689 L210.2662 25.2689 "/>
<path d="M210.2662 25.2689 L210.2662 26.5956 "/>
<path d="M210.2662 26.5956 L210.0009 27.3917 "/>
<path d="M210.0009 27.3917 L209.4702 27.9223 "/>
<path d="M209.4702 27.9223 L208.9395 28.1877 "/>
<path d="M208.9395 28.1877 L207.8782 28.4530 "/>
<path d="M207.8782 28.4530 L207.0821 28.4530 "/>
<path d="M207.0821 28.4530 L206.0208 28.1877 "/>
<path d="M206.0208 28.1877 L205.4901 27.9223 "/>
<path d="M205.4901 27.9223 L204.9594 27.3917 "/>
<path d="M204.9594 27.3917 L204.6941 26.5956 "/>
<path d="M204.6941 26.5956 L204.6941 25.2689 "/>
</g></g>
<g style="fill:#000084; fill-opacity:0.0;  stroke:#000084; stroke-width:0.4179; stroke-opacity:1;  stroke-linecap:round; stroke-linejoin:round;">
<g transform="rotate(-90.000000 197.2573 21.4215)">
<text x="197.2573" y="22.8145" transform="scale(-1 1) translate(-394.514639 0)" textLength="6.1360" font-size="3.7148" lengthAdjust="spacingAndGlyphs" text-anchor="middle" opacity="0.01" style="font-family:monospace">D2</text>
</g>
<g class="stroked-text"><desc>D2</desc>
<path d="M195.9902 19.3651 L198.7762 19.3651 "/>
<path d="M198.7762 19.3651 L198.7762 20.0285 "/>
<path d="M198.7762 20.0285 L198.6436 20.4265 "/>
<path d="M198.6436 20.4265 L198.3782 20.6918 "/>
<path d="M198.3782 20.6918 L198.1129 20.8245 "/>
<path d="M198.1129 20.8245 L197.5822 20.9572 "/>
<path d="M197.5822 20.9572 L197.1842 20.9572 "/>
<path d="M197.1842 20.9572 L196.6535 20.8245 "/>
<path d="M196.6535 20.8245 L196.3882 20.6918 "/>
<path d="M196.3882 20.6918 L196.1228 20.4265 "/>
<path d="M196.1228 20.4265 L195.9902 20.0285 "/>
<path d="M195.9902 20.0285 L195.9902 19.3651 "/>
<path d="M198.5109 22.0185 L198.6436 22.1512 "/>
<path d="M198.6436 22.1512 L198.7762 22.4165 "/>
<path d="M198.7762 22.4165 L198.7762 23.0799 "/>
<path d="M198.7762 23.0799 L198.6436 23.3452 "/>
<path d="M198.6436 23.3452 L198.5109 23.4779 "/>
<path d="M198.5109 23.4779 L198.2456 23.6106 "/>
<path d="M198.2456 23.6106 L197.9802 23.6106 "/>
<path d="M197.9802 23.6106 L197.5822 23.4779 "/>
<path d="M197.5822 23.4779 L195.9902 21.8859 "/>
<path d="M195.9902 21.8859 L195.9902 23.6106 "/>
</g><g transform="rotate(-90.000000 108.7578 78.2434)">
<text x="108.7578" y="79.6364" transform="scale(-1 1) translate(-217.515634 0)" textLength="6.1360" font-size="3.7148" lengthAdjust="spacingAndGlyphs" text-anchor="middle" opacity="0.01" style="font-family:monospace">R8</text>
</g>
<g class="stroked-text"><desc>R8</desc>
<path d="M107.4907 77.7791 L108.8174 76.8504 "/>
<path d="M107.4907 76.1870 L110.2767 76.1870 "/>
<path d="M110.2767 76.1870 L110.2767 77.2484 "/>
<path d="M110.2767 77.2484 L110.1441 77.5137 "/>
<path d="M110.1441 77.5137 L110.0114 77.6464 "/>
<path d="M110.0114 77.6464 L109.7460 77.7791 "/>
<path d="M109.7460 77.7791 L109.3480 77.7791 "/>
<path d="M109.3480 77.7791 L109.0827 77.6464 "/>
<path d="M109.0827 77.6464 L108.9500 77.5137 "/>
<path d="M108.9500 77.5137 L108.8174 77.2484 "/>
<path d="M108.8174 77.2484 L108.8174 76.1870 "/>
<path d="M109.0827 79.3711 L109.2154 79.1058 "/>
<path d="M109.2154 79.1058 L109.3480 78.9731 "/>
<path d="M109.3480 78.9731 L109.6134 78.8404 "/>
<path d="M109.6134 78.8404 L109.7460 78.8404 "/>
<path d="M109.7460 78.8404 L110.0114 78.9731 "/>
<path d="M110.0114 78.9731 L110.1441 79.1058 "/>
<path d="M110.1441 79.1058 L110.2767 79.3711 "/>
<path d="M110.2767 79.3711 L110.2767 79.9018 "/>
<path d="M110.2767 79.9018 L110.1441 80.1671 "/>
<path d="M110.1441 80.1671 L110.0114 80.2998 "/>
<path d="M110.0114 80.2998 L109.7460 80.4325 "/>
<path d="M109.7460 80.4325 L109.6134 80.4325 "/>
<path d="M109.6134 80.4325 L109.3480 80.2998 "/>
<path d="M109.3480 80.2998 L109.2154 80.1671 "/>
<path d="M109.2154 80.1671 L109.0827 79.9018 "/>
<path d="M109.0827 79.9018 L109.0827 79.3711 "/>
<path d="M109.0827 79.3711 L108.9500 79.1058 "/>
<path d="M108.9500 79.1058 L108.8174 78.9731 "/>
<path d="M108.8174 78.9731 L108.5520 78.8404 "/>
<path d="M108.5520 78.8404 L108.0213 78.8404 "/>
<path d="M108.0213 78.8404 L107.7560 78.9731 "/>
<path d="M107.7560 78.9731 L107.6233 79.1058 "/>
<path d="M107.6233 79.1058 L107.4907 79.3711 "/>
<path d="M107.4907 79.3711 L107.4907 79.9018 "/>
<path d="M107.4907 79.9018 L107.6233 80.1671 "/>
<path d="M107.6233 80.1671 L107.7560 80.2998 "/>
<path d="M107.7560 80.2998 L108.0213 80.4325 "/>
<path d="M108.0213 80.4325 L108.5520 80.4325 "/>
<path d="M108.5520 80.4325 L108.8174 80.2998 "/>
<path d="M108.8174 80.2998 L108.9500 80.1671 "/>
<path d="M108.9500 80.1671 L109.0827 79.9018 "/>
</g></g>
<g style="fill:#000084; fill-opacity:0.0;  stroke:#000084; stroke-width:1.0448; stroke-opacity:1;  stroke-linecap:round; stroke-linejoin:round;">
<g transform="rotate(-90.000000 39.1688 159.9101)">
<text x="39.1688" y="162.6961" transform="scale(-1 1) translate(-78.337524 0)" textLength="70.2123" font-size="7.4295" lengthAdjust="spacingAndGlyphs" text-anchor="middle" opacity="0.01" style="font-family:monospace">SM06B-GHS-TB</text>
</g>
<g class="stroked-text"><desc>SM06B-GHS-TB</desc>
<path d="M36.9107 126.8752 L36.6453 127.6713 "/>
<path d="M36.6453 127.6713 L36.6453 128.9980 "/>
<path d="M36.6453 128.9980 L36.9107 129.5286 "/>
<path d="M36.9107 129.5286 L37.1760 129.7940 "/>
<path d="M37.1760 129.7940 L37.7067 130.0593 "/>
<path d="M37.7067 130.0593 L38.2374 130.0593 "/>
<path d="M38.2374 130.0593 L38.7680 129.7940 "/>
<path d="M38.7680 129.7940 L39.0334 129.5286 "/>
<path d="M39.0334 129.5286 L39.2987 128.9980 "/>
<path d="M39.2987 128.9980 L39.5641 127.9366 "/>
<path d="M39.5641 127.9366 L39.8294 127.4059 "/>
<path d="M39.8294 127.4059 L40.0947 127.1406 "/>
<path d="M40.0947 127.1406 L40.6254 126.8752 "/>
<path d="M40.6254 126.8752 L41.1561 126.8752 "/>
<path d="M41.1561 126.8752 L41.6868 127.1406 "/>
<path d="M41.6868 127.1406 L41.9521 127.4059 "/>
<path d="M41.9521 127.4059 L42.2175 127.9366 "/>
<path d="M42.2175 127.9366 L42.2175 129.2633 "/>
<path d="M42.2175 129.2633 L41.9521 130.0593 "/>
<path d="M36.6453 132.4474 L42.2175 132.4474 "/>
<path d="M42.2175 132.4474 L38.2374 134.3048 "/>
<path d="M38.2374 134.3048 L42.2175 136.1621 "/>
<path d="M42.2175 136.1621 L36.6453 136.1621 "/>
<path d="M42.2175 139.8769 L42.2175 140.4076 "/>
<path d="M42.2175 140.4076 L41.9521 140.9383 "/>
<path d="M41.9521 140.9383 L41.6868 141.2036 "/>
<path d="M41.6868 141.2036 L41.1561 141.4689 "/>
<path d="M41.1561 141.4689 L40.0947 141.7343 "/>
<path d="M40.0947 141.7343 L38.7680 141.7343 "/>
<path d="M38.7680 141.7343 L37.7067 141.4689 "/>
<path d="M37.7067 141.4689 L37.1760 141.2036 "/>
<path d="M37.1760 141.2036 L36.9107 140.9383 "/>
<path d="M36.9107 140.9383 L36.6453 140.4076 "/>
<path d="M36.6453 140.4076 L36.6453 139.8769 "/>
<path d="M36.6453 139.8769 L36.9107 139.3462 "/>
<path d="M36.9107 139.3462 L37.1760 139.0809 "/>
<path d="M37.1760 139.0809 L37.7067 138.8155 "/>
<path d="M37.7067 138.8155 L38.7680 138.5502 "/>
<path d="M38.7680 138.5502 L40.0947 138.5502 "/>
<path d="M40.0947 138.5502 L41.1561 138.8155 "/>
<path d="M41.1561 138.8155 L41.6868 139.0809 "/>
<path d="M41.6868 139.0809 L41.9521 139.3462 "/>
<path d="M41.9521 139.3462 L42.2175 139.8769 "/>
<path d="M42.2175 146.5104 L42.2175 145.4490 "/>
<path d="M42.2175 145.4490 L41.9521 144.9184 "/>
<path d="M41.9521 144.9184 L41.6868 144.6530 "/>
<path d="M41.6868 144.6530 L40.8908 144.1223 "/>
<path d="M40.8908 144.1223 L39.8294 143.8570 "/>
<path d="M39.8294 143.8570 L37.7067 143.8570 "/>
<path d="M37.7067 143.8570 L37.1760 144.1223 "/>
<path d="M37.1760 144.1223 L36.9107 144.3877 "/>
<path d="M36.9107 144.3877 L36.6453 144.9184 "/>
<path d="M36.6453 144.9184 L36.6453 145.9797 "/>
<path d="M36.6453 145.9797 L36.9107 146.5104 "/>
<path d="M36.9107 146.5104 L37.1760 146.7757 "/>
<path d="M37.1760 146.7757 L37.7067 147.0411 "/>
<path d="M37.7067 147.0411 L39.0334 147.0411 "/>
<path d="M39.0334 147.0411 L39.5641 146.7757 "/>
<path d="M39.5641 146.7757 L39.8294 146.5104 "/>
<path d="M39.8294 146.5104 L40.0947 145.9797 "/>
<path d="M40.0947 145.9797 L40.0947 144.9184 "/>
<path d="M40.0947 144.9184 L39.8294 144.3877 "/>
<path d="M39.8294 144.3877 L39.5641 144.1223 "/>
<path d="M39.5641 144.1223 L39.0334 143.8570 "/>
<path d="M39.5641 151.2865 L39.2987 152.0825 "/>
<path d="M39.2987 152.0825 L39.0334 152.3479 "/>
<path d="M39.0334 152.3479 L38.5027 152.6132 "/>
<path d="M38.5027 152.6132 L37.7067 152.6132 "/>
<path d="M37.7067 152.6132 L37.1760 152.3479 "/>
<path d="M37.1760 152.3479 L36.9107 152.0825 "/>
<path d="M36.9107 152.0825 L36.6453 151.5519 "/>
<path d="M36.6453 151.5519 L36.6453 149.4291 "/>
<path d="M36.6453 149.4291 L42.2175 149.4291 "/>
<path d="M42.2175 149.4291 L42.2175 151.2865 "/>
<path d="M42.2175 151.2865 L41.9521 151.8172 "/>
<path d="M41.9521 151.8172 L41.6868 152.0825 "/>
<path d="M41.6868 152.0825 L41.1561 152.3479 "/>
<path d="M41.1561 152.3479 L40.6254 152.3479 "/>
<path d="M40.6254 152.3479 L40.0947 152.0825 "/>
<path d="M40.0947 152.0825 L39.8294 151.8172 "/>
<path d="M39.8294 151.8172 L39.5641 151.2865 "/>
<path d="M39.5641 151.2865 L39.5641 149.4291 "/>
<path d="M38.7680 155.0013 L38.7680 159.2467 "/>
<path d="M41.9521 164.8189 L42.2175 164.2882 "/>
<path d="M42.2175 164.2882 L42.2175 163.4922 "/>
<path d="M42.2175 163.4922 L41.9521 162.6961 "/>
<path d="M41.9521 162.6961 L41.4214 162.1655 "/>
<path d="M41.4214 162.1655 L40.8908 161.9001 "/>
<path d="M40.8908 161.9001 L39.8294 161.6348 "/>
<path d="M39.8294 161.6348 L39.0334 161.6348 "/>
<path d="M39.0334 161.6348 L37.9720 161.9001 "/>
<path d="M37.9720 161.9001 L37.4413 162.1655 "/>
<path d="M37.4413 162.1655 L36.9107 162.6961 "/>
<path d="M36.9107 162.6961 L36.6453 163.4922 "/>
<path d="M36.6453 163.4922 L36.6453 164.0228 "/>
<path d="M36.6453 164.0228 L36.9107 164.8189 "/>
<path d="M36.9107 164.8189 L37.1760 165.0842 "/>
<path d="M37.1760 165.0842 L39.0334 165.0842 "/>
<path d="M39.0334 165.0842 L39.0334 164.0228 "/>
<path d="M36.6453 167.4723 L42.2175 167.4723 "/>
<path d="M39.5641 167.4723 L39.5641 170.6563 "/>
<path d="M36.6453 170.6563 L42.2175 170.6563 "/>
<path d="M36.9107 173.0444 L36.6453 173.8404 "/>
<path d="M36.6453 173.8404 L36.6453 175.1671 "/>
<path d="M36.6453 175.1671 L36.9107 175.6978 "/>
<path d="M36.9107 175.6978 L37.1760 175.9631 "/>
<path d="M37.1760 175.9631 L37.7067 176.2285 "/>
<path d="M37.7067 176.2285 L38.2374 176.2285 "/>
<path d="M38.2374 176.2285 L38.7680 175.9631 "/>
<path d="M38.7680 175.9631 L39.0334 175.6978 "/>
<path d="M39.0334 175.6978 L39.2987 175.1671 "/>
<path d="M39.2987 175.1671 L39.5641 174.1058 "/>
<path d="M39.5641 174.1058 L39.8294 173.5751 "/>
<path d="M39.8294 173.5751 L40.0947 173.3097 "/>
<path d="M40.0947 173.3097 L40.6254 173.0444 "/>
<path d="M40.6254 173.0444 L41.1561 173.0444 "/>
<path d="M41.1561 173.0444 L41.6868 173.3097 "/>
<path d="M41.6868 173.3097 L41.9521 173.5751 "/>
<path d="M41.9521 173.5751 L42.2175 174.1058 "/>
<path d="M42.2175 174.1058 L42.2175 175.4325 "/>
<path d="M42.2175 175.4325 L41.9521 176.2285 "/>
<path d="M38.7680 178.6165 L38.7680 182.8620 "/>
<path d="M42.2175 184.7194 L42.2175 187.9034 "/>
<path d="M36.6453 186.3114 L42.2175 186.3114 "/>
<path d="M39.5641 191.6182 L39.2987 192.4142 "/>
<path d="M39.2987 192.4142 L39.0334 192.6796 "/>
<path d="M39.0334 192.6796 L38.5027 192.9449 "/>
<path d="M38.5027 192.9449 L37.7067 192.9449 "/>
<path d="M37.7067 192.9449 L37.1760 192.6796 "/>
<path d="M37.1760 192.6796 L36.9107 192.4142 "/>
<path d="M36.9107 192.4142 L36.6453 191.8835 "/>
<path d="M36.6453 191.8835 L36.6453 189.7608 "/>
<path d="M36.6453 189.7608 L42.2175 189.7608 "/>
<path d="M42.2175 189.7608 L42.2175 191.6182 "/>
<path d="M42.2175 191.6182 L41.9521 192.1489 "/>
<path d="M41.9521 192.1489 L41.6868 192.4142 "/>
<path d="M41.6868 192.4142 L41.1561 192.6796 "/>
<path d="M41.1561 192.6796 L40.6254 192.6796 "/>
<path d="M40.6254 192.6796 L40.0947 192.4142 "/>
<path d="M40.0947 192.4142 L39.8294 192.1489 "/>
<path d="M39.8294 192.1489 L39.5641 191.6182 "/>
<path d="M39.5641 191.6182 L39.5641 189.7608 "/>
</g><g transform="rotate(-90.000000 66.3329 159.9101)">
<text x="66.3329" y="163.3927" transform="scale(-1 1) translate(-132.665883 0)" textLength="13.6816" font-size="9.2869" lengthAdjust="spacingAndGlyphs" text-anchor="middle" opacity="0.01" style="font-family:monospace">J3</text>
</g>
<g class="stroked-text"><desc>J3</desc>
<path d="M70.1302 157.5883 L65.1551 157.5883 "/>
<path d="M65.1551 157.5883 L64.1601 157.2567 "/>
<path d="M64.1601 157.2567 L63.4967 156.5933 "/>
<path d="M63.4967 156.5933 L63.1650 155.5983 "/>
<path d="M63.1650 155.5983 L63.1650 154.9349 "/>
<path d="M70.1302 160.2417 L70.1302 164.5535 "/>
<path d="M70.1302 164.5535 L67.4768 162.2318 "/>
<path d="M67.4768 162.2318 L67.4768 163.2268 "/>
<path d="M67.4768 163.2268 L67.1452 163.8902 "/>
<path d="M67.1452 163.8902 L66.8135 164.2218 "/>
<path d="M66.8135 164.2218 L66.1501 164.5535 "/>
<path d="M66.1501 164.5535 L64.4918 164.5535 "/>
<path d="M64.4918 164.5535 L63.8284 164.2218 "/>
<path d="M63.8284 164.2218 L63.4967 163.8902 "/>
<path d="M63.4967 163.8902 L63.1650 163.2268 "/>
<path d="M63.1650 163.2268 L63.1650 161.2368 "/>
<path d="M63.1650 161.2368 L63.4967 160.5734 "/>
<path d="M63.4967 160.5734 L63.8284 160.2417 "/>
</g></g>
<g style="fill:#000084; fill-opacity:0.01;  stroke:#000084; stroke-width:0.2786; stroke-opacity:1;  stroke-linecap:round; stroke-linejoin:round;">
<text x="156.8175" y="163.3927" transform="scale(-1 1) translate(-313.635037 0)" textLength="5.1343" font-size="1.8574" lengthAdjust="spacingAndGlyphs" text-anchor="middle" opacity="0.01" style="font-family:monospace">FID1</text>
<g class="stroked-text"><desc>FID1</desc>
<path d="M155.3250 162.5964 L154.8606 162.5964 "/>
<path d="M154.8606 163.3261 L154.8606 161.9331 "/>
<path d="M154.8606 161.9331 L155.5240 161.9331 "/>
<path d="M156.0547 163.3261 L156.0547 161.9331 "/>
<path d="M156.7180 163.3261 L156.7180 161.9331 "/>
<path d="M156.7180 161.9331 L157.0497 161.9331 "/>
<path d="M157.0497 161.9331 L157.2487 161.9994 "/>
<path d="M157.2487 161.9994 L157.3814 162.1321 "/>
<path d="M157.3814 162.1321 L157.4477 162.2647 "/>
<path d="M157.4477 162.2647 L157.5140 162.5301 "/>
<path d="M157.5140 162.5301 L157.5140 162.7291 "/>
<path d="M157.5140 162.7291 L157.4477 162.9944 "/>
<path d="M157.4477 162.9944 L157.3814 163.1271 "/>
<path d="M157.3814 163.1271 L157.2487 163.2598 "/>
<path d="M157.2487 163.2598 L157.0497 163.3261 "/>
<path d="M157.0497 163.3261 L156.7180 163.3261 "/>
<path d="M158.8407 163.3261 L158.0447 163.3261 "/>
<path d="M158.4427 163.3261 L158.4427 161.9331 "/>
<path d="M158.4427 161.9331 L158.3101 162.1321 "/>
<path d="M158.3101 162.1321 L158.1774 162.2647 "/>
<path d="M158.1774 162.2647 L158.0447 162.3311 "/>
</g></g>
<g style="fill:#000084; fill-opacity:0.01;  stroke:#000084; stroke-width:0.4179; stroke-opacity:1;  stroke-linecap:round; stroke-linejoin:round;">
<text x="141.5220" y="49.8812" transform="scale(-1 1) translate(-283.043992 0)" textLength="6.1360" font-size="3.7148" lengthAdjust="spacingAndGlyphs" text-anchor="middle" opacity="0.01" style="font-family:monospace">R4</text>
<g class="stroked-text"><desc>R4</desc>
<path d="M141.0577 49.7553 L140.1290 48.4286 "/>
<path d="M139.4656 49.7553 L139.4656 46.9693 "/>
<path d="M139.4656 46.9693 L140.5270 46.9693 "/>
<path d="M140.5270 46.9693 L140.7923 47.1019 "/>
<path d="M140.7923 47.1019 L140.9250 47.2346 "/>
<path d="M140.9250 47.2346 L141.0577 47.4999 "/>
<path d="M141.0577 47.4999 L141.0577 47.8979 "/>
<path d="M141.0577 47.8979 L140.9250 48.1633 "/>
<path d="M140.9250 48.1633 L140.7923 48.2960 "/>
<path d="M140.7923 48.2960 L140.5270 48.4286 "/>
<path d="M140.5270 48.4286 L139.4656 48.4286 "/>
<path d="M143.4457 47.8979 L143.4457 49.7553 "/>
<path d="M142.7824 46.8366 L142.1190 48.8266 "/>
<path d="M142.1190 48.8266 L143.8437 48.8266 "/>
</g></g>
<g style="fill:#000084; fill-opacity:0.01;  stroke:#000084; stroke-width:0.2786; stroke-opacity:1;  stroke-linecap:round; stroke-linejoin:round;">
<text x="110.1509" y="44.9847" transform="scale(-1 1) translate(-220.301703 0)" textLength="5.1343" font-size="1.8574" lengthAdjust="spacingAndGlyphs" text-anchor="middle" opacity="0.01" style="font-family:monospace">FID2</text>
<g class="stroked-text"><desc>FID2</desc>
<path d="M108.6583 44.1884 L108.1940 44.1884 "/>
<path d="M108.1940 44.9181 L108.1940 43.5251 "/>
<path d="M108.1940 43.5251 L108.8573 43.5251 "/>
<path d="M109.3880 44.9181 L109.3880 43.5251 "/>
<path d="M110.0514 44.9181 L110.0514 43.5251 "/>
<path d="M110.0514 43.5251 L110.3830 43.5251 "/>
<path d="M110.3830 43.5251 L110.5820 43.5914 "/>
<path d="M110.5820 43.5914 L110.7147 43.7241 "/>
<path d="M110.7147 43.7241 L110.7810 43.8568 "/>
<path d="M110.7810 43.8568 L110.8474 44.1221 "/>
<path d="M110.8474 44.1221 L110.8474 44.3211 "/>
<path d="M110.8474 44.3211 L110.7810 44.5865 "/>
<path d="M110.7810 44.5865 L110.7147 44.7191 "/>
<path d="M110.7147 44.7191 L110.5820 44.8518 "/>
<path d="M110.5820 44.8518 L110.3830 44.9181 "/>
<path d="M110.3830 44.9181 L110.0514 44.9181 "/>
<path d="M111.3781 43.6578 L111.4444 43.5914 "/>
<path d="M111.4444 43.5914 L111.5771 43.5251 "/>
<path d="M111.5771 43.5251 L111.9087 43.5251 "/>
<path d="M111.9087 43.5251 L112.0414 43.5914 "/>
<path d="M112.0414 43.5914 L112.1077 43.6578 "/>
<path d="M112.1077 43.6578 L112.1741 43.7904 "/>
<path d="M112.1741 43.7904 L112.1741 43.9231 "/>
<path d="M112.1741 43.9231 L112.1077 44.1221 "/>
<path d="M112.1077 44.1221 L111.3117 44.9181 "/>
<path d="M111.3117 44.9181 L112.1741 44.9181 "/>
</g></g>
<g style="fill:#000084; fill-opacity:0.0;  stroke:#000084; stroke-width:0.6965; stroke-opacity:1;  stroke-linecap:round; stroke-linejoin:round;">
<path d="M78.1111 100.0096 L78.1111 109.7608 "/>
<path d="M78.1111 109.7608 L65.5737 109.7608 "/>
<path d="M73.9319 104.8852 L75.3250 104.8852 "/>
<path d="M73.9319 104.8852 L70.4494 107.3230 "/>
<path d="M73.9319 107.3230 L73.9319 102.4474 "/>
<path d="M70.4494 102.4474 L73.9319 104.8852 "/>
<path d="M70.4494 104.8852 L68.7081 104.8852 "/>
<path d="M70.4494 107.3230 L70.4494 102.4474 "/>
<path d="M65.5737 100.0096 L78.1111 100.0096 "/>
<path d="M65.5737 109.7608 L65.5737 100.0096 "/>
<path d="M220.9389 26.9937 L220.9389 15.8494 "/>
<path d="M217.4563 26.9937 L220.9389 26.9937 "/>
<path d="M215.3668 24.9041 L217.4563 26.9937 "/>
<path d="M220.9389 15.8494 L215.3668 15.8494 "/>
<path d="M215.3668 15.8494 L215.3668 24.9041 "/>
<path d="M112.9369 132.7459 L118.5091 132.7459 "/>
<path d="M118.5091 132.7459 L118.5091 143.8902 "/>
<path d="M112.9369 143.8902 L112.9369 132.7459 "/>
<path d="M118.5091 143.8902 L112.9369 143.8902 "/>
<path d="M220.8971 191.9499 L220.8971 180.8056 "/>
<path d="M217.4145 191.9499 L220.8971 191.9499 "/>
<path d="M215.3250 189.8603 L217.4145 191.9499 "/>
<path d="M220.8971 180.8056 L215.3250 180.8056 "/>
<path d="M215.3250 180.8056 L215.3250 189.8603 "/>
<path d="M167.8399 44.2394 L173.5862 44.2394 "/>
<path d="M173.5862 44.2394 L173.5862 55.3837 "/>
<path d="M167.8399 55.3837 L167.8399 44.2394 "/>
<path d="M173.5862 55.3837 L167.8399 55.3837 "/>
<path d="M186.4160 44.2464 L192.1623 44.2464 "/>
<path d="M192.1623 44.2464 L192.1623 55.3907 "/>
<path d="M186.4160 55.3907 L186.4160 44.2464 "/>
<path d="M192.1623 55.3907 L186.4160 55.3907 "/>
<path d="M144.9767 82.7708 L139.4046 82.7708 "/>
<path d="M139.4046 82.7708 L139.4046 71.6265 "/>
<path d="M144.9767 71.6265 L144.9767 82.7708 "/>
<path d="M139.4046 71.6265 L144.9767 71.6265 "/>
<path d="M209.1434 192.1240 L203.3971 192.1240 "/>
<path d="M203.3971 192.1240 L203.3971 180.9797 "/>
<path d="M209.1434 180.9797 L209.1434 192.1240 "/>
<path d="M203.3971 180.9797 L209.1434 180.9797 "/>
<path d="M173.7708 138.3180 L180.0394 138.3180 "/>
<path d="M180.0394 138.3180 L180.0394 152.2484 "/>
<path d="M173.7708 152.2484 L173.7708 138.3180 "/>
<path d="M180.0394 152.2484 L173.7708 152.2484 "/>
<path d="M49.2683 12.4225 L49.2683 87.2981 "/>
<path d="M77.4772 12.4225 L49.2683 12.4225 "/>
<path d="M77.4772 12.4225 L77.4772 87.2981 "/>
<path d="M77.4772 24.6116 L72.5521 28.0941 "/>
<path d="M72.5521 28.0941 L77.4772 31.5767 "/>
<path d="M77.4772 87.2981 L49.2683 87.2981 "/>
<path d="M142.8872 121.6016 L121.9916 121.6016 "/>
<path d="M121.9916 121.6016 L115.0265 114.6364 "/>
<path d="M115.0265 114.6364 L115.0265 93.7409 "/>
<path d="M142.8872 93.7409 L142.8872 121.6016 "/>
<path d="M115.0265 93.7409 L142.8872 93.7409 "/>
<path d="M123.9941 140.4076 L129.7404 140.4076 "/>
<path d="M129.7404 140.4076 L129.7404 151.5519 "/>
<path d="M123.9941 151.5519 L123.9941 140.4076 "/>
<path d="M129.7404 151.5519 L123.9941 151.5519 "/>
<path d="M211.6230 55.3837 L205.8767 55.3837 "/>
<path d="M205.8767 55.3837 L205.8767 44.2394 "/>
<path d="M211.6230 44.2394 L211.6230 55.3837 "/>
<path d="M205.8767 44.2394 L211.6230 44.2394 "/>
<path d="M167.9618 149.4623 L162.3897 149.4623 "/>
<path d="M162.3897 149.4623 L162.3897 138.3180 "/>
<path d="M167.9618 138.3180 L167.9618 149.4623 "/>
<path d="M162.3897 138.3180 L167.9618 138.3180 "/>
<path d="M191.6434 157.6464 L186.0712 157.6464 "/>
<path d="M186.0712 157.6464 L186.0712 146.5021 "/>
<path d="M191.6434 146.5021 L191.6434 157.6464 "/>
<path d="M186.0712 146.5021 L191.6434 146.5021 "/>
<path d="M250.2121 138.3668 L197.7644 138.3668 "/>
<path d="M197.7644 138.3668 L197.7644 71.6404 "/>
<path d="M250.2121 71.6404 L250.2121 138.3668 "/>
<path d="M197.7644 71.6404 L250.2121 71.6404 "/>
<path d="M160.7354 115.1031 L160.7354 97.6902 "/>
<path d="M160.7354 97.6902 L163.5215 94.9041 "/>
<path d="M163.5215 94.9041 L171.8797 94.9041 "/>
<path d="M171.8797 115.1031 L160.7354 115.1031 "/>
<path d="M171.8797 94.9041 L171.8797 115.1031 "/>
<path d="M122.2528 25.4822 L122.2528 33.8404 "/>
<path d="M122.2528 33.8404 L108.3225 33.8404 "/>
<path d="M108.3225 25.4822 L122.2528 25.4822 "/>
<path d="M108.3225 33.8404 L108.3225 25.4822 "/>
<path d="M102.4021 112.0245 L108.1484 112.0245 "/>
<path d="M108.1484 112.0245 L108.1484 123.1688 "/>
<path d="M102.4021 123.1688 L102.4021 112.0245 "/>
<path d="M108.1484 123.1688 L102.4021 123.1688 "/>
<path d="M226.6608 55.3837 L220.9145 55.3837 "/>
<path d="M220.9145 55.3837 L220.9145 44.2394 "/>
<path d="M226.6608 44.2394 L226.6608 55.3837 "/>
<path d="M220.9145 44.2394 L226.6608 44.2394 "/>
<path d="M151.8548 138.3180 L157.6011 138.3180 "/>
<path d="M157.6011 138.3180 L157.6011 149.4623 "/>
<path d="M151.8548 149.4623 L151.8548 138.3180 "/>
<path d="M157.6011 149.4623 L151.8548 149.4623 "/>
<path d="M132.4394 82.7708 L126.8673 82.7708 "/>
<path d="M126.8673 82.7708 L126.8673 71.6265 "/>
<path d="M132.4394 71.6265 L132.4394 82.7708 "/>
<path d="M126.8673 71.6265 L132.4394 71.6265 "/>
<path d="M147.0941 56.7384 L147.0941 62.4847 "/>
<path d="M147.0941 62.4847 L135.9499 62.4847 "/>
<path d="M135.9499 56.7384 L147.0941 56.7384 "/>
<path d="M135.9499 62.4847 L135.9499 56.7384 "/>
<path d="M200.0434 26.9937 L200.0434 15.8494 "/>
<path d="M196.5608 26.9937 L200.0434 26.9937 "/>
<path d="M194.4712 24.9041 L196.5608 26.9937 "/>
<path d="M200.0434 15.8494 L194.4712 15.8494 "/>
<path d="M194.4712 15.8494 L194.4712 24.9041 "/>
<path d="M111.6310 83.8155 L105.8847 83.8155 "/>
<path d="M105.8847 83.8155 L105.8847 72.6713 "/>
<path d="M111.6310 72.6713 L111.6310 83.8155 "/>
<path d="M105.8847 72.6713 L111.6310 72.6713 "/>
<path d="M49.2683 122.4723 L49.2683 197.3479 "/>
<path d="M77.4772 122.4723 L49.2683 122.4723 "/>
<path d="M77.4772 122.4723 L77.4772 197.3479 "/>
<path d="M77.4772 134.6613 L72.5521 138.1439 "/>
<path d="M72.5521 138.1439 L77.4772 141.6265 "/>
<path d="M77.4772 197.3479 L49.2683 197.3479 "/>
<circle cx="156.8175" cy="162.6961" r="3.4826"/> 
<path d="M135.9499 51.3613 L135.9499 45.6150 "/>
<path d="M135.9499 45.6150 L147.0941 45.6150 "/>
<path d="M147.0941 51.3613 L135.9499 51.3613 "/>
<path d="M147.0941 45.6150 L147.0941 51.3613 "/>
<circle cx="110.1509" cy="44.2882" r="3.4826"/> 
<g>
</g>
<g>
</g>
<g>
</g>
<g>
</g>
<g>
</g>
<g>
</g>
<g>
</g>
<g>
</g>
<g>
</g>
<g>
</g>
<g>
</g>
<g>
</g>
<g>
</g>
<g>
</g>
<g>
</g>
<g>
</g>
<g>
</g>
<g>
</g>
<g>
</g>
<g>
</g>
<g>
</g>
<g>
</g>
<g>
</g>
<g>
</g>
<g>
</g>
<g>
</g>
<g>
</g>
<g>
</g>
<g>
</g>
<g>
</g>
<g>
</g>
<g>
</g>
<g>
</g>
<g>
</g>
<g>
</g>
<g>
</g>
<g>
</g>
<g>
</g>
<g>
</g>
<g>
</g>
<g>
</g>
<g>
</g>
</g> 
<svg:g><svg:g><svg:title>SVG Image created as TFUSBSERIAL01-Edge_Cuts.svg date 2023/11/13 01:14:19 </svg:title>
  <svg:desc>Image generated by PCBNEW </svg:desc>
<svg:g style="fill:#C2C200; fill-opacity:1.0000;stroke:#C2C200; stroke-opacity:1.0000; stroke-linecap:round; stroke-linejoin:round;" transform="translate(0 0) scale(1 1)">
</svg:g>
<svg:g style="fill:#C2C200; fill-opacity:0.0;  stroke:#C2C200; stroke-width:0.0000; stroke-opacity:1;  stroke-linecap:round; stroke-linejoin:round;">
</svg:g>
<svg:g style="fill:#C2C200; fill-opacity:0.0;  stroke:#C2C200; stroke-width:1.0448; stroke-opacity:1;  stroke-linecap:round; stroke-linejoin:round;">
<svg:path d="M252.9787 0.5260 L252.9787 209.4812 "/>
<svg:path d="M44.0235 209.4812 L44.0235 0.5260 "/>
<svg:path d="M252.9787 209.4812 L44.0235 209.4812 "/>
<svg:path d="M44.0235 0.5260 L252.9787 0.5260 "/>
<svg:g>
</svg:g>
<svg:g>
</svg:g>
<svg:g>
</svg:g>
<svg:g>
</svg:g>
<svg:g>
</svg:g>
<svg:g>
</svg:g>
<svg:g>
</svg:g>
<svg:g>
</svg:g>
<svg:g>
</svg:g>
<svg:g>
</svg:g>
<svg:g>
</svg:g>
<svg:g>
</svg:g>
<svg:g>
</svg:g>
<svg:g>
</svg:g>
<svg:g>
</svg:g>
<svg:g>
</svg:g>
<svg:g>
</svg:g>
<svg:g>
</svg:g>
<svg:g>
</svg:g>
<svg:g>
</svg:g>
<svg:g>
</svg:g>
<svg:g>
</svg:g>
<svg:g>
</svg:g>
<svg:g>
</svg:g>
<svg:g>
</svg:g>
<svg:g>
</svg:g>
<svg:g>
</svg:g>
<svg:g>
</svg:g>
<svg:g>
</svg:g>
<svg:g>
</svg:g>
<svg:g>
</svg:g>
<svg:g>
</svg:g>
<svg:g>
</svg:g>
<svg:g>
</svg:g>
<svg:g>
</svg:g>
<svg:g>
</svg:g>
<svg:g>
</svg:g>
<svg:g>
</svg:g>
<svg:g>
</svg:g>
<svg:g>
</svg:g>
<svg:g>
</svg:g>
<svg:g>
</svg:g>
</svg:g> 
</svg:g></svg:g></svg>
