<?xml version='1.0' encoding='ASCII' standalone='yes'?>
<svg xmlns:svg="http://www.w3.org/2000/svg" xmlns="http://www.w3.org/2000/svg" xmlns:xlink="http://www.w3.org/1999/xlink" version="1.1" width="297.0022mm" height="210.0072mm" viewBox="0.0000 0.0000 297.0022 210.0072">
<title>SVG Image created as TFUSBSERIAL01-F_Fab.svg date 2023/09/26 23:16:53 </title>
  <desc>Image generated by PCBNEW </desc>
<g style="fill:#848484; fill-opacity:1.0000;stroke:#848484; stroke-opacity:1.0000; stroke-linecap:round; stroke-linejoin:round;" transform="translate(0 0) scale(1 1)">
</g>
<g style="fill:#848484; fill-opacity:0.0;  stroke:#848484; stroke-width:0.0000; stroke-opacity:1;  stroke-linecap:round; stroke-linejoin:round;">
</g>
<g style="fill:#848484; fill-opacity:0.01;  stroke:#848484; stroke-width:0.8736; stroke-opacity:1;  stroke-linecap:round; stroke-linejoin:round;">
<text x="152.0306" y="124.5150" textLength="17.2649" font-size="7.7657" lengthAdjust="spacingAndGlyphs" text-anchor="middle" opacity="0.01" style="font-family:monospace">TP3</text>
<g class="stroked-text"><desc>TP3</desc>
<path d="M144.6809 118.4275 L148.0091 118.4275 "/>
<path d="M146.3450 124.2518 L146.3450 118.4275 "/>
<path d="M149.9505 124.2518 L149.9505 118.4275 "/>
<path d="M149.9505 118.4275 L152.1693 118.4275 "/>
<path d="M152.1693 118.4275 L152.7240 118.7049 "/>
<path d="M152.7240 118.7049 L153.0013 118.9822 "/>
<path d="M153.0013 118.9822 L153.2787 119.5369 "/>
<path d="M153.2787 119.5369 L153.2787 120.3690 "/>
<path d="M153.2787 120.3690 L153.0013 120.9237 "/>
<path d="M153.0013 120.9237 L152.7240 121.2010 "/>
<path d="M152.7240 121.2010 L152.1693 121.4784 "/>
<path d="M152.1693 121.4784 L149.9505 121.4784 "/>
<path d="M155.2201 118.4275 L158.8256 118.4275 "/>
<path d="M158.8256 118.4275 L156.8842 120.6463 "/>
<path d="M156.8842 120.6463 L157.7162 120.6463 "/>
<path d="M157.7162 120.6463 L158.2709 120.9237 "/>
<path d="M158.2709 120.9237 L158.5483 121.2010 "/>
<path d="M158.5483 121.2010 L158.8256 121.7557 "/>
<path d="M158.8256 121.7557 L158.8256 123.1424 "/>
<path d="M158.8256 123.1424 L158.5483 123.6971 "/>
<path d="M158.5483 123.6971 L158.2709 123.9745 "/>
<path d="M158.2709 123.9745 L157.7162 124.2518 "/>
<path d="M157.7162 124.2518 L156.0522 124.2518 "/>
<path d="M156.0522 124.2518 L155.4975 123.9745 "/>
<path d="M155.4975 123.9745 L155.2201 123.6971 "/>
</g><text x="166.0089" y="136.7460" textLength="17.2649" font-size="7.7657" lengthAdjust="spacingAndGlyphs" text-anchor="middle" opacity="0.01" style="font-family:monospace">TP1</text>
<g class="stroked-text"><desc>TP1</desc>
<path d="M158.6592 130.6586 L161.9874 130.6586 "/>
<path d="M160.3233 136.4828 L160.3233 130.6586 "/>
<path d="M163.9288 136.4828 L163.9288 130.6586 "/>
<path d="M163.9288 130.6586 L166.1476 130.6586 "/>
<path d="M166.1476 130.6586 L166.7023 130.9359 "/>
<path d="M166.7023 130.9359 L166.9796 131.2132 "/>
<path d="M166.9796 131.2132 L167.2570 131.7679 "/>
<path d="M167.2570 131.7679 L167.2570 132.6000 "/>
<path d="M167.2570 132.6000 L166.9796 133.1547 "/>
<path d="M166.9796 133.1547 L166.7023 133.4320 "/>
<path d="M166.7023 133.4320 L166.1476 133.7094 "/>
<path d="M166.1476 133.7094 L163.9288 133.7094 "/>
<path d="M172.8039 136.4828 L169.4758 136.4828 "/>
<path d="M171.1398 136.4828 L171.1398 130.6586 "/>
<path d="M171.1398 130.6586 L170.5852 131.4906 "/>
<path d="M170.5852 131.4906 L170.0305 132.0453 "/>
<path d="M170.0305 132.0453 L169.4758 132.3226 "/>
</g><text x="166.0089" y="124.5150" textLength="17.2649" font-size="7.7657" lengthAdjust="spacingAndGlyphs" text-anchor="middle" opacity="0.01" style="font-family:monospace">TP4</text>
<g class="stroked-text"><desc>TP4</desc>
<path d="M158.6592 118.4275 L161.9874 118.4275 "/>
<path d="M160.3233 124.2518 L160.3233 118.4275 "/>
<path d="M163.9288 124.2518 L163.9288 118.4275 "/>
<path d="M163.9288 118.4275 L166.1476 118.4275 "/>
<path d="M166.1476 118.4275 L166.7023 118.7049 "/>
<path d="M166.7023 118.7049 L166.9796 118.9822 "/>
<path d="M166.9796 118.9822 L167.2570 119.5369 "/>
<path d="M167.2570 119.5369 L167.2570 120.3690 "/>
<path d="M167.2570 120.3690 L166.9796 120.9237 "/>
<path d="M166.9796 120.9237 L166.7023 121.2010 "/>
<path d="M166.7023 121.2010 L166.1476 121.4784 "/>
<path d="M166.1476 121.4784 L163.9288 121.4784 "/>
<path d="M172.2492 120.3690 L172.2492 124.2518 "/>
<path d="M170.8625 118.1502 L169.4758 122.3104 "/>
<path d="M169.4758 122.3104 L173.0813 122.3104 "/>
</g><text x="152.0306" y="136.7460" textLength="17.2649" font-size="7.7657" lengthAdjust="spacingAndGlyphs" text-anchor="middle" opacity="0.01" style="font-family:monospace">TP2</text>
<g class="stroked-text"><desc>TP2</desc>
<path d="M144.6809 130.6586 L148.0091 130.6586 "/>
<path d="M146.3450 136.4828 L146.3450 130.6586 "/>
<path d="M149.9505 136.4828 L149.9505 130.6586 "/>
<path d="M149.9505 130.6586 L152.1693 130.6586 "/>
<path d="M152.1693 130.6586 L152.7240 130.9359 "/>
<path d="M152.7240 130.9359 L153.0013 131.2132 "/>
<path d="M153.0013 131.2132 L153.2787 131.7679 "/>
<path d="M153.2787 131.7679 L153.2787 132.6000 "/>
<path d="M153.2787 132.6000 L153.0013 133.1547 "/>
<path d="M153.0013 133.1547 L152.7240 133.4320 "/>
<path d="M152.7240 133.4320 L152.1693 133.7094 "/>
<path d="M152.1693 133.7094 L149.9505 133.7094 "/>
<path d="M155.4975 131.2132 L155.7748 130.9359 "/>
<path d="M155.7748 130.9359 L156.3295 130.6586 "/>
<path d="M156.3295 130.6586 L157.7162 130.6586 "/>
<path d="M157.7162 130.6586 L158.2709 130.9359 "/>
<path d="M158.2709 130.9359 L158.5483 131.2132 "/>
<path d="M158.5483 131.2132 L158.8256 131.7679 "/>
<path d="M158.8256 131.7679 L158.8256 132.3226 "/>
<path d="M158.8256 132.3226 L158.5483 133.1547 "/>
<path d="M158.5483 133.1547 L155.2201 136.4828 "/>
<path d="M155.2201 136.4828 L158.8256 136.4828 "/>
</g><g>
</g>
<g>
</g>
<g>
</g>
<g>
</g>
<g>
</g>
<g>
</g>
<g>
</g>
<g>
</g>
<g>
</g>
<g>
</g>
<g>
</g>
<g>
</g>
<g>
</g>
<g>
</g>
<g>
</g>
<g>
</g>
<g>
</g>
<g>
</g>
<g>
</g>
<g>
</g>
<g>
</g>
<g>
</g>
<g>
</g>
<g>
</g>
<g>
</g>
<g>
</g>
<g>
</g>
<g>
</g>
<g>
</g>
<g>
</g>
<g>
</g>
<g>
</g>
<g>
</g>
<g>
</g>
<g>
</g>
<g>
</g>
<g>
</g>
<g>
</g>
<g>
</g>
<g>
</g>
<g>
</g>
<g>
</g>
</g> 
<svg:g><svg:g><svg:title>SVG Image created as TFUSBSERIAL01-Edge_Cuts.svg date 2023/09/26 23:16:53 </svg:title>
  <svg:desc>Image generated by PCBNEW </svg:desc>
<svg:g style="fill:#C2C200; fill-opacity:1.0000;stroke:#C2C200; stroke-opacity:1.0000; stroke-linecap:round; stroke-linejoin:round;" transform="translate(0 0) scale(1 1)">
</svg:g>
<svg:g style="fill:#C2C200; fill-opacity:0.0;  stroke:#C2C200; stroke-width:0.0000; stroke-opacity:1;  stroke-linecap:round; stroke-linejoin:round;">
</svg:g>
<svg:g style="fill:#C2C200; fill-opacity:0.0;  stroke:#C2C200; stroke-width:0.3255; stroke-opacity:1;  stroke-linecap:round; stroke-linejoin:round;">
<svg:path d="M214.9330 17.6392 L214.9330 0.1663 "/>
</svg:g>
<svg:g style="fill:#C2C200; fill-opacity:0.0;  stroke:#C2C200; stroke-width:0.8736; stroke-opacity:1;  stroke-linecap:round; stroke-linejoin:round;">
<svg:path d="M61.1367 17.7382 L61.1367 192.4670 "/>
<svg:path d="M235.8655 192.4670 L235.8655 17.7382 "/>
<svg:path d="M61.1367 192.4670 L235.8655 192.4670 "/>
</svg:g>
<svg:g style="fill:#C2C200; fill-opacity:0.0;  stroke:#C2C200; stroke-width:0.3255; stroke-opacity:1;  stroke-linecap:round; stroke-linejoin:round;">
<svg:path d="M214.9330 209.8409 L214.9330 192.3680 "/>
<svg:path d="M98.4471 209.8409 L98.4471 192.3680 "/>
</svg:g>
<svg:g style="fill:#C2C200; fill-opacity:0.0;  stroke:#C2C200; stroke-width:0.8736; stroke-opacity:1;  stroke-linecap:round; stroke-linejoin:round;">
<svg:path d="M235.8655 17.7382 L61.1367 17.7382 "/>
</svg:g>
<svg:g style="fill:#C2C200; fill-opacity:0.0;  stroke:#C2C200; stroke-width:0.3255; stroke-opacity:1;  stroke-linecap:round; stroke-linejoin:round;">
<svg:path d="M98.4471 17.6392 L98.4471 0.1663 "/>
<svg:g>
</svg:g>
<svg:g>
</svg:g>
<svg:g>
</svg:g>
<svg:g>
</svg:g>
<svg:g>
</svg:g>
<svg:g>
</svg:g>
<svg:g>
</svg:g>
<svg:g>
</svg:g>
<svg:g>
</svg:g>
<svg:g>
</svg:g>
<svg:g>
</svg:g>
<svg:g>
</svg:g>
<svg:g>
</svg:g>
<svg:g>
</svg:g>
<svg:g>
</svg:g>
<svg:g>
</svg:g>
<svg:g>
</svg:g>
<svg:g>
</svg:g>
<svg:g>
</svg:g>
<svg:g>
</svg:g>
<svg:g>
</svg:g>
<svg:g>
</svg:g>
<svg:g>
</svg:g>
<svg:g>
</svg:g>
<svg:g>
</svg:g>
<svg:g>
</svg:g>
<svg:g>
</svg:g>
<svg:g>
</svg:g>
<svg:g>
</svg:g>
<svg:g>
</svg:g>
<svg:g>
</svg:g>
<svg:g>
</svg:g>
<svg:g>
</svg:g>
<svg:g>
</svg:g>
<svg:g>
</svg:g>
<svg:g>
</svg:g>
<svg:g>
</svg:g>
<svg:g>
</svg:g>
<svg:g>
</svg:g>
<svg:g>
</svg:g>
<svg:g>
</svg:g>
<svg:g>
</svg:g>
</svg:g> 
</svg:g></svg:g></svg>
