%TF.GenerationSoftware,KiCad,Pcbnew,7.0.5.1-1-g8f565ef7f0-dirty-deb11*%
%TF.CreationDate,2023-08-03T09:27:25+00:00*%
%TF.ProjectId,TFUSBSERIAL01,54465553-4253-4455-9249-414c30312e6b,REV*%
%TF.SameCoordinates,Original*%
%TF.FileFunction,Soldermask,Bot*%
%TF.FilePolarity,Negative*%
%FSLAX46Y46*%
G04 Gerber Fmt 4.6, Leading zero omitted, Abs format (unit mm)*
G04 Created by KiCad (PCBNEW 7.0.5.1-1-g8f565ef7f0-dirty-deb11) date 2023-08-03 09:27:25*
%MOMM*%
%LPD*%
G01*
G04 APERTURE LIST*
G04 Aperture macros list*
%AMRoundRect*
0 Rectangle with rounded corners*
0 $1 Rounding radius*
0 $2 $3 $4 $5 $6 $7 $8 $9 X,Y pos of 4 corners*
0 Add a 4 corners polygon primitive as box body*
4,1,4,$2,$3,$4,$5,$6,$7,$8,$9,$2,$3,0*
0 Add four circle primitives for the rounded corners*
1,1,$1+$1,$2,$3*
1,1,$1+$1,$4,$5*
1,1,$1+$1,$6,$7*
1,1,$1+$1,$8,$9*
0 Add four rect primitives between the rounded corners*
20,1,$1+$1,$2,$3,$4,$5,0*
20,1,$1+$1,$4,$5,$6,$7,0*
20,1,$1+$1,$6,$7,$8,$9,0*
20,1,$1+$1,$8,$9,$2,$3,0*%
G04 Aperture macros list end*
%ADD10C,3.000000*%
%ADD11RoundRect,0.200000X-0.900000X1.250000X-0.900000X-1.250000X0.900000X-1.250000X0.900000X1.250000X0*%
%ADD12RoundRect,0.418750X0.256250X-0.218750X0.256250X0.218750X-0.256250X0.218750X-0.256250X-0.218750X0*%
%ADD13RoundRect,0.425000X0.250000X-0.225000X0.250000X0.225000X-0.250000X0.225000X-0.250000X-0.225000X0*%
%ADD14RoundRect,0.418750X-0.218750X-0.256250X0.218750X-0.256250X0.218750X0.256250X-0.218750X0.256250X0*%
%ADD15RoundRect,0.400000X-0.275000X0.200000X-0.275000X-0.200000X0.275000X-0.200000X0.275000X0.200000X0*%
%ADD16RoundRect,0.425000X0.225000X0.250000X-0.225000X0.250000X-0.225000X-0.250000X0.225000X-0.250000X0*%
%ADD17RoundRect,0.400000X-0.200000X-0.275000X0.200000X-0.275000X0.200000X0.275000X-0.200000X0.275000X0*%
%ADD18RoundRect,0.418750X0.381250X-0.218750X0.381250X0.218750X-0.381250X0.218750X-0.381250X-0.218750X0*%
%ADD19RoundRect,0.350000X-0.700000X0.150000X-0.700000X-0.150000X0.700000X-0.150000X0.700000X0.150000X0*%
%ADD20RoundRect,0.450000X-1.100000X0.250000X-1.100000X-0.250000X1.100000X-0.250000X1.100000X0.250000X0*%
%ADD21RoundRect,0.262500X0.062500X-0.350000X0.062500X0.350000X-0.062500X0.350000X-0.062500X-0.350000X0*%
%ADD22RoundRect,0.262500X0.350000X-0.062500X0.350000X0.062500X-0.350000X0.062500X-0.350000X-0.062500X0*%
%ADD23RoundRect,0.200000X1.250000X-1.250000X1.250000X1.250000X-1.250000X1.250000X-1.250000X-1.250000X0*%
%ADD24RoundRect,0.400000X0.275000X-0.200000X0.275000X0.200000X-0.275000X0.200000X-0.275000X-0.200000X0*%
%ADD25RoundRect,0.425000X-0.225000X-0.250000X0.225000X-0.250000X0.225000X0.250000X-0.225000X0.250000X0*%
%ADD26RoundRect,0.200000X-1.700000X0.950000X-1.700000X-0.950000X1.700000X-0.950000X1.700000X0.950000X0*%
%ADD27C,1.050000*%
%ADD28RoundRect,0.200000X0.575000X-0.300000X0.575000X0.300000X-0.575000X0.300000X-0.575000X-0.300000X0*%
%ADD29RoundRect,0.200000X0.575000X-0.150000X0.575000X0.150000X-0.575000X0.150000X-0.575000X-0.150000X0*%
%ADD30O,2.400000X1.400000*%
%ADD31O,2.500000X1.450000*%
%ADD32RoundRect,0.350000X0.512500X0.150000X-0.512500X0.150000X-0.512500X-0.150000X0.512500X-0.150000X0*%
%ADD33RoundRect,0.400000X0.200000X0.275000X-0.200000X0.275000X-0.200000X-0.275000X0.200000X-0.275000X0*%
G04 APERTURE END LIST*
D10*
%TO.C,M6*%
X148094000Y-85317000D03*
%TD*%
%TO.C,M2*%
X158094000Y-115317000D03*
%TD*%
%TO.C,M1*%
X138094000Y-115317000D03*
%TD*%
%TO.C,M5*%
X158094000Y-85317000D03*
%TD*%
%TO.C,M4*%
X148094000Y-115317000D03*
%TD*%
%TO.C,M3*%
X138094000Y-85317000D03*
%TD*%
D11*
%TO.C,D1*%
X154009000Y-108618000D03*
X154009000Y-112618000D03*
%TD*%
D12*
%TO.C,D3*%
X140594000Y-89104500D03*
X140594000Y-87529500D03*
%TD*%
D13*
%TO.C,C5*%
X156800000Y-105450000D03*
X156800000Y-103900000D03*
%TD*%
D14*
%TO.C,D4*%
X148268500Y-105665000D03*
X149843500Y-105665000D03*
%TD*%
D15*
%TO.C,R5*%
X147405000Y-91568000D03*
X147405000Y-93218000D03*
%TD*%
%TO.C,R6*%
X144738000Y-91569000D03*
X144738000Y-93219000D03*
%TD*%
D16*
%TO.C,C2*%
X151342000Y-96394000D03*
X149792000Y-96394000D03*
%TD*%
D17*
%TO.C,R7*%
X174330000Y-100077000D03*
X175980000Y-100077000D03*
%TD*%
D18*
%TO.C,FB1*%
X146516000Y-110330000D03*
X146516000Y-108205000D03*
%TD*%
D19*
%TO.C,J2*%
X160541000Y-89692000D03*
X160541000Y-90942000D03*
X160541000Y-92192000D03*
X160541000Y-93442000D03*
X160541000Y-94692000D03*
X160541000Y-95942000D03*
D20*
X163741000Y-87842000D03*
X163741000Y-97792000D03*
%TD*%
D21*
%TO.C,U2*%
X155898000Y-102254500D03*
X155398000Y-102254500D03*
X154898000Y-102254500D03*
X154398000Y-102254500D03*
X153898000Y-102254500D03*
D22*
X152960500Y-101317000D03*
X152960500Y-100817000D03*
X152960500Y-100317000D03*
X152960500Y-99817000D03*
X152960500Y-99317000D03*
D21*
X153898000Y-98379500D03*
X154398000Y-98379500D03*
X154898000Y-98379500D03*
X155398000Y-98379500D03*
X155898000Y-98379500D03*
D22*
X156835500Y-99317000D03*
X156835500Y-99817000D03*
X156835500Y-100317000D03*
X156835500Y-100817000D03*
X156835500Y-101317000D03*
D23*
X154898000Y-100317000D03*
%TD*%
D24*
%TO.C,R2*%
X141944000Y-93218000D03*
X141944000Y-91568000D03*
%TD*%
D25*
%TO.C,C1*%
X146363000Y-112142000D03*
X147913000Y-112142000D03*
%TD*%
%TO.C,C3*%
X148675000Y-108205000D03*
X150225000Y-108205000D03*
%TD*%
D26*
%TO.C,F1*%
X142706000Y-108205000D03*
X142706000Y-112105000D03*
%TD*%
D27*
%TO.C,J1*%
X142271200Y-103207000D03*
X142271200Y-97427000D03*
D28*
X143346200Y-103517000D03*
X143346200Y-102717000D03*
D29*
X143346200Y-101567000D03*
X143346200Y-100567000D03*
X143346200Y-100067000D03*
X143346200Y-99067000D03*
D28*
X143346200Y-97117000D03*
X143346200Y-97917000D03*
D29*
X143346200Y-98567000D03*
X143346200Y-99567000D03*
X143346200Y-101067000D03*
X143346200Y-102067000D03*
D30*
X138591200Y-104637000D03*
X138591200Y-95997000D03*
D31*
X142771200Y-104637000D03*
X142771200Y-95997000D03*
%TD*%
D32*
%TO.C,U1*%
X150320500Y-99367000D03*
X150320500Y-100317000D03*
X150320500Y-101267000D03*
X148045500Y-101267000D03*
X148045500Y-100317000D03*
X148045500Y-99367000D03*
%TD*%
D24*
%TO.C,R1*%
X139785000Y-93218000D03*
X139785000Y-91568000D03*
%TD*%
D25*
%TO.C,C4*%
X154631000Y-95759000D03*
X156181000Y-95759000D03*
%TD*%
D17*
%TO.C,R3*%
X150771000Y-94235000D03*
X152421000Y-94235000D03*
%TD*%
D12*
%TO.C,D2*%
X143594000Y-89104500D03*
X143594000Y-87529500D03*
%TD*%
D19*
%TO.C,J3*%
X160541000Y-104692000D03*
X160541000Y-105942000D03*
X160541000Y-107192000D03*
X160541000Y-108442000D03*
X160541000Y-109692000D03*
X160541000Y-110942000D03*
D20*
X163741000Y-102842000D03*
X163741000Y-112792000D03*
%TD*%
D33*
%TO.C,R4*%
X152421000Y-92203000D03*
X150771000Y-92203000D03*
%TD*%
M02*
