%TF.GenerationSoftware,KiCad,Pcbnew,7.0.7-7.0.7~ubuntu23.04.1*%
%TF.CreationDate,2023-09-29T08:58:45+00:00*%
%TF.ProjectId,TFUSBSERIAL01,54465553-4253-4455-9249-414c30312e6b,REV*%
%TF.SameCoordinates,Original*%
%TF.FileFunction,Soldermask,Bot*%
%TF.FilePolarity,Negative*%
%FSLAX46Y46*%
G04 Gerber Fmt 4.6, Leading zero omitted, Abs format (unit mm)*
G04 Created by KiCad (PCBNEW 7.0.7-7.0.7~ubuntu23.04.1) date 2023-09-29 08:58:45*
%MOMM*%
%LPD*%
G01*
G04 APERTURE LIST*
G04 Aperture macros list*
%AMRoundRect*
0 Rectangle with rounded corners*
0 $1 Rounding radius*
0 $2 $3 $4 $5 $6 $7 $8 $9 X,Y pos of 4 corners*
0 Add a 4 corners polygon primitive as box body*
4,1,4,$2,$3,$4,$5,$6,$7,$8,$9,$2,$3,0*
0 Add four circle primitives for the rounded corners*
1,1,$1+$1,$2,$3*
1,1,$1+$1,$4,$5*
1,1,$1+$1,$6,$7*
1,1,$1+$1,$8,$9*
0 Add four rect primitives between the rounded corners*
20,1,$1+$1,$2,$3,$4,$5,0*
20,1,$1+$1,$4,$5,$6,$7,0*
20,1,$1+$1,$6,$7,$8,$9,0*
20,1,$1+$1,$8,$9,$2,$3,0*%
G04 Aperture macros list end*
%ADD10C,3.000000*%
%ADD11RoundRect,0.450000X-0.250000X-0.250000X0.250000X-0.250000X0.250000X0.250000X-0.250000X0.250000X0*%
%ADD12RoundRect,0.418750X0.256250X-0.218750X0.256250X0.218750X-0.256250X0.218750X-0.256250X-0.218750X0*%
%ADD13RoundRect,0.425000X-0.250000X0.225000X-0.250000X-0.225000X0.250000X-0.225000X0.250000X0.225000X0*%
%ADD14RoundRect,0.400000X-0.275000X0.200000X-0.275000X-0.200000X0.275000X-0.200000X0.275000X0.200000X0*%
%ADD15RoundRect,0.425000X0.250000X-0.225000X0.250000X0.225000X-0.250000X0.225000X-0.250000X-0.225000X0*%
%ADD16RoundRect,0.400000X0.275000X-0.200000X0.275000X0.200000X-0.275000X0.200000X-0.275000X-0.200000X0*%
%ADD17RoundRect,0.418750X-0.381250X0.218750X-0.381250X-0.218750X0.381250X-0.218750X0.381250X0.218750X0*%
%ADD18RoundRect,0.350000X-0.700000X0.150000X-0.700000X-0.150000X0.700000X-0.150000X0.700000X0.150000X0*%
%ADD19RoundRect,0.450000X-1.100000X0.250000X-1.100000X-0.250000X1.100000X-0.250000X1.100000X0.250000X0*%
%ADD20RoundRect,0.262500X0.062500X-0.350000X0.062500X0.350000X-0.062500X0.350000X-0.062500X-0.350000X0*%
%ADD21RoundRect,0.262500X0.350000X-0.062500X0.350000X0.062500X-0.350000X0.062500X-0.350000X-0.062500X0*%
%ADD22RoundRect,0.200000X1.250000X-1.250000X1.250000X1.250000X-1.250000X1.250000X-1.250000X-1.250000X0*%
%ADD23C,1.050000*%
%ADD24RoundRect,0.200000X0.575000X-0.300000X0.575000X0.300000X-0.575000X0.300000X-0.575000X-0.300000X0*%
%ADD25RoundRect,0.200000X0.575000X-0.150000X0.575000X0.150000X-0.575000X0.150000X-0.575000X-0.150000X0*%
%ADD26O,2.400000X1.400000*%
%ADD27O,2.500000X1.450000*%
%ADD28RoundRect,0.350000X0.512500X0.150000X-0.512500X0.150000X-0.512500X-0.150000X0.512500X-0.150000X0*%
%ADD29RoundRect,0.443750X-0.243750X-0.456250X0.243750X-0.456250X0.243750X0.456250X-0.243750X0.456250X0*%
%ADD30RoundRect,0.400000X-0.200000X-0.275000X0.200000X-0.275000X0.200000X0.275000X-0.200000X0.275000X0*%
%ADD31C,1.000000*%
%ADD32RoundRect,0.400000X0.200000X0.275000X-0.200000X0.275000X-0.200000X-0.275000X0.200000X-0.275000X0*%
G04 APERTURE END LIST*
D10*
%TO.C,M6*%
X148094000Y-85317000D03*
%TD*%
%TO.C,M2*%
X158094000Y-115317000D03*
%TD*%
%TO.C,M1*%
X138094000Y-115317000D03*
%TD*%
%TO.C,M5*%
X158094000Y-85317000D03*
%TD*%
%TO.C,M4*%
X148094000Y-115317000D03*
%TD*%
%TO.C,M3*%
X138094000Y-85317000D03*
%TD*%
D11*
%TO.C,D1*%
X160350000Y-100300000D03*
X162850000Y-100300000D03*
%TD*%
D12*
%TO.C,D3*%
X140594000Y-89104500D03*
X140594000Y-87529500D03*
%TD*%
D13*
%TO.C,C5*%
X155300000Y-104325000D03*
X155300000Y-105875000D03*
%TD*%
D12*
%TO.C,D4*%
X140600000Y-112787500D03*
X140600000Y-111212500D03*
%TD*%
D14*
%TO.C,R5*%
X147405000Y-91568000D03*
X147405000Y-93218000D03*
%TD*%
%TO.C,R6*%
X144738000Y-91569000D03*
X144738000Y-93219000D03*
%TD*%
D15*
%TO.C,C2*%
X151500000Y-97100000D03*
X151500000Y-95550000D03*
%TD*%
D16*
%TO.C,R7*%
X142300000Y-112850000D03*
X142300000Y-111200000D03*
%TD*%
D17*
%TO.C,FB1*%
X146516000Y-105037500D03*
X146516000Y-107162500D03*
%TD*%
D18*
%TO.C,J2*%
X160541000Y-89275000D03*
X160541000Y-90525000D03*
X160541000Y-91775000D03*
X160541000Y-93025000D03*
X160541000Y-94275000D03*
X160541000Y-95525000D03*
D19*
X163741000Y-87425000D03*
X163741000Y-97375000D03*
%TD*%
D20*
%TO.C,U2*%
X154400000Y-102637500D03*
X153900000Y-102637500D03*
X153400000Y-102637500D03*
X152900000Y-102637500D03*
X152400000Y-102637500D03*
D21*
X151462500Y-101700000D03*
X151462500Y-101200000D03*
X151462500Y-100700000D03*
X151462500Y-100200000D03*
X151462500Y-99700000D03*
D20*
X152400000Y-98762500D03*
X152900000Y-98762500D03*
X153400000Y-98762500D03*
X153900000Y-98762500D03*
X154400000Y-98762500D03*
D21*
X155337500Y-99700000D03*
X155337500Y-100200000D03*
X155337500Y-100700000D03*
X155337500Y-101200000D03*
X155337500Y-101700000D03*
D22*
X153400000Y-100700000D03*
%TD*%
D14*
%TO.C,R9*%
X153700000Y-105375000D03*
X153700000Y-107025000D03*
%TD*%
D16*
%TO.C,R2*%
X141944000Y-93218000D03*
X141944000Y-91568000D03*
%TD*%
D15*
%TO.C,C1*%
X148200000Y-106675000D03*
X148200000Y-105125000D03*
%TD*%
%TO.C,C3*%
X144800000Y-107850000D03*
X144800000Y-106300000D03*
%TD*%
D23*
%TO.C,J1*%
X142271200Y-103207000D03*
X142271200Y-97427000D03*
D24*
X143346200Y-103517000D03*
X143346200Y-102717000D03*
D25*
X143346200Y-101567000D03*
X143346200Y-100567000D03*
X143346200Y-100067000D03*
X143346200Y-99067000D03*
D24*
X143346200Y-97117000D03*
X143346200Y-97917000D03*
D25*
X143346200Y-98567000D03*
X143346200Y-99567000D03*
X143346200Y-101067000D03*
X143346200Y-102067000D03*
D26*
X138591200Y-104637000D03*
X138591200Y-95997000D03*
D27*
X142771200Y-104637000D03*
X142771200Y-95997000D03*
%TD*%
D28*
%TO.C,U1*%
X149175000Y-99367000D03*
X149175000Y-100317000D03*
X149175000Y-101267000D03*
X146900000Y-101267000D03*
X146900000Y-100317000D03*
X146900000Y-99367000D03*
%TD*%
D29*
%TO.C,F1*%
X154425000Y-89500000D03*
X156300000Y-89500000D03*
%TD*%
D14*
%TO.C,R10*%
X156800000Y-101300000D03*
X156800000Y-102950000D03*
%TD*%
D16*
%TO.C,R1*%
X139785000Y-93218000D03*
X139785000Y-91568000D03*
%TD*%
D14*
%TO.C,R11*%
X149700000Y-105075000D03*
X149700000Y-106725000D03*
%TD*%
D15*
%TO.C,C4*%
X153300000Y-97100000D03*
X153300000Y-95550000D03*
%TD*%
D30*
%TO.C,R3*%
X150771000Y-93800000D03*
X152421000Y-93800000D03*
%TD*%
D12*
%TO.C,D2*%
X143594000Y-89104500D03*
X143594000Y-87529500D03*
%TD*%
D16*
%TO.C,R8*%
X156300000Y-97300000D03*
X156300000Y-95650000D03*
%TD*%
D18*
%TO.C,J3*%
X160541000Y-105075000D03*
X160541000Y-106325000D03*
X160541000Y-107575000D03*
X160541000Y-108825000D03*
X160541000Y-110075000D03*
X160541000Y-111325000D03*
D19*
X163741000Y-103225000D03*
X163741000Y-113175000D03*
%TD*%
D31*
%TO.C,FID1*%
X149400000Y-108600000D03*
%TD*%
D32*
%TO.C,R4*%
X152421000Y-92203000D03*
X150771000Y-92203000D03*
%TD*%
D31*
%TO.C,FID2*%
X156100000Y-91600000D03*
%TD*%
M02*
