%TF.GenerationSoftware,KiCad,Pcbnew,7.0.5.1-1-g8f565ef7f0-dirty-deb11*%
%TF.CreationDate,2023-08-03T09:27:25+00:00*%
%TF.ProjectId,TFUSBSERIAL01,54465553-4253-4455-9249-414c30312e6b,REV*%
%TF.SameCoordinates,Original*%
%TF.FileFunction,Copper,L2,Bot*%
%TF.FilePolarity,Positive*%
%FSLAX46Y46*%
G04 Gerber Fmt 4.6, Leading zero omitted, Abs format (unit mm)*
G04 Created by KiCad (PCBNEW 7.0.5.1-1-g8f565ef7f0-dirty-deb11) date 2023-08-03 09:27:25*
%MOMM*%
%LPD*%
G01*
G04 APERTURE LIST*
G04 Aperture macros list*
%AMRoundRect*
0 Rectangle with rounded corners*
0 $1 Rounding radius*
0 $2 $3 $4 $5 $6 $7 $8 $9 X,Y pos of 4 corners*
0 Add a 4 corners polygon primitive as box body*
4,1,4,$2,$3,$4,$5,$6,$7,$8,$9,$2,$3,0*
0 Add four circle primitives for the rounded corners*
1,1,$1+$1,$2,$3*
1,1,$1+$1,$4,$5*
1,1,$1+$1,$6,$7*
1,1,$1+$1,$8,$9*
0 Add four rect primitives between the rounded corners*
20,1,$1+$1,$2,$3,$4,$5,0*
20,1,$1+$1,$4,$5,$6,$7,0*
20,1,$1+$1,$6,$7,$8,$9,0*
20,1,$1+$1,$8,$9,$2,$3,0*%
G04 Aperture macros list end*
%TA.AperFunction,SMDPad,CuDef*%
%ADD10R,1.800000X2.500000*%
%TD*%
%TA.AperFunction,SMDPad,CuDef*%
%ADD11RoundRect,0.218750X0.256250X-0.218750X0.256250X0.218750X-0.256250X0.218750X-0.256250X-0.218750X0*%
%TD*%
%TA.AperFunction,SMDPad,CuDef*%
%ADD12RoundRect,0.225000X0.250000X-0.225000X0.250000X0.225000X-0.250000X0.225000X-0.250000X-0.225000X0*%
%TD*%
%TA.AperFunction,SMDPad,CuDef*%
%ADD13RoundRect,0.218750X-0.218750X-0.256250X0.218750X-0.256250X0.218750X0.256250X-0.218750X0.256250X0*%
%TD*%
%TA.AperFunction,SMDPad,CuDef*%
%ADD14RoundRect,0.200000X-0.275000X0.200000X-0.275000X-0.200000X0.275000X-0.200000X0.275000X0.200000X0*%
%TD*%
%TA.AperFunction,SMDPad,CuDef*%
%ADD15RoundRect,0.225000X0.225000X0.250000X-0.225000X0.250000X-0.225000X-0.250000X0.225000X-0.250000X0*%
%TD*%
%TA.AperFunction,SMDPad,CuDef*%
%ADD16RoundRect,0.200000X-0.200000X-0.275000X0.200000X-0.275000X0.200000X0.275000X-0.200000X0.275000X0*%
%TD*%
%TA.AperFunction,SMDPad,CuDef*%
%ADD17RoundRect,0.218750X0.381250X-0.218750X0.381250X0.218750X-0.381250X0.218750X-0.381250X-0.218750X0*%
%TD*%
%TA.AperFunction,SMDPad,CuDef*%
%ADD18RoundRect,0.150000X-0.700000X0.150000X-0.700000X-0.150000X0.700000X-0.150000X0.700000X0.150000X0*%
%TD*%
%TA.AperFunction,SMDPad,CuDef*%
%ADD19RoundRect,0.250000X-1.100000X0.250000X-1.100000X-0.250000X1.100000X-0.250000X1.100000X0.250000X0*%
%TD*%
%TA.AperFunction,SMDPad,CuDef*%
%ADD20RoundRect,0.062500X0.062500X-0.350000X0.062500X0.350000X-0.062500X0.350000X-0.062500X-0.350000X0*%
%TD*%
%TA.AperFunction,SMDPad,CuDef*%
%ADD21RoundRect,0.062500X0.350000X-0.062500X0.350000X0.062500X-0.350000X0.062500X-0.350000X-0.062500X0*%
%TD*%
%TA.AperFunction,SMDPad,CuDef*%
%ADD22R,2.500000X2.500000*%
%TD*%
%TA.AperFunction,SMDPad,CuDef*%
%ADD23RoundRect,0.200000X0.275000X-0.200000X0.275000X0.200000X-0.275000X0.200000X-0.275000X-0.200000X0*%
%TD*%
%TA.AperFunction,SMDPad,CuDef*%
%ADD24RoundRect,0.225000X-0.225000X-0.250000X0.225000X-0.250000X0.225000X0.250000X-0.225000X0.250000X0*%
%TD*%
%TA.AperFunction,SMDPad,CuDef*%
%ADD25R,3.400000X1.900000*%
%TD*%
%TA.AperFunction,SMDPad,CuDef*%
%ADD26R,1.150000X0.600000*%
%TD*%
%TA.AperFunction,SMDPad,CuDef*%
%ADD27R,1.150000X0.300000*%
%TD*%
%TA.AperFunction,ComponentPad*%
%ADD28O,2.000000X1.000000*%
%TD*%
%TA.AperFunction,ComponentPad*%
%ADD29O,2.100000X1.050000*%
%TD*%
%TA.AperFunction,SMDPad,CuDef*%
%ADD30RoundRect,0.150000X0.512500X0.150000X-0.512500X0.150000X-0.512500X-0.150000X0.512500X-0.150000X0*%
%TD*%
%TA.AperFunction,SMDPad,CuDef*%
%ADD31RoundRect,0.200000X0.200000X0.275000X-0.200000X0.275000X-0.200000X-0.275000X0.200000X-0.275000X0*%
%TD*%
%TA.AperFunction,ViaPad*%
%ADD32C,0.800000*%
%TD*%
%TA.AperFunction,Conductor*%
%ADD33C,0.200000*%
%TD*%
%TA.AperFunction,Conductor*%
%ADD34C,0.500000*%
%TD*%
%TA.AperFunction,Conductor*%
%ADD35C,0.400000*%
%TD*%
%TA.AperFunction,Conductor*%
%ADD36C,0.300000*%
%TD*%
G04 APERTURE END LIST*
D10*
%TO.P,D1,1,K*%
%TO.N,+5V*%
X154009000Y-108618000D03*
%TO.P,D1,2,A*%
%TO.N,Net-(D1-A)*%
X154009000Y-112618000D03*
%TD*%
D11*
%TO.P,D3,1,K*%
%TO.N,Net-(D3-K)*%
X140594000Y-89104500D03*
%TO.P,D3,2,A*%
%TO.N,+5V*%
X140594000Y-87529500D03*
%TD*%
D12*
%TO.P,C5,1*%
%TO.N,GND*%
X156800000Y-105450000D03*
%TO.P,C5,2*%
%TO.N,Net-(U2-3V3OUT)*%
X156800000Y-103900000D03*
%TD*%
D13*
%TO.P,D4,1,K*%
%TO.N,Net-(D4-K)*%
X148268500Y-105665000D03*
%TO.P,D4,2,A*%
%TO.N,+5V*%
X149843500Y-105665000D03*
%TD*%
D14*
%TO.P,R5,1*%
%TO.N,Net-(D2-K)*%
X147405000Y-91568000D03*
%TO.P,R5,2*%
%TO.N,/RXLED{slash}CBUS1*%
X147405000Y-93218000D03*
%TD*%
%TO.P,R6,1*%
%TO.N,Net-(D3-K)*%
X144738000Y-91569000D03*
%TO.P,R6,2*%
%TO.N,/TXLED{slash}CBUS2*%
X144738000Y-93219000D03*
%TD*%
D15*
%TO.P,C2,1*%
%TO.N,Net-(U2-3V3OUT)*%
X151342000Y-96394000D03*
%TO.P,C2,2*%
%TO.N,GND*%
X149792000Y-96394000D03*
%TD*%
D16*
%TO.P,R7,1*%
%TO.N,Net-(D4-K)*%
X174330000Y-100077000D03*
%TO.P,R7,2*%
%TO.N,GND*%
X175980000Y-100077000D03*
%TD*%
D17*
%TO.P,FB1,1*%
%TO.N,Net-(C1-Pad1)*%
X146516000Y-110330000D03*
%TO.P,FB1,2*%
%TO.N,Net-(D1-A)*%
X146516000Y-108205000D03*
%TD*%
D18*
%TO.P,J2,1*%
%TO.N,+5V*%
X160541000Y-89692000D03*
%TO.P,J2,2*%
%TO.N,/TXD*%
X160541000Y-90942000D03*
%TO.P,J2,3*%
%TO.N,/RXD*%
X160541000Y-92192000D03*
%TO.P,J2,4*%
%TO.N,/#CTS*%
X160541000Y-93442000D03*
%TO.P,J2,5*%
%TO.N,/#RTS*%
X160541000Y-94692000D03*
%TO.P,J2,6*%
%TO.N,GND*%
X160541000Y-95942000D03*
D19*
%TO.P,J2,MP*%
X163741000Y-87842000D03*
X163741000Y-97792000D03*
%TD*%
D20*
%TO.P,U2,1,RXD*%
%TO.N,/RXD*%
X155898000Y-102254500D03*
%TO.P,U2,2,~{RI}*%
%TO.N,unconnected-(U2-~{RI}-Pad2)*%
X155398000Y-102254500D03*
%TO.P,U2,3,GND*%
%TO.N,GND*%
X154898000Y-102254500D03*
%TO.P,U2,4,~{DSR}*%
%TO.N,unconnected-(U2-~{DSR}-Pad4)*%
X154398000Y-102254500D03*
%TO.P,U2,5,~{DCD}*%
%TO.N,unconnected-(U2-~{DCD}-Pad5)*%
X153898000Y-102254500D03*
D21*
%TO.P,U2,6,~{CTS}*%
%TO.N,/#CTS*%
X152960500Y-101317000D03*
%TO.P,U2,7,CBUS2*%
%TO.N,/TXLED{slash}CBUS2*%
X152960500Y-100817000D03*
%TO.P,U2,8,USBDP*%
%TO.N,/DP*%
X152960500Y-100317000D03*
%TO.P,U2,9,USBDM*%
%TO.N,/DM*%
X152960500Y-99817000D03*
%TO.P,U2,10,3V3OUT*%
%TO.N,Net-(U2-3V3OUT)*%
X152960500Y-99317000D03*
D20*
%TO.P,U2,11,~{RESET}*%
%TO.N,Net-(U2-~{RESET})*%
X153898000Y-98379500D03*
%TO.P,U2,12,VCC*%
%TO.N,+5V*%
X154398000Y-98379500D03*
%TO.P,U2,13,GND*%
%TO.N,GND*%
X154898000Y-98379500D03*
%TO.P,U2,14,CBUS1*%
%TO.N,/RXLED{slash}CBUS1*%
X155398000Y-98379500D03*
%TO.P,U2,15,CBUS0*%
%TO.N,unconnected-(U2-CBUS0-Pad15)*%
X155898000Y-98379500D03*
D21*
%TO.P,U2,16,CBUS3*%
%TO.N,unconnected-(U2-CBUS3-Pad16)*%
X156835500Y-99317000D03*
%TO.P,U2,17,TXD*%
%TO.N,/TXD*%
X156835500Y-99817000D03*
%TO.P,U2,18,~{DTR}*%
%TO.N,unconnected-(U2-~{DTR}-Pad18)*%
X156835500Y-100317000D03*
%TO.P,U2,19,~{RTS}*%
%TO.N,/#RTS*%
X156835500Y-100817000D03*
%TO.P,U2,20,VCCIO*%
%TO.N,Net-(U2-3V3OUT)*%
X156835500Y-101317000D03*
D22*
%TO.P,U2,21,GND*%
%TO.N,GND*%
X154898000Y-100317000D03*
%TD*%
D23*
%TO.P,R2,1*%
%TO.N,Net-(J1-CC2)*%
X141944000Y-93218000D03*
%TO.P,R2,2*%
%TO.N,GND*%
X141944000Y-91568000D03*
%TD*%
D24*
%TO.P,C1,1*%
%TO.N,Net-(C1-Pad1)*%
X146363000Y-112142000D03*
%TO.P,C1,2*%
%TO.N,GND*%
X147913000Y-112142000D03*
%TD*%
%TO.P,C3,1*%
%TO.N,Net-(D1-A)*%
X148675000Y-108205000D03*
%TO.P,C3,2*%
%TO.N,GND*%
X150225000Y-108205000D03*
%TD*%
D25*
%TO.P,F1,1*%
%TO.N,/VBUS*%
X142706000Y-108205000D03*
%TO.P,F1,2*%
%TO.N,Net-(C1-Pad1)*%
X142706000Y-112105000D03*
%TD*%
D26*
%TO.P,J1,A1/B12,GND*%
%TO.N,GND*%
X143346200Y-103517000D03*
%TO.P,J1,A4/B9,VBUS*%
%TO.N,/VBUS*%
X143346200Y-102717000D03*
D27*
%TO.P,J1,A5,CC1*%
%TO.N,Net-(J1-CC1)*%
X143346200Y-101567000D03*
%TO.P,J1,A6,D+*%
%TO.N,/D+*%
X143346200Y-100567000D03*
%TO.P,J1,A7,D-*%
%TO.N,/D-*%
X143346200Y-100067000D03*
%TO.P,J1,A8,SBU1*%
%TO.N,unconnected-(J1-SBU1-PadA8)*%
X143346200Y-99067000D03*
D26*
%TO.P,J1,B1/A12,GND*%
%TO.N,GND*%
X143346200Y-97117000D03*
%TO.P,J1,B4/A9,VBUS*%
%TO.N,/VBUS*%
X143346200Y-97917000D03*
D27*
%TO.P,J1,B5,CC2*%
%TO.N,Net-(J1-CC2)*%
X143346200Y-98567000D03*
%TO.P,J1,B6,D+*%
%TO.N,/D+*%
X143346200Y-99567000D03*
%TO.P,J1,B7,D-*%
%TO.N,/D-*%
X143346200Y-101067000D03*
%TO.P,J1,B8,SBU2*%
%TO.N,unconnected-(J1-SBU2-PadB8)*%
X143346200Y-102067000D03*
D28*
%TO.P,J1,G1,SHIELD*%
%TO.N,GND*%
X138591200Y-104637000D03*
%TO.P,J1,G2,SHIELD*%
X138591200Y-95997000D03*
D29*
%TO.P,J1,G3,SHIELD*%
X142771200Y-104637000D03*
%TO.P,J1,G4,SHIELD*%
X142771200Y-95997000D03*
%TD*%
D30*
%TO.P,U1,1,I/O1*%
%TO.N,/DM*%
X150320500Y-99367000D03*
%TO.P,U1,2,GND*%
%TO.N,GND*%
X150320500Y-100317000D03*
%TO.P,U1,3,I/O2*%
%TO.N,/DP*%
X150320500Y-101267000D03*
%TO.P,U1,4,I/O2*%
%TO.N,/D+*%
X148045500Y-101267000D03*
%TO.P,U1,5,VBUS*%
%TO.N,/VBUS*%
X148045500Y-100317000D03*
%TO.P,U1,6,I/O1*%
%TO.N,/D-*%
X148045500Y-99367000D03*
%TD*%
D23*
%TO.P,R1,1*%
%TO.N,Net-(J1-CC1)*%
X139785000Y-93218000D03*
%TO.P,R1,2*%
%TO.N,GND*%
X139785000Y-91568000D03*
%TD*%
D24*
%TO.P,C4,1*%
%TO.N,+5V*%
X154631000Y-95759000D03*
%TO.P,C4,2*%
%TO.N,GND*%
X156181000Y-95759000D03*
%TD*%
D16*
%TO.P,R3,1*%
%TO.N,/VBUS*%
X150771000Y-94235000D03*
%TO.P,R3,2*%
%TO.N,Net-(U2-~{RESET})*%
X152421000Y-94235000D03*
%TD*%
D11*
%TO.P,D2,1,K*%
%TO.N,Net-(D2-K)*%
X143594000Y-89104500D03*
%TO.P,D2,2,A*%
%TO.N,+5V*%
X143594000Y-87529500D03*
%TD*%
D18*
%TO.P,J3,1*%
%TO.N,+5V*%
X160541000Y-104692000D03*
%TO.P,J3,2*%
%TO.N,/RXD*%
X160541000Y-105942000D03*
%TO.P,J3,3*%
%TO.N,/TXD*%
X160541000Y-107192000D03*
%TO.P,J3,4*%
%TO.N,/#RTS*%
X160541000Y-108442000D03*
%TO.P,J3,5*%
%TO.N,/#CTS*%
X160541000Y-109692000D03*
%TO.P,J3,6*%
%TO.N,GND*%
X160541000Y-110942000D03*
D19*
%TO.P,J3,MP*%
X163741000Y-102842000D03*
X163741000Y-112792000D03*
%TD*%
D31*
%TO.P,R4,1*%
%TO.N,Net-(U2-~{RESET})*%
X152421000Y-92203000D03*
%TO.P,R4,2*%
%TO.N,GND*%
X150771000Y-92203000D03*
%TD*%
D32*
%TO.N,GND*%
X148040000Y-102871000D03*
X151850000Y-87885000D03*
X162391000Y-86361000D03*
X137626000Y-89663000D03*
X150580000Y-102871000D03*
X163407000Y-101220000D03*
X158454000Y-112523000D03*
X143214000Y-94235000D03*
X155152000Y-87885000D03*
X163153000Y-114301000D03*
X163534000Y-86361000D03*
X152993000Y-106046000D03*
X149310000Y-102871000D03*
X137753000Y-112015000D03*
X152993000Y-104014000D03*
X164550000Y-86361000D03*
X137753000Y-107697000D03*
X162391000Y-101220000D03*
X145246000Y-96775000D03*
X137626000Y-92838000D03*
X149056000Y-90933000D03*
X148294000Y-96521000D03*
X164550000Y-101220000D03*
X156803000Y-87885000D03*
X156930000Y-112523000D03*
X145119000Y-104141000D03*
X152993000Y-105030000D03*
X146135000Y-89409000D03*
X156803000Y-92203000D03*
X164550000Y-99315000D03*
X156803000Y-93346000D03*
X156803000Y-91060000D03*
X160994000Y-114301000D03*
X144992000Y-110110000D03*
X153501000Y-87885000D03*
X137753000Y-109475000D03*
X154136000Y-106173000D03*
X149945000Y-113285000D03*
X137626000Y-91314000D03*
X152739000Y-96013000D03*
X153882000Y-90933000D03*
X150326000Y-87885000D03*
X162137000Y-114301000D03*
X161248000Y-86361000D03*
X154136000Y-105030000D03*
X164296000Y-114301000D03*
X143341000Y-92711000D03*
X152739000Y-97029000D03*
X146262000Y-94743000D03*
%TO.N,Net-(U2-3V3OUT)*%
X151596000Y-98553000D03*
X157184000Y-102490000D03*
%TO.N,/VBUS*%
X146516000Y-102490000D03*
X146821954Y-100303000D03*
X146500000Y-97917000D03*
%TO.N,/D+*%
X144992000Y-99317500D03*
X144974000Y-100816500D03*
%TO.N,/TXD*%
X157704500Y-97664000D03*
X159691500Y-103600000D03*
%TO.N,/RXD*%
X161600000Y-105942000D03*
X158359913Y-99854568D03*
X155728500Y-104018960D03*
%TO.N,/#CTS*%
X162772000Y-107316000D03*
X162200000Y-94200000D03*
%TO.N,/RXLED{slash}CBUS1*%
X147405000Y-94235000D03*
X155406000Y-97029000D03*
%TO.N,/TXLED{slash}CBUS2*%
X151781017Y-101151017D03*
X144738000Y-94616000D03*
%TO.N,+5V*%
X163915000Y-108332000D03*
X162518000Y-89663000D03*
X162137000Y-99569000D03*
X155914000Y-108332000D03*
%TD*%
D33*
%TO.N,GND*%
X154898000Y-103379000D02*
X154263000Y-104014000D01*
X154898000Y-102254500D02*
X154898000Y-100317000D01*
X154263000Y-104014000D02*
X152993000Y-104014000D01*
X149578000Y-100317000D02*
X150320500Y-100317000D01*
X149183000Y-102871000D02*
X149183000Y-100712000D01*
X154898000Y-100317000D02*
X154898000Y-98379500D01*
X149183000Y-100712000D02*
X149578000Y-100317000D01*
X154898000Y-98553000D02*
X154898000Y-98379500D01*
X154898000Y-102254500D02*
X154898000Y-103379000D01*
D34*
%TO.N,Net-(C1-Pad1)*%
X146363000Y-112142000D02*
X146363000Y-110483000D01*
X142706000Y-112105000D02*
X146326000Y-112105000D01*
X146363000Y-110483000D02*
X146516000Y-110330000D01*
X146326000Y-112105000D02*
X146363000Y-112142000D01*
D33*
%TO.N,Net-(U2-3V3OUT)*%
X156835500Y-102141500D02*
X157184000Y-102490000D01*
D35*
X156800000Y-102874000D02*
X157184000Y-102490000D01*
X156800000Y-103900000D02*
X156800000Y-102874000D01*
X151342000Y-96394000D02*
X151342000Y-98299000D01*
X151342000Y-98299000D02*
X151596000Y-98553000D01*
D33*
X151596000Y-99061000D02*
X151596000Y-98553000D01*
X156835500Y-101317000D02*
X156835500Y-102141500D01*
X151852000Y-99317000D02*
X151596000Y-99061000D01*
X152960500Y-99317000D02*
X151852000Y-99317000D01*
D34*
%TO.N,Net-(D1-A)*%
X148675000Y-109856000D02*
X148675000Y-108205000D01*
X151437000Y-112618000D02*
X148675000Y-109856000D01*
X154009000Y-112618000D02*
X151437000Y-112618000D01*
X146516000Y-108205000D02*
X148675000Y-108205000D01*
D36*
%TO.N,/VBUS*%
X146500000Y-97045000D02*
X149310000Y-94235000D01*
D34*
X143735800Y-108179600D02*
X143735800Y-107683200D01*
X146500000Y-97917000D02*
X143346200Y-97917000D01*
X146289000Y-102717000D02*
X146516000Y-102490000D01*
D36*
X148045500Y-100317000D02*
X146835954Y-100317000D01*
D34*
X143735800Y-107683200D02*
X146516000Y-104903000D01*
D36*
X146835954Y-100317000D02*
X146821954Y-100303000D01*
D34*
X143346200Y-102717000D02*
X146289000Y-102717000D01*
D36*
X146500000Y-97917000D02*
X146500000Y-97045000D01*
X149310000Y-94235000D02*
X150771000Y-94235000D01*
D34*
X146516000Y-104903000D02*
X146516000Y-102490000D01*
D36*
%TO.N,Net-(D2-K)*%
X146032500Y-91568000D02*
X147405000Y-91568000D01*
X143594000Y-89129500D02*
X146032500Y-91568000D01*
%TO.N,/D+*%
X143346200Y-99567000D02*
X144742500Y-99567000D01*
X143346200Y-100567000D02*
X145010000Y-100567000D01*
X148045500Y-101267000D02*
X146726000Y-101267000D01*
X144974000Y-100816500D02*
X144974000Y-100603000D01*
X145010000Y-100567000D02*
X146026000Y-100567000D01*
X146726000Y-101267000D02*
X146026000Y-100567000D01*
X144974000Y-100603000D02*
X145010000Y-100567000D01*
X144742500Y-99567000D02*
X144992000Y-99317500D01*
%TO.N,/D-*%
X147593000Y-99508000D02*
X148045500Y-99508000D01*
X142421200Y-101067000D02*
X142100000Y-100745800D01*
X146698000Y-99367000D02*
X145998000Y-100067000D01*
X148045500Y-99367000D02*
X146698000Y-99367000D01*
X143346200Y-101067000D02*
X142421200Y-101067000D01*
X143346200Y-100067000D02*
X145998000Y-100067000D01*
X142100000Y-100745800D02*
X142100000Y-100388200D01*
X142421200Y-100067000D02*
X143346200Y-100067000D01*
X142100000Y-100388200D02*
X142421200Y-100067000D01*
%TO.N,Net-(D3-K)*%
X141823500Y-89129500D02*
X140594000Y-89129500D01*
X144738000Y-91569000D02*
X144263000Y-91569000D01*
X144263000Y-91569000D02*
X141823500Y-89129500D01*
%TO.N,Net-(J1-CC1)*%
X139785000Y-93346000D02*
X140547000Y-94108000D01*
X139785000Y-93218000D02*
X139785000Y-93346000D01*
X139940720Y-93373720D02*
X139785000Y-93218000D01*
X140547000Y-100047000D02*
X142067000Y-101567000D01*
X142067000Y-101567000D02*
X143346200Y-101567000D01*
X140547000Y-94108000D02*
X140547000Y-100047000D01*
%TO.N,/TXD*%
X159691500Y-103600000D02*
X159200000Y-104091500D01*
X157819000Y-98172000D02*
X157819000Y-97778500D01*
X159200000Y-104091500D02*
X159200000Y-107000000D01*
X157819000Y-99335758D02*
X157819000Y-98172000D01*
X157819000Y-91568000D02*
X158445000Y-90942000D01*
X159200000Y-107000000D02*
X159392000Y-107192000D01*
X157819000Y-97778500D02*
X157704500Y-97664000D01*
X157819000Y-98172000D02*
X157819000Y-91568000D01*
D33*
X157337758Y-99817000D02*
X157819000Y-99335758D01*
X156835500Y-99817000D02*
X157337758Y-99817000D01*
D36*
X159392000Y-107192000D02*
X160541000Y-107192000D01*
X158445000Y-90942000D02*
X160541000Y-90942000D01*
%TO.N,/RXD*%
X158454000Y-93046000D02*
X158454000Y-99760481D01*
X161600000Y-105942000D02*
X160541000Y-105942000D01*
D33*
X155898000Y-103849460D02*
X155728500Y-104018960D01*
D36*
X160541000Y-92192000D02*
X159308000Y-92192000D01*
D33*
X155898000Y-102254500D02*
X155898000Y-103849460D01*
D36*
X159308000Y-92192000D02*
X158454000Y-93046000D01*
X158454000Y-99760481D02*
X158359913Y-99854568D01*
%TO.N,/#RTS*%
X158506758Y-100817000D02*
X158000000Y-100817000D01*
X158945000Y-108442000D02*
X160541000Y-108442000D01*
X158506758Y-100817000D02*
X156835500Y-100817000D01*
X158506758Y-100817000D02*
X158095000Y-100817000D01*
X158000000Y-100817000D02*
X158000000Y-107497000D01*
X159109424Y-95090576D02*
X159109424Y-100214334D01*
X158000000Y-107497000D02*
X158945000Y-108442000D01*
X159508000Y-94692000D02*
X159109424Y-95090576D01*
X160541000Y-94692000D02*
X159508000Y-94692000D01*
X159109424Y-100214334D02*
X158506758Y-100817000D01*
D35*
%TO.N,/#CTS*%
X162772000Y-108628000D02*
X162772000Y-107316000D01*
D33*
X152960500Y-101317000D02*
X152960500Y-102649500D01*
D35*
X155533000Y-110618000D02*
X152358000Y-110618000D01*
X152358000Y-110618000D02*
X151723000Y-109983000D01*
X160541000Y-109692000D02*
X161708000Y-109692000D01*
D33*
X151723000Y-103887000D02*
X151723000Y-104268000D01*
D35*
X161708000Y-109692000D02*
X162772000Y-108628000D01*
D36*
X161442000Y-93442000D02*
X160541000Y-93442000D01*
D35*
X156459000Y-109692000D02*
X155533000Y-110618000D01*
D36*
X162200000Y-94200000D02*
X161442000Y-93442000D01*
D33*
X152960500Y-102649500D02*
X151723000Y-103887000D01*
D35*
X160541000Y-109692000D02*
X156459000Y-109692000D01*
X151723000Y-109983000D02*
X151723000Y-104268000D01*
D33*
%TO.N,/RXLED{slash}CBUS1*%
X155398000Y-98379500D02*
X155398000Y-97037000D01*
X155398000Y-97037000D02*
X155406000Y-97029000D01*
D36*
X147405000Y-94235000D02*
X147405000Y-93218000D01*
D33*
%TO.N,/TXLED{slash}CBUS2*%
X152115034Y-100817000D02*
X151781017Y-101151017D01*
D36*
X144738000Y-93219000D02*
X144738000Y-94616000D01*
D33*
X152960500Y-100817000D02*
X152115034Y-100817000D01*
%TO.N,/DM*%
X152960500Y-99817000D02*
X151517000Y-99817000D01*
X151517000Y-99817000D02*
X151067000Y-99367000D01*
X151067000Y-99367000D02*
X150320500Y-99367000D01*
%TO.N,/DP*%
X152960500Y-100317000D02*
X151625084Y-100317000D01*
X151625084Y-100317000D02*
X150675084Y-101267000D01*
X150675084Y-101267000D02*
X150320500Y-101267000D01*
D36*
%TO.N,Net-(J1-CC2)*%
X143346200Y-98567000D02*
X141450000Y-98567000D01*
X141450000Y-98567000D02*
X141055000Y-98172000D01*
X141055000Y-98172000D02*
X141055000Y-94107000D01*
X141055000Y-94107000D02*
X141944000Y-93218000D01*
%TO.N,Net-(U2-~{RESET})*%
X153629000Y-95443000D02*
X152421000Y-94235000D01*
D33*
X153898000Y-98379500D02*
X153898000Y-97172000D01*
D36*
X152421000Y-94235000D02*
X152421000Y-92203000D01*
X153629000Y-96903000D02*
X153898000Y-97172000D01*
X153629000Y-96903000D02*
X153629000Y-95443000D01*
%TO.N,+5V*%
X155279000Y-89721000D02*
X155250000Y-89692000D01*
D34*
X162137000Y-99569000D02*
X160541000Y-101165000D01*
X154295000Y-108332000D02*
X154009000Y-108618000D01*
X148703000Y-89692000D02*
X146515500Y-87504500D01*
X162518000Y-89663000D02*
X160570000Y-89663000D01*
X160541000Y-101165000D02*
X160541000Y-104692000D01*
X162192000Y-104692000D02*
X163915000Y-106415000D01*
D33*
X154398000Y-95992000D02*
X154631000Y-95759000D01*
D36*
X155279000Y-92838000D02*
X155279000Y-92965000D01*
D35*
X155279000Y-95111000D02*
X154631000Y-95759000D01*
D34*
X160541000Y-104692000D02*
X162192000Y-104692000D01*
X146515500Y-87504500D02*
X143594000Y-87504500D01*
X155914000Y-108332000D02*
X154295000Y-108332000D01*
X160570000Y-89663000D02*
X160541000Y-89692000D01*
D35*
X155279000Y-92838000D02*
X155279000Y-95111000D01*
D34*
X155250000Y-89692000D02*
X148703000Y-89692000D01*
X160541000Y-89692000D02*
X155250000Y-89692000D01*
X163915000Y-106415000D02*
X163915000Y-108332000D01*
D35*
X155279000Y-92838000D02*
X155279000Y-89721000D01*
D33*
X154398000Y-98379500D02*
X154398000Y-95992000D01*
D34*
X140594000Y-87504500D02*
X143594000Y-87504500D01*
%TD*%
%TA.AperFunction,Conductor*%
%TO.N,GND*%
G36*
X153482661Y-102651241D02*
G01*
X153534165Y-102700107D01*
X153539397Y-102710127D01*
X153575150Y-102786800D01*
X153653199Y-102864849D01*
X153653200Y-102864849D01*
X153653201Y-102864850D01*
X153753240Y-102911499D01*
X153798821Y-102917500D01*
X153997178Y-102917499D01*
X153997181Y-102917498D01*
X153997188Y-102917498D01*
X154022058Y-102914223D01*
X154042760Y-102911499D01*
X154094749Y-102887255D01*
X154164941Y-102876594D01*
X154201250Y-102887255D01*
X154253240Y-102911499D01*
X154298821Y-102917500D01*
X154497178Y-102917499D01*
X154497181Y-102917498D01*
X154497188Y-102917498D01*
X154522058Y-102914223D01*
X154542760Y-102911499D01*
X154542763Y-102911497D01*
X154552017Y-102908801D01*
X154552881Y-102911767D01*
X154607195Y-102903508D01*
X154645615Y-102915170D01*
X154730634Y-102956733D01*
X154801100Y-102966999D01*
X154994898Y-102966999D01*
X155065364Y-102956733D01*
X155150383Y-102915170D01*
X155220366Y-102903221D01*
X155243684Y-102909835D01*
X155243986Y-102908802D01*
X155253240Y-102911499D01*
X155298821Y-102917500D01*
X155421500Y-102917499D01*
X155489620Y-102937501D01*
X155536113Y-102991156D01*
X155547500Y-103043499D01*
X155547500Y-103303136D01*
X155527498Y-103371257D01*
X155480056Y-103414703D01*
X155356259Y-103479677D01*
X155238018Y-103584428D01*
X155238016Y-103584430D01*
X155148283Y-103714430D01*
X155148282Y-103714433D01*
X155148281Y-103714435D01*
X155148280Y-103714437D01*
X155145169Y-103722640D01*
X155092261Y-103862144D01*
X155073222Y-104018956D01*
X155073222Y-104018963D01*
X155092261Y-104175775D01*
X155119731Y-104248205D01*
X155148280Y-104323483D01*
X155148281Y-104323485D01*
X155148282Y-104323486D01*
X155148283Y-104323489D01*
X155238016Y-104453489D01*
X155238018Y-104453491D01*
X155250656Y-104464687D01*
X155356260Y-104558243D01*
X155496135Y-104631656D01*
X155496136Y-104631656D01*
X155496138Y-104631657D01*
X155572824Y-104650558D01*
X155649515Y-104669460D01*
X155649517Y-104669460D01*
X155807483Y-104669460D01*
X155807485Y-104669460D01*
X155960865Y-104631656D01*
X156100740Y-104558243D01*
X156131301Y-104531167D01*
X156195552Y-104500967D01*
X156265932Y-104510298D01*
X156290362Y-104524611D01*
X156318267Y-104545500D01*
X156360814Y-104602335D01*
X156365880Y-104673151D01*
X156331855Y-104735464D01*
X156297355Y-104758096D01*
X156297782Y-104758854D01*
X156290271Y-104763076D01*
X156175278Y-104850278D01*
X156088077Y-104965270D01*
X156035132Y-105099527D01*
X156035131Y-105099532D01*
X156025000Y-105183896D01*
X156025000Y-105196000D01*
X156928000Y-105196000D01*
X156996121Y-105216002D01*
X157042614Y-105269658D01*
X157054000Y-105322000D01*
X157054000Y-106200000D01*
X157091101Y-106200000D01*
X157091103Y-106199999D01*
X157175467Y-106189868D01*
X157175472Y-106189867D01*
X157309729Y-106136922D01*
X157397366Y-106070465D01*
X157463730Y-106045241D01*
X157533197Y-106059901D01*
X157583710Y-106109791D01*
X157599500Y-106170862D01*
X157599500Y-107560434D01*
X157606298Y-107581358D01*
X157610912Y-107600577D01*
X157614353Y-107622300D01*
X157614355Y-107622306D01*
X157624341Y-107641906D01*
X157631906Y-107660169D01*
X157638703Y-107681089D01*
X157638704Y-107681091D01*
X157651631Y-107698883D01*
X157661960Y-107715738D01*
X157671948Y-107735340D01*
X157671949Y-107735341D01*
X157671950Y-107735342D01*
X157692942Y-107756334D01*
X157692969Y-107756363D01*
X158686008Y-108749402D01*
X158686027Y-108749419D01*
X158703137Y-108766529D01*
X158706658Y-108770050D01*
X158726260Y-108780038D01*
X158743118Y-108790369D01*
X158760909Y-108803295D01*
X158760910Y-108803295D01*
X158760911Y-108803296D01*
X158771852Y-108806851D01*
X158781826Y-108810092D01*
X158800092Y-108817658D01*
X158819696Y-108827646D01*
X158841417Y-108831086D01*
X158860645Y-108835701D01*
X158881567Y-108842500D01*
X158913481Y-108842500D01*
X159472918Y-108842500D01*
X159541039Y-108862502D01*
X159562008Y-108879400D01*
X159588415Y-108905807D01*
X159602658Y-108920050D01*
X159670726Y-108954733D01*
X159722341Y-109003482D01*
X159739407Y-109072397D01*
X159716506Y-109139598D01*
X159670726Y-109179267D01*
X159602657Y-109213950D01*
X159597864Y-109217433D01*
X159530997Y-109241294D01*
X159523799Y-109241500D01*
X156487844Y-109241500D01*
X156480787Y-109241104D01*
X156441965Y-109236730D01*
X156441964Y-109236730D01*
X156441963Y-109236730D01*
X156384649Y-109247573D01*
X156382328Y-109247967D01*
X156324708Y-109256652D01*
X156316553Y-109259168D01*
X156308526Y-109261977D01*
X156256959Y-109289230D01*
X156254859Y-109290290D01*
X156202357Y-109315575D01*
X156195325Y-109320368D01*
X156188462Y-109325434D01*
X156147239Y-109366655D01*
X156145544Y-109368288D01*
X156102806Y-109407945D01*
X156096919Y-109415327D01*
X156096243Y-109414788D01*
X156086782Y-109427113D01*
X155383302Y-110130595D01*
X155320989Y-110164620D01*
X155294206Y-110167500D01*
X155245884Y-110167500D01*
X155177763Y-110147498D01*
X155131270Y-110093842D01*
X155121166Y-110023568D01*
X155141118Y-109971500D01*
X155144965Y-109965742D01*
X155144966Y-109965739D01*
X155145415Y-109963483D01*
X155159500Y-109892674D01*
X155159500Y-108958499D01*
X155179502Y-108890379D01*
X155233158Y-108843886D01*
X155285500Y-108832500D01*
X155450198Y-108832500D01*
X155518319Y-108852502D01*
X155533749Y-108864186D01*
X155541760Y-108871283D01*
X155681635Y-108944696D01*
X155681636Y-108944696D01*
X155681638Y-108944697D01*
X155737641Y-108958500D01*
X155835015Y-108982500D01*
X155835017Y-108982500D01*
X155992983Y-108982500D01*
X155992985Y-108982500D01*
X156146365Y-108944696D01*
X156286240Y-108871283D01*
X156404483Y-108766530D01*
X156494220Y-108636523D01*
X156550237Y-108488818D01*
X156550237Y-108488817D01*
X156550238Y-108488815D01*
X156569278Y-108332003D01*
X156569278Y-108331996D01*
X156550238Y-108175184D01*
X156542392Y-108154498D01*
X156494220Y-108027477D01*
X156494216Y-108027472D01*
X156494216Y-108027470D01*
X156404483Y-107897470D01*
X156404481Y-107897468D01*
X156286240Y-107792717D01*
X156146365Y-107719304D01*
X156146361Y-107719302D01*
X155992987Y-107681500D01*
X155992985Y-107681500D01*
X155835015Y-107681500D01*
X155835012Y-107681500D01*
X155681638Y-107719302D01*
X155681634Y-107719304D01*
X155541760Y-107792716D01*
X155541758Y-107792718D01*
X155533753Y-107799811D01*
X155469500Y-107830013D01*
X155450198Y-107831500D01*
X155285500Y-107831500D01*
X155217379Y-107811498D01*
X155170886Y-107757842D01*
X155159500Y-107705500D01*
X155159500Y-107343325D01*
X155159499Y-107343322D01*
X155152015Y-107305700D01*
X155144966Y-107270260D01*
X155089601Y-107187399D01*
X155006740Y-107132034D01*
X155006739Y-107132033D01*
X154933677Y-107117500D01*
X154933674Y-107117500D01*
X153084326Y-107117500D01*
X153084322Y-107117500D01*
X153011260Y-107132033D01*
X152928399Y-107187399D01*
X152873033Y-107270260D01*
X152858500Y-107343322D01*
X152858500Y-109892677D01*
X152873033Y-109965739D01*
X152873034Y-109965742D01*
X152876882Y-109971500D01*
X152898096Y-110039253D01*
X152879312Y-110107719D01*
X152826494Y-110155162D01*
X152772116Y-110167500D01*
X152596793Y-110167500D01*
X152528672Y-110147498D01*
X152507702Y-110130599D01*
X152210404Y-109833301D01*
X152176379Y-109770989D01*
X152173500Y-109744206D01*
X152173500Y-105704000D01*
X156025000Y-105704000D01*
X156025000Y-105716103D01*
X156035131Y-105800467D01*
X156035132Y-105800472D01*
X156088077Y-105934729D01*
X156175278Y-106049721D01*
X156290270Y-106136922D01*
X156424527Y-106189867D01*
X156424532Y-106189868D01*
X156508896Y-106199999D01*
X156508899Y-106200000D01*
X156546000Y-106200000D01*
X156546000Y-105704000D01*
X156025000Y-105704000D01*
X152173500Y-105704000D01*
X152173500Y-104234242D01*
X152173500Y-104234241D01*
X152173500Y-104234238D01*
X152158348Y-104133713D01*
X152136556Y-104088461D01*
X152125021Y-104018408D01*
X152153190Y-103953239D01*
X152160972Y-103944708D01*
X153173399Y-102932281D01*
X153193568Y-102915902D01*
X153201169Y-102910937D01*
X153221327Y-102885035D01*
X153226494Y-102879187D01*
X153228875Y-102876807D01*
X153240812Y-102860086D01*
X153242303Y-102858085D01*
X153273017Y-102818626D01*
X153273019Y-102818617D01*
X153276495Y-102812197D01*
X153279732Y-102805574D01*
X153279739Y-102805566D01*
X153293996Y-102757674D01*
X153294777Y-102755239D01*
X153306031Y-102722460D01*
X153347069Y-102664528D01*
X153412914Y-102637978D01*
X153482661Y-102651241D01*
G37*
%TD.AperFunction*%
%TA.AperFunction,Conductor*%
G36*
X159678701Y-90212502D02*
G01*
X159725194Y-90266158D01*
X159735298Y-90336432D01*
X159705804Y-90401012D01*
X159667783Y-90430767D01*
X159602658Y-90463949D01*
X159582336Y-90484272D01*
X159562011Y-90504596D01*
X159499703Y-90538620D01*
X159472918Y-90541500D01*
X158508433Y-90541500D01*
X158381567Y-90541500D01*
X158367393Y-90546105D01*
X158360640Y-90548299D01*
X158341423Y-90552912D01*
X158319696Y-90556353D01*
X158300091Y-90566342D01*
X158281837Y-90573903D01*
X158260912Y-90580703D01*
X158243110Y-90593636D01*
X158226260Y-90603961D01*
X158206658Y-90613949D01*
X158206655Y-90613951D01*
X157490953Y-91329653D01*
X157490950Y-91329658D01*
X157480962Y-91349258D01*
X157470640Y-91366102D01*
X157457704Y-91383909D01*
X157457703Y-91383910D01*
X157450904Y-91404835D01*
X157443340Y-91423095D01*
X157433354Y-91442694D01*
X157429911Y-91464427D01*
X157425298Y-91483639D01*
X157418500Y-91504562D01*
X157418500Y-97003285D01*
X157398498Y-97071406D01*
X157351058Y-97114850D01*
X157337936Y-97121738D01*
X157332258Y-97124718D01*
X157214018Y-97229468D01*
X157214016Y-97229470D01*
X157124283Y-97359470D01*
X157124282Y-97359473D01*
X157124281Y-97359475D01*
X157124280Y-97359477D01*
X157116417Y-97380211D01*
X157068261Y-97507184D01*
X157049222Y-97663996D01*
X157049222Y-97664000D01*
X157068261Y-97820815D01*
X157090162Y-97878562D01*
X157124280Y-97968523D01*
X157124281Y-97968525D01*
X157124282Y-97968526D01*
X157124283Y-97968529D01*
X157214016Y-98098529D01*
X157214018Y-98098531D01*
X157332259Y-98203282D01*
X157332264Y-98203286D01*
X157351055Y-98213148D01*
X157402078Y-98262516D01*
X157418500Y-98324715D01*
X157418500Y-98823670D01*
X157398498Y-98891791D01*
X157344842Y-98938284D01*
X157276056Y-98948592D01*
X157222186Y-98941500D01*
X156498384Y-98941500D01*
X156430263Y-98921498D01*
X156409491Y-98901330D01*
X156408044Y-98902778D01*
X156312222Y-98806956D01*
X156314954Y-98804223D01*
X156283403Y-98765582D01*
X156273499Y-98716620D01*
X156273499Y-97992822D01*
X156267499Y-97947240D01*
X156220850Y-97847201D01*
X156220849Y-97847200D01*
X156220849Y-97847199D01*
X156142800Y-97769150D01*
X156042758Y-97722500D01*
X155997183Y-97716500D01*
X155943173Y-97716500D01*
X155875052Y-97696498D01*
X155828559Y-97642842D01*
X155818455Y-97572568D01*
X155847949Y-97507988D01*
X155859621Y-97496187D01*
X155896478Y-97463535D01*
X155896479Y-97463532D01*
X155896483Y-97463530D01*
X155986220Y-97333523D01*
X156042237Y-97185818D01*
X156042237Y-97185817D01*
X156042238Y-97185815D01*
X156061278Y-97029003D01*
X156061278Y-97028996D01*
X156042238Y-96872184D01*
X156024501Y-96825416D01*
X155986220Y-96724477D01*
X155986216Y-96724472D01*
X155986216Y-96724470D01*
X155943902Y-96663168D01*
X155921666Y-96595744D01*
X155927000Y-96575082D01*
X155927000Y-96013000D01*
X156435000Y-96013000D01*
X156435000Y-96534000D01*
X156447101Y-96534000D01*
X156447103Y-96533999D01*
X156531467Y-96523868D01*
X156531472Y-96523867D01*
X156665729Y-96470922D01*
X156780721Y-96383721D01*
X156867922Y-96268729D01*
X156920867Y-96134472D01*
X156920868Y-96134467D01*
X156930999Y-96050103D01*
X156931000Y-96050100D01*
X156931000Y-96013000D01*
X156435000Y-96013000D01*
X155927000Y-96013000D01*
X155927000Y-94984000D01*
X156435000Y-94984000D01*
X156435000Y-95505000D01*
X156931000Y-95505000D01*
X156931000Y-95467899D01*
X156930999Y-95467896D01*
X156920868Y-95383532D01*
X156920867Y-95383527D01*
X156867922Y-95249270D01*
X156780721Y-95134278D01*
X156665729Y-95047077D01*
X156531472Y-94994132D01*
X156531467Y-94994131D01*
X156447103Y-94984000D01*
X156435000Y-94984000D01*
X155927000Y-94984000D01*
X155914889Y-94984000D01*
X155870521Y-94989328D01*
X155800502Y-94977590D01*
X155747944Y-94929860D01*
X155729500Y-94864227D01*
X155729500Y-90318500D01*
X155749502Y-90250379D01*
X155803158Y-90203886D01*
X155855500Y-90192500D01*
X159610580Y-90192500D01*
X159678701Y-90212502D01*
G37*
%TD.AperFunction*%
%TA.AperFunction,Conductor*%
G36*
X165035621Y-85837502D02*
G01*
X165082114Y-85891158D01*
X165093500Y-85943500D01*
X165093500Y-86925114D01*
X165073498Y-86993235D01*
X165019842Y-87039728D01*
X164952479Y-87050215D01*
X164884067Y-87042000D01*
X163995000Y-87042000D01*
X163995000Y-88642000D01*
X164884057Y-88642000D01*
X164884062Y-88641999D01*
X164952477Y-88633784D01*
X165022497Y-88645521D01*
X165075055Y-88693251D01*
X165093500Y-88758885D01*
X165093500Y-96875114D01*
X165073498Y-96943235D01*
X165019842Y-96989728D01*
X164952479Y-97000215D01*
X164884067Y-96992000D01*
X163995000Y-96992000D01*
X163995000Y-98592000D01*
X164884057Y-98592000D01*
X164884062Y-98591999D01*
X164952477Y-98583784D01*
X165022497Y-98595521D01*
X165075055Y-98643251D01*
X165093500Y-98708885D01*
X165093500Y-101925114D01*
X165073498Y-101993235D01*
X165019842Y-102039728D01*
X164952479Y-102050215D01*
X164884067Y-102042000D01*
X163995000Y-102042000D01*
X163995000Y-103642000D01*
X164884057Y-103642000D01*
X164884062Y-103641999D01*
X164952477Y-103633784D01*
X165022497Y-103645521D01*
X165075055Y-103693251D01*
X165093500Y-103758885D01*
X165093500Y-111875114D01*
X165073498Y-111943235D01*
X165019842Y-111989728D01*
X164952479Y-112000215D01*
X164884067Y-111992000D01*
X163995000Y-111992000D01*
X163995000Y-113592000D01*
X164884057Y-113592000D01*
X164884062Y-113591999D01*
X164952477Y-113583784D01*
X165022497Y-113595521D01*
X165075055Y-113643251D01*
X165093500Y-113708885D01*
X165093500Y-114690500D01*
X165073498Y-114758621D01*
X165019842Y-114805114D01*
X164967500Y-114816500D01*
X136220500Y-114816500D01*
X136152379Y-114796498D01*
X136105886Y-114742842D01*
X136094500Y-114690500D01*
X136094500Y-113079677D01*
X140755500Y-113079677D01*
X140770033Y-113152739D01*
X140770034Y-113152740D01*
X140825399Y-113235601D01*
X140908260Y-113290966D01*
X140981326Y-113305500D01*
X144430674Y-113305500D01*
X144503740Y-113290966D01*
X144586601Y-113235601D01*
X144641966Y-113152740D01*
X144656500Y-113079674D01*
X144656500Y-112731499D01*
X144676502Y-112663379D01*
X144730158Y-112616886D01*
X144782500Y-112605500D01*
X145640780Y-112605500D01*
X145708901Y-112625502D01*
X145741649Y-112655992D01*
X145798313Y-112731687D01*
X145907770Y-112813626D01*
X145907772Y-112813627D01*
X145907774Y-112813628D01*
X146035886Y-112861412D01*
X146092515Y-112867500D01*
X146633484Y-112867499D01*
X146633487Y-112867499D01*
X146661799Y-112864455D01*
X146690114Y-112861412D01*
X146818226Y-112813628D01*
X146927687Y-112731687D01*
X147008501Y-112623730D01*
X147065336Y-112581185D01*
X147136151Y-112576119D01*
X147198464Y-112610144D01*
X147221095Y-112644644D01*
X147221854Y-112644218D01*
X147226076Y-112651728D01*
X147313278Y-112766721D01*
X147428270Y-112853922D01*
X147562527Y-112906867D01*
X147562532Y-112906868D01*
X147646896Y-112916999D01*
X147646899Y-112917000D01*
X147659000Y-112917000D01*
X147659000Y-112396000D01*
X148167000Y-112396000D01*
X148167000Y-112917000D01*
X148179101Y-112917000D01*
X148179103Y-112916999D01*
X148263467Y-112906868D01*
X148263472Y-112906867D01*
X148397729Y-112853922D01*
X148512721Y-112766721D01*
X148599922Y-112651729D01*
X148652867Y-112517472D01*
X148652868Y-112517467D01*
X148662999Y-112433103D01*
X148663000Y-112433100D01*
X148663000Y-112396000D01*
X148167000Y-112396000D01*
X147659000Y-112396000D01*
X147659000Y-111367000D01*
X148167000Y-111367000D01*
X148167000Y-111888000D01*
X148663000Y-111888000D01*
X148663000Y-111850899D01*
X148662999Y-111850896D01*
X148652868Y-111766532D01*
X148652867Y-111766527D01*
X148599922Y-111632270D01*
X148512721Y-111517278D01*
X148397729Y-111430077D01*
X148263472Y-111377132D01*
X148263467Y-111377131D01*
X148179103Y-111367000D01*
X148167000Y-111367000D01*
X147659000Y-111367000D01*
X147646896Y-111367000D01*
X147562532Y-111377131D01*
X147562527Y-111377132D01*
X147428270Y-111430077D01*
X147313278Y-111517278D01*
X147226076Y-111632271D01*
X147221854Y-111639782D01*
X147220385Y-111638956D01*
X147182970Y-111687028D01*
X147115996Y-111710585D01*
X147046917Y-111694193D01*
X147008501Y-111660268D01*
X146929908Y-111555280D01*
X146927687Y-111552313D01*
X146913988Y-111542058D01*
X146871443Y-111485221D01*
X146863500Y-111441192D01*
X146863500Y-111139633D01*
X146883502Y-111071512D01*
X146937158Y-111025019D01*
X146976035Y-111014355D01*
X146998017Y-111011992D01*
X146998018Y-111011991D01*
X146998022Y-111011991D01*
X147124450Y-110964836D01*
X147141639Y-110951969D01*
X147232472Y-110883972D01*
X147313334Y-110775953D01*
X147313334Y-110775952D01*
X147313336Y-110775950D01*
X147360491Y-110649522D01*
X147366500Y-110593630D01*
X147366500Y-110066370D01*
X147366093Y-110062582D01*
X147360492Y-110010482D01*
X147356596Y-110000036D01*
X147313336Y-109884050D01*
X147313334Y-109884047D01*
X147313334Y-109884046D01*
X147232472Y-109776027D01*
X147124453Y-109695165D01*
X146998017Y-109648007D01*
X146942142Y-109642000D01*
X146942130Y-109642000D01*
X146089870Y-109642000D01*
X146089857Y-109642000D01*
X146033982Y-109648007D01*
X145907547Y-109695165D01*
X145907546Y-109695165D01*
X145799527Y-109776027D01*
X145718665Y-109884046D01*
X145718665Y-109884047D01*
X145671507Y-110010482D01*
X145665500Y-110066357D01*
X145665500Y-110593642D01*
X145671507Y-110649517D01*
X145718665Y-110775952D01*
X145718665Y-110775953D01*
X145799528Y-110883972D01*
X145812007Y-110893314D01*
X145854555Y-110950149D01*
X145862500Y-110994183D01*
X145862500Y-111441192D01*
X145842498Y-111509313D01*
X145812011Y-111542058D01*
X145805200Y-111547156D01*
X145798311Y-111552314D01*
X145797043Y-111554009D01*
X145795344Y-111555280D01*
X145791940Y-111558685D01*
X145791450Y-111558195D01*
X145740207Y-111596556D01*
X145696175Y-111604500D01*
X144782500Y-111604500D01*
X144714379Y-111584498D01*
X144667886Y-111530842D01*
X144656500Y-111478500D01*
X144656500Y-111130325D01*
X144656499Y-111130322D01*
X144648180Y-111088502D01*
X144641966Y-111057260D01*
X144586601Y-110974399D01*
X144521816Y-110931112D01*
X144503739Y-110919033D01*
X144430677Y-110904500D01*
X144430674Y-110904500D01*
X140981326Y-110904500D01*
X140981322Y-110904500D01*
X140908260Y-110919033D01*
X140825399Y-110974399D01*
X140770033Y-111057260D01*
X140755500Y-111130322D01*
X140755500Y-113079677D01*
X136094500Y-113079677D01*
X136094500Y-104382999D01*
X137332515Y-104382999D01*
X137332516Y-104383000D01*
X138031549Y-104383000D01*
X137985590Y-104411457D01*
X137917999Y-104500962D01*
X137887305Y-104608840D01*
X137897654Y-104720521D01*
X137947648Y-104820922D01*
X138024518Y-104891000D01*
X137332516Y-104891000D01*
X137365864Y-104986303D01*
X137365865Y-104986305D01*
X137461776Y-105138948D01*
X137589251Y-105266423D01*
X137741897Y-105362336D01*
X137912054Y-105421875D01*
X137912053Y-105421875D01*
X138046274Y-105437000D01*
X138337200Y-105437000D01*
X138337200Y-104937000D01*
X138845200Y-104937000D01*
X138845200Y-105437000D01*
X139136126Y-105437000D01*
X139270346Y-105421875D01*
X139440502Y-105362336D01*
X139593148Y-105266423D01*
X139720623Y-105138948D01*
X139816534Y-104986305D01*
X139816535Y-104986303D01*
X139849884Y-104891000D01*
X139150851Y-104891000D01*
X139196810Y-104862543D01*
X139264401Y-104773038D01*
X139295095Y-104665160D01*
X139284746Y-104553479D01*
X139234752Y-104453078D01*
X139157882Y-104383000D01*
X139849884Y-104383000D01*
X141459328Y-104383000D01*
X142061549Y-104383000D01*
X142015590Y-104411457D01*
X141947999Y-104500962D01*
X141917305Y-104608840D01*
X141927654Y-104720521D01*
X141977648Y-104820922D01*
X142054518Y-104891000D01*
X141460515Y-104891000D01*
X141460513Y-104891001D01*
X141475273Y-104944163D01*
X141475275Y-104944168D01*
X141559328Y-105102708D01*
X141675501Y-105239476D01*
X141818360Y-105348075D01*
X141981227Y-105423425D01*
X142156468Y-105461998D01*
X142156480Y-105462000D01*
X142517200Y-105462000D01*
X142517200Y-104937000D01*
X143025200Y-104937000D01*
X143025200Y-105462000D01*
X143340924Y-105462000D01*
X143340939Y-105461999D01*
X143474595Y-105447463D01*
X143474596Y-105447463D01*
X143644648Y-105390166D01*
X143644649Y-105390165D01*
X143798410Y-105297651D01*
X143928691Y-105174242D01*
X144029397Y-105025713D01*
X144083072Y-104891000D01*
X143480851Y-104891000D01*
X143526810Y-104862543D01*
X143594401Y-104773038D01*
X143625095Y-104665160D01*
X143614746Y-104553479D01*
X143564752Y-104453078D01*
X143487882Y-104383000D01*
X144081886Y-104383000D01*
X144081886Y-104382998D01*
X144067126Y-104329836D01*
X144067125Y-104329835D01*
X144023425Y-104247407D01*
X144009189Y-104177853D01*
X144034817Y-104111643D01*
X144083856Y-104073123D01*
X144093678Y-104068786D01*
X144172985Y-103989479D01*
X144172986Y-103989477D01*
X144218290Y-103886873D01*
X144221199Y-103861798D01*
X144221200Y-103861795D01*
X144221200Y-103771000D01*
X142471200Y-103771000D01*
X142467105Y-103775095D01*
X142404793Y-103809121D01*
X142378010Y-103812000D01*
X142201460Y-103812000D01*
X142067804Y-103826536D01*
X142067803Y-103826536D01*
X141897751Y-103883833D01*
X141897750Y-103883834D01*
X141743989Y-103976348D01*
X141613708Y-104099757D01*
X141513002Y-104248286D01*
X141459328Y-104383000D01*
X139849884Y-104383000D01*
X139849884Y-104382999D01*
X139816535Y-104287696D01*
X139816534Y-104287694D01*
X139720623Y-104135051D01*
X139593148Y-104007576D01*
X139440502Y-103911663D01*
X139270345Y-103852124D01*
X139270346Y-103852124D01*
X139136126Y-103837000D01*
X138845200Y-103837000D01*
X138845200Y-104337000D01*
X138337200Y-104337000D01*
X138337200Y-103837000D01*
X138046274Y-103837000D01*
X137912053Y-103852124D01*
X137741897Y-103911663D01*
X137589251Y-104007576D01*
X137461776Y-104135051D01*
X137365865Y-104287694D01*
X137365864Y-104287696D01*
X137332515Y-104382999D01*
X136094500Y-104382999D01*
X136094500Y-95742999D01*
X137332515Y-95742999D01*
X137332516Y-95743000D01*
X138031549Y-95743000D01*
X137985590Y-95771457D01*
X137917999Y-95860962D01*
X137887305Y-95968840D01*
X137897654Y-96080521D01*
X137947648Y-96180922D01*
X138024518Y-96251000D01*
X137332516Y-96251000D01*
X137365864Y-96346303D01*
X137365865Y-96346305D01*
X137461776Y-96498948D01*
X137589251Y-96626423D01*
X137741897Y-96722336D01*
X137912054Y-96781875D01*
X137912053Y-96781875D01*
X138046274Y-96797000D01*
X138337200Y-96797000D01*
X138337200Y-96297000D01*
X138845200Y-96297000D01*
X138845200Y-96797000D01*
X139136126Y-96797000D01*
X139270346Y-96781875D01*
X139440502Y-96722336D01*
X139593148Y-96626423D01*
X139720623Y-96498948D01*
X139816534Y-96346305D01*
X139816535Y-96346303D01*
X139849884Y-96251000D01*
X139150851Y-96251000D01*
X139196810Y-96222543D01*
X139264401Y-96133038D01*
X139295095Y-96025160D01*
X139284746Y-95913479D01*
X139234752Y-95813078D01*
X139157882Y-95743000D01*
X139849884Y-95743000D01*
X139849884Y-95742999D01*
X139816535Y-95647696D01*
X139816534Y-95647694D01*
X139720623Y-95495051D01*
X139593148Y-95367576D01*
X139440502Y-95271663D01*
X139270345Y-95212124D01*
X139270346Y-95212124D01*
X139136126Y-95197000D01*
X138845200Y-95197000D01*
X138845200Y-95697000D01*
X138337200Y-95697000D01*
X138337200Y-95197000D01*
X138046274Y-95197000D01*
X137912053Y-95212124D01*
X137741897Y-95271663D01*
X137589251Y-95367576D01*
X137461776Y-95495051D01*
X137365865Y-95647694D01*
X137365864Y-95647696D01*
X137332515Y-95742999D01*
X136094500Y-95742999D01*
X136094500Y-93472266D01*
X139059500Y-93472266D01*
X139062354Y-93502700D01*
X139062355Y-93502704D01*
X139107206Y-93630881D01*
X139107208Y-93630885D01*
X139187849Y-93740150D01*
X139297114Y-93820791D01*
X139297118Y-93820793D01*
X139368315Y-93845706D01*
X139425301Y-93865646D01*
X139455734Y-93868500D01*
X139688917Y-93868500D01*
X139757038Y-93888502D01*
X139778012Y-93905405D01*
X140109595Y-94236988D01*
X140143621Y-94299300D01*
X140146500Y-94326083D01*
X140146500Y-100110434D01*
X140153298Y-100131358D01*
X140157912Y-100150577D01*
X140161353Y-100172300D01*
X140161355Y-100172306D01*
X140171341Y-100191906D01*
X140178906Y-100210169D01*
X140185703Y-100231089D01*
X140185704Y-100231091D01*
X140198631Y-100248883D01*
X140208960Y-100265738D01*
X140218948Y-100285340D01*
X140218949Y-100285341D01*
X140218950Y-100285342D01*
X140239942Y-100306334D01*
X140239969Y-100306363D01*
X141808008Y-101874402D01*
X141808027Y-101874419D01*
X141825933Y-101892325D01*
X141828658Y-101895050D01*
X141848260Y-101905038D01*
X141865118Y-101915369D01*
X141882909Y-101928295D01*
X141882910Y-101928295D01*
X141882911Y-101928296D01*
X141893852Y-101931851D01*
X141903826Y-101935092D01*
X141922092Y-101942658D01*
X141941696Y-101952646D01*
X141963417Y-101956086D01*
X141982645Y-101960701D01*
X142003567Y-101967500D01*
X142035481Y-101967500D01*
X142394700Y-101967500D01*
X142462821Y-101987502D01*
X142509314Y-102041158D01*
X142520700Y-102093500D01*
X142520700Y-102241679D01*
X142530793Y-102292419D01*
X142530793Y-102341581D01*
X142520700Y-102392320D01*
X142520700Y-103015028D01*
X142509964Y-103065921D01*
X142474110Y-103147123D01*
X142474109Y-103147125D01*
X142471200Y-103172201D01*
X142471200Y-103263000D01*
X142711492Y-103263000D01*
X142736073Y-103265420D01*
X142746526Y-103267500D01*
X142746527Y-103267500D01*
X143945873Y-103267500D01*
X143945874Y-103267500D01*
X143956326Y-103265420D01*
X143980908Y-103263000D01*
X144221200Y-103263000D01*
X144229795Y-103254405D01*
X144292107Y-103220379D01*
X144318890Y-103217500D01*
X145889500Y-103217500D01*
X145957621Y-103237502D01*
X146004114Y-103291158D01*
X146015500Y-103343500D01*
X146015500Y-104643496D01*
X145995498Y-104711617D01*
X145978595Y-104732591D01*
X143743591Y-106967595D01*
X143681279Y-107001621D01*
X143654496Y-107004500D01*
X140981322Y-107004500D01*
X140908260Y-107019033D01*
X140825399Y-107074399D01*
X140770033Y-107157260D01*
X140755501Y-107230320D01*
X140755500Y-107230325D01*
X140755500Y-109179677D01*
X140770033Y-109252739D01*
X140770034Y-109252740D01*
X140825399Y-109335601D01*
X140908260Y-109390966D01*
X140981326Y-109405500D01*
X144430674Y-109405500D01*
X144503740Y-109390966D01*
X144586601Y-109335601D01*
X144641966Y-109252740D01*
X144656500Y-109179674D01*
X144656500Y-107522503D01*
X144676502Y-107454382D01*
X144693400Y-107433413D01*
X146160670Y-105966142D01*
X147580500Y-105966142D01*
X147586507Y-106022017D01*
X147595169Y-106045241D01*
X147629364Y-106136922D01*
X147633665Y-106148452D01*
X147633665Y-106148453D01*
X147714527Y-106256472D01*
X147822546Y-106337334D01*
X147822548Y-106337334D01*
X147822550Y-106337336D01*
X147948978Y-106384491D01*
X147948979Y-106384491D01*
X147948982Y-106384492D01*
X148004857Y-106390499D01*
X148004865Y-106390499D01*
X148004870Y-106390500D01*
X148004874Y-106390500D01*
X148532126Y-106390500D01*
X148532130Y-106390500D01*
X148532135Y-106390499D01*
X148532142Y-106390499D01*
X148588017Y-106384492D01*
X148588018Y-106384491D01*
X148588022Y-106384491D01*
X148714450Y-106337336D01*
X148760031Y-106303215D01*
X148822472Y-106256472D01*
X148903334Y-106148453D01*
X148903334Y-106148452D01*
X148903336Y-106148450D01*
X148937945Y-106055658D01*
X148980491Y-105998824D01*
X149047011Y-105974013D01*
X149116385Y-105989104D01*
X149166587Y-106039306D01*
X149174052Y-106055651D01*
X149190203Y-106098953D01*
X149208665Y-106148453D01*
X149289527Y-106256472D01*
X149397546Y-106337334D01*
X149397548Y-106337334D01*
X149397550Y-106337336D01*
X149523978Y-106384491D01*
X149523979Y-106384491D01*
X149523982Y-106384492D01*
X149579857Y-106390499D01*
X149579865Y-106390499D01*
X149579870Y-106390500D01*
X149579874Y-106390500D01*
X150107126Y-106390500D01*
X150107130Y-106390500D01*
X150107135Y-106390499D01*
X150107142Y-106390499D01*
X150163017Y-106384492D01*
X150163018Y-106384491D01*
X150163022Y-106384491D01*
X150289450Y-106337336D01*
X150335031Y-106303215D01*
X150397472Y-106256472D01*
X150478334Y-106148453D01*
X150478334Y-106148452D01*
X150478336Y-106148450D01*
X150525491Y-106022022D01*
X150526412Y-106013461D01*
X150531499Y-105966142D01*
X150531500Y-105966125D01*
X150531500Y-105363874D01*
X150531499Y-105363857D01*
X150525492Y-105307982D01*
X150519345Y-105291500D01*
X150478336Y-105181550D01*
X150478334Y-105181547D01*
X150478334Y-105181546D01*
X150397472Y-105073527D01*
X150289453Y-104992665D01*
X150163017Y-104945507D01*
X150107142Y-104939500D01*
X150107130Y-104939500D01*
X149579870Y-104939500D01*
X149579857Y-104939500D01*
X149523982Y-104945507D01*
X149397547Y-104992665D01*
X149397546Y-104992665D01*
X149289527Y-105073527D01*
X149208666Y-105181545D01*
X149208664Y-105181549D01*
X149208664Y-105181550D01*
X149174054Y-105274341D01*
X149131509Y-105331175D01*
X149064989Y-105355986D01*
X148995615Y-105340895D01*
X148945412Y-105290692D01*
X148937947Y-105274348D01*
X148903336Y-105181550D01*
X148903333Y-105181546D01*
X148903333Y-105181545D01*
X148822472Y-105073527D01*
X148714453Y-104992665D01*
X148588017Y-104945507D01*
X148532142Y-104939500D01*
X148532130Y-104939500D01*
X148004870Y-104939500D01*
X148004857Y-104939500D01*
X147948982Y-104945507D01*
X147822547Y-104992665D01*
X147822546Y-104992665D01*
X147714527Y-105073527D01*
X147633665Y-105181546D01*
X147633665Y-105181547D01*
X147586507Y-105307982D01*
X147580500Y-105363857D01*
X147580500Y-105966142D01*
X146160670Y-105966142D01*
X146822278Y-105304534D01*
X146843256Y-105287631D01*
X146847128Y-105285143D01*
X146881086Y-105245951D01*
X146884126Y-105242686D01*
X146895221Y-105231593D01*
X146904613Y-105219045D01*
X146907432Y-105215547D01*
X146912848Y-105209296D01*
X146941377Y-105176373D01*
X146943289Y-105172183D01*
X146957036Y-105149017D01*
X146959796Y-105145331D01*
X146977918Y-105096739D01*
X146979616Y-105092640D01*
X147001165Y-105045457D01*
X147001819Y-105040901D01*
X147008483Y-105014791D01*
X147010091Y-105010483D01*
X147013789Y-104958770D01*
X147014265Y-104954338D01*
X147016500Y-104938799D01*
X147016500Y-104923130D01*
X147016661Y-104918634D01*
X147018637Y-104891000D01*
X147020359Y-104866927D01*
X147020123Y-104865844D01*
X147019379Y-104862420D01*
X147016500Y-104835640D01*
X147016500Y-102949280D01*
X147036502Y-102881159D01*
X147038804Y-102877704D01*
X147039570Y-102876594D01*
X147096220Y-102794523D01*
X147152237Y-102646818D01*
X147165504Y-102537557D01*
X147171278Y-102490003D01*
X147171278Y-102489996D01*
X147152238Y-102333184D01*
X147140390Y-102301944D01*
X147096220Y-102185477D01*
X147096216Y-102185472D01*
X147096216Y-102185470D01*
X147006483Y-102055470D01*
X147006481Y-102055468D01*
X146888240Y-101950717D01*
X146801262Y-101905067D01*
X146750240Y-101855698D01*
X146734008Y-101786582D01*
X146757720Y-101719662D01*
X146813847Y-101676186D01*
X146859818Y-101667500D01*
X147164918Y-101667500D01*
X147233039Y-101687502D01*
X147254008Y-101704400D01*
X147294658Y-101745050D01*
X147407696Y-101802646D01*
X147501481Y-101817500D01*
X148589518Y-101817499D01*
X148683304Y-101802646D01*
X148796342Y-101745050D01*
X148886050Y-101655342D01*
X148943646Y-101542304D01*
X148958500Y-101448519D01*
X148958499Y-101085482D01*
X148943646Y-100991696D01*
X148905168Y-100916179D01*
X148886050Y-100878657D01*
X148880223Y-100870638D01*
X148882052Y-100869308D01*
X148854464Y-100818797D01*
X148859522Y-100747980D01*
X148881277Y-100714127D01*
X148880223Y-100713362D01*
X148886050Y-100705342D01*
X148902916Y-100672240D01*
X148943646Y-100592304D01*
X148958500Y-100498519D01*
X148958499Y-100135482D01*
X148943646Y-100041696D01*
X148914027Y-99983566D01*
X148886050Y-99928657D01*
X148880223Y-99920638D01*
X148882051Y-99919309D01*
X148854461Y-99868782D01*
X148859526Y-99797967D01*
X148881277Y-99764128D01*
X148880223Y-99763362D01*
X148886050Y-99755342D01*
X148901093Y-99725818D01*
X148943646Y-99642304D01*
X148958500Y-99548519D01*
X148958499Y-99185482D01*
X148943646Y-99091696D01*
X148911680Y-99028960D01*
X148886050Y-98978657D01*
X148796342Y-98888949D01*
X148703379Y-98841583D01*
X148683304Y-98831354D01*
X148589519Y-98816500D01*
X148589515Y-98816500D01*
X147501483Y-98816500D01*
X147407697Y-98831353D01*
X147294658Y-98888949D01*
X147283560Y-98900048D01*
X147254011Y-98929596D01*
X147191703Y-98963620D01*
X147164918Y-98966500D01*
X146663907Y-98966500D01*
X146663883Y-98966501D01*
X146634565Y-98966501D01*
X146613647Y-98973297D01*
X146594426Y-98977912D01*
X146572694Y-98981354D01*
X146553090Y-98991342D01*
X146534833Y-98998905D01*
X146513909Y-99005704D01*
X146496112Y-99018634D01*
X146479261Y-99028960D01*
X146459661Y-99038947D01*
X146459655Y-99038951D01*
X146437091Y-99061516D01*
X145869011Y-99629596D01*
X145806699Y-99663621D01*
X145779916Y-99666500D01*
X145737895Y-99666500D01*
X145669774Y-99646498D01*
X145623281Y-99592842D01*
X145613177Y-99522568D01*
X145620083Y-99495820D01*
X145623736Y-99486183D01*
X145628237Y-99474318D01*
X145644354Y-99341581D01*
X145647278Y-99317503D01*
X145647278Y-99317496D01*
X145628238Y-99160684D01*
X145602073Y-99091694D01*
X145572220Y-99012977D01*
X145572216Y-99012972D01*
X145572216Y-99012970D01*
X145482483Y-98882970D01*
X145482481Y-98882968D01*
X145364240Y-98778217D01*
X145224365Y-98704804D01*
X145224361Y-98704802D01*
X145066275Y-98665839D01*
X145004920Y-98630116D01*
X144992248Y-98605314D01*
X144982796Y-98626012D01*
X144923070Y-98664396D01*
X144917725Y-98665839D01*
X144759638Y-98704802D01*
X144759634Y-98704804D01*
X144619759Y-98778217D01*
X144501518Y-98882968D01*
X144501516Y-98882970D01*
X144411783Y-99012970D01*
X144409272Y-99017757D01*
X144359907Y-99068783D01*
X144290792Y-99085021D01*
X144223871Y-99061314D01*
X144180389Y-99005190D01*
X144171700Y-98959210D01*
X144171700Y-98892325D01*
X144161606Y-98841583D01*
X144161606Y-98792417D01*
X144163134Y-98784736D01*
X144171700Y-98741674D01*
X144171700Y-98543499D01*
X144191702Y-98475379D01*
X144245358Y-98428886D01*
X144297700Y-98417500D01*
X144887572Y-98417500D01*
X144955693Y-98437502D01*
X144992506Y-98479987D01*
X145023717Y-98440597D01*
X145090893Y-98417622D01*
X145096428Y-98417500D01*
X146036198Y-98417500D01*
X146104319Y-98437502D01*
X146119749Y-98449186D01*
X146127760Y-98456283D01*
X146267635Y-98529696D01*
X146267636Y-98529696D01*
X146267638Y-98529697D01*
X146323641Y-98543500D01*
X146421015Y-98567500D01*
X146421017Y-98567500D01*
X146578983Y-98567500D01*
X146578985Y-98567500D01*
X146732365Y-98529696D01*
X146872240Y-98456283D01*
X146990483Y-98351530D01*
X147080220Y-98221523D01*
X147136237Y-98073818D01*
X147136237Y-98073817D01*
X147136238Y-98073815D01*
X147155278Y-97917003D01*
X147155278Y-97916996D01*
X147136238Y-97760184D01*
X147128392Y-97739498D01*
X147080220Y-97612477D01*
X147080216Y-97612472D01*
X147080216Y-97612470D01*
X146999951Y-97496187D01*
X146990483Y-97482470D01*
X146942945Y-97440355D01*
X146905221Y-97380211D01*
X146900500Y-97346044D01*
X146900500Y-97263082D01*
X146920502Y-97194961D01*
X146937405Y-97173987D01*
X147463392Y-96648000D01*
X149042000Y-96648000D01*
X149042000Y-96685103D01*
X149052131Y-96769467D01*
X149052132Y-96769472D01*
X149105077Y-96903729D01*
X149192278Y-97018721D01*
X149307270Y-97105922D01*
X149441527Y-97158867D01*
X149441532Y-97158868D01*
X149525896Y-97168999D01*
X149525899Y-97169000D01*
X149538000Y-97169000D01*
X149538000Y-96648000D01*
X149042000Y-96648000D01*
X147463392Y-96648000D01*
X147971392Y-96140000D01*
X149042000Y-96140000D01*
X149538000Y-96140000D01*
X149538000Y-95619000D01*
X149525896Y-95619000D01*
X149441532Y-95629131D01*
X149441527Y-95629132D01*
X149307270Y-95682077D01*
X149192278Y-95769278D01*
X149105077Y-95884270D01*
X149052132Y-96018527D01*
X149052131Y-96018532D01*
X149042000Y-96102896D01*
X149042000Y-96140000D01*
X147971392Y-96140000D01*
X149438987Y-94672405D01*
X149501299Y-94638379D01*
X149528082Y-94635500D01*
X150048229Y-94635500D01*
X150116350Y-94655502D01*
X150162843Y-94709158D01*
X150167159Y-94719886D01*
X150168208Y-94722885D01*
X150248849Y-94832150D01*
X150358114Y-94912791D01*
X150358118Y-94912793D01*
X150486301Y-94957646D01*
X150516734Y-94960500D01*
X150516736Y-94960500D01*
X151025264Y-94960500D01*
X151025266Y-94960500D01*
X151055699Y-94957646D01*
X151183882Y-94912793D01*
X151268287Y-94850500D01*
X151293150Y-94832150D01*
X151373791Y-94722885D01*
X151373793Y-94722881D01*
X151391456Y-94672405D01*
X151418646Y-94594699D01*
X151421500Y-94564266D01*
X151421500Y-93905734D01*
X151418646Y-93875301D01*
X151373793Y-93747118D01*
X151373791Y-93747114D01*
X151293150Y-93637849D01*
X151183885Y-93557208D01*
X151183881Y-93557206D01*
X151055704Y-93512355D01*
X151055700Y-93512354D01*
X151025266Y-93509500D01*
X150516734Y-93509500D01*
X150516733Y-93509500D01*
X150486299Y-93512354D01*
X150486295Y-93512355D01*
X150358118Y-93557206D01*
X150358114Y-93557208D01*
X150248849Y-93637849D01*
X150168208Y-93747114D01*
X150167159Y-93750114D01*
X150165123Y-93752951D01*
X150163796Y-93755464D01*
X150163452Y-93755282D01*
X150125781Y-93807806D01*
X150059781Y-93833969D01*
X150048229Y-93834500D01*
X149246562Y-93834500D01*
X149225639Y-93841298D01*
X149206427Y-93845911D01*
X149184694Y-93849354D01*
X149165096Y-93859340D01*
X149146834Y-93866905D01*
X149125909Y-93873704D01*
X149125905Y-93873706D01*
X149108115Y-93886632D01*
X149091259Y-93896962D01*
X149071659Y-93906949D01*
X149071658Y-93906949D01*
X149071658Y-93906950D01*
X149049092Y-93929516D01*
X149049091Y-93929517D01*
X146194516Y-96784091D01*
X146171953Y-96806653D01*
X146171950Y-96806658D01*
X146161962Y-96826258D01*
X146151640Y-96843102D01*
X146138704Y-96860909D01*
X146138703Y-96860910D01*
X146131904Y-96881835D01*
X146124340Y-96900095D01*
X146114354Y-96919694D01*
X146110911Y-96941427D01*
X146106298Y-96960639D01*
X146099500Y-96981562D01*
X146099500Y-97290500D01*
X146079498Y-97358621D01*
X146025842Y-97405114D01*
X145973500Y-97416500D01*
X144318891Y-97416500D01*
X144250770Y-97396498D01*
X144229796Y-97379595D01*
X144221201Y-97371000D01*
X143980908Y-97371000D01*
X143956326Y-97368579D01*
X143945874Y-97366500D01*
X142746526Y-97366500D01*
X142746525Y-97366500D01*
X142740173Y-97367763D01*
X142736073Y-97368579D01*
X142711492Y-97371000D01*
X142471201Y-97371000D01*
X142471201Y-97461794D01*
X142474109Y-97486873D01*
X142474111Y-97486878D01*
X142509964Y-97568077D01*
X142520700Y-97618971D01*
X142520700Y-98040500D01*
X142500698Y-98108621D01*
X142447042Y-98155114D01*
X142394700Y-98166500D01*
X141668083Y-98166500D01*
X141599962Y-98146498D01*
X141578987Y-98129595D01*
X141492404Y-98043011D01*
X141458379Y-97980699D01*
X141455500Y-97953916D01*
X141455500Y-96683438D01*
X141475502Y-96615317D01*
X141529158Y-96568824D01*
X141599432Y-96558720D01*
X141664012Y-96588214D01*
X141670528Y-96594795D01*
X141670543Y-96594781D01*
X141675497Y-96599473D01*
X141818360Y-96708075D01*
X141981227Y-96783425D01*
X142156468Y-96821998D01*
X142156480Y-96822000D01*
X142378009Y-96822000D01*
X142446130Y-96842002D01*
X142467104Y-96858905D01*
X142471199Y-96863000D01*
X144221199Y-96863000D01*
X144221199Y-96772211D01*
X144221198Y-96772205D01*
X144218290Y-96747126D01*
X144218288Y-96747121D01*
X144172987Y-96644522D01*
X144093679Y-96565214D01*
X144093675Y-96565212D01*
X144088313Y-96562844D01*
X144034077Y-96517030D01*
X144013219Y-96449166D01*
X144027026Y-96392125D01*
X144026868Y-96392062D01*
X144027311Y-96390948D01*
X144027892Y-96388551D01*
X144029399Y-96385707D01*
X144083072Y-96251000D01*
X143480851Y-96251000D01*
X143526810Y-96222543D01*
X143594401Y-96133038D01*
X143625095Y-96025160D01*
X143614746Y-95913479D01*
X143564752Y-95813078D01*
X143487882Y-95743000D01*
X144081886Y-95743000D01*
X144081886Y-95742998D01*
X144067126Y-95689836D01*
X144067124Y-95689831D01*
X143983071Y-95531291D01*
X143866898Y-95394523D01*
X143724039Y-95285924D01*
X143561172Y-95210574D01*
X143385931Y-95172001D01*
X143385920Y-95172000D01*
X143025200Y-95172000D01*
X143025200Y-95697000D01*
X142517200Y-95697000D01*
X142517200Y-95172000D01*
X142201460Y-95172000D01*
X142067804Y-95186536D01*
X142067803Y-95186536D01*
X141897751Y-95243833D01*
X141897750Y-95243834D01*
X141743989Y-95336348D01*
X141668150Y-95408187D01*
X141604939Y-95440512D01*
X141534286Y-95433531D01*
X141478624Y-95389460D01*
X141455624Y-95322292D01*
X141455500Y-95316711D01*
X141455500Y-94325083D01*
X141475502Y-94256962D01*
X141492405Y-94235988D01*
X141822988Y-93905405D01*
X141885300Y-93871379D01*
X141912083Y-93868500D01*
X142273264Y-93868500D01*
X142273266Y-93868500D01*
X142303699Y-93865646D01*
X142431882Y-93820793D01*
X142466686Y-93795107D01*
X142541150Y-93740150D01*
X142621791Y-93630885D01*
X142621793Y-93630881D01*
X142624370Y-93623518D01*
X142666646Y-93502699D01*
X142669406Y-93473266D01*
X144012500Y-93473266D01*
X144015354Y-93503700D01*
X144015355Y-93503704D01*
X144060206Y-93631881D01*
X144060208Y-93631885D01*
X144140849Y-93741150D01*
X144250114Y-93821791D01*
X144250116Y-93821791D01*
X144250118Y-93821793D01*
X144253114Y-93822841D01*
X144255951Y-93824876D01*
X144258464Y-93826204D01*
X144258282Y-93826547D01*
X144310806Y-93864219D01*
X144336969Y-93930219D01*
X144337500Y-93941771D01*
X144337500Y-94045044D01*
X144317498Y-94113165D01*
X144295054Y-94139356D01*
X144247515Y-94181472D01*
X144157783Y-94311470D01*
X144157782Y-94311473D01*
X144157781Y-94311475D01*
X144157780Y-94311477D01*
X144152620Y-94325083D01*
X144101761Y-94459184D01*
X144082722Y-94615996D01*
X144082722Y-94616003D01*
X144101761Y-94772815D01*
X144129771Y-94846670D01*
X144157780Y-94920523D01*
X144157781Y-94920525D01*
X144157782Y-94920526D01*
X144157783Y-94920529D01*
X144247516Y-95050529D01*
X144247517Y-95050530D01*
X144365760Y-95155283D01*
X144505635Y-95228696D01*
X144505636Y-95228696D01*
X144505638Y-95228697D01*
X144582324Y-95247598D01*
X144659015Y-95266500D01*
X144659017Y-95266500D01*
X144816983Y-95266500D01*
X144816985Y-95266500D01*
X144970365Y-95228696D01*
X145110240Y-95155283D01*
X145228483Y-95050530D01*
X145318220Y-94920523D01*
X145374237Y-94772818D01*
X145374237Y-94772817D01*
X145374238Y-94772815D01*
X145393278Y-94616003D01*
X145393278Y-94615996D01*
X145374238Y-94459184D01*
X145348688Y-94391815D01*
X145318220Y-94311477D01*
X145318216Y-94311472D01*
X145318216Y-94311470D01*
X145250902Y-94213950D01*
X145228483Y-94181470D01*
X145180945Y-94139355D01*
X145143221Y-94079211D01*
X145138500Y-94045044D01*
X145138500Y-93941771D01*
X145158502Y-93873650D01*
X145212158Y-93827157D01*
X145222879Y-93822843D01*
X145225882Y-93821793D01*
X145262041Y-93795107D01*
X145335150Y-93741150D01*
X145415791Y-93631885D01*
X145415793Y-93631881D01*
X145418720Y-93623518D01*
X145460646Y-93503699D01*
X145463500Y-93473266D01*
X145463500Y-93472266D01*
X146679500Y-93472266D01*
X146682354Y-93502700D01*
X146682355Y-93502704D01*
X146727206Y-93630881D01*
X146727208Y-93630885D01*
X146807846Y-93740145D01*
X146807850Y-93740150D01*
X146807880Y-93740172D01*
X146807903Y-93740203D01*
X146814524Y-93746823D01*
X146813617Y-93747729D01*
X146850813Y-93796717D01*
X146856359Y-93867497D01*
X146836757Y-93913125D01*
X146825443Y-93929517D01*
X146824780Y-93930477D01*
X146820497Y-93941771D01*
X146768761Y-94078184D01*
X146749722Y-94234996D01*
X146749722Y-94235003D01*
X146768761Y-94391815D01*
X146796771Y-94465670D01*
X146824780Y-94539523D01*
X146824781Y-94539525D01*
X146824782Y-94539526D01*
X146824783Y-94539529D01*
X146893015Y-94638379D01*
X146914517Y-94669530D01*
X147032760Y-94774283D01*
X147172635Y-94847696D01*
X147172636Y-94847696D01*
X147172638Y-94847697D01*
X147239705Y-94864227D01*
X147326015Y-94885500D01*
X147326017Y-94885500D01*
X147483983Y-94885500D01*
X147483985Y-94885500D01*
X147637365Y-94847696D01*
X147777240Y-94774283D01*
X147895483Y-94669530D01*
X147985220Y-94539523D01*
X148041237Y-94391818D01*
X148041237Y-94391817D01*
X148041238Y-94391815D01*
X148060278Y-94235003D01*
X148060278Y-94234996D01*
X148041237Y-94078183D01*
X148008742Y-93992500D01*
X147985220Y-93930477D01*
X147973243Y-93913125D01*
X147951008Y-93845706D01*
X147968754Y-93776963D01*
X147995793Y-93747148D01*
X147995473Y-93746828D01*
X148002047Y-93740253D01*
X148002123Y-93740169D01*
X148002150Y-93740150D01*
X148002150Y-93740148D01*
X148002152Y-93740148D01*
X148082791Y-93630885D01*
X148082793Y-93630881D01*
X148085370Y-93623518D01*
X148127646Y-93502699D01*
X148130500Y-93472266D01*
X148130500Y-92963734D01*
X148127646Y-92933301D01*
X148126234Y-92929267D01*
X148082793Y-92805118D01*
X148082791Y-92805114D01*
X148002150Y-92695849D01*
X147892885Y-92615208D01*
X147892881Y-92615206D01*
X147764704Y-92570355D01*
X147764700Y-92570354D01*
X147734266Y-92567500D01*
X147075734Y-92567500D01*
X147075733Y-92567500D01*
X147045299Y-92570354D01*
X147045295Y-92570355D01*
X146917118Y-92615206D01*
X146917114Y-92615208D01*
X146807849Y-92695849D01*
X146727208Y-92805114D01*
X146727206Y-92805118D01*
X146682355Y-92933295D01*
X146682354Y-92933299D01*
X146679500Y-92963733D01*
X146679500Y-93472266D01*
X145463500Y-93472266D01*
X145463500Y-92964734D01*
X145460646Y-92934301D01*
X145415793Y-92806118D01*
X145415791Y-92806114D01*
X145335150Y-92696849D01*
X145225885Y-92616208D01*
X145225881Y-92616206D01*
X145097704Y-92571355D01*
X145097700Y-92571354D01*
X145067266Y-92568500D01*
X144408734Y-92568500D01*
X144408733Y-92568500D01*
X144378299Y-92571354D01*
X144378295Y-92571355D01*
X144250118Y-92616206D01*
X144250114Y-92616208D01*
X144140849Y-92696849D01*
X144060208Y-92806114D01*
X144060206Y-92806118D01*
X144015355Y-92934295D01*
X144015354Y-92934299D01*
X144012500Y-92964733D01*
X144012500Y-93473266D01*
X142669406Y-93473266D01*
X142669500Y-93472266D01*
X142669500Y-92963734D01*
X142666646Y-92933301D01*
X142665234Y-92929267D01*
X142621793Y-92805118D01*
X142621791Y-92805114D01*
X142541150Y-92695849D01*
X142431885Y-92615208D01*
X142431881Y-92615206D01*
X142303704Y-92570355D01*
X142303700Y-92570354D01*
X142273266Y-92567500D01*
X141614734Y-92567500D01*
X141614733Y-92567500D01*
X141584299Y-92570354D01*
X141584295Y-92570355D01*
X141456118Y-92615206D01*
X141456114Y-92615208D01*
X141346849Y-92695849D01*
X141266208Y-92805114D01*
X141266206Y-92805118D01*
X141221355Y-92933295D01*
X141221354Y-92933299D01*
X141218500Y-92963733D01*
X141218500Y-93324915D01*
X141198498Y-93393036D01*
X141181595Y-93414010D01*
X140889594Y-93706011D01*
X140827282Y-93740037D01*
X140756467Y-93734972D01*
X140711404Y-93706011D01*
X140547405Y-93542012D01*
X140513379Y-93479700D01*
X140510500Y-93452917D01*
X140510500Y-92963735D01*
X140510500Y-92963734D01*
X140507646Y-92933301D01*
X140506234Y-92929267D01*
X140462793Y-92805118D01*
X140462791Y-92805114D01*
X140382150Y-92695849D01*
X140272885Y-92615208D01*
X140272881Y-92615206D01*
X140144704Y-92570355D01*
X140144700Y-92570354D01*
X140114266Y-92567500D01*
X139455734Y-92567500D01*
X139455733Y-92567500D01*
X139425299Y-92570354D01*
X139425295Y-92570355D01*
X139297118Y-92615206D01*
X139297114Y-92615208D01*
X139187849Y-92695849D01*
X139107208Y-92805114D01*
X139107206Y-92805118D01*
X139062355Y-92933295D01*
X139062354Y-92933299D01*
X139059500Y-92963733D01*
X139059500Y-93472266D01*
X136094500Y-93472266D01*
X136094500Y-92457000D01*
X150071000Y-92457000D01*
X150071000Y-92525840D01*
X150077400Y-92585371D01*
X150127647Y-92720089D01*
X150213810Y-92835189D01*
X150328910Y-92921352D01*
X150463625Y-92971598D01*
X150463629Y-92971599D01*
X150516999Y-92977336D01*
X150517000Y-92977335D01*
X150517000Y-92457000D01*
X151025000Y-92457000D01*
X151025000Y-92977336D01*
X151078370Y-92971599D01*
X151078374Y-92971598D01*
X151213089Y-92921352D01*
X151328189Y-92835189D01*
X151414352Y-92720089D01*
X151464599Y-92585371D01*
X151470999Y-92525840D01*
X151471000Y-92525823D01*
X151471000Y-92457000D01*
X151025000Y-92457000D01*
X150517000Y-92457000D01*
X150071000Y-92457000D01*
X136094500Y-92457000D01*
X136094500Y-91822000D01*
X139010664Y-91822000D01*
X139016400Y-91875370D01*
X139016401Y-91875374D01*
X139066647Y-92010089D01*
X139152810Y-92125189D01*
X139267910Y-92211352D01*
X139402628Y-92261599D01*
X139462159Y-92267999D01*
X139462176Y-92268000D01*
X139531000Y-92268000D01*
X139531000Y-91822000D01*
X140039000Y-91822000D01*
X140039000Y-92268000D01*
X140107824Y-92268000D01*
X140107840Y-92267999D01*
X140167371Y-92261599D01*
X140302089Y-92211352D01*
X140417189Y-92125189D01*
X140503352Y-92010089D01*
X140553598Y-91875374D01*
X140553599Y-91875370D01*
X140559336Y-91822000D01*
X141169664Y-91822000D01*
X141175400Y-91875370D01*
X141175401Y-91875374D01*
X141225647Y-92010089D01*
X141311810Y-92125189D01*
X141426910Y-92211352D01*
X141561628Y-92261599D01*
X141621159Y-92267999D01*
X141621176Y-92268000D01*
X141690000Y-92268000D01*
X141690000Y-91822000D01*
X142198000Y-91822000D01*
X142198000Y-92268000D01*
X142266824Y-92268000D01*
X142266840Y-92267999D01*
X142326371Y-92261599D01*
X142461089Y-92211352D01*
X142576189Y-92125189D01*
X142662352Y-92010089D01*
X142712598Y-91875374D01*
X142712599Y-91875370D01*
X142718336Y-91822000D01*
X142198000Y-91822000D01*
X141690000Y-91822000D01*
X141169664Y-91822000D01*
X140559336Y-91822000D01*
X140039000Y-91822000D01*
X139531000Y-91822000D01*
X139010664Y-91822000D01*
X136094500Y-91822000D01*
X136094500Y-91313999D01*
X139010663Y-91313999D01*
X139010664Y-91314000D01*
X139531000Y-91314000D01*
X139531000Y-90868000D01*
X140039000Y-90868000D01*
X140039000Y-91314000D01*
X140559336Y-91314000D01*
X140559336Y-91313999D01*
X141169663Y-91313999D01*
X141169664Y-91314000D01*
X141690000Y-91314000D01*
X141690000Y-90868000D01*
X142198000Y-90868000D01*
X142198000Y-91314000D01*
X142718336Y-91314000D01*
X142718336Y-91313999D01*
X142712599Y-91260629D01*
X142712598Y-91260625D01*
X142662352Y-91125910D01*
X142576189Y-91010810D01*
X142461089Y-90924647D01*
X142326371Y-90874400D01*
X142266840Y-90868000D01*
X142198000Y-90868000D01*
X141690000Y-90868000D01*
X141621159Y-90868000D01*
X141561628Y-90874400D01*
X141426910Y-90924647D01*
X141311810Y-91010810D01*
X141225647Y-91125910D01*
X141175401Y-91260625D01*
X141175400Y-91260629D01*
X141169663Y-91313999D01*
X140559336Y-91313999D01*
X140553599Y-91260629D01*
X140553598Y-91260625D01*
X140503352Y-91125910D01*
X140417189Y-91010810D01*
X140302089Y-90924647D01*
X140167371Y-90874400D01*
X140107840Y-90868000D01*
X140039000Y-90868000D01*
X139531000Y-90868000D01*
X139462159Y-90868000D01*
X139402628Y-90874400D01*
X139267910Y-90924647D01*
X139152810Y-91010810D01*
X139066647Y-91125910D01*
X139016401Y-91260625D01*
X139016400Y-91260629D01*
X139010663Y-91313999D01*
X136094500Y-91313999D01*
X136094500Y-89368142D01*
X139868500Y-89368142D01*
X139874507Y-89424017D01*
X139921665Y-89550452D01*
X139921665Y-89550453D01*
X140002527Y-89658472D01*
X140110546Y-89739334D01*
X140110548Y-89739334D01*
X140110550Y-89739336D01*
X140236978Y-89786491D01*
X140236979Y-89786491D01*
X140236982Y-89786492D01*
X140292857Y-89792499D01*
X140292865Y-89792499D01*
X140292870Y-89792500D01*
X140292874Y-89792500D01*
X140895126Y-89792500D01*
X140895130Y-89792500D01*
X140895135Y-89792499D01*
X140895142Y-89792499D01*
X140951017Y-89786492D01*
X140951018Y-89786491D01*
X140951022Y-89786491D01*
X141077450Y-89739336D01*
X141185472Y-89658472D01*
X141243847Y-89580491D01*
X141300683Y-89537944D01*
X141344716Y-89530000D01*
X141605417Y-89530000D01*
X141673538Y-89550002D01*
X141694512Y-89566905D01*
X144004007Y-91876401D01*
X144004026Y-91876418D01*
X144013343Y-91885735D01*
X144043177Y-91933215D01*
X144060204Y-91981876D01*
X144060205Y-91981878D01*
X144060206Y-91981879D01*
X144060207Y-91981882D01*
X144113968Y-92054727D01*
X144140851Y-92091152D01*
X144250114Y-92171791D01*
X144250118Y-92171793D01*
X144363171Y-92211352D01*
X144378301Y-92216646D01*
X144408734Y-92219500D01*
X144408736Y-92219500D01*
X145067264Y-92219500D01*
X145067266Y-92219500D01*
X145097699Y-92216646D01*
X145225882Y-92171793D01*
X145335150Y-92091150D01*
X145394685Y-92010483D01*
X145415791Y-91981885D01*
X145415793Y-91981881D01*
X145420476Y-91968500D01*
X145460646Y-91853699D01*
X145460646Y-91853691D01*
X145462282Y-91846209D01*
X145463707Y-91846520D01*
X145486854Y-91788405D01*
X145544614Y-91747121D01*
X145615524Y-91743618D01*
X145675129Y-91777023D01*
X145773508Y-91875402D01*
X145773527Y-91875419D01*
X145784624Y-91886516D01*
X145794158Y-91896050D01*
X145813760Y-91906038D01*
X145830618Y-91916369D01*
X145848409Y-91929295D01*
X145848410Y-91929295D01*
X145848411Y-91929296D01*
X145859352Y-91932851D01*
X145869326Y-91936092D01*
X145887592Y-91943658D01*
X145907196Y-91953646D01*
X145928917Y-91957086D01*
X145948145Y-91961701D01*
X145969067Y-91968500D01*
X146000981Y-91968500D01*
X146654461Y-91968500D01*
X146722582Y-91988502D01*
X146755838Y-92019676D01*
X146786286Y-92060932D01*
X146807851Y-92090152D01*
X146917114Y-92170791D01*
X146917118Y-92170793D01*
X147045301Y-92215646D01*
X147075734Y-92218500D01*
X147075736Y-92218500D01*
X147734264Y-92218500D01*
X147734266Y-92218500D01*
X147764699Y-92215646D01*
X147892882Y-92170793D01*
X148002150Y-92090150D01*
X148060947Y-92010482D01*
X148082791Y-91980885D01*
X148082793Y-91980881D01*
X148087126Y-91968500D01*
X148093949Y-91949000D01*
X150071000Y-91949000D01*
X150517000Y-91949000D01*
X150517000Y-91428663D01*
X151025000Y-91428663D01*
X151025000Y-91949000D01*
X151471000Y-91949000D01*
X151471000Y-91880176D01*
X151470999Y-91880159D01*
X151464599Y-91820628D01*
X151414352Y-91685910D01*
X151328189Y-91570810D01*
X151213089Y-91484647D01*
X151078376Y-91434402D01*
X151025000Y-91428663D01*
X150517000Y-91428663D01*
X150516999Y-91428663D01*
X150463623Y-91434402D01*
X150328910Y-91484647D01*
X150213810Y-91570810D01*
X150127647Y-91685910D01*
X150077400Y-91820628D01*
X150071000Y-91880159D01*
X150071000Y-91949000D01*
X148093949Y-91949000D01*
X148127646Y-91852699D01*
X148130500Y-91822266D01*
X148130500Y-91313734D01*
X148127646Y-91283301D01*
X148082793Y-91155118D01*
X148082791Y-91155114D01*
X148002150Y-91045849D01*
X147892885Y-90965208D01*
X147892881Y-90965206D01*
X147764704Y-90920355D01*
X147764700Y-90920354D01*
X147734266Y-90917500D01*
X147075734Y-90917500D01*
X147075733Y-90917500D01*
X147045299Y-90920354D01*
X147045295Y-90920355D01*
X146917118Y-90965206D01*
X146917114Y-90965208D01*
X146807851Y-91045847D01*
X146774373Y-91091208D01*
X146755839Y-91116322D01*
X146699296Y-91159253D01*
X146654461Y-91167500D01*
X146250583Y-91167500D01*
X146182462Y-91147498D01*
X146161488Y-91130595D01*
X144356405Y-89325511D01*
X144322379Y-89263199D01*
X144319500Y-89236416D01*
X144319500Y-88840874D01*
X144319499Y-88840857D01*
X144313492Y-88784982D01*
X144312056Y-88781131D01*
X144266336Y-88658550D01*
X144266334Y-88658547D01*
X144266334Y-88658546D01*
X144185472Y-88550527D01*
X144077453Y-88469665D01*
X144077448Y-88469663D01*
X143984659Y-88435054D01*
X143927823Y-88392507D01*
X143903013Y-88325987D01*
X143918105Y-88256613D01*
X143968307Y-88206411D01*
X143984644Y-88198950D01*
X144077450Y-88164336D01*
X144185472Y-88083472D01*
X144206417Y-88055491D01*
X144263252Y-88012945D01*
X144307286Y-88005000D01*
X146255996Y-88005000D01*
X146324117Y-88025002D01*
X146345091Y-88041905D01*
X148301461Y-89998275D01*
X148318362Y-90019246D01*
X148320856Y-90023127D01*
X148360038Y-90057078D01*
X148363317Y-90060131D01*
X148374407Y-90071221D01*
X148386963Y-90080620D01*
X148390456Y-90083435D01*
X148429627Y-90117377D01*
X148433814Y-90119289D01*
X148456975Y-90133031D01*
X148460669Y-90135796D01*
X148460672Y-90135798D01*
X148493909Y-90148193D01*
X148509246Y-90153914D01*
X148513376Y-90155624D01*
X148560543Y-90177165D01*
X148565107Y-90177821D01*
X148591202Y-90184481D01*
X148595517Y-90186091D01*
X148647228Y-90189789D01*
X148651657Y-90190264D01*
X148667201Y-90192500D01*
X148682870Y-90192500D01*
X148687366Y-90192661D01*
X148703547Y-90193817D01*
X148739073Y-90196359D01*
X148743573Y-90195379D01*
X148770358Y-90192500D01*
X154702500Y-90192500D01*
X154770621Y-90212502D01*
X154817114Y-90266158D01*
X154828500Y-90318500D01*
X154828500Y-94872205D01*
X154808498Y-94940326D01*
X154791595Y-94961300D01*
X154756300Y-94996595D01*
X154693988Y-95030621D01*
X154667205Y-95033500D01*
X154360523Y-95033500D01*
X154360499Y-95033502D01*
X154303888Y-95039587D01*
X154303886Y-95039587D01*
X154175774Y-95087371D01*
X154175771Y-95087373D01*
X154071015Y-95165792D01*
X154004495Y-95190602D01*
X153935121Y-95175510D01*
X153906412Y-95154018D01*
X153108405Y-94356011D01*
X153074379Y-94293699D01*
X153071500Y-94266916D01*
X153071500Y-93905735D01*
X153071500Y-93905734D01*
X153068646Y-93875301D01*
X153023793Y-93747118D01*
X153023791Y-93747114D01*
X152943152Y-93637851D01*
X152913932Y-93616286D01*
X152872677Y-93585839D01*
X152829747Y-93529296D01*
X152821500Y-93484461D01*
X152821500Y-92953539D01*
X152841502Y-92885418D01*
X152872676Y-92852161D01*
X152943150Y-92800150D01*
X152943150Y-92800148D01*
X152943152Y-92800148D01*
X153023791Y-92690885D01*
X153023793Y-92690881D01*
X153050273Y-92615207D01*
X153068646Y-92562699D01*
X153071500Y-92532266D01*
X153071500Y-91873734D01*
X153068646Y-91843301D01*
X153061635Y-91823266D01*
X153023793Y-91715118D01*
X153023791Y-91715114D01*
X152943150Y-91605849D01*
X152833885Y-91525208D01*
X152833881Y-91525206D01*
X152705704Y-91480355D01*
X152705700Y-91480354D01*
X152675266Y-91477500D01*
X152166734Y-91477500D01*
X152166733Y-91477500D01*
X152136299Y-91480354D01*
X152136295Y-91480355D01*
X152008118Y-91525206D01*
X152008114Y-91525208D01*
X151898849Y-91605849D01*
X151818208Y-91715114D01*
X151818206Y-91715118D01*
X151773355Y-91843295D01*
X151773354Y-91843299D01*
X151770500Y-91873733D01*
X151770500Y-92532266D01*
X151773354Y-92562700D01*
X151773355Y-92562704D01*
X151818206Y-92690881D01*
X151818208Y-92690885D01*
X151898847Y-92800148D01*
X151898850Y-92800150D01*
X151969322Y-92852160D01*
X152012253Y-92908704D01*
X152020500Y-92953539D01*
X152020500Y-93484461D01*
X152000498Y-93552582D01*
X151969323Y-93585838D01*
X151944208Y-93604373D01*
X151898847Y-93637851D01*
X151818208Y-93747114D01*
X151818206Y-93747118D01*
X151773355Y-93875295D01*
X151773354Y-93875299D01*
X151770500Y-93905733D01*
X151770500Y-94564266D01*
X151773354Y-94594700D01*
X151773355Y-94594704D01*
X151818206Y-94722881D01*
X151818208Y-94722885D01*
X151898849Y-94832150D01*
X152008114Y-94912791D01*
X152008118Y-94912793D01*
X152136301Y-94957646D01*
X152166734Y-94960500D01*
X152527917Y-94960500D01*
X152596038Y-94980502D01*
X152617006Y-94997399D01*
X153191597Y-95571990D01*
X153225620Y-95634299D01*
X153228500Y-95661082D01*
X153228500Y-96966434D01*
X153235298Y-96987358D01*
X153239912Y-97006577D01*
X153243353Y-97028300D01*
X153243355Y-97028306D01*
X153253341Y-97047906D01*
X153260906Y-97066169D01*
X153267703Y-97087089D01*
X153267704Y-97087091D01*
X153280631Y-97104883D01*
X153290960Y-97121738D01*
X153300948Y-97141340D01*
X153300949Y-97141341D01*
X153300950Y-97141342D01*
X153321942Y-97162334D01*
X153321955Y-97162348D01*
X153323515Y-97163908D01*
X153323516Y-97163909D01*
X153429509Y-97269902D01*
X153510595Y-97350987D01*
X153544620Y-97413299D01*
X153547500Y-97440083D01*
X153547500Y-97878562D01*
X153535695Y-97931811D01*
X153528500Y-97947239D01*
X153528500Y-97947240D01*
X153522500Y-97992816D01*
X153522500Y-98716615D01*
X153502498Y-98784736D01*
X153482334Y-98805514D01*
X153483777Y-98806957D01*
X153387957Y-98902777D01*
X153385228Y-98900048D01*
X153346539Y-98931614D01*
X153297616Y-98941500D01*
X152573823Y-98941500D01*
X152573812Y-98941501D01*
X152528241Y-98947500D01*
X152528240Y-98947500D01*
X152512813Y-98954695D01*
X152459563Y-98966500D01*
X152317433Y-98966500D01*
X152249312Y-98946498D01*
X152202819Y-98892842D01*
X152192715Y-98822568D01*
X152199621Y-98795820D01*
X152210862Y-98766179D01*
X152232237Y-98709818D01*
X152241820Y-98630892D01*
X152251278Y-98553003D01*
X152251278Y-98552996D01*
X152232238Y-98396184D01*
X152224006Y-98374479D01*
X152176220Y-98248477D01*
X152176216Y-98248472D01*
X152176216Y-98248470D01*
X152086483Y-98118470D01*
X152086481Y-98118468D01*
X151968240Y-98013717D01*
X151859944Y-97956878D01*
X151808922Y-97907509D01*
X151792500Y-97845311D01*
X151792500Y-97132236D01*
X151812502Y-97064115D01*
X151842988Y-97031370D01*
X151906687Y-96983687D01*
X151982932Y-96881835D01*
X151988626Y-96874229D01*
X151988626Y-96874228D01*
X151988628Y-96874226D01*
X152036412Y-96746114D01*
X152038968Y-96722336D01*
X152042499Y-96689496D01*
X152042499Y-96689494D01*
X152042500Y-96689485D01*
X152042499Y-96098516D01*
X152036412Y-96041886D01*
X151988628Y-95913774D01*
X151988626Y-95913770D01*
X151906687Y-95804312D01*
X151797229Y-95722373D01*
X151797224Y-95722371D01*
X151669113Y-95674587D01*
X151612488Y-95668500D01*
X151071512Y-95668500D01*
X151014888Y-95674587D01*
X151014886Y-95674587D01*
X150886774Y-95722371D01*
X150886770Y-95722373D01*
X150777312Y-95804312D01*
X150696498Y-95912268D01*
X150639662Y-95954815D01*
X150568846Y-95959879D01*
X150506534Y-95925854D01*
X150483905Y-95891355D01*
X150483146Y-95891782D01*
X150478923Y-95884271D01*
X150391721Y-95769278D01*
X150276729Y-95682077D01*
X150142472Y-95629132D01*
X150142467Y-95629131D01*
X150058103Y-95619000D01*
X150046000Y-95619000D01*
X150046000Y-97169000D01*
X150058101Y-97169000D01*
X150058103Y-97168999D01*
X150142467Y-97158868D01*
X150142472Y-97158867D01*
X150276729Y-97105922D01*
X150391721Y-97018721D01*
X150478923Y-96903728D01*
X150483146Y-96896218D01*
X150484617Y-96897045D01*
X150522010Y-96848985D01*
X150588981Y-96825416D01*
X150658062Y-96841795D01*
X150696498Y-96875731D01*
X150775722Y-96981562D01*
X150777313Y-96983687D01*
X150841010Y-97031369D01*
X150883555Y-97088202D01*
X150891500Y-97132236D01*
X150891500Y-98270156D01*
X150891104Y-98277215D01*
X150886730Y-98316036D01*
X150886730Y-98316038D01*
X150897564Y-98373296D01*
X150897959Y-98375618D01*
X150906651Y-98433287D01*
X150909160Y-98441421D01*
X150911978Y-98449476D01*
X150927134Y-98478150D01*
X150941281Y-98547722D01*
X150940820Y-98552188D01*
X150940722Y-98553000D01*
X150940722Y-98553003D01*
X150940722Y-98553004D01*
X150955572Y-98675313D01*
X150943927Y-98745348D01*
X150896266Y-98797969D01*
X150830491Y-98816500D01*
X149776483Y-98816500D01*
X149682697Y-98831353D01*
X149569657Y-98888949D01*
X149479949Y-98978657D01*
X149432287Y-99072201D01*
X149422354Y-99091696D01*
X149407500Y-99185481D01*
X149407500Y-99185484D01*
X149407500Y-99548516D01*
X149422353Y-99642302D01*
X149474245Y-99744145D01*
X149487349Y-99813922D01*
X149463357Y-99876169D01*
X149405654Y-99954352D01*
X149367638Y-100063000D01*
X150448500Y-100063000D01*
X150516621Y-100083002D01*
X150563114Y-100136658D01*
X150574500Y-100189000D01*
X150574500Y-100445000D01*
X150554498Y-100513121D01*
X150500842Y-100559614D01*
X150448500Y-100571000D01*
X149367638Y-100571000D01*
X149405654Y-100679647D01*
X149463357Y-100757831D01*
X149487715Y-100824518D01*
X149474245Y-100889854D01*
X149422354Y-100991696D01*
X149408540Y-101078915D01*
X149407500Y-101085484D01*
X149407500Y-101448516D01*
X149422353Y-101542302D01*
X149479949Y-101655342D01*
X149569657Y-101745050D01*
X149606284Y-101763712D01*
X149682696Y-101802646D01*
X149776481Y-101817500D01*
X150864518Y-101817499D01*
X150958304Y-101802646D01*
X151071342Y-101745050D01*
X151111987Y-101704405D01*
X151168062Y-101648331D01*
X151168978Y-101649247D01*
X151217239Y-101612032D01*
X151287976Y-101605956D01*
X151346506Y-101635133D01*
X151408777Y-101690300D01*
X151548652Y-101763713D01*
X151548653Y-101763713D01*
X151548655Y-101763714D01*
X151625342Y-101782615D01*
X151702032Y-101801517D01*
X151702034Y-101801517D01*
X151860000Y-101801517D01*
X151860002Y-101801517D01*
X152013382Y-101763713D01*
X152153257Y-101690300D01*
X152237015Y-101616097D01*
X152301269Y-101585896D01*
X152371649Y-101595227D01*
X152409664Y-101621314D01*
X152428199Y-101639849D01*
X152428200Y-101639849D01*
X152428201Y-101639850D01*
X152487494Y-101667499D01*
X152536977Y-101690573D01*
X152535295Y-101694179D01*
X152578901Y-101721962D01*
X152608646Y-101786427D01*
X152610000Y-101804847D01*
X152610000Y-102452127D01*
X152589998Y-102520248D01*
X152573095Y-102541222D01*
X151510101Y-103604215D01*
X151489927Y-103620600D01*
X151482331Y-103625562D01*
X151462181Y-103651451D01*
X151457016Y-103657301D01*
X151454625Y-103659692D01*
X151442704Y-103676386D01*
X151441151Y-103678470D01*
X151410482Y-103717875D01*
X151406983Y-103724339D01*
X151403760Y-103730933D01*
X151389513Y-103778783D01*
X151388720Y-103781258D01*
X151372499Y-103828512D01*
X151371294Y-103835731D01*
X151370382Y-103843048D01*
X151372446Y-103892920D01*
X151372500Y-103895525D01*
X151372500Y-103943498D01*
X151352498Y-104011619D01*
X151350606Y-104014476D01*
X151312528Y-104070326D01*
X151312527Y-104070326D01*
X151272500Y-104200095D01*
X151272500Y-109954156D01*
X151272104Y-109961212D01*
X151270945Y-109971500D01*
X151267730Y-110000036D01*
X151267730Y-110000038D01*
X151278564Y-110057296D01*
X151278959Y-110059618D01*
X151287651Y-110117287D01*
X151290160Y-110125421D01*
X151292978Y-110133476D01*
X151308320Y-110162502D01*
X151319995Y-110184593D01*
X151320224Y-110185025D01*
X151321286Y-110187129D01*
X151346575Y-110239642D01*
X151346576Y-110239643D01*
X151351386Y-110246699D01*
X151356432Y-110253536D01*
X151356433Y-110253537D01*
X151356434Y-110253538D01*
X151397679Y-110294783D01*
X151399271Y-110296435D01*
X151438945Y-110339194D01*
X151438946Y-110339195D01*
X151446329Y-110345082D01*
X151445787Y-110345761D01*
X151458114Y-110355218D01*
X152019051Y-110916154D01*
X152023761Y-110921425D01*
X152040572Y-110942504D01*
X152048121Y-110951970D01*
X152096317Y-110984829D01*
X152098184Y-110986154D01*
X152145087Y-111020770D01*
X152145121Y-111020795D01*
X152152660Y-111024779D01*
X152160324Y-111028470D01*
X152160327Y-111028472D01*
X152196231Y-111039546D01*
X152216054Y-111045661D01*
X152218293Y-111046398D01*
X152254631Y-111059113D01*
X152273301Y-111065646D01*
X152273307Y-111065646D01*
X152281682Y-111067231D01*
X152290096Y-111068499D01*
X152290098Y-111068500D01*
X152348376Y-111068500D01*
X152350733Y-111068544D01*
X152353917Y-111068663D01*
X152409010Y-111070725D01*
X152409014Y-111070723D01*
X152418395Y-111069668D01*
X152418492Y-111070529D01*
X152433903Y-111068500D01*
X152772116Y-111068500D01*
X152840237Y-111088502D01*
X152886730Y-111142158D01*
X152896834Y-111212432D01*
X152876882Y-111264500D01*
X152873034Y-111270257D01*
X152873033Y-111270260D01*
X152858500Y-111343322D01*
X152858500Y-111991500D01*
X152838498Y-112059621D01*
X152784842Y-112106114D01*
X152732500Y-112117500D01*
X151696504Y-112117500D01*
X151628383Y-112097498D01*
X151607409Y-112080595D01*
X149212404Y-109685590D01*
X149178378Y-109623278D01*
X149175500Y-109596504D01*
X149175500Y-108905807D01*
X149195502Y-108837686D01*
X149225990Y-108804940D01*
X149239687Y-108794687D01*
X149320501Y-108686730D01*
X149377336Y-108644185D01*
X149448151Y-108639119D01*
X149510464Y-108673144D01*
X149533095Y-108707644D01*
X149533854Y-108707218D01*
X149538076Y-108714728D01*
X149625278Y-108829721D01*
X149740270Y-108916922D01*
X149874527Y-108969867D01*
X149874532Y-108969868D01*
X149958896Y-108979999D01*
X149958899Y-108980000D01*
X149971000Y-108980000D01*
X149971000Y-108459000D01*
X150479000Y-108459000D01*
X150479000Y-108980000D01*
X150491101Y-108980000D01*
X150491103Y-108979999D01*
X150575467Y-108969868D01*
X150575472Y-108969867D01*
X150709729Y-108916922D01*
X150824721Y-108829721D01*
X150911922Y-108714729D01*
X150964867Y-108580472D01*
X150964868Y-108580467D01*
X150974999Y-108496103D01*
X150975000Y-108496100D01*
X150975000Y-108459000D01*
X150479000Y-108459000D01*
X149971000Y-108459000D01*
X149971000Y-107430000D01*
X150479000Y-107430000D01*
X150479000Y-107951000D01*
X150975000Y-107951000D01*
X150975000Y-107913899D01*
X150974999Y-107913896D01*
X150964868Y-107829532D01*
X150964867Y-107829527D01*
X150911922Y-107695270D01*
X150824721Y-107580278D01*
X150709729Y-107493077D01*
X150575472Y-107440132D01*
X150575467Y-107440131D01*
X150491103Y-107430000D01*
X150479000Y-107430000D01*
X149971000Y-107430000D01*
X149958896Y-107430000D01*
X149874532Y-107440131D01*
X149874527Y-107440132D01*
X149740270Y-107493077D01*
X149625278Y-107580278D01*
X149538076Y-107695271D01*
X149533854Y-107702782D01*
X149532385Y-107701956D01*
X149494970Y-107750028D01*
X149427996Y-107773585D01*
X149358917Y-107757193D01*
X149320501Y-107723268D01*
X149239687Y-107615312D01*
X149130229Y-107533373D01*
X149130224Y-107533371D01*
X149002113Y-107485587D01*
X148945488Y-107479500D01*
X148404512Y-107479500D01*
X148347888Y-107485587D01*
X148347886Y-107485587D01*
X148219774Y-107533371D01*
X148219770Y-107533373D01*
X148110313Y-107615312D01*
X148105078Y-107622306D01*
X148083578Y-107651028D01*
X148081347Y-107654008D01*
X148024512Y-107696555D01*
X147980478Y-107704500D01*
X147335572Y-107704500D01*
X147267451Y-107684498D01*
X147234706Y-107654011D01*
X147232473Y-107651028D01*
X147124453Y-107570165D01*
X146998017Y-107523007D01*
X146942142Y-107517000D01*
X146942130Y-107517000D01*
X146089870Y-107517000D01*
X146089857Y-107517000D01*
X146033982Y-107523007D01*
X145907547Y-107570165D01*
X145907546Y-107570165D01*
X145799527Y-107651027D01*
X145718665Y-107759046D01*
X145718665Y-107759047D01*
X145671507Y-107885482D01*
X145665500Y-107941357D01*
X145665500Y-108468642D01*
X145671507Y-108524517D01*
X145671509Y-108524522D01*
X145714251Y-108639119D01*
X145718665Y-108650952D01*
X145718665Y-108650953D01*
X145799527Y-108758972D01*
X145907546Y-108839834D01*
X145907548Y-108839834D01*
X145907550Y-108839836D01*
X146033978Y-108886991D01*
X146033979Y-108886991D01*
X146033982Y-108886992D01*
X146089857Y-108892999D01*
X146089865Y-108892999D01*
X146089870Y-108893000D01*
X146089874Y-108893000D01*
X146942126Y-108893000D01*
X146942130Y-108893000D01*
X146942135Y-108892999D01*
X146942142Y-108892999D01*
X146998017Y-108886992D01*
X146998018Y-108886991D01*
X146998022Y-108886991D01*
X147124450Y-108839836D01*
X147133883Y-108832775D01*
X147222374Y-108766531D01*
X147232472Y-108758972D01*
X147234555Y-108756190D01*
X147234706Y-108755989D01*
X147237688Y-108753756D01*
X147238844Y-108752601D01*
X147239010Y-108752767D01*
X147291542Y-108713443D01*
X147335572Y-108705500D01*
X147980478Y-108705500D01*
X148048599Y-108725502D01*
X148081344Y-108755989D01*
X148089235Y-108766530D01*
X148110311Y-108794685D01*
X148110312Y-108794685D01*
X148110313Y-108794687D01*
X148124008Y-108804938D01*
X148166554Y-108861771D01*
X148174500Y-108905807D01*
X148174500Y-109788640D01*
X148171621Y-109815420D01*
X148170641Y-109819923D01*
X148170641Y-109819928D01*
X148174339Y-109871634D01*
X148174500Y-109876130D01*
X148174500Y-109891799D01*
X148176729Y-109907311D01*
X148177209Y-109911778D01*
X148180908Y-109963480D01*
X148180910Y-109963488D01*
X148182521Y-109967808D01*
X148189177Y-109993883D01*
X148189834Y-109998455D01*
X148189836Y-109998462D01*
X148211365Y-110045603D01*
X148213086Y-110049757D01*
X148222983Y-110076291D01*
X148231204Y-110098331D01*
X148231205Y-110098332D01*
X148233968Y-110102024D01*
X148247706Y-110125178D01*
X148249619Y-110129367D01*
X148249621Y-110129370D01*
X148249622Y-110129371D01*
X148249623Y-110129373D01*
X148280165Y-110164620D01*
X148283565Y-110168544D01*
X148286379Y-110172036D01*
X148295779Y-110184593D01*
X148306865Y-110195679D01*
X148309919Y-110198959D01*
X148343872Y-110238143D01*
X148347751Y-110240635D01*
X148368723Y-110257537D01*
X151035461Y-112924275D01*
X151052362Y-112945246D01*
X151054856Y-112949127D01*
X151094038Y-112983078D01*
X151097317Y-112986131D01*
X151108407Y-112997221D01*
X151120963Y-113006620D01*
X151124456Y-113009435D01*
X151163627Y-113043377D01*
X151167814Y-113045289D01*
X151190975Y-113059031D01*
X151194669Y-113061796D01*
X151194672Y-113061798D01*
X151227909Y-113074193D01*
X151243246Y-113079914D01*
X151247376Y-113081624D01*
X151294543Y-113103165D01*
X151299107Y-113103821D01*
X151325202Y-113110481D01*
X151329517Y-113112091D01*
X151381228Y-113115789D01*
X151385657Y-113116264D01*
X151401201Y-113118500D01*
X151416870Y-113118500D01*
X151421366Y-113118661D01*
X151437547Y-113119817D01*
X151473073Y-113122359D01*
X151477573Y-113121379D01*
X151504358Y-113118500D01*
X152732500Y-113118500D01*
X152800621Y-113138502D01*
X152847114Y-113192158D01*
X152858500Y-113244500D01*
X152858500Y-113892677D01*
X152873033Y-113965739D01*
X152873034Y-113965740D01*
X152928399Y-114048601D01*
X153011260Y-114103966D01*
X153084326Y-114118500D01*
X154933674Y-114118500D01*
X155006740Y-114103966D01*
X155089601Y-114048601D01*
X155144966Y-113965740D01*
X155159500Y-113892674D01*
X155159500Y-113046000D01*
X162091000Y-113046000D01*
X162091000Y-113085062D01*
X162101613Y-113173441D01*
X162101614Y-113173447D01*
X162157080Y-113314097D01*
X162248434Y-113434565D01*
X162368902Y-113525919D01*
X162509552Y-113581385D01*
X162509558Y-113581386D01*
X162597937Y-113591999D01*
X162597943Y-113592000D01*
X163487000Y-113592000D01*
X163487000Y-113046000D01*
X162091000Y-113046000D01*
X155159500Y-113046000D01*
X155159500Y-112538000D01*
X162091000Y-112538000D01*
X163487000Y-112538000D01*
X163487000Y-111992000D01*
X162597937Y-111992000D01*
X162509558Y-112002613D01*
X162509552Y-112002614D01*
X162368902Y-112058080D01*
X162248434Y-112149434D01*
X162157080Y-112269902D01*
X162101614Y-112410552D01*
X162101613Y-112410558D01*
X162091000Y-112498937D01*
X162091000Y-112538000D01*
X155159500Y-112538000D01*
X155159500Y-111343326D01*
X155144966Y-111270260D01*
X155144965Y-111270257D01*
X155141118Y-111264500D01*
X155119904Y-111196747D01*
X155120109Y-111196000D01*
X159400638Y-111196000D01*
X159438654Y-111304647D01*
X159519207Y-111413792D01*
X159628354Y-111494346D01*
X159756389Y-111539147D01*
X159756394Y-111539148D01*
X159786797Y-111541999D01*
X160287000Y-111541999D01*
X160287000Y-111196000D01*
X160795000Y-111196000D01*
X160795000Y-111541999D01*
X161295195Y-111541999D01*
X161295209Y-111541998D01*
X161325606Y-111539148D01*
X161325609Y-111539147D01*
X161453644Y-111494346D01*
X161453645Y-111494346D01*
X161562792Y-111413792D01*
X161643345Y-111304647D01*
X161681362Y-111196000D01*
X160795000Y-111196000D01*
X160287000Y-111196000D01*
X159400638Y-111196000D01*
X155120109Y-111196000D01*
X155138688Y-111128281D01*
X155191506Y-111080838D01*
X155245884Y-111068500D01*
X155504157Y-111068500D01*
X155511211Y-111068895D01*
X155550035Y-111073270D01*
X155607354Y-111062423D01*
X155609620Y-111062038D01*
X155667287Y-111053348D01*
X155667295Y-111053343D01*
X155675472Y-111050821D01*
X155683470Y-111048023D01*
X155683472Y-111048023D01*
X155720465Y-111028471D01*
X155735036Y-111020770D01*
X155737110Y-111019721D01*
X155789642Y-110994425D01*
X155789643Y-110994423D01*
X155796685Y-110989622D01*
X155803528Y-110984571D01*
X155803538Y-110984566D01*
X155844795Y-110943307D01*
X155846421Y-110941741D01*
X155889194Y-110902055D01*
X155889197Y-110902049D01*
X155895081Y-110894672D01*
X155895762Y-110895215D01*
X155905216Y-110882886D01*
X156608700Y-110179402D01*
X156671010Y-110145379D01*
X156697793Y-110142500D01*
X159523799Y-110142500D01*
X159591920Y-110162502D01*
X159597864Y-110166567D01*
X159602659Y-110170051D01*
X159612211Y-110174918D01*
X159663827Y-110223665D01*
X159680893Y-110292580D01*
X159657993Y-110359782D01*
X159629831Y-110388564D01*
X159519206Y-110470209D01*
X159438654Y-110579352D01*
X159400638Y-110688000D01*
X161681362Y-110688000D01*
X161643345Y-110579352D01*
X161562792Y-110470207D01*
X161452169Y-110388564D01*
X161409236Y-110332019D01*
X161403690Y-110261240D01*
X161437291Y-110198697D01*
X161469788Y-110174917D01*
X161479342Y-110170050D01*
X161479344Y-110170048D01*
X161484136Y-110166567D01*
X161551003Y-110142706D01*
X161558201Y-110142500D01*
X161679157Y-110142500D01*
X161686211Y-110142895D01*
X161725035Y-110147270D01*
X161782354Y-110136423D01*
X161784620Y-110136038D01*
X161842287Y-110127348D01*
X161842295Y-110127343D01*
X161850472Y-110124821D01*
X161858470Y-110122023D01*
X161858472Y-110122023D01*
X161875801Y-110112864D01*
X161910036Y-110094770D01*
X161912110Y-110093721D01*
X161964642Y-110068425D01*
X161964643Y-110068423D01*
X161971685Y-110063622D01*
X161978528Y-110058571D01*
X161978538Y-110058566D01*
X162019795Y-110017307D01*
X162021421Y-110015741D01*
X162064194Y-109976055D01*
X162064197Y-109976049D01*
X162070081Y-109968672D01*
X162070762Y-109969215D01*
X162080219Y-109956883D01*
X163070170Y-108966931D01*
X163075414Y-108962245D01*
X163105970Y-108937879D01*
X163138849Y-108889652D01*
X163140140Y-108887832D01*
X163174793Y-108840882D01*
X163174793Y-108840879D01*
X163174795Y-108840878D01*
X163178776Y-108833345D01*
X163182473Y-108825670D01*
X163193281Y-108790630D01*
X163232472Y-108731430D01*
X163297447Y-108702817D01*
X163367578Y-108713874D01*
X163417380Y-108756190D01*
X163424516Y-108766529D01*
X163424518Y-108766531D01*
X163444844Y-108784538D01*
X163542760Y-108871283D01*
X163682635Y-108944696D01*
X163682636Y-108944696D01*
X163682638Y-108944697D01*
X163738641Y-108958500D01*
X163836015Y-108982500D01*
X163836017Y-108982500D01*
X163993983Y-108982500D01*
X163993985Y-108982500D01*
X164147365Y-108944696D01*
X164287240Y-108871283D01*
X164405483Y-108766530D01*
X164495220Y-108636523D01*
X164551237Y-108488818D01*
X164551237Y-108488817D01*
X164551238Y-108488815D01*
X164570278Y-108332003D01*
X164570278Y-108331996D01*
X164551238Y-108175184D01*
X164538980Y-108142865D01*
X164495220Y-108027477D01*
X164437804Y-107944295D01*
X164415568Y-107876870D01*
X164415500Y-107872719D01*
X164415500Y-106482357D01*
X164418379Y-106455576D01*
X164419359Y-106451073D01*
X164416986Y-106417892D01*
X164415661Y-106399363D01*
X164415500Y-106394867D01*
X164415500Y-106379201D01*
X164415116Y-106376529D01*
X164413264Y-106363657D01*
X164412788Y-106359216D01*
X164411223Y-106337336D01*
X164409091Y-106307517D01*
X164407481Y-106303202D01*
X164400821Y-106277107D01*
X164400165Y-106272543D01*
X164378624Y-106225376D01*
X164376910Y-106221237D01*
X164358798Y-106172672D01*
X164357443Y-106170862D01*
X164356031Y-106168975D01*
X164342289Y-106145814D01*
X164340377Y-106141627D01*
X164306435Y-106102456D01*
X164303620Y-106098963D01*
X164294221Y-106086407D01*
X164283131Y-106075317D01*
X164280078Y-106072038D01*
X164269561Y-106059901D01*
X164246128Y-106032857D01*
X164246127Y-106032856D01*
X164242246Y-106030362D01*
X164221275Y-106013461D01*
X162593537Y-104385723D01*
X162576635Y-104364751D01*
X162574143Y-104360872D01*
X162534959Y-104326919D01*
X162531679Y-104323865D01*
X162520593Y-104312779D01*
X162508036Y-104303379D01*
X162504544Y-104300565D01*
X162465373Y-104266623D01*
X162465371Y-104266622D01*
X162465370Y-104266621D01*
X162465367Y-104266619D01*
X162461178Y-104264706D01*
X162438024Y-104250968D01*
X162435606Y-104249158D01*
X162434331Y-104248204D01*
X162412291Y-104239983D01*
X162385757Y-104230086D01*
X162381603Y-104228365D01*
X162334462Y-104206836D01*
X162334455Y-104206834D01*
X162329883Y-104206177D01*
X162303808Y-104199521D01*
X162299488Y-104197910D01*
X162299480Y-104197908D01*
X162247778Y-104194209D01*
X162243311Y-104193729D01*
X162227799Y-104191500D01*
X162212130Y-104191500D01*
X162207634Y-104191339D01*
X162155927Y-104187641D01*
X162155926Y-104187641D01*
X162151427Y-104188620D01*
X162124642Y-104191500D01*
X161465532Y-104191500D01*
X161408329Y-104177767D01*
X161366304Y-104156354D01*
X161272519Y-104141500D01*
X161272516Y-104141500D01*
X161167500Y-104141500D01*
X161099379Y-104121498D01*
X161052886Y-104067842D01*
X161041500Y-104015500D01*
X161041500Y-103096000D01*
X162091000Y-103096000D01*
X162091000Y-103135062D01*
X162101613Y-103223441D01*
X162101614Y-103223447D01*
X162157080Y-103364097D01*
X162248434Y-103484565D01*
X162368902Y-103575919D01*
X162509552Y-103631385D01*
X162509558Y-103631386D01*
X162597937Y-103641999D01*
X162597943Y-103642000D01*
X163487000Y-103642000D01*
X163487000Y-103096000D01*
X162091000Y-103096000D01*
X161041500Y-103096000D01*
X161041500Y-102588000D01*
X162091000Y-102588000D01*
X163487000Y-102588000D01*
X163487000Y-102042000D01*
X162597937Y-102042000D01*
X162509558Y-102052613D01*
X162509552Y-102052614D01*
X162368902Y-102108080D01*
X162248434Y-102199434D01*
X162157080Y-102319902D01*
X162101614Y-102460552D01*
X162101613Y-102460558D01*
X162091000Y-102548937D01*
X162091000Y-102588000D01*
X161041500Y-102588000D01*
X161041500Y-101424504D01*
X161061502Y-101356383D01*
X161078405Y-101335409D01*
X161595017Y-100818797D01*
X162162389Y-100251424D01*
X162221328Y-100218183D01*
X162369365Y-100181696D01*
X162509240Y-100108283D01*
X162627483Y-100003530D01*
X162717220Y-99873523D01*
X162773237Y-99725818D01*
X162773237Y-99725817D01*
X162773238Y-99725815D01*
X162792278Y-99569003D01*
X162792278Y-99568996D01*
X162773238Y-99412184D01*
X162765392Y-99391498D01*
X162717220Y-99264477D01*
X162717216Y-99264472D01*
X162717216Y-99264470D01*
X162627483Y-99134470D01*
X162627481Y-99134468D01*
X162509240Y-99029717D01*
X162369365Y-98956304D01*
X162369361Y-98956302D01*
X162215987Y-98918500D01*
X162215985Y-98918500D01*
X162058015Y-98918500D01*
X162058012Y-98918500D01*
X161904638Y-98956302D01*
X161904634Y-98956304D01*
X161764759Y-99029717D01*
X161646518Y-99134468D01*
X161646516Y-99134470D01*
X161556783Y-99264470D01*
X161556782Y-99264473D01*
X161500762Y-99412184D01*
X161494222Y-99466042D01*
X161466154Y-99531255D01*
X161458236Y-99539948D01*
X160234721Y-100763463D01*
X160213758Y-100780359D01*
X160209873Y-100782856D01*
X160209868Y-100782859D01*
X160175925Y-100822031D01*
X160172866Y-100825317D01*
X160161778Y-100836408D01*
X160161775Y-100836411D01*
X160152384Y-100848955D01*
X160149564Y-100852454D01*
X160115623Y-100891625D01*
X160113709Y-100895818D01*
X160099969Y-100918975D01*
X160097202Y-100922670D01*
X160082623Y-100961760D01*
X160080483Y-100967500D01*
X160079090Y-100971234D01*
X160077369Y-100975389D01*
X160055834Y-101022544D01*
X160055833Y-101022548D01*
X160055176Y-101027117D01*
X160048523Y-101053186D01*
X160046909Y-101057512D01*
X160046909Y-101057516D01*
X160043209Y-101109223D01*
X160042729Y-101113690D01*
X160040500Y-101129201D01*
X160040500Y-101144867D01*
X160040339Y-101149363D01*
X160036641Y-101201070D01*
X160036641Y-101201073D01*
X160037620Y-101205576D01*
X160040500Y-101232357D01*
X160040500Y-102855224D01*
X160020498Y-102923345D01*
X159966842Y-102969838D01*
X159896568Y-102979942D01*
X159884348Y-102977563D01*
X159770490Y-102949500D01*
X159770485Y-102949500D01*
X159612515Y-102949500D01*
X159612512Y-102949500D01*
X159459138Y-102987302D01*
X159459134Y-102987304D01*
X159319259Y-103060717D01*
X159201018Y-103165468D01*
X159201016Y-103165470D01*
X159111283Y-103295470D01*
X159111282Y-103295473D01*
X159111281Y-103295475D01*
X159111280Y-103295477D01*
X159107014Y-103306726D01*
X159055261Y-103443184D01*
X159036222Y-103599996D01*
X159036222Y-103599998D01*
X159038451Y-103618361D01*
X159026803Y-103688396D01*
X159002465Y-103722640D01*
X158894516Y-103830591D01*
X158894515Y-103830590D01*
X158894512Y-103830595D01*
X158871953Y-103853153D01*
X158871950Y-103853158D01*
X158861962Y-103872758D01*
X158851640Y-103889602D01*
X158838704Y-103907409D01*
X158838703Y-103907410D01*
X158831904Y-103928335D01*
X158824340Y-103946595D01*
X158814354Y-103966194D01*
X158810911Y-103987927D01*
X158806298Y-104007139D01*
X158799500Y-104028062D01*
X158799500Y-107063434D01*
X158806298Y-107084358D01*
X158810912Y-107103577D01*
X158814353Y-107125300D01*
X158814355Y-107125306D01*
X158824341Y-107144906D01*
X158831906Y-107163169D01*
X158838703Y-107184089D01*
X158838704Y-107184091D01*
X158851631Y-107201883D01*
X158861960Y-107218738D01*
X158871948Y-107238340D01*
X158871949Y-107238341D01*
X158871950Y-107238342D01*
X158892942Y-107259334D01*
X158892969Y-107259363D01*
X159133008Y-107499402D01*
X159133027Y-107499419D01*
X159150608Y-107517000D01*
X159153659Y-107520051D01*
X159173254Y-107530035D01*
X159190113Y-107540366D01*
X159207908Y-107553295D01*
X159207910Y-107553296D01*
X159228827Y-107560092D01*
X159247097Y-107567659D01*
X159266696Y-107577646D01*
X159288431Y-107581088D01*
X159307636Y-107585699D01*
X159328567Y-107592500D01*
X159360481Y-107592500D01*
X159472918Y-107592500D01*
X159541039Y-107612502D01*
X159562008Y-107629400D01*
X159583346Y-107650738D01*
X159602658Y-107670050D01*
X159670726Y-107704733D01*
X159722341Y-107753482D01*
X159739407Y-107822397D01*
X159716506Y-107889598D01*
X159670726Y-107929267D01*
X159602658Y-107963949D01*
X159582336Y-107984271D01*
X159562011Y-108004596D01*
X159499703Y-108038620D01*
X159472918Y-108041500D01*
X159163083Y-108041500D01*
X159094962Y-108021498D01*
X159073988Y-108004595D01*
X158437405Y-107368012D01*
X158403379Y-107305700D01*
X158400500Y-107278917D01*
X158400500Y-101343500D01*
X158420502Y-101275379D01*
X158474158Y-101228886D01*
X158526500Y-101217500D01*
X158570189Y-101217500D01*
X158570191Y-101217500D01*
X158591118Y-101210700D01*
X158610327Y-101206088D01*
X158632062Y-101202646D01*
X158651668Y-101192655D01*
X158669919Y-101185095D01*
X158690848Y-101178296D01*
X158708649Y-101165362D01*
X158725499Y-101155036D01*
X158745100Y-101145050D01*
X158760475Y-101129673D01*
X158760484Y-101129667D01*
X159414907Y-100475243D01*
X159437474Y-100452676D01*
X159447459Y-100433077D01*
X159457790Y-100416218D01*
X159470720Y-100398424D01*
X159477518Y-100377499D01*
X159485085Y-100359233D01*
X159486386Y-100356681D01*
X159495070Y-100339638D01*
X159498511Y-100317904D01*
X159503125Y-100298686D01*
X159509923Y-100277767D01*
X159509923Y-100248451D01*
X159509924Y-100248426D01*
X159509924Y-98046000D01*
X162091000Y-98046000D01*
X162091000Y-98085062D01*
X162101613Y-98173441D01*
X162101614Y-98173447D01*
X162157080Y-98314097D01*
X162248434Y-98434565D01*
X162368902Y-98525919D01*
X162509552Y-98581385D01*
X162509558Y-98581386D01*
X162597937Y-98591999D01*
X162597943Y-98592000D01*
X163487000Y-98592000D01*
X163487000Y-98046000D01*
X162091000Y-98046000D01*
X159509924Y-98046000D01*
X159509924Y-97538000D01*
X162091000Y-97538000D01*
X163487000Y-97538000D01*
X163487000Y-96992000D01*
X162597937Y-96992000D01*
X162509558Y-97002613D01*
X162509552Y-97002614D01*
X162368902Y-97058080D01*
X162248434Y-97149434D01*
X162157080Y-97269902D01*
X162101614Y-97410552D01*
X162101613Y-97410558D01*
X162091000Y-97498937D01*
X162091000Y-97538000D01*
X159509924Y-97538000D01*
X159509924Y-96630485D01*
X159529926Y-96562364D01*
X159583582Y-96515871D01*
X159653856Y-96505767D01*
X159677540Y-96511556D01*
X159756393Y-96539148D01*
X159786797Y-96541999D01*
X160287000Y-96541999D01*
X160287000Y-96196000D01*
X160795000Y-96196000D01*
X160795000Y-96541999D01*
X161295195Y-96541999D01*
X161295209Y-96541998D01*
X161325606Y-96539148D01*
X161325609Y-96539147D01*
X161453644Y-96494346D01*
X161453645Y-96494346D01*
X161562792Y-96413792D01*
X161643345Y-96304647D01*
X161681362Y-96196000D01*
X160795000Y-96196000D01*
X160287000Y-96196000D01*
X160287000Y-95814000D01*
X160307002Y-95745879D01*
X160360658Y-95699386D01*
X160413000Y-95688000D01*
X161681362Y-95688000D01*
X161643345Y-95579352D01*
X161562792Y-95470207D01*
X161452169Y-95388564D01*
X161409236Y-95332019D01*
X161403690Y-95261240D01*
X161437291Y-95198697D01*
X161469788Y-95174917D01*
X161479342Y-95170050D01*
X161569050Y-95080342D01*
X161626646Y-94967304D01*
X161641500Y-94873519D01*
X161641499Y-94849955D01*
X161661499Y-94781838D01*
X161715153Y-94735343D01*
X161785426Y-94725237D01*
X161826055Y-94738388D01*
X161827759Y-94739282D01*
X161827760Y-94739283D01*
X161967635Y-94812696D01*
X161967636Y-94812696D01*
X161967638Y-94812697D01*
X162044325Y-94831598D01*
X162121015Y-94850500D01*
X162121017Y-94850500D01*
X162278983Y-94850500D01*
X162278985Y-94850500D01*
X162432365Y-94812696D01*
X162572240Y-94739283D01*
X162690483Y-94634530D01*
X162780220Y-94504523D01*
X162836237Y-94356818D01*
X162836237Y-94356817D01*
X162836238Y-94356815D01*
X162855278Y-94200003D01*
X162855278Y-94199996D01*
X162836238Y-94043184D01*
X162817016Y-93992500D01*
X162780220Y-93895477D01*
X162780216Y-93895472D01*
X162780216Y-93895470D01*
X162690483Y-93765470D01*
X162690481Y-93765468D01*
X162572240Y-93660717D01*
X162432365Y-93587304D01*
X162432361Y-93587302D01*
X162278987Y-93549500D01*
X162278985Y-93549500D01*
X162168083Y-93549500D01*
X162099962Y-93529498D01*
X162078992Y-93512599D01*
X161702909Y-93136516D01*
X161702908Y-93136515D01*
X161701348Y-93134955D01*
X161701334Y-93134942D01*
X161680342Y-93113950D01*
X161680341Y-93113949D01*
X161680340Y-93113948D01*
X161660738Y-93103960D01*
X161643883Y-93093631D01*
X161626091Y-93080704D01*
X161626089Y-93080703D01*
X161610428Y-93075615D01*
X161560270Y-93044877D01*
X161479342Y-92963949D01*
X161411273Y-92929267D01*
X161359658Y-92880519D01*
X161342592Y-92811604D01*
X161365493Y-92744402D01*
X161411273Y-92704733D01*
X161479342Y-92670050D01*
X161569050Y-92580342D01*
X161578039Y-92562700D01*
X161626646Y-92467304D01*
X161641500Y-92373519D01*
X161641499Y-92010482D01*
X161626646Y-91916696D01*
X161594038Y-91852699D01*
X161569050Y-91803657D01*
X161479342Y-91713949D01*
X161411273Y-91679267D01*
X161359658Y-91630519D01*
X161342592Y-91561604D01*
X161365493Y-91494402D01*
X161411273Y-91454733D01*
X161479342Y-91420050D01*
X161569050Y-91330342D01*
X161569401Y-91329653D01*
X161626646Y-91217304D01*
X161641500Y-91123519D01*
X161641499Y-90760482D01*
X161626646Y-90666696D01*
X161582830Y-90580703D01*
X161569050Y-90553657D01*
X161479342Y-90463949D01*
X161411273Y-90429267D01*
X161359658Y-90380519D01*
X161342592Y-90311604D01*
X161365493Y-90244402D01*
X161411273Y-90204733D01*
X161465245Y-90177233D01*
X161522448Y-90163500D01*
X162054198Y-90163500D01*
X162122319Y-90183502D01*
X162137749Y-90195186D01*
X162145760Y-90202283D01*
X162285635Y-90275696D01*
X162285636Y-90275696D01*
X162285638Y-90275697D01*
X162362324Y-90294598D01*
X162439015Y-90313500D01*
X162439017Y-90313500D01*
X162596983Y-90313500D01*
X162596985Y-90313500D01*
X162750365Y-90275696D01*
X162890240Y-90202283D01*
X163008483Y-90097530D01*
X163098220Y-89967523D01*
X163154237Y-89819818D01*
X163154237Y-89819817D01*
X163154238Y-89819815D01*
X163173278Y-89663003D01*
X163173278Y-89662996D01*
X163154238Y-89506184D01*
X163146392Y-89485498D01*
X163098220Y-89358477D01*
X163098216Y-89358472D01*
X163098216Y-89358470D01*
X163008483Y-89228470D01*
X163008481Y-89228468D01*
X162890240Y-89123717D01*
X162750365Y-89050304D01*
X162750361Y-89050302D01*
X162596987Y-89012500D01*
X162596985Y-89012500D01*
X162439015Y-89012500D01*
X162439012Y-89012500D01*
X162285638Y-89050302D01*
X162285634Y-89050304D01*
X162145760Y-89123716D01*
X162145758Y-89123718D01*
X162137753Y-89130811D01*
X162073500Y-89161013D01*
X162054198Y-89162500D01*
X161405176Y-89162500D01*
X161376099Y-89157895D01*
X161376098Y-89157906D01*
X161366306Y-89156355D01*
X161366304Y-89156354D01*
X161272519Y-89141500D01*
X161272515Y-89141500D01*
X159809483Y-89141500D01*
X159715697Y-89156353D01*
X159673671Y-89177767D01*
X159616468Y-89191500D01*
X148962504Y-89191500D01*
X148894383Y-89171498D01*
X148873409Y-89154595D01*
X147814814Y-88096000D01*
X162091000Y-88096000D01*
X162091000Y-88135062D01*
X162101613Y-88223441D01*
X162101614Y-88223447D01*
X162157080Y-88364097D01*
X162248434Y-88484565D01*
X162368902Y-88575919D01*
X162509552Y-88631385D01*
X162509558Y-88631386D01*
X162597937Y-88641999D01*
X162597943Y-88642000D01*
X163487000Y-88642000D01*
X163487000Y-88096000D01*
X162091000Y-88096000D01*
X147814814Y-88096000D01*
X147306814Y-87588000D01*
X162091000Y-87588000D01*
X163487000Y-87588000D01*
X163487000Y-87042000D01*
X162597937Y-87042000D01*
X162509558Y-87052613D01*
X162509552Y-87052614D01*
X162368902Y-87108080D01*
X162248434Y-87199434D01*
X162157080Y-87319902D01*
X162101614Y-87460552D01*
X162101613Y-87460558D01*
X162091000Y-87548937D01*
X162091000Y-87588000D01*
X147306814Y-87588000D01*
X146917037Y-87198223D01*
X146900135Y-87177251D01*
X146897643Y-87173372D01*
X146858459Y-87139419D01*
X146855179Y-87136365D01*
X146844093Y-87125279D01*
X146831536Y-87115879D01*
X146828044Y-87113065D01*
X146822291Y-87108080D01*
X146788873Y-87079123D01*
X146788871Y-87079122D01*
X146788870Y-87079121D01*
X146788867Y-87079119D01*
X146784678Y-87077206D01*
X146761524Y-87063468D01*
X146757832Y-87060705D01*
X146757831Y-87060704D01*
X146729709Y-87050215D01*
X146709257Y-87042586D01*
X146705103Y-87040865D01*
X146657962Y-87019336D01*
X146657955Y-87019334D01*
X146653383Y-87018677D01*
X146627308Y-87012021D01*
X146622988Y-87010410D01*
X146622980Y-87010408D01*
X146571278Y-87006709D01*
X146566811Y-87006229D01*
X146551299Y-87004000D01*
X146535630Y-87004000D01*
X146531134Y-87003839D01*
X146479427Y-87000141D01*
X146479426Y-87000141D01*
X146474927Y-87001120D01*
X146448142Y-87004000D01*
X144265443Y-87004000D01*
X144197322Y-86983998D01*
X144189934Y-86978868D01*
X144077453Y-86894665D01*
X143951017Y-86847507D01*
X143895142Y-86841500D01*
X143895130Y-86841500D01*
X143292870Y-86841500D01*
X143292857Y-86841500D01*
X143236982Y-86847507D01*
X143110547Y-86894665D01*
X143110546Y-86894665D01*
X142998066Y-86978868D01*
X142931546Y-87003679D01*
X142922557Y-87004000D01*
X141265443Y-87004000D01*
X141197322Y-86983998D01*
X141189934Y-86978868D01*
X141077453Y-86894665D01*
X140951017Y-86847507D01*
X140895142Y-86841500D01*
X140895130Y-86841500D01*
X140292870Y-86841500D01*
X140292857Y-86841500D01*
X140236982Y-86847507D01*
X140110547Y-86894665D01*
X140110546Y-86894665D01*
X140002527Y-86975527D01*
X139921665Y-87083546D01*
X139921665Y-87083547D01*
X139874507Y-87209982D01*
X139868500Y-87265857D01*
X139868500Y-87793142D01*
X139874507Y-87849017D01*
X139921665Y-87975452D01*
X139921665Y-87975453D01*
X140002527Y-88083472D01*
X140110545Y-88164333D01*
X140110546Y-88164333D01*
X140110550Y-88164336D01*
X140203341Y-88198945D01*
X140260175Y-88241491D01*
X140284986Y-88308011D01*
X140269895Y-88377385D01*
X140219692Y-88427588D01*
X140203348Y-88435052D01*
X140110553Y-88469663D01*
X140110545Y-88469666D01*
X140002527Y-88550527D01*
X139921665Y-88658546D01*
X139921665Y-88658547D01*
X139874507Y-88784982D01*
X139868500Y-88840857D01*
X139868500Y-89368142D01*
X136094500Y-89368142D01*
X136094500Y-85943500D01*
X136114502Y-85875379D01*
X136168158Y-85828886D01*
X136220500Y-85817500D01*
X164967500Y-85817500D01*
X165035621Y-85837502D01*
G37*
%TD.AperFunction*%
%TD*%
M02*
