%TF.GenerationSoftware,KiCad,Pcbnew,7.0.7-7.0.7~ubuntu23.04.1*%
%TF.CreationDate,2023-09-20T23:32:56+00:00*%
%TF.ProjectId,TFUSBSERIAL01,54465553-4253-4455-9249-414c30312e6b,REV*%
%TF.SameCoordinates,Original*%
%TF.FileFunction,Legend,Bot*%
%TF.FilePolarity,Positive*%
%FSLAX46Y46*%
G04 Gerber Fmt 4.6, Leading zero omitted, Abs format (unit mm)*
G04 Created by KiCad (PCBNEW 7.0.7-7.0.7~ubuntu23.04.1) date 2023-09-20 23:32:56*
%MOMM*%
%LPD*%
G01*
G04 APERTURE LIST*
%ADD10C,0.150000*%
%ADD11C,0.200000*%
%ADD12C,0.120000*%
G04 APERTURE END LIST*
D10*
X155241421Y-102300000D02*
G75*
G03*
X155241421Y-102300000I-141421J0D01*
G01*
D11*
X158514447Y-98123809D02*
X158514447Y-97742857D01*
X158847780Y-97980952D02*
X157990638Y-97980952D01*
X157990638Y-97980952D02*
X157895400Y-97933333D01*
X157895400Y-97933333D02*
X157847780Y-97838095D01*
X157847780Y-97838095D02*
X157847780Y-97742857D01*
X157847780Y-97266666D02*
X157895400Y-97361904D01*
X157895400Y-97361904D02*
X157943019Y-97409523D01*
X157943019Y-97409523D02*
X158038257Y-97457142D01*
X158038257Y-97457142D02*
X158323971Y-97457142D01*
X158323971Y-97457142D02*
X158419209Y-97409523D01*
X158419209Y-97409523D02*
X158466828Y-97361904D01*
X158466828Y-97361904D02*
X158514447Y-97266666D01*
X158514447Y-97266666D02*
X158514447Y-97123809D01*
X158514447Y-97123809D02*
X158466828Y-97028571D01*
X158466828Y-97028571D02*
X158419209Y-96980952D01*
X158419209Y-96980952D02*
X158323971Y-96933333D01*
X158323971Y-96933333D02*
X158038257Y-96933333D01*
X158038257Y-96933333D02*
X157943019Y-96980952D01*
X157943019Y-96980952D02*
X157895400Y-97028571D01*
X157895400Y-97028571D02*
X157847780Y-97123809D01*
X157847780Y-97123809D02*
X157847780Y-97266666D01*
X157847780Y-95742856D02*
X158847780Y-95742856D01*
X158847780Y-95742856D02*
X158847780Y-95361904D01*
X158847780Y-95361904D02*
X158800161Y-95266666D01*
X158800161Y-95266666D02*
X158752542Y-95219047D01*
X158752542Y-95219047D02*
X158657304Y-95171428D01*
X158657304Y-95171428D02*
X158514447Y-95171428D01*
X158514447Y-95171428D02*
X158419209Y-95219047D01*
X158419209Y-95219047D02*
X158371590Y-95266666D01*
X158371590Y-95266666D02*
X158323971Y-95361904D01*
X158323971Y-95361904D02*
X158323971Y-95742856D01*
X158371590Y-94742856D02*
X158371590Y-94409523D01*
X157847780Y-94266666D02*
X157847780Y-94742856D01*
X157847780Y-94742856D02*
X158847780Y-94742856D01*
X158847780Y-94742856D02*
X158847780Y-94266666D01*
X157847780Y-93266666D02*
X158323971Y-93599999D01*
X157847780Y-93838094D02*
X158847780Y-93838094D01*
X158847780Y-93838094D02*
X158847780Y-93457142D01*
X158847780Y-93457142D02*
X158800161Y-93361904D01*
X158800161Y-93361904D02*
X158752542Y-93314285D01*
X158752542Y-93314285D02*
X158657304Y-93266666D01*
X158657304Y-93266666D02*
X158514447Y-93266666D01*
X158514447Y-93266666D02*
X158419209Y-93314285D01*
X158419209Y-93314285D02*
X158371590Y-93361904D01*
X158371590Y-93361904D02*
X158323971Y-93457142D01*
X158323971Y-93457142D02*
X158323971Y-93838094D01*
X157847780Y-92838094D02*
X158847780Y-92838094D01*
X157847780Y-92361904D02*
X158847780Y-92361904D01*
X158847780Y-92361904D02*
X158847780Y-91980952D01*
X158847780Y-91980952D02*
X158800161Y-91885714D01*
X158800161Y-91885714D02*
X158752542Y-91838095D01*
X158752542Y-91838095D02*
X158657304Y-91790476D01*
X158657304Y-91790476D02*
X158514447Y-91790476D01*
X158514447Y-91790476D02*
X158419209Y-91838095D01*
X158419209Y-91838095D02*
X158371590Y-91885714D01*
X158371590Y-91885714D02*
X158323971Y-91980952D01*
X158323971Y-91980952D02*
X158323971Y-92361904D01*
X157847780Y-91361904D02*
X158847780Y-91361904D01*
X158371590Y-91361904D02*
X158371590Y-90790476D01*
X157847780Y-90790476D02*
X158847780Y-90790476D01*
X158371590Y-90314285D02*
X158371590Y-89980952D01*
X157847780Y-89838095D02*
X157847780Y-90314285D01*
X157847780Y-90314285D02*
X158847780Y-90314285D01*
X158847780Y-90314285D02*
X158847780Y-89838095D01*
X157847780Y-88838095D02*
X158323971Y-89171428D01*
X157847780Y-89409523D02*
X158847780Y-89409523D01*
X158847780Y-89409523D02*
X158847780Y-89028571D01*
X158847780Y-89028571D02*
X158800161Y-88933333D01*
X158800161Y-88933333D02*
X158752542Y-88885714D01*
X158752542Y-88885714D02*
X158657304Y-88838095D01*
X158657304Y-88838095D02*
X158514447Y-88838095D01*
X158514447Y-88838095D02*
X158419209Y-88885714D01*
X158419209Y-88885714D02*
X158371590Y-88933333D01*
X158371590Y-88933333D02*
X158323971Y-89028571D01*
X158323971Y-89028571D02*
X158323971Y-89409523D01*
X158133495Y-88457142D02*
X158133495Y-87980952D01*
X157847780Y-88552380D02*
X158847780Y-88219047D01*
X158847780Y-88219047D02*
X157847780Y-87885714D01*
X157847780Y-87076190D02*
X157847780Y-87552380D01*
X157847780Y-87552380D02*
X158847780Y-87552380D01*
X158414447Y-111547618D02*
X158414447Y-111166666D01*
X158747780Y-111404761D02*
X157890638Y-111404761D01*
X157890638Y-111404761D02*
X157795400Y-111357142D01*
X157795400Y-111357142D02*
X157747780Y-111261904D01*
X157747780Y-111261904D02*
X157747780Y-111166666D01*
X157747780Y-110690475D02*
X157795400Y-110785713D01*
X157795400Y-110785713D02*
X157843019Y-110833332D01*
X157843019Y-110833332D02*
X157938257Y-110880951D01*
X157938257Y-110880951D02*
X158223971Y-110880951D01*
X158223971Y-110880951D02*
X158319209Y-110833332D01*
X158319209Y-110833332D02*
X158366828Y-110785713D01*
X158366828Y-110785713D02*
X158414447Y-110690475D01*
X158414447Y-110690475D02*
X158414447Y-110547618D01*
X158414447Y-110547618D02*
X158366828Y-110452380D01*
X158366828Y-110452380D02*
X158319209Y-110404761D01*
X158319209Y-110404761D02*
X158223971Y-110357142D01*
X158223971Y-110357142D02*
X157938257Y-110357142D01*
X157938257Y-110357142D02*
X157843019Y-110404761D01*
X157843019Y-110404761D02*
X157795400Y-110452380D01*
X157795400Y-110452380D02*
X157747780Y-110547618D01*
X157747780Y-110547618D02*
X157747780Y-110690475D01*
X158271590Y-108833332D02*
X158271590Y-109166665D01*
X157747780Y-109166665D02*
X158747780Y-109166665D01*
X158747780Y-109166665D02*
X158747780Y-108690475D01*
X157747780Y-108309522D02*
X158747780Y-108309522D01*
X158747780Y-108309522D02*
X158033495Y-107976189D01*
X158033495Y-107976189D02*
X158747780Y-107642856D01*
X158747780Y-107642856D02*
X157747780Y-107642856D01*
X158747780Y-107166665D02*
X157938257Y-107166665D01*
X157938257Y-107166665D02*
X157843019Y-107119046D01*
X157843019Y-107119046D02*
X157795400Y-107071427D01*
X157795400Y-107071427D02*
X157747780Y-106976189D01*
X157747780Y-106976189D02*
X157747780Y-106785713D01*
X157747780Y-106785713D02*
X157795400Y-106690475D01*
X157795400Y-106690475D02*
X157843019Y-106642856D01*
X157843019Y-106642856D02*
X157938257Y-106595237D01*
X157938257Y-106595237D02*
X158747780Y-106595237D01*
D10*
X164990475Y-99262295D02*
X164990475Y-98462295D01*
X164990475Y-98462295D02*
X164799999Y-98462295D01*
X164799999Y-98462295D02*
X164685713Y-98500390D01*
X164685713Y-98500390D02*
X164609523Y-98576580D01*
X164609523Y-98576580D02*
X164571428Y-98652771D01*
X164571428Y-98652771D02*
X164533332Y-98805152D01*
X164533332Y-98805152D02*
X164533332Y-98919438D01*
X164533332Y-98919438D02*
X164571428Y-99071819D01*
X164571428Y-99071819D02*
X164609523Y-99148009D01*
X164609523Y-99148009D02*
X164685713Y-99224200D01*
X164685713Y-99224200D02*
X164799999Y-99262295D01*
X164799999Y-99262295D02*
X164990475Y-99262295D01*
X163771428Y-99262295D02*
X164228571Y-99262295D01*
X163999999Y-99262295D02*
X163999999Y-98462295D01*
X163999999Y-98462295D02*
X164076190Y-98576580D01*
X164076190Y-98576580D02*
X164152380Y-98652771D01*
X164152380Y-98652771D02*
X164228571Y-98690866D01*
X142386295Y-87726524D02*
X141586295Y-87726524D01*
X141586295Y-87726524D02*
X141586295Y-87917000D01*
X141586295Y-87917000D02*
X141624390Y-88031286D01*
X141624390Y-88031286D02*
X141700580Y-88107476D01*
X141700580Y-88107476D02*
X141776771Y-88145571D01*
X141776771Y-88145571D02*
X141929152Y-88183667D01*
X141929152Y-88183667D02*
X142043438Y-88183667D01*
X142043438Y-88183667D02*
X142195819Y-88145571D01*
X142195819Y-88145571D02*
X142272009Y-88107476D01*
X142272009Y-88107476D02*
X142348200Y-88031286D01*
X142348200Y-88031286D02*
X142386295Y-87917000D01*
X142386295Y-87917000D02*
X142386295Y-87726524D01*
X141586295Y-88450333D02*
X141586295Y-88945571D01*
X141586295Y-88945571D02*
X141891057Y-88678905D01*
X141891057Y-88678905D02*
X141891057Y-88793190D01*
X141891057Y-88793190D02*
X141929152Y-88869381D01*
X141929152Y-88869381D02*
X141967247Y-88907476D01*
X141967247Y-88907476D02*
X142043438Y-88945571D01*
X142043438Y-88945571D02*
X142233914Y-88945571D01*
X142233914Y-88945571D02*
X142310104Y-88907476D01*
X142310104Y-88907476D02*
X142348200Y-88869381D01*
X142348200Y-88869381D02*
X142386295Y-88793190D01*
X142386295Y-88793190D02*
X142386295Y-88564619D01*
X142386295Y-88564619D02*
X142348200Y-88488428D01*
X142348200Y-88488428D02*
X142310104Y-88450333D01*
X155533332Y-107386104D02*
X155571428Y-107424200D01*
X155571428Y-107424200D02*
X155685713Y-107462295D01*
X155685713Y-107462295D02*
X155761904Y-107462295D01*
X155761904Y-107462295D02*
X155876190Y-107424200D01*
X155876190Y-107424200D02*
X155952380Y-107348009D01*
X155952380Y-107348009D02*
X155990475Y-107271819D01*
X155990475Y-107271819D02*
X156028571Y-107119438D01*
X156028571Y-107119438D02*
X156028571Y-107005152D01*
X156028571Y-107005152D02*
X155990475Y-106852771D01*
X155990475Y-106852771D02*
X155952380Y-106776580D01*
X155952380Y-106776580D02*
X155876190Y-106700390D01*
X155876190Y-106700390D02*
X155761904Y-106662295D01*
X155761904Y-106662295D02*
X155685713Y-106662295D01*
X155685713Y-106662295D02*
X155571428Y-106700390D01*
X155571428Y-106700390D02*
X155533332Y-106738485D01*
X154809523Y-106662295D02*
X155190475Y-106662295D01*
X155190475Y-106662295D02*
X155228571Y-107043247D01*
X155228571Y-107043247D02*
X155190475Y-107005152D01*
X155190475Y-107005152D02*
X155114285Y-106967057D01*
X155114285Y-106967057D02*
X154923809Y-106967057D01*
X154923809Y-106967057D02*
X154847618Y-107005152D01*
X154847618Y-107005152D02*
X154809523Y-107043247D01*
X154809523Y-107043247D02*
X154771428Y-107119438D01*
X154771428Y-107119438D02*
X154771428Y-107309914D01*
X154771428Y-107309914D02*
X154809523Y-107386104D01*
X154809523Y-107386104D02*
X154847618Y-107424200D01*
X154847618Y-107424200D02*
X154923809Y-107462295D01*
X154923809Y-107462295D02*
X155114285Y-107462295D01*
X155114285Y-107462295D02*
X155190475Y-107424200D01*
X155190475Y-107424200D02*
X155228571Y-107386104D01*
X141090475Y-110462295D02*
X141090475Y-109662295D01*
X141090475Y-109662295D02*
X140899999Y-109662295D01*
X140899999Y-109662295D02*
X140785713Y-109700390D01*
X140785713Y-109700390D02*
X140709523Y-109776580D01*
X140709523Y-109776580D02*
X140671428Y-109852771D01*
X140671428Y-109852771D02*
X140633332Y-110005152D01*
X140633332Y-110005152D02*
X140633332Y-110119438D01*
X140633332Y-110119438D02*
X140671428Y-110271819D01*
X140671428Y-110271819D02*
X140709523Y-110348009D01*
X140709523Y-110348009D02*
X140785713Y-110424200D01*
X140785713Y-110424200D02*
X140899999Y-110462295D01*
X140899999Y-110462295D02*
X141090475Y-110462295D01*
X139947618Y-109928961D02*
X139947618Y-110462295D01*
X140138094Y-109624200D02*
X140328571Y-110195628D01*
X140328571Y-110195628D02*
X139833332Y-110195628D01*
X147533332Y-94862295D02*
X147799999Y-94481342D01*
X147990475Y-94862295D02*
X147990475Y-94062295D01*
X147990475Y-94062295D02*
X147685713Y-94062295D01*
X147685713Y-94062295D02*
X147609523Y-94100390D01*
X147609523Y-94100390D02*
X147571428Y-94138485D01*
X147571428Y-94138485D02*
X147533332Y-94214676D01*
X147533332Y-94214676D02*
X147533332Y-94328961D01*
X147533332Y-94328961D02*
X147571428Y-94405152D01*
X147571428Y-94405152D02*
X147609523Y-94443247D01*
X147609523Y-94443247D02*
X147685713Y-94481342D01*
X147685713Y-94481342D02*
X147990475Y-94481342D01*
X146809523Y-94062295D02*
X147190475Y-94062295D01*
X147190475Y-94062295D02*
X147228571Y-94443247D01*
X147228571Y-94443247D02*
X147190475Y-94405152D01*
X147190475Y-94405152D02*
X147114285Y-94367057D01*
X147114285Y-94367057D02*
X146923809Y-94367057D01*
X146923809Y-94367057D02*
X146847618Y-94405152D01*
X146847618Y-94405152D02*
X146809523Y-94443247D01*
X146809523Y-94443247D02*
X146771428Y-94519438D01*
X146771428Y-94519438D02*
X146771428Y-94709914D01*
X146771428Y-94709914D02*
X146809523Y-94786104D01*
X146809523Y-94786104D02*
X146847618Y-94824200D01*
X146847618Y-94824200D02*
X146923809Y-94862295D01*
X146923809Y-94862295D02*
X147114285Y-94862295D01*
X147114285Y-94862295D02*
X147190475Y-94824200D01*
X147190475Y-94824200D02*
X147228571Y-94786104D01*
X144833332Y-94862295D02*
X145099999Y-94481342D01*
X145290475Y-94862295D02*
X145290475Y-94062295D01*
X145290475Y-94062295D02*
X144985713Y-94062295D01*
X144985713Y-94062295D02*
X144909523Y-94100390D01*
X144909523Y-94100390D02*
X144871428Y-94138485D01*
X144871428Y-94138485D02*
X144833332Y-94214676D01*
X144833332Y-94214676D02*
X144833332Y-94328961D01*
X144833332Y-94328961D02*
X144871428Y-94405152D01*
X144871428Y-94405152D02*
X144909523Y-94443247D01*
X144909523Y-94443247D02*
X144985713Y-94481342D01*
X144985713Y-94481342D02*
X145290475Y-94481342D01*
X144147618Y-94062295D02*
X144299999Y-94062295D01*
X144299999Y-94062295D02*
X144376190Y-94100390D01*
X144376190Y-94100390D02*
X144414285Y-94138485D01*
X144414285Y-94138485D02*
X144490475Y-94252771D01*
X144490475Y-94252771D02*
X144528571Y-94405152D01*
X144528571Y-94405152D02*
X144528571Y-94709914D01*
X144528571Y-94709914D02*
X144490475Y-94786104D01*
X144490475Y-94786104D02*
X144452380Y-94824200D01*
X144452380Y-94824200D02*
X144376190Y-94862295D01*
X144376190Y-94862295D02*
X144223809Y-94862295D01*
X144223809Y-94862295D02*
X144147618Y-94824200D01*
X144147618Y-94824200D02*
X144109523Y-94786104D01*
X144109523Y-94786104D02*
X144071428Y-94709914D01*
X144071428Y-94709914D02*
X144071428Y-94519438D01*
X144071428Y-94519438D02*
X144109523Y-94443247D01*
X144109523Y-94443247D02*
X144147618Y-94405152D01*
X144147618Y-94405152D02*
X144223809Y-94367057D01*
X144223809Y-94367057D02*
X144376190Y-94367057D01*
X144376190Y-94367057D02*
X144452380Y-94405152D01*
X144452380Y-94405152D02*
X144490475Y-94443247D01*
X144490475Y-94443247D02*
X144528571Y-94519438D01*
X150133332Y-95986104D02*
X150171428Y-96024200D01*
X150171428Y-96024200D02*
X150285713Y-96062295D01*
X150285713Y-96062295D02*
X150361904Y-96062295D01*
X150361904Y-96062295D02*
X150476190Y-96024200D01*
X150476190Y-96024200D02*
X150552380Y-95948009D01*
X150552380Y-95948009D02*
X150590475Y-95871819D01*
X150590475Y-95871819D02*
X150628571Y-95719438D01*
X150628571Y-95719438D02*
X150628571Y-95605152D01*
X150628571Y-95605152D02*
X150590475Y-95452771D01*
X150590475Y-95452771D02*
X150552380Y-95376580D01*
X150552380Y-95376580D02*
X150476190Y-95300390D01*
X150476190Y-95300390D02*
X150361904Y-95262295D01*
X150361904Y-95262295D02*
X150285713Y-95262295D01*
X150285713Y-95262295D02*
X150171428Y-95300390D01*
X150171428Y-95300390D02*
X150133332Y-95338485D01*
X149828571Y-95338485D02*
X149790475Y-95300390D01*
X149790475Y-95300390D02*
X149714285Y-95262295D01*
X149714285Y-95262295D02*
X149523809Y-95262295D01*
X149523809Y-95262295D02*
X149447618Y-95300390D01*
X149447618Y-95300390D02*
X149409523Y-95338485D01*
X149409523Y-95338485D02*
X149371428Y-95414676D01*
X149371428Y-95414676D02*
X149371428Y-95490866D01*
X149371428Y-95490866D02*
X149409523Y-95605152D01*
X149409523Y-95605152D02*
X149866666Y-96062295D01*
X149866666Y-96062295D02*
X149371428Y-96062295D01*
X142433332Y-110462295D02*
X142699999Y-110081342D01*
X142890475Y-110462295D02*
X142890475Y-109662295D01*
X142890475Y-109662295D02*
X142585713Y-109662295D01*
X142585713Y-109662295D02*
X142509523Y-109700390D01*
X142509523Y-109700390D02*
X142471428Y-109738485D01*
X142471428Y-109738485D02*
X142433332Y-109814676D01*
X142433332Y-109814676D02*
X142433332Y-109928961D01*
X142433332Y-109928961D02*
X142471428Y-110005152D01*
X142471428Y-110005152D02*
X142509523Y-110043247D01*
X142509523Y-110043247D02*
X142585713Y-110081342D01*
X142585713Y-110081342D02*
X142890475Y-110081342D01*
X142166666Y-109662295D02*
X141633332Y-109662295D01*
X141633332Y-109662295D02*
X141976190Y-110462295D01*
X147266666Y-108543247D02*
X147533332Y-108543247D01*
X147533332Y-108962295D02*
X147533332Y-108162295D01*
X147533332Y-108162295D02*
X147152380Y-108162295D01*
X146580952Y-108543247D02*
X146466666Y-108581342D01*
X146466666Y-108581342D02*
X146428571Y-108619438D01*
X146428571Y-108619438D02*
X146390475Y-108695628D01*
X146390475Y-108695628D02*
X146390475Y-108809914D01*
X146390475Y-108809914D02*
X146428571Y-108886104D01*
X146428571Y-108886104D02*
X146466666Y-108924200D01*
X146466666Y-108924200D02*
X146542856Y-108962295D01*
X146542856Y-108962295D02*
X146847618Y-108962295D01*
X146847618Y-108962295D02*
X146847618Y-108162295D01*
X146847618Y-108162295D02*
X146580952Y-108162295D01*
X146580952Y-108162295D02*
X146504761Y-108200390D01*
X146504761Y-108200390D02*
X146466666Y-108238485D01*
X146466666Y-108238485D02*
X146428571Y-108314676D01*
X146428571Y-108314676D02*
X146428571Y-108390866D01*
X146428571Y-108390866D02*
X146466666Y-108467057D01*
X146466666Y-108467057D02*
X146504761Y-108505152D01*
X146504761Y-108505152D02*
X146580952Y-108543247D01*
X146580952Y-108543247D02*
X146847618Y-108543247D01*
X145628571Y-108962295D02*
X146085714Y-108962295D01*
X145857142Y-108962295D02*
X145857142Y-108162295D01*
X145857142Y-108162295D02*
X145933333Y-108276580D01*
X145933333Y-108276580D02*
X146009523Y-108352771D01*
X146009523Y-108352771D02*
X146085714Y-108390866D01*
X161862295Y-92133333D02*
X162433723Y-92133333D01*
X162433723Y-92133333D02*
X162548009Y-92095238D01*
X162548009Y-92095238D02*
X162624200Y-92019047D01*
X162624200Y-92019047D02*
X162662295Y-91904762D01*
X162662295Y-91904762D02*
X162662295Y-91828571D01*
X161938485Y-92476190D02*
X161900390Y-92514286D01*
X161900390Y-92514286D02*
X161862295Y-92590476D01*
X161862295Y-92590476D02*
X161862295Y-92780952D01*
X161862295Y-92780952D02*
X161900390Y-92857143D01*
X161900390Y-92857143D02*
X161938485Y-92895238D01*
X161938485Y-92895238D02*
X162014676Y-92933333D01*
X162014676Y-92933333D02*
X162090866Y-92933333D01*
X162090866Y-92933333D02*
X162205152Y-92895238D01*
X162205152Y-92895238D02*
X162662295Y-92438095D01*
X162662295Y-92438095D02*
X162662295Y-92933333D01*
X154409523Y-103362295D02*
X154409523Y-104009914D01*
X154409523Y-104009914D02*
X154371428Y-104086104D01*
X154371428Y-104086104D02*
X154333333Y-104124200D01*
X154333333Y-104124200D02*
X154257142Y-104162295D01*
X154257142Y-104162295D02*
X154104761Y-104162295D01*
X154104761Y-104162295D02*
X154028571Y-104124200D01*
X154028571Y-104124200D02*
X153990476Y-104086104D01*
X153990476Y-104086104D02*
X153952380Y-104009914D01*
X153952380Y-104009914D02*
X153952380Y-103362295D01*
X153609524Y-103438485D02*
X153571428Y-103400390D01*
X153571428Y-103400390D02*
X153495238Y-103362295D01*
X153495238Y-103362295D02*
X153304762Y-103362295D01*
X153304762Y-103362295D02*
X153228571Y-103400390D01*
X153228571Y-103400390D02*
X153190476Y-103438485D01*
X153190476Y-103438485D02*
X153152381Y-103514676D01*
X153152381Y-103514676D02*
X153152381Y-103590866D01*
X153152381Y-103590866D02*
X153190476Y-103705152D01*
X153190476Y-103705152D02*
X153647619Y-104162295D01*
X153647619Y-104162295D02*
X153152381Y-104162295D01*
X153833332Y-108562295D02*
X154099999Y-108181342D01*
X154290475Y-108562295D02*
X154290475Y-107762295D01*
X154290475Y-107762295D02*
X153985713Y-107762295D01*
X153985713Y-107762295D02*
X153909523Y-107800390D01*
X153909523Y-107800390D02*
X153871428Y-107838485D01*
X153871428Y-107838485D02*
X153833332Y-107914676D01*
X153833332Y-107914676D02*
X153833332Y-108028961D01*
X153833332Y-108028961D02*
X153871428Y-108105152D01*
X153871428Y-108105152D02*
X153909523Y-108143247D01*
X153909523Y-108143247D02*
X153985713Y-108181342D01*
X153985713Y-108181342D02*
X154290475Y-108181342D01*
X153452380Y-108562295D02*
X153299999Y-108562295D01*
X153299999Y-108562295D02*
X153223809Y-108524200D01*
X153223809Y-108524200D02*
X153185713Y-108486104D01*
X153185713Y-108486104D02*
X153109523Y-108371819D01*
X153109523Y-108371819D02*
X153071428Y-108219438D01*
X153071428Y-108219438D02*
X153071428Y-107914676D01*
X153071428Y-107914676D02*
X153109523Y-107838485D01*
X153109523Y-107838485D02*
X153147618Y-107800390D01*
X153147618Y-107800390D02*
X153223809Y-107762295D01*
X153223809Y-107762295D02*
X153376190Y-107762295D01*
X153376190Y-107762295D02*
X153452380Y-107800390D01*
X153452380Y-107800390D02*
X153490475Y-107838485D01*
X153490475Y-107838485D02*
X153528571Y-107914676D01*
X153528571Y-107914676D02*
X153528571Y-108105152D01*
X153528571Y-108105152D02*
X153490475Y-108181342D01*
X153490475Y-108181342D02*
X153452380Y-108219438D01*
X153452380Y-108219438D02*
X153376190Y-108257533D01*
X153376190Y-108257533D02*
X153223809Y-108257533D01*
X153223809Y-108257533D02*
X153147618Y-108219438D01*
X153147618Y-108219438D02*
X153109523Y-108181342D01*
X153109523Y-108181342D02*
X153071428Y-108105152D01*
X142033332Y-94862295D02*
X142299999Y-94481342D01*
X142490475Y-94862295D02*
X142490475Y-94062295D01*
X142490475Y-94062295D02*
X142185713Y-94062295D01*
X142185713Y-94062295D02*
X142109523Y-94100390D01*
X142109523Y-94100390D02*
X142071428Y-94138485D01*
X142071428Y-94138485D02*
X142033332Y-94214676D01*
X142033332Y-94214676D02*
X142033332Y-94328961D01*
X142033332Y-94328961D02*
X142071428Y-94405152D01*
X142071428Y-94405152D02*
X142109523Y-94443247D01*
X142109523Y-94443247D02*
X142185713Y-94481342D01*
X142185713Y-94481342D02*
X142490475Y-94481342D01*
X141728571Y-94138485D02*
X141690475Y-94100390D01*
X141690475Y-94100390D02*
X141614285Y-94062295D01*
X141614285Y-94062295D02*
X141423809Y-94062295D01*
X141423809Y-94062295D02*
X141347618Y-94100390D01*
X141347618Y-94100390D02*
X141309523Y-94138485D01*
X141309523Y-94138485D02*
X141271428Y-94214676D01*
X141271428Y-94214676D02*
X141271428Y-94290866D01*
X141271428Y-94290866D02*
X141309523Y-94405152D01*
X141309523Y-94405152D02*
X141766666Y-94862295D01*
X141766666Y-94862295D02*
X141271428Y-94862295D01*
X148333332Y-107186104D02*
X148371428Y-107224200D01*
X148371428Y-107224200D02*
X148485713Y-107262295D01*
X148485713Y-107262295D02*
X148561904Y-107262295D01*
X148561904Y-107262295D02*
X148676190Y-107224200D01*
X148676190Y-107224200D02*
X148752380Y-107148009D01*
X148752380Y-107148009D02*
X148790475Y-107071819D01*
X148790475Y-107071819D02*
X148828571Y-106919438D01*
X148828571Y-106919438D02*
X148828571Y-106805152D01*
X148828571Y-106805152D02*
X148790475Y-106652771D01*
X148790475Y-106652771D02*
X148752380Y-106576580D01*
X148752380Y-106576580D02*
X148676190Y-106500390D01*
X148676190Y-106500390D02*
X148561904Y-106462295D01*
X148561904Y-106462295D02*
X148485713Y-106462295D01*
X148485713Y-106462295D02*
X148371428Y-106500390D01*
X148371428Y-106500390D02*
X148333332Y-106538485D01*
X147571428Y-107262295D02*
X148028571Y-107262295D01*
X147799999Y-107262295D02*
X147799999Y-106462295D01*
X147799999Y-106462295D02*
X147876190Y-106576580D01*
X147876190Y-106576580D02*
X147952380Y-106652771D01*
X147952380Y-106652771D02*
X148028571Y-106690866D01*
X144933332Y-109561104D02*
X144971428Y-109599200D01*
X144971428Y-109599200D02*
X145085713Y-109637295D01*
X145085713Y-109637295D02*
X145161904Y-109637295D01*
X145161904Y-109637295D02*
X145276190Y-109599200D01*
X145276190Y-109599200D02*
X145352380Y-109523009D01*
X145352380Y-109523009D02*
X145390475Y-109446819D01*
X145390475Y-109446819D02*
X145428571Y-109294438D01*
X145428571Y-109294438D02*
X145428571Y-109180152D01*
X145428571Y-109180152D02*
X145390475Y-109027771D01*
X145390475Y-109027771D02*
X145352380Y-108951580D01*
X145352380Y-108951580D02*
X145276190Y-108875390D01*
X145276190Y-108875390D02*
X145161904Y-108837295D01*
X145161904Y-108837295D02*
X145085713Y-108837295D01*
X145085713Y-108837295D02*
X144971428Y-108875390D01*
X144971428Y-108875390D02*
X144933332Y-108913485D01*
X144666666Y-108837295D02*
X144171428Y-108837295D01*
X144171428Y-108837295D02*
X144438094Y-109142057D01*
X144438094Y-109142057D02*
X144323809Y-109142057D01*
X144323809Y-109142057D02*
X144247618Y-109180152D01*
X144247618Y-109180152D02*
X144209523Y-109218247D01*
X144209523Y-109218247D02*
X144171428Y-109294438D01*
X144171428Y-109294438D02*
X144171428Y-109484914D01*
X144171428Y-109484914D02*
X144209523Y-109561104D01*
X144209523Y-109561104D02*
X144247618Y-109599200D01*
X144247618Y-109599200D02*
X144323809Y-109637295D01*
X144323809Y-109637295D02*
X144552380Y-109637295D01*
X144552380Y-109637295D02*
X144628571Y-109599200D01*
X144628571Y-109599200D02*
X144666666Y-109561104D01*
X144488495Y-101975333D02*
X145059923Y-101975333D01*
X145059923Y-101975333D02*
X145174209Y-101937238D01*
X145174209Y-101937238D02*
X145250400Y-101861047D01*
X145250400Y-101861047D02*
X145288495Y-101746762D01*
X145288495Y-101746762D02*
X145288495Y-101670571D01*
X145288495Y-102775333D02*
X145288495Y-102318190D01*
X145288495Y-102546762D02*
X144488495Y-102546762D01*
X144488495Y-102546762D02*
X144602780Y-102470571D01*
X144602780Y-102470571D02*
X144678971Y-102394381D01*
X144678971Y-102394381D02*
X144717066Y-102318190D01*
X150009523Y-97762295D02*
X150009523Y-98409914D01*
X150009523Y-98409914D02*
X149971428Y-98486104D01*
X149971428Y-98486104D02*
X149933333Y-98524200D01*
X149933333Y-98524200D02*
X149857142Y-98562295D01*
X149857142Y-98562295D02*
X149704761Y-98562295D01*
X149704761Y-98562295D02*
X149628571Y-98524200D01*
X149628571Y-98524200D02*
X149590476Y-98486104D01*
X149590476Y-98486104D02*
X149552380Y-98409914D01*
X149552380Y-98409914D02*
X149552380Y-97762295D01*
X148752381Y-98562295D02*
X149209524Y-98562295D01*
X148980952Y-98562295D02*
X148980952Y-97762295D01*
X148980952Y-97762295D02*
X149057143Y-97876580D01*
X149057143Y-97876580D02*
X149133333Y-97952771D01*
X149133333Y-97952771D02*
X149209524Y-97990866D01*
X155529166Y-87843247D02*
X155795832Y-87843247D01*
X155795832Y-88262295D02*
X155795832Y-87462295D01*
X155795832Y-87462295D02*
X155414880Y-87462295D01*
X154691071Y-88262295D02*
X155148214Y-88262295D01*
X154919642Y-88262295D02*
X154919642Y-87462295D01*
X154919642Y-87462295D02*
X154995833Y-87576580D01*
X154995833Y-87576580D02*
X155072023Y-87652771D01*
X155072023Y-87652771D02*
X155148214Y-87690866D01*
X157814285Y-104462295D02*
X158080952Y-104081342D01*
X158271428Y-104462295D02*
X158271428Y-103662295D01*
X158271428Y-103662295D02*
X157966666Y-103662295D01*
X157966666Y-103662295D02*
X157890476Y-103700390D01*
X157890476Y-103700390D02*
X157852381Y-103738485D01*
X157852381Y-103738485D02*
X157814285Y-103814676D01*
X157814285Y-103814676D02*
X157814285Y-103928961D01*
X157814285Y-103928961D02*
X157852381Y-104005152D01*
X157852381Y-104005152D02*
X157890476Y-104043247D01*
X157890476Y-104043247D02*
X157966666Y-104081342D01*
X157966666Y-104081342D02*
X158271428Y-104081342D01*
X157052381Y-104462295D02*
X157509524Y-104462295D01*
X157280952Y-104462295D02*
X157280952Y-103662295D01*
X157280952Y-103662295D02*
X157357143Y-103776580D01*
X157357143Y-103776580D02*
X157433333Y-103852771D01*
X157433333Y-103852771D02*
X157509524Y-103890866D01*
X156557142Y-103662295D02*
X156480952Y-103662295D01*
X156480952Y-103662295D02*
X156404761Y-103700390D01*
X156404761Y-103700390D02*
X156366666Y-103738485D01*
X156366666Y-103738485D02*
X156328571Y-103814676D01*
X156328571Y-103814676D02*
X156290476Y-103967057D01*
X156290476Y-103967057D02*
X156290476Y-104157533D01*
X156290476Y-104157533D02*
X156328571Y-104309914D01*
X156328571Y-104309914D02*
X156366666Y-104386104D01*
X156366666Y-104386104D02*
X156404761Y-104424200D01*
X156404761Y-104424200D02*
X156480952Y-104462295D01*
X156480952Y-104462295D02*
X156557142Y-104462295D01*
X156557142Y-104462295D02*
X156633333Y-104424200D01*
X156633333Y-104424200D02*
X156671428Y-104386104D01*
X156671428Y-104386104D02*
X156709523Y-104309914D01*
X156709523Y-104309914D02*
X156747619Y-104157533D01*
X156747619Y-104157533D02*
X156747619Y-103967057D01*
X156747619Y-103967057D02*
X156709523Y-103814676D01*
X156709523Y-103814676D02*
X156671428Y-103738485D01*
X156671428Y-103738485D02*
X156633333Y-103700390D01*
X156633333Y-103700390D02*
X156557142Y-103662295D01*
X139833332Y-94862295D02*
X140099999Y-94481342D01*
X140290475Y-94862295D02*
X140290475Y-94062295D01*
X140290475Y-94062295D02*
X139985713Y-94062295D01*
X139985713Y-94062295D02*
X139909523Y-94100390D01*
X139909523Y-94100390D02*
X139871428Y-94138485D01*
X139871428Y-94138485D02*
X139833332Y-94214676D01*
X139833332Y-94214676D02*
X139833332Y-94328961D01*
X139833332Y-94328961D02*
X139871428Y-94405152D01*
X139871428Y-94405152D02*
X139909523Y-94443247D01*
X139909523Y-94443247D02*
X139985713Y-94481342D01*
X139985713Y-94481342D02*
X140290475Y-94481342D01*
X139071428Y-94862295D02*
X139528571Y-94862295D01*
X139299999Y-94862295D02*
X139299999Y-94062295D01*
X139299999Y-94062295D02*
X139376190Y-94176580D01*
X139376190Y-94176580D02*
X139452380Y-94252771D01*
X139452380Y-94252771D02*
X139528571Y-94290866D01*
X150714285Y-107362295D02*
X150980952Y-106981342D01*
X151171428Y-107362295D02*
X151171428Y-106562295D01*
X151171428Y-106562295D02*
X150866666Y-106562295D01*
X150866666Y-106562295D02*
X150790476Y-106600390D01*
X150790476Y-106600390D02*
X150752381Y-106638485D01*
X150752381Y-106638485D02*
X150714285Y-106714676D01*
X150714285Y-106714676D02*
X150714285Y-106828961D01*
X150714285Y-106828961D02*
X150752381Y-106905152D01*
X150752381Y-106905152D02*
X150790476Y-106943247D01*
X150790476Y-106943247D02*
X150866666Y-106981342D01*
X150866666Y-106981342D02*
X151171428Y-106981342D01*
X149952381Y-107362295D02*
X150409524Y-107362295D01*
X150180952Y-107362295D02*
X150180952Y-106562295D01*
X150180952Y-106562295D02*
X150257143Y-106676580D01*
X150257143Y-106676580D02*
X150333333Y-106752771D01*
X150333333Y-106752771D02*
X150409524Y-106790866D01*
X149190476Y-107362295D02*
X149647619Y-107362295D01*
X149419047Y-107362295D02*
X149419047Y-106562295D01*
X149419047Y-106562295D02*
X149495238Y-106676580D01*
X149495238Y-106676580D02*
X149571428Y-106752771D01*
X149571428Y-106752771D02*
X149647619Y-106790866D01*
X154633332Y-94686104D02*
X154671428Y-94724200D01*
X154671428Y-94724200D02*
X154785713Y-94762295D01*
X154785713Y-94762295D02*
X154861904Y-94762295D01*
X154861904Y-94762295D02*
X154976190Y-94724200D01*
X154976190Y-94724200D02*
X155052380Y-94648009D01*
X155052380Y-94648009D02*
X155090475Y-94571819D01*
X155090475Y-94571819D02*
X155128571Y-94419438D01*
X155128571Y-94419438D02*
X155128571Y-94305152D01*
X155128571Y-94305152D02*
X155090475Y-94152771D01*
X155090475Y-94152771D02*
X155052380Y-94076580D01*
X155052380Y-94076580D02*
X154976190Y-94000390D01*
X154976190Y-94000390D02*
X154861904Y-93962295D01*
X154861904Y-93962295D02*
X154785713Y-93962295D01*
X154785713Y-93962295D02*
X154671428Y-94000390D01*
X154671428Y-94000390D02*
X154633332Y-94038485D01*
X153947618Y-94228961D02*
X153947618Y-94762295D01*
X154138094Y-93924200D02*
X154328571Y-94495628D01*
X154328571Y-94495628D02*
X153833332Y-94495628D01*
X153933332Y-93562295D02*
X154199999Y-93181342D01*
X154390475Y-93562295D02*
X154390475Y-92762295D01*
X154390475Y-92762295D02*
X154085713Y-92762295D01*
X154085713Y-92762295D02*
X154009523Y-92800390D01*
X154009523Y-92800390D02*
X153971428Y-92838485D01*
X153971428Y-92838485D02*
X153933332Y-92914676D01*
X153933332Y-92914676D02*
X153933332Y-93028961D01*
X153933332Y-93028961D02*
X153971428Y-93105152D01*
X153971428Y-93105152D02*
X154009523Y-93143247D01*
X154009523Y-93143247D02*
X154085713Y-93181342D01*
X154085713Y-93181342D02*
X154390475Y-93181342D01*
X153666666Y-92762295D02*
X153171428Y-92762295D01*
X153171428Y-92762295D02*
X153438094Y-93067057D01*
X153438094Y-93067057D02*
X153323809Y-93067057D01*
X153323809Y-93067057D02*
X153247618Y-93105152D01*
X153247618Y-93105152D02*
X153209523Y-93143247D01*
X153209523Y-93143247D02*
X153171428Y-93219438D01*
X153171428Y-93219438D02*
X153171428Y-93409914D01*
X153171428Y-93409914D02*
X153209523Y-93486104D01*
X153209523Y-93486104D02*
X153247618Y-93524200D01*
X153247618Y-93524200D02*
X153323809Y-93562295D01*
X153323809Y-93562295D02*
X153552380Y-93562295D01*
X153552380Y-93562295D02*
X153628571Y-93524200D01*
X153628571Y-93524200D02*
X153666666Y-93486104D01*
X145386295Y-87726524D02*
X144586295Y-87726524D01*
X144586295Y-87726524D02*
X144586295Y-87917000D01*
X144586295Y-87917000D02*
X144624390Y-88031286D01*
X144624390Y-88031286D02*
X144700580Y-88107476D01*
X144700580Y-88107476D02*
X144776771Y-88145571D01*
X144776771Y-88145571D02*
X144929152Y-88183667D01*
X144929152Y-88183667D02*
X145043438Y-88183667D01*
X145043438Y-88183667D02*
X145195819Y-88145571D01*
X145195819Y-88145571D02*
X145272009Y-88107476D01*
X145272009Y-88107476D02*
X145348200Y-88031286D01*
X145348200Y-88031286D02*
X145386295Y-87917000D01*
X145386295Y-87917000D02*
X145386295Y-87726524D01*
X144662485Y-88488428D02*
X144624390Y-88526524D01*
X144624390Y-88526524D02*
X144586295Y-88602714D01*
X144586295Y-88602714D02*
X144586295Y-88793190D01*
X144586295Y-88793190D02*
X144624390Y-88869381D01*
X144624390Y-88869381D02*
X144662485Y-88907476D01*
X144662485Y-88907476D02*
X144738676Y-88945571D01*
X144738676Y-88945571D02*
X144814866Y-88945571D01*
X144814866Y-88945571D02*
X144929152Y-88907476D01*
X144929152Y-88907476D02*
X145386295Y-88450333D01*
X145386295Y-88450333D02*
X145386295Y-88945571D01*
X156333332Y-94662295D02*
X156599999Y-94281342D01*
X156790475Y-94662295D02*
X156790475Y-93862295D01*
X156790475Y-93862295D02*
X156485713Y-93862295D01*
X156485713Y-93862295D02*
X156409523Y-93900390D01*
X156409523Y-93900390D02*
X156371428Y-93938485D01*
X156371428Y-93938485D02*
X156333332Y-94014676D01*
X156333332Y-94014676D02*
X156333332Y-94128961D01*
X156333332Y-94128961D02*
X156371428Y-94205152D01*
X156371428Y-94205152D02*
X156409523Y-94243247D01*
X156409523Y-94243247D02*
X156485713Y-94281342D01*
X156485713Y-94281342D02*
X156790475Y-94281342D01*
X155876190Y-94205152D02*
X155952380Y-94167057D01*
X155952380Y-94167057D02*
X155990475Y-94128961D01*
X155990475Y-94128961D02*
X156028571Y-94052771D01*
X156028571Y-94052771D02*
X156028571Y-94014676D01*
X156028571Y-94014676D02*
X155990475Y-93938485D01*
X155990475Y-93938485D02*
X155952380Y-93900390D01*
X155952380Y-93900390D02*
X155876190Y-93862295D01*
X155876190Y-93862295D02*
X155723809Y-93862295D01*
X155723809Y-93862295D02*
X155647618Y-93900390D01*
X155647618Y-93900390D02*
X155609523Y-93938485D01*
X155609523Y-93938485D02*
X155571428Y-94014676D01*
X155571428Y-94014676D02*
X155571428Y-94052771D01*
X155571428Y-94052771D02*
X155609523Y-94128961D01*
X155609523Y-94128961D02*
X155647618Y-94167057D01*
X155647618Y-94167057D02*
X155723809Y-94205152D01*
X155723809Y-94205152D02*
X155876190Y-94205152D01*
X155876190Y-94205152D02*
X155952380Y-94243247D01*
X155952380Y-94243247D02*
X155990475Y-94281342D01*
X155990475Y-94281342D02*
X156028571Y-94357533D01*
X156028571Y-94357533D02*
X156028571Y-94509914D01*
X156028571Y-94509914D02*
X155990475Y-94586104D01*
X155990475Y-94586104D02*
X155952380Y-94624200D01*
X155952380Y-94624200D02*
X155876190Y-94662295D01*
X155876190Y-94662295D02*
X155723809Y-94662295D01*
X155723809Y-94662295D02*
X155647618Y-94624200D01*
X155647618Y-94624200D02*
X155609523Y-94586104D01*
X155609523Y-94586104D02*
X155571428Y-94509914D01*
X155571428Y-94509914D02*
X155571428Y-94357533D01*
X155571428Y-94357533D02*
X155609523Y-94281342D01*
X155609523Y-94281342D02*
X155647618Y-94243247D01*
X155647618Y-94243247D02*
X155723809Y-94205152D01*
X161962295Y-107933333D02*
X162533723Y-107933333D01*
X162533723Y-107933333D02*
X162648009Y-107895238D01*
X162648009Y-107895238D02*
X162724200Y-107819047D01*
X162724200Y-107819047D02*
X162762295Y-107704762D01*
X162762295Y-107704762D02*
X162762295Y-107628571D01*
X161962295Y-108238095D02*
X161962295Y-108733333D01*
X161962295Y-108733333D02*
X162267057Y-108466667D01*
X162267057Y-108466667D02*
X162267057Y-108580952D01*
X162267057Y-108580952D02*
X162305152Y-108657143D01*
X162305152Y-108657143D02*
X162343247Y-108695238D01*
X162343247Y-108695238D02*
X162419438Y-108733333D01*
X162419438Y-108733333D02*
X162609914Y-108733333D01*
X162609914Y-108733333D02*
X162686104Y-108695238D01*
X162686104Y-108695238D02*
X162724200Y-108657143D01*
X162724200Y-108657143D02*
X162762295Y-108580952D01*
X162762295Y-108580952D02*
X162762295Y-108352381D01*
X162762295Y-108352381D02*
X162724200Y-108276190D01*
X162724200Y-108276190D02*
X162686104Y-108238095D01*
X153933332Y-92462295D02*
X154199999Y-92081342D01*
X154390475Y-92462295D02*
X154390475Y-91662295D01*
X154390475Y-91662295D02*
X154085713Y-91662295D01*
X154085713Y-91662295D02*
X154009523Y-91700390D01*
X154009523Y-91700390D02*
X153971428Y-91738485D01*
X153971428Y-91738485D02*
X153933332Y-91814676D01*
X153933332Y-91814676D02*
X153933332Y-91928961D01*
X153933332Y-91928961D02*
X153971428Y-92005152D01*
X153971428Y-92005152D02*
X154009523Y-92043247D01*
X154009523Y-92043247D02*
X154085713Y-92081342D01*
X154085713Y-92081342D02*
X154390475Y-92081342D01*
X153247618Y-91928961D02*
X153247618Y-92462295D01*
X153438094Y-91624200D02*
X153628571Y-92195628D01*
X153628571Y-92195628D02*
X153133332Y-92195628D01*
D12*
%TO.C,D1*%
X158200000Y-98650000D02*
X163600000Y-98650000D01*
X158200000Y-101950000D02*
X158200000Y-98650000D01*
X158200000Y-101950000D02*
X163600000Y-101950000D01*
%TO.C,D3*%
X139859000Y-89802000D02*
X139859000Y-87517000D01*
X141329000Y-89802000D02*
X139859000Y-89802000D01*
X141329000Y-87517000D02*
X141329000Y-89802000D01*
%TO.C,C5*%
X155810000Y-104959420D02*
X155810000Y-105240580D01*
X154790000Y-104959420D02*
X154790000Y-105240580D01*
%TO.C,D4*%
X139865000Y-113485000D02*
X139865000Y-111200000D01*
X141335000Y-113485000D02*
X139865000Y-113485000D01*
X141335000Y-111200000D02*
X141335000Y-113485000D01*
%TO.C,R5*%
X147927500Y-92155742D02*
X147927500Y-92630258D01*
X146882500Y-92155742D02*
X146882500Y-92630258D01*
%TO.C,R6*%
X145260500Y-92156742D02*
X145260500Y-92631258D01*
X144215500Y-92156742D02*
X144215500Y-92631258D01*
%TO.C,C2*%
X150990000Y-96640580D02*
X150990000Y-96359420D01*
X152010000Y-96640580D02*
X152010000Y-96359420D01*
%TO.C,R7*%
X141777500Y-112262258D02*
X141777500Y-111787742D01*
X142822500Y-112262258D02*
X142822500Y-111787742D01*
%TO.C,FB1*%
X147076000Y-105700378D02*
X147076000Y-106499622D01*
X145956000Y-105700378D02*
X145956000Y-106499622D01*
%TO.C,J2*%
X162131000Y-86915000D02*
X160681000Y-86915000D01*
X160681000Y-86915000D02*
X160681000Y-88715000D01*
X164951000Y-88185000D02*
X164951000Y-96615000D01*
X160681000Y-88715000D02*
X159691000Y-88715000D01*
X162131000Y-97885000D02*
X160681000Y-97885000D01*
X160681000Y-97885000D02*
X160681000Y-96085000D01*
%TO.C,U2*%
X151290000Y-102810000D02*
X152015000Y-102810000D01*
X151290000Y-102085000D02*
X151290000Y-102810000D01*
X155510000Y-102085000D02*
X155510000Y-102810000D01*
X151290000Y-99315000D02*
X151290000Y-98590000D01*
X155510000Y-99315000D02*
X155510000Y-98590000D01*
X151290000Y-98590000D02*
X152015000Y-98590000D01*
X155510000Y-98590000D02*
X154785000Y-98590000D01*
%TO.C,R9*%
X154222500Y-105962742D02*
X154222500Y-106437258D01*
X153177500Y-105962742D02*
X153177500Y-106437258D01*
%TO.C,R2*%
X141421500Y-92630258D02*
X141421500Y-92155742D01*
X142466500Y-92630258D02*
X142466500Y-92155742D01*
%TO.C,C1*%
X147690000Y-105165580D02*
X147690000Y-104884420D01*
X148710000Y-105165580D02*
X148710000Y-104884420D01*
%TO.C,C3*%
X144290000Y-107215580D02*
X144290000Y-106934420D01*
X145310000Y-107215580D02*
X145310000Y-106934420D01*
D11*
%TO.C,J1*%
X135991200Y-105107000D02*
X135991200Y-95527000D01*
X137271200Y-105107000D02*
X135991200Y-105107000D01*
X141241200Y-105107000D02*
X139991200Y-105107000D01*
X135991200Y-95527000D02*
X137271200Y-95527000D01*
X141241200Y-95527000D02*
X139991200Y-95527000D01*
D12*
%TO.C,U1*%
X148037500Y-101877000D02*
X148837500Y-101877000D01*
X148037500Y-101877000D02*
X147237500Y-101877000D01*
X148037500Y-98757000D02*
X149837500Y-98757000D01*
X148037500Y-98757000D02*
X147237500Y-98757000D01*
%TO.C,F1*%
X155103922Y-88790000D02*
X155621078Y-88790000D01*
X155103922Y-90210000D02*
X155621078Y-90210000D01*
%TO.C,R10*%
X157322500Y-101887742D02*
X157322500Y-102362258D01*
X156277500Y-101887742D02*
X156277500Y-102362258D01*
%TO.C,R1*%
X139262500Y-92630258D02*
X139262500Y-92155742D01*
X140307500Y-92630258D02*
X140307500Y-92155742D01*
%TO.C,R11*%
X150622500Y-104887742D02*
X150622500Y-105362258D01*
X149577500Y-104887742D02*
X149577500Y-105362258D01*
%TO.C,C4*%
X152890000Y-96065580D02*
X152890000Y-95784420D01*
X153910000Y-96065580D02*
X153910000Y-95784420D01*
%TO.C,R3*%
X151358742Y-93277500D02*
X151833258Y-93277500D01*
X151358742Y-94322500D02*
X151833258Y-94322500D01*
%TO.C,D2*%
X142859000Y-89802000D02*
X142859000Y-87517000D01*
X144329000Y-89802000D02*
X142859000Y-89802000D01*
X144329000Y-87517000D02*
X144329000Y-89802000D01*
%TO.C,R8*%
X155777500Y-96712258D02*
X155777500Y-96237742D01*
X156822500Y-96712258D02*
X156822500Y-96237742D01*
%TO.C,J3*%
X162131000Y-102715000D02*
X160681000Y-102715000D01*
X160681000Y-102715000D02*
X160681000Y-104515000D01*
X164951000Y-103985000D02*
X164951000Y-112415000D01*
X160681000Y-104515000D02*
X159691000Y-104515000D01*
X162131000Y-113685000D02*
X160681000Y-113685000D01*
X160681000Y-113685000D02*
X160681000Y-111885000D01*
%TO.C,R4*%
X151833258Y-92725500D02*
X151358742Y-92725500D01*
X151833258Y-91680500D02*
X151358742Y-91680500D01*
%TD*%
M02*
