M48
; DRILL file {KiCad 7.0.7-7.0.7~ubuntu23.04.1} date Sun Sep 24 12:11:46 2023
; FORMAT={3:3/ absolute / metric / suppress leading zeros}
; #@! TF.CreationDate,2023-09-24T12:11:46+00:00
; #@! TF.GenerationSoftware,Kicad,Pcbnew,7.0.7-7.0.7~ubuntu23.04.1
; #@! TF.FileFunction,Plated,1,2,PTH
FMAT,2
METRIC,TZ
; #@! TA.AperFunction,Plated,PTH,ViaDrill
T1C0.400
; #@! TA.AperFunction,Plated,PTH,ComponentDrill
T2C0.600
%
G90
G05
T1
X137626Y-89663
X137626Y-91314
X137626Y-92838
X137753Y-107697
X137753Y-109475
X137753Y-112015
X139600Y-87700
X140300Y-105900
X143300Y-92400
X144600Y-95800
X144974Y-100817
X144991Y-99311
X144992Y-110110
X145119Y-104141
X145246Y-96775
X145700Y-114100
X146200Y-90400
X146250Y-96150
X146360Y-100300
X146500Y-97917
X146516Y-102900
X147400Y-95700
X148040Y-102871
X148200Y-93218
X148442Y-97260
X150400Y-102000
X151047Y-86800
X151201Y-105400
X151400Y-99200
X151900Y-106600
X152698Y-86800
X153651Y-104300
X154349Y-86800
X154900Y-96600
X155000Y-97700
X155100Y-110947
X155150Y-102800
X155200Y-98800
X155200Y-107100
X155400Y-108200
X156000Y-86800
X156300Y-95200
X156800Y-100300
X157900Y-98300
X159200Y-103600
X159400Y-106500
X160500Y-112400
X160994Y-114301
X161248Y-86361
X162100Y-93000
X162137Y-114301
X162255Y-89400
X162391Y-86361
X162500Y-110100
X163153Y-114301
X163534Y-86361
X163700Y-99400
X164296Y-114301
X164550Y-86361
T2
G00X138191Y-95997
M15
G01X138991Y-95997
M16
G05
G00X138191Y-104637
M15
G01X138991Y-104637
M16
G05
G00X142221Y-95997
M15
G01X143321Y-95997
M16
G05
G00X142221Y-104637
M15
G01X143321Y-104637
M16
G05
T0
M30
