%TF.GenerationSoftware,KiCad,Pcbnew,9.0.7+1*%
%TF.CreationDate,2026-06-08T00:13:59+00:00*%
%TF.ProjectId,TFUSBSERIAL01,54465553-4253-4455-9249-414c30312e6b,REV*%
%TF.SameCoordinates,Original*%
%TF.FileFunction,Copper,L2,Bot*%
%TF.FilePolarity,Positive*%
%FSLAX46Y46*%
G04 Gerber Fmt 4.6, Leading zero omitted, Abs format (unit mm)*
G04 Created by KiCad (PCBNEW 9.0.7+1) date 2026-06-08 00:13:59*
%MOMM*%
%LPD*%
G01*
G04 APERTURE LIST*
G04 Aperture macros list*
%AMRoundRect*
0 Rectangle with rounded corners*
0 $1 Rounding radius*
0 $2 $3 $4 $5 $6 $7 $8 $9 X,Y pos of 4 corners*
0 Add a 4 corners polygon primitive as box body*
4,1,4,$2,$3,$4,$5,$6,$7,$8,$9,$2,$3,0*
0 Add four circle primitives for the rounded corners*
1,1,$1+$1,$2,$3*
1,1,$1+$1,$4,$5*
1,1,$1+$1,$6,$7*
1,1,$1+$1,$8,$9*
0 Add four rect primitives between the rounded corners*
20,1,$1+$1,$2,$3,$4,$5,0*
20,1,$1+$1,$4,$5,$6,$7,0*
20,1,$1+$1,$6,$7,$8,$9,0*
20,1,$1+$1,$8,$9,$2,$3,0*%
G04 Aperture macros list end*
%ADD10C,0.200000*%
%TA.AperFunction,NonConductor*%
%ADD11C,0.200000*%
%TD*%
%TA.AperFunction,SMDPad,CuDef*%
%ADD12RoundRect,0.250000X-0.250000X-0.250000X0.250000X-0.250000X0.250000X0.250000X-0.250000X0.250000X0*%
%TD*%
%TA.AperFunction,SMDPad,CuDef*%
%ADD13RoundRect,0.218750X0.256250X-0.218750X0.256250X0.218750X-0.256250X0.218750X-0.256250X-0.218750X0*%
%TD*%
%TA.AperFunction,SMDPad,CuDef*%
%ADD14RoundRect,0.225000X-0.250000X0.225000X-0.250000X-0.225000X0.250000X-0.225000X0.250000X0.225000X0*%
%TD*%
%TA.AperFunction,SMDPad,CuDef*%
%ADD15RoundRect,0.200000X-0.275000X0.200000X-0.275000X-0.200000X0.275000X-0.200000X0.275000X0.200000X0*%
%TD*%
%TA.AperFunction,SMDPad,CuDef*%
%ADD16RoundRect,0.225000X0.250000X-0.225000X0.250000X0.225000X-0.250000X0.225000X-0.250000X-0.225000X0*%
%TD*%
%TA.AperFunction,SMDPad,CuDef*%
%ADD17RoundRect,0.200000X0.275000X-0.200000X0.275000X0.200000X-0.275000X0.200000X-0.275000X-0.200000X0*%
%TD*%
%TA.AperFunction,SMDPad,CuDef*%
%ADD18RoundRect,0.218750X-0.381250X0.218750X-0.381250X-0.218750X0.381250X-0.218750X0.381250X0.218750X0*%
%TD*%
%TA.AperFunction,SMDPad,CuDef*%
%ADD19RoundRect,0.150000X-0.700000X0.150000X-0.700000X-0.150000X0.700000X-0.150000X0.700000X0.150000X0*%
%TD*%
%TA.AperFunction,SMDPad,CuDef*%
%ADD20RoundRect,0.250000X-1.100000X0.250000X-1.100000X-0.250000X1.100000X-0.250000X1.100000X0.250000X0*%
%TD*%
%TA.AperFunction,SMDPad,CuDef*%
%ADD21RoundRect,0.062500X0.062500X-0.350000X0.062500X0.350000X-0.062500X0.350000X-0.062500X-0.350000X0*%
%TD*%
%TA.AperFunction,SMDPad,CuDef*%
%ADD22RoundRect,0.062500X0.350000X-0.062500X0.350000X0.062500X-0.350000X0.062500X-0.350000X-0.062500X0*%
%TD*%
%TA.AperFunction,SMDPad,CuDef*%
%ADD23R,2.500000X2.500000*%
%TD*%
%TA.AperFunction,SMDPad,CuDef*%
%ADD24R,1.150000X0.600000*%
%TD*%
%TA.AperFunction,SMDPad,CuDef*%
%ADD25R,1.150000X0.300000*%
%TD*%
%TA.AperFunction,ComponentPad*%
%ADD26O,2.000000X1.000000*%
%TD*%
%TA.AperFunction,ComponentPad*%
%ADD27O,2.100000X1.050000*%
%TD*%
%TA.AperFunction,SMDPad,CuDef*%
%ADD28RoundRect,0.150000X0.512500X0.150000X-0.512500X0.150000X-0.512500X-0.150000X0.512500X-0.150000X0*%
%TD*%
%TA.AperFunction,SMDPad,CuDef*%
%ADD29RoundRect,0.243750X-0.243750X-0.456250X0.243750X-0.456250X0.243750X0.456250X-0.243750X0.456250X0*%
%TD*%
%TA.AperFunction,SMDPad,CuDef*%
%ADD30RoundRect,0.200000X-0.200000X-0.275000X0.200000X-0.275000X0.200000X0.275000X-0.200000X0.275000X0*%
%TD*%
%TA.AperFunction,SMDPad,CuDef*%
%ADD31C,0.500000*%
%TD*%
%TA.AperFunction,SMDPad,CuDef*%
%ADD32RoundRect,0.200000X0.200000X0.275000X-0.200000X0.275000X-0.200000X-0.275000X0.200000X-0.275000X0*%
%TD*%
%TA.AperFunction,ViaPad*%
%ADD33C,0.800000*%
%TD*%
%TA.AperFunction,Conductor*%
%ADD34C,0.200000*%
%TD*%
%TA.AperFunction,Conductor*%
%ADD35C,0.400000*%
%TD*%
%TA.AperFunction,Conductor*%
%ADD36C,0.500000*%
%TD*%
%TA.AperFunction,Conductor*%
%ADD37C,0.300000*%
%TD*%
%TA.AperFunction,Conductor*%
%ADD38C,0.250000*%
%TD*%
G04 APERTURE END LIST*
D10*
D11*
X157295237Y-112167219D02*
X156723809Y-112167219D01*
X157009523Y-113167219D02*
X157009523Y-112167219D01*
X156057142Y-112643409D02*
X156390475Y-112643409D01*
X156390475Y-113167219D02*
X156390475Y-112167219D01*
X156390475Y-112167219D02*
X155914285Y-112167219D01*
X155533332Y-112167219D02*
X155533332Y-112976742D01*
X155533332Y-112976742D02*
X155485713Y-113071980D01*
X155485713Y-113071980D02*
X155438094Y-113119600D01*
X155438094Y-113119600D02*
X155342856Y-113167219D01*
X155342856Y-113167219D02*
X155152380Y-113167219D01*
X155152380Y-113167219D02*
X155057142Y-113119600D01*
X155057142Y-113119600D02*
X155009523Y-113071980D01*
X155009523Y-113071980D02*
X154961904Y-112976742D01*
X154961904Y-112976742D02*
X154961904Y-112167219D01*
X154533332Y-113119600D02*
X154390475Y-113167219D01*
X154390475Y-113167219D02*
X154152380Y-113167219D01*
X154152380Y-113167219D02*
X154057142Y-113119600D01*
X154057142Y-113119600D02*
X154009523Y-113071980D01*
X154009523Y-113071980D02*
X153961904Y-112976742D01*
X153961904Y-112976742D02*
X153961904Y-112881504D01*
X153961904Y-112881504D02*
X154009523Y-112786266D01*
X154009523Y-112786266D02*
X154057142Y-112738647D01*
X154057142Y-112738647D02*
X154152380Y-112691028D01*
X154152380Y-112691028D02*
X154342856Y-112643409D01*
X154342856Y-112643409D02*
X154438094Y-112595790D01*
X154438094Y-112595790D02*
X154485713Y-112548171D01*
X154485713Y-112548171D02*
X154533332Y-112452933D01*
X154533332Y-112452933D02*
X154533332Y-112357695D01*
X154533332Y-112357695D02*
X154485713Y-112262457D01*
X154485713Y-112262457D02*
X154438094Y-112214838D01*
X154438094Y-112214838D02*
X154342856Y-112167219D01*
X154342856Y-112167219D02*
X154104761Y-112167219D01*
X154104761Y-112167219D02*
X153961904Y-112214838D01*
X153199999Y-112643409D02*
X153057142Y-112691028D01*
X153057142Y-112691028D02*
X153009523Y-112738647D01*
X153009523Y-112738647D02*
X152961904Y-112833885D01*
X152961904Y-112833885D02*
X152961904Y-112976742D01*
X152961904Y-112976742D02*
X153009523Y-113071980D01*
X153009523Y-113071980D02*
X153057142Y-113119600D01*
X153057142Y-113119600D02*
X153152380Y-113167219D01*
X153152380Y-113167219D02*
X153533332Y-113167219D01*
X153533332Y-113167219D02*
X153533332Y-112167219D01*
X153533332Y-112167219D02*
X153199999Y-112167219D01*
X153199999Y-112167219D02*
X153104761Y-112214838D01*
X153104761Y-112214838D02*
X153057142Y-112262457D01*
X153057142Y-112262457D02*
X153009523Y-112357695D01*
X153009523Y-112357695D02*
X153009523Y-112452933D01*
X153009523Y-112452933D02*
X153057142Y-112548171D01*
X153057142Y-112548171D02*
X153104761Y-112595790D01*
X153104761Y-112595790D02*
X153199999Y-112643409D01*
X153199999Y-112643409D02*
X153533332Y-112643409D01*
X152580951Y-113119600D02*
X152438094Y-113167219D01*
X152438094Y-113167219D02*
X152199999Y-113167219D01*
X152199999Y-113167219D02*
X152104761Y-113119600D01*
X152104761Y-113119600D02*
X152057142Y-113071980D01*
X152057142Y-113071980D02*
X152009523Y-112976742D01*
X152009523Y-112976742D02*
X152009523Y-112881504D01*
X152009523Y-112881504D02*
X152057142Y-112786266D01*
X152057142Y-112786266D02*
X152104761Y-112738647D01*
X152104761Y-112738647D02*
X152199999Y-112691028D01*
X152199999Y-112691028D02*
X152390475Y-112643409D01*
X152390475Y-112643409D02*
X152485713Y-112595790D01*
X152485713Y-112595790D02*
X152533332Y-112548171D01*
X152533332Y-112548171D02*
X152580951Y-112452933D01*
X152580951Y-112452933D02*
X152580951Y-112357695D01*
X152580951Y-112357695D02*
X152533332Y-112262457D01*
X152533332Y-112262457D02*
X152485713Y-112214838D01*
X152485713Y-112214838D02*
X152390475Y-112167219D01*
X152390475Y-112167219D02*
X152152380Y-112167219D01*
X152152380Y-112167219D02*
X152009523Y-112214838D01*
X151580951Y-112643409D02*
X151247618Y-112643409D01*
X151104761Y-113167219D02*
X151580951Y-113167219D01*
X151580951Y-113167219D02*
X151580951Y-112167219D01*
X151580951Y-112167219D02*
X151104761Y-112167219D01*
X150104761Y-113167219D02*
X150438094Y-112691028D01*
X150676189Y-113167219D02*
X150676189Y-112167219D01*
X150676189Y-112167219D02*
X150295237Y-112167219D01*
X150295237Y-112167219D02*
X150199999Y-112214838D01*
X150199999Y-112214838D02*
X150152380Y-112262457D01*
X150152380Y-112262457D02*
X150104761Y-112357695D01*
X150104761Y-112357695D02*
X150104761Y-112500552D01*
X150104761Y-112500552D02*
X150152380Y-112595790D01*
X150152380Y-112595790D02*
X150199999Y-112643409D01*
X150199999Y-112643409D02*
X150295237Y-112691028D01*
X150295237Y-112691028D02*
X150676189Y-112691028D01*
X149676189Y-113167219D02*
X149676189Y-112167219D01*
X149247618Y-112881504D02*
X148771428Y-112881504D01*
X149342856Y-113167219D02*
X149009523Y-112167219D01*
X149009523Y-112167219D02*
X148676190Y-113167219D01*
X147866666Y-113167219D02*
X148342856Y-113167219D01*
X148342856Y-113167219D02*
X148342856Y-112167219D01*
X147342856Y-112167219D02*
X147247618Y-112167219D01*
X147247618Y-112167219D02*
X147152380Y-112214838D01*
X147152380Y-112214838D02*
X147104761Y-112262457D01*
X147104761Y-112262457D02*
X147057142Y-112357695D01*
X147057142Y-112357695D02*
X147009523Y-112548171D01*
X147009523Y-112548171D02*
X147009523Y-112786266D01*
X147009523Y-112786266D02*
X147057142Y-112976742D01*
X147057142Y-112976742D02*
X147104761Y-113071980D01*
X147104761Y-113071980D02*
X147152380Y-113119600D01*
X147152380Y-113119600D02*
X147247618Y-113167219D01*
X147247618Y-113167219D02*
X147342856Y-113167219D01*
X147342856Y-113167219D02*
X147438094Y-113119600D01*
X147438094Y-113119600D02*
X147485713Y-113071980D01*
X147485713Y-113071980D02*
X147533332Y-112976742D01*
X147533332Y-112976742D02*
X147580951Y-112786266D01*
X147580951Y-112786266D02*
X147580951Y-112548171D01*
X147580951Y-112548171D02*
X147533332Y-112357695D01*
X147533332Y-112357695D02*
X147485713Y-112262457D01*
X147485713Y-112262457D02*
X147438094Y-112214838D01*
X147438094Y-112214838D02*
X147342856Y-112167219D01*
X146057142Y-113167219D02*
X146628570Y-113167219D01*
X146342856Y-113167219D02*
X146342856Y-112167219D01*
X146342856Y-112167219D02*
X146438094Y-112310076D01*
X146438094Y-112310076D02*
X146533332Y-112405314D01*
X146533332Y-112405314D02*
X146628570Y-112452933D01*
X145676189Y-112881504D02*
X145199999Y-112881504D01*
X145771427Y-113167219D02*
X145438094Y-112167219D01*
X145438094Y-112167219D02*
X145104761Y-113167219D01*
D12*
%TO.P,D1,1,K*%
%TO.N,Net-(D1-K)*%
X160350000Y-100300000D03*
%TO.P,D1,2,A*%
%TO.N,Net-(D1-A)*%
X162850000Y-100300000D03*
%TD*%
D13*
%TO.P,D3,1,K*%
%TO.N,Net-(D3-K)*%
X140594000Y-89104500D03*
%TO.P,D3,2,A*%
%TO.N,+5V*%
X140594000Y-87529500D03*
%TD*%
D14*
%TO.P,C5,1*%
%TO.N,Net-(U2-3V3OUT)*%
X155300000Y-104325000D03*
%TO.P,C5,2*%
%TO.N,GND*%
X155300000Y-105875000D03*
%TD*%
D13*
%TO.P,D4,1,K*%
%TO.N,Net-(D4-K)*%
X140600000Y-112787500D03*
%TO.P,D4,2,A*%
%TO.N,+5V*%
X140600000Y-111212500D03*
%TD*%
D15*
%TO.P,R5,1*%
%TO.N,Net-(D2-K)*%
X147405000Y-91568000D03*
%TO.P,R5,2*%
%TO.N,/RXLED{slash}CBUS1*%
X147405000Y-93218000D03*
%TD*%
%TO.P,R6,1*%
%TO.N,Net-(D3-K)*%
X144738000Y-91569000D03*
%TO.P,R6,2*%
%TO.N,/TXLED{slash}CBUS2*%
X144738000Y-93219000D03*
%TD*%
D16*
%TO.P,C2,1*%
%TO.N,Net-(U2-3V3OUT)*%
X151500000Y-97100000D03*
%TO.P,C2,2*%
%TO.N,GND*%
X151500000Y-95550000D03*
%TD*%
D17*
%TO.P,R7,1*%
%TO.N,Net-(D4-K)*%
X142300000Y-112850000D03*
%TO.P,R7,2*%
%TO.N,GND*%
X142300000Y-111200000D03*
%TD*%
D18*
%TO.P,FB1,1*%
%TO.N,/VBUS*%
X146516000Y-105037500D03*
%TO.P,FB1,2*%
%TO.N,+5V*%
X146516000Y-107162500D03*
%TD*%
D19*
%TO.P,J2,1*%
%TO.N,Net-(D1-A)*%
X160541000Y-89275000D03*
%TO.P,J2,2*%
%TO.N,/TXD*%
X160541000Y-90525000D03*
%TO.P,J2,3*%
%TO.N,/RXD*%
X160541000Y-91775000D03*
%TO.P,J2,4*%
%TO.N,/#CTS*%
X160541000Y-93025000D03*
%TO.P,J2,5*%
%TO.N,/#RTS*%
X160541000Y-94275000D03*
%TO.P,J2,6*%
%TO.N,GND*%
X160541000Y-95525000D03*
D20*
%TO.P,J2,MP*%
X163741000Y-87425000D03*
X163741000Y-97375000D03*
%TD*%
D21*
%TO.P,U2,1,RXD*%
%TO.N,Net-(U2-RXD)*%
X154400000Y-102637500D03*
%TO.P,U2,2,~{RI}*%
%TO.N,Net-(U2-~{RI})*%
X153900000Y-102637500D03*
%TO.P,U2,3,GND*%
%TO.N,GND*%
X153400000Y-102637500D03*
%TO.P,U2,4,~{DSR}*%
%TO.N,Net-(U2-~{DSR})*%
X152900000Y-102637500D03*
%TO.P,U2,5,~{DCD}*%
%TO.N,Net-(U2-~{DCD})*%
X152400000Y-102637500D03*
D22*
%TO.P,U2,6,~{CTS}*%
%TO.N,Net-(U2-~{CTS})*%
X151462500Y-101700000D03*
%TO.P,U2,7,CBUS2*%
%TO.N,/TXLED{slash}CBUS2*%
X151462500Y-101200000D03*
%TO.P,U2,8,USBDP*%
%TO.N,/DP*%
X151462500Y-100700000D03*
%TO.P,U2,9,USBDM*%
%TO.N,/DM*%
X151462500Y-100200000D03*
%TO.P,U2,10,3V3OUT*%
%TO.N,Net-(U2-3V3OUT)*%
X151462500Y-99700000D03*
D21*
%TO.P,U2,11,~{RESET}*%
%TO.N,Net-(U2-~{RESET})*%
X152400000Y-98762500D03*
%TO.P,U2,12,VCC*%
%TO.N,+5V*%
X152900000Y-98762500D03*
%TO.P,U2,13,GND*%
%TO.N,GND*%
X153400000Y-98762500D03*
%TO.P,U2,14,CBUS1*%
%TO.N,/RXLED{slash}CBUS1*%
X153900000Y-98762500D03*
%TO.P,U2,15,CBUS0*%
%TO.N,unconnected-(U2-CBUS0-Pad15)*%
X154400000Y-98762500D03*
D22*
%TO.P,U2,16,CBUS3*%
%TO.N,unconnected-(U2-CBUS3-Pad16)*%
X155337500Y-99700000D03*
%TO.P,U2,17,TXD*%
%TO.N,Net-(U2-TXD)*%
X155337500Y-100200000D03*
%TO.P,U2,18,~{DTR}*%
%TO.N,Net-(U2-~{DTR})*%
X155337500Y-100700000D03*
%TO.P,U2,19,~{RTS}*%
%TO.N,Net-(U2-~{RTS})*%
X155337500Y-101200000D03*
%TO.P,U2,20,VCCIO*%
%TO.N,Net-(U2-3V3OUT)*%
X155337500Y-101700000D03*
D23*
%TO.P,U2,21,GND*%
%TO.N,GND*%
X153400000Y-100700000D03*
%TD*%
D15*
%TO.P,R9,1*%
%TO.N,Net-(U2-RXD)*%
X153700000Y-105375000D03*
%TO.P,R9,2*%
%TO.N,/RXD*%
X153700000Y-107025000D03*
%TD*%
D17*
%TO.P,R2,1*%
%TO.N,Net-(J1-CC2)*%
X141944000Y-93218000D03*
%TO.P,R2,2*%
%TO.N,GND*%
X141944000Y-91568000D03*
%TD*%
D16*
%TO.P,C1,1*%
%TO.N,/VBUS*%
X148200000Y-106675000D03*
%TO.P,C1,2*%
%TO.N,GND*%
X148200000Y-105125000D03*
%TD*%
%TO.P,C3,1*%
%TO.N,+5V*%
X144800000Y-107850000D03*
%TO.P,C3,2*%
%TO.N,GND*%
X144800000Y-106300000D03*
%TD*%
D24*
%TO.P,J1,A1/B12,GND*%
%TO.N,GND*%
X143346200Y-103517000D03*
%TO.P,J1,A4/B9,VBUS*%
%TO.N,/VBUS*%
X143346200Y-102717000D03*
D25*
%TO.P,J1,A5,CC1*%
%TO.N,Net-(J1-CC1)*%
X143346200Y-101567000D03*
%TO.P,J1,A6,D+*%
%TO.N,/D+*%
X143346200Y-100567000D03*
%TO.P,J1,A7,D-*%
%TO.N,/D-*%
X143346200Y-100067000D03*
%TO.P,J1,A8,SBU1*%
%TO.N,unconnected-(J1-SBU1-PadA8)*%
X143346200Y-99067000D03*
D24*
%TO.P,J1,B1/A12,GND*%
%TO.N,GND*%
X143346200Y-97117000D03*
%TO.P,J1,B4/A9,VBUS*%
%TO.N,/VBUS*%
X143346200Y-97917000D03*
D25*
%TO.P,J1,B5,CC2*%
%TO.N,Net-(J1-CC2)*%
X143346200Y-98567000D03*
%TO.P,J1,B6,D+*%
%TO.N,/D+*%
X143346200Y-99567000D03*
%TO.P,J1,B7,D-*%
%TO.N,/D-*%
X143346200Y-101067000D03*
%TO.P,J1,B8,SBU2*%
%TO.N,unconnected-(J1-SBU2-PadB8)*%
X143346200Y-102067000D03*
D26*
%TO.P,J1,G1,SHIELD*%
%TO.N,GND*%
X138591200Y-104637000D03*
%TO.P,J1,G2,SHIELD*%
X138591200Y-95997000D03*
D27*
%TO.P,J1,G3,SHIELD*%
X142771200Y-104637000D03*
%TO.P,J1,G4,SHIELD*%
X142771200Y-95997000D03*
%TD*%
D28*
%TO.P,U1,1,I/O1*%
%TO.N,/DM*%
X149175000Y-99367000D03*
%TO.P,U1,2,GND*%
%TO.N,GND*%
X149175000Y-100317000D03*
%TO.P,U1,3,I/O2*%
%TO.N,/DP*%
X149175000Y-101267000D03*
%TO.P,U1,4,I/O2*%
%TO.N,/D+*%
X146900000Y-101267000D03*
%TO.P,U1,5,VBUS*%
%TO.N,/VBUS*%
X146900000Y-100317000D03*
%TO.P,U1,6,I/O1*%
%TO.N,/D-*%
X146900000Y-99367000D03*
%TD*%
D29*
%TO.P,F1,1*%
%TO.N,+5V*%
X154425000Y-89500000D03*
%TO.P,F1,2*%
%TO.N,Net-(D1-A)*%
X156300000Y-89500000D03*
%TD*%
D15*
%TO.P,R10,1*%
%TO.N,Net-(U2-~{RTS})*%
X156800000Y-101300000D03*
%TO.P,R10,2*%
%TO.N,/#RTS*%
X156800000Y-102950000D03*
%TD*%
D17*
%TO.P,R1,1*%
%TO.N,Net-(J1-CC1)*%
X139785000Y-93218000D03*
%TO.P,R1,2*%
%TO.N,GND*%
X139785000Y-91568000D03*
%TD*%
D15*
%TO.P,R11,1*%
%TO.N,Net-(U2-~{CTS})*%
X149700000Y-105075000D03*
%TO.P,R11,2*%
%TO.N,/#CTS*%
X149700000Y-106725000D03*
%TD*%
D16*
%TO.P,C4,1*%
%TO.N,+5V*%
X153300000Y-97100000D03*
%TO.P,C4,2*%
%TO.N,GND*%
X153300000Y-95550000D03*
%TD*%
D30*
%TO.P,R3,1*%
%TO.N,/VBUS*%
X150771000Y-93800000D03*
%TO.P,R3,2*%
%TO.N,Net-(U2-~{RESET})*%
X152421000Y-93800000D03*
%TD*%
D13*
%TO.P,D2,1,K*%
%TO.N,Net-(D2-K)*%
X143594000Y-89104500D03*
%TO.P,D2,2,A*%
%TO.N,+5V*%
X143594000Y-87529500D03*
%TD*%
D17*
%TO.P,R8,1*%
%TO.N,Net-(U2-TXD)*%
X156300000Y-97300000D03*
%TO.P,R8,2*%
%TO.N,/TXD*%
X156300000Y-95650000D03*
%TD*%
D19*
%TO.P,J3,1*%
%TO.N,Net-(D1-K)*%
X160541000Y-105075000D03*
%TO.P,J3,2*%
%TO.N,/RXD*%
X160541000Y-106325000D03*
%TO.P,J3,3*%
%TO.N,/TXD*%
X160541000Y-107575000D03*
%TO.P,J3,4*%
%TO.N,/#RTS*%
X160541000Y-108825000D03*
%TO.P,J3,5*%
%TO.N,/#CTS*%
X160541000Y-110075000D03*
%TO.P,J3,6*%
%TO.N,GND*%
X160541000Y-111325000D03*
D20*
%TO.P,J3,MP*%
X163741000Y-103225000D03*
X163741000Y-113175000D03*
%TD*%
D31*
%TO.P,FID1,*%
%TO.N,*%
X149400000Y-108600000D03*
%TD*%
D32*
%TO.P,R4,1*%
%TO.N,Net-(U2-~{RESET})*%
X152421000Y-92203000D03*
%TO.P,R4,2*%
%TO.N,GND*%
X150771000Y-92203000D03*
%TD*%
D31*
%TO.P,FID2,*%
%TO.N,*%
X156100000Y-91600000D03*
%TD*%
D33*
%TO.N,GND*%
X148040000Y-102871000D03*
X151047000Y-86800000D03*
X162391000Y-86361000D03*
X137626000Y-89663000D03*
X160500000Y-112400000D03*
X144600000Y-95800000D03*
X154349000Y-86800000D03*
X163153000Y-114301000D03*
X163534000Y-86361000D03*
X155400000Y-108200000D03*
X137753000Y-112015000D03*
X164550000Y-86361000D03*
X137753000Y-107697000D03*
X145246000Y-96775000D03*
X137626000Y-92838000D03*
X148441809Y-97259855D03*
X156000000Y-86800000D03*
X155100000Y-110947200D03*
X145119000Y-104141000D03*
X146200000Y-90400000D03*
X154900000Y-96600000D03*
X160994000Y-114301000D03*
X144992000Y-110110000D03*
X152698000Y-86800000D03*
X137753000Y-109475000D03*
X155200000Y-98800000D03*
X145700000Y-114100000D03*
X137626000Y-91314000D03*
X162137000Y-114301000D03*
X161248000Y-86361000D03*
X164296000Y-114301000D03*
X143300000Y-92400000D03*
X147400000Y-95700000D03*
%TO.N,Net-(U2-3V3OUT)*%
X151400000Y-99200000D03*
X155149500Y-102800000D03*
%TO.N,Net-(D1-A)*%
X162255000Y-89400000D03*
X163700000Y-99400000D03*
%TO.N,/VBUS*%
X146516000Y-102900000D03*
X146359940Y-100300014D03*
X146500000Y-97917000D03*
%TO.N,/D+*%
X144991190Y-99310863D03*
X144974000Y-100816500D03*
%TO.N,/TXD*%
X156300000Y-95200000D03*
X159200000Y-103600000D03*
%TO.N,/RXD*%
X159400000Y-106500000D03*
X155200000Y-107100000D03*
X157900000Y-98300000D03*
%TO.N,/#CTS*%
X162500000Y-110100000D03*
X162100000Y-93000000D03*
%TO.N,/RXLED{slash}CBUS1*%
X148200000Y-93218000D03*
X155000000Y-97700000D03*
%TO.N,/TXLED{slash}CBUS2*%
X150400000Y-102000000D03*
X146250000Y-96150000D03*
%TO.N,+5V*%
X140300000Y-105900000D03*
X139600000Y-87700000D03*
%TO.N,Net-(U2-~{RI})*%
X153650500Y-104300000D03*
%TO.N,Net-(U2-~{DSR})*%
X151900000Y-106600000D03*
%TO.N,Net-(U2-~{DCD})*%
X151200510Y-105400000D03*
%TO.N,Net-(U2-~{DTR})*%
X156800000Y-100300000D03*
%TD*%
D34*
%TO.N,GND*%
X152960500Y-101317000D02*
X152960500Y-101389500D01*
D35*
%TO.N,Net-(D1-K)*%
X160600000Y-104858000D02*
X160600000Y-100550000D01*
D36*
X160600000Y-105016000D02*
X160541000Y-105075000D01*
D35*
X160600000Y-100550000D02*
X160350000Y-100300000D01*
D37*
%TO.N,Net-(U2-3V3OUT)*%
X151600000Y-99621000D02*
X151600000Y-97200000D01*
X155100000Y-101800000D02*
X155100000Y-103987500D01*
X151400000Y-99200000D02*
X151342000Y-99142000D01*
D36*
%TO.N,Net-(D1-A)*%
X162850000Y-100250000D02*
X163700000Y-99400000D01*
D37*
X162255000Y-89400000D02*
X156400000Y-89400000D01*
D36*
X162850000Y-100300000D02*
X162850000Y-100250000D01*
D37*
X156400000Y-89400000D02*
X156300000Y-89500000D01*
D35*
%TO.N,/VBUS*%
X146333000Y-102717000D02*
X143346200Y-102717000D01*
X146654000Y-97917000D02*
X150771000Y-93800000D01*
X146516000Y-102900000D02*
X146333000Y-102717000D01*
X146500000Y-97917000D02*
X143346200Y-97917000D01*
D37*
X147875000Y-106675000D02*
X148200000Y-106675000D01*
X146516000Y-105316000D02*
X147875000Y-106675000D01*
X146516000Y-105037500D02*
X146516000Y-105316000D01*
D35*
X146516000Y-104903000D02*
X146516000Y-102900000D01*
X146500000Y-97917000D02*
X146654000Y-97917000D01*
D37*
%TO.N,Net-(D2-K)*%
X146032500Y-91568000D02*
X147405000Y-91568000D01*
X143594000Y-89129500D02*
X146032500Y-91568000D01*
%TO.N,/D+*%
X143346200Y-100567000D02*
X145010000Y-100567000D01*
X144735053Y-99567000D02*
X143346200Y-99567000D01*
X145968911Y-100968911D02*
X146067007Y-101067018D01*
X144974000Y-100816500D02*
X144974000Y-100603000D01*
X144974000Y-100603000D02*
X145010000Y-100567000D01*
X146900000Y-101267000D02*
X146549771Y-101267000D01*
X144991190Y-99310863D02*
X144735053Y-99567000D01*
X145968911Y-100968911D02*
X145960909Y-100960909D01*
X145010000Y-100567000D02*
G75*
G02*
X145960918Y-100960900I-100J-1345000D01*
G01*
X146549771Y-101267000D02*
G75*
G02*
X146067021Y-101067004I29J682700D01*
G01*
%TO.N,/D-*%
X142700000Y-101067000D02*
X143346200Y-101067000D01*
X146698000Y-99367000D02*
X146591952Y-99367000D01*
X143346200Y-100067000D02*
X142700000Y-100067000D01*
X144901917Y-100067000D02*
X143346200Y-100067000D01*
X147041000Y-99508000D02*
X146900000Y-99367000D01*
X142700000Y-101067000D02*
G75*
G02*
X142200000Y-100567000I0J500000D01*
G01*
X142200000Y-100567000D02*
G75*
G02*
X142700000Y-100067000I500000J0D01*
G01*
X146591952Y-99367000D02*
G75*
G03*
X145979203Y-99620839I48J-866600D01*
G01*
X144901917Y-100067000D02*
G75*
G03*
X145979180Y-99620816I-17J1523600D01*
G01*
%TO.N,Net-(D3-K)*%
X144738000Y-91569000D02*
X143769000Y-91569000D01*
X143769000Y-91569000D02*
X141329500Y-89129500D01*
X141329500Y-89129500D02*
X140594000Y-89129500D01*
%TO.N,Net-(J1-CC1)*%
X139785000Y-93218000D02*
X139785000Y-93346000D01*
X139785000Y-93346000D02*
X140100000Y-93661000D01*
X140100000Y-93661000D02*
X140100000Y-100500000D01*
X139940720Y-93373720D02*
X139785000Y-93218000D01*
X140100000Y-100500000D02*
X141167000Y-101567000D01*
X141167000Y-101567000D02*
X143346200Y-101567000D01*
%TO.N,/TXD*%
X159375000Y-90525000D02*
X160124000Y-90525000D01*
X158650000Y-107030330D02*
X159194670Y-107575000D01*
X156300000Y-95200000D02*
X156300000Y-93600000D01*
X156300000Y-93600000D02*
X159375000Y-90525000D01*
X159194670Y-107575000D02*
X160541000Y-107575000D01*
X158650000Y-104150000D02*
X158650000Y-107030330D01*
X159200000Y-103600000D02*
X158650000Y-104150000D01*
%TO.N,/RXD*%
X157900000Y-93400000D02*
X159525000Y-91775000D01*
X155200000Y-107100000D02*
X153775000Y-107100000D01*
X159525000Y-91775000D02*
X160124000Y-91775000D01*
X153775000Y-107100000D02*
X153700000Y-107025000D01*
X157900000Y-98300000D02*
X157900000Y-93400000D01*
%TO.N,/#RTS*%
X158925000Y-108825000D02*
X156800000Y-106700000D01*
X160541000Y-108825000D02*
X158925000Y-108825000D01*
X161741000Y-94541000D02*
X161741000Y-108559000D01*
X161741000Y-108559000D02*
X161475000Y-108825000D01*
X161475000Y-108825000D02*
X160541000Y-108825000D01*
X156800000Y-106700000D02*
X156800000Y-102950000D01*
X161475000Y-94275000D02*
X161741000Y-94541000D01*
X160848107Y-94275000D02*
X161475000Y-94275000D01*
%TO.N,/#CTS*%
X162475000Y-110075000D02*
X162500000Y-110100000D01*
X149700000Y-107300000D02*
X152500000Y-110100000D01*
X162075000Y-93025000D02*
X160958000Y-93025000D01*
X160541000Y-110075000D02*
X162475000Y-110075000D01*
X162100000Y-93000000D02*
X162075000Y-93025000D01*
X149700000Y-106725000D02*
X149700000Y-107300000D01*
X152500000Y-110100000D02*
X160516000Y-110100000D01*
X160516000Y-110100000D02*
X160541000Y-110075000D01*
D34*
%TO.N,/RXLED{slash}CBUS1*%
X155000000Y-97700000D02*
X154500000Y-97700000D01*
X153900000Y-98300000D02*
X153900000Y-98762500D01*
D37*
X148200000Y-93218000D02*
X147405000Y-93218000D01*
D34*
X154500000Y-97700000D02*
X153900000Y-98300000D01*
D37*
%TO.N,/TXLED{slash}CBUS2*%
X144738000Y-94638000D02*
X144738000Y-93219000D01*
X146250000Y-96150000D02*
X144738000Y-94638000D01*
D38*
X151462500Y-101200000D02*
X150968674Y-101200000D01*
X150400000Y-101768674D02*
X150400000Y-102000000D01*
X150968674Y-101200000D02*
X150400000Y-101768674D01*
D37*
%TO.N,/DM*%
X149635283Y-99367000D02*
X149175000Y-99367000D01*
X150599796Y-99966477D02*
X150258438Y-99625119D01*
X151462500Y-100200000D02*
X151163571Y-100200000D01*
X150258438Y-99625119D02*
G75*
G03*
X149635283Y-99367019I-623138J-623181D01*
G01*
X150599796Y-99966477D02*
G75*
G03*
X151163571Y-100200020I563804J563777D01*
G01*
%TO.N,/DP*%
X149620292Y-101267000D02*
X149175000Y-101267000D01*
X151462500Y-100700000D02*
X150989052Y-100700000D01*
X150600000Y-100833700D02*
G75*
G02*
X150922759Y-100699963I322800J-322700D01*
G01*
X150600000Y-100833700D02*
G75*
G02*
X149553999Y-101266997I-1046000J1045900D01*
G01*
%TO.N,Net-(J1-CC2)*%
X141450000Y-98567000D02*
X140900000Y-98017000D01*
X140900000Y-94262000D02*
X141944000Y-93218000D01*
X143346200Y-98567000D02*
X141450000Y-98567000D01*
X140900000Y-98017000D02*
X140900000Y-94262000D01*
%TO.N,Net-(U2-~{RESET})*%
X152400000Y-94256000D02*
X152400000Y-98762500D01*
X152421000Y-94235000D02*
X152400000Y-94256000D01*
X152421000Y-94235000D02*
X152421000Y-92203000D01*
%TO.N,Net-(U2-TXD)*%
X156100000Y-100000000D02*
X156100000Y-97500000D01*
X155900000Y-100200000D02*
X156100000Y-100000000D01*
X156100000Y-97500000D02*
X156300000Y-97300000D01*
X155337500Y-100200000D02*
X155900000Y-100200000D01*
%TO.N,Net-(U2-RXD)*%
X154400000Y-102637500D02*
X154400000Y-104675000D01*
X154400000Y-104675000D02*
X153700000Y-105375000D01*
%TO.N,Net-(U2-~{RTS})*%
X156700000Y-101200000D02*
X156800000Y-101100000D01*
X155337500Y-101200000D02*
X156700000Y-101200000D01*
D35*
%TO.N,+5V*%
X140200000Y-107900000D02*
X140200000Y-106000000D01*
D37*
X152900000Y-97450000D02*
X153400000Y-96950000D01*
D36*
X146337500Y-107162500D02*
X146516000Y-107162500D01*
X145650000Y-107850000D02*
X146337500Y-107162500D01*
D35*
X139600000Y-87700000D02*
X140423500Y-87700000D01*
X154233000Y-89692000D02*
X148703000Y-89692000D01*
D37*
X152900000Y-98762500D02*
X152900000Y-97450000D01*
D35*
X154425000Y-89500000D02*
X154233000Y-89692000D01*
X154400000Y-95950000D02*
X154400000Y-89721000D01*
X146515500Y-87504500D02*
X140594000Y-87504500D01*
X141750000Y-109450000D02*
X140600000Y-110600000D01*
X140600000Y-110600000D02*
X140600000Y-111212500D01*
X153400000Y-96950000D02*
X154400000Y-95950000D01*
X144800000Y-107850000D02*
X143350000Y-107850000D01*
X143350000Y-107850000D02*
X141750000Y-109450000D01*
X140423500Y-87700000D02*
X140594000Y-87529500D01*
X140200000Y-106000000D02*
X140300000Y-105900000D01*
X141750000Y-109450000D02*
X140200000Y-107900000D01*
D36*
X144800000Y-107850000D02*
X145650000Y-107850000D01*
D35*
X148703000Y-89692000D02*
X146515500Y-87504500D01*
D37*
%TO.N,Net-(U2-~{CTS})*%
X151462500Y-102137500D02*
X149700000Y-103900000D01*
X151462500Y-101700000D02*
X151462500Y-102137500D01*
X149700000Y-103900000D02*
X149700000Y-105075000D01*
%TO.N,Net-(D4-K)*%
X142237500Y-112787500D02*
X142300000Y-112850000D01*
X140600000Y-112787500D02*
X142237500Y-112787500D01*
%TO.N,Net-(U2-~{RI})*%
X153900000Y-104050500D02*
X153900000Y-102637500D01*
X153650500Y-104300000D02*
X153900000Y-104050500D01*
%TO.N,Net-(U2-~{DSR})*%
X151900000Y-106600000D02*
X152100000Y-106400000D01*
X152900000Y-103250000D02*
X152900000Y-102637500D01*
X152100000Y-104050000D02*
X152900000Y-103250000D01*
X152100000Y-106400000D02*
X152100000Y-104050000D01*
%TO.N,Net-(U2-~{DCD})*%
X152400000Y-103000000D02*
X152400000Y-102637500D01*
X151400000Y-105200510D02*
X151400000Y-104000000D01*
X151200510Y-105400000D02*
X151400000Y-105200510D01*
X151400000Y-104000000D02*
X152400000Y-103000000D01*
%TO.N,Net-(U2-~{DTR})*%
X156800000Y-100300000D02*
X156547183Y-100300000D01*
X156547183Y-100300000D02*
X156147183Y-100700000D01*
X156147183Y-100700000D02*
X155337500Y-100700000D01*
%TD*%
%TA.AperFunction,Conductor*%
%TO.N,GND*%
G36*
X155714792Y-97895692D02*
G01*
X155746764Y-97947860D01*
X155749500Y-97970975D01*
X155749500Y-99275500D01*
X155730593Y-99333691D01*
X155681093Y-99369655D01*
X155650500Y-99374500D01*
X154961602Y-99374500D01*
X154961592Y-99374501D01*
X154919222Y-99382929D01*
X154858461Y-99375736D01*
X154829907Y-99355835D01*
X154744165Y-99270094D01*
X154734486Y-99251099D01*
X154721287Y-99234356D01*
X154720434Y-99223521D01*
X154716387Y-99215578D01*
X154718673Y-99201140D01*
X154717071Y-99180774D01*
X154725499Y-99138408D01*
X154725499Y-99138406D01*
X154725500Y-99138401D01*
X154725499Y-98386600D01*
X154725499Y-98386599D01*
X154725499Y-98381737D01*
X154726607Y-98381737D01*
X154738625Y-98326963D01*
X154784363Y-98286322D01*
X154845253Y-98280326D01*
X154849636Y-98281393D01*
X154920943Y-98300500D01*
X154920944Y-98300500D01*
X155079055Y-98300500D01*
X155079057Y-98300500D01*
X155231784Y-98259577D01*
X155368716Y-98180520D01*
X155480520Y-98068716D01*
X155559577Y-97931784D01*
X155559577Y-97931781D01*
X155562821Y-97926164D01*
X155564247Y-97926987D01*
X155598769Y-97886566D01*
X155658263Y-97872280D01*
X155714792Y-97895692D01*
G37*
%TD.AperFunction*%
%TA.AperFunction,Conductor*%
G36*
X136665166Y-85836407D02*
G01*
X136701129Y-85885907D01*
X136703428Y-85892985D01*
X136703430Y-85892988D01*
X136703431Y-85892991D01*
X136703432Y-85892992D01*
X136810657Y-86103433D01*
X136949483Y-86294510D01*
X137116490Y-86461517D01*
X137307567Y-86600343D01*
X137518008Y-86707568D01*
X137742632Y-86780553D01*
X137742633Y-86780553D01*
X137742636Y-86780554D01*
X137975905Y-86817500D01*
X137975908Y-86817500D01*
X138212095Y-86817500D01*
X138445363Y-86780554D01*
X138445364Y-86780553D01*
X138445368Y-86780553D01*
X138669992Y-86707568D01*
X138880433Y-86600343D01*
X139071510Y-86461517D01*
X139238517Y-86294510D01*
X139377343Y-86103433D01*
X139484568Y-85892992D01*
X139484569Y-85892987D01*
X139484571Y-85892985D01*
X139486871Y-85885907D01*
X139522835Y-85836407D01*
X139581025Y-85817500D01*
X146606975Y-85817500D01*
X146665166Y-85836407D01*
X146701129Y-85885907D01*
X146703428Y-85892985D01*
X146703430Y-85892988D01*
X146703431Y-85892991D01*
X146703432Y-85892992D01*
X146810657Y-86103433D01*
X146949483Y-86294510D01*
X147116490Y-86461517D01*
X147307567Y-86600343D01*
X147518008Y-86707568D01*
X147742632Y-86780553D01*
X147742633Y-86780553D01*
X147742636Y-86780554D01*
X147975905Y-86817500D01*
X147975908Y-86817500D01*
X148212095Y-86817500D01*
X148445363Y-86780554D01*
X148445364Y-86780553D01*
X148445368Y-86780553D01*
X148669992Y-86707568D01*
X148880433Y-86600343D01*
X149071510Y-86461517D01*
X149238517Y-86294510D01*
X149377343Y-86103433D01*
X149484568Y-85892992D01*
X149484569Y-85892987D01*
X149484571Y-85892985D01*
X149486871Y-85885907D01*
X149522835Y-85836407D01*
X149581025Y-85817500D01*
X156606975Y-85817500D01*
X156665166Y-85836407D01*
X156701129Y-85885907D01*
X156703428Y-85892985D01*
X156703430Y-85892988D01*
X156703431Y-85892991D01*
X156703432Y-85892992D01*
X156810657Y-86103433D01*
X156949483Y-86294510D01*
X157116490Y-86461517D01*
X157307567Y-86600343D01*
X157518008Y-86707568D01*
X157742632Y-86780553D01*
X157742633Y-86780553D01*
X157742636Y-86780554D01*
X157975905Y-86817500D01*
X157975908Y-86817500D01*
X158212095Y-86817500D01*
X158445363Y-86780554D01*
X158445364Y-86780553D01*
X158445368Y-86780553D01*
X158669992Y-86707568D01*
X158880433Y-86600343D01*
X159071510Y-86461517D01*
X159238517Y-86294510D01*
X159377343Y-86103433D01*
X159484568Y-85892992D01*
X159484569Y-85892987D01*
X159484571Y-85892985D01*
X159486871Y-85885907D01*
X159522835Y-85836407D01*
X159581025Y-85817500D01*
X164994500Y-85817500D01*
X165052691Y-85836407D01*
X165088655Y-85885907D01*
X165093500Y-85916500D01*
X165093500Y-86647072D01*
X165074593Y-86705263D01*
X165025093Y-86741227D01*
X164963907Y-86741227D01*
X164961804Y-86740517D01*
X164925603Y-86727850D01*
X164895211Y-86725000D01*
X163995001Y-86725000D01*
X163995000Y-86725001D01*
X163995000Y-88124998D01*
X163995001Y-88124999D01*
X164895203Y-88124999D01*
X164925600Y-88122149D01*
X164925606Y-88122148D01*
X164961802Y-88109483D01*
X165022972Y-88108110D01*
X165073267Y-88142954D01*
X165093475Y-88200705D01*
X165093500Y-88202927D01*
X165093500Y-96597072D01*
X165074593Y-96655263D01*
X165025093Y-96691227D01*
X164963907Y-96691227D01*
X164961804Y-96690517D01*
X164925603Y-96677850D01*
X164895211Y-96675000D01*
X163995001Y-96675000D01*
X163995000Y-96675001D01*
X163995000Y-98074998D01*
X163995001Y-98074999D01*
X164895203Y-98074999D01*
X164925600Y-98072149D01*
X164925606Y-98072148D01*
X164961802Y-98059483D01*
X165022972Y-98058110D01*
X165073267Y-98092954D01*
X165093475Y-98150705D01*
X165093500Y-98152927D01*
X165093500Y-102447072D01*
X165074593Y-102505263D01*
X165025093Y-102541227D01*
X164963907Y-102541227D01*
X164961804Y-102540517D01*
X164925603Y-102527850D01*
X164895211Y-102525000D01*
X163995001Y-102525000D01*
X163995000Y-102525001D01*
X163995000Y-103924998D01*
X163995001Y-103924999D01*
X164895203Y-103924999D01*
X164925600Y-103922149D01*
X164925606Y-103922148D01*
X164961802Y-103909483D01*
X165022972Y-103908110D01*
X165073267Y-103942954D01*
X165093475Y-104000705D01*
X165093500Y-104002927D01*
X165093500Y-112397072D01*
X165074593Y-112455263D01*
X165025093Y-112491227D01*
X164963907Y-112491227D01*
X164961804Y-112490517D01*
X164925603Y-112477850D01*
X164895211Y-112475000D01*
X163995001Y-112475000D01*
X163995000Y-112475001D01*
X163995000Y-113874998D01*
X163995001Y-113874999D01*
X164895203Y-113874999D01*
X164925600Y-113872149D01*
X164925606Y-113872148D01*
X164961802Y-113859483D01*
X165022972Y-113858110D01*
X165073267Y-113892954D01*
X165093475Y-113950705D01*
X165093500Y-113952927D01*
X165093500Y-114717500D01*
X165074593Y-114775691D01*
X165025093Y-114811655D01*
X164994500Y-114816500D01*
X159581025Y-114816500D01*
X159522834Y-114797593D01*
X159486871Y-114748093D01*
X159484571Y-114741014D01*
X159484569Y-114741011D01*
X159484568Y-114741010D01*
X159484568Y-114741008D01*
X159377343Y-114530567D01*
X159238517Y-114339490D01*
X159071510Y-114172483D01*
X158880433Y-114033657D01*
X158880432Y-114033656D01*
X158880430Y-114033655D01*
X158669992Y-113926432D01*
X158445363Y-113853445D01*
X158212095Y-113816500D01*
X158212092Y-113816500D01*
X157975908Y-113816500D01*
X157975905Y-113816500D01*
X157742636Y-113853445D01*
X157518007Y-113926432D01*
X157307569Y-114033655D01*
X157116491Y-114172482D01*
X156949482Y-114339491D01*
X156810655Y-114530569D01*
X156703430Y-114741011D01*
X156703428Y-114741014D01*
X156701129Y-114748093D01*
X156665165Y-114797593D01*
X156606975Y-114816500D01*
X149581025Y-114816500D01*
X149522834Y-114797593D01*
X149486871Y-114748093D01*
X149484571Y-114741014D01*
X149484569Y-114741011D01*
X149484568Y-114741010D01*
X149484568Y-114741008D01*
X149377343Y-114530567D01*
X149238517Y-114339490D01*
X149071510Y-114172483D01*
X148880433Y-114033657D01*
X148880432Y-114033656D01*
X148880430Y-114033655D01*
X148669992Y-113926432D01*
X148445363Y-113853445D01*
X148212095Y-113816500D01*
X148212092Y-113816500D01*
X147975908Y-113816500D01*
X147975905Y-113816500D01*
X147742636Y-113853445D01*
X147518007Y-113926432D01*
X147307569Y-114033655D01*
X147116491Y-114172482D01*
X146949482Y-114339491D01*
X146810655Y-114530569D01*
X146703430Y-114741011D01*
X146703428Y-114741014D01*
X146701129Y-114748093D01*
X146665165Y-114797593D01*
X146606975Y-114816500D01*
X139581025Y-114816500D01*
X139522834Y-114797593D01*
X139486871Y-114748093D01*
X139484571Y-114741014D01*
X139484569Y-114741011D01*
X139484568Y-114741010D01*
X139484568Y-114741008D01*
X139377343Y-114530567D01*
X139238517Y-114339490D01*
X139071510Y-114172483D01*
X138880433Y-114033657D01*
X138880432Y-114033656D01*
X138880430Y-114033655D01*
X138669992Y-113926432D01*
X138445363Y-113853445D01*
X138212095Y-113816500D01*
X138212092Y-113816500D01*
X137975908Y-113816500D01*
X137975905Y-113816500D01*
X137742636Y-113853445D01*
X137518007Y-113926432D01*
X137307569Y-114033655D01*
X137116491Y-114172482D01*
X136949482Y-114339491D01*
X136810655Y-114530569D01*
X136703430Y-114741011D01*
X136703428Y-114741014D01*
X136701129Y-114748093D01*
X136665165Y-114797593D01*
X136606975Y-114816500D01*
X136193500Y-114816500D01*
X136135309Y-114797593D01*
X136099345Y-114748093D01*
X136094500Y-114717500D01*
X136094500Y-113474578D01*
X144798116Y-113474578D01*
X144798117Y-113474578D01*
X157600736Y-113474578D01*
X157600737Y-113474578D01*
X157600737Y-113429001D01*
X162191001Y-113429001D01*
X162191001Y-113479203D01*
X162193850Y-113509600D01*
X162193850Y-113509602D01*
X162238654Y-113637647D01*
X162319207Y-113746790D01*
X162319209Y-113746792D01*
X162428352Y-113827345D01*
X162556398Y-113872149D01*
X162586789Y-113874999D01*
X163486998Y-113874999D01*
X163487000Y-113874998D01*
X163487000Y-113429001D01*
X163486999Y-113429000D01*
X162191002Y-113429000D01*
X162191001Y-113429001D01*
X157600737Y-113429001D01*
X157600737Y-112870788D01*
X162191000Y-112870788D01*
X162191000Y-112920999D01*
X162191001Y-112921000D01*
X163486999Y-112921000D01*
X163487000Y-112920999D01*
X163487000Y-112475001D01*
X163486999Y-112475000D01*
X162586796Y-112475000D01*
X162556399Y-112477850D01*
X162556397Y-112477850D01*
X162428352Y-112522654D01*
X162319209Y-112603207D01*
X162319207Y-112603209D01*
X162238654Y-112712352D01*
X162193850Y-112840398D01*
X162191000Y-112870788D01*
X157600737Y-112870788D01*
X157600737Y-111859855D01*
X144798116Y-111859855D01*
X144798116Y-113474578D01*
X136094500Y-113474578D01*
X136094500Y-112535751D01*
X139924500Y-112535751D01*
X139924500Y-113039248D01*
X139940049Y-113137419D01*
X139940050Y-113137423D01*
X139967887Y-113192055D01*
X140000342Y-113255751D01*
X140094249Y-113349658D01*
X140212580Y-113409951D01*
X140279130Y-113420491D01*
X140310751Y-113425500D01*
X140310754Y-113425500D01*
X140889249Y-113425500D01*
X140917803Y-113420976D01*
X140987420Y-113409951D01*
X141105751Y-113349658D01*
X141199658Y-113255751D01*
X141232113Y-113192053D01*
X141275377Y-113148790D01*
X141320322Y-113138000D01*
X141559679Y-113138000D01*
X141617870Y-113156907D01*
X141647888Y-113192054D01*
X141647889Y-113192055D01*
X141696950Y-113288342D01*
X141786658Y-113378050D01*
X141899696Y-113435646D01*
X141993481Y-113450500D01*
X142606518Y-113450499D01*
X142606520Y-113450499D01*
X142606521Y-113450498D01*
X142653411Y-113443072D01*
X142700299Y-113435647D01*
X142700299Y-113435646D01*
X142700304Y-113435646D01*
X142813342Y-113378050D01*
X142903050Y-113288342D01*
X142960646Y-113175304D01*
X142975500Y-113081519D01*
X142975499Y-112618482D01*
X142973080Y-112603207D01*
X142960647Y-112524700D01*
X142960646Y-112524698D01*
X142960646Y-112524696D01*
X142903050Y-112411658D01*
X142813342Y-112321950D01*
X142700304Y-112264354D01*
X142700305Y-112264354D01*
X142606522Y-112249500D01*
X141993479Y-112249500D01*
X141993476Y-112249501D01*
X141899700Y-112264352D01*
X141899695Y-112264354D01*
X141786659Y-112321949D01*
X141786658Y-112321949D01*
X141786658Y-112321950D01*
X141700602Y-112408005D01*
X141646088Y-112435781D01*
X141630601Y-112437000D01*
X141320322Y-112437000D01*
X141262131Y-112418093D01*
X141232113Y-112382946D01*
X141199658Y-112319249D01*
X141105751Y-112225342D01*
X141101631Y-112223243D01*
X140987423Y-112165050D01*
X140987420Y-112165049D01*
X140962876Y-112161161D01*
X140889249Y-112149500D01*
X140889246Y-112149500D01*
X140310754Y-112149500D01*
X140310751Y-112149500D01*
X140212580Y-112165049D01*
X140212576Y-112165050D01*
X140094250Y-112225341D01*
X140000341Y-112319250D01*
X139940050Y-112437576D01*
X139940049Y-112437580D01*
X139924500Y-112535751D01*
X136094500Y-112535751D01*
X136094500Y-104382999D01*
X137438735Y-104382999D01*
X137438736Y-104383000D01*
X138031140Y-104383000D01*
X138006995Y-104396940D01*
X137951140Y-104452795D01*
X137911644Y-104521204D01*
X137891200Y-104597504D01*
X137891200Y-104676496D01*
X137911644Y-104752796D01*
X137951140Y-104821205D01*
X138006995Y-104877060D01*
X138031140Y-104891000D01*
X137438736Y-104891000D01*
X137470866Y-104968571D01*
X137547471Y-105083220D01*
X137644979Y-105180728D01*
X137759628Y-105257333D01*
X137887016Y-105310098D01*
X138022255Y-105336999D01*
X138022257Y-105337000D01*
X138337199Y-105337000D01*
X138337200Y-105336999D01*
X138337200Y-104937000D01*
X138845200Y-104937000D01*
X138845200Y-105336999D01*
X138845201Y-105337000D01*
X139160143Y-105337000D01*
X139160144Y-105336999D01*
X139295383Y-105310098D01*
X139422771Y-105257333D01*
X139537420Y-105180728D01*
X139634928Y-105083220D01*
X139711533Y-104968571D01*
X139743664Y-104891000D01*
X139151260Y-104891000D01*
X139175405Y-104877060D01*
X139231260Y-104821205D01*
X139270756Y-104752796D01*
X139291200Y-104676496D01*
X139291200Y-104597504D01*
X139282649Y-104565591D01*
X141521200Y-104565591D01*
X141521200Y-104708408D01*
X141549061Y-104848474D01*
X141549061Y-104848476D01*
X141603711Y-104980413D01*
X141603711Y-104980414D01*
X141683056Y-105099160D01*
X141683059Y-105099164D01*
X141784035Y-105200140D01*
X141784039Y-105200143D01*
X141826278Y-105228367D01*
X142131182Y-104923463D01*
X142181704Y-104937000D01*
X143360696Y-104937000D01*
X143411216Y-104923463D01*
X143716120Y-105228367D01*
X143758358Y-105200146D01*
X143859336Y-105099169D01*
X143859343Y-105099160D01*
X143938688Y-104980414D01*
X143938688Y-104980413D01*
X143993338Y-104848476D01*
X143993338Y-104848474D01*
X144021199Y-104708408D01*
X144021200Y-104708405D01*
X144021200Y-104565594D01*
X144021199Y-104565591D01*
X143993338Y-104425525D01*
X143993338Y-104425523D01*
X143938688Y-104293586D01*
X143938688Y-104293585D01*
X143856780Y-104171002D01*
X143840171Y-104112113D01*
X143861349Y-104054710D01*
X143912222Y-104020717D01*
X143939095Y-104017000D01*
X143940897Y-104017000D01*
X143940900Y-104016999D01*
X143999236Y-104005396D01*
X144065389Y-103961193D01*
X144065393Y-103961189D01*
X144109596Y-103895036D01*
X144121199Y-103836700D01*
X144121200Y-103836697D01*
X144121200Y-103771001D01*
X144121199Y-103771000D01*
X142571201Y-103771000D01*
X142571200Y-103771001D01*
X142571200Y-103813000D01*
X142552293Y-103871191D01*
X142502793Y-103907155D01*
X142472200Y-103912000D01*
X142399753Y-103912000D01*
X142824752Y-104337000D01*
X142181704Y-104337000D01*
X142131184Y-104350536D01*
X141826279Y-104045631D01*
X141784037Y-104073857D01*
X141683063Y-104174830D01*
X141683056Y-104174839D01*
X141603711Y-104293585D01*
X141603711Y-104293586D01*
X141549061Y-104425523D01*
X141549061Y-104425525D01*
X141521200Y-104565591D01*
X139282649Y-104565591D01*
X139270756Y-104521204D01*
X139231260Y-104452795D01*
X139175405Y-104396940D01*
X139151260Y-104383000D01*
X139743664Y-104383000D01*
X139743664Y-104382999D01*
X139711533Y-104305428D01*
X139634928Y-104190779D01*
X139537420Y-104093271D01*
X139424086Y-104017545D01*
X139424084Y-104017543D01*
X139424083Y-104017543D01*
X139422771Y-104016666D01*
X139295383Y-103963901D01*
X139160144Y-103937000D01*
X138845201Y-103937000D01*
X138845200Y-103937001D01*
X138845200Y-104337000D01*
X138337200Y-104337000D01*
X138337200Y-103937001D01*
X138337199Y-103937000D01*
X138022255Y-103937000D01*
X137887016Y-103963901D01*
X137759628Y-104016666D01*
X137644979Y-104093271D01*
X137547471Y-104190779D01*
X137470866Y-104305428D01*
X137438735Y-104382999D01*
X136094500Y-104382999D01*
X136094500Y-95742999D01*
X137438735Y-95742999D01*
X137438736Y-95743000D01*
X138031140Y-95743000D01*
X138006995Y-95756940D01*
X137951140Y-95812795D01*
X137911644Y-95881204D01*
X137891200Y-95957504D01*
X137891200Y-96036496D01*
X137911644Y-96112796D01*
X137951140Y-96181205D01*
X138006995Y-96237060D01*
X138031140Y-96251000D01*
X137438736Y-96251000D01*
X137470866Y-96328571D01*
X137547471Y-96443220D01*
X137644979Y-96540728D01*
X137759628Y-96617333D01*
X137887016Y-96670098D01*
X138022255Y-96696999D01*
X138022257Y-96697000D01*
X138337199Y-96697000D01*
X138337200Y-96696999D01*
X138337200Y-96297000D01*
X138845200Y-96297000D01*
X138845200Y-96696999D01*
X138845201Y-96697000D01*
X139160143Y-96697000D01*
X139160144Y-96696999D01*
X139295383Y-96670098D01*
X139422771Y-96617333D01*
X139537420Y-96540728D01*
X139580496Y-96497653D01*
X139635013Y-96469876D01*
X139695445Y-96479447D01*
X139738710Y-96522712D01*
X139749500Y-96567657D01*
X139749500Y-100546144D01*
X139755462Y-100568393D01*
X139767453Y-100613145D01*
X139773384Y-100635283D01*
X139773385Y-100635284D01*
X139773386Y-100635288D01*
X139819530Y-100715212D01*
X140951788Y-101847470D01*
X140982347Y-101865113D01*
X141017909Y-101885645D01*
X141021607Y-101887780D01*
X141031712Y-101893614D01*
X141120856Y-101917500D01*
X142471700Y-101917500D01*
X142529891Y-101936407D01*
X142565855Y-101985907D01*
X142570700Y-102016500D01*
X142570700Y-102236751D01*
X142582821Y-102297686D01*
X142582821Y-102336314D01*
X142570700Y-102397248D01*
X142570700Y-102831434D01*
X142551793Y-102889625D01*
X142502293Y-102925589D01*
X142441107Y-102925589D01*
X142422201Y-102917171D01*
X142397225Y-102902751D01*
X142397220Y-102902749D01*
X142314186Y-102880500D01*
X142314184Y-102880500D01*
X142228216Y-102880500D01*
X142228213Y-102880500D01*
X142145179Y-102902749D01*
X142070725Y-102945735D01*
X142009935Y-103006525D01*
X141966949Y-103080979D01*
X141944700Y-103164013D01*
X141944700Y-103249986D01*
X141966949Y-103333020D01*
X141966950Y-103333022D01*
X141966951Y-103333024D01*
X142009935Y-103407475D01*
X142070725Y-103468265D01*
X142145176Y-103511249D01*
X142145178Y-103511249D01*
X142145179Y-103511250D01*
X142181354Y-103520943D01*
X142228213Y-103533499D01*
X142228215Y-103533500D01*
X142228216Y-103533500D01*
X142314185Y-103533500D01*
X142314185Y-103533499D01*
X142397224Y-103511249D01*
X142471675Y-103468265D01*
X142532465Y-103407475D01*
X142575449Y-103333024D01*
X142575450Y-103333019D01*
X142577932Y-103327029D01*
X142580051Y-103327906D01*
X142607873Y-103285064D01*
X142664993Y-103263136D01*
X142670177Y-103263000D01*
X144121199Y-103263000D01*
X144121200Y-103262999D01*
X144121200Y-103216500D01*
X144140107Y-103158309D01*
X144189607Y-103122345D01*
X144220200Y-103117500D01*
X145891019Y-103117500D01*
X145949210Y-103136407D01*
X145976754Y-103166999D01*
X146035480Y-103268716D01*
X146086505Y-103319741D01*
X146114281Y-103374256D01*
X146115500Y-103389743D01*
X146115500Y-104312768D01*
X146096593Y-104370959D01*
X146047093Y-104406923D01*
X146031990Y-104410549D01*
X146003579Y-104415049D01*
X146003576Y-104415050D01*
X145885250Y-104475341D01*
X145791341Y-104569250D01*
X145731050Y-104687576D01*
X145731049Y-104687580D01*
X145715500Y-104785751D01*
X145715500Y-105289248D01*
X145725866Y-105354695D01*
X145729715Y-105379000D01*
X145731049Y-105387419D01*
X145731050Y-105387423D01*
X145748523Y-105421715D01*
X145791342Y-105505751D01*
X145885249Y-105599658D01*
X146003580Y-105659951D01*
X146070130Y-105670491D01*
X146101751Y-105675500D01*
X146101754Y-105675500D01*
X146338810Y-105675500D01*
X146397001Y-105694407D01*
X146408814Y-105704496D01*
X147069557Y-106365239D01*
X147097334Y-106419756D01*
X147087763Y-106480188D01*
X147044498Y-106523453D01*
X146984066Y-106533024D01*
X146930249Y-106524500D01*
X146930246Y-106524500D01*
X146101754Y-106524500D01*
X146101751Y-106524500D01*
X146003580Y-106540049D01*
X146003576Y-106540050D01*
X145885250Y-106600341D01*
X145791341Y-106694250D01*
X145731050Y-106812576D01*
X145731049Y-106812580D01*
X145715500Y-106910751D01*
X145715500Y-107106389D01*
X145696593Y-107164580D01*
X145686509Y-107176386D01*
X145588039Y-107274858D01*
X145514826Y-107348071D01*
X145460309Y-107375848D01*
X145399877Y-107366277D01*
X145374821Y-107348073D01*
X145303220Y-107276472D01*
X145303217Y-107276470D01*
X145183132Y-107215283D01*
X145183127Y-107215281D01*
X145183126Y-107215281D01*
X145149913Y-107210020D01*
X145083490Y-107199500D01*
X145083488Y-107199500D01*
X144516512Y-107199500D01*
X144516510Y-107199500D01*
X144416874Y-107215281D01*
X144416867Y-107215283D01*
X144296782Y-107276470D01*
X144201470Y-107371782D01*
X144189414Y-107395445D01*
X144146149Y-107438710D01*
X144101204Y-107449500D01*
X143408806Y-107449500D01*
X143408790Y-107449499D01*
X143402727Y-107449499D01*
X143297273Y-107449499D01*
X143208796Y-107473207D01*
X143208795Y-107473206D01*
X143195412Y-107476793D01*
X143195409Y-107476794D01*
X143104087Y-107529519D01*
X143029519Y-107604086D01*
X143029520Y-107604087D01*
X141820004Y-108813603D01*
X141765487Y-108841380D01*
X141705055Y-108831809D01*
X141679996Y-108813603D01*
X140629496Y-107763103D01*
X140601719Y-107708586D01*
X140600500Y-107693099D01*
X140600500Y-106558453D01*
X144125000Y-106558453D01*
X144140760Y-106657965D01*
X144140762Y-106657969D01*
X144201881Y-106777921D01*
X144297078Y-106873118D01*
X144417030Y-106934237D01*
X144417029Y-106934237D01*
X144516546Y-106949999D01*
X144546000Y-106949999D01*
X144546000Y-106554001D01*
X145054000Y-106554001D01*
X145054000Y-106949998D01*
X145054001Y-106949999D01*
X145083453Y-106949999D01*
X145182965Y-106934239D01*
X145182969Y-106934237D01*
X145302921Y-106873118D01*
X145398118Y-106777921D01*
X145459237Y-106657969D01*
X145475000Y-106558453D01*
X145475000Y-106554001D01*
X145474999Y-106554000D01*
X145054001Y-106554000D01*
X145054000Y-106554001D01*
X144546000Y-106554001D01*
X144545999Y-106554000D01*
X144125002Y-106554000D01*
X144125001Y-106554001D01*
X144125001Y-106558453D01*
X144125000Y-106558453D01*
X140600500Y-106558453D01*
X140600500Y-106477061D01*
X140619407Y-106418870D01*
X140649997Y-106391326D01*
X140668716Y-106380520D01*
X140780520Y-106268716D01*
X140859577Y-106131784D01*
X140883756Y-106041546D01*
X144125000Y-106041546D01*
X144125000Y-106045999D01*
X144125001Y-106046000D01*
X144545999Y-106046000D01*
X144546000Y-106045999D01*
X144546000Y-105650001D01*
X145054000Y-105650001D01*
X145054000Y-106045999D01*
X145054001Y-106046000D01*
X145474998Y-106046000D01*
X145474999Y-106045999D01*
X145474999Y-106041546D01*
X145459239Y-105942034D01*
X145459237Y-105942030D01*
X145398118Y-105822078D01*
X145302921Y-105726881D01*
X145182969Y-105665762D01*
X145182970Y-105665762D01*
X145083454Y-105650000D01*
X145054001Y-105650000D01*
X145054000Y-105650001D01*
X144546000Y-105650001D01*
X144546000Y-105650000D01*
X144516547Y-105650000D01*
X144516544Y-105650001D01*
X144417034Y-105665760D01*
X144417030Y-105665762D01*
X144297078Y-105726881D01*
X144201881Y-105822078D01*
X144140762Y-105942030D01*
X144125000Y-106041546D01*
X140883756Y-106041546D01*
X140900500Y-105979057D01*
X140900500Y-105820943D01*
X140859577Y-105668216D01*
X140780520Y-105531284D01*
X140668716Y-105419480D01*
X140569157Y-105362000D01*
X142399753Y-105362000D01*
X143142647Y-105362000D01*
X142771200Y-104990553D01*
X142399753Y-105362000D01*
X140569157Y-105362000D01*
X140531784Y-105340423D01*
X140379057Y-105299500D01*
X140220943Y-105299500D01*
X140068216Y-105340423D01*
X139931284Y-105419480D01*
X139819480Y-105531284D01*
X139740423Y-105668216D01*
X139699500Y-105820943D01*
X139699500Y-105979057D01*
X139740423Y-106131784D01*
X139786237Y-106211136D01*
X139799500Y-106260636D01*
X139799500Y-107847273D01*
X139799500Y-107952727D01*
X139815971Y-108014198D01*
X139826794Y-108054592D01*
X139879516Y-108145908D01*
X139879517Y-108145909D01*
X139879518Y-108145910D01*
X139879520Y-108145913D01*
X140507818Y-108774211D01*
X141113603Y-109379996D01*
X141141380Y-109434513D01*
X141131809Y-109494945D01*
X141113603Y-109520004D01*
X140279516Y-110354091D01*
X140226793Y-110445411D01*
X140226792Y-110445411D01*
X140226793Y-110445412D01*
X140199499Y-110547276D01*
X140199320Y-110548637D01*
X140198897Y-110549522D01*
X140197821Y-110553540D01*
X140197076Y-110553340D01*
X140172973Y-110603860D01*
X140146115Y-110623914D01*
X140094250Y-110650341D01*
X140000341Y-110744250D01*
X139940050Y-110862576D01*
X139940049Y-110862580D01*
X139924500Y-110960751D01*
X139924500Y-111464248D01*
X139940049Y-111562419D01*
X139940050Y-111562423D01*
X139948497Y-111579000D01*
X140000342Y-111680751D01*
X140094249Y-111774658D01*
X140212580Y-111834951D01*
X140279130Y-111845491D01*
X140310751Y-111850500D01*
X140310754Y-111850500D01*
X140889249Y-111850500D01*
X140917803Y-111845976D01*
X140987420Y-111834951D01*
X141105751Y-111774658D01*
X141199658Y-111680751D01*
X141259951Y-111562420D01*
X141275500Y-111464246D01*
X141275500Y-111454000D01*
X141628567Y-111454000D01*
X141639834Y-111525146D01*
X141639836Y-111525151D01*
X141697358Y-111638043D01*
X141786956Y-111727641D01*
X141899848Y-111785163D01*
X141899852Y-111785164D01*
X141993516Y-111799999D01*
X142045999Y-111799998D01*
X142046000Y-111799998D01*
X142046000Y-111454001D01*
X142554000Y-111454001D01*
X142554000Y-111799998D01*
X142554001Y-111799999D01*
X142606483Y-111799999D01*
X142606485Y-111799998D01*
X142700141Y-111785166D01*
X142700154Y-111785162D01*
X142807150Y-111730645D01*
X142807160Y-111730639D01*
X142813044Y-111727640D01*
X142902641Y-111638043D01*
X142932726Y-111579000D01*
X159502257Y-111579000D01*
X159552213Y-111681187D01*
X159634812Y-111763786D01*
X159739751Y-111815087D01*
X159807784Y-111824999D01*
X160286998Y-111824999D01*
X160287000Y-111824998D01*
X160287000Y-111579001D01*
X160795000Y-111579001D01*
X160795000Y-111824998D01*
X160795001Y-111824999D01*
X161274213Y-111824999D01*
X161274216Y-111824998D01*
X161342250Y-111815087D01*
X161447188Y-111763785D01*
X161529786Y-111681187D01*
X161579743Y-111579000D01*
X160795001Y-111579000D01*
X160795000Y-111579001D01*
X160287000Y-111579001D01*
X160286999Y-111579000D01*
X159502257Y-111579000D01*
X142932726Y-111579000D01*
X142958607Y-111528207D01*
X142960163Y-111525150D01*
X142960165Y-111525146D01*
X142971433Y-111454000D01*
X142554001Y-111454000D01*
X142554000Y-111454001D01*
X142046000Y-111454001D01*
X142045999Y-111454000D01*
X141628567Y-111454000D01*
X141275500Y-111454000D01*
X141275500Y-111071000D01*
X159502257Y-111071000D01*
X160286999Y-111071000D01*
X160287000Y-111070999D01*
X160287000Y-110825001D01*
X160795000Y-110825001D01*
X160795000Y-111070999D01*
X160795001Y-111071000D01*
X161579742Y-111071000D01*
X161529786Y-110968812D01*
X161447187Y-110886213D01*
X161342248Y-110834912D01*
X161274216Y-110825000D01*
X160795001Y-110825000D01*
X160795000Y-110825001D01*
X160287000Y-110825001D01*
X160286999Y-110825000D01*
X159807786Y-110825000D01*
X159807783Y-110825001D01*
X159739749Y-110834912D01*
X159634811Y-110886214D01*
X159552213Y-110968812D01*
X159502257Y-111071000D01*
X141275500Y-111071000D01*
X141275500Y-110960754D01*
X141273163Y-110946000D01*
X141628567Y-110946000D01*
X142045999Y-110946000D01*
X142046000Y-110945999D01*
X142046000Y-110600001D01*
X142554000Y-110600001D01*
X142554000Y-110945999D01*
X142554001Y-110946000D01*
X142971432Y-110946000D01*
X142960165Y-110874853D01*
X142960163Y-110874848D01*
X142902641Y-110761956D01*
X142813043Y-110672358D01*
X142700151Y-110614836D01*
X142700147Y-110614835D01*
X142606484Y-110600000D01*
X142554001Y-110600000D01*
X142554000Y-110600001D01*
X142046000Y-110600001D01*
X142046000Y-110599999D01*
X141993518Y-110600000D01*
X141993513Y-110600001D01*
X141899858Y-110614833D01*
X141899848Y-110614836D01*
X141786956Y-110672358D01*
X141697358Y-110761956D01*
X141639836Y-110874848D01*
X141639834Y-110874853D01*
X141628567Y-110946000D01*
X141273163Y-110946000D01*
X141259951Y-110862580D01*
X141199658Y-110744249D01*
X141180901Y-110725492D01*
X141153126Y-110670978D01*
X141162697Y-110610546D01*
X141180900Y-110585490D01*
X141995910Y-109770481D01*
X141995913Y-109770480D01*
X142070480Y-109695913D01*
X142070480Y-109695912D01*
X143232284Y-108534108D01*
X148899500Y-108534108D01*
X148899500Y-108665892D01*
X148907109Y-108694288D01*
X148933609Y-108793190D01*
X148999496Y-108907309D01*
X148999498Y-108907311D01*
X148999500Y-108907314D01*
X149092686Y-109000500D01*
X149092688Y-109000501D01*
X149092690Y-109000503D01*
X149206810Y-109066390D01*
X149206808Y-109066390D01*
X149206812Y-109066391D01*
X149206814Y-109066392D01*
X149334108Y-109100500D01*
X149334110Y-109100500D01*
X149465890Y-109100500D01*
X149465892Y-109100500D01*
X149593186Y-109066392D01*
X149593188Y-109066390D01*
X149593190Y-109066390D01*
X149707309Y-109000503D01*
X149707309Y-109000502D01*
X149707314Y-109000500D01*
X149800500Y-108907314D01*
X149866392Y-108793186D01*
X149900500Y-108665892D01*
X149900500Y-108534108D01*
X149866392Y-108406814D01*
X149866390Y-108406811D01*
X149866390Y-108406809D01*
X149800503Y-108292690D01*
X149800501Y-108292688D01*
X149800500Y-108292686D01*
X149707314Y-108199500D01*
X149707311Y-108199498D01*
X149707309Y-108199496D01*
X149593189Y-108133609D01*
X149593191Y-108133609D01*
X149543799Y-108120375D01*
X149465892Y-108099500D01*
X149334108Y-108099500D01*
X149256200Y-108120375D01*
X149206809Y-108133609D01*
X149092690Y-108199496D01*
X148999496Y-108292690D01*
X148933609Y-108406809D01*
X148929129Y-108423529D01*
X148899500Y-108534108D01*
X143232284Y-108534108D01*
X143486896Y-108279496D01*
X143541413Y-108251719D01*
X143556900Y-108250500D01*
X144101204Y-108250500D01*
X144159395Y-108269407D01*
X144189414Y-108304555D01*
X144199576Y-108324500D01*
X144201472Y-108328220D01*
X144296780Y-108423528D01*
X144296782Y-108423529D01*
X144416867Y-108484716D01*
X144416869Y-108484716D01*
X144416874Y-108484719D01*
X144492541Y-108496703D01*
X144516510Y-108500500D01*
X144516512Y-108500500D01*
X145083490Y-108500500D01*
X145104885Y-108497111D01*
X145183126Y-108484719D01*
X145303220Y-108423528D01*
X145398528Y-108328220D01*
X145398727Y-108327828D01*
X145403022Y-108324167D01*
X145427835Y-108313912D01*
X145451768Y-108301719D01*
X145458654Y-108301176D01*
X145459569Y-108300799D01*
X145460526Y-108301029D01*
X145467255Y-108300500D01*
X145709309Y-108300500D01*
X145799669Y-108276287D01*
X145799672Y-108276287D01*
X145812903Y-108272741D01*
X145823887Y-108269799D01*
X145926614Y-108210489D01*
X146307608Y-107829496D01*
X146362124Y-107801719D01*
X146377611Y-107800500D01*
X146930249Y-107800500D01*
X146958803Y-107795976D01*
X147028420Y-107784951D01*
X147146751Y-107724658D01*
X147240658Y-107630751D01*
X147300951Y-107512420D01*
X147316500Y-107414246D01*
X147316500Y-106910754D01*
X147307975Y-106856931D01*
X147309841Y-106845154D01*
X147317546Y-106796500D01*
X147360811Y-106753235D01*
X147404716Y-106746281D01*
X147421241Y-106743664D01*
X147421243Y-106743664D01*
X147475760Y-106771441D01*
X147495504Y-106791185D01*
X147523281Y-106845702D01*
X147524500Y-106861189D01*
X147524500Y-106933489D01*
X147531386Y-106976966D01*
X147538351Y-107020943D01*
X147540281Y-107033125D01*
X147540283Y-107033132D01*
X147601470Y-107153217D01*
X147601472Y-107153220D01*
X147696780Y-107248528D01*
X147696782Y-107248529D01*
X147816867Y-107309716D01*
X147816869Y-107309716D01*
X147816874Y-107309719D01*
X147892541Y-107321703D01*
X147916510Y-107325500D01*
X147916512Y-107325500D01*
X148483490Y-107325500D01*
X148504885Y-107322111D01*
X148583126Y-107309719D01*
X148703220Y-107248528D01*
X148798528Y-107153220D01*
X148857492Y-107037495D01*
X148900756Y-106994232D01*
X148961188Y-106984661D01*
X149015705Y-107012438D01*
X149034931Y-107043811D01*
X149035816Y-107043361D01*
X149064929Y-107100498D01*
X149096950Y-107163342D01*
X149186658Y-107253050D01*
X149232622Y-107276470D01*
X149306639Y-107314184D01*
X149305028Y-107317344D01*
X149307387Y-107319054D01*
X149324418Y-107325592D01*
X149331551Y-107336575D01*
X149342154Y-107344264D01*
X149357741Y-107376903D01*
X149357743Y-107376907D01*
X149363796Y-107399499D01*
X149373385Y-107435285D01*
X149373386Y-107435288D01*
X149419530Y-107515212D01*
X152284788Y-110380470D01*
X152364712Y-110426614D01*
X152453856Y-110450500D01*
X159529811Y-110450500D01*
X159588002Y-110469407D01*
X159599814Y-110479496D01*
X159634515Y-110514196D01*
X159634517Y-110514198D01*
X159688285Y-110540483D01*
X159739604Y-110565572D01*
X159739605Y-110565572D01*
X159739607Y-110565573D01*
X159807740Y-110575500D01*
X159807743Y-110575500D01*
X161274257Y-110575500D01*
X161274260Y-110575500D01*
X161342393Y-110565573D01*
X161447483Y-110514198D01*
X161507186Y-110454494D01*
X161561701Y-110426719D01*
X161577188Y-110425500D01*
X161937498Y-110425500D01*
X161995689Y-110444407D01*
X162016040Y-110464233D01*
X162019476Y-110468711D01*
X162019478Y-110468713D01*
X162019480Y-110468716D01*
X162131284Y-110580520D01*
X162268216Y-110659577D01*
X162420943Y-110700500D01*
X162420945Y-110700500D01*
X162579055Y-110700500D01*
X162579057Y-110700500D01*
X162731784Y-110659577D01*
X162868716Y-110580520D01*
X162980520Y-110468716D01*
X163059577Y-110331784D01*
X163100500Y-110179057D01*
X163100500Y-110020943D01*
X163059577Y-109868216D01*
X162980520Y-109731284D01*
X162868716Y-109619480D01*
X162731784Y-109540423D01*
X162579057Y-109499500D01*
X162420943Y-109499500D01*
X162268216Y-109540423D01*
X162209193Y-109574500D01*
X162131281Y-109619482D01*
X162055259Y-109695504D01*
X162000742Y-109723281D01*
X161985256Y-109724500D01*
X161577188Y-109724500D01*
X161518997Y-109705593D01*
X161507190Y-109695509D01*
X161447483Y-109635802D01*
X161414096Y-109619480D01*
X161342395Y-109584427D01*
X161315139Y-109580456D01*
X161274260Y-109574500D01*
X159807740Y-109574500D01*
X159773673Y-109579463D01*
X159739604Y-109584427D01*
X159634518Y-109635801D01*
X159634517Y-109635801D01*
X159634517Y-109635802D01*
X159551802Y-109718517D01*
X159551801Y-109718518D01*
X159549816Y-109720504D01*
X159495299Y-109748281D01*
X159479812Y-109749500D01*
X152686190Y-109749500D01*
X152627999Y-109730593D01*
X152616186Y-109720504D01*
X150251040Y-107355358D01*
X150223263Y-107300841D01*
X150232834Y-107240409D01*
X150251038Y-107215353D01*
X150303050Y-107163342D01*
X150360646Y-107050304D01*
X150375500Y-106956519D01*
X150375499Y-106493482D01*
X150368315Y-106448118D01*
X150360647Y-106399700D01*
X150360646Y-106399698D01*
X150360646Y-106399696D01*
X150303050Y-106286658D01*
X150213342Y-106196950D01*
X150100304Y-106139354D01*
X150100305Y-106139354D01*
X150006522Y-106124500D01*
X149393479Y-106124500D01*
X149393476Y-106124501D01*
X149299700Y-106139352D01*
X149299695Y-106139354D01*
X149186659Y-106196949D01*
X149096949Y-106286659D01*
X149050649Y-106377526D01*
X149007384Y-106420790D01*
X148946952Y-106430361D01*
X148892435Y-106402583D01*
X148864659Y-106348066D01*
X148859719Y-106316875D01*
X148859716Y-106316867D01*
X148798529Y-106196782D01*
X148798528Y-106196780D01*
X148703220Y-106101472D01*
X148703217Y-106101470D01*
X148583132Y-106040283D01*
X148583127Y-106040281D01*
X148583126Y-106040281D01*
X148549913Y-106035020D01*
X148483490Y-106024500D01*
X148483488Y-106024500D01*
X147916512Y-106024500D01*
X147916510Y-106024500D01*
X147816870Y-106040281D01*
X147813496Y-106041378D01*
X147809952Y-106041377D01*
X147809180Y-106041500D01*
X147809160Y-106041377D01*
X147752311Y-106041373D01*
X147712907Y-106017225D01*
X147278278Y-105582596D01*
X147250501Y-105528079D01*
X147260071Y-105467650D01*
X147300951Y-105387420D01*
X147301579Y-105383453D01*
X147525000Y-105383453D01*
X147540760Y-105482965D01*
X147540762Y-105482969D01*
X147601881Y-105602921D01*
X147697078Y-105698118D01*
X147817030Y-105759237D01*
X147817029Y-105759237D01*
X147916546Y-105774999D01*
X147946000Y-105774999D01*
X147946000Y-105379001D01*
X147945999Y-105379000D01*
X147525002Y-105379000D01*
X147525001Y-105379001D01*
X147525001Y-105383453D01*
X147525000Y-105383453D01*
X147301579Y-105383453D01*
X147316500Y-105289246D01*
X147316500Y-104866546D01*
X147525000Y-104866546D01*
X147525000Y-104870999D01*
X147525001Y-104871000D01*
X147945999Y-104871000D01*
X147946000Y-104870999D01*
X147946000Y-104475000D01*
X147916547Y-104475000D01*
X147916544Y-104475001D01*
X147817034Y-104490760D01*
X147817030Y-104490762D01*
X147697078Y-104551881D01*
X147601881Y-104647078D01*
X147540762Y-104767030D01*
X147525000Y-104866546D01*
X147316500Y-104866546D01*
X147316500Y-104785754D01*
X147313534Y-104767030D01*
X147309699Y-104742814D01*
X147300951Y-104687580D01*
X147240658Y-104569249D01*
X147146751Y-104475342D01*
X147119587Y-104461501D01*
X147028423Y-104415050D01*
X147028420Y-104415049D01*
X147000010Y-104410549D01*
X146945495Y-104382770D01*
X146917718Y-104328252D01*
X146916500Y-104312768D01*
X146916500Y-103389743D01*
X146935407Y-103331552D01*
X146945490Y-103319745D01*
X146996520Y-103268716D01*
X147075577Y-103131784D01*
X147116500Y-102979057D01*
X147116500Y-102820943D01*
X147075577Y-102668216D01*
X146996520Y-102531284D01*
X146884716Y-102419480D01*
X146747784Y-102340423D01*
X146595057Y-102299500D01*
X146436943Y-102299500D01*
X146386085Y-102313127D01*
X146360464Y-102316500D01*
X144220700Y-102316500D01*
X144162509Y-102297593D01*
X144126545Y-102248093D01*
X144121700Y-102217500D01*
X144121700Y-101897253D01*
X144121698Y-101897241D01*
X144109579Y-101836315D01*
X144109579Y-101797685D01*
X144121698Y-101736758D01*
X144121700Y-101736746D01*
X144121700Y-101397253D01*
X144121698Y-101397241D01*
X144109579Y-101336315D01*
X144109579Y-101297685D01*
X144121698Y-101236758D01*
X144121700Y-101236746D01*
X144121700Y-101016500D01*
X144126545Y-101001588D01*
X144126545Y-100985907D01*
X144135761Y-100973221D01*
X144140607Y-100958309D01*
X144153292Y-100949092D01*
X144162509Y-100936407D01*
X144177421Y-100931561D01*
X144190107Y-100922345D01*
X144220700Y-100917500D01*
X144303414Y-100917500D01*
X144361605Y-100936407D01*
X144397569Y-100985907D01*
X144399040Y-100990876D01*
X144410832Y-101034883D01*
X144414423Y-101048284D01*
X144493480Y-101185216D01*
X144605284Y-101297020D01*
X144742216Y-101376077D01*
X144894943Y-101417000D01*
X144894945Y-101417000D01*
X145053055Y-101417000D01*
X145053057Y-101417000D01*
X145205784Y-101376077D01*
X145342716Y-101297020D01*
X145454520Y-101185216D01*
X145471292Y-101156164D01*
X145489439Y-101139824D01*
X145505299Y-101121254D01*
X145511795Y-101119694D01*
X145516760Y-101115224D01*
X145541045Y-101112670D01*
X145564793Y-101106969D01*
X145570965Y-101109525D01*
X145577610Y-101108827D01*
X145621322Y-101130382D01*
X145710003Y-101206118D01*
X145715714Y-101211396D01*
X145720818Y-101216500D01*
X145720817Y-101216500D01*
X145720820Y-101216502D01*
X145810403Y-101306095D01*
X145819147Y-101314840D01*
X145819147Y-101314839D01*
X145851779Y-101347475D01*
X145851823Y-101347500D01*
X145865923Y-101361595D01*
X145865929Y-101361607D01*
X145865940Y-101361613D01*
X145869444Y-101365117D01*
X145876657Y-101372331D01*
X145971102Y-101440960D01*
X146011366Y-101470218D01*
X146041923Y-101512282D01*
X146043551Y-101511487D01*
X146046926Y-101518392D01*
X146046927Y-101518393D01*
X146098302Y-101623483D01*
X146181017Y-101706198D01*
X146205752Y-101718290D01*
X146286104Y-101757572D01*
X146286105Y-101757572D01*
X146286107Y-101757573D01*
X146354240Y-101767500D01*
X146354243Y-101767500D01*
X147445757Y-101767500D01*
X147445760Y-101767500D01*
X147513893Y-101757573D01*
X147618983Y-101706198D01*
X147701698Y-101623483D01*
X147753073Y-101518393D01*
X147763000Y-101450260D01*
X147763000Y-101083740D01*
X147753073Y-101015607D01*
X147745687Y-101000499D01*
X147714355Y-100936407D01*
X147701698Y-100910517D01*
X147653182Y-100862001D01*
X147625407Y-100807487D01*
X147634978Y-100747055D01*
X147653181Y-100721999D01*
X147701698Y-100673483D01*
X147753073Y-100568393D01*
X147763000Y-100500260D01*
X147763000Y-100133740D01*
X147753073Y-100065607D01*
X147750947Y-100061259D01*
X147718910Y-99995725D01*
X147701698Y-99960517D01*
X147653182Y-99912001D01*
X147625407Y-99857487D01*
X147634978Y-99797055D01*
X147653181Y-99771999D01*
X147701698Y-99723483D01*
X147753073Y-99618393D01*
X147763000Y-99550260D01*
X147763000Y-99183740D01*
X147753073Y-99115607D01*
X147701698Y-99010517D01*
X147618983Y-98927802D01*
X147597910Y-98917500D01*
X147513895Y-98876427D01*
X147486639Y-98872456D01*
X147445760Y-98866500D01*
X146354240Y-98866500D01*
X146320173Y-98871463D01*
X146286104Y-98876427D01*
X146181018Y-98927801D01*
X146098301Y-99010518D01*
X146085632Y-99036434D01*
X146046927Y-99115607D01*
X146046926Y-99115608D01*
X146043551Y-99122514D01*
X146041057Y-99121295D01*
X146013106Y-99160921D01*
X145998751Y-99169858D01*
X145954047Y-99192639D01*
X145799055Y-99305256D01*
X145760696Y-99343619D01*
X145706181Y-99371399D01*
X145645748Y-99361829D01*
X145602482Y-99318566D01*
X145591690Y-99273618D01*
X145591690Y-99231807D01*
X145589470Y-99223521D01*
X145550767Y-99079079D01*
X145471710Y-98942147D01*
X145359906Y-98830343D01*
X145222974Y-98751286D01*
X145070247Y-98710363D01*
X144912133Y-98710363D01*
X144759406Y-98751286D01*
X144622474Y-98830343D01*
X144510670Y-98942147D01*
X144431613Y-99079079D01*
X144414451Y-99143124D01*
X144412981Y-99145389D01*
X144412981Y-99148093D01*
X144396444Y-99170853D01*
X144381129Y-99194437D01*
X144378606Y-99195405D01*
X144377017Y-99197593D01*
X144350255Y-99206287D01*
X144324007Y-99216364D01*
X144318826Y-99216500D01*
X144220700Y-99216500D01*
X144162509Y-99197593D01*
X144126545Y-99148093D01*
X144121700Y-99117500D01*
X144121700Y-98897253D01*
X144121698Y-98897241D01*
X144109579Y-98836315D01*
X144109579Y-98797685D01*
X144121698Y-98736758D01*
X144121700Y-98736746D01*
X144121700Y-98416500D01*
X144140607Y-98358309D01*
X144190107Y-98322345D01*
X144220700Y-98317500D01*
X146010256Y-98317500D01*
X146068447Y-98336407D01*
X146080259Y-98346496D01*
X146112819Y-98379055D01*
X146131284Y-98397520D01*
X146268216Y-98476577D01*
X146420943Y-98517500D01*
X146420945Y-98517500D01*
X146579055Y-98517500D01*
X146579057Y-98517500D01*
X146731784Y-98476577D01*
X146868716Y-98397520D01*
X146980520Y-98285716D01*
X147059577Y-98148784D01*
X147078687Y-98077461D01*
X147104307Y-98033084D01*
X149328939Y-95808453D01*
X150825000Y-95808453D01*
X150840760Y-95907965D01*
X150840762Y-95907969D01*
X150901881Y-96027921D01*
X150997078Y-96123118D01*
X151117030Y-96184237D01*
X151117029Y-96184237D01*
X151216546Y-96199999D01*
X151246000Y-96199999D01*
X151246000Y-95804001D01*
X151245999Y-95804000D01*
X150825002Y-95804000D01*
X150825001Y-95804001D01*
X150825001Y-95808453D01*
X150825000Y-95808453D01*
X149328939Y-95808453D01*
X149845846Y-95291546D01*
X150825000Y-95291546D01*
X150825000Y-95295999D01*
X150825001Y-95296000D01*
X151245999Y-95296000D01*
X151246000Y-95295999D01*
X151246000Y-94900000D01*
X151216547Y-94900000D01*
X151216544Y-94900001D01*
X151117034Y-94915760D01*
X151117030Y-94915762D01*
X150997078Y-94976881D01*
X150901881Y-95072078D01*
X150840762Y-95192030D01*
X150825000Y-95291546D01*
X149845846Y-95291546D01*
X150632897Y-94504495D01*
X150687414Y-94476718D01*
X150702901Y-94475499D01*
X151002521Y-94475499D01*
X151002522Y-94475498D01*
X151054308Y-94467297D01*
X151096299Y-94460647D01*
X151096299Y-94460646D01*
X151096304Y-94460646D01*
X151209342Y-94403050D01*
X151299050Y-94313342D01*
X151356646Y-94200304D01*
X151371500Y-94106519D01*
X151371499Y-93493482D01*
X151371498Y-93493478D01*
X151371498Y-93493476D01*
X151356647Y-93399700D01*
X151356646Y-93399698D01*
X151356646Y-93399696D01*
X151299050Y-93286658D01*
X151209342Y-93196950D01*
X151096304Y-93139354D01*
X151096305Y-93139354D01*
X151002522Y-93124500D01*
X150539479Y-93124500D01*
X150539476Y-93124501D01*
X150445700Y-93139352D01*
X150445695Y-93139354D01*
X150332659Y-93196949D01*
X150242949Y-93286659D01*
X150185354Y-93399695D01*
X150170500Y-93493478D01*
X150170500Y-93793098D01*
X150151593Y-93851289D01*
X150141504Y-93863102D01*
X146705477Y-97299128D01*
X146650960Y-97326905D01*
X146609851Y-97324751D01*
X146579057Y-97316500D01*
X146420943Y-97316500D01*
X146288108Y-97352093D01*
X146268216Y-97357423D01*
X146131281Y-97436482D01*
X146080259Y-97487504D01*
X146025742Y-97515281D01*
X146010256Y-97516500D01*
X144220200Y-97516500D01*
X144162009Y-97497593D01*
X144126045Y-97448093D01*
X144121200Y-97417500D01*
X144121200Y-97371001D01*
X144121199Y-97371000D01*
X142679495Y-97371000D01*
X142621304Y-97352093D01*
X142585340Y-97302593D01*
X142583869Y-97297624D01*
X142583837Y-97297505D01*
X142583836Y-97297504D01*
X142583836Y-97297502D01*
X142539667Y-97220998D01*
X142477202Y-97158533D01*
X142400698Y-97114364D01*
X142315369Y-97091500D01*
X142227031Y-97091500D01*
X142141702Y-97114364D01*
X142065198Y-97158533D01*
X142002733Y-97220998D01*
X141958564Y-97297502D01*
X141935700Y-97382831D01*
X141935700Y-97471169D01*
X141958564Y-97556498D01*
X142002733Y-97633002D01*
X142065198Y-97695467D01*
X142141702Y-97739636D01*
X142227031Y-97762500D01*
X142227032Y-97762500D01*
X142315368Y-97762500D01*
X142315369Y-97762500D01*
X142400698Y-97739636D01*
X142422200Y-97727222D01*
X142482048Y-97714500D01*
X142537944Y-97739386D01*
X142568537Y-97792374D01*
X142570700Y-97812958D01*
X142570700Y-98117500D01*
X142551793Y-98175691D01*
X142502293Y-98211655D01*
X142471700Y-98216500D01*
X141636190Y-98216500D01*
X141577999Y-98197593D01*
X141566186Y-98187504D01*
X141279496Y-97900814D01*
X141251719Y-97846297D01*
X141250500Y-97830810D01*
X141250500Y-95925591D01*
X141521200Y-95925591D01*
X141521200Y-96068408D01*
X141549061Y-96208474D01*
X141549061Y-96208476D01*
X141603711Y-96340413D01*
X141603711Y-96340414D01*
X141683056Y-96459160D01*
X141683059Y-96459164D01*
X141784035Y-96560140D01*
X141784039Y-96560143D01*
X141826278Y-96588367D01*
X142131182Y-96283463D01*
X142181704Y-96297000D01*
X142824752Y-96297000D01*
X142399753Y-96722000D01*
X142472200Y-96722000D01*
X142530391Y-96740907D01*
X142566355Y-96790407D01*
X142571200Y-96821000D01*
X142571200Y-96862999D01*
X142571201Y-96863000D01*
X144121199Y-96863000D01*
X144121200Y-96862999D01*
X144121200Y-96797302D01*
X144121199Y-96797299D01*
X144109596Y-96738963D01*
X144065393Y-96672810D01*
X144065389Y-96672806D01*
X143999236Y-96628603D01*
X143940900Y-96617000D01*
X143939095Y-96617000D01*
X143938311Y-96616745D01*
X143936062Y-96616524D01*
X143936110Y-96616030D01*
X143880904Y-96598093D01*
X143844940Y-96548593D01*
X143844940Y-96487407D01*
X143856780Y-96462998D01*
X143938688Y-96340414D01*
X143938688Y-96340413D01*
X143993338Y-96208476D01*
X143993338Y-96208474D01*
X144021199Y-96068408D01*
X144021200Y-96068405D01*
X144021200Y-95925594D01*
X144021199Y-95925591D01*
X143993338Y-95785525D01*
X143993338Y-95785523D01*
X143938688Y-95653586D01*
X143938688Y-95653585D01*
X143859343Y-95534839D01*
X143859336Y-95534830D01*
X143758360Y-95433855D01*
X143716120Y-95405631D01*
X143411215Y-95710536D01*
X143360696Y-95697000D01*
X142181704Y-95697000D01*
X142131184Y-95710536D01*
X141826279Y-95405631D01*
X141784037Y-95433857D01*
X141683063Y-95534830D01*
X141683056Y-95534839D01*
X141603711Y-95653585D01*
X141603711Y-95653586D01*
X141549061Y-95785523D01*
X141549061Y-95785525D01*
X141521200Y-95925591D01*
X141250500Y-95925591D01*
X141250500Y-95272000D01*
X142399753Y-95272000D01*
X142771200Y-95643447D01*
X143142647Y-95272000D01*
X142399753Y-95272000D01*
X141250500Y-95272000D01*
X141250500Y-94448189D01*
X141269407Y-94389998D01*
X141279490Y-94378191D01*
X141810186Y-93847494D01*
X141864703Y-93819718D01*
X141880190Y-93818499D01*
X142250521Y-93818499D01*
X142250522Y-93818498D01*
X142297411Y-93811072D01*
X142344299Y-93803647D01*
X142344299Y-93803646D01*
X142344304Y-93803646D01*
X142457342Y-93746050D01*
X142547050Y-93656342D01*
X142604646Y-93543304D01*
X142619500Y-93449519D01*
X142619499Y-92987477D01*
X144062500Y-92987477D01*
X144062500Y-93450520D01*
X144062501Y-93450523D01*
X144077352Y-93544299D01*
X144077354Y-93544304D01*
X144134950Y-93657342D01*
X144224658Y-93747050D01*
X144333447Y-93802481D01*
X144376710Y-93845744D01*
X144387500Y-93890689D01*
X144387500Y-94684143D01*
X144406811Y-94756213D01*
X144406811Y-94756214D01*
X144411383Y-94773281D01*
X144411385Y-94773284D01*
X144411386Y-94773288D01*
X144457530Y-94853212D01*
X145620505Y-96016187D01*
X145648281Y-96070702D01*
X145649500Y-96086189D01*
X145649500Y-96229057D01*
X145690423Y-96381784D01*
X145769480Y-96518716D01*
X145881284Y-96630520D01*
X146018216Y-96709577D01*
X146170943Y-96750500D01*
X146170945Y-96750500D01*
X146329055Y-96750500D01*
X146329057Y-96750500D01*
X146481784Y-96709577D01*
X146618716Y-96630520D01*
X146730520Y-96518716D01*
X146809577Y-96381784D01*
X146850500Y-96229057D01*
X146850500Y-96070943D01*
X146809577Y-95918216D01*
X146730520Y-95781284D01*
X146618716Y-95669480D01*
X146481784Y-95590423D01*
X146329057Y-95549500D01*
X146186190Y-95549500D01*
X146127999Y-95530593D01*
X146116186Y-95520504D01*
X145117496Y-94521814D01*
X145089719Y-94467297D01*
X145088500Y-94451810D01*
X145088500Y-93890689D01*
X145107407Y-93832498D01*
X145142552Y-93802481D01*
X145251342Y-93747050D01*
X145341050Y-93657342D01*
X145398646Y-93544304D01*
X145413500Y-93450519D01*
X145413499Y-92987482D01*
X145413499Y-92987481D01*
X145413499Y-92987477D01*
X145413341Y-92986477D01*
X146729500Y-92986477D01*
X146729500Y-93449520D01*
X146729501Y-93449523D01*
X146744352Y-93543299D01*
X146744354Y-93543304D01*
X146801950Y-93656342D01*
X146891658Y-93746050D01*
X147004696Y-93803646D01*
X147098481Y-93818500D01*
X147711518Y-93818499D01*
X147711520Y-93818499D01*
X147711520Y-93818498D01*
X147805304Y-93803646D01*
X147867933Y-93771733D01*
X147928363Y-93762162D01*
X147962377Y-93774206D01*
X147968216Y-93777577D01*
X148120943Y-93818500D01*
X148120945Y-93818500D01*
X148279055Y-93818500D01*
X148279057Y-93818500D01*
X148431784Y-93777577D01*
X148568716Y-93698520D01*
X148680520Y-93586716D01*
X148759577Y-93449784D01*
X148800500Y-93297057D01*
X148800500Y-93138943D01*
X148759577Y-92986216D01*
X148680520Y-92849284D01*
X148568716Y-92737480D01*
X148431784Y-92658423D01*
X148279057Y-92617500D01*
X148120943Y-92617500D01*
X147968216Y-92658423D01*
X147968215Y-92658423D01*
X147968213Y-92658424D01*
X147962375Y-92661795D01*
X147902526Y-92674513D01*
X147867934Y-92664265D01*
X147805307Y-92632355D01*
X147805305Y-92632354D01*
X147711522Y-92617500D01*
X147098479Y-92617500D01*
X147098476Y-92617501D01*
X147004700Y-92632352D01*
X147004695Y-92632354D01*
X146891659Y-92689949D01*
X146801949Y-92779659D01*
X146744354Y-92892695D01*
X146729500Y-92986477D01*
X145413341Y-92986477D01*
X145398647Y-92893700D01*
X145398646Y-92893698D01*
X145398646Y-92893696D01*
X145341050Y-92780658D01*
X145251342Y-92690950D01*
X145138304Y-92633354D01*
X145138305Y-92633354D01*
X145044522Y-92618500D01*
X144431479Y-92618500D01*
X144431476Y-92618501D01*
X144337700Y-92633352D01*
X144337695Y-92633354D01*
X144224659Y-92690949D01*
X144134949Y-92780659D01*
X144077354Y-92893695D01*
X144062500Y-92987477D01*
X142619499Y-92987477D01*
X142619499Y-92986482D01*
X142619498Y-92986478D01*
X142619498Y-92986476D01*
X142604647Y-92892700D01*
X142604646Y-92892698D01*
X142604646Y-92892696D01*
X142547050Y-92779658D01*
X142457342Y-92689950D01*
X142344304Y-92632354D01*
X142344305Y-92632354D01*
X142250522Y-92617500D01*
X141637479Y-92617500D01*
X141637476Y-92617501D01*
X141543700Y-92632352D01*
X141543695Y-92632354D01*
X141430659Y-92689949D01*
X141340949Y-92779659D01*
X141283354Y-92892695D01*
X141268500Y-92986478D01*
X141268500Y-93356809D01*
X141249593Y-93415000D01*
X141239504Y-93426813D01*
X140619504Y-94046814D01*
X140564987Y-94074591D01*
X140504555Y-94065020D01*
X140461290Y-94021755D01*
X140450500Y-93976810D01*
X140450500Y-93614855D01*
X140450499Y-93614853D01*
X140445389Y-93595781D01*
X140446555Y-93551337D01*
X140444427Y-93551000D01*
X140453537Y-93493479D01*
X140460500Y-93449519D01*
X140460499Y-92986482D01*
X140460498Y-92986478D01*
X140460498Y-92986476D01*
X140445647Y-92892700D01*
X140445646Y-92892698D01*
X140445646Y-92892696D01*
X140388050Y-92779658D01*
X140298342Y-92689950D01*
X140185304Y-92632354D01*
X140185305Y-92632354D01*
X140091522Y-92617500D01*
X139478479Y-92617500D01*
X139478476Y-92617501D01*
X139384700Y-92632352D01*
X139384695Y-92632354D01*
X139271659Y-92689949D01*
X139181949Y-92779659D01*
X139124354Y-92892695D01*
X139109500Y-92986477D01*
X139109500Y-93449520D01*
X139109501Y-93449523D01*
X139124352Y-93543299D01*
X139124354Y-93543304D01*
X139181950Y-93656342D01*
X139271658Y-93746050D01*
X139384696Y-93803646D01*
X139478481Y-93818500D01*
X139650500Y-93818499D01*
X139708690Y-93837406D01*
X139744654Y-93886906D01*
X139749500Y-93917499D01*
X139749500Y-95426343D01*
X139730593Y-95484534D01*
X139681093Y-95520498D01*
X139619907Y-95520498D01*
X139580496Y-95496347D01*
X139537420Y-95453271D01*
X139422771Y-95376666D01*
X139295383Y-95323901D01*
X139160144Y-95297000D01*
X138845201Y-95297000D01*
X138845200Y-95297001D01*
X138845200Y-95697000D01*
X138337200Y-95697000D01*
X138337200Y-95297001D01*
X138337199Y-95297000D01*
X138022255Y-95297000D01*
X137887016Y-95323901D01*
X137759628Y-95376666D01*
X137644979Y-95453271D01*
X137547471Y-95550779D01*
X137470866Y-95665428D01*
X137438735Y-95742999D01*
X136094500Y-95742999D01*
X136094500Y-92457001D01*
X150171001Y-92457001D01*
X150171001Y-92509485D01*
X150185833Y-92603141D01*
X150185836Y-92603151D01*
X150243358Y-92716043D01*
X150332956Y-92805641D01*
X150445848Y-92863163D01*
X150445853Y-92863165D01*
X150517000Y-92874432D01*
X150517000Y-92457001D01*
X151025000Y-92457001D01*
X151025000Y-92874431D01*
X151096146Y-92863165D01*
X151209044Y-92805640D01*
X151298641Y-92716043D01*
X151356163Y-92603151D01*
X151356164Y-92603147D01*
X151371000Y-92509484D01*
X151371000Y-92457001D01*
X151370999Y-92457000D01*
X151025001Y-92457000D01*
X151025000Y-92457001D01*
X150517000Y-92457001D01*
X150516999Y-92457000D01*
X150171002Y-92457000D01*
X150171001Y-92457001D01*
X136094500Y-92457001D01*
X136094500Y-91822000D01*
X139113567Y-91822000D01*
X139124834Y-91893146D01*
X139124836Y-91893151D01*
X139182358Y-92006043D01*
X139271956Y-92095641D01*
X139384848Y-92153163D01*
X139384852Y-92153164D01*
X139478516Y-92167999D01*
X139530999Y-92167998D01*
X139531000Y-92167998D01*
X139531000Y-91822001D01*
X140039000Y-91822001D01*
X140039000Y-92167998D01*
X140039001Y-92167999D01*
X140091483Y-92167999D01*
X140091485Y-92167998D01*
X140185141Y-92153166D01*
X140185151Y-92153163D01*
X140298043Y-92095641D01*
X140387641Y-92006043D01*
X140445163Y-91893151D01*
X140445165Y-91893146D01*
X140456433Y-91822000D01*
X141272567Y-91822000D01*
X141283834Y-91893146D01*
X141283836Y-91893151D01*
X141341358Y-92006043D01*
X141430956Y-92095641D01*
X141543848Y-92153163D01*
X141543852Y-92153164D01*
X141637516Y-92167999D01*
X141689999Y-92167998D01*
X141690000Y-92167998D01*
X141690000Y-91822001D01*
X142198000Y-91822001D01*
X142198000Y-92167998D01*
X142198001Y-92167999D01*
X142250483Y-92167999D01*
X142250485Y-92167998D01*
X142344141Y-92153166D01*
X142344151Y-92153163D01*
X142457043Y-92095641D01*
X142546641Y-92006043D01*
X142604163Y-91893151D01*
X142604165Y-91893146D01*
X142615433Y-91822000D01*
X142198001Y-91822000D01*
X142198000Y-91822001D01*
X141690000Y-91822001D01*
X141689999Y-91822000D01*
X141272567Y-91822000D01*
X140456433Y-91822000D01*
X140039001Y-91822000D01*
X140039000Y-91822001D01*
X139531000Y-91822001D01*
X139530999Y-91822000D01*
X139113567Y-91822000D01*
X136094500Y-91822000D01*
X136094500Y-91314000D01*
X139113567Y-91314000D01*
X139530999Y-91314000D01*
X139531000Y-91313999D01*
X139531000Y-90968001D01*
X140039000Y-90968001D01*
X140039000Y-91313999D01*
X140039001Y-91314000D01*
X140456432Y-91314000D01*
X141272567Y-91314000D01*
X141689999Y-91314000D01*
X141690000Y-91313999D01*
X141690000Y-90968001D01*
X142198000Y-90968001D01*
X142198000Y-91313999D01*
X142198001Y-91314000D01*
X142615432Y-91314000D01*
X142604165Y-91242853D01*
X142604163Y-91242848D01*
X142546641Y-91129956D01*
X142457043Y-91040358D01*
X142344151Y-90982836D01*
X142344147Y-90982835D01*
X142250484Y-90968000D01*
X142198001Y-90968000D01*
X142198000Y-90968001D01*
X141690000Y-90968001D01*
X141690000Y-90967999D01*
X141637518Y-90968000D01*
X141637513Y-90968001D01*
X141543858Y-90982833D01*
X141543848Y-90982836D01*
X141430956Y-91040358D01*
X141341358Y-91129956D01*
X141283836Y-91242848D01*
X141283834Y-91242853D01*
X141272567Y-91314000D01*
X140456432Y-91314000D01*
X140445165Y-91242853D01*
X140445163Y-91242848D01*
X140387641Y-91129956D01*
X140298043Y-91040358D01*
X140185151Y-90982836D01*
X140185147Y-90982835D01*
X140091484Y-90968000D01*
X140039001Y-90968000D01*
X140039000Y-90968001D01*
X139531000Y-90968001D01*
X139531000Y-90967999D01*
X139478518Y-90968000D01*
X139478513Y-90968001D01*
X139384858Y-90982833D01*
X139384848Y-90982836D01*
X139271956Y-91040358D01*
X139182358Y-91129956D01*
X139124836Y-91242848D01*
X139124834Y-91242853D01*
X139113567Y-91314000D01*
X136094500Y-91314000D01*
X136094500Y-88852751D01*
X139918500Y-88852751D01*
X139918500Y-89356248D01*
X139934049Y-89454419D01*
X139934050Y-89454423D01*
X139946601Y-89479055D01*
X139994342Y-89572751D01*
X140088249Y-89666658D01*
X140206580Y-89726951D01*
X140273130Y-89737491D01*
X140304751Y-89742500D01*
X140304754Y-89742500D01*
X140883249Y-89742500D01*
X140911803Y-89737976D01*
X140981420Y-89726951D01*
X141099751Y-89666658D01*
X141165361Y-89601047D01*
X141219875Y-89573271D01*
X141280307Y-89582842D01*
X141305363Y-89601045D01*
X143553788Y-91849470D01*
X143591749Y-91871387D01*
X143629710Y-91893304D01*
X143629713Y-91893305D01*
X143633712Y-91895614D01*
X143722856Y-91919500D01*
X144029525Y-91919500D01*
X144087716Y-91938407D01*
X144117734Y-91973554D01*
X144134950Y-92007342D01*
X144224658Y-92097050D01*
X144337696Y-92154646D01*
X144431481Y-92169500D01*
X145044518Y-92169499D01*
X145044520Y-92169499D01*
X145044521Y-92169498D01*
X145091411Y-92162072D01*
X145138299Y-92154647D01*
X145138299Y-92154646D01*
X145138304Y-92154646D01*
X145251342Y-92097050D01*
X145341050Y-92007342D01*
X145398646Y-91894304D01*
X145413500Y-91800519D01*
X145413499Y-91683687D01*
X145432406Y-91625499D01*
X145481906Y-91589535D01*
X145543091Y-91589534D01*
X145582502Y-91613685D01*
X145762004Y-91793186D01*
X145817288Y-91848470D01*
X145897212Y-91894614D01*
X145986356Y-91918500D01*
X146078644Y-91918500D01*
X146696525Y-91918500D01*
X146754716Y-91937407D01*
X146784734Y-91972554D01*
X146801950Y-92006342D01*
X146891658Y-92096050D01*
X147004696Y-92153646D01*
X147098481Y-92168500D01*
X147711518Y-92168499D01*
X147711520Y-92168499D01*
X147711521Y-92168498D01*
X147758411Y-92161072D01*
X147805299Y-92153647D01*
X147805299Y-92153646D01*
X147805304Y-92153646D01*
X147918342Y-92096050D01*
X148008050Y-92006342D01*
X148064010Y-91896515D01*
X150171000Y-91896515D01*
X150171000Y-91948999D01*
X150171001Y-91949000D01*
X150516999Y-91949000D01*
X150517000Y-91948999D01*
X151025000Y-91948999D01*
X151025001Y-91949000D01*
X151370998Y-91949000D01*
X151370999Y-91948999D01*
X151370999Y-91896516D01*
X151370998Y-91896514D01*
X151356166Y-91802858D01*
X151356163Y-91802848D01*
X151298641Y-91689956D01*
X151209043Y-91600358D01*
X151096148Y-91542835D01*
X151096149Y-91542835D01*
X151025000Y-91531566D01*
X151025000Y-91948999D01*
X150517000Y-91948999D01*
X150517000Y-91531567D01*
X150445853Y-91542834D01*
X150445848Y-91542836D01*
X150332956Y-91600358D01*
X150243358Y-91689956D01*
X150185836Y-91802848D01*
X150185835Y-91802852D01*
X150171000Y-91896515D01*
X148064010Y-91896515D01*
X148065646Y-91893304D01*
X148080500Y-91799519D01*
X148080499Y-91336482D01*
X148078722Y-91325263D01*
X148065647Y-91242700D01*
X148065646Y-91242698D01*
X148065646Y-91242696D01*
X148008050Y-91129658D01*
X147918342Y-91039950D01*
X147805304Y-90982354D01*
X147805305Y-90982354D01*
X147711522Y-90967500D01*
X147098479Y-90967500D01*
X147098476Y-90967501D01*
X147004700Y-90982352D01*
X147004695Y-90982354D01*
X146891659Y-91039949D01*
X146801949Y-91129659D01*
X146784734Y-91163446D01*
X146741469Y-91206710D01*
X146696525Y-91217500D01*
X146218690Y-91217500D01*
X146160499Y-91198593D01*
X146148686Y-91188504D01*
X144298496Y-89338314D01*
X144270719Y-89283797D01*
X144269500Y-89268310D01*
X144269500Y-88852751D01*
X144261602Y-88802886D01*
X144253951Y-88754580D01*
X144193658Y-88636249D01*
X144099751Y-88542342D01*
X144095631Y-88540243D01*
X143981423Y-88482050D01*
X143981420Y-88482049D01*
X143956876Y-88478161D01*
X143883249Y-88466500D01*
X143883246Y-88466500D01*
X143304754Y-88466500D01*
X143304751Y-88466500D01*
X143206580Y-88482049D01*
X143206576Y-88482050D01*
X143088250Y-88542341D01*
X142994341Y-88636250D01*
X142934050Y-88754576D01*
X142934049Y-88754580D01*
X142918500Y-88852751D01*
X142918500Y-89356248D01*
X142934049Y-89454419D01*
X142934050Y-89454423D01*
X142946601Y-89479055D01*
X142994342Y-89572751D01*
X143088249Y-89666658D01*
X143206580Y-89726951D01*
X143273130Y-89737491D01*
X143304751Y-89742500D01*
X143304754Y-89742500D01*
X143670310Y-89742500D01*
X143728501Y-89761407D01*
X143740314Y-89771496D01*
X144768314Y-90799496D01*
X144796091Y-90854013D01*
X144786520Y-90914445D01*
X144743255Y-90957710D01*
X144698310Y-90968500D01*
X144431479Y-90968500D01*
X144431476Y-90968501D01*
X144337700Y-90983352D01*
X144337695Y-90983354D01*
X144224659Y-91040949D01*
X144134949Y-91130659D01*
X144117734Y-91164446D01*
X144101344Y-91180835D01*
X144087716Y-91199593D01*
X144080117Y-91202061D01*
X144074469Y-91207710D01*
X144029525Y-91218500D01*
X143955190Y-91218500D01*
X143896999Y-91199593D01*
X143885186Y-91189504D01*
X142720182Y-90024500D01*
X141544712Y-88849030D01*
X141464788Y-88802886D01*
X141460377Y-88801704D01*
X141452151Y-88799499D01*
X141452151Y-88799500D01*
X141375644Y-88779000D01*
X141375642Y-88779000D01*
X141327061Y-88779000D01*
X141268870Y-88760093D01*
X141238852Y-88724946D01*
X141198903Y-88646543D01*
X141193658Y-88636249D01*
X141099751Y-88542342D01*
X141095631Y-88540243D01*
X140981423Y-88482050D01*
X140981420Y-88482049D01*
X140956876Y-88478161D01*
X140883249Y-88466500D01*
X140883246Y-88466500D01*
X140304754Y-88466500D01*
X140304751Y-88466500D01*
X140206580Y-88482049D01*
X140206576Y-88482050D01*
X140088250Y-88542341D01*
X139994341Y-88636250D01*
X139934050Y-88754576D01*
X139934049Y-88754580D01*
X139918500Y-88852751D01*
X136094500Y-88852751D01*
X136094500Y-87620943D01*
X138999500Y-87620943D01*
X138999500Y-87779057D01*
X139040423Y-87931784D01*
X139119480Y-88068716D01*
X139231284Y-88180520D01*
X139368216Y-88259577D01*
X139520943Y-88300500D01*
X139520945Y-88300500D01*
X139679055Y-88300500D01*
X139679057Y-88300500D01*
X139831784Y-88259577D01*
X139968716Y-88180520D01*
X140017071Y-88132164D01*
X140071585Y-88104388D01*
X140132016Y-88113958D01*
X140206580Y-88151951D01*
X140273130Y-88162491D01*
X140304751Y-88167500D01*
X140304754Y-88167500D01*
X140883249Y-88167500D01*
X140911803Y-88162976D01*
X140981420Y-88151951D01*
X141099751Y-88091658D01*
X141193658Y-87997751D01*
X141213375Y-87959055D01*
X141256639Y-87915790D01*
X141301584Y-87905000D01*
X142886416Y-87905000D01*
X142944607Y-87923907D01*
X142974625Y-87959055D01*
X142994342Y-87997751D01*
X143088249Y-88091658D01*
X143206580Y-88151951D01*
X143273130Y-88162491D01*
X143304751Y-88167500D01*
X143304754Y-88167500D01*
X143883249Y-88167500D01*
X143911803Y-88162976D01*
X143981420Y-88151951D01*
X144099751Y-88091658D01*
X144193658Y-87997751D01*
X144213375Y-87959055D01*
X144256639Y-87915790D01*
X144301584Y-87905000D01*
X146308599Y-87905000D01*
X146366790Y-87923907D01*
X146378603Y-87933996D01*
X148457087Y-90012480D01*
X148457089Y-90012481D01*
X148457090Y-90012482D01*
X148457091Y-90012483D01*
X148548408Y-90065205D01*
X148548406Y-90065205D01*
X148548410Y-90065206D01*
X148548412Y-90065207D01*
X148650273Y-90092500D01*
X148755727Y-90092500D01*
X153688020Y-90092500D01*
X153746211Y-90111407D01*
X153781465Y-90158805D01*
X153784044Y-90166178D01*
X153790186Y-90174500D01*
X153863570Y-90273930D01*
X153959290Y-90344575D01*
X153994881Y-90394342D01*
X153999500Y-90424229D01*
X153999500Y-94934452D01*
X153980593Y-94992643D01*
X153931093Y-95028607D01*
X153869907Y-95028607D01*
X153830496Y-95004456D01*
X153802921Y-94976881D01*
X153682969Y-94915762D01*
X153682970Y-94915762D01*
X153583454Y-94900000D01*
X153554001Y-94900000D01*
X153554000Y-94900001D01*
X153554000Y-96188599D01*
X153535093Y-96246790D01*
X153525004Y-96258602D01*
X153363104Y-96420503D01*
X153308587Y-96448281D01*
X153293100Y-96449500D01*
X153016510Y-96449500D01*
X152916874Y-96465281D01*
X152916869Y-96465282D01*
X152894444Y-96476709D01*
X152886556Y-96477958D01*
X152880093Y-96482654D01*
X152856907Y-96482654D01*
X152834012Y-96486280D01*
X152826896Y-96482654D01*
X152818907Y-96482654D01*
X152800149Y-96469025D01*
X152779496Y-96458502D01*
X152775870Y-96451385D01*
X152769407Y-96446690D01*
X152762242Y-96424638D01*
X152751719Y-96403985D01*
X152750500Y-96388499D01*
X152750500Y-96260939D01*
X152769407Y-96202748D01*
X152818907Y-96166784D01*
X152880093Y-96166784D01*
X152894447Y-96172730D01*
X152917031Y-96184238D01*
X153016546Y-96199999D01*
X153046000Y-96199999D01*
X153046000Y-94900000D01*
X153016547Y-94900000D01*
X153016544Y-94900001D01*
X152917034Y-94915760D01*
X152917029Y-94915762D01*
X152894444Y-94927270D01*
X152834012Y-94936841D01*
X152779496Y-94909063D01*
X152751719Y-94854546D01*
X152750500Y-94839060D01*
X152750500Y-94519175D01*
X152769407Y-94460984D01*
X152804554Y-94430966D01*
X152804735Y-94430873D01*
X152859342Y-94403050D01*
X152949050Y-94313342D01*
X153006646Y-94200304D01*
X153021500Y-94106519D01*
X153021499Y-93493482D01*
X153021498Y-93493478D01*
X153021498Y-93493476D01*
X153006647Y-93399700D01*
X153006646Y-93399698D01*
X153006646Y-93399696D01*
X152949050Y-93286658D01*
X152859342Y-93196950D01*
X152825554Y-93179734D01*
X152809164Y-93163344D01*
X152790407Y-93149716D01*
X152787938Y-93142117D01*
X152782290Y-93136469D01*
X152771500Y-93091525D01*
X152771500Y-92911474D01*
X152790407Y-92853283D01*
X152825553Y-92823265D01*
X152859342Y-92806050D01*
X152949050Y-92716342D01*
X153006646Y-92603304D01*
X153021500Y-92509519D01*
X153021499Y-91896482D01*
X153013895Y-91848467D01*
X153006647Y-91802700D01*
X153006646Y-91802698D01*
X153006646Y-91802696D01*
X152949050Y-91689658D01*
X152859342Y-91599950D01*
X152746304Y-91542354D01*
X152746305Y-91542354D01*
X152652522Y-91527500D01*
X152189479Y-91527500D01*
X152189476Y-91527501D01*
X152095700Y-91542352D01*
X152095695Y-91542354D01*
X151982659Y-91599949D01*
X151892949Y-91689659D01*
X151835354Y-91802695D01*
X151820500Y-91896477D01*
X151820500Y-92509520D01*
X151820501Y-92509523D01*
X151835352Y-92603299D01*
X151835354Y-92603304D01*
X151892950Y-92716342D01*
X151982658Y-92806050D01*
X152016445Y-92823265D01*
X152032835Y-92839655D01*
X152051593Y-92853283D01*
X152054061Y-92860879D01*
X152059708Y-92866526D01*
X152070500Y-92911474D01*
X152070500Y-93091525D01*
X152051593Y-93149716D01*
X152016446Y-93179734D01*
X151982659Y-93196949D01*
X151892949Y-93286659D01*
X151835354Y-93399695D01*
X151820500Y-93493477D01*
X151820500Y-94106520D01*
X151820501Y-94106523D01*
X151835352Y-94200299D01*
X151835354Y-94200304D01*
X151892950Y-94313342D01*
X151982658Y-94403050D01*
X151982660Y-94403051D01*
X151982661Y-94403052D01*
X151995444Y-94409565D01*
X152038709Y-94452828D01*
X152049500Y-94497775D01*
X152049500Y-94839060D01*
X152030593Y-94897251D01*
X151981093Y-94933215D01*
X151919907Y-94933215D01*
X151905556Y-94927270D01*
X151882970Y-94915762D01*
X151783454Y-94900000D01*
X151754001Y-94900000D01*
X151754000Y-94900001D01*
X151754000Y-96199998D01*
X151754001Y-96199999D01*
X151783453Y-96199999D01*
X151882965Y-96184239D01*
X151882966Y-96184239D01*
X151905553Y-96172730D01*
X151913443Y-96171480D01*
X151919907Y-96166784D01*
X151943093Y-96166784D01*
X151965985Y-96163158D01*
X151973102Y-96166784D01*
X151981093Y-96166784D01*
X151999850Y-96180412D01*
X152020502Y-96190934D01*
X152024128Y-96198051D01*
X152030593Y-96202748D01*
X152037756Y-96224796D01*
X152048281Y-96245450D01*
X152049500Y-96260939D01*
X152049500Y-96388499D01*
X152030593Y-96446690D01*
X151981093Y-96482654D01*
X151919907Y-96482654D01*
X151905556Y-96476709D01*
X151883130Y-96465282D01*
X151883126Y-96465281D01*
X151840325Y-96458502D01*
X151783490Y-96449500D01*
X151783488Y-96449500D01*
X151216512Y-96449500D01*
X151216510Y-96449500D01*
X151116874Y-96465281D01*
X151116867Y-96465283D01*
X150996782Y-96526470D01*
X150901470Y-96621782D01*
X150840283Y-96741867D01*
X150840281Y-96741874D01*
X150824500Y-96841510D01*
X150824500Y-97358489D01*
X150840281Y-97458125D01*
X150840283Y-97458132D01*
X150901470Y-97578217D01*
X150901472Y-97578220D01*
X150996780Y-97673528D01*
X150996782Y-97673529D01*
X151116867Y-97734716D01*
X151116871Y-97734717D01*
X151116874Y-97734719D01*
X151165987Y-97742497D01*
X151220503Y-97770274D01*
X151248281Y-97824790D01*
X151249500Y-97840278D01*
X151249500Y-98542677D01*
X151230593Y-98600868D01*
X151181093Y-98636832D01*
X151176128Y-98638302D01*
X151168221Y-98640421D01*
X151168218Y-98640421D01*
X151047075Y-98710363D01*
X151031284Y-98719480D01*
X150919480Y-98831284D01*
X150840423Y-98968216D01*
X150799500Y-99120943D01*
X150799500Y-99279057D01*
X150840423Y-99431784D01*
X150840424Y-99431785D01*
X150840423Y-99431785D01*
X150846425Y-99442180D01*
X150850208Y-99459978D01*
X150858469Y-99476192D01*
X150856413Y-99489172D01*
X150859146Y-99502029D01*
X150851744Y-99518653D01*
X150848898Y-99536624D01*
X150839605Y-99545916D01*
X150834259Y-99557924D01*
X150818499Y-99567022D01*
X150805633Y-99579889D01*
X150792651Y-99581944D01*
X150781270Y-99588516D01*
X150763172Y-99586613D01*
X150745201Y-99589460D01*
X150733491Y-99583493D01*
X150720420Y-99582120D01*
X150690684Y-99561683D01*
X150551171Y-99422170D01*
X150551154Y-99422150D01*
X150536043Y-99407040D01*
X150536015Y-99406986D01*
X150506283Y-99377256D01*
X150506284Y-99377256D01*
X150437733Y-99308709D01*
X150280872Y-99194751D01*
X150188508Y-99147692D01*
X150108117Y-99106733D01*
X150076663Y-99096514D01*
X150047717Y-99087109D01*
X149998217Y-99051147D01*
X149989368Y-99036434D01*
X149976699Y-99010520D01*
X149976699Y-99010519D01*
X149976698Y-99010518D01*
X149976698Y-99010517D01*
X149893983Y-98927802D01*
X149872910Y-98917500D01*
X149788895Y-98876427D01*
X149761639Y-98872456D01*
X149720760Y-98866500D01*
X148629240Y-98866500D01*
X148595173Y-98871463D01*
X148561104Y-98876427D01*
X148456018Y-98927801D01*
X148373301Y-99010518D01*
X148321927Y-99115604D01*
X148318606Y-99138400D01*
X148312000Y-99183740D01*
X148312000Y-99550260D01*
X148318618Y-99595682D01*
X148321927Y-99618395D01*
X148370935Y-99718642D01*
X148373302Y-99723483D01*
X148422170Y-99772351D01*
X148449946Y-99826866D01*
X148440375Y-99887298D01*
X148422169Y-99912357D01*
X148373713Y-99960812D01*
X148323757Y-100063000D01*
X150026241Y-100063000D01*
X150027328Y-100061259D01*
X150074180Y-100021908D01*
X150135214Y-100017610D01*
X150181313Y-100043677D01*
X150385648Y-100248011D01*
X150385793Y-100248129D01*
X150415837Y-100278174D01*
X150479245Y-100324245D01*
X150481370Y-100325976D01*
X150496549Y-100349495D01*
X150513005Y-100372146D01*
X150513004Y-100374993D01*
X150514548Y-100377384D01*
X150513003Y-100405325D01*
X150513003Y-100433332D01*
X150511328Y-100435636D01*
X150511172Y-100438476D01*
X150493533Y-100460132D01*
X150477052Y-100482820D01*
X150397028Y-100540978D01*
X150397025Y-100540981D01*
X150356804Y-100581212D01*
X150354893Y-100583124D01*
X150349187Y-100588398D01*
X150223391Y-100695847D01*
X150210823Y-100704979D01*
X150143880Y-100746005D01*
X150084386Y-100760290D01*
X150027857Y-100736877D01*
X149995886Y-100684710D01*
X150000685Y-100623713D01*
X150003209Y-100618114D01*
X150026242Y-100571000D01*
X148323757Y-100571000D01*
X148373713Y-100673187D01*
X148422169Y-100721643D01*
X148449946Y-100776160D01*
X148440375Y-100836592D01*
X148422171Y-100861647D01*
X148373302Y-100910517D01*
X148373301Y-100910518D01*
X148321927Y-101015604D01*
X148321373Y-101019407D01*
X148312000Y-101083740D01*
X148312000Y-101450260D01*
X148314908Y-101470218D01*
X148321927Y-101518395D01*
X148367492Y-101611599D01*
X148373302Y-101623483D01*
X148456017Y-101706198D01*
X148480752Y-101718290D01*
X148561104Y-101757572D01*
X148561105Y-101757572D01*
X148561107Y-101757573D01*
X148629240Y-101767500D01*
X148629243Y-101767500D01*
X149711596Y-101767500D01*
X149769787Y-101786407D01*
X149805751Y-101835907D01*
X149807222Y-101892120D01*
X149799500Y-101920943D01*
X149799500Y-102079057D01*
X149840423Y-102231784D01*
X149919480Y-102368716D01*
X150031284Y-102480520D01*
X150168216Y-102559577D01*
X150299542Y-102594765D01*
X150350854Y-102628088D01*
X150372781Y-102685209D01*
X150356946Y-102744310D01*
X150343921Y-102760394D01*
X149419530Y-103684787D01*
X149381029Y-103751473D01*
X149373387Y-103764709D01*
X149373387Y-103764710D01*
X149373386Y-103764712D01*
X149349500Y-103853856D01*
X149349500Y-103853857D01*
X149349500Y-104403310D01*
X149330593Y-104461501D01*
X149295446Y-104491519D01*
X149186659Y-104546949D01*
X149096949Y-104636659D01*
X149035816Y-104756639D01*
X149034460Y-104755948D01*
X149003674Y-104798323D01*
X148945483Y-104817230D01*
X148887292Y-104798323D01*
X148857274Y-104763176D01*
X148798118Y-104647078D01*
X148702921Y-104551881D01*
X148582969Y-104490762D01*
X148582970Y-104490762D01*
X148483454Y-104475000D01*
X148454001Y-104475000D01*
X148454000Y-104475001D01*
X148454000Y-105774998D01*
X148454001Y-105774999D01*
X148483453Y-105774999D01*
X148582965Y-105759239D01*
X148582969Y-105759237D01*
X148702921Y-105698118D01*
X148798118Y-105602921D01*
X148859237Y-105482969D01*
X148859238Y-105482969D01*
X148864273Y-105451176D01*
X148892049Y-105396659D01*
X148946565Y-105368880D01*
X149006997Y-105378451D01*
X149050263Y-105421714D01*
X149050263Y-105421715D01*
X149073667Y-105467647D01*
X149096950Y-105513342D01*
X149186658Y-105603050D01*
X149299696Y-105660646D01*
X149393481Y-105675500D01*
X150006518Y-105675499D01*
X150006520Y-105675499D01*
X150006521Y-105675498D01*
X150053411Y-105668072D01*
X150100299Y-105660647D01*
X150100299Y-105660646D01*
X150100304Y-105660646D01*
X150213342Y-105603050D01*
X150303050Y-105513342D01*
X150360646Y-105400304D01*
X150375500Y-105306519D01*
X150375499Y-104843482D01*
X150371587Y-104818779D01*
X150360647Y-104749700D01*
X150360646Y-104749698D01*
X150360646Y-104749696D01*
X150303050Y-104636658D01*
X150213342Y-104546950D01*
X150161616Y-104520594D01*
X150104554Y-104491519D01*
X150061290Y-104448254D01*
X150050500Y-104403310D01*
X150050500Y-104086188D01*
X150069407Y-104027997D01*
X150079490Y-104016190D01*
X151742969Y-102352712D01*
X151789114Y-102272788D01*
X151797786Y-102240423D01*
X151813000Y-102183644D01*
X151813000Y-102131993D01*
X151831907Y-102073802D01*
X151881407Y-102037838D01*
X151942593Y-102037838D01*
X151979025Y-102059133D01*
X152052855Y-102127050D01*
X152064289Y-102147351D01*
X152078711Y-102165646D01*
X152079379Y-102174144D01*
X152082881Y-102180361D01*
X152081087Y-102195836D01*
X152082928Y-102219223D01*
X152074500Y-102261593D01*
X152074500Y-102485022D01*
X152071127Y-102510640D01*
X152049500Y-102591356D01*
X152049500Y-102591357D01*
X152049500Y-102813810D01*
X152030593Y-102872001D01*
X152020504Y-102883814D01*
X151119528Y-103784790D01*
X151109515Y-103802134D01*
X151099501Y-103819480D01*
X151092398Y-103831783D01*
X151073387Y-103864709D01*
X151073386Y-103864711D01*
X151073386Y-103864712D01*
X151054017Y-103937001D01*
X151049500Y-103953857D01*
X151049500Y-104742814D01*
X151030593Y-104801005D01*
X150981093Y-104836969D01*
X150976126Y-104838440D01*
X150968727Y-104840422D01*
X150855364Y-104905872D01*
X150831794Y-104919480D01*
X150719990Y-105031284D01*
X150640933Y-105168216D01*
X150600010Y-105320943D01*
X150600010Y-105479057D01*
X150640933Y-105631784D01*
X150719990Y-105768716D01*
X150831794Y-105880520D01*
X150968726Y-105959577D01*
X151121453Y-106000500D01*
X151121455Y-106000500D01*
X151279565Y-106000500D01*
X151279567Y-106000500D01*
X151429068Y-105960441D01*
X151490166Y-105963643D01*
X151537716Y-106002148D01*
X151553552Y-106061249D01*
X151531626Y-106118370D01*
X151524692Y-106126071D01*
X151419482Y-106231281D01*
X151419480Y-106231283D01*
X151419480Y-106231284D01*
X151340423Y-106368216D01*
X151299500Y-106520943D01*
X151299500Y-106679057D01*
X151340423Y-106831784D01*
X151419480Y-106968716D01*
X151531284Y-107080520D01*
X151668216Y-107159577D01*
X151820943Y-107200500D01*
X151820945Y-107200500D01*
X151979055Y-107200500D01*
X151979057Y-107200500D01*
X152131784Y-107159577D01*
X152268716Y-107080520D01*
X152380520Y-106968716D01*
X152459577Y-106831784D01*
X152469841Y-106793477D01*
X153024500Y-106793477D01*
X153024500Y-107256520D01*
X153024501Y-107256523D01*
X153039352Y-107350299D01*
X153039354Y-107350304D01*
X153096950Y-107463342D01*
X153186658Y-107553050D01*
X153299696Y-107610646D01*
X153393481Y-107625500D01*
X154006518Y-107625499D01*
X154006520Y-107625499D01*
X154006521Y-107625498D01*
X154053411Y-107618072D01*
X154100299Y-107610647D01*
X154100299Y-107610646D01*
X154100304Y-107610646D01*
X154213342Y-107553050D01*
X154286897Y-107479494D01*
X154341412Y-107451719D01*
X154356899Y-107450500D01*
X154660257Y-107450500D01*
X154718448Y-107469407D01*
X154730254Y-107479490D01*
X154831284Y-107580520D01*
X154968216Y-107659577D01*
X155120943Y-107700500D01*
X155120945Y-107700500D01*
X155279055Y-107700500D01*
X155279057Y-107700500D01*
X155431784Y-107659577D01*
X155568716Y-107580520D01*
X155680520Y-107468716D01*
X155759577Y-107331784D01*
X155800500Y-107179057D01*
X155800500Y-107020943D01*
X155759577Y-106868216D01*
X155680520Y-106731284D01*
X155626556Y-106677320D01*
X155598781Y-106622806D01*
X155608352Y-106562374D01*
X155651617Y-106519109D01*
X155681082Y-106509537D01*
X155682968Y-106509238D01*
X155682969Y-106509237D01*
X155802921Y-106448118D01*
X155898118Y-106352921D01*
X155959237Y-106232969D01*
X155975000Y-106133453D01*
X155975000Y-106129001D01*
X155974999Y-106129000D01*
X154625002Y-106129000D01*
X154625001Y-106129001D01*
X154625001Y-106133453D01*
X154625000Y-106133453D01*
X154640760Y-106232965D01*
X154640762Y-106232969D01*
X154701881Y-106352921D01*
X154797077Y-106448117D01*
X154812036Y-106455739D01*
X154812085Y-106455788D01*
X154812153Y-106455799D01*
X154833757Y-106477460D01*
X154855300Y-106499004D01*
X154855310Y-106499071D01*
X154855360Y-106499121D01*
X154860156Y-106529666D01*
X154864872Y-106559436D01*
X154864841Y-106559496D01*
X154864852Y-106559566D01*
X154864531Y-106560104D01*
X154837095Y-106613952D01*
X154837002Y-106614045D01*
X154831921Y-106619111D01*
X154831284Y-106619480D01*
X154730260Y-106720504D01*
X154730259Y-106720504D01*
X154730168Y-106720596D01*
X154703079Y-106734353D01*
X154675744Y-106748281D01*
X154675639Y-106748289D01*
X154675614Y-106748302D01*
X154675568Y-106748294D01*
X154660257Y-106749500D01*
X154446690Y-106749500D01*
X154388499Y-106730593D01*
X154358481Y-106695446D01*
X154310022Y-106600342D01*
X154303050Y-106586658D01*
X154213342Y-106496950D01*
X154100304Y-106439354D01*
X154100305Y-106439354D01*
X154006522Y-106424500D01*
X153393479Y-106424500D01*
X153393476Y-106424501D01*
X153299700Y-106439352D01*
X153299695Y-106439354D01*
X153186659Y-106496949D01*
X153096949Y-106586659D01*
X153039354Y-106699695D01*
X153024500Y-106793477D01*
X152469841Y-106793477D01*
X152500500Y-106679057D01*
X152500500Y-106520943D01*
X152459577Y-106368216D01*
X152459576Y-106368214D01*
X152459575Y-106368210D01*
X152458036Y-106364495D01*
X152450500Y-106326610D01*
X152450500Y-105143477D01*
X153024500Y-105143477D01*
X153024500Y-105606520D01*
X153024501Y-105606523D01*
X153039352Y-105700299D01*
X153039354Y-105700304D01*
X153096950Y-105813342D01*
X153186658Y-105903050D01*
X153299696Y-105960646D01*
X153393481Y-105975500D01*
X154006518Y-105975499D01*
X154006520Y-105975499D01*
X154006521Y-105975498D01*
X154053411Y-105968072D01*
X154100299Y-105960647D01*
X154100299Y-105960646D01*
X154100304Y-105960646D01*
X154213342Y-105903050D01*
X154303050Y-105813342D01*
X154360646Y-105700304D01*
X154373912Y-105616546D01*
X154625000Y-105616546D01*
X154625000Y-105620999D01*
X154625001Y-105621000D01*
X155045999Y-105621000D01*
X155046000Y-105620999D01*
X155046000Y-105225001D01*
X155554000Y-105225001D01*
X155554000Y-105620999D01*
X155554001Y-105621000D01*
X155974998Y-105621000D01*
X155974999Y-105620999D01*
X155974999Y-105616546D01*
X155959239Y-105517034D01*
X155959237Y-105517030D01*
X155898118Y-105397078D01*
X155802921Y-105301881D01*
X155682969Y-105240762D01*
X155682970Y-105240762D01*
X155583454Y-105225000D01*
X155554001Y-105225000D01*
X155554000Y-105225001D01*
X155046000Y-105225001D01*
X155046000Y-105225000D01*
X155016547Y-105225000D01*
X155016544Y-105225001D01*
X154917034Y-105240760D01*
X154917030Y-105240762D01*
X154797078Y-105301881D01*
X154701881Y-105397078D01*
X154640762Y-105517030D01*
X154625000Y-105616546D01*
X154373912Y-105616546D01*
X154375500Y-105606519D01*
X154375499Y-105236187D01*
X154394406Y-105177997D01*
X154404489Y-105166191D01*
X154664810Y-104905871D01*
X154719325Y-104878095D01*
X154779757Y-104887666D01*
X154793001Y-104895782D01*
X154796775Y-104898523D01*
X154796780Y-104898528D01*
X154832162Y-104916556D01*
X154916867Y-104959716D01*
X154916869Y-104959716D01*
X154916874Y-104959719D01*
X154992541Y-104971703D01*
X155016510Y-104975500D01*
X155016512Y-104975500D01*
X155583490Y-104975500D01*
X155604885Y-104972111D01*
X155683126Y-104959719D01*
X155803220Y-104898528D01*
X155898528Y-104803220D01*
X155959719Y-104683126D01*
X155975500Y-104583488D01*
X155975500Y-104066512D01*
X155959719Y-103966874D01*
X155959716Y-103966869D01*
X155959716Y-103966867D01*
X155898529Y-103846782D01*
X155898528Y-103846780D01*
X155803220Y-103751472D01*
X155803217Y-103751470D01*
X155683132Y-103690283D01*
X155683127Y-103690281D01*
X155683126Y-103690281D01*
X155648438Y-103684787D01*
X155583490Y-103674500D01*
X155583488Y-103674500D01*
X155549500Y-103674500D01*
X155534588Y-103669655D01*
X155518907Y-103669655D01*
X155506221Y-103660438D01*
X155491309Y-103655593D01*
X155482092Y-103642907D01*
X155469407Y-103633691D01*
X155464561Y-103618778D01*
X155455345Y-103606093D01*
X155450500Y-103575500D01*
X155450500Y-103376773D01*
X155469407Y-103318582D01*
X155500003Y-103291035D01*
X155501269Y-103290304D01*
X155518216Y-103280520D01*
X155630020Y-103168716D01*
X155709077Y-103031784D01*
X155750000Y-102879057D01*
X155750000Y-102720943D01*
X155749339Y-102718477D01*
X156124500Y-102718477D01*
X156124500Y-103181520D01*
X156124501Y-103181523D01*
X156139352Y-103275299D01*
X156139354Y-103275304D01*
X156196950Y-103388342D01*
X156286658Y-103478050D01*
X156395447Y-103533481D01*
X156438710Y-103576744D01*
X156449500Y-103621689D01*
X156449500Y-106746144D01*
X156469164Y-106819531D01*
X156473386Y-106835288D01*
X156519530Y-106915212D01*
X158709788Y-109105470D01*
X158789712Y-109151614D01*
X158878856Y-109175500D01*
X159504812Y-109175500D01*
X159563003Y-109194407D01*
X159574809Y-109204490D01*
X159634517Y-109264198D01*
X159688285Y-109290483D01*
X159739604Y-109315572D01*
X159739605Y-109315572D01*
X159739607Y-109315573D01*
X159807740Y-109325500D01*
X159807743Y-109325500D01*
X161274257Y-109325500D01*
X161274260Y-109325500D01*
X161342393Y-109315573D01*
X161447483Y-109264198D01*
X161522929Y-109188751D01*
X161567306Y-109163130D01*
X161610288Y-109151614D01*
X161690212Y-109105470D01*
X162021470Y-108774212D01*
X162067614Y-108694288D01*
X162091500Y-108605144D01*
X162091500Y-108512856D01*
X162091500Y-103789116D01*
X162110407Y-103730925D01*
X162159907Y-103694961D01*
X162221093Y-103694961D01*
X162270155Y-103730328D01*
X162319204Y-103796787D01*
X162319209Y-103796792D01*
X162428352Y-103877345D01*
X162556398Y-103922149D01*
X162586789Y-103924999D01*
X163486998Y-103924999D01*
X163487000Y-103924998D01*
X163487000Y-102525001D01*
X163486999Y-102525000D01*
X162586796Y-102525000D01*
X162556399Y-102527850D01*
X162556397Y-102527850D01*
X162428352Y-102572654D01*
X162319209Y-102653207D01*
X162319207Y-102653209D01*
X162270155Y-102719672D01*
X162220387Y-102755264D01*
X162159203Y-102754806D01*
X162109974Y-102718472D01*
X162091500Y-102660883D01*
X162091500Y-100920512D01*
X162110407Y-100862321D01*
X162159907Y-100826357D01*
X162221093Y-100826357D01*
X162270155Y-100861724D01*
X162277845Y-100872144D01*
X162277850Y-100872150D01*
X162277853Y-100872152D01*
X162277855Y-100872154D01*
X162387116Y-100952792D01*
X162387117Y-100952792D01*
X162387118Y-100952793D01*
X162515301Y-100997646D01*
X162545725Y-101000499D01*
X162545727Y-101000500D01*
X162545734Y-101000500D01*
X163154273Y-101000500D01*
X163154273Y-101000499D01*
X163184699Y-100997646D01*
X163312882Y-100952793D01*
X163422150Y-100872150D01*
X163502793Y-100762882D01*
X163547646Y-100634699D01*
X163550499Y-100604273D01*
X163550500Y-100604273D01*
X163550500Y-100227611D01*
X163552968Y-100220013D01*
X163551719Y-100212124D01*
X163562243Y-100191468D01*
X163569407Y-100169420D01*
X163579496Y-100157607D01*
X163707607Y-100029496D01*
X163762124Y-100001719D01*
X163777611Y-100000500D01*
X163779055Y-100000500D01*
X163779057Y-100000500D01*
X163931784Y-99959577D01*
X164068716Y-99880520D01*
X164180520Y-99768716D01*
X164259577Y-99631784D01*
X164300500Y-99479057D01*
X164300500Y-99320943D01*
X164259577Y-99168216D01*
X164180520Y-99031284D01*
X164068716Y-98919480D01*
X163931784Y-98840423D01*
X163779057Y-98799500D01*
X163620943Y-98799500D01*
X163468216Y-98840423D01*
X163331284Y-98919480D01*
X163219480Y-99031284D01*
X163140423Y-99168216D01*
X163102778Y-99308712D01*
X163099500Y-99320944D01*
X163099500Y-99322389D01*
X163099180Y-99323373D01*
X163098653Y-99327377D01*
X163097911Y-99327279D01*
X163080593Y-99380580D01*
X163070504Y-99392393D01*
X162892393Y-99570504D01*
X162837876Y-99598281D01*
X162822389Y-99599500D01*
X162545725Y-99599500D01*
X162515305Y-99602353D01*
X162515296Y-99602355D01*
X162387116Y-99647207D01*
X162277855Y-99727845D01*
X162277846Y-99727854D01*
X162270154Y-99738277D01*
X162220385Y-99773869D01*
X162159201Y-99773409D01*
X162109973Y-99737075D01*
X162091500Y-99679487D01*
X162091500Y-97939116D01*
X162110407Y-97880925D01*
X162159907Y-97844961D01*
X162221093Y-97844961D01*
X162270155Y-97880328D01*
X162319204Y-97946787D01*
X162319209Y-97946792D01*
X162428352Y-98027345D01*
X162556398Y-98072149D01*
X162586789Y-98074999D01*
X163486998Y-98074999D01*
X163487000Y-98074998D01*
X163487000Y-96675001D01*
X163486999Y-96675000D01*
X162586796Y-96675000D01*
X162556399Y-96677850D01*
X162556397Y-96677850D01*
X162428352Y-96722654D01*
X162319209Y-96803207D01*
X162319207Y-96803209D01*
X162270155Y-96869672D01*
X162220387Y-96905264D01*
X162159203Y-96904806D01*
X162109974Y-96868472D01*
X162091500Y-96810883D01*
X162091500Y-94494857D01*
X162090954Y-94492818D01*
X162067614Y-94405712D01*
X162039796Y-94357530D01*
X162021470Y-94325788D01*
X161690212Y-93994530D01*
X161690209Y-93994528D01*
X161610291Y-93948387D01*
X161610287Y-93948385D01*
X161567306Y-93936868D01*
X161522928Y-93911247D01*
X161447483Y-93835802D01*
X161440725Y-93832498D01*
X161342395Y-93784427D01*
X161315139Y-93780456D01*
X161274260Y-93774500D01*
X159807740Y-93774500D01*
X159773673Y-93779463D01*
X159739604Y-93784427D01*
X159634518Y-93835801D01*
X159551801Y-93918518D01*
X159500427Y-94023604D01*
X159497046Y-94046814D01*
X159490500Y-94091740D01*
X159490500Y-94458260D01*
X159495535Y-94492818D01*
X159500427Y-94526395D01*
X159551801Y-94631481D01*
X159551802Y-94631483D01*
X159634517Y-94714198D01*
X159643211Y-94718448D01*
X159739604Y-94765572D01*
X159739605Y-94765572D01*
X159739607Y-94765573D01*
X159807740Y-94775500D01*
X159807743Y-94775500D01*
X161274257Y-94775500D01*
X161274260Y-94775500D01*
X161277222Y-94775068D01*
X161299493Y-94778878D01*
X161322093Y-94778878D01*
X161329052Y-94783934D01*
X161337531Y-94785385D01*
X161353310Y-94801558D01*
X161371593Y-94814842D01*
X161374251Y-94823022D01*
X161380258Y-94829180D01*
X161390500Y-94873033D01*
X161390500Y-94927472D01*
X161371593Y-94985663D01*
X161322093Y-95021627D01*
X161277236Y-95025439D01*
X161274224Y-95025000D01*
X160795001Y-95025000D01*
X160795000Y-95025001D01*
X160795000Y-96024998D01*
X160795001Y-96024999D01*
X161274213Y-96024999D01*
X161274214Y-96024998D01*
X161277227Y-96024560D01*
X161337536Y-96034881D01*
X161380260Y-96078679D01*
X161390500Y-96122526D01*
X161390500Y-104476966D01*
X161385540Y-104492230D01*
X161385418Y-104508277D01*
X161376324Y-104520594D01*
X161371593Y-104535157D01*
X161358609Y-104544589D01*
X161349078Y-104557501D01*
X161336708Y-104560502D01*
X161322093Y-104571121D01*
X161290744Y-104575963D01*
X161283944Y-104575911D01*
X161274260Y-104574500D01*
X161099137Y-104574500D01*
X161098744Y-104574497D01*
X161070085Y-104564942D01*
X161041309Y-104555593D01*
X161041075Y-104555271D01*
X161040699Y-104555146D01*
X161023149Y-104530598D01*
X161005345Y-104506093D01*
X161005263Y-104505581D01*
X161005115Y-104505373D01*
X161005120Y-104504674D01*
X161000500Y-104475500D01*
X161000500Y-100786256D01*
X161006056Y-100753558D01*
X161034075Y-100673483D01*
X161047646Y-100634699D01*
X161050499Y-100604273D01*
X161050500Y-100604273D01*
X161050500Y-99995727D01*
X161050499Y-99995725D01*
X161047646Y-99965305D01*
X161047646Y-99965301D01*
X161002793Y-99837118D01*
X160985212Y-99813297D01*
X160922154Y-99727855D01*
X160922152Y-99727853D01*
X160922150Y-99727850D01*
X160922146Y-99727847D01*
X160922144Y-99727845D01*
X160812883Y-99647207D01*
X160684703Y-99602355D01*
X160684694Y-99602353D01*
X160654274Y-99599500D01*
X160654266Y-99599500D01*
X160045734Y-99599500D01*
X160045725Y-99599500D01*
X160015305Y-99602353D01*
X160015296Y-99602355D01*
X159887116Y-99647207D01*
X159777855Y-99727845D01*
X159777845Y-99727855D01*
X159697207Y-99837116D01*
X159652355Y-99965296D01*
X159652353Y-99965305D01*
X159649500Y-99995725D01*
X159649500Y-100604274D01*
X159652353Y-100634694D01*
X159652355Y-100634703D01*
X159697207Y-100762883D01*
X159777845Y-100872144D01*
X159777846Y-100872145D01*
X159777850Y-100872150D01*
X159777853Y-100872152D01*
X159777855Y-100872154D01*
X159887116Y-100952792D01*
X159887117Y-100952792D01*
X159887118Y-100952793D01*
X160015301Y-100997646D01*
X160045725Y-101000499D01*
X160045727Y-101000500D01*
X160045734Y-101000500D01*
X160100500Y-101000500D01*
X160158691Y-101019407D01*
X160194655Y-101068907D01*
X160199500Y-101099500D01*
X160199500Y-104475500D01*
X160180593Y-104533691D01*
X160131093Y-104569655D01*
X160100500Y-104574500D01*
X159807740Y-104574500D01*
X159773673Y-104579463D01*
X159739604Y-104584427D01*
X159634518Y-104635801D01*
X159551801Y-104718518D01*
X159500427Y-104823604D01*
X159495463Y-104857673D01*
X159490500Y-104891740D01*
X159490500Y-105258260D01*
X159495015Y-105289246D01*
X159500427Y-105326395D01*
X159545934Y-105419480D01*
X159551802Y-105431483D01*
X159634517Y-105514198D01*
X159688285Y-105540483D01*
X159739604Y-105565572D01*
X159739605Y-105565572D01*
X159739607Y-105565573D01*
X159807740Y-105575500D01*
X159807743Y-105575500D01*
X161274257Y-105575500D01*
X161274260Y-105575500D01*
X161277222Y-105575068D01*
X161299493Y-105578878D01*
X161322093Y-105578878D01*
X161329052Y-105583934D01*
X161337531Y-105585385D01*
X161353310Y-105601558D01*
X161371593Y-105614842D01*
X161374251Y-105623022D01*
X161380258Y-105629180D01*
X161390500Y-105673033D01*
X161390500Y-105726966D01*
X161371593Y-105785157D01*
X161322093Y-105821121D01*
X161277236Y-105824933D01*
X161274265Y-105824500D01*
X161274260Y-105824500D01*
X159807740Y-105824500D01*
X159773673Y-105829463D01*
X159739604Y-105834427D01*
X159634515Y-105885802D01*
X159631274Y-105889044D01*
X159576756Y-105916819D01*
X159535652Y-105914664D01*
X159492306Y-105903050D01*
X159479057Y-105899500D01*
X159320943Y-105899500D01*
X159168216Y-105940423D01*
X159168214Y-105940424D01*
X159168213Y-105940424D01*
X159148997Y-105951518D01*
X159089148Y-105964237D01*
X159033254Y-105939349D01*
X159002663Y-105886360D01*
X159000500Y-105865780D01*
X159000500Y-104336188D01*
X159002968Y-104328590D01*
X159001719Y-104320701D01*
X159012243Y-104300045D01*
X159019407Y-104277997D01*
X159029485Y-104266195D01*
X159066186Y-104229494D01*
X159120701Y-104201719D01*
X159136188Y-104200500D01*
X159279055Y-104200500D01*
X159279057Y-104200500D01*
X159431784Y-104159577D01*
X159568716Y-104080520D01*
X159680520Y-103968716D01*
X159759577Y-103831784D01*
X159800500Y-103679057D01*
X159800500Y-103520943D01*
X159759577Y-103368216D01*
X159680520Y-103231284D01*
X159568716Y-103119480D01*
X159431784Y-103040423D01*
X159279057Y-102999500D01*
X159120943Y-102999500D01*
X158968216Y-103040423D01*
X158831284Y-103119480D01*
X158719480Y-103231284D01*
X158640423Y-103368216D01*
X158602098Y-103511249D01*
X158599500Y-103520944D01*
X158599500Y-103663810D01*
X158580593Y-103722001D01*
X158570504Y-103733813D01*
X158369532Y-103934785D01*
X158369530Y-103934787D01*
X158369530Y-103934788D01*
X158354285Y-103961193D01*
X158323386Y-104014712D01*
X158299500Y-104103857D01*
X158299500Y-107076476D01*
X158305937Y-107100498D01*
X158305937Y-107100499D01*
X158305938Y-107100499D01*
X158305938Y-107100500D01*
X158323386Y-107165618D01*
X158369530Y-107245542D01*
X158979458Y-107855470D01*
X159059382Y-107901614D01*
X159148526Y-107925500D01*
X159148527Y-107925500D01*
X159240814Y-107925500D01*
X159504812Y-107925500D01*
X159563003Y-107944407D01*
X159574809Y-107954490D01*
X159634517Y-108014198D01*
X159688285Y-108040483D01*
X159739604Y-108065572D01*
X159739605Y-108065572D01*
X159739607Y-108065573D01*
X159807740Y-108075500D01*
X159807743Y-108075500D01*
X161274257Y-108075500D01*
X161274260Y-108075500D01*
X161277222Y-108075068D01*
X161299493Y-108078878D01*
X161322093Y-108078878D01*
X161329052Y-108083934D01*
X161337531Y-108085385D01*
X161353310Y-108101558D01*
X161371593Y-108114842D01*
X161374251Y-108123022D01*
X161380258Y-108129180D01*
X161390500Y-108173033D01*
X161390500Y-108226966D01*
X161371593Y-108285157D01*
X161322093Y-108321121D01*
X161277236Y-108324933D01*
X161274265Y-108324500D01*
X161274260Y-108324500D01*
X159807740Y-108324500D01*
X159773673Y-108329463D01*
X159739604Y-108334427D01*
X159634518Y-108385801D01*
X159634517Y-108385801D01*
X159634517Y-108385802D01*
X159574813Y-108445505D01*
X159520299Y-108473281D01*
X159504812Y-108474500D01*
X159111190Y-108474500D01*
X159052999Y-108455593D01*
X159041186Y-108445504D01*
X157179496Y-106583814D01*
X157151719Y-106529297D01*
X157150500Y-106513810D01*
X157150500Y-103621689D01*
X157169407Y-103563498D01*
X157204552Y-103533481D01*
X157313342Y-103478050D01*
X157403050Y-103388342D01*
X157460646Y-103275304D01*
X157475500Y-103181519D01*
X157475499Y-102718482D01*
X157475499Y-102718479D01*
X157475498Y-102718472D01*
X157460647Y-102624700D01*
X157460646Y-102624698D01*
X157460646Y-102624696D01*
X157403050Y-102511658D01*
X157313342Y-102421950D01*
X157200304Y-102364354D01*
X157200305Y-102364354D01*
X157106522Y-102349500D01*
X156493479Y-102349500D01*
X156493476Y-102349501D01*
X156399700Y-102364352D01*
X156399695Y-102364354D01*
X156286659Y-102421949D01*
X156196949Y-102511659D01*
X156139354Y-102624695D01*
X156124500Y-102718477D01*
X155749339Y-102718477D01*
X155709077Y-102568216D01*
X155630020Y-102431284D01*
X155518216Y-102319480D01*
X155513055Y-102316500D01*
X155499999Y-102308962D01*
X155486152Y-102293583D01*
X155469407Y-102281417D01*
X155466137Y-102271353D01*
X155459059Y-102263492D01*
X155450500Y-102223226D01*
X155450500Y-102124499D01*
X155469407Y-102066308D01*
X155518907Y-102030344D01*
X155549500Y-102025499D01*
X155713398Y-102025499D01*
X155713400Y-102025499D01*
X155790117Y-102010240D01*
X155877112Y-101952112D01*
X155935240Y-101865117D01*
X155950500Y-101788401D01*
X155950499Y-101667020D01*
X155969406Y-101608830D01*
X156018906Y-101572866D01*
X156080091Y-101572865D01*
X156129591Y-101608829D01*
X156137708Y-101622074D01*
X156139354Y-101625304D01*
X156196950Y-101738342D01*
X156286658Y-101828050D01*
X156399696Y-101885646D01*
X156493481Y-101900500D01*
X157106518Y-101900499D01*
X157106520Y-101900499D01*
X157106521Y-101900498D01*
X157159400Y-101892124D01*
X157200299Y-101885647D01*
X157200299Y-101885646D01*
X157200304Y-101885646D01*
X157313342Y-101828050D01*
X157403050Y-101738342D01*
X157460646Y-101625304D01*
X157475500Y-101531519D01*
X157475499Y-101068482D01*
X157464733Y-101000500D01*
X157460647Y-100974700D01*
X157460646Y-100974698D01*
X157460646Y-100974696D01*
X157403050Y-100861658D01*
X157313342Y-100771950D01*
X157313339Y-100771948D01*
X157308462Y-100767071D01*
X157280685Y-100712554D01*
X157290256Y-100652122D01*
X157292708Y-100647603D01*
X157359577Y-100531784D01*
X157400500Y-100379057D01*
X157400500Y-100220943D01*
X157359577Y-100068216D01*
X157280520Y-99931284D01*
X157168716Y-99819480D01*
X157031784Y-99740423D01*
X156879057Y-99699500D01*
X156720943Y-99699500D01*
X156649504Y-99718642D01*
X156575123Y-99738572D01*
X156514021Y-99735369D01*
X156466471Y-99696864D01*
X156450500Y-99642945D01*
X156450500Y-98220943D01*
X157299500Y-98220943D01*
X157299500Y-98379057D01*
X157340423Y-98531784D01*
X157419480Y-98668716D01*
X157531284Y-98780520D01*
X157668216Y-98859577D01*
X157820943Y-98900500D01*
X157820945Y-98900500D01*
X157979055Y-98900500D01*
X157979057Y-98900500D01*
X158131784Y-98859577D01*
X158268716Y-98780520D01*
X158380520Y-98668716D01*
X158459577Y-98531784D01*
X158500500Y-98379057D01*
X158500500Y-98220943D01*
X158459577Y-98068216D01*
X158380520Y-97931284D01*
X158279494Y-97830258D01*
X158251719Y-97775744D01*
X158250500Y-97760257D01*
X158250500Y-95779000D01*
X159502257Y-95779000D01*
X159552213Y-95881187D01*
X159634812Y-95963786D01*
X159739751Y-96015087D01*
X159807784Y-96024999D01*
X160286998Y-96024999D01*
X160287000Y-96024998D01*
X160287000Y-95779001D01*
X160286999Y-95779000D01*
X159502257Y-95779000D01*
X158250500Y-95779000D01*
X158250500Y-95271000D01*
X159502257Y-95271000D01*
X160286999Y-95271000D01*
X160287000Y-95270999D01*
X160287000Y-95025001D01*
X160286999Y-95025000D01*
X159807786Y-95025000D01*
X159807783Y-95025001D01*
X159739749Y-95034912D01*
X159634811Y-95086214D01*
X159552213Y-95168812D01*
X159502257Y-95271000D01*
X158250500Y-95271000D01*
X158250500Y-93586189D01*
X158269407Y-93527998D01*
X158279490Y-93516191D01*
X158953940Y-92841740D01*
X159490500Y-92841740D01*
X159490500Y-93208260D01*
X159497118Y-93253682D01*
X159500427Y-93276395D01*
X159545560Y-93368715D01*
X159551802Y-93381483D01*
X159634517Y-93464198D01*
X159688285Y-93490483D01*
X159739604Y-93515572D01*
X159739605Y-93515572D01*
X159739607Y-93515573D01*
X159807740Y-93525500D01*
X159807743Y-93525500D01*
X161274257Y-93525500D01*
X161274260Y-93525500D01*
X161342393Y-93515573D01*
X161447483Y-93464198D01*
X161507186Y-93404494D01*
X161514301Y-93400869D01*
X161518997Y-93394407D01*
X161541045Y-93387243D01*
X161561701Y-93376719D01*
X161577188Y-93375500D01*
X161585256Y-93375500D01*
X161643447Y-93394407D01*
X161655259Y-93404496D01*
X161696551Y-93445787D01*
X161731284Y-93480520D01*
X161868216Y-93559577D01*
X162020943Y-93600500D01*
X162020945Y-93600500D01*
X162179055Y-93600500D01*
X162179057Y-93600500D01*
X162331784Y-93559577D01*
X162468716Y-93480520D01*
X162580520Y-93368716D01*
X162659577Y-93231784D01*
X162700500Y-93079057D01*
X162700500Y-92920943D01*
X162659577Y-92768216D01*
X162580520Y-92631284D01*
X162468716Y-92519480D01*
X162331784Y-92440423D01*
X162179057Y-92399500D01*
X162020943Y-92399500D01*
X161868216Y-92440423D01*
X161748531Y-92509523D01*
X161731281Y-92519482D01*
X161626225Y-92624538D01*
X161571709Y-92652315D01*
X161511277Y-92642743D01*
X161486221Y-92624540D01*
X161447483Y-92585802D01*
X161447481Y-92585801D01*
X161342395Y-92534427D01*
X161315139Y-92530456D01*
X161274260Y-92524500D01*
X159807740Y-92524500D01*
X159773673Y-92529463D01*
X159739604Y-92534427D01*
X159634518Y-92585801D01*
X159551801Y-92668518D01*
X159500427Y-92773604D01*
X159495760Y-92805640D01*
X159490500Y-92841740D01*
X158953940Y-92841740D01*
X159548917Y-92246763D01*
X159603432Y-92218988D01*
X159662399Y-92227828D01*
X159739607Y-92265573D01*
X159807740Y-92275500D01*
X159807743Y-92275500D01*
X161274257Y-92275500D01*
X161274260Y-92275500D01*
X161342393Y-92265573D01*
X161447483Y-92214198D01*
X161530198Y-92131483D01*
X161581573Y-92026393D01*
X161591500Y-91958260D01*
X161591500Y-91591740D01*
X161581573Y-91523607D01*
X161530198Y-91418517D01*
X161447483Y-91335802D01*
X161447481Y-91335801D01*
X161342395Y-91284427D01*
X161315139Y-91280456D01*
X161274260Y-91274500D01*
X159807740Y-91274500D01*
X159773673Y-91279463D01*
X159739604Y-91284427D01*
X159634518Y-91335801D01*
X159634517Y-91335801D01*
X159634517Y-91335802D01*
X159574813Y-91395505D01*
X159520299Y-91423281D01*
X159504812Y-91424500D01*
X159478856Y-91424500D01*
X159389712Y-91448386D01*
X159309788Y-91494530D01*
X157619530Y-93184788D01*
X157604563Y-93210712D01*
X157592398Y-93231783D01*
X157573387Y-93264709D01*
X157573386Y-93264711D01*
X157573386Y-93264712D01*
X157567506Y-93286659D01*
X157549500Y-93353857D01*
X157549500Y-97760257D01*
X157530593Y-97818448D01*
X157520509Y-97830254D01*
X157419480Y-97931284D01*
X157340423Y-98068216D01*
X157299500Y-98220943D01*
X156450500Y-98220943D01*
X156450500Y-97999499D01*
X156469407Y-97941308D01*
X156518907Y-97905344D01*
X156549500Y-97900499D01*
X156606521Y-97900499D01*
X156606522Y-97900498D01*
X156653411Y-97893072D01*
X156700299Y-97885647D01*
X156700299Y-97885646D01*
X156700304Y-97885646D01*
X156813342Y-97828050D01*
X156903050Y-97738342D01*
X156960646Y-97625304D01*
X156975500Y-97531519D01*
X156975499Y-97068482D01*
X156975498Y-97068478D01*
X156975498Y-97068476D01*
X156960647Y-96974700D01*
X156960646Y-96974698D01*
X156960646Y-96974696D01*
X156903050Y-96861658D01*
X156813342Y-96771950D01*
X156700304Y-96714354D01*
X156700305Y-96714354D01*
X156606522Y-96699500D01*
X155993479Y-96699500D01*
X155993476Y-96699501D01*
X155899700Y-96714352D01*
X155899695Y-96714354D01*
X155786659Y-96771949D01*
X155696949Y-96861659D01*
X155639354Y-96974695D01*
X155624500Y-97068478D01*
X155624500Y-97236257D01*
X155605593Y-97294448D01*
X155556093Y-97330412D01*
X155494907Y-97330412D01*
X155455498Y-97306262D01*
X155368716Y-97219480D01*
X155231784Y-97140423D01*
X155079057Y-97099500D01*
X154920943Y-97099500D01*
X154768216Y-97140423D01*
X154631284Y-97219480D01*
X154519480Y-97331284D01*
X154504196Y-97357757D01*
X154458725Y-97398697D01*
X154444085Y-97403881D01*
X154384013Y-97419978D01*
X154384010Y-97419979D01*
X154325333Y-97453856D01*
X154315491Y-97459538D01*
X153715489Y-98059540D01*
X153715488Y-98059539D01*
X153659537Y-98115490D01*
X153659536Y-98115492D01*
X153659496Y-98115563D01*
X153659452Y-98115601D01*
X153655591Y-98120635D01*
X153654657Y-98119918D01*
X153614020Y-98156497D01*
X153554453Y-98163147D01*
X153525000Y-98157288D01*
X153525000Y-99144999D01*
X153539648Y-99159647D01*
X153552758Y-99163907D01*
X153578664Y-99191762D01*
X153588153Y-99207038D01*
X153589760Y-99215117D01*
X153638243Y-99287677D01*
X153639097Y-99289052D01*
X153643186Y-99305642D01*
X153654000Y-99341290D01*
X153654000Y-102058708D01*
X153637316Y-102113709D01*
X153589758Y-102184885D01*
X153586029Y-102193888D01*
X153546291Y-102240413D01*
X153536955Y-102243045D01*
X153525000Y-102255001D01*
X153525000Y-103251382D01*
X153528092Y-103256213D01*
X153544397Y-103278266D01*
X153545142Y-103282846D01*
X153546292Y-103284643D01*
X153546063Y-103288513D01*
X153549500Y-103309641D01*
X153549500Y-103629413D01*
X153530593Y-103687604D01*
X153481093Y-103723568D01*
X153476125Y-103725039D01*
X153418718Y-103740422D01*
X153418716Y-103740422D01*
X153418716Y-103740423D01*
X153281784Y-103819480D01*
X153169980Y-103931284D01*
X153090923Y-104068216D01*
X153050000Y-104220943D01*
X153050000Y-104379057D01*
X153090923Y-104531784D01*
X153169980Y-104668716D01*
X153198267Y-104697003D01*
X153226043Y-104751518D01*
X153216472Y-104811950D01*
X153191693Y-104840966D01*
X153192168Y-104841441D01*
X153186659Y-104846949D01*
X153186658Y-104846950D01*
X153143395Y-104890213D01*
X153096949Y-104936659D01*
X153039354Y-105049695D01*
X153024500Y-105143477D01*
X152450500Y-105143477D01*
X152450500Y-104236189D01*
X152469407Y-104177998D01*
X152479490Y-104166191D01*
X153180470Y-103465212D01*
X153226614Y-103385288D01*
X153250500Y-103296144D01*
X153250500Y-103296141D01*
X153252179Y-103289876D01*
X153253778Y-103290304D01*
X153254132Y-103289562D01*
X153254059Y-103280682D01*
X153267034Y-103262505D01*
X153275000Y-103245802D01*
X153275000Y-102255001D01*
X153260351Y-102240352D01*
X153247242Y-102236093D01*
X153221336Y-102208237D01*
X153211846Y-102192959D01*
X153210240Y-102184883D01*
X153161782Y-102112361D01*
X153160903Y-102110945D01*
X153156816Y-102094366D01*
X153146000Y-102058708D01*
X153146000Y-99341290D01*
X153162685Y-99286288D01*
X153167518Y-99279055D01*
X153210240Y-99215117D01*
X153210240Y-99215116D01*
X153210241Y-99215115D01*
X153213971Y-99206112D01*
X153253709Y-99159587D01*
X153263044Y-99156954D01*
X153275000Y-99144999D01*
X153275000Y-98148616D01*
X153253707Y-98115353D01*
X153250500Y-98090357D01*
X153250500Y-97849500D01*
X153269407Y-97791309D01*
X153318907Y-97755345D01*
X153349500Y-97750500D01*
X153583490Y-97750500D01*
X153604885Y-97747111D01*
X153683126Y-97734719D01*
X153803220Y-97673528D01*
X153898528Y-97578220D01*
X153959719Y-97458126D01*
X153975500Y-97358488D01*
X153975500Y-96981899D01*
X153994407Y-96923708D01*
X154004490Y-96911901D01*
X154645910Y-96270481D01*
X154645913Y-96270480D01*
X154720480Y-96195913D01*
X154773207Y-96104587D01*
X154782222Y-96070943D01*
X154800501Y-96002727D01*
X154800501Y-95897273D01*
X154800501Y-95891211D01*
X154800500Y-95891193D01*
X154800500Y-95418477D01*
X155624500Y-95418477D01*
X155624500Y-95881520D01*
X155624501Y-95881523D01*
X155639352Y-95975299D01*
X155639354Y-95975304D01*
X155696950Y-96088342D01*
X155786658Y-96178050D01*
X155899696Y-96235646D01*
X155993481Y-96250500D01*
X156606518Y-96250499D01*
X156606520Y-96250499D01*
X156606521Y-96250498D01*
X156653411Y-96243072D01*
X156700299Y-96235647D01*
X156700299Y-96235646D01*
X156700304Y-96235646D01*
X156813342Y-96178050D01*
X156903050Y-96088342D01*
X156960646Y-95975304D01*
X156975500Y-95881519D01*
X156975499Y-95418482D01*
X156960646Y-95324696D01*
X156911290Y-95227831D01*
X156900500Y-95182886D01*
X156900500Y-95120944D01*
X156891194Y-95086214D01*
X156859577Y-94968216D01*
X156780520Y-94831284D01*
X156679494Y-94730258D01*
X156651719Y-94675744D01*
X156650500Y-94660257D01*
X156650500Y-93786190D01*
X156669407Y-93727999D01*
X156679496Y-93716186D01*
X159462997Y-90932685D01*
X159517514Y-90904908D01*
X159577946Y-90914479D01*
X159603001Y-90932682D01*
X159634517Y-90964198D01*
X159673702Y-90983354D01*
X159739604Y-91015572D01*
X159739605Y-91015572D01*
X159739607Y-91015573D01*
X159807740Y-91025500D01*
X159807743Y-91025500D01*
X161274257Y-91025500D01*
X161274260Y-91025500D01*
X161342393Y-91015573D01*
X161447483Y-90964198D01*
X161530198Y-90881483D01*
X161581573Y-90776393D01*
X161591500Y-90708260D01*
X161591500Y-90341740D01*
X161581573Y-90273607D01*
X161530198Y-90168517D01*
X161447483Y-90085802D01*
X161447481Y-90085801D01*
X161342395Y-90034427D01*
X161315139Y-90030456D01*
X161274260Y-90024500D01*
X159807740Y-90024500D01*
X159773673Y-90029463D01*
X159739604Y-90034427D01*
X159634518Y-90085801D01*
X159634517Y-90085801D01*
X159634517Y-90085802D01*
X159574813Y-90145505D01*
X159520299Y-90173281D01*
X159504812Y-90174500D01*
X159328856Y-90174500D01*
X159239712Y-90198386D01*
X159159788Y-90244530D01*
X156019528Y-93384790D01*
X155984312Y-93445787D01*
X155984312Y-93445788D01*
X155973387Y-93464709D01*
X155973386Y-93464711D01*
X155973386Y-93464712D01*
X155950266Y-93551000D01*
X155949500Y-93553857D01*
X155949500Y-94660257D01*
X155930593Y-94718448D01*
X155920509Y-94730254D01*
X155866830Y-94783934D01*
X155819480Y-94831284D01*
X155740423Y-94968216D01*
X155699500Y-95120944D01*
X155699500Y-95182886D01*
X155688709Y-95227832D01*
X155639354Y-95324694D01*
X155624500Y-95418477D01*
X154800500Y-95418477D01*
X154800500Y-91534108D01*
X155599500Y-91534108D01*
X155599500Y-91665892D01*
X155605948Y-91689956D01*
X155633609Y-91793190D01*
X155699496Y-91907309D01*
X155699498Y-91907311D01*
X155699500Y-91907314D01*
X155792686Y-92000500D01*
X155792688Y-92000501D01*
X155792690Y-92000503D01*
X155906810Y-92066390D01*
X155906808Y-92066390D01*
X155906812Y-92066391D01*
X155906814Y-92066392D01*
X156034108Y-92100500D01*
X156034110Y-92100500D01*
X156165890Y-92100500D01*
X156165892Y-92100500D01*
X156293186Y-92066392D01*
X156293188Y-92066390D01*
X156293190Y-92066390D01*
X156407309Y-92000503D01*
X156407309Y-92000502D01*
X156407314Y-92000500D01*
X156500500Y-91907314D01*
X156506735Y-91896515D01*
X156566390Y-91793190D01*
X156566390Y-91793188D01*
X156566392Y-91793186D01*
X156600500Y-91665892D01*
X156600500Y-91534108D01*
X156566392Y-91406814D01*
X156566390Y-91406811D01*
X156566390Y-91406809D01*
X156500503Y-91292690D01*
X156500501Y-91292688D01*
X156500500Y-91292686D01*
X156407314Y-91199500D01*
X156407311Y-91199498D01*
X156407309Y-91199496D01*
X156293189Y-91133609D01*
X156293191Y-91133609D01*
X156243799Y-91120375D01*
X156165892Y-91099500D01*
X156034108Y-91099500D01*
X155956200Y-91120375D01*
X155906809Y-91133609D01*
X155792690Y-91199496D01*
X155699496Y-91292690D01*
X155633609Y-91406809D01*
X155628869Y-91424500D01*
X155599500Y-91534108D01*
X154800500Y-91534108D01*
X154800500Y-90451055D01*
X154819407Y-90392864D01*
X154866801Y-90357611D01*
X154878679Y-90353455D01*
X154986430Y-90273930D01*
X155065955Y-90166179D01*
X155110186Y-90039774D01*
X155112999Y-90009772D01*
X155113000Y-90009770D01*
X155113000Y-88990230D01*
X155112999Y-88990226D01*
X155612000Y-88990226D01*
X155612000Y-90009773D01*
X155614813Y-90039768D01*
X155614815Y-90039777D01*
X155659043Y-90166175D01*
X155659044Y-90166176D01*
X155659045Y-90166179D01*
X155738570Y-90273930D01*
X155846321Y-90353455D01*
X155972726Y-90397686D01*
X156002726Y-90400499D01*
X156002730Y-90400500D01*
X156002736Y-90400500D01*
X156597270Y-90400500D01*
X156597272Y-90400499D01*
X156627274Y-90397686D01*
X156753679Y-90353455D01*
X156861430Y-90273930D01*
X156940955Y-90166179D01*
X156985186Y-90039774D01*
X156987999Y-90009772D01*
X156988000Y-90009770D01*
X156988000Y-89849500D01*
X157006907Y-89791309D01*
X157056407Y-89755345D01*
X157087000Y-89750500D01*
X159685870Y-89750500D01*
X159729349Y-89760558D01*
X159739607Y-89765573D01*
X159807740Y-89775500D01*
X159807743Y-89775500D01*
X161274257Y-89775500D01*
X161274260Y-89775500D01*
X161342393Y-89765573D01*
X161352650Y-89760558D01*
X161396130Y-89750500D01*
X161715257Y-89750500D01*
X161773448Y-89769407D01*
X161785254Y-89779490D01*
X161886284Y-89880520D01*
X162023216Y-89959577D01*
X162175943Y-90000500D01*
X162175945Y-90000500D01*
X162334055Y-90000500D01*
X162334057Y-90000500D01*
X162486784Y-89959577D01*
X162623716Y-89880520D01*
X162735520Y-89768716D01*
X162814577Y-89631784D01*
X162855500Y-89479057D01*
X162855500Y-89320943D01*
X162814577Y-89168216D01*
X162735520Y-89031284D01*
X162623716Y-88919480D01*
X162486784Y-88840423D01*
X162334057Y-88799500D01*
X162175943Y-88799500D01*
X162023216Y-88840423D01*
X161886284Y-88919480D01*
X161785258Y-89020505D01*
X161778143Y-89024130D01*
X161773448Y-89030593D01*
X161751399Y-89037756D01*
X161730744Y-89048281D01*
X161715257Y-89049500D01*
X161656030Y-89049500D01*
X161597839Y-89030593D01*
X161567089Y-88993980D01*
X161552856Y-88964866D01*
X161530198Y-88918517D01*
X161447483Y-88835802D01*
X161443431Y-88833821D01*
X161342395Y-88784427D01*
X161305145Y-88779000D01*
X161274260Y-88774500D01*
X159807740Y-88774500D01*
X159776855Y-88779000D01*
X159739604Y-88784427D01*
X159634518Y-88835801D01*
X159551801Y-88918518D01*
X159514911Y-88993980D01*
X159472368Y-89037954D01*
X159425970Y-89049500D01*
X157083708Y-89049500D01*
X157025517Y-89030593D01*
X156989553Y-88981093D01*
X156986199Y-88964866D01*
X156985186Y-88960231D01*
X156985186Y-88960226D01*
X156940955Y-88833821D01*
X156861430Y-88726070D01*
X156753679Y-88646545D01*
X156753676Y-88646544D01*
X156753675Y-88646543D01*
X156627277Y-88602315D01*
X156627276Y-88602314D01*
X156627274Y-88602314D01*
X156627271Y-88602313D01*
X156627268Y-88602313D01*
X156597273Y-88599500D01*
X156597264Y-88599500D01*
X156002736Y-88599500D01*
X156002726Y-88599500D01*
X155972731Y-88602313D01*
X155972722Y-88602315D01*
X155846324Y-88646543D01*
X155738571Y-88726069D01*
X155738569Y-88726071D01*
X155659043Y-88833824D01*
X155614815Y-88960222D01*
X155614813Y-88960231D01*
X155612000Y-88990226D01*
X155112999Y-88990226D01*
X155110186Y-88960226D01*
X155065955Y-88833821D01*
X154986430Y-88726070D01*
X154878679Y-88646545D01*
X154878676Y-88646544D01*
X154878675Y-88646543D01*
X154752277Y-88602315D01*
X154752276Y-88602314D01*
X154752274Y-88602314D01*
X154752271Y-88602313D01*
X154752268Y-88602313D01*
X154722273Y-88599500D01*
X154722264Y-88599500D01*
X154127736Y-88599500D01*
X154127726Y-88599500D01*
X154097731Y-88602313D01*
X154097722Y-88602315D01*
X153971324Y-88646543D01*
X153863571Y-88726069D01*
X153863569Y-88726071D01*
X153784043Y-88833824D01*
X153739815Y-88960222D01*
X153739813Y-88960231D01*
X153737000Y-88990226D01*
X153737000Y-89192500D01*
X153718093Y-89250691D01*
X153668593Y-89286655D01*
X153638000Y-89291500D01*
X148909901Y-89291500D01*
X148851710Y-89272593D01*
X148839897Y-89262504D01*
X148119734Y-88542341D01*
X147256394Y-87679001D01*
X162191001Y-87679001D01*
X162191001Y-87729203D01*
X162193850Y-87759600D01*
X162193850Y-87759602D01*
X162238654Y-87887647D01*
X162319207Y-87996790D01*
X162319209Y-87996792D01*
X162428352Y-88077345D01*
X162556398Y-88122149D01*
X162586789Y-88124999D01*
X163486998Y-88124999D01*
X163487000Y-88124998D01*
X163487000Y-87679001D01*
X163486999Y-87679000D01*
X162191002Y-87679000D01*
X162191001Y-87679001D01*
X147256394Y-87679001D01*
X146761413Y-87184020D01*
X146761410Y-87184018D01*
X146761408Y-87184016D01*
X146670091Y-87131294D01*
X146670093Y-87131294D01*
X146630883Y-87120788D01*
X162191000Y-87120788D01*
X162191000Y-87170999D01*
X162191001Y-87171000D01*
X163486999Y-87171000D01*
X163487000Y-87170999D01*
X163487000Y-86725001D01*
X163486999Y-86725000D01*
X162586796Y-86725000D01*
X162556399Y-86727850D01*
X162556397Y-86727850D01*
X162428352Y-86772654D01*
X162319209Y-86853207D01*
X162319207Y-86853209D01*
X162238654Y-86962352D01*
X162193850Y-87090398D01*
X162191000Y-87120788D01*
X146630883Y-87120788D01*
X146630570Y-87120704D01*
X146568227Y-87104000D01*
X146568225Y-87104000D01*
X144275161Y-87104000D01*
X144216970Y-87085093D01*
X144195067Y-87063189D01*
X144193659Y-87061251D01*
X144193658Y-87061249D01*
X144099751Y-86967342D01*
X144089958Y-86962352D01*
X143981423Y-86907050D01*
X143981420Y-86907049D01*
X143956876Y-86903161D01*
X143883249Y-86891500D01*
X143883246Y-86891500D01*
X143304754Y-86891500D01*
X143304751Y-86891500D01*
X143206580Y-86907049D01*
X143206576Y-86907050D01*
X143088250Y-86967341D01*
X142994340Y-87061251D01*
X142992933Y-87063189D01*
X142990994Y-87064597D01*
X142988833Y-87066759D01*
X142988490Y-87066416D01*
X142943434Y-87099154D01*
X142912839Y-87104000D01*
X141275161Y-87104000D01*
X141216970Y-87085093D01*
X141195067Y-87063189D01*
X141193659Y-87061251D01*
X141193658Y-87061249D01*
X141099751Y-86967342D01*
X141089958Y-86962352D01*
X140981423Y-86907050D01*
X140981420Y-86907049D01*
X140956876Y-86903161D01*
X140883249Y-86891500D01*
X140883246Y-86891500D01*
X140304754Y-86891500D01*
X140304751Y-86891500D01*
X140206580Y-86907049D01*
X140206576Y-86907050D01*
X140088250Y-86967341D01*
X139994342Y-87061249D01*
X139973581Y-87101994D01*
X139930315Y-87145258D01*
X139869883Y-87154828D01*
X139835872Y-87142783D01*
X139831784Y-87140423D01*
X139679057Y-87099500D01*
X139520943Y-87099500D01*
X139368216Y-87140423D01*
X139231284Y-87219480D01*
X139119480Y-87331284D01*
X139040423Y-87468216D01*
X138999500Y-87620943D01*
X136094500Y-87620943D01*
X136094500Y-85916500D01*
X136113407Y-85858309D01*
X136162907Y-85822345D01*
X136193500Y-85817500D01*
X136606975Y-85817500D01*
X136665166Y-85836407D01*
G37*
%TD.AperFunction*%
%TD*%
M02*
