%TF.GenerationSoftware,KiCad,Pcbnew,7.0.5.1-1-g8f565ef7f0-dirty-deb11*%
%TF.CreationDate,2023-08-03T13:55:31+00:00*%
%TF.ProjectId,TFUSBSERIAL01,54465553-4253-4455-9249-414c30312e6b,REV*%
%TF.SameCoordinates,Original*%
%TF.FileFunction,Legend,Top*%
%TF.FilePolarity,Positive*%
%FSLAX46Y46*%
G04 Gerber Fmt 4.6, Leading zero omitted, Abs format (unit mm)*
G04 Created by KiCad (PCBNEW 7.0.5.1-1-g8f565ef7f0-dirty-deb11) date 2023-08-03 13:55:31*
%MOMM*%
%LPD*%
G01*
G04 APERTURE LIST*
%ADD10C,0.300000*%
G04 APERTURE END LIST*
D10*
X163478328Y-111621428D02*
X163478328Y-111050000D01*
X162978328Y-111407143D02*
X164264042Y-111407143D01*
X164264042Y-111407143D02*
X164406900Y-111335714D01*
X164406900Y-111335714D02*
X164478328Y-111192857D01*
X164478328Y-111192857D02*
X164478328Y-111050000D01*
X164478328Y-110335714D02*
X164406900Y-110478571D01*
X164406900Y-110478571D02*
X164335471Y-110550000D01*
X164335471Y-110550000D02*
X164192614Y-110621428D01*
X164192614Y-110621428D02*
X163764042Y-110621428D01*
X163764042Y-110621428D02*
X163621185Y-110550000D01*
X163621185Y-110550000D02*
X163549757Y-110478571D01*
X163549757Y-110478571D02*
X163478328Y-110335714D01*
X163478328Y-110335714D02*
X163478328Y-110121428D01*
X163478328Y-110121428D02*
X163549757Y-109978571D01*
X163549757Y-109978571D02*
X163621185Y-109907143D01*
X163621185Y-109907143D02*
X163764042Y-109835714D01*
X163764042Y-109835714D02*
X164192614Y-109835714D01*
X164192614Y-109835714D02*
X164335471Y-109907143D01*
X164335471Y-109907143D02*
X164406900Y-109978571D01*
X164406900Y-109978571D02*
X164478328Y-110121428D01*
X164478328Y-110121428D02*
X164478328Y-110335714D01*
X163692614Y-107550000D02*
X163692614Y-108050000D01*
X164478328Y-108050000D02*
X162978328Y-108050000D01*
X162978328Y-108050000D02*
X162978328Y-107335714D01*
X164478328Y-106764286D02*
X162978328Y-106764286D01*
X162978328Y-106764286D02*
X164049757Y-106264286D01*
X164049757Y-106264286D02*
X162978328Y-105764286D01*
X162978328Y-105764286D02*
X164478328Y-105764286D01*
X162978328Y-105050000D02*
X164192614Y-105050000D01*
X164192614Y-105050000D02*
X164335471Y-104978571D01*
X164335471Y-104978571D02*
X164406900Y-104907143D01*
X164406900Y-104907143D02*
X164478328Y-104764285D01*
X164478328Y-104764285D02*
X164478328Y-104478571D01*
X164478328Y-104478571D02*
X164406900Y-104335714D01*
X164406900Y-104335714D02*
X164335471Y-104264285D01*
X164335471Y-104264285D02*
X164192614Y-104192857D01*
X164192614Y-104192857D02*
X162978328Y-104192857D01*
X163478328Y-98292856D02*
X163478328Y-97721428D01*
X162978328Y-98078571D02*
X164264042Y-98078571D01*
X164264042Y-98078571D02*
X164406900Y-98007142D01*
X164406900Y-98007142D02*
X164478328Y-97864285D01*
X164478328Y-97864285D02*
X164478328Y-97721428D01*
X164478328Y-97007142D02*
X164406900Y-97149999D01*
X164406900Y-97149999D02*
X164335471Y-97221428D01*
X164335471Y-97221428D02*
X164192614Y-97292856D01*
X164192614Y-97292856D02*
X163764042Y-97292856D01*
X163764042Y-97292856D02*
X163621185Y-97221428D01*
X163621185Y-97221428D02*
X163549757Y-97149999D01*
X163549757Y-97149999D02*
X163478328Y-97007142D01*
X163478328Y-97007142D02*
X163478328Y-96792856D01*
X163478328Y-96792856D02*
X163549757Y-96649999D01*
X163549757Y-96649999D02*
X163621185Y-96578571D01*
X163621185Y-96578571D02*
X163764042Y-96507142D01*
X163764042Y-96507142D02*
X164192614Y-96507142D01*
X164192614Y-96507142D02*
X164335471Y-96578571D01*
X164335471Y-96578571D02*
X164406900Y-96649999D01*
X164406900Y-96649999D02*
X164478328Y-96792856D01*
X164478328Y-96792856D02*
X164478328Y-97007142D01*
X164478328Y-94721428D02*
X162978328Y-94721428D01*
X162978328Y-94721428D02*
X162978328Y-94364285D01*
X162978328Y-94364285D02*
X163049757Y-94149999D01*
X163049757Y-94149999D02*
X163192614Y-94007142D01*
X163192614Y-94007142D02*
X163335471Y-93935713D01*
X163335471Y-93935713D02*
X163621185Y-93864285D01*
X163621185Y-93864285D02*
X163835471Y-93864285D01*
X163835471Y-93864285D02*
X164121185Y-93935713D01*
X164121185Y-93935713D02*
X164264042Y-94007142D01*
X164264042Y-94007142D02*
X164406900Y-94149999D01*
X164406900Y-94149999D02*
X164478328Y-94364285D01*
X164478328Y-94364285D02*
X164478328Y-94721428D01*
X163692614Y-93221428D02*
X163692614Y-92721428D01*
X164478328Y-92507142D02*
X164478328Y-93221428D01*
X164478328Y-93221428D02*
X162978328Y-93221428D01*
X162978328Y-93221428D02*
X162978328Y-92507142D01*
X162978328Y-92078570D02*
X164478328Y-91578570D01*
X164478328Y-91578570D02*
X162978328Y-91078570D01*
X164478328Y-90578571D02*
X162978328Y-90578571D01*
X164335471Y-89007142D02*
X164406900Y-89078570D01*
X164406900Y-89078570D02*
X164478328Y-89292856D01*
X164478328Y-89292856D02*
X164478328Y-89435713D01*
X164478328Y-89435713D02*
X164406900Y-89649999D01*
X164406900Y-89649999D02*
X164264042Y-89792856D01*
X164264042Y-89792856D02*
X164121185Y-89864285D01*
X164121185Y-89864285D02*
X163835471Y-89935713D01*
X163835471Y-89935713D02*
X163621185Y-89935713D01*
X163621185Y-89935713D02*
X163335471Y-89864285D01*
X163335471Y-89864285D02*
X163192614Y-89792856D01*
X163192614Y-89792856D02*
X163049757Y-89649999D01*
X163049757Y-89649999D02*
X162978328Y-89435713D01*
X162978328Y-89435713D02*
X162978328Y-89292856D01*
X162978328Y-89292856D02*
X163049757Y-89078570D01*
X163049757Y-89078570D02*
X163121185Y-89007142D01*
X163692614Y-88364285D02*
X163692614Y-87864285D01*
X164478328Y-87649999D02*
X164478328Y-88364285D01*
X164478328Y-88364285D02*
X162978328Y-88364285D01*
X162978328Y-88364285D02*
X162978328Y-87649999D01*
X139278144Y-88714328D02*
X140135287Y-88714328D01*
X139706715Y-90214328D02*
X139706715Y-88714328D01*
X141135286Y-89428614D02*
X140635286Y-89428614D01*
X140635286Y-90214328D02*
X140635286Y-88714328D01*
X140635286Y-88714328D02*
X141349572Y-88714328D01*
X141921000Y-88714328D02*
X141921000Y-89928614D01*
X141921000Y-89928614D02*
X141992429Y-90071471D01*
X141992429Y-90071471D02*
X142063858Y-90142900D01*
X142063858Y-90142900D02*
X142206715Y-90214328D01*
X142206715Y-90214328D02*
X142492429Y-90214328D01*
X142492429Y-90214328D02*
X142635286Y-90142900D01*
X142635286Y-90142900D02*
X142706715Y-90071471D01*
X142706715Y-90071471D02*
X142778143Y-89928614D01*
X142778143Y-89928614D02*
X142778143Y-88714328D01*
X143421001Y-90142900D02*
X143635287Y-90214328D01*
X143635287Y-90214328D02*
X143992429Y-90214328D01*
X143992429Y-90214328D02*
X144135287Y-90142900D01*
X144135287Y-90142900D02*
X144206715Y-90071471D01*
X144206715Y-90071471D02*
X144278144Y-89928614D01*
X144278144Y-89928614D02*
X144278144Y-89785757D01*
X144278144Y-89785757D02*
X144206715Y-89642900D01*
X144206715Y-89642900D02*
X144135287Y-89571471D01*
X144135287Y-89571471D02*
X143992429Y-89500042D01*
X143992429Y-89500042D02*
X143706715Y-89428614D01*
X143706715Y-89428614D02*
X143563858Y-89357185D01*
X143563858Y-89357185D02*
X143492429Y-89285757D01*
X143492429Y-89285757D02*
X143421001Y-89142900D01*
X143421001Y-89142900D02*
X143421001Y-89000042D01*
X143421001Y-89000042D02*
X143492429Y-88857185D01*
X143492429Y-88857185D02*
X143563858Y-88785757D01*
X143563858Y-88785757D02*
X143706715Y-88714328D01*
X143706715Y-88714328D02*
X144063858Y-88714328D01*
X144063858Y-88714328D02*
X144278144Y-88785757D01*
X145421000Y-89428614D02*
X145635286Y-89500042D01*
X145635286Y-89500042D02*
X145706715Y-89571471D01*
X145706715Y-89571471D02*
X145778143Y-89714328D01*
X145778143Y-89714328D02*
X145778143Y-89928614D01*
X145778143Y-89928614D02*
X145706715Y-90071471D01*
X145706715Y-90071471D02*
X145635286Y-90142900D01*
X145635286Y-90142900D02*
X145492429Y-90214328D01*
X145492429Y-90214328D02*
X144921000Y-90214328D01*
X144921000Y-90214328D02*
X144921000Y-88714328D01*
X144921000Y-88714328D02*
X145421000Y-88714328D01*
X145421000Y-88714328D02*
X145563858Y-88785757D01*
X145563858Y-88785757D02*
X145635286Y-88857185D01*
X145635286Y-88857185D02*
X145706715Y-89000042D01*
X145706715Y-89000042D02*
X145706715Y-89142900D01*
X145706715Y-89142900D02*
X145635286Y-89285757D01*
X145635286Y-89285757D02*
X145563858Y-89357185D01*
X145563858Y-89357185D02*
X145421000Y-89428614D01*
X145421000Y-89428614D02*
X144921000Y-89428614D01*
X146349572Y-90142900D02*
X146563858Y-90214328D01*
X146563858Y-90214328D02*
X146921000Y-90214328D01*
X146921000Y-90214328D02*
X147063858Y-90142900D01*
X147063858Y-90142900D02*
X147135286Y-90071471D01*
X147135286Y-90071471D02*
X147206715Y-89928614D01*
X147206715Y-89928614D02*
X147206715Y-89785757D01*
X147206715Y-89785757D02*
X147135286Y-89642900D01*
X147135286Y-89642900D02*
X147063858Y-89571471D01*
X147063858Y-89571471D02*
X146921000Y-89500042D01*
X146921000Y-89500042D02*
X146635286Y-89428614D01*
X146635286Y-89428614D02*
X146492429Y-89357185D01*
X146492429Y-89357185D02*
X146421000Y-89285757D01*
X146421000Y-89285757D02*
X146349572Y-89142900D01*
X146349572Y-89142900D02*
X146349572Y-89000042D01*
X146349572Y-89000042D02*
X146421000Y-88857185D01*
X146421000Y-88857185D02*
X146492429Y-88785757D01*
X146492429Y-88785757D02*
X146635286Y-88714328D01*
X146635286Y-88714328D02*
X146992429Y-88714328D01*
X146992429Y-88714328D02*
X147206715Y-88785757D01*
X147849571Y-89428614D02*
X148349571Y-89428614D01*
X148563857Y-90214328D02*
X147849571Y-90214328D01*
X147849571Y-90214328D02*
X147849571Y-88714328D01*
X147849571Y-88714328D02*
X148563857Y-88714328D01*
X150063857Y-90214328D02*
X149563857Y-89500042D01*
X149206714Y-90214328D02*
X149206714Y-88714328D01*
X149206714Y-88714328D02*
X149778143Y-88714328D01*
X149778143Y-88714328D02*
X149921000Y-88785757D01*
X149921000Y-88785757D02*
X149992429Y-88857185D01*
X149992429Y-88857185D02*
X150063857Y-89000042D01*
X150063857Y-89000042D02*
X150063857Y-89214328D01*
X150063857Y-89214328D02*
X149992429Y-89357185D01*
X149992429Y-89357185D02*
X149921000Y-89428614D01*
X149921000Y-89428614D02*
X149778143Y-89500042D01*
X149778143Y-89500042D02*
X149206714Y-89500042D01*
X150706714Y-90214328D02*
X150706714Y-88714328D01*
X151349572Y-89785757D02*
X152063858Y-89785757D01*
X151206715Y-90214328D02*
X151706715Y-88714328D01*
X151706715Y-88714328D02*
X152206715Y-90214328D01*
X153421000Y-90214328D02*
X152706714Y-90214328D01*
X152706714Y-90214328D02*
X152706714Y-88714328D01*
X154206715Y-88714328D02*
X154349572Y-88714328D01*
X154349572Y-88714328D02*
X154492429Y-88785757D01*
X154492429Y-88785757D02*
X154563858Y-88857185D01*
X154563858Y-88857185D02*
X154635286Y-89000042D01*
X154635286Y-89000042D02*
X154706715Y-89285757D01*
X154706715Y-89285757D02*
X154706715Y-89642900D01*
X154706715Y-89642900D02*
X154635286Y-89928614D01*
X154635286Y-89928614D02*
X154563858Y-90071471D01*
X154563858Y-90071471D02*
X154492429Y-90142900D01*
X154492429Y-90142900D02*
X154349572Y-90214328D01*
X154349572Y-90214328D02*
X154206715Y-90214328D01*
X154206715Y-90214328D02*
X154063858Y-90142900D01*
X154063858Y-90142900D02*
X153992429Y-90071471D01*
X153992429Y-90071471D02*
X153921000Y-89928614D01*
X153921000Y-89928614D02*
X153849572Y-89642900D01*
X153849572Y-89642900D02*
X153849572Y-89285757D01*
X153849572Y-89285757D02*
X153921000Y-89000042D01*
X153921000Y-89000042D02*
X153992429Y-88857185D01*
X153992429Y-88857185D02*
X154063858Y-88785757D01*
X154063858Y-88785757D02*
X154206715Y-88714328D01*
X156135286Y-90214328D02*
X155278143Y-90214328D01*
X155706714Y-90214328D02*
X155706714Y-88714328D01*
X155706714Y-88714328D02*
X155563857Y-88928614D01*
X155563857Y-88928614D02*
X155421000Y-89071471D01*
X155421000Y-89071471D02*
X155278143Y-89142900D01*
X156706714Y-89785757D02*
X157421000Y-89785757D01*
X156563857Y-90214328D02*
X157063857Y-88714328D01*
X157063857Y-88714328D02*
X157563857Y-90214328D01*
X145341572Y-92032185D02*
X145413000Y-91960757D01*
X145413000Y-91960757D02*
X145555858Y-91889328D01*
X145555858Y-91889328D02*
X145913000Y-91889328D01*
X145913000Y-91889328D02*
X146055858Y-91960757D01*
X146055858Y-91960757D02*
X146127286Y-92032185D01*
X146127286Y-92032185D02*
X146198715Y-92175042D01*
X146198715Y-92175042D02*
X146198715Y-92317900D01*
X146198715Y-92317900D02*
X146127286Y-92532185D01*
X146127286Y-92532185D02*
X145270143Y-93389328D01*
X145270143Y-93389328D02*
X146198715Y-93389328D01*
X147127286Y-91889328D02*
X147270143Y-91889328D01*
X147270143Y-91889328D02*
X147413000Y-91960757D01*
X147413000Y-91960757D02*
X147484429Y-92032185D01*
X147484429Y-92032185D02*
X147555857Y-92175042D01*
X147555857Y-92175042D02*
X147627286Y-92460757D01*
X147627286Y-92460757D02*
X147627286Y-92817900D01*
X147627286Y-92817900D02*
X147555857Y-93103614D01*
X147555857Y-93103614D02*
X147484429Y-93246471D01*
X147484429Y-93246471D02*
X147413000Y-93317900D01*
X147413000Y-93317900D02*
X147270143Y-93389328D01*
X147270143Y-93389328D02*
X147127286Y-93389328D01*
X147127286Y-93389328D02*
X146984429Y-93317900D01*
X146984429Y-93317900D02*
X146913000Y-93246471D01*
X146913000Y-93246471D02*
X146841571Y-93103614D01*
X146841571Y-93103614D02*
X146770143Y-92817900D01*
X146770143Y-92817900D02*
X146770143Y-92460757D01*
X146770143Y-92460757D02*
X146841571Y-92175042D01*
X146841571Y-92175042D02*
X146913000Y-92032185D01*
X146913000Y-92032185D02*
X146984429Y-91960757D01*
X146984429Y-91960757D02*
X147127286Y-91889328D01*
X148198714Y-92032185D02*
X148270142Y-91960757D01*
X148270142Y-91960757D02*
X148413000Y-91889328D01*
X148413000Y-91889328D02*
X148770142Y-91889328D01*
X148770142Y-91889328D02*
X148913000Y-91960757D01*
X148913000Y-91960757D02*
X148984428Y-92032185D01*
X148984428Y-92032185D02*
X149055857Y-92175042D01*
X149055857Y-92175042D02*
X149055857Y-92317900D01*
X149055857Y-92317900D02*
X148984428Y-92532185D01*
X148984428Y-92532185D02*
X148127285Y-93389328D01*
X148127285Y-93389328D02*
X149055857Y-93389328D01*
X149555856Y-91889328D02*
X150484428Y-91889328D01*
X150484428Y-91889328D02*
X149984428Y-92460757D01*
X149984428Y-92460757D02*
X150198713Y-92460757D01*
X150198713Y-92460757D02*
X150341571Y-92532185D01*
X150341571Y-92532185D02*
X150412999Y-92603614D01*
X150412999Y-92603614D02*
X150484428Y-92746471D01*
X150484428Y-92746471D02*
X150484428Y-93103614D01*
X150484428Y-93103614D02*
X150412999Y-93246471D01*
X150412999Y-93246471D02*
X150341571Y-93317900D01*
X150341571Y-93317900D02*
X150198713Y-93389328D01*
X150198713Y-93389328D02*
X149770142Y-93389328D01*
X149770142Y-93389328D02*
X149627285Y-93317900D01*
X149627285Y-93317900D02*
X149555856Y-93246471D01*
M02*
