%TF.GenerationSoftware,KiCad,Pcbnew,7.0.7-7.0.7~ubuntu23.04.1*%
%TF.CreationDate,2023-09-22T14:50:37+00:00*%
%TF.ProjectId,TFUSBSERIAL01,54465553-4253-4455-9249-414c30312e6b,REV*%
%TF.SameCoordinates,Original*%
%TF.FileFunction,Legend,Top*%
%TF.FilePolarity,Positive*%
%FSLAX46Y46*%
G04 Gerber Fmt 4.6, Leading zero omitted, Abs format (unit mm)*
G04 Created by KiCad (PCBNEW 7.0.7-7.0.7~ubuntu23.04.1) date 2023-09-22 14:50:37*
%MOMM*%
%LPD*%
G01*
G04 APERTURE LIST*
%ADD10C,0.000000*%
%ADD11C,0.300000*%
%ADD12C,0.150000*%
%ADD13C,0.120000*%
G04 APERTURE END LIST*
D10*
G36*
X155746561Y-97535119D02*
G01*
X155378577Y-97535119D01*
X155732220Y-95522529D01*
X156100204Y-95522529D01*
X155746561Y-97535119D01*
G37*
G36*
X158644224Y-97535119D02*
G01*
X158276242Y-97535119D01*
X158629884Y-95522529D01*
X158997919Y-95522529D01*
X158644224Y-97535119D01*
G37*
G36*
X159113751Y-93837567D02*
G01*
X159711815Y-93032547D01*
X160102816Y-93032547D01*
X159234559Y-94153887D01*
X159076338Y-95045120D01*
X158711267Y-95045120D01*
X158866525Y-94153887D01*
X158866526Y-94153887D01*
X158394985Y-93032547D01*
X158786038Y-93032547D01*
X159113751Y-93837567D01*
G37*
G36*
X151281112Y-93033018D02*
G01*
X151316323Y-93034434D01*
X151351052Y-93036794D01*
X151385298Y-93040097D01*
X151419060Y-93044344D01*
X151452341Y-93049535D01*
X151485139Y-93055670D01*
X151517454Y-93062749D01*
X151549288Y-93070771D01*
X151580641Y-93079737D01*
X151611512Y-93089647D01*
X151641902Y-93100501D01*
X151671811Y-93112299D01*
X151701239Y-93125041D01*
X151730187Y-93138726D01*
X151758655Y-93153355D01*
X151786476Y-93168862D01*
X151813521Y-93185202D01*
X151839791Y-93202373D01*
X151865286Y-93220377D01*
X151890007Y-93239212D01*
X151913953Y-93258878D01*
X151937124Y-93279375D01*
X151959520Y-93300704D01*
X151981142Y-93322863D01*
X152001990Y-93345853D01*
X152022063Y-93369672D01*
X152041361Y-93394322D01*
X152059886Y-93419802D01*
X152077636Y-93446111D01*
X152094613Y-93473250D01*
X152110815Y-93501218D01*
X152126137Y-93529940D01*
X152140469Y-93559313D01*
X152153814Y-93589335D01*
X152166170Y-93620007D01*
X152177537Y-93651329D01*
X152187916Y-93683303D01*
X152197307Y-93715927D01*
X152205709Y-93749202D01*
X152213122Y-93783128D01*
X152219547Y-93817705D01*
X152224984Y-93852934D01*
X152229432Y-93888814D01*
X152232892Y-93925347D01*
X152235363Y-93962531D01*
X152236846Y-94000368D01*
X152237340Y-94038857D01*
X152236846Y-94077337D01*
X152235363Y-94115168D01*
X152232892Y-94152349D01*
X152229432Y-94188881D01*
X152224984Y-94224763D01*
X152219547Y-94259995D01*
X152213122Y-94294576D01*
X152205709Y-94328507D01*
X152197307Y-94361787D01*
X152187916Y-94394415D01*
X152177537Y-94426393D01*
X152166170Y-94457719D01*
X152153814Y-94488392D01*
X152140469Y-94518414D01*
X152126137Y-94547784D01*
X152110815Y-94576501D01*
X152094613Y-94604482D01*
X152077637Y-94631630D01*
X152059886Y-94657946D01*
X152041362Y-94683429D01*
X152022063Y-94708081D01*
X152001990Y-94731900D01*
X151981143Y-94754887D01*
X151959521Y-94777043D01*
X151937124Y-94798367D01*
X151913953Y-94818860D01*
X151890007Y-94838521D01*
X151865286Y-94857351D01*
X151839791Y-94875350D01*
X151813521Y-94892519D01*
X151786476Y-94908857D01*
X151758655Y-94924364D01*
X151730187Y-94938995D01*
X151701239Y-94952681D01*
X151671811Y-94965421D01*
X151641902Y-94977216D01*
X151611512Y-94988067D01*
X151580641Y-94997972D01*
X151549288Y-95006933D01*
X151517454Y-95014950D01*
X151485139Y-95022023D01*
X151452341Y-95028152D01*
X151419060Y-95033338D01*
X151385298Y-95037580D01*
X151351052Y-95040879D01*
X151316323Y-95043235D01*
X151281112Y-95044649D01*
X151245416Y-95045120D01*
X150492201Y-95045120D01*
X150492201Y-93360349D01*
X150860182Y-93360349D01*
X150860182Y-94717370D01*
X151245416Y-94717370D01*
X151280820Y-94716669D01*
X151315157Y-94714565D01*
X151348428Y-94711057D01*
X151380632Y-94706146D01*
X151411769Y-94699832D01*
X151441840Y-94692113D01*
X151470844Y-94682990D01*
X151498781Y-94672462D01*
X151525652Y-94660530D01*
X151551456Y-94647192D01*
X151576194Y-94632449D01*
X151599865Y-94616300D01*
X151622470Y-94598744D01*
X151644008Y-94579783D01*
X151664479Y-94559414D01*
X151683884Y-94537639D01*
X151702157Y-94514641D01*
X151719253Y-94490551D01*
X151735171Y-94465370D01*
X151749912Y-94439098D01*
X151763474Y-94411735D01*
X151775859Y-94383282D01*
X151787065Y-94353740D01*
X151797092Y-94323107D01*
X151805941Y-94291385D01*
X151813611Y-94258574D01*
X151820101Y-94224675D01*
X151825412Y-94189687D01*
X151829543Y-94153611D01*
X151832494Y-94116447D01*
X151834264Y-94078195D01*
X151834855Y-94038857D01*
X151834264Y-93999508D01*
X151832494Y-93961249D01*
X151829543Y-93924079D01*
X151825412Y-93887998D01*
X151820101Y-93853007D01*
X151813611Y-93819105D01*
X151805941Y-93786292D01*
X151797092Y-93754569D01*
X151787065Y-93723936D01*
X151775859Y-93694392D01*
X151763474Y-93665938D01*
X151749912Y-93638574D01*
X151735171Y-93612300D01*
X151719253Y-93587115D01*
X151702157Y-93563021D01*
X151683884Y-93540017D01*
X151664479Y-93518269D01*
X151644008Y-93497923D01*
X151622470Y-93478978D01*
X151599865Y-93461435D01*
X151576194Y-93445294D01*
X151551456Y-93430556D01*
X151525652Y-93417220D01*
X151498781Y-93405286D01*
X151470844Y-93394756D01*
X151441840Y-93385629D01*
X151411769Y-93377905D01*
X151380632Y-93371586D01*
X151348428Y-93366670D01*
X151315157Y-93363158D01*
X151280820Y-93361051D01*
X151245416Y-93360349D01*
X150860182Y-93360349D01*
X150492201Y-93360349D01*
X150492201Y-93032547D01*
X151245416Y-93032547D01*
X151281112Y-93033018D01*
G37*
G36*
X156614393Y-92551004D02*
G01*
X156246410Y-92551004D01*
X156600000Y-90538425D01*
X156968036Y-90538425D01*
X156614393Y-92551004D01*
G37*
G36*
X157680189Y-94688637D02*
G01*
X158374772Y-94688637D01*
X158311538Y-95045120D01*
X157248972Y-95045120D01*
X157602667Y-93032547D01*
X157970648Y-93032547D01*
X157680189Y-94688637D01*
G37*
G36*
X144779508Y-93828947D02*
G01*
X145699490Y-93828947D01*
X145699490Y-93032547D01*
X146067552Y-93032547D01*
X146067552Y-95045120D01*
X145699490Y-95045120D01*
X145699490Y-94173980D01*
X144779508Y-94173980D01*
X144779508Y-95045120D01*
X144411531Y-95045120D01*
X144411531Y-93032547D01*
X144779508Y-93032547D01*
X144779508Y-93828947D01*
G37*
G36*
X158056160Y-92551004D02*
G01*
X157688124Y-92551004D01*
X158041820Y-90538425D01*
X158409803Y-90538425D01*
X158056160Y-92551004D01*
G37*
G36*
X157294267Y-93389078D02*
G01*
X156471942Y-93389078D01*
X156394366Y-93817475D01*
X157032649Y-93817475D01*
X156969361Y-94173980D01*
X156331077Y-94173980D01*
X156178731Y-95045120D01*
X155810695Y-95045120D01*
X156164390Y-93032547D01*
X157357502Y-93032547D01*
X157294267Y-93389078D01*
G37*
G36*
X149722898Y-94332110D02*
G01*
X149722898Y-93032547D01*
X150090880Y-93032547D01*
X150090880Y-95045120D01*
X149788991Y-95045120D01*
X148868981Y-93665133D01*
X148868981Y-95045120D01*
X148500999Y-95045120D01*
X148500999Y-93032547D01*
X148863214Y-93032547D01*
X149722898Y-94332110D01*
G37*
G36*
X154910280Y-93033148D02*
G01*
X154948920Y-93034952D01*
X154986497Y-93037959D01*
X155023012Y-93042169D01*
X155058462Y-93047581D01*
X155092848Y-93054195D01*
X155126169Y-93062012D01*
X155158424Y-93071030D01*
X155189614Y-93081250D01*
X155219737Y-93092672D01*
X155248793Y-93105295D01*
X155276781Y-93119119D01*
X155303701Y-93134145D01*
X155329553Y-93150372D01*
X155354335Y-93167799D01*
X155378047Y-93186428D01*
X155400510Y-93206226D01*
X155421523Y-93227182D01*
X155441086Y-93249296D01*
X155459200Y-93272568D01*
X155475864Y-93296998D01*
X155491079Y-93322586D01*
X155504844Y-93349331D01*
X155517160Y-93377233D01*
X155528026Y-93406292D01*
X155537443Y-93436508D01*
X155545412Y-93467881D01*
X155551931Y-93500410D01*
X155557002Y-93534096D01*
X155560623Y-93568937D01*
X155562796Y-93604935D01*
X155563521Y-93642088D01*
X155563171Y-93668028D01*
X155562125Y-93693373D01*
X155560380Y-93718122D01*
X155557938Y-93742275D01*
X155554799Y-93765833D01*
X155550964Y-93788795D01*
X155546432Y-93811162D01*
X155541204Y-93832933D01*
X155535280Y-93854109D01*
X155528661Y-93874689D01*
X155521346Y-93894674D01*
X155513337Y-93914064D01*
X155504633Y-93932858D01*
X155495234Y-93951058D01*
X155485142Y-93968662D01*
X155474356Y-93985671D01*
X155462913Y-94002168D01*
X155450888Y-94018251D01*
X155438281Y-94033919D01*
X155425092Y-94049173D01*
X155411321Y-94064012D01*
X155396967Y-94078436D01*
X155382031Y-94092444D01*
X155366512Y-94106038D01*
X155350410Y-94119216D01*
X155333725Y-94131979D01*
X155316457Y-94144325D01*
X155298605Y-94156256D01*
X155280170Y-94167771D01*
X155261151Y-94178870D01*
X155241548Y-94189553D01*
X155221362Y-94199819D01*
X155675651Y-95045120D01*
X155264436Y-95045120D01*
X154876291Y-94297593D01*
X154502595Y-94297593D01*
X154502595Y-95045120D01*
X154134559Y-95045120D01*
X154134559Y-93340193D01*
X154502596Y-93340193D01*
X154502596Y-93989972D01*
X154772788Y-93989972D01*
X154821884Y-93988692D01*
X154867812Y-93984849D01*
X154910572Y-93978445D01*
X154950163Y-93969481D01*
X154968770Y-93964038D01*
X154986586Y-93957955D01*
X155003609Y-93951232D01*
X155019841Y-93943869D01*
X155035280Y-93935866D01*
X155049928Y-93927223D01*
X155063783Y-93917940D01*
X155076847Y-93908017D01*
X155089119Y-93897453D01*
X155100599Y-93886250D01*
X155111287Y-93874408D01*
X155121183Y-93861925D01*
X155130287Y-93848803D01*
X155138600Y-93835040D01*
X155146121Y-93820638D01*
X155152850Y-93805597D01*
X155158787Y-93789915D01*
X155163933Y-93773594D01*
X155168287Y-93756634D01*
X155171849Y-93739034D01*
X155174620Y-93720794D01*
X155176599Y-93701915D01*
X155177786Y-93682396D01*
X155178182Y-93662238D01*
X155177822Y-93642770D01*
X155176744Y-93623897D01*
X155174946Y-93605620D01*
X155172429Y-93587939D01*
X155169194Y-93570852D01*
X155165240Y-93554361D01*
X155160568Y-93538465D01*
X155155177Y-93523164D01*
X155149068Y-93508457D01*
X155142242Y-93494345D01*
X155134698Y-93480828D01*
X155126436Y-93467905D01*
X155117456Y-93455575D01*
X155107760Y-93443840D01*
X155097346Y-93432698D01*
X155086215Y-93422150D01*
X155074266Y-93412227D01*
X155061418Y-93402944D01*
X155047670Y-93394300D01*
X155033024Y-93386297D01*
X155017479Y-93378934D01*
X155001035Y-93372211D01*
X154983693Y-93366128D01*
X154965452Y-93360685D01*
X154946312Y-93355882D01*
X154926274Y-93351720D01*
X154905338Y-93348198D01*
X154883503Y-93345316D01*
X154860770Y-93343075D01*
X154837139Y-93341474D01*
X154812610Y-93340513D01*
X154787183Y-93340193D01*
X154502596Y-93340193D01*
X154134559Y-93340193D01*
X154134559Y-93032547D01*
X154870577Y-93032547D01*
X154910280Y-93033148D01*
G37*
G36*
X159513591Y-92551004D02*
G01*
X159145608Y-92551004D01*
X159499197Y-90538425D01*
X159867286Y-90538425D01*
X159513591Y-92551004D01*
G37*
G36*
X146818514Y-94087741D02*
G01*
X146819098Y-94139117D01*
X146820847Y-94188288D01*
X146823764Y-94235253D01*
X146827848Y-94280014D01*
X146833100Y-94322570D01*
X146839519Y-94362922D01*
X146847107Y-94401069D01*
X146855863Y-94437013D01*
X146860786Y-94454212D01*
X146866215Y-94470925D01*
X146872149Y-94487154D01*
X146878590Y-94502898D01*
X146885537Y-94518157D01*
X146892990Y-94532933D01*
X146900949Y-94547224D01*
X146909414Y-94561032D01*
X146918385Y-94574357D01*
X146927862Y-94587198D01*
X146937846Y-94599557D01*
X146948336Y-94611433D01*
X146959333Y-94622828D01*
X146970836Y-94633740D01*
X146982845Y-94644170D01*
X146995362Y-94654120D01*
X147008443Y-94663514D01*
X147022188Y-94672303D01*
X147036597Y-94680487D01*
X147051669Y-94688065D01*
X147067405Y-94695038D01*
X147083806Y-94701405D01*
X147100870Y-94707166D01*
X147118598Y-94712322D01*
X147136990Y-94716871D01*
X147156047Y-94720814D01*
X147175768Y-94724151D01*
X147196153Y-94726882D01*
X147217203Y-94729006D01*
X147238917Y-94730523D01*
X147261296Y-94731434D01*
X147284339Y-94731737D01*
X147307346Y-94731434D01*
X147329694Y-94730523D01*
X147351383Y-94729006D01*
X147372412Y-94726882D01*
X147392780Y-94724151D01*
X147412489Y-94720814D01*
X147431536Y-94716871D01*
X147449922Y-94712322D01*
X147467647Y-94707166D01*
X147484709Y-94701405D01*
X147501109Y-94695038D01*
X147516846Y-94688065D01*
X147531920Y-94680487D01*
X147546330Y-94672303D01*
X147560076Y-94663514D01*
X147573158Y-94654120D01*
X147585666Y-94644171D01*
X147597670Y-94633740D01*
X147609170Y-94622828D01*
X147620165Y-94611434D01*
X147630655Y-94599557D01*
X147640641Y-94587198D01*
X147650121Y-94574357D01*
X147659095Y-94561032D01*
X147667563Y-94547224D01*
X147675525Y-94532933D01*
X147682980Y-94518157D01*
X147689929Y-94502898D01*
X147696370Y-94487154D01*
X147702303Y-94470925D01*
X147707729Y-94454212D01*
X147712646Y-94437013D01*
X147721407Y-94401069D01*
X147728998Y-94362922D01*
X147735420Y-94322570D01*
X147740673Y-94280014D01*
X147744757Y-94235254D01*
X147747674Y-94188288D01*
X147749423Y-94139117D01*
X147750006Y-94087741D01*
X147750006Y-93032547D01*
X148117989Y-93032547D01*
X148117989Y-94182621D01*
X148117169Y-94234734D01*
X148114710Y-94285421D01*
X148110611Y-94334683D01*
X148104874Y-94382519D01*
X148097497Y-94428928D01*
X148088482Y-94473912D01*
X148077828Y-94517470D01*
X148065535Y-94559602D01*
X148051604Y-94600309D01*
X148036035Y-94639589D01*
X148018828Y-94677443D01*
X147999983Y-94713871D01*
X147979500Y-94748873D01*
X147957380Y-94782449D01*
X147933622Y-94814599D01*
X147908227Y-94845322D01*
X147881178Y-94874387D01*
X147852536Y-94901576D01*
X147822301Y-94926891D01*
X147790474Y-94950331D01*
X147757055Y-94971895D01*
X147722043Y-94991585D01*
X147685439Y-95009399D01*
X147647242Y-95025339D01*
X147607453Y-95039403D01*
X147566071Y-95051592D01*
X147523097Y-95061906D01*
X147478530Y-95070345D01*
X147432371Y-95076909D01*
X147384620Y-95081597D01*
X147335276Y-95084410D01*
X147284339Y-95085347D01*
X147233374Y-95084410D01*
X147184005Y-95081597D01*
X147136230Y-95076909D01*
X147090051Y-95070345D01*
X147045467Y-95061906D01*
X147002479Y-95051592D01*
X146961086Y-95039403D01*
X146921289Y-95025339D01*
X146883087Y-95009399D01*
X146846482Y-94991585D01*
X146811472Y-94971895D01*
X146778058Y-94950331D01*
X146746240Y-94926891D01*
X146716018Y-94901576D01*
X146687392Y-94874387D01*
X146660362Y-94845322D01*
X146634948Y-94814599D01*
X146611174Y-94782449D01*
X146589040Y-94748873D01*
X146568546Y-94713871D01*
X146549692Y-94677443D01*
X146532478Y-94639589D01*
X146516904Y-94600309D01*
X146502970Y-94559602D01*
X146490675Y-94517470D01*
X146480020Y-94473912D01*
X146471005Y-94428928D01*
X146463628Y-94382519D01*
X146457892Y-94334683D01*
X146453794Y-94285421D01*
X146451335Y-94234734D01*
X146450516Y-94182621D01*
X146450516Y-93032547D01*
X146818514Y-93032547D01*
X146818514Y-94087741D01*
G37*
G36*
X144205135Y-93389078D02*
G01*
X143635847Y-93389078D01*
X143635847Y-95045120D01*
X143267827Y-95045120D01*
X143267827Y-93389078D01*
X142698560Y-93389078D01*
X142698560Y-93032547D01*
X144205135Y-93032547D01*
X144205135Y-93389078D01*
G37*
G36*
X153814838Y-93389078D02*
G01*
X152903454Y-93389078D01*
X152903454Y-93817475D01*
X153610737Y-93817475D01*
X153610737Y-94173980D01*
X152903454Y-94173980D01*
X152903454Y-94688637D01*
X153843677Y-94688637D01*
X153843677Y-95045120D01*
X152526845Y-95045120D01*
X152526845Y-93032547D01*
X153814838Y-93032547D01*
X153814838Y-93389078D01*
G37*
G36*
X157188593Y-97535119D02*
G01*
X156820609Y-97535119D01*
X157174252Y-95522529D01*
X157542289Y-95522529D01*
X157188593Y-97535119D01*
G37*
D11*
X163478328Y-111621428D02*
X163478328Y-111050000D01*
X162978328Y-111407143D02*
X164264042Y-111407143D01*
X164264042Y-111407143D02*
X164406900Y-111335714D01*
X164406900Y-111335714D02*
X164478328Y-111192857D01*
X164478328Y-111192857D02*
X164478328Y-111050000D01*
X164478328Y-110335714D02*
X164406900Y-110478571D01*
X164406900Y-110478571D02*
X164335471Y-110550000D01*
X164335471Y-110550000D02*
X164192614Y-110621428D01*
X164192614Y-110621428D02*
X163764042Y-110621428D01*
X163764042Y-110621428D02*
X163621185Y-110550000D01*
X163621185Y-110550000D02*
X163549757Y-110478571D01*
X163549757Y-110478571D02*
X163478328Y-110335714D01*
X163478328Y-110335714D02*
X163478328Y-110121428D01*
X163478328Y-110121428D02*
X163549757Y-109978571D01*
X163549757Y-109978571D02*
X163621185Y-109907143D01*
X163621185Y-109907143D02*
X163764042Y-109835714D01*
X163764042Y-109835714D02*
X164192614Y-109835714D01*
X164192614Y-109835714D02*
X164335471Y-109907143D01*
X164335471Y-109907143D02*
X164406900Y-109978571D01*
X164406900Y-109978571D02*
X164478328Y-110121428D01*
X164478328Y-110121428D02*
X164478328Y-110335714D01*
X163692614Y-107550000D02*
X163692614Y-108050000D01*
X164478328Y-108050000D02*
X162978328Y-108050000D01*
X162978328Y-108050000D02*
X162978328Y-107335714D01*
X164478328Y-106764286D02*
X162978328Y-106764286D01*
X162978328Y-106764286D02*
X164049757Y-106264286D01*
X164049757Y-106264286D02*
X162978328Y-105764286D01*
X162978328Y-105764286D02*
X164478328Y-105764286D01*
X162978328Y-105050000D02*
X164192614Y-105050000D01*
X164192614Y-105050000D02*
X164335471Y-104978571D01*
X164335471Y-104978571D02*
X164406900Y-104907143D01*
X164406900Y-104907143D02*
X164478328Y-104764285D01*
X164478328Y-104764285D02*
X164478328Y-104478571D01*
X164478328Y-104478571D02*
X164406900Y-104335714D01*
X164406900Y-104335714D02*
X164335471Y-104264285D01*
X164335471Y-104264285D02*
X164192614Y-104192857D01*
X164192614Y-104192857D02*
X162978328Y-104192857D01*
X163378328Y-98078571D02*
X163378328Y-97507143D01*
X162878328Y-97864286D02*
X164164042Y-97864286D01*
X164164042Y-97864286D02*
X164306900Y-97792857D01*
X164306900Y-97792857D02*
X164378328Y-97650000D01*
X164378328Y-97650000D02*
X164378328Y-97507143D01*
X164378328Y-96792857D02*
X164306900Y-96935714D01*
X164306900Y-96935714D02*
X164235471Y-97007143D01*
X164235471Y-97007143D02*
X164092614Y-97078571D01*
X164092614Y-97078571D02*
X163664042Y-97078571D01*
X163664042Y-97078571D02*
X163521185Y-97007143D01*
X163521185Y-97007143D02*
X163449757Y-96935714D01*
X163449757Y-96935714D02*
X163378328Y-96792857D01*
X163378328Y-96792857D02*
X163378328Y-96578571D01*
X163378328Y-96578571D02*
X163449757Y-96435714D01*
X163449757Y-96435714D02*
X163521185Y-96364286D01*
X163521185Y-96364286D02*
X163664042Y-96292857D01*
X163664042Y-96292857D02*
X164092614Y-96292857D01*
X164092614Y-96292857D02*
X164235471Y-96364286D01*
X164235471Y-96364286D02*
X164306900Y-96435714D01*
X164306900Y-96435714D02*
X164378328Y-96578571D01*
X164378328Y-96578571D02*
X164378328Y-96792857D01*
X164378328Y-94507143D02*
X162878328Y-94507143D01*
X162878328Y-94507143D02*
X162878328Y-93935714D01*
X162878328Y-93935714D02*
X162949757Y-93792857D01*
X162949757Y-93792857D02*
X163021185Y-93721428D01*
X163021185Y-93721428D02*
X163164042Y-93650000D01*
X163164042Y-93650000D02*
X163378328Y-93650000D01*
X163378328Y-93650000D02*
X163521185Y-93721428D01*
X163521185Y-93721428D02*
X163592614Y-93792857D01*
X163592614Y-93792857D02*
X163664042Y-93935714D01*
X163664042Y-93935714D02*
X163664042Y-94507143D01*
X163592614Y-93007143D02*
X163592614Y-92507143D01*
X164378328Y-92292857D02*
X164378328Y-93007143D01*
X164378328Y-93007143D02*
X162878328Y-93007143D01*
X162878328Y-93007143D02*
X162878328Y-92292857D01*
X164378328Y-90792857D02*
X163664042Y-91292857D01*
X164378328Y-91650000D02*
X162878328Y-91650000D01*
X162878328Y-91650000D02*
X162878328Y-91078571D01*
X162878328Y-91078571D02*
X162949757Y-90935714D01*
X162949757Y-90935714D02*
X163021185Y-90864285D01*
X163021185Y-90864285D02*
X163164042Y-90792857D01*
X163164042Y-90792857D02*
X163378328Y-90792857D01*
X163378328Y-90792857D02*
X163521185Y-90864285D01*
X163521185Y-90864285D02*
X163592614Y-90935714D01*
X163592614Y-90935714D02*
X163664042Y-91078571D01*
X163664042Y-91078571D02*
X163664042Y-91650000D01*
X164378328Y-90150000D02*
X162878328Y-90150000D01*
X164378328Y-89435714D02*
X162878328Y-89435714D01*
X162878328Y-89435714D02*
X162878328Y-88864285D01*
X162878328Y-88864285D02*
X162949757Y-88721428D01*
X162949757Y-88721428D02*
X163021185Y-88649999D01*
X163021185Y-88649999D02*
X163164042Y-88578571D01*
X163164042Y-88578571D02*
X163378328Y-88578571D01*
X163378328Y-88578571D02*
X163521185Y-88649999D01*
X163521185Y-88649999D02*
X163592614Y-88721428D01*
X163592614Y-88721428D02*
X163664042Y-88864285D01*
X163664042Y-88864285D02*
X163664042Y-89435714D01*
X164235471Y-87935714D02*
X164306900Y-87864285D01*
X164306900Y-87864285D02*
X164378328Y-87935714D01*
X164378328Y-87935714D02*
X164306900Y-88007142D01*
X164306900Y-88007142D02*
X164235471Y-87935714D01*
X164235471Y-87935714D02*
X164378328Y-87935714D01*
X142288221Y-87878328D02*
X143145364Y-87878328D01*
X142716792Y-89378328D02*
X142716792Y-87878328D01*
X144145363Y-88592614D02*
X143645363Y-88592614D01*
X143645363Y-89378328D02*
X143645363Y-87878328D01*
X143645363Y-87878328D02*
X144359649Y-87878328D01*
X144931077Y-87878328D02*
X144931077Y-89092614D01*
X144931077Y-89092614D02*
X145002506Y-89235471D01*
X145002506Y-89235471D02*
X145073935Y-89306900D01*
X145073935Y-89306900D02*
X145216792Y-89378328D01*
X145216792Y-89378328D02*
X145502506Y-89378328D01*
X145502506Y-89378328D02*
X145645363Y-89306900D01*
X145645363Y-89306900D02*
X145716792Y-89235471D01*
X145716792Y-89235471D02*
X145788220Y-89092614D01*
X145788220Y-89092614D02*
X145788220Y-87878328D01*
X146431078Y-89306900D02*
X146645364Y-89378328D01*
X146645364Y-89378328D02*
X147002506Y-89378328D01*
X147002506Y-89378328D02*
X147145364Y-89306900D01*
X147145364Y-89306900D02*
X147216792Y-89235471D01*
X147216792Y-89235471D02*
X147288221Y-89092614D01*
X147288221Y-89092614D02*
X147288221Y-88949757D01*
X147288221Y-88949757D02*
X147216792Y-88806900D01*
X147216792Y-88806900D02*
X147145364Y-88735471D01*
X147145364Y-88735471D02*
X147002506Y-88664042D01*
X147002506Y-88664042D02*
X146716792Y-88592614D01*
X146716792Y-88592614D02*
X146573935Y-88521185D01*
X146573935Y-88521185D02*
X146502506Y-88449757D01*
X146502506Y-88449757D02*
X146431078Y-88306900D01*
X146431078Y-88306900D02*
X146431078Y-88164042D01*
X146431078Y-88164042D02*
X146502506Y-88021185D01*
X146502506Y-88021185D02*
X146573935Y-87949757D01*
X146573935Y-87949757D02*
X146716792Y-87878328D01*
X146716792Y-87878328D02*
X147073935Y-87878328D01*
X147073935Y-87878328D02*
X147288221Y-87949757D01*
X148431077Y-88592614D02*
X148645363Y-88664042D01*
X148645363Y-88664042D02*
X148716792Y-88735471D01*
X148716792Y-88735471D02*
X148788220Y-88878328D01*
X148788220Y-88878328D02*
X148788220Y-89092614D01*
X148788220Y-89092614D02*
X148716792Y-89235471D01*
X148716792Y-89235471D02*
X148645363Y-89306900D01*
X148645363Y-89306900D02*
X148502506Y-89378328D01*
X148502506Y-89378328D02*
X147931077Y-89378328D01*
X147931077Y-89378328D02*
X147931077Y-87878328D01*
X147931077Y-87878328D02*
X148431077Y-87878328D01*
X148431077Y-87878328D02*
X148573935Y-87949757D01*
X148573935Y-87949757D02*
X148645363Y-88021185D01*
X148645363Y-88021185D02*
X148716792Y-88164042D01*
X148716792Y-88164042D02*
X148716792Y-88306900D01*
X148716792Y-88306900D02*
X148645363Y-88449757D01*
X148645363Y-88449757D02*
X148573935Y-88521185D01*
X148573935Y-88521185D02*
X148431077Y-88592614D01*
X148431077Y-88592614D02*
X147931077Y-88592614D01*
X149359649Y-89306900D02*
X149573935Y-89378328D01*
X149573935Y-89378328D02*
X149931077Y-89378328D01*
X149931077Y-89378328D02*
X150073935Y-89306900D01*
X150073935Y-89306900D02*
X150145363Y-89235471D01*
X150145363Y-89235471D02*
X150216792Y-89092614D01*
X150216792Y-89092614D02*
X150216792Y-88949757D01*
X150216792Y-88949757D02*
X150145363Y-88806900D01*
X150145363Y-88806900D02*
X150073935Y-88735471D01*
X150073935Y-88735471D02*
X149931077Y-88664042D01*
X149931077Y-88664042D02*
X149645363Y-88592614D01*
X149645363Y-88592614D02*
X149502506Y-88521185D01*
X149502506Y-88521185D02*
X149431077Y-88449757D01*
X149431077Y-88449757D02*
X149359649Y-88306900D01*
X149359649Y-88306900D02*
X149359649Y-88164042D01*
X149359649Y-88164042D02*
X149431077Y-88021185D01*
X149431077Y-88021185D02*
X149502506Y-87949757D01*
X149502506Y-87949757D02*
X149645363Y-87878328D01*
X149645363Y-87878328D02*
X150002506Y-87878328D01*
X150002506Y-87878328D02*
X150216792Y-87949757D01*
X150859648Y-88592614D02*
X151359648Y-88592614D01*
X151573934Y-89378328D02*
X150859648Y-89378328D01*
X150859648Y-89378328D02*
X150859648Y-87878328D01*
X150859648Y-87878328D02*
X151573934Y-87878328D01*
X153073934Y-89378328D02*
X152573934Y-88664042D01*
X152216791Y-89378328D02*
X152216791Y-87878328D01*
X152216791Y-87878328D02*
X152788220Y-87878328D01*
X152788220Y-87878328D02*
X152931077Y-87949757D01*
X152931077Y-87949757D02*
X153002506Y-88021185D01*
X153002506Y-88021185D02*
X153073934Y-88164042D01*
X153073934Y-88164042D02*
X153073934Y-88378328D01*
X153073934Y-88378328D02*
X153002506Y-88521185D01*
X153002506Y-88521185D02*
X152931077Y-88592614D01*
X152931077Y-88592614D02*
X152788220Y-88664042D01*
X152788220Y-88664042D02*
X152216791Y-88664042D01*
X153716791Y-89378328D02*
X153716791Y-87878328D01*
X154359649Y-88949757D02*
X155073935Y-88949757D01*
X154216792Y-89378328D02*
X154716792Y-87878328D01*
X154716792Y-87878328D02*
X155216792Y-89378328D01*
X156431077Y-89378328D02*
X155716791Y-89378328D01*
X155716791Y-89378328D02*
X155716791Y-87878328D01*
X157216792Y-87878328D02*
X157359649Y-87878328D01*
X157359649Y-87878328D02*
X157502506Y-87949757D01*
X157502506Y-87949757D02*
X157573935Y-88021185D01*
X157573935Y-88021185D02*
X157645363Y-88164042D01*
X157645363Y-88164042D02*
X157716792Y-88449757D01*
X157716792Y-88449757D02*
X157716792Y-88806900D01*
X157716792Y-88806900D02*
X157645363Y-89092614D01*
X157645363Y-89092614D02*
X157573935Y-89235471D01*
X157573935Y-89235471D02*
X157502506Y-89306900D01*
X157502506Y-89306900D02*
X157359649Y-89378328D01*
X157359649Y-89378328D02*
X157216792Y-89378328D01*
X157216792Y-89378328D02*
X157073935Y-89306900D01*
X157073935Y-89306900D02*
X157002506Y-89235471D01*
X157002506Y-89235471D02*
X156931077Y-89092614D01*
X156931077Y-89092614D02*
X156859649Y-88806900D01*
X156859649Y-88806900D02*
X156859649Y-88449757D01*
X156859649Y-88449757D02*
X156931077Y-88164042D01*
X156931077Y-88164042D02*
X157002506Y-88021185D01*
X157002506Y-88021185D02*
X157073935Y-87949757D01*
X157073935Y-87949757D02*
X157216792Y-87878328D01*
X159145363Y-89378328D02*
X158288220Y-89378328D01*
X158716791Y-89378328D02*
X158716791Y-87878328D01*
X158716791Y-87878328D02*
X158573934Y-88092614D01*
X158573934Y-88092614D02*
X158431077Y-88235471D01*
X158431077Y-88235471D02*
X158288220Y-88306900D01*
X159716791Y-88949757D02*
X160431077Y-88949757D01*
X159573934Y-89378328D02*
X160073934Y-87878328D01*
X160073934Y-87878328D02*
X160573934Y-89378328D01*
X148659649Y-90621185D02*
X148731077Y-90549757D01*
X148731077Y-90549757D02*
X148873935Y-90478328D01*
X148873935Y-90478328D02*
X149231077Y-90478328D01*
X149231077Y-90478328D02*
X149373935Y-90549757D01*
X149373935Y-90549757D02*
X149445363Y-90621185D01*
X149445363Y-90621185D02*
X149516792Y-90764042D01*
X149516792Y-90764042D02*
X149516792Y-90906900D01*
X149516792Y-90906900D02*
X149445363Y-91121185D01*
X149445363Y-91121185D02*
X148588220Y-91978328D01*
X148588220Y-91978328D02*
X149516792Y-91978328D01*
X150445363Y-90478328D02*
X150588220Y-90478328D01*
X150588220Y-90478328D02*
X150731077Y-90549757D01*
X150731077Y-90549757D02*
X150802506Y-90621185D01*
X150802506Y-90621185D02*
X150873934Y-90764042D01*
X150873934Y-90764042D02*
X150945363Y-91049757D01*
X150945363Y-91049757D02*
X150945363Y-91406900D01*
X150945363Y-91406900D02*
X150873934Y-91692614D01*
X150873934Y-91692614D02*
X150802506Y-91835471D01*
X150802506Y-91835471D02*
X150731077Y-91906900D01*
X150731077Y-91906900D02*
X150588220Y-91978328D01*
X150588220Y-91978328D02*
X150445363Y-91978328D01*
X150445363Y-91978328D02*
X150302506Y-91906900D01*
X150302506Y-91906900D02*
X150231077Y-91835471D01*
X150231077Y-91835471D02*
X150159648Y-91692614D01*
X150159648Y-91692614D02*
X150088220Y-91406900D01*
X150088220Y-91406900D02*
X150088220Y-91049757D01*
X150088220Y-91049757D02*
X150159648Y-90764042D01*
X150159648Y-90764042D02*
X150231077Y-90621185D01*
X150231077Y-90621185D02*
X150302506Y-90549757D01*
X150302506Y-90549757D02*
X150445363Y-90478328D01*
X151516791Y-90621185D02*
X151588219Y-90549757D01*
X151588219Y-90549757D02*
X151731077Y-90478328D01*
X151731077Y-90478328D02*
X152088219Y-90478328D01*
X152088219Y-90478328D02*
X152231077Y-90549757D01*
X152231077Y-90549757D02*
X152302505Y-90621185D01*
X152302505Y-90621185D02*
X152373934Y-90764042D01*
X152373934Y-90764042D02*
X152373934Y-90906900D01*
X152373934Y-90906900D02*
X152302505Y-91121185D01*
X152302505Y-91121185D02*
X151445362Y-91978328D01*
X151445362Y-91978328D02*
X152373934Y-91978328D01*
X152873933Y-90478328D02*
X153802505Y-90478328D01*
X153802505Y-90478328D02*
X153302505Y-91049757D01*
X153302505Y-91049757D02*
X153516790Y-91049757D01*
X153516790Y-91049757D02*
X153659648Y-91121185D01*
X153659648Y-91121185D02*
X153731076Y-91192614D01*
X153731076Y-91192614D02*
X153802505Y-91335471D01*
X153802505Y-91335471D02*
X153802505Y-91692614D01*
X153802505Y-91692614D02*
X153731076Y-91835471D01*
X153731076Y-91835471D02*
X153659648Y-91906900D01*
X153659648Y-91906900D02*
X153516790Y-91978328D01*
X153516790Y-91978328D02*
X153088219Y-91978328D01*
X153088219Y-91978328D02*
X152945362Y-91906900D01*
X152945362Y-91906900D02*
X152873933Y-91835471D01*
D12*
X147152380Y-104428961D02*
X147723809Y-104428961D01*
X147380952Y-104086104D02*
X147152380Y-105114676D01*
X147647619Y-104771819D02*
X147076190Y-104771819D01*
X147419047Y-105114676D02*
X147647619Y-104086104D01*
X147990476Y-104962295D02*
X147990476Y-104162295D01*
X147990476Y-104162295D02*
X148180952Y-104162295D01*
X148180952Y-104162295D02*
X148295238Y-104200390D01*
X148295238Y-104200390D02*
X148371428Y-104276580D01*
X148371428Y-104276580D02*
X148409523Y-104352771D01*
X148409523Y-104352771D02*
X148447619Y-104505152D01*
X148447619Y-104505152D02*
X148447619Y-104619438D01*
X148447619Y-104619438D02*
X148409523Y-104771819D01*
X148409523Y-104771819D02*
X148371428Y-104848009D01*
X148371428Y-104848009D02*
X148295238Y-104924200D01*
X148295238Y-104924200D02*
X148180952Y-104962295D01*
X148180952Y-104962295D02*
X147990476Y-104962295D01*
X149247619Y-104886104D02*
X149209523Y-104924200D01*
X149209523Y-104924200D02*
X149095238Y-104962295D01*
X149095238Y-104962295D02*
X149019047Y-104962295D01*
X149019047Y-104962295D02*
X148904761Y-104924200D01*
X148904761Y-104924200D02*
X148828571Y-104848009D01*
X148828571Y-104848009D02*
X148790476Y-104771819D01*
X148790476Y-104771819D02*
X148752380Y-104619438D01*
X148752380Y-104619438D02*
X148752380Y-104505152D01*
X148752380Y-104505152D02*
X148790476Y-104352771D01*
X148790476Y-104352771D02*
X148828571Y-104276580D01*
X148828571Y-104276580D02*
X148904761Y-104200390D01*
X148904761Y-104200390D02*
X149019047Y-104162295D01*
X149019047Y-104162295D02*
X149095238Y-104162295D01*
X149095238Y-104162295D02*
X149209523Y-104200390D01*
X149209523Y-104200390D02*
X149247619Y-104238485D01*
X149590476Y-104962295D02*
X149590476Y-104162295D01*
X149590476Y-104162295D02*
X149780952Y-104162295D01*
X149780952Y-104162295D02*
X149895238Y-104200390D01*
X149895238Y-104200390D02*
X149971428Y-104276580D01*
X149971428Y-104276580D02*
X150009523Y-104352771D01*
X150009523Y-104352771D02*
X150047619Y-104505152D01*
X150047619Y-104505152D02*
X150047619Y-104619438D01*
X150047619Y-104619438D02*
X150009523Y-104771819D01*
X150009523Y-104771819D02*
X149971428Y-104848009D01*
X149971428Y-104848009D02*
X149895238Y-104924200D01*
X149895238Y-104924200D02*
X149780952Y-104962295D01*
X149780952Y-104962295D02*
X149590476Y-104962295D01*
X154747618Y-106528961D02*
X155319047Y-106528961D01*
X154976190Y-106186104D02*
X154747618Y-107214676D01*
X155242857Y-106871819D02*
X154671428Y-106871819D01*
X155014285Y-107214676D02*
X155242857Y-106186104D01*
X155585714Y-107062295D02*
X155585714Y-106262295D01*
X155585714Y-106262295D02*
X155776190Y-106262295D01*
X155776190Y-106262295D02*
X155890476Y-106300390D01*
X155890476Y-106300390D02*
X155966666Y-106376580D01*
X155966666Y-106376580D02*
X156004761Y-106452771D01*
X156004761Y-106452771D02*
X156042857Y-106605152D01*
X156042857Y-106605152D02*
X156042857Y-106719438D01*
X156042857Y-106719438D02*
X156004761Y-106871819D01*
X156004761Y-106871819D02*
X155966666Y-106948009D01*
X155966666Y-106948009D02*
X155890476Y-107024200D01*
X155890476Y-107024200D02*
X155776190Y-107062295D01*
X155776190Y-107062295D02*
X155585714Y-107062295D01*
X156271428Y-106262295D02*
X156728571Y-106262295D01*
X156499999Y-107062295D02*
X156499999Y-106262295D01*
X157452381Y-107062295D02*
X157185714Y-106681342D01*
X156995238Y-107062295D02*
X156995238Y-106262295D01*
X156995238Y-106262295D02*
X157300000Y-106262295D01*
X157300000Y-106262295D02*
X157376190Y-106300390D01*
X157376190Y-106300390D02*
X157414285Y-106338485D01*
X157414285Y-106338485D02*
X157452381Y-106414676D01*
X157452381Y-106414676D02*
X157452381Y-106528961D01*
X157452381Y-106528961D02*
X157414285Y-106605152D01*
X157414285Y-106605152D02*
X157376190Y-106643247D01*
X157376190Y-106643247D02*
X157300000Y-106681342D01*
X157300000Y-106681342D02*
X156995238Y-106681342D01*
X154761904Y-104428961D02*
X155333333Y-104428961D01*
X154990476Y-104086104D02*
X154761904Y-105114676D01*
X155257143Y-104771819D02*
X154685714Y-104771819D01*
X155028571Y-105114676D02*
X155257143Y-104086104D01*
X156057143Y-104962295D02*
X155790476Y-104581342D01*
X155600000Y-104962295D02*
X155600000Y-104162295D01*
X155600000Y-104162295D02*
X155904762Y-104162295D01*
X155904762Y-104162295D02*
X155980952Y-104200390D01*
X155980952Y-104200390D02*
X156019047Y-104238485D01*
X156019047Y-104238485D02*
X156057143Y-104314676D01*
X156057143Y-104314676D02*
X156057143Y-104428961D01*
X156057143Y-104428961D02*
X156019047Y-104505152D01*
X156019047Y-104505152D02*
X155980952Y-104543247D01*
X155980952Y-104543247D02*
X155904762Y-104581342D01*
X155904762Y-104581342D02*
X155600000Y-104581342D01*
X156400000Y-104962295D02*
X156400000Y-104162295D01*
X147171428Y-106528961D02*
X147742857Y-106528961D01*
X147400000Y-106186104D02*
X147171428Y-107214676D01*
X147666667Y-106871819D02*
X147095238Y-106871819D01*
X147438095Y-107214676D02*
X147666667Y-106186104D01*
X148009524Y-107062295D02*
X148009524Y-106262295D01*
X148009524Y-106262295D02*
X148200000Y-106262295D01*
X148200000Y-106262295D02*
X148314286Y-106300390D01*
X148314286Y-106300390D02*
X148390476Y-106376580D01*
X148390476Y-106376580D02*
X148428571Y-106452771D01*
X148428571Y-106452771D02*
X148466667Y-106605152D01*
X148466667Y-106605152D02*
X148466667Y-106719438D01*
X148466667Y-106719438D02*
X148428571Y-106871819D01*
X148428571Y-106871819D02*
X148390476Y-106948009D01*
X148390476Y-106948009D02*
X148314286Y-107024200D01*
X148314286Y-107024200D02*
X148200000Y-107062295D01*
X148200000Y-107062295D02*
X148009524Y-107062295D01*
X148771428Y-107024200D02*
X148885714Y-107062295D01*
X148885714Y-107062295D02*
X149076190Y-107062295D01*
X149076190Y-107062295D02*
X149152381Y-107024200D01*
X149152381Y-107024200D02*
X149190476Y-106986104D01*
X149190476Y-106986104D02*
X149228571Y-106909914D01*
X149228571Y-106909914D02*
X149228571Y-106833723D01*
X149228571Y-106833723D02*
X149190476Y-106757533D01*
X149190476Y-106757533D02*
X149152381Y-106719438D01*
X149152381Y-106719438D02*
X149076190Y-106681342D01*
X149076190Y-106681342D02*
X148923809Y-106643247D01*
X148923809Y-106643247D02*
X148847619Y-106605152D01*
X148847619Y-106605152D02*
X148809524Y-106567057D01*
X148809524Y-106567057D02*
X148771428Y-106490866D01*
X148771428Y-106490866D02*
X148771428Y-106414676D01*
X148771428Y-106414676D02*
X148809524Y-106338485D01*
X148809524Y-106338485D02*
X148847619Y-106300390D01*
X148847619Y-106300390D02*
X148923809Y-106262295D01*
X148923809Y-106262295D02*
X149114286Y-106262295D01*
X149114286Y-106262295D02*
X149228571Y-106300390D01*
X150028572Y-107062295D02*
X149761905Y-106681342D01*
X149571429Y-107062295D02*
X149571429Y-106262295D01*
X149571429Y-106262295D02*
X149876191Y-106262295D01*
X149876191Y-106262295D02*
X149952381Y-106300390D01*
X149952381Y-106300390D02*
X149990476Y-106338485D01*
X149990476Y-106338485D02*
X150028572Y-106414676D01*
X150028572Y-106414676D02*
X150028572Y-106528961D01*
X150028572Y-106528961D02*
X149990476Y-106605152D01*
X149990476Y-106605152D02*
X149952381Y-106643247D01*
X149952381Y-106643247D02*
X149876191Y-106681342D01*
X149876191Y-106681342D02*
X149571429Y-106681342D01*
D13*
%TO.C,TP3*%
X151900000Y-104600000D02*
G75*
G03*
X151900000Y-104600000I-700000J0D01*
G01*
%TO.C,TP1*%
X154300000Y-106700000D02*
G75*
G03*
X154300000Y-106700000I-700000J0D01*
G01*
%TO.C,TP4*%
X154300000Y-104600000D02*
G75*
G03*
X154300000Y-104600000I-700000J0D01*
G01*
%TO.C,TP2*%
X151900000Y-106700000D02*
G75*
G03*
X151900000Y-106700000I-700000J0D01*
G01*
%TD*%
M02*
