%TF.GenerationSoftware,KiCad,Pcbnew,7.0.7-7.0.7~ubuntu23.04.1*%
%TF.CreationDate,2023-09-21T05:22:11+00:00*%
%TF.ProjectId,TFUSBSERIAL01,54465553-4253-4455-9249-414c30312e6b,REV*%
%TF.SameCoordinates,Original*%
%TF.FileFunction,Copper,L1,Top*%
%TF.FilePolarity,Positive*%
%FSLAX46Y46*%
G04 Gerber Fmt 4.6, Leading zero omitted, Abs format (unit mm)*
G04 Created by KiCad (PCBNEW 7.0.7-7.0.7~ubuntu23.04.1) date 2023-09-21 05:22:11*
%MOMM*%
%LPD*%
G01*
G04 APERTURE LIST*
%TA.AperFunction,SMDPad,CuDef*%
%ADD10C,1.000000*%
%TD*%
%TA.AperFunction,ComponentPad*%
%ADD11O,2.000000X1.000000*%
%TD*%
%TA.AperFunction,ComponentPad*%
%ADD12O,2.100000X1.050000*%
%TD*%
%TA.AperFunction,ViaPad*%
%ADD13C,0.800000*%
%TD*%
%TA.AperFunction,Conductor*%
%ADD14C,0.300000*%
%TD*%
%TA.AperFunction,Conductor*%
%ADD15C,0.400000*%
%TD*%
G04 APERTURE END LIST*
D10*
%TO.P,TP3,1,1*%
%TO.N,Net-(U2-~{DCD})*%
X151200000Y-104600000D03*
%TD*%
%TO.P,TP1,1,1*%
%TO.N,Net-(U2-~{DTR})*%
X153600000Y-106700000D03*
%TD*%
%TO.P,TP4,1,1*%
%TO.N,Net-(U2-~{RI})*%
X153600000Y-104600000D03*
%TD*%
%TO.P,TP2,1,1*%
%TO.N,Net-(U2-~{DSR})*%
X151200000Y-106700000D03*
%TD*%
D11*
%TO.P,J1,G1,SHIELD*%
%TO.N,GND*%
X138591200Y-104637000D03*
%TO.P,J1,G2,SHIELD*%
X138591200Y-95997000D03*
D12*
%TO.P,J1,G3,SHIELD*%
X142771200Y-104637000D03*
%TO.P,J1,G4,SHIELD*%
X142771200Y-95997000D03*
%TD*%
D13*
%TO.N,GND*%
X148040000Y-102871000D03*
X151047000Y-86800000D03*
X162391000Y-86361000D03*
X137626000Y-89663000D03*
X160500000Y-112400000D03*
X144600000Y-95800000D03*
X154349000Y-86800000D03*
X163153000Y-114301000D03*
X163534000Y-86361000D03*
X155400000Y-108200000D03*
X137753000Y-112015000D03*
X164550000Y-86361000D03*
X137753000Y-107697000D03*
X145246000Y-96775000D03*
X137626000Y-92838000D03*
X148441809Y-97259855D03*
X156000000Y-86800000D03*
X155100000Y-111400000D03*
X145119000Y-104141000D03*
X146200000Y-90400000D03*
X154900000Y-96600000D03*
X160994000Y-114301000D03*
X144992000Y-110110000D03*
X152698000Y-86800000D03*
X137753000Y-109475000D03*
X155200000Y-98800000D03*
X145700000Y-114100000D03*
X137626000Y-91314000D03*
X162137000Y-114301000D03*
X161248000Y-86361000D03*
X164296000Y-114301000D03*
X143300000Y-92400000D03*
X147400000Y-95700000D03*
%TO.N,Net-(U2-3V3OUT)*%
X151400000Y-99200000D03*
X155149500Y-102800000D03*
%TO.N,Net-(D1-A)*%
X162255000Y-89400000D03*
X163700000Y-99400000D03*
%TO.N,/VBUS*%
X146516000Y-102900000D03*
X146359954Y-100300000D03*
X146500000Y-97917000D03*
%TO.N,/D+*%
X144992000Y-99317500D03*
X144974000Y-100816500D03*
%TO.N,/TXD*%
X156300000Y-95200000D03*
X159200000Y-103600000D03*
%TO.N,/RXD*%
X159400000Y-106500000D03*
X155200000Y-107100000D03*
X157900000Y-98300000D03*
%TO.N,/#CTS*%
X162500000Y-110100000D03*
X162100000Y-93000000D03*
%TO.N,/RXLED{slash}CBUS1*%
X148200000Y-93218000D03*
X154701832Y-97795277D03*
%TO.N,/TXLED{slash}CBUS2*%
X150400000Y-102000000D03*
X146250000Y-96150000D03*
%TO.N,+5V*%
X140300000Y-105900000D03*
X139600000Y-87700000D03*
%TO.N,Net-(U2-~{RI})*%
X153600000Y-104300000D03*
%TO.N,Net-(U2-~{DSR})*%
X151900000Y-106600000D03*
%TO.N,Net-(U2-~{DCD})*%
X151200000Y-105100000D03*
%TO.N,Net-(U2-~{DTR})*%
X156800000Y-100300000D03*
%TD*%
D14*
%TO.N,Net-(U2-3V3OUT)*%
X151400000Y-99200000D02*
X155000000Y-102800000D01*
X155000000Y-102800000D02*
X155149500Y-102800000D01*
D15*
%TO.N,Net-(D1-A)*%
X162255000Y-89400000D02*
X163748511Y-90893511D01*
X163748511Y-90893511D02*
X163748511Y-99351489D01*
X163748511Y-99351489D02*
X163700000Y-99400000D01*
%TO.N,/VBUS*%
X146516000Y-102900000D02*
X146516000Y-100456046D01*
X146516000Y-100456046D02*
X146359954Y-100300000D01*
X146359954Y-100300000D02*
X146500000Y-100159954D01*
X146500000Y-100159954D02*
X146500000Y-97917000D01*
D14*
%TO.N,/D+*%
X144992000Y-99317500D02*
X144992000Y-100798500D01*
X144992000Y-100798500D02*
X144974000Y-100816500D01*
%TO.N,/TXD*%
X159600000Y-97600000D02*
X157200000Y-95200000D01*
X159200000Y-103600000D02*
X159600000Y-103200000D01*
X157200000Y-95200000D02*
X156300000Y-95200000D01*
X159600000Y-103200000D02*
X159600000Y-97600000D01*
%TO.N,/RXD*%
X157900000Y-98300000D02*
X157900000Y-105000000D01*
X155200000Y-107100000D02*
X156400000Y-107100000D01*
X156400000Y-107100000D02*
X158150000Y-105350000D01*
X157900000Y-105000000D02*
X159400000Y-106500000D01*
X158150000Y-105350000D02*
X158150000Y-105250000D01*
%TO.N,/#CTS*%
X162100000Y-93000000D02*
X162100000Y-109700000D01*
X162100000Y-109700000D02*
X162500000Y-110100000D01*
%TO.N,/RXLED{slash}CBUS1*%
X150118000Y-93218000D02*
X148200000Y-93218000D01*
X154695277Y-97795277D02*
X150118000Y-93218000D01*
X154701832Y-97795277D02*
X154695277Y-97795277D01*
%TO.N,/TXLED{slash}CBUS2*%
X150400000Y-100278000D02*
X150400000Y-102000000D01*
X146250000Y-96150000D02*
X146272000Y-96150000D01*
X146272000Y-96150000D02*
X150400000Y-100278000D01*
D15*
%TO.N,+5V*%
X140300000Y-105900000D02*
X140300000Y-88400000D01*
X140300000Y-88400000D02*
X139600000Y-87700000D01*
D14*
%TO.N,Net-(U2-~{DTR})*%
X156800000Y-103500000D02*
X153600000Y-106700000D01*
X156800000Y-100300000D02*
X156800000Y-103500000D01*
%TD*%
%TA.AperFunction,Conductor*%
%TO.N,GND*%
G36*
X165052691Y-85836407D02*
G01*
X165088655Y-85885907D01*
X165093500Y-85916500D01*
X165093500Y-114717500D01*
X165074593Y-114775691D01*
X165025093Y-114811655D01*
X164994500Y-114816500D01*
X136193500Y-114816500D01*
X136135309Y-114797593D01*
X136099345Y-114748093D01*
X136094500Y-114717500D01*
X136094500Y-106700000D01*
X150494355Y-106700000D01*
X150514860Y-106868872D01*
X150575182Y-107027930D01*
X150671816Y-107167927D01*
X150671818Y-107167930D01*
X150714260Y-107205530D01*
X150799148Y-107280734D01*
X150949775Y-107359790D01*
X151114944Y-107400500D01*
X151114947Y-107400500D01*
X151285053Y-107400500D01*
X151285056Y-107400500D01*
X151450225Y-107359790D01*
X151600852Y-107280734D01*
X151600854Y-107280731D01*
X151600856Y-107280731D01*
X151679511Y-107211049D01*
X151735605Y-107186613D01*
X151758079Y-107186997D01*
X151849641Y-107199052D01*
X151899999Y-107205682D01*
X151900000Y-107205682D01*
X151900001Y-107205682D01*
X151931352Y-107201554D01*
X152056762Y-107185044D01*
X152202841Y-107124536D01*
X152328282Y-107028282D01*
X152424536Y-106902841D01*
X152485044Y-106756762D01*
X152492517Y-106700000D01*
X152894355Y-106700000D01*
X152914860Y-106868872D01*
X152975182Y-107027930D01*
X153071816Y-107167927D01*
X153071818Y-107167930D01*
X153114260Y-107205530D01*
X153199148Y-107280734D01*
X153349775Y-107359790D01*
X153514944Y-107400500D01*
X153514947Y-107400500D01*
X153685053Y-107400500D01*
X153685056Y-107400500D01*
X153850225Y-107359790D01*
X154000852Y-107280734D01*
X154128183Y-107167929D01*
X154224818Y-107027930D01*
X154285140Y-106868872D01*
X154305645Y-106700000D01*
X154288721Y-106560621D01*
X154300476Y-106500577D01*
X154316991Y-106478689D01*
X157014884Y-103780796D01*
X157030734Y-103767926D01*
X157040669Y-103761437D01*
X157061338Y-103734879D01*
X157065388Y-103730292D01*
X157068375Y-103727307D01*
X157081044Y-103709562D01*
X157112517Y-103669126D01*
X157112519Y-103669118D01*
X157116021Y-103662649D01*
X157119238Y-103656068D01*
X157119237Y-103656068D01*
X157119239Y-103656067D01*
X157133858Y-103606962D01*
X157150500Y-103558488D01*
X157150500Y-103558487D01*
X157151706Y-103551259D01*
X157152617Y-103543954D01*
X157150500Y-103492769D01*
X157150500Y-100836787D01*
X157169407Y-100778596D01*
X157189233Y-100758245D01*
X157228282Y-100728282D01*
X157324536Y-100602841D01*
X157359035Y-100519551D01*
X157398772Y-100473025D01*
X157458267Y-100458741D01*
X157514795Y-100482156D01*
X157546765Y-100534324D01*
X157549500Y-100557436D01*
X157549500Y-104953381D01*
X157547393Y-104973696D01*
X157546329Y-104978774D01*
X157544957Y-104985315D01*
X157547462Y-105005407D01*
X157549120Y-105018709D01*
X157549500Y-105024837D01*
X157549500Y-105029040D01*
X157551891Y-105043373D01*
X157553087Y-105050541D01*
X157559425Y-105101388D01*
X157561527Y-105108448D01*
X157563907Y-105115380D01*
X157588295Y-105160444D01*
X157610801Y-105206482D01*
X157615078Y-105212472D01*
X157619580Y-105218256D01*
X157630353Y-105228174D01*
X157660358Y-105281497D01*
X157653291Y-105342273D01*
X157633304Y-105371013D01*
X156283814Y-106720504D01*
X156229297Y-106748281D01*
X156213810Y-106749500D01*
X155736787Y-106749500D01*
X155678596Y-106730593D01*
X155658245Y-106710767D01*
X155628285Y-106671722D01*
X155628282Y-106671718D01*
X155628277Y-106671714D01*
X155628276Y-106671713D01*
X155502838Y-106575462D01*
X155356766Y-106514957D01*
X155356758Y-106514955D01*
X155200001Y-106494318D01*
X155199999Y-106494318D01*
X155043241Y-106514955D01*
X155043233Y-106514957D01*
X154897161Y-106575462D01*
X154897160Y-106575462D01*
X154771723Y-106671713D01*
X154771713Y-106671723D01*
X154675462Y-106797160D01*
X154675462Y-106797161D01*
X154614957Y-106943233D01*
X154614955Y-106943241D01*
X154594318Y-107099999D01*
X154594318Y-107100000D01*
X154614955Y-107256758D01*
X154614957Y-107256766D01*
X154675462Y-107402838D01*
X154675462Y-107402839D01*
X154771713Y-107528276D01*
X154771718Y-107528282D01*
X154897159Y-107624536D01*
X155043238Y-107685044D01*
X155160809Y-107700522D01*
X155199999Y-107705682D01*
X155200000Y-107705682D01*
X155200001Y-107705682D01*
X155231352Y-107701554D01*
X155356762Y-107685044D01*
X155502841Y-107624536D01*
X155628282Y-107528282D01*
X155658245Y-107489232D01*
X155708669Y-107454577D01*
X155736787Y-107450500D01*
X156353381Y-107450500D01*
X156373696Y-107452607D01*
X156375844Y-107453057D01*
X156385315Y-107455043D01*
X156418712Y-107450879D01*
X156424837Y-107450500D01*
X156429041Y-107450500D01*
X156439790Y-107448706D01*
X156450540Y-107446912D01*
X156501393Y-107440573D01*
X156501396Y-107440571D01*
X156508429Y-107438477D01*
X156515377Y-107436092D01*
X156515381Y-107436092D01*
X156560444Y-107411704D01*
X156606484Y-107389198D01*
X156612470Y-107384923D01*
X156618256Y-107380420D01*
X156652957Y-107342724D01*
X157338923Y-106656758D01*
X158129995Y-105865684D01*
X158184512Y-105837908D01*
X158244944Y-105847479D01*
X158270003Y-105865685D01*
X158772592Y-106368274D01*
X158800369Y-106422791D01*
X158800741Y-106451197D01*
X158794318Y-106499995D01*
X158794318Y-106500000D01*
X158814955Y-106656758D01*
X158814957Y-106656766D01*
X158875462Y-106802838D01*
X158875462Y-106802839D01*
X158926131Y-106868872D01*
X158971718Y-106928282D01*
X159097159Y-107024536D01*
X159097160Y-107024536D01*
X159097161Y-107024537D01*
X159106212Y-107028286D01*
X159243238Y-107085044D01*
X159356833Y-107099999D01*
X159399999Y-107105682D01*
X159400000Y-107105682D01*
X159400001Y-107105682D01*
X159443167Y-107099999D01*
X159556762Y-107085044D01*
X159702841Y-107024536D01*
X159828282Y-106928282D01*
X159924536Y-106802841D01*
X159985044Y-106656762D01*
X160005682Y-106500000D01*
X159985044Y-106343238D01*
X159965958Y-106297160D01*
X159924537Y-106197161D01*
X159924537Y-106197160D01*
X159828286Y-106071723D01*
X159828285Y-106071722D01*
X159828282Y-106071718D01*
X159828277Y-106071714D01*
X159828276Y-106071713D01*
X159702838Y-105975462D01*
X159556766Y-105914957D01*
X159556758Y-105914955D01*
X159400001Y-105894318D01*
X159399996Y-105894318D01*
X159351197Y-105900741D01*
X159291037Y-105889589D01*
X159268274Y-105872592D01*
X158444146Y-105048464D01*
X158436119Y-105037697D01*
X158435455Y-105038214D01*
X158430418Y-105031742D01*
X158392724Y-104997041D01*
X158279496Y-104883814D01*
X158251719Y-104829297D01*
X158250500Y-104813810D01*
X158250500Y-98836787D01*
X158269407Y-98778596D01*
X158289233Y-98758245D01*
X158328282Y-98728282D01*
X158424536Y-98602841D01*
X158485044Y-98456762D01*
X158505682Y-98300000D01*
X158485044Y-98143238D01*
X158466354Y-98098116D01*
X158424537Y-97997161D01*
X158424537Y-97997160D01*
X158328286Y-97871723D01*
X158328285Y-97871722D01*
X158328282Y-97871718D01*
X158328277Y-97871714D01*
X158328276Y-97871713D01*
X158228662Y-97795277D01*
X158202841Y-97775464D01*
X158202840Y-97775463D01*
X158202838Y-97775462D01*
X158056766Y-97714957D01*
X158056758Y-97714955D01*
X157900001Y-97694318D01*
X157899999Y-97694318D01*
X157743241Y-97714955D01*
X157743233Y-97714957D01*
X157597161Y-97775462D01*
X157597160Y-97775462D01*
X157471723Y-97871713D01*
X157471713Y-97871723D01*
X157375462Y-97997160D01*
X157375462Y-97997161D01*
X157314957Y-98143233D01*
X157314955Y-98143241D01*
X157294318Y-98299999D01*
X157294318Y-98300000D01*
X157314955Y-98456758D01*
X157314957Y-98456766D01*
X157375462Y-98602838D01*
X157375462Y-98602839D01*
X157471713Y-98728276D01*
X157471718Y-98728282D01*
X157477156Y-98732455D01*
X157510767Y-98758245D01*
X157545423Y-98808669D01*
X157549500Y-98836787D01*
X157549500Y-100042563D01*
X157530593Y-100100754D01*
X157481093Y-100136718D01*
X157419907Y-100136718D01*
X157370407Y-100100754D01*
X157359036Y-100080449D01*
X157336081Y-100025031D01*
X157324536Y-99997159D01*
X157228282Y-99871718D01*
X157228277Y-99871714D01*
X157228276Y-99871713D01*
X157129729Y-99796096D01*
X157102841Y-99775464D01*
X157102840Y-99775463D01*
X157102838Y-99775462D01*
X156956766Y-99714957D01*
X156956758Y-99714955D01*
X156800001Y-99694318D01*
X156799999Y-99694318D01*
X156643241Y-99714955D01*
X156643233Y-99714957D01*
X156497161Y-99775462D01*
X156497160Y-99775462D01*
X156371723Y-99871713D01*
X156371713Y-99871723D01*
X156275462Y-99997160D01*
X156275462Y-99997161D01*
X156214957Y-100143233D01*
X156214955Y-100143241D01*
X156194318Y-100299999D01*
X156194318Y-100300000D01*
X156214955Y-100456758D01*
X156214957Y-100456766D01*
X156275462Y-100602838D01*
X156275462Y-100602839D01*
X156371713Y-100728276D01*
X156371718Y-100728282D01*
X156371722Y-100728285D01*
X156410767Y-100758245D01*
X156445423Y-100808669D01*
X156449500Y-100836787D01*
X156449500Y-103313809D01*
X156430593Y-103372000D01*
X156420504Y-103383813D01*
X153820617Y-105983699D01*
X153766100Y-106011476D01*
X153726923Y-106009819D01*
X153722345Y-106008690D01*
X153685056Y-105999500D01*
X153514944Y-105999500D01*
X153514941Y-105999500D01*
X153349776Y-106040209D01*
X153199146Y-106119267D01*
X153071818Y-106232069D01*
X153071816Y-106232071D01*
X153071817Y-106232071D01*
X152975182Y-106372070D01*
X152924511Y-106505682D01*
X152914860Y-106531129D01*
X152897789Y-106671722D01*
X152894355Y-106700000D01*
X152492517Y-106700000D01*
X152505682Y-106600000D01*
X152485044Y-106443238D01*
X152424537Y-106297161D01*
X152424537Y-106297160D01*
X152328286Y-106171723D01*
X152328285Y-106171722D01*
X152328282Y-106171718D01*
X152328277Y-106171714D01*
X152328276Y-106171713D01*
X152210037Y-106080986D01*
X152202841Y-106075464D01*
X152202840Y-106075463D01*
X152202838Y-106075462D01*
X152056766Y-106014957D01*
X152056758Y-106014955D01*
X151900001Y-105994318D01*
X151899999Y-105994318D01*
X151743241Y-106014955D01*
X151743233Y-106014957D01*
X151595416Y-106076185D01*
X151534420Y-106080986D01*
X151511524Y-106072382D01*
X151500395Y-106066541D01*
X151450225Y-106040210D01*
X151450222Y-106040209D01*
X151285058Y-105999500D01*
X151285056Y-105999500D01*
X151114944Y-105999500D01*
X151114941Y-105999500D01*
X150949776Y-106040209D01*
X150799146Y-106119267D01*
X150671818Y-106232069D01*
X150671816Y-106232071D01*
X150671817Y-106232071D01*
X150575182Y-106372070D01*
X150524511Y-106505682D01*
X150514860Y-106531129D01*
X150497789Y-106671722D01*
X150494355Y-106700000D01*
X136094500Y-106700000D01*
X136094500Y-104383000D01*
X137433956Y-104383000D01*
X137820465Y-104383000D01*
X137878656Y-104401907D01*
X137914620Y-104451407D01*
X137915685Y-104509091D01*
X137903057Y-104553479D01*
X137887305Y-104608840D01*
X137897654Y-104720520D01*
X137897655Y-104720523D01*
X137911273Y-104747872D01*
X137920286Y-104808390D01*
X137892005Y-104862648D01*
X137837234Y-104889920D01*
X137822652Y-104891000D01*
X137433957Y-104891000D01*
X137510881Y-105037568D01*
X137510881Y-105037569D01*
X137623599Y-105164800D01*
X137623605Y-105164805D01*
X137763506Y-105261371D01*
X137763509Y-105261373D01*
X137922441Y-105321648D01*
X137922451Y-105321651D01*
X138048848Y-105336999D01*
X138048865Y-105337000D01*
X138337199Y-105337000D01*
X138337200Y-105336999D01*
X138337200Y-105036000D01*
X138356107Y-104977809D01*
X138405607Y-104941845D01*
X138436200Y-104937000D01*
X138746200Y-104937000D01*
X138804391Y-104955907D01*
X138840355Y-105005407D01*
X138845200Y-105036000D01*
X138845200Y-105336998D01*
X138845201Y-105337000D01*
X139133535Y-105337000D01*
X139133551Y-105336999D01*
X139259948Y-105321651D01*
X139259958Y-105321648D01*
X139418890Y-105261373D01*
X139418893Y-105261371D01*
X139558794Y-105164805D01*
X139558800Y-105164800D01*
X139671516Y-105037571D01*
X139712839Y-104958836D01*
X139756623Y-104916097D01*
X139817167Y-104907256D01*
X139871344Y-104935690D01*
X139898461Y-104990538D01*
X139899500Y-105004843D01*
X139899500Y-105402929D01*
X139880593Y-105461120D01*
X139873276Y-105469687D01*
X139775462Y-105597160D01*
X139775462Y-105597161D01*
X139714957Y-105743233D01*
X139714955Y-105743241D01*
X139694318Y-105899999D01*
X139694318Y-105900000D01*
X139714955Y-106056758D01*
X139714957Y-106056766D01*
X139775462Y-106202838D01*
X139775462Y-106202839D01*
X139847837Y-106297160D01*
X139871718Y-106328282D01*
X139997159Y-106424536D01*
X139997160Y-106424536D01*
X139997161Y-106424537D01*
X140061524Y-106451197D01*
X140143238Y-106485044D01*
X140256803Y-106499995D01*
X140299999Y-106505682D01*
X140300000Y-106505682D01*
X140300001Y-106505682D01*
X140331352Y-106501554D01*
X140456762Y-106485044D01*
X140602841Y-106424536D01*
X140728282Y-106328282D01*
X140824536Y-106202841D01*
X140885044Y-106056762D01*
X140905682Y-105900000D01*
X140885044Y-105743238D01*
X140860938Y-105685042D01*
X140824537Y-105597161D01*
X140824537Y-105597160D01*
X140724332Y-105466570D01*
X140725713Y-105465509D01*
X140701719Y-105418416D01*
X140700500Y-105402929D01*
X140700500Y-104383000D01*
X141565449Y-104383000D01*
X141850465Y-104383000D01*
X141908656Y-104401907D01*
X141944620Y-104451407D01*
X141945685Y-104509091D01*
X141933057Y-104553479D01*
X141917305Y-104608840D01*
X141927654Y-104720520D01*
X141927655Y-104720523D01*
X141941273Y-104747872D01*
X141950286Y-104808390D01*
X141922005Y-104862648D01*
X141867234Y-104889920D01*
X141852652Y-104891000D01*
X141566190Y-104891000D01*
X141614055Y-105001965D01*
X141715263Y-105137911D01*
X141715265Y-105137913D01*
X141845091Y-105246851D01*
X141996546Y-105322914D01*
X141996545Y-105322914D01*
X142161463Y-105362000D01*
X142517199Y-105362000D01*
X142517200Y-105361998D01*
X142517200Y-105036000D01*
X142536107Y-104977809D01*
X142585607Y-104941845D01*
X142616200Y-104937000D01*
X142926200Y-104937000D01*
X142984391Y-104955907D01*
X143020355Y-105005407D01*
X143025200Y-105036000D01*
X143025200Y-105361999D01*
X143025201Y-105362000D01*
X143338424Y-105362000D01*
X143464538Y-105347258D01*
X143623794Y-105289295D01*
X143765391Y-105196164D01*
X143765394Y-105196162D01*
X143881697Y-105072889D01*
X143881698Y-105072889D01*
X143966438Y-104926113D01*
X143976951Y-104891000D01*
X143691935Y-104891000D01*
X143633744Y-104872093D01*
X143597780Y-104822593D01*
X143596714Y-104764907D01*
X143601561Y-104747872D01*
X143625095Y-104665160D01*
X143619057Y-104600000D01*
X150494355Y-104600000D01*
X150514860Y-104768872D01*
X150575182Y-104927930D01*
X150588625Y-104947405D01*
X150606120Y-105006033D01*
X150605302Y-105016563D01*
X150594318Y-105099999D01*
X150594318Y-105100000D01*
X150614955Y-105256758D01*
X150614957Y-105256766D01*
X150675462Y-105402838D01*
X150675462Y-105402839D01*
X150728315Y-105471718D01*
X150771718Y-105528282D01*
X150897159Y-105624536D01*
X151043238Y-105685044D01*
X151160809Y-105700522D01*
X151199999Y-105705682D01*
X151200000Y-105705682D01*
X151200001Y-105705682D01*
X151231352Y-105701554D01*
X151356762Y-105685044D01*
X151502841Y-105624536D01*
X151628282Y-105528282D01*
X151724536Y-105402841D01*
X151785044Y-105256762D01*
X151805682Y-105100000D01*
X151794697Y-105016564D01*
X151805847Y-104956405D01*
X151811370Y-104947411D01*
X151824818Y-104927930D01*
X151885140Y-104768872D01*
X151905645Y-104600000D01*
X152894355Y-104600000D01*
X152914860Y-104768872D01*
X152975182Y-104927930D01*
X153071817Y-105067929D01*
X153199148Y-105180734D01*
X153349775Y-105259790D01*
X153514944Y-105300500D01*
X153514947Y-105300500D01*
X153685053Y-105300500D01*
X153685056Y-105300500D01*
X153850225Y-105259790D01*
X154000852Y-105180734D01*
X154128183Y-105067929D01*
X154224818Y-104927930D01*
X154285140Y-104768872D01*
X154305645Y-104600000D01*
X154285140Y-104431128D01*
X154224818Y-104272070D01*
X154210188Y-104250875D01*
X154193512Y-104207561D01*
X154185044Y-104143238D01*
X154180419Y-104132072D01*
X154124537Y-103997161D01*
X154124537Y-103997160D01*
X154028286Y-103871723D01*
X154028285Y-103871722D01*
X154028282Y-103871718D01*
X154028277Y-103871714D01*
X154028276Y-103871713D01*
X153902838Y-103775462D01*
X153756766Y-103714957D01*
X153756758Y-103714955D01*
X153600001Y-103694318D01*
X153599999Y-103694318D01*
X153443241Y-103714955D01*
X153443233Y-103714957D01*
X153297161Y-103775462D01*
X153297160Y-103775462D01*
X153171723Y-103871713D01*
X153171713Y-103871723D01*
X153075462Y-103997160D01*
X153075462Y-103997161D01*
X153014956Y-104143237D01*
X153006487Y-104207562D01*
X152989810Y-104250876D01*
X152975185Y-104272063D01*
X152975181Y-104272071D01*
X152914860Y-104431129D01*
X152906381Y-104500962D01*
X152894355Y-104600000D01*
X151905645Y-104600000D01*
X151885140Y-104431128D01*
X151824818Y-104272070D01*
X151728183Y-104132071D01*
X151600852Y-104019266D01*
X151450225Y-103940210D01*
X151450224Y-103940209D01*
X151450223Y-103940209D01*
X151285058Y-103899500D01*
X151285056Y-103899500D01*
X151114944Y-103899500D01*
X151114941Y-103899500D01*
X150949776Y-103940209D01*
X150799146Y-104019267D01*
X150671818Y-104132069D01*
X150671816Y-104132072D01*
X150619711Y-104207559D01*
X150575182Y-104272070D01*
X150533113Y-104383000D01*
X150514860Y-104431129D01*
X150506381Y-104500962D01*
X150494355Y-104600000D01*
X143619057Y-104600000D01*
X143614746Y-104553479D01*
X143601127Y-104526128D01*
X143592114Y-104465610D01*
X143620395Y-104411352D01*
X143675166Y-104384080D01*
X143689748Y-104383000D01*
X143976210Y-104383000D01*
X143976209Y-104382999D01*
X143928344Y-104272034D01*
X143827136Y-104136088D01*
X143827134Y-104136086D01*
X143697308Y-104027148D01*
X143545853Y-103951085D01*
X143545854Y-103951085D01*
X143380937Y-103912000D01*
X143025201Y-103912000D01*
X143025200Y-103912001D01*
X143025200Y-104238000D01*
X143006293Y-104296191D01*
X142956793Y-104332155D01*
X142926200Y-104337000D01*
X142616200Y-104337000D01*
X142558009Y-104318093D01*
X142522045Y-104268593D01*
X142517200Y-104238000D01*
X142517200Y-103912001D01*
X142517199Y-103912000D01*
X142203976Y-103912000D01*
X142077861Y-103926741D01*
X141918605Y-103984704D01*
X141777008Y-104077835D01*
X141777005Y-104077837D01*
X141660702Y-104201110D01*
X141660701Y-104201110D01*
X141575961Y-104347886D01*
X141565449Y-104383000D01*
X140700500Y-104383000D01*
X140700500Y-100816500D01*
X144368318Y-100816500D01*
X144388955Y-100973258D01*
X144388957Y-100973266D01*
X144449462Y-101119338D01*
X144449462Y-101119339D01*
X144449464Y-101119341D01*
X144545718Y-101244782D01*
X144671159Y-101341036D01*
X144817238Y-101401544D01*
X144934809Y-101417022D01*
X144973999Y-101422182D01*
X144974000Y-101422182D01*
X144974001Y-101422182D01*
X145005352Y-101418054D01*
X145130762Y-101401544D01*
X145276841Y-101341036D01*
X145402282Y-101244782D01*
X145498536Y-101119341D01*
X145559044Y-100973262D01*
X145579682Y-100816500D01*
X145559044Y-100659738D01*
X145559042Y-100659733D01*
X145498537Y-100513661D01*
X145498537Y-100513660D01*
X145402286Y-100388223D01*
X145402285Y-100388222D01*
X145402282Y-100388218D01*
X145402277Y-100388214D01*
X145381230Y-100372063D01*
X145346576Y-100321637D01*
X145342500Y-100293523D01*
X145342500Y-99854287D01*
X145361407Y-99796096D01*
X145381233Y-99775745D01*
X145420282Y-99745782D01*
X145516536Y-99620341D01*
X145577044Y-99474262D01*
X145597682Y-99317500D01*
X145577044Y-99160738D01*
X145516537Y-99014661D01*
X145516537Y-99014660D01*
X145420286Y-98889223D01*
X145420285Y-98889222D01*
X145420282Y-98889218D01*
X145420277Y-98889214D01*
X145420276Y-98889213D01*
X145294838Y-98792962D01*
X145148766Y-98732457D01*
X145148758Y-98732455D01*
X144992001Y-98711818D01*
X144991999Y-98711818D01*
X144835241Y-98732455D01*
X144835233Y-98732457D01*
X144689161Y-98792962D01*
X144689160Y-98792962D01*
X144563723Y-98889213D01*
X144563713Y-98889223D01*
X144467462Y-99014660D01*
X144467462Y-99014661D01*
X144406957Y-99160733D01*
X144406955Y-99160741D01*
X144386318Y-99317499D01*
X144386318Y-99317500D01*
X144406955Y-99474258D01*
X144406957Y-99474266D01*
X144467462Y-99620338D01*
X144467462Y-99620339D01*
X144540064Y-99714956D01*
X144563718Y-99745782D01*
X144602400Y-99775464D01*
X144602767Y-99775745D01*
X144637423Y-99826169D01*
X144641500Y-99854287D01*
X144641500Y-100265900D01*
X144622593Y-100324091D01*
X144602768Y-100344442D01*
X144545720Y-100388216D01*
X144545713Y-100388223D01*
X144449462Y-100513660D01*
X144449462Y-100513661D01*
X144388957Y-100659733D01*
X144388955Y-100659741D01*
X144368318Y-100816499D01*
X144368318Y-100816500D01*
X140700500Y-100816500D01*
X140700500Y-95743000D01*
X141565449Y-95743000D01*
X141850465Y-95743000D01*
X141908656Y-95761907D01*
X141944620Y-95811407D01*
X141945685Y-95869091D01*
X141933057Y-95913479D01*
X141917305Y-95968840D01*
X141927654Y-96080520D01*
X141927655Y-96080523D01*
X141941273Y-96107872D01*
X141950286Y-96168390D01*
X141922005Y-96222648D01*
X141867234Y-96249920D01*
X141852652Y-96251000D01*
X141566190Y-96251000D01*
X141614055Y-96361965D01*
X141715263Y-96497911D01*
X141715265Y-96497913D01*
X141845091Y-96606851D01*
X141996546Y-96682914D01*
X141996545Y-96682914D01*
X142161463Y-96722000D01*
X142517199Y-96722000D01*
X142517200Y-96721999D01*
X142517200Y-96396000D01*
X142536107Y-96337809D01*
X142585607Y-96301845D01*
X142616200Y-96297000D01*
X142926200Y-96297000D01*
X142984391Y-96315907D01*
X143020355Y-96365407D01*
X143025200Y-96396000D01*
X143025200Y-96721999D01*
X143025201Y-96722000D01*
X143338424Y-96722000D01*
X143464538Y-96707258D01*
X143623794Y-96649295D01*
X143765391Y-96556164D01*
X143765394Y-96556162D01*
X143881697Y-96432889D01*
X143881698Y-96432889D01*
X143966438Y-96286113D01*
X143976951Y-96251000D01*
X143691935Y-96251000D01*
X143633744Y-96232093D01*
X143597780Y-96182593D01*
X143597178Y-96150000D01*
X145644318Y-96150000D01*
X145664955Y-96306758D01*
X145664957Y-96306766D01*
X145725462Y-96452838D01*
X145725462Y-96452839D01*
X145804746Y-96556164D01*
X145821718Y-96578282D01*
X145947159Y-96674536D01*
X145947160Y-96674536D01*
X145947161Y-96674537D01*
X146061747Y-96722000D01*
X146093238Y-96735044D01*
X146250000Y-96755682D01*
X146318239Y-96746697D01*
X146378397Y-96757846D01*
X146401164Y-96774846D01*
X146819542Y-97193224D01*
X146847319Y-97247741D01*
X146837748Y-97308173D01*
X146794483Y-97351438D01*
X146734051Y-97361009D01*
X146711653Y-97354692D01*
X146656767Y-97331957D01*
X146656758Y-97331955D01*
X146500001Y-97311318D01*
X146499999Y-97311318D01*
X146343241Y-97331955D01*
X146343233Y-97331957D01*
X146197161Y-97392462D01*
X146197160Y-97392462D01*
X146071723Y-97488713D01*
X146071713Y-97488723D01*
X145975462Y-97614160D01*
X145975462Y-97614161D01*
X145914957Y-97760233D01*
X145914955Y-97760241D01*
X145894318Y-97916999D01*
X145894318Y-97917000D01*
X145914955Y-98073758D01*
X145914957Y-98073766D01*
X145975462Y-98219838D01*
X145975462Y-98219839D01*
X146075668Y-98350431D01*
X146074283Y-98351493D01*
X146098279Y-98398569D01*
X146099500Y-98414071D01*
X146099500Y-99694117D01*
X146080593Y-99752308D01*
X146060768Y-99772659D01*
X145931673Y-99871717D01*
X145931667Y-99871723D01*
X145835416Y-99997160D01*
X145835416Y-99997161D01*
X145774911Y-100143233D01*
X145774909Y-100143241D01*
X145754272Y-100299999D01*
X145754272Y-100300000D01*
X145774909Y-100456758D01*
X145774911Y-100456766D01*
X145835416Y-100602838D01*
X145835416Y-100602839D01*
X145931667Y-100728276D01*
X145931672Y-100728282D01*
X145931676Y-100728285D01*
X145931677Y-100728286D01*
X146057111Y-100824535D01*
X146062734Y-100827781D01*
X146061667Y-100829627D01*
X146100908Y-100863137D01*
X146115500Y-100914870D01*
X146115500Y-102402929D01*
X146096593Y-102461120D01*
X146089276Y-102469687D01*
X145991462Y-102597160D01*
X145991462Y-102597161D01*
X145930957Y-102743233D01*
X145930955Y-102743241D01*
X145910318Y-102899999D01*
X145910318Y-102900000D01*
X145930955Y-103056758D01*
X145930957Y-103056766D01*
X145991462Y-103202838D01*
X145991462Y-103202839D01*
X146084844Y-103324537D01*
X146087718Y-103328282D01*
X146213159Y-103424536D01*
X146213160Y-103424536D01*
X146213161Y-103424537D01*
X146318486Y-103468164D01*
X146359238Y-103485044D01*
X146476809Y-103500522D01*
X146515999Y-103505682D01*
X146516000Y-103505682D01*
X146516001Y-103505682D01*
X146547352Y-103501554D01*
X146672762Y-103485044D01*
X146818841Y-103424536D01*
X146944282Y-103328282D01*
X147040536Y-103202841D01*
X147101044Y-103056762D01*
X147121682Y-102900000D01*
X147101044Y-102743238D01*
X147059621Y-102643233D01*
X147040537Y-102597161D01*
X147040537Y-102597160D01*
X146940332Y-102466570D01*
X146941713Y-102465509D01*
X146917719Y-102418416D01*
X146916500Y-102402929D01*
X146916500Y-100545254D01*
X146924036Y-100507368D01*
X146934479Y-100482156D01*
X146944998Y-100456762D01*
X146965636Y-100300000D01*
X146944998Y-100143238D01*
X146944996Y-100143232D01*
X146908036Y-100054002D01*
X146900500Y-100016117D01*
X146900500Y-98414071D01*
X146919407Y-98355880D01*
X146926715Y-98347324D01*
X146963028Y-98300000D01*
X147024536Y-98219841D01*
X147085044Y-98073762D01*
X147105682Y-97917000D01*
X147085044Y-97760238D01*
X147062306Y-97705345D01*
X147057506Y-97644350D01*
X147089475Y-97592181D01*
X147146003Y-97568766D01*
X147205498Y-97583049D01*
X147223775Y-97597457D01*
X150020504Y-100394186D01*
X150048281Y-100448703D01*
X150049500Y-100464190D01*
X150049500Y-101463211D01*
X150030593Y-101521402D01*
X150010768Y-101541752D01*
X149971721Y-101571714D01*
X149971718Y-101571716D01*
X149875462Y-101697160D01*
X149875462Y-101697161D01*
X149814957Y-101843233D01*
X149814955Y-101843241D01*
X149794318Y-101999999D01*
X149794318Y-102000000D01*
X149814955Y-102156758D01*
X149814957Y-102156766D01*
X149875462Y-102302838D01*
X149875462Y-102302839D01*
X149971713Y-102428276D01*
X149971718Y-102428282D01*
X150097159Y-102524536D01*
X150243238Y-102585044D01*
X150360809Y-102600522D01*
X150399999Y-102605682D01*
X150400000Y-102605682D01*
X150400001Y-102605682D01*
X150431352Y-102601554D01*
X150556762Y-102585044D01*
X150702841Y-102524536D01*
X150828282Y-102428282D01*
X150924536Y-102302841D01*
X150985044Y-102156762D01*
X151005682Y-102000000D01*
X150985044Y-101843238D01*
X150924537Y-101697161D01*
X150924537Y-101697160D01*
X150828281Y-101571716D01*
X150828278Y-101571714D01*
X150789232Y-101541752D01*
X150754577Y-101491328D01*
X150750500Y-101463211D01*
X150750500Y-100324618D01*
X150752607Y-100304302D01*
X150753509Y-100299999D01*
X150755043Y-100292685D01*
X150750879Y-100259288D01*
X150750500Y-100253162D01*
X150750500Y-100248961D01*
X150750500Y-100248960D01*
X150746911Y-100227457D01*
X150740573Y-100176608D01*
X150740572Y-100176606D01*
X150740572Y-100176603D01*
X150738480Y-100169577D01*
X150736091Y-100162616D01*
X150711699Y-100117545D01*
X150689198Y-100071516D01*
X150684930Y-100065538D01*
X150680420Y-100059744D01*
X150642712Y-100025030D01*
X149817682Y-99200000D01*
X150794318Y-99200000D01*
X150814955Y-99356758D01*
X150814957Y-99356766D01*
X150875462Y-99502838D01*
X150875462Y-99502839D01*
X150971713Y-99628276D01*
X150971718Y-99628282D01*
X151097159Y-99724536D01*
X151097160Y-99724536D01*
X151097161Y-99724537D01*
X151164206Y-99752308D01*
X151243238Y-99785044D01*
X151400000Y-99805682D01*
X151448799Y-99799257D01*
X151508958Y-99810407D01*
X151531724Y-99827406D01*
X154526043Y-102821724D01*
X154553820Y-102876241D01*
X154554192Y-102878805D01*
X154564456Y-102956762D01*
X154624962Y-103102838D01*
X154624962Y-103102839D01*
X154693968Y-103192769D01*
X154721218Y-103228282D01*
X154846659Y-103324536D01*
X154846660Y-103324536D01*
X154846661Y-103324537D01*
X154961247Y-103372000D01*
X154992738Y-103385044D01*
X155110309Y-103400522D01*
X155149499Y-103405682D01*
X155149500Y-103405682D01*
X155149501Y-103405682D01*
X155180852Y-103401554D01*
X155306262Y-103385044D01*
X155452341Y-103324536D01*
X155577782Y-103228282D01*
X155674036Y-103102841D01*
X155734544Y-102956762D01*
X155755182Y-102800000D01*
X155734544Y-102643238D01*
X155715458Y-102597160D01*
X155674037Y-102497161D01*
X155674037Y-102497160D01*
X155577786Y-102371723D01*
X155577785Y-102371722D01*
X155577782Y-102371718D01*
X155577777Y-102371714D01*
X155577776Y-102371713D01*
X155488017Y-102302839D01*
X155452341Y-102275464D01*
X155452340Y-102275463D01*
X155452338Y-102275462D01*
X155306266Y-102214957D01*
X155306258Y-102214955D01*
X155149501Y-102194318D01*
X155149499Y-102194318D01*
X154992738Y-102214955D01*
X154986473Y-102216635D01*
X154985892Y-102214469D01*
X154934794Y-102218487D01*
X154887910Y-102192228D01*
X152027406Y-99331724D01*
X151999629Y-99277207D01*
X151999257Y-99248802D01*
X152005682Y-99200000D01*
X151985044Y-99043238D01*
X151966609Y-98998732D01*
X151924537Y-98897161D01*
X151924537Y-98897160D01*
X151828286Y-98771723D01*
X151828285Y-98771722D01*
X151828282Y-98771718D01*
X151828277Y-98771714D01*
X151828276Y-98771713D01*
X151702838Y-98675462D01*
X151556766Y-98614957D01*
X151556758Y-98614955D01*
X151400001Y-98594318D01*
X151399999Y-98594318D01*
X151243241Y-98614955D01*
X151243233Y-98614957D01*
X151097161Y-98675462D01*
X151097160Y-98675462D01*
X150971723Y-98771713D01*
X150971713Y-98771723D01*
X150875462Y-98897160D01*
X150875462Y-98897161D01*
X150814957Y-99043233D01*
X150814955Y-99043241D01*
X150794318Y-99199999D01*
X150794318Y-99200000D01*
X149817682Y-99200000D01*
X146879965Y-96262283D01*
X146852188Y-96207766D01*
X146851816Y-96179363D01*
X146855682Y-96150000D01*
X146835044Y-95993238D01*
X146802007Y-95913479D01*
X146774537Y-95847161D01*
X146774537Y-95847160D01*
X146678286Y-95721723D01*
X146678285Y-95721722D01*
X146678282Y-95721718D01*
X146678277Y-95721714D01*
X146678276Y-95721713D01*
X146561403Y-95632034D01*
X146552841Y-95625464D01*
X146552840Y-95625463D01*
X146552838Y-95625462D01*
X146406766Y-95564957D01*
X146406758Y-95564955D01*
X146250001Y-95544318D01*
X146249999Y-95544318D01*
X146093241Y-95564955D01*
X146093233Y-95564957D01*
X145947161Y-95625462D01*
X145947160Y-95625462D01*
X145821723Y-95721713D01*
X145821713Y-95721723D01*
X145725462Y-95847160D01*
X145725462Y-95847161D01*
X145664957Y-95993233D01*
X145664955Y-95993241D01*
X145644318Y-96149999D01*
X145644318Y-96150000D01*
X143597178Y-96150000D01*
X143596714Y-96124907D01*
X143601561Y-96107872D01*
X143625095Y-96025160D01*
X143614746Y-95913479D01*
X143601127Y-95886128D01*
X143592114Y-95825610D01*
X143620395Y-95771352D01*
X143675166Y-95744080D01*
X143689748Y-95743000D01*
X143976210Y-95743000D01*
X143976209Y-95742999D01*
X143928344Y-95632034D01*
X143827136Y-95496088D01*
X143827134Y-95496086D01*
X143697308Y-95387148D01*
X143545853Y-95311085D01*
X143545854Y-95311085D01*
X143380937Y-95272000D01*
X143025201Y-95272000D01*
X143025200Y-95272001D01*
X143025200Y-95598000D01*
X143006293Y-95656191D01*
X142956793Y-95692155D01*
X142926200Y-95697000D01*
X142616200Y-95697000D01*
X142558009Y-95678093D01*
X142522045Y-95628593D01*
X142517200Y-95598000D01*
X142517200Y-95272001D01*
X142517199Y-95272000D01*
X142203976Y-95272000D01*
X142077861Y-95286741D01*
X141918605Y-95344704D01*
X141777008Y-95437835D01*
X141777005Y-95437837D01*
X141660702Y-95561110D01*
X141660701Y-95561110D01*
X141575961Y-95707886D01*
X141565449Y-95743000D01*
X140700500Y-95743000D01*
X140700500Y-93218000D01*
X147594318Y-93218000D01*
X147614955Y-93374758D01*
X147614957Y-93374766D01*
X147675462Y-93520838D01*
X147675462Y-93520839D01*
X147771713Y-93646276D01*
X147771718Y-93646282D01*
X147897159Y-93742536D01*
X148043238Y-93803044D01*
X148160809Y-93818522D01*
X148199999Y-93823682D01*
X148200000Y-93823682D01*
X148200001Y-93823682D01*
X148231352Y-93819554D01*
X148356762Y-93803044D01*
X148502841Y-93742536D01*
X148628282Y-93646282D01*
X148658245Y-93607232D01*
X148708669Y-93572577D01*
X148736787Y-93568500D01*
X149931810Y-93568500D01*
X149990001Y-93587407D01*
X150001814Y-93597496D01*
X154073662Y-97669344D01*
X154101439Y-97723861D01*
X154101811Y-97752268D01*
X154096150Y-97795274D01*
X154096150Y-97795277D01*
X154116787Y-97952035D01*
X154116789Y-97952043D01*
X154177294Y-98098115D01*
X154177294Y-98098116D01*
X154270697Y-98219841D01*
X154273550Y-98223559D01*
X154398991Y-98319813D01*
X154398992Y-98319813D01*
X154398993Y-98319814D01*
X154465408Y-98347324D01*
X154545070Y-98380321D01*
X154662641Y-98395799D01*
X154701831Y-98400959D01*
X154701832Y-98400959D01*
X154701833Y-98400959D01*
X154733184Y-98396831D01*
X154858594Y-98380321D01*
X155004673Y-98319813D01*
X155130114Y-98223559D01*
X155226368Y-98098118D01*
X155286876Y-97952039D01*
X155307514Y-97795277D01*
X155286876Y-97638515D01*
X155249987Y-97549457D01*
X155226369Y-97492438D01*
X155226369Y-97492437D01*
X155130118Y-97367000D01*
X155130117Y-97366999D01*
X155130114Y-97366995D01*
X155130109Y-97366991D01*
X155130108Y-97366990D01*
X155004670Y-97270739D01*
X154858598Y-97210234D01*
X154858590Y-97210232D01*
X154701833Y-97189595D01*
X154701829Y-97189595D01*
X154647238Y-97196781D01*
X154587078Y-97185630D01*
X154564314Y-97168632D01*
X152595682Y-95200000D01*
X155694318Y-95200000D01*
X155714955Y-95356758D01*
X155714957Y-95356766D01*
X155775462Y-95502838D01*
X155775462Y-95502839D01*
X155871713Y-95628276D01*
X155871718Y-95628282D01*
X155997159Y-95724536D01*
X155997160Y-95724536D01*
X155997161Y-95724537D01*
X156110436Y-95771457D01*
X156143238Y-95785044D01*
X156260809Y-95800522D01*
X156299999Y-95805682D01*
X156300000Y-95805682D01*
X156300001Y-95805682D01*
X156331352Y-95801554D01*
X156456762Y-95785044D01*
X156602841Y-95724536D01*
X156728282Y-95628282D01*
X156758245Y-95589232D01*
X156808669Y-95554577D01*
X156836787Y-95550500D01*
X157013810Y-95550500D01*
X157072001Y-95569407D01*
X157083814Y-95579496D01*
X159220504Y-97716185D01*
X159248281Y-97770702D01*
X159249500Y-97786189D01*
X159249500Y-102900980D01*
X159230593Y-102959171D01*
X159181093Y-102995135D01*
X159163423Y-102999133D01*
X159043240Y-103014955D01*
X159043233Y-103014957D01*
X158897161Y-103075462D01*
X158897160Y-103075462D01*
X158771723Y-103171713D01*
X158771713Y-103171723D01*
X158675462Y-103297160D01*
X158675462Y-103297161D01*
X158614957Y-103443233D01*
X158614955Y-103443241D01*
X158594318Y-103599999D01*
X158594318Y-103600000D01*
X158614955Y-103756758D01*
X158614957Y-103756766D01*
X158675462Y-103902838D01*
X158675462Y-103902839D01*
X158771713Y-104028276D01*
X158771718Y-104028282D01*
X158897159Y-104124536D01*
X158897160Y-104124536D01*
X158897161Y-104124537D01*
X159043233Y-104185042D01*
X159043238Y-104185044D01*
X159160809Y-104200522D01*
X159199999Y-104205682D01*
X159200000Y-104205682D01*
X159200001Y-104205682D01*
X159234728Y-104201110D01*
X159356762Y-104185044D01*
X159502841Y-104124536D01*
X159628282Y-104028282D01*
X159724536Y-103902841D01*
X159785044Y-103756762D01*
X159805682Y-103600000D01*
X159799784Y-103555199D01*
X159810934Y-103495039D01*
X159835709Y-103468164D01*
X159834632Y-103466994D01*
X159840661Y-103461441D01*
X159840669Y-103461437D01*
X159861338Y-103434879D01*
X159865388Y-103430292D01*
X159868375Y-103427307D01*
X159881044Y-103409562D01*
X159912517Y-103369126D01*
X159912519Y-103369118D01*
X159916021Y-103362649D01*
X159919238Y-103356068D01*
X159919237Y-103356068D01*
X159919239Y-103356067D01*
X159933858Y-103306962D01*
X159950500Y-103258488D01*
X159950500Y-103258487D01*
X159951706Y-103251259D01*
X159952617Y-103243954D01*
X159950500Y-103192769D01*
X159950500Y-97646619D01*
X159952607Y-97626303D01*
X159952617Y-97626254D01*
X159955043Y-97614686D01*
X159950879Y-97581289D01*
X159950500Y-97575163D01*
X159950500Y-97570959D01*
X159946911Y-97549457D01*
X159946911Y-97549456D01*
X159940573Y-97498608D01*
X159940571Y-97498604D01*
X159938476Y-97491566D01*
X159936091Y-97484616D01*
X159911705Y-97439556D01*
X159911704Y-97439555D01*
X159889199Y-97393517D01*
X159889198Y-97393516D01*
X159884951Y-97387567D01*
X159880418Y-97381742D01*
X159842724Y-97347041D01*
X157480801Y-94985119D01*
X157467925Y-94969262D01*
X157461437Y-94959331D01*
X157434885Y-94938665D01*
X157430283Y-94934601D01*
X157427307Y-94931625D01*
X157409560Y-94918954D01*
X157369128Y-94887484D01*
X157362677Y-94883993D01*
X157356068Y-94880761D01*
X157356066Y-94880760D01*
X157306954Y-94866138D01*
X157258488Y-94849500D01*
X157258485Y-94849499D01*
X157251260Y-94848293D01*
X157243955Y-94847383D01*
X157243954Y-94847383D01*
X157243952Y-94847383D01*
X157192769Y-94849500D01*
X156836787Y-94849500D01*
X156778596Y-94830593D01*
X156758245Y-94810767D01*
X156728285Y-94771722D01*
X156728282Y-94771718D01*
X156728277Y-94771714D01*
X156728276Y-94771713D01*
X156602838Y-94675462D01*
X156456766Y-94614957D01*
X156456758Y-94614955D01*
X156300001Y-94594318D01*
X156299999Y-94594318D01*
X156143241Y-94614955D01*
X156143233Y-94614957D01*
X155997161Y-94675462D01*
X155997160Y-94675462D01*
X155871723Y-94771713D01*
X155871713Y-94771723D01*
X155775462Y-94897160D01*
X155775462Y-94897161D01*
X155714957Y-95043233D01*
X155714955Y-95043241D01*
X155694318Y-95199999D01*
X155694318Y-95200000D01*
X152595682Y-95200000D01*
X150398801Y-93003119D01*
X150396268Y-93000000D01*
X161494318Y-93000000D01*
X161514955Y-93156758D01*
X161514957Y-93156766D01*
X161575462Y-93302838D01*
X161575462Y-93302839D01*
X161671713Y-93428276D01*
X161671718Y-93428282D01*
X161671722Y-93428285D01*
X161710767Y-93458245D01*
X161745423Y-93508669D01*
X161749500Y-93536787D01*
X161749500Y-109653381D01*
X161747393Y-109673696D01*
X161744957Y-109685313D01*
X161749120Y-109718709D01*
X161749500Y-109724837D01*
X161749500Y-109729038D01*
X161753087Y-109750541D01*
X161759425Y-109801388D01*
X161761527Y-109808448D01*
X161763907Y-109815380D01*
X161788295Y-109860444D01*
X161810801Y-109906482D01*
X161815078Y-109912472D01*
X161819579Y-109918255D01*
X161857275Y-109952958D01*
X161872592Y-109968274D01*
X161900369Y-110022791D01*
X161900741Y-110051197D01*
X161894318Y-110099995D01*
X161894318Y-110100000D01*
X161914955Y-110256758D01*
X161914957Y-110256766D01*
X161975462Y-110402838D01*
X161975462Y-110402839D01*
X161975464Y-110402841D01*
X162071718Y-110528282D01*
X162197159Y-110624536D01*
X162343238Y-110685044D01*
X162460809Y-110700522D01*
X162499999Y-110705682D01*
X162500000Y-110705682D01*
X162500001Y-110705682D01*
X162531352Y-110701554D01*
X162656762Y-110685044D01*
X162802841Y-110624536D01*
X162928282Y-110528282D01*
X163024536Y-110402841D01*
X163085044Y-110256762D01*
X163105682Y-110100000D01*
X163085044Y-109943238D01*
X163032084Y-109815381D01*
X163024537Y-109797161D01*
X163024537Y-109797160D01*
X162928286Y-109671723D01*
X162928285Y-109671722D01*
X162928282Y-109671718D01*
X162928277Y-109671714D01*
X162928276Y-109671713D01*
X162802838Y-109575462D01*
X162656766Y-109514957D01*
X162656759Y-109514955D01*
X162536577Y-109499133D01*
X162481353Y-109472792D01*
X162452158Y-109419021D01*
X162450500Y-109400980D01*
X162450500Y-93536787D01*
X162469407Y-93478596D01*
X162489233Y-93458245D01*
X162528282Y-93428282D01*
X162624536Y-93302841D01*
X162685044Y-93156762D01*
X162705682Y-93000000D01*
X162685044Y-92843238D01*
X162624537Y-92697161D01*
X162624537Y-92697160D01*
X162528286Y-92571723D01*
X162528285Y-92571722D01*
X162528282Y-92571718D01*
X162528277Y-92571714D01*
X162528276Y-92571713D01*
X162402838Y-92475462D01*
X162256766Y-92414957D01*
X162256758Y-92414955D01*
X162100001Y-92394318D01*
X162099999Y-92394318D01*
X161943241Y-92414955D01*
X161943233Y-92414957D01*
X161797161Y-92475462D01*
X161797160Y-92475462D01*
X161671723Y-92571713D01*
X161671713Y-92571723D01*
X161575462Y-92697160D01*
X161575462Y-92697161D01*
X161514957Y-92843233D01*
X161514955Y-92843241D01*
X161494318Y-92999999D01*
X161494318Y-93000000D01*
X150396268Y-93000000D01*
X150385925Y-92987262D01*
X150379437Y-92977331D01*
X150352885Y-92956665D01*
X150348283Y-92952601D01*
X150345307Y-92949625D01*
X150327560Y-92936954D01*
X150287128Y-92905484D01*
X150280677Y-92901993D01*
X150274068Y-92898761D01*
X150274066Y-92898760D01*
X150224954Y-92884138D01*
X150176488Y-92867500D01*
X150176485Y-92867499D01*
X150169260Y-92866293D01*
X150161955Y-92865383D01*
X150161954Y-92865383D01*
X150161952Y-92865383D01*
X150110769Y-92867500D01*
X148736787Y-92867500D01*
X148678596Y-92848593D01*
X148658245Y-92828767D01*
X148628285Y-92789722D01*
X148628282Y-92789718D01*
X148628277Y-92789714D01*
X148628276Y-92789713D01*
X148507659Y-92697161D01*
X148502841Y-92693464D01*
X148502840Y-92693463D01*
X148502838Y-92693462D01*
X148356766Y-92632957D01*
X148356758Y-92632955D01*
X148200001Y-92612318D01*
X148199999Y-92612318D01*
X148043241Y-92632955D01*
X148043233Y-92632957D01*
X147897161Y-92693462D01*
X147897160Y-92693462D01*
X147771723Y-92789713D01*
X147771713Y-92789723D01*
X147675462Y-92915160D01*
X147675462Y-92915161D01*
X147614957Y-93061233D01*
X147614955Y-93061241D01*
X147594318Y-93217999D01*
X147594318Y-93218000D01*
X140700500Y-93218000D01*
X140700500Y-89400000D01*
X161649318Y-89400000D01*
X161669955Y-89556758D01*
X161669957Y-89556766D01*
X161730462Y-89702838D01*
X161730462Y-89702839D01*
X161730464Y-89702841D01*
X161826718Y-89828282D01*
X161952159Y-89924536D01*
X162098238Y-89985044D01*
X162255000Y-90005682D01*
X162261433Y-90006529D01*
X162261205Y-90008256D01*
X162311472Y-90024589D01*
X162323285Y-90034678D01*
X163319015Y-91030408D01*
X163346792Y-91084925D01*
X163348011Y-91100412D01*
X163348011Y-98864354D01*
X163329104Y-98922545D01*
X163309280Y-98942895D01*
X163271721Y-98971715D01*
X163271713Y-98971723D01*
X163175462Y-99097160D01*
X163175462Y-99097161D01*
X163114957Y-99243233D01*
X163114955Y-99243241D01*
X163094318Y-99399999D01*
X163094318Y-99400000D01*
X163114955Y-99556758D01*
X163114957Y-99556766D01*
X163175462Y-99702838D01*
X163175462Y-99702839D01*
X163271713Y-99828276D01*
X163271718Y-99828282D01*
X163397159Y-99924536D01*
X163543238Y-99985044D01*
X163660809Y-100000522D01*
X163699999Y-100005682D01*
X163700000Y-100005682D01*
X163700001Y-100005682D01*
X163731352Y-100001554D01*
X163856762Y-99985044D01*
X164002841Y-99924536D01*
X164128282Y-99828282D01*
X164224536Y-99702841D01*
X164285044Y-99556762D01*
X164305682Y-99400000D01*
X164285044Y-99243238D01*
X164224536Y-99097159D01*
X164169467Y-99025391D01*
X164149045Y-98967717D01*
X164149011Y-98965126D01*
X164149011Y-90830081D01*
X164149011Y-90830078D01*
X164141551Y-90807119D01*
X164137932Y-90792045D01*
X164134157Y-90768207D01*
X164123205Y-90746714D01*
X164117263Y-90732368D01*
X164109808Y-90709422D01*
X164095622Y-90689897D01*
X164087509Y-90676657D01*
X164076560Y-90655168D01*
X164053997Y-90632604D01*
X162889678Y-89468285D01*
X162861901Y-89413768D01*
X162861018Y-89402554D01*
X162840044Y-89243241D01*
X162840044Y-89243238D01*
X162779537Y-89097161D01*
X162779537Y-89097160D01*
X162683286Y-88971723D01*
X162683285Y-88971722D01*
X162683282Y-88971718D01*
X162683277Y-88971714D01*
X162683276Y-88971713D01*
X162557838Y-88875462D01*
X162411766Y-88814957D01*
X162411758Y-88814955D01*
X162255001Y-88794318D01*
X162254999Y-88794318D01*
X162098241Y-88814955D01*
X162098233Y-88814957D01*
X161952161Y-88875462D01*
X161952160Y-88875462D01*
X161826723Y-88971713D01*
X161826713Y-88971723D01*
X161730462Y-89097160D01*
X161730462Y-89097161D01*
X161669957Y-89243233D01*
X161669955Y-89243241D01*
X161649318Y-89399999D01*
X161649318Y-89400000D01*
X140700500Y-89400000D01*
X140700500Y-88366630D01*
X140700499Y-88366601D01*
X140700499Y-88336566D01*
X140700498Y-88336565D01*
X140693047Y-88313633D01*
X140689419Y-88298523D01*
X140685646Y-88274697D01*
X140685646Y-88274696D01*
X140674690Y-88253195D01*
X140668750Y-88238852D01*
X140661297Y-88215913D01*
X140661296Y-88215912D01*
X140661296Y-88215910D01*
X140647117Y-88196395D01*
X140639000Y-88183149D01*
X140628050Y-88161658D01*
X140628049Y-88161657D01*
X140538342Y-88071949D01*
X140378557Y-87912165D01*
X140234677Y-87768284D01*
X140206901Y-87713769D01*
X140206018Y-87702552D01*
X140185044Y-87543241D01*
X140185044Y-87543238D01*
X140124537Y-87397161D01*
X140124537Y-87397160D01*
X140028286Y-87271723D01*
X140028285Y-87271722D01*
X140028282Y-87271718D01*
X140028277Y-87271714D01*
X140028276Y-87271713D01*
X139902838Y-87175462D01*
X139756766Y-87114957D01*
X139756758Y-87114955D01*
X139600001Y-87094318D01*
X139599999Y-87094318D01*
X139443241Y-87114955D01*
X139443233Y-87114957D01*
X139297161Y-87175462D01*
X139297160Y-87175462D01*
X139171723Y-87271713D01*
X139171713Y-87271723D01*
X139075462Y-87397160D01*
X139075462Y-87397161D01*
X139014957Y-87543233D01*
X139014955Y-87543241D01*
X138994318Y-87699999D01*
X138994318Y-87700000D01*
X139014955Y-87856758D01*
X139014957Y-87856766D01*
X139075462Y-88002838D01*
X139075462Y-88002839D01*
X139075464Y-88002841D01*
X139171718Y-88128282D01*
X139297159Y-88224536D01*
X139297160Y-88224536D01*
X139297161Y-88224537D01*
X139349605Y-88246260D01*
X139443238Y-88285044D01*
X139600000Y-88305682D01*
X139606433Y-88306529D01*
X139606205Y-88308256D01*
X139656473Y-88324589D01*
X139668285Y-88334678D01*
X139870503Y-88536895D01*
X139898281Y-88591412D01*
X139899500Y-88606899D01*
X139899500Y-95629156D01*
X139880593Y-95687347D01*
X139831093Y-95723311D01*
X139769907Y-95723311D01*
X139720407Y-95687347D01*
X139712840Y-95675163D01*
X139671518Y-95596431D01*
X139671518Y-95596430D01*
X139558800Y-95469199D01*
X139558794Y-95469194D01*
X139418893Y-95372628D01*
X139418890Y-95372626D01*
X139259958Y-95312351D01*
X139259948Y-95312348D01*
X139133551Y-95297000D01*
X138845200Y-95297000D01*
X138845200Y-95598000D01*
X138826293Y-95656191D01*
X138776793Y-95692155D01*
X138746200Y-95697000D01*
X138436200Y-95697000D01*
X138378009Y-95678093D01*
X138342045Y-95628593D01*
X138337200Y-95598000D01*
X138337200Y-95297001D01*
X138337199Y-95297000D01*
X138048848Y-95297000D01*
X137922451Y-95312348D01*
X137922441Y-95312351D01*
X137763509Y-95372626D01*
X137763506Y-95372628D01*
X137623605Y-95469194D01*
X137623599Y-95469199D01*
X137510881Y-95596430D01*
X137510881Y-95596431D01*
X137433956Y-95743000D01*
X137820465Y-95743000D01*
X137878656Y-95761907D01*
X137914620Y-95811407D01*
X137915685Y-95869091D01*
X137903057Y-95913479D01*
X137887305Y-95968840D01*
X137897654Y-96080520D01*
X137897655Y-96080523D01*
X137911273Y-96107872D01*
X137920286Y-96168390D01*
X137892005Y-96222648D01*
X137837234Y-96249920D01*
X137822652Y-96251000D01*
X137433957Y-96251000D01*
X137510881Y-96397568D01*
X137510881Y-96397569D01*
X137623599Y-96524800D01*
X137623605Y-96524805D01*
X137763506Y-96621371D01*
X137763509Y-96621373D01*
X137922441Y-96681648D01*
X137922451Y-96681651D01*
X138048848Y-96696999D01*
X138048865Y-96697000D01*
X138337199Y-96697000D01*
X138337200Y-96696998D01*
X138337200Y-96396000D01*
X138356107Y-96337809D01*
X138405607Y-96301845D01*
X138436200Y-96297000D01*
X138746200Y-96297000D01*
X138804391Y-96315907D01*
X138840355Y-96365407D01*
X138845200Y-96396000D01*
X138845200Y-96696998D01*
X138845201Y-96697000D01*
X139133535Y-96697000D01*
X139133551Y-96696999D01*
X139259948Y-96681651D01*
X139259958Y-96681648D01*
X139418890Y-96621373D01*
X139418893Y-96621371D01*
X139558794Y-96524805D01*
X139558800Y-96524800D01*
X139671516Y-96397571D01*
X139712839Y-96318836D01*
X139756623Y-96276097D01*
X139817167Y-96267256D01*
X139871344Y-96295690D01*
X139898461Y-96350538D01*
X139899500Y-96364843D01*
X139899500Y-104269156D01*
X139880593Y-104327347D01*
X139831093Y-104363311D01*
X139769907Y-104363311D01*
X139720407Y-104327347D01*
X139712840Y-104315163D01*
X139671518Y-104236431D01*
X139671518Y-104236430D01*
X139558800Y-104109199D01*
X139558794Y-104109194D01*
X139418893Y-104012628D01*
X139418890Y-104012626D01*
X139259958Y-103952351D01*
X139259948Y-103952348D01*
X139133551Y-103937000D01*
X138845201Y-103937000D01*
X138845200Y-103937001D01*
X138845200Y-104238000D01*
X138826293Y-104296191D01*
X138776793Y-104332155D01*
X138746200Y-104337000D01*
X138436200Y-104337000D01*
X138378009Y-104318093D01*
X138342045Y-104268593D01*
X138337200Y-104238000D01*
X138337200Y-103937001D01*
X138337199Y-103937000D01*
X138048848Y-103937000D01*
X137922451Y-103952348D01*
X137922441Y-103952351D01*
X137763509Y-104012626D01*
X137763506Y-104012628D01*
X137623605Y-104109194D01*
X137623599Y-104109199D01*
X137510881Y-104236430D01*
X137510881Y-104236431D01*
X137433956Y-104383000D01*
X136094500Y-104383000D01*
X136094500Y-85916500D01*
X136113407Y-85858309D01*
X136162907Y-85822345D01*
X136193500Y-85817500D01*
X164994500Y-85817500D01*
X165052691Y-85836407D01*
G37*
%TD.AperFunction*%
%TD*%
M02*
