M48
; DRILL file {KiCad 7.0.5.1-1-g8f565ef7f0-dirty-deb11} date Thu Aug  3 13:55:31 2023
; FORMAT={3:3/ absolute / metric / suppress leading zeros}
; #@! TF.CreationDate,2023-08-03T13:55:31+00:00
; #@! TF.GenerationSoftware,Kicad,Pcbnew,7.0.5.1-1-g8f565ef7f0-dirty-deb11
; #@! TF.FileFunction,Plated,1,2,PTH
FMAT,2
METRIC,TZ
; #@! TA.AperFunction,Plated,PTH,ViaDrill
T1C0.400
; #@! TA.AperFunction,Plated,PTH,ComponentDrill
T2C0.600
%
G90
G05
T1
X137626Y-89663
X137626Y-91314
X137626Y-92838
X137753Y-107697
X137753Y-109475
X137753Y-112015
X143214Y-94235
X143341Y-92711
X144738Y-94616
X144974Y-100817
X144992Y-99318
X144992Y-110110
X145119Y-104141
X145246Y-96775
X146135Y-89409
X146262Y-94743
X146500Y-97917
X146516Y-102490
X146822Y-100303
X147405Y-94235
X148040Y-102871
X148294Y-96521
X149056Y-90933
X149310Y-102871
X149945Y-113285
X150326Y-87885
X150580Y-102871
X151596Y-98553
X151781Y-101151
X151850Y-87885
X152739Y-96013
X152739Y-97029
X152993Y-104014
X152993Y-105030
X152993Y-106046
X153501Y-87885
X153882Y-90933
X154136Y-105030
X154136Y-106173
X155152Y-87885
X155406Y-97029
X155729Y-104019
X155914Y-108332
X156803Y-87885
X156803Y-91060
X156803Y-92203
X156803Y-93346
X156930Y-112523
X157184Y-102490
X157705Y-97664
X158360Y-99855
X158454Y-112523
X159692Y-103600
X160994Y-114301
X161248Y-86361
X161600Y-105942
X162137Y-99569
X162137Y-114301
X162200Y-94200
X162391Y-86361
X162391Y-101220
X162518Y-89663
X162772Y-107316
X163153Y-114301
X163407Y-101220
X163534Y-86361
X163915Y-108332
X164296Y-114301
X164550Y-86361
X164550Y-99315
X164550Y-101220
T2
G00X138191Y-95997
M15
G01X138991Y-95997
M16
G05
G00X138191Y-104637
M15
G01X138991Y-104637
M16
G05
G00X142221Y-95997
M15
G01X143321Y-95997
M16
G05
G00X142221Y-104637
M15
G01X143321Y-104637
M16
G05
T0
M30
