%TF.GenerationSoftware,KiCad,Pcbnew,7.0.7-7.0.7~ubuntu23.04.1*%
%TF.CreationDate,2023-09-29T08:58:45+00:00*%
%TF.ProjectId,TFUSBSERIAL01,54465553-4253-4455-9249-414c30312e6b,REV*%
%TF.SameCoordinates,Original*%
%TF.FileFunction,Copper,L2,Bot*%
%TF.FilePolarity,Positive*%
%FSLAX46Y46*%
G04 Gerber Fmt 4.6, Leading zero omitted, Abs format (unit mm)*
G04 Created by KiCad (PCBNEW 7.0.7-7.0.7~ubuntu23.04.1) date 2023-09-29 08:58:45*
%MOMM*%
%LPD*%
G01*
G04 APERTURE LIST*
G04 Aperture macros list*
%AMRoundRect*
0 Rectangle with rounded corners*
0 $1 Rounding radius*
0 $2 $3 $4 $5 $6 $7 $8 $9 X,Y pos of 4 corners*
0 Add a 4 corners polygon primitive as box body*
4,1,4,$2,$3,$4,$5,$6,$7,$8,$9,$2,$3,0*
0 Add four circle primitives for the rounded corners*
1,1,$1+$1,$2,$3*
1,1,$1+$1,$4,$5*
1,1,$1+$1,$6,$7*
1,1,$1+$1,$8,$9*
0 Add four rect primitives between the rounded corners*
20,1,$1+$1,$2,$3,$4,$5,0*
20,1,$1+$1,$4,$5,$6,$7,0*
20,1,$1+$1,$6,$7,$8,$9,0*
20,1,$1+$1,$8,$9,$2,$3,0*%
G04 Aperture macros list end*
%ADD10C,0.200000*%
%TA.AperFunction,NonConductor*%
%ADD11C,0.200000*%
%TD*%
%TA.AperFunction,SMDPad,CuDef*%
%ADD12RoundRect,0.250000X-0.250000X-0.250000X0.250000X-0.250000X0.250000X0.250000X-0.250000X0.250000X0*%
%TD*%
%TA.AperFunction,SMDPad,CuDef*%
%ADD13RoundRect,0.218750X0.256250X-0.218750X0.256250X0.218750X-0.256250X0.218750X-0.256250X-0.218750X0*%
%TD*%
%TA.AperFunction,SMDPad,CuDef*%
%ADD14RoundRect,0.225000X-0.250000X0.225000X-0.250000X-0.225000X0.250000X-0.225000X0.250000X0.225000X0*%
%TD*%
%TA.AperFunction,SMDPad,CuDef*%
%ADD15RoundRect,0.200000X-0.275000X0.200000X-0.275000X-0.200000X0.275000X-0.200000X0.275000X0.200000X0*%
%TD*%
%TA.AperFunction,SMDPad,CuDef*%
%ADD16RoundRect,0.225000X0.250000X-0.225000X0.250000X0.225000X-0.250000X0.225000X-0.250000X-0.225000X0*%
%TD*%
%TA.AperFunction,SMDPad,CuDef*%
%ADD17RoundRect,0.200000X0.275000X-0.200000X0.275000X0.200000X-0.275000X0.200000X-0.275000X-0.200000X0*%
%TD*%
%TA.AperFunction,SMDPad,CuDef*%
%ADD18RoundRect,0.218750X-0.381250X0.218750X-0.381250X-0.218750X0.381250X-0.218750X0.381250X0.218750X0*%
%TD*%
%TA.AperFunction,SMDPad,CuDef*%
%ADD19RoundRect,0.150000X-0.700000X0.150000X-0.700000X-0.150000X0.700000X-0.150000X0.700000X0.150000X0*%
%TD*%
%TA.AperFunction,SMDPad,CuDef*%
%ADD20RoundRect,0.250000X-1.100000X0.250000X-1.100000X-0.250000X1.100000X-0.250000X1.100000X0.250000X0*%
%TD*%
%TA.AperFunction,SMDPad,CuDef*%
%ADD21RoundRect,0.062500X0.062500X-0.350000X0.062500X0.350000X-0.062500X0.350000X-0.062500X-0.350000X0*%
%TD*%
%TA.AperFunction,SMDPad,CuDef*%
%ADD22RoundRect,0.062500X0.350000X-0.062500X0.350000X0.062500X-0.350000X0.062500X-0.350000X-0.062500X0*%
%TD*%
%TA.AperFunction,SMDPad,CuDef*%
%ADD23R,2.500000X2.500000*%
%TD*%
%TA.AperFunction,SMDPad,CuDef*%
%ADD24R,1.150000X0.600000*%
%TD*%
%TA.AperFunction,SMDPad,CuDef*%
%ADD25R,1.150000X0.300000*%
%TD*%
%TA.AperFunction,ComponentPad*%
%ADD26O,2.000000X1.000000*%
%TD*%
%TA.AperFunction,ComponentPad*%
%ADD27O,2.100000X1.050000*%
%TD*%
%TA.AperFunction,SMDPad,CuDef*%
%ADD28RoundRect,0.150000X0.512500X0.150000X-0.512500X0.150000X-0.512500X-0.150000X0.512500X-0.150000X0*%
%TD*%
%TA.AperFunction,SMDPad,CuDef*%
%ADD29RoundRect,0.243750X-0.243750X-0.456250X0.243750X-0.456250X0.243750X0.456250X-0.243750X0.456250X0*%
%TD*%
%TA.AperFunction,SMDPad,CuDef*%
%ADD30RoundRect,0.200000X-0.200000X-0.275000X0.200000X-0.275000X0.200000X0.275000X-0.200000X0.275000X0*%
%TD*%
%TA.AperFunction,SMDPad,CuDef*%
%ADD31C,0.500000*%
%TD*%
%TA.AperFunction,SMDPad,CuDef*%
%ADD32RoundRect,0.200000X0.200000X0.275000X-0.200000X0.275000X-0.200000X-0.275000X0.200000X-0.275000X0*%
%TD*%
%TA.AperFunction,ViaPad*%
%ADD33C,0.800000*%
%TD*%
%TA.AperFunction,Conductor*%
%ADD34C,0.200000*%
%TD*%
%TA.AperFunction,Conductor*%
%ADD35C,0.400000*%
%TD*%
%TA.AperFunction,Conductor*%
%ADD36C,0.500000*%
%TD*%
%TA.AperFunction,Conductor*%
%ADD37C,0.300000*%
%TD*%
%TA.AperFunction,Conductor*%
%ADD38C,0.250000*%
%TD*%
G04 APERTURE END LIST*
D10*
D11*
X157295237Y-112167219D02*
X156723809Y-112167219D01*
X157009523Y-113167219D02*
X157009523Y-112167219D01*
X156057142Y-112643409D02*
X156390475Y-112643409D01*
X156390475Y-113167219D02*
X156390475Y-112167219D01*
X156390475Y-112167219D02*
X155914285Y-112167219D01*
X155533332Y-112167219D02*
X155533332Y-112976742D01*
X155533332Y-112976742D02*
X155485713Y-113071980D01*
X155485713Y-113071980D02*
X155438094Y-113119600D01*
X155438094Y-113119600D02*
X155342856Y-113167219D01*
X155342856Y-113167219D02*
X155152380Y-113167219D01*
X155152380Y-113167219D02*
X155057142Y-113119600D01*
X155057142Y-113119600D02*
X155009523Y-113071980D01*
X155009523Y-113071980D02*
X154961904Y-112976742D01*
X154961904Y-112976742D02*
X154961904Y-112167219D01*
X154533332Y-113119600D02*
X154390475Y-113167219D01*
X154390475Y-113167219D02*
X154152380Y-113167219D01*
X154152380Y-113167219D02*
X154057142Y-113119600D01*
X154057142Y-113119600D02*
X154009523Y-113071980D01*
X154009523Y-113071980D02*
X153961904Y-112976742D01*
X153961904Y-112976742D02*
X153961904Y-112881504D01*
X153961904Y-112881504D02*
X154009523Y-112786266D01*
X154009523Y-112786266D02*
X154057142Y-112738647D01*
X154057142Y-112738647D02*
X154152380Y-112691028D01*
X154152380Y-112691028D02*
X154342856Y-112643409D01*
X154342856Y-112643409D02*
X154438094Y-112595790D01*
X154438094Y-112595790D02*
X154485713Y-112548171D01*
X154485713Y-112548171D02*
X154533332Y-112452933D01*
X154533332Y-112452933D02*
X154533332Y-112357695D01*
X154533332Y-112357695D02*
X154485713Y-112262457D01*
X154485713Y-112262457D02*
X154438094Y-112214838D01*
X154438094Y-112214838D02*
X154342856Y-112167219D01*
X154342856Y-112167219D02*
X154104761Y-112167219D01*
X154104761Y-112167219D02*
X153961904Y-112214838D01*
X153199999Y-112643409D02*
X153057142Y-112691028D01*
X153057142Y-112691028D02*
X153009523Y-112738647D01*
X153009523Y-112738647D02*
X152961904Y-112833885D01*
X152961904Y-112833885D02*
X152961904Y-112976742D01*
X152961904Y-112976742D02*
X153009523Y-113071980D01*
X153009523Y-113071980D02*
X153057142Y-113119600D01*
X153057142Y-113119600D02*
X153152380Y-113167219D01*
X153152380Y-113167219D02*
X153533332Y-113167219D01*
X153533332Y-113167219D02*
X153533332Y-112167219D01*
X153533332Y-112167219D02*
X153199999Y-112167219D01*
X153199999Y-112167219D02*
X153104761Y-112214838D01*
X153104761Y-112214838D02*
X153057142Y-112262457D01*
X153057142Y-112262457D02*
X153009523Y-112357695D01*
X153009523Y-112357695D02*
X153009523Y-112452933D01*
X153009523Y-112452933D02*
X153057142Y-112548171D01*
X153057142Y-112548171D02*
X153104761Y-112595790D01*
X153104761Y-112595790D02*
X153199999Y-112643409D01*
X153199999Y-112643409D02*
X153533332Y-112643409D01*
X152580951Y-113119600D02*
X152438094Y-113167219D01*
X152438094Y-113167219D02*
X152199999Y-113167219D01*
X152199999Y-113167219D02*
X152104761Y-113119600D01*
X152104761Y-113119600D02*
X152057142Y-113071980D01*
X152057142Y-113071980D02*
X152009523Y-112976742D01*
X152009523Y-112976742D02*
X152009523Y-112881504D01*
X152009523Y-112881504D02*
X152057142Y-112786266D01*
X152057142Y-112786266D02*
X152104761Y-112738647D01*
X152104761Y-112738647D02*
X152199999Y-112691028D01*
X152199999Y-112691028D02*
X152390475Y-112643409D01*
X152390475Y-112643409D02*
X152485713Y-112595790D01*
X152485713Y-112595790D02*
X152533332Y-112548171D01*
X152533332Y-112548171D02*
X152580951Y-112452933D01*
X152580951Y-112452933D02*
X152580951Y-112357695D01*
X152580951Y-112357695D02*
X152533332Y-112262457D01*
X152533332Y-112262457D02*
X152485713Y-112214838D01*
X152485713Y-112214838D02*
X152390475Y-112167219D01*
X152390475Y-112167219D02*
X152152380Y-112167219D01*
X152152380Y-112167219D02*
X152009523Y-112214838D01*
X151580951Y-112643409D02*
X151247618Y-112643409D01*
X151104761Y-113167219D02*
X151580951Y-113167219D01*
X151580951Y-113167219D02*
X151580951Y-112167219D01*
X151580951Y-112167219D02*
X151104761Y-112167219D01*
X150104761Y-113167219D02*
X150438094Y-112691028D01*
X150676189Y-113167219D02*
X150676189Y-112167219D01*
X150676189Y-112167219D02*
X150295237Y-112167219D01*
X150295237Y-112167219D02*
X150199999Y-112214838D01*
X150199999Y-112214838D02*
X150152380Y-112262457D01*
X150152380Y-112262457D02*
X150104761Y-112357695D01*
X150104761Y-112357695D02*
X150104761Y-112500552D01*
X150104761Y-112500552D02*
X150152380Y-112595790D01*
X150152380Y-112595790D02*
X150199999Y-112643409D01*
X150199999Y-112643409D02*
X150295237Y-112691028D01*
X150295237Y-112691028D02*
X150676189Y-112691028D01*
X149676189Y-113167219D02*
X149676189Y-112167219D01*
X149247618Y-112881504D02*
X148771428Y-112881504D01*
X149342856Y-113167219D02*
X149009523Y-112167219D01*
X149009523Y-112167219D02*
X148676190Y-113167219D01*
X147866666Y-113167219D02*
X148342856Y-113167219D01*
X148342856Y-113167219D02*
X148342856Y-112167219D01*
X147342856Y-112167219D02*
X147247618Y-112167219D01*
X147247618Y-112167219D02*
X147152380Y-112214838D01*
X147152380Y-112214838D02*
X147104761Y-112262457D01*
X147104761Y-112262457D02*
X147057142Y-112357695D01*
X147057142Y-112357695D02*
X147009523Y-112548171D01*
X147009523Y-112548171D02*
X147009523Y-112786266D01*
X147009523Y-112786266D02*
X147057142Y-112976742D01*
X147057142Y-112976742D02*
X147104761Y-113071980D01*
X147104761Y-113071980D02*
X147152380Y-113119600D01*
X147152380Y-113119600D02*
X147247618Y-113167219D01*
X147247618Y-113167219D02*
X147342856Y-113167219D01*
X147342856Y-113167219D02*
X147438094Y-113119600D01*
X147438094Y-113119600D02*
X147485713Y-113071980D01*
X147485713Y-113071980D02*
X147533332Y-112976742D01*
X147533332Y-112976742D02*
X147580951Y-112786266D01*
X147580951Y-112786266D02*
X147580951Y-112548171D01*
X147580951Y-112548171D02*
X147533332Y-112357695D01*
X147533332Y-112357695D02*
X147485713Y-112262457D01*
X147485713Y-112262457D02*
X147438094Y-112214838D01*
X147438094Y-112214838D02*
X147342856Y-112167219D01*
X146057142Y-113167219D02*
X146628570Y-113167219D01*
X146342856Y-113167219D02*
X146342856Y-112167219D01*
X146342856Y-112167219D02*
X146438094Y-112310076D01*
X146438094Y-112310076D02*
X146533332Y-112405314D01*
X146533332Y-112405314D02*
X146628570Y-112452933D01*
X145676189Y-112881504D02*
X145199999Y-112881504D01*
X145771427Y-113167219D02*
X145438094Y-112167219D01*
X145438094Y-112167219D02*
X145104761Y-113167219D01*
D12*
%TO.P,D1,1,K*%
%TO.N,Net-(D1-K)*%
X160350000Y-100300000D03*
%TO.P,D1,2,A*%
%TO.N,Net-(D1-A)*%
X162850000Y-100300000D03*
%TD*%
D13*
%TO.P,D3,1,K*%
%TO.N,Net-(D3-K)*%
X140594000Y-89104500D03*
%TO.P,D3,2,A*%
%TO.N,+5V*%
X140594000Y-87529500D03*
%TD*%
D14*
%TO.P,C5,1*%
%TO.N,Net-(U2-3V3OUT)*%
X155300000Y-104325000D03*
%TO.P,C5,2*%
%TO.N,GND*%
X155300000Y-105875000D03*
%TD*%
D13*
%TO.P,D4,1,K*%
%TO.N,Net-(D4-K)*%
X140600000Y-112787500D03*
%TO.P,D4,2,A*%
%TO.N,+5V*%
X140600000Y-111212500D03*
%TD*%
D15*
%TO.P,R5,1*%
%TO.N,Net-(D2-K)*%
X147405000Y-91568000D03*
%TO.P,R5,2*%
%TO.N,/RXLED{slash}CBUS1*%
X147405000Y-93218000D03*
%TD*%
%TO.P,R6,1*%
%TO.N,Net-(D3-K)*%
X144738000Y-91569000D03*
%TO.P,R6,2*%
%TO.N,/TXLED{slash}CBUS2*%
X144738000Y-93219000D03*
%TD*%
D16*
%TO.P,C2,1*%
%TO.N,Net-(U2-3V3OUT)*%
X151500000Y-97100000D03*
%TO.P,C2,2*%
%TO.N,GND*%
X151500000Y-95550000D03*
%TD*%
D17*
%TO.P,R7,1*%
%TO.N,Net-(D4-K)*%
X142300000Y-112850000D03*
%TO.P,R7,2*%
%TO.N,GND*%
X142300000Y-111200000D03*
%TD*%
D18*
%TO.P,FB1,1*%
%TO.N,/VBUS*%
X146516000Y-105037500D03*
%TO.P,FB1,2*%
%TO.N,+5V*%
X146516000Y-107162500D03*
%TD*%
D19*
%TO.P,J2,1*%
%TO.N,Net-(D1-A)*%
X160541000Y-89275000D03*
%TO.P,J2,2*%
%TO.N,/TXD*%
X160541000Y-90525000D03*
%TO.P,J2,3*%
%TO.N,/RXD*%
X160541000Y-91775000D03*
%TO.P,J2,4*%
%TO.N,/#CTS*%
X160541000Y-93025000D03*
%TO.P,J2,5*%
%TO.N,/#RTS*%
X160541000Y-94275000D03*
%TO.P,J2,6*%
%TO.N,GND*%
X160541000Y-95525000D03*
D20*
%TO.P,J2,MP*%
X163741000Y-87425000D03*
X163741000Y-97375000D03*
%TD*%
D21*
%TO.P,U2,1,RXD*%
%TO.N,Net-(U2-RXD)*%
X154400000Y-102637500D03*
%TO.P,U2,2,~{RI}*%
%TO.N,Net-(U2-~{RI})*%
X153900000Y-102637500D03*
%TO.P,U2,3,GND*%
%TO.N,GND*%
X153400000Y-102637500D03*
%TO.P,U2,4,~{DSR}*%
%TO.N,Net-(U2-~{DSR})*%
X152900000Y-102637500D03*
%TO.P,U2,5,~{DCD}*%
%TO.N,Net-(U2-~{DCD})*%
X152400000Y-102637500D03*
D22*
%TO.P,U2,6,~{CTS}*%
%TO.N,Net-(U2-~{CTS})*%
X151462500Y-101700000D03*
%TO.P,U2,7,CBUS2*%
%TO.N,/TXLED{slash}CBUS2*%
X151462500Y-101200000D03*
%TO.P,U2,8,USBDP*%
%TO.N,/DP*%
X151462500Y-100700000D03*
%TO.P,U2,9,USBDM*%
%TO.N,/DM*%
X151462500Y-100200000D03*
%TO.P,U2,10,3V3OUT*%
%TO.N,Net-(U2-3V3OUT)*%
X151462500Y-99700000D03*
D21*
%TO.P,U2,11,~{RESET}*%
%TO.N,Net-(U2-~{RESET})*%
X152400000Y-98762500D03*
%TO.P,U2,12,VCC*%
%TO.N,+5V*%
X152900000Y-98762500D03*
%TO.P,U2,13,GND*%
%TO.N,GND*%
X153400000Y-98762500D03*
%TO.P,U2,14,CBUS1*%
%TO.N,/RXLED{slash}CBUS1*%
X153900000Y-98762500D03*
%TO.P,U2,15,CBUS0*%
%TO.N,unconnected-(U2-CBUS0-Pad15)*%
X154400000Y-98762500D03*
D22*
%TO.P,U2,16,CBUS3*%
%TO.N,unconnected-(U2-CBUS3-Pad16)*%
X155337500Y-99700000D03*
%TO.P,U2,17,TXD*%
%TO.N,Net-(U2-TXD)*%
X155337500Y-100200000D03*
%TO.P,U2,18,~{DTR}*%
%TO.N,Net-(U2-~{DTR})*%
X155337500Y-100700000D03*
%TO.P,U2,19,~{RTS}*%
%TO.N,Net-(U2-~{RTS})*%
X155337500Y-101200000D03*
%TO.P,U2,20,VCCIO*%
%TO.N,Net-(U2-3V3OUT)*%
X155337500Y-101700000D03*
D23*
%TO.P,U2,21,GND*%
%TO.N,GND*%
X153400000Y-100700000D03*
%TD*%
D15*
%TO.P,R9,1*%
%TO.N,Net-(U2-RXD)*%
X153700000Y-105375000D03*
%TO.P,R9,2*%
%TO.N,/RXD*%
X153700000Y-107025000D03*
%TD*%
D17*
%TO.P,R2,1*%
%TO.N,Net-(J1-CC2)*%
X141944000Y-93218000D03*
%TO.P,R2,2*%
%TO.N,GND*%
X141944000Y-91568000D03*
%TD*%
D16*
%TO.P,C1,1*%
%TO.N,/VBUS*%
X148200000Y-106675000D03*
%TO.P,C1,2*%
%TO.N,GND*%
X148200000Y-105125000D03*
%TD*%
%TO.P,C3,1*%
%TO.N,+5V*%
X144800000Y-107850000D03*
%TO.P,C3,2*%
%TO.N,GND*%
X144800000Y-106300000D03*
%TD*%
D24*
%TO.P,J1,A1/B12,GND*%
%TO.N,GND*%
X143346200Y-103517000D03*
%TO.P,J1,A4/B9,VBUS*%
%TO.N,/VBUS*%
X143346200Y-102717000D03*
D25*
%TO.P,J1,A5,CC1*%
%TO.N,Net-(J1-CC1)*%
X143346200Y-101567000D03*
%TO.P,J1,A6,D+*%
%TO.N,/D+*%
X143346200Y-100567000D03*
%TO.P,J1,A7,D-*%
%TO.N,/D-*%
X143346200Y-100067000D03*
%TO.P,J1,A8,SBU1*%
%TO.N,unconnected-(J1-SBU1-PadA8)*%
X143346200Y-99067000D03*
D24*
%TO.P,J1,B1/A12,GND*%
%TO.N,GND*%
X143346200Y-97117000D03*
%TO.P,J1,B4/A9,VBUS*%
%TO.N,/VBUS*%
X143346200Y-97917000D03*
D25*
%TO.P,J1,B5,CC2*%
%TO.N,Net-(J1-CC2)*%
X143346200Y-98567000D03*
%TO.P,J1,B6,D+*%
%TO.N,/D+*%
X143346200Y-99567000D03*
%TO.P,J1,B7,D-*%
%TO.N,/D-*%
X143346200Y-101067000D03*
%TO.P,J1,B8,SBU2*%
%TO.N,unconnected-(J1-SBU2-PadB8)*%
X143346200Y-102067000D03*
D26*
%TO.P,J1,G1,SHIELD*%
%TO.N,GND*%
X138591200Y-104637000D03*
%TO.P,J1,G2,SHIELD*%
X138591200Y-95997000D03*
D27*
%TO.P,J1,G3,SHIELD*%
X142771200Y-104637000D03*
%TO.P,J1,G4,SHIELD*%
X142771200Y-95997000D03*
%TD*%
D28*
%TO.P,U1,1,I/O1*%
%TO.N,/DM*%
X149175000Y-99367000D03*
%TO.P,U1,2,GND*%
%TO.N,GND*%
X149175000Y-100317000D03*
%TO.P,U1,3,I/O2*%
%TO.N,/DP*%
X149175000Y-101267000D03*
%TO.P,U1,4,I/O2*%
%TO.N,/D+*%
X146900000Y-101267000D03*
%TO.P,U1,5,VBUS*%
%TO.N,/VBUS*%
X146900000Y-100317000D03*
%TO.P,U1,6,I/O1*%
%TO.N,/D-*%
X146900000Y-99367000D03*
%TD*%
D29*
%TO.P,F1,1*%
%TO.N,+5V*%
X154425000Y-89500000D03*
%TO.P,F1,2*%
%TO.N,Net-(D1-A)*%
X156300000Y-89500000D03*
%TD*%
D15*
%TO.P,R10,1*%
%TO.N,Net-(U2-~{RTS})*%
X156800000Y-101300000D03*
%TO.P,R10,2*%
%TO.N,/#RTS*%
X156800000Y-102950000D03*
%TD*%
D17*
%TO.P,R1,1*%
%TO.N,Net-(J1-CC1)*%
X139785000Y-93218000D03*
%TO.P,R1,2*%
%TO.N,GND*%
X139785000Y-91568000D03*
%TD*%
D15*
%TO.P,R11,1*%
%TO.N,Net-(U2-~{CTS})*%
X149700000Y-105075000D03*
%TO.P,R11,2*%
%TO.N,/#CTS*%
X149700000Y-106725000D03*
%TD*%
D16*
%TO.P,C4,1*%
%TO.N,+5V*%
X153300000Y-97100000D03*
%TO.P,C4,2*%
%TO.N,GND*%
X153300000Y-95550000D03*
%TD*%
D30*
%TO.P,R3,1*%
%TO.N,/VBUS*%
X150771000Y-93800000D03*
%TO.P,R3,2*%
%TO.N,Net-(U2-~{RESET})*%
X152421000Y-93800000D03*
%TD*%
D13*
%TO.P,D2,1,K*%
%TO.N,Net-(D2-K)*%
X143594000Y-89104500D03*
%TO.P,D2,2,A*%
%TO.N,+5V*%
X143594000Y-87529500D03*
%TD*%
D17*
%TO.P,R8,1*%
%TO.N,Net-(U2-TXD)*%
X156300000Y-97300000D03*
%TO.P,R8,2*%
%TO.N,/TXD*%
X156300000Y-95650000D03*
%TD*%
D19*
%TO.P,J3,1*%
%TO.N,Net-(D1-K)*%
X160541000Y-105075000D03*
%TO.P,J3,2*%
%TO.N,/RXD*%
X160541000Y-106325000D03*
%TO.P,J3,3*%
%TO.N,/TXD*%
X160541000Y-107575000D03*
%TO.P,J3,4*%
%TO.N,/#RTS*%
X160541000Y-108825000D03*
%TO.P,J3,5*%
%TO.N,/#CTS*%
X160541000Y-110075000D03*
%TO.P,J3,6*%
%TO.N,GND*%
X160541000Y-111325000D03*
D20*
%TO.P,J3,MP*%
X163741000Y-103225000D03*
X163741000Y-113175000D03*
%TD*%
D31*
%TO.P,FID1,*%
%TO.N,*%
X149400000Y-108600000D03*
%TD*%
D32*
%TO.P,R4,1*%
%TO.N,Net-(U2-~{RESET})*%
X152421000Y-92203000D03*
%TO.P,R4,2*%
%TO.N,GND*%
X150771000Y-92203000D03*
%TD*%
D31*
%TO.P,FID2,*%
%TO.N,*%
X156100000Y-91600000D03*
%TD*%
D33*
%TO.N,GND*%
X148040000Y-102871000D03*
X151047000Y-86800000D03*
X162391000Y-86361000D03*
X137626000Y-89663000D03*
X160500000Y-112400000D03*
X144600000Y-95800000D03*
X154349000Y-86800000D03*
X163153000Y-114301000D03*
X163534000Y-86361000D03*
X155400000Y-108200000D03*
X137753000Y-112015000D03*
X164550000Y-86361000D03*
X137753000Y-107697000D03*
X145246000Y-96775000D03*
X137626000Y-92838000D03*
X148441809Y-97259855D03*
X156000000Y-86800000D03*
X155100000Y-110947200D03*
X145119000Y-104141000D03*
X146200000Y-90400000D03*
X154900000Y-96600000D03*
X160994000Y-114301000D03*
X144992000Y-110110000D03*
X152698000Y-86800000D03*
X137753000Y-109475000D03*
X155200000Y-98800000D03*
X145700000Y-114100000D03*
X137626000Y-91314000D03*
X162137000Y-114301000D03*
X161248000Y-86361000D03*
X164296000Y-114301000D03*
X143300000Y-92400000D03*
X147400000Y-95700000D03*
%TO.N,Net-(U2-3V3OUT)*%
X151400000Y-99200000D03*
X155149500Y-102800000D03*
%TO.N,Net-(D1-A)*%
X162255000Y-89400000D03*
X163700000Y-99400000D03*
%TO.N,/VBUS*%
X146516000Y-102900000D03*
X146359940Y-100300014D03*
X146500000Y-97917000D03*
%TO.N,/D+*%
X144991190Y-99310863D03*
X144974000Y-100816500D03*
%TO.N,/TXD*%
X156300000Y-95200000D03*
X159200000Y-103600000D03*
%TO.N,/RXD*%
X159400000Y-106500000D03*
X155200000Y-107100000D03*
X157900000Y-98300000D03*
%TO.N,/#CTS*%
X162500000Y-110100000D03*
X162100000Y-93000000D03*
%TO.N,/RXLED{slash}CBUS1*%
X148200000Y-93218000D03*
X155000000Y-97700000D03*
%TO.N,/TXLED{slash}CBUS2*%
X150400000Y-102000000D03*
X146250000Y-96150000D03*
%TO.N,+5V*%
X140300000Y-105900000D03*
X139600000Y-87700000D03*
%TO.N,Net-(U2-~{RI})*%
X153650500Y-104300000D03*
%TO.N,Net-(U2-~{DSR})*%
X151900000Y-106600000D03*
%TO.N,Net-(U2-~{DCD})*%
X151200510Y-105400000D03*
%TO.N,Net-(U2-~{DTR})*%
X156800000Y-100300000D03*
%TD*%
D34*
%TO.N,GND*%
X152960500Y-101317000D02*
X152960500Y-101389500D01*
D35*
%TO.N,Net-(D1-K)*%
X160600000Y-104858000D02*
X160600000Y-100550000D01*
D36*
X160600000Y-105016000D02*
X160541000Y-105075000D01*
D35*
X160600000Y-100550000D02*
X160350000Y-100300000D01*
D37*
%TO.N,Net-(U2-3V3OUT)*%
X151600000Y-99621000D02*
X151600000Y-97200000D01*
X155100000Y-101800000D02*
X155100000Y-103987500D01*
X151400000Y-99200000D02*
X151342000Y-99142000D01*
D36*
%TO.N,Net-(D1-A)*%
X162850000Y-100250000D02*
X163700000Y-99400000D01*
D37*
X162255000Y-89400000D02*
X156400000Y-89400000D01*
D36*
X162850000Y-100300000D02*
X162850000Y-100250000D01*
D37*
X156400000Y-89400000D02*
X156300000Y-89500000D01*
D35*
%TO.N,/VBUS*%
X146333000Y-102717000D02*
X143346200Y-102717000D01*
X146654000Y-97917000D02*
X150771000Y-93800000D01*
X146516000Y-102900000D02*
X146333000Y-102717000D01*
X146500000Y-97917000D02*
X143346200Y-97917000D01*
D37*
X147875000Y-106675000D02*
X148200000Y-106675000D01*
X146516000Y-105316000D02*
X147875000Y-106675000D01*
X146516000Y-105037500D02*
X146516000Y-105316000D01*
D35*
X146516000Y-104903000D02*
X146516000Y-102900000D01*
X146500000Y-97917000D02*
X146654000Y-97917000D01*
D37*
%TO.N,Net-(D2-K)*%
X146032500Y-91568000D02*
X147405000Y-91568000D01*
X143594000Y-89129500D02*
X146032500Y-91568000D01*
%TO.N,/D+*%
X143346200Y-100567000D02*
X145010000Y-100567000D01*
X144735053Y-99567000D02*
X143346200Y-99567000D01*
X145968911Y-100968911D02*
X146067007Y-101067018D01*
X144974000Y-100816500D02*
X144974000Y-100603000D01*
X144974000Y-100603000D02*
X145010000Y-100567000D01*
X146900000Y-101267000D02*
X146549771Y-101267000D01*
X144991190Y-99310863D02*
X144735053Y-99567000D01*
X145968911Y-100968911D02*
X145960909Y-100960909D01*
X145960918Y-100960900D02*
G75*
G03*
X145010000Y-100567000I-951018J-951100D01*
G01*
X146067021Y-101067004D02*
G75*
G03*
X146549771Y-101267000I482779J482704D01*
G01*
%TO.N,/D-*%
X142700000Y-101067000D02*
X143346200Y-101067000D01*
X146698000Y-99367000D02*
X146591952Y-99367000D01*
X143346200Y-100067000D02*
X142700000Y-100067000D01*
X144901917Y-100067000D02*
X143346200Y-100067000D01*
X147041000Y-99508000D02*
X146900000Y-99367000D01*
X142200000Y-100567000D02*
G75*
G03*
X142700000Y-101067000I500000J0D01*
G01*
X142700000Y-100067000D02*
G75*
G03*
X142200000Y-100567000I0J-500000D01*
G01*
X146591952Y-99366970D02*
G75*
G03*
X145979182Y-99620818I48J-866630D01*
G01*
X144901917Y-100067002D02*
G75*
G03*
X145979181Y-99620817I-17J1523602D01*
G01*
%TO.N,Net-(D3-K)*%
X144738000Y-91569000D02*
X143769000Y-91569000D01*
X143769000Y-91569000D02*
X141329500Y-89129500D01*
X141329500Y-89129500D02*
X140594000Y-89129500D01*
%TO.N,Net-(J1-CC1)*%
X139785000Y-93218000D02*
X139785000Y-93346000D01*
X139785000Y-93346000D02*
X140100000Y-93661000D01*
X140100000Y-93661000D02*
X140100000Y-100500000D01*
X139940720Y-93373720D02*
X139785000Y-93218000D01*
X140100000Y-100500000D02*
X141167000Y-101567000D01*
X141167000Y-101567000D02*
X143346200Y-101567000D01*
%TO.N,/TXD*%
X159375000Y-90525000D02*
X160124000Y-90525000D01*
X158650000Y-107030330D02*
X159194670Y-107575000D01*
X156300000Y-95200000D02*
X156300000Y-93600000D01*
X156300000Y-93600000D02*
X159375000Y-90525000D01*
X159194670Y-107575000D02*
X160541000Y-107575000D01*
X158650000Y-104150000D02*
X158650000Y-107030330D01*
X159200000Y-103600000D02*
X158650000Y-104150000D01*
%TO.N,/RXD*%
X157900000Y-93400000D02*
X159525000Y-91775000D01*
X155200000Y-107100000D02*
X153775000Y-107100000D01*
X159525000Y-91775000D02*
X160124000Y-91775000D01*
X153775000Y-107100000D02*
X153700000Y-107025000D01*
X157900000Y-98300000D02*
X157900000Y-93400000D01*
%TO.N,/#RTS*%
X158925000Y-108825000D02*
X156800000Y-106700000D01*
X160541000Y-108825000D02*
X158925000Y-108825000D01*
X161741000Y-94541000D02*
X161741000Y-108559000D01*
X161741000Y-108559000D02*
X161475000Y-108825000D01*
X161475000Y-108825000D02*
X160541000Y-108825000D01*
X156800000Y-106700000D02*
X156800000Y-102950000D01*
X161475000Y-94275000D02*
X161741000Y-94541000D01*
X160848107Y-94275000D02*
X161475000Y-94275000D01*
%TO.N,/#CTS*%
X162475000Y-110075000D02*
X162500000Y-110100000D01*
X149700000Y-107300000D02*
X152500000Y-110100000D01*
X162075000Y-93025000D02*
X160958000Y-93025000D01*
X160541000Y-110075000D02*
X162475000Y-110075000D01*
X162100000Y-93000000D02*
X162075000Y-93025000D01*
X149700000Y-106725000D02*
X149700000Y-107300000D01*
X152500000Y-110100000D02*
X160516000Y-110100000D01*
X160516000Y-110100000D02*
X160541000Y-110075000D01*
D34*
%TO.N,/RXLED{slash}CBUS1*%
X155000000Y-97700000D02*
X154500000Y-97700000D01*
X153900000Y-98300000D02*
X153900000Y-98762500D01*
D37*
X148200000Y-93218000D02*
X147405000Y-93218000D01*
D34*
X154500000Y-97700000D02*
X153900000Y-98300000D01*
D37*
%TO.N,/TXLED{slash}CBUS2*%
X144738000Y-94638000D02*
X144738000Y-93219000D01*
X146250000Y-96150000D02*
X144738000Y-94638000D01*
D38*
X151462500Y-101200000D02*
X150968674Y-101200000D01*
X150400000Y-101768674D02*
X150400000Y-102000000D01*
X150968674Y-101200000D02*
X150400000Y-101768674D01*
D37*
%TO.N,/DM*%
X149635283Y-99367000D02*
X149175000Y-99367000D01*
X150599796Y-99966477D02*
X150258438Y-99625119D01*
X151462500Y-100200000D02*
X151163571Y-100200000D01*
X150258452Y-99625105D02*
G75*
G03*
X149635283Y-99367000I-623152J-623195D01*
G01*
X150599810Y-99966463D02*
G75*
G03*
X151163571Y-100200000I563790J563763D01*
G01*
%TO.N,/DP*%
X149620292Y-101267000D02*
X149175000Y-101267000D01*
X151462500Y-100700000D02*
X150989052Y-100700000D01*
X150922759Y-100699963D02*
G75*
G03*
X150600000Y-100833700I41J-456437D01*
G01*
X149553999Y-101266996D02*
G75*
G03*
X150600000Y-100833700I1J1479196D01*
G01*
%TO.N,Net-(J1-CC2)*%
X141450000Y-98567000D02*
X140900000Y-98017000D01*
X140900000Y-94262000D02*
X141944000Y-93218000D01*
X143346200Y-98567000D02*
X141450000Y-98567000D01*
X140900000Y-98017000D02*
X140900000Y-94262000D01*
%TO.N,Net-(U2-~{RESET})*%
X152400000Y-94256000D02*
X152400000Y-98762500D01*
X152421000Y-94235000D02*
X152400000Y-94256000D01*
X152421000Y-94235000D02*
X152421000Y-92203000D01*
%TO.N,Net-(U2-TXD)*%
X156100000Y-100000000D02*
X156100000Y-97500000D01*
X155900000Y-100200000D02*
X156100000Y-100000000D01*
X156100000Y-97500000D02*
X156300000Y-97300000D01*
X155337500Y-100200000D02*
X155900000Y-100200000D01*
%TO.N,Net-(U2-RXD)*%
X154400000Y-102637500D02*
X154400000Y-104675000D01*
X154400000Y-104675000D02*
X153700000Y-105375000D01*
%TO.N,Net-(U2-~{RTS})*%
X156700000Y-101200000D02*
X156800000Y-101100000D01*
X155337500Y-101200000D02*
X156700000Y-101200000D01*
D35*
%TO.N,+5V*%
X140200000Y-107900000D02*
X140200000Y-106000000D01*
D37*
X152900000Y-97450000D02*
X153400000Y-96950000D01*
D36*
X146337500Y-107162500D02*
X146516000Y-107162500D01*
X145650000Y-107850000D02*
X146337500Y-107162500D01*
D35*
X139600000Y-87700000D02*
X140423500Y-87700000D01*
X154233000Y-89692000D02*
X148703000Y-89692000D01*
D37*
X152900000Y-98762500D02*
X152900000Y-97450000D01*
D35*
X154425000Y-89500000D02*
X154233000Y-89692000D01*
X154400000Y-95950000D02*
X154400000Y-89721000D01*
X146515500Y-87504500D02*
X140594000Y-87504500D01*
X141750000Y-109450000D02*
X140600000Y-110600000D01*
X140600000Y-110600000D02*
X140600000Y-111212500D01*
X153400000Y-96950000D02*
X154400000Y-95950000D01*
X144800000Y-107850000D02*
X143350000Y-107850000D01*
X143350000Y-107850000D02*
X141750000Y-109450000D01*
X140423500Y-87700000D02*
X140594000Y-87529500D01*
X140200000Y-106000000D02*
X140300000Y-105900000D01*
X141750000Y-109450000D02*
X140200000Y-107900000D01*
D36*
X144800000Y-107850000D02*
X145650000Y-107850000D01*
D35*
X148703000Y-89692000D02*
X146515500Y-87504500D01*
D37*
%TO.N,Net-(U2-~{CTS})*%
X151462500Y-102137500D02*
X149700000Y-103900000D01*
X151462500Y-101700000D02*
X151462500Y-102137500D01*
X149700000Y-103900000D02*
X149700000Y-105075000D01*
%TO.N,Net-(D4-K)*%
X142237500Y-112787500D02*
X142300000Y-112850000D01*
X140600000Y-112787500D02*
X142237500Y-112787500D01*
%TO.N,Net-(U2-~{RI})*%
X153900000Y-104050500D02*
X153900000Y-102637500D01*
X153650500Y-104300000D02*
X153900000Y-104050500D01*
%TO.N,Net-(U2-~{DSR})*%
X151900000Y-106600000D02*
X152100000Y-106400000D01*
X152900000Y-103250000D02*
X152900000Y-102637500D01*
X152100000Y-104050000D02*
X152900000Y-103250000D01*
X152100000Y-106400000D02*
X152100000Y-104050000D01*
%TO.N,Net-(U2-~{DCD})*%
X152400000Y-103000000D02*
X152400000Y-102637500D01*
X151400000Y-105200510D02*
X151400000Y-104000000D01*
X151200510Y-105400000D02*
X151400000Y-105200510D01*
X151400000Y-104000000D02*
X152400000Y-103000000D01*
%TO.N,Net-(U2-~{DTR})*%
X156800000Y-100300000D02*
X156547183Y-100300000D01*
X156547183Y-100300000D02*
X156147183Y-100700000D01*
X156147183Y-100700000D02*
X155337500Y-100700000D01*
%TD*%
%TA.AperFunction,Conductor*%
%TO.N,GND*%
G36*
X155714795Y-97882156D02*
G01*
X155746765Y-97934324D01*
X155749500Y-97957436D01*
X155749500Y-99275500D01*
X155730593Y-99333691D01*
X155681093Y-99369655D01*
X155650500Y-99374500D01*
X154961602Y-99374500D01*
X154961592Y-99374501D01*
X154919222Y-99382929D01*
X154858461Y-99375736D01*
X154817595Y-99340833D01*
X154794193Y-99305810D01*
X154794190Y-99305807D01*
X154759167Y-99282406D01*
X154721287Y-99234356D01*
X154717071Y-99180774D01*
X154725499Y-99138408D01*
X154725499Y-99138406D01*
X154725500Y-99138401D01*
X154725499Y-98386600D01*
X154725499Y-98386599D01*
X154725499Y-98382431D01*
X154744406Y-98324240D01*
X154793906Y-98288276D01*
X154837421Y-98284278D01*
X154843237Y-98285043D01*
X154843238Y-98285044D01*
X154931640Y-98296682D01*
X154999999Y-98305682D01*
X155000000Y-98305682D01*
X155000001Y-98305682D01*
X155045301Y-98299718D01*
X155156762Y-98285044D01*
X155302841Y-98224536D01*
X155428282Y-98128282D01*
X155524536Y-98002841D01*
X155559035Y-97919551D01*
X155598772Y-97873025D01*
X155658267Y-97858741D01*
X155714795Y-97882156D01*
G37*
%TD.AperFunction*%
%TA.AperFunction,Conductor*%
G36*
X165052691Y-85836407D02*
G01*
X165088655Y-85885907D01*
X165093500Y-85916500D01*
X165093500Y-86647072D01*
X165074593Y-86705263D01*
X165025093Y-86741227D01*
X164963907Y-86741227D01*
X164961804Y-86740517D01*
X164925603Y-86727850D01*
X164895211Y-86725000D01*
X163995001Y-86725000D01*
X163995000Y-86725001D01*
X163995000Y-88124998D01*
X163995001Y-88124999D01*
X164895203Y-88124999D01*
X164925600Y-88122149D01*
X164925606Y-88122148D01*
X164961802Y-88109483D01*
X165022972Y-88108110D01*
X165073267Y-88142954D01*
X165093475Y-88200705D01*
X165093500Y-88202927D01*
X165093500Y-96597072D01*
X165074593Y-96655263D01*
X165025093Y-96691227D01*
X164963907Y-96691227D01*
X164961804Y-96690517D01*
X164925603Y-96677850D01*
X164895211Y-96675000D01*
X163995001Y-96675000D01*
X163995000Y-96675001D01*
X163995000Y-98074998D01*
X163995001Y-98074999D01*
X164895203Y-98074999D01*
X164925600Y-98072149D01*
X164925606Y-98072148D01*
X164961802Y-98059483D01*
X165022972Y-98058110D01*
X165073267Y-98092954D01*
X165093475Y-98150705D01*
X165093500Y-98152927D01*
X165093500Y-102447072D01*
X165074593Y-102505263D01*
X165025093Y-102541227D01*
X164963907Y-102541227D01*
X164961804Y-102540517D01*
X164925603Y-102527850D01*
X164895211Y-102525000D01*
X163995001Y-102525000D01*
X163995000Y-102525001D01*
X163995000Y-103924998D01*
X163995001Y-103924999D01*
X164895203Y-103924999D01*
X164925600Y-103922149D01*
X164925606Y-103922148D01*
X164961802Y-103909483D01*
X165022972Y-103908110D01*
X165073267Y-103942954D01*
X165093475Y-104000705D01*
X165093500Y-104002927D01*
X165093500Y-112397072D01*
X165074593Y-112455263D01*
X165025093Y-112491227D01*
X164963907Y-112491227D01*
X164961804Y-112490517D01*
X164925603Y-112477850D01*
X164895211Y-112475000D01*
X163995000Y-112475000D01*
X163995000Y-113874998D01*
X163995001Y-113874999D01*
X164895203Y-113874999D01*
X164925600Y-113872149D01*
X164925606Y-113872148D01*
X164961802Y-113859483D01*
X165022972Y-113858110D01*
X165073267Y-113892954D01*
X165093475Y-113950705D01*
X165093500Y-113952927D01*
X165093500Y-114717500D01*
X165074593Y-114775691D01*
X165025093Y-114811655D01*
X164994500Y-114816500D01*
X136193500Y-114816500D01*
X136135309Y-114797593D01*
X136099345Y-114748093D01*
X136094500Y-114717500D01*
X136094500Y-113479203D01*
X162191001Y-113479203D01*
X162193850Y-113509600D01*
X162193850Y-113509602D01*
X162238654Y-113637647D01*
X162319207Y-113746790D01*
X162319209Y-113746792D01*
X162428352Y-113827345D01*
X162556398Y-113872149D01*
X162586789Y-113874999D01*
X163486998Y-113874999D01*
X163487000Y-113874998D01*
X163487000Y-113429000D01*
X162191002Y-113429000D01*
X162191001Y-113429001D01*
X162191001Y-113479203D01*
X136094500Y-113479203D01*
X136094500Y-113039248D01*
X139924500Y-113039248D01*
X139940049Y-113137419D01*
X139940050Y-113137423D01*
X139967887Y-113192055D01*
X140000342Y-113255751D01*
X140094249Y-113349658D01*
X140212580Y-113409951D01*
X140279130Y-113420491D01*
X140310751Y-113425500D01*
X140310754Y-113425500D01*
X140889249Y-113425500D01*
X140917803Y-113420976D01*
X140987420Y-113409951D01*
X141105751Y-113349658D01*
X141199658Y-113255751D01*
X141232113Y-113192053D01*
X141275377Y-113148790D01*
X141320322Y-113138000D01*
X141559679Y-113138000D01*
X141617870Y-113156907D01*
X141647888Y-113192054D01*
X141647889Y-113192055D01*
X141696950Y-113288342D01*
X141786658Y-113378050D01*
X141899696Y-113435646D01*
X141993481Y-113450500D01*
X142606518Y-113450499D01*
X142606520Y-113450499D01*
X142606521Y-113450498D01*
X142653411Y-113443072D01*
X142700299Y-113435647D01*
X142700299Y-113435646D01*
X142700304Y-113435646D01*
X142813342Y-113378050D01*
X142903050Y-113288342D01*
X142960646Y-113175304D01*
X142975500Y-113081519D01*
X142975499Y-112618482D01*
X142973080Y-112603207D01*
X142960647Y-112524700D01*
X142960646Y-112524698D01*
X142960646Y-112524696D01*
X142903050Y-112411658D01*
X142813342Y-112321950D01*
X142700304Y-112264354D01*
X142700305Y-112264354D01*
X142606522Y-112249500D01*
X141993479Y-112249500D01*
X141993476Y-112249501D01*
X141899700Y-112264352D01*
X141899695Y-112264354D01*
X141786659Y-112321949D01*
X141786658Y-112321949D01*
X141786658Y-112321950D01*
X141700602Y-112408005D01*
X141646088Y-112435781D01*
X141630601Y-112437000D01*
X141320322Y-112437000D01*
X141262131Y-112418093D01*
X141232113Y-112382946D01*
X141199658Y-112319249D01*
X141105751Y-112225342D01*
X141101631Y-112223243D01*
X140987423Y-112165050D01*
X140987420Y-112165049D01*
X140962876Y-112161161D01*
X140889249Y-112149500D01*
X140889246Y-112149500D01*
X140310754Y-112149500D01*
X140310751Y-112149500D01*
X140212580Y-112165049D01*
X140212576Y-112165050D01*
X140094250Y-112225341D01*
X140000341Y-112319250D01*
X139940050Y-112437576D01*
X139940049Y-112437580D01*
X139924500Y-112535751D01*
X139924500Y-113039248D01*
X136094500Y-113039248D01*
X136094500Y-111861576D01*
X144804017Y-111861576D01*
X144804017Y-113472862D01*
X144804018Y-113472862D01*
X157595736Y-113472862D01*
X157595737Y-113472862D01*
X157595737Y-112920999D01*
X162191000Y-112920999D01*
X162191001Y-112921000D01*
X163486999Y-112921000D01*
X163486999Y-112475000D01*
X162586796Y-112475000D01*
X162556399Y-112477850D01*
X162556397Y-112477850D01*
X162428352Y-112522654D01*
X162319209Y-112603207D01*
X162319207Y-112603209D01*
X162238654Y-112712352D01*
X162193850Y-112840398D01*
X162191000Y-112870788D01*
X162191000Y-112920999D01*
X157595737Y-112920999D01*
X157595737Y-111861576D01*
X144804017Y-111861576D01*
X136094500Y-111861576D01*
X136094500Y-104383000D01*
X137433956Y-104383000D01*
X137820465Y-104383000D01*
X137878656Y-104401907D01*
X137914620Y-104451407D01*
X137915685Y-104509091D01*
X137887305Y-104608840D01*
X137894601Y-104687580D01*
X137897654Y-104720520D01*
X137897655Y-104720523D01*
X137911273Y-104747872D01*
X137920286Y-104808390D01*
X137892005Y-104862648D01*
X137837234Y-104889920D01*
X137822652Y-104891000D01*
X137433957Y-104891000D01*
X137510881Y-105037568D01*
X137510881Y-105037569D01*
X137623599Y-105164800D01*
X137623605Y-105164805D01*
X137763506Y-105261371D01*
X137763509Y-105261373D01*
X137922441Y-105321648D01*
X137922451Y-105321651D01*
X138048848Y-105336999D01*
X138048865Y-105337000D01*
X138337199Y-105337000D01*
X138337200Y-105336999D01*
X138337200Y-105036000D01*
X138356107Y-104977809D01*
X138405607Y-104941845D01*
X138436200Y-104937000D01*
X138746200Y-104937000D01*
X138804391Y-104955907D01*
X138840355Y-105005407D01*
X138845200Y-105036000D01*
X138845200Y-105336998D01*
X138845201Y-105337000D01*
X139133535Y-105337000D01*
X139133551Y-105336999D01*
X139259948Y-105321651D01*
X139259958Y-105321648D01*
X139418890Y-105261373D01*
X139418893Y-105261371D01*
X139558794Y-105164805D01*
X139558800Y-105164800D01*
X139671518Y-105037569D01*
X139671518Y-105037568D01*
X139748443Y-104891000D01*
X139361935Y-104891000D01*
X139303744Y-104872093D01*
X139267780Y-104822593D01*
X139266714Y-104764907D01*
X139267042Y-104763755D01*
X139291031Y-104679442D01*
X141517499Y-104679442D01*
X141546927Y-104846342D01*
X141614057Y-105001968D01*
X141715263Y-105137911D01*
X141715265Y-105137913D01*
X141824811Y-105229834D01*
X142088650Y-104965996D01*
X142143167Y-104938219D01*
X142158654Y-104937000D01*
X142585746Y-104937000D01*
X142643937Y-104955907D01*
X142679901Y-105005407D01*
X142679901Y-105066593D01*
X142655750Y-105106004D01*
X142399754Y-105362000D01*
X143142646Y-105362000D01*
X142886650Y-105106004D01*
X142858873Y-105051487D01*
X142868444Y-104991055D01*
X142911709Y-104947790D01*
X142956654Y-104937000D01*
X143349001Y-104937000D01*
X143349002Y-104937000D01*
X143361523Y-104934659D01*
X143422195Y-104942548D01*
X143449720Y-104961968D01*
X143716242Y-105228489D01*
X143765394Y-105196162D01*
X143881697Y-105072889D01*
X143881698Y-105072889D01*
X143966438Y-104926113D01*
X144015046Y-104763755D01*
X144024900Y-104594557D01*
X143995472Y-104427657D01*
X143928342Y-104272031D01*
X143856194Y-104175119D01*
X143836611Y-104117152D01*
X143854840Y-104058745D01*
X143903918Y-104022208D01*
X143935604Y-104017000D01*
X143940897Y-104017000D01*
X143940900Y-104016999D01*
X143999236Y-104005396D01*
X144065389Y-103961193D01*
X144065393Y-103961189D01*
X144109596Y-103895036D01*
X144121199Y-103836700D01*
X144121200Y-103836697D01*
X144121200Y-103771001D01*
X144121199Y-103771000D01*
X143600201Y-103771000D01*
X143600200Y-103771001D01*
X143600200Y-103871999D01*
X143600201Y-103872000D01*
X143650744Y-103872000D01*
X143708935Y-103890907D01*
X143744899Y-103940407D01*
X143744899Y-104001593D01*
X143720748Y-104041004D01*
X143453748Y-104308004D01*
X143399231Y-104335781D01*
X143383744Y-104337000D01*
X142956653Y-104337000D01*
X142898462Y-104318093D01*
X142862498Y-104268593D01*
X142862498Y-104207407D01*
X142886649Y-104167996D01*
X143092200Y-103962445D01*
X143092200Y-103771001D01*
X143092199Y-103771000D01*
X142571201Y-103771000D01*
X142571200Y-103771001D01*
X142571200Y-103813000D01*
X142552293Y-103871191D01*
X142502793Y-103907155D01*
X142472200Y-103912000D01*
X142399753Y-103912000D01*
X142655750Y-104167996D01*
X142683528Y-104222513D01*
X142673957Y-104282945D01*
X142630692Y-104326210D01*
X142585747Y-104337000D01*
X142193398Y-104337000D01*
X142180869Y-104339341D01*
X142120197Y-104331448D01*
X142092679Y-104312031D01*
X141826155Y-104045508D01*
X141777007Y-104077835D01*
X141660702Y-104201110D01*
X141660701Y-104201110D01*
X141575961Y-104347886D01*
X141527353Y-104510244D01*
X141517499Y-104679442D01*
X139291031Y-104679442D01*
X139295095Y-104665160D01*
X139284746Y-104553479D01*
X139271127Y-104526128D01*
X139262114Y-104465610D01*
X139290395Y-104411352D01*
X139345166Y-104384080D01*
X139359748Y-104383000D01*
X139748443Y-104383000D01*
X139671518Y-104236431D01*
X139671518Y-104236430D01*
X139558800Y-104109199D01*
X139558794Y-104109194D01*
X139418893Y-104012628D01*
X139418890Y-104012626D01*
X139259958Y-103952351D01*
X139259948Y-103952348D01*
X139133551Y-103937000D01*
X138845201Y-103937000D01*
X138845200Y-103937001D01*
X138845200Y-104238000D01*
X138826293Y-104296191D01*
X138776793Y-104332155D01*
X138746200Y-104337000D01*
X138436200Y-104337000D01*
X138378009Y-104318093D01*
X138342045Y-104268593D01*
X138337200Y-104238000D01*
X138337200Y-103937001D01*
X138337199Y-103937000D01*
X138048848Y-103937000D01*
X137922451Y-103952348D01*
X137922441Y-103952351D01*
X137763509Y-104012626D01*
X137763506Y-104012628D01*
X137623605Y-104109194D01*
X137623599Y-104109199D01*
X137510881Y-104236430D01*
X137510881Y-104236431D01*
X137433956Y-104383000D01*
X136094500Y-104383000D01*
X136094500Y-95743000D01*
X137433956Y-95743000D01*
X137820465Y-95743000D01*
X137878656Y-95761907D01*
X137914620Y-95811407D01*
X137915685Y-95869091D01*
X137903057Y-95913479D01*
X137887305Y-95968840D01*
X137897654Y-96080520D01*
X137897655Y-96080523D01*
X137911273Y-96107872D01*
X137920286Y-96168390D01*
X137892005Y-96222648D01*
X137837234Y-96249920D01*
X137822652Y-96251000D01*
X137433957Y-96251000D01*
X137510881Y-96397568D01*
X137510881Y-96397569D01*
X137623599Y-96524800D01*
X137623605Y-96524805D01*
X137763506Y-96621371D01*
X137763509Y-96621373D01*
X137922441Y-96681648D01*
X137922451Y-96681651D01*
X138048848Y-96696999D01*
X138048865Y-96697000D01*
X138337199Y-96697000D01*
X138337200Y-96696998D01*
X138337200Y-96396000D01*
X138356107Y-96337809D01*
X138405607Y-96301845D01*
X138436200Y-96297000D01*
X138746200Y-96297000D01*
X138804391Y-96315907D01*
X138840355Y-96365407D01*
X138845200Y-96396000D01*
X138845200Y-96696998D01*
X138845201Y-96697000D01*
X139133535Y-96697000D01*
X139133551Y-96696999D01*
X139259948Y-96681651D01*
X139259958Y-96681648D01*
X139418890Y-96621373D01*
X139418893Y-96621371D01*
X139558794Y-96524805D01*
X139558795Y-96524805D01*
X139576397Y-96504937D01*
X139629137Y-96473918D01*
X139690037Y-96479824D01*
X139735835Y-96520397D01*
X139749500Y-96570586D01*
X139749500Y-100453381D01*
X139747393Y-100473696D01*
X139745394Y-100483233D01*
X139744957Y-100485315D01*
X139749120Y-100518709D01*
X139749500Y-100524837D01*
X139749500Y-100529038D01*
X139753087Y-100550541D01*
X139759425Y-100601388D01*
X139761527Y-100608448D01*
X139763907Y-100615380D01*
X139788295Y-100660444D01*
X139810801Y-100706482D01*
X139815078Y-100712472D01*
X139819579Y-100718255D01*
X139857275Y-100752958D01*
X140886197Y-101781878D01*
X140899072Y-101797734D01*
X140905562Y-101807668D01*
X140932110Y-101828331D01*
X140936709Y-101832391D01*
X140939689Y-101835371D01*
X140939692Y-101835373D01*
X140939694Y-101835375D01*
X140957430Y-101848038D01*
X140997874Y-101879517D01*
X140997880Y-101879519D01*
X141004354Y-101883022D01*
X141010934Y-101886240D01*
X141060045Y-101900861D01*
X141108512Y-101917500D01*
X141108516Y-101917500D01*
X141115736Y-101918705D01*
X141123039Y-101919615D01*
X141123046Y-101919617D01*
X141174231Y-101917500D01*
X142471700Y-101917500D01*
X142529891Y-101936407D01*
X142565855Y-101985907D01*
X142570700Y-102016500D01*
X142570700Y-102236750D01*
X142582821Y-102297684D01*
X142582821Y-102336311D01*
X142570700Y-102397246D01*
X142570700Y-102831433D01*
X142551793Y-102889624D01*
X142502293Y-102925588D01*
X142441107Y-102925588D01*
X142422201Y-102917170D01*
X142384591Y-102895456D01*
X142384592Y-102895456D01*
X142299770Y-102880500D01*
X142299766Y-102880500D01*
X142242634Y-102880500D01*
X142242629Y-102880500D01*
X142157809Y-102895456D01*
X142058090Y-102953029D01*
X141984083Y-103041227D01*
X141984079Y-103041234D01*
X141944700Y-103149426D01*
X141944700Y-103264571D01*
X141971746Y-103338880D01*
X141984081Y-103372768D01*
X142058092Y-103460972D01*
X142157808Y-103518543D01*
X142242634Y-103533500D01*
X142242635Y-103533500D01*
X142299765Y-103533500D01*
X142299766Y-103533500D01*
X142384592Y-103518543D01*
X142484308Y-103460972D01*
X142558319Y-103372769D01*
X142574563Y-103328138D01*
X142612232Y-103279925D01*
X142667592Y-103263000D01*
X144121199Y-103263000D01*
X144121200Y-103262999D01*
X144121200Y-103216500D01*
X144140107Y-103158309D01*
X144189607Y-103122345D01*
X144220200Y-103117500D01*
X145889965Y-103117500D01*
X145948156Y-103136407D01*
X145981429Y-103178614D01*
X145991463Y-103202839D01*
X145991465Y-103202842D01*
X146091668Y-103333431D01*
X146090283Y-103334493D01*
X146114279Y-103381569D01*
X146115500Y-103397071D01*
X146115500Y-104312768D01*
X146096593Y-104370959D01*
X146047093Y-104406923D01*
X146031990Y-104410549D01*
X146003579Y-104415049D01*
X146003576Y-104415050D01*
X145885250Y-104475341D01*
X145791341Y-104569250D01*
X145731050Y-104687576D01*
X145731049Y-104687580D01*
X145715500Y-104785751D01*
X145715500Y-105289248D01*
X145718236Y-105306519D01*
X145729715Y-105379000D01*
X145731049Y-105387419D01*
X145731050Y-105387423D01*
X145748523Y-105421715D01*
X145791342Y-105505751D01*
X145885249Y-105599658D01*
X146003580Y-105659951D01*
X146070130Y-105670491D01*
X146101751Y-105675500D01*
X146101754Y-105675500D01*
X146338810Y-105675500D01*
X146397001Y-105694407D01*
X146408814Y-105704496D01*
X147069557Y-106365239D01*
X147097334Y-106419756D01*
X147087763Y-106480188D01*
X147044498Y-106523453D01*
X146984066Y-106533024D01*
X146930249Y-106524500D01*
X146930246Y-106524500D01*
X146101754Y-106524500D01*
X146101751Y-106524500D01*
X146003580Y-106540049D01*
X146003576Y-106540050D01*
X145885250Y-106600341D01*
X145791341Y-106694250D01*
X145731050Y-106812576D01*
X145731049Y-106812580D01*
X145715500Y-106910751D01*
X145715500Y-107106389D01*
X145696593Y-107164580D01*
X145686509Y-107176386D01*
X145588039Y-107274858D01*
X145514826Y-107348071D01*
X145460309Y-107375848D01*
X145399877Y-107366277D01*
X145374821Y-107348073D01*
X145303220Y-107276472D01*
X145303217Y-107276470D01*
X145183132Y-107215283D01*
X145183127Y-107215281D01*
X145183126Y-107215281D01*
X145149913Y-107210020D01*
X145083490Y-107199500D01*
X145083488Y-107199500D01*
X144516512Y-107199500D01*
X144516510Y-107199500D01*
X144416874Y-107215281D01*
X144416867Y-107215283D01*
X144296782Y-107276470D01*
X144201470Y-107371782D01*
X144189414Y-107395445D01*
X144146149Y-107438710D01*
X144101204Y-107449500D01*
X143413433Y-107449500D01*
X143286567Y-107449500D01*
X143286566Y-107449500D01*
X143286560Y-107449501D01*
X143263624Y-107456953D01*
X143248525Y-107460578D01*
X143224701Y-107464352D01*
X143224695Y-107464354D01*
X143203196Y-107475307D01*
X143188857Y-107481246D01*
X143165914Y-107488702D01*
X143165911Y-107488704D01*
X143146392Y-107502884D01*
X143133156Y-107510995D01*
X143111658Y-107521950D01*
X143089094Y-107544513D01*
X143089092Y-107544515D01*
X143089090Y-107544515D01*
X143089091Y-107544516D01*
X141820003Y-108813602D01*
X141765486Y-108841379D01*
X141705054Y-108831808D01*
X141679998Y-108813604D01*
X141160604Y-108294211D01*
X140629496Y-107763102D01*
X140601719Y-107708585D01*
X140600500Y-107693098D01*
X140600500Y-106558453D01*
X144125000Y-106558453D01*
X144140760Y-106657965D01*
X144140762Y-106657969D01*
X144201881Y-106777921D01*
X144297078Y-106873118D01*
X144417030Y-106934237D01*
X144417029Y-106934237D01*
X144516546Y-106949999D01*
X144546000Y-106949999D01*
X144546000Y-106949998D01*
X145054000Y-106949998D01*
X145054001Y-106949999D01*
X145083453Y-106949999D01*
X145182965Y-106934239D01*
X145182969Y-106934237D01*
X145302921Y-106873118D01*
X145398118Y-106777921D01*
X145459237Y-106657969D01*
X145475000Y-106558453D01*
X145475000Y-106554001D01*
X145474999Y-106554000D01*
X145054001Y-106554000D01*
X145054000Y-106554001D01*
X145054000Y-106949998D01*
X144546000Y-106949998D01*
X144546000Y-106554000D01*
X144125002Y-106554000D01*
X144125001Y-106554001D01*
X144125001Y-106558453D01*
X144125000Y-106558453D01*
X140600500Y-106558453D01*
X140600500Y-106475154D01*
X140619407Y-106416963D01*
X140639233Y-106396612D01*
X140687153Y-106359841D01*
X140728282Y-106328282D01*
X140824536Y-106202841D01*
X140885044Y-106056762D01*
X140886461Y-106045998D01*
X144125000Y-106045998D01*
X144125001Y-106046000D01*
X144545999Y-106046000D01*
X144546000Y-106045999D01*
X145054000Y-106045999D01*
X145054001Y-106046000D01*
X145474998Y-106046000D01*
X145474999Y-106045999D01*
X145474999Y-106041546D01*
X145459239Y-105942034D01*
X145459237Y-105942030D01*
X145398118Y-105822078D01*
X145302921Y-105726881D01*
X145182969Y-105665762D01*
X145182970Y-105665762D01*
X145083454Y-105650000D01*
X145054001Y-105650000D01*
X145054000Y-105650001D01*
X145054000Y-106045999D01*
X144546000Y-106045999D01*
X144546000Y-105650000D01*
X144516547Y-105650000D01*
X144516544Y-105650001D01*
X144417034Y-105665760D01*
X144417030Y-105665762D01*
X144297078Y-105726881D01*
X144201881Y-105822078D01*
X144140762Y-105942030D01*
X144125000Y-106041546D01*
X144125000Y-106045998D01*
X140886461Y-106045998D01*
X140905682Y-105900000D01*
X140885044Y-105743238D01*
X140846424Y-105650001D01*
X140824537Y-105597161D01*
X140824537Y-105597160D01*
X140728286Y-105471723D01*
X140728285Y-105471722D01*
X140728282Y-105471718D01*
X140728277Y-105471714D01*
X140728276Y-105471713D01*
X140613252Y-105383453D01*
X140602841Y-105375464D01*
X140602840Y-105375463D01*
X140602838Y-105375462D01*
X140456766Y-105314957D01*
X140456758Y-105314955D01*
X140300001Y-105294318D01*
X140299999Y-105294318D01*
X140143241Y-105314955D01*
X140143233Y-105314957D01*
X139997161Y-105375462D01*
X139997160Y-105375462D01*
X139871723Y-105471713D01*
X139871713Y-105471723D01*
X139775462Y-105597160D01*
X139775462Y-105597161D01*
X139714957Y-105743233D01*
X139714955Y-105743241D01*
X139694318Y-105899999D01*
X139694318Y-105900000D01*
X139714955Y-106056758D01*
X139714957Y-106056766D01*
X139775462Y-106202838D01*
X139775463Y-106202839D01*
X139775464Y-106202841D01*
X139779040Y-106207501D01*
X139799466Y-106265176D01*
X139799500Y-106267771D01*
X139799500Y-107963437D01*
X139806953Y-107986374D01*
X139810579Y-108001474D01*
X139814354Y-108025306D01*
X139825301Y-108046788D01*
X139831247Y-108061142D01*
X139838703Y-108084088D01*
X139838702Y-108084088D01*
X139852884Y-108103608D01*
X139860997Y-108116847D01*
X139871950Y-108138342D01*
X139871951Y-108138343D01*
X139892031Y-108158424D01*
X139894515Y-108160908D01*
X139894516Y-108160909D01*
X141113604Y-109379997D01*
X141141380Y-109434512D01*
X141131809Y-109494944D01*
X141113603Y-109520003D01*
X140294516Y-110339091D01*
X140294515Y-110339092D01*
X140271950Y-110361658D01*
X140271948Y-110361660D01*
X140260997Y-110383151D01*
X140252887Y-110396385D01*
X140238706Y-110415906D01*
X140238701Y-110415915D01*
X140231249Y-110438852D01*
X140225305Y-110453202D01*
X140214355Y-110474691D01*
X140214352Y-110474701D01*
X140210577Y-110498529D01*
X140206953Y-110513624D01*
X140199501Y-110536562D01*
X140198282Y-110544261D01*
X140196901Y-110544042D01*
X140180593Y-110594237D01*
X140145446Y-110624255D01*
X140094251Y-110650340D01*
X140000341Y-110744250D01*
X139940050Y-110862576D01*
X139940049Y-110862580D01*
X139924500Y-110960751D01*
X139924500Y-111464248D01*
X139940049Y-111562419D01*
X139940050Y-111562423D01*
X139948497Y-111579000D01*
X140000342Y-111680751D01*
X140094249Y-111774658D01*
X140212580Y-111834951D01*
X140279130Y-111845491D01*
X140310751Y-111850500D01*
X140310754Y-111850500D01*
X140889249Y-111850500D01*
X140917803Y-111845976D01*
X140987420Y-111834951D01*
X141105751Y-111774658D01*
X141199658Y-111680751D01*
X141259951Y-111562420D01*
X141275500Y-111464246D01*
X141275500Y-111454000D01*
X141628567Y-111454000D01*
X141639834Y-111525146D01*
X141639836Y-111525151D01*
X141697358Y-111638043D01*
X141786956Y-111727641D01*
X141899848Y-111785163D01*
X141899852Y-111785164D01*
X141993516Y-111799999D01*
X142045999Y-111799998D01*
X142046000Y-111799997D01*
X142046000Y-111454000D01*
X142554000Y-111454000D01*
X142554000Y-111799998D01*
X142554001Y-111799999D01*
X142606483Y-111799999D01*
X142606485Y-111799998D01*
X142700141Y-111785166D01*
X142700151Y-111785163D01*
X142813043Y-111727641D01*
X142902641Y-111638043D01*
X142932725Y-111579000D01*
X159502257Y-111579000D01*
X159552213Y-111681187D01*
X159634812Y-111763786D01*
X159739751Y-111815087D01*
X159807784Y-111824999D01*
X160286998Y-111824999D01*
X160287000Y-111824998D01*
X160287000Y-111579001D01*
X160286999Y-111579000D01*
X160795000Y-111579000D01*
X160795000Y-111824998D01*
X160795001Y-111824999D01*
X161274213Y-111824999D01*
X161274216Y-111824998D01*
X161342250Y-111815087D01*
X161447188Y-111763785D01*
X161529786Y-111681187D01*
X161579743Y-111579000D01*
X160795000Y-111579000D01*
X160286999Y-111579000D01*
X159502257Y-111579000D01*
X142932725Y-111579000D01*
X142960163Y-111525151D01*
X142960165Y-111525146D01*
X142971433Y-111454000D01*
X142554000Y-111454000D01*
X142046000Y-111454000D01*
X141628567Y-111454000D01*
X141275500Y-111454000D01*
X141275500Y-111071000D01*
X159502257Y-111071000D01*
X160286999Y-111071000D01*
X160287000Y-111070999D01*
X160795000Y-111070999D01*
X160795001Y-111071000D01*
X161579742Y-111071000D01*
X161529786Y-110968812D01*
X161447187Y-110886213D01*
X161342248Y-110834912D01*
X161274216Y-110825000D01*
X160795001Y-110825000D01*
X160795000Y-110825001D01*
X160795000Y-111070999D01*
X160287000Y-111070999D01*
X160287000Y-111070998D01*
X160287000Y-110825001D01*
X160286999Y-110825000D01*
X159807786Y-110825000D01*
X159807783Y-110825001D01*
X159739749Y-110834912D01*
X159634811Y-110886214D01*
X159552213Y-110968812D01*
X159502257Y-111071000D01*
X141275500Y-111071000D01*
X141275500Y-110960754D01*
X141273163Y-110946000D01*
X141628567Y-110946000D01*
X142045999Y-110946000D01*
X142046000Y-110945998D01*
X142554000Y-110945998D01*
X142554001Y-110946000D01*
X142971432Y-110946000D01*
X142960165Y-110874853D01*
X142960163Y-110874848D01*
X142902641Y-110761956D01*
X142813043Y-110672358D01*
X142700151Y-110614836D01*
X142700147Y-110614835D01*
X142606484Y-110600000D01*
X142554001Y-110600000D01*
X142554000Y-110600001D01*
X142554000Y-110945998D01*
X142046000Y-110945998D01*
X142046000Y-110599999D01*
X141993518Y-110600000D01*
X141993513Y-110600001D01*
X141899858Y-110614833D01*
X141899848Y-110614836D01*
X141786956Y-110672358D01*
X141697358Y-110761956D01*
X141639836Y-110874848D01*
X141639834Y-110874853D01*
X141628567Y-110946000D01*
X141273163Y-110946000D01*
X141259951Y-110862580D01*
X141199658Y-110744249D01*
X141199654Y-110744245D01*
X141180903Y-110725493D01*
X141153127Y-110670976D01*
X141162699Y-110610544D01*
X141180901Y-110585490D01*
X142005409Y-109760982D01*
X142017215Y-109750900D01*
X142036726Y-109736726D01*
X142045056Y-109725259D01*
X142070238Y-109701072D01*
X142082368Y-109692985D01*
X142097415Y-109668976D01*
X143166390Y-108600002D01*
X148894353Y-108600002D01*
X148914834Y-108742456D01*
X148974622Y-108873371D01*
X148974623Y-108873373D01*
X149068872Y-108982143D01*
X149068873Y-108982144D01*
X149183382Y-109055734D01*
X149189947Y-109059953D01*
X149286241Y-109088227D01*
X149328035Y-109100499D01*
X149328036Y-109100499D01*
X149328039Y-109100500D01*
X149328041Y-109100500D01*
X149471959Y-109100500D01*
X149471961Y-109100500D01*
X149610053Y-109059953D01*
X149731128Y-108982143D01*
X149825377Y-108873373D01*
X149885165Y-108742457D01*
X149903133Y-108617488D01*
X149905647Y-108600002D01*
X149905647Y-108599997D01*
X149885165Y-108457543D01*
X149869631Y-108423528D01*
X149825377Y-108326627D01*
X149731128Y-108217857D01*
X149731127Y-108217856D01*
X149731126Y-108217855D01*
X149610057Y-108140049D01*
X149610054Y-108140047D01*
X149610053Y-108140047D01*
X149604250Y-108138343D01*
X149471964Y-108099500D01*
X149471961Y-108099500D01*
X149328039Y-108099500D01*
X149328035Y-108099500D01*
X149189949Y-108140046D01*
X149189942Y-108140049D01*
X149068873Y-108217855D01*
X148974622Y-108326628D01*
X148914834Y-108457543D01*
X148894353Y-108599997D01*
X148894353Y-108600002D01*
X143166390Y-108600002D01*
X143486896Y-108279496D01*
X143541414Y-108251719D01*
X143556901Y-108250500D01*
X144101204Y-108250500D01*
X144159395Y-108269407D01*
X144189414Y-108304555D01*
X144200660Y-108326628D01*
X144201472Y-108328220D01*
X144296780Y-108423528D01*
X144296782Y-108423529D01*
X144416867Y-108484716D01*
X144416869Y-108484716D01*
X144416874Y-108484719D01*
X144492541Y-108496703D01*
X144516510Y-108500500D01*
X144516512Y-108500500D01*
X145083490Y-108500500D01*
X145104885Y-108497111D01*
X145183126Y-108484719D01*
X145303220Y-108423528D01*
X145397253Y-108329494D01*
X145451768Y-108301719D01*
X145467255Y-108300500D01*
X145621913Y-108300500D01*
X145627459Y-108300811D01*
X145667035Y-108305270D01*
X145725479Y-108294211D01*
X145784287Y-108285348D01*
X145784294Y-108285344D01*
X145791381Y-108283159D01*
X145791512Y-108283584D01*
X145793613Y-108282892D01*
X145793467Y-108282473D01*
X145800464Y-108280024D01*
X145800472Y-108280023D01*
X145820558Y-108269407D01*
X145853072Y-108252223D01*
X145879856Y-108239323D01*
X145906642Y-108226425D01*
X145906646Y-108226421D01*
X145912778Y-108222242D01*
X145913028Y-108222609D01*
X145914832Y-108221329D01*
X145914568Y-108220971D01*
X145920529Y-108216570D01*
X145920538Y-108216566D01*
X145962599Y-108174504D01*
X146006194Y-108134055D01*
X146006198Y-108134047D01*
X146010820Y-108128253D01*
X146011166Y-108128529D01*
X146019708Y-108117395D01*
X146307608Y-107829496D01*
X146362124Y-107801719D01*
X146377611Y-107800500D01*
X146930249Y-107800500D01*
X146958803Y-107795976D01*
X147028420Y-107784951D01*
X147146751Y-107724658D01*
X147240658Y-107630751D01*
X147300951Y-107512420D01*
X147313160Y-107435328D01*
X147316500Y-107414248D01*
X147316500Y-106910753D01*
X147311499Y-106879180D01*
X147307975Y-106856931D01*
X147317546Y-106796503D01*
X147360809Y-106753237D01*
X147421241Y-106743665D01*
X147475758Y-106771441D01*
X147475760Y-106771442D01*
X147495504Y-106791186D01*
X147523281Y-106845703D01*
X147524500Y-106861190D01*
X147524500Y-106933489D01*
X147528148Y-106956519D01*
X147539514Y-107028286D01*
X147540281Y-107033125D01*
X147540283Y-107033132D01*
X147601470Y-107153217D01*
X147601472Y-107153220D01*
X147696780Y-107248528D01*
X147696782Y-107248529D01*
X147816867Y-107309716D01*
X147816869Y-107309716D01*
X147816874Y-107309719D01*
X147892541Y-107321703D01*
X147916510Y-107325500D01*
X147916512Y-107325500D01*
X148483490Y-107325500D01*
X148507114Y-107321758D01*
X148583126Y-107309719D01*
X148703220Y-107248528D01*
X148798528Y-107153220D01*
X148857492Y-107037495D01*
X148900756Y-106994232D01*
X148961188Y-106984661D01*
X149015705Y-107012438D01*
X149034931Y-107043811D01*
X149035816Y-107043361D01*
X149088825Y-107147396D01*
X149096950Y-107163342D01*
X149186658Y-107253050D01*
X149299696Y-107310646D01*
X149299698Y-107310646D01*
X149304600Y-107313144D01*
X149347865Y-107356409D01*
X149357894Y-107389104D01*
X149359425Y-107401388D01*
X149361527Y-107408448D01*
X149363907Y-107415380D01*
X149388295Y-107460444D01*
X149410801Y-107506482D01*
X149415078Y-107512472D01*
X149419579Y-107518255D01*
X149457275Y-107552958D01*
X152219199Y-110314881D01*
X152232074Y-110330737D01*
X152238563Y-110340669D01*
X152265110Y-110361332D01*
X152269708Y-110365392D01*
X152272690Y-110368373D01*
X152272693Y-110368375D01*
X152290438Y-110381044D01*
X152330874Y-110412517D01*
X152330878Y-110412518D01*
X152337354Y-110416022D01*
X152343934Y-110419240D01*
X152393045Y-110433861D01*
X152441512Y-110450500D01*
X152441516Y-110450500D01*
X152448736Y-110451705D01*
X152456039Y-110452615D01*
X152456046Y-110452617D01*
X152507231Y-110450500D01*
X159529811Y-110450500D01*
X159588002Y-110469407D01*
X159599814Y-110479496D01*
X159618848Y-110498529D01*
X159634517Y-110514198D01*
X159663335Y-110528286D01*
X159739604Y-110565572D01*
X159739605Y-110565572D01*
X159739607Y-110565573D01*
X159807740Y-110575500D01*
X159807743Y-110575500D01*
X161274257Y-110575500D01*
X161274260Y-110575500D01*
X161342393Y-110565573D01*
X161447483Y-110514198D01*
X161507186Y-110454494D01*
X161561701Y-110426719D01*
X161577188Y-110425500D01*
X161944030Y-110425500D01*
X162002221Y-110444407D01*
X162022570Y-110464231D01*
X162071718Y-110528282D01*
X162197159Y-110624536D01*
X162343238Y-110685044D01*
X162460809Y-110700522D01*
X162499999Y-110705682D01*
X162500000Y-110705682D01*
X162500001Y-110705682D01*
X162531352Y-110701554D01*
X162656762Y-110685044D01*
X162802841Y-110624536D01*
X162928282Y-110528282D01*
X163024536Y-110402841D01*
X163085044Y-110256762D01*
X163105682Y-110100000D01*
X163085044Y-109943238D01*
X163024537Y-109797161D01*
X163024537Y-109797160D01*
X162928286Y-109671723D01*
X162928284Y-109671721D01*
X162928282Y-109671718D01*
X162928277Y-109671714D01*
X162928276Y-109671713D01*
X162802838Y-109575462D01*
X162656766Y-109514957D01*
X162656758Y-109514955D01*
X162500001Y-109494318D01*
X162499999Y-109494318D01*
X162343241Y-109514955D01*
X162343233Y-109514957D01*
X162197161Y-109575462D01*
X162197160Y-109575462D01*
X162071723Y-109671713D01*
X162071715Y-109671721D01*
X162060939Y-109685766D01*
X162010515Y-109720423D01*
X161982396Y-109724500D01*
X161577188Y-109724500D01*
X161518997Y-109705593D01*
X161507190Y-109695509D01*
X161447483Y-109635802D01*
X161447481Y-109635801D01*
X161342395Y-109584427D01*
X161315139Y-109580456D01*
X161274260Y-109574500D01*
X159807740Y-109574500D01*
X159773673Y-109579463D01*
X159739604Y-109584427D01*
X159634518Y-109635801D01*
X159634517Y-109635801D01*
X159634517Y-109635802D01*
X159551802Y-109718517D01*
X159551801Y-109718518D01*
X159549816Y-109720504D01*
X159495299Y-109748281D01*
X159479812Y-109749500D01*
X152686190Y-109749500D01*
X152627999Y-109730593D01*
X152616186Y-109720504D01*
X150251040Y-107355358D01*
X150223263Y-107300841D01*
X150230282Y-107256520D01*
X153024500Y-107256520D01*
X153024501Y-107256523D01*
X153039352Y-107350299D01*
X153039354Y-107350304D01*
X153096950Y-107463342D01*
X153186658Y-107553050D01*
X153299696Y-107610646D01*
X153393481Y-107625500D01*
X154006518Y-107625499D01*
X154006520Y-107625499D01*
X154006521Y-107625498D01*
X154053411Y-107618072D01*
X154100299Y-107610647D01*
X154100299Y-107610646D01*
X154100304Y-107610646D01*
X154213342Y-107553050D01*
X154286897Y-107479494D01*
X154341412Y-107451719D01*
X154356899Y-107450500D01*
X154663213Y-107450500D01*
X154721404Y-107469407D01*
X154741754Y-107489232D01*
X154771718Y-107528282D01*
X154897159Y-107624536D01*
X154897160Y-107624536D01*
X154897161Y-107624537D01*
X154899486Y-107625500D01*
X155043238Y-107685044D01*
X155160809Y-107700522D01*
X155199999Y-107705682D01*
X155200000Y-107705682D01*
X155200001Y-107705682D01*
X155231352Y-107701554D01*
X155356762Y-107685044D01*
X155502841Y-107624536D01*
X155628282Y-107528282D01*
X155724536Y-107402841D01*
X155785044Y-107256762D01*
X155805682Y-107100000D01*
X155785044Y-106943238D01*
X155785042Y-106943233D01*
X155724537Y-106797161D01*
X155724536Y-106797160D01*
X155724536Y-106797159D01*
X155628282Y-106671718D01*
X155628281Y-106671717D01*
X155624343Y-106666585D01*
X155603919Y-106608909D01*
X155621297Y-106550244D01*
X155669838Y-106512996D01*
X155677000Y-106511177D01*
X155682969Y-106509237D01*
X155802921Y-106448118D01*
X155898118Y-106352921D01*
X155959237Y-106232969D01*
X155975000Y-106133453D01*
X155975000Y-106129001D01*
X155974999Y-106129000D01*
X154625002Y-106129000D01*
X154625001Y-106129001D01*
X154625001Y-106133453D01*
X154625000Y-106133453D01*
X154640760Y-106232965D01*
X154640762Y-106232969D01*
X154701881Y-106352921D01*
X154797077Y-106448117D01*
X154817153Y-106458347D01*
X154860417Y-106501613D01*
X154869987Y-106562045D01*
X154842208Y-106616561D01*
X154832474Y-106625097D01*
X154771724Y-106671712D01*
X154771714Y-106671722D01*
X154741755Y-106710767D01*
X154691331Y-106745423D01*
X154663213Y-106749500D01*
X154446690Y-106749500D01*
X154388499Y-106730593D01*
X154358481Y-106695446D01*
X154318286Y-106616561D01*
X154303050Y-106586658D01*
X154213342Y-106496950D01*
X154100304Y-106439354D01*
X154100305Y-106439354D01*
X154006522Y-106424500D01*
X153393479Y-106424500D01*
X153393476Y-106424501D01*
X153299700Y-106439352D01*
X153299695Y-106439354D01*
X153186659Y-106496949D01*
X153096949Y-106586659D01*
X153039354Y-106699695D01*
X153024500Y-106793477D01*
X153024500Y-107256520D01*
X150230282Y-107256520D01*
X150232834Y-107240409D01*
X150251038Y-107215353D01*
X150303050Y-107163342D01*
X150360646Y-107050304D01*
X150375500Y-106956519D01*
X150375499Y-106493482D01*
X150368315Y-106448118D01*
X150360647Y-106399700D01*
X150360646Y-106399698D01*
X150360646Y-106399696D01*
X150303050Y-106286658D01*
X150213342Y-106196950D01*
X150100304Y-106139354D01*
X150100305Y-106139354D01*
X150006522Y-106124500D01*
X149393479Y-106124500D01*
X149393476Y-106124501D01*
X149299700Y-106139352D01*
X149299695Y-106139354D01*
X149186659Y-106196949D01*
X149096949Y-106286659D01*
X149050649Y-106377526D01*
X149007384Y-106420790D01*
X148946952Y-106430361D01*
X148892435Y-106402583D01*
X148864659Y-106348066D01*
X148859719Y-106316875D01*
X148859716Y-106316867D01*
X148798529Y-106196782D01*
X148798528Y-106196780D01*
X148703220Y-106101472D01*
X148703217Y-106101470D01*
X148583132Y-106040283D01*
X148583127Y-106040281D01*
X148583126Y-106040281D01*
X148546765Y-106034522D01*
X148483490Y-106024500D01*
X148483488Y-106024500D01*
X147916512Y-106024500D01*
X147916510Y-106024500D01*
X147816870Y-106040281D01*
X147813496Y-106041378D01*
X147809952Y-106041377D01*
X147809180Y-106041500D01*
X147809160Y-106041377D01*
X147752311Y-106041373D01*
X147712907Y-106017225D01*
X147278278Y-105582596D01*
X147250501Y-105528079D01*
X147260071Y-105467650D01*
X147300951Y-105387420D01*
X147301579Y-105383453D01*
X147525000Y-105383453D01*
X147540760Y-105482965D01*
X147540762Y-105482969D01*
X147601881Y-105602921D01*
X147697078Y-105698118D01*
X147817030Y-105759237D01*
X147817029Y-105759237D01*
X147916546Y-105774999D01*
X147946000Y-105774999D01*
X147946000Y-105379001D01*
X147945999Y-105379000D01*
X147525001Y-105379000D01*
X147525001Y-105383453D01*
X147525000Y-105383453D01*
X147301579Y-105383453D01*
X147316500Y-105289246D01*
X147316500Y-104870999D01*
X147525000Y-104870999D01*
X147525001Y-104871000D01*
X147945999Y-104871000D01*
X147946000Y-104870998D01*
X147946000Y-104475000D01*
X147916547Y-104475000D01*
X147916544Y-104475001D01*
X147817034Y-104490760D01*
X147817030Y-104490762D01*
X147697078Y-104551881D01*
X147601881Y-104647078D01*
X147540762Y-104767030D01*
X147525000Y-104866546D01*
X147525000Y-104870999D01*
X147316500Y-104870999D01*
X147316500Y-104785754D01*
X147313534Y-104767030D01*
X147307397Y-104728282D01*
X147300951Y-104687580D01*
X147240658Y-104569249D01*
X147146751Y-104475342D01*
X147103056Y-104453078D01*
X147028423Y-104415050D01*
X147028420Y-104415049D01*
X147000010Y-104410549D01*
X146945495Y-104382770D01*
X146917718Y-104328252D01*
X146916500Y-104312768D01*
X146916500Y-103397071D01*
X146935407Y-103338880D01*
X146942715Y-103330324D01*
X146968162Y-103297161D01*
X147040536Y-103202841D01*
X147101044Y-103056762D01*
X147121682Y-102900000D01*
X147101044Y-102743238D01*
X147090789Y-102718481D01*
X147040537Y-102597161D01*
X147040537Y-102597160D01*
X146944286Y-102471723D01*
X146944285Y-102471722D01*
X146944282Y-102471718D01*
X146944277Y-102471714D01*
X146944276Y-102471713D01*
X146818838Y-102375462D01*
X146672766Y-102314957D01*
X146672758Y-102314955D01*
X146516001Y-102294318D01*
X146515999Y-102294318D01*
X146475833Y-102299606D01*
X146359238Y-102314956D01*
X146359237Y-102314956D01*
X146350732Y-102316076D01*
X146344264Y-102316500D01*
X144220700Y-102316500D01*
X144162509Y-102297593D01*
X144126545Y-102248093D01*
X144121700Y-102217500D01*
X144121700Y-101897253D01*
X144121700Y-101897252D01*
X144110067Y-101838769D01*
X144110066Y-101838767D01*
X144109578Y-101836314D01*
X144109579Y-101797684D01*
X144121698Y-101736758D01*
X144121700Y-101736746D01*
X144121700Y-101397253D01*
X144121698Y-101397241D01*
X144109579Y-101336315D01*
X144109579Y-101297685D01*
X144121698Y-101236758D01*
X144121700Y-101236746D01*
X144121700Y-101016500D01*
X144140607Y-100958309D01*
X144190107Y-100922345D01*
X144220700Y-100917500D01*
X144299709Y-100917500D01*
X144357900Y-100936407D01*
X144391173Y-100978614D01*
X144446576Y-101112370D01*
X144449464Y-101119341D01*
X144451034Y-101121387D01*
X144539551Y-101236746D01*
X144545718Y-101244782D01*
X144671159Y-101341036D01*
X144671160Y-101341036D01*
X144671161Y-101341037D01*
X144817233Y-101401542D01*
X144817238Y-101401544D01*
X144934809Y-101417022D01*
X144973999Y-101422182D01*
X144974000Y-101422182D01*
X144974001Y-101422182D01*
X145005352Y-101418054D01*
X145130762Y-101401544D01*
X145276841Y-101341036D01*
X145402282Y-101244782D01*
X145478523Y-101145421D01*
X145528944Y-101110769D01*
X145590108Y-101112370D01*
X145621355Y-101130410D01*
X145688207Y-101187504D01*
X145711482Y-101207381D01*
X145714335Y-101210018D01*
X145720815Y-101216497D01*
X145720818Y-101216500D01*
X145811977Y-101307669D01*
X145816672Y-101312365D01*
X145839685Y-101335380D01*
X145839688Y-101335382D01*
X145840961Y-101336655D01*
X145841282Y-101336950D01*
X145876657Y-101372331D01*
X145945261Y-101422182D01*
X146011366Y-101470218D01*
X146041923Y-101512282D01*
X146043551Y-101511487D01*
X146046926Y-101518392D01*
X146046927Y-101518393D01*
X146098302Y-101623483D01*
X146181017Y-101706198D01*
X146208933Y-101719845D01*
X146286104Y-101757572D01*
X146286105Y-101757572D01*
X146286107Y-101757573D01*
X146354240Y-101767500D01*
X146354243Y-101767500D01*
X147445757Y-101767500D01*
X147445760Y-101767500D01*
X147513893Y-101757573D01*
X147618983Y-101706198D01*
X147701698Y-101623483D01*
X147753073Y-101518393D01*
X147763000Y-101450260D01*
X147763000Y-101083740D01*
X147753073Y-101015607D01*
X147745687Y-101000499D01*
X147706584Y-100920512D01*
X147701698Y-100910517D01*
X147653182Y-100862001D01*
X147625407Y-100807487D01*
X147634978Y-100747055D01*
X147653181Y-100721999D01*
X147701698Y-100673483D01*
X147753073Y-100568393D01*
X147763000Y-100500260D01*
X147763000Y-100133740D01*
X147753073Y-100065607D01*
X147750947Y-100061259D01*
X147719612Y-99997161D01*
X147701698Y-99960517D01*
X147653182Y-99912001D01*
X147625407Y-99857487D01*
X147634978Y-99797055D01*
X147653181Y-99771999D01*
X147701698Y-99723483D01*
X147753073Y-99618393D01*
X147763000Y-99550260D01*
X147763000Y-99183740D01*
X147753073Y-99115607D01*
X147744055Y-99097161D01*
X147721561Y-99051147D01*
X147701698Y-99010517D01*
X147618983Y-98927802D01*
X147618981Y-98927801D01*
X147513895Y-98876427D01*
X147486639Y-98872456D01*
X147445760Y-98866500D01*
X146354240Y-98866500D01*
X146320173Y-98871463D01*
X146286104Y-98876427D01*
X146181018Y-98927801D01*
X146098301Y-99010518D01*
X146095377Y-99016500D01*
X146046927Y-99115607D01*
X146046926Y-99115608D01*
X146043551Y-99122514D01*
X146041057Y-99121295D01*
X146013106Y-99160921D01*
X145998751Y-99169858D01*
X145954047Y-99192639D01*
X145941286Y-99201911D01*
X145799063Y-99305250D01*
X145799059Y-99305253D01*
X145799056Y-99305256D01*
X145761697Y-99342618D01*
X145707182Y-99370398D01*
X145646749Y-99360828D01*
X145603483Y-99317565D01*
X145593538Y-99285539D01*
X145592216Y-99275500D01*
X145576234Y-99154101D01*
X145569731Y-99138401D01*
X145515727Y-99008024D01*
X145515727Y-99008023D01*
X145419476Y-98882586D01*
X145419475Y-98882585D01*
X145419472Y-98882581D01*
X145419467Y-98882577D01*
X145419466Y-98882576D01*
X145331340Y-98814955D01*
X145294031Y-98786327D01*
X145294030Y-98786326D01*
X145294028Y-98786325D01*
X145147956Y-98725820D01*
X145147948Y-98725818D01*
X144991191Y-98705181D01*
X144991189Y-98705181D01*
X144834431Y-98725818D01*
X144834423Y-98725820D01*
X144688351Y-98786325D01*
X144688350Y-98786325D01*
X144562913Y-98882576D01*
X144562903Y-98882586D01*
X144466652Y-99008023D01*
X144466652Y-99008024D01*
X144405614Y-99155385D01*
X144365878Y-99201911D01*
X144314150Y-99216500D01*
X144220700Y-99216500D01*
X144162509Y-99197593D01*
X144126545Y-99148093D01*
X144121700Y-99117500D01*
X144121700Y-98897253D01*
X144121700Y-98897252D01*
X144110067Y-98838769D01*
X144110066Y-98838767D01*
X144109578Y-98836314D01*
X144109579Y-98797684D01*
X144111839Y-98786325D01*
X144121700Y-98736748D01*
X144121700Y-98416500D01*
X144140607Y-98358309D01*
X144190107Y-98322345D01*
X144220700Y-98317500D01*
X146002929Y-98317500D01*
X146061120Y-98336407D01*
X146069687Y-98343723D01*
X146071716Y-98345280D01*
X146071718Y-98345282D01*
X146197159Y-98441536D01*
X146197160Y-98441536D01*
X146197161Y-98441537D01*
X146233927Y-98456766D01*
X146343238Y-98502044D01*
X146460809Y-98517522D01*
X146499999Y-98522682D01*
X146500000Y-98522682D01*
X146500001Y-98522682D01*
X146531352Y-98518554D01*
X146656762Y-98502044D01*
X146802841Y-98441536D01*
X146928282Y-98345282D01*
X147024536Y-98219841D01*
X147085044Y-98073762D01*
X147085046Y-98073744D01*
X147086014Y-98070137D01*
X147111636Y-98025755D01*
X149328937Y-95808453D01*
X150825000Y-95808453D01*
X150840760Y-95907965D01*
X150840762Y-95907969D01*
X150901881Y-96027921D01*
X150997078Y-96123118D01*
X151117030Y-96184237D01*
X151117029Y-96184237D01*
X151216546Y-96199999D01*
X151246000Y-96199999D01*
X151246000Y-95804001D01*
X151245999Y-95804000D01*
X150825001Y-95804000D01*
X150825001Y-95808453D01*
X150825000Y-95808453D01*
X149328937Y-95808453D01*
X149841392Y-95295998D01*
X150825000Y-95295998D01*
X150825001Y-95296000D01*
X151245999Y-95296000D01*
X151246000Y-95295998D01*
X151246000Y-94900000D01*
X151216547Y-94900000D01*
X151216544Y-94900001D01*
X151117034Y-94915760D01*
X151117030Y-94915762D01*
X150997078Y-94976881D01*
X150901881Y-95072078D01*
X150840762Y-95192030D01*
X150825000Y-95291546D01*
X150825000Y-95295998D01*
X149841392Y-95295998D01*
X150632896Y-94504494D01*
X150687413Y-94476718D01*
X150702900Y-94475499D01*
X151002521Y-94475499D01*
X151002522Y-94475498D01*
X151054314Y-94467296D01*
X151096299Y-94460647D01*
X151096299Y-94460646D01*
X151096304Y-94460646D01*
X151209342Y-94403050D01*
X151299050Y-94313342D01*
X151356646Y-94200304D01*
X151371500Y-94106519D01*
X151371499Y-93493482D01*
X151371498Y-93493478D01*
X151371498Y-93493476D01*
X151356647Y-93399700D01*
X151356646Y-93399698D01*
X151356646Y-93399696D01*
X151299050Y-93286658D01*
X151209342Y-93196950D01*
X151096304Y-93139354D01*
X151096305Y-93139354D01*
X151002522Y-93124500D01*
X150539479Y-93124500D01*
X150539476Y-93124501D01*
X150445700Y-93139352D01*
X150445695Y-93139354D01*
X150332659Y-93196949D01*
X150242949Y-93286659D01*
X150185354Y-93399695D01*
X150170500Y-93493478D01*
X150170500Y-93793098D01*
X150151593Y-93851289D01*
X150141504Y-93863102D01*
X146705323Y-97299282D01*
X146650806Y-97327059D01*
X146622397Y-97327431D01*
X146500001Y-97311318D01*
X146499999Y-97311318D01*
X146343241Y-97331955D01*
X146343233Y-97331957D01*
X146197161Y-97392462D01*
X146197160Y-97392462D01*
X146066570Y-97492668D01*
X146065509Y-97491286D01*
X146018416Y-97515281D01*
X146002929Y-97516500D01*
X144220200Y-97516500D01*
X144162009Y-97497593D01*
X144126045Y-97448093D01*
X144121200Y-97417500D01*
X144121200Y-97371001D01*
X144121199Y-97371000D01*
X142677170Y-97371000D01*
X142618979Y-97352093D01*
X142584140Y-97305861D01*
X142566234Y-97256662D01*
X142548720Y-97235790D01*
X142490183Y-97166028D01*
X142490182Y-97166027D01*
X142387718Y-97106869D01*
X142387717Y-97106868D01*
X142387716Y-97106868D01*
X142300559Y-97091500D01*
X142300555Y-97091500D01*
X142241845Y-97091500D01*
X142241840Y-97091500D01*
X142154683Y-97106868D01*
X142052216Y-97166028D01*
X141976168Y-97256658D01*
X141976167Y-97256660D01*
X141976166Y-97256661D01*
X141976166Y-97256662D01*
X141935700Y-97367842D01*
X141935700Y-97486158D01*
X141976166Y-97597338D01*
X141976167Y-97597339D01*
X141976168Y-97597341D01*
X142040097Y-97673528D01*
X142052218Y-97687973D01*
X142154682Y-97747131D01*
X142241845Y-97762500D01*
X142241846Y-97762500D01*
X142300554Y-97762500D01*
X142300555Y-97762500D01*
X142387718Y-97747131D01*
X142413830Y-97732055D01*
X142422200Y-97727223D01*
X142482048Y-97714501D01*
X142537944Y-97739388D01*
X142568537Y-97792376D01*
X142570700Y-97812959D01*
X142570700Y-98117500D01*
X142551793Y-98175691D01*
X142502293Y-98211655D01*
X142471700Y-98216500D01*
X141636190Y-98216500D01*
X141577999Y-98197593D01*
X141566186Y-98187504D01*
X141279496Y-97900814D01*
X141251719Y-97846297D01*
X141250500Y-97830810D01*
X141250500Y-96039442D01*
X141517499Y-96039442D01*
X141546927Y-96206342D01*
X141614057Y-96361968D01*
X141715263Y-96497911D01*
X141715265Y-96497913D01*
X141824811Y-96589834D01*
X142088650Y-96325996D01*
X142143167Y-96298219D01*
X142158654Y-96297000D01*
X142585746Y-96297000D01*
X142643937Y-96315907D01*
X142679901Y-96365407D01*
X142679901Y-96426593D01*
X142655750Y-96466004D01*
X142399754Y-96722000D01*
X142472200Y-96722000D01*
X142530391Y-96740907D01*
X142566355Y-96790407D01*
X142571200Y-96821000D01*
X142571200Y-96862998D01*
X142571201Y-96863000D01*
X143092199Y-96863000D01*
X143092200Y-96862998D01*
X143092200Y-96671554D01*
X142886650Y-96466004D01*
X142858873Y-96411487D01*
X142868444Y-96351055D01*
X142911709Y-96307790D01*
X142956654Y-96297000D01*
X143349001Y-96297000D01*
X143349002Y-96297000D01*
X143361523Y-96294659D01*
X143422195Y-96302548D01*
X143449721Y-96321968D01*
X143697972Y-96570219D01*
X143697979Y-96570225D01*
X143720750Y-96592996D01*
X143748527Y-96647513D01*
X143738956Y-96707945D01*
X143695691Y-96751210D01*
X143650746Y-96762000D01*
X143600201Y-96762000D01*
X143600200Y-96762001D01*
X143600200Y-96862999D01*
X143600201Y-96863000D01*
X144121199Y-96863000D01*
X144121200Y-96862999D01*
X144121200Y-96797302D01*
X144121199Y-96797299D01*
X144109596Y-96738963D01*
X144065393Y-96672810D01*
X144065389Y-96672806D01*
X143999236Y-96628603D01*
X143940900Y-96617000D01*
X143937506Y-96617000D01*
X143879315Y-96598093D01*
X143843351Y-96548593D01*
X143843351Y-96487407D01*
X143865497Y-96450061D01*
X143881697Y-96432889D01*
X143881698Y-96432889D01*
X143966438Y-96286113D01*
X144015046Y-96123755D01*
X144024900Y-95954557D01*
X143995472Y-95787657D01*
X143928342Y-95632031D01*
X143827136Y-95496088D01*
X143827134Y-95496086D01*
X143717587Y-95404164D01*
X143453748Y-95668004D01*
X143399231Y-95695781D01*
X143383744Y-95697000D01*
X142956653Y-95697000D01*
X142898462Y-95678093D01*
X142862498Y-95628593D01*
X142862498Y-95567407D01*
X142886650Y-95527996D01*
X143142647Y-95272000D01*
X142399753Y-95272000D01*
X142655750Y-95527996D01*
X142683528Y-95582513D01*
X142673957Y-95642945D01*
X142630692Y-95686210D01*
X142585747Y-95697000D01*
X142193398Y-95697000D01*
X142180869Y-95699341D01*
X142120197Y-95691448D01*
X142092679Y-95672031D01*
X141826155Y-95405508D01*
X141777007Y-95437835D01*
X141660702Y-95561110D01*
X141660701Y-95561110D01*
X141575961Y-95707886D01*
X141527353Y-95870244D01*
X141517499Y-96039442D01*
X141250500Y-96039442D01*
X141250500Y-94448189D01*
X141269407Y-94389998D01*
X141279490Y-94378191D01*
X141810186Y-93847494D01*
X141864703Y-93819718D01*
X141880190Y-93818499D01*
X142250521Y-93818499D01*
X142250522Y-93818498D01*
X142297411Y-93811072D01*
X142344299Y-93803647D01*
X142344299Y-93803646D01*
X142344304Y-93803646D01*
X142457342Y-93746050D01*
X142547050Y-93656342D01*
X142604646Y-93543304D01*
X142619341Y-93450520D01*
X144062500Y-93450520D01*
X144062501Y-93450523D01*
X144077352Y-93544299D01*
X144077354Y-93544304D01*
X144134950Y-93657342D01*
X144224658Y-93747050D01*
X144333447Y-93802481D01*
X144376710Y-93845744D01*
X144387500Y-93890689D01*
X144387500Y-94591381D01*
X144385393Y-94611696D01*
X144382957Y-94623313D01*
X144387120Y-94656709D01*
X144387500Y-94662837D01*
X144387500Y-94667038D01*
X144391087Y-94688541D01*
X144397425Y-94739388D01*
X144399527Y-94746448D01*
X144401907Y-94753380D01*
X144426295Y-94798444D01*
X144448801Y-94844482D01*
X144453078Y-94850472D01*
X144457579Y-94856255D01*
X144495275Y-94890958D01*
X145622593Y-96018274D01*
X145650370Y-96072791D01*
X145650742Y-96101199D01*
X145644318Y-96149997D01*
X145644318Y-96150000D01*
X145664955Y-96306758D01*
X145664957Y-96306766D01*
X145725462Y-96452838D01*
X145725462Y-96452839D01*
X145817474Y-96572751D01*
X145821718Y-96578282D01*
X145947159Y-96674536D01*
X145947160Y-96674536D01*
X145947161Y-96674537D01*
X146027815Y-96707945D01*
X146093238Y-96735044D01*
X146210809Y-96750522D01*
X146249999Y-96755682D01*
X146250000Y-96755682D01*
X146250001Y-96755682D01*
X146283968Y-96751210D01*
X146406762Y-96735044D01*
X146552841Y-96674536D01*
X146678282Y-96578282D01*
X146774536Y-96452841D01*
X146835044Y-96306762D01*
X146855682Y-96150000D01*
X146835044Y-95993238D01*
X146835042Y-95993233D01*
X146774537Y-95847161D01*
X146774537Y-95847160D01*
X146678286Y-95721723D01*
X146678285Y-95721722D01*
X146678282Y-95721718D01*
X146678277Y-95721714D01*
X146678276Y-95721713D01*
X146561399Y-95632031D01*
X146552841Y-95625464D01*
X146552840Y-95625463D01*
X146552838Y-95625462D01*
X146406766Y-95564957D01*
X146406758Y-95564955D01*
X146250001Y-95544318D01*
X146249996Y-95544318D01*
X146201198Y-95550741D01*
X146141038Y-95539590D01*
X146118275Y-95522592D01*
X145117496Y-94521813D01*
X145089719Y-94467296D01*
X145088500Y-94451809D01*
X145088500Y-93890689D01*
X145107407Y-93832498D01*
X145142552Y-93802481D01*
X145251342Y-93747050D01*
X145341050Y-93657342D01*
X145398646Y-93544304D01*
X145413500Y-93450519D01*
X145413500Y-93449520D01*
X146729500Y-93449520D01*
X146729501Y-93449523D01*
X146744352Y-93543299D01*
X146744354Y-93543304D01*
X146801950Y-93656342D01*
X146891658Y-93746050D01*
X147004696Y-93803646D01*
X147098481Y-93818500D01*
X147711518Y-93818499D01*
X147711520Y-93818499D01*
X147711521Y-93818498D01*
X147758410Y-93811072D01*
X147805299Y-93803647D01*
X147805301Y-93803647D01*
X147805302Y-93803646D01*
X147805304Y-93803646D01*
X147871983Y-93769670D01*
X147932412Y-93760099D01*
X147954806Y-93766414D01*
X148043238Y-93803044D01*
X148160623Y-93818498D01*
X148199999Y-93823682D01*
X148200000Y-93823682D01*
X148200001Y-93823682D01*
X148239369Y-93818499D01*
X148356762Y-93803044D01*
X148502841Y-93742536D01*
X148628282Y-93646282D01*
X148724536Y-93520841D01*
X148785044Y-93374762D01*
X148805682Y-93218000D01*
X148785044Y-93061238D01*
X148724537Y-92915161D01*
X148724537Y-92915160D01*
X148628286Y-92789723D01*
X148628285Y-92789722D01*
X148628282Y-92789718D01*
X148628277Y-92789714D01*
X148628276Y-92789713D01*
X148532656Y-92716342D01*
X148502841Y-92693464D01*
X148502840Y-92693463D01*
X148502838Y-92693462D01*
X148356766Y-92632957D01*
X148356758Y-92632955D01*
X148200001Y-92612318D01*
X148199999Y-92612318D01*
X148043241Y-92632955D01*
X148043232Y-92632957D01*
X147954812Y-92669582D01*
X147893815Y-92674382D01*
X147871982Y-92666328D01*
X147805304Y-92632354D01*
X147711520Y-92617500D01*
X147098479Y-92617500D01*
X147098476Y-92617501D01*
X147004700Y-92632352D01*
X147004695Y-92632354D01*
X146891659Y-92689949D01*
X146801949Y-92779659D01*
X146744354Y-92892695D01*
X146729500Y-92986477D01*
X146729500Y-93449520D01*
X145413500Y-93449520D01*
X145413499Y-92987482D01*
X145411722Y-92976263D01*
X145398647Y-92893700D01*
X145398646Y-92893698D01*
X145398646Y-92893696D01*
X145341050Y-92780658D01*
X145251342Y-92690950D01*
X145138304Y-92633354D01*
X145138305Y-92633354D01*
X145044522Y-92618500D01*
X144431479Y-92618500D01*
X144431476Y-92618501D01*
X144337700Y-92633352D01*
X144337695Y-92633354D01*
X144224659Y-92690949D01*
X144134949Y-92780659D01*
X144077354Y-92893695D01*
X144062500Y-92987477D01*
X144062500Y-93450520D01*
X142619341Y-93450520D01*
X142619500Y-93449519D01*
X142619499Y-92986482D01*
X142619498Y-92986478D01*
X142619498Y-92986476D01*
X142604647Y-92892700D01*
X142604646Y-92892698D01*
X142604646Y-92892696D01*
X142547050Y-92779658D01*
X142457342Y-92689950D01*
X142344304Y-92632354D01*
X142344305Y-92632354D01*
X142250522Y-92617500D01*
X141637479Y-92617500D01*
X141637476Y-92617501D01*
X141543700Y-92632352D01*
X141543695Y-92632354D01*
X141430659Y-92689949D01*
X141340949Y-92779659D01*
X141283354Y-92892695D01*
X141268500Y-92986478D01*
X141268500Y-93356808D01*
X141249593Y-93414999D01*
X141239504Y-93426812D01*
X140685118Y-93981198D01*
X140669265Y-93994071D01*
X140659335Y-94000559D01*
X140659332Y-94000561D01*
X140638664Y-94027114D01*
X140634605Y-94031712D01*
X140631626Y-94034691D01*
X140631617Y-94034701D01*
X140630070Y-94036869D01*
X140629299Y-94037438D01*
X140628979Y-94037817D01*
X140628889Y-94037741D01*
X140580869Y-94073241D01*
X140519686Y-94073746D01*
X140469891Y-94038192D01*
X140450503Y-93980160D01*
X140450500Y-93979342D01*
X140450500Y-93707613D01*
X140452607Y-93687297D01*
X140455042Y-93675685D01*
X140450879Y-93642294D01*
X140450500Y-93636168D01*
X140450500Y-93631954D01*
X140446911Y-93610450D01*
X140443237Y-93580982D01*
X140446075Y-93551262D01*
X140444427Y-93551001D01*
X140448618Y-93524537D01*
X140460500Y-93449519D01*
X140460499Y-92986482D01*
X140460498Y-92986478D01*
X140460498Y-92986476D01*
X140445647Y-92892700D01*
X140445646Y-92892698D01*
X140445646Y-92892696D01*
X140388050Y-92779658D01*
X140298342Y-92689950D01*
X140185304Y-92632354D01*
X140185305Y-92632354D01*
X140091522Y-92617500D01*
X139478479Y-92617500D01*
X139478476Y-92617501D01*
X139384700Y-92632352D01*
X139384695Y-92632354D01*
X139271659Y-92689949D01*
X139181949Y-92779659D01*
X139124354Y-92892695D01*
X139109500Y-92986477D01*
X139109500Y-93449520D01*
X139109501Y-93449523D01*
X139124352Y-93543299D01*
X139124354Y-93543304D01*
X139181950Y-93656342D01*
X139271658Y-93746050D01*
X139384696Y-93803646D01*
X139478481Y-93818500D01*
X139650500Y-93818499D01*
X139708690Y-93837406D01*
X139744654Y-93886906D01*
X139749500Y-93917499D01*
X139749500Y-95423413D01*
X139730593Y-95481604D01*
X139681093Y-95517568D01*
X139619907Y-95517568D01*
X139576399Y-95489064D01*
X139558797Y-95469196D01*
X139558794Y-95469194D01*
X139418893Y-95372628D01*
X139418890Y-95372626D01*
X139259958Y-95312351D01*
X139259948Y-95312348D01*
X139133551Y-95297000D01*
X138845200Y-95297000D01*
X138845200Y-95598000D01*
X138826293Y-95656191D01*
X138776793Y-95692155D01*
X138746200Y-95697000D01*
X138436200Y-95697000D01*
X138378009Y-95678093D01*
X138342045Y-95628593D01*
X138337200Y-95598000D01*
X138337200Y-95297001D01*
X138337199Y-95297000D01*
X138048848Y-95297000D01*
X137922451Y-95312348D01*
X137922441Y-95312351D01*
X137763509Y-95372626D01*
X137763506Y-95372628D01*
X137623605Y-95469194D01*
X137623599Y-95469199D01*
X137510881Y-95596430D01*
X137510881Y-95596431D01*
X137433956Y-95743000D01*
X136094500Y-95743000D01*
X136094500Y-92509485D01*
X150171001Y-92509485D01*
X150185833Y-92603141D01*
X150185836Y-92603151D01*
X150243358Y-92716043D01*
X150332956Y-92805641D01*
X150445848Y-92863163D01*
X150445853Y-92863165D01*
X150517000Y-92874432D01*
X150517000Y-92457001D01*
X150516999Y-92457000D01*
X151025000Y-92457000D01*
X151025000Y-92874431D01*
X151096146Y-92863165D01*
X151209044Y-92805640D01*
X151298641Y-92716043D01*
X151356163Y-92603151D01*
X151356164Y-92603147D01*
X151371000Y-92509484D01*
X151371000Y-92457001D01*
X151370999Y-92457000D01*
X151025000Y-92457000D01*
X150516999Y-92457000D01*
X150171002Y-92457000D01*
X150171001Y-92457001D01*
X150171001Y-92509485D01*
X136094500Y-92509485D01*
X136094500Y-91822000D01*
X139113567Y-91822000D01*
X139124834Y-91893146D01*
X139124836Y-91893151D01*
X139182358Y-92006043D01*
X139271956Y-92095641D01*
X139384848Y-92153163D01*
X139384852Y-92153164D01*
X139478516Y-92167999D01*
X139530999Y-92167998D01*
X139531000Y-92167998D01*
X139531000Y-91822001D01*
X139530999Y-91822000D01*
X140039000Y-91822000D01*
X140039000Y-92167998D01*
X140039001Y-92167999D01*
X140091483Y-92167999D01*
X140091485Y-92167998D01*
X140185141Y-92153166D01*
X140185151Y-92153163D01*
X140298043Y-92095641D01*
X140387641Y-92006043D01*
X140445163Y-91893151D01*
X140445165Y-91893146D01*
X140456433Y-91822000D01*
X141272567Y-91822000D01*
X141283834Y-91893146D01*
X141283836Y-91893151D01*
X141341358Y-92006043D01*
X141430956Y-92095641D01*
X141543848Y-92153163D01*
X141543852Y-92153164D01*
X141637516Y-92167999D01*
X141689999Y-92167998D01*
X141690000Y-92167998D01*
X141690000Y-91822001D01*
X141689999Y-91822000D01*
X142198000Y-91822000D01*
X142198000Y-92167998D01*
X142198001Y-92167999D01*
X142250483Y-92167999D01*
X142250485Y-92167998D01*
X142344141Y-92153166D01*
X142344151Y-92153163D01*
X142457043Y-92095641D01*
X142546641Y-92006043D01*
X142604163Y-91893151D01*
X142604165Y-91893146D01*
X142615433Y-91822000D01*
X142198000Y-91822000D01*
X141689999Y-91822000D01*
X141272567Y-91822000D01*
X140456433Y-91822000D01*
X140039000Y-91822000D01*
X139530999Y-91822000D01*
X139113567Y-91822000D01*
X136094500Y-91822000D01*
X136094500Y-91314000D01*
X139113567Y-91314000D01*
X139530999Y-91314000D01*
X139531000Y-91313999D01*
X139531000Y-90968000D01*
X140039000Y-90968000D01*
X140039000Y-91313999D01*
X140039001Y-91314000D01*
X140456432Y-91314000D01*
X141272567Y-91314000D01*
X141689999Y-91314000D01*
X141690000Y-91313999D01*
X142198000Y-91313999D01*
X142198001Y-91314000D01*
X142615432Y-91314000D01*
X142604165Y-91242853D01*
X142604163Y-91242848D01*
X142546641Y-91129956D01*
X142457043Y-91040358D01*
X142344151Y-90982836D01*
X142344147Y-90982835D01*
X142250484Y-90968000D01*
X142198001Y-90968000D01*
X142198000Y-90968001D01*
X142198000Y-91313999D01*
X141690000Y-91313999D01*
X141690000Y-90967999D01*
X141637518Y-90968000D01*
X141637513Y-90968001D01*
X141543858Y-90982833D01*
X141543848Y-90982836D01*
X141430956Y-91040358D01*
X141341358Y-91129956D01*
X141283836Y-91242848D01*
X141283834Y-91242853D01*
X141272567Y-91314000D01*
X140456432Y-91314000D01*
X140445165Y-91242853D01*
X140445163Y-91242848D01*
X140387641Y-91129956D01*
X140298043Y-91040358D01*
X140185151Y-90982836D01*
X140185147Y-90982835D01*
X140091484Y-90968000D01*
X140039000Y-90968000D01*
X139531000Y-90968000D01*
X139531000Y-90967999D01*
X139478518Y-90968000D01*
X139478513Y-90968001D01*
X139384858Y-90982833D01*
X139384848Y-90982836D01*
X139271956Y-91040358D01*
X139182358Y-91129956D01*
X139124836Y-91242848D01*
X139124834Y-91242853D01*
X139113567Y-91314000D01*
X136094500Y-91314000D01*
X136094500Y-89356248D01*
X139918500Y-89356248D01*
X139934049Y-89454419D01*
X139934050Y-89454423D01*
X139966187Y-89517494D01*
X139994342Y-89572751D01*
X140088249Y-89666658D01*
X140206580Y-89726951D01*
X140273130Y-89737491D01*
X140304751Y-89742500D01*
X140304754Y-89742500D01*
X140883249Y-89742500D01*
X140911803Y-89737976D01*
X140981420Y-89726951D01*
X141099751Y-89666658D01*
X141165361Y-89601047D01*
X141219876Y-89573272D01*
X141280308Y-89582843D01*
X141305367Y-89601049D01*
X143488199Y-91783881D01*
X143501074Y-91799737D01*
X143507563Y-91809669D01*
X143534110Y-91830332D01*
X143538708Y-91834392D01*
X143541690Y-91837373D01*
X143541693Y-91837375D01*
X143559438Y-91850044D01*
X143599874Y-91881517D01*
X143599878Y-91881518D01*
X143606354Y-91885022D01*
X143612934Y-91888240D01*
X143662045Y-91902861D01*
X143710512Y-91919500D01*
X143710516Y-91919500D01*
X143717736Y-91920705D01*
X143725039Y-91921615D01*
X143725046Y-91921617D01*
X143776231Y-91919500D01*
X144029525Y-91919500D01*
X144087716Y-91938407D01*
X144117734Y-91973554D01*
X144134950Y-92007342D01*
X144224658Y-92097050D01*
X144337696Y-92154646D01*
X144431481Y-92169500D01*
X145044518Y-92169499D01*
X145044520Y-92169499D01*
X145044521Y-92169498D01*
X145091411Y-92162072D01*
X145138299Y-92154647D01*
X145138299Y-92154646D01*
X145138304Y-92154646D01*
X145251342Y-92097050D01*
X145341050Y-92007342D01*
X145398646Y-91894304D01*
X145413500Y-91800519D01*
X145413499Y-91683686D01*
X145432406Y-91625498D01*
X145481906Y-91589534D01*
X145543091Y-91589533D01*
X145582503Y-91613684D01*
X145751697Y-91782878D01*
X145764572Y-91798734D01*
X145771062Y-91808668D01*
X145797610Y-91829331D01*
X145802209Y-91833391D01*
X145805189Y-91836371D01*
X145805192Y-91836373D01*
X145805194Y-91836375D01*
X145822930Y-91849038D01*
X145863374Y-91880517D01*
X145863380Y-91880519D01*
X145869854Y-91884022D01*
X145876434Y-91887240D01*
X145925545Y-91901861D01*
X145974012Y-91918500D01*
X145974016Y-91918500D01*
X145981233Y-91919705D01*
X145988539Y-91920615D01*
X145988546Y-91920617D01*
X146039742Y-91918500D01*
X146696525Y-91918500D01*
X146754716Y-91937407D01*
X146784734Y-91972554D01*
X146801950Y-92006342D01*
X146891658Y-92096050D01*
X147004696Y-92153646D01*
X147098481Y-92168500D01*
X147711518Y-92168499D01*
X147711520Y-92168499D01*
X147711521Y-92168498D01*
X147758410Y-92161072D01*
X147805299Y-92153647D01*
X147805299Y-92153646D01*
X147805304Y-92153646D01*
X147918342Y-92096050D01*
X148008050Y-92006342D01*
X148037268Y-91948999D01*
X150171000Y-91948999D01*
X150171001Y-91949000D01*
X150516999Y-91949000D01*
X150517000Y-91948999D01*
X150517000Y-91531567D01*
X150445853Y-91542834D01*
X150445848Y-91542836D01*
X150332956Y-91600358D01*
X150243358Y-91689956D01*
X150185836Y-91802848D01*
X150185835Y-91802852D01*
X150171000Y-91896515D01*
X150171000Y-91948999D01*
X148037268Y-91948999D01*
X148065646Y-91893304D01*
X148080500Y-91799519D01*
X148080499Y-91531566D01*
X151025000Y-91531566D01*
X151025000Y-91948999D01*
X151025001Y-91949000D01*
X151370998Y-91949000D01*
X151370999Y-91948999D01*
X151370999Y-91896516D01*
X151370998Y-91896514D01*
X151356166Y-91802858D01*
X151356163Y-91802848D01*
X151298641Y-91689956D01*
X151209043Y-91600358D01*
X151096148Y-91542835D01*
X151096149Y-91542835D01*
X151025000Y-91531566D01*
X148080499Y-91531566D01*
X148080499Y-91336482D01*
X148078722Y-91325263D01*
X148065647Y-91242700D01*
X148065646Y-91242698D01*
X148065646Y-91242696D01*
X148008050Y-91129658D01*
X147918342Y-91039950D01*
X147805304Y-90982354D01*
X147805305Y-90982354D01*
X147711522Y-90967500D01*
X147098479Y-90967500D01*
X147098476Y-90967501D01*
X147004700Y-90982352D01*
X147004695Y-90982354D01*
X146891659Y-91039949D01*
X146801949Y-91129659D01*
X146784734Y-91163446D01*
X146741469Y-91206710D01*
X146696525Y-91217500D01*
X146218690Y-91217500D01*
X146160499Y-91198593D01*
X146148686Y-91188504D01*
X144298496Y-89338313D01*
X144270719Y-89283796D01*
X144269500Y-89268309D01*
X144269500Y-88852751D01*
X144263835Y-88816984D01*
X144253951Y-88754580D01*
X144193658Y-88636249D01*
X144099751Y-88542342D01*
X144095631Y-88540243D01*
X143981423Y-88482050D01*
X143981420Y-88482049D01*
X143956876Y-88478161D01*
X143883249Y-88466500D01*
X143883246Y-88466500D01*
X143304754Y-88466500D01*
X143304751Y-88466500D01*
X143206580Y-88482049D01*
X143206576Y-88482050D01*
X143088250Y-88542341D01*
X142994341Y-88636250D01*
X142934050Y-88754576D01*
X142934049Y-88754580D01*
X142918500Y-88852751D01*
X142918500Y-89356248D01*
X142934049Y-89454419D01*
X142934050Y-89454423D01*
X142966187Y-89517494D01*
X142994342Y-89572751D01*
X143088249Y-89666658D01*
X143206580Y-89726951D01*
X143273130Y-89737491D01*
X143304751Y-89742500D01*
X143304754Y-89742500D01*
X143670310Y-89742500D01*
X143728501Y-89761407D01*
X143740314Y-89771496D01*
X144768314Y-90799496D01*
X144796091Y-90854013D01*
X144786520Y-90914445D01*
X144743255Y-90957710D01*
X144698310Y-90968500D01*
X144431479Y-90968500D01*
X144431476Y-90968501D01*
X144337700Y-90983352D01*
X144337695Y-90983354D01*
X144224659Y-91040949D01*
X144134949Y-91130659D01*
X144117734Y-91164446D01*
X144074469Y-91207710D01*
X144029525Y-91218500D01*
X143955190Y-91218500D01*
X143896999Y-91199593D01*
X143885186Y-91189504D01*
X141610301Y-88914619D01*
X141597425Y-88898762D01*
X141590937Y-88888831D01*
X141564385Y-88868165D01*
X141559783Y-88864101D01*
X141556807Y-88861125D01*
X141539060Y-88848454D01*
X141498628Y-88816984D01*
X141492177Y-88813493D01*
X141485568Y-88810261D01*
X141485566Y-88810260D01*
X141436454Y-88795638D01*
X141387988Y-88779000D01*
X141387985Y-88778999D01*
X141380760Y-88777793D01*
X141373452Y-88776882D01*
X141331009Y-88778638D01*
X141272087Y-88762151D01*
X141238711Y-88724670D01*
X141193658Y-88636249D01*
X141099751Y-88542342D01*
X141095631Y-88540243D01*
X140981423Y-88482050D01*
X140981420Y-88482049D01*
X140956876Y-88478161D01*
X140883249Y-88466500D01*
X140883246Y-88466500D01*
X140304754Y-88466500D01*
X140304751Y-88466500D01*
X140206580Y-88482049D01*
X140206576Y-88482050D01*
X140088250Y-88542341D01*
X139994341Y-88636250D01*
X139934050Y-88754576D01*
X139934049Y-88754580D01*
X139918500Y-88852751D01*
X139918500Y-89356248D01*
X136094500Y-89356248D01*
X136094500Y-87700000D01*
X138994318Y-87700000D01*
X139014955Y-87856758D01*
X139014957Y-87856766D01*
X139075462Y-88002838D01*
X139075462Y-88002839D01*
X139171713Y-88128276D01*
X139171718Y-88128282D01*
X139297159Y-88224536D01*
X139297160Y-88224536D01*
X139297161Y-88224537D01*
X139443233Y-88285042D01*
X139443238Y-88285044D01*
X139560809Y-88300522D01*
X139599999Y-88305682D01*
X139600000Y-88305682D01*
X139600001Y-88305682D01*
X139631352Y-88301554D01*
X139756762Y-88285044D01*
X139902841Y-88224536D01*
X140028282Y-88128282D01*
X140028287Y-88128276D01*
X140031337Y-88125936D01*
X140089013Y-88105512D01*
X140136549Y-88116268D01*
X140206580Y-88151951D01*
X140273130Y-88162491D01*
X140304751Y-88167500D01*
X140304754Y-88167500D01*
X140883249Y-88167500D01*
X140911803Y-88162976D01*
X140981420Y-88151951D01*
X141099751Y-88091658D01*
X141193658Y-87997751D01*
X141213374Y-87959055D01*
X141256639Y-87915790D01*
X141301584Y-87905000D01*
X142886416Y-87905000D01*
X142944607Y-87923907D01*
X142974625Y-87959055D01*
X142994342Y-87997751D01*
X143088249Y-88091658D01*
X143206580Y-88151951D01*
X143273130Y-88162491D01*
X143304751Y-88167500D01*
X143304754Y-88167500D01*
X143883249Y-88167500D01*
X143911803Y-88162976D01*
X143981420Y-88151951D01*
X144099751Y-88091658D01*
X144193658Y-87997751D01*
X144213374Y-87959055D01*
X144256639Y-87915790D01*
X144301584Y-87905000D01*
X146308599Y-87905000D01*
X146366790Y-87923907D01*
X146378603Y-87933996D01*
X148374949Y-89930342D01*
X148429650Y-89985042D01*
X148464658Y-90020050D01*
X148486152Y-90031001D01*
X148499398Y-90039119D01*
X148518905Y-90053293D01*
X148518906Y-90053293D01*
X148518910Y-90053296D01*
X148541849Y-90060748D01*
X148556201Y-90066694D01*
X148577691Y-90077644D01*
X148577693Y-90077644D01*
X148577696Y-90077646D01*
X148601517Y-90081418D01*
X148616613Y-90085042D01*
X148639567Y-90092500D01*
X148671481Y-90092500D01*
X153688020Y-90092500D01*
X153746211Y-90111407D01*
X153781465Y-90158805D01*
X153784044Y-90166178D01*
X153797512Y-90184426D01*
X153863570Y-90273930D01*
X153959290Y-90344575D01*
X153994881Y-90394342D01*
X153999500Y-90424229D01*
X153999500Y-94934452D01*
X153980593Y-94992643D01*
X153931093Y-95028607D01*
X153869907Y-95028607D01*
X153830496Y-95004456D01*
X153802921Y-94976881D01*
X153682969Y-94915762D01*
X153682970Y-94915762D01*
X153583454Y-94900000D01*
X153554000Y-94900000D01*
X153554000Y-96188599D01*
X153535093Y-96246790D01*
X153525004Y-96258602D01*
X153363104Y-96420503D01*
X153308587Y-96448281D01*
X153293100Y-96449500D01*
X153016510Y-96449500D01*
X152916874Y-96465281D01*
X152916869Y-96465282D01*
X152894444Y-96476709D01*
X152834012Y-96486280D01*
X152779496Y-96458502D01*
X152751719Y-96403985D01*
X152750500Y-96388499D01*
X152750500Y-96260939D01*
X152769407Y-96202748D01*
X152818907Y-96166784D01*
X152880093Y-96166784D01*
X152894447Y-96172730D01*
X152917031Y-96184238D01*
X153016546Y-96199999D01*
X153046000Y-96199999D01*
X153046000Y-94900000D01*
X153016547Y-94900000D01*
X153016544Y-94900001D01*
X152917034Y-94915760D01*
X152917029Y-94915762D01*
X152894444Y-94927270D01*
X152834012Y-94936841D01*
X152779496Y-94909063D01*
X152751719Y-94854546D01*
X152750500Y-94839060D01*
X152750500Y-94519175D01*
X152769407Y-94460984D01*
X152804554Y-94430966D01*
X152815054Y-94425616D01*
X152859342Y-94403050D01*
X152949050Y-94313342D01*
X153006646Y-94200304D01*
X153021500Y-94106519D01*
X153021499Y-93493482D01*
X153021498Y-93493478D01*
X153021498Y-93493476D01*
X153006647Y-93399700D01*
X153006646Y-93399698D01*
X153006646Y-93399696D01*
X152949050Y-93286658D01*
X152859342Y-93196950D01*
X152825554Y-93179734D01*
X152782290Y-93136469D01*
X152771500Y-93091525D01*
X152771500Y-92911474D01*
X152790407Y-92853283D01*
X152825553Y-92823265D01*
X152859342Y-92806050D01*
X152949050Y-92716342D01*
X153006646Y-92603304D01*
X153021500Y-92509519D01*
X153021499Y-91896482D01*
X153014145Y-91850044D01*
X153006647Y-91802700D01*
X153006646Y-91802698D01*
X153006646Y-91802696D01*
X152949050Y-91689658D01*
X152859342Y-91599950D01*
X152746304Y-91542354D01*
X152746305Y-91542354D01*
X152652522Y-91527500D01*
X152189479Y-91527500D01*
X152189476Y-91527501D01*
X152095700Y-91542352D01*
X152095695Y-91542354D01*
X151982659Y-91599949D01*
X151892949Y-91689659D01*
X151835354Y-91802695D01*
X151820500Y-91896477D01*
X151820500Y-92509520D01*
X151820501Y-92509523D01*
X151835352Y-92603299D01*
X151835354Y-92603304D01*
X151892950Y-92716342D01*
X151982658Y-92806050D01*
X152016445Y-92823265D01*
X152059708Y-92866526D01*
X152070500Y-92911474D01*
X152070500Y-93091525D01*
X152051593Y-93149716D01*
X152016446Y-93179734D01*
X151982659Y-93196949D01*
X151892949Y-93286659D01*
X151835354Y-93399695D01*
X151820500Y-93493477D01*
X151820500Y-94106520D01*
X151820501Y-94106523D01*
X151835352Y-94200299D01*
X151835354Y-94200304D01*
X151892950Y-94313342D01*
X151982658Y-94403050D01*
X151982660Y-94403051D01*
X151982661Y-94403052D01*
X151995444Y-94409565D01*
X152038709Y-94452828D01*
X152049500Y-94497775D01*
X152049500Y-94839060D01*
X152030593Y-94897251D01*
X151981093Y-94933215D01*
X151919907Y-94933215D01*
X151905556Y-94927270D01*
X151882970Y-94915762D01*
X151783454Y-94900000D01*
X151754000Y-94900000D01*
X151754000Y-96199998D01*
X151754001Y-96199999D01*
X151783453Y-96199999D01*
X151882965Y-96184239D01*
X151882966Y-96184239D01*
X151905553Y-96172730D01*
X151965985Y-96163158D01*
X152020502Y-96190934D01*
X152048281Y-96245450D01*
X152049500Y-96260939D01*
X152049500Y-96388499D01*
X152030593Y-96446690D01*
X151981093Y-96482654D01*
X151919907Y-96482654D01*
X151905556Y-96476709D01*
X151883130Y-96465282D01*
X151883126Y-96465281D01*
X151840325Y-96458502D01*
X151783490Y-96449500D01*
X151783488Y-96449500D01*
X151216512Y-96449500D01*
X151216510Y-96449500D01*
X151116874Y-96465281D01*
X151116867Y-96465283D01*
X150996782Y-96526470D01*
X150901470Y-96621782D01*
X150840283Y-96741867D01*
X150840281Y-96741874D01*
X150824500Y-96841510D01*
X150824500Y-97358489D01*
X150840281Y-97458125D01*
X150840283Y-97458132D01*
X150897479Y-97570384D01*
X150901472Y-97578220D01*
X150996780Y-97673528D01*
X150996782Y-97673529D01*
X151116867Y-97734716D01*
X151116871Y-97734717D01*
X151116874Y-97734719D01*
X151165987Y-97742497D01*
X151220503Y-97770274D01*
X151248281Y-97824790D01*
X151249500Y-97840278D01*
X151249500Y-98546212D01*
X151230593Y-98604403D01*
X151188386Y-98637676D01*
X151097160Y-98675463D01*
X150971723Y-98771713D01*
X150971713Y-98771723D01*
X150875462Y-98897160D01*
X150875462Y-98897161D01*
X150814957Y-99043233D01*
X150814955Y-99043241D01*
X150794318Y-99199999D01*
X150794318Y-99200000D01*
X150814955Y-99356758D01*
X150814957Y-99356767D01*
X150857265Y-99458907D01*
X150862066Y-99519904D01*
X150830096Y-99572073D01*
X150773568Y-99595487D01*
X150714073Y-99581203D01*
X150695797Y-99566796D01*
X150551171Y-99422170D01*
X150551154Y-99422150D01*
X150536043Y-99407040D01*
X150536015Y-99406986D01*
X150506283Y-99377256D01*
X150506284Y-99377256D01*
X150437733Y-99308709D01*
X150280872Y-99194751D01*
X150170270Y-99138400D01*
X150108117Y-99106733D01*
X150076663Y-99096514D01*
X150047717Y-99087109D01*
X149998217Y-99051147D01*
X149989368Y-99036434D01*
X149976699Y-99010520D01*
X149976699Y-99010519D01*
X149976698Y-99010518D01*
X149976698Y-99010517D01*
X149893983Y-98927802D01*
X149893981Y-98927801D01*
X149788895Y-98876427D01*
X149761639Y-98872456D01*
X149720760Y-98866500D01*
X148629240Y-98866500D01*
X148595173Y-98871463D01*
X148561104Y-98876427D01*
X148456018Y-98927801D01*
X148373301Y-99010518D01*
X148321927Y-99115604D01*
X148318606Y-99138400D01*
X148312000Y-99183740D01*
X148312000Y-99550260D01*
X148318590Y-99595487D01*
X148321927Y-99618395D01*
X148370935Y-99718642D01*
X148373302Y-99723483D01*
X148422169Y-99772350D01*
X148449946Y-99826864D01*
X148440375Y-99887296D01*
X148422169Y-99912355D01*
X148373715Y-99960809D01*
X148373713Y-99960812D01*
X148323757Y-100063000D01*
X150026241Y-100063000D01*
X150027328Y-100061259D01*
X150074180Y-100021908D01*
X150135214Y-100017610D01*
X150181313Y-100043677D01*
X150373757Y-100236120D01*
X150374098Y-100236434D01*
X150415837Y-100278174D01*
X150438867Y-100294907D01*
X150477042Y-100322645D01*
X150513005Y-100372146D01*
X150513003Y-100433332D01*
X150477052Y-100482820D01*
X150397028Y-100540978D01*
X150397024Y-100540982D01*
X150356797Y-100581219D01*
X150353519Y-100584498D01*
X150350665Y-100587136D01*
X150223391Y-100695847D01*
X150210823Y-100704979D01*
X150143880Y-100746005D01*
X150084386Y-100760290D01*
X150027857Y-100736877D01*
X149995886Y-100684710D01*
X150000685Y-100623713D01*
X150003209Y-100618114D01*
X150026242Y-100571000D01*
X148323757Y-100571000D01*
X148373713Y-100673187D01*
X148422169Y-100721643D01*
X148449946Y-100776160D01*
X148440375Y-100836592D01*
X148422171Y-100861647D01*
X148373302Y-100910517D01*
X148373301Y-100910518D01*
X148321927Y-101015604D01*
X148321373Y-101019407D01*
X148312000Y-101083740D01*
X148312000Y-101450260D01*
X148314908Y-101470218D01*
X148321927Y-101518395D01*
X148367492Y-101611599D01*
X148373302Y-101623483D01*
X148456017Y-101706198D01*
X148483933Y-101719845D01*
X148561104Y-101757572D01*
X148561105Y-101757572D01*
X148561107Y-101757573D01*
X148629240Y-101767500D01*
X148629243Y-101767500D01*
X149712039Y-101767500D01*
X149770230Y-101786407D01*
X149806194Y-101835907D01*
X149810192Y-101879422D01*
X149794318Y-101999999D01*
X149794318Y-102000000D01*
X149814955Y-102156758D01*
X149814957Y-102156766D01*
X149875462Y-102302838D01*
X149875462Y-102302839D01*
X149966859Y-102421950D01*
X149971718Y-102428282D01*
X150097159Y-102524536D01*
X150097160Y-102524536D01*
X150097161Y-102524537D01*
X150213326Y-102572654D01*
X150243238Y-102585044D01*
X150288124Y-102590953D01*
X150343349Y-102617294D01*
X150372544Y-102671064D01*
X150364558Y-102731726D01*
X150345206Y-102759110D01*
X149485118Y-103619198D01*
X149469265Y-103632071D01*
X149459335Y-103638559D01*
X149459332Y-103638561D01*
X149438664Y-103665114D01*
X149434605Y-103669712D01*
X149431619Y-103672698D01*
X149418955Y-103690437D01*
X149387483Y-103730874D01*
X149383981Y-103737343D01*
X149380758Y-103743936D01*
X149366138Y-103793045D01*
X149349499Y-103841512D01*
X149348293Y-103848743D01*
X149347383Y-103856047D01*
X149349500Y-103907231D01*
X149349500Y-104403310D01*
X149330593Y-104461501D01*
X149295446Y-104491519D01*
X149186659Y-104546949D01*
X149096949Y-104636659D01*
X149035816Y-104756639D01*
X149034460Y-104755948D01*
X149003674Y-104798323D01*
X148945483Y-104817230D01*
X148887292Y-104798323D01*
X148857274Y-104763176D01*
X148798118Y-104647078D01*
X148702921Y-104551881D01*
X148582969Y-104490762D01*
X148582970Y-104490762D01*
X148483454Y-104475000D01*
X148454000Y-104475000D01*
X148454000Y-105774998D01*
X148454001Y-105774999D01*
X148483453Y-105774999D01*
X148582965Y-105759239D01*
X148582969Y-105759237D01*
X148702921Y-105698118D01*
X148798118Y-105602921D01*
X148859237Y-105482969D01*
X148859238Y-105482969D01*
X148864273Y-105451176D01*
X148892049Y-105396659D01*
X148946565Y-105368880D01*
X149006997Y-105378451D01*
X149050263Y-105421714D01*
X149050263Y-105421715D01*
X149073667Y-105467647D01*
X149096950Y-105513342D01*
X149186658Y-105603050D01*
X149299696Y-105660646D01*
X149393481Y-105675500D01*
X150006518Y-105675499D01*
X150006520Y-105675499D01*
X150006521Y-105675498D01*
X150053411Y-105668072D01*
X150100299Y-105660647D01*
X150100299Y-105660646D01*
X150100304Y-105660646D01*
X150213342Y-105603050D01*
X150303050Y-105513342D01*
X150360646Y-105400304D01*
X150375500Y-105306519D01*
X150375499Y-104843482D01*
X150371926Y-104820922D01*
X150360647Y-104749700D01*
X150360646Y-104749698D01*
X150360646Y-104749696D01*
X150303050Y-104636658D01*
X150213342Y-104546950D01*
X150139044Y-104509093D01*
X150104554Y-104491519D01*
X150061290Y-104448254D01*
X150050500Y-104403310D01*
X150050500Y-104086189D01*
X150069407Y-104027998D01*
X150079490Y-104016191D01*
X151677384Y-102418296D01*
X151693234Y-102405426D01*
X151703169Y-102398937D01*
X151723838Y-102372379D01*
X151727888Y-102367792D01*
X151730875Y-102364807D01*
X151743544Y-102347062D01*
X151775017Y-102306626D01*
X151775019Y-102306618D01*
X151778521Y-102300149D01*
X151781738Y-102293568D01*
X151781737Y-102293568D01*
X151781739Y-102293567D01*
X151796358Y-102244462D01*
X151813000Y-102195988D01*
X151813000Y-102195987D01*
X151814206Y-102188759D01*
X151815117Y-102181454D01*
X151813251Y-102136332D01*
X151829737Y-102077409D01*
X151877709Y-102039431D01*
X151938842Y-102036903D01*
X151989786Y-102070791D01*
X151994482Y-102077241D01*
X152005805Y-102094188D01*
X152005811Y-102094194D01*
X152040832Y-102117595D01*
X152078711Y-102165646D01*
X152082928Y-102219223D01*
X152074500Y-102261593D01*
X152074500Y-102489669D01*
X152069136Y-102521814D01*
X152068042Y-102525001D01*
X152049500Y-102579011D01*
X152049500Y-102813809D01*
X152030593Y-102872000D01*
X152020504Y-102883813D01*
X151185118Y-103719198D01*
X151169265Y-103732071D01*
X151159335Y-103738559D01*
X151159332Y-103738561D01*
X151138664Y-103765114D01*
X151134605Y-103769712D01*
X151131619Y-103772698D01*
X151118955Y-103790437D01*
X151087483Y-103830874D01*
X151083981Y-103837343D01*
X151080758Y-103843936D01*
X151066138Y-103893045D01*
X151049499Y-103941512D01*
X151048293Y-103948743D01*
X151047383Y-103956047D01*
X151049500Y-104007231D01*
X151049500Y-104746423D01*
X151030593Y-104804614D01*
X150988386Y-104837887D01*
X150897670Y-104875463D01*
X150772233Y-104971713D01*
X150772223Y-104971723D01*
X150675972Y-105097160D01*
X150675972Y-105097161D01*
X150615467Y-105243233D01*
X150615465Y-105243241D01*
X150594828Y-105399999D01*
X150594828Y-105400000D01*
X150615465Y-105556758D01*
X150615467Y-105556766D01*
X150675972Y-105702838D01*
X150675972Y-105702839D01*
X150769326Y-105824500D01*
X150772228Y-105828282D01*
X150897669Y-105924536D01*
X150897670Y-105924536D01*
X150897671Y-105924537D01*
X151020620Y-105975464D01*
X151043748Y-105985044D01*
X151161319Y-106000522D01*
X151200509Y-106005682D01*
X151200510Y-106005682D01*
X151200511Y-106005682D01*
X151231862Y-106001554D01*
X151357272Y-105985044D01*
X151439881Y-105950825D01*
X151500877Y-105946025D01*
X151553046Y-105977994D01*
X151576461Y-106034522D01*
X151562178Y-106094017D01*
X151538034Y-106120832D01*
X151471720Y-106171716D01*
X151471713Y-106171723D01*
X151375462Y-106297160D01*
X151375462Y-106297161D01*
X151314957Y-106443233D01*
X151314955Y-106443241D01*
X151294318Y-106599999D01*
X151294318Y-106600000D01*
X151314955Y-106756758D01*
X151314957Y-106756766D01*
X151375462Y-106902838D01*
X151375462Y-106902839D01*
X151471713Y-107028276D01*
X151471718Y-107028282D01*
X151471722Y-107028285D01*
X151471723Y-107028286D01*
X151480678Y-107035157D01*
X151597159Y-107124536D01*
X151597160Y-107124536D01*
X151597161Y-107124537D01*
X151743233Y-107185042D01*
X151743238Y-107185044D01*
X151853043Y-107199500D01*
X151899999Y-107205682D01*
X151900000Y-107205682D01*
X151900001Y-107205682D01*
X151946957Y-107199500D01*
X152056762Y-107185044D01*
X152202841Y-107124536D01*
X152328282Y-107028282D01*
X152424536Y-106902841D01*
X152485044Y-106756762D01*
X152505682Y-106600000D01*
X152485044Y-106443238D01*
X152485042Y-106443232D01*
X152458036Y-106378033D01*
X152450500Y-106340148D01*
X152450500Y-105606520D01*
X153024500Y-105606520D01*
X153024501Y-105606523D01*
X153039352Y-105700299D01*
X153039354Y-105700304D01*
X153096950Y-105813342D01*
X153186658Y-105903050D01*
X153299696Y-105960646D01*
X153393481Y-105975500D01*
X154006518Y-105975499D01*
X154006520Y-105975499D01*
X154006521Y-105975498D01*
X154053411Y-105968072D01*
X154100299Y-105960647D01*
X154100299Y-105960646D01*
X154100304Y-105960646D01*
X154213342Y-105903050D01*
X154303050Y-105813342D01*
X154360646Y-105700304D01*
X154373207Y-105620998D01*
X154625000Y-105620998D01*
X154625001Y-105621000D01*
X155045999Y-105621000D01*
X155046000Y-105620999D01*
X155554000Y-105620999D01*
X155554001Y-105621000D01*
X155974998Y-105621000D01*
X155974999Y-105620999D01*
X155974999Y-105616546D01*
X155959239Y-105517034D01*
X155959237Y-105517030D01*
X155898118Y-105397078D01*
X155802921Y-105301881D01*
X155682969Y-105240762D01*
X155682970Y-105240762D01*
X155583454Y-105225000D01*
X155554001Y-105225000D01*
X155554000Y-105225001D01*
X155554000Y-105620999D01*
X155046000Y-105620999D01*
X155046000Y-105620998D01*
X155046000Y-105225000D01*
X155016547Y-105225000D01*
X155016544Y-105225001D01*
X154917034Y-105240760D01*
X154917030Y-105240762D01*
X154797078Y-105301881D01*
X154701881Y-105397078D01*
X154640762Y-105517030D01*
X154625000Y-105616546D01*
X154625000Y-105620998D01*
X154373207Y-105620998D01*
X154375500Y-105606519D01*
X154375499Y-105236188D01*
X154394406Y-105177998D01*
X154404489Y-105166191D01*
X154614884Y-104955796D01*
X154630734Y-104942926D01*
X154640669Y-104936437D01*
X154657077Y-104915354D01*
X154707734Y-104881047D01*
X154768886Y-104883066D01*
X154793388Y-104896064D01*
X154796780Y-104898528D01*
X154916867Y-104959716D01*
X154916869Y-104959716D01*
X154916874Y-104959719D01*
X154992541Y-104971703D01*
X155016510Y-104975500D01*
X155016512Y-104975500D01*
X155583490Y-104975500D01*
X155607398Y-104971713D01*
X155683126Y-104959719D01*
X155690608Y-104955907D01*
X155716826Y-104942548D01*
X155803220Y-104898528D01*
X155898528Y-104803220D01*
X155959719Y-104683126D01*
X155975500Y-104583488D01*
X155975500Y-104066512D01*
X155959719Y-103966874D01*
X155959716Y-103966869D01*
X155959716Y-103966867D01*
X155898529Y-103846782D01*
X155898528Y-103846780D01*
X155803220Y-103751472D01*
X155803217Y-103751470D01*
X155683132Y-103690283D01*
X155683127Y-103690281D01*
X155683126Y-103690281D01*
X155642838Y-103683900D01*
X155583490Y-103674500D01*
X155583488Y-103674500D01*
X155549500Y-103674500D01*
X155491309Y-103655593D01*
X155455345Y-103606093D01*
X155450500Y-103575500D01*
X155450500Y-103374769D01*
X155469407Y-103316578D01*
X155489229Y-103296230D01*
X155577782Y-103228282D01*
X155613664Y-103181520D01*
X156124500Y-103181520D01*
X156124501Y-103181523D01*
X156139352Y-103275299D01*
X156139354Y-103275304D01*
X156196950Y-103388342D01*
X156286658Y-103478050D01*
X156395447Y-103533481D01*
X156438710Y-103576744D01*
X156449500Y-103621689D01*
X156449500Y-106653381D01*
X156447393Y-106673696D01*
X156444957Y-106685313D01*
X156449120Y-106718709D01*
X156449500Y-106724837D01*
X156449500Y-106729038D01*
X156453087Y-106750541D01*
X156459425Y-106801388D01*
X156461527Y-106808448D01*
X156463907Y-106815380D01*
X156488295Y-106860444D01*
X156510801Y-106906482D01*
X156515078Y-106912472D01*
X156519579Y-106918255D01*
X156557275Y-106952958D01*
X158644197Y-109039878D01*
X158657072Y-109055734D01*
X158663562Y-109065668D01*
X158690110Y-109086331D01*
X158694709Y-109090391D01*
X158697689Y-109093371D01*
X158697692Y-109093373D01*
X158697694Y-109093375D01*
X158715430Y-109106038D01*
X158755874Y-109137517D01*
X158755880Y-109137519D01*
X158762354Y-109141022D01*
X158768934Y-109144240D01*
X158818045Y-109158861D01*
X158866512Y-109175500D01*
X158866516Y-109175500D01*
X158873733Y-109176705D01*
X158881039Y-109177615D01*
X158881046Y-109177617D01*
X158932242Y-109175500D01*
X159504812Y-109175500D01*
X159563003Y-109194407D01*
X159574809Y-109204490D01*
X159634517Y-109264198D01*
X159688285Y-109290483D01*
X159739604Y-109315572D01*
X159739605Y-109315572D01*
X159739607Y-109315573D01*
X159807740Y-109325500D01*
X159807743Y-109325500D01*
X161274257Y-109325500D01*
X161274260Y-109325500D01*
X161342393Y-109315573D01*
X161447483Y-109264198D01*
X161517764Y-109193916D01*
X161568565Y-109168031D01*
X161568530Y-109167914D01*
X161569170Y-109167723D01*
X161572278Y-109166140D01*
X161575471Y-109165687D01*
X161576393Y-109165573D01*
X161576397Y-109165570D01*
X161583426Y-109163478D01*
X161590377Y-109161092D01*
X161590381Y-109161092D01*
X161635444Y-109136704D01*
X161681484Y-109114198D01*
X161687470Y-109109923D01*
X161693256Y-109105420D01*
X161727958Y-109067723D01*
X161813538Y-108982143D01*
X161955881Y-108839799D01*
X161971728Y-108826931D01*
X161981669Y-108820437D01*
X162002341Y-108793875D01*
X162006399Y-108789281D01*
X162009375Y-108786306D01*
X162012176Y-108782382D01*
X162022039Y-108768569D01*
X162053516Y-108728127D01*
X162057023Y-108721645D01*
X162060239Y-108715067D01*
X162060238Y-108715067D01*
X162060240Y-108715066D01*
X162074861Y-108665954D01*
X162091500Y-108617488D01*
X162091500Y-108617483D01*
X162092707Y-108610251D01*
X162093617Y-108602955D01*
X162091500Y-108551758D01*
X162091500Y-103789116D01*
X162110407Y-103730925D01*
X162159907Y-103694961D01*
X162221093Y-103694961D01*
X162270155Y-103730328D01*
X162319204Y-103796787D01*
X162319209Y-103796792D01*
X162428352Y-103877345D01*
X162556398Y-103922149D01*
X162586789Y-103924999D01*
X163486998Y-103924999D01*
X163487000Y-103924998D01*
X163487000Y-102525001D01*
X163486999Y-102525000D01*
X162586796Y-102525000D01*
X162556399Y-102527850D01*
X162556397Y-102527850D01*
X162428352Y-102572654D01*
X162319209Y-102653207D01*
X162319207Y-102653209D01*
X162270155Y-102719672D01*
X162220387Y-102755264D01*
X162159203Y-102754806D01*
X162109974Y-102718472D01*
X162091500Y-102660883D01*
X162091500Y-100920512D01*
X162110407Y-100862321D01*
X162159907Y-100826357D01*
X162221093Y-100826357D01*
X162270155Y-100861724D01*
X162277845Y-100872144D01*
X162277850Y-100872150D01*
X162277853Y-100872152D01*
X162277855Y-100872154D01*
X162387116Y-100952792D01*
X162387117Y-100952792D01*
X162387118Y-100952793D01*
X162515301Y-100997646D01*
X162545725Y-101000499D01*
X162545727Y-101000500D01*
X162545734Y-101000500D01*
X163154273Y-101000500D01*
X163154273Y-101000499D01*
X163184699Y-100997646D01*
X163312882Y-100952793D01*
X163422150Y-100872150D01*
X163502793Y-100762882D01*
X163547646Y-100634699D01*
X163550499Y-100604273D01*
X163550500Y-100604273D01*
X163550500Y-100227611D01*
X163569407Y-100169420D01*
X163579496Y-100157608D01*
X163712422Y-100024681D01*
X163766939Y-99996903D01*
X163769474Y-99996535D01*
X163856762Y-99985044D01*
X164002841Y-99924536D01*
X164128282Y-99828282D01*
X164224536Y-99702841D01*
X164285044Y-99556762D01*
X164305682Y-99400000D01*
X164304046Y-99387577D01*
X164299989Y-99356758D01*
X164285044Y-99243238D01*
X164266137Y-99197593D01*
X164224537Y-99097161D01*
X164224537Y-99097160D01*
X164128286Y-98971723D01*
X164128285Y-98971722D01*
X164128282Y-98971718D01*
X164128277Y-98971714D01*
X164128276Y-98971713D01*
X164031116Y-98897160D01*
X164002841Y-98875464D01*
X164002840Y-98875463D01*
X164002838Y-98875462D01*
X163856766Y-98814957D01*
X163856758Y-98814955D01*
X163700001Y-98794318D01*
X163699999Y-98794318D01*
X163543241Y-98814955D01*
X163543233Y-98814957D01*
X163397161Y-98875462D01*
X163397160Y-98875462D01*
X163271723Y-98971713D01*
X163271713Y-98971723D01*
X163175462Y-99097160D01*
X163175462Y-99097161D01*
X163114956Y-99243237D01*
X163103467Y-99330497D01*
X163077125Y-99385722D01*
X163075318Y-99387577D01*
X162892394Y-99570503D01*
X162837878Y-99598281D01*
X162822390Y-99599500D01*
X162545725Y-99599500D01*
X162515305Y-99602353D01*
X162515296Y-99602355D01*
X162387116Y-99647207D01*
X162277855Y-99727845D01*
X162277846Y-99727854D01*
X162270154Y-99738277D01*
X162220385Y-99773869D01*
X162159201Y-99773409D01*
X162109973Y-99737075D01*
X162091500Y-99679487D01*
X162091500Y-97939116D01*
X162110407Y-97880925D01*
X162159907Y-97844961D01*
X162221093Y-97844961D01*
X162270155Y-97880328D01*
X162319204Y-97946787D01*
X162319209Y-97946792D01*
X162428352Y-98027345D01*
X162556398Y-98072149D01*
X162586789Y-98074999D01*
X163486998Y-98074999D01*
X163487000Y-98074997D01*
X163487000Y-96675001D01*
X163486999Y-96675000D01*
X162586796Y-96675000D01*
X162556399Y-96677850D01*
X162556397Y-96677850D01*
X162428352Y-96722654D01*
X162319209Y-96803207D01*
X162319207Y-96803209D01*
X162270155Y-96869672D01*
X162220387Y-96905264D01*
X162159203Y-96904806D01*
X162109974Y-96868472D01*
X162091500Y-96810883D01*
X162091500Y-94587618D01*
X162093607Y-94567302D01*
X162093617Y-94567253D01*
X162096043Y-94555685D01*
X162091879Y-94522288D01*
X162091500Y-94516162D01*
X162091500Y-94511959D01*
X162087912Y-94490459D01*
X162086047Y-94475498D01*
X162081573Y-94439607D01*
X162081572Y-94439605D01*
X162081572Y-94439603D01*
X162079479Y-94432575D01*
X162077091Y-94425616D01*
X162052704Y-94380554D01*
X162030198Y-94334515D01*
X162025948Y-94328562D01*
X162021418Y-94322742D01*
X161983724Y-94288041D01*
X161755801Y-94060119D01*
X161742925Y-94044262D01*
X161736673Y-94034693D01*
X161736437Y-94034331D01*
X161709882Y-94013663D01*
X161705283Y-94009601D01*
X161702307Y-94006625D01*
X161684560Y-93993954D01*
X161644128Y-93962484D01*
X161637677Y-93958993D01*
X161631068Y-93955761D01*
X161631066Y-93955760D01*
X161581954Y-93941138D01*
X161573232Y-93938144D01*
X161559249Y-93933343D01*
X161521394Y-93909713D01*
X161447483Y-93835802D01*
X161422691Y-93823682D01*
X161342395Y-93784427D01*
X161315139Y-93780456D01*
X161274260Y-93774500D01*
X159807740Y-93774500D01*
X159773673Y-93779463D01*
X159739604Y-93784427D01*
X159634518Y-93835801D01*
X159551801Y-93918518D01*
X159500427Y-94023604D01*
X159496226Y-94052438D01*
X159490500Y-94091740D01*
X159490500Y-94458260D01*
X159495535Y-94492817D01*
X159500427Y-94526395D01*
X159532197Y-94591381D01*
X159551802Y-94631483D01*
X159634517Y-94714198D01*
X159686044Y-94739388D01*
X159739604Y-94765572D01*
X159739605Y-94765572D01*
X159739607Y-94765573D01*
X159807740Y-94775500D01*
X159807743Y-94775500D01*
X161274257Y-94775500D01*
X161274260Y-94775500D01*
X161277222Y-94775068D01*
X161337531Y-94785385D01*
X161380258Y-94829180D01*
X161390500Y-94873033D01*
X161390500Y-94927472D01*
X161371593Y-94985663D01*
X161322093Y-95021627D01*
X161277236Y-95025439D01*
X161274224Y-95025000D01*
X160795001Y-95025000D01*
X160795000Y-95025001D01*
X160795000Y-96024998D01*
X160795001Y-96024999D01*
X161274213Y-96024999D01*
X161274214Y-96024998D01*
X161277227Y-96024560D01*
X161337536Y-96034881D01*
X161380260Y-96078679D01*
X161390500Y-96122526D01*
X161390500Y-104476966D01*
X161371593Y-104535157D01*
X161322093Y-104571121D01*
X161277236Y-104574933D01*
X161274265Y-104574500D01*
X161274260Y-104574500D01*
X161099500Y-104574500D01*
X161041309Y-104555593D01*
X161005345Y-104506093D01*
X161000500Y-104475500D01*
X161000500Y-100786256D01*
X161006056Y-100753558D01*
X161034075Y-100673483D01*
X161047646Y-100634699D01*
X161050499Y-100604273D01*
X161050500Y-100604273D01*
X161050500Y-99995726D01*
X161050499Y-99995725D01*
X161047646Y-99965305D01*
X161047646Y-99965301D01*
X161002793Y-99837118D01*
X160996267Y-99828276D01*
X160922154Y-99727855D01*
X160922152Y-99727853D01*
X160922150Y-99727850D01*
X160922146Y-99727847D01*
X160922144Y-99727845D01*
X160812883Y-99647207D01*
X160684703Y-99602355D01*
X160684694Y-99602353D01*
X160654274Y-99599500D01*
X160654266Y-99599500D01*
X160045734Y-99599500D01*
X160045725Y-99599500D01*
X160015305Y-99602353D01*
X160015296Y-99602355D01*
X159887116Y-99647207D01*
X159777855Y-99727845D01*
X159777845Y-99727855D01*
X159697207Y-99837116D01*
X159652355Y-99965296D01*
X159652353Y-99965305D01*
X159649500Y-99995725D01*
X159649500Y-100604274D01*
X159652353Y-100634694D01*
X159652355Y-100634703D01*
X159697207Y-100762883D01*
X159777845Y-100872144D01*
X159777846Y-100872145D01*
X159777850Y-100872150D01*
X159777853Y-100872152D01*
X159777855Y-100872154D01*
X159887116Y-100952792D01*
X159887117Y-100952792D01*
X159887118Y-100952793D01*
X160015301Y-100997646D01*
X160045725Y-101000499D01*
X160045727Y-101000500D01*
X160045734Y-101000500D01*
X160100500Y-101000500D01*
X160158691Y-101019407D01*
X160194655Y-101068907D01*
X160199500Y-101099500D01*
X160199500Y-104475500D01*
X160180593Y-104533691D01*
X160131093Y-104569655D01*
X160100500Y-104574500D01*
X159807740Y-104574500D01*
X159773673Y-104579463D01*
X159739604Y-104584427D01*
X159634518Y-104635801D01*
X159551801Y-104718518D01*
X159500427Y-104823604D01*
X159497026Y-104846950D01*
X159490500Y-104891740D01*
X159490500Y-105258260D01*
X159490954Y-105261373D01*
X159500427Y-105326395D01*
X159547026Y-105421714D01*
X159551802Y-105431483D01*
X159634517Y-105514198D01*
X159688285Y-105540483D01*
X159739604Y-105565572D01*
X159739605Y-105565572D01*
X159739607Y-105565573D01*
X159807740Y-105575500D01*
X159807743Y-105575500D01*
X161274257Y-105575500D01*
X161274260Y-105575500D01*
X161277222Y-105575068D01*
X161337531Y-105585385D01*
X161380258Y-105629180D01*
X161390500Y-105673033D01*
X161390500Y-105726966D01*
X161371593Y-105785157D01*
X161322093Y-105821121D01*
X161277236Y-105824933D01*
X161274265Y-105824500D01*
X161274260Y-105824500D01*
X159807740Y-105824500D01*
X159773673Y-105829463D01*
X159739604Y-105834427D01*
X159634515Y-105885802D01*
X159634225Y-105886093D01*
X159633819Y-105886299D01*
X159627841Y-105890568D01*
X159627200Y-105889671D01*
X159579706Y-105913866D01*
X159551305Y-105914237D01*
X159400001Y-105894318D01*
X159399999Y-105894318D01*
X159243241Y-105914955D01*
X159243232Y-105914957D01*
X159137385Y-105958801D01*
X159076389Y-105963602D01*
X159024220Y-105931632D01*
X159000805Y-105875104D01*
X159000500Y-105867337D01*
X159000500Y-104336188D01*
X159019407Y-104277997D01*
X159029491Y-104266189D01*
X159068275Y-104227405D01*
X159122789Y-104199629D01*
X159151197Y-104199257D01*
X159200000Y-104205682D01*
X159356762Y-104185044D01*
X159502841Y-104124536D01*
X159628282Y-104028282D01*
X159724536Y-103902841D01*
X159785044Y-103756762D01*
X159805682Y-103600000D01*
X159785044Y-103443238D01*
X159775057Y-103419127D01*
X159724537Y-103297161D01*
X159724537Y-103297160D01*
X159628286Y-103171723D01*
X159628285Y-103171722D01*
X159628282Y-103171718D01*
X159628277Y-103171714D01*
X159628276Y-103171713D01*
X159538517Y-103102839D01*
X159502841Y-103075464D01*
X159502840Y-103075463D01*
X159502838Y-103075462D01*
X159356766Y-103014957D01*
X159356758Y-103014955D01*
X159200001Y-102994318D01*
X159199999Y-102994318D01*
X159043241Y-103014955D01*
X159043233Y-103014957D01*
X158897161Y-103075462D01*
X158897160Y-103075462D01*
X158771723Y-103171713D01*
X158771713Y-103171723D01*
X158675462Y-103297160D01*
X158675462Y-103297161D01*
X158614957Y-103443233D01*
X158614955Y-103443241D01*
X158594318Y-103599999D01*
X158594318Y-103600002D01*
X158600741Y-103648800D01*
X158589590Y-103708961D01*
X158572592Y-103731724D01*
X158435118Y-103869198D01*
X158419265Y-103882071D01*
X158409335Y-103888559D01*
X158409332Y-103888561D01*
X158388664Y-103915114D01*
X158384605Y-103919712D01*
X158381619Y-103922698D01*
X158368955Y-103940437D01*
X158337483Y-103980874D01*
X158333981Y-103987343D01*
X158330758Y-103993936D01*
X158316138Y-104043045D01*
X158299499Y-104091512D01*
X158298293Y-104098743D01*
X158297383Y-104106047D01*
X158299500Y-104157231D01*
X158299500Y-106983711D01*
X158297393Y-107004026D01*
X158294957Y-107015645D01*
X158297681Y-107037497D01*
X158299120Y-107049039D01*
X158299500Y-107055167D01*
X158299500Y-107059368D01*
X158303087Y-107080871D01*
X158309425Y-107131718D01*
X158311527Y-107138778D01*
X158313907Y-107145710D01*
X158338295Y-107190774D01*
X158360801Y-107236812D01*
X158365078Y-107242802D01*
X158369579Y-107248585D01*
X158407275Y-107283288D01*
X158913869Y-107789881D01*
X158926744Y-107805737D01*
X158933233Y-107815669D01*
X158959780Y-107836332D01*
X158964378Y-107840392D01*
X158967359Y-107843372D01*
X158967362Y-107843374D01*
X158967364Y-107843376D01*
X158985111Y-107856047D01*
X159025544Y-107887517D01*
X159025547Y-107887518D01*
X159032007Y-107891014D01*
X159038604Y-107894240D01*
X159087715Y-107908861D01*
X159136182Y-107925500D01*
X159136186Y-107925500D01*
X159143403Y-107926705D01*
X159150709Y-107927615D01*
X159150716Y-107927617D01*
X159201912Y-107925500D01*
X159504812Y-107925500D01*
X159563003Y-107944407D01*
X159574809Y-107954490D01*
X159634517Y-108014198D01*
X159688285Y-108040483D01*
X159739604Y-108065572D01*
X159739605Y-108065572D01*
X159739607Y-108065573D01*
X159807740Y-108075500D01*
X159807743Y-108075500D01*
X161274257Y-108075500D01*
X161274260Y-108075500D01*
X161277222Y-108075068D01*
X161337531Y-108085385D01*
X161380258Y-108129180D01*
X161390500Y-108173033D01*
X161390500Y-108226966D01*
X161371593Y-108285157D01*
X161322093Y-108321121D01*
X161277236Y-108324933D01*
X161274265Y-108324500D01*
X161274260Y-108324500D01*
X159807740Y-108324500D01*
X159773673Y-108329463D01*
X159739604Y-108334427D01*
X159634518Y-108385801D01*
X159634517Y-108385801D01*
X159634517Y-108385802D01*
X159574813Y-108445505D01*
X159520299Y-108473281D01*
X159504812Y-108474500D01*
X159111190Y-108474500D01*
X159052999Y-108455593D01*
X159041186Y-108445504D01*
X157179496Y-106583814D01*
X157151719Y-106529297D01*
X157150500Y-106513810D01*
X157150500Y-103621689D01*
X157169407Y-103563498D01*
X157204552Y-103533481D01*
X157313342Y-103478050D01*
X157403050Y-103388342D01*
X157460646Y-103275304D01*
X157475500Y-103181519D01*
X157475499Y-102718482D01*
X157475499Y-102718479D01*
X157475498Y-102718472D01*
X157460647Y-102624700D01*
X157460646Y-102624698D01*
X157460646Y-102624696D01*
X157403050Y-102511658D01*
X157313342Y-102421950D01*
X157200304Y-102364354D01*
X157200305Y-102364354D01*
X157106522Y-102349500D01*
X156493479Y-102349500D01*
X156493476Y-102349501D01*
X156399700Y-102364352D01*
X156399695Y-102364354D01*
X156286659Y-102421949D01*
X156196949Y-102511659D01*
X156139354Y-102624695D01*
X156124500Y-102718477D01*
X156124500Y-103181520D01*
X155613664Y-103181520D01*
X155674036Y-103102841D01*
X155734544Y-102956762D01*
X155755182Y-102800000D01*
X155734544Y-102643238D01*
X155723798Y-102617294D01*
X155674037Y-102497161D01*
X155674037Y-102497160D01*
X155577786Y-102371723D01*
X155577785Y-102371722D01*
X155577782Y-102371718D01*
X155577777Y-102371714D01*
X155577776Y-102371713D01*
X155489233Y-102303772D01*
X155454577Y-102253348D01*
X155450500Y-102225230D01*
X155450500Y-102124499D01*
X155469407Y-102066308D01*
X155518907Y-102030344D01*
X155549500Y-102025499D01*
X155713398Y-102025499D01*
X155713400Y-102025499D01*
X155790117Y-102010240D01*
X155877112Y-101952112D01*
X155935240Y-101865117D01*
X155950500Y-101788401D01*
X155950499Y-101667020D01*
X155969406Y-101608830D01*
X156018906Y-101572866D01*
X156080091Y-101572865D01*
X156129591Y-101608829D01*
X156137708Y-101622074D01*
X156139354Y-101625304D01*
X156196950Y-101738342D01*
X156286658Y-101828050D01*
X156399696Y-101885646D01*
X156493481Y-101900500D01*
X157106518Y-101900499D01*
X157106520Y-101900499D01*
X157106521Y-101900498D01*
X157153411Y-101893072D01*
X157200299Y-101885647D01*
X157200299Y-101885646D01*
X157200304Y-101885646D01*
X157313342Y-101828050D01*
X157403050Y-101738342D01*
X157460646Y-101625304D01*
X157475500Y-101531519D01*
X157475499Y-101068482D01*
X157464733Y-101000500D01*
X157460647Y-100974700D01*
X157460646Y-100974698D01*
X157460646Y-100974696D01*
X157403050Y-100861658D01*
X157313342Y-100771950D01*
X157313339Y-100771948D01*
X157307832Y-100766441D01*
X157310353Y-100763919D01*
X157283419Y-100726724D01*
X157283516Y-100665539D01*
X157299076Y-100636020D01*
X157324536Y-100602841D01*
X157385044Y-100456762D01*
X157405682Y-100300000D01*
X157385044Y-100143238D01*
X157351087Y-100061259D01*
X157324537Y-99997161D01*
X157324537Y-99997160D01*
X157228286Y-99871723D01*
X157228285Y-99871722D01*
X157228282Y-99871718D01*
X157228277Y-99871714D01*
X157228276Y-99871713D01*
X157149499Y-99811266D01*
X157102841Y-99775464D01*
X157102840Y-99775463D01*
X157102838Y-99775462D01*
X156956766Y-99714957D01*
X156956758Y-99714955D01*
X156800001Y-99694318D01*
X156799999Y-99694318D01*
X156643241Y-99714955D01*
X156643239Y-99714955D01*
X156643238Y-99714956D01*
X156612109Y-99727850D01*
X156587385Y-99738091D01*
X156526388Y-99742890D01*
X156474219Y-99710920D01*
X156450805Y-99654392D01*
X156450500Y-99646626D01*
X156450500Y-98300000D01*
X157294318Y-98300000D01*
X157314955Y-98456758D01*
X157314957Y-98456766D01*
X157375462Y-98602838D01*
X157375462Y-98602839D01*
X157471713Y-98728276D01*
X157471718Y-98728282D01*
X157471722Y-98728285D01*
X157471723Y-98728286D01*
X157482751Y-98736748D01*
X157597159Y-98824536D01*
X157597160Y-98824536D01*
X157597161Y-98824537D01*
X157735710Y-98881926D01*
X157743238Y-98885044D01*
X157837502Y-98897454D01*
X157899999Y-98905682D01*
X157900000Y-98905682D01*
X157900001Y-98905682D01*
X157936642Y-98900858D01*
X158056762Y-98885044D01*
X158202841Y-98824536D01*
X158328282Y-98728282D01*
X158424536Y-98602841D01*
X158485044Y-98456762D01*
X158505682Y-98300000D01*
X158485044Y-98143238D01*
X158461264Y-98085828D01*
X158424537Y-97997161D01*
X158424537Y-97997160D01*
X158328281Y-97871716D01*
X158328278Y-97871714D01*
X158289232Y-97841752D01*
X158254577Y-97791328D01*
X158250500Y-97763211D01*
X158250500Y-95779000D01*
X159502257Y-95779000D01*
X159552213Y-95881187D01*
X159634812Y-95963786D01*
X159739751Y-96015087D01*
X159807784Y-96024999D01*
X160286998Y-96024999D01*
X160287000Y-96024997D01*
X160287000Y-95779001D01*
X160286999Y-95779000D01*
X159502257Y-95779000D01*
X158250500Y-95779000D01*
X158250500Y-95271000D01*
X159502257Y-95271000D01*
X160286999Y-95271000D01*
X160287000Y-95270999D01*
X160287000Y-95025001D01*
X160286999Y-95025000D01*
X159807786Y-95025000D01*
X159807783Y-95025001D01*
X159739749Y-95034912D01*
X159634811Y-95086214D01*
X159552213Y-95168812D01*
X159502257Y-95271000D01*
X158250500Y-95271000D01*
X158250500Y-93586189D01*
X158269407Y-93527998D01*
X158279490Y-93516191D01*
X158587421Y-93208260D01*
X159490500Y-93208260D01*
X159495698Y-93243934D01*
X159500427Y-93276395D01*
X159547505Y-93372693D01*
X159551802Y-93381483D01*
X159634517Y-93464198D01*
X159688285Y-93490483D01*
X159739604Y-93515572D01*
X159739605Y-93515572D01*
X159739607Y-93515573D01*
X159807740Y-93525500D01*
X159807743Y-93525500D01*
X161274257Y-93525500D01*
X161274260Y-93525500D01*
X161342393Y-93515573D01*
X161447483Y-93464198D01*
X161507186Y-93404494D01*
X161561701Y-93376719D01*
X161577188Y-93375500D01*
X161582396Y-93375500D01*
X161640587Y-93394407D01*
X161660937Y-93414232D01*
X161671718Y-93428282D01*
X161671722Y-93428285D01*
X161671723Y-93428286D01*
X161684242Y-93437892D01*
X161797159Y-93524536D01*
X161797160Y-93524536D01*
X161797161Y-93524537D01*
X161933431Y-93580982D01*
X161943238Y-93585044D01*
X162060809Y-93600522D01*
X162099999Y-93605682D01*
X162100000Y-93605682D01*
X162100001Y-93605682D01*
X162131352Y-93601554D01*
X162256762Y-93585044D01*
X162402841Y-93524536D01*
X162528282Y-93428282D01*
X162624536Y-93302841D01*
X162685044Y-93156762D01*
X162705682Y-93000000D01*
X162685044Y-92843238D01*
X162659123Y-92780659D01*
X162624537Y-92697161D01*
X162624537Y-92697160D01*
X162528286Y-92571723D01*
X162528285Y-92571722D01*
X162528282Y-92571718D01*
X162528277Y-92571714D01*
X162528276Y-92571713D01*
X162402838Y-92475462D01*
X162256766Y-92414957D01*
X162256758Y-92414955D01*
X162100001Y-92394318D01*
X162099999Y-92394318D01*
X161943241Y-92414955D01*
X161943233Y-92414957D01*
X161797161Y-92475462D01*
X161797160Y-92475462D01*
X161671723Y-92571713D01*
X161671713Y-92571723D01*
X161636968Y-92617005D01*
X161586544Y-92651661D01*
X161525379Y-92650060D01*
X161488424Y-92626743D01*
X161447483Y-92585802D01*
X161418674Y-92571718D01*
X161342395Y-92534427D01*
X161315139Y-92530456D01*
X161274260Y-92524500D01*
X159807740Y-92524500D01*
X159773673Y-92529463D01*
X159739604Y-92534427D01*
X159634518Y-92585801D01*
X159551801Y-92668518D01*
X159500427Y-92773604D01*
X159498079Y-92789723D01*
X159490500Y-92841740D01*
X159490500Y-93208260D01*
X158587421Y-93208260D01*
X159548917Y-92246763D01*
X159603432Y-92218988D01*
X159662399Y-92227828D01*
X159739607Y-92265573D01*
X159807740Y-92275500D01*
X159807743Y-92275500D01*
X161274257Y-92275500D01*
X161274260Y-92275500D01*
X161342393Y-92265573D01*
X161447483Y-92214198D01*
X161530198Y-92131483D01*
X161581573Y-92026393D01*
X161591500Y-91958260D01*
X161591500Y-91591740D01*
X161581573Y-91523607D01*
X161563091Y-91485802D01*
X161552088Y-91463295D01*
X161530198Y-91418517D01*
X161447483Y-91335802D01*
X161447481Y-91335801D01*
X161342395Y-91284427D01*
X161315139Y-91280456D01*
X161274260Y-91274500D01*
X159807740Y-91274500D01*
X159773673Y-91279463D01*
X159739604Y-91284427D01*
X159634518Y-91335801D01*
X159634515Y-91335803D01*
X159575912Y-91394405D01*
X159521395Y-91422181D01*
X159518165Y-91422639D01*
X159507603Y-91423956D01*
X159506296Y-91424119D01*
X159500165Y-91424500D01*
X159495960Y-91424500D01*
X159485209Y-91426293D01*
X159474458Y-91428087D01*
X159423606Y-91434426D01*
X159416581Y-91436517D01*
X159409616Y-91438908D01*
X159364555Y-91463295D01*
X159318517Y-91485801D01*
X159312542Y-91490066D01*
X159306744Y-91494579D01*
X159272042Y-91532275D01*
X157685118Y-93119198D01*
X157669265Y-93132071D01*
X157659335Y-93138559D01*
X157659332Y-93138561D01*
X157638664Y-93165114D01*
X157634605Y-93169712D01*
X157631619Y-93172698D01*
X157618955Y-93190437D01*
X157587483Y-93230874D01*
X157583981Y-93237343D01*
X157580758Y-93243936D01*
X157566138Y-93293045D01*
X157549499Y-93341512D01*
X157548293Y-93348743D01*
X157547383Y-93356047D01*
X157549500Y-93407231D01*
X157549500Y-97763211D01*
X157530593Y-97821402D01*
X157510768Y-97841752D01*
X157471721Y-97871714D01*
X157471718Y-97871716D01*
X157375462Y-97997160D01*
X157375462Y-97997161D01*
X157314957Y-98143233D01*
X157314955Y-98143241D01*
X157294318Y-98299999D01*
X157294318Y-98300000D01*
X156450500Y-98300000D01*
X156450500Y-97999499D01*
X156469407Y-97941308D01*
X156518907Y-97905344D01*
X156549500Y-97900499D01*
X156606521Y-97900499D01*
X156606522Y-97900498D01*
X156653411Y-97893072D01*
X156700299Y-97885647D01*
X156700299Y-97885646D01*
X156700304Y-97885646D01*
X156813342Y-97828050D01*
X156903050Y-97738342D01*
X156960646Y-97625304D01*
X156975500Y-97531519D01*
X156975499Y-97068482D01*
X156975498Y-97068478D01*
X156975498Y-97068476D01*
X156960647Y-96974700D01*
X156960646Y-96974698D01*
X156960646Y-96974696D01*
X156903050Y-96861658D01*
X156813342Y-96771950D01*
X156700304Y-96714354D01*
X156700305Y-96714354D01*
X156606522Y-96699500D01*
X155993479Y-96699500D01*
X155993476Y-96699501D01*
X155899700Y-96714352D01*
X155899695Y-96714354D01*
X155786659Y-96771949D01*
X155696949Y-96861659D01*
X155639354Y-96974695D01*
X155624500Y-97068478D01*
X155624500Y-97235790D01*
X155605593Y-97293981D01*
X155556093Y-97329945D01*
X155494907Y-97329945D01*
X155446958Y-97296057D01*
X155428286Y-97271723D01*
X155428285Y-97271722D01*
X155428282Y-97271718D01*
X155428277Y-97271714D01*
X155428276Y-97271713D01*
X155302838Y-97175462D01*
X155156766Y-97114957D01*
X155156758Y-97114955D01*
X155000001Y-97094318D01*
X154999999Y-97094318D01*
X154843241Y-97114955D01*
X154843233Y-97114957D01*
X154697161Y-97175462D01*
X154697160Y-97175462D01*
X154571723Y-97271713D01*
X154571716Y-97271720D01*
X154500963Y-97363927D01*
X154450538Y-97398582D01*
X154435556Y-97401109D01*
X154430006Y-97402415D01*
X154421015Y-97406385D01*
X154399227Y-97413132D01*
X154389570Y-97414937D01*
X154389564Y-97414939D01*
X154362466Y-97431717D01*
X154356399Y-97434915D01*
X154327237Y-97447792D01*
X154327233Y-97447795D01*
X154320284Y-97454744D01*
X154302409Y-97468903D01*
X154294048Y-97474080D01*
X154274839Y-97499515D01*
X154270335Y-97504692D01*
X153733590Y-98041437D01*
X153722361Y-98049550D01*
X153723090Y-98050515D01*
X153715771Y-98056041D01*
X153683372Y-98091580D01*
X153681796Y-98093231D01*
X153667830Y-98107198D01*
X153667817Y-98107213D01*
X153665813Y-98110138D01*
X153661561Y-98115504D01*
X153646015Y-98132559D01*
X153592841Y-98162828D01*
X153553534Y-98162964D01*
X153525000Y-98157287D01*
X153525000Y-99209999D01*
X153525001Y-99210000D01*
X153533424Y-99210000D01*
X153591615Y-99228907D01*
X153615739Y-99253998D01*
X153636814Y-99285539D01*
X153637315Y-99286288D01*
X153654000Y-99341290D01*
X153654000Y-102058708D01*
X153637316Y-102113708D01*
X153615740Y-102146000D01*
X153567691Y-102183880D01*
X153533424Y-102190000D01*
X153525001Y-102190000D01*
X153525000Y-102190001D01*
X153525000Y-103251382D01*
X153546292Y-103284643D01*
X153549500Y-103309641D01*
X153549500Y-103625709D01*
X153530593Y-103683900D01*
X153488386Y-103717173D01*
X153347660Y-103775463D01*
X153222223Y-103871713D01*
X153222213Y-103871723D01*
X153125962Y-103997160D01*
X153125962Y-103997161D01*
X153065457Y-104143233D01*
X153065455Y-104143241D01*
X153044818Y-104299999D01*
X153044818Y-104300000D01*
X153065455Y-104456758D01*
X153065457Y-104456766D01*
X153125962Y-104602838D01*
X153125962Y-104602839D01*
X153206087Y-104707260D01*
X153226511Y-104764936D01*
X153209133Y-104823602D01*
X153191958Y-104841231D01*
X153192168Y-104841441D01*
X153186659Y-104846949D01*
X153186658Y-104846950D01*
X153143688Y-104889920D01*
X153096949Y-104936659D01*
X153039354Y-105049695D01*
X153024500Y-105143477D01*
X153024500Y-105606520D01*
X152450500Y-105606520D01*
X152450500Y-104236188D01*
X152469407Y-104177997D01*
X152479490Y-104166190D01*
X153114881Y-103530798D01*
X153130731Y-103517928D01*
X153140669Y-103511437D01*
X153161341Y-103484875D01*
X153165399Y-103480281D01*
X153168375Y-103477306D01*
X153171176Y-103473382D01*
X153181039Y-103459569D01*
X153212516Y-103419127D01*
X153216023Y-103412645D01*
X153219239Y-103406067D01*
X153219238Y-103406067D01*
X153219240Y-103406066D01*
X153233861Y-103356954D01*
X153250500Y-103308488D01*
X153250500Y-103308483D01*
X153251705Y-103301263D01*
X153252291Y-103296563D01*
X153253697Y-103293559D01*
X153254621Y-103287226D01*
X153254963Y-103286078D01*
X153256927Y-103286663D01*
X153275000Y-103248075D01*
X153275000Y-102190001D01*
X153274999Y-102190000D01*
X153266576Y-102190000D01*
X153208385Y-102171093D01*
X153184260Y-102146000D01*
X153162684Y-102113708D01*
X153146000Y-102058708D01*
X153146000Y-99341290D01*
X153162685Y-99286288D01*
X153163186Y-99285539D01*
X153184260Y-99253998D01*
X153232311Y-99216119D01*
X153266576Y-99210000D01*
X153274999Y-99210000D01*
X153275000Y-99209999D01*
X153275000Y-98148616D01*
X153253707Y-98115353D01*
X153250500Y-98090357D01*
X153250500Y-97849500D01*
X153269407Y-97791309D01*
X153318907Y-97755345D01*
X153349500Y-97750500D01*
X153583490Y-97750500D01*
X153604885Y-97747111D01*
X153683126Y-97734719D01*
X153803220Y-97673528D01*
X153898528Y-97578220D01*
X153959719Y-97458126D01*
X153973601Y-97370473D01*
X153975500Y-97358489D01*
X153975500Y-96981900D01*
X153994407Y-96923709D01*
X154004490Y-96911902D01*
X154705484Y-96210909D01*
X154705485Y-96210907D01*
X154711127Y-96205265D01*
X154711129Y-96205261D01*
X154728050Y-96188342D01*
X154739001Y-96166847D01*
X154747111Y-96153613D01*
X154761297Y-96134089D01*
X154768750Y-96111146D01*
X154774692Y-96096800D01*
X154785646Y-96075304D01*
X154789421Y-96051467D01*
X154793045Y-96036376D01*
X154793531Y-96034881D01*
X154800500Y-96013433D01*
X154800500Y-95886567D01*
X154800500Y-95886566D01*
X154800500Y-95881520D01*
X155624500Y-95881520D01*
X155624501Y-95881523D01*
X155639352Y-95975299D01*
X155639354Y-95975304D01*
X155696950Y-96088342D01*
X155786658Y-96178050D01*
X155899696Y-96235646D01*
X155993481Y-96250500D01*
X156606518Y-96250499D01*
X156606520Y-96250499D01*
X156606521Y-96250498D01*
X156653411Y-96243072D01*
X156700299Y-96235647D01*
X156700299Y-96235646D01*
X156700304Y-96235646D01*
X156813342Y-96178050D01*
X156903050Y-96088342D01*
X156960646Y-95975304D01*
X156975500Y-95881519D01*
X156975499Y-95418482D01*
X156960646Y-95324696D01*
X156960646Y-95324695D01*
X156916392Y-95237844D01*
X156906448Y-95205820D01*
X156890702Y-95086214D01*
X156885044Y-95043238D01*
X156877490Y-95025000D01*
X156824537Y-94897161D01*
X156824537Y-94897160D01*
X156728281Y-94771716D01*
X156728278Y-94771714D01*
X156689232Y-94741752D01*
X156654577Y-94691328D01*
X156650500Y-94663211D01*
X156650500Y-93786190D01*
X156669407Y-93727999D01*
X156679496Y-93716186D01*
X159462997Y-90932685D01*
X159517514Y-90904908D01*
X159577946Y-90914479D01*
X159603001Y-90932682D01*
X159634517Y-90964198D01*
X159673702Y-90983354D01*
X159739604Y-91015572D01*
X159739605Y-91015572D01*
X159739607Y-91015573D01*
X159807740Y-91025500D01*
X159807743Y-91025500D01*
X161274257Y-91025500D01*
X161274260Y-91025500D01*
X161342393Y-91015573D01*
X161447483Y-90964198D01*
X161530198Y-90881483D01*
X161581573Y-90776393D01*
X161591500Y-90708260D01*
X161591500Y-90341740D01*
X161581573Y-90273607D01*
X161565656Y-90241049D01*
X161539569Y-90187686D01*
X161530198Y-90168517D01*
X161447483Y-90085802D01*
X161447481Y-90085801D01*
X161342395Y-90034427D01*
X161315139Y-90030456D01*
X161274260Y-90024500D01*
X159807740Y-90024500D01*
X159773673Y-90029463D01*
X159739604Y-90034427D01*
X159634518Y-90085801D01*
X159634517Y-90085801D01*
X159634517Y-90085802D01*
X159574813Y-90145505D01*
X159520299Y-90173281D01*
X159504812Y-90174500D01*
X159421619Y-90174500D01*
X159401304Y-90172393D01*
X159389686Y-90169957D01*
X159389685Y-90169957D01*
X159356287Y-90174120D01*
X159350163Y-90174500D01*
X159345960Y-90174500D01*
X159335209Y-90176293D01*
X159324458Y-90178087D01*
X159273606Y-90184426D01*
X159266575Y-90186519D01*
X159259621Y-90188907D01*
X159214550Y-90213297D01*
X159168518Y-90235801D01*
X159162529Y-90240077D01*
X159156742Y-90244581D01*
X159122031Y-90282287D01*
X156085118Y-93319198D01*
X156069265Y-93332071D01*
X156059335Y-93338559D01*
X156059332Y-93338561D01*
X156038664Y-93365114D01*
X156034605Y-93369712D01*
X156031619Y-93372698D01*
X156018955Y-93390437D01*
X155987483Y-93430874D01*
X155983981Y-93437343D01*
X155980758Y-93443936D01*
X155966138Y-93493045D01*
X155949499Y-93541512D01*
X155948293Y-93548743D01*
X155947383Y-93556047D01*
X155949500Y-93607231D01*
X155949500Y-94663211D01*
X155930593Y-94721402D01*
X155910768Y-94741752D01*
X155871721Y-94771714D01*
X155871718Y-94771716D01*
X155775462Y-94897160D01*
X155775462Y-94897161D01*
X155714957Y-95043233D01*
X155714955Y-95043240D01*
X155693551Y-95205818D01*
X155683608Y-95237839D01*
X155639354Y-95324694D01*
X155624500Y-95418477D01*
X155624500Y-95881520D01*
X154800500Y-95881520D01*
X154800500Y-91600002D01*
X155594353Y-91600002D01*
X155614834Y-91742456D01*
X155657726Y-91836375D01*
X155674623Y-91873373D01*
X155760563Y-91972554D01*
X155768873Y-91982144D01*
X155889942Y-92059950D01*
X155889947Y-92059953D01*
X155996403Y-92091211D01*
X156028035Y-92100499D01*
X156028036Y-92100499D01*
X156028039Y-92100500D01*
X156028041Y-92100500D01*
X156171959Y-92100500D01*
X156171961Y-92100500D01*
X156310053Y-92059953D01*
X156431128Y-91982143D01*
X156525377Y-91873373D01*
X156585165Y-91742457D01*
X156592756Y-91689658D01*
X156605647Y-91600002D01*
X156605647Y-91599997D01*
X156585165Y-91457543D01*
X156576655Y-91438908D01*
X156525377Y-91326627D01*
X156431128Y-91217857D01*
X156431127Y-91217856D01*
X156431126Y-91217855D01*
X156310057Y-91140049D01*
X156310054Y-91140047D01*
X156310053Y-91140047D01*
X156310050Y-91140046D01*
X156171964Y-91099500D01*
X156171961Y-91099500D01*
X156028039Y-91099500D01*
X156028035Y-91099500D01*
X155889949Y-91140046D01*
X155889942Y-91140049D01*
X155768873Y-91217855D01*
X155674622Y-91326628D01*
X155614834Y-91457543D01*
X155594353Y-91599997D01*
X155594353Y-91600002D01*
X154800500Y-91600002D01*
X154800500Y-90451054D01*
X154819407Y-90392864D01*
X154866801Y-90357611D01*
X154878679Y-90353455D01*
X154986430Y-90273930D01*
X155065955Y-90166179D01*
X155110186Y-90039774D01*
X155112999Y-90009773D01*
X155612000Y-90009773D01*
X155614813Y-90039768D01*
X155614815Y-90039777D01*
X155659043Y-90166175D01*
X155659044Y-90166176D01*
X155659045Y-90166179D01*
X155738570Y-90273930D01*
X155846321Y-90353455D01*
X155972726Y-90397686D01*
X156002726Y-90400499D01*
X156002730Y-90400500D01*
X156002736Y-90400500D01*
X156597270Y-90400500D01*
X156597272Y-90400499D01*
X156627274Y-90397686D01*
X156753679Y-90353455D01*
X156861430Y-90273930D01*
X156940955Y-90166179D01*
X156985186Y-90039774D01*
X156987999Y-90009772D01*
X156988000Y-90009770D01*
X156988000Y-89849500D01*
X157006907Y-89791309D01*
X157056407Y-89755345D01*
X157087000Y-89750500D01*
X159685870Y-89750500D01*
X159729349Y-89760558D01*
X159739607Y-89765573D01*
X159807740Y-89775500D01*
X159807743Y-89775500D01*
X161274257Y-89775500D01*
X161274260Y-89775500D01*
X161342393Y-89765573D01*
X161352650Y-89760558D01*
X161396130Y-89750500D01*
X161718213Y-89750500D01*
X161776404Y-89769407D01*
X161796754Y-89789232D01*
X161826718Y-89828282D01*
X161952159Y-89924536D01*
X162098238Y-89985044D01*
X162215809Y-90000522D01*
X162254999Y-90005682D01*
X162255000Y-90005682D01*
X162255001Y-90005682D01*
X162286352Y-90001554D01*
X162411762Y-89985044D01*
X162557841Y-89924536D01*
X162683282Y-89828282D01*
X162779536Y-89702841D01*
X162840044Y-89556762D01*
X162860682Y-89400000D01*
X162840044Y-89243238D01*
X162779537Y-89097161D01*
X162779537Y-89097160D01*
X162683286Y-88971723D01*
X162683285Y-88971722D01*
X162683282Y-88971718D01*
X162683277Y-88971714D01*
X162683276Y-88971713D01*
X162599410Y-88907361D01*
X162557841Y-88875464D01*
X162557840Y-88875463D01*
X162557838Y-88875462D01*
X162411766Y-88814957D01*
X162411758Y-88814955D01*
X162255001Y-88794318D01*
X162254999Y-88794318D01*
X162098241Y-88814955D01*
X162098233Y-88814957D01*
X161952161Y-88875462D01*
X161952160Y-88875462D01*
X161826723Y-88971713D01*
X161826714Y-88971722D01*
X161796755Y-89010767D01*
X161746331Y-89045423D01*
X161718213Y-89049500D01*
X161656030Y-89049500D01*
X161597839Y-89030593D01*
X161567089Y-88993980D01*
X161560789Y-88981093D01*
X161530198Y-88918517D01*
X161447483Y-88835802D01*
X161443431Y-88833821D01*
X161342395Y-88784427D01*
X161305138Y-88778999D01*
X161274260Y-88774500D01*
X159807740Y-88774500D01*
X159776862Y-88778999D01*
X159739604Y-88784427D01*
X159634518Y-88835801D01*
X159551801Y-88918518D01*
X159514911Y-88993980D01*
X159472368Y-89037954D01*
X159425970Y-89049500D01*
X157083708Y-89049500D01*
X157025517Y-89030593D01*
X156989553Y-88981093D01*
X156986199Y-88964866D01*
X156985186Y-88960231D01*
X156985186Y-88960226D01*
X156940955Y-88833821D01*
X156861430Y-88726070D01*
X156753679Y-88646545D01*
X156753676Y-88646544D01*
X156753675Y-88646543D01*
X156627277Y-88602315D01*
X156627276Y-88602314D01*
X156627274Y-88602314D01*
X156627271Y-88602313D01*
X156627268Y-88602313D01*
X156597273Y-88599500D01*
X156597264Y-88599500D01*
X156002736Y-88599500D01*
X156002726Y-88599500D01*
X155972731Y-88602313D01*
X155972722Y-88602315D01*
X155846324Y-88646543D01*
X155738571Y-88726069D01*
X155738569Y-88726071D01*
X155701068Y-88776882D01*
X155671472Y-88816984D01*
X155659043Y-88833824D01*
X155614815Y-88960222D01*
X155614813Y-88960231D01*
X155612000Y-88990226D01*
X155612000Y-90009773D01*
X155112999Y-90009773D01*
X155112999Y-90009772D01*
X155113000Y-90009769D01*
X155113000Y-88990230D01*
X155112999Y-88990226D01*
X155110186Y-88960226D01*
X155065955Y-88833821D01*
X154986430Y-88726070D01*
X154878679Y-88646545D01*
X154878676Y-88646544D01*
X154878675Y-88646543D01*
X154752277Y-88602315D01*
X154752276Y-88602314D01*
X154752274Y-88602314D01*
X154752271Y-88602313D01*
X154752268Y-88602313D01*
X154722273Y-88599500D01*
X154722264Y-88599500D01*
X154127736Y-88599500D01*
X154127726Y-88599500D01*
X154097731Y-88602313D01*
X154097722Y-88602315D01*
X153971324Y-88646543D01*
X153863571Y-88726069D01*
X153863569Y-88726071D01*
X153826068Y-88776882D01*
X153796472Y-88816984D01*
X153784043Y-88833824D01*
X153739815Y-88960222D01*
X153739813Y-88960231D01*
X153737000Y-88990226D01*
X153737000Y-89192500D01*
X153718093Y-89250691D01*
X153668593Y-89286655D01*
X153638000Y-89291500D01*
X148909900Y-89291500D01*
X148851709Y-89272593D01*
X148839896Y-89262504D01*
X147256393Y-87679000D01*
X162191001Y-87679000D01*
X162191001Y-87729203D01*
X162193850Y-87759600D01*
X162193850Y-87759602D01*
X162238654Y-87887647D01*
X162319207Y-87996790D01*
X162319209Y-87996792D01*
X162428352Y-88077345D01*
X162556398Y-88122149D01*
X162586789Y-88124999D01*
X163486998Y-88124999D01*
X163487000Y-88124998D01*
X163487000Y-87679001D01*
X163486999Y-87679000D01*
X162191001Y-87679000D01*
X147256393Y-87679000D01*
X146773924Y-87196531D01*
X146753843Y-87176451D01*
X146753842Y-87176450D01*
X146743145Y-87170999D01*
X162191000Y-87170999D01*
X162191001Y-87171000D01*
X163486999Y-87171000D01*
X163486999Y-86725000D01*
X162586796Y-86725000D01*
X162556399Y-86727850D01*
X162556397Y-86727850D01*
X162428352Y-86772654D01*
X162319209Y-86853207D01*
X162319207Y-86853209D01*
X162238654Y-86962352D01*
X162193850Y-87090398D01*
X162191000Y-87120788D01*
X162191000Y-87170999D01*
X146743145Y-87170999D01*
X146732347Y-87165497D01*
X146719108Y-87157384D01*
X146713081Y-87153005D01*
X146699590Y-87143204D01*
X146699588Y-87143203D01*
X146676642Y-87135747D01*
X146662288Y-87129801D01*
X146640806Y-87118854D01*
X146616974Y-87115079D01*
X146601874Y-87111453D01*
X146578937Y-87104000D01*
X146578933Y-87104000D01*
X146547019Y-87104000D01*
X144275161Y-87104000D01*
X144216970Y-87085093D01*
X144195067Y-87063189D01*
X144193659Y-87061251D01*
X144193658Y-87061249D01*
X144099751Y-86967342D01*
X144089958Y-86962352D01*
X143981423Y-86907050D01*
X143981420Y-86907049D01*
X143956876Y-86903161D01*
X143883249Y-86891500D01*
X143883246Y-86891500D01*
X143304754Y-86891500D01*
X143304751Y-86891500D01*
X143206580Y-86907049D01*
X143206576Y-86907050D01*
X143088250Y-86967341D01*
X142994340Y-87061251D01*
X142992933Y-87063189D01*
X142990994Y-87064597D01*
X142988833Y-87066759D01*
X142988490Y-87066416D01*
X142943434Y-87099154D01*
X142912839Y-87104000D01*
X141275161Y-87104000D01*
X141216970Y-87085093D01*
X141195067Y-87063189D01*
X141193659Y-87061251D01*
X141193658Y-87061249D01*
X141099751Y-86967342D01*
X141089958Y-86962352D01*
X140981423Y-86907050D01*
X140981420Y-86907049D01*
X140956876Y-86903161D01*
X140883249Y-86891500D01*
X140883246Y-86891500D01*
X140304754Y-86891500D01*
X140304751Y-86891500D01*
X140206580Y-86907049D01*
X140206576Y-86907050D01*
X140088250Y-86967341D01*
X139994342Y-87061249D01*
X139971888Y-87105317D01*
X139928623Y-87148580D01*
X139868190Y-87158151D01*
X139845793Y-87151834D01*
X139837937Y-87148580D01*
X139756762Y-87114956D01*
X139756760Y-87114955D01*
X139756758Y-87114955D01*
X139600001Y-87094318D01*
X139599999Y-87094318D01*
X139443241Y-87114955D01*
X139443233Y-87114957D01*
X139297161Y-87175462D01*
X139297160Y-87175462D01*
X139171723Y-87271713D01*
X139171713Y-87271723D01*
X139075462Y-87397160D01*
X139075462Y-87397161D01*
X139014957Y-87543233D01*
X139014955Y-87543241D01*
X138994318Y-87699999D01*
X138994318Y-87700000D01*
X136094500Y-87700000D01*
X136094500Y-85916500D01*
X136113407Y-85858309D01*
X136162907Y-85822345D01*
X136193500Y-85817500D01*
X164994500Y-85817500D01*
X165052691Y-85836407D01*
G37*
%TD.AperFunction*%
%TD*%
M02*
